<svg width="96" height="96" viewBox="0 0 96 96" fill="none" xmlns="http://www.w3.org/2000/svg">
<rect width="96" height="96" rx="48" fill="#4268FF"/>
<path d="M28.1001 49.9998H39.0541C39.3964 56.3335 41.4152 62.4626 44.9041 67.7598C40.5336 67.0737 36.5137 64.9587 33.473 61.7453C30.4322 58.5319 28.5441 54.4015 28.1001 49.9998ZM28.0981 45.9998C28.5416 41.598 30.4312 37.4673 33.4716 34.2536C36.512 31.0399 40.5317 28.9243 44.9021 28.2378C41.4132 33.535 39.3944 39.6641 39.0521 45.9978L28.0981 45.9998ZM67.8981 45.9998H56.9441C56.6023 39.6654 54.5834 33.5356 51.0941 28.2378C55.4646 28.9238 59.4846 31.0389 62.5253 34.2523C65.5661 37.4656 67.4562 41.5961 67.9001 45.9978M67.9001 49.9978C67.4563 54.3992 65.5665 58.5294 62.5261 61.7428C59.4858 64.9561 55.4663 67.0713 51.0961 67.7578C54.5847 62.4612 56.6036 56.3328 56.9461 49.9998L67.9001 49.9978ZM43.0601 49.9998H52.9401C52.6117 55.3989 50.9114 60.625 48.0001 65.1838C45.0889 60.625 43.3886 55.3989 43.0601 49.9998ZM43.0601 45.9998C43.3886 40.6007 45.0889 35.3746 48.0001 30.8158C50.9114 35.3746 52.6117 40.6007 52.9401 45.9998H43.0601Z" fill="white"/>
</svg>
