<svg width="96" height="96" viewBox="0 0 96 96" fill="none" xmlns="http://www.w3.org/2000/svg">
<rect width="96" height="96" rx="48" fill="#4268FF"/>
<g clip-path="url(#clip0_2453_2512)">
<path d="M59.7072 24.6767L60.5424 27.2471C60.8017 28.0292 61.2403 28.7397 61.8234 29.3219C62.4064 29.9041 63.1176 30.3418 63.9 30.5999L66.4704 31.4351L66.5208 31.4495C66.7191 31.5193 66.8908 31.6489 67.0122 31.8204C67.1337 31.9919 67.1989 32.1969 67.1989 32.4071C67.1989 32.6173 67.1337 32.8223 67.0122 32.9938C66.8908 33.1653 66.7191 33.2949 66.5208 33.3647L63.9504 34.1999C63.168 34.458 62.4568 34.8957 61.8738 35.4779C61.2907 36.0601 60.8521 36.7706 60.5928 37.5527L59.7576 40.1207C59.6878 40.3189 59.5582 40.4906 59.3867 40.6121C59.2152 40.7336 59.0102 40.7988 58.8 40.7988C58.5898 40.7988 58.3848 40.7336 58.2133 40.6121C58.0418 40.4906 57.9122 40.3189 57.8424 40.1207L57.0048 37.5527C56.7476 36.7689 56.3103 36.0562 55.728 35.4719C55.1454 34.8864 54.4335 34.4458 53.6496 34.1855L51.0792 33.3503C50.881 33.2805 50.7093 33.1509 50.5878 32.9794C50.4663 32.8079 50.4011 32.6029 50.4011 32.3927C50.4011 32.1825 50.4663 31.9775 50.5878 31.806C50.7093 31.6345 50.881 31.5049 51.0792 31.4351L53.6496 30.5999C54.4223 30.3348 55.1229 29.894 55.6964 29.3122C56.2698 28.7304 56.7005 28.0235 56.9544 27.2471L57.7896 24.6791C57.8589 24.48 57.9884 24.3074 58.1602 24.1853C58.3321 24.0632 58.5376 23.9976 58.7484 23.9976C58.9592 23.9976 59.1648 24.0632 59.3366 24.1853C59.5084 24.3074 59.6379 24.4776 59.7072 24.6767ZM71.4792 43.7135L69.6408 43.1183C69.083 42.9318 68.5762 42.6181 68.1605 42.202C67.7448 41.7858 67.4316 41.2787 67.2456 40.7207L66.6456 38.8871C66.5959 38.7453 66.5034 38.6225 66.3809 38.5356C66.2583 38.4487 66.1118 38.402 65.9616 38.402C65.8114 38.402 65.6649 38.4487 65.5424 38.5356C65.4198 38.6225 65.3273 38.7453 65.2776 38.8871L64.6824 40.7207C64.4999 41.2751 64.1918 41.78 63.7822 42.1958C63.3725 42.6117 62.8724 42.9274 62.3208 43.1183L60.4848 43.7135C60.3441 43.7643 60.2225 43.8572 60.1366 43.9796C60.0506 44.102 60.0045 44.2479 60.0045 44.3975C60.0045 44.5471 60.0506 44.693 60.1366 44.8154C60.2225 44.9378 60.3441 45.0307 60.4848 45.0815L62.3208 45.6791C62.8803 45.8657 63.3886 46.1802 63.8052 46.5977C64.2218 47.0151 64.5353 47.524 64.7208 48.0839L65.316 49.9175C65.3657 50.0593 65.4582 50.1821 65.5807 50.269C65.7033 50.3559 65.8498 50.4025 66 50.4025C66.1502 50.4025 66.2967 50.3559 66.4193 50.269C66.5418 50.1821 66.6343 50.0593 66.684 49.9175L67.2816 48.0839C67.4678 47.5256 67.7814 47.0183 68.1975 46.6022C68.6136 46.186 69.1209 45.8725 69.6792 45.6863L71.5152 45.0911C71.6559 45.0403 71.7775 44.9474 71.8634 44.825C71.9494 44.7026 71.9955 44.5567 71.9955 44.4071C71.9955 44.2575 71.9494 44.1116 71.8634 43.9892C71.7775 43.8668 71.6559 43.7739 71.5152 43.7231L71.4792 43.7135ZM66.0048 52.7999C65.3662 52.7991 64.7426 52.6068 64.2144 52.2479C63.6864 51.8639 63.3024 51.3575 63.0624 50.7575L62.4384 48.8327C62.3751 48.6301 62.2591 48.4479 62.1024 48.3047C61.9532 48.1553 61.7729 48.0406 61.5744 47.9687L59.7456 47.3687C59.0976 47.1287 58.5696 46.7423 58.1856 46.2143C57.8016 45.6863 57.6096 45.0599 57.6096 44.4095C57.6096 43.9535 57.7056 43.4975 57.8976 43.0895C57.5136 42.9935 57.1536 42.8255 56.8176 42.5855C56.2466 42.1669 55.8116 41.5892 55.5672 40.9247L54.7032 38.3039C54.4872 37.7519 54.2712 37.4399 54.0072 37.1759C53.6849 36.8646 53.2994 36.6264 52.8768 36.4775L50.3304 35.6375C49.9155 35.4995 49.5315 35.2818 49.2 34.9967V65.4047C50.1389 66.2376 51.2809 66.8081 52.5108 67.0586C53.7406 67.3092 55.0148 67.2309 56.2047 66.8316C57.3946 66.4324 58.4581 65.7264 59.288 64.7848C60.1178 63.8432 60.6847 62.6993 60.9312 61.4687L61.02 61.0199C62.8976 60.6216 64.5625 59.5451 65.696 57.9962C66.8296 56.4473 67.3522 54.5348 67.164 52.6247C66.7898 52.746 66.3982 52.8052 66.0048 52.7999ZM46.8 29.9087C46.011 29.3356 45.0905 28.9701 44.1232 28.846C43.156 28.7218 42.173 28.8428 41.2648 29.198C40.3565 29.5531 39.5522 30.131 38.9258 30.8784C38.2994 31.6258 37.871 32.5188 37.68 33.4751L37.38 34.9799L36.4056 35.1743C34.938 35.4687 33.6175 36.2621 32.6686 37.4197C31.7196 38.5774 31.2007 40.0278 31.2 41.5247V41.9999C31.2 43.7423 31.944 45.3119 33.132 46.4087C31.6809 47.1277 30.4898 48.2808 29.7242 49.7078C28.9585 51.1348 28.6563 52.7649 28.8595 54.3715C29.0627 55.9782 29.7612 57.4817 30.8581 58.6731C31.9549 59.8645 33.3956 60.6848 34.98 61.0199L35.0688 61.4639C35.315 62.6947 35.8816 63.8388 36.7113 64.7807C37.541 65.7226 38.6046 66.429 39.7945 66.8285C40.9845 67.228 42.2588 67.3065 43.4888 67.0561C44.7188 66.8057 45.8609 66.2352 46.8 65.4023V29.9087Z" fill="white"/>
</g>
<defs>
<clipPath id="clip0_2453_2512">
<rect width="48" height="48" fill="white" transform="translate(24 24)"/>
</clipPath>
</defs>
</svg>
