<svg width="96" height="96" viewBox="0 0 96 96" fill="none" xmlns="http://www.w3.org/2000/svg">
<rect width="96" height="96" rx="48" fill="#4268FF"/>
<path d="M35.25 42V54C35.25 54.5967 35.0129 55.169 34.591 55.591C34.169 56.0129 33.5967 56.25 33 56.25C32.4033 56.25 31.831 56.0129 31.409 55.591C30.9871 55.169 30.75 54.5967 30.75 54V42C30.75 41.4033 30.9871 40.831 31.409 40.409C31.831 39.9871 32.4033 39.75 33 39.75C33.5967 39.75 34.169 39.9871 34.591 40.409C35.0129 40.831 35.25 41.4033 35.25 42ZM40.5 27.75C39.9033 27.75 39.331 27.9871 38.909 28.409C38.4871 28.831 38.25 29.4033 38.25 30V66C38.25 66.5967 38.4871 67.169 38.909 67.591C39.331 68.0129 39.9033 68.25 40.5 68.25C41.0967 68.25 41.669 68.0129 42.091 67.591C42.5129 67.169 42.75 66.5967 42.75 66V30C42.75 29.4033 42.5129 28.831 42.091 28.409C41.669 27.9871 41.0967 27.75 40.5 27.75ZM48 33.75C47.4033 33.75 46.831 33.9871 46.409 34.409C45.9871 34.831 45.75 35.4033 45.75 36V60C45.75 60.5967 45.9871 61.169 46.409 61.591C46.831 62.0129 47.4033 62.25 48 62.25C48.5967 62.25 49.169 62.0129 49.591 61.591C50.0129 61.169 50.25 60.5967 50.25 60V36C50.25 35.4033 50.0129 34.831 49.591 34.409C49.169 33.9871 48.5967 33.75 48 33.75ZM55.5 39.75C54.9033 39.75 54.331 39.9871 53.909 40.409C53.4871 40.831 53.25 41.4033 53.25 42V54C53.25 54.5967 53.4871 55.169 53.909 55.591C54.331 56.0129 54.9033 56.25 55.5 56.25C56.0967 56.25 56.669 56.0129 57.091 55.591C57.5129 55.169 57.75 54.5967 57.75 54V42C57.75 41.4033 57.5129 40.831 57.091 40.409C56.669 39.9871 56.0967 39.75 55.5 39.75ZM63 36.75C62.4033 36.75 61.831 36.9871 61.409 37.409C60.9871 37.831 60.75 38.4033 60.75 39V57C60.75 57.5967 60.9871 58.169 61.409 58.591C61.831 59.0129 62.4033 59.25 63 59.25C63.5967 59.25 64.169 59.0129 64.591 58.591C65.0129 58.169 65.25 57.5967 65.25 57V39C65.25 38.4033 65.0129 37.831 64.591 37.409C64.169 36.9871 63.5967 36.75 63 36.75Z" fill="white"/>
</svg>
