<svg width="96" height="96" viewBox="0 0 96 96" fill="none" xmlns="http://www.w3.org/2000/svg">
<rect width="96" height="96" rx="48" fill="#4268FF"/>
<path d="M39.5002 29C39.5002 28.6022 39.3422 28.2206 39.0609 27.9393C38.7796 27.658 38.398 27.5 38.0002 27.5C37.6024 27.5 37.2208 27.658 36.9395 27.9393C36.6582 28.2206 36.5002 28.6022 36.5002 29V32.16C33.6202 32.39 31.7322 32.954 30.3442 34.344C28.9542 35.732 28.3902 37.622 28.1582 40.5H67.8422C67.6102 37.62 67.0462 35.732 65.6562 34.344C64.2682 32.954 62.3782 32.39 59.5002 32.158V29C59.5002 28.6022 59.3422 28.2206 59.0609 27.9393C58.7796 27.658 58.398 27.5 58.0002 27.5C57.6024 27.5 57.2208 27.658 56.9395 27.9393C56.6582 28.2206 56.5002 28.6022 56.5002 29V32.026C55.1702 32 53.6782 32 52.0002 32H44.0002C42.3222 32 40.8302 32 39.5002 32.026V29Z" fill="white"/>
<path fill-rule="evenodd" clip-rule="evenodd" d="M28 48C28 46.322 28 44.83 28.026 43.5H67.974C68 44.83 68 46.322 68 48V52C68 59.542 68 63.314 65.656 65.656C63.312 67.998 59.542 68 52 68H44C36.458 68 32.686 68 30.344 65.656C28.002 63.312 28 59.542 28 52V48ZM58 52C58.5304 52 59.0391 51.7893 59.4142 51.4142C59.7893 51.0391 60 50.5304 60 50C60 49.4696 59.7893 48.9609 59.4142 48.5858C59.0391 48.2107 58.5304 48 58 48C57.4696 48 56.9609 48.2107 56.5858 48.5858C56.2107 48.9609 56 49.4696 56 50C56 50.5304 56.2107 51.0391 56.5858 51.4142C56.9609 51.7893 57.4696 52 58 52ZM58 60C58.5304 60 59.0391 59.7893 59.4142 59.4142C59.7893 59.0391 60 58.5304 60 58C60 57.4696 59.7893 56.9609 59.4142 56.5858C59.0391 56.2107 58.5304 56 58 56C57.4696 56 56.9609 56.2107 56.5858 56.5858C56.2107 56.9609 56 57.4696 56 58C56 58.5304 56.2107 59.0391 56.5858 59.4142C56.9609 59.7893 57.4696 60 58 60ZM50 50C50 50.5304 49.7893 51.0391 49.4142 51.4142C49.0391 51.7893 48.5304 52 48 52C47.4696 52 46.9609 51.7893 46.5858 51.4142C46.2107 51.0391 46 50.5304 46 50C46 49.4696 46.2107 48.9609 46.5858 48.5858C46.9609 48.2107 47.4696 48 48 48C48.5304 48 49.0391 48.2107 49.4142 48.5858C49.7893 48.9609 50 49.4696 50 50ZM50 58C50 58.5304 49.7893 59.0391 49.4142 59.4142C49.0391 59.7893 48.5304 60 48 60C47.4696 60 46.9609 59.7893 46.5858 59.4142C46.2107 59.0391 46 58.5304 46 58C46 57.4696 46.2107 56.9609 46.5858 56.5858C46.9609 56.2107 47.4696 56 48 56C48.5304 56 49.0391 56.2107 49.4142 56.5858C49.7893 56.9609 50 57.4696 50 58ZM38 52C38.5304 52 39.0391 51.7893 39.4142 51.4142C39.7893 51.0391 40 50.5304 40 50C40 49.4696 39.7893 48.9609 39.4142 48.5858C39.0391 48.2107 38.5304 48 38 48C37.4696 48 36.9609 48.2107 36.5858 48.5858C36.2107 48.9609 36 49.4696 36 50C36 50.5304 36.2107 51.0391 36.5858 51.4142C36.9609 51.7893 37.4696 52 38 52ZM38 60C38.5304 60 39.0391 59.7893 39.4142 59.4142C39.7893 59.0391 40 58.5304 40 58C40 57.4696 39.7893 56.9609 39.4142 56.5858C39.0391 56.2107 38.5304 56 38 56C37.4696 56 36.9609 56.2107 36.5858 56.5858C36.2107 56.9609 36 57.4696 36 58C36 58.5304 36.2107 59.0391 36.5858 59.4142C36.9609 59.7893 37.4696 60 38 60Z" fill="white"/>
</svg>
