<svg width="490" height="659" viewBox="0 0 490 659" fill="none" xmlns="http://www.w3.org/2000/svg">
<g filter="url(#filter0_n_4010_5289)">
<rect width="213.156" height="172" rx="51.5781" fill="white"/>
<rect x="0.370431" y="0.370431" width="212.415" height="171.259" rx="51.2076" stroke="#0C1021" stroke-opacity="0.15" stroke-width="0.740861"/>
<g filter="url(#filter1_i_4010_5289)">
<path d="M78.24 105.652C74.5167 105.652 71.1923 104.825 68.2669 103.17C65.3414 101.486 62.8445 99.1662 60.776 96.2112C58.7075 93.2563 57.1265 89.8432 56.0332 85.9722C54.9694 82.0716 54.4375 77.9051 54.4375 73.4726C54.4375 69.0401 54.9694 64.8735 56.0332 60.973C57.1265 57.0724 58.7075 53.6593 60.776 50.7339C62.8445 47.7789 65.3414 45.474 68.2669 43.8192C71.1923 42.1349 74.5167 41.2927 78.24 41.2927C81.9337 41.2927 85.2433 42.1349 88.1688 43.8192C91.0942 45.474 93.5764 47.7789 95.6153 50.7339C97.6543 53.6593 99.2057 57.0724 100.269 60.973C101.363 64.8735 101.909 69.0401 101.909 73.4726C101.909 77.9051 101.363 82.0716 100.269 85.9722C99.2057 89.8432 97.6543 93.2563 95.6153 96.2112C93.5764 99.1662 91.0942 101.486 88.1688 103.17C85.2433 104.825 81.9337 105.652 78.24 105.652ZM78.24 99.447C82.1406 99.447 85.4058 98.2502 88.0358 95.8566C90.6953 93.4631 92.6899 90.3013 94.0196 86.3711C95.3494 82.4114 96.0143 78.1119 96.0143 73.4726C96.0143 68.5673 95.3198 64.1643 93.931 60.2638C92.5717 56.3336 90.5623 53.2309 87.9028 50.9555C85.2729 48.6506 82.0519 47.4982 78.24 47.4982C75.2259 47.4982 72.5959 48.1926 70.3501 49.5815C68.1043 50.9703 66.2427 52.8763 64.7652 55.2994C63.2877 57.7225 62.1796 60.5002 61.4408 63.6324C60.7021 66.7352 60.3327 70.0152 60.3327 73.4726C60.3327 78.1415 61.0124 82.4558 62.3717 86.4154C63.731 90.3456 65.7404 93.5074 68.3998 95.901C71.0593 98.265 74.3394 99.447 78.24 99.447ZM111.457 104.5L147.272 42.4451H154.452L118.638 104.5H111.457ZM118.727 66.6909C116.776 66.6909 115.003 66.2181 113.408 65.2725C111.812 64.3269 110.527 63.0562 109.551 61.4605C108.606 59.8353 108.133 58.0475 108.133 56.0972C108.133 54.0878 108.606 52.2853 109.551 50.6896C110.527 49.0939 111.812 47.8232 113.408 46.8776C115.033 45.932 116.806 45.4592 118.727 45.4592C120.677 45.4592 122.45 45.9468 124.046 46.922C125.641 47.8676 126.912 49.1382 127.858 50.7339C128.833 52.3296 129.32 54.1174 129.32 56.0972C129.32 58.0771 128.833 59.8648 127.858 61.4605C126.912 63.0562 125.627 64.3269 124.001 65.2725C122.406 66.2181 120.647 66.6909 118.727 66.6909ZM118.727 61.9481C120.381 61.9481 121.77 61.3867 122.893 60.2638C124.016 59.1113 124.577 57.7225 124.577 56.0972C124.577 54.4424 124.016 53.0536 122.893 51.9307C121.77 50.7782 120.381 50.202 118.727 50.202C117.101 50.202 115.713 50.7782 114.56 51.9307C113.437 53.0536 112.876 54.4424 112.876 56.0972C112.876 57.7225 113.437 59.1113 114.56 60.2638C115.713 61.3867 117.101 61.9481 118.727 61.9481ZM147.272 101.53C145.322 101.53 143.534 101.043 141.909 100.068C140.313 99.0628 139.027 97.7626 138.052 96.1669C137.107 94.5417 136.634 92.7835 136.634 90.8923C136.634 88.9124 137.121 87.1246 138.097 85.5289C139.072 83.9037 140.357 82.6183 141.953 81.6727C143.578 80.7271 145.351 80.2543 147.272 80.2543C149.252 80.2543 151.039 80.7419 152.635 81.717C154.231 82.6922 155.501 83.9923 156.447 85.6176C157.393 87.2133 157.865 88.9715 157.865 90.8923C157.865 92.8426 157.393 94.6303 156.447 96.2556C155.501 97.8513 154.216 99.1367 152.591 100.112C150.995 101.057 149.222 101.53 147.272 101.53ZM147.272 96.7875C148.868 96.7875 150.242 96.2112 151.394 95.0588C152.547 93.9064 153.123 92.5175 153.123 90.8923C153.123 89.267 152.547 87.8782 151.394 86.7257C150.242 85.5733 148.868 84.997 147.272 84.997C145.647 84.997 144.243 85.5733 143.061 86.7257C141.909 87.8782 141.332 89.267 141.332 90.8923C141.332 92.5175 141.909 93.9064 143.061 95.0588C144.243 96.2112 145.647 96.7875 147.272 96.7875Z" fill="url(#paint0_linear_4010_5289)"/>
</g>
<path d="M55.7386 132.5L58.3594 118.961H59.9842L63.456 128.08L66.9085 118.961H68.5332L71.1637 132.5H69.1135L67.363 123.438L64.1233 131.987H62.7694L59.5393 123.438L57.7889 132.5H55.7386ZM73.1916 122.829H75.2031V132.5H73.1916V122.829ZM74.2167 121.427C73.9072 121.427 73.6493 121.327 73.443 121.127C73.2367 120.927 73.1335 120.676 73.1335 120.373C73.1335 120.076 73.2367 119.828 73.443 119.628C73.6493 119.422 73.904 119.319 74.207 119.319C74.5036 119.319 74.755 119.422 74.9613 119.628C75.1676 119.828 75.2708 120.076 75.2708 120.373C75.2708 120.676 75.1676 120.927 74.9613 121.127C74.7615 121.327 74.5132 121.427 74.2167 121.427ZM80.2861 132.684C79.7767 132.652 79.2803 132.548 78.7967 132.374C78.3132 132.2 77.8877 131.965 77.5202 131.668C77.1591 131.365 76.8884 131.011 76.7078 130.605L78.4196 129.87C78.5034 130.044 78.6485 130.214 78.8548 130.382C79.0675 130.55 79.3157 130.688 79.5994 130.798C79.8831 130.901 80.1797 130.953 80.4891 130.953C80.7922 130.953 81.0726 130.911 81.3305 130.827C81.5949 130.737 81.8108 130.601 81.9785 130.421C82.1461 130.24 82.2299 130.024 82.2299 129.773C82.2299 129.489 82.1332 129.27 81.9398 129.115C81.7528 128.954 81.5175 128.832 81.2338 128.748C80.9501 128.664 80.6664 128.583 80.3828 128.506C79.7509 128.364 79.1707 128.171 78.642 127.926C78.1198 127.674 77.7039 127.355 77.3945 126.968C77.085 126.575 76.9303 126.095 76.9303 125.527C76.9303 124.908 77.0979 124.373 77.4331 123.922C77.7684 123.464 78.2068 123.113 78.7484 122.868C79.2964 122.623 79.8799 122.5 80.4988 122.5C81.2725 122.5 81.9817 122.665 82.6264 122.994C83.2711 123.322 83.7644 123.774 84.1061 124.347L82.5104 125.295C82.4137 125.102 82.2686 124.928 82.0752 124.773C81.8818 124.618 81.6625 124.496 81.4176 124.405C81.1726 124.309 80.9179 124.254 80.6536 124.241C80.3247 124.228 80.0185 124.267 79.7348 124.357C79.4576 124.441 79.2352 124.576 79.0675 124.763C78.8999 124.95 78.8161 125.189 78.8161 125.479C78.8161 125.763 78.916 125.975 79.1159 126.117C79.3157 126.253 79.5672 126.362 79.8702 126.446C80.1797 126.53 80.4956 126.623 80.818 126.726C81.3918 126.907 81.9301 127.129 82.433 127.394C82.9359 127.652 83.3421 127.971 83.6515 128.351C83.961 128.732 84.1093 129.196 84.0964 129.744C84.0964 130.35 83.9126 130.882 83.5451 131.339C83.1841 131.797 82.7135 132.145 82.1332 132.384C81.5529 132.622 80.9372 132.722 80.2861 132.684ZM88.6536 132.684C88.1443 132.652 87.6479 132.548 87.1643 132.374C86.6808 132.2 86.2553 131.965 85.8878 131.668C85.5267 131.365 85.2559 131.011 85.0754 130.605L86.7872 129.87C86.871 130.044 87.016 130.214 87.2224 130.382C87.4351 130.55 87.6833 130.688 87.967 130.798C88.2507 130.901 88.5473 130.953 88.8567 130.953C89.1598 130.953 89.4402 130.911 89.6981 130.827C89.9624 130.737 90.1784 130.601 90.346 130.421C90.5137 130.24 90.5975 130.024 90.5975 129.773C90.5975 129.489 90.5008 129.27 90.3074 129.115C90.1204 128.954 89.8851 128.832 89.6014 128.748C89.3177 128.664 89.034 128.583 88.7504 128.506C88.1185 128.364 87.5383 128.171 87.0096 127.926C86.4874 127.674 86.0715 127.355 85.762 126.968C85.4526 126.575 85.2978 126.095 85.2978 125.527C85.2978 124.908 85.4655 124.373 85.8007 123.922C86.136 123.464 86.5744 123.113 87.116 122.868C87.664 122.623 88.2475 122.5 88.8664 122.5C89.6401 122.5 90.3493 122.665 90.994 122.994C91.6387 123.322 92.1319 123.774 92.4736 124.347L90.8779 125.295C90.7812 125.102 90.6362 124.928 90.4428 124.773C90.2493 124.618 90.0301 124.496 89.7851 124.405C89.5401 124.309 89.2855 124.254 89.0211 124.241C88.6923 124.228 88.3861 124.267 88.1024 124.357C87.8252 124.441 87.6027 124.576 87.4351 124.763C87.2675 124.95 87.1837 125.189 87.1837 125.479C87.1837 125.763 87.2836 125.975 87.4835 126.117C87.6833 126.253 87.9348 126.362 88.2378 126.446C88.5473 126.53 88.8632 126.623 89.1855 126.726C89.7593 126.907 90.2977 127.129 90.8006 127.394C91.3035 127.652 91.7096 127.971 92.0191 128.351C92.3286 128.732 92.4769 129.196 92.464 129.744C92.464 130.35 92.2802 130.882 91.9127 131.339C91.5517 131.797 91.081 132.145 90.5008 132.384C89.9205 132.622 89.3048 132.722 88.6536 132.684ZM98.2429 132.751C97.3532 132.751 96.5409 132.523 95.8059 132.065C95.0773 131.607 94.4939 130.995 94.0554 130.227C93.6235 129.454 93.4075 128.599 93.4075 127.665C93.4075 126.955 93.5332 126.295 93.7847 125.682C94.0361 125.063 94.381 124.522 94.8194 124.057C95.2643 123.587 95.7801 123.219 96.3668 122.955C96.9535 122.69 97.5789 122.558 98.2429 122.558C98.9844 122.558 99.6646 122.713 100.283 123.023C100.902 123.326 101.431 123.748 101.87 124.289C102.308 124.825 102.63 125.443 102.837 126.146C103.043 126.843 103.104 127.584 103.02 128.371H95.5641C95.6479 128.815 95.8091 129.218 96.0476 129.579C96.2926 129.934 96.6021 130.214 96.976 130.421C97.3564 130.627 97.7787 130.733 98.2429 130.74C98.7329 130.74 99.1778 130.617 99.5775 130.372C99.9837 130.127 100.316 129.789 100.574 129.357L102.614 129.831C102.227 130.688 101.644 131.391 100.864 131.939C100.084 132.481 99.21 132.751 98.2429 132.751ZM95.4964 126.833H100.989C100.925 126.369 100.761 125.95 100.496 125.576C100.238 125.195 99.9128 124.895 99.5195 124.676C99.1327 124.451 98.7071 124.338 98.2429 124.338C97.7852 124.338 97.3597 124.447 96.9664 124.667C96.5795 124.886 96.2572 125.186 95.9993 125.566C95.7478 125.94 95.5802 126.362 95.4964 126.833ZM112.137 117.994H114.148V132.5H112.137V131.078C111.821 131.581 111.408 131.987 110.899 132.297C110.389 132.6 109.793 132.751 109.11 132.751C108.407 132.751 107.749 132.619 107.137 132.355C106.524 132.091 105.983 131.726 105.512 131.262C105.048 130.791 104.684 130.25 104.419 129.637C104.155 129.025 104.023 128.367 104.023 127.665C104.023 126.962 104.155 126.304 104.419 125.692C104.684 125.073 105.048 124.531 105.512 124.067C105.983 123.596 106.524 123.229 107.137 122.965C107.749 122.7 108.407 122.568 109.11 122.568C109.793 122.568 110.389 122.723 110.899 123.032C111.408 123.335 111.821 123.735 112.137 124.231V117.994ZM109.129 130.808C109.696 130.808 110.193 130.669 110.618 130.392C111.044 130.108 111.373 129.728 111.605 129.251C111.843 128.773 111.963 128.245 111.963 127.665C111.963 127.078 111.843 126.546 111.605 126.069C111.366 125.592 111.034 125.215 110.609 124.937C110.19 124.654 109.696 124.512 109.129 124.512C108.568 124.512 108.056 124.654 107.591 124.937C107.134 125.221 106.766 125.601 106.489 126.079C106.218 126.556 106.083 127.084 106.083 127.665C106.083 128.251 106.221 128.783 106.499 129.26C106.782 129.731 107.153 130.108 107.611 130.392C108.075 130.669 108.581 130.808 109.129 130.808ZM127.427 129.753L129.225 130.73C128.787 131.343 128.229 131.833 127.552 132.2C126.882 132.568 126.153 132.751 125.367 132.751C124.477 132.751 123.665 132.523 122.93 132.065C122.201 131.607 121.618 130.995 121.179 130.227C120.747 129.454 120.531 128.599 120.531 127.665C120.531 126.955 120.657 126.295 120.908 125.682C121.16 125.063 121.505 124.522 121.943 124.057C122.388 123.587 122.904 123.219 123.491 122.955C124.077 122.69 124.703 122.558 125.367 122.558C126.153 122.558 126.882 122.742 127.552 123.11C128.229 123.477 128.787 123.97 129.225 124.589L127.427 125.566C127.156 125.244 126.84 124.999 126.479 124.831C126.118 124.657 125.747 124.57 125.367 124.57C124.838 124.57 124.358 124.715 123.926 125.005C123.5 125.289 123.162 125.666 122.91 126.137C122.665 126.601 122.543 127.11 122.543 127.665C122.543 128.213 122.669 128.722 122.92 129.193C123.171 129.657 123.51 130.031 123.935 130.314C124.367 130.598 124.845 130.74 125.367 130.74C125.766 130.74 126.147 130.65 126.508 130.469C126.869 130.289 127.175 130.05 127.427 129.753ZM138.269 122.829H140.28V132.5H138.259L138.182 131.098C137.898 131.594 137.514 131.994 137.031 132.297C136.547 132.6 135.977 132.751 135.319 132.751C134.61 132.751 133.943 132.619 133.317 132.355C132.692 132.084 132.14 131.71 131.663 131.233C131.193 130.756 130.825 130.208 130.561 129.589C130.297 128.964 130.164 128.293 130.164 127.578C130.164 126.888 130.293 126.24 130.551 125.634C130.809 125.021 131.167 124.486 131.625 124.028C132.082 123.571 132.611 123.213 133.211 122.955C133.817 122.69 134.465 122.558 135.155 122.558C135.857 122.558 136.476 122.72 137.011 123.042C137.553 123.358 138.001 123.764 138.356 124.26L138.269 122.829ZM135.271 130.808C135.838 130.808 136.334 130.669 136.76 130.392C137.185 130.108 137.514 129.728 137.746 129.251C137.985 128.773 138.104 128.245 138.104 127.665C138.104 127.078 137.985 126.546 137.746 126.069C137.508 125.592 137.176 125.215 136.75 124.937C136.331 124.654 135.838 124.512 135.271 124.512C134.71 124.512 134.197 124.654 133.733 124.937C133.269 125.221 132.901 125.601 132.63 126.079C132.36 126.556 132.224 127.084 132.224 127.665C132.224 128.251 132.363 128.783 132.64 129.26C132.924 129.731 133.295 130.108 133.752 130.392C134.217 130.669 134.723 130.808 135.271 130.808ZM142.286 132.5V117.994H144.297V132.5H142.286ZM146.611 132.5V117.994H148.623V132.5H146.611ZM153.838 132.684C153.328 132.652 152.832 132.548 152.348 132.374C151.865 132.2 151.439 131.965 151.072 131.668C150.711 131.365 150.44 131.011 150.259 130.605L151.971 129.87C152.055 130.044 152.2 130.214 152.406 130.382C152.619 130.55 152.867 130.688 153.151 130.798C153.435 130.901 153.731 130.953 154.041 130.953C154.344 130.953 154.624 130.911 154.882 130.827C155.146 130.737 155.362 130.601 155.53 130.421C155.698 130.24 155.782 130.024 155.782 129.773C155.782 129.489 155.685 129.27 155.491 129.115C155.304 128.954 155.069 128.832 154.785 128.748C154.502 128.664 154.218 128.583 153.934 128.506C153.303 128.364 152.722 128.171 152.194 127.926C151.671 127.674 151.256 127.355 150.946 126.968C150.637 126.575 150.482 126.095 150.482 125.527C150.482 124.908 150.65 124.373 150.985 123.922C151.32 123.464 151.758 123.113 152.3 122.868C152.848 122.623 153.432 122.5 154.05 122.5C154.824 122.5 155.533 122.665 156.178 122.994C156.823 123.322 157.316 123.774 157.658 124.347L156.062 125.295C155.965 125.102 155.82 124.928 155.627 124.773C155.433 124.618 155.214 124.496 154.969 124.405C154.724 124.309 154.47 124.254 154.205 124.241C153.876 124.228 153.57 124.267 153.286 124.357C153.009 124.441 152.787 124.576 152.619 124.763C152.452 124.95 152.368 125.189 152.368 125.479C152.368 125.763 152.468 125.975 152.668 126.117C152.867 126.253 153.119 126.362 153.422 126.446C153.731 126.53 154.047 126.623 154.37 126.726C154.943 126.907 155.482 127.129 155.985 127.394C156.488 127.652 156.894 127.971 157.203 128.351C157.513 128.732 157.661 129.196 157.648 129.744C157.648 130.35 157.464 130.882 157.097 131.339C156.736 131.797 156.265 132.145 155.685 132.384C155.105 132.622 154.489 132.722 153.838 132.684Z" fill="#0C1021"/>
</g>
<g filter="url(#filter2_n_4010_5289)">
<rect x="107.078" y="227" width="382" height="207" rx="64" fill="white"/>
<rect x="107.538" y="227.46" width="381.081" height="206.081" rx="63.5404" stroke="#0C1021" stroke-opacity="0.15" stroke-width="0.919289"/>
<g filter="url(#filter3_i_4010_5289)">
<path d="M199.424 345V321.35H175.774V313.65H199.424V290H207.124V313.65H230.774V321.35H207.124V345H199.424ZM264.443 351.93C259.603 351.93 255.166 350.738 251.133 348.355C247.136 345.935 243.928 342.708 241.508 338.675C239.124 334.642 237.933 330.187 237.933 325.31C237.933 322.487 238.263 320.085 238.923 318.105C239.583 316.088 240.554 313.852 241.838 311.395L263.673 273.5H272.638L256.633 301.22C259.859 299.973 263.104 299.423 266.368 299.57C269.631 299.68 272.748 300.395 275.718 301.715C278.688 303.035 281.328 304.85 283.638 307.16C285.948 309.433 287.763 312.11 289.083 315.19C290.439 318.27 291.118 321.643 291.118 325.31C291.118 328.977 290.421 332.423 289.028 335.65C287.634 338.84 285.709 341.663 283.253 344.12C280.833 346.54 278.009 348.447 274.783 349.84C271.556 351.233 268.109 351.93 264.443 351.93ZM264.443 344.23C268.109 344.23 271.373 343.35 274.233 341.59C277.093 339.793 279.329 337.447 280.943 334.55C282.593 331.653 283.418 328.555 283.418 325.255C283.418 321.808 282.574 318.673 280.888 315.85C279.201 312.99 276.928 310.717 274.068 309.03C271.208 307.307 268.036 306.445 264.553 306.445C260.959 306.445 257.733 307.325 254.873 309.085C252.013 310.845 249.758 313.155 248.108 316.015C246.458 318.838 245.633 321.918 245.633 325.255C245.633 328.848 246.494 332.075 248.218 334.935C249.978 337.795 252.288 340.068 255.148 341.755C258.008 343.405 261.106 344.23 264.443 344.23ZM298.772 350.5V343.68C301.779 340.893 305.079 337.85 308.672 334.55C312.265 331.213 315.822 327.785 319.342 324.265C322.899 320.708 326.144 317.207 329.077 313.76C332.01 310.277 334.357 306.995 336.117 303.915C337.914 300.798 338.812 298.048 338.812 295.665C338.812 292.768 338.097 290.128 336.667 287.745C335.274 285.325 333.385 283.4 331.002 281.97C328.655 280.503 326.034 279.77 323.137 279.77C320.24 279.77 317.582 280.503 315.162 281.97C312.779 283.4 310.872 285.325 309.442 287.745C308.012 290.128 307.297 292.768 307.297 295.665H299.597C299.597 291.265 300.66 287.287 302.787 283.73C304.95 280.173 307.81 277.35 311.367 275.26C314.924 273.133 318.847 272.07 323.137 272.07C327.427 272.07 331.332 273.133 334.852 275.26C338.409 277.387 341.232 280.228 343.322 283.785C345.449 287.342 346.512 291.302 346.512 295.665C346.512 298.268 345.815 301.128 344.422 304.245C343.065 307.325 341.214 310.533 338.867 313.87C336.52 317.17 333.88 320.507 330.947 323.88C328.014 327.253 324.952 330.553 321.762 333.78C318.572 336.97 315.474 339.977 312.467 342.8H347.667V350.5H298.772ZM362.838 350.5L407.278 273.5H416.188L371.748 350.5H362.838ZM371.858 303.585C369.438 303.585 367.238 302.998 365.258 301.825C363.278 300.652 361.683 299.075 360.473 297.095C359.3 295.078 358.713 292.86 358.713 290.44C358.713 287.947 359.3 285.71 360.473 283.73C361.683 281.75 363.278 280.173 365.258 279C367.275 277.827 369.475 277.24 371.858 277.24C374.278 277.24 376.478 277.845 378.458 279.055C380.438 280.228 382.015 281.805 383.188 283.785C384.398 285.765 385.003 287.983 385.003 290.44C385.003 292.897 384.398 295.115 383.188 297.095C382.015 299.075 380.42 300.652 378.403 301.825C376.423 302.998 374.242 303.585 371.858 303.585ZM371.858 297.7C373.912 297.7 375.635 297.003 377.028 295.61C378.422 294.18 379.118 292.457 379.118 290.44C379.118 288.387 378.422 286.663 377.028 285.27C375.635 283.84 373.912 283.125 371.858 283.125C369.842 283.125 368.118 283.84 366.688 285.27C365.295 286.663 364.598 288.387 364.598 290.44C364.598 292.457 365.295 294.18 366.688 295.61C368.118 297.003 369.842 297.7 371.858 297.7ZM407.278 346.815C404.858 346.815 402.64 346.21 400.623 345C398.643 343.753 397.048 342.14 395.838 340.16C394.665 338.143 394.078 335.962 394.078 333.615C394.078 331.158 394.683 328.94 395.893 326.96C397.103 324.943 398.698 323.348 400.678 322.175C402.695 321.002 404.895 320.415 407.278 320.415C409.735 320.415 411.953 321.02 413.933 322.23C415.913 323.44 417.49 325.053 418.663 327.07C419.837 329.05 420.423 331.232 420.423 333.615C420.423 336.035 419.837 338.253 418.663 340.27C417.49 342.25 415.895 343.845 413.878 345.055C411.898 346.228 409.698 346.815 407.278 346.815ZM407.278 340.93C409.258 340.93 410.963 340.215 412.393 338.785C413.823 337.355 414.538 335.632 414.538 333.615C414.538 331.598 413.823 329.875 412.393 328.445C410.963 327.015 409.258 326.3 407.278 326.3C405.262 326.3 403.52 327.015 402.053 328.445C400.623 329.875 399.908 331.598 399.908 333.615C399.908 335.632 400.623 337.355 402.053 338.785C403.52 340.215 405.262 340.93 407.278 340.93Z" fill="url(#paint1_linear_4010_5289)"/>
</g>
<path d="M228.018 388.5V371.7H230.514V386.004H237.75V388.5H228.018ZM244.595 388.812C243.491 388.812 242.483 388.528 241.571 387.96C240.667 387.392 239.943 386.632 239.399 385.68C238.863 384.72 238.595 383.66 238.595 382.5C238.595 381.62 238.751 380.8 239.063 380.04C239.375 379.272 239.803 378.6 240.347 378.024C240.899 377.44 241.539 376.984 242.267 376.656C242.995 376.328 243.771 376.164 244.595 376.164C245.515 376.164 246.359 376.356 247.127 376.74C247.895 377.116 248.551 377.64 249.095 378.312C249.639 378.976 250.039 379.744 250.295 380.616C250.551 381.48 250.627 382.4 250.523 383.376H241.271C241.375 383.928 241.575 384.428 241.871 384.876C242.175 385.316 242.559 385.664 243.023 385.92C243.495 386.176 244.019 386.308 244.595 386.316C245.203 386.316 245.755 386.164 246.251 385.86C246.755 385.556 247.167 385.136 247.487 384.6L250.019 385.188C249.539 386.252 248.815 387.124 247.847 387.804C246.879 388.476 245.795 388.812 244.595 388.812ZM241.187 381.468H248.003C247.923 380.892 247.719 380.372 247.391 379.908C247.071 379.436 246.667 379.064 246.179 378.792C245.699 378.512 245.171 378.372 244.595 378.372C244.027 378.372 243.499 378.508 243.011 378.78C242.531 379.052 242.131 379.424 241.811 379.896C241.499 380.36 241.291 380.884 241.187 381.468ZM261.823 376.5H264.319V388.5H261.811L261.715 386.76C261.363 387.376 260.887 387.872 260.287 388.248C259.687 388.624 258.979 388.812 258.163 388.812C257.283 388.812 256.455 388.648 255.679 388.32C254.903 387.984 254.219 387.52 253.627 386.928C253.043 386.336 252.587 385.656 252.259 384.888C251.931 384.112 251.767 383.28 251.767 382.392C251.767 381.536 251.927 380.732 252.247 379.98C252.567 379.22 253.011 378.556 253.579 377.988C254.147 377.42 254.803 376.976 255.547 376.656C256.299 376.328 257.103 376.164 257.959 376.164C258.831 376.164 259.599 376.364 260.263 376.764C260.935 377.156 261.491 377.66 261.931 378.276L261.823 376.5ZM258.103 386.4C258.807 386.4 259.423 386.228 259.951 385.884C260.479 385.532 260.887 385.06 261.175 384.468C261.471 383.876 261.619 383.22 261.619 382.5C261.619 381.772 261.471 381.112 261.175 380.52C260.879 379.928 260.467 379.46 259.939 379.116C259.419 378.764 258.807 378.588 258.103 378.588C257.407 378.588 256.771 378.764 256.195 379.116C255.619 379.468 255.163 379.94 254.827 380.532C254.491 381.124 254.323 381.78 254.323 382.5C254.323 383.228 254.495 383.888 254.839 384.48C255.191 385.064 255.651 385.532 256.219 385.884C256.795 386.228 257.423 386.4 258.103 386.4ZM275.827 370.5H278.323V388.5H275.827V386.736C275.435 387.36 274.923 387.864 274.291 388.248C273.659 388.624 272.919 388.812 272.071 388.812C271.199 388.812 270.383 388.648 269.623 388.32C268.863 387.992 268.191 387.54 267.607 386.964C267.031 386.38 266.579 385.708 266.251 384.948C265.923 384.188 265.759 383.372 265.759 382.5C265.759 381.628 265.923 380.812 266.251 380.052C266.579 379.284 267.031 378.612 267.607 378.036C268.191 377.452 268.863 376.996 269.623 376.668C270.383 376.34 271.199 376.176 272.071 376.176C272.919 376.176 273.659 376.368 274.291 376.752C274.923 377.128 275.435 377.624 275.827 378.24V370.5ZM272.095 386.4C272.799 386.4 273.415 386.228 273.943 385.884C274.471 385.532 274.879 385.06 275.167 384.468C275.463 383.876 275.611 383.22 275.611 382.5C275.611 381.772 275.463 381.112 275.167 380.52C274.871 379.928 274.459 379.46 273.931 379.116C273.411 378.764 272.799 378.588 272.095 378.588C271.399 378.588 270.763 378.764 270.187 379.116C269.619 379.468 269.163 379.94 268.819 380.532C268.483 381.124 268.315 381.78 268.315 382.5C268.315 383.228 268.487 383.888 268.831 384.48C269.183 385.064 269.643 385.532 270.211 385.884C270.787 386.228 271.415 386.4 272.095 386.4ZM294.799 385.092L297.031 386.304C296.487 387.064 295.795 387.672 294.955 388.128C294.123 388.584 293.219 388.812 292.243 388.812C291.139 388.812 290.131 388.528 289.219 387.96C288.315 387.392 287.591 386.632 287.047 385.68C286.511 384.72 286.243 383.66 286.243 382.5C286.243 381.62 286.399 380.8 286.711 380.04C287.023 379.272 287.451 378.6 287.995 378.024C288.547 377.44 289.187 376.984 289.915 376.656C290.643 376.328 291.419 376.164 292.243 376.164C293.219 376.164 294.123 376.392 294.955 376.848C295.795 377.304 296.487 377.916 297.031 378.684L294.799 379.896C294.463 379.496 294.071 379.192 293.623 378.984C293.175 378.768 292.715 378.66 292.243 378.66C291.587 378.66 290.991 378.84 290.455 379.2C289.927 379.552 289.507 380.02 289.195 380.604C288.891 381.18 288.739 381.812 288.739 382.5C288.739 383.18 288.895 383.812 289.207 384.396C289.519 384.972 289.939 385.436 290.467 385.788C291.003 386.14 291.595 386.316 292.243 386.316C292.739 386.316 293.211 386.204 293.659 385.98C294.107 385.756 294.487 385.46 294.799 385.092ZM308.253 376.5H310.749V388.5H308.241L308.145 386.76C307.793 387.376 307.317 387.872 306.717 388.248C306.117 388.624 305.409 388.812 304.593 388.812C303.713 388.812 302.885 388.648 302.109 388.32C301.333 387.984 300.649 387.52 300.057 386.928C299.473 386.336 299.017 385.656 298.689 384.888C298.361 384.112 298.197 383.28 298.197 382.392C298.197 381.536 298.357 380.732 298.677 379.98C298.997 379.22 299.441 378.556 300.009 377.988C300.577 377.42 301.233 376.976 301.977 376.656C302.729 376.328 303.533 376.164 304.389 376.164C305.261 376.164 306.029 376.364 306.693 376.764C307.365 377.156 307.921 377.66 308.361 378.276L308.253 376.5ZM304.533 386.4C305.237 386.4 305.853 386.228 306.381 385.884C306.909 385.532 307.317 385.06 307.605 384.468C307.901 383.876 308.049 383.22 308.049 382.5C308.049 381.772 307.901 381.112 307.605 380.52C307.309 379.928 306.897 379.46 306.369 379.116C305.849 378.764 305.237 378.588 304.533 378.588C303.837 378.588 303.201 378.764 302.625 379.116C302.049 379.468 301.593 379.94 301.257 380.532C300.921 381.124 300.753 381.78 300.753 382.5C300.753 383.228 300.925 383.888 301.269 384.48C301.621 385.064 302.081 385.532 302.649 385.884C303.225 386.228 303.853 386.4 304.533 386.4ZM315.639 394.5H313.143V376.5H315.639V378.264C316.039 377.648 316.551 377.148 317.175 376.764C317.799 376.38 318.535 376.188 319.383 376.188C320.255 376.188 321.071 376.352 321.831 376.68C322.599 377.008 323.271 377.464 323.847 378.048C324.423 378.624 324.875 379.292 325.203 380.052C325.531 380.812 325.695 381.628 325.695 382.5C325.695 383.372 325.531 384.192 325.203 384.96C324.875 385.728 324.423 386.404 323.847 386.988C323.271 387.564 322.599 388.016 321.831 388.344C321.071 388.672 320.255 388.836 319.383 388.836C318.535 388.836 317.799 388.644 317.175 388.26C316.551 387.868 316.039 387.368 315.639 386.76V394.5ZM319.359 378.6C318.663 378.6 318.051 378.776 317.523 379.128C316.995 379.48 316.583 379.952 316.287 380.544C315.991 381.128 315.843 381.78 315.843 382.5C315.843 383.22 315.991 383.876 316.287 384.468C316.583 385.06 316.995 385.532 317.523 385.884C318.051 386.236 318.663 386.412 319.359 386.412C320.047 386.412 320.679 386.24 321.255 385.896C321.831 385.544 322.291 385.072 322.635 384.48C322.979 383.888 323.151 383.228 323.151 382.5C323.151 381.788 322.979 381.136 322.635 380.544C322.299 379.952 321.843 379.48 321.267 379.128C320.691 378.776 320.055 378.6 319.359 378.6ZM333.917 378.996H331.397L331.385 388.5H328.889L328.901 378.996H326.993V376.5H328.901L328.889 372.732H331.385L331.397 376.5H333.917V378.996ZM335.585 384V376.5H338.081V383.388C338.081 383.924 338.213 384.412 338.477 384.852C338.741 385.292 339.093 385.644 339.533 385.908C339.973 386.164 340.457 386.292 340.985 386.292C341.521 386.292 342.005 386.164 342.437 385.908C342.877 385.644 343.225 385.292 343.481 384.852C343.745 384.412 343.877 383.924 343.877 383.388V376.5H346.373L346.385 388.5H343.889L343.877 387.204C343.469 387.7 342.961 388.092 342.353 388.38C341.745 388.668 341.093 388.812 340.397 388.812C339.509 388.812 338.701 388.596 337.973 388.164C337.245 387.732 336.665 387.152 336.233 386.424C335.801 385.696 335.585 384.888 335.585 384ZM348.792 388.5V376.5H351.288V377.772C351.704 377.276 352.216 376.884 352.824 376.596C353.432 376.308 354.088 376.164 354.792 376.164C355.24 376.164 355.684 376.224 356.124 376.344L355.128 378.864C354.816 378.744 354.504 378.684 354.192 378.684C353.664 378.684 353.18 378.816 352.74 379.08C352.3 379.336 351.948 379.684 351.684 380.124C351.42 380.564 351.288 381.052 351.288 381.588V388.5H348.792ZM362.228 388.812C361.124 388.812 360.116 388.528 359.204 387.96C358.3 387.392 357.576 386.632 357.032 385.68C356.496 384.72 356.228 383.66 356.228 382.5C356.228 381.62 356.384 380.8 356.696 380.04C357.008 379.272 357.436 378.6 357.98 378.024C358.532 377.44 359.172 376.984 359.9 376.656C360.628 376.328 361.404 376.164 362.228 376.164C363.148 376.164 363.992 376.356 364.76 376.74C365.528 377.116 366.184 377.64 366.728 378.312C367.272 378.976 367.672 379.744 367.928 380.616C368.184 381.48 368.26 382.4 368.156 383.376H358.904C359.008 383.928 359.208 384.428 359.504 384.876C359.808 385.316 360.192 385.664 360.656 385.92C361.128 386.176 361.652 386.308 362.228 386.316C362.836 386.316 363.388 386.164 363.884 385.86C364.388 385.556 364.8 385.136 365.12 384.6L367.652 385.188C367.172 386.252 366.448 387.124 365.48 387.804C364.512 388.476 363.428 388.812 362.228 388.812ZM358.82 381.468H365.636C365.556 380.892 365.352 380.372 365.024 379.908C364.704 379.436 364.3 379.064 363.812 378.792C363.332 378.512 362.804 378.372 362.228 378.372C361.66 378.372 361.132 378.508 360.644 378.78C360.164 379.052 359.764 379.424 359.444 379.896C359.132 380.36 358.924 380.884 358.82 381.468Z" fill="#0C1021"/>
</g>
<g filter="url(#filter4_n_4010_5289)">
<rect x="0.078125" y="520" width="329.351" height="139" rx="46.1754" fill="white"/>
<rect x="0.409754" y="520.332" width="328.688" height="138.337" rx="45.8438" stroke="#0C1021" stroke-opacity="0.15" stroke-width="0.663259"/>
<g filter="url(#filter5_i_4010_5289)">
<path d="M52.5122 606V550.445H58.0677V606H52.5122ZM103.363 581.437V606H97.8074V582.548C97.8074 580.379 97.2783 578.408 96.2201 576.635C95.1619 574.863 93.7466 573.448 91.9741 572.389C90.2017 571.331 88.2308 570.802 86.0615 570.802C83.9187 570.802 81.9478 571.331 80.1489 572.389C78.3764 573.448 76.9611 574.863 75.9029 576.635C74.8447 578.408 74.3156 580.379 74.3156 582.548V606H68.7601V566.318H74.3156V571.794C75.7177 569.784 77.5431 568.183 79.7917 566.993C82.0404 565.802 84.4874 565.207 87.1329 565.207C90.1223 565.207 92.8471 565.934 95.3074 567.389C97.7677 568.844 99.7253 570.802 101.18 573.262C102.635 575.723 103.363 578.447 103.363 581.437ZM123.572 606.754C121.402 606.701 119.286 606.304 117.222 605.563C115.159 604.823 113.36 603.817 111.826 602.548C110.291 601.278 109.193 599.836 108.532 598.222L113.334 596.159C113.757 597.191 114.537 598.143 115.675 599.016C116.839 599.863 118.162 600.55 119.643 601.079C121.124 601.582 122.593 601.833 124.048 601.833C125.661 601.833 127.169 601.569 128.571 601.04C129.974 600.511 131.111 599.757 131.984 598.778C132.884 597.773 133.333 596.595 133.333 595.246C133.333 593.791 132.857 592.654 131.905 591.834C130.952 590.987 129.749 590.326 128.294 589.849C126.839 589.347 125.344 588.871 123.81 588.421C121.005 587.654 118.532 586.807 116.389 585.881C114.246 584.955 112.566 583.778 111.349 582.35C110.159 580.895 109.564 579.029 109.564 576.754C109.564 574.347 110.238 572.27 111.588 570.524C112.963 568.752 114.749 567.389 116.945 566.437C119.167 565.458 121.535 564.969 124.048 564.969C127.275 564.969 130.212 565.67 132.857 567.072C135.529 568.474 137.46 570.339 138.651 572.667L134.167 575.326C133.69 574.241 132.937 573.302 131.905 572.508C130.873 571.715 129.696 571.093 128.373 570.643C127.077 570.194 125.754 569.955 124.405 569.929C122.712 569.903 121.138 570.154 119.683 570.683C118.228 571.186 117.05 571.94 116.151 572.945C115.278 573.95 114.842 575.18 114.842 576.635C114.842 578.09 115.278 579.201 116.151 579.969C117.024 580.709 118.201 581.318 119.683 581.794C121.191 582.244 122.884 582.773 124.762 583.381C127.169 584.148 129.431 585.021 131.548 586C133.664 586.979 135.37 588.196 136.667 589.651C137.963 591.106 138.598 592.945 138.571 595.167C138.571 597.548 137.857 599.624 136.429 601.397C135 603.169 133.148 604.532 130.873 605.484C128.598 606.41 126.164 606.833 123.572 606.754ZM165.689 571.873H156.205L156.165 606H150.61L150.65 571.873H143.467V566.318H150.65L150.61 553.858H156.165L156.205 566.318H165.689V571.873ZM204.304 566.318H209.859V606H204.304L204.106 598.619C202.809 601.132 200.997 603.169 198.669 604.73C196.341 606.265 193.563 607.032 190.336 607.032C187.426 607.032 184.701 606.489 182.161 605.405C179.622 604.294 177.386 602.773 175.455 600.841C173.524 598.91 172.016 596.675 170.931 594.135C169.847 591.595 169.304 588.871 169.304 585.961C169.304 583.103 169.834 580.418 170.892 577.905C171.976 575.392 173.458 573.183 175.336 571.278C177.241 569.373 179.437 567.892 181.923 566.834C184.437 565.749 187.122 565.207 189.979 565.207C193.286 565.207 196.169 566.001 198.629 567.588C201.09 569.149 203.047 571.199 204.502 573.739L204.304 566.318ZM190.217 601.635C193.048 601.635 195.481 600.947 197.518 599.572C199.555 598.169 201.116 596.291 202.201 593.937C203.312 591.582 203.867 588.99 203.867 586.159C203.867 583.249 203.312 580.63 202.201 578.302C201.09 575.947 199.516 574.082 197.479 572.707C195.442 571.331 193.021 570.643 190.217 570.643C187.413 570.643 184.847 571.344 182.519 572.746C180.217 574.122 178.378 575.987 177.003 578.342C175.654 580.696 174.979 583.302 174.979 586.159C174.979 589.043 175.68 591.662 177.082 594.016C178.484 596.344 180.336 598.196 182.638 599.572C184.966 600.947 187.492 601.635 190.217 601.635ZM252.403 581.437V606H246.847V582.548C246.847 580.379 246.318 578.408 245.26 576.635C244.202 574.863 242.787 573.448 241.014 572.389C239.242 571.331 237.271 570.802 235.102 570.802C232.959 570.802 230.988 571.331 229.189 572.389C227.416 573.448 226.001 574.863 224.943 576.635C223.885 578.408 223.356 580.379 223.356 582.548V606H217.8V566.318H223.356V571.794C224.758 569.784 226.583 568.183 228.832 566.993C231.08 565.802 233.528 565.207 236.173 565.207C239.162 565.207 241.887 565.934 244.347 567.389C246.808 568.844 248.765 570.802 250.22 573.262C251.675 575.723 252.403 578.447 252.403 581.437ZM280.627 571.873H271.143L271.104 606H265.548L265.588 571.873H258.405V566.318H265.588L265.548 553.858H271.104L271.143 566.318H280.627V571.873Z" fill="url(#paint2_linear_4010_5289)"/>
</g>
<path d="M109.292 631V618.879H113.751C114.409 618.879 115.001 619.041 115.526 619.364C116.051 619.687 116.467 620.123 116.773 620.671C117.084 621.214 117.24 621.82 117.24 622.489C117.24 623.055 117.134 623.572 116.92 624.039C116.712 624.507 116.418 624.905 116.037 625.234C115.662 625.563 115.232 625.799 114.747 625.944L117.673 631H115.587L112.747 626.108H111.093V631H109.292ZM111.093 624.307H113.561C113.907 624.307 114.222 624.221 114.504 624.048C114.793 623.875 115.021 623.644 115.188 623.355C115.356 623.066 115.439 622.74 115.439 622.377C115.439 622.013 115.356 621.687 115.188 621.398C115.021 621.104 114.793 620.873 114.504 620.706C114.222 620.533 113.907 620.446 113.561 620.446H111.093V624.307ZM122.724 631.225C121.927 631.225 121.2 631.02 120.542 630.61C119.89 630.201 119.367 629.652 118.975 628.965C118.588 628.273 118.395 627.508 118.395 626.671C118.395 626.036 118.507 625.445 118.732 624.896C118.957 624.342 119.266 623.857 119.659 623.442C120.057 623.02 120.519 622.691 121.044 622.455C121.569 622.218 122.129 622.1 122.724 622.1C123.387 622.1 123.996 622.238 124.55 622.515C125.105 622.787 125.578 623.165 125.97 623.649C126.363 624.129 126.651 624.683 126.836 625.312C127.021 625.935 127.076 626.599 127.001 627.303H120.325C120.4 627.701 120.545 628.062 120.758 628.385C120.978 628.703 121.255 628.954 121.589 629.139C121.93 629.323 122.308 629.418 122.724 629.424C123.162 629.424 123.561 629.315 123.918 629.095C124.282 628.876 124.579 628.573 124.81 628.186L126.637 628.61C126.291 629.378 125.768 630.007 125.07 630.498C124.371 630.983 123.589 631.225 122.724 631.225ZM120.265 625.926H125.182C125.125 625.511 124.978 625.136 124.741 624.801C124.51 624.46 124.219 624.192 123.866 623.996C123.52 623.794 123.139 623.693 122.724 623.693C122.314 623.693 121.933 623.791 121.581 623.987C121.234 624.183 120.946 624.452 120.715 624.792C120.49 625.127 120.34 625.505 120.265 625.926ZM131.066 631.164C130.61 631.136 130.165 631.043 129.732 630.887C129.299 630.732 128.918 630.521 128.589 630.255C128.266 629.984 128.024 629.667 127.862 629.303L129.395 628.645C129.47 628.801 129.6 628.954 129.784 629.104C129.975 629.254 130.197 629.378 130.451 629.476C130.705 629.569 130.97 629.615 131.247 629.615C131.519 629.615 131.77 629.577 132.001 629.502C132.237 629.421 132.431 629.3 132.581 629.139C132.731 628.977 132.806 628.784 132.806 628.558C132.806 628.305 132.719 628.108 132.546 627.97C132.379 627.825 132.168 627.716 131.914 627.641C131.66 627.566 131.406 627.494 131.152 627.424C130.587 627.297 130.067 627.124 129.594 626.905C129.126 626.68 128.754 626.394 128.477 626.048C128.2 625.696 128.061 625.266 128.061 624.758C128.061 624.204 128.211 623.724 128.512 623.32C128.812 622.911 129.204 622.596 129.689 622.377C130.18 622.157 130.702 622.048 131.256 622.048C131.949 622.048 132.584 622.195 133.161 622.489C133.738 622.784 134.18 623.188 134.485 623.701L133.057 624.55C132.97 624.377 132.84 624.221 132.667 624.082C132.494 623.944 132.298 623.834 132.079 623.753C131.859 623.667 131.631 623.618 131.395 623.606C131.1 623.595 130.826 623.629 130.572 623.71C130.324 623.785 130.125 623.906 129.975 624.074C129.825 624.241 129.75 624.455 129.75 624.714C129.75 624.968 129.839 625.159 130.018 625.286C130.197 625.407 130.422 625.505 130.693 625.58C130.97 625.655 131.253 625.739 131.542 625.831C132.056 625.993 132.537 626.192 132.988 626.429C133.438 626.66 133.802 626.945 134.079 627.286C134.356 627.626 134.488 628.042 134.477 628.532C134.477 629.075 134.312 629.551 133.983 629.961C133.66 630.371 133.239 630.683 132.719 630.896C132.2 631.11 131.649 631.199 131.066 631.164ZM137.76 635.329H135.959V622.342H137.76V623.615C138.049 623.17 138.418 622.81 138.868 622.533C139.319 622.256 139.85 622.117 140.461 622.117C141.091 622.117 141.679 622.235 142.228 622.472C142.782 622.709 143.267 623.038 143.682 623.459C144.098 623.875 144.424 624.357 144.661 624.905C144.897 625.453 145.016 626.042 145.016 626.671C145.016 627.3 144.897 627.892 144.661 628.446C144.424 629 144.098 629.488 143.682 629.909C143.267 630.325 142.782 630.651 142.228 630.887C141.679 631.124 141.091 631.242 140.461 631.242C139.85 631.242 139.319 631.104 138.868 630.827C138.418 630.544 138.049 630.183 137.76 629.745V635.329ZM140.444 623.857C139.942 623.857 139.5 623.984 139.119 624.238C138.739 624.492 138.441 624.833 138.228 625.26C138.014 625.681 137.907 626.152 137.907 626.671C137.907 627.191 138.014 627.664 138.228 628.091C138.441 628.518 138.739 628.859 139.119 629.113C139.5 629.367 139.942 629.494 140.444 629.494C140.941 629.494 141.397 629.369 141.812 629.121C142.228 628.867 142.56 628.527 142.808 628.1C143.056 627.672 143.18 627.196 143.18 626.671C143.18 626.157 143.056 625.687 142.808 625.26C142.565 624.833 142.236 624.492 141.821 624.238C141.405 623.984 140.946 623.857 140.444 623.857ZM150.219 631.225C149.423 631.225 148.695 631.02 148.037 630.61C147.385 630.201 146.863 629.652 146.47 628.965C146.084 628.273 145.89 627.508 145.89 626.671C145.89 626.036 146.003 625.445 146.228 624.896C146.453 624.342 146.762 623.857 147.154 623.442C147.553 623.02 148.014 622.691 148.54 622.455C149.065 622.218 149.625 622.1 150.219 622.1C151.016 622.1 151.74 622.305 152.392 622.714C153.05 623.124 153.573 623.675 153.959 624.368C154.352 625.061 154.548 625.828 154.548 626.671C154.548 627.3 154.436 627.889 154.21 628.437C153.985 628.986 153.674 629.47 153.275 629.892C152.883 630.307 152.424 630.633 151.899 630.87C151.379 631.107 150.819 631.225 150.219 631.225ZM150.219 629.424C150.698 629.424 151.128 629.297 151.509 629.043C151.89 628.789 152.19 628.455 152.41 628.039C152.635 627.618 152.747 627.162 152.747 626.671C152.747 626.169 152.632 625.707 152.401 625.286C152.176 624.864 151.873 624.53 151.492 624.281C151.111 624.028 150.687 623.901 150.219 623.901C149.746 623.901 149.316 624.028 148.929 624.281C148.548 624.535 148.245 624.873 148.02 625.294C147.801 625.716 147.691 626.175 147.691 626.671C147.691 627.185 147.807 627.649 148.037 628.065C148.268 628.481 148.574 628.812 148.955 629.061C149.342 629.303 149.763 629.424 150.219 629.424ZM163.739 625.572V631H161.938V626.013C161.938 625.626 161.843 625.274 161.652 624.957C161.468 624.639 161.217 624.388 160.899 624.204C160.588 624.013 160.235 623.918 159.843 623.918C159.462 623.918 159.113 624.013 158.795 624.204C158.478 624.388 158.224 624.639 158.033 624.957C157.843 625.274 157.748 625.626 157.748 626.013V631H155.947V622.342H157.748V623.26C158.048 622.902 158.417 622.619 158.856 622.411C159.295 622.204 159.768 622.1 160.276 622.1C160.917 622.1 161.5 622.256 162.025 622.567C162.55 622.879 162.966 623.297 163.271 623.823C163.583 624.348 163.739 624.931 163.739 625.572ZM168.065 631.164C167.609 631.136 167.164 631.043 166.731 630.887C166.298 630.732 165.917 630.521 165.588 630.255C165.265 629.984 165.023 629.667 164.861 629.303L166.394 628.645C166.469 628.801 166.599 628.954 166.783 629.104C166.974 629.254 167.196 629.378 167.45 629.476C167.704 629.569 167.969 629.615 168.246 629.615C168.518 629.615 168.769 629.577 169 629.502C169.236 629.421 169.43 629.3 169.58 629.139C169.73 628.977 169.805 628.784 169.805 628.558C169.805 628.305 169.718 628.108 169.545 627.97C169.378 627.825 169.167 627.716 168.913 627.641C168.659 627.566 168.405 627.494 168.151 627.424C167.586 627.297 167.066 627.124 166.593 626.905C166.125 626.68 165.753 626.394 165.476 626.048C165.199 625.696 165.06 625.266 165.06 624.758C165.06 624.204 165.21 623.724 165.511 623.32C165.811 622.911 166.203 622.596 166.688 622.377C167.179 622.157 167.701 622.048 168.255 622.048C168.948 622.048 169.583 622.195 170.16 622.489C170.737 622.784 171.179 623.188 171.484 623.701L170.056 624.55C169.969 624.377 169.839 624.221 169.666 624.082C169.493 623.944 169.297 623.834 169.078 623.753C168.858 623.667 168.63 623.618 168.394 623.606C168.099 623.595 167.825 623.629 167.571 623.71C167.323 623.785 167.124 623.906 166.974 624.074C166.824 624.241 166.749 624.455 166.749 624.714C166.749 624.968 166.838 625.159 167.017 625.286C167.196 625.407 167.421 625.505 167.692 625.58C167.969 625.655 168.252 625.739 168.541 625.831C169.054 625.993 169.536 626.192 169.987 626.429C170.437 626.66 170.8 626.945 171.078 627.286C171.355 627.626 171.487 628.042 171.476 628.532C171.476 629.075 171.311 629.551 170.982 629.961C170.659 630.371 170.238 630.683 169.718 630.896C169.199 631.11 168.648 631.199 168.065 631.164ZM176.649 631.225C175.853 631.225 175.126 631.02 174.468 630.61C173.815 630.201 173.293 629.652 172.901 628.965C172.514 628.273 172.32 627.508 172.32 626.671C172.32 626.036 172.433 625.445 172.658 624.896C172.883 624.342 173.192 623.857 173.585 623.442C173.983 623.02 174.445 622.691 174.97 622.455C175.495 622.218 176.055 622.1 176.649 622.1C177.313 622.1 177.922 622.238 178.476 622.515C179.03 622.787 179.504 623.165 179.896 623.649C180.289 624.129 180.577 624.683 180.762 625.312C180.947 625.935 181.001 626.599 180.926 627.303H174.251C174.326 627.701 174.471 628.062 174.684 628.385C174.903 628.703 175.18 628.954 175.515 629.139C175.856 629.323 176.234 629.418 176.649 629.424C177.088 629.424 177.486 629.315 177.844 629.095C178.208 628.876 178.505 628.573 178.736 628.186L180.563 628.61C180.216 629.378 179.694 630.007 178.996 630.498C178.297 630.983 177.515 631.225 176.649 631.225ZM174.191 625.926H179.108C179.051 625.511 178.903 625.136 178.667 624.801C178.436 624.46 178.144 624.192 177.792 623.996C177.446 623.794 177.065 623.693 176.649 623.693C176.24 623.693 175.859 623.791 175.507 623.987C175.16 624.183 174.872 624.452 174.641 624.792C174.416 625.127 174.266 625.505 174.191 625.926ZM191.244 624.143H189.426L189.417 631H187.616L187.625 624.143H186.248V622.342H187.625L187.616 619.624H189.417L189.426 622.342H191.244V624.143ZM192.675 622.342H194.476V631H192.675V622.342ZM193.593 621.087C193.316 621.087 193.085 620.997 192.9 620.818C192.716 620.639 192.623 620.414 192.623 620.143C192.623 619.877 192.716 619.655 192.9 619.476C193.085 619.292 193.313 619.199 193.584 619.199C193.85 619.199 194.075 619.292 194.26 619.476C194.444 619.655 194.537 619.877 194.537 620.143C194.537 620.414 194.444 620.639 194.26 620.818C194.081 620.997 193.859 621.087 193.593 621.087ZM196.497 631V622.342H198.298V623.26C198.598 622.902 198.964 622.619 199.397 622.411C199.836 622.204 200.309 622.1 200.817 622.1C201.435 622.1 202.003 622.25 202.523 622.55C203.042 622.844 203.455 623.237 203.761 623.727C204.067 623.237 204.474 622.844 204.982 622.55C205.495 622.25 206.061 622.1 206.679 622.1C207.319 622.1 207.902 622.256 208.428 622.567C208.953 622.879 209.371 623.297 209.683 623.823C209.995 624.348 210.15 624.931 210.15 625.572V631H208.35V626.03C208.35 625.649 208.257 625.3 208.073 624.983C207.888 624.665 207.64 624.408 207.328 624.212C207.016 624.016 206.67 623.918 206.289 623.918C205.908 623.918 205.562 624.01 205.25 624.195C204.938 624.38 204.69 624.631 204.506 624.948C204.321 625.266 204.228 625.626 204.228 626.03V631H202.428V626.03C202.428 625.626 202.335 625.266 202.151 624.948C201.966 624.631 201.715 624.38 201.397 624.195C201.086 624.01 200.739 623.918 200.358 623.918C199.983 623.918 199.637 624.016 199.319 624.212C199.008 624.408 198.76 624.665 198.575 624.983C198.39 625.3 198.298 625.649 198.298 626.03V631H196.497ZM215.525 631.225C214.729 631.225 214.002 631.02 213.344 630.61C212.691 630.201 212.169 629.652 211.777 628.965C211.39 628.273 211.196 627.508 211.196 626.671C211.196 626.036 211.309 625.445 211.534 624.896C211.759 624.342 212.068 623.857 212.461 623.442C212.859 623.02 213.321 622.691 213.846 622.455C214.371 622.218 214.931 622.1 215.525 622.1C216.189 622.1 216.798 622.238 217.352 622.515C217.906 622.787 218.38 623.165 218.772 623.649C219.165 624.129 219.453 624.683 219.638 625.312C219.823 625.935 219.877 626.599 219.802 627.303H213.127C213.202 627.701 213.346 628.062 213.56 628.385C213.779 628.703 214.056 628.954 214.391 629.139C214.732 629.323 215.11 629.418 215.525 629.424C215.964 629.424 216.362 629.315 216.72 629.095C217.084 628.876 217.381 628.573 217.612 628.186L219.439 628.61C219.092 629.378 218.57 630.007 217.872 630.498C217.173 630.983 216.391 631.225 215.525 631.225ZM213.067 625.926H217.984C217.927 625.511 217.779 625.136 217.543 624.801C217.312 624.46 217.02 624.192 216.668 623.996C216.322 623.794 215.941 623.693 215.525 623.693C215.116 623.693 214.735 623.791 214.383 623.987C214.036 624.183 213.748 624.452 213.517 624.792C213.292 625.127 213.142 625.505 213.067 625.926Z" fill="#0C1021"/>
</g>
<path d="M298.078 224V110C298.078 96.7452 287.333 86 274.078 86H216.156" stroke="#4268FF" stroke-linecap="round" stroke-linejoin="bevel" stroke-dasharray="6 6"/>
<path d="M298.078 437V453C298.078 466.255 287.333 477 274.078 477H188.753C175.499 477 164.753 487.745 164.753 501V517" stroke="#4268FF" stroke-linecap="round" stroke-linejoin="bevel" stroke-dasharray="6 6"/>
<defs>
<filter id="filter0_n_4010_5289" x="0" y="0" width="213.156" height="172" filterUnits="userSpaceOnUse" color-interpolation-filters="sRGB">
<feFlood flood-opacity="0" result="BackgroundImageFix"/>
<feBlend mode="normal" in="SourceGraphic" in2="BackgroundImageFix" result="shape"/>
<feTurbulence type="fractalNoise" baseFrequency="1.2408376932144165 1.2408376932144165" stitchTiles="stitch" numOctaves="3" result="noise" seed="8993" />
<feColorMatrix in="noise" type="luminanceToAlpha" result="alphaNoise" />
<feComponentTransfer in="alphaNoise" result="coloredNoise1">
<feFuncA type="discrete" tableValues="1 1 1 1 1 1 1 1 1 1 1 1 1 1 1 1 1 1 1 1 1 1 1 1 1 1 1 1 1 1 1 1 1 1 1 1 1 1 1 1 1 1 1 1 1 1 1 1 1 1 1 0 0 0 0 0 0 0 0 0 0 0 0 0 0 0 0 0 0 0 0 0 0 0 0 0 0 0 0 0 0 0 0 0 0 0 0 0 0 0 0 0 0 0 0 0 0 0 0 0 "/>
</feComponentTransfer>
<feComposite operator="in" in2="shape" in="coloredNoise1" result="noise1Clipped" />
<feFlood flood-color="rgba(255, 255, 255, 0.15)" result="color1Flood" />
<feComposite operator="in" in2="noise1Clipped" in="color1Flood" result="color1" />
<feMerge result="effect1_noise_4010_5289">
<feMergeNode in="shape" />
<feMergeNode in="color1" />
</feMerge>
</filter>
<filter id="filter1_i_4010_5289" x="54.4375" y="41.2927" width="103.428" height="67.5834" filterUnits="userSpaceOnUse" color-interpolation-filters="sRGB">
<feFlood flood-opacity="0" result="BackgroundImageFix"/>
<feBlend mode="normal" in="SourceGraphic" in2="BackgroundImageFix" result="shape"/>
<feColorMatrix in="SourceAlpha" type="matrix" values="0 0 0 0 0 0 0 0 0 0 0 0 0 0 0 0 0 0 127 0" result="hardAlpha"/>
<feOffset dy="3.22363"/>
<feGaussianBlur stdDeviation="1.61181"/>
<feComposite in2="hardAlpha" operator="arithmetic" k2="-1" k3="1"/>
<feColorMatrix type="matrix" values="0 0 0 0 0 0 0 0 0 0 0 0 0 0 0 0 0 0 0.25 0"/>
<feBlend mode="normal" in2="shape" result="effect1_innerShadow_4010_5289"/>
</filter>
<filter id="filter2_n_4010_5289" x="107.078" y="227" width="382" height="207" filterUnits="userSpaceOnUse" color-interpolation-filters="sRGB">
<feFlood flood-opacity="0" result="BackgroundImageFix"/>
<feBlend mode="normal" in="SourceGraphic" in2="BackgroundImageFix" result="shape"/>
<feTurbulence type="fractalNoise" baseFrequency="1 1" stitchTiles="stitch" numOctaves="3" result="noise" seed="8993" />
<feColorMatrix in="noise" type="luminanceToAlpha" result="alphaNoise" />
<feComponentTransfer in="alphaNoise" result="coloredNoise1">
<feFuncA type="discrete" tableValues="1 1 1 1 1 1 1 1 1 1 1 1 1 1 1 1 1 1 1 1 1 1 1 1 1 1 1 1 1 1 1 1 1 1 1 1 1 1 1 1 1 1 1 1 1 1 1 1 1 1 1 0 0 0 0 0 0 0 0 0 0 0 0 0 0 0 0 0 0 0 0 0 0 0 0 0 0 0 0 0 0 0 0 0 0 0 0 0 0 0 0 0 0 0 0 0 0 0 0 0 "/>
</feComponentTransfer>
<feComposite operator="in" in2="shape" in="coloredNoise1" result="noise1Clipped" />
<feFlood flood-color="rgba(255, 255, 255, 0.15)" result="color1Flood" />
<feComposite operator="in" in2="noise1Clipped" in="color1Flood" result="color1" />
<feMerge result="effect1_noise_4010_5289">
<feMergeNode in="shape" />
<feMergeNode in="color1" />
</feMerge>
</filter>
<filter id="filter3_i_4010_5289" x="175.774" y="272.07" width="244.649" height="83.8601" filterUnits="userSpaceOnUse" color-interpolation-filters="sRGB">
<feFlood flood-opacity="0" result="BackgroundImageFix"/>
<feBlend mode="normal" in="SourceGraphic" in2="BackgroundImageFix" result="shape"/>
<feColorMatrix in="SourceAlpha" type="matrix" values="0 0 0 0 0 0 0 0 0 0 0 0 0 0 0 0 0 0 127 0" result="hardAlpha"/>
<feOffset dy="4"/>
<feGaussianBlur stdDeviation="2"/>
<feComposite in2="hardAlpha" operator="arithmetic" k2="-1" k3="1"/>
<feColorMatrix type="matrix" values="0 0 0 0 0 0 0 0 0 0 0 0 0 0 0 0 0 0 0.25 0"/>
<feBlend mode="normal" in2="shape" result="effect1_innerShadow_4010_5289"/>
</filter>
<filter id="filter4_n_4010_5289" x="0.078125" y="520" width="329.351" height="139" filterUnits="userSpaceOnUse" color-interpolation-filters="sRGB">
<feFlood flood-opacity="0" result="BackgroundImageFix"/>
<feBlend mode="normal" in="SourceGraphic" in2="BackgroundImageFix" result="shape"/>
<feTurbulence type="fractalNoise" baseFrequency="1.3860182762145996 1.3860182762145996" stitchTiles="stitch" numOctaves="3" result="noise" seed="8993" />
<feColorMatrix in="noise" type="luminanceToAlpha" result="alphaNoise" />
<feComponentTransfer in="alphaNoise" result="coloredNoise1">
<feFuncA type="discrete" tableValues="1 1 1 1 1 1 1 1 1 1 1 1 1 1 1 1 1 1 1 1 1 1 1 1 1 1 1 1 1 1 1 1 1 1 1 1 1 1 1 1 1 1 1 1 1 1 1 1 1 1 1 0 0 0 0 0 0 0 0 0 0 0 0 0 0 0 0 0 0 0 0 0 0 0 0 0 0 0 0 0 0 0 0 0 0 0 0 0 0 0 0 0 0 0 0 0 0 0 0 0 "/>
</feComponentTransfer>
<feComposite operator="in" in2="shape" in="coloredNoise1" result="noise1Clipped" />
<feFlood flood-color="rgba(255, 255, 255, 0.15)" result="color1Flood" />
<feComposite operator="in" in2="noise1Clipped" in="color1Flood" result="color1" />
<feMerge result="effect1_noise_4010_5289">
<feMergeNode in="shape" />
<feMergeNode in="color1" />
</feMerge>
</filter>
<filter id="filter5_i_4010_5289" x="52.5122" y="550.445" width="228.115" height="59.4725" filterUnits="userSpaceOnUse" color-interpolation-filters="sRGB">
<feFlood flood-opacity="0" result="BackgroundImageFix"/>
<feBlend mode="normal" in="SourceGraphic" in2="BackgroundImageFix" result="shape"/>
<feColorMatrix in="SourceAlpha" type="matrix" values="0 0 0 0 0 0 0 0 0 0 0 0 0 0 0 0 0 0 127 0" result="hardAlpha"/>
<feOffset dy="2.88596"/>
<feGaussianBlur stdDeviation="1.44298"/>
<feComposite in2="hardAlpha" operator="arithmetic" k2="-1" k3="1"/>
<feColorMatrix type="matrix" values="0 0 0 0 0 0 0 0 0 0 0 0 0 0 0 0 0 0 0.25 0"/>
<feBlend mode="normal" in2="shape" result="effect1_innerShadow_4010_5289"/>
</filter>
<linearGradient id="paint0_linear_4010_5289" x1="106.578" y1="34.5" x2="106.578" y2="126.5" gradientUnits="userSpaceOnUse">
<stop stop-color="#7490FF"/>
<stop offset="1" stop-color="#4268FF"/>
</linearGradient>
<linearGradient id="paint1_linear_4010_5289" x1="298.078" y1="266.5" x2="298.078" y2="377.5" gradientUnits="userSpaceOnUse">
<stop stop-color="#7490FF"/>
<stop offset="1" stop-color="#4268FF"/>
</linearGradient>
<linearGradient id="paint2_linear_4010_5289" x1="164.753" y1="544" x2="164.753" y2="626" gradientUnits="userSpaceOnUse">
<stop stop-color="#7490FF"/>
<stop offset="1" stop-color="#4268FF"/>
</linearGradient>
</defs>
</svg>
