<svg width="464" height="438" viewBox="0 0 464 438" fill="none" xmlns="http://www.w3.org/2000/svg">
<g filter="url(#filter0_d_2460_7982)">
<rect x="18.3857" y="14.7086" width="427" height="401" rx="22.0629" fill="white" shape-rendering="crispEdges"/>
<rect x="18.8454" y="15.1683" width="426.081" height="400.081" rx="21.6033" stroke="#0C1021" stroke-opacity="0.05" stroke-width="0.919289" shape-rendering="crispEdges"/>
<path d="M152.1 61.7086V44.9086H154.596V61.7086H152.1ZM168.634 54.1846V61.7086H166.138V54.7966C166.138 54.2606 166.006 53.7726 165.742 53.3326C165.486 52.8926 165.138 52.5446 164.698 52.2886C164.266 52.0246 163.778 51.8926 163.234 51.8926C162.706 51.8926 162.222 52.0246 161.782 52.2886C161.342 52.5446 160.99 52.8926 160.726 53.3326C160.462 53.7726 160.33 54.2606 160.33 54.7966V61.7086H157.834V49.7086H160.33V50.9806C160.746 50.4846 161.258 50.0926 161.866 49.8046C162.474 49.5166 163.13 49.3726 163.834 49.3726C164.722 49.3726 165.53 49.5886 166.258 50.0206C166.986 50.4526 167.562 51.0326 167.986 51.7606C168.418 52.4886 168.634 53.2966 168.634 54.1846ZM177.363 49.3726C178.531 49.3726 179.591 49.6566 180.543 50.2246C181.503 50.7926 182.267 51.5566 182.835 52.5166C183.403 53.4686 183.687 54.5286 183.687 55.6966C183.687 56.5686 183.523 57.3886 183.195 58.1566C182.867 58.9166 182.411 59.5886 181.827 60.1726C181.251 60.7486 180.579 61.2006 179.811 61.5286C179.051 61.8566 178.235 62.0206 177.363 62.0206C176.523 62.0206 175.787 61.8286 175.155 61.4446C174.531 61.0526 174.019 60.5526 173.619 59.9446V61.7086H171.123V43.7086H173.619V51.4486C174.019 50.8326 174.531 50.3326 175.155 49.9486C175.787 49.5646 176.523 49.3726 177.363 49.3726ZM177.339 59.5966C178.035 59.5966 178.671 59.4206 179.247 59.0686C179.823 58.7166 180.279 58.2446 180.615 57.6526C180.959 57.0606 181.131 56.4086 181.131 55.6966C181.131 54.9686 180.959 54.3086 180.615 53.7166C180.271 53.1246 179.811 52.6566 179.235 52.3126C178.659 51.9606 178.027 51.7846 177.339 51.7846C176.643 51.7846 176.031 51.9606 175.503 52.3126C174.975 52.6646 174.563 53.1366 174.267 53.7286C173.971 54.3206 173.823 54.9766 173.823 55.6966C173.823 56.4166 173.971 57.0726 174.267 57.6646C174.563 58.2566 174.975 58.7286 175.503 59.0806C176.031 59.4246 176.643 59.5966 177.339 59.5966ZM190.887 62.0206C189.783 62.0206 188.775 61.7366 187.863 61.1686C186.959 60.6006 186.235 59.8406 185.691 58.8886C185.155 57.9286 184.887 56.8686 184.887 55.7086C184.887 54.8286 185.043 54.0086 185.355 53.2486C185.667 52.4806 186.095 51.8086 186.639 51.2326C187.191 50.6486 187.831 50.1926 188.559 49.8646C189.287 49.5366 190.063 49.3726 190.887 49.3726C191.991 49.3726 192.995 49.6566 193.899 50.2246C194.811 50.7926 195.535 51.5566 196.071 52.5166C196.615 53.4766 196.887 54.5406 196.887 55.7086C196.887 56.5806 196.731 57.3966 196.419 58.1566C196.107 58.9166 195.675 59.5886 195.123 60.1726C194.579 60.7486 193.943 61.2006 193.215 61.5286C192.495 61.8566 191.719 62.0206 190.887 62.0206ZM190.887 59.5246C191.551 59.5246 192.147 59.3486 192.675 58.9966C193.203 58.6446 193.619 58.1806 193.923 57.6046C194.235 57.0206 194.391 56.3886 194.391 55.7086C194.391 55.0126 194.231 54.3726 193.911 53.7886C193.599 53.2046 193.179 52.7406 192.651 52.3966C192.123 52.0446 191.535 51.8686 190.887 51.8686C190.231 51.8686 189.635 52.0446 189.099 52.3966C188.571 52.7486 188.151 53.2166 187.839 53.8006C187.535 54.3846 187.383 55.0206 187.383 55.7086C187.383 56.4206 187.543 57.0646 187.863 57.6406C188.183 58.2166 188.607 58.6766 189.135 59.0206C189.671 59.3566 190.255 59.5246 190.887 59.5246ZM198.111 57.2086V49.7086H200.607V56.5966C200.607 57.1326 200.739 57.6206 201.003 58.0606C201.267 58.5006 201.619 58.8526 202.059 59.1166C202.499 59.3726 202.983 59.5006 203.511 59.5006C204.047 59.5006 204.531 59.3726 204.963 59.1166C205.403 58.8526 205.751 58.5006 206.007 58.0606C206.271 57.6206 206.403 57.1326 206.403 56.5966V49.7086H208.899L208.911 61.7086H206.415L206.403 60.4126C205.995 60.9086 205.487 61.3006 204.879 61.5886C204.271 61.8766 203.619 62.0206 202.923 62.0206C202.035 62.0206 201.227 61.8046 200.499 61.3726C199.771 60.9406 199.191 60.3606 198.759 59.6326C198.327 58.9046 198.111 58.0966 198.111 57.2086ZM222.118 54.1846V61.7086H219.622V54.7966C219.622 54.2606 219.49 53.7726 219.226 53.3326C218.97 52.8926 218.622 52.5446 218.182 52.2886C217.75 52.0246 217.262 51.8926 216.718 51.8926C216.19 51.8926 215.706 52.0246 215.266 52.2886C214.826 52.5446 214.474 52.8926 214.21 53.3326C213.946 53.7726 213.814 54.2606 213.814 54.7966V61.7086H211.318V49.7086H213.814V50.9806C214.23 50.4846 214.742 50.0926 215.35 49.8046C215.958 49.5166 216.614 49.3726 217.318 49.3726C218.206 49.3726 219.014 49.5886 219.742 50.0206C220.47 50.4526 221.046 51.0326 221.47 51.7606C221.902 52.4886 222.118 53.2966 222.118 54.1846ZM233.627 43.7086H236.123V61.7086H233.627V59.9446C233.235 60.5686 232.723 61.0726 232.091 61.4566C231.459 61.8326 230.719 62.0206 229.871 62.0206C228.999 62.0206 228.183 61.8566 227.423 61.5286C226.663 61.2006 225.991 60.7486 225.407 60.1726C224.831 59.5886 224.379 58.9166 224.051 58.1566C223.723 57.3966 223.559 56.5806 223.559 55.7086C223.559 54.8366 223.723 54.0206 224.051 53.2606C224.379 52.4926 224.831 51.8206 225.407 51.2446C225.991 50.6606 226.663 50.2046 227.423 49.8766C228.183 49.5486 228.999 49.3846 229.871 49.3846C230.719 49.3846 231.459 49.5766 232.091 49.9606C232.723 50.3366 233.235 50.8326 233.627 51.4486V43.7086ZM229.895 59.6086C230.599 59.6086 231.215 59.4366 231.743 59.0926C232.271 58.7406 232.679 58.2686 232.967 57.6766C233.263 57.0846 233.411 56.4286 233.411 55.7086C233.411 54.9806 233.263 54.3206 232.967 53.7286C232.671 53.1366 232.259 52.6686 231.731 52.3246C231.211 51.9726 230.599 51.7966 229.895 51.7966C229.199 51.7966 228.563 51.9726 227.987 52.3246C227.419 52.6766 226.963 53.1486 226.619 53.7406C226.283 54.3326 226.115 54.9886 226.115 55.7086C226.115 56.4366 226.287 57.0966 226.631 57.6886C226.983 58.2726 227.443 58.7406 228.011 59.0926C228.587 59.4366 229.215 59.6086 229.895 59.6086ZM257.471 44.9086V47.4046H252.119V61.7086H249.623V47.4046H244.283V44.9086H257.471ZM258.146 61.7086V49.7086H260.642V50.9806C261.058 50.4846 261.57 50.0926 262.178 49.8046C262.786 49.5166 263.442 49.3726 264.146 49.3726C264.594 49.3726 265.038 49.4326 265.478 49.5526L264.482 52.0726C264.17 51.9526 263.858 51.8926 263.546 51.8926C263.018 51.8926 262.534 52.0246 262.094 52.2886C261.654 52.5446 261.302 52.8926 261.038 53.3326C260.774 53.7726 260.642 54.2606 260.642 54.7966V61.7086H258.146ZM275.638 49.7086H278.134V61.7086H275.626L275.53 59.9686C275.178 60.5846 274.702 61.0806 274.102 61.4566C273.502 61.8326 272.794 62.0206 271.978 62.0206C271.098 62.0206 270.27 61.8566 269.494 61.5286C268.718 61.1926 268.034 60.7286 267.442 60.1366C266.858 59.5446 266.402 58.8646 266.074 58.0966C265.746 57.3206 265.582 56.4886 265.582 55.6006C265.582 54.7446 265.742 53.9406 266.062 53.1886C266.382 52.4286 266.826 51.7646 267.394 51.1966C267.962 50.6286 268.618 50.1846 269.362 49.8646C270.114 49.5366 270.918 49.3726 271.774 49.3726C272.646 49.3726 273.414 49.5726 274.078 49.9726C274.75 50.3646 275.306 50.8686 275.746 51.4846L275.638 49.7086ZM271.918 59.6086C272.622 59.6086 273.238 59.4366 273.766 59.0926C274.294 58.7406 274.702 58.2686 274.99 57.6766C275.286 57.0846 275.434 56.4286 275.434 55.7086C275.434 54.9806 275.286 54.3206 274.99 53.7286C274.694 53.1366 274.282 52.6686 273.754 52.3246C273.234 51.9726 272.622 51.7966 271.918 51.7966C271.222 51.7966 270.586 51.9726 270.01 52.3246C269.434 52.6766 268.978 53.1486 268.642 53.7406C268.306 54.3326 268.138 54.9886 268.138 55.7086C268.138 56.4366 268.31 57.0966 268.654 57.6886C269.006 58.2726 269.466 58.7406 270.034 59.0926C270.61 59.4366 271.238 59.6086 271.918 59.6086ZM283.613 46.9846V49.7086H286.997V52.2046H283.613V61.7086H281.117V52.2046H279.689V49.7086H281.117V46.9846C281.117 46.3286 281.277 45.7326 281.597 45.1966C281.917 44.6526 282.345 44.2206 282.881 43.9006C283.425 43.5806 284.029 43.4206 284.693 43.4206C285.173 43.4206 285.641 43.5166 286.097 43.7086C286.553 43.9006 286.961 44.1966 287.321 44.5966L285.533 46.3606C285.445 46.2166 285.321 46.1086 285.161 46.0366C285.009 45.9566 284.853 45.9166 284.693 45.9166C284.397 45.9166 284.141 46.0206 283.925 46.2286C283.717 46.4366 283.613 46.6886 283.613 46.9846ZM292.285 46.9846V49.7086H295.669V52.2046H292.285V61.7086H289.789V52.2046H288.361V49.7086H289.789V46.9846C289.789 46.3286 289.949 45.7326 290.269 45.1966C290.589 44.6526 291.017 44.2206 291.553 43.9006C292.097 43.5806 292.701 43.4206 293.365 43.4206C293.845 43.4206 294.313 43.5166 294.769 43.7086C295.225 43.9006 295.633 44.1966 295.993 44.5966L294.205 46.3606C294.117 46.2166 293.993 46.1086 293.833 46.0366C293.681 45.9566 293.525 45.9166 293.365 45.9166C293.069 45.9166 292.813 46.0206 292.597 46.2286C292.389 46.4366 292.285 46.6886 292.285 46.9846ZM297.521 49.7086H300.017V61.7086H297.521V49.7086ZM298.793 47.9686C298.409 47.9686 298.089 47.8446 297.833 47.5966C297.577 47.3486 297.449 47.0366 297.449 46.6606C297.449 46.2926 297.577 45.9846 297.833 45.7366C298.089 45.4806 298.405 45.3526 298.781 45.3526C299.149 45.3526 299.461 45.4806 299.717 45.7366C299.973 45.9846 300.101 46.2926 300.101 46.6606C300.101 47.0366 299.973 47.3486 299.717 47.5966C299.469 47.8446 299.161 47.9686 298.793 47.9686ZM310.513 58.3006L312.745 59.5126C312.201 60.2726 311.509 60.8806 310.669 61.3366C309.837 61.7926 308.933 62.0206 307.957 62.0206C306.853 62.0206 305.845 61.7366 304.933 61.1686C304.029 60.6006 303.305 59.8406 302.761 58.8886C302.225 57.9286 301.957 56.8686 301.957 55.7086C301.957 54.8286 302.113 54.0086 302.425 53.2486C302.737 52.4806 303.165 51.8086 303.709 51.2326C304.261 50.6486 304.901 50.1926 305.629 49.8646C306.357 49.5366 307.133 49.3726 307.957 49.3726C308.933 49.3726 309.837 49.6006 310.669 50.0566C311.509 50.5126 312.201 51.1246 312.745 51.8926L310.513 53.1046C310.177 52.7046 309.785 52.4006 309.337 52.1926C308.889 51.9766 308.429 51.8686 307.957 51.8686C307.301 51.8686 306.705 52.0486 306.169 52.4086C305.641 52.7606 305.221 53.2286 304.909 53.8126C304.605 54.3886 304.453 55.0206 304.453 55.7086C304.453 56.3886 304.609 57.0206 304.921 57.6046C305.233 58.1806 305.653 58.6446 306.181 58.9966C306.717 59.3486 307.309 59.5246 307.957 59.5246C308.453 59.5246 308.925 59.4126 309.373 59.1886C309.821 58.9646 310.201 58.6686 310.513 58.3006Z" fill="#0C1021"/>
<path d="M152.986 76.9086H154.204L157.774 86.7086H156.731L155.968 84.6086H151.229L150.466 86.7086H149.423L152.986 76.9086ZM151.586 83.6286H155.604L153.595 78.1126L151.586 83.6286ZM159.292 86.7086V76.9086H160.272V86.7086H159.292ZM170.058 86.8906C169.395 86.8906 168.772 86.76 168.189 86.4986C167.605 86.2326 167.092 85.8686 166.649 85.4066C166.21 84.94 165.865 84.3986 165.613 83.7826C165.365 83.1666 165.242 82.5086 165.242 81.8086C165.242 81.1086 165.365 80.4506 165.613 79.8346C165.865 79.2186 166.21 78.6796 166.649 78.2176C167.092 77.751 167.605 77.387 168.189 77.1256C168.772 76.8596 169.395 76.7266 170.058 76.7266C170.851 76.7266 171.581 76.911 172.249 77.2796C172.916 77.6483 173.469 78.1383 173.908 78.7496L173.04 79.2186C172.694 78.7566 172.256 78.3903 171.724 78.1196C171.196 77.8443 170.641 77.7066 170.058 77.7066C169.521 77.7066 169.019 77.8163 168.553 78.0356C168.091 78.2503 167.685 78.5466 167.335 78.9246C166.985 79.3026 166.712 79.739 166.516 80.2336C166.32 80.7283 166.222 81.2533 166.222 81.8086C166.222 82.3733 166.32 82.903 166.516 83.3976C166.716 83.8923 166.992 84.3286 167.342 84.7066C167.696 85.0846 168.105 85.381 168.567 85.5956C169.033 85.8056 169.53 85.9106 170.058 85.9106C170.664 85.9106 171.227 85.773 171.745 85.4976C172.267 85.2176 172.699 84.8536 173.04 84.4056L173.908 84.8746C173.469 85.486 172.916 85.976 172.249 86.3446C171.581 86.7086 170.851 86.8906 170.058 86.8906ZM180.709 79.7086H181.689V86.7086H180.709L180.674 85.4066C180.446 85.85 180.126 86.2093 179.715 86.4846C179.305 86.7553 178.815 86.8906 178.245 86.8906C177.732 86.8906 177.251 86.795 176.803 86.6036C176.355 86.4076 175.961 86.1393 175.62 85.7986C175.28 85.458 175.014 85.0636 174.822 84.6156C174.631 84.1676 174.535 83.687 174.535 83.1736C174.535 82.6696 174.629 82.196 174.815 81.7526C175.007 81.3093 175.268 80.9196 175.599 80.5836C175.935 80.2476 176.323 79.9863 176.761 79.7996C177.205 79.6083 177.678 79.5126 178.182 79.5126C178.766 79.5126 179.274 79.6526 179.708 79.9326C180.142 80.208 180.488 80.5696 180.744 81.0176L180.709 79.7086ZM178.224 85.9386C178.724 85.9386 179.153 85.8173 179.512 85.5746C179.872 85.3273 180.147 84.996 180.338 84.5806C180.534 84.1653 180.632 83.708 180.632 83.2086C180.632 82.6953 180.534 82.2333 180.338 81.8226C180.142 81.4073 179.865 81.0783 179.505 80.8356C179.146 80.593 178.719 80.4716 178.224 80.4716C177.73 80.4716 177.277 80.5953 176.866 80.8426C176.46 81.0853 176.136 81.4143 175.893 81.8296C175.655 82.245 175.536 82.7046 175.536 83.2086C175.536 83.7173 175.66 84.1793 175.907 84.5946C176.155 85.0053 176.481 85.332 176.887 85.5746C177.298 85.8173 177.744 85.9386 178.224 85.9386ZM183.186 86.7086V76.2086H184.166V86.7086H183.186ZM185.852 86.7086V76.2086H186.832V86.7086H185.852ZM190.681 86.8416C190.298 86.8323 189.925 86.7623 189.561 86.6316C189.197 86.501 188.879 86.3236 188.609 86.0996C188.338 85.8756 188.144 85.6213 188.028 85.3366L188.875 84.9726C188.949 85.1546 189.087 85.3226 189.288 85.4766C189.493 85.626 189.726 85.7473 189.988 85.8406C190.249 85.9293 190.508 85.9736 190.765 85.9736C191.049 85.9736 191.315 85.927 191.563 85.8336C191.81 85.7403 192.011 85.6073 192.165 85.4346C192.323 85.2573 192.403 85.0496 192.403 84.8116C192.403 84.555 192.319 84.3543 192.151 84.2096C191.983 84.0603 191.77 83.9436 191.514 83.8596C191.257 83.771 190.993 83.687 190.723 83.6076C190.228 83.4723 189.792 83.323 189.414 83.1596C189.036 82.9963 188.739 82.7886 188.525 82.5366C188.315 82.28 188.21 81.951 188.21 81.5496C188.21 81.125 188.329 80.7586 188.567 80.4506C188.809 80.138 189.124 79.8976 189.512 79.7296C189.904 79.557 190.321 79.4706 190.765 79.4706C191.334 79.4706 191.852 79.5943 192.319 79.8416C192.79 80.089 193.131 80.418 193.341 80.8286L192.55 81.2976C192.466 81.1063 192.333 80.9406 192.151 80.8006C191.969 80.6606 191.761 80.551 191.528 80.4716C191.299 80.3923 191.066 80.3503 190.828 80.3456C190.529 80.341 190.251 80.3853 189.995 80.4786C189.738 80.5673 189.53 80.7003 189.372 80.8776C189.218 81.055 189.141 81.272 189.141 81.5286C189.141 81.7853 189.218 81.9813 189.372 82.1166C189.526 82.2473 189.733 82.3546 189.995 82.4386C190.261 82.518 190.559 82.6113 190.891 82.7186C191.315 82.854 191.714 83.008 192.088 83.1806C192.461 83.3533 192.762 83.568 192.991 83.8246C193.219 84.0813 193.331 84.4056 193.327 84.7976C193.327 85.2176 193.201 85.584 192.949 85.8966C192.697 86.2093 192.37 86.4496 191.969 86.6176C191.567 86.781 191.138 86.8556 190.681 86.8416ZM204.001 82.3756V86.7086H203.021V82.5716C203.021 82.189 202.927 81.8413 202.741 81.5286C202.554 81.216 202.304 80.9663 201.992 80.7796C201.679 80.593 201.331 80.4996 200.949 80.4996C200.571 80.4996 200.223 80.593 199.906 80.7796C199.593 80.9663 199.343 81.216 199.157 81.5286C198.97 81.8413 198.877 82.189 198.877 82.5716V86.7086H197.897V76.2086H198.877V80.6746C199.124 80.32 199.446 80.0376 199.843 79.8276C200.239 79.6176 200.671 79.5126 201.138 79.5126C201.665 79.5126 202.146 79.641 202.58 79.8976C203.014 80.1543 203.359 80.4996 203.616 80.9336C203.872 81.3676 204.001 81.8483 204.001 82.3756ZM211.02 79.7086H212V86.7086H211.02L210.985 85.4066C210.756 85.85 210.436 86.2093 210.026 86.4846C209.615 86.7553 209.125 86.8906 208.556 86.8906C208.042 86.8906 207.562 86.795 207.114 86.6036C206.666 86.4076 206.271 86.1393 205.931 85.7986C205.59 85.458 205.324 85.0636 205.133 84.6156C204.941 84.1676 204.846 83.687 204.846 83.1736C204.846 82.6696 204.939 82.196 205.126 81.7526C205.317 81.3093 205.578 80.9196 205.91 80.5836C206.246 80.2476 206.633 79.9863 207.072 79.7996C207.515 79.6083 207.989 79.5126 208.493 79.5126C209.076 79.5126 209.585 79.6526 210.019 79.9326C210.453 80.208 210.798 80.5696 211.055 81.0176L211.02 79.7086ZM208.535 85.9386C209.034 85.9386 209.463 85.8173 209.823 85.5746C210.182 85.3273 210.457 84.996 210.649 84.5806C210.845 84.1653 210.943 83.708 210.943 83.2086C210.943 82.6953 210.845 82.2333 210.649 81.8226C210.453 81.4073 210.175 81.0783 209.816 80.8356C209.456 80.593 209.029 80.4716 208.535 80.4716C208.04 80.4716 207.587 80.5953 207.177 80.8426C206.771 81.0853 206.446 81.4143 206.204 81.8296C205.966 82.245 205.847 82.7046 205.847 83.2086C205.847 83.7173 205.97 84.1793 206.218 84.5946C206.465 85.0053 206.792 85.332 207.198 85.5746C207.608 85.8173 208.054 85.9386 208.535 85.9386ZM219.505 82.3756V86.7086H218.525V82.5716C218.525 82.189 218.431 81.8413 218.245 81.5286C218.058 81.216 217.808 80.9663 217.496 80.7796C217.183 80.593 216.835 80.4996 216.453 80.4996C216.075 80.4996 215.727 80.593 215.41 80.7796C215.097 80.9663 214.847 81.216 214.661 81.5286C214.474 81.8413 214.381 82.189 214.381 82.5716V86.7086H213.401V79.7086H214.381V80.6746C214.628 80.32 214.95 80.0376 215.347 79.8276C215.743 79.6176 216.175 79.5126 216.642 79.5126C217.169 79.5126 217.65 79.641 218.084 79.8976C218.518 80.1543 218.863 80.4996 219.12 80.9336C219.376 81.3676 219.505 81.8483 219.505 82.3756ZM226.531 76.2086H227.511V86.7086H226.531V85.3996C226.288 85.8476 225.954 86.2093 225.53 86.4846C225.11 86.7553 224.61 86.8906 224.032 86.8906C223.523 86.8906 223.047 86.795 222.604 86.6036C222.16 86.4123 221.768 86.1486 221.428 85.8126C221.092 85.472 220.828 85.08 220.637 84.6366C220.445 84.1933 220.35 83.7173 220.35 83.2086C220.35 82.7 220.445 82.224 220.637 81.7806C220.828 81.3326 221.092 80.9406 221.428 80.6046C221.768 80.264 222.16 79.998 222.604 79.8066C223.047 79.6153 223.523 79.5196 224.032 79.5196C224.61 79.5196 225.11 79.6573 225.53 79.9326C225.954 80.2033 226.288 80.5603 226.531 81.0036V76.2086ZM224.039 85.9386C224.538 85.9386 224.967 85.8173 225.327 85.5746C225.686 85.3273 225.961 84.996 226.153 84.5806C226.349 84.1653 226.447 83.708 226.447 83.2086C226.447 82.6953 226.349 82.2333 226.153 81.8226C225.957 81.4073 225.679 81.0783 225.32 80.8356C224.96 80.593 224.533 80.4716 224.039 80.4716C223.544 80.4716 223.094 80.5953 222.688 80.8426C222.282 81.0853 221.957 81.4143 221.715 81.8296C221.472 82.245 221.351 82.7046 221.351 83.2086C221.351 83.7173 221.474 84.1793 221.722 84.5946C221.969 85.0053 222.296 85.332 222.702 85.5746C223.112 85.8173 223.558 85.9386 224.039 85.9386ZM229.192 86.7086V76.2086H230.172V86.7086H229.192ZM234.883 86.8906C234.239 86.8906 233.651 86.725 233.119 86.3936C232.592 86.0623 232.169 85.619 231.852 85.0636C231.539 84.5036 231.383 83.8853 231.383 83.2086C231.383 82.6953 231.474 82.217 231.656 81.7736C231.838 81.3256 232.088 80.9336 232.405 80.5976C232.727 80.257 233.1 79.991 233.525 79.7996C233.95 79.6083 234.402 79.5126 234.883 79.5126C235.401 79.5126 235.877 79.6153 236.311 79.8206C236.75 80.026 237.125 80.313 237.438 80.6816C237.755 81.0503 237.993 81.482 238.152 81.9766C238.315 82.4713 238.383 83.0056 238.355 83.5796H232.419C232.475 84.023 232.615 84.4196 232.839 84.7696C233.068 85.1196 233.357 85.3973 233.707 85.6026C234.062 85.8033 234.454 85.906 234.883 85.9106C235.35 85.9106 235.77 85.7893 236.143 85.5466C236.521 85.304 236.824 84.9703 237.053 84.5456L238.047 84.7766C237.767 85.3973 237.345 85.906 236.78 86.3026C236.215 86.6946 235.583 86.8906 234.883 86.8906ZM232.391 82.7886H237.368C237.335 82.3546 237.202 81.958 236.969 81.5986C236.74 81.2346 236.444 80.9453 236.08 80.7306C235.716 80.5113 235.317 80.4016 234.883 80.4016C234.449 80.4016 234.052 80.509 233.693 80.7236C233.334 80.9336 233.04 81.2206 232.811 81.5846C232.582 81.944 232.442 82.3453 232.391 82.7886ZM245.247 76.2086H246.227V86.7086H245.247V85.3996C245.005 85.8476 244.671 86.2093 244.246 86.4846C243.826 86.7553 243.327 86.8906 242.748 86.8906C242.24 86.8906 241.764 86.795 241.32 86.6036C240.877 86.4123 240.485 86.1486 240.144 85.8126C239.808 85.472 239.545 85.08 239.353 84.6366C239.162 84.1933 239.066 83.7173 239.066 83.2086C239.066 82.7 239.162 82.224 239.353 81.7806C239.545 81.3326 239.808 80.9406 240.144 80.6046C240.485 80.264 240.877 79.998 241.32 79.8066C241.764 79.6153 242.24 79.5196 242.748 79.5196C243.327 79.5196 243.826 79.6573 244.246 79.9326C244.671 80.2033 245.005 80.5603 245.247 81.0036V76.2086ZM242.755 85.9386C243.255 85.9386 243.684 85.8173 244.043 85.5746C244.403 85.3273 244.678 84.996 244.869 84.5806C245.065 84.1653 245.163 83.708 245.163 83.2086C245.163 82.6953 245.065 82.2333 244.869 81.8226C244.673 81.4073 244.396 81.0783 244.036 80.8356C243.677 80.593 243.25 80.4716 242.755 80.4716C242.261 80.4716 241.81 80.5953 241.404 80.8426C240.998 81.0853 240.674 81.4143 240.431 81.8296C240.189 82.245 240.067 82.7046 240.067 83.2086C240.067 83.7173 240.191 84.1793 240.438 84.5946C240.686 85.0053 241.012 85.332 241.418 85.5746C241.829 85.8173 242.275 85.9386 242.755 85.9386ZM253.134 84.5876C252.7 84.541 252.322 84.4126 252 84.2026C251.682 83.988 251.435 83.7173 251.258 83.3906C251.08 83.064 250.992 82.7093 250.992 82.3266C250.992 81.9206 251.083 81.552 251.265 81.2206C251.451 80.8846 251.706 80.614 252.028 80.4086C252.35 80.1986 252.718 80.0843 253.134 80.0656C253.493 80.0656 253.801 80.1216 254.058 80.2336C254.319 80.341 254.569 80.5066 254.807 80.7306C255.045 80.95 255.306 81.2323 255.591 81.5776C255.861 81.2416 256.116 80.9616 256.354 80.7376C256.592 80.5136 256.834 80.3456 257.082 80.2336C257.334 80.1216 257.611 80.0656 257.915 80.0656C258.395 80.0843 258.804 80.1986 259.14 80.4086C259.476 80.614 259.732 80.8846 259.91 81.2206C260.087 81.552 260.176 81.9206 260.176 82.3266C260.176 82.728 260.085 83.0966 259.903 83.4326C259.721 83.764 259.469 84.0323 259.147 84.2376C258.829 84.443 258.463 84.5596 258.048 84.5876C257.698 84.5876 257.394 84.5386 257.138 84.4406C256.881 84.338 256.634 84.177 256.396 83.9576C256.158 83.7336 255.889 83.442 255.591 83.0826C255.297 83.4326 255.031 83.722 254.793 83.9506C254.555 84.1746 254.307 84.3403 254.051 84.4476C253.794 84.5503 253.488 84.597 253.134 84.5876ZM253.141 83.6776C253.411 83.6776 253.64 83.6286 253.827 83.5306C254.018 83.428 254.202 83.2763 254.38 83.0756C254.562 82.875 254.774 82.6253 255.017 82.3266C254.76 82.0093 254.541 81.7526 254.359 81.5566C254.181 81.356 253.999 81.209 253.813 81.1156C253.631 81.0223 253.407 80.978 253.141 80.9826C252.777 81.0153 252.478 81.1623 252.245 81.4236C252.016 81.685 251.902 81.986 251.902 82.3266C251.902 82.6953 252.023 83.0033 252.266 83.2506C252.508 83.498 252.8 83.6403 253.141 83.6776ZM258.027 83.6776C258.391 83.6403 258.689 83.4933 258.923 83.2366C259.156 82.9753 259.273 82.672 259.273 82.3266C259.273 81.9673 259.154 81.6616 258.916 81.4096C258.682 81.153 258.363 81.0083 257.957 80.9756C257.719 80.9756 257.509 81.027 257.327 81.1296C257.149 81.2276 256.97 81.377 256.788 81.5776C256.61 81.7783 256.398 82.028 256.151 82.3266C256.365 82.5833 256.55 82.8003 256.704 82.9776C256.862 83.1503 257.007 83.288 257.138 83.3906C257.268 83.4933 257.404 83.568 257.544 83.6146C257.684 83.6566 257.845 83.6776 258.027 83.6776ZM267.107 86.8416C266.724 86.8323 266.351 86.7623 265.987 86.6316C265.623 86.501 265.305 86.3236 265.035 86.0996C264.764 85.8756 264.57 85.6213 264.454 85.3366L265.301 84.9726C265.375 85.1546 265.513 85.3226 265.714 85.4766C265.919 85.626 266.152 85.7473 266.414 85.8406C266.675 85.9293 266.934 85.9736 267.191 85.9736C267.475 85.9736 267.741 85.927 267.989 85.8336C268.236 85.7403 268.437 85.6073 268.591 85.4346C268.749 85.2573 268.829 85.0496 268.829 84.8116C268.829 84.555 268.745 84.3543 268.577 84.2096C268.409 84.0603 268.196 83.9436 267.94 83.8596C267.683 83.771 267.419 83.687 267.149 83.6076C266.654 83.4723 266.218 83.323 265.84 83.1596C265.462 82.9963 265.165 82.7886 264.951 82.5366C264.741 82.28 264.636 81.951 264.636 81.5496C264.636 81.125 264.755 80.7586 264.993 80.4506C265.235 80.138 265.55 79.8976 265.938 79.7296C266.33 79.557 266.747 79.4706 267.191 79.4706C267.76 79.4706 268.278 79.5943 268.745 79.8416C269.216 80.089 269.557 80.418 269.767 80.8286L268.976 81.2976C268.892 81.1063 268.759 80.9406 268.577 80.8006C268.395 80.6606 268.187 80.551 267.954 80.4716C267.725 80.3923 267.492 80.3503 267.254 80.3456C266.955 80.341 266.677 80.3853 266.421 80.4786C266.164 80.5673 265.956 80.7003 265.798 80.8776C265.644 81.055 265.567 81.272 265.567 81.5286C265.567 81.7853 265.644 81.9813 265.798 82.1166C265.952 82.2473 266.159 82.3546 266.421 82.4386C266.687 82.518 266.985 82.6113 267.317 82.7186C267.741 82.854 268.14 83.008 268.514 83.1806C268.887 83.3533 269.188 83.568 269.417 83.8246C269.645 84.0813 269.757 84.4056 269.753 84.7976C269.753 85.2176 269.627 85.584 269.375 85.8966C269.123 86.2093 268.796 86.4496 268.395 86.6176C267.993 86.781 267.564 86.8556 267.107 86.8416ZM275.902 84.9516L276.777 85.4276C276.46 85.871 276.056 86.2256 275.566 86.4916C275.081 86.7576 274.554 86.8906 273.984 86.8906C273.34 86.8906 272.752 86.725 272.22 86.3936C271.693 86.0623 271.271 85.619 270.953 85.0636C270.641 84.5036 270.484 83.8853 270.484 83.2086C270.484 82.6953 270.575 82.217 270.757 81.7736C270.939 81.3256 271.189 80.9336 271.506 80.5976C271.828 80.257 272.202 79.991 272.626 79.7996C273.051 79.6083 273.504 79.5126 273.984 79.5126C274.554 79.5126 275.081 79.6456 275.566 79.9116C276.056 80.1776 276.46 80.5346 276.777 80.9826L275.902 81.4516C275.66 81.1436 275.368 80.908 275.027 80.7446C274.687 80.5766 274.339 80.4926 273.984 80.4926C273.513 80.4926 273.086 80.6186 272.703 80.8706C272.321 81.118 272.017 81.447 271.793 81.8576C271.574 82.2683 271.464 82.7186 271.464 83.2086C271.464 83.6986 271.576 84.149 271.8 84.5596C272.029 84.9703 272.335 85.2993 272.717 85.5466C273.1 85.7893 273.522 85.9106 273.984 85.9106C274.367 85.9106 274.726 85.822 275.062 85.6446C275.398 85.4673 275.678 85.2363 275.902 84.9516ZM283.699 79.7086H284.679V86.7086H283.699L283.664 85.4066C283.436 85.85 283.116 86.2093 282.705 86.4846C282.295 86.7553 281.805 86.8906 281.235 86.8906C280.722 86.8906 280.241 86.795 279.793 86.6036C279.345 86.4076 278.951 86.1393 278.61 85.7986C278.27 85.458 278.004 85.0636 277.812 84.6156C277.621 84.1676 277.525 83.687 277.525 83.1736C277.525 82.6696 277.619 82.196 277.805 81.7526C277.997 81.3093 278.258 80.9196 278.589 80.5836C278.925 80.2476 279.313 79.9863 279.751 79.7996C280.195 79.6083 280.668 79.5126 281.172 79.5126C281.756 79.5126 282.264 79.6526 282.698 79.9326C283.132 80.208 283.478 80.5696 283.734 81.0176L283.699 79.7086ZM281.214 85.9386C281.714 85.9386 282.143 85.8173 282.502 85.5746C282.862 85.3273 283.137 84.996 283.328 84.5806C283.524 84.1653 283.622 83.708 283.622 83.2086C283.622 82.6953 283.524 82.2333 283.328 81.8226C283.132 81.4073 282.855 81.0783 282.495 80.8356C282.136 80.593 281.709 80.4716 281.214 80.4716C280.72 80.4716 280.267 80.5953 279.856 80.8426C279.45 81.0853 279.126 81.4143 278.883 81.8296C278.645 82.245 278.526 82.7046 278.526 83.2086C278.526 83.7173 278.65 84.1793 278.897 84.5946C279.145 85.0053 279.471 85.332 279.877 85.5746C280.288 85.8173 280.734 85.9386 281.214 85.9386ZM286.176 86.7086V76.2086H287.156V86.7086H286.176ZM294.541 79.7086H295.521V86.7086H294.541L294.506 85.4066C294.278 85.85 293.958 86.2093 293.547 86.4846C293.137 86.7553 292.647 86.8906 292.077 86.8906C291.564 86.8906 291.083 86.795 290.635 86.6036C290.187 86.4076 289.793 86.1393 289.452 85.7986C289.112 85.458 288.846 85.0636 288.654 84.6156C288.463 84.1676 288.367 83.687 288.367 83.1736C288.367 82.6696 288.461 82.196 288.647 81.7526C288.839 81.3093 289.1 80.9196 289.431 80.5836C289.767 80.2476 290.155 79.9863 290.593 79.7996C291.037 79.6083 291.51 79.5126 292.014 79.5126C292.598 79.5126 293.106 79.6526 293.54 79.9326C293.974 80.208 294.32 80.5696 294.576 81.0176L294.541 79.7086ZM292.056 85.9386C292.556 85.9386 292.985 85.8173 293.344 85.5746C293.704 85.3273 293.979 84.996 294.17 84.5806C294.366 84.1653 294.464 83.708 294.464 83.2086C294.464 82.6953 294.366 82.2333 294.17 81.8226C293.974 81.4073 293.697 81.0783 293.337 80.8356C292.978 80.593 292.551 80.4716 292.056 80.4716C291.562 80.4716 291.109 80.5953 290.698 80.8426C290.292 81.0853 289.968 81.4143 289.725 81.8296C289.487 82.245 289.368 82.7046 289.368 83.2086C289.368 83.7173 289.492 84.1793 289.739 84.5946C289.987 85.0053 290.313 85.332 290.719 85.5746C291.13 85.8173 291.576 85.9386 292.056 85.9386ZM300.49 79.5126C301.171 79.5126 301.789 79.6783 302.345 80.0096C302.905 80.341 303.35 80.7866 303.682 81.3466C304.013 81.902 304.179 82.5203 304.179 83.2016C304.179 83.7103 304.083 84.1886 303.892 84.6366C303.7 85.08 303.434 85.472 303.094 85.8126C302.758 86.1486 302.366 86.4123 301.918 86.6036C301.474 86.795 300.998 86.8906 300.49 86.8906C299.911 86.8906 299.412 86.753 298.992 86.4776C298.572 86.2023 298.24 85.843 297.998 85.3996V86.7086H297.018V76.2086H297.998V81.0036C298.24 80.5603 298.572 80.201 298.992 79.9256C299.412 79.6503 299.911 79.5126 300.49 79.5126ZM300.483 85.9316C300.982 85.9316 301.435 85.8103 301.841 85.5676C302.247 85.3203 302.571 84.989 302.814 84.5736C303.056 84.1583 303.178 83.701 303.178 83.2016C303.178 82.6883 303.054 82.2263 302.807 81.8156C302.559 81.4003 302.23 81.0713 301.82 80.8286C301.414 80.586 300.968 80.4646 300.483 80.4646C299.988 80.4646 299.559 80.5883 299.195 80.8356C298.835 81.083 298.558 81.4143 298.362 81.8296C298.17 82.245 298.075 82.7023 298.075 83.2016C298.075 83.7103 298.173 84.1723 298.369 84.5876C298.565 84.9983 298.842 85.325 299.202 85.5676C299.566 85.8103 299.993 85.9316 300.483 85.9316ZM305.317 86.7086V76.2086H306.297V86.7086H305.317ZM311.008 86.8906C310.364 86.8906 309.776 86.725 309.244 86.3936C308.717 86.0623 308.294 85.619 307.977 85.0636C307.664 84.5036 307.508 83.8853 307.508 83.2086C307.508 82.6953 307.599 82.217 307.781 81.7736C307.963 81.3256 308.213 80.9336 308.53 80.5976C308.852 80.257 309.225 79.991 309.65 79.7996C310.075 79.6083 310.527 79.5126 311.008 79.5126C311.526 79.5126 312.002 79.6153 312.436 79.8206C312.875 80.026 313.25 80.313 313.563 80.6816C313.88 81.0503 314.118 81.482 314.277 81.9766C314.44 82.4713 314.508 83.0056 314.48 83.5796H308.544C308.6 84.023 308.74 84.4196 308.964 84.7696C309.193 85.1196 309.482 85.3973 309.832 85.6026C310.187 85.8033 310.579 85.906 311.008 85.9106C311.475 85.9106 311.895 85.7893 312.268 85.5466C312.646 85.304 312.949 84.9703 313.178 84.5456L314.172 84.7766C313.892 85.3973 313.47 85.906 312.905 86.3026C312.34 86.6946 311.708 86.8906 311.008 86.8906ZM308.516 82.7886H313.493C313.46 82.3546 313.327 81.958 313.094 81.5986C312.865 81.2346 312.569 80.9453 312.205 80.7306C311.841 80.5113 311.442 80.4016 311.008 80.4016C310.574 80.4016 310.177 80.509 309.818 80.7236C309.459 80.9336 309.165 81.2206 308.936 81.5846C308.707 81.944 308.567 82.3453 308.516 82.7886Z" fill="#535662"/>
<g clip-path="url(#clip0_2460_7982)">
<mask id="path-5-inside-1_2460_7982" fill="white">
<path d="M42.3857 114.709H421.386V391.709H42.3857V114.709Z"/>
</mask>
<rect x="226.386" y="156.209" width="2" height="235" fill="url(#paint0_linear_2460_7982)"/>
<rect x="44.2119" y="174.573" width="377" height="1" rx="0.5" fill="#002852" fill-opacity="0.05"/>
<rect x="43.3857" y="113.709" width="278" height="0.999988" rx="0.499994" transform="rotate(90 43.3857 113.709)" fill="#002852" fill-opacity="0.05"/>
<rect x="44.2119" y="226.573" width="377" height="1" rx="0.5" fill="#002852" fill-opacity="0.05"/>
<rect x="44.2119" y="279.573" width="377" height="1" rx="0.5" fill="#002852" fill-opacity="0.05"/>
<rect x="44.2119" y="331.573" width="377" height="1" rx="0.5" fill="#002852" fill-opacity="0.05"/>
<path d="M-451.614 334.482C-451.614 334.482 -232.557 351.397 -89.6023 351.207C63.5819 351.003 143.916 331.452 297.092 330.934C422.624 330.509 491.265 345.982 616.321 342.591C740.666 339.219 922.386 314.209 922.386 314.209" stroke="#4268FF" stroke-width="2"/>
<path d="M22.3857 290.709C22.3857 290.709 56.6904 296.457 77.3857 290.709C142.001 272.762 63.736 116.187 129.886 127.209C188.845 137.033 119.774 263.351 178.886 272.209C188.734 273.684 194.623 274.171 204.386 272.209C250.075 263.023 181.329 157.293 227.886 155.209C274.913 153.103 210.685 263.182 256.886 272.209C266.659 274.118 272.542 273.716 282.386 272.209C340.936 263.241 267.934 132.975 326.886 127.209C387.952 121.235 328.208 288.416 387.386 272.209C431.27 260.19 440.886 168.709 440.886 168.709" stroke="#9D42FF" stroke-width="2"/>
<g filter="url(#filter1_d_2460_7982)">
<rect x="160.386" y="121.209" width="131.634" height="28.4878" rx="14.2439" fill="#0C1021" shape-rendering="crispEdges"/>
<rect x="160.739" y="121.562" width="130.927" height="27.7805" rx="13.8902" stroke="#0C1021" stroke-opacity="0.1" stroke-width="0.707317" shape-rendering="crispEdges"/>
<path d="M172.976 141.453V129.57H174.164V141.453H172.976ZM183.853 136.199V141.453H182.664V136.436C182.664 135.972 182.551 135.551 182.325 135.172C182.098 134.792 181.796 134.49 181.417 134.263C181.037 134.037 180.616 133.924 180.152 133.924C179.694 133.924 179.272 134.037 178.887 134.263C178.508 134.49 178.205 134.792 177.979 135.172C177.753 135.551 177.639 135.972 177.639 136.436V141.453H176.451V132.965H177.639V134.136C177.939 133.706 178.33 133.364 178.811 133.109C179.292 132.854 179.815 132.727 180.381 132.727C181.02 132.727 181.603 132.883 182.13 133.194C182.656 133.505 183.074 133.924 183.386 134.45C183.697 134.976 183.853 135.559 183.853 136.199ZM189.878 132.727C190.704 132.727 191.454 132.928 192.128 133.33C192.807 133.731 193.347 134.272 193.749 134.951C194.151 135.624 194.351 136.374 194.351 137.2C194.351 137.817 194.235 138.397 194.003 138.94C193.771 139.478 193.449 139.953 193.036 140.366C192.628 140.773 192.153 141.093 191.61 141.325C191.072 141.557 190.495 141.673 189.878 141.673C189.177 141.673 188.571 141.506 188.062 141.172C187.553 140.839 187.151 140.403 186.857 139.865V141.453H185.668V128.721H186.857V134.535C187.151 133.997 187.553 133.562 188.062 133.228C188.571 132.894 189.177 132.727 189.878 132.727ZM189.87 140.51C190.475 140.51 191.024 140.363 191.516 140.069C192.009 139.769 192.402 139.367 192.696 138.864C192.991 138.36 193.138 137.806 193.138 137.2C193.138 136.578 192.988 136.017 192.688 135.52C192.388 135.016 191.989 134.617 191.491 134.323C190.999 134.029 190.458 133.881 189.87 133.881C189.27 133.881 188.749 134.031 188.308 134.331C187.872 134.631 187.536 135.033 187.298 135.537C187.066 136.04 186.95 136.595 186.95 137.2C186.95 137.817 187.069 138.377 187.307 138.881C187.544 139.379 187.881 139.775 188.317 140.069C188.758 140.363 189.276 140.51 189.87 140.51ZM199.449 141.673C198.668 141.673 197.955 141.472 197.31 141.071C196.671 140.669 196.159 140.131 195.774 139.458C195.395 138.779 195.205 138.029 195.205 137.209C195.205 136.586 195.316 136.006 195.536 135.469C195.757 134.925 196.06 134.45 196.444 134.043C196.835 133.63 197.288 133.307 197.803 133.075C198.317 132.843 198.866 132.727 199.449 132.727C200.23 132.727 200.94 132.928 201.58 133.33C202.225 133.731 202.737 134.272 203.116 134.951C203.501 135.63 203.693 136.382 203.693 137.209C203.693 137.825 203.583 138.403 203.362 138.94C203.141 139.478 202.836 139.953 202.445 140.366C202.061 140.773 201.611 141.093 201.096 141.325C200.587 141.557 200.038 141.673 199.449 141.673ZM199.449 140.485C200.026 140.485 200.544 140.335 201.002 140.035C201.466 139.729 201.831 139.328 202.097 138.83C202.369 138.332 202.505 137.791 202.505 137.209C202.505 136.614 202.369 136.068 202.097 135.57C201.826 135.067 201.458 134.665 200.994 134.365C200.536 134.065 200.021 133.915 199.449 133.915C198.872 133.915 198.351 134.068 197.887 134.374C197.429 134.674 197.064 135.073 196.792 135.57C196.527 136.068 196.394 136.614 196.394 137.209C196.394 137.82 196.532 138.374 196.809 138.872C197.087 139.365 197.457 139.758 197.921 140.052C198.385 140.341 198.895 140.485 199.449 140.485ZM204.708 138.202V132.965H205.897V137.964C205.897 138.428 206.01 138.85 206.236 139.229C206.462 139.608 206.765 139.911 207.144 140.137C207.529 140.363 207.951 140.476 208.409 140.476C208.873 140.476 209.292 140.363 209.665 140.137C210.044 139.911 210.347 139.608 210.573 139.229C210.8 138.85 210.913 138.428 210.913 137.964V132.965H212.101L212.11 141.453H210.921L210.913 140.264C210.613 140.694 210.223 141.037 209.742 141.291C209.266 141.546 208.746 141.673 208.18 141.673C207.54 141.673 206.958 141.518 206.431 141.206C205.905 140.895 205.486 140.476 205.175 139.95C204.864 139.424 204.708 138.841 204.708 138.202ZM221.202 136.199V141.453H220.014V136.436C220.014 135.972 219.901 135.551 219.674 135.172C219.448 134.792 219.145 134.49 218.766 134.263C218.387 134.037 217.966 133.924 217.502 133.924C217.043 133.924 216.622 134.037 216.237 134.263C215.858 134.49 215.555 134.792 215.329 135.172C215.102 135.551 214.989 135.972 214.989 136.436V141.453H213.801V132.965H214.989V134.136C215.289 133.706 215.679 133.364 216.16 133.109C216.641 132.854 217.165 132.727 217.731 132.727C218.37 132.727 218.953 132.883 219.479 133.194C220.005 133.505 220.424 133.924 220.735 134.45C221.047 134.976 221.202 135.559 221.202 136.199ZM229.722 128.721H230.91V141.453H229.722V139.865C229.427 140.409 229.023 140.847 228.508 141.181C227.999 141.509 227.393 141.673 226.692 141.673C226.075 141.673 225.498 141.557 224.96 141.325C224.422 141.093 223.947 140.773 223.534 140.366C223.127 139.953 222.807 139.478 222.575 138.94C222.343 138.403 222.227 137.825 222.227 137.209C222.227 136.592 222.343 136.015 222.575 135.477C222.807 134.934 223.127 134.459 223.534 134.051C223.947 133.638 224.422 133.316 224.96 133.084C225.498 132.852 226.075 132.736 226.692 132.736C227.393 132.736 227.999 132.902 228.508 133.236C229.023 133.565 229.427 133.997 229.722 134.535V128.721ZM226.7 140.519C227.305 140.519 227.826 140.372 228.262 140.077C228.697 139.778 229.031 139.376 229.263 138.872C229.501 138.369 229.62 137.814 229.62 137.209C229.62 136.586 229.501 136.026 229.263 135.528C229.026 135.024 228.689 134.625 228.253 134.331C227.818 134.037 227.3 133.89 226.7 133.89C226.1 133.89 225.554 134.04 225.062 134.34C224.57 134.634 224.176 135.033 223.882 135.537C223.588 136.04 223.441 136.597 223.441 137.209C223.441 137.825 223.591 138.386 223.891 138.889C224.19 139.387 224.587 139.783 225.079 140.077C225.577 140.372 226.117 140.519 226.7 140.519ZM241.364 134.153H239.335L239.326 141.453H238.138L238.147 134.153H236.61V132.965H238.147L238.138 130.3H239.326L239.335 132.965H241.364V134.153ZM242.878 141.453V132.965H244.066V134.136C244.366 133.706 244.757 133.364 245.238 133.109C245.719 132.854 246.242 132.727 246.808 132.727C247.136 132.727 247.453 132.769 247.759 132.854L247.275 134.034C247.037 133.961 246.805 133.924 246.579 133.924C246.121 133.924 245.699 134.037 245.314 134.263C244.935 134.49 244.632 134.792 244.406 135.172C244.18 135.551 244.066 135.972 244.066 136.436V141.453H242.878ZM255.359 132.965H256.547V141.453H255.359L255.317 139.874C255.039 140.411 254.652 140.847 254.154 141.181C253.656 141.509 253.062 141.673 252.371 141.673C251.749 141.673 251.166 141.557 250.623 141.325C250.08 141.088 249.601 140.762 249.188 140.349C248.775 139.936 248.453 139.458 248.221 138.915C247.989 138.371 247.873 137.789 247.873 137.166C247.873 136.555 247.986 135.981 248.212 135.443C248.444 134.906 248.761 134.433 249.163 134.026C249.57 133.618 250.04 133.301 250.572 133.075C251.109 132.843 251.684 132.727 252.295 132.727C253.002 132.727 253.619 132.897 254.145 133.236C254.671 133.57 255.09 134.009 255.401 134.552L255.359 132.965ZM252.346 140.519C252.951 140.519 253.472 140.372 253.908 140.077C254.343 139.778 254.677 139.376 254.909 138.872C255.147 138.369 255.266 137.814 255.266 137.209C255.266 136.586 255.147 136.026 254.909 135.528C254.671 135.024 254.335 134.625 253.899 134.331C253.463 134.037 252.946 133.89 252.346 133.89C251.746 133.89 251.197 134.04 250.699 134.34C250.207 134.634 249.814 135.033 249.519 135.537C249.231 136.04 249.086 136.597 249.086 137.209C249.086 137.825 249.236 138.386 249.536 138.889C249.836 139.387 250.232 139.783 250.725 140.077C251.223 140.372 251.763 140.519 252.346 140.519ZM260.003 130.749V132.965H262.549V134.153H260.003V141.453H258.814V134.153H257.652V132.965H258.814V130.749C258.814 130.336 258.913 129.963 259.112 129.629C259.315 129.289 259.587 129.021 259.926 128.823C260.266 128.619 260.642 128.517 261.055 128.517C261.355 128.517 261.644 128.577 261.921 128.695C262.204 128.814 262.456 128.99 262.676 129.222L261.828 130.062C261.737 129.949 261.621 129.861 261.48 129.799C261.344 129.737 261.202 129.705 261.055 129.705C260.767 129.705 260.518 129.807 260.308 130.011C260.105 130.215 260.003 130.461 260.003 130.749ZM265.904 130.749V132.965H268.451V134.153H265.904V141.453H264.716V134.153H263.553V132.965H264.716V130.749C264.716 130.336 264.815 129.963 265.013 129.629C265.217 129.289 265.489 129.021 265.828 128.823C266.168 128.619 266.544 128.517 266.957 128.517C267.257 128.517 267.545 128.577 267.823 128.695C268.106 128.814 268.357 128.99 268.578 129.222L267.729 130.062C267.639 129.949 267.523 129.861 267.381 129.799C267.245 129.737 267.104 129.705 266.957 129.705C266.668 129.705 266.419 129.807 266.21 130.011C266.006 130.215 265.904 130.461 265.904 130.749ZM269.751 132.965H270.939V141.453H269.751V132.965ZM270.353 131.479C270.161 131.479 269.997 131.417 269.861 131.293C269.731 131.162 269.666 131.001 269.666 130.809C269.666 130.616 269.731 130.458 269.861 130.333C269.997 130.203 270.161 130.138 270.353 130.138C270.54 130.138 270.699 130.203 270.829 130.333C270.964 130.458 271.032 130.616 271.032 130.809C271.032 131.001 270.967 131.162 270.837 131.293C270.707 131.417 270.546 131.479 270.353 131.479ZM278.961 139.322L280.022 139.899C279.637 140.437 279.147 140.867 278.553 141.189C277.965 141.512 277.325 141.673 276.635 141.673C275.854 141.673 275.141 141.472 274.496 141.071C273.857 140.669 273.345 140.131 272.96 139.458C272.581 138.779 272.391 138.029 272.391 137.209C272.391 136.586 272.502 136.006 272.722 135.469C272.943 134.925 273.246 134.45 273.63 134.043C274.021 133.63 274.474 133.307 274.988 133.075C275.503 132.843 276.052 132.727 276.635 132.727C277.325 132.727 277.965 132.888 278.553 133.211C279.147 133.533 279.637 133.966 280.022 134.509L278.961 135.078C278.667 134.705 278.313 134.419 277.9 134.221C277.487 134.017 277.065 133.915 276.635 133.915C276.064 133.915 275.546 134.068 275.082 134.374C274.618 134.674 274.25 135.073 273.978 135.57C273.712 136.068 273.579 136.614 273.579 137.209C273.579 137.803 273.715 138.349 273.987 138.847C274.264 139.345 274.635 139.744 275.099 140.044C275.563 140.338 276.075 140.485 276.635 140.485C277.099 140.485 277.535 140.377 277.942 140.162C278.35 139.947 278.689 139.667 278.961 139.322Z" fill="white"/>
</g>
<rect x="248.386" y="331.209" width="2" height="60" fill="url(#paint1_linear_2460_7982)"/>
<g filter="url(#filter2_d_2460_7982)">
<circle cx="227.386" cy="156.209" r="8" fill="#9D42FF"/>
<circle cx="227.386" cy="156.209" r="7" stroke="white" stroke-width="2"/>
</g>
<g filter="url(#filter3_d_2460_7982)">
<circle cx="249.386" cy="330.209" r="8" fill="#4268FF"/>
<circle cx="249.386" cy="330.209" r="7" stroke="white" stroke-width="2"/>
</g>
<g filter="url(#filter4_d_2460_7982)">
<rect x="232.886" y="293.209" width="38.6341" height="28.4878" rx="14.2439" fill="#0C1021" shape-rendering="crispEdges"/>
<rect x="233.239" y="293.562" width="37.9268" height="27.7805" rx="13.8902" stroke="#0C1021" stroke-opacity="0.1" stroke-width="0.707317" shape-rendering="crispEdges"/>
<path d="M249.202 301.57H250.679L255.008 313.453H253.743L252.818 310.906H247.072L246.146 313.453H244.882L249.202 301.57ZM247.504 309.718H252.376L249.94 303.029L247.504 309.718ZM256.848 313.453V301.57H258.036V313.453H256.848Z" fill="white"/>
</g>
</g>
<path d="M421.386 391.709V390.709H42.3857V391.709V392.709H421.386V391.709Z" fill="#002852" fill-opacity="0.05" mask="url(#path-5-inside-1_2460_7982)"/>
</g>
<defs>
<filter id="filter0_d_2460_7982" x="-3.05176e-05" y="0" width="463.772" height="437.772" filterUnits="userSpaceOnUse" color-interpolation-filters="sRGB">
<feFlood flood-opacity="0" result="BackgroundImageFix"/>
<feColorMatrix in="SourceAlpha" type="matrix" values="0 0 0 0 0 0 0 0 0 0 0 0 0 0 0 0 0 0 127 0" result="hardAlpha"/>
<feOffset dy="3.67715"/>
<feGaussianBlur stdDeviation="9.19289"/>
<feComposite in2="hardAlpha" operator="out"/>
<feColorMatrix type="matrix" values="0 0 0 0 0.0468057 0 0 0 0 0.0634939 0 0 0 0 0.129808 0 0 0 0.1 0"/>
<feBlend mode="normal" in2="BackgroundImageFix" result="effect1_dropShadow_2460_7982"/>
<feBlend mode="normal" in="SourceGraphic" in2="effect1_dropShadow_2460_7982" result="shape"/>
</filter>
<filter id="filter1_d_2460_7982" x="157.556" y="121.209" width="137.293" height="34.1463" filterUnits="userSpaceOnUse" color-interpolation-filters="sRGB">
<feFlood flood-opacity="0" result="BackgroundImageFix"/>
<feColorMatrix in="SourceAlpha" type="matrix" values="0 0 0 0 0 0 0 0 0 0 0 0 0 0 0 0 0 0 127 0" result="hardAlpha"/>
<feOffset dy="2.82927"/>
<feGaussianBlur stdDeviation="1.41463"/>
<feComposite in2="hardAlpha" operator="out"/>
<feColorMatrix type="matrix" values="0 0 0 0 0.259615 0 0 0 0 0.407692 0 0 0 0 1 0 0 0 0.15 0"/>
<feBlend mode="normal" in2="BackgroundImageFix" result="effect1_dropShadow_2460_7982"/>
<feBlend mode="normal" in="SourceGraphic" in2="effect1_dropShadow_2460_7982" result="shape"/>
</filter>
<filter id="filter2_d_2460_7982" x="215.386" y="148.209" width="24" height="24" filterUnits="userSpaceOnUse" color-interpolation-filters="sRGB">
<feFlood flood-opacity="0" result="BackgroundImageFix"/>
<feColorMatrix in="SourceAlpha" type="matrix" values="0 0 0 0 0 0 0 0 0 0 0 0 0 0 0 0 0 0 127 0" result="hardAlpha"/>
<feOffset dy="4"/>
<feGaussianBlur stdDeviation="2"/>
<feComposite in2="hardAlpha" operator="out"/>
<feColorMatrix type="matrix" values="0 0 0 0 0.615686 0 0 0 0 0.258824 0 0 0 0 1 0 0 0 0.25 0"/>
<feBlend mode="normal" in2="BackgroundImageFix" result="effect1_dropShadow_2460_7982"/>
<feBlend mode="normal" in="SourceGraphic" in2="effect1_dropShadow_2460_7982" result="shape"/>
</filter>
<filter id="filter3_d_2460_7982" x="237.386" y="322.209" width="24" height="24" filterUnits="userSpaceOnUse" color-interpolation-filters="sRGB">
<feFlood flood-opacity="0" result="BackgroundImageFix"/>
<feColorMatrix in="SourceAlpha" type="matrix" values="0 0 0 0 0 0 0 0 0 0 0 0 0 0 0 0 0 0 127 0" result="hardAlpha"/>
<feOffset dy="4"/>
<feGaussianBlur stdDeviation="2"/>
<feComposite in2="hardAlpha" operator="out"/>
<feColorMatrix type="matrix" values="0 0 0 0 0.259615 0 0 0 0 0.407692 0 0 0 0 1 0 0 0 0.25 0"/>
<feBlend mode="normal" in2="BackgroundImageFix" result="effect1_dropShadow_2460_7982"/>
<feBlend mode="normal" in="SourceGraphic" in2="effect1_dropShadow_2460_7982" result="shape"/>
</filter>
<filter id="filter4_d_2460_7982" x="230.056" y="293.209" width="44.2928" height="34.1463" filterUnits="userSpaceOnUse" color-interpolation-filters="sRGB">
<feFlood flood-opacity="0" result="BackgroundImageFix"/>
<feColorMatrix in="SourceAlpha" type="matrix" values="0 0 0 0 0 0 0 0 0 0 0 0 0 0 0 0 0 0 127 0" result="hardAlpha"/>
<feOffset dy="2.82927"/>
<feGaussianBlur stdDeviation="1.41463"/>
<feComposite in2="hardAlpha" operator="out"/>
<feColorMatrix type="matrix" values="0 0 0 0 0.259615 0 0 0 0 0.407692 0 0 0 0 1 0 0 0 0.15 0"/>
<feBlend mode="normal" in2="BackgroundImageFix" result="effect1_dropShadow_2460_7982"/>
<feBlend mode="normal" in="SourceGraphic" in2="effect1_dropShadow_2460_7982" result="shape"/>
</filter>
<linearGradient id="paint0_linear_2460_7982" x1="227.386" y1="156.209" x2="227.386" y2="391.209" gradientUnits="userSpaceOnUse">
<stop stop-color="#9D42FF"/>
<stop offset="0.57504" stop-color="#9D42FF" stop-opacity="0"/>
</linearGradient>
<linearGradient id="paint1_linear_2460_7982" x1="249.386" y1="331.209" x2="249.386" y2="391.209" gradientUnits="userSpaceOnUse">
<stop stop-color="#4268FF"/>
<stop offset="1" stop-color="#4268FF" stop-opacity="0"/>
</linearGradient>
<clipPath id="clip0_2460_7982">
<path d="M42.3857 114.709H421.386V391.709H42.3857V114.709Z" fill="white"/>
</clipPath>
</defs>
</svg>
