<svg width="464" height="464" viewBox="0 0 464 464" fill="none" xmlns="http://www.w3.org/2000/svg">
<g filter="url(#filter0_d_2453_2623)">
<rect x="18.3857" y="14.7085" width="427" height="427" rx="22.0629" fill="white" shape-rendering="crispEdges"/>
<rect x="18.8454" y="15.1681" width="426.081" height="426.081" rx="21.6033" stroke="#0C1021" stroke-opacity="0.05" stroke-width="0.919289" shape-rendering="crispEdges"/>
<path d="M108.346 61.7085V59.2125L118.57 47.4045H108.346V44.9085H121.93V47.4045L111.706 59.2125H121.93V61.7085H108.346ZM129.059 62.0205C127.955 62.0205 126.947 61.7365 126.035 61.1685C125.131 60.6005 124.407 59.8405 123.863 58.8885C123.327 57.9285 123.059 56.8685 123.059 55.7085C123.059 54.8285 123.215 54.0085 123.527 53.2485C123.839 52.4805 124.267 51.8085 124.811 51.2325C125.363 50.6485 126.003 50.1925 126.731 49.8645C127.459 49.5365 128.235 49.3725 129.059 49.3725C129.979 49.3725 130.823 49.5645 131.591 49.9485C132.359 50.3245 133.015 50.8485 133.559 51.5205C134.103 52.1845 134.503 52.9525 134.759 53.8245C135.015 54.6885 135.091 55.6085 134.987 56.5845H125.735C125.839 57.1365 126.039 57.6365 126.335 58.0845C126.639 58.5245 127.023 58.8725 127.487 59.1285C127.959 59.3845 128.483 59.5165 129.059 59.5245C129.667 59.5245 130.219 59.3725 130.715 59.0685C131.219 58.7645 131.631 58.3445 131.951 57.8085L134.483 58.3965C134.003 59.4605 133.279 60.3325 132.311 61.0125C131.343 61.6845 130.259 62.0205 129.059 62.0205ZM125.651 54.6765H132.467C132.387 54.1005 132.183 53.5805 131.855 53.1165C131.535 52.6445 131.131 52.2725 130.643 52.0005C130.163 51.7205 129.635 51.5805 129.059 51.5805C128.491 51.5805 127.963 51.7165 127.475 51.9885C126.995 52.2605 126.595 52.6325 126.275 53.1045C125.963 53.5685 125.755 54.0925 125.651 54.6765ZM136.974 61.7085V49.7085H139.47V50.9805C139.886 50.4845 140.398 50.0925 141.006 49.8045C141.614 49.5165 142.27 49.3725 142.974 49.3725C143.422 49.3725 143.866 49.4325 144.306 49.5525L143.31 52.0725C142.998 51.9525 142.686 51.8925 142.374 51.8925C141.846 51.8925 141.362 52.0245 140.922 52.2885C140.482 52.5445 140.13 52.8925 139.866 53.3325C139.602 53.7725 139.47 54.2605 139.47 54.7965V61.7085H136.974ZM150.41 62.0205C149.306 62.0205 148.298 61.7365 147.386 61.1685C146.482 60.6005 145.758 59.8405 145.214 58.8885C144.678 57.9285 144.41 56.8685 144.41 55.7085C144.41 54.8285 144.566 54.0085 144.878 53.2485C145.19 52.4805 145.618 51.8085 146.162 51.2325C146.714 50.6485 147.354 50.1925 148.082 49.8645C148.81 49.5365 149.586 49.3725 150.41 49.3725C151.514 49.3725 152.518 49.6565 153.422 50.2245C154.334 50.7925 155.058 51.5565 155.594 52.5165C156.138 53.4765 156.41 54.5405 156.41 55.7085C156.41 56.5805 156.254 57.3965 155.942 58.1565C155.63 58.9165 155.198 59.5885 154.646 60.1725C154.102 60.7485 153.466 61.2005 152.738 61.5285C152.018 61.8565 151.242 62.0205 150.41 62.0205ZM150.41 59.5245C151.074 59.5245 151.67 59.3485 152.198 58.9965C152.726 58.6445 153.142 58.1805 153.446 57.6045C153.758 57.0205 153.914 56.3885 153.914 55.7085C153.914 55.0125 153.754 54.3725 153.434 53.7885C153.122 53.2045 152.702 52.7405 152.174 52.3965C151.646 52.0445 151.058 51.8685 150.41 51.8685C149.754 51.8685 149.158 52.0445 148.622 52.3965C148.094 52.7485 147.674 53.2165 147.362 53.8005C147.058 54.3845 146.906 55.0205 146.906 55.7085C146.906 56.4205 147.066 57.0645 147.386 57.6405C147.706 58.2165 148.13 58.6765 148.658 59.0205C149.194 59.3565 149.778 59.5245 150.41 59.5245ZM175.126 54.1845V61.7085H172.63V54.7965C172.63 54.2605 172.498 53.7725 172.234 53.3325C171.978 52.8925 171.63 52.5445 171.19 52.2885C170.758 52.0245 170.27 51.8925 169.726 51.8925C169.198 51.8925 168.714 52.0245 168.274 52.2885C167.834 52.5445 167.482 52.8925 167.218 53.3325C166.954 53.7725 166.822 54.2605 166.822 54.7965V61.7085H164.326V43.7085H166.822V50.9805C167.238 50.4845 167.75 50.0925 168.358 49.8045C168.966 49.5165 169.622 49.3725 170.326 49.3725C171.214 49.3725 172.022 49.5885 172.75 50.0205C173.478 50.4525 174.054 51.0325 174.478 51.7605C174.91 52.4885 175.126 53.2965 175.126 54.1845ZM182.567 62.0205C181.463 62.0205 180.455 61.7365 179.543 61.1685C178.639 60.6005 177.915 59.8405 177.371 58.8885C176.835 57.9285 176.567 56.8685 176.567 55.7085C176.567 54.8285 176.723 54.0085 177.035 53.2485C177.347 52.4805 177.775 51.8085 178.319 51.2325C178.871 50.6485 179.511 50.1925 180.239 49.8645C180.967 49.5365 181.743 49.3725 182.567 49.3725C183.671 49.3725 184.675 49.6565 185.579 50.2245C186.491 50.7925 187.215 51.5565 187.751 52.5165C188.295 53.4765 188.567 54.5405 188.567 55.7085C188.567 56.5805 188.411 57.3965 188.099 58.1565C187.787 58.9165 187.355 59.5885 186.803 60.1725C186.259 60.7485 185.623 61.2005 184.895 61.5285C184.175 61.8565 183.399 62.0205 182.567 62.0205ZM182.567 59.5245C183.231 59.5245 183.827 59.3485 184.355 58.9965C184.883 58.6445 185.299 58.1805 185.603 57.6045C185.915 57.0205 186.071 56.3885 186.071 55.7085C186.071 55.0125 185.911 54.3725 185.591 53.7885C185.279 53.2045 184.859 52.7405 184.331 52.3965C183.803 52.0445 183.215 51.8685 182.567 51.8685C181.911 51.8685 181.315 52.0445 180.779 52.3965C180.251 52.7485 179.831 53.2165 179.519 53.8005C179.215 54.3845 179.063 55.0205 179.063 55.7085C179.063 56.4205 179.223 57.0645 179.543 57.6405C179.863 58.2165 180.287 58.6765 180.815 59.0205C181.351 59.3565 181.935 59.5245 182.567 59.5245ZM190.341 61.7085V43.7085H192.837V61.7085H190.341ZM204.892 43.7085H207.388V61.7085H204.892V59.9445C204.5 60.5685 203.988 61.0725 203.356 61.4565C202.724 61.8325 201.984 62.0205 201.136 62.0205C200.264 62.0205 199.448 61.8565 198.688 61.5285C197.928 61.2005 197.256 60.7485 196.672 60.1725C196.096 59.5885 195.644 58.9165 195.316 58.1565C194.988 57.3965 194.824 56.5805 194.824 55.7085C194.824 54.8365 194.988 54.0205 195.316 53.2605C195.644 52.4925 196.096 51.8205 196.672 51.2445C197.256 50.6605 197.928 50.2045 198.688 49.8765C199.448 49.5485 200.264 49.3845 201.136 49.3845C201.984 49.3845 202.724 49.5765 203.356 49.9605C203.988 50.3365 204.5 50.8325 204.892 51.4485V43.7085ZM201.16 59.6085C201.864 59.6085 202.48 59.4365 203.008 59.0925C203.536 58.7405 203.944 58.2685 204.232 57.6765C204.528 57.0845 204.676 56.4285 204.676 55.7085C204.676 54.9805 204.528 54.3205 204.232 53.7285C203.936 53.1365 203.524 52.6685 202.996 52.3245C202.476 51.9725 201.864 51.7965 201.16 51.7965C200.464 51.7965 199.828 51.9725 199.252 52.3245C198.684 52.6765 198.228 53.1485 197.884 53.7405C197.548 54.3325 197.38 54.9885 197.38 55.7085C197.38 56.4365 197.552 57.0965 197.896 57.6885C198.248 58.2725 198.708 58.7405 199.276 59.0925C199.852 59.4365 200.48 59.6085 201.16 59.6085ZM222.365 52.2045H219.845L219.833 61.7085H217.337L217.349 52.2045H215.441V49.7085H217.349L217.337 45.9405H219.833L219.845 49.7085H222.365V52.2045ZM224.349 49.7085H226.845V61.7085H224.349V49.7085ZM225.621 47.9685C225.237 47.9685 224.917 47.8445 224.661 47.5965C224.405 47.3485 224.277 47.0365 224.277 46.6605C224.277 46.2925 224.405 45.9845 224.661 45.7365C224.917 45.4805 225.233 45.3525 225.609 45.3525C225.977 45.3525 226.289 45.4805 226.545 45.7365C226.801 45.9845 226.929 46.2925 226.929 46.6605C226.929 47.0365 226.801 47.3485 226.545 47.5965C226.297 47.8445 225.989 47.9685 225.621 47.9685ZM229.646 61.7085V49.7085H232.142V50.9805C232.558 50.4845 233.066 50.0925 233.666 49.8045C234.274 49.5165 234.93 49.3725 235.634 49.3725C236.49 49.3725 237.278 49.5805 237.998 49.9965C238.718 50.4045 239.29 50.9485 239.714 51.6285C240.138 50.9485 240.702 50.4045 241.406 49.9965C242.118 49.5805 242.902 49.3725 243.758 49.3725C244.646 49.3725 245.454 49.5885 246.182 50.0205C246.91 50.4525 247.49 51.0325 247.922 51.7605C248.354 52.4885 248.57 53.2965 248.57 54.1845V61.7085H246.074V54.8205C246.074 54.2925 245.946 53.8085 245.69 53.3685C245.434 52.9285 245.09 52.5725 244.658 52.3005C244.226 52.0285 243.746 51.8925 243.218 51.8925C242.69 51.8925 242.21 52.0205 241.778 52.2765C241.346 52.5325 241.002 52.8805 240.746 53.3205C240.49 53.7605 240.362 54.2605 240.362 54.8205V61.7085H237.866V54.8205C237.866 54.2605 237.738 53.7605 237.482 53.3205C237.226 52.8805 236.878 52.5325 236.438 52.2765C236.006 52.0205 235.526 51.8925 234.998 51.8925C234.478 51.8925 233.998 52.0285 233.558 52.3005C233.126 52.5725 232.782 52.9285 232.526 53.3685C232.27 53.8085 232.142 54.2925 232.142 54.8205V61.7085H229.646ZM256.02 62.0205C254.916 62.0205 253.908 61.7365 252.996 61.1685C252.092 60.6005 251.368 59.8405 250.824 58.8885C250.288 57.9285 250.02 56.8685 250.02 55.7085C250.02 54.8285 250.176 54.0085 250.488 53.2485C250.8 52.4805 251.228 51.8085 251.772 51.2325C252.324 50.6485 252.964 50.1925 253.692 49.8645C254.42 49.5365 255.196 49.3725 256.02 49.3725C256.94 49.3725 257.784 49.5645 258.552 49.9485C259.32 50.3245 259.976 50.8485 260.52 51.5205C261.064 52.1845 261.464 52.9525 261.72 53.8245C261.976 54.6885 262.052 55.6085 261.948 56.5845H252.696C252.8 57.1365 253 57.6365 253.296 58.0845C253.6 58.5245 253.984 58.8725 254.448 59.1285C254.92 59.3845 255.444 59.5165 256.02 59.5245C256.628 59.5245 257.18 59.3725 257.676 59.0685C258.18 58.7645 258.592 58.3445 258.912 57.8085L261.444 58.3965C260.964 59.4605 260.24 60.3325 259.272 61.0125C258.304 61.6845 257.22 62.0205 256.02 62.0205ZM252.612 54.6765H259.428C259.348 54.1005 259.144 53.5805 258.816 53.1165C258.496 52.6445 258.092 52.2725 257.604 52.0005C257.124 51.7205 256.596 51.5805 256.02 51.5805C255.452 51.5805 254.924 51.7165 254.436 51.9885C253.956 52.2605 253.556 52.6325 253.236 53.1045C252.924 53.5685 252.716 54.0925 252.612 54.6765ZM275.192 62.0205C274.088 62.0205 273.08 61.7365 272.168 61.1685C271.264 60.6005 270.54 59.8405 269.996 58.8885C269.46 57.9285 269.192 56.8685 269.192 55.7085C269.192 54.8285 269.348 54.0085 269.66 53.2485C269.972 52.4805 270.4 51.8085 270.944 51.2325C271.496 50.6485 272.136 50.1925 272.864 49.8645C273.592 49.5365 274.368 49.3725 275.192 49.3725C276.112 49.3725 276.956 49.5645 277.724 49.9485C278.492 50.3245 279.148 50.8485 279.692 51.5205C280.236 52.1845 280.636 52.9525 280.892 53.8245C281.148 54.6885 281.224 55.6085 281.12 56.5845H271.868C271.972 57.1365 272.172 57.6365 272.468 58.0845C272.772 58.5245 273.156 58.8725 273.62 59.1285C274.092 59.3845 274.616 59.5165 275.192 59.5245C275.8 59.5245 276.352 59.3725 276.848 59.0685C277.352 58.7645 277.764 58.3445 278.084 57.8085L280.616 58.3965C280.136 59.4605 279.412 60.3325 278.444 61.0125C277.476 61.6845 276.392 62.0205 275.192 62.0205ZM271.784 54.6765H278.6C278.52 54.1005 278.316 53.5805 277.988 53.1165C277.668 52.6445 277.264 52.2725 276.776 52.0005C276.296 51.7205 275.768 51.5805 275.192 51.5805C274.624 51.5805 274.096 51.7165 273.608 51.9885C273.128 52.2605 272.728 52.6325 272.408 53.1045C272.096 53.5685 271.888 54.0925 271.784 54.6765ZM293.907 54.1845V61.7085H291.411V54.7965C291.411 54.2605 291.279 53.7725 291.015 53.3325C290.759 52.8925 290.411 52.5445 289.971 52.2885C289.539 52.0245 289.051 51.8925 288.507 51.8925C287.979 51.8925 287.495 52.0245 287.055 52.2885C286.615 52.5445 286.263 52.8925 285.999 53.3325C285.735 53.7725 285.603 54.2605 285.603 54.7965V61.7085H283.107V49.7085H285.603V50.9805C286.019 50.4845 286.531 50.0925 287.139 49.8045C287.747 49.5165 288.403 49.3725 289.107 49.3725C289.995 49.3725 290.803 49.5885 291.531 50.0205C292.259 50.4525 292.835 51.0325 293.259 51.7605C293.691 52.4885 293.907 53.2965 293.907 54.1845ZM305.404 49.7085H307.9V61.7085H305.392L305.296 59.9685C304.944 60.5845 304.468 61.0805 303.868 61.4565C303.268 61.8325 302.56 62.0205 301.744 62.0205C300.864 62.0205 300.036 61.8565 299.26 61.5285C298.484 61.1925 297.8 60.7285 297.208 60.1365C296.624 59.5445 296.168 58.8645 295.84 58.0965C295.512 57.3205 295.348 56.4885 295.348 55.6005C295.348 54.7445 295.508 53.9405 295.828 53.1885C296.148 52.4285 296.592 51.7645 297.16 51.1965C297.728 50.6285 298.384 50.1845 299.128 49.8645C299.88 49.5365 300.684 49.3725 301.54 49.3725C302.412 49.3725 303.18 49.5725 303.844 49.9725C304.516 50.3645 305.072 50.8685 305.512 51.4845L305.404 49.7085ZM301.684 59.6085C302.388 59.6085 303.004 59.4365 303.532 59.0925C304.06 58.7405 304.468 58.2685 304.756 57.6765C305.052 57.0845 305.2 56.4285 305.2 55.7085C305.2 54.9805 305.052 54.3205 304.756 53.7285C304.46 53.1365 304.048 52.6685 303.52 52.3245C303 51.9725 302.388 51.7965 301.684 51.7965C300.988 51.7965 300.352 51.9725 299.776 52.3245C299.2 52.6765 298.744 53.1485 298.408 53.7405C298.072 54.3325 297.904 54.9885 297.904 55.7085C297.904 56.4365 298.076 57.0965 298.42 57.6885C298.772 58.2725 299.232 58.7405 299.8 59.0925C300.376 59.4365 301.004 59.6085 301.684 59.6085ZM316.628 49.3725C317.796 49.3725 318.856 49.6565 319.808 50.2245C320.768 50.7925 321.532 51.5565 322.1 52.5165C322.668 53.4685 322.952 54.5285 322.952 55.6965C322.952 56.5685 322.788 57.3885 322.46 58.1565C322.132 58.9165 321.676 59.5885 321.092 60.1725C320.516 60.7485 319.844 61.2005 319.076 61.5285C318.316 61.8565 317.5 62.0205 316.628 62.0205C315.788 62.0205 315.052 61.8285 314.42 61.4445C313.796 61.0525 313.284 60.5525 312.884 59.9445V61.7085H310.388V43.7085H312.884V51.4485C313.284 50.8325 313.796 50.3325 314.42 49.9485C315.052 49.5645 315.788 49.3725 316.628 49.3725ZM316.604 59.5965C317.3 59.5965 317.936 59.4205 318.512 59.0685C319.088 58.7165 319.544 58.2445 319.88 57.6525C320.224 57.0605 320.396 56.4085 320.396 55.6965C320.396 54.9685 320.224 54.3085 319.88 53.7165C319.536 53.1245 319.076 52.6565 318.5 52.3125C317.924 51.9605 317.292 51.7845 316.604 51.7845C315.908 51.7845 315.296 51.9605 314.768 52.3125C314.24 52.6645 313.828 53.1365 313.532 53.7285C313.236 54.3205 313.088 54.9765 313.088 55.6965C313.088 56.4165 313.236 57.0725 313.532 57.6645C313.828 58.2565 314.24 58.7285 314.768 59.0805C315.296 59.4245 315.908 59.5965 316.604 59.5965ZM324.732 61.7085V43.7085H327.228V61.7085H324.732ZM335.215 62.0205C334.111 62.0205 333.103 61.7365 332.191 61.1685C331.287 60.6005 330.563 59.8405 330.019 58.8885C329.483 57.9285 329.215 56.8685 329.215 55.7085C329.215 54.8285 329.371 54.0085 329.683 53.2485C329.995 52.4805 330.423 51.8085 330.967 51.2325C331.519 50.6485 332.159 50.1925 332.887 49.8645C333.615 49.5365 334.391 49.3725 335.215 49.3725C336.135 49.3725 336.979 49.5645 337.747 49.9485C338.515 50.3245 339.171 50.8485 339.715 51.5205C340.259 52.1845 340.659 52.9525 340.915 53.8245C341.171 54.6885 341.247 55.6085 341.143 56.5845H331.891C331.995 57.1365 332.195 57.6365 332.491 58.0845C332.795 58.5245 333.179 58.8725 333.643 59.1285C334.115 59.3845 334.639 59.5165 335.215 59.5245C335.823 59.5245 336.375 59.3725 336.871 59.0685C337.375 58.7645 337.787 58.3445 338.107 57.8085L340.639 58.3965C340.159 59.4605 339.435 60.3325 338.467 61.0125C337.499 61.6845 336.415 62.0205 335.215 62.0205ZM331.807 54.6765H338.623C338.543 54.1005 338.339 53.5805 338.011 53.1165C337.691 52.6445 337.287 52.2725 336.799 52.0005C336.319 51.7205 335.791 51.5805 335.215 51.5805C334.647 51.5805 334.119 51.7165 333.631 51.9885C333.151 52.2605 332.751 52.6325 332.431 53.1045C332.119 53.5685 331.911 54.0925 331.807 54.6765ZM352.455 43.7085H354.951V61.7085H352.455V59.9445C352.063 60.5685 351.551 61.0725 350.919 61.4565C350.287 61.8325 349.547 62.0205 348.699 62.0205C347.827 62.0205 347.011 61.8565 346.251 61.5285C345.491 61.2005 344.819 60.7485 344.235 60.1725C343.659 59.5885 343.207 58.9165 342.879 58.1565C342.551 57.3965 342.387 56.5805 342.387 55.7085C342.387 54.8365 342.551 54.0205 342.879 53.2605C343.207 52.4925 343.659 51.8205 344.235 51.2445C344.819 50.6605 345.491 50.2045 346.251 49.8765C347.011 49.5485 347.827 49.3845 348.699 49.3845C349.547 49.3845 350.287 49.5765 350.919 49.9605C351.551 50.3365 352.063 50.8325 352.455 51.4485V43.7085ZM348.723 59.6085C349.427 59.6085 350.043 59.4365 350.571 59.0925C351.099 58.7405 351.507 58.2685 351.795 57.6765C352.091 57.0845 352.239 56.4285 352.239 55.7085C352.239 54.9805 352.091 54.3205 351.795 53.7285C351.499 53.1365 351.087 52.6685 350.559 52.3245C350.039 51.9725 349.427 51.7965 348.723 51.7965C348.027 51.7965 347.391 51.9725 346.815 52.3245C346.247 52.6765 345.791 53.1485 345.447 53.7405C345.111 54.3325 344.943 54.9885 344.943 55.7085C344.943 56.4365 345.115 57.0965 345.459 57.6885C345.811 58.2725 346.271 58.7405 346.839 59.0925C347.415 59.4365 348.043 59.6085 348.723 59.6085Z" fill="#0C1021"/>
<path d="M237.653 121.37C237.653 118.559 239.933 116.27 242.743 116.373C267.714 117.286 292.014 124.902 313.074 138.467C334.134 152.031 351.119 171.005 362.278 193.363C363.534 195.878 362.393 198.901 359.833 200.064L313.304 221.2C310.744 222.363 307.742 221.221 306.414 218.743C300.172 207.086 291.053 197.181 279.889 189.99C268.725 182.8 255.936 178.594 242.74 177.732C239.935 177.548 237.653 175.287 237.653 172.475V121.37Z" fill="#4268FF" fill-opacity="0.5" stroke="white" stroke-width="3.71429" stroke-linejoin="round"/>
<path d="M365.081 226.715C367.878 226.422 370.392 228.451 370.582 231.256C372.363 257.432 366.715 283.618 354.237 306.777C340.954 331.431 320.547 351.508 295.679 364.388C270.812 377.268 242.64 382.354 214.839 378.98C187.038 375.606 160.9 363.931 139.835 345.477C118.77 327.023 103.757 302.648 96.7555 275.532C89.7538 248.417 91.0885 219.82 100.585 193.475C110.082 167.129 127.3 144.259 149.992 127.847C171.307 112.431 196.523 103.387 222.706 101.708C225.511 101.528 227.853 103.754 227.931 106.564L229.335 157.649C229.412 160.46 227.193 162.783 224.394 163.044C210.534 164.333 197.237 169.312 185.907 177.506C173.2 186.697 163.558 199.504 158.24 214.258C152.921 229.011 152.174 245.025 156.095 260.21C160.016 275.395 168.423 289.045 180.219 299.379C192.016 309.713 206.653 316.251 222.222 318.141C237.79 320.03 253.567 317.182 267.492 309.969C281.418 302.756 292.846 291.513 300.285 277.707C306.917 265.398 310.104 251.561 309.558 237.652C309.448 234.843 311.459 232.338 314.255 232.044L365.081 226.715Z" fill="#4268FF" stroke="white" stroke-width="3.71429" stroke-linejoin="round"/>
<g filter="url(#filter1_d_2453_2623)">
<rect x="60.3857" y="307.708" width="95" height="72" rx="24" fill="#0C1021" shape-rendering="crispEdges"/>
<rect x="60.8857" y="308.208" width="94" height="71" rx="23.5" stroke="#0C1021" stroke-opacity="0.1" shape-rendering="crispEdges"/>
<path d="M89.0231 342.708L97.7351 327.588H87.8111V325.908H99.6791V327.588L90.9431 342.708H89.0231ZM106.535 343.02C105.479 343.02 104.511 342.76 103.631 342.24C102.759 341.712 102.059 341.008 101.531 340.128C101.011 339.248 100.751 338.276 100.751 337.212C100.751 336.596 100.823 336.072 100.967 335.64C101.111 335.2 101.323 334.712 101.603 334.176L106.367 325.908H108.323L104.831 331.956C105.535 331.684 106.243 331.564 106.955 331.596C107.667 331.62 108.347 331.776 108.995 332.064C109.643 332.352 110.219 332.748 110.723 333.252C111.227 333.748 111.623 334.332 111.911 335.004C112.207 335.676 112.355 336.412 112.355 337.212C112.355 338.012 112.203 338.764 111.899 339.468C111.595 340.164 111.175 340.78 110.639 341.316C110.111 341.844 109.495 342.26 108.791 342.564C108.087 342.868 107.335 343.02 106.535 343.02ZM106.535 341.34C107.335 341.34 108.047 341.148 108.671 340.764C109.295 340.372 109.783 339.86 110.135 339.228C110.495 338.596 110.675 337.92 110.675 337.2C110.675 336.448 110.491 335.764 110.123 335.148C109.755 334.524 109.259 334.028 108.635 333.66C108.011 333.284 107.319 333.096 106.559 333.096C105.775 333.096 105.071 333.288 104.447 333.672C103.823 334.056 103.331 334.56 102.971 335.184C102.611 335.8 102.431 336.472 102.431 337.2C102.431 337.984 102.619 338.688 102.995 339.312C103.379 339.936 103.883 340.432 104.507 340.8C105.131 341.16 105.807 341.34 106.535 341.34ZM114.925 342.708L124.621 325.908H126.565L116.869 342.708H114.925ZM116.893 332.472C116.365 332.472 115.885 332.344 115.453 332.088C115.021 331.832 114.673 331.488 114.409 331.056C114.153 330.616 114.025 330.132 114.025 329.604C114.025 329.06 114.153 328.572 114.409 328.14C114.673 327.708 115.021 327.364 115.453 327.108C115.893 326.852 116.373 326.724 116.893 326.724C117.421 326.724 117.901 326.856 118.333 327.12C118.765 327.376 119.109 327.72 119.365 328.152C119.629 328.584 119.761 329.068 119.761 329.604C119.761 330.14 119.629 330.624 119.365 331.056C119.109 331.488 118.761 331.832 118.321 332.088C117.889 332.344 117.413 332.472 116.893 332.472ZM116.893 331.188C117.341 331.188 117.717 331.036 118.021 330.732C118.325 330.42 118.477 330.044 118.477 329.604C118.477 329.156 118.325 328.78 118.021 328.476C117.717 328.164 117.341 328.008 116.893 328.008C116.453 328.008 116.077 328.164 115.765 328.476C115.461 328.78 115.309 329.156 115.309 329.604C115.309 330.044 115.461 330.42 115.765 330.732C116.077 331.036 116.453 331.188 116.893 331.188ZM124.621 341.904C124.093 341.904 123.609 341.772 123.169 341.508C122.737 341.236 122.389 340.884 122.125 340.452C121.869 340.012 121.741 339.536 121.741 339.024C121.741 338.488 121.873 338.004 122.137 337.572C122.401 337.132 122.749 336.784 123.181 336.528C123.621 336.272 124.101 336.144 124.621 336.144C125.157 336.144 125.641 336.276 126.073 336.54C126.505 336.804 126.849 337.156 127.105 337.596C127.361 338.028 127.489 338.504 127.489 339.024C127.489 339.552 127.361 340.036 127.105 340.476C126.849 340.908 126.501 341.256 126.061 341.52C125.629 341.776 125.149 341.904 124.621 341.904ZM124.621 340.62C125.053 340.62 125.425 340.464 125.737 340.152C126.049 339.84 126.205 339.464 126.205 339.024C126.205 338.584 126.049 338.208 125.737 337.896C125.425 337.584 125.053 337.428 124.621 337.428C124.181 337.428 123.801 337.584 123.481 337.896C123.169 338.208 123.013 338.584 123.013 339.024C123.013 339.464 123.169 339.84 123.481 340.152C123.801 340.464 124.181 340.62 124.621 340.62Z" fill="white"/>
<path d="M77.3457 363.708V352.508H81.1457C81.7431 352.508 82.2817 352.655 82.7617 352.948C83.2417 353.236 83.6231 353.628 83.9057 354.124C84.1884 354.615 84.3297 355.167 84.3297 355.78C84.3297 356.33 84.2177 356.828 83.9937 357.276C83.7697 357.724 83.4631 358.095 83.0737 358.388C82.6897 358.682 82.2551 358.876 81.7697 358.972L84.5057 363.708H83.2097L80.5137 359.06H78.4657V363.708H77.3457ZM78.4657 357.94H81.0497C81.4444 357.94 81.8044 357.844 82.1297 357.652C82.4604 357.455 82.7217 357.191 82.9137 356.86C83.1111 356.524 83.2097 356.146 83.2097 355.724C83.2097 355.303 83.1111 354.927 82.9137 354.596C82.7217 354.26 82.4604 353.996 82.1297 353.804C81.8044 353.607 81.4444 353.508 81.0497 353.508H78.4657V357.94ZM89.4907 363.916C88.7547 363.916 88.0827 363.727 87.4747 363.348C86.8721 362.97 86.3894 362.463 86.0267 361.828C85.6694 361.188 85.4907 360.482 85.4907 359.708C85.4907 359.122 85.5947 358.575 85.8027 358.068C86.0107 357.556 86.2961 357.108 86.6587 356.724C87.0267 356.335 87.4534 356.031 87.9387 355.812C88.4241 355.594 88.9414 355.484 89.4907 355.484C90.0827 355.484 90.6267 355.602 91.1227 355.836C91.6241 356.071 92.0534 356.399 92.4107 356.82C92.7734 357.242 93.0454 357.735 93.2267 358.3C93.4134 358.866 93.4907 359.476 93.4587 360.132H86.6747C86.7387 360.639 86.8987 361.092 87.1547 361.492C87.4161 361.892 87.7467 362.21 88.1467 362.444C88.5521 362.674 89.0001 362.791 89.4907 362.796C90.0241 362.796 90.5041 362.658 90.9307 362.38C91.3627 362.103 91.7094 361.722 91.9707 361.236L93.1067 361.5C92.7867 362.21 92.3041 362.791 91.6587 363.244C91.0134 363.692 90.2907 363.916 89.4907 363.916ZM86.6427 359.228H92.3307C92.2934 358.732 92.1414 358.279 91.8747 357.868C91.6134 357.452 91.2747 357.122 90.8587 356.876C90.4427 356.626 89.9867 356.5 89.4907 356.5C88.9947 356.5 88.5414 356.623 88.1307 356.868C87.7201 357.108 87.3841 357.436 87.1227 357.852C86.8614 358.263 86.7014 358.722 86.6427 359.228ZM97.3177 363.86C96.8804 363.85 96.4537 363.77 96.0377 363.62C95.6217 363.471 95.2591 363.268 94.9497 363.012C94.6404 362.756 94.4191 362.466 94.2857 362.14L95.2537 361.724C95.3391 361.932 95.4964 362.124 95.7257 362.3C95.9604 362.471 96.2271 362.61 96.5257 362.716C96.8244 362.818 97.1204 362.868 97.4137 362.868C97.7391 362.868 98.0431 362.815 98.3257 362.708C98.6084 362.602 98.8377 362.45 99.0137 362.252C99.1951 362.05 99.2857 361.812 99.2857 361.54C99.2857 361.247 99.1897 361.018 98.9977 360.852C98.8057 360.682 98.5631 360.548 98.2697 360.452C97.9764 360.351 97.6751 360.255 97.3657 360.164C96.8004 360.01 96.3017 359.839 95.8697 359.652C95.4377 359.466 95.0991 359.228 94.8537 358.94C94.6137 358.647 94.4937 358.271 94.4937 357.812C94.4937 357.327 94.6297 356.908 94.9017 356.556C95.1791 356.199 95.5391 355.924 95.9817 355.732C96.4297 355.535 96.9071 355.436 97.4137 355.436C98.0644 355.436 98.6564 355.578 99.1897 355.86C99.7284 356.143 100.118 356.519 100.358 356.988L99.4537 357.524C99.3577 357.306 99.2057 357.116 98.9977 356.956C98.7897 356.796 98.5524 356.671 98.2857 356.58C98.0244 356.49 97.7577 356.442 97.4857 356.436C97.1444 356.431 96.8271 356.482 96.5337 356.588C96.2404 356.69 96.0031 356.842 95.8217 357.044C95.6457 357.247 95.5577 357.495 95.5577 357.788C95.5577 358.082 95.6457 358.306 95.8217 358.46C95.9977 358.61 96.2351 358.732 96.5337 358.828C96.8377 358.919 97.1791 359.026 97.5577 359.148C98.0431 359.303 98.4991 359.479 98.9257 359.676C99.3524 359.874 99.6964 360.119 99.9577 360.412C100.219 360.706 100.347 361.076 100.342 361.524C100.342 362.004 100.198 362.423 99.9097 362.78C99.6217 363.138 99.2484 363.412 98.7897 363.604C98.3311 363.791 97.8404 363.876 97.3177 363.86ZM105.178 363.916C104.442 363.916 103.77 363.727 103.162 363.348C102.56 362.97 102.077 362.463 101.714 361.828C101.357 361.188 101.178 360.482 101.178 359.708C101.178 359.122 101.282 358.575 101.49 358.068C101.698 357.556 101.984 357.108 102.346 356.724C102.714 356.335 103.141 356.031 103.626 355.812C104.112 355.594 104.629 355.484 105.178 355.484C105.914 355.484 106.584 355.674 107.186 356.052C107.794 356.431 108.277 356.94 108.634 357.58C108.997 358.22 109.178 358.93 109.178 359.708C109.178 360.29 109.074 360.834 108.866 361.34C108.658 361.847 108.37 362.295 108.002 362.684C107.64 363.068 107.216 363.37 106.73 363.588C106.25 363.807 105.733 363.916 105.178 363.916ZM105.178 362.796C105.722 362.796 106.21 362.655 106.642 362.372C107.08 362.084 107.424 361.706 107.674 361.236C107.93 360.767 108.058 360.258 108.058 359.708C108.058 359.148 107.93 358.634 107.674 358.164C107.418 357.69 107.072 357.311 106.634 357.028C106.202 356.746 105.717 356.604 105.178 356.604C104.634 356.604 104.144 356.748 103.706 357.036C103.274 357.319 102.93 357.695 102.674 358.164C102.424 358.634 102.298 359.148 102.298 359.708C102.298 360.284 102.429 360.807 102.69 361.276C102.952 361.74 103.301 362.111 103.738 362.388C104.176 362.66 104.656 362.796 105.178 362.796ZM110.471 363.708V351.708H111.591V363.708H110.471ZM117.303 363.708H115.879L112.959 355.684H114.151L116.591 362.396L119.031 355.684H120.223L117.303 363.708ZM124.756 363.916C124.02 363.916 123.348 363.727 122.74 363.348C122.138 362.97 121.655 362.463 121.292 361.828C120.935 361.188 120.756 360.482 120.756 359.708C120.756 359.122 120.86 358.575 121.068 358.068C121.276 357.556 121.562 357.108 121.924 356.724C122.292 356.335 122.719 356.031 123.204 355.812C123.69 355.594 124.207 355.484 124.756 355.484C125.348 355.484 125.892 355.602 126.388 355.836C126.89 356.071 127.319 356.399 127.676 356.82C128.039 357.242 128.311 357.735 128.492 358.3C128.679 358.866 128.756 359.476 128.724 360.132H121.94C122.004 360.639 122.164 361.092 122.42 361.492C122.682 361.892 123.012 362.21 123.412 362.444C123.818 362.674 124.266 362.791 124.756 362.796C125.29 362.796 125.77 362.658 126.196 362.38C126.628 362.103 126.975 361.722 127.236 361.236L128.372 361.5C128.052 362.21 127.57 362.791 126.924 363.244C126.279 363.692 125.556 363.916 124.756 363.916ZM121.908 359.228H127.596C127.559 358.732 127.407 358.279 127.14 357.868C126.879 357.452 126.54 357.122 126.124 356.876C125.708 356.626 125.252 356.5 124.756 356.5C124.26 356.5 123.807 356.623 123.396 356.868C122.986 357.108 122.65 357.436 122.388 357.852C122.127 358.263 121.967 358.722 121.908 359.228ZM136.602 351.708H137.722V363.708H136.602V362.212C136.324 362.724 135.943 363.138 135.458 363.452C134.978 363.762 134.407 363.916 133.746 363.916C133.164 363.916 132.62 363.807 132.114 363.588C131.607 363.37 131.159 363.068 130.77 362.684C130.386 362.295 130.084 361.847 129.866 361.34C129.647 360.834 129.538 360.29 129.538 359.708C129.538 359.127 129.647 358.583 129.866 358.076C130.084 357.564 130.386 357.116 130.77 356.732C131.159 356.343 131.607 356.039 132.114 355.82C132.62 355.602 133.164 355.492 133.746 355.492C134.407 355.492 134.978 355.65 135.458 355.964C135.943 356.274 136.324 356.682 136.602 357.188V351.708ZM133.754 362.828C134.324 362.828 134.815 362.69 135.226 362.412C135.636 362.13 135.951 361.751 136.17 361.276C136.394 360.802 136.506 360.279 136.506 359.708C136.506 359.122 136.394 358.594 136.17 358.124C135.946 357.65 135.628 357.274 135.218 356.996C134.807 356.719 134.319 356.58 133.754 356.58C133.188 356.58 132.674 356.722 132.21 357.004C131.746 357.282 131.375 357.658 131.098 358.132C130.82 358.607 130.682 359.132 130.682 359.708C130.682 360.29 130.823 360.818 131.106 361.292C131.388 361.762 131.762 362.135 132.226 362.412C132.695 362.69 133.204 362.828 133.754 362.828Z" fill="white" fill-opacity="0.8"/>
</g>
<g filter="url(#filter2_d_2453_2623)">
<rect x="295.386" y="107.708" width="75.7624" height="52.8218" rx="17.8218" fill="#0C1021" shape-rendering="crispEdges"/>
<rect x="295.757" y="108.08" width="75.0198" height="52.0792" rx="17.4505" stroke="#0C1021" stroke-opacity="0.1" stroke-width="0.742574" shape-rendering="crispEdges"/>
<path d="M318.821 133.619V132.514C319.308 132.063 319.843 131.57 320.425 131.035C321.007 130.495 321.583 129.939 322.154 129.369C322.73 128.793 323.256 128.225 323.731 127.667C324.206 127.103 324.586 126.571 324.871 126.072C325.163 125.567 325.308 125.121 325.308 124.735C325.308 124.266 325.192 123.838 324.961 123.452C324.735 123.06 324.429 122.748 324.043 122.516C323.663 122.279 323.238 122.16 322.769 122.16C322.299 122.16 321.869 122.279 321.476 122.516C321.09 122.748 320.781 123.06 320.55 123.452C320.318 123.838 320.202 124.266 320.202 124.735H318.955C318.955 124.022 319.127 123.378 319.471 122.802C319.822 122.225 320.285 121.768 320.862 121.429C321.438 121.085 322.073 120.912 322.769 120.912C323.464 120.912 324.096 121.085 324.667 121.429C325.243 121.774 325.7 122.234 326.039 122.81C326.383 123.387 326.556 124.028 326.556 124.735C326.556 125.157 326.443 125.62 326.217 126.125C325.997 126.624 325.697 127.144 325.317 127.685C324.937 128.219 324.509 128.76 324.034 129.307C323.559 129.853 323.063 130.388 322.546 130.91C322.029 131.427 321.527 131.914 321.04 132.372H326.743V133.619H318.821ZM333.375 133.619V130.117H327.993V128.852L333.054 121.144H334.623V128.87H335.933V130.117H334.623V133.619H333.375ZM329.472 128.852L333.375 128.87L333.348 122.926L329.472 128.852ZM338.39 133.619L345.59 121.144H347.034L339.834 133.619H338.39ZM339.852 126.018C339.459 126.018 339.103 125.923 338.782 125.733C338.461 125.543 338.203 125.288 338.007 124.967C337.817 124.64 337.722 124.281 337.722 123.889C337.722 123.485 337.817 123.122 338.007 122.802C338.203 122.481 338.461 122.225 338.782 122.035C339.109 121.845 339.465 121.75 339.852 121.75C340.244 121.75 340.6 121.848 340.921 122.044C341.242 122.234 341.497 122.49 341.687 122.81C341.883 123.131 341.981 123.491 341.981 123.889C341.981 124.287 341.883 124.646 341.687 124.967C341.497 125.288 341.239 125.543 340.912 125.733C340.591 125.923 340.238 126.018 339.852 126.018ZM339.852 125.065C340.184 125.065 340.463 124.952 340.689 124.726C340.915 124.495 341.028 124.215 341.028 123.889C341.028 123.556 340.915 123.277 340.689 123.051C340.463 122.819 340.184 122.704 339.852 122.704C339.525 122.704 339.246 122.819 339.014 123.051C338.788 123.277 338.675 123.556 338.675 123.889C338.675 124.215 338.788 124.495 339.014 124.726C339.246 124.952 339.525 125.065 339.852 125.065ZM345.59 133.022C345.198 133.022 344.839 132.924 344.512 132.728C344.191 132.526 343.933 132.265 343.737 131.944C343.547 131.617 343.452 131.264 343.452 130.884C343.452 130.486 343.55 130.126 343.746 129.806C343.942 129.479 344.2 129.22 344.521 129.03C344.848 128.84 345.204 128.745 345.59 128.745C345.988 128.745 346.348 128.843 346.668 129.039C346.989 129.235 347.245 129.497 347.435 129.823C347.625 130.144 347.72 130.498 347.72 130.884C347.72 131.276 347.625 131.635 347.435 131.962C347.245 132.283 346.986 132.541 346.659 132.737C346.339 132.927 345.982 133.022 345.59 133.022ZM345.59 132.069C345.911 132.069 346.187 131.953 346.419 131.721C346.651 131.49 346.766 131.21 346.766 130.884C346.766 130.557 346.651 130.278 346.419 130.046C346.187 129.814 345.911 129.699 345.59 129.699C345.263 129.699 344.981 129.814 344.744 130.046C344.512 130.278 344.396 130.557 344.396 130.884C344.396 131.21 344.512 131.49 344.744 131.721C344.981 131.953 345.263 132.069 345.59 132.069Z" fill="white"/>
<path d="M307.98 148.619V140.303H313.041V141.134H308.812V143.748H312.311V144.58H308.812V147.788H313.041V148.619H307.98ZM316.185 148.732C315.861 148.724 315.544 148.665 315.235 148.554C314.926 148.443 314.657 148.293 314.427 148.103C314.197 147.912 314.033 147.697 313.934 147.455L314.653 147.146C314.716 147.301 314.833 147.443 315.003 147.574C315.178 147.701 315.376 147.804 315.597 147.883C315.819 147.958 316.039 147.996 316.257 147.996C316.498 147.996 316.724 147.956 316.934 147.877C317.144 147.798 317.314 147.685 317.445 147.538C317.58 147.388 317.647 147.211 317.647 147.009C317.647 146.792 317.576 146.621 317.433 146.499C317.29 146.372 317.11 146.273 316.892 146.202C316.675 146.126 316.451 146.055 316.221 145.988C315.801 145.873 315.431 145.746 315.11 145.608C314.789 145.469 314.538 145.293 314.356 145.079C314.178 144.861 314.088 144.582 314.088 144.241C314.088 143.881 314.189 143.57 314.391 143.308C314.597 143.043 314.865 142.839 315.193 142.697C315.526 142.55 315.881 142.477 316.257 142.477C316.74 142.477 317.18 142.582 317.576 142.792C317.976 143.002 318.265 143.281 318.443 143.629L317.772 144.027C317.7 143.865 317.587 143.724 317.433 143.606C317.279 143.487 317.102 143.394 316.904 143.326C316.71 143.259 316.512 143.223 316.31 143.219C316.057 143.215 315.821 143.253 315.603 143.332C315.385 143.408 315.209 143.52 315.075 143.671C314.944 143.821 314.879 144.006 314.879 144.223C314.879 144.441 314.944 144.608 315.075 144.722C315.205 144.833 315.382 144.924 315.603 144.996C315.829 145.063 316.083 145.142 316.364 145.233C316.724 145.348 317.063 145.479 317.38 145.625C317.696 145.772 317.952 145.954 318.146 146.172C318.34 146.39 318.435 146.665 318.431 146.998C318.431 147.354 318.324 147.665 318.11 147.93C317.896 148.196 317.619 148.4 317.279 148.542C316.938 148.681 316.574 148.744 316.185 148.732ZM323.65 147.128L324.393 147.532C324.123 147.908 323.781 148.209 323.365 148.435C322.953 148.661 322.506 148.774 322.023 148.774C321.476 148.774 320.977 148.633 320.525 148.352C320.078 148.071 319.72 147.695 319.45 147.223C319.185 146.748 319.052 146.223 319.052 145.649C319.052 145.213 319.129 144.808 319.284 144.431C319.438 144.051 319.65 143.718 319.92 143.433C320.193 143.144 320.51 142.918 320.87 142.756C321.23 142.594 321.615 142.512 322.023 142.512C322.506 142.512 322.953 142.625 323.365 142.851C323.781 143.077 324.123 143.38 324.393 143.76L323.65 144.158C323.444 143.897 323.197 143.697 322.908 143.558C322.619 143.415 322.323 143.344 322.023 143.344C321.623 143.344 321.26 143.451 320.935 143.665C320.611 143.875 320.353 144.154 320.163 144.503C319.977 144.851 319.884 145.233 319.884 145.649C319.884 146.065 319.979 146.447 320.169 146.796C320.363 147.144 320.623 147.423 320.947 147.633C321.272 147.839 321.63 147.942 322.023 147.942C322.347 147.942 322.652 147.867 322.937 147.716C323.223 147.566 323.46 147.37 323.65 147.128ZM330.267 142.679H331.099V148.619H330.267L330.238 147.514C330.043 147.891 329.772 148.196 329.424 148.429C329.075 148.659 328.659 148.774 328.176 148.774C327.74 148.774 327.333 148.693 326.952 148.53C326.572 148.364 326.238 148.136 325.948 147.847C325.659 147.558 325.434 147.223 325.271 146.843C325.109 146.463 325.028 146.055 325.028 145.619C325.028 145.192 325.107 144.79 325.265 144.413C325.428 144.037 325.649 143.707 325.931 143.421C326.216 143.136 326.544 142.914 326.917 142.756C327.293 142.594 327.695 142.512 328.123 142.512C328.618 142.512 329.049 142.631 329.418 142.869C329.786 143.103 330.079 143.409 330.297 143.79L330.267 142.679ZM328.158 147.966C328.582 147.966 328.946 147.863 329.251 147.657C329.556 147.447 329.79 147.166 329.952 146.813C330.119 146.461 330.202 146.073 330.202 145.649C330.202 145.213 330.119 144.821 329.952 144.473C329.786 144.12 329.55 143.841 329.245 143.635C328.94 143.429 328.578 143.326 328.158 143.326C327.739 143.326 327.354 143.431 327.006 143.641C326.661 143.847 326.386 144.126 326.18 144.479C325.978 144.831 325.877 145.221 325.877 145.649C325.877 146.081 325.982 146.473 326.192 146.825C326.402 147.174 326.679 147.451 327.024 147.657C327.372 147.863 327.75 147.966 328.158 147.966ZM332.369 148.619V139.708H333.201V148.619H332.369ZM339.468 142.679H340.3V148.619H339.468L339.438 147.514C339.244 147.891 338.973 148.196 338.625 148.429C338.276 148.659 337.86 148.774 337.377 148.774C336.941 148.774 336.534 148.693 336.153 148.53C335.773 148.364 335.438 148.136 335.149 147.847C334.86 147.558 334.635 147.223 334.472 146.843C334.31 146.463 334.229 146.055 334.229 145.619C334.229 145.192 334.308 144.79 334.466 144.413C334.629 144.037 334.85 143.707 335.132 143.421C335.417 143.136 335.745 142.914 336.118 142.756C336.494 142.594 336.896 142.512 337.324 142.512C337.819 142.512 338.25 142.631 338.619 142.869C338.987 143.103 339.28 143.409 339.498 143.79L339.468 142.679ZM337.359 147.966C337.783 147.966 338.147 147.863 338.452 147.657C338.757 147.447 338.991 147.166 339.153 146.813C339.32 146.461 339.403 146.073 339.403 145.649C339.403 145.213 339.32 144.821 339.153 144.473C338.987 144.12 338.751 143.841 338.446 143.635C338.141 143.429 337.779 143.326 337.359 143.326C336.939 143.326 336.555 143.431 336.207 143.641C335.862 143.847 335.587 144.126 335.381 144.479C335.179 144.831 335.078 145.221 335.078 145.649C335.078 146.081 335.183 146.473 335.393 146.825C335.603 147.174 335.88 147.451 336.225 147.657C336.573 147.863 336.951 147.966 337.359 147.966ZM344.524 143.51H343.104L343.099 148.619H342.267L342.273 143.51H341.198V142.679H342.273L342.267 140.813H343.099L343.104 142.679H344.524V143.51ZM348.036 148.774C347.489 148.774 346.99 148.633 346.539 148.352C346.091 148.071 345.733 147.695 345.464 147.223C345.198 146.748 345.066 146.223 345.066 145.649C345.066 145.213 345.143 144.808 345.297 144.431C345.452 144.051 345.664 143.718 345.933 143.433C346.206 143.144 346.523 142.918 346.883 142.756C347.244 142.594 347.628 142.512 348.036 142.512C348.475 142.512 348.879 142.6 349.248 142.774C349.62 142.948 349.939 143.192 350.204 143.505C350.473 143.817 350.675 144.184 350.81 144.604C350.949 145.023 351.006 145.477 350.982 145.964H345.945C345.992 146.34 346.111 146.677 346.301 146.974C346.495 147.271 346.741 147.507 347.038 147.681C347.339 147.851 347.671 147.938 348.036 147.942C348.432 147.942 348.788 147.839 349.105 147.633C349.426 147.427 349.683 147.144 349.877 146.784L350.721 146.98C350.483 147.507 350.125 147.938 349.646 148.275C349.167 148.608 348.63 148.774 348.036 148.774ZM345.921 145.293H350.145C350.117 144.924 350.004 144.588 349.806 144.283C349.612 143.974 349.361 143.728 349.052 143.546C348.743 143.36 348.404 143.267 348.036 143.267C347.667 143.267 347.331 143.358 347.026 143.54C346.721 143.718 346.471 143.962 346.277 144.271C346.083 144.576 345.965 144.916 345.921 145.293ZM356.832 139.708H357.663V148.619H356.832V147.508C356.626 147.889 356.343 148.196 355.982 148.429C355.626 148.659 355.202 148.774 354.711 148.774C354.279 148.774 353.875 148.693 353.499 148.53C353.123 148.368 352.79 148.144 352.501 147.859C352.216 147.57 351.992 147.237 351.83 146.861C351.667 146.485 351.586 146.081 351.586 145.649C351.586 145.217 351.667 144.813 351.83 144.437C351.992 144.057 352.216 143.724 352.501 143.439C352.79 143.15 353.123 142.924 353.499 142.762C353.875 142.6 354.279 142.518 354.711 142.518C355.202 142.518 355.626 142.635 355.982 142.869C356.343 143.099 356.626 143.402 356.832 143.778V139.708ZM354.717 147.966C355.141 147.966 355.505 147.863 355.81 147.657C356.115 147.447 356.349 147.166 356.511 146.813C356.677 146.461 356.761 146.073 356.761 145.649C356.761 145.213 356.677 144.821 356.511 144.473C356.345 144.12 356.109 143.841 355.804 143.635C355.499 143.429 355.137 143.326 354.717 143.326C354.297 143.326 353.915 143.431 353.57 143.641C353.226 143.847 352.951 144.126 352.745 144.479C352.539 144.831 352.436 145.221 352.436 145.649C352.436 146.081 352.541 146.473 352.751 146.825C352.961 147.174 353.238 147.451 353.582 147.657C353.931 147.863 354.309 147.966 354.717 147.966Z" fill="white" fill-opacity="0.8"/>
</g>
<g filter="url(#filter3_d_2453_2623)">
<circle cx="299.386" cy="156.708" r="8" fill="#4268FF"/>
<circle cx="299.386" cy="156.708" r="7" stroke="white" stroke-width="2"/>
</g>
<g filter="url(#filter4_d_2453_2623)">
<circle cx="147.386" cy="311.708" r="8" fill="#4268FF"/>
<circle cx="147.386" cy="311.708" r="7" stroke="white" stroke-width="2"/>
</g>
</g>
<defs>
<filter id="filter0_d_2453_2623" x="-3.05176e-05" y="-0.00012207" width="463.772" height="463.772" filterUnits="userSpaceOnUse" color-interpolation-filters="sRGB">
<feFlood flood-opacity="0" result="BackgroundImageFix"/>
<feColorMatrix in="SourceAlpha" type="matrix" values="0 0 0 0 0 0 0 0 0 0 0 0 0 0 0 0 0 0 127 0" result="hardAlpha"/>
<feOffset dy="3.67715"/>
<feGaussianBlur stdDeviation="9.19289"/>
<feComposite in2="hardAlpha" operator="out"/>
<feColorMatrix type="matrix" values="0 0 0 0 0.0468057 0 0 0 0 0.0634939 0 0 0 0 0.129808 0 0 0 0.1 0"/>
<feBlend mode="normal" in2="BackgroundImageFix" result="effect1_dropShadow_2453_2623"/>
<feBlend mode="normal" in="SourceGraphic" in2="effect1_dropShadow_2453_2623" result="shape"/>
</filter>
<filter id="filter1_d_2453_2623" x="56.3857" y="307.708" width="103" height="80" filterUnits="userSpaceOnUse" color-interpolation-filters="sRGB">
<feFlood flood-opacity="0" result="BackgroundImageFix"/>
<feColorMatrix in="SourceAlpha" type="matrix" values="0 0 0 0 0 0 0 0 0 0 0 0 0 0 0 0 0 0 127 0" result="hardAlpha"/>
<feOffset dy="4"/>
<feGaussianBlur stdDeviation="2"/>
<feComposite in2="hardAlpha" operator="out"/>
<feColorMatrix type="matrix" values="0 0 0 0 0.259615 0 0 0 0 0.407692 0 0 0 0 1 0 0 0 0.15 0"/>
<feBlend mode="normal" in2="BackgroundImageFix" result="effect1_dropShadow_2453_2623"/>
<feBlend mode="normal" in="SourceGraphic" in2="effect1_dropShadow_2453_2623" result="shape"/>
</filter>
<filter id="filter2_d_2453_2623" x="292.415" y="107.708" width="81.7028" height="58.7624" filterUnits="userSpaceOnUse" color-interpolation-filters="sRGB">
<feFlood flood-opacity="0" result="BackgroundImageFix"/>
<feColorMatrix in="SourceAlpha" type="matrix" values="0 0 0 0 0 0 0 0 0 0 0 0 0 0 0 0 0 0 127 0" result="hardAlpha"/>
<feOffset dy="2.9703"/>
<feGaussianBlur stdDeviation="1.48515"/>
<feComposite in2="hardAlpha" operator="out"/>
<feColorMatrix type="matrix" values="0 0 0 0 0.259615 0 0 0 0 0.407692 0 0 0 0 1 0 0 0 0.15 0"/>
<feBlend mode="normal" in2="BackgroundImageFix" result="effect1_dropShadow_2453_2623"/>
<feBlend mode="normal" in="SourceGraphic" in2="effect1_dropShadow_2453_2623" result="shape"/>
</filter>
<filter id="filter3_d_2453_2623" x="287.386" y="148.708" width="24" height="24" filterUnits="userSpaceOnUse" color-interpolation-filters="sRGB">
<feFlood flood-opacity="0" result="BackgroundImageFix"/>
<feColorMatrix in="SourceAlpha" type="matrix" values="0 0 0 0 0 0 0 0 0 0 0 0 0 0 0 0 0 0 127 0" result="hardAlpha"/>
<feOffset dy="4"/>
<feGaussianBlur stdDeviation="2"/>
<feComposite in2="hardAlpha" operator="out"/>
<feColorMatrix type="matrix" values="0 0 0 0 0.259615 0 0 0 0 0.407692 0 0 0 0 1 0 0 0 0.25 0"/>
<feBlend mode="normal" in2="BackgroundImageFix" result="effect1_dropShadow_2453_2623"/>
<feBlend mode="normal" in="SourceGraphic" in2="effect1_dropShadow_2453_2623" result="shape"/>
</filter>
<filter id="filter4_d_2453_2623" x="135.386" y="303.708" width="24" height="24" filterUnits="userSpaceOnUse" color-interpolation-filters="sRGB">
<feFlood flood-opacity="0" result="BackgroundImageFix"/>
<feColorMatrix in="SourceAlpha" type="matrix" values="0 0 0 0 0 0 0 0 0 0 0 0 0 0 0 0 0 0 127 0" result="hardAlpha"/>
<feOffset dy="4"/>
<feGaussianBlur stdDeviation="2"/>
<feComposite in2="hardAlpha" operator="out"/>
<feColorMatrix type="matrix" values="0 0 0 0 0.259615 0 0 0 0 0.407692 0 0 0 0 1 0 0 0 0.25 0"/>
<feBlend mode="normal" in2="BackgroundImageFix" result="effect1_dropShadow_2453_2623"/>
<feBlend mode="normal" in="SourceGraphic" in2="effect1_dropShadow_2453_2623" result="shape"/>
</filter>
</defs>
</svg>
