<svg preserveAspectRatio="none" width="100%" height="100%" overflow="visible" style="display: block;" viewBox="0 0 282.286 283.868" fill="none" xmlns="http://www.w3.org/2000/svg">
<g id="Wrap">
<path id="Element" d="M147.179 21.5297C147.179 18.7184 149.459 16.4296 152.268 16.5323C177.239 17.4451 201.54 25.0617 222.599 38.6259C243.659 52.1901 260.644 71.1646 271.803 93.5222C273.059 96.0377 271.918 99.0601 269.358 100.223L222.829 121.359C220.27 122.522 217.267 121.38 215.94 118.902C209.697 107.245 200.578 97.3398 189.414 90.1495C178.251 82.9592 165.461 78.7533 152.266 77.891C149.46 77.7077 147.179 75.4459 147.179 72.6346L147.179 21.5297Z" fill="var(--fill-0, #4268FF)" fill-opacity="0.5" stroke="var(--stroke-0, white)" stroke-width="3.71429" stroke-linejoin="round"/>
<path id="Element_2" d="M274.607 126.875C277.403 126.582 279.917 128.611 280.108 131.415C281.888 157.592 276.24 183.778 263.762 206.936C250.479 231.59 230.072 251.667 205.205 264.547C180.338 277.428 152.165 282.513 124.364 279.139C96.5633 275.766 70.4249 264.09 49.36 245.636C28.2952 227.182 13.2824 202.807 6.28067 175.692C-0.721028 148.576 0.613629 119.98 10.1105 93.6342C19.6073 67.2887 36.8252 44.4178 59.5173 28.0061C80.8326 12.5902 106.048 3.54596 132.231 1.86751C135.037 1.68766 137.379 3.91294 137.456 6.72325L138.86 57.8088C138.937 60.6191 136.718 62.9427 133.919 63.203C120.059 64.4921 106.762 69.4715 95.4326 77.6653C82.725 86.8558 73.083 99.6636 67.7647 114.417C62.4465 129.17 61.6991 145.184 65.62 160.369C69.541 175.554 77.9482 189.204 89.7445 199.538C101.541 209.872 116.178 216.411 131.747 218.3C147.315 220.189 163.092 217.341 177.017 210.128C190.943 202.915 202.371 191.672 209.81 177.866C216.442 165.557 219.629 151.721 219.083 137.811C218.973 135.002 220.984 132.497 223.78 132.204L274.607 126.875Z" fill="var(--fill-0, #4268FF)" stroke="var(--stroke-0, white)" stroke-width="3.71429" stroke-linejoin="round"/>
</g>
</svg>
