<svg width="464" height="464" viewBox="0 0 464 464" fill="none" xmlns="http://www.w3.org/2000/svg">
<g filter="url(#filter0_d_2453_2488)">
<rect x="18.3857" y="14.7085" width="427" height="427" rx="22.0629" fill="white" shape-rendering="crispEdges"/>
<rect x="18.8454" y="15.1681" width="426.081" height="426.081" rx="21.6033" stroke="#0C1021" stroke-opacity="0.05" stroke-width="0.919289" shape-rendering="crispEdges"/>
<rect x="57.3857" y="106.708" width="184.316" height="51.1743" rx="25.5871" fill="white"/>
<rect x="57.8427" y="107.165" width="183.402" height="50.2605" rx="25.1302" stroke="#2D2D2D" stroke-opacity="0.1" stroke-width="0.913826"/>
<rect x="64.6958" y="114.019" width="36.5588" height="36.5531" rx="18.2765" fill="#3DEC82" fill-opacity="0.15"/>
<rect x="65.1527" y="114.476" width="35.6449" height="35.6392" rx="17.8196" stroke="#28BC62" stroke-opacity="0.1" stroke-width="0.913826"/>
<path d="M73.8369 132.295C73.8369 129.872 74.7997 127.548 76.5134 125.834C78.2272 124.12 80.5516 123.157 82.9752 123.157C85.3988 123.157 87.7231 124.12 89.4369 125.834C91.1507 127.548 92.1134 129.872 92.1134 132.295C92.1134 134.719 91.1507 137.043 89.4369 138.757C87.7231 140.471 85.3988 141.434 82.9752 141.434C80.5516 141.434 78.2272 140.471 76.5134 138.757C74.7997 137.043 73.8369 134.719 73.8369 132.295ZM87.2775 130.658C87.3624 130.573 87.4298 130.472 87.4758 130.361C87.5218 130.25 87.5455 130.131 87.5455 130.011C87.5455 129.891 87.5218 129.772 87.4758 129.661C87.4298 129.55 87.3624 129.449 87.2775 129.364C87.1925 129.279 87.0916 129.212 86.9806 129.166C86.8696 129.12 86.7506 129.096 86.6305 129.096C86.5103 129.096 86.3913 129.12 86.2803 129.166C86.1693 129.212 86.0685 129.279 85.9835 129.364L82.0614 133.288L79.9669 131.192C79.8819 131.107 79.781 131.039 79.67 130.993C79.559 130.947 79.44 130.924 79.3199 130.924C79.1997 130.924 79.0807 130.947 78.9697 130.993C78.8587 131.039 78.7578 131.107 78.6729 131.192C78.5879 131.277 78.5205 131.377 78.4745 131.488C78.4286 131.599 78.4049 131.718 78.4049 131.839C78.4049 131.959 78.4286 132.078 78.4745 132.189C78.5205 132.3 78.5879 132.401 78.6729 132.486L81.4144 135.227C81.4992 135.312 81.6001 135.38 81.7111 135.426C81.8221 135.472 81.9412 135.496 82.0614 135.496C82.1816 135.496 82.3006 135.472 82.4116 135.426C82.5226 135.38 82.6235 135.312 82.7083 135.227L87.2775 130.658Z" fill="#28BC62"/>
<path d="M118.82 137.485C118.128 137.485 117.478 137.349 116.868 137.076C116.259 136.798 115.723 136.418 115.26 135.936C114.802 135.448 114.441 134.883 114.178 134.24C113.92 133.596 113.791 132.909 113.791 132.178C113.791 131.447 113.92 130.76 114.178 130.116C114.441 129.473 114.802 128.91 115.26 128.428C115.723 127.94 116.259 127.56 116.868 127.287C117.478 127.009 118.128 126.87 118.82 126.87C119.649 126.87 120.412 127.063 121.109 127.448C121.806 127.833 122.383 128.345 122.841 128.983L121.752 129.568C121.411 129.12 120.979 128.764 120.458 128.501C119.941 128.233 119.395 128.099 118.82 128.099C118.289 128.099 117.792 128.206 117.329 128.42C116.871 128.635 116.469 128.93 116.123 129.305C115.777 129.68 115.506 130.114 115.311 130.606C115.116 131.098 115.019 131.622 115.019 132.178C115.019 132.738 115.116 133.265 115.311 133.757C115.511 134.249 115.784 134.683 116.13 135.058C116.481 135.434 116.885 135.729 117.344 135.943C117.807 136.153 118.299 136.257 118.82 136.257C119.415 136.257 119.966 136.123 120.473 135.855C120.984 135.582 121.411 135.227 121.752 134.788L122.841 135.38C122.383 136.018 121.806 136.53 121.109 136.915C120.412 137.295 119.649 137.485 118.82 137.485ZM124.321 137.295V127.061H127.918C128.463 127.061 128.956 127.195 129.394 127.463C129.838 127.731 130.189 128.094 130.447 128.552C130.71 129.005 130.842 129.512 130.842 130.073C130.842 130.565 130.744 131.013 130.549 131.418C130.354 131.822 130.086 132.161 129.745 132.434C129.409 132.702 129.026 132.887 128.597 132.989L131.083 137.295H129.665L127.223 133.092H125.549V137.295H124.321ZM125.549 131.864H127.793C128.125 131.864 128.429 131.783 128.707 131.622C128.985 131.457 129.204 131.235 129.365 130.957C129.531 130.674 129.614 130.358 129.614 130.007C129.614 129.651 129.531 129.334 129.365 129.056C129.204 128.774 128.985 128.552 128.707 128.391C128.429 128.225 128.125 128.143 127.793 128.143H125.549V131.864ZM132.659 137.295L134.641 127.061H135.584L138.347 134.327L141.103 127.061H142.046L144.035 137.295H142.785L141.344 129.868L138.749 136.74H137.938L135.342 129.868L133.91 137.295H132.659ZM154.045 137.485C153.353 137.485 152.703 137.349 152.094 137.076C151.484 136.798 150.948 136.418 150.485 135.936C150.027 135.448 149.666 134.883 149.403 134.24C149.145 133.596 149.016 132.909 149.016 132.178C149.016 131.447 149.145 130.76 149.403 130.116C149.666 129.473 150.027 128.91 150.485 128.428C150.948 127.94 151.484 127.56 152.094 127.287C152.703 127.009 153.353 126.87 154.045 126.87C154.874 126.87 155.637 127.063 156.334 127.448C157.031 127.833 157.608 128.345 158.066 128.983L156.977 129.568C156.636 129.12 156.205 128.764 155.683 128.501C155.166 128.233 154.621 128.099 154.045 128.099C153.514 128.099 153.017 128.206 152.554 128.42C152.096 128.635 151.694 128.93 151.348 129.305C151.002 129.68 150.731 130.114 150.536 130.606C150.341 131.098 150.244 131.622 150.244 132.178C150.244 132.738 150.341 133.265 150.536 133.757C150.736 134.249 151.009 134.683 151.355 135.058C151.706 135.434 152.111 135.729 152.569 135.943C153.032 136.153 153.524 136.257 154.045 136.257C154.64 136.257 155.191 136.123 155.698 135.855C156.209 135.582 156.636 135.227 156.977 134.788L158.066 135.38C157.608 136.018 157.031 136.53 156.334 136.915C155.637 137.295 154.874 137.485 154.045 137.485ZM162.363 137.485C161.69 137.485 161.076 137.312 160.521 136.966C159.97 136.62 159.529 136.157 159.197 135.577C158.871 134.993 158.707 134.347 158.707 133.64C158.707 133.104 158.803 132.604 158.993 132.141C159.183 131.674 159.443 131.264 159.775 130.913C160.111 130.557 160.501 130.28 160.945 130.08C161.388 129.88 161.861 129.78 162.363 129.78C163.035 129.78 163.647 129.953 164.198 130.299C164.753 130.645 165.194 131.111 165.521 131.695C165.852 132.28 166.018 132.929 166.018 133.64C166.018 134.171 165.923 134.668 165.733 135.131C165.543 135.594 165.28 136.004 164.943 136.36C164.612 136.711 164.225 136.986 163.781 137.186C163.342 137.386 162.87 137.485 162.363 137.485ZM162.363 136.257C162.821 136.257 163.233 136.138 163.598 135.899C163.969 135.655 164.259 135.336 164.468 134.941C164.683 134.542 164.79 134.108 164.79 133.64C164.79 133.162 164.68 132.724 164.461 132.324C164.246 131.925 163.957 131.605 163.591 131.367C163.225 131.128 162.816 131.008 162.363 131.008C161.905 131.008 161.493 131.13 161.127 131.374C160.762 131.613 160.472 131.932 160.257 132.332C160.043 132.731 159.936 133.167 159.936 133.64C159.936 134.127 160.045 134.571 160.265 134.971C160.484 135.365 160.779 135.68 161.149 135.914C161.52 136.143 161.924 136.257 162.363 136.257ZM173.69 132.748V137.295H172.462V133.019C172.462 132.648 172.372 132.312 172.192 132.01C172.011 131.708 171.77 131.469 171.468 131.293C171.166 131.113 170.829 131.023 170.459 131.023C170.094 131.023 169.757 131.113 169.45 131.293C169.148 131.469 168.907 131.708 168.726 132.01C168.546 132.312 168.456 132.648 168.456 133.019V137.295H167.228V129.985H168.456V130.899C168.714 130.557 169.041 130.287 169.436 130.087C169.83 129.882 170.259 129.78 170.722 129.78C171.268 129.78 171.765 129.914 172.214 130.182C172.667 130.445 173.025 130.801 173.288 131.25C173.556 131.698 173.69 132.197 173.69 132.748ZM181.615 132.748V137.295H180.387V133.019C180.387 132.648 180.297 132.312 180.116 132.01C179.936 131.708 179.695 131.469 179.393 131.293C179.09 131.113 178.754 131.023 178.384 131.023C178.018 131.023 177.682 131.113 177.375 131.293C177.073 131.469 176.831 131.708 176.651 132.01C176.471 132.312 176.381 132.648 176.381 133.019V137.295H175.152V129.985H176.381V130.899C176.639 130.557 176.965 130.287 177.36 130.087C177.755 129.882 178.184 129.78 178.647 129.78C179.193 129.78 179.69 129.914 180.138 130.182C180.591 130.445 180.95 130.801 181.213 131.25C181.481 131.698 181.615 132.197 181.615 132.748ZM186.151 137.485C185.478 137.485 184.864 137.312 184.309 136.966C183.758 136.62 183.317 136.157 182.985 135.577C182.659 134.993 182.496 134.347 182.496 133.64C182.496 133.104 182.591 132.604 182.781 132.141C182.971 131.674 183.231 131.264 183.563 130.913C183.899 130.557 184.289 130.28 184.733 130.08C185.176 129.88 185.649 129.78 186.151 129.78C186.702 129.78 187.206 129.892 187.664 130.116C188.127 130.336 188.522 130.643 188.848 131.038C189.18 131.432 189.426 131.89 189.587 132.412C189.753 132.933 189.813 133.491 189.77 134.086H183.804C183.863 134.5 183.999 134.871 184.214 135.197C184.428 135.519 184.701 135.775 185.032 135.965C185.369 136.155 185.741 136.252 186.151 136.257C186.589 136.257 186.987 136.145 187.342 135.921C187.698 135.692 187.986 135.38 188.205 134.985L189.455 135.278C189.163 135.926 188.722 136.457 188.132 136.871C187.542 137.281 186.882 137.485 186.151 137.485ZM183.768 133.121H188.534C188.495 132.712 188.364 132.339 188.139 132.003C187.915 131.661 187.63 131.388 187.284 131.184C186.938 130.979 186.56 130.877 186.151 130.877C185.741 130.877 185.366 130.977 185.025 131.176C184.684 131.376 184.401 131.647 184.177 131.988C183.958 132.324 183.821 132.702 183.768 133.121ZM195.996 135.365L197.092 135.958C196.761 136.421 196.339 136.791 195.828 137.069C195.321 137.347 194.77 137.485 194.175 137.485C193.503 137.485 192.889 137.312 192.333 136.966C191.782 136.62 191.341 136.157 191.01 135.577C190.683 134.993 190.52 134.347 190.52 133.64C190.52 133.104 190.615 132.604 190.805 132.141C190.995 131.674 191.256 131.264 191.587 130.913C191.924 130.557 192.314 130.28 192.757 130.08C193.201 129.88 193.673 129.78 194.175 129.78C194.77 129.78 195.321 129.919 195.828 130.197C196.339 130.475 196.761 130.847 197.092 131.315L195.996 131.907C195.762 131.62 195.484 131.398 195.162 131.242C194.841 131.086 194.512 131.008 194.175 131.008C193.722 131.008 193.31 131.13 192.94 131.374C192.574 131.613 192.284 131.932 192.07 132.332C191.855 132.731 191.748 133.167 191.748 133.64C191.748 134.113 191.855 134.549 192.07 134.949C192.289 135.343 192.582 135.66 192.947 135.899C193.318 136.138 193.727 136.257 194.175 136.257C194.536 136.257 194.875 136.174 195.192 136.009C195.508 135.843 195.776 135.629 195.996 135.365ZM202.199 131.213H200.539L200.532 137.295H199.304L199.311 131.213H198.054V129.985H199.311L199.304 127.689H200.532L200.539 129.985H202.199V131.213ZM206.541 137.485C205.868 137.485 205.254 137.312 204.698 136.966C204.148 136.62 203.707 136.157 203.375 135.577C203.049 134.993 202.885 134.347 202.885 133.64C202.885 133.104 202.98 132.604 203.17 132.141C203.36 131.674 203.621 131.264 203.953 130.913C204.289 130.557 204.679 130.28 205.122 130.08C205.566 129.88 206.039 129.78 206.541 129.78C207.091 129.78 207.596 129.892 208.054 130.116C208.517 130.336 208.912 130.643 209.238 131.038C209.57 131.432 209.816 131.89 209.977 132.412C210.142 132.933 210.203 133.491 210.159 134.086H204.194C204.252 134.5 204.389 134.871 204.603 135.197C204.818 135.519 205.091 135.775 205.422 135.965C205.758 136.155 206.131 136.252 206.541 136.257C206.979 136.257 207.376 136.145 207.732 135.921C208.088 135.692 208.376 135.38 208.595 134.985L209.845 135.278C209.553 135.926 209.111 136.457 208.522 136.871C207.932 137.281 207.272 137.485 206.541 137.485ZM204.157 133.121H208.924C208.885 132.712 208.753 132.339 208.529 132.003C208.305 131.661 208.02 131.388 207.674 131.184C207.328 130.979 206.95 130.877 206.541 130.877C206.131 130.877 205.756 130.977 205.415 131.176C205.074 131.376 204.791 131.647 204.567 131.988C204.347 132.324 204.211 132.702 204.157 133.121ZM217.233 126.329H218.462V137.295H217.233V136.053C216.985 136.481 216.651 136.828 216.232 137.091C215.813 137.354 215.321 137.485 214.755 137.485C214.224 137.485 213.727 137.386 213.264 137.186C212.801 136.986 212.391 136.711 212.036 136.36C211.685 136.004 211.409 135.594 211.21 135.131C211.01 134.668 210.91 134.171 210.91 133.64C210.91 133.109 211.01 132.612 211.21 132.149C211.409 131.681 211.685 131.271 212.036 130.921C212.391 130.565 212.801 130.287 213.264 130.087C213.727 129.887 214.224 129.787 214.755 129.787C215.321 129.787 215.813 129.919 216.232 130.182C216.651 130.445 216.985 130.791 217.233 131.22V126.329ZM214.77 136.294C215.252 136.294 215.669 136.177 216.02 135.943C216.376 135.704 216.649 135.382 216.839 134.978C217.034 134.573 217.131 134.127 217.131 133.64C217.131 133.143 217.034 132.695 216.839 132.295C216.644 131.89 216.368 131.571 216.013 131.337C215.662 131.098 215.247 130.979 214.77 130.979C214.287 130.979 213.849 131.098 213.454 131.337C213.064 131.576 212.752 131.898 212.518 132.302C212.284 132.702 212.167 133.148 212.167 133.64C212.167 134.132 212.287 134.581 212.525 134.985C212.764 135.385 213.081 135.704 213.476 135.943C213.871 136.177 214.302 136.294 214.77 136.294Z" fill="#0C1021"/>
<rect x="92.3857" y="197.708" width="213.316" height="51.1743" rx="25.5871" fill="white"/>
<rect x="92.8427" y="198.165" width="212.402" height="50.2605" rx="25.1302" stroke="#2D2D2D" stroke-opacity="0.1" stroke-width="0.913826"/>
<rect x="99.6958" y="205.019" width="36.5588" height="36.5531" rx="18.2765" fill="#3DEC82" fill-opacity="0.15"/>
<rect x="100.153" y="205.476" width="35.6449" height="35.6392" rx="17.8196" stroke="#28BC62" stroke-opacity="0.1" stroke-width="0.913826"/>
<path d="M108.837 223.295C108.837 220.872 109.8 218.548 111.513 216.834C113.227 215.12 115.552 214.157 117.975 214.157C120.399 214.157 122.723 215.12 124.437 216.834C126.151 218.548 127.113 220.872 127.113 223.295C127.113 225.719 126.151 228.043 124.437 229.757C122.723 231.471 120.399 232.434 117.975 232.434C115.552 232.434 113.227 231.471 111.513 229.757C109.8 228.043 108.837 225.719 108.837 223.295ZM122.277 221.658C122.362 221.573 122.43 221.472 122.476 221.361C122.522 221.25 122.545 221.131 122.545 221.011C122.545 220.891 122.522 220.772 122.476 220.661C122.43 220.55 122.362 220.449 122.277 220.364C122.193 220.279 122.092 220.212 121.981 220.166C121.87 220.12 121.751 220.096 121.63 220.096C121.51 220.096 121.391 220.12 121.28 220.166C121.169 220.212 121.068 220.279 120.983 220.364L117.061 224.288L114.967 222.192C114.882 222.107 114.781 222.039 114.67 221.993C114.559 221.947 114.44 221.924 114.32 221.924C114.2 221.924 114.081 221.947 113.97 221.993C113.859 222.039 113.758 222.107 113.673 222.192C113.588 222.277 113.521 222.377 113.475 222.488C113.429 222.599 113.405 222.718 113.405 222.839C113.405 222.959 113.429 223.078 113.475 223.189C113.521 223.3 113.588 223.401 113.673 223.486L116.414 226.227C116.499 226.312 116.6 226.38 116.711 226.426C116.822 226.472 116.941 226.496 117.061 226.496C117.182 226.496 117.301 226.472 117.412 226.426C117.523 226.38 117.623 226.312 117.708 226.227L122.277 221.658Z" fill="#28BC62"/>
<path d="M155.085 218.061H156.313V228.295H155.085V223.427H150.019V228.295H148.79V218.061H150.019V222.198H155.085V218.061ZM161.217 228.485C160.544 228.485 159.93 228.312 159.375 227.966C158.824 227.62 158.383 227.157 158.051 226.577C157.725 225.993 157.562 225.347 157.562 224.64C157.562 224.104 157.657 223.604 157.847 223.141C158.037 222.674 158.297 222.264 158.629 221.913C158.965 221.557 159.355 221.28 159.799 221.08C160.242 220.88 160.715 220.78 161.217 220.78C161.768 220.78 162.272 220.892 162.73 221.116C163.193 221.336 163.588 221.643 163.914 222.038C164.246 222.432 164.492 222.89 164.653 223.412C164.819 223.933 164.879 224.491 164.836 225.086H158.87C158.929 225.5 159.065 225.871 159.28 226.197C159.494 226.519 159.767 226.775 160.098 226.965C160.435 227.155 160.807 227.252 161.217 227.257C161.655 227.257 162.053 227.145 162.408 226.921C162.764 226.692 163.052 226.38 163.271 225.985L164.521 226.278C164.229 226.926 163.788 227.457 163.198 227.871C162.608 228.281 161.948 228.485 161.217 228.485ZM158.834 224.121H163.6C163.561 223.712 163.429 223.339 163.205 223.003C162.981 222.661 162.696 222.388 162.35 222.184C162.004 221.979 161.626 221.877 161.217 221.877C160.807 221.877 160.432 221.977 160.091 222.176C159.75 222.376 159.467 222.647 159.243 222.988C159.024 223.324 158.887 223.702 158.834 224.121ZM165.996 228.295V217.329H167.224V228.295H165.996ZM170.209 231.951H168.98V220.985H170.209V222.235C170.457 221.806 170.789 221.46 171.203 221.197C171.617 220.929 172.109 220.795 172.68 220.795C173.211 220.795 173.708 220.895 174.171 221.094C174.639 221.294 175.048 221.572 175.399 221.928C175.75 222.279 176.025 222.686 176.225 223.149C176.425 223.612 176.525 224.109 176.525 224.64C176.525 225.171 176.425 225.671 176.225 226.139C176.025 226.607 175.75 227.018 175.399 227.374C175.048 227.725 174.639 228.001 174.171 228.2C173.708 228.4 173.211 228.5 172.68 228.5C172.109 228.5 171.617 228.369 171.203 228.105C170.789 227.837 170.457 227.489 170.209 227.06V231.951ZM172.665 221.986C172.192 221.986 171.778 222.106 171.422 222.345C171.066 222.583 170.791 222.903 170.596 223.302C170.406 223.702 170.311 224.148 170.311 224.64C170.311 225.127 170.406 225.573 170.596 225.978C170.791 226.382 171.064 226.704 171.415 226.943C171.771 227.182 172.187 227.301 172.665 227.301C173.138 227.301 173.571 227.184 173.966 226.95C174.361 226.711 174.678 226.392 174.917 225.993C175.155 225.588 175.275 225.137 175.275 224.64C175.275 224.153 175.158 223.709 174.924 223.31C174.69 222.905 174.376 222.583 173.981 222.345C173.586 222.106 173.147 221.986 172.665 221.986ZM181.36 228.295V218.061H184.745C185.451 218.061 186.114 218.195 186.733 218.463C187.352 218.726 187.896 219.094 188.363 219.567C188.831 220.034 189.197 220.578 189.46 221.197C189.728 221.811 189.862 222.471 189.862 223.178C189.862 223.885 189.728 224.548 189.46 225.166C189.197 225.781 188.831 226.324 188.363 226.797C187.896 227.265 187.352 227.633 186.733 227.901C186.114 228.164 185.451 228.295 184.745 228.295H181.36ZM182.588 227.067H184.745C185.281 227.067 185.783 226.967 186.251 226.767C186.723 226.563 187.138 226.283 187.493 225.927C187.849 225.571 188.127 225.159 188.327 224.691C188.532 224.219 188.634 223.714 188.634 223.178C188.634 222.642 188.532 222.14 188.327 221.672C188.127 221.199 187.847 220.785 187.486 220.429C187.13 220.073 186.719 219.796 186.251 219.596C185.783 219.391 185.281 219.289 184.745 219.289H182.588V227.067ZM194.272 228.485C193.599 228.485 192.985 228.312 192.429 227.966C191.879 227.62 191.438 227.157 191.106 226.577C190.78 225.993 190.616 225.347 190.616 224.64C190.616 224.104 190.711 223.604 190.901 223.141C191.092 222.674 191.352 222.264 191.684 221.913C192.02 221.557 192.41 221.28 192.853 221.08C193.297 220.88 193.77 220.78 194.272 220.78C194.822 220.78 195.327 220.892 195.785 221.116C196.248 221.336 196.643 221.643 196.969 222.038C197.301 222.432 197.547 222.89 197.708 223.412C197.873 223.933 197.934 224.491 197.89 225.086H191.925C191.983 225.5 192.12 225.871 192.334 226.197C192.549 226.519 192.822 226.775 193.153 226.965C193.489 227.155 193.862 227.252 194.272 227.257C194.71 227.257 195.107 227.145 195.463 226.921C195.819 226.692 196.107 226.38 196.326 225.985L197.576 226.278C197.284 226.926 196.843 227.457 196.253 227.871C195.663 228.281 195.003 228.485 194.272 228.485ZM191.888 224.121H196.655C196.616 223.712 196.484 223.339 196.26 223.003C196.036 222.661 195.751 222.388 195.405 222.184C195.059 221.979 194.681 221.877 194.272 221.877C193.862 221.877 193.487 221.977 193.146 222.176C192.805 222.376 192.522 222.647 192.298 222.988C192.078 223.324 191.942 223.702 191.888 224.121ZM201.381 228.434C200.986 228.42 200.601 228.347 200.226 228.215C199.855 228.079 199.529 227.896 199.246 227.667C198.968 227.433 198.766 227.165 198.639 226.863L199.692 226.409C199.765 226.575 199.897 226.731 200.087 226.877C200.277 227.023 200.496 227.14 200.745 227.228C200.993 227.316 201.244 227.36 201.498 227.36C201.766 227.36 202.017 227.318 202.251 227.235C202.485 227.153 202.675 227.031 202.821 226.87C202.972 226.704 203.047 226.507 203.047 226.278C203.047 226.034 202.965 225.844 202.799 225.707C202.638 225.566 202.433 225.456 202.185 225.378C201.941 225.296 201.693 225.218 201.439 225.145C200.937 225.018 200.489 224.867 200.094 224.691C199.699 224.511 199.387 224.284 199.158 224.011C198.934 223.734 198.822 223.38 198.822 222.951C198.822 222.498 198.946 222.106 199.195 221.774C199.448 221.443 199.78 221.187 200.189 221.007C200.598 220.826 201.037 220.736 201.505 220.736C202.095 220.736 202.633 220.863 203.121 221.116C203.608 221.37 203.971 221.713 204.21 222.147L203.223 222.725C203.14 222.549 203.013 222.396 202.843 222.264C202.672 222.128 202.477 222.02 202.258 221.942C202.039 221.865 201.814 221.823 201.585 221.818C201.303 221.808 201.037 221.845 200.788 221.928C200.545 222.011 200.347 222.137 200.196 222.308C200.05 222.474 199.977 222.681 199.977 222.929C199.977 223.173 200.055 223.358 200.211 223.485C200.372 223.612 200.579 223.714 200.832 223.792C201.091 223.865 201.371 223.95 201.673 224.048C202.117 224.189 202.531 224.353 202.916 224.538C203.301 224.723 203.61 224.954 203.844 225.232C204.083 225.51 204.2 225.854 204.195 226.263C204.195 226.711 204.061 227.104 203.793 227.44C203.525 227.771 203.177 228.025 202.748 228.2C202.324 228.376 201.868 228.454 201.381 228.434ZM211.377 228.295H209.966L208.021 224.94L206.676 226.548V228.295H205.448V217.329H206.676V224.64L209.739 220.985H211.34L208.854 223.946L211.377 228.295ZM216.533 228.295V218.061H217.761V228.295H216.533ZM226.203 223.748V228.295H224.975V224.019C224.975 223.648 224.885 223.312 224.704 223.01C224.524 222.708 224.283 222.469 223.981 222.293C223.679 222.113 223.342 222.023 222.972 222.023C222.606 222.023 222.27 222.113 221.963 222.293C221.661 222.469 221.42 222.708 221.239 223.01C221.059 223.312 220.969 223.648 220.969 224.019V228.295H219.741V220.985H220.969V221.899C221.227 221.557 221.554 221.287 221.948 221.087C222.343 220.882 222.772 220.78 223.235 220.78C223.781 220.78 224.278 220.914 224.726 221.182C225.18 221.445 225.538 221.801 225.801 222.25C226.069 222.698 226.203 223.197 226.203 223.748ZM231.452 222.213H229.793L229.785 228.295H228.557L228.564 222.213H227.307V220.985H228.564L228.557 218.689H229.785L229.793 220.985H231.452V222.213ZM235.794 228.485C235.121 228.485 234.507 228.312 233.951 227.966C233.401 227.62 232.96 227.157 232.628 226.577C232.302 225.993 232.138 225.347 232.138 224.64C232.138 224.104 232.233 223.604 232.423 223.141C232.614 222.674 232.874 222.264 233.206 221.913C233.542 221.557 233.932 221.28 234.375 221.08C234.819 220.88 235.292 220.78 235.794 220.78C236.344 220.78 236.849 220.892 237.307 221.116C237.77 221.336 238.165 221.643 238.491 222.038C238.823 222.432 239.069 222.89 239.23 223.412C239.395 223.933 239.456 224.491 239.412 225.086H233.447C233.505 225.5 233.642 225.871 233.856 226.197C234.071 226.519 234.344 226.775 234.675 226.965C235.011 227.155 235.384 227.252 235.794 227.257C236.232 227.257 236.629 227.145 236.985 226.921C237.341 226.692 237.629 226.38 237.848 225.985L239.098 226.278C238.806 226.926 238.365 227.457 237.775 227.871C237.185 228.281 236.525 228.485 235.794 228.485ZM233.41 224.121H238.177C238.138 223.712 238.006 223.339 237.782 223.003C237.558 222.661 237.273 222.388 236.927 222.184C236.581 221.979 236.203 221.877 235.794 221.877C235.384 221.877 235.009 221.977 234.668 222.176C234.327 222.376 234.044 222.647 233.82 222.988C233.6 223.324 233.464 223.702 233.41 224.121ZM246.311 220.985H247.539V228.529C247.539 229.012 247.434 229.46 247.225 229.875C247.02 230.294 246.742 230.657 246.391 230.964C246.041 231.276 245.641 231.517 245.193 231.688C244.744 231.863 244.276 231.951 243.789 231.951C243.282 231.951 242.792 231.836 242.319 231.607C241.847 231.383 241.432 231.081 241.077 230.701C240.726 230.325 240.472 229.904 240.316 229.436L241.442 228.924C241.535 229.26 241.701 229.563 241.939 229.831C242.183 230.104 242.466 230.318 242.787 230.474C243.114 230.635 243.448 230.715 243.789 230.715C244.111 230.715 244.42 230.659 244.717 230.547C245.02 230.435 245.29 230.279 245.529 230.079C245.773 229.884 245.963 229.653 246.099 229.385C246.24 229.122 246.311 228.836 246.311 228.529V227.075C246.063 227.494 245.734 227.835 245.324 228.098C244.92 228.356 244.447 228.485 243.906 228.485C243.389 228.485 242.904 228.386 242.451 228.186C241.998 227.986 241.601 227.711 241.259 227.36C240.918 227.004 240.65 226.594 240.455 226.131C240.26 225.668 240.163 225.171 240.163 224.64C240.163 224.109 240.26 223.612 240.455 223.149C240.65 222.681 240.918 222.271 241.259 221.921C241.601 221.565 241.998 221.287 242.451 221.087C242.904 220.887 243.389 220.787 243.906 220.787C244.447 220.787 244.92 220.917 245.324 221.175C245.734 221.433 246.063 221.774 246.311 222.198V220.985ZM243.913 227.294C244.386 227.294 244.795 227.172 245.141 226.928C245.492 226.685 245.763 226.361 245.953 225.956C246.143 225.551 246.238 225.113 246.238 224.64C246.238 224.153 246.14 223.709 245.946 223.31C245.755 222.905 245.485 222.583 245.134 222.345C244.788 222.101 244.381 221.979 243.913 221.979C243.455 221.979 243.036 222.098 242.656 222.337C242.276 222.576 241.973 222.898 241.749 223.302C241.53 223.702 241.42 224.148 241.42 224.64C241.42 225.132 241.532 225.581 241.757 225.985C241.986 226.385 242.288 226.704 242.663 226.943C243.043 227.177 243.46 227.294 243.913 227.294ZM249.297 228.295V220.985H250.525V221.899C250.784 221.557 251.11 221.287 251.505 221.087C251.9 220.882 252.329 220.78 252.792 220.78C253.074 220.78 253.347 220.817 253.61 220.89L253.113 222.118C252.913 222.055 252.718 222.023 252.528 222.023C252.163 222.023 251.827 222.113 251.52 222.293C251.217 222.469 250.976 222.708 250.796 223.01C250.615 223.312 250.525 223.648 250.525 224.019V228.295H249.297ZM260.015 220.985H261.243V228.295H260.015L259.964 227.06C259.735 227.484 259.418 227.828 259.014 228.091C258.614 228.354 258.136 228.485 257.581 228.485C257.045 228.485 256.543 228.386 256.075 228.186C255.607 227.981 255.193 227.701 254.832 227.345C254.476 226.984 254.198 226.57 253.999 226.102C253.799 225.634 253.699 225.13 253.699 224.589C253.699 224.067 253.796 223.575 253.991 223.112C254.186 222.649 254.457 222.245 254.803 221.899C255.154 221.548 255.558 221.275 256.016 221.08C256.475 220.88 256.967 220.78 257.493 220.78C258.068 220.78 258.573 220.917 259.006 221.189C259.44 221.458 259.791 221.806 260.059 222.235L260.015 220.985ZM257.559 227.294C258.041 227.294 258.458 227.177 258.809 226.943C259.165 226.704 259.438 226.382 259.628 225.978C259.823 225.573 259.92 225.127 259.92 224.64C259.92 224.143 259.823 223.695 259.628 223.295C259.433 222.89 259.157 222.571 258.802 222.337C258.451 222.098 258.037 221.979 257.559 221.979C257.076 221.979 256.638 222.098 256.243 222.337C255.848 222.576 255.534 222.898 255.3 223.302C255.071 223.702 254.956 224.148 254.956 224.64C254.956 225.132 255.076 225.581 255.315 225.985C255.553 226.385 255.87 226.704 256.265 226.943C256.66 227.177 257.091 227.294 257.559 227.294ZM266.492 222.213H264.832L264.825 228.295H263.597L263.604 222.213H262.346V220.985H263.604L263.597 218.689H264.825L264.832 220.985H266.492V222.213ZM270.833 228.485C270.161 228.485 269.546 228.312 268.991 227.966C268.44 227.62 267.999 227.157 267.668 226.577C267.341 225.993 267.178 225.347 267.178 224.64C267.178 224.104 267.273 223.604 267.463 223.141C267.653 222.674 267.914 222.264 268.245 221.913C268.581 221.557 268.971 221.28 269.415 221.08C269.858 220.88 270.331 220.78 270.833 220.78C271.384 220.78 271.888 220.892 272.346 221.116C272.809 221.336 273.204 221.643 273.531 222.038C273.862 222.432 274.108 222.89 274.269 223.412C274.435 223.933 274.496 224.491 274.452 225.086H268.486C268.545 225.5 268.681 225.871 268.896 226.197C269.11 226.519 269.383 226.775 269.715 226.965C270.051 227.155 270.424 227.252 270.833 227.257C271.272 227.257 271.669 227.145 272.025 226.921C272.381 226.692 272.668 226.38 272.887 225.985L274.138 226.278C273.845 226.926 273.404 227.457 272.814 227.871C272.225 228.281 271.564 228.485 270.833 228.485ZM268.45 224.121H273.216C273.177 223.712 273.046 223.339 272.822 223.003C272.597 222.661 272.312 222.388 271.966 222.184C271.62 221.979 271.243 221.877 270.833 221.877C270.424 221.877 270.048 221.977 269.707 222.176C269.366 222.376 269.083 222.647 268.859 222.988C268.64 223.324 268.503 223.702 268.45 224.121ZM281.526 217.329H282.754V228.295H281.526V227.053C281.277 227.481 280.944 227.828 280.525 228.091C280.105 228.354 279.613 228.485 279.048 228.485C278.517 228.485 278.019 228.386 277.556 228.186C277.093 227.986 276.684 227.711 276.328 227.36C275.977 227.004 275.702 226.594 275.502 226.131C275.302 225.668 275.202 225.171 275.202 224.64C275.202 224.109 275.302 223.612 275.502 223.149C275.702 222.681 275.977 222.271 276.328 221.921C276.684 221.565 277.093 221.287 277.556 221.087C278.019 220.887 278.517 220.787 279.048 220.787C279.613 220.787 280.105 220.919 280.525 221.182C280.944 221.445 281.277 221.791 281.526 222.22V217.329ZM279.062 227.294C279.545 227.294 279.962 227.177 280.312 226.943C280.668 226.704 280.941 226.382 281.131 225.978C281.326 225.573 281.424 225.127 281.424 224.64C281.424 224.143 281.326 223.695 281.131 223.295C280.936 222.89 280.661 222.571 280.305 222.337C279.954 222.098 279.54 221.979 279.062 221.979C278.58 221.979 278.141 222.098 277.746 222.337C277.357 222.576 277.045 222.898 276.811 223.302C276.577 223.702 276.46 224.148 276.46 224.64C276.46 225.132 276.579 225.581 276.818 225.985C277.057 226.385 277.374 226.704 277.768 226.943C278.163 227.177 278.595 227.294 279.062 227.294Z" fill="#0C1021"/>
<rect x="181.386" y="289.708" width="188.316" height="51.1743" rx="25.5871" fill="white"/>
<rect x="181.843" y="290.165" width="187.402" height="50.2605" rx="25.1302" stroke="#2D2D2D" stroke-opacity="0.1" stroke-width="0.913826"/>
<rect x="188.696" y="297.019" width="36.5588" height="36.5531" rx="18.2765" fill="#3DEC82" fill-opacity="0.15"/>
<rect x="189.153" y="297.476" width="35.6449" height="35.6392" rx="17.8196" stroke="#28BC62" stroke-opacity="0.1" stroke-width="0.913826"/>
<path d="M197.837 315.295C197.837 312.872 198.8 310.548 200.513 308.834C202.227 307.12 204.552 306.157 206.975 306.157C209.399 306.157 211.723 307.12 213.437 308.834C215.151 310.548 216.113 312.872 216.113 315.295C216.113 317.719 215.151 320.043 213.437 321.757C211.723 323.471 209.399 324.434 206.975 324.434C204.552 324.434 202.227 323.471 200.513 321.757C198.8 320.043 197.837 317.719 197.837 315.295ZM211.277 313.658C211.362 313.573 211.43 313.472 211.476 313.361C211.522 313.25 211.545 313.131 211.545 313.011C211.545 312.891 211.522 312.772 211.476 312.661C211.43 312.55 211.362 312.449 211.277 312.364C211.193 312.279 211.092 312.212 210.981 312.166C210.87 312.12 210.751 312.096 210.63 312.096C210.51 312.096 210.391 312.12 210.28 312.166C210.169 312.212 210.068 312.279 209.983 312.364L206.061 316.288L203.967 314.192C203.882 314.107 203.781 314.039 203.67 313.993C203.559 313.947 203.44 313.924 203.32 313.924C203.2 313.924 203.081 313.947 202.97 313.993C202.859 314.039 202.758 314.107 202.673 314.192C202.588 314.277 202.521 314.377 202.475 314.488C202.429 314.599 202.405 314.718 202.405 314.839C202.405 314.959 202.429 315.078 202.475 315.189C202.521 315.3 202.588 315.401 202.673 315.486L205.414 318.227C205.499 318.312 205.6 318.38 205.711 318.426C205.822 318.472 205.941 318.496 206.061 318.496C206.182 318.496 206.301 318.472 206.412 318.426C206.523 318.38 206.623 318.312 206.708 318.227L211.277 313.658Z" fill="#28BC62"/>
<path d="M245.49 310.061V311.289H242.084V320.295H240.856V311.289H237.456V310.061H245.49ZM249.033 320.485C248.36 320.485 247.746 320.312 247.19 319.966C246.64 319.62 246.198 319.157 245.867 318.577C245.541 317.993 245.377 317.347 245.377 316.64C245.377 316.104 245.472 315.604 245.662 315.141C245.852 314.674 246.113 314.264 246.445 313.913C246.781 313.557 247.171 313.28 247.614 313.08C248.058 312.88 248.531 312.78 249.033 312.78C249.583 312.78 250.088 312.892 250.546 313.116C251.009 313.336 251.404 313.643 251.73 314.038C252.062 314.432 252.308 314.89 252.469 315.412C252.634 315.933 252.695 316.491 252.651 317.086H246.686C246.744 317.5 246.881 317.871 247.095 318.197C247.31 318.519 247.583 318.775 247.914 318.965C248.25 319.155 248.623 319.252 249.033 319.257C249.471 319.257 249.868 319.145 250.224 318.921C250.58 318.692 250.868 318.38 251.087 317.985L252.337 318.278C252.045 318.926 251.603 319.457 251.014 319.871C250.424 320.281 249.764 320.485 249.033 320.485ZM246.649 316.121H251.416C251.377 315.712 251.245 315.339 251.021 315.003C250.797 314.661 250.512 314.388 250.166 314.184C249.82 313.979 249.442 313.877 249.033 313.877C248.623 313.877 248.248 313.977 247.907 314.176C247.566 314.376 247.283 314.647 247.059 314.988C246.839 315.324 246.703 315.702 246.649 316.121ZM253.812 320.295V309.329H255.04V320.295H253.812ZM259.941 320.485C259.269 320.485 258.655 320.312 258.099 319.966C257.548 319.62 257.107 319.157 256.776 318.577C256.449 317.993 256.286 317.347 256.286 316.64C256.286 316.104 256.381 315.604 256.571 315.141C256.761 314.674 257.022 314.264 257.353 313.913C257.69 313.557 258.08 313.28 258.523 313.08C258.967 312.88 259.439 312.78 259.941 312.78C260.492 312.78 260.997 312.892 261.455 313.116C261.918 313.336 262.312 313.643 262.639 314.038C262.97 314.432 263.217 314.89 263.377 315.412C263.543 315.933 263.604 316.491 263.56 317.086H257.595C257.653 317.5 257.79 317.871 258.004 318.197C258.219 318.519 258.491 318.775 258.823 318.965C259.159 319.155 259.532 319.252 259.941 319.257C260.38 319.257 260.777 319.145 261.133 318.921C261.489 318.692 261.776 318.38 261.996 317.985L263.246 318.278C262.953 318.926 262.512 319.457 261.923 319.871C261.333 320.281 260.672 320.485 259.941 320.485ZM257.558 316.121H262.325C262.286 315.712 262.154 315.339 261.93 315.003C261.706 314.661 261.421 314.388 261.075 314.184C260.728 313.979 260.351 313.877 259.941 313.877C259.532 313.877 259.157 313.977 258.816 314.176C258.474 314.376 258.192 314.647 257.968 314.988C257.748 315.324 257.612 315.702 257.558 316.121ZM266.02 323.951H264.792V312.985H266.02V314.235C266.269 313.806 266.6 313.46 267.014 313.197C267.429 312.929 267.921 312.795 268.491 312.795C269.022 312.795 269.52 312.895 269.983 313.094C270.45 313.294 270.86 313.572 271.211 313.928C271.562 314.279 271.837 314.686 272.037 315.149C272.237 315.612 272.337 316.109 272.337 316.64C272.337 317.171 272.237 317.671 272.037 318.139C271.837 318.607 271.562 319.018 271.211 319.374C270.86 319.725 270.45 320.001 269.983 320.2C269.52 320.4 269.022 320.5 268.491 320.5C267.921 320.5 267.429 320.369 267.014 320.105C266.6 319.837 266.269 319.489 266.02 319.06V323.951ZM268.477 313.986C268.004 313.986 267.59 314.106 267.234 314.345C266.878 314.583 266.603 314.903 266.408 315.302C266.218 315.702 266.123 316.148 266.123 316.64C266.123 317.127 266.218 317.573 266.408 317.978C266.603 318.382 266.876 318.704 267.227 318.943C267.582 319.182 267.999 319.301 268.477 319.301C268.949 319.301 269.383 319.184 269.778 318.95C270.173 318.711 270.489 318.392 270.728 317.993C270.967 317.588 271.087 317.137 271.087 316.64C271.087 316.153 270.97 315.709 270.736 315.31C270.502 314.905 270.187 314.583 269.793 314.345C269.398 314.106 268.959 313.986 268.477 313.986ZM279.95 315.748V320.295H278.722V316.019C278.722 315.648 278.632 315.312 278.452 315.01C278.271 314.708 278.03 314.469 277.728 314.293C277.426 314.113 277.089 314.023 276.719 314.023C276.353 314.023 276.017 314.113 275.71 314.293C275.408 314.469 275.167 314.708 274.986 315.01C274.806 315.312 274.716 315.648 274.716 316.019V320.295H273.488V309.329H274.716V313.899C274.974 313.557 275.301 313.287 275.696 313.087C276.09 312.882 276.519 312.78 276.982 312.78C277.528 312.78 278.025 312.914 278.474 313.182C278.927 313.445 279.285 313.801 279.548 314.25C279.816 314.698 279.95 315.197 279.95 315.748ZM284.486 320.485C283.814 320.485 283.2 320.312 282.644 319.966C282.093 319.62 281.652 319.157 281.321 318.577C280.994 317.993 280.831 317.347 280.831 316.64C280.831 316.104 280.926 315.604 281.116 315.141C281.306 314.674 281.567 314.264 281.898 313.913C282.235 313.557 282.624 313.28 283.068 313.08C283.511 312.88 283.984 312.78 284.486 312.78C285.159 312.78 285.77 312.953 286.321 313.299C286.877 313.645 287.318 314.111 287.644 314.695C287.976 315.28 288.141 315.929 288.141 316.64C288.141 317.171 288.046 317.668 287.856 318.131C287.666 318.594 287.403 319.004 287.067 319.36C286.735 319.711 286.348 319.986 285.904 320.186C285.466 320.386 284.993 320.485 284.486 320.485ZM284.486 319.257C284.944 319.257 285.356 319.138 285.722 318.899C286.092 318.655 286.382 318.336 286.592 317.941C286.806 317.542 286.913 317.108 286.913 316.64C286.913 316.162 286.804 315.724 286.584 315.324C286.37 314.925 286.08 314.605 285.714 314.367C285.349 314.128 284.939 314.008 284.486 314.008C284.028 314.008 283.616 314.13 283.251 314.374C282.885 314.613 282.595 314.932 282.381 315.332C282.166 315.731 282.059 316.167 282.059 316.64C282.059 317.127 282.169 317.571 282.388 317.971C282.607 318.365 282.902 318.68 283.273 318.914C283.643 319.143 284.048 319.257 284.486 319.257ZM295.814 315.748V320.295H294.586V316.019C294.586 315.648 294.495 315.312 294.315 315.01C294.135 314.708 293.893 314.469 293.591 314.293C293.289 314.113 292.953 314.023 292.582 314.023C292.217 314.023 291.881 314.113 291.574 314.293C291.271 314.469 291.03 314.708 290.85 315.01C290.67 315.312 290.579 315.648 290.579 316.019V320.295H289.351V312.985H290.579V313.899C290.838 313.557 291.164 313.287 291.559 313.087C291.954 312.882 292.383 312.78 292.846 312.78C293.391 312.78 293.889 312.914 294.337 313.182C294.79 313.445 295.148 313.801 295.412 314.25C295.68 314.698 295.814 315.197 295.814 315.748ZM302.055 312.985H303.356L299.357 323.951H298.056L299.379 320.295L296.755 312.985H298.1L299.993 318.607L302.055 312.985ZM311.756 310.061H313.24L316.961 320.295H315.66L314.9 318.205H310.096L309.344 320.295H308.035L311.756 310.061ZM310.55 316.976H314.446L312.494 311.632L310.55 316.976ZM322.731 318.365L323.828 318.958C323.496 319.421 323.075 319.791 322.563 320.069C322.056 320.347 321.505 320.485 320.911 320.485C320.238 320.485 319.624 320.312 319.068 319.966C318.518 319.62 318.077 319.157 317.745 318.577C317.419 317.993 317.255 317.347 317.255 316.64C317.255 316.104 317.35 315.604 317.541 315.141C317.731 314.674 317.991 314.264 318.323 313.913C318.659 313.557 319.049 313.28 319.492 313.08C319.936 312.88 320.409 312.78 320.911 312.78C321.505 312.78 322.056 312.919 322.563 313.197C323.075 313.475 323.496 313.847 323.828 314.315L322.731 314.907C322.497 314.62 322.219 314.398 321.898 314.242C321.576 314.086 321.247 314.008 320.911 314.008C320.457 314.008 320.046 314.13 319.675 314.374C319.31 314.613 319.02 314.932 318.805 315.332C318.591 315.731 318.484 316.167 318.484 316.64C318.484 317.113 318.591 317.549 318.805 317.949C319.025 318.343 319.317 318.66 319.683 318.899C320.053 319.138 320.462 319.257 320.911 319.257C321.271 319.257 321.61 319.174 321.927 319.009C322.244 318.843 322.512 318.629 322.731 318.365ZM328.934 314.213H327.275L327.268 320.295H326.039L326.047 314.213H324.789V312.985H326.047L326.039 310.689H327.268L327.275 312.985H328.934V314.213ZM330.173 312.985H331.402V320.295H330.173V312.985ZM330.802 311.793C330.607 311.793 330.444 311.73 330.312 311.603C330.181 311.476 330.115 311.318 330.115 311.128C330.115 310.938 330.181 310.779 330.312 310.653C330.444 310.526 330.605 310.463 330.795 310.463C330.985 310.463 331.146 310.526 331.277 310.653C331.409 310.779 331.475 310.938 331.475 311.128C331.475 311.318 331.409 311.476 331.277 311.603C331.151 311.73 330.992 311.793 330.802 311.793ZM336.831 320.295H335.259L332.591 312.97H333.899L336.041 318.87L338.183 312.97H339.492L336.831 320.295ZM343.599 320.485C342.927 320.485 342.313 320.312 341.757 319.966C341.206 319.62 340.765 319.157 340.434 318.577C340.107 317.993 339.944 317.347 339.944 316.64C339.944 316.104 340.039 315.604 340.229 315.141C340.419 314.674 340.68 314.264 341.011 313.913C341.348 313.557 341.738 313.28 342.181 313.08C342.625 312.88 343.097 312.78 343.599 312.78C344.15 312.78 344.654 312.892 345.113 313.116C345.576 313.336 345.97 313.643 346.297 314.038C346.628 314.432 346.874 314.89 347.035 315.412C347.201 315.933 347.262 316.491 347.218 317.086H341.253C341.311 317.5 341.448 317.871 341.662 318.197C341.876 318.519 342.149 318.775 342.481 318.965C342.817 319.155 343.19 319.252 343.599 319.257C344.038 319.257 344.435 319.145 344.791 318.921C345.147 318.692 345.434 318.38 345.654 317.985L346.904 318.278C346.611 318.926 346.17 319.457 345.58 319.871C344.991 320.281 344.33 320.485 343.599 320.485ZM341.216 316.121H345.983C345.944 315.712 345.812 315.339 345.588 315.003C345.364 314.661 345.078 314.388 344.732 314.184C344.386 313.979 344.009 313.877 343.599 313.877C343.19 313.877 342.815 313.977 342.473 314.176C342.132 314.376 341.85 314.647 341.625 314.988C341.406 315.324 341.27 315.702 341.216 316.121Z" fill="#0C1021"/>
<rect x="214.386" y="373.883" width="214.316" height="51.1743" rx="25.5871" fill="white"/>
<rect x="214.843" y="374.34" width="213.402" height="50.2605" rx="25.1302" stroke="#2D2D2D" stroke-opacity="0.1" stroke-width="0.913826"/>
<rect x="221.696" y="381.193" width="36.5588" height="36.5531" rx="18.2765" fill="#3DEC82" fill-opacity="0.15"/>
<rect x="222.153" y="381.65" width="35.6449" height="35.6392" rx="17.8196" stroke="#28BC62" stroke-opacity="0.1" stroke-width="0.913826"/>
<path d="M230.837 399.47C230.837 397.046 231.8 394.722 233.513 393.008C235.227 391.294 237.552 390.332 239.975 390.332C242.399 390.332 244.723 391.294 246.437 393.008C248.151 394.722 249.113 397.046 249.113 399.47C249.113 401.893 248.151 404.218 246.437 405.932C244.723 407.645 242.399 408.608 239.975 408.608C237.552 408.608 235.227 407.645 233.513 405.932C231.8 404.218 230.837 401.893 230.837 399.47ZM244.277 397.832C244.362 397.747 244.43 397.646 244.476 397.535C244.522 397.424 244.545 397.305 244.545 397.185C244.545 397.065 244.522 396.946 244.476 396.835C244.43 396.724 244.362 396.623 244.277 396.538C244.193 396.453 244.092 396.386 243.981 396.34C243.87 396.294 243.751 396.27 243.63 396.27C243.51 396.27 243.391 396.294 243.28 396.34C243.169 396.386 243.068 396.453 242.983 396.538L239.061 400.462L236.967 398.366C236.882 398.281 236.781 398.214 236.67 398.168C236.559 398.122 236.44 398.098 236.32 398.098C236.2 398.098 236.081 398.122 235.97 398.168C235.859 398.214 235.758 398.281 235.673 398.366C235.588 398.451 235.521 398.552 235.475 398.663C235.429 398.774 235.405 398.893 235.405 399.013C235.405 399.133 235.429 399.252 235.475 399.363C235.521 399.474 235.588 399.575 235.673 399.66L238.414 402.401C238.499 402.486 238.6 402.554 238.711 402.6C238.822 402.646 238.941 402.67 239.061 402.67C239.182 402.67 239.301 402.646 239.412 402.6C239.523 402.554 239.623 402.486 239.708 402.401L244.277 397.832Z" fill="#28BC62"/>
<path d="M275.507 404.66C274.815 404.66 274.164 404.523 273.555 404.25C272.945 403.973 272.409 403.592 271.946 403.11C271.488 402.623 271.128 402.057 270.864 401.414C270.606 400.771 270.477 400.083 270.477 399.352C270.477 398.621 270.606 397.934 270.864 397.291C271.128 396.647 271.488 396.084 271.946 395.602C272.409 395.115 272.945 394.734 273.555 394.461C274.164 394.184 274.815 394.045 275.507 394.045C276.335 394.045 277.098 394.237 277.795 394.622C278.492 395.007 279.069 395.519 279.527 396.158L278.438 396.742C278.097 396.294 277.666 395.938 277.144 395.675C276.628 395.407 276.082 395.273 275.507 395.273C274.975 395.273 274.478 395.38 274.015 395.595C273.557 395.809 273.155 396.104 272.809 396.479C272.463 396.855 272.192 397.288 271.998 397.781C271.803 398.273 271.705 398.797 271.705 399.352C271.705 399.913 271.803 400.439 271.998 400.931C272.197 401.424 272.47 401.857 272.816 402.233C273.167 402.608 273.572 402.903 274.03 403.117C274.493 403.327 274.985 403.432 275.507 403.432C276.101 403.432 276.652 403.298 277.159 403.03C277.671 402.757 278.097 402.401 278.438 401.962L279.527 402.554C279.069 403.193 278.492 403.705 277.795 404.09C277.098 404.47 276.335 404.66 275.507 404.66ZM286.485 397.159H287.713V404.47H286.485L286.434 403.234C286.205 403.658 285.888 404.002 285.483 404.265C285.084 404.528 284.606 404.66 284.051 404.66C283.514 404.66 283.012 404.56 282.545 404.36C282.077 404.155 281.662 403.875 281.302 403.519C280.946 403.159 280.668 402.744 280.468 402.277C280.269 401.809 280.169 401.304 280.169 400.763C280.169 400.242 280.266 399.75 280.461 399.287C280.656 398.823 280.926 398.419 281.273 398.073C281.623 397.722 282.028 397.449 282.486 397.254C282.944 397.054 283.436 396.954 283.963 396.954C284.538 396.954 285.042 397.091 285.476 397.364C285.91 397.632 286.261 397.98 286.529 398.409L286.485 397.159ZM284.029 403.468C284.511 403.468 284.928 403.351 285.279 403.117C285.635 402.878 285.907 402.557 286.098 402.152C286.292 401.748 286.39 401.302 286.39 400.814C286.39 400.317 286.292 399.869 286.098 399.469C285.903 399.065 285.627 398.746 285.271 398.512C284.921 398.273 284.506 398.153 284.029 398.153C283.546 398.153 283.107 398.273 282.713 398.512C282.318 398.75 282.004 399.072 281.77 399.477C281.541 399.876 281.426 400.322 281.426 400.814C281.426 401.307 281.545 401.755 281.784 402.16C282.023 402.559 282.34 402.878 282.735 403.117C283.129 403.351 283.561 403.468 284.029 403.468ZM289.26 404.47V393.504H290.488V404.47H289.26ZM292.244 404.47V393.504H293.472V404.47H292.244ZM298.741 404.47V394.235H299.969V403.242H304.553V404.47H298.741ZM308.669 404.66C307.996 404.66 307.382 404.487 306.826 404.141C306.276 403.795 305.834 403.332 305.503 402.752C305.177 402.167 305.013 401.521 305.013 400.814C305.013 400.278 305.108 399.779 305.298 399.316C305.488 398.848 305.749 398.438 306.081 398.088C306.417 397.732 306.807 397.454 307.25 397.254C307.694 397.054 308.167 396.954 308.669 396.954C309.341 396.954 309.953 397.127 310.504 397.473C311.059 397.82 311.5 398.285 311.827 398.87C312.158 399.455 312.324 400.103 312.324 400.814C312.324 401.346 312.229 401.843 312.039 402.306C311.849 402.769 311.585 403.178 311.249 403.534C310.918 403.885 310.53 404.16 310.087 404.36C309.648 404.56 309.175 404.66 308.669 404.66ZM308.669 403.432C309.127 403.432 309.539 403.312 309.904 403.073C310.274 402.83 310.564 402.51 310.774 402.116C310.988 401.716 311.096 401.282 311.096 400.814C311.096 400.337 310.986 399.898 310.767 399.499C310.552 399.099 310.262 398.78 309.897 398.541C309.531 398.302 309.122 398.183 308.669 398.183C308.21 398.183 307.799 398.304 307.433 398.548C307.068 398.787 306.778 399.106 306.563 399.506C306.349 399.905 306.241 400.342 306.241 400.814C306.241 401.302 306.351 401.745 306.57 402.145C306.79 402.54 307.085 402.854 307.455 403.088C307.825 403.317 308.23 403.432 308.669 403.432ZM319.2 397.159H320.428V404.704C320.428 405.186 320.324 405.635 320.114 406.049C319.909 406.468 319.632 406.831 319.281 407.138C318.93 407.45 318.53 407.691 318.082 407.862C317.633 408.037 317.166 408.125 316.678 408.125C316.171 408.125 315.681 408.01 315.209 407.781C314.736 407.557 314.322 407.255 313.966 406.875C313.615 406.5 313.362 406.078 313.206 405.61L314.331 405.098C314.424 405.435 314.59 405.737 314.829 406.005C315.072 406.278 315.355 406.492 315.677 406.648C316.003 406.809 316.337 406.89 316.678 406.89C317 406.89 317.309 406.833 317.607 406.721C317.909 406.609 318.179 406.453 318.418 406.254C318.662 406.059 318.852 405.827 318.988 405.559C319.13 405.296 319.2 405.011 319.2 404.704V403.249C318.952 403.668 318.623 404.009 318.213 404.272C317.809 404.531 317.336 404.66 316.795 404.66C316.278 404.66 315.794 404.56 315.34 404.36C314.887 404.16 314.49 403.885 314.149 403.534C313.808 403.178 313.539 402.769 313.345 402.306C313.15 401.843 313.052 401.346 313.052 400.814C313.052 400.283 313.15 399.786 313.345 399.323C313.539 398.855 313.808 398.446 314.149 398.095C314.49 397.739 314.887 397.461 315.34 397.261C315.794 397.062 316.278 396.962 316.795 396.962C317.336 396.962 317.809 397.091 318.213 397.349C318.623 397.607 318.952 397.949 319.2 398.373V397.159ZM316.802 403.468C317.275 403.468 317.685 403.346 318.031 403.103C318.382 402.859 318.652 402.535 318.842 402.13C319.032 401.726 319.127 401.287 319.127 400.814C319.127 400.327 319.03 399.884 318.835 399.484C318.645 399.079 318.374 398.758 318.023 398.519C317.677 398.275 317.27 398.153 316.802 398.153C316.344 398.153 315.925 398.273 315.545 398.512C315.165 398.75 314.863 399.072 314.638 399.477C314.419 399.876 314.31 400.322 314.31 400.814C314.31 401.307 314.422 401.755 314.646 402.16C314.875 402.559 315.177 402.878 315.552 403.117C315.932 403.351 316.349 403.468 316.802 403.468ZM322.086 397.159H323.315V404.47H322.086V397.159ZM322.715 395.967C322.52 395.967 322.357 395.904 322.225 395.777C322.094 395.651 322.028 395.492 322.028 395.302C322.028 395.112 322.094 394.954 322.225 394.827C322.357 394.7 322.518 394.637 322.708 394.637C322.898 394.637 323.059 394.7 323.19 394.827C323.322 394.954 323.388 395.112 323.388 395.302C323.388 395.492 323.322 395.651 323.19 395.777C323.064 395.904 322.905 395.967 322.715 395.967ZM330.008 402.54L331.104 403.132C330.773 403.595 330.351 403.965 329.84 404.243C329.333 404.521 328.782 404.66 328.187 404.66C327.515 404.66 326.901 404.487 326.345 404.141C325.794 403.795 325.353 403.332 325.022 402.752C324.695 402.167 324.532 401.521 324.532 400.814C324.532 400.278 324.627 399.779 324.817 399.316C325.007 398.848 325.268 398.438 325.599 398.088C325.936 397.732 326.326 397.454 326.769 397.254C327.213 397.054 327.685 396.954 328.187 396.954C328.782 396.954 329.333 397.093 329.84 397.371C330.351 397.649 330.773 398.022 331.104 398.49L330.008 399.082C329.774 398.794 329.496 398.573 329.174 398.417C328.853 398.261 328.524 398.183 328.187 398.183C327.734 398.183 327.322 398.304 326.952 398.548C326.586 398.787 326.296 399.106 326.082 399.506C325.867 399.905 325.76 400.342 325.76 400.814C325.76 401.287 325.867 401.723 326.082 402.123C326.301 402.518 326.594 402.835 326.959 403.073C327.33 403.312 327.739 403.432 328.187 403.432C328.548 403.432 328.887 403.349 329.204 403.183C329.52 403.017 329.788 402.803 330.008 402.54ZM340.674 404.66C339.982 404.66 339.331 404.523 338.722 404.25C338.113 403.973 337.577 403.592 337.114 403.11C336.655 402.623 336.295 402.057 336.032 401.414C335.773 400.771 335.644 400.083 335.644 399.352C335.644 398.621 335.773 397.934 336.032 397.291C336.295 396.647 336.655 396.084 337.114 395.602C337.577 395.115 338.113 394.734 338.722 394.461C339.331 394.184 339.982 394.045 340.674 394.045C341.502 394.045 342.265 394.237 342.962 394.622C343.659 395.007 344.237 395.519 344.695 396.158L343.605 396.742C343.264 396.294 342.833 395.938 342.311 395.675C341.795 395.407 341.249 395.273 340.674 395.273C340.143 395.273 339.645 395.38 339.182 395.595C338.724 395.809 338.322 396.104 337.976 396.479C337.63 396.855 337.36 397.288 337.165 397.781C336.97 398.273 336.872 398.797 336.872 399.352C336.872 399.913 336.97 400.439 337.165 400.931C337.365 401.424 337.638 401.857 337.984 402.233C338.334 402.608 338.739 402.903 339.197 403.117C339.66 403.327 340.152 403.432 340.674 403.432C341.268 403.432 341.819 403.298 342.326 403.03C342.838 402.757 343.264 402.401 343.605 401.962L344.695 402.554C344.237 403.193 343.659 403.705 342.962 404.09C342.265 404.47 341.502 404.66 340.674 404.66ZM348.991 404.66C348.319 404.66 347.704 404.487 347.149 404.141C346.598 403.795 346.157 403.332 345.826 402.752C345.499 402.167 345.336 401.521 345.336 400.814C345.336 400.278 345.431 399.779 345.621 399.316C345.811 398.848 346.072 398.438 346.403 398.088C346.739 397.732 347.129 397.454 347.573 397.254C348.016 397.054 348.489 396.954 348.991 396.954C349.664 396.954 350.275 397.127 350.826 397.473C351.382 397.82 351.823 398.285 352.149 398.87C352.481 399.455 352.646 400.103 352.646 400.814C352.646 401.346 352.551 401.843 352.361 402.306C352.171 402.769 351.908 403.178 351.572 403.534C351.24 403.885 350.853 404.16 350.409 404.36C349.971 404.56 349.498 404.66 348.991 404.66ZM348.991 403.432C349.449 403.432 349.861 403.312 350.227 403.073C350.597 402.83 350.887 402.51 351.097 402.116C351.311 401.716 351.418 401.282 351.418 400.814C351.418 400.337 351.309 399.898 351.089 399.499C350.875 399.099 350.585 398.78 350.219 398.541C349.854 398.302 349.444 398.183 348.991 398.183C348.533 398.183 348.121 398.304 347.756 398.548C347.39 398.787 347.1 399.106 346.886 399.506C346.671 399.905 346.564 400.342 346.564 400.814C346.564 401.302 346.674 401.745 346.893 402.145C347.112 402.54 347.407 402.854 347.778 403.088C348.148 403.317 348.553 403.432 348.991 403.432ZM360.319 399.923V404.47H359.091V400.193C359.091 399.823 359 399.486 358.82 399.184C358.64 398.882 358.398 398.643 358.096 398.468C357.794 398.287 357.458 398.197 357.087 398.197C356.722 398.197 356.386 398.287 356.079 398.468C355.776 398.643 355.535 398.882 355.355 399.184C355.174 399.486 355.084 399.823 355.084 400.193V404.47H353.856V397.159H355.084V398.073C355.343 397.732 355.669 397.461 356.064 397.261C356.459 397.057 356.888 396.954 357.351 396.954C357.896 396.954 358.394 397.088 358.842 397.357C359.295 397.62 359.653 397.975 359.917 398.424C360.185 398.872 360.319 399.372 360.319 399.923ZM363.44 395.353V397.159H365.582V398.387H363.44V404.47H362.212V398.387H361.269V397.159H362.212V395.353C362.212 394.978 362.302 394.639 362.483 394.337C362.668 394.03 362.914 393.786 363.221 393.606C363.533 393.421 363.874 393.328 364.244 393.328C364.517 393.328 364.783 393.384 365.041 393.496C365.3 393.604 365.529 393.765 365.728 393.979L364.851 394.849C364.783 394.756 364.693 394.686 364.581 394.637C364.473 394.583 364.361 394.557 364.244 394.557C364.025 394.557 363.835 394.635 363.674 394.79C363.518 394.946 363.44 395.134 363.44 395.353ZM366.707 397.159H367.935V404.47H366.707V397.159ZM367.336 395.967C367.141 395.967 366.977 395.904 366.846 395.777C366.714 395.651 366.648 395.492 366.648 395.302C366.648 395.112 366.714 394.954 366.846 394.827C366.977 394.7 367.138 394.637 367.328 394.637C367.518 394.637 367.679 394.7 367.811 394.827C367.942 394.954 368.008 395.112 368.008 395.302C368.008 395.492 367.942 395.651 367.811 395.777C367.684 395.904 367.526 395.967 367.336 395.967ZM375.301 397.159H376.529V404.704C376.529 405.186 376.424 405.635 376.215 406.049C376.01 406.468 375.732 406.831 375.381 407.138C375.03 407.45 374.631 407.691 374.182 407.862C373.734 408.037 373.266 408.125 372.779 408.125C372.272 408.125 371.782 408.01 371.309 407.781C370.836 407.557 370.422 407.255 370.066 406.875C369.715 406.5 369.462 406.078 369.306 405.61L370.432 405.098C370.524 405.435 370.69 405.737 370.929 406.005C371.173 406.278 371.455 406.492 371.777 406.648C372.104 406.809 372.437 406.89 372.779 406.89C373.1 406.89 373.41 406.833 373.707 406.721C374.009 406.609 374.28 406.453 374.518 406.254C374.762 406.059 374.952 405.827 375.089 405.559C375.23 405.296 375.301 405.011 375.301 404.704V403.249C375.052 403.668 374.723 404.009 374.314 404.272C373.909 404.531 373.436 404.66 372.895 404.66C372.379 404.66 371.894 404.56 371.441 404.36C370.987 404.16 370.59 403.885 370.249 403.534C369.908 403.178 369.64 402.769 369.445 402.306C369.25 401.843 369.152 401.346 369.152 400.814C369.152 400.283 369.25 399.786 369.445 399.323C369.64 398.855 369.908 398.446 370.249 398.095C370.59 397.739 370.987 397.461 371.441 397.261C371.894 397.062 372.379 396.962 372.895 396.962C373.436 396.962 373.909 397.091 374.314 397.349C374.723 397.607 375.052 397.949 375.301 398.373V397.159ZM372.903 403.468C373.376 403.468 373.785 403.346 374.131 403.103C374.482 402.859 374.752 402.535 374.942 402.13C375.133 401.726 375.228 401.287 375.228 400.814C375.228 400.327 375.13 399.884 374.935 399.484C374.745 399.079 374.475 398.758 374.124 398.519C373.778 398.275 373.371 398.153 372.903 398.153C372.445 398.153 372.026 398.273 371.645 398.512C371.265 398.75 370.963 399.072 370.739 399.477C370.52 399.876 370.41 400.322 370.41 400.814C370.41 401.307 370.522 401.755 370.746 402.16C370.975 402.559 371.277 402.878 371.653 403.117C372.033 403.351 372.45 403.468 372.903 403.468ZM377.866 401.692V397.159H379.094V401.421C379.094 401.792 379.184 402.128 379.364 402.43C379.545 402.732 379.786 402.973 380.088 403.154C380.395 403.329 380.732 403.417 381.097 403.417C381.467 403.417 381.801 403.329 382.099 403.154C382.401 402.973 382.642 402.732 382.822 402.43C383.003 402.128 383.093 401.792 383.093 401.421V397.159H384.321L384.328 404.47H383.1L383.093 403.541C382.835 403.882 382.508 404.155 382.113 404.36C381.718 404.56 381.292 404.66 380.834 404.66C380.288 404.66 379.788 404.528 379.335 404.265C378.887 403.997 378.529 403.639 378.261 403.19C377.997 402.742 377.866 402.242 377.866 401.692ZM385.797 404.47V397.159H387.025V398.073C387.284 397.732 387.61 397.461 388.005 397.261C388.4 397.057 388.829 396.954 389.292 396.954C389.574 396.954 389.847 396.991 390.11 397.064L389.613 398.292C389.414 398.229 389.219 398.197 389.029 398.197C388.663 398.197 388.327 398.287 388.02 398.468C387.717 398.643 387.476 398.882 387.296 399.184C387.116 399.486 387.025 399.823 387.025 400.193V404.47H385.797ZM393.854 404.66C393.182 404.66 392.568 404.487 392.012 404.141C391.461 403.795 391.02 403.332 390.689 402.752C390.362 402.167 390.199 401.521 390.199 400.814C390.199 400.278 390.294 399.779 390.484 399.316C390.674 398.848 390.935 398.438 391.266 398.088C391.603 397.732 391.993 397.454 392.436 397.254C392.88 397.054 393.352 396.954 393.854 396.954C394.405 396.954 394.909 397.067 395.368 397.291C395.831 397.51 396.225 397.817 396.552 398.212C396.883 398.607 397.129 399.065 397.29 399.586C397.456 400.108 397.517 400.666 397.473 401.26H391.508C391.566 401.675 391.703 402.045 391.917 402.372C392.131 402.693 392.404 402.949 392.736 403.139C393.072 403.329 393.445 403.427 393.854 403.432C394.293 403.432 394.69 403.32 395.046 403.095C395.402 402.866 395.689 402.554 395.909 402.16L397.159 402.452C396.866 403.1 396.425 403.631 395.835 404.046C395.246 404.455 394.585 404.66 393.854 404.66ZM391.471 400.295H396.238C396.199 399.886 396.067 399.513 395.843 399.177C395.619 398.836 395.333 398.563 394.987 398.358C394.641 398.153 394.264 398.051 393.854 398.051C393.445 398.051 393.07 398.151 392.728 398.351C392.387 398.551 392.105 398.821 391.88 399.162C391.661 399.499 391.525 399.876 391.471 400.295ZM404.547 393.504H405.775V404.47H404.547V403.227C404.299 403.656 403.965 404.002 403.546 404.265C403.127 404.528 402.634 404.66 402.069 404.66C401.538 404.66 401.041 404.56 400.578 404.36C400.115 404.16 399.705 403.885 399.349 403.534C398.998 403.178 398.723 402.769 398.523 402.306C398.323 401.843 398.224 401.346 398.224 400.814C398.224 400.283 398.323 399.786 398.523 399.323C398.723 398.855 398.998 398.446 399.349 398.095C399.705 397.739 400.115 397.461 400.578 397.261C401.041 397.062 401.538 396.962 402.069 396.962C402.634 396.962 403.127 397.093 403.546 397.357C403.965 397.62 404.299 397.966 404.547 398.395V393.504ZM402.084 403.468C402.566 403.468 402.983 403.351 403.334 403.117C403.689 402.878 403.962 402.557 404.152 402.152C404.347 401.748 404.445 401.302 404.445 400.814C404.445 400.317 404.347 399.869 404.152 399.469C403.958 399.065 403.682 398.746 403.326 398.512C402.975 398.273 402.561 398.153 402.084 398.153C401.601 398.153 401.162 398.273 400.768 398.512C400.378 398.75 400.066 399.072 399.832 399.477C399.598 399.876 399.481 400.322 399.481 400.814C399.481 401.307 399.6 401.755 399.839 402.16C400.078 402.559 400.395 402.878 400.79 403.117C401.184 403.351 401.616 403.468 402.084 403.468Z" fill="#0C1021"/>
<path d="M131.513 61.0205C130.593 61.0205 129.709 60.8765 128.861 60.5885C128.013 60.3005 127.273 59.8885 126.641 59.3525C126.009 58.8085 125.557 58.1645 125.285 57.4205L127.625 56.5445C127.761 56.9285 128.021 57.2725 128.405 57.5765C128.797 57.8725 129.261 58.1045 129.797 58.2725C130.341 58.4405 130.913 58.5245 131.513 58.5245C132.153 58.5245 132.753 58.4205 133.313 58.2125C133.881 58.0045 134.337 57.7165 134.681 57.3485C135.033 56.9805 135.209 56.5485 135.209 56.0525C135.209 55.5405 135.025 55.1205 134.657 54.7925C134.297 54.4645 133.833 54.2045 133.265 54.0125C132.705 53.8205 132.121 53.6765 131.513 53.5805C130.337 53.3885 129.281 53.1085 128.345 52.7405C127.417 52.3725 126.681 51.8565 126.137 51.1925C125.601 50.5285 125.333 49.6645 125.333 48.6005C125.333 47.6005 125.617 46.7285 126.185 45.9845C126.761 45.2405 127.517 44.6645 128.453 44.2565C129.397 43.8405 130.417 43.6325 131.513 43.6325C132.417 43.6325 133.289 43.7765 134.129 44.0645C134.977 44.3445 135.721 44.7565 136.361 45.3005C137.009 45.8365 137.473 46.4885 137.753 47.2565L135.389 48.1085C135.253 47.7165 134.993 47.3765 134.609 47.0885C134.225 46.7925 133.761 46.5605 133.217 46.3925C132.681 46.2245 132.113 46.1405 131.513 46.1405C130.873 46.1325 130.273 46.2365 129.713 46.4525C129.161 46.6605 128.709 46.9485 128.357 47.3165C128.005 47.6845 127.829 48.1125 127.829 48.6005C127.829 49.2005 127.993 49.6565 128.321 49.9685C128.649 50.2805 129.089 50.5125 129.641 50.6645C130.201 50.8085 130.825 50.9405 131.513 51.0605C132.617 51.2365 133.637 51.5285 134.573 51.9365C135.517 52.3445 136.273 52.8885 136.841 53.5685C137.417 54.2405 137.705 55.0685 137.705 56.0525C137.705 57.0445 137.417 57.9165 136.841 58.6685C136.273 59.4125 135.517 59.9925 134.573 60.4085C133.637 60.8165 132.617 61.0205 131.513 61.0205ZM147.807 48.7085H150.471L143.895 66.7085H141.243L143.415 60.7085L139.107 48.7085H141.831L144.663 57.2885L147.807 48.7085ZM155.867 60.9365C155.235 60.8965 154.619 60.7685 154.019 60.5525C153.419 60.3365 152.891 60.0445 152.435 59.6765C151.987 59.3005 151.651 58.8605 151.427 58.3565L153.551 57.4445C153.655 57.6605 153.835 57.8725 154.091 58.0805C154.355 58.2885 154.663 58.4605 155.015 58.5965C155.367 58.7245 155.735 58.7885 156.119 58.7885C156.495 58.7885 156.843 58.7365 157.163 58.6325C157.491 58.5205 157.759 58.3525 157.967 58.1285C158.175 57.9045 158.279 57.6365 158.279 57.3245C158.279 56.9725 158.159 56.7005 157.919 56.5085C157.687 56.3085 157.395 56.1565 157.043 56.0525C156.691 55.9485 156.339 55.8485 155.987 55.7525C155.203 55.5765 154.483 55.3365 153.827 55.0325C153.179 54.7205 152.663 54.3245 152.279 53.8445C151.895 53.3565 151.703 52.7605 151.703 52.0565C151.703 51.2885 151.911 50.6245 152.327 50.0645C152.743 49.4965 153.287 49.0605 153.959 48.7565C154.639 48.4525 155.363 48.3005 156.131 48.3005C157.091 48.3005 157.971 48.5045 158.771 48.9125C159.571 49.3205 160.183 49.8805 160.607 50.5925L158.627 51.7685C158.507 51.5285 158.327 51.3125 158.087 51.1205C157.847 50.9285 157.575 50.7765 157.271 50.6645C156.967 50.5445 156.651 50.4765 156.323 50.4605C155.915 50.4445 155.535 50.4925 155.183 50.6045C154.839 50.7085 154.563 50.8765 154.355 51.1085C154.147 51.3405 154.043 51.6365 154.043 51.9965C154.043 52.3485 154.167 52.6125 154.415 52.7885C154.663 52.9565 154.975 53.0925 155.351 53.1965C155.735 53.3005 156.127 53.4165 156.527 53.5445C157.239 53.7685 157.907 54.0445 158.531 54.3725C159.155 54.6925 159.659 55.0885 160.043 55.5605C160.427 56.0325 160.611 56.6085 160.595 57.2885C160.595 58.0405 160.367 58.7005 159.911 59.2685C159.463 59.8365 158.879 60.2685 158.159 60.5645C157.439 60.8605 156.675 60.9845 155.867 60.9365ZM168.986 51.2045H166.466L166.454 60.7085H163.958L163.97 51.2045H162.062V48.7085H163.97L163.958 44.9405H166.454L166.466 48.7085H168.986V51.2045ZM176.133 61.0205C175.029 61.0205 174.021 60.7365 173.109 60.1685C172.205 59.6005 171.481 58.8405 170.937 57.8885C170.401 56.9285 170.133 55.8685 170.133 54.7085C170.133 53.8285 170.289 53.0085 170.601 52.2485C170.913 51.4805 171.341 50.8085 171.885 50.2325C172.437 49.6485 173.077 49.1925 173.805 48.8645C174.533 48.5365 175.309 48.3725 176.133 48.3725C177.053 48.3725 177.897 48.5645 178.665 48.9485C179.433 49.3245 180.089 49.8485 180.633 50.5205C181.177 51.1845 181.577 51.9525 181.833 52.8245C182.089 53.6885 182.165 54.6085 182.061 55.5845H172.809C172.913 56.1365 173.113 56.6365 173.409 57.0845C173.713 57.5245 174.097 57.8725 174.561 58.1285C175.033 58.3845 175.557 58.5165 176.133 58.5245C176.741 58.5245 177.293 58.3725 177.789 58.0685C178.293 57.7645 178.705 57.3445 179.025 56.8085L181.557 57.3965C181.077 58.4605 180.353 59.3325 179.385 60.0125C178.417 60.6845 177.333 61.0205 176.133 61.0205ZM172.725 53.6765H179.541C179.461 53.1005 179.257 52.5805 178.929 52.1165C178.609 51.6445 178.205 51.2725 177.717 51.0005C177.237 50.7205 176.709 50.5805 176.133 50.5805C175.565 50.5805 175.037 50.7165 174.549 50.9885C174.069 51.2605 173.669 51.6325 173.349 52.1045C173.037 52.5685 172.829 53.0925 172.725 53.6765ZM184.048 60.7085V48.7085H186.544V49.9805C186.96 49.4845 187.468 49.0925 188.068 48.8045C188.676 48.5165 189.332 48.3725 190.036 48.3725C190.892 48.3725 191.68 48.5805 192.4 48.9965C193.12 49.4045 193.692 49.9485 194.116 50.6285C194.54 49.9485 195.104 49.4045 195.808 48.9965C196.52 48.5805 197.304 48.3725 198.16 48.3725C199.048 48.3725 199.856 48.5885 200.584 49.0205C201.312 49.4525 201.892 50.0325 202.324 50.7605C202.756 51.4885 202.972 52.2965 202.972 53.1845V60.7085H200.476V53.8205C200.476 53.2925 200.348 52.8085 200.092 52.3685C199.836 51.9285 199.492 51.5725 199.06 51.3005C198.628 51.0285 198.148 50.8925 197.62 50.8925C197.092 50.8925 196.612 51.0205 196.18 51.2765C195.748 51.5325 195.404 51.8805 195.148 52.3205C194.892 52.7605 194.764 53.2605 194.764 53.8205V60.7085H192.268V53.8205C192.268 53.2605 192.14 52.7605 191.884 52.3205C191.628 51.8805 191.28 51.5325 190.84 51.2765C190.408 51.0205 189.928 50.8925 189.4 50.8925C188.88 50.8925 188.4 51.0285 187.96 51.3005C187.528 51.5725 187.184 51.9285 186.928 52.3685C186.672 52.8085 186.544 53.2925 186.544 53.8205V60.7085H184.048ZM211.142 60.7085V43.9085H216.698C217.858 43.9085 218.946 44.1285 219.962 44.5685C220.978 45.0005 221.87 45.6045 222.638 46.3805C223.406 47.1485 224.006 48.0405 224.438 49.0565C224.878 50.0645 225.098 51.1485 225.098 52.3085C225.098 53.4685 224.878 54.5565 224.438 55.5725C224.006 56.5805 223.406 57.4725 222.638 58.2485C221.87 59.0165 220.978 59.6205 219.962 60.0605C218.946 60.4925 217.858 60.7085 216.698 60.7085H211.142ZM213.638 58.2125H216.698C217.514 58.2125 218.274 58.0605 218.978 57.7565C219.69 57.4525 220.318 57.0285 220.862 56.4845C221.414 55.9405 221.842 55.3125 222.146 54.6005C222.45 53.8885 222.602 53.1245 222.602 52.3085C222.602 51.4925 222.45 50.7285 222.146 50.0165C221.842 49.3045 221.414 48.6765 220.862 48.1325C220.318 47.5885 219.69 47.1645 218.978 46.8605C218.274 46.5565 217.514 46.4045 216.698 46.4045H213.638V58.2125ZM232.266 61.0205C231.162 61.0205 230.154 60.7365 229.242 60.1685C228.338 59.6005 227.614 58.8405 227.07 57.8885C226.534 56.9285 226.266 55.8685 226.266 54.7085C226.266 53.8285 226.422 53.0085 226.734 52.2485C227.046 51.4805 227.474 50.8085 228.018 50.2325C228.57 49.6485 229.21 49.1925 229.938 48.8645C230.666 48.5365 231.442 48.3725 232.266 48.3725C233.186 48.3725 234.03 48.5645 234.798 48.9485C235.566 49.3245 236.222 49.8485 236.766 50.5205C237.31 51.1845 237.71 51.9525 237.966 52.8245C238.222 53.6885 238.298 54.6085 238.194 55.5845H228.942C229.046 56.1365 229.246 56.6365 229.542 57.0845C229.846 57.5245 230.23 57.8725 230.694 58.1285C231.166 58.3845 231.69 58.5165 232.266 58.5245C232.874 58.5245 233.426 58.3725 233.922 58.0685C234.426 57.7645 234.838 57.3445 235.158 56.8085L237.69 57.3965C237.21 58.4605 236.486 59.3325 235.518 60.0125C234.55 60.6845 233.466 61.0205 232.266 61.0205ZM228.858 53.6765H235.674C235.594 53.1005 235.39 52.5805 235.062 52.1165C234.742 51.6445 234.338 51.2725 233.85 51.0005C233.37 50.7205 232.842 50.5805 232.266 50.5805C231.698 50.5805 231.17 50.7165 230.682 50.9885C230.202 51.2605 229.802 51.6325 229.482 52.1045C229.17 52.5685 228.962 53.0925 228.858 53.6765ZM242.677 66.7085H240.181V48.7085H242.677V50.4725C243.077 49.8565 243.589 49.3565 244.213 48.9725C244.837 48.5885 245.573 48.3965 246.421 48.3965C247.293 48.3965 248.109 48.5605 248.869 48.8885C249.637 49.2165 250.309 49.6725 250.885 50.2565C251.461 50.8325 251.913 51.5005 252.241 52.2605C252.569 53.0205 252.733 53.8365 252.733 54.7085C252.733 55.5805 252.569 56.4005 252.241 57.1685C251.913 57.9365 251.461 58.6125 250.885 59.1965C250.309 59.7725 249.637 60.2245 248.869 60.5525C248.109 60.8805 247.293 61.0445 246.421 61.0445C245.573 61.0445 244.837 60.8525 244.213 60.4685C243.589 60.0765 243.077 59.5765 242.677 58.9685V66.7085ZM246.397 50.8085C245.701 50.8085 245.089 50.9845 244.561 51.3365C244.033 51.6885 243.621 52.1605 243.325 52.7525C243.029 53.3365 242.881 53.9885 242.881 54.7085C242.881 55.4285 243.029 56.0845 243.325 56.6765C243.621 57.2685 244.033 57.7405 244.561 58.0925C245.089 58.4445 245.701 58.6205 246.397 58.6205C247.085 58.6205 247.717 58.4485 248.293 58.1045C248.869 57.7525 249.329 57.2805 249.673 56.6885C250.017 56.0965 250.189 55.4365 250.189 54.7085C250.189 53.9965 250.017 53.3445 249.673 52.7525C249.337 52.1605 248.881 51.6885 248.305 51.3365C247.729 50.9845 247.093 50.8085 246.397 50.8085ZM254.525 60.7085V42.7085H257.021V60.7085H254.525ZM265.008 61.0205C263.904 61.0205 262.896 60.7365 261.984 60.1685C261.08 59.6005 260.356 58.8405 259.812 57.8885C259.276 56.9285 259.008 55.8685 259.008 54.7085C259.008 53.8285 259.164 53.0085 259.476 52.2485C259.788 51.4805 260.216 50.8085 260.76 50.2325C261.312 49.6485 261.952 49.1925 262.68 48.8645C263.408 48.5365 264.184 48.3725 265.008 48.3725C266.112 48.3725 267.116 48.6565 268.02 49.2245C268.932 49.7925 269.656 50.5565 270.192 51.5165C270.736 52.4765 271.008 53.5405 271.008 54.7085C271.008 55.5805 270.852 56.3965 270.54 57.1565C270.228 57.9165 269.796 58.5885 269.244 59.1725C268.7 59.7485 268.064 60.2005 267.336 60.5285C266.616 60.8565 265.84 61.0205 265.008 61.0205ZM265.008 58.5245C265.672 58.5245 266.268 58.3485 266.796 57.9965C267.324 57.6445 267.74 57.1805 268.044 56.6045C268.356 56.0205 268.512 55.3885 268.512 54.7085C268.512 54.0125 268.352 53.3725 268.032 52.7885C267.72 52.2045 267.3 51.7405 266.772 51.3965C266.244 51.0445 265.656 50.8685 265.008 50.8685C264.352 50.8685 263.756 51.0445 263.22 51.3965C262.692 51.7485 262.272 52.2165 261.96 52.8005C261.656 53.3845 261.504 54.0205 261.504 54.7085C261.504 55.4205 261.664 56.0645 261.984 56.6405C262.304 57.2165 262.728 57.6765 263.256 58.0205C263.792 58.3565 264.376 58.5245 265.008 58.5245ZM280.464 48.7085H283.128L276.552 66.7085H273.9L276.072 60.7085L271.764 48.7085H274.488L277.32 57.2885L280.464 48.7085ZM285.158 60.7085V48.7085H287.654V49.9805C288.07 49.4845 288.578 49.0925 289.178 48.8045C289.786 48.5165 290.442 48.3725 291.146 48.3725C292.002 48.3725 292.79 48.5805 293.51 48.9965C294.23 49.4045 294.802 49.9485 295.226 50.6285C295.65 49.9485 296.214 49.4045 296.918 48.9965C297.63 48.5805 298.414 48.3725 299.27 48.3725C300.158 48.3725 300.966 48.5885 301.694 49.0205C302.422 49.4525 303.002 50.0325 303.434 50.7605C303.866 51.4885 304.082 52.2965 304.082 53.1845V60.7085H301.586V53.8205C301.586 53.2925 301.458 52.8085 301.202 52.3685C300.946 51.9285 300.602 51.5725 300.17 51.3005C299.738 51.0285 299.258 50.8925 298.73 50.8925C298.202 50.8925 297.722 51.0205 297.29 51.2765C296.858 51.5325 296.514 51.8805 296.258 52.3205C296.002 52.7605 295.874 53.2605 295.874 53.8205V60.7085H293.378V53.8205C293.378 53.2605 293.25 52.7605 292.994 52.3205C292.738 51.8805 292.39 51.5325 291.95 51.2765C291.518 51.0205 291.038 50.8925 290.51 50.8925C289.99 50.8925 289.51 51.0285 289.07 51.3005C288.638 51.5725 288.294 51.9285 288.038 52.3685C287.782 52.8085 287.654 53.2925 287.654 53.8205V60.7085H285.158ZM311.532 61.0205C310.428 61.0205 309.42 60.7365 308.508 60.1685C307.604 59.6005 306.88 58.8405 306.336 57.8885C305.8 56.9285 305.532 55.8685 305.532 54.7085C305.532 53.8285 305.688 53.0085 306 52.2485C306.312 51.4805 306.74 50.8085 307.284 50.2325C307.836 49.6485 308.476 49.1925 309.204 48.8645C309.932 48.5365 310.708 48.3725 311.532 48.3725C312.452 48.3725 313.296 48.5645 314.064 48.9485C314.832 49.3245 315.488 49.8485 316.032 50.5205C316.576 51.1845 316.976 51.9525 317.232 52.8245C317.488 53.6885 317.564 54.6085 317.46 55.5845H308.208C308.312 56.1365 308.512 56.6365 308.808 57.0845C309.112 57.5245 309.496 57.8725 309.96 58.1285C310.432 58.3845 310.956 58.5165 311.532 58.5245C312.14 58.5245 312.692 58.3725 313.188 58.0685C313.692 57.7645 314.104 57.3445 314.424 56.8085L316.956 57.3965C316.476 58.4605 315.752 59.3325 314.784 60.0125C313.816 60.6845 312.732 61.0205 311.532 61.0205ZM308.124 53.6765H314.94C314.86 53.1005 314.656 52.5805 314.328 52.1165C314.008 51.6445 313.604 51.2725 313.116 51.0005C312.636 50.7205 312.108 50.5805 311.532 50.5805C310.964 50.5805 310.436 50.7165 309.948 50.9885C309.468 51.2605 309.068 51.6325 308.748 52.1045C308.436 52.5685 308.228 53.0925 308.124 53.6765ZM330.247 53.1845V60.7085H327.751V53.7965C327.751 53.2605 327.619 52.7725 327.355 52.3325C327.099 51.8925 326.751 51.5445 326.311 51.2885C325.879 51.0245 325.391 50.8925 324.847 50.8925C324.319 50.8925 323.835 51.0245 323.395 51.2885C322.955 51.5445 322.603 51.8925 322.339 52.3325C322.075 52.7725 321.943 53.2605 321.943 53.7965V60.7085H319.447V48.7085H321.943V49.9805C322.359 49.4845 322.871 49.0925 323.479 48.8045C324.087 48.5165 324.743 48.3725 325.447 48.3725C326.335 48.3725 327.143 48.5885 327.871 49.0205C328.599 49.4525 329.175 50.0325 329.599 50.7605C330.031 51.4885 330.247 52.2965 330.247 53.1845ZM338.978 51.2045H336.458L336.446 60.7085H333.95L333.962 51.2045H332.054V48.7085H333.962L333.95 44.9405H336.446L336.458 48.7085H338.978V51.2045Z" fill="#0C1021"/>
<path d="M149.544 160.883C149.544 170.224 157.116 177.796 166.457 177.796H182.131C191.472 177.796 199.044 185.368 199.044 194.709" stroke="#4268FF" stroke-linecap="round" stroke-linejoin="bevel" stroke-dasharray="6 6"/>
<path d="M199.044 251.883C199.044 261.5 206.84 269.296 216.457 269.296H258.131C267.748 269.296 275.544 277.092 275.544 286.709" stroke="#4268FF" stroke-linecap="round" stroke-linejoin="bevel" stroke-dasharray="6 6"/>
<path d="M275.544 343.883C275.544 351.339 281.588 357.383 289.044 357.383H308.044C315.5 357.383 321.544 363.427 321.544 370.883" stroke="#4268FF" stroke-linecap="round" stroke-linejoin="bevel" stroke-dasharray="6 6"/>
</g>
<defs>
<filter id="filter0_d_2453_2488" x="-3.05176e-05" y="-0.00012207" width="463.772" height="463.772" filterUnits="userSpaceOnUse" color-interpolation-filters="sRGB">
<feFlood flood-opacity="0" result="BackgroundImageFix"/>
<feColorMatrix in="SourceAlpha" type="matrix" values="0 0 0 0 0 0 0 0 0 0 0 0 0 0 0 0 0 0 127 0" result="hardAlpha"/>
<feOffset dy="3.67715"/>
<feGaussianBlur stdDeviation="9.19289"/>
<feComposite in2="hardAlpha" operator="out"/>
<feColorMatrix type="matrix" values="0 0 0 0 0.0468057 0 0 0 0 0.0634939 0 0 0 0 0.129808 0 0 0 0.1 0"/>
<feBlend mode="normal" in2="BackgroundImageFix" result="effect1_dropShadow_2453_2488"/>
<feBlend mode="normal" in="SourceGraphic" in2="effect1_dropShadow_2453_2488" result="shape"/>
</filter>
</defs>
</svg>
