<svg preserveAspectRatio="none" width="100%" height="100%" overflow="visible" style="display: block;" viewBox="0 0 32 32" fill="none" xmlns="http://www.w3.org/2000/svg">
<g id="si:dashboard-fill">
<path id="Vector" d="M7.46667 2.66667C6.54725 2.66667 5.66549 3.0319 5.01536 3.68203C4.36524 4.33216 4 5.21392 4 6.13333V12.5333C4 12.9886 4.08967 13.4394 4.26388 13.86C4.4381 14.2806 4.69345 14.6627 5.01536 14.9846C5.66549 15.6348 6.54725 16 7.46667 16H11.2C12.1194 16 13.0012 15.6348 13.6513 14.9846C14.3014 14.3345 14.6667 13.4527 14.6667 12.5333V6.13333C14.6667 5.21392 14.3014 4.33216 13.6513 3.68203C13.0012 3.0319 12.1194 2.66667 11.2 2.66667H7.46667ZM7.46667 18.6667C6.54725 18.6667 5.66549 19.0319 5.01536 19.682C4.36524 20.3322 4 21.2139 4 22.1333V25.8667C4 26.7861 4.36524 27.6678 5.01536 28.318C5.66549 28.9681 6.54725 29.3333 7.46667 29.3333H11.2C12.1194 29.3333 13.0012 28.9681 13.6513 28.318C14.3014 27.6678 14.6667 26.7861 14.6667 25.8667V22.1333C14.6667 21.2139 14.3014 20.3322 13.6513 19.682C13.0012 19.0319 12.1194 18.6667 11.2 18.6667H7.46667ZM20.8 2.66667C19.8806 2.66667 18.9988 3.0319 18.3487 3.68203C17.6986 4.33216 17.3333 5.21392 17.3333 6.13333V9.86667C17.3333 10.7861 17.6986 11.6678 18.3487 12.318C18.9988 12.9681 19.8806 13.3333 20.8 13.3333H24.5333C24.9886 13.3333 25.4394 13.2437 25.86 13.0694C26.2806 12.8952 26.6627 12.6399 26.9846 12.318C27.3065 11.9961 27.5619 11.6139 27.7361 11.1933C27.9103 10.7727 28 10.3219 28 9.86667V6.13333C28 5.67808 27.9103 5.22729 27.7361 4.8067C27.5619 4.3861 27.3065 4.00394 26.9846 3.68203C26.6627 3.36012 26.2806 3.10477 25.86 2.93055C25.4394 2.75633 24.9886 2.66667 24.5333 2.66667H20.8ZM20.8 16C19.8806 16 18.9988 16.3652 18.3487 17.0154C17.6986 17.6655 17.3333 18.5473 17.3333 19.4667V25.8667C17.3333 26.7861 17.6986 27.6678 18.3487 28.318C18.9988 28.9681 19.8806 29.3333 20.8 29.3333H24.5333C24.9886 29.3333 25.4394 29.2437 25.86 29.0694C26.2806 28.8952 26.6627 28.6399 26.9846 28.318C27.3065 27.9961 27.5619 27.6139 27.7361 27.1933C27.9103 26.7727 28 26.3219 28 25.8667V19.4667C28 19.0114 27.9103 18.5606 27.7361 18.14C27.5619 17.7194 27.3065 17.3373 26.9846 17.0154C26.6627 16.6935 26.2806 16.4381 25.86 16.2639C25.4394 16.0897 24.9886 16 24.5333 16H20.8Z" fill="var(--fill-0, white)"/>
</g>
</svg>
