<svg preserveAspectRatio="none" width="100%" height="100%" overflow="visible" style="display: block;" viewBox="0 0 32 32" fill="none" xmlns="http://www.w3.org/2000/svg">
<g id="cuida:translate-outline">
<path id="Vector" fill-rule="evenodd" clip-rule="evenodd" d="M21.2773 11.9333C21.746 11.7614 22.262 11.7709 22.724 11.96C23.3533 12.2173 23.648 12.7773 23.7787 13.04C23.928 13.3427 24.076 13.7373 24.228 14.144L24.248 14.1973L29.248 27.5307C29.3646 27.8599 29.3474 28.2218 29.2001 28.5385C29.0527 28.8551 28.787 29.1013 28.46 29.2241C28.133 29.3469 27.7708 29.3365 27.4514 29.1951C27.1321 29.0537 26.8809 28.7926 26.752 28.468L21.9347 15.624L16.564 28.5133C16.4279 28.8397 16.1676 29.0987 15.8406 29.2332C15.5135 29.3677 15.1464 29.3668 14.82 29.2307C14.4936 29.0945 14.2347 28.8343 14.1001 28.5072C13.9656 28.1802 13.9665 27.8131 14.1027 27.4867L19.6747 14.116L19.696 14.0627C19.8428 13.6933 20.0061 13.3307 20.1853 12.976C20.324 12.7173 20.6387 12.1693 21.2787 11.9347L21.2773 11.9333ZM17.0453 5.388C17.2133 5.4377 17.3698 5.52 17.5059 5.63019C17.642 5.74039 17.7551 5.87632 17.8387 6.03023C17.9222 6.18413 17.9747 6.35299 17.993 6.52717C18.0113 6.70134 17.9951 6.87742 17.9453 7.04533C16.6347 11.4667 15.2427 14.72 13.16 17.36C11.0693 20.0107 8.36267 21.9387 4.604 23.856C4.44799 23.9356 4.27783 23.9837 4.10324 23.9975C3.92865 24.0113 3.75305 23.9906 3.58646 23.9365C3.41988 23.8825 3.26556 23.7962 3.13234 23.6825C2.99911 23.5688 2.88958 23.43 2.81 23.274C2.73042 23.118 2.68235 22.9478 2.66852 22.7732C2.6547 22.5987 2.67541 22.4231 2.72945 22.2565C2.78349 22.0899 2.86982 21.9356 2.9835 21.8023C3.09718 21.6691 3.23599 21.5596 3.392 21.48C6.96933 19.6547 9.304 17.9413 11.0667 15.708C12.8387 13.4613 14.1133 10.5853 15.3867 6.28933C15.4364 6.1214 15.5187 5.9649 15.6289 5.82878C15.7391 5.69266 15.875 5.57958 16.0289 5.49601C16.1828 5.41243 16.3517 5.35999 16.5258 5.34169C16.7 5.32338 16.8761 5.33957 17.044 5.38933L17.0453 5.388Z" fill="var(--fill-0, white)"/>
<path id="Vector_2" fill-rule="evenodd" clip-rule="evenodd" d="M7.948 9.78933C8.28818 9.6928 8.65278 9.73535 8.96159 9.90764C9.2704 10.0799 9.49812 10.3678 9.59467 10.708C10.5307 14.0013 12.3493 16.428 14.8 18.2667C15.0829 18.4788 15.2699 18.7947 15.3199 19.1448C15.3699 19.4948 15.2788 19.8504 15.0667 20.1333C14.8545 20.4162 14.5386 20.6033 14.1886 20.6533C13.8385 20.7033 13.4829 20.6122 13.2 20.4C10.3173 18.2373 8.136 15.3307 7.03067 11.436C6.93408 11.096 6.97646 10.7316 7.14847 10.4228C7.32048 10.114 7.60806 9.88616 7.948 9.78933ZM2.66667 6.66667C2.66667 6.31304 2.80714 5.97391 3.05719 5.72386C3.30724 5.47381 3.64638 5.33333 4 5.33333H20.6667C21.0203 5.33333 21.3594 5.47381 21.6095 5.72386C21.8595 5.97391 22 6.31304 22 6.66667C22 7.02029 21.8595 7.35943 21.6095 7.60948C21.3594 7.85952 21.0203 8 20.6667 8H4C3.64638 8 3.30724 7.85952 3.05719 7.60948C2.80714 7.35943 2.66667 7.02029 2.66667 6.66667Z" fill="var(--fill-0, white)"/>
<path id="Vector_3" fill-rule="evenodd" clip-rule="evenodd" d="M12 2.66667C12.3536 2.66667 12.6928 2.80714 12.9428 3.05719C13.1929 3.30724 13.3333 3.64638 13.3333 4V6.66667C13.3333 7.02029 13.1929 7.35943 12.9428 7.60948C12.6928 7.85952 12.3536 8 12 8C11.6464 8 11.3072 7.85952 11.0572 7.60948C10.8071 7.35943 10.6667 7.02029 10.6667 6.66667V4C10.6667 3.64638 10.8071 3.30724 11.0572 3.05719C11.3072 2.80714 11.6464 2.66667 12 2.66667ZM17.3333 22.6667C17.3333 22.313 17.4738 21.9739 17.7239 21.7239C17.9739 21.4738 18.313 21.3333 18.6667 21.3333H26C26.3536 21.3333 26.6928 21.4738 26.9428 21.7239C27.1929 21.9739 27.3333 22.313 27.3333 22.6667C27.3333 23.0203 27.1929 23.3594 26.9428 23.6095C26.6928 23.8595 26.3536 24 26 24H18.6667C18.313 24 17.9739 23.8595 17.7239 23.6095C17.4738 23.3594 17.3333 23.0203 17.3333 22.6667Z" fill="var(--fill-0, white)"/>
</g>
</svg>
