<svg width="32" height="32" viewBox="0 0 32 32" fill="none" xmlns="http://www.w3.org/2000/svg">
<path d="M16.936 2.9265L26.2693 6.4265C26.7777 6.61708 27.2159 6.95831 27.5251 7.40457C27.8344 7.85084 28.0001 8.38088 28 8.92383V16.0745C28 18.3031 27.3795 20.4876 26.2079 22.3834C25.0363 24.2791 23.3599 25.8112 21.3667 26.8078L16.8947 29.0425C16.6169 29.1814 16.3106 29.2538 16 29.2538C15.6894 29.2538 15.3831 29.1814 15.1053 29.0425L10.6333 26.8065C8.64005 25.8098 6.96369 24.2778 5.79209 22.382C4.62049 20.4863 3.99995 18.3017 4 16.0732V8.92517C3.99966 8.38199 4.16521 7.85165 4.47449 7.40512C4.78377 6.95859 5.22204 6.61716 5.73067 6.4265L15.064 2.9265C15.6675 2.70028 16.3325 2.70028 16.936 2.9265ZM16 10.6665C15.6734 10.6665 15.3582 10.7864 15.1142 11.0035C14.8701 11.2205 14.7142 11.5195 14.676 11.8438L14.6667 11.9998V14.6665H12C11.6602 14.6669 11.3333 14.797 11.0862 15.0303C10.8391 15.2636 10.6904 15.5824 10.6704 15.9217C10.6505 16.261 10.7609 16.595 10.979 16.8556C11.1971 17.1162 11.5065 17.2837 11.844 17.3238L12 17.3332H14.6667V19.9998C14.667 20.3397 14.7972 20.6665 15.0305 20.9137C15.2638 21.1608 15.5826 21.3095 15.9219 21.3294C16.2611 21.3493 16.5952 21.2389 16.8558 21.0208C17.1164 20.8027 17.2839 20.4933 17.324 20.1558L17.3333 19.9998V17.3332H20C20.3398 17.3328 20.6667 17.2027 20.9138 16.9694C21.1609 16.7361 21.3096 16.4172 21.3296 16.078C21.3495 15.7387 21.2391 15.4047 21.021 15.1441C20.8029 14.8835 20.4935 14.716 20.156 14.6758L20 14.6665H17.3333V11.9998C17.3333 11.6462 17.1929 11.3071 16.9428 11.057C16.6928 10.807 16.3536 10.6665 16 10.6665Z" fill="white"/>
</svg>
