<svg width="564" height="564" viewBox="0 0 564 564" fill="none" xmlns="http://www.w3.org/2000/svg">
<rect width="564" height="564" rx="24" fill="#FAFAFA"/>
<g filter="url(#filter0_d_2308_2506)">
<rect x="68" y="73" width="427" height="419" rx="22.0629" fill="white" shape-rendering="crispEdges"/>
<rect x="68.4596" y="73.4596" width="426.081" height="418.081" rx="21.6033" stroke="#0C1021" stroke-opacity="0.05" stroke-width="0.919289" shape-rendering="crispEdges"/>
<path d="M104.49 103.2H107.406L113.514 120H110.874L109.71 116.808H102.186L101.034 120H98.3819L104.49 103.2ZM103.11 114.312H108.786L105.942 106.512L103.11 114.312ZM116.003 120V103.2H118.499V120H116.003ZM132.999 120L126.903 103.2H129.543L134.559 117.036L139.599 103.2H142.239L136.143 120H132.999ZM148.064 120.312C146.96 120.312 145.952 120.028 145.04 119.46C144.136 118.892 143.412 118.132 142.868 117.18C142.332 116.22 142.064 115.16 142.064 114C142.064 113.12 142.22 112.3 142.532 111.54C142.844 110.772 143.272 110.1 143.816 109.524C144.368 108.94 145.008 108.484 145.736 108.156C146.464 107.828 147.24 107.664 148.064 107.664C149.168 107.664 150.172 107.948 151.076 108.516C151.988 109.084 152.712 109.848 153.248 110.808C153.792 111.768 154.064 112.832 154.064 114C154.064 114.872 153.908 115.688 153.596 116.448C153.284 117.208 152.852 117.88 152.3 118.464C151.756 119.04 151.12 119.492 150.392 119.82C149.672 120.148 148.896 120.312 148.064 120.312ZM148.064 117.816C148.728 117.816 149.324 117.64 149.852 117.288C150.38 116.936 150.796 116.472 151.1 115.896C151.412 115.312 151.568 114.68 151.568 114C151.568 113.304 151.408 112.664 151.088 112.08C150.776 111.496 150.356 111.032 149.828 110.688C149.3 110.336 148.712 110.16 148.064 110.16C147.408 110.16 146.812 110.336 146.276 110.688C145.748 111.04 145.328 111.508 145.016 112.092C144.712 112.676 144.56 113.312 144.56 114C144.56 114.712 144.72 115.356 145.04 115.932C145.36 116.508 145.784 116.968 146.312 117.312C146.848 117.648 147.432 117.816 148.064 117.816ZM155.768 108H158.264V120H155.768V108ZM157.04 106.26C156.656 106.26 156.336 106.136 156.08 105.888C155.824 105.64 155.696 105.328 155.696 104.952C155.696 104.584 155.824 104.276 156.08 104.028C156.336 103.772 156.652 103.644 157.028 103.644C157.396 103.644 157.708 103.772 157.964 104.028C158.22 104.276 158.348 104.584 158.348 104.952C158.348 105.328 158.22 105.64 157.964 105.888C157.716 106.136 157.408 106.26 157.04 106.26ZM168.76 116.592L170.992 117.804C170.448 118.564 169.756 119.172 168.916 119.628C168.084 120.084 167.18 120.312 166.204 120.312C165.1 120.312 164.092 120.028 163.18 119.46C162.276 118.892 161.552 118.132 161.008 117.18C160.472 116.22 160.204 115.16 160.204 114C160.204 113.12 160.36 112.3 160.672 111.54C160.984 110.772 161.412 110.1 161.956 109.524C162.508 108.94 163.148 108.484 163.876 108.156C164.604 107.828 165.38 107.664 166.204 107.664C167.18 107.664 168.084 107.892 168.916 108.348C169.756 108.804 170.448 109.416 170.992 110.184L168.76 111.396C168.424 110.996 168.032 110.692 167.584 110.484C167.136 110.268 166.676 110.16 166.204 110.16C165.548 110.16 164.952 110.34 164.416 110.7C163.888 111.052 163.468 111.52 163.156 112.104C162.852 112.68 162.7 113.312 162.7 114C162.7 114.68 162.856 115.312 163.168 115.896C163.48 116.472 163.9 116.936 164.428 117.288C164.964 117.64 165.556 117.816 166.204 117.816C166.7 117.816 167.172 117.704 167.62 117.48C168.068 117.256 168.448 116.96 168.76 116.592ZM178.158 120.312C177.054 120.312 176.046 120.028 175.134 119.46C174.23 118.892 173.506 118.132 172.962 117.18C172.426 116.22 172.158 115.16 172.158 114C172.158 113.12 172.314 112.3 172.626 111.54C172.938 110.772 173.366 110.1 173.91 109.524C174.462 108.94 175.102 108.484 175.83 108.156C176.558 107.828 177.334 107.664 178.158 107.664C179.078 107.664 179.922 107.856 180.69 108.24C181.458 108.616 182.114 109.14 182.658 109.812C183.202 110.476 183.602 111.244 183.858 112.116C184.114 112.98 184.19 113.9 184.086 114.876H174.834C174.938 115.428 175.138 115.928 175.434 116.376C175.738 116.816 176.122 117.164 176.586 117.42C177.058 117.676 177.582 117.808 178.158 117.816C178.766 117.816 179.318 117.664 179.814 117.36C180.318 117.056 180.73 116.636 181.05 116.1L183.582 116.688C183.102 117.752 182.378 118.624 181.41 119.304C180.442 119.976 179.358 120.312 178.158 120.312ZM174.75 112.968H181.566C181.486 112.392 181.282 111.872 180.954 111.408C180.634 110.936 180.23 110.564 179.742 110.292C179.262 110.012 178.734 109.872 178.158 109.872C177.59 109.872 177.062 110.008 176.574 110.28C176.094 110.552 175.694 110.924 175.374 111.396C175.062 111.86 174.854 112.384 174.75 112.968ZM197.677 103.2H200.593L206.701 120H204.061L202.897 116.808H195.373L194.221 120H191.569L197.677 103.2ZM196.297 114.312H201.973L199.129 106.512L196.297 114.312ZM217.049 108H219.545V120.312C219.545 121.136 219.369 121.896 219.017 122.592C218.673 123.288 218.205 123.888 217.613 124.392C217.021 124.904 216.341 125.3 215.573 125.58C214.813 125.86 214.017 126 213.185 126C212.345 126 211.537 125.82 210.761 125.46C209.985 125.108 209.301 124.628 208.709 124.02C208.125 123.412 207.689 122.724 207.401 121.956L209.693 120.924C209.853 121.42 210.109 121.86 210.461 122.244C210.821 122.628 211.237 122.932 211.709 123.156C212.189 123.38 212.681 123.492 213.185 123.492C213.681 123.492 214.157 123.412 214.613 123.252C215.077 123.1 215.489 122.884 215.849 122.604C216.217 122.324 216.509 121.988 216.725 121.596C216.941 121.204 217.049 120.776 217.049 120.312V118.284C216.657 118.892 216.153 119.384 215.537 119.76C214.921 120.128 214.205 120.312 213.389 120.312C212.541 120.312 211.741 120.148 210.989 119.82C210.237 119.492 209.577 119.04 209.009 118.464C208.441 117.88 207.997 117.208 207.677 116.448C207.357 115.688 207.197 114.872 207.197 114C207.197 113.128 207.357 112.312 207.677 111.552C207.997 110.784 208.441 110.112 209.009 109.536C209.577 108.952 210.237 108.496 210.989 108.168C211.741 107.84 212.541 107.676 213.389 107.676C214.205 107.676 214.921 107.864 215.537 108.24C216.153 108.608 216.657 109.1 217.049 109.716V108ZM213.413 117.9C214.109 117.9 214.717 117.724 215.237 117.372C215.757 117.012 216.161 116.536 216.449 115.944C216.737 115.352 216.881 114.704 216.881 114C216.881 113.28 216.733 112.628 216.437 112.044C216.149 111.452 215.745 110.98 215.225 110.628C214.705 110.268 214.101 110.088 213.413 110.088C212.741 110.088 212.125 110.264 211.565 110.616C211.013 110.968 210.573 111.44 210.245 112.032C209.917 112.624 209.753 113.28 209.753 114C209.753 114.72 209.917 115.376 210.245 115.968C210.581 116.56 211.025 117.032 211.577 117.384C212.137 117.728 212.749 117.9 213.413 117.9ZM227.493 120.312C226.389 120.312 225.381 120.028 224.469 119.46C223.565 118.892 222.841 118.132 222.297 117.18C221.761 116.22 221.493 115.16 221.493 114C221.493 113.12 221.649 112.3 221.961 111.54C222.273 110.772 222.701 110.1 223.245 109.524C223.797 108.94 224.437 108.484 225.165 108.156C225.893 107.828 226.669 107.664 227.493 107.664C228.413 107.664 229.257 107.856 230.025 108.24C230.793 108.616 231.449 109.14 231.993 109.812C232.537 110.476 232.937 111.244 233.193 112.116C233.449 112.98 233.525 113.9 233.421 114.876H224.169C224.273 115.428 224.473 115.928 224.769 116.376C225.073 116.816 225.457 117.164 225.921 117.42C226.393 117.676 226.917 117.808 227.493 117.816C228.101 117.816 228.653 117.664 229.149 117.36C229.653 117.056 230.065 116.636 230.385 116.1L232.917 116.688C232.437 117.752 231.713 118.624 230.745 119.304C229.777 119.976 228.693 120.312 227.493 120.312ZM224.085 112.968H230.901C230.821 112.392 230.617 111.872 230.289 111.408C229.969 110.936 229.565 110.564 229.077 110.292C228.597 110.012 228.069 109.872 227.493 109.872C226.925 109.872 226.397 110.008 225.909 110.28C225.429 110.552 225.029 110.924 224.709 111.396C224.397 111.86 224.189 112.384 224.085 112.968ZM246.209 112.476V120H243.713V113.088C243.713 112.552 243.581 112.064 243.317 111.624C243.061 111.184 242.713 110.836 242.273 110.58C241.841 110.316 241.353 110.184 240.809 110.184C240.281 110.184 239.797 110.316 239.357 110.58C238.917 110.836 238.565 111.184 238.301 111.624C238.037 112.064 237.905 112.552 237.905 113.088V120H235.409V108H237.905V109.272C238.321 108.776 238.833 108.384 239.441 108.096C240.049 107.808 240.705 107.664 241.409 107.664C242.297 107.664 243.105 107.88 243.833 108.312C244.561 108.744 245.137 109.324 245.561 110.052C245.993 110.78 246.209 111.588 246.209 112.476ZM254.94 110.496H252.42L252.408 120H249.912L249.924 110.496H248.016V108H249.924L249.912 104.232H252.408L252.42 108H254.94V110.496ZM260.524 120.228C259.892 120.188 259.276 120.06 258.676 119.844C258.076 119.628 257.548 119.336 257.092 118.968C256.644 118.592 256.308 118.152 256.084 117.648L258.208 116.736C258.312 116.952 258.492 117.164 258.748 117.372C259.012 117.58 259.32 117.752 259.672 117.888C260.024 118.016 260.392 118.08 260.776 118.08C261.152 118.08 261.5 118.028 261.82 117.924C262.148 117.812 262.416 117.644 262.624 117.42C262.832 117.196 262.936 116.928 262.936 116.616C262.936 116.264 262.816 115.992 262.576 115.8C262.344 115.6 262.052 115.448 261.7 115.344C261.348 115.24 260.996 115.14 260.644 115.044C259.86 114.868 259.14 114.628 258.484 114.324C257.836 114.012 257.32 113.616 256.936 113.136C256.552 112.648 256.36 112.052 256.36 111.348C256.36 110.58 256.568 109.916 256.984 109.356C257.4 108.788 257.944 108.352 258.616 108.048C259.296 107.744 260.02 107.592 260.788 107.592C261.748 107.592 262.628 107.796 263.428 108.204C264.228 108.612 264.84 109.172 265.264 109.884L263.284 111.06C263.164 110.82 262.984 110.604 262.744 110.412C262.504 110.22 262.232 110.068 261.928 109.956C261.624 109.836 261.308 109.768 260.98 109.752C260.572 109.736 260.192 109.784 259.84 109.896C259.496 110 259.22 110.168 259.012 110.4C258.804 110.632 258.7 110.928 258.7 111.288C258.7 111.64 258.824 111.904 259.072 112.08C259.32 112.248 259.632 112.384 260.008 112.488C260.392 112.592 260.784 112.708 261.184 112.836C261.896 113.06 262.564 113.336 263.188 113.664C263.812 113.984 264.316 114.38 264.7 114.852C265.084 115.324 265.268 115.9 265.252 116.58C265.252 117.332 265.024 117.992 264.568 118.56C264.12 119.128 263.536 119.56 262.816 119.856C262.096 120.152 261.332 120.276 260.524 120.228ZM276.673 120.228C276.041 120.188 275.425 120.06 274.825 119.844C274.225 119.628 273.697 119.336 273.241 118.968C272.793 118.592 272.457 118.152 272.233 117.648L274.357 116.736C274.461 116.952 274.641 117.164 274.897 117.372C275.161 117.58 275.469 117.752 275.821 117.888C276.173 118.016 276.541 118.08 276.925 118.08C277.301 118.08 277.649 118.028 277.969 117.924C278.297 117.812 278.565 117.644 278.773 117.42C278.981 117.196 279.085 116.928 279.085 116.616C279.085 116.264 278.965 115.992 278.725 115.8C278.493 115.6 278.201 115.448 277.849 115.344C277.497 115.24 277.145 115.14 276.793 115.044C276.009 114.868 275.289 114.628 274.633 114.324C273.985 114.012 273.469 113.616 273.085 113.136C272.701 112.648 272.509 112.052 272.509 111.348C272.509 110.58 272.717 109.916 273.133 109.356C273.549 108.788 274.093 108.352 274.765 108.048C275.445 107.744 276.169 107.592 276.937 107.592C277.897 107.592 278.777 107.796 279.577 108.204C280.377 108.612 280.989 109.172 281.413 109.884L279.433 111.06C279.313 110.82 279.133 110.604 278.893 110.412C278.653 110.22 278.381 110.068 278.077 109.956C277.773 109.836 277.457 109.768 277.129 109.752C276.721 109.736 276.341 109.784 275.989 109.896C275.645 110 275.369 110.168 275.161 110.4C274.953 110.632 274.849 110.928 274.849 111.288C274.849 111.64 274.973 111.904 275.221 112.08C275.469 112.248 275.781 112.384 276.157 112.488C276.541 112.592 276.933 112.708 277.333 112.836C278.045 113.06 278.713 113.336 279.337 113.664C279.961 113.984 280.465 114.38 280.849 114.852C281.233 115.324 281.417 115.9 281.401 116.58C281.401 117.332 281.173 117.992 280.717 118.56C280.269 119.128 279.685 119.56 278.965 119.856C278.245 120.152 277.481 120.276 276.673 120.228ZM291.128 116.592L293.36 117.804C292.816 118.564 292.124 119.172 291.284 119.628C290.452 120.084 289.548 120.312 288.572 120.312C287.468 120.312 286.46 120.028 285.548 119.46C284.644 118.892 283.92 118.132 283.376 117.18C282.84 116.22 282.572 115.16 282.572 114C282.572 113.12 282.728 112.3 283.04 111.54C283.352 110.772 283.78 110.1 284.324 109.524C284.876 108.94 285.516 108.484 286.244 108.156C286.972 107.828 287.748 107.664 288.572 107.664C289.548 107.664 290.452 107.892 291.284 108.348C292.124 108.804 292.816 109.416 293.36 110.184L291.128 111.396C290.792 110.996 290.4 110.692 289.952 110.484C289.504 110.268 289.044 110.16 288.572 110.16C287.916 110.16 287.32 110.34 286.784 110.7C286.256 111.052 285.836 111.52 285.524 112.104C285.22 112.68 285.068 113.312 285.068 114C285.068 114.68 285.224 115.312 285.536 115.896C285.848 116.472 286.268 116.936 286.796 117.288C287.332 117.64 287.924 117.816 288.572 117.816C289.068 117.816 289.54 117.704 289.988 117.48C290.436 117.256 290.816 116.96 291.128 116.592ZM304.581 108H307.077V120H304.569L304.473 118.26C304.121 118.876 303.645 119.372 303.045 119.748C302.445 120.124 301.737 120.312 300.921 120.312C300.041 120.312 299.213 120.148 298.437 119.82C297.661 119.484 296.977 119.02 296.385 118.428C295.801 117.836 295.345 117.156 295.017 116.388C294.689 115.612 294.525 114.78 294.525 113.892C294.525 113.036 294.685 112.232 295.005 111.48C295.325 110.72 295.769 110.056 296.337 109.488C296.905 108.92 297.561 108.476 298.305 108.156C299.057 107.828 299.861 107.664 300.717 107.664C301.589 107.664 302.357 107.864 303.021 108.264C303.693 108.656 304.249 109.16 304.689 109.776L304.581 108ZM300.861 117.9C301.565 117.9 302.181 117.728 302.709 117.384C303.237 117.032 303.645 116.56 303.933 115.968C304.229 115.376 304.377 114.72 304.377 114C304.377 113.272 304.229 112.612 303.933 112.02C303.637 111.428 303.225 110.96 302.697 110.616C302.177 110.264 301.565 110.088 300.861 110.088C300.165 110.088 299.529 110.264 298.953 110.616C298.377 110.968 297.921 111.44 297.585 112.032C297.249 112.624 297.081 113.28 297.081 114C297.081 114.728 297.253 115.388 297.597 115.98C297.949 116.564 298.409 117.032 298.977 117.384C299.553 117.728 300.181 117.9 300.861 117.9ZM309.565 120V102H312.061V120H309.565ZM314.932 108H317.428V120H314.932V108ZM316.204 106.26C315.82 106.26 315.5 106.136 315.244 105.888C314.988 105.64 314.86 105.328 314.86 104.952C314.86 104.584 314.988 104.276 315.244 104.028C315.5 103.772 315.816 103.644 316.192 103.644C316.56 103.644 316.872 103.772 317.128 104.028C317.384 104.276 317.512 104.584 317.512 104.952C317.512 105.328 317.384 105.64 317.128 105.888C316.88 106.136 316.572 106.26 316.204 106.26ZM331.029 112.476V120H328.533V113.088C328.533 112.552 328.401 112.064 328.137 111.624C327.881 111.184 327.533 110.836 327.093 110.58C326.661 110.316 326.173 110.184 325.629 110.184C325.101 110.184 324.617 110.316 324.177 110.58C323.737 110.836 323.385 111.184 323.121 111.624C322.857 112.064 322.725 112.552 322.725 113.088V120H320.229V108H322.725V109.272C323.141 108.776 323.653 108.384 324.261 108.096C324.869 107.808 325.525 107.664 326.229 107.664C327.117 107.664 327.925 107.88 328.653 108.312C329.381 108.744 329.957 109.324 330.381 110.052C330.813 110.78 331.029 111.588 331.029 112.476ZM342.322 108H344.818V120.312C344.818 121.136 344.642 121.896 344.29 122.592C343.946 123.288 343.478 123.888 342.886 124.392C342.294 124.904 341.614 125.3 340.846 125.58C340.086 125.86 339.29 126 338.458 126C337.618 126 336.81 125.82 336.034 125.46C335.258 125.108 334.574 124.628 333.982 124.02C333.398 123.412 332.962 122.724 332.674 121.956L334.966 120.924C335.126 121.42 335.382 121.86 335.734 122.244C336.094 122.628 336.51 122.932 336.982 123.156C337.462 123.38 337.954 123.492 338.458 123.492C338.954 123.492 339.43 123.412 339.886 123.252C340.35 123.1 340.762 122.884 341.122 122.604C341.49 122.324 341.782 121.988 341.998 121.596C342.214 121.204 342.322 120.776 342.322 120.312V118.284C341.93 118.892 341.426 119.384 340.81 119.76C340.194 120.128 339.478 120.312 338.662 120.312C337.814 120.312 337.014 120.148 336.262 119.82C335.51 119.492 334.85 119.04 334.282 118.464C333.714 117.88 333.27 117.208 332.95 116.448C332.63 115.688 332.47 114.872 332.47 114C332.47 113.128 332.63 112.312 332.95 111.552C333.27 110.784 333.714 110.112 334.282 109.536C334.85 108.952 335.51 108.496 336.262 108.168C337.014 107.84 337.814 107.676 338.662 107.676C339.478 107.676 340.194 107.864 340.81 108.24C341.426 108.608 341.93 109.1 342.322 109.716V108ZM338.686 117.9C339.382 117.9 339.99 117.724 340.51 117.372C341.03 117.012 341.434 116.536 341.722 115.944C342.01 115.352 342.154 114.704 342.154 114C342.154 113.28 342.006 112.628 341.71 112.044C341.422 111.452 341.018 110.98 340.498 110.628C339.978 110.268 339.374 110.088 338.686 110.088C338.014 110.088 337.398 110.264 336.838 110.616C336.286 110.968 335.846 111.44 335.518 112.032C335.19 112.624 335.026 113.28 335.026 114C335.026 114.72 335.19 115.376 335.518 115.968C335.854 116.56 336.298 117.032 336.85 117.384C337.41 117.728 338.022 117.9 338.686 117.9ZM358.743 120.312C357.639 120.312 356.631 120.028 355.719 119.46C354.815 118.892 354.091 118.132 353.547 117.18C353.011 116.22 352.743 115.16 352.743 114C352.743 113.12 352.899 112.3 353.211 111.54C353.523 110.772 353.951 110.1 354.495 109.524C355.047 108.94 355.687 108.484 356.415 108.156C357.143 107.828 357.919 107.664 358.743 107.664C359.847 107.664 360.851 107.948 361.755 108.516C362.667 109.084 363.391 109.848 363.927 110.808C364.471 111.768 364.743 112.832 364.743 114C364.743 114.872 364.587 115.688 364.275 116.448C363.963 117.208 363.531 117.88 362.979 118.464C362.435 119.04 361.799 119.492 361.071 119.82C360.351 120.148 359.575 120.312 358.743 120.312ZM358.743 117.816C359.407 117.816 360.003 117.64 360.531 117.288C361.059 116.936 361.475 116.472 361.779 115.896C362.091 115.312 362.247 114.68 362.247 114C362.247 113.304 362.087 112.664 361.767 112.08C361.455 111.496 361.035 111.032 360.507 110.688C359.979 110.336 359.391 110.16 358.743 110.16C358.087 110.16 357.491 110.336 356.955 110.688C356.427 111.04 356.007 111.508 355.695 112.092C355.391 112.676 355.239 113.312 355.239 114C355.239 114.712 355.399 115.356 355.719 115.932C356.039 116.508 356.463 116.968 356.991 117.312C357.527 117.648 358.111 117.816 358.743 117.816ZM369.178 126H366.682V108H369.178V109.764C369.578 109.148 370.09 108.648 370.714 108.264C371.338 107.88 372.074 107.688 372.922 107.688C373.794 107.688 374.61 107.852 375.37 108.18C376.138 108.508 376.81 108.964 377.386 109.548C377.962 110.124 378.414 110.792 378.742 111.552C379.07 112.312 379.234 113.128 379.234 114C379.234 114.872 379.07 115.692 378.742 116.46C378.414 117.228 377.962 117.904 377.386 118.488C376.81 119.064 376.138 119.516 375.37 119.844C374.61 120.172 373.794 120.336 372.922 120.336C372.074 120.336 371.338 120.144 370.714 119.76C370.09 119.368 369.578 118.868 369.178 118.26V126ZM372.898 110.1C372.202 110.1 371.59 110.276 371.062 110.628C370.534 110.98 370.122 111.452 369.826 112.044C369.53 112.628 369.382 113.28 369.382 114C369.382 114.72 369.53 115.376 369.826 115.968C370.122 116.56 370.534 117.032 371.062 117.384C371.59 117.736 372.202 117.912 372.898 117.912C373.586 117.912 374.218 117.74 374.794 117.396C375.37 117.044 375.83 116.572 376.174 115.98C376.518 115.388 376.69 114.728 376.69 114C376.69 113.288 376.518 112.636 376.174 112.044C375.838 111.452 375.382 110.98 374.806 110.628C374.23 110.276 373.594 110.1 372.898 110.1ZM386.447 120.312C385.343 120.312 384.335 120.028 383.423 119.46C382.519 118.892 381.795 118.132 381.251 117.18C380.715 116.22 380.447 115.16 380.447 114C380.447 113.12 380.603 112.3 380.915 111.54C381.227 110.772 381.655 110.1 382.199 109.524C382.751 108.94 383.391 108.484 384.119 108.156C384.847 107.828 385.623 107.664 386.447 107.664C387.367 107.664 388.211 107.856 388.979 108.24C389.747 108.616 390.403 109.14 390.947 109.812C391.491 110.476 391.891 111.244 392.147 112.116C392.403 112.98 392.479 113.9 392.375 114.876H383.123C383.227 115.428 383.427 115.928 383.723 116.376C384.027 116.816 384.411 117.164 384.875 117.42C385.347 117.676 385.871 117.808 386.447 117.816C387.055 117.816 387.607 117.664 388.103 117.36C388.607 117.056 389.019 116.636 389.339 116.1L391.871 116.688C391.391 117.752 390.667 118.624 389.699 119.304C388.731 119.976 387.647 120.312 386.447 120.312ZM383.039 112.968H389.855C389.775 112.392 389.571 111.872 389.243 111.408C388.923 110.936 388.519 110.564 388.031 110.292C387.551 110.012 387.023 109.872 386.447 109.872C385.879 109.872 385.351 110.008 384.863 110.28C384.383 110.552 383.983 110.924 383.663 111.396C383.351 111.86 383.143 112.384 383.039 112.968ZM394.362 120V108H396.858V109.272C397.274 108.776 397.786 108.384 398.394 108.096C399.002 107.808 399.658 107.664 400.362 107.664C400.81 107.664 401.254 107.724 401.694 107.844L400.698 110.364C400.386 110.244 400.074 110.184 399.762 110.184C399.234 110.184 398.75 110.316 398.31 110.58C397.87 110.836 397.518 111.184 397.254 111.624C396.99 112.064 396.858 112.552 396.858 113.088V120H394.362ZM411.854 108H414.35V120H411.842L411.746 118.26C411.394 118.876 410.918 119.372 410.318 119.748C409.718 120.124 409.01 120.312 408.194 120.312C407.314 120.312 406.486 120.148 405.71 119.82C404.934 119.484 404.25 119.02 403.658 118.428C403.074 117.836 402.618 117.156 402.29 116.388C401.962 115.612 401.798 114.78 401.798 113.892C401.798 113.036 401.958 112.232 402.278 111.48C402.598 110.72 403.042 110.056 403.61 109.488C404.178 108.92 404.834 108.476 405.578 108.156C406.33 107.828 407.134 107.664 407.99 107.664C408.862 107.664 409.63 107.864 410.294 108.264C410.966 108.656 411.522 109.16 411.962 109.776L411.854 108ZM408.134 117.9C408.838 117.9 409.454 117.728 409.982 117.384C410.51 117.032 410.918 116.56 411.206 115.968C411.502 115.376 411.65 114.72 411.65 114C411.65 113.272 411.502 112.612 411.206 112.02C410.91 111.428 410.498 110.96 409.97 110.616C409.45 110.264 408.838 110.088 408.134 110.088C407.438 110.088 406.802 110.264 406.226 110.616C405.65 110.968 405.194 111.44 404.858 112.032C404.522 112.624 404.354 113.28 404.354 114C404.354 114.728 404.526 115.388 404.87 115.98C405.222 116.564 405.682 117.032 406.25 117.384C406.826 117.728 407.454 117.9 408.134 117.9ZM423.081 110.496H420.561L420.549 120H418.053L418.065 110.496H416.157V108H418.065L418.053 104.232H420.549L420.561 108H423.081V110.496ZM425.065 108H427.561V120H425.065V108ZM426.337 106.26C425.953 106.26 425.633 106.136 425.377 105.888C425.121 105.64 424.993 105.328 424.993 104.952C424.993 104.584 425.121 104.276 425.377 104.028C425.633 103.772 425.949 103.644 426.325 103.644C426.693 103.644 427.005 103.772 427.261 104.028C427.517 104.276 427.645 104.584 427.645 104.952C427.645 105.328 427.517 105.64 427.261 105.888C427.013 106.136 426.705 106.26 426.337 106.26ZM435.501 120.312C434.397 120.312 433.389 120.028 432.477 119.46C431.573 118.892 430.849 118.132 430.305 117.18C429.769 116.22 429.501 115.16 429.501 114C429.501 113.12 429.657 112.3 429.969 111.54C430.281 110.772 430.709 110.1 431.253 109.524C431.805 108.94 432.445 108.484 433.173 108.156C433.901 107.828 434.677 107.664 435.501 107.664C436.605 107.664 437.609 107.948 438.513 108.516C439.425 109.084 440.149 109.848 440.685 110.808C441.229 111.768 441.501 112.832 441.501 114C441.501 114.872 441.345 115.688 441.033 116.448C440.721 117.208 440.289 117.88 439.737 118.464C439.193 119.04 438.557 119.492 437.829 119.82C437.109 120.148 436.333 120.312 435.501 120.312ZM435.501 117.816C436.165 117.816 436.761 117.64 437.289 117.288C437.817 116.936 438.233 116.472 438.537 115.896C438.849 115.312 439.005 114.68 439.005 114C439.005 113.304 438.845 112.664 438.525 112.08C438.213 111.496 437.793 111.032 437.265 110.688C436.737 110.336 436.149 110.16 435.501 110.16C434.845 110.16 434.249 110.336 433.713 110.688C433.185 111.04 432.765 111.508 432.453 112.092C432.149 112.676 431.997 113.312 431.997 114C431.997 114.712 432.157 115.356 432.477 115.932C432.797 116.508 433.221 116.968 433.749 117.312C434.285 117.648 434.869 117.816 435.501 117.816ZM454.24 112.476V120H451.744V113.088C451.744 112.552 451.612 112.064 451.348 111.624C451.092 111.184 450.744 110.836 450.304 110.58C449.872 110.316 449.384 110.184 448.84 110.184C448.312 110.184 447.828 110.316 447.388 110.58C446.948 110.836 446.596 111.184 446.332 111.624C446.068 112.064 445.936 112.552 445.936 113.088V120H443.44V108H445.936V109.272C446.352 108.776 446.864 108.384 447.472 108.096C448.08 107.808 448.736 107.664 449.44 107.664C450.328 107.664 451.136 107.88 451.864 108.312C452.592 108.744 453.168 109.324 453.592 110.052C454.024 110.78 454.24 111.588 454.24 112.476ZM460.235 120.228C459.603 120.188 458.987 120.06 458.387 119.844C457.787 119.628 457.259 119.336 456.803 118.968C456.355 118.592 456.019 118.152 455.795 117.648L457.919 116.736C458.023 116.952 458.203 117.164 458.459 117.372C458.723 117.58 459.031 117.752 459.383 117.888C459.735 118.016 460.103 118.08 460.487 118.08C460.863 118.08 461.211 118.028 461.531 117.924C461.859 117.812 462.127 117.644 462.335 117.42C462.543 117.196 462.647 116.928 462.647 116.616C462.647 116.264 462.527 115.992 462.287 115.8C462.055 115.6 461.763 115.448 461.411 115.344C461.059 115.24 460.707 115.14 460.355 115.044C459.571 114.868 458.851 114.628 458.195 114.324C457.547 114.012 457.031 113.616 456.647 113.136C456.263 112.648 456.071 112.052 456.071 111.348C456.071 110.58 456.279 109.916 456.695 109.356C457.111 108.788 457.655 108.352 458.327 108.048C459.007 107.744 459.731 107.592 460.499 107.592C461.459 107.592 462.339 107.796 463.139 108.204C463.939 108.612 464.551 109.172 464.975 109.884L462.995 111.06C462.875 110.82 462.695 110.604 462.455 110.412C462.215 110.22 461.943 110.068 461.639 109.956C461.335 109.836 461.019 109.768 460.691 109.752C460.283 109.736 459.903 109.784 459.551 109.896C459.207 110 458.931 110.168 458.723 110.4C458.515 110.632 458.411 110.928 458.411 111.288C458.411 111.64 458.535 111.904 458.783 112.08C459.031 112.248 459.343 112.384 459.719 112.488C460.103 112.592 460.495 112.708 460.895 112.836C461.607 113.06 462.275 113.336 462.899 113.664C463.523 113.984 464.027 114.38 464.411 114.852C464.795 115.324 464.979 115.9 464.963 116.58C464.963 117.332 464.735 117.992 464.279 118.56C463.831 119.128 463.247 119.56 462.527 119.856C461.807 120.152 461.043 120.276 460.235 120.228Z" fill="#0C1021"/>
<g clip-path="url(#clip0_2308_2506)">
<mask id="path-5-inside-1_2308_2506" fill="white">
<path d="M92 150H471V427H92V150Z"/>
</mask>
<rect x="377" y="246" width="2" height="185" fill="url(#paint0_linear_2308_2506)"/>
<rect x="93.8262" y="209.864" width="377" height="1" rx="0.5" fill="#002852" fill-opacity="0.05"/>
<rect x="93" y="149" width="278" height="0.999988" rx="0.499994" transform="rotate(90 93 149)" fill="#002852" fill-opacity="0.05"/>
<rect x="93.8262" y="261.864" width="377" height="1" rx="0.5" fill="#002852" fill-opacity="0.05"/>
<rect x="93.8262" y="314.864" width="377" height="1" rx="0.5" fill="#002852" fill-opacity="0.05"/>
<rect x="93.8262" y="366.864" width="377" height="1" rx="0.5" fill="#002852" fill-opacity="0.05"/>
<path d="M81 326C81 326 224.416 308.658 312.249 275.742C398.078 243.577 523 162 523 162" stroke="#9D42FF" stroke-width="2"/>
<path d="M-402 343.273C-402 343.273 -182.943 360.189 -39.988 359.998C113.196 359.794 193.53 340.244 346.707 339.725C472.239 339.301 540.879 354.773 665.935 351.382C790.28 348.011 972 323 972 323" stroke="#4268FF" stroke-width="2"/>
<g filter="url(#filter1_d_2308_2506)">
<rect x="292" y="206" width="171.634" height="28.4878" rx="14.2439" fill="#0C1021" shape-rendering="crispEdges"/>
<rect x="292.354" y="206.354" width="170.927" height="27.7805" rx="13.8902" stroke="#0C1021" stroke-opacity="0.1" stroke-width="0.707317" shape-rendering="crispEdges"/>
<path d="M311.762 214.361H312.951V226.244H311.762V220.472H305.524V226.244H304.335V214.361H305.524V219.284H311.762V214.361ZM314.655 222.993V217.756H315.844V222.755C315.844 223.219 315.957 223.641 316.183 224.02C316.41 224.399 316.712 224.702 317.091 224.928C317.476 225.155 317.898 225.268 318.356 225.268C318.82 225.268 319.239 225.155 319.612 224.928C319.991 224.702 320.294 224.399 320.52 224.02C320.747 223.641 320.86 223.219 320.86 222.755V217.756H322.048L322.057 226.244H320.868L320.86 225.056C320.56 225.486 320.17 225.828 319.689 226.083C319.213 226.337 318.693 226.465 318.127 226.465C317.488 226.465 316.905 226.309 316.378 225.998C315.852 225.687 315.433 225.268 315.122 224.742C314.811 224.215 314.655 223.632 314.655 222.993ZM323.748 226.244V217.756H324.936V218.927C325.242 218.497 325.632 218.155 326.108 217.9C326.583 217.646 327.103 217.518 327.669 217.518C328.309 217.518 328.894 217.677 329.426 217.994C329.958 218.305 330.374 218.721 330.674 219.241C330.974 218.721 331.387 218.305 331.913 217.994C332.439 217.677 333.022 217.518 333.662 217.518C334.301 217.518 334.884 217.674 335.41 217.985C335.936 218.296 336.355 218.715 336.666 219.241C336.978 219.768 337.133 220.351 337.133 220.99V226.244H335.945V221.253C335.945 220.8 335.835 220.382 335.614 219.997C335.393 219.612 335.096 219.304 334.723 219.072C334.355 218.834 333.945 218.715 333.492 218.715C333.039 218.715 332.626 218.826 332.253 219.046C331.885 219.261 331.591 219.561 331.37 219.946C331.149 220.325 331.039 220.761 331.039 221.253V226.244H329.851V221.253C329.851 220.761 329.74 220.325 329.52 219.946C329.299 219.561 329.002 219.261 328.628 219.046C328.255 218.826 327.842 218.715 327.389 218.715C326.942 218.715 326.532 218.834 326.159 219.072C325.785 219.304 325.488 219.612 325.267 219.997C325.047 220.382 324.936 220.8 324.936 221.253V226.244H323.748ZM345.645 217.756H346.833V226.244H345.645L345.602 224.665C345.325 225.203 344.938 225.638 344.44 225.972C343.942 226.3 343.348 226.465 342.657 226.465C342.035 226.465 341.452 226.349 340.909 226.117C340.365 225.879 339.887 225.554 339.474 225.14C339.061 224.727 338.739 224.249 338.507 223.706C338.275 223.163 338.159 222.58 338.159 221.958C338.159 221.346 338.272 220.772 338.498 220.235C338.73 219.697 339.047 219.224 339.449 218.817C339.856 218.41 340.326 218.093 340.858 217.866C341.395 217.634 341.97 217.518 342.581 217.518C343.288 217.518 343.905 217.688 344.431 218.028C344.957 218.362 345.376 218.8 345.687 219.343L345.645 217.756ZM342.632 225.31C343.237 225.31 343.758 225.163 344.193 224.869C344.629 224.569 344.963 224.167 345.195 223.664C345.433 223.16 345.552 222.605 345.552 222C345.552 221.378 345.433 220.817 345.195 220.319C344.957 219.816 344.621 219.417 344.185 219.123C343.749 218.828 343.232 218.681 342.632 218.681C342.032 218.681 341.483 218.831 340.985 219.131C340.493 219.425 340.1 219.824 339.805 220.328C339.517 220.832 339.372 221.389 339.372 222C339.372 222.617 339.522 223.177 339.822 223.681C340.122 224.179 340.518 224.575 341.011 224.869C341.509 225.163 342.049 225.31 342.632 225.31ZM355.933 220.99V226.244H354.745V221.228C354.745 220.764 354.632 220.342 354.405 219.963C354.179 219.584 353.876 219.281 353.497 219.055C353.118 218.828 352.696 218.715 352.232 218.715C351.774 218.715 351.352 218.828 350.968 219.055C350.589 219.281 350.286 219.584 350.059 219.963C349.833 220.342 349.72 220.764 349.72 221.228V226.244H348.532V217.756H349.72V218.927C350.02 218.497 350.41 218.155 350.891 217.9C351.372 217.646 351.896 217.518 352.462 217.518C353.101 217.518 353.684 217.674 354.21 217.985C354.736 218.296 355.155 218.715 355.466 219.241C355.777 219.768 355.933 220.351 355.933 220.99ZM364.334 226.405C363.87 226.394 363.417 226.309 362.976 226.151C362.534 225.992 362.15 225.777 361.821 225.505C361.493 225.234 361.258 224.925 361.117 224.58L362.144 224.139C362.234 224.36 362.401 224.563 362.645 224.75C362.894 224.931 363.177 225.078 363.493 225.191C363.81 225.299 364.124 225.353 364.436 225.353C364.781 225.353 365.103 225.296 365.403 225.183C365.703 225.07 365.946 224.908 366.133 224.699C366.326 224.484 366.422 224.232 366.422 223.944C366.422 223.632 366.32 223.389 366.116 223.214C365.912 223.033 365.655 222.891 365.344 222.789C365.033 222.682 364.713 222.58 364.385 222.484C363.785 222.32 363.256 222.139 362.797 221.941C362.339 221.743 361.98 221.491 361.719 221.185C361.465 220.874 361.338 220.475 361.338 219.988C361.338 219.473 361.482 219.029 361.77 218.656C362.065 218.277 362.447 217.985 362.916 217.782C363.392 217.572 363.898 217.468 364.436 217.468C365.126 217.468 365.754 217.617 366.32 217.917C366.891 218.217 367.304 218.616 367.559 219.114L366.6 219.683C366.498 219.451 366.337 219.25 366.116 219.08C365.895 218.91 365.644 218.777 365.361 218.681C365.083 218.585 364.801 218.534 364.512 218.528C364.15 218.523 363.813 218.577 363.502 218.69C363.191 218.797 362.939 218.959 362.747 219.174C362.56 219.389 362.466 219.652 362.466 219.963C362.466 220.274 362.56 220.512 362.747 220.676C362.933 220.834 363.185 220.964 363.502 221.066C363.824 221.163 364.187 221.276 364.588 221.406C365.103 221.57 365.587 221.757 366.04 221.966C366.492 222.175 366.857 222.436 367.135 222.747C367.412 223.058 367.548 223.451 367.542 223.927C367.542 224.436 367.389 224.88 367.084 225.259C366.778 225.638 366.382 225.93 365.895 226.134C365.409 226.332 364.888 226.422 364.334 226.405ZM373.342 218.944H371.314L371.305 226.244H370.117L370.126 218.944H368.589V217.756H370.126L370.117 215.091H371.305L371.314 217.756H373.342V218.944ZM381.602 217.756H382.79V226.244H381.602L381.56 224.665C381.282 225.203 380.895 225.638 380.397 225.972C379.899 226.3 379.305 226.465 378.614 226.465C377.992 226.465 377.409 226.349 376.866 226.117C376.323 225.879 375.844 225.554 375.431 225.14C375.018 224.727 374.696 224.249 374.464 223.706C374.232 223.163 374.116 222.58 374.116 221.958C374.116 221.346 374.229 220.772 374.455 220.235C374.687 219.697 375.004 219.224 375.406 218.817C375.813 218.41 376.283 218.093 376.815 217.866C377.352 217.634 377.927 217.518 378.538 217.518C379.245 217.518 379.862 217.688 380.388 218.028C380.915 218.362 381.333 218.8 381.644 219.343L381.602 217.756ZM378.589 225.31C379.194 225.31 379.715 225.163 380.151 224.869C380.586 224.569 380.92 224.167 381.152 223.664C381.39 223.16 381.509 222.605 381.509 222C381.509 221.378 381.39 220.817 381.152 220.319C380.915 219.816 380.578 219.417 380.142 219.123C379.706 218.828 379.189 218.681 378.589 218.681C377.989 218.681 377.44 218.831 376.942 219.131C376.45 219.425 376.057 219.824 375.762 220.328C375.474 220.832 375.33 221.389 375.33 222C375.33 222.617 375.479 223.177 375.779 223.681C376.079 224.179 376.475 224.575 376.968 224.869C377.466 225.163 378.006 225.31 378.589 225.31ZM386.246 215.541V217.756H388.792V218.944H386.246V226.244H385.058V218.944H383.895V217.756H385.058V215.541C385.058 215.128 385.157 214.754 385.355 214.42C385.558 214.081 385.83 213.812 386.169 213.614C386.509 213.41 386.885 213.308 387.298 213.308C387.598 213.308 387.887 213.368 388.164 213.487C388.447 213.606 388.699 213.781 388.919 214.013L388.071 214.853C387.98 214.74 387.864 214.652 387.723 214.59C387.587 214.528 387.445 214.497 387.298 214.497C387.01 214.497 386.761 214.599 386.551 214.802C386.348 215.006 386.246 215.252 386.246 215.541ZM392.147 215.541V217.756H394.694V218.944H392.147V226.244H390.959V218.944H389.796V217.756H390.959V215.541C390.959 215.128 391.058 214.754 391.256 214.42C391.46 214.081 391.732 213.812 392.071 213.614C392.411 213.41 392.787 213.308 393.2 213.308C393.5 213.308 393.788 213.368 394.066 213.487C394.349 213.606 394.6 213.781 394.821 214.013L393.972 214.853C393.882 214.74 393.766 214.652 393.624 214.59C393.489 214.528 393.347 214.497 393.2 214.497C392.911 214.497 392.662 214.599 392.453 214.802C392.249 215.006 392.147 215.252 392.147 215.541ZM395.994 217.756H397.182V226.244H395.994V217.756ZM396.596 216.271C396.404 216.271 396.24 216.208 396.104 216.084C395.974 215.954 395.909 215.793 395.909 215.6C395.909 215.408 395.974 215.249 396.104 215.125C396.24 214.995 396.404 214.93 396.596 214.93C396.783 214.93 396.942 214.995 397.072 215.125C397.208 215.249 397.275 215.408 397.275 215.6C397.275 215.793 397.21 215.954 397.08 216.084C396.95 216.208 396.789 216.271 396.596 216.271ZM406.595 220.99V226.244H405.406V221.228C405.406 220.764 405.293 220.342 405.067 219.963C404.84 219.584 404.538 219.281 404.159 219.055C403.78 218.828 403.358 218.715 402.894 218.715C402.436 218.715 402.014 218.828 401.629 219.055C401.25 219.281 400.947 219.584 400.721 219.963C400.495 220.342 400.382 220.764 400.382 221.228V226.244H399.193V217.756H400.382V218.927C400.681 218.497 401.072 218.155 401.553 217.9C402.034 217.646 402.557 217.518 403.123 217.518C403.763 217.518 404.345 217.674 404.872 217.985C405.398 218.296 405.817 218.715 406.128 219.241C406.439 219.768 406.595 220.351 406.595 220.99ZM414.876 217.756H416.065V226.558C416.065 227.101 415.946 227.61 415.708 228.086C415.476 228.561 415.159 228.977 414.758 229.333C414.362 229.696 413.909 229.979 413.4 230.182C412.89 230.386 412.361 230.488 411.812 230.488C411.224 230.488 410.655 230.352 410.106 230.08C409.557 229.814 409.079 229.458 408.672 229.011C408.27 228.564 407.984 228.069 407.815 227.526L408.91 227.025C409.017 227.449 409.218 227.831 409.512 228.171C409.812 228.516 410.163 228.787 410.565 228.985C410.972 229.189 411.388 229.291 411.812 229.291C412.203 229.291 412.579 229.217 412.941 229.07C413.309 228.929 413.637 228.734 413.926 228.485C414.22 228.236 414.452 227.944 414.622 227.61C414.792 227.282 414.876 226.931 414.876 226.558V224.682C414.582 225.214 414.183 225.644 413.68 225.972C413.182 226.3 412.602 226.465 411.94 226.465C411.346 226.465 410.785 226.349 410.259 226.117C409.739 225.885 409.28 225.565 408.884 225.157C408.488 224.744 408.177 224.269 407.95 223.732C407.73 223.194 407.619 222.617 407.619 222C407.619 221.383 407.73 220.806 407.95 220.268C408.177 219.725 408.488 219.25 408.884 218.843C409.28 218.429 409.739 218.107 410.259 217.875C410.785 217.643 411.346 217.527 411.94 217.527C412.602 217.527 413.182 217.691 413.68 218.019C414.183 218.342 414.582 218.772 414.876 219.309V217.756ZM411.948 225.31C412.537 225.31 413.043 225.157 413.468 224.852C413.898 224.546 414.229 224.142 414.461 223.638C414.693 223.135 414.809 222.588 414.809 222C414.809 221.395 414.69 220.843 414.452 220.345C414.22 219.841 413.889 219.44 413.459 219.14C413.029 218.834 412.525 218.681 411.948 218.681C411.371 218.681 410.845 218.831 410.369 219.131C409.9 219.425 409.526 219.824 409.249 220.328C408.972 220.832 408.833 221.389 408.833 222C408.833 222.611 408.975 223.168 409.258 223.672C409.54 224.17 409.917 224.569 410.386 224.869C410.862 225.163 411.382 225.31 411.948 225.31ZM428.247 224.113L429.308 224.691C428.923 225.228 428.434 225.658 427.839 225.981C427.251 226.303 426.612 226.465 425.921 226.465C425.14 226.465 424.427 226.264 423.782 225.862C423.143 225.46 422.631 224.923 422.246 224.249C421.867 223.57 421.677 222.82 421.677 222C421.677 221.378 421.788 220.798 422.008 220.26C422.229 219.717 422.532 219.241 422.917 218.834C423.307 218.421 423.76 218.098 424.275 217.866C424.79 217.634 425.338 217.518 425.921 217.518C426.612 217.518 427.251 217.68 427.839 218.002C428.434 218.325 428.923 218.758 429.308 219.301L428.247 219.87C427.953 219.496 427.599 219.21 427.186 219.012C426.773 218.809 426.351 218.707 425.921 218.707C425.35 218.707 424.832 218.86 424.368 219.165C423.904 219.465 423.536 219.864 423.265 220.362C422.999 220.86 422.866 221.406 422.866 222C422.866 222.594 423.001 223.14 423.273 223.638C423.55 224.136 423.921 224.535 424.385 224.835C424.849 225.129 425.361 225.276 425.921 225.276C426.385 225.276 426.821 225.169 427.228 224.954C427.636 224.739 427.975 224.459 428.247 224.113ZM434.459 226.465C433.678 226.465 432.965 226.264 432.32 225.862C431.68 225.46 431.168 224.923 430.784 224.249C430.404 223.57 430.215 222.82 430.215 222C430.215 221.378 430.325 220.798 430.546 220.26C430.767 219.717 431.069 219.241 431.454 218.834C431.845 218.421 432.297 218.098 432.812 217.866C433.327 217.634 433.876 217.518 434.459 217.518C435.24 217.518 435.95 217.719 436.589 218.121C437.234 218.523 437.746 219.063 438.126 219.742C438.51 220.421 438.703 221.174 438.703 222C438.703 222.617 438.592 223.194 438.372 223.732C438.151 224.269 437.845 224.744 437.455 225.157C437.07 225.565 436.62 225.885 436.105 226.117C435.596 226.349 435.047 226.465 434.459 226.465ZM434.459 225.276C435.036 225.276 435.554 225.126 436.012 224.826C436.476 224.521 436.841 224.119 437.107 223.621C437.379 223.123 437.514 222.583 437.514 222C437.514 221.406 437.379 220.86 437.107 220.362C436.835 219.858 436.468 219.456 436.004 219.157C435.545 218.857 435.03 218.707 434.459 218.707C433.882 218.707 433.361 218.86 432.897 219.165C432.439 219.465 432.074 219.864 431.802 220.362C431.536 220.86 431.403 221.406 431.403 222C431.403 222.611 431.542 223.166 431.819 223.664C432.096 224.156 432.467 224.549 432.931 224.843C433.395 225.132 433.904 225.276 434.459 225.276ZM442.78 226.405C442.316 226.394 441.863 226.309 441.422 226.151C440.98 225.992 440.595 225.777 440.267 225.505C439.939 225.234 439.704 224.925 439.563 224.58L440.59 224.139C440.68 224.36 440.847 224.563 441.091 224.75C441.34 224.931 441.622 225.078 441.939 225.191C442.256 225.299 442.57 225.353 442.881 225.353C443.227 225.353 443.549 225.296 443.849 225.183C444.149 225.07 444.392 224.908 444.579 224.699C444.771 224.484 444.868 224.232 444.868 223.944C444.868 223.632 444.766 223.389 444.562 223.214C444.358 223.033 444.101 222.891 443.79 222.789C443.478 222.682 443.159 222.58 442.831 222.484C442.231 222.32 441.702 222.139 441.243 221.941C440.785 221.743 440.426 221.491 440.165 221.185C439.911 220.874 439.783 220.475 439.783 219.988C439.783 219.473 439.928 219.029 440.216 218.656C440.511 218.277 440.892 217.985 441.362 217.782C441.837 217.572 442.344 217.468 442.881 217.468C443.572 217.468 444.2 217.617 444.766 217.917C445.337 218.217 445.75 218.616 446.005 219.114L445.046 219.683C444.944 219.451 444.783 219.25 444.562 219.08C444.341 218.91 444.09 218.777 443.807 218.681C443.529 218.585 443.246 218.534 442.958 218.528C442.596 218.523 442.259 218.577 441.948 218.69C441.637 218.797 441.385 218.959 441.192 219.174C441.006 219.389 440.912 219.652 440.912 219.963C440.912 220.274 441.006 220.512 441.192 220.676C441.379 220.834 441.631 220.964 441.948 221.066C442.27 221.163 442.632 221.276 443.034 221.406C443.549 221.57 444.033 221.757 444.486 221.966C444.938 222.175 445.303 222.436 445.581 222.747C445.858 223.058 445.994 223.451 445.988 223.927C445.988 224.436 445.835 224.88 445.53 225.259C445.224 225.638 444.828 225.93 444.341 226.134C443.855 226.332 443.334 226.422 442.78 226.405ZM451.788 218.944H449.76L449.751 226.244H448.563L448.571 218.944H447.035V217.756H448.571L448.563 215.091H449.751L449.76 217.756H451.788V218.944Z" fill="white"/>
</g>
<rect x="298" y="340" width="2" height="91" fill="url(#paint1_linear_2308_2506)"/>
<g filter="url(#filter2_d_2308_2506)">
<circle cx="378" cy="246" r="8" fill="#9D42FF"/>
<circle cx="378" cy="246" r="7" stroke="white" stroke-width="2"/>
</g>
<g filter="url(#filter3_d_2308_2506)">
<circle cx="299" cy="339" r="8" fill="#4268FF"/>
<circle cx="299" cy="339" r="7" stroke="white" stroke-width="2"/>
</g>
<g filter="url(#filter4_d_2308_2506)">
<rect x="220" y="302" width="163.634" height="28.4878" rx="14.2439" fill="#0C1021" shape-rendering="crispEdges"/>
<rect x="220.354" y="302.354" width="162.927" height="27.7805" rx="13.8902" stroke="#0C1021" stroke-opacity="0.1" stroke-width="0.707317" shape-rendering="crispEdges"/>
<path d="M236.316 310.361H237.793L242.122 322.244H240.857L239.932 319.698H234.186L233.261 322.244H231.996L236.316 310.361ZM234.619 318.509H239.491L237.055 311.821L234.619 318.509ZM243.962 322.244V310.361H245.151V322.244H243.962ZM258.493 313.756H259.681V322.244H258.493L258.45 320.665C258.173 321.203 257.786 321.638 257.288 321.972C256.79 322.3 256.195 322.465 255.505 322.465C254.883 322.465 254.3 322.349 253.757 322.117C253.213 321.879 252.735 321.554 252.322 321.14C251.909 320.727 251.587 320.249 251.355 319.706C251.123 319.163 251.007 318.58 251.007 317.958C251.007 317.346 251.12 316.772 251.346 316.235C251.578 315.697 251.895 315.224 252.297 314.817C252.704 314.41 253.174 314.093 253.706 313.866C254.243 313.634 254.818 313.518 255.429 313.518C256.136 313.518 256.753 313.688 257.279 314.028C257.805 314.362 258.224 314.8 258.535 315.343L258.493 313.756ZM255.48 321.31C256.085 321.31 256.606 321.163 257.041 320.869C257.477 320.569 257.811 320.167 258.043 319.664C258.281 319.16 258.399 318.605 258.399 318C258.399 317.378 258.281 316.817 258.043 316.319C257.805 315.816 257.469 315.417 257.033 315.123C256.597 314.828 256.079 314.681 255.48 314.681C254.88 314.681 254.331 314.831 253.833 315.131C253.341 315.425 252.947 315.824 252.653 316.328C252.365 316.832 252.22 317.389 252.22 318C252.22 318.617 252.37 319.177 252.67 319.681C252.97 320.179 253.366 320.575 253.859 320.869C254.356 321.163 254.897 321.31 255.48 321.31ZM261.04 318.993V313.756H262.228V318.755C262.228 319.219 262.342 319.641 262.568 320.02C262.794 320.399 263.097 320.702 263.476 320.928C263.861 321.155 264.282 321.268 264.741 321.268C265.205 321.268 265.624 321.155 265.997 320.928C266.376 320.702 266.679 320.399 266.905 320.02C267.132 319.641 267.245 319.219 267.245 318.755V313.756H268.433L268.441 322.244H267.253L267.245 321.056C266.945 321.486 266.554 321.828 266.073 322.083C265.598 322.337 265.077 322.465 264.512 322.465C263.872 322.465 263.289 322.309 262.763 321.998C262.237 321.687 261.818 321.268 261.507 320.742C261.196 320.215 261.04 319.632 261.04 318.993ZM274.47 314.944H272.441L272.433 322.244H271.245L271.253 314.944H269.717V313.756H271.253L271.245 311.091H272.433L272.441 313.756H274.47V314.944ZM279.487 322.465C278.706 322.465 277.993 322.264 277.348 321.862C276.709 321.46 276.197 320.923 275.812 320.249C275.433 319.57 275.243 318.82 275.243 318C275.243 317.378 275.354 316.798 275.574 316.26C275.795 315.717 276.098 315.241 276.482 314.834C276.873 314.421 277.326 314.098 277.841 313.866C278.355 313.634 278.904 313.518 279.487 313.518C280.268 313.518 280.978 313.719 281.618 314.121C282.263 314.523 282.775 315.063 283.154 315.742C283.539 316.421 283.731 317.174 283.731 318C283.731 318.617 283.621 319.194 283.4 319.732C283.179 320.269 282.874 320.744 282.483 321.157C282.099 321.565 281.649 321.885 281.134 322.117C280.625 322.349 280.076 322.465 279.487 322.465ZM279.487 321.276C280.064 321.276 280.582 321.126 281.04 320.826C281.504 320.521 281.869 320.119 282.135 319.621C282.407 319.123 282.543 318.583 282.543 318C282.543 317.406 282.407 316.86 282.135 316.362C281.864 315.858 281.496 315.456 281.032 315.157C280.574 314.857 280.059 314.707 279.487 314.707C278.91 314.707 278.389 314.86 277.925 315.165C277.467 315.465 277.102 315.864 276.83 316.362C276.565 316.86 276.432 317.406 276.432 318C276.432 318.611 276.57 319.166 276.847 319.664C277.125 320.156 277.495 320.549 277.959 320.843C278.423 321.132 278.933 321.276 279.487 321.276ZM285.169 322.244V313.756H286.357V314.927C286.663 314.497 287.053 314.155 287.528 313.9C288.004 313.646 288.524 313.518 289.09 313.518C289.729 313.518 290.315 313.677 290.847 313.994C291.379 314.305 291.795 314.721 292.095 315.241C292.395 314.721 292.808 314.305 293.334 313.994C293.86 313.677 294.443 313.518 295.082 313.518C295.722 313.518 296.305 313.674 296.831 313.985C297.357 314.296 297.776 314.715 298.087 315.241C298.398 315.768 298.554 316.351 298.554 316.99V322.244H297.366V317.253C297.366 316.8 297.255 316.382 297.035 315.997C296.814 315.612 296.517 315.304 296.143 315.072C295.776 314.834 295.365 314.715 294.913 314.715C294.46 314.715 294.047 314.826 293.673 315.046C293.306 315.261 293.011 315.561 292.791 315.946C292.57 316.325 292.46 316.761 292.46 317.253V322.244H291.271V317.253C291.271 316.761 291.161 316.325 290.94 315.946C290.72 315.561 290.423 315.261 290.049 315.046C289.676 314.826 289.263 314.715 288.81 314.715C288.363 314.715 287.953 314.834 287.579 315.072C287.206 315.304 286.909 315.612 286.688 315.997C286.467 316.382 286.357 316.8 286.357 317.253V322.244H285.169ZM307.066 313.756H308.254V322.244H307.066L307.023 320.665C306.746 321.203 306.358 321.638 305.86 321.972C305.362 322.3 304.768 322.465 304.078 322.465C303.455 322.465 302.873 322.349 302.329 322.117C301.786 321.879 301.308 321.554 300.895 321.14C300.482 320.727 300.159 320.249 299.927 319.706C299.695 319.163 299.579 318.58 299.579 317.958C299.579 317.346 299.693 316.772 299.919 316.235C300.151 315.697 300.468 315.224 300.87 314.817C301.277 314.41 301.747 314.093 302.279 313.866C302.816 313.634 303.39 313.518 304.002 313.518C304.709 313.518 305.326 313.688 305.852 314.028C306.378 314.362 306.797 314.8 307.108 315.343L307.066 313.756ZM304.052 321.31C304.658 321.31 305.179 321.163 305.614 320.869C306.05 320.569 306.384 320.167 306.616 319.664C306.853 319.16 306.972 318.605 306.972 318C306.972 317.378 306.853 316.817 306.616 316.319C306.378 315.816 306.041 315.417 305.606 315.123C305.17 314.828 304.652 314.681 304.052 314.681C303.453 314.681 302.904 314.831 302.406 315.131C301.914 315.425 301.52 315.824 301.226 316.328C300.937 316.832 300.793 317.389 300.793 318C300.793 318.617 300.943 319.177 301.243 319.681C301.543 320.179 301.939 320.575 302.431 320.869C302.929 321.163 303.47 321.31 304.052 321.31ZM314.29 314.944H312.261L312.253 322.244H311.064L311.073 314.944H309.537V313.756H311.073L311.064 311.091H312.253L312.261 313.756H314.29V314.944ZM315.738 313.756H316.926V322.244H315.738V313.756ZM316.341 312.271C316.148 312.271 315.984 312.208 315.848 312.084C315.718 311.954 315.653 311.793 315.653 311.6C315.653 311.408 315.718 311.249 315.848 311.125C315.984 310.995 316.148 310.93 316.341 310.93C316.527 310.93 316.686 310.995 316.816 311.125C316.952 311.249 317.02 311.408 317.02 311.6C317.02 311.793 316.955 311.954 316.824 312.084C316.694 312.208 316.533 312.271 316.341 312.271ZM322.622 322.465C321.842 322.465 321.129 322.264 320.484 321.862C319.844 321.46 319.332 320.923 318.947 320.249C318.568 319.57 318.379 318.82 318.379 318C318.379 317.378 318.489 316.798 318.71 316.26C318.93 315.717 319.233 315.241 319.618 314.834C320.008 314.421 320.461 314.098 320.976 313.866C321.491 313.634 322.04 313.518 322.622 313.518C323.403 313.518 324.113 313.719 324.753 314.121C325.398 314.523 325.91 315.063 326.289 315.742C326.674 316.421 326.866 317.174 326.866 318C326.866 318.617 326.756 319.194 326.535 319.732C326.315 320.269 326.009 320.744 325.619 321.157C325.234 321.565 324.784 321.885 324.269 322.117C323.76 322.349 323.211 322.465 322.622 322.465ZM322.622 321.276C323.2 321.276 323.717 321.126 324.176 320.826C324.64 320.521 325.005 320.119 325.271 319.621C325.542 319.123 325.678 318.583 325.678 318C325.678 317.406 325.542 316.86 325.271 316.362C324.999 315.858 324.631 315.456 324.167 315.157C323.709 314.857 323.194 314.707 322.622 314.707C322.045 314.707 321.525 314.86 321.061 315.165C320.602 315.465 320.237 315.864 319.966 316.362C319.7 316.86 319.567 317.406 319.567 318C319.567 318.611 319.705 319.166 319.983 319.664C320.26 320.156 320.631 320.549 321.095 320.843C321.559 321.132 322.068 321.276 322.622 321.276ZM335.705 316.99V322.244H334.517V317.228C334.517 316.764 334.404 316.342 334.178 315.963C333.951 315.584 333.648 315.281 333.269 315.055C332.89 314.828 332.469 314.715 332.005 314.715C331.546 314.715 331.125 314.828 330.74 315.055C330.361 315.281 330.058 315.584 329.832 315.963C329.605 316.342 329.492 316.764 329.492 317.228V322.244H328.304V313.756H329.492V314.927C329.792 314.497 330.183 314.155 330.664 313.9C331.145 313.646 331.668 313.518 332.234 313.518C332.873 313.518 333.456 313.674 333.982 313.985C334.509 314.296 334.927 314.715 335.239 315.241C335.55 315.768 335.705 316.351 335.705 316.99ZM347.544 320.113L348.605 320.691C348.22 321.228 347.73 321.658 347.136 321.981C346.548 322.303 345.908 322.465 345.218 322.465C344.437 322.465 343.724 322.264 343.079 321.862C342.44 321.46 341.927 320.923 341.543 320.249C341.164 319.57 340.974 318.82 340.974 318C340.974 317.378 341.084 316.798 341.305 316.26C341.526 315.717 341.828 315.241 342.213 314.834C342.604 314.421 343.056 314.098 343.571 313.866C344.086 313.634 344.635 313.518 345.218 313.518C345.908 313.518 346.548 313.68 347.136 314.002C347.73 314.325 348.22 314.758 348.605 315.301L347.544 315.87C347.249 315.496 346.896 315.21 346.483 315.012C346.07 314.809 345.648 314.707 345.218 314.707C344.646 314.707 344.129 314.86 343.665 315.165C343.201 315.465 342.833 315.864 342.561 316.362C342.295 316.86 342.162 317.406 342.162 318C342.162 318.594 342.298 319.14 342.57 319.638C342.847 320.136 343.218 320.535 343.682 320.835C344.146 321.129 344.658 321.276 345.218 321.276C345.682 321.276 346.118 321.169 346.525 320.954C346.932 320.739 347.272 320.459 347.544 320.113ZM353.755 322.465C352.975 322.465 352.262 322.264 351.617 321.862C350.977 321.46 350.465 320.923 350.08 320.249C349.701 319.57 349.512 318.82 349.512 318C349.512 317.378 349.622 316.798 349.843 316.26C350.063 315.717 350.366 315.241 350.751 314.834C351.141 314.421 351.594 314.098 352.109 313.866C352.624 313.634 353.173 313.518 353.755 313.518C354.536 313.518 355.246 313.719 355.886 314.121C356.531 314.523 357.043 315.063 357.422 315.742C357.807 316.421 357.999 317.174 357.999 318C357.999 318.617 357.889 319.194 357.668 319.732C357.448 320.269 357.142 320.744 356.752 321.157C356.367 321.565 355.917 321.885 355.402 322.117C354.893 322.349 354.344 322.465 353.755 322.465ZM353.755 321.276C354.333 321.276 354.85 321.126 355.309 320.826C355.773 320.521 356.138 320.119 356.404 319.621C356.675 319.123 356.811 318.583 356.811 318C356.811 317.406 356.675 316.86 356.404 316.362C356.132 315.858 355.764 315.456 355.3 315.157C354.842 314.857 354.327 314.707 353.755 314.707C353.178 314.707 352.658 314.86 352.194 315.165C351.735 315.465 351.37 315.864 351.099 316.362C350.833 316.86 350.7 317.406 350.7 318C350.7 318.611 350.838 319.166 351.116 319.664C351.393 320.156 351.764 320.549 352.228 320.843C352.692 321.132 353.201 321.276 353.755 321.276ZM362.076 322.405C361.612 322.394 361.16 322.309 360.718 322.151C360.277 321.992 359.892 321.777 359.564 321.505C359.236 321.234 359.001 320.925 358.859 320.58L359.886 320.139C359.977 320.36 360.144 320.563 360.387 320.75C360.636 320.931 360.919 321.078 361.236 321.191C361.553 321.299 361.867 321.353 362.178 321.353C362.523 321.353 362.846 321.296 363.146 321.183C363.446 321.07 363.689 320.908 363.876 320.699C364.068 320.484 364.164 320.232 364.164 319.944C364.164 319.632 364.062 319.389 363.859 319.214C363.655 319.033 363.398 318.891 363.086 318.789C362.775 318.682 362.455 318.58 362.127 318.484C361.527 318.32 360.998 318.139 360.54 317.941C360.082 317.743 359.722 317.491 359.462 317.185C359.207 316.874 359.08 316.475 359.08 315.988C359.08 315.473 359.224 315.029 359.513 314.656C359.807 314.277 360.189 313.985 360.659 313.782C361.134 313.572 361.641 313.468 362.178 313.468C362.868 313.468 363.497 313.617 364.062 313.917C364.634 314.217 365.047 314.616 365.302 315.114L364.343 315.683C364.241 315.451 364.079 315.25 363.859 315.08C363.638 314.91 363.386 314.777 363.103 314.681C362.826 314.585 362.543 314.534 362.255 314.528C361.892 314.523 361.556 314.577 361.244 314.69C360.933 314.797 360.681 314.959 360.489 315.174C360.302 315.389 360.209 315.652 360.209 315.963C360.209 316.274 360.302 316.512 360.489 316.676C360.676 316.834 360.928 316.964 361.244 317.066C361.567 317.163 361.929 317.276 362.331 317.406C362.846 317.57 363.33 317.757 363.782 317.966C364.235 318.175 364.6 318.436 364.877 318.747C365.155 319.058 365.29 319.451 365.285 319.927C365.285 320.436 365.132 320.88 364.826 321.259C364.521 321.638 364.125 321.93 363.638 322.134C363.151 322.332 362.631 322.422 362.076 322.405ZM371.085 314.944H369.056L369.048 322.244H367.86L367.868 314.944H366.332V313.756H367.868L367.86 311.091H369.048L369.056 313.756H371.085V314.944Z" fill="white"/>
</g>
</g>
<path d="M471 427V426H92V427V428H471V427Z" fill="#002852" fill-opacity="0.05" mask="url(#path-5-inside-1_2308_2506)"/>
<path d="M97.39 464.182C96.7273 464.182 96.1043 464.051 95.521 463.79C94.9377 463.524 94.4243 463.158 93.981 462.691C93.5377 462.224 93.19 461.685 92.938 461.074C92.686 460.458 92.56 459.8 92.56 459.1C92.56 458.4 92.686 457.744 92.938 457.133C93.19 456.517 93.5377 455.976 93.981 455.509C94.4243 455.042 94.9377 454.678 95.521 454.417C96.1043 454.151 96.7273 454.018 97.39 454.018C98.0573 454.018 98.6827 454.151 99.266 454.417C99.8493 454.678 100.363 455.042 100.806 455.509C101.249 455.976 101.595 456.517 101.842 457.133C102.094 457.744 102.22 458.4 102.22 459.1C102.22 459.8 102.094 460.458 101.842 461.074C101.595 461.685 101.249 462.224 100.806 462.691C100.363 463.158 99.8493 463.524 99.266 463.79C98.6827 464.051 98.0573 464.182 97.39 464.182ZM97.39 463.202C97.9267 463.202 98.426 463.095 98.888 462.88C99.3547 462.661 99.763 462.362 100.113 461.984C100.468 461.606 100.743 461.17 100.939 460.675C101.14 460.18 101.24 459.655 101.24 459.1C101.24 458.54 101.14 458.013 100.939 457.518C100.738 457.019 100.461 456.582 100.106 456.209C99.756 455.831 99.3477 455.535 98.881 455.32C98.419 455.105 97.922 454.998 97.39 454.998C96.8533 454.998 96.3517 455.108 95.885 455.327C95.423 455.542 95.0147 455.838 94.66 456.216C94.31 456.594 94.0347 457.03 93.834 457.525C93.638 458.02 93.54 458.545 93.54 459.1C93.54 459.665 93.6403 460.194 93.841 460.689C94.0417 461.184 94.317 461.62 94.667 461.998C95.0217 462.376 95.43 462.672 95.892 462.887C96.3587 463.097 96.858 463.202 97.39 463.202ZM104.593 467.5H103.613V457H104.593V458.309C104.836 457.866 105.167 457.506 105.587 457.231C106.007 456.956 106.507 456.818 107.085 456.818C107.594 456.818 108.07 456.914 108.513 457.105C108.961 457.296 109.353 457.562 109.689 457.903C110.025 458.239 110.289 458.629 110.48 459.072C110.672 459.515 110.767 459.991 110.767 460.5C110.767 461.009 110.672 461.487 110.48 461.935C110.289 462.383 110.025 462.777 109.689 463.118C109.353 463.454 108.961 463.718 108.513 463.909C108.07 464.1 107.594 464.196 107.085 464.196C106.507 464.196 106.007 464.058 105.587 463.783C105.167 463.508 104.836 463.148 104.593 462.705V467.5ZM107.078 457.77C106.588 457.77 106.161 457.894 105.797 458.141C105.438 458.384 105.16 458.71 104.964 459.121C104.768 459.532 104.67 459.991 104.67 460.5C104.67 460.999 104.766 461.457 104.957 461.872C105.153 462.287 105.431 462.619 105.79 462.866C106.154 463.113 106.584 463.237 107.078 463.237C107.564 463.237 108.009 463.116 108.415 462.873C108.826 462.63 109.155 462.304 109.402 461.893C109.65 461.478 109.773 461.013 109.773 460.5C109.773 460.001 109.652 459.546 109.409 459.135C109.167 458.72 108.842 458.388 108.436 458.141C108.03 457.894 107.578 457.77 107.078 457.77ZM114.965 464.182C114.321 464.182 113.733 464.016 113.201 463.685C112.674 463.354 112.251 462.91 111.934 462.355C111.621 461.795 111.465 461.177 111.465 460.5C111.465 459.987 111.556 459.508 111.738 459.065C111.92 458.617 112.17 458.225 112.487 457.889C112.809 457.548 113.182 457.282 113.607 457.091C114.032 456.9 114.484 456.804 114.965 456.804C115.483 456.804 115.959 456.907 116.393 457.112C116.832 457.317 117.207 457.604 117.52 457.973C117.837 458.342 118.075 458.773 118.234 459.268C118.397 459.763 118.465 460.297 118.437 460.871H112.501C112.557 461.314 112.697 461.711 112.921 462.061C113.15 462.411 113.439 462.689 113.789 462.894C114.144 463.095 114.536 463.197 114.965 463.202C115.432 463.202 115.852 463.081 116.225 462.838C116.603 462.595 116.906 462.262 117.135 461.837L118.129 462.068C117.849 462.689 117.427 463.197 116.862 463.594C116.297 463.986 115.665 464.182 114.965 464.182ZM112.473 460.08H117.45C117.417 459.646 117.284 459.249 117.051 458.89C116.822 458.526 116.526 458.237 116.162 458.022C115.798 457.803 115.399 457.693 114.965 457.693C114.531 457.693 114.134 457.8 113.775 458.015C113.416 458.225 113.122 458.512 112.893 458.876C112.664 459.235 112.524 459.637 112.473 460.08ZM119.637 464V457H120.617V457.966C120.864 457.611 121.186 457.329 121.583 457.119C121.98 456.909 122.411 456.804 122.878 456.804C123.149 456.804 123.41 456.839 123.662 456.909L123.263 457.882C123.067 457.821 122.876 457.791 122.689 457.791C122.311 457.791 121.963 457.884 121.646 458.071C121.333 458.258 121.084 458.507 120.897 458.82C120.71 459.133 120.617 459.48 120.617 459.863V464H119.637ZM129.93 457H130.91V464H129.93L129.895 462.698C129.666 463.141 129.347 463.501 128.936 463.776C128.525 464.047 128.035 464.182 127.466 464.182C126.953 464.182 126.472 464.086 126.024 463.895C125.576 463.699 125.182 463.431 124.841 463.09C124.5 462.749 124.234 462.355 124.043 461.907C123.852 461.459 123.756 460.978 123.756 460.465C123.756 459.961 123.849 459.487 124.036 459.044C124.227 458.601 124.489 458.211 124.82 457.875C125.156 457.539 125.543 457.278 125.982 457.091C126.425 456.9 126.899 456.804 127.403 456.804C127.986 456.804 128.495 456.944 128.929 457.224C129.363 457.499 129.708 457.861 129.965 458.309L129.93 457ZM127.445 463.23C127.944 463.23 128.374 463.109 128.733 462.866C129.092 462.619 129.368 462.287 129.559 461.872C129.755 461.457 129.853 460.999 129.853 460.5C129.853 459.987 129.755 459.525 129.559 459.114C129.363 458.699 129.085 458.37 128.726 458.127C128.367 457.884 127.94 457.763 127.445 457.763C126.95 457.763 126.498 457.887 126.087 458.134C125.681 458.377 125.357 458.706 125.114 459.121C124.876 459.536 124.757 459.996 124.757 460.5C124.757 461.009 124.881 461.471 125.128 461.886C125.375 462.297 125.702 462.623 126.108 462.866C126.519 463.109 126.964 463.23 127.445 463.23ZM135.888 457.98H134.215L134.208 464H133.228L133.235 457.98H131.968V457H133.235L133.228 454.802H134.208L134.215 457H135.888V457.98ZM137.082 457H138.062V464H137.082V457ZM137.579 455.775C137.421 455.775 137.285 455.724 137.173 455.621C137.066 455.514 137.012 455.381 137.012 455.222C137.012 455.063 137.066 454.933 137.173 454.83C137.285 454.723 137.421 454.669 137.579 454.669C137.733 454.669 137.864 454.723 137.971 454.83C138.083 454.933 138.139 455.063 138.139 455.222C138.139 455.381 138.086 455.514 137.978 455.621C137.871 455.724 137.738 455.775 137.579 455.775ZM142.76 464.182C142.116 464.182 141.528 464.016 140.996 463.685C140.469 463.354 140.046 462.91 139.729 462.355C139.416 461.795 139.26 461.177 139.26 460.5C139.26 459.987 139.351 459.508 139.533 459.065C139.715 458.617 139.965 458.225 140.282 457.889C140.604 457.548 140.977 457.282 141.402 457.091C141.827 456.9 142.279 456.804 142.76 456.804C143.404 456.804 143.99 456.97 144.517 457.301C145.049 457.632 145.471 458.078 145.784 458.638C146.101 459.198 146.26 459.819 146.26 460.5C146.26 461.009 146.169 461.485 145.987 461.928C145.805 462.371 145.553 462.763 145.231 463.104C144.914 463.44 144.543 463.704 144.118 463.895C143.698 464.086 143.245 464.182 142.76 464.182ZM142.76 463.202C143.236 463.202 143.663 463.078 144.041 462.831C144.424 462.579 144.725 462.248 144.944 461.837C145.168 461.426 145.28 460.981 145.28 460.5C145.28 460.01 145.168 459.56 144.944 459.149C144.72 458.734 144.417 458.402 144.034 458.155C143.656 457.908 143.231 457.784 142.76 457.784C142.284 457.784 141.855 457.91 141.472 458.162C141.094 458.409 140.793 458.738 140.569 459.149C140.35 459.56 140.24 460.01 140.24 460.5C140.24 461.004 140.354 461.461 140.583 461.872C140.812 462.278 141.117 462.602 141.5 462.845C141.883 463.083 142.303 463.202 142.76 463.202ZM153.549 459.667V464H152.569V459.863C152.569 459.48 152.476 459.133 152.289 458.82C152.103 458.507 151.853 458.258 151.54 458.071C151.228 457.884 150.88 457.791 150.497 457.791C150.119 457.791 149.772 457.884 149.454 458.071C149.142 458.258 148.892 458.507 148.705 458.82C148.519 459.133 148.425 459.48 148.425 459.863V464H147.445V457H148.425V457.966C148.673 457.611 148.995 457.329 149.391 457.119C149.788 456.909 150.22 456.804 150.686 456.804C151.214 456.804 151.694 456.932 152.128 457.189C152.562 457.446 152.908 457.791 153.164 458.225C153.421 458.659 153.549 459.14 153.549 459.667ZM160.569 457H161.549V464H160.569L160.534 462.698C160.305 463.141 159.985 463.501 159.575 463.776C159.164 464.047 158.674 464.182 158.105 464.182C157.591 464.182 157.111 464.086 156.663 463.895C156.215 463.699 155.82 463.431 155.48 463.09C155.139 462.749 154.873 462.355 154.682 461.907C154.49 461.459 154.395 460.978 154.395 460.465C154.395 459.961 154.488 459.487 154.675 459.044C154.866 458.601 155.127 458.211 155.459 457.875C155.795 457.539 156.182 457.278 156.621 457.091C157.064 456.9 157.538 456.804 158.042 456.804C158.625 456.804 159.134 456.944 159.568 457.224C160.002 457.499 160.347 457.861 160.604 458.309L160.569 457ZM158.084 463.23C158.583 463.23 159.012 463.109 159.372 462.866C159.731 462.619 160.006 462.287 160.198 461.872C160.394 461.457 160.492 460.999 160.492 460.5C160.492 459.987 160.394 459.525 160.198 459.114C160.002 458.699 159.724 458.37 159.365 458.127C159.005 457.884 158.578 457.763 158.084 457.763C157.589 457.763 157.136 457.887 156.726 458.134C156.32 458.377 155.995 458.706 155.753 459.121C155.515 459.536 155.396 459.996 155.396 460.5C155.396 461.009 155.519 461.471 155.767 461.886C156.014 462.297 156.341 462.623 156.747 462.866C157.157 463.109 157.603 463.23 158.084 463.23ZM163.045 464V453.5H164.025V464H163.045ZM174.072 462.243L174.947 462.719C174.63 463.162 174.226 463.517 173.736 463.783C173.251 464.049 172.724 464.182 172.154 464.182C171.51 464.182 170.922 464.016 170.39 463.685C169.863 463.354 169.441 462.91 169.123 462.355C168.811 461.795 168.654 461.177 168.654 460.5C168.654 459.987 168.745 459.508 168.927 459.065C169.109 458.617 169.359 458.225 169.676 457.889C169.998 457.548 170.372 457.282 170.796 457.091C171.221 456.9 171.674 456.804 172.154 456.804C172.724 456.804 173.251 456.937 173.736 457.203C174.226 457.469 174.63 457.826 174.947 458.274L174.072 458.743C173.83 458.435 173.538 458.199 173.197 458.036C172.857 457.868 172.509 457.784 172.154 457.784C171.683 457.784 171.256 457.91 170.873 458.162C170.491 458.409 170.187 458.738 169.963 459.149C169.744 459.56 169.634 460.01 169.634 460.5C169.634 460.99 169.746 461.44 169.97 461.851C170.199 462.262 170.505 462.591 170.887 462.838C171.27 463.081 171.692 463.202 172.154 463.202C172.537 463.202 172.896 463.113 173.232 462.936C173.568 462.759 173.848 462.528 174.072 462.243ZM179.195 464.182C178.551 464.182 177.963 464.016 177.431 463.685C176.904 463.354 176.482 462.91 176.164 462.355C175.852 461.795 175.695 461.177 175.695 460.5C175.695 459.987 175.786 459.508 175.968 459.065C176.15 458.617 176.4 458.225 176.717 457.889C177.039 457.548 177.413 457.282 177.837 457.091C178.262 456.9 178.715 456.804 179.195 456.804C179.839 456.804 180.425 456.97 180.952 457.301C181.484 457.632 181.907 458.078 182.219 458.638C182.537 459.198 182.695 459.819 182.695 460.5C182.695 461.009 182.604 461.485 182.422 461.928C182.24 462.371 181.988 462.763 181.666 463.104C181.349 463.44 180.978 463.704 180.553 463.895C180.133 464.086 179.681 464.182 179.195 464.182ZM179.195 463.202C179.671 463.202 180.098 463.078 180.476 462.831C180.859 462.579 181.16 462.248 181.379 461.837C181.603 461.426 181.715 460.981 181.715 460.5C181.715 460.01 181.603 459.56 181.379 459.149C181.155 458.734 180.852 458.402 180.469 458.155C180.091 457.908 179.667 457.784 179.195 457.784C178.719 457.784 178.29 457.91 177.907 458.162C177.529 458.409 177.228 458.738 177.004 459.149C176.785 459.56 176.675 460.01 176.675 460.5C176.675 461.004 176.79 461.461 177.018 461.872C177.247 462.278 177.553 462.602 177.935 462.845C178.318 463.083 178.738 463.202 179.195 463.202ZM186.058 464.133C185.675 464.124 185.302 464.054 184.938 463.923C184.574 463.792 184.256 463.615 183.986 463.391C183.715 463.167 183.521 462.913 183.405 462.628L184.252 462.264C184.326 462.446 184.464 462.614 184.665 462.768C184.87 462.917 185.103 463.039 185.365 463.132C185.626 463.221 185.885 463.265 186.142 463.265C186.426 463.265 186.692 463.218 186.94 463.125C187.187 463.032 187.388 462.899 187.542 462.726C187.7 462.549 187.78 462.341 187.78 462.103C187.78 461.846 187.696 461.646 187.528 461.501C187.36 461.352 187.147 461.235 186.891 461.151C186.634 461.062 186.37 460.978 186.1 460.899C185.605 460.764 185.169 460.614 184.791 460.451C184.413 460.288 184.116 460.08 183.902 459.828C183.692 459.571 183.587 459.242 183.587 458.841C183.587 458.416 183.706 458.05 183.944 457.742C184.186 457.429 184.501 457.189 184.889 457.021C185.281 456.848 185.698 456.762 186.142 456.762C186.711 456.762 187.229 456.886 187.696 457.133C188.167 457.38 188.508 457.709 188.718 458.12L187.927 458.589C187.843 458.398 187.71 458.232 187.528 458.092C187.346 457.952 187.138 457.842 186.905 457.763C186.676 457.684 186.443 457.642 186.205 457.637C185.906 457.632 185.628 457.677 185.372 457.77C185.115 457.859 184.907 457.992 184.749 458.169C184.595 458.346 184.518 458.563 184.518 458.82C184.518 459.077 184.595 459.273 184.749 459.408C184.903 459.539 185.11 459.646 185.372 459.73C185.638 459.809 185.936 459.903 186.268 460.01C186.692 460.145 187.091 460.299 187.465 460.472C187.838 460.645 188.139 460.859 188.368 461.116C188.596 461.373 188.708 461.697 188.704 462.089C188.704 462.509 188.578 462.875 188.326 463.188C188.074 463.501 187.747 463.741 187.346 463.909C186.944 464.072 186.515 464.147 186.058 464.133ZM193.487 457.98H191.814L191.807 464H190.827L190.834 457.98H189.567V457H190.834L190.827 454.802H191.807L191.814 457H193.487V457.98ZM198.1 464V457H199.08V457.966C199.327 457.611 199.649 457.329 200.046 457.119C200.442 456.909 200.874 456.804 201.341 456.804C201.611 456.804 201.873 456.839 202.125 456.909L201.726 457.882C201.53 457.821 201.338 457.791 201.152 457.791C200.774 457.791 200.426 457.884 200.109 458.071C199.796 458.258 199.546 458.507 199.36 458.82C199.173 459.133 199.08 459.48 199.08 459.863V464H198.1ZM205.719 464.182C205.075 464.182 204.487 464.016 203.955 463.685C203.427 463.354 203.005 462.91 202.688 462.355C202.375 461.795 202.219 461.177 202.219 460.5C202.219 459.987 202.31 459.508 202.492 459.065C202.674 458.617 202.923 458.225 203.241 457.889C203.563 457.548 203.936 457.282 204.361 457.091C204.785 456.9 205.238 456.804 205.719 456.804C206.237 456.804 206.713 456.907 207.147 457.112C207.585 457.317 207.961 457.604 208.274 457.973C208.591 458.342 208.829 458.773 208.988 459.268C209.151 459.763 209.219 460.297 209.191 460.871H203.255C203.311 461.314 203.451 461.711 203.675 462.061C203.903 462.411 204.193 462.689 204.543 462.894C204.897 463.095 205.289 463.197 205.719 463.202C206.185 463.202 206.605 463.081 206.979 462.838C207.357 462.595 207.66 462.262 207.889 461.837L208.883 462.068C208.603 462.689 208.18 463.197 207.616 463.594C207.051 463.986 206.419 464.182 205.719 464.182ZM203.227 460.08H208.204C208.171 459.646 208.038 459.249 207.805 458.89C207.576 458.526 207.28 458.237 206.916 458.022C206.552 457.803 206.153 457.693 205.719 457.693C205.285 457.693 204.888 457.8 204.529 458.015C204.169 458.225 203.875 458.512 203.647 458.876C203.418 459.235 203.278 459.637 203.227 460.08ZM216.083 453.5H217.063V464H216.083V462.691C215.841 463.139 215.507 463.501 215.082 463.776C214.662 464.047 214.163 464.182 213.584 464.182C213.076 464.182 212.6 464.086 212.156 463.895C211.713 463.704 211.321 463.44 210.98 463.104C210.644 462.763 210.381 462.371 210.189 461.928C209.998 461.485 209.902 461.009 209.902 460.5C209.902 459.991 209.998 459.515 210.189 459.072C210.381 458.624 210.644 458.232 210.98 457.896C211.321 457.555 211.713 457.289 212.156 457.098C212.6 456.907 213.076 456.811 213.584 456.811C214.163 456.811 214.662 456.949 215.082 457.224C215.507 457.495 215.841 457.852 216.083 458.295V453.5ZM213.591 463.23C214.091 463.23 214.52 463.109 214.879 462.866C215.239 462.619 215.514 462.287 215.705 461.872C215.901 461.457 215.999 460.999 215.999 460.5C215.999 459.987 215.901 459.525 215.705 459.114C215.509 458.699 215.232 458.37 214.872 458.127C214.513 457.884 214.086 457.763 213.591 457.763C213.097 457.763 212.646 457.887 212.24 458.134C211.834 458.377 211.51 458.706 211.267 459.121C211.025 459.536 210.903 459.996 210.903 460.5C210.903 461.009 211.027 461.471 211.274 461.886C211.522 462.297 211.848 462.623 212.254 462.866C212.665 463.109 213.111 463.23 213.591 463.23ZM218.464 461.319V457H219.444V461.123C219.444 461.506 219.538 461.853 219.724 462.166C219.911 462.479 220.161 462.728 220.473 462.915C220.791 463.102 221.138 463.195 221.516 463.195C221.899 463.195 222.244 463.102 222.552 462.915C222.865 462.728 223.115 462.479 223.301 462.166C223.488 461.853 223.581 461.506 223.581 461.123V457H224.561L224.568 464H223.588L223.581 463.02C223.334 463.375 223.012 463.657 222.615 463.867C222.223 464.077 221.794 464.182 221.327 464.182C220.8 464.182 220.319 464.054 219.885 463.797C219.451 463.54 219.106 463.195 218.849 462.761C218.593 462.327 218.464 461.846 218.464 461.319ZM230.906 462.243L231.781 462.719C231.464 463.162 231.06 463.517 230.57 463.783C230.085 464.049 229.558 464.182 228.988 464.182C228.344 464.182 227.756 464.016 227.224 463.685C226.697 463.354 226.275 462.91 225.957 462.355C225.645 461.795 225.488 461.177 225.488 460.5C225.488 459.987 225.579 459.508 225.761 459.065C225.943 458.617 226.193 458.225 226.51 457.889C226.832 457.548 227.206 457.282 227.63 457.091C228.055 456.9 228.508 456.804 228.988 456.804C229.558 456.804 230.085 456.937 230.57 457.203C231.06 457.469 231.464 457.826 231.781 458.274L230.906 458.743C230.664 458.435 230.372 458.199 230.031 458.036C229.691 457.868 229.343 457.784 228.988 457.784C228.517 457.784 228.09 457.91 227.707 458.162C227.325 458.409 227.021 458.738 226.797 459.149C226.578 459.56 226.468 460.01 226.468 460.5C226.468 460.99 226.58 461.44 226.804 461.851C227.033 462.262 227.339 462.591 227.721 462.838C228.104 463.081 228.526 463.202 228.988 463.202C229.371 463.202 229.73 463.113 230.066 462.936C230.402 462.759 230.682 462.528 230.906 462.243ZM236.029 464.182C235.385 464.182 234.797 464.016 234.265 463.685C233.738 463.354 233.316 462.91 232.998 462.355C232.686 461.795 232.529 461.177 232.529 460.5C232.529 459.987 232.62 459.508 232.802 459.065C232.984 458.617 233.234 458.225 233.551 457.889C233.873 457.548 234.247 457.282 234.671 457.091C235.096 456.9 235.549 456.804 236.029 456.804C236.547 456.804 237.023 456.907 237.457 457.112C237.896 457.317 238.272 457.604 238.584 457.973C238.902 458.342 239.14 458.773 239.298 459.268C239.462 459.763 239.529 460.297 239.501 460.871H233.565C233.621 461.314 233.761 461.711 233.985 462.061C234.214 462.411 234.503 462.689 234.853 462.894C235.208 463.095 235.6 463.197 236.029 463.202C236.496 463.202 236.916 463.081 237.289 462.838C237.667 462.595 237.971 462.262 238.199 461.837L239.193 462.068C238.913 462.689 238.491 463.197 237.926 463.594C237.362 463.986 236.729 464.182 236.029 464.182ZM233.537 460.08H238.514C238.482 459.646 238.349 459.249 238.115 458.89C237.887 458.526 237.59 458.237 237.226 458.022C236.862 457.803 236.463 457.693 236.029 457.693C235.595 457.693 235.199 457.8 234.839 458.015C234.48 458.225 234.186 458.512 233.957 458.876C233.729 459.235 233.589 459.637 233.537 460.08ZM246.394 453.5H247.374V464H246.394V462.691C246.151 463.139 245.818 463.501 245.393 463.776C244.973 464.047 244.474 464.182 243.895 464.182C243.386 464.182 242.91 464.086 242.467 463.895C242.024 463.704 241.632 463.44 241.291 463.104C240.955 462.763 240.691 462.371 240.5 461.928C240.309 461.485 240.213 461.009 240.213 460.5C240.213 459.991 240.309 459.515 240.5 459.072C240.691 458.624 240.955 458.232 241.291 457.896C241.632 457.555 242.024 457.289 242.467 457.098C242.91 456.907 243.386 456.811 243.895 456.811C244.474 456.811 244.973 456.949 245.393 457.224C245.818 457.495 246.151 457.852 246.394 458.295V453.5ZM243.902 463.23C244.401 463.23 244.831 463.109 245.19 462.866C245.549 462.619 245.825 462.287 246.016 461.872C246.212 461.457 246.31 460.999 246.31 460.5C246.31 459.987 246.212 459.525 246.016 459.114C245.82 458.699 245.542 458.37 245.183 458.127C244.824 457.884 244.397 457.763 243.902 457.763C243.407 457.763 242.957 457.887 242.551 458.134C242.145 458.377 241.821 458.706 241.578 459.121C241.335 459.536 241.214 459.996 241.214 460.5C241.214 461.009 241.338 461.471 241.585 461.886C241.832 462.297 242.159 462.623 242.565 462.866C242.976 463.109 243.421 463.23 243.902 463.23Z" fill="#535662"/>
<path d="M437.56 460.388V459.212H444.56V460.388H437.56ZM449.895 464V461.354H445.681V460.164L449.601 454.2H451.071V460.178H452.044V461.354H451.071V464H449.895ZM447.06 460.164L449.895 460.178L449.874 455.852L447.06 460.164ZM453.447 464V462.957C453.806 462.635 454.21 462.276 454.658 461.879C455.106 461.478 455.551 461.06 455.995 460.626C456.443 460.187 456.853 459.753 457.227 459.324C457.6 458.895 457.901 458.489 458.13 458.106C458.358 457.719 458.473 457.38 458.473 457.091C458.473 456.746 458.389 456.431 458.221 456.146C458.053 455.857 457.826 455.626 457.542 455.453C457.262 455.28 456.949 455.194 456.604 455.194C456.258 455.194 455.941 455.28 455.652 455.453C455.367 455.626 455.138 455.857 454.966 456.146C454.798 456.431 454.714 456.746 454.714 457.091H453.538C453.538 456.517 453.678 455.999 453.958 455.537C454.238 455.07 454.609 454.702 455.071 454.431C455.533 454.156 456.044 454.018 456.604 454.018C457.164 454.018 457.672 454.156 458.13 454.431C458.592 454.706 458.96 455.077 459.236 455.544C459.511 456.006 459.649 456.522 459.649 457.091C459.649 457.418 459.569 457.77 459.411 458.148C459.252 458.521 459.035 458.906 458.76 459.303C458.484 459.7 458.172 460.101 457.822 460.507C457.472 460.908 457.103 461.305 456.716 461.697C456.328 462.089 455.943 462.465 455.561 462.824H459.775V464H453.447ZM461.801 464L467.457 454.2H468.815L463.159 464H461.801ZM462.963 458.141C462.632 458.141 462.331 458.062 462.06 457.903C461.794 457.744 461.58 457.53 461.416 457.259C461.253 456.988 461.171 456.687 461.171 456.356C461.171 456.015 461.253 455.712 461.416 455.446C461.58 455.175 461.797 454.961 462.067 454.802C462.338 454.643 462.637 454.564 462.963 454.564C463.29 454.564 463.589 454.646 463.859 454.809C464.13 454.968 464.345 455.182 464.503 455.453C464.667 455.719 464.748 456.02 464.748 456.356C464.748 456.692 464.667 456.995 464.503 457.266C464.34 457.532 464.123 457.744 463.852 457.903C463.582 458.062 463.285 458.141 462.963 458.141ZM462.963 457.28C463.22 457.28 463.437 457.191 463.614 457.014C463.796 456.832 463.887 456.613 463.887 456.356C463.887 456.095 463.796 455.875 463.614 455.698C463.437 455.516 463.22 455.425 462.963 455.425C462.707 455.425 462.487 455.516 462.305 455.698C462.123 455.875 462.032 456.095 462.032 456.356C462.032 456.613 462.123 456.832 462.305 457.014C462.487 457.191 462.707 457.28 462.963 457.28ZM467.66 463.643C467.334 463.643 467.033 463.561 466.757 463.398C466.487 463.23 466.27 463.011 466.106 462.74C465.948 462.465 465.868 462.168 465.868 461.851C465.868 461.515 465.95 461.212 466.113 460.941C466.281 460.67 466.501 460.456 466.771 460.297C467.042 460.138 467.338 460.059 467.66 460.059C467.996 460.059 468.3 460.143 468.57 460.311C468.841 460.474 469.056 460.691 469.214 460.962C469.373 461.233 469.452 461.529 469.452 461.851C469.452 462.182 469.371 462.483 469.207 462.754C469.049 463.025 468.834 463.242 468.563 463.405C468.293 463.564 467.992 463.643 467.66 463.643ZM467.66 462.782C467.917 462.782 468.136 462.691 468.318 462.509C468.5 462.327 468.591 462.108 468.591 461.851C468.591 461.594 468.5 461.375 468.318 461.193C468.136 461.011 467.917 460.92 467.66 460.92C467.404 460.92 467.184 461.011 467.002 461.193C466.82 461.375 466.729 461.594 466.729 461.851C466.729 462.108 466.82 462.327 467.002 462.509C467.184 462.691 467.404 462.782 467.66 462.782Z" fill="#28BC62"/>
</g>
<defs>
<filter id="filter0_d_2308_2506" x="49.6142" y="58.2914" width="463.772" height="455.772" filterUnits="userSpaceOnUse" color-interpolation-filters="sRGB">
<feFlood flood-opacity="0" result="BackgroundImageFix"/>
<feColorMatrix in="SourceAlpha" type="matrix" values="0 0 0 0 0 0 0 0 0 0 0 0 0 0 0 0 0 0 127 0" result="hardAlpha"/>
<feOffset dy="3.67715"/>
<feGaussianBlur stdDeviation="9.19289"/>
<feComposite in2="hardAlpha" operator="out"/>
<feColorMatrix type="matrix" values="0 0 0 0 0.0468057 0 0 0 0 0.0634939 0 0 0 0 0.129808 0 0 0 0.1 0"/>
<feBlend mode="normal" in2="BackgroundImageFix" result="effect1_dropShadow_2308_2506"/>
<feBlend mode="normal" in="SourceGraphic" in2="effect1_dropShadow_2308_2506" result="shape"/>
</filter>
<filter id="filter1_d_2308_2506" x="289.171" y="206" width="177.293" height="34.1463" filterUnits="userSpaceOnUse" color-interpolation-filters="sRGB">
<feFlood flood-opacity="0" result="BackgroundImageFix"/>
<feColorMatrix in="SourceAlpha" type="matrix" values="0 0 0 0 0 0 0 0 0 0 0 0 0 0 0 0 0 0 127 0" result="hardAlpha"/>
<feOffset dy="2.82927"/>
<feGaussianBlur stdDeviation="1.41463"/>
<feComposite in2="hardAlpha" operator="out"/>
<feColorMatrix type="matrix" values="0 0 0 0 0.259615 0 0 0 0 0.407692 0 0 0 0 1 0 0 0 0.15 0"/>
<feBlend mode="normal" in2="BackgroundImageFix" result="effect1_dropShadow_2308_2506"/>
<feBlend mode="normal" in="SourceGraphic" in2="effect1_dropShadow_2308_2506" result="shape"/>
</filter>
<filter id="filter2_d_2308_2506" x="366" y="238" width="24" height="24" filterUnits="userSpaceOnUse" color-interpolation-filters="sRGB">
<feFlood flood-opacity="0" result="BackgroundImageFix"/>
<feColorMatrix in="SourceAlpha" type="matrix" values="0 0 0 0 0 0 0 0 0 0 0 0 0 0 0 0 0 0 127 0" result="hardAlpha"/>
<feOffset dy="4"/>
<feGaussianBlur stdDeviation="2"/>
<feComposite in2="hardAlpha" operator="out"/>
<feColorMatrix type="matrix" values="0 0 0 0 0.615686 0 0 0 0 0.258824 0 0 0 0 1 0 0 0 0.25 0"/>
<feBlend mode="normal" in2="BackgroundImageFix" result="effect1_dropShadow_2308_2506"/>
<feBlend mode="normal" in="SourceGraphic" in2="effect1_dropShadow_2308_2506" result="shape"/>
</filter>
<filter id="filter3_d_2308_2506" x="287" y="331" width="24" height="24" filterUnits="userSpaceOnUse" color-interpolation-filters="sRGB">
<feFlood flood-opacity="0" result="BackgroundImageFix"/>
<feColorMatrix in="SourceAlpha" type="matrix" values="0 0 0 0 0 0 0 0 0 0 0 0 0 0 0 0 0 0 127 0" result="hardAlpha"/>
<feOffset dy="4"/>
<feGaussianBlur stdDeviation="2"/>
<feComposite in2="hardAlpha" operator="out"/>
<feColorMatrix type="matrix" values="0 0 0 0 0.259615 0 0 0 0 0.407692 0 0 0 0 1 0 0 0 0.25 0"/>
<feBlend mode="normal" in2="BackgroundImageFix" result="effect1_dropShadow_2308_2506"/>
<feBlend mode="normal" in="SourceGraphic" in2="effect1_dropShadow_2308_2506" result="shape"/>
</filter>
<filter id="filter4_d_2308_2506" x="217.171" y="302" width="169.293" height="34.1463" filterUnits="userSpaceOnUse" color-interpolation-filters="sRGB">
<feFlood flood-opacity="0" result="BackgroundImageFix"/>
<feColorMatrix in="SourceAlpha" type="matrix" values="0 0 0 0 0 0 0 0 0 0 0 0 0 0 0 0 0 0 127 0" result="hardAlpha"/>
<feOffset dy="2.82927"/>
<feGaussianBlur stdDeviation="1.41463"/>
<feComposite in2="hardAlpha" operator="out"/>
<feColorMatrix type="matrix" values="0 0 0 0 0.259615 0 0 0 0 0.407692 0 0 0 0 1 0 0 0 0.15 0"/>
<feBlend mode="normal" in2="BackgroundImageFix" result="effect1_dropShadow_2308_2506"/>
<feBlend mode="normal" in="SourceGraphic" in2="effect1_dropShadow_2308_2506" result="shape"/>
</filter>
<linearGradient id="paint0_linear_2308_2506" x1="378" y1="246" x2="378" y2="431" gradientUnits="userSpaceOnUse">
<stop stop-color="#9D42FF"/>
<stop offset="0.57504" stop-color="#9D42FF" stop-opacity="0"/>
</linearGradient>
<linearGradient id="paint1_linear_2308_2506" x1="299" y1="340" x2="299" y2="431" gradientUnits="userSpaceOnUse">
<stop stop-color="#4268FF"/>
<stop offset="1" stop-color="#4268FF" stop-opacity="0"/>
</linearGradient>
<clipPath id="clip0_2308_2506">
<path d="M92 150H471V427H92V150Z" fill="white"/>
</clipPath>
</defs>
</svg>
