<svg width="564" height="564" viewBox="0 0 564 564" fill="none" xmlns="http://www.w3.org/2000/svg">
<rect width="564" height="564" rx="24" fill="#FAFAFA"/>
<g filter="url(#filter0_d_2307_2455)">
<g clip-path="url(#clip0_2307_2455)">
<rect x="68" y="94" width="427" height="376" rx="22.0629" fill="white"/>
<path d="M101.216 141.312C100.08 141.312 99.012 141.088 98.012 140.64C97.012 140.184 96.132 139.56 95.372 138.768C94.62 137.968 94.028 137.04 93.596 135.984C93.172 134.928 92.96 133.8 92.96 132.6C92.96 131.4 93.172 130.272 93.596 129.216C94.028 128.16 94.62 127.236 95.372 126.444C96.132 125.644 97.012 125.02 98.012 124.572C99.012 124.116 100.08 123.888 101.216 123.888C102.576 123.888 103.828 124.204 104.972 124.836C106.116 125.468 107.064 126.308 107.816 127.356L105.596 128.544C105.076 127.888 104.432 127.364 103.664 126.972C102.896 126.58 102.08 126.384 101.216 126.384C100.416 126.384 99.668 126.548 98.972 126.876C98.276 127.204 97.664 127.652 97.136 128.22C96.608 128.788 96.196 129.448 95.9 130.2C95.604 130.952 95.456 131.752 95.456 132.6C95.456 133.456 95.604 134.26 95.9 135.012C96.196 135.756 96.608 136.416 97.136 136.992C97.672 137.56 98.288 138.008 98.984 138.336C99.68 138.656 100.424 138.816 101.216 138.816C102.096 138.816 102.916 138.62 103.676 138.228C104.444 137.828 105.084 137.3 105.596 136.644L107.816 137.856C107.064 138.904 106.116 139.744 104.972 140.376C103.828 141 102.576 141.312 101.216 141.312ZM118.854 129H121.35V141H118.842L118.746 139.26C118.394 139.876 117.918 140.372 117.318 140.748C116.718 141.124 116.01 141.312 115.194 141.312C114.314 141.312 113.486 141.148 112.71 140.82C111.934 140.484 111.25 140.02 110.658 139.428C110.074 138.836 109.618 138.156 109.29 137.388C108.962 136.612 108.798 135.78 108.798 134.892C108.798 134.036 108.958 133.232 109.278 132.48C109.598 131.72 110.042 131.056 110.61 130.488C111.178 129.92 111.834 129.476 112.578 129.156C113.33 128.828 114.134 128.664 114.99 128.664C115.862 128.664 116.63 128.864 117.294 129.264C117.966 129.656 118.522 130.16 118.962 130.776L118.854 129ZM115.134 138.9C115.838 138.9 116.454 138.728 116.982 138.384C117.51 138.032 117.918 137.56 118.206 136.968C118.502 136.376 118.65 135.72 118.65 135C118.65 134.272 118.502 133.612 118.206 133.02C117.91 132.428 117.498 131.96 116.97 131.616C116.45 131.264 115.838 131.088 115.134 131.088C114.438 131.088 113.802 131.264 113.226 131.616C112.65 131.968 112.194 132.44 111.858 133.032C111.522 133.624 111.354 134.28 111.354 135C111.354 135.728 111.526 136.388 111.87 136.98C112.222 137.564 112.682 138.032 113.25 138.384C113.826 138.728 114.454 138.9 115.134 138.9ZM123.838 141V123H126.334V141H123.838ZM129.206 141V123H131.702V141H129.206ZM145.834 141L139.738 124.2H142.378L147.394 138.036L152.434 124.2H155.074L148.978 141H145.834ZM160.9 141.312C159.796 141.312 158.788 141.028 157.876 140.46C156.972 139.892 156.248 139.132 155.704 138.18C155.168 137.22 154.9 136.16 154.9 135C154.9 134.12 155.056 133.3 155.368 132.54C155.68 131.772 156.108 131.1 156.652 130.524C157.204 129.94 157.844 129.484 158.572 129.156C159.3 128.828 160.076 128.664 160.9 128.664C162.004 128.664 163.008 128.948 163.912 129.516C164.824 130.084 165.548 130.848 166.084 131.808C166.628 132.768 166.9 133.832 166.9 135C166.9 135.872 166.744 136.688 166.432 137.448C166.12 138.208 165.688 138.88 165.136 139.464C164.592 140.04 163.956 140.492 163.228 140.82C162.508 141.148 161.732 141.312 160.9 141.312ZM160.9 138.816C161.564 138.816 162.16 138.64 162.688 138.288C163.216 137.936 163.632 137.472 163.936 136.896C164.248 136.312 164.404 135.68 164.404 135C164.404 134.304 164.244 133.664 163.924 133.08C163.612 132.496 163.192 132.032 162.664 131.688C162.136 131.336 161.548 131.16 160.9 131.16C160.244 131.16 159.648 131.336 159.112 131.688C158.584 132.04 158.164 132.508 157.852 133.092C157.548 133.676 157.396 134.312 157.396 135C157.396 135.712 157.556 136.356 157.876 136.932C158.196 137.508 158.62 137.968 159.148 138.312C159.684 138.648 160.268 138.816 160.9 138.816ZM168.674 141V123H171.17V141H168.674ZM173.562 136.5V129H176.058V135.888C176.058 136.424 176.19 136.912 176.454 137.352C176.718 137.792 177.07 138.144 177.51 138.408C177.95 138.664 178.434 138.792 178.962 138.792C179.498 138.792 179.982 138.664 180.414 138.408C180.854 138.144 181.202 137.792 181.458 137.352C181.722 136.912 181.854 136.424 181.854 135.888V129H184.35L184.362 141H181.866L181.854 139.704C181.446 140.2 180.938 140.592 180.33 140.88C179.722 141.168 179.07 141.312 178.374 141.312C177.486 141.312 176.678 141.096 175.95 140.664C175.222 140.232 174.642 139.652 174.21 138.924C173.778 138.196 173.562 137.388 173.562 136.5ZM186.768 141V129H189.264V130.272C189.68 129.776 190.188 129.384 190.788 129.096C191.396 128.808 192.052 128.664 192.756 128.664C193.612 128.664 194.4 128.872 195.12 129.288C195.84 129.696 196.412 130.24 196.836 130.92C197.26 130.24 197.824 129.696 198.528 129.288C199.24 128.872 200.024 128.664 200.88 128.664C201.768 128.664 202.576 128.88 203.304 129.312C204.032 129.744 204.612 130.324 205.044 131.052C205.476 131.78 205.692 132.588 205.692 133.476V141H203.196V134.112C203.196 133.584 203.068 133.1 202.812 132.66C202.556 132.22 202.212 131.864 201.78 131.592C201.348 131.32 200.868 131.184 200.34 131.184C199.812 131.184 199.332 131.312 198.9 131.568C198.468 131.824 198.124 132.172 197.868 132.612C197.612 133.052 197.484 133.552 197.484 134.112V141H194.988V134.112C194.988 133.552 194.86 133.052 194.604 132.612C194.348 132.172 194 131.824 193.56 131.568C193.128 131.312 192.648 131.184 192.12 131.184C191.6 131.184 191.12 131.32 190.68 131.592C190.248 131.864 189.904 132.22 189.648 132.66C189.392 133.1 189.264 133.584 189.264 134.112V141H186.768ZM213.142 141.312C212.038 141.312 211.03 141.028 210.118 140.46C209.214 139.892 208.49 139.132 207.946 138.18C207.41 137.22 207.142 136.16 207.142 135C207.142 134.12 207.298 133.3 207.61 132.54C207.922 131.772 208.35 131.1 208.894 130.524C209.446 129.94 210.086 129.484 210.814 129.156C211.542 128.828 212.318 128.664 213.142 128.664C214.062 128.664 214.906 128.856 215.674 129.24C216.442 129.616 217.098 130.14 217.642 130.812C218.186 131.476 218.586 132.244 218.842 133.116C219.098 133.98 219.174 134.9 219.07 135.876H209.818C209.922 136.428 210.122 136.928 210.418 137.376C210.722 137.816 211.106 138.164 211.57 138.42C212.042 138.676 212.566 138.808 213.142 138.816C213.75 138.816 214.302 138.664 214.798 138.36C215.302 138.056 215.714 137.636 216.034 137.1L218.566 137.688C218.086 138.752 217.362 139.624 216.394 140.304C215.426 140.976 214.342 141.312 213.142 141.312ZM209.734 133.968H216.55C216.47 133.392 216.266 132.872 215.938 132.408C215.618 131.936 215.214 131.564 214.726 131.292C214.246 131.012 213.718 130.872 213.142 130.872C212.574 130.872 212.046 131.008 211.558 131.28C211.078 131.552 210.678 131.924 210.358 132.396C210.046 132.86 209.838 133.384 209.734 133.968ZM233.022 141.312C232.102 141.312 231.218 141.168 230.37 140.88C229.522 140.592 228.782 140.18 228.15 139.644C227.518 139.1 227.066 138.456 226.794 137.712L229.134 136.836C229.27 137.22 229.53 137.564 229.914 137.868C230.306 138.164 230.77 138.396 231.306 138.564C231.85 138.732 232.422 138.816 233.022 138.816C233.662 138.816 234.262 138.712 234.822 138.504C235.39 138.296 235.846 138.008 236.19 137.64C236.542 137.272 236.718 136.84 236.718 136.344C236.718 135.832 236.534 135.412 236.166 135.084C235.806 134.756 235.342 134.496 234.774 134.304C234.214 134.112 233.63 133.968 233.022 133.872C231.846 133.68 230.79 133.4 229.854 133.032C228.926 132.664 228.19 132.148 227.646 131.484C227.11 130.82 226.842 129.956 226.842 128.892C226.842 127.892 227.126 127.02 227.694 126.276C228.27 125.532 229.026 124.956 229.962 124.548C230.906 124.132 231.926 123.924 233.022 123.924C233.926 123.924 234.798 124.068 235.638 124.356C236.486 124.636 237.23 125.048 237.87 125.592C238.518 126.128 238.982 126.78 239.262 127.548L236.898 128.4C236.762 128.008 236.502 127.668 236.118 127.38C235.734 127.084 235.27 126.852 234.726 126.684C234.19 126.516 233.622 126.432 233.022 126.432C232.382 126.424 231.782 126.528 231.222 126.744C230.67 126.952 230.218 127.24 229.866 127.608C229.514 127.976 229.338 128.404 229.338 128.892C229.338 129.492 229.502 129.948 229.83 130.26C230.158 130.572 230.598 130.804 231.15 130.956C231.71 131.1 232.334 131.232 233.022 131.352C234.126 131.528 235.146 131.82 236.082 132.228C237.026 132.636 237.782 133.18 238.35 133.86C238.926 134.532 239.214 135.36 239.214 136.344C239.214 137.336 238.926 138.208 238.35 138.96C237.782 139.704 237.026 140.284 236.082 140.7C235.146 141.108 234.126 141.312 233.022 141.312ZM249.448 137.592L251.68 138.804C251.136 139.564 250.444 140.172 249.604 140.628C248.772 141.084 247.868 141.312 246.892 141.312C245.788 141.312 244.78 141.028 243.868 140.46C242.964 139.892 242.24 139.132 241.696 138.18C241.16 137.22 240.892 136.16 240.892 135C240.892 134.12 241.048 133.3 241.36 132.54C241.672 131.772 242.1 131.1 242.644 130.524C243.196 129.94 243.836 129.484 244.564 129.156C245.292 128.828 246.068 128.664 246.892 128.664C247.868 128.664 248.772 128.892 249.604 129.348C250.444 129.804 251.136 130.416 251.68 131.184L249.448 132.396C249.112 131.996 248.72 131.692 248.272 131.484C247.824 131.268 247.364 131.16 246.892 131.16C246.236 131.16 245.64 131.34 245.104 131.7C244.576 132.052 244.156 132.52 243.844 133.104C243.54 133.68 243.388 134.312 243.388 135C243.388 135.68 243.544 136.312 243.856 136.896C244.168 137.472 244.588 137.936 245.116 138.288C245.652 138.64 246.244 138.816 246.892 138.816C247.388 138.816 247.86 138.704 248.308 138.48C248.756 138.256 249.136 137.96 249.448 137.592ZM262.901 129H265.397V141H262.889L262.793 139.26C262.441 139.876 261.965 140.372 261.365 140.748C260.765 141.124 260.057 141.312 259.241 141.312C258.361 141.312 257.533 141.148 256.757 140.82C255.981 140.484 255.297 140.02 254.705 139.428C254.121 138.836 253.665 138.156 253.337 137.388C253.009 136.612 252.845 135.78 252.845 134.892C252.845 134.036 253.005 133.232 253.325 132.48C253.645 131.72 254.089 131.056 254.657 130.488C255.225 129.92 255.881 129.476 256.625 129.156C257.377 128.828 258.181 128.664 259.037 128.664C259.909 128.664 260.677 128.864 261.341 129.264C262.013 129.656 262.569 130.16 263.009 130.776L262.901 129ZM259.181 138.9C259.885 138.9 260.501 138.728 261.029 138.384C261.557 138.032 261.965 137.56 262.253 136.968C262.549 136.376 262.697 135.72 262.697 135C262.697 134.272 262.549 133.612 262.253 133.02C261.957 132.428 261.545 131.96 261.017 131.616C260.497 131.264 259.885 131.088 259.181 131.088C258.485 131.088 257.849 131.264 257.273 131.616C256.697 131.968 256.241 132.44 255.905 133.032C255.569 133.624 255.401 134.28 255.401 135C255.401 135.728 255.573 136.388 255.917 136.98C256.269 137.564 256.729 138.032 257.297 138.384C257.873 138.728 258.501 138.9 259.181 138.9ZM267.885 141V123H270.381V141H267.885ZM273.253 129H275.749V141H273.253V129ZM274.525 127.26C274.141 127.26 273.821 127.136 273.565 126.888C273.309 126.64 273.181 126.328 273.181 125.952C273.181 125.584 273.309 125.276 273.565 125.028C273.821 124.772 274.137 124.644 274.513 124.644C274.881 124.644 275.193 124.772 275.449 125.028C275.705 125.276 275.833 125.584 275.833 125.952C275.833 126.328 275.705 126.64 275.449 126.888C275.201 127.136 274.893 127.26 274.525 127.26ZM289.349 133.476V141H286.853V134.088C286.853 133.552 286.721 133.064 286.457 132.624C286.201 132.184 285.853 131.836 285.413 131.58C284.981 131.316 284.493 131.184 283.949 131.184C283.421 131.184 282.937 131.316 282.497 131.58C282.057 131.836 281.705 132.184 281.441 132.624C281.177 133.064 281.045 133.552 281.045 134.088V141H278.549V129H281.045V130.272C281.461 129.776 281.973 129.384 282.581 129.096C283.189 128.808 283.845 128.664 284.549 128.664C285.437 128.664 286.245 128.88 286.973 129.312C287.701 129.744 288.277 130.324 288.701 131.052C289.133 131.78 289.349 132.588 289.349 133.476ZM300.642 129H303.138V141.312C303.138 142.136 302.962 142.896 302.61 143.592C302.266 144.288 301.798 144.888 301.206 145.392C300.614 145.904 299.934 146.3 299.166 146.58C298.406 146.86 297.61 147 296.778 147C295.938 147 295.13 146.82 294.354 146.46C293.578 146.108 292.894 145.628 292.302 145.02C291.718 144.412 291.282 143.724 290.994 142.956L293.286 141.924C293.446 142.42 293.702 142.86 294.054 143.244C294.414 143.628 294.83 143.932 295.302 144.156C295.782 144.38 296.274 144.492 296.778 144.492C297.274 144.492 297.75 144.412 298.206 144.252C298.67 144.1 299.082 143.884 299.442 143.604C299.81 143.324 300.102 142.988 300.318 142.596C300.534 142.204 300.642 141.776 300.642 141.312V139.284C300.25 139.892 299.746 140.384 299.13 140.76C298.514 141.128 297.798 141.312 296.982 141.312C296.134 141.312 295.334 141.148 294.582 140.82C293.83 140.492 293.17 140.04 292.602 139.464C292.034 138.88 291.59 138.208 291.27 137.448C290.95 136.688 290.79 135.872 290.79 135C290.79 134.128 290.95 133.312 291.27 132.552C291.59 131.784 292.034 131.112 292.602 130.536C293.17 129.952 293.83 129.496 294.582 129.168C295.334 128.84 296.134 128.676 296.982 128.676C297.798 128.676 298.514 128.864 299.13 129.24C299.746 129.608 300.25 130.1 300.642 130.716V129ZM297.006 138.9C297.702 138.9 298.31 138.724 298.83 138.372C299.35 138.012 299.754 137.536 300.042 136.944C300.33 136.352 300.474 135.704 300.474 135C300.474 134.28 300.326 133.628 300.03 133.044C299.742 132.452 299.338 131.98 298.818 131.628C298.298 131.268 297.694 131.088 297.006 131.088C296.334 131.088 295.718 131.264 295.158 131.616C294.606 131.968 294.166 132.44 293.838 133.032C293.51 133.624 293.346 134.28 293.346 135C293.346 135.72 293.51 136.376 293.838 136.968C294.174 137.56 294.618 138.032 295.17 138.384C295.73 138.728 296.342 138.9 297.006 138.9Z" fill="#0C1021"/>
<path d="M569 473H-3C-3 473 200.439 399.245 312.771 321.955C427.148 243.258 569 77 569 77V473Z" fill="url(#paint0_linear_2307_2455)" fill-opacity="0.4" stroke="#4268FF"/>
<rect x="399" y="250" width="2" height="220" fill="#4268FF"/>
<g filter="url(#filter1_d_2307_2455)">
<circle cx="400" cy="249" r="8" fill="#4268FF"/>
<circle cx="400" cy="249" r="7" stroke="white" stroke-width="2"/>
</g>
<g filter="url(#filter2_d_2307_2455)">
<rect x="350.683" y="208" width="99.6341" height="28.4878" rx="14.2439" fill="#0C1021" shape-rendering="crispEdges"/>
<rect x="351.037" y="208.354" width="98.9268" height="27.7805" rx="13.8902" stroke="#0C1021" stroke-opacity="0.1" stroke-width="0.707317" shape-rendering="crispEdges"/>
<path d="M366.168 228.465C365.443 228.465 364.807 228.306 364.258 227.989C363.709 227.667 363.279 227.237 362.968 226.699C362.662 226.162 362.509 225.567 362.509 224.917H363.698C363.698 225.347 363.797 225.743 363.995 226.105C364.198 226.461 364.484 226.747 364.852 226.962C365.22 227.172 365.658 227.276 366.168 227.276C366.598 227.276 366.999 227.172 367.373 226.962C367.752 226.747 368.057 226.461 368.289 226.105C368.527 225.743 368.646 225.347 368.646 224.917C368.646 224.379 368.51 223.932 368.239 223.576C367.967 223.213 367.593 222.945 367.118 222.769C366.643 222.588 366.1 222.498 365.488 222.498V221.513C366.332 221.513 367.008 221.335 367.517 220.978C368.032 220.616 368.289 220.087 368.289 219.391C368.289 219.012 368.185 218.667 367.975 218.356C367.772 218.044 367.503 217.795 367.169 217.609C366.841 217.416 366.487 217.32 366.108 217.32C365.729 217.32 365.364 217.416 365.013 217.609C364.668 217.795 364.385 218.044 364.164 218.356C363.949 218.667 363.842 219.012 363.842 219.391H362.654C362.654 218.944 362.747 218.525 362.934 218.135C363.12 217.739 363.375 217.391 363.698 217.091C364.02 216.791 364.388 216.556 364.801 216.386C365.214 216.217 365.647 216.132 366.1 216.132C366.694 216.132 367.245 216.279 367.755 216.573C368.27 216.867 368.686 217.261 369.002 217.753C369.319 218.245 369.478 218.791 369.478 219.391C369.478 219.974 369.328 220.5 369.028 220.97C368.728 221.44 368.323 221.771 367.814 221.963C368.256 222.11 368.626 222.334 368.926 222.633C369.226 222.928 369.452 223.27 369.605 223.66C369.758 224.051 369.834 224.47 369.834 224.917C369.834 225.567 369.664 226.162 369.325 226.699C368.985 227.237 368.536 227.667 367.975 227.989C367.421 228.306 366.818 228.465 366.168 228.465ZM371.018 229.195L371.544 226.326H372.732L371.807 229.195H371.018ZM374.433 228.244V227.191C374.897 226.761 375.406 226.292 375.96 225.782C376.515 225.268 377.064 224.738 377.607 224.195C378.156 223.646 378.657 223.106 379.109 222.574C379.562 222.036 379.924 221.53 380.196 221.055C380.473 220.574 380.612 220.149 380.612 219.782C380.612 219.335 380.501 218.927 380.281 218.559C380.066 218.186 379.774 217.889 379.406 217.668C379.044 217.442 378.64 217.329 378.193 217.329C377.746 217.329 377.335 217.442 376.962 217.668C376.594 217.889 376.3 218.186 376.079 218.559C375.859 218.927 375.748 219.335 375.748 219.782H374.56C374.56 219.103 374.724 218.489 375.052 217.94C375.386 217.391 375.827 216.955 376.376 216.633C376.925 216.304 377.531 216.14 378.193 216.14C378.855 216.14 379.457 216.304 380.001 216.633C380.55 216.961 380.985 217.399 381.308 217.948C381.636 218.497 381.8 219.108 381.8 219.782C381.8 220.183 381.693 220.625 381.478 221.106C381.268 221.581 380.982 222.076 380.62 222.591C380.258 223.1 379.851 223.615 379.398 224.136C378.945 224.656 378.473 225.166 377.981 225.664C377.488 226.156 377.01 226.62 376.546 227.056H381.978V228.244H374.433ZM387.64 228.465C386.927 228.465 386.291 228.306 385.73 227.989C385.17 227.667 384.692 227.223 384.296 226.657C383.9 226.091 383.597 225.437 383.388 224.696C383.184 223.949 383.082 223.151 383.082 222.302C383.082 221.454 383.184 220.656 383.388 219.909C383.597 219.162 383.9 218.508 384.296 217.948C384.692 217.382 385.17 216.941 385.73 216.624C386.291 216.302 386.927 216.14 387.64 216.14C388.348 216.14 388.981 216.302 389.541 216.624C390.102 216.941 390.577 217.382 390.967 217.948C391.358 218.508 391.655 219.162 391.859 219.909C392.068 220.656 392.173 221.454 392.173 222.302C392.173 223.151 392.068 223.949 391.859 224.696C391.655 225.437 391.358 226.091 390.967 226.657C390.577 227.223 390.102 227.667 389.541 227.989C388.981 228.306 388.348 228.465 387.64 228.465ZM387.64 227.276C388.387 227.276 389.012 227.047 389.516 226.589C390.025 226.13 390.407 225.525 390.662 224.772C390.916 224.014 391.044 223.191 391.044 222.302C391.044 221.363 390.911 220.52 390.645 219.773C390.385 219.02 390 218.426 389.491 217.991C388.987 217.549 388.37 217.329 387.64 217.329C387.063 217.329 386.559 217.462 386.129 217.728C385.699 217.993 385.343 218.358 385.06 218.822C384.777 219.286 384.565 219.818 384.423 220.418C384.282 221.012 384.211 221.64 384.211 222.302C384.211 223.196 384.341 224.023 384.602 224.781C384.862 225.533 385.247 226.139 385.756 226.597C386.265 227.05 386.893 227.276 387.64 227.276ZM397.587 228.465C396.874 228.465 396.237 228.306 395.677 227.989C395.117 227.667 394.639 227.223 394.243 226.657C393.847 226.091 393.544 225.437 393.334 224.696C393.131 223.949 393.029 223.151 393.029 222.302C393.029 221.454 393.131 220.656 393.334 219.909C393.544 219.162 393.847 218.508 394.243 217.948C394.639 217.382 395.117 216.941 395.677 216.624C396.237 216.302 396.874 216.14 397.587 216.14C398.294 216.14 398.928 216.302 399.488 216.624C400.048 216.941 400.524 217.382 400.914 217.948C401.305 218.508 401.602 219.162 401.805 219.909C402.015 220.656 402.119 221.454 402.119 222.302C402.119 223.151 402.015 223.949 401.805 224.696C401.602 225.437 401.305 226.091 400.914 226.657C400.524 227.223 400.048 227.667 399.488 227.989C398.928 228.306 398.294 228.465 397.587 228.465ZM397.587 227.276C398.334 227.276 398.959 227.047 399.463 226.589C399.972 226.13 400.354 225.525 400.609 224.772C400.863 224.014 400.99 223.191 400.99 222.302C400.99 221.363 400.857 220.52 400.592 219.773C400.331 219.02 399.946 218.426 399.437 217.991C398.934 217.549 398.317 217.329 397.587 217.329C397.01 217.329 396.506 217.462 396.076 217.728C395.646 217.993 395.289 218.358 395.007 218.822C394.724 219.286 394.511 219.818 394.37 220.418C394.229 221.012 394.158 221.64 394.158 222.302C394.158 223.196 394.288 224.023 394.548 224.781C394.809 225.533 395.193 226.139 395.703 226.597C396.212 227.05 396.84 227.276 397.587 227.276ZM413.789 226.113L414.85 226.691C414.465 227.228 413.976 227.658 413.382 227.981C412.793 228.303 412.154 228.465 411.463 228.465C410.682 228.465 409.969 228.264 409.324 227.862C408.685 227.46 408.173 226.923 407.788 226.249C407.409 225.57 407.219 224.82 407.219 224C407.219 223.378 407.33 222.798 407.55 222.26C407.771 221.717 408.074 221.241 408.459 220.834C408.849 220.421 409.302 220.098 409.817 219.866C410.332 219.634 410.881 219.518 411.463 219.518C412.154 219.518 412.793 219.68 413.382 220.002C413.976 220.325 414.465 220.758 414.85 221.301L413.789 221.87C413.495 221.496 413.141 221.21 412.728 221.012C412.315 220.809 411.893 220.707 411.463 220.707C410.892 220.707 410.374 220.86 409.91 221.165C409.446 221.465 409.078 221.864 408.807 222.362C408.541 222.86 408.408 223.406 408.408 224C408.408 224.594 408.544 225.14 408.815 225.638C409.092 226.136 409.463 226.535 409.927 226.835C410.391 227.129 410.903 227.276 411.463 227.276C411.927 227.276 412.363 227.169 412.77 226.954C413.178 226.739 413.517 226.459 413.789 226.113ZM423.243 219.756H424.432V228.244H423.243L423.201 226.665C422.924 227.203 422.536 227.638 422.038 227.972C421.54 228.3 420.946 228.465 420.256 228.465C419.633 228.465 419.05 228.349 418.507 228.117C417.964 227.879 417.486 227.554 417.073 227.14C416.66 226.727 416.337 226.249 416.105 225.706C415.873 225.163 415.757 224.58 415.757 223.958C415.757 223.346 415.87 222.772 416.096 222.235C416.328 221.697 416.645 221.224 417.047 220.817C417.455 220.41 417.924 220.093 418.456 219.866C418.994 219.634 419.568 219.518 420.179 219.518C420.886 219.518 421.503 219.688 422.029 220.028C422.556 220.362 422.974 220.8 423.286 221.343L423.243 219.756ZM420.23 227.31C420.836 227.31 421.356 227.163 421.792 226.869C422.228 226.569 422.561 226.167 422.793 225.664C423.031 225.16 423.15 224.605 423.15 224C423.15 223.378 423.031 222.817 422.793 222.319C422.556 221.816 422.219 221.417 421.783 221.123C421.348 220.828 420.83 220.681 420.23 220.681C419.63 220.681 419.081 220.831 418.583 221.131C418.091 221.425 417.698 221.824 417.404 222.328C417.115 222.832 416.971 223.389 416.971 224C416.971 224.617 417.121 225.177 417.421 225.681C417.72 226.179 418.117 226.575 418.609 226.869C419.107 227.163 419.647 227.31 420.23 227.31ZM426.246 228.244V215.512H427.434V228.244H426.246ZM429.479 228.244V215.512H430.667V228.244H429.479ZM435.334 228.405C434.87 228.394 434.417 228.309 433.976 228.151C433.535 227.992 433.15 227.777 432.822 227.505C432.494 227.234 432.259 226.925 432.117 226.58L433.144 226.139C433.235 226.36 433.402 226.563 433.645 226.75C433.894 226.931 434.177 227.078 434.494 227.191C434.811 227.299 435.125 227.353 435.436 227.353C435.781 227.353 436.104 227.296 436.404 227.183C436.703 227.07 436.947 226.908 437.134 226.699C437.326 226.484 437.422 226.232 437.422 225.944C437.422 225.632 437.32 225.389 437.117 225.214C436.913 225.033 436.655 224.891 436.344 224.789C436.033 224.682 435.713 224.58 435.385 224.484C434.785 224.32 434.256 224.139 433.798 223.941C433.339 223.743 432.98 223.491 432.72 223.185C432.465 222.874 432.338 222.475 432.338 221.988C432.338 221.473 432.482 221.029 432.771 220.656C433.065 220.277 433.447 219.985 433.917 219.782C434.392 219.572 434.898 219.468 435.436 219.468C436.126 219.468 436.754 219.617 437.32 219.917C437.892 220.217 438.305 220.616 438.559 221.114L437.6 221.683C437.498 221.451 437.337 221.25 437.117 221.08C436.896 220.91 436.644 220.777 436.361 220.681C436.084 220.585 435.801 220.534 435.512 220.528C435.15 220.523 434.814 220.577 434.502 220.69C434.191 220.797 433.939 220.959 433.747 221.174C433.56 221.389 433.467 221.652 433.467 221.963C433.467 222.274 433.56 222.512 433.747 222.676C433.934 222.834 434.185 222.964 434.502 223.066C434.825 223.163 435.187 223.276 435.589 223.406C436.104 223.57 436.587 223.757 437.04 223.966C437.493 224.175 437.858 224.436 438.135 224.747C438.412 225.058 438.548 225.451 438.542 225.927C438.542 226.436 438.39 226.88 438.084 227.259C437.779 227.638 437.382 227.93 436.896 228.134C436.409 228.332 435.889 228.422 435.334 228.405Z" fill="white"/>
</g>
<rect x="92" y="158" width="213" height="35" rx="17.5" fill="#E3E9FF"/>
<rect x="92.5" y="158.5" width="212" height="34" rx="17" stroke="#4268FF" stroke-opacity="0.2"/>
<path d="M111.848 169.8H113.192V181H111.848V175.672H106.304V181H104.96V169.8H106.304V174.328H111.848V169.8ZM115.116 173H116.46V181H115.116V173ZM115.804 171.696C115.591 171.696 115.412 171.627 115.268 171.488C115.124 171.349 115.052 171.176 115.052 170.968C115.052 170.76 115.124 170.587 115.268 170.448C115.412 170.309 115.588 170.24 115.796 170.24C116.004 170.24 116.18 170.309 116.324 170.448C116.468 170.587 116.54 170.76 116.54 170.968C116.54 171.176 116.468 171.349 116.324 171.488C116.186 171.627 116.012 171.696 115.804 171.696ZM124.521 173H125.865V181.256C125.865 181.784 125.75 182.275 125.521 182.728C125.297 183.187 124.993 183.584 124.609 183.92C124.225 184.261 123.787 184.525 123.297 184.712C122.806 184.904 122.294 185 121.761 185C121.206 185 120.67 184.875 120.153 184.624C119.635 184.379 119.182 184.048 118.793 183.632C118.409 183.221 118.131 182.76 117.961 182.248L119.193 181.688C119.294 182.056 119.475 182.387 119.737 182.68C120.003 182.979 120.313 183.213 120.665 183.384C121.022 183.56 121.387 183.648 121.761 183.648C122.113 183.648 122.451 183.587 122.777 183.464C123.107 183.341 123.403 183.171 123.665 182.952C123.931 182.739 124.139 182.485 124.289 182.192C124.443 181.904 124.521 181.592 124.521 181.256V179.664C124.249 180.123 123.889 180.496 123.441 180.784C122.998 181.067 122.481 181.208 121.889 181.208C121.323 181.208 120.793 181.099 120.297 180.88C119.801 180.661 119.366 180.36 118.993 179.976C118.619 179.587 118.326 179.139 118.113 178.632C117.899 178.125 117.793 177.581 117.793 177C117.793 176.419 117.899 175.875 118.113 175.368C118.326 174.856 118.619 174.408 118.993 174.024C119.366 173.635 119.801 173.331 120.297 173.112C120.793 172.893 121.323 172.784 121.889 172.784C122.481 172.784 122.998 172.925 123.441 173.208C123.889 173.491 124.249 173.864 124.521 174.328V173ZM121.897 179.904C122.414 179.904 122.862 179.771 123.241 179.504C123.625 179.237 123.921 178.883 124.129 178.44C124.337 177.997 124.441 177.517 124.441 177C124.441 176.467 124.334 175.981 124.121 175.544C123.913 175.101 123.617 174.749 123.233 174.488C122.854 174.221 122.409 174.088 121.897 174.088C121.395 174.088 120.937 174.219 120.521 174.48C120.105 174.741 119.774 175.093 119.529 175.536C119.289 175.973 119.169 176.461 119.169 177C119.169 177.539 119.291 178.029 119.537 178.472C119.787 178.909 120.118 179.259 120.529 179.52C120.945 179.776 121.401 179.904 121.897 179.904ZM134.86 176.024V181H133.516V176.32C133.516 175.915 133.417 175.547 133.22 175.216C133.023 174.885 132.759 174.624 132.428 174.432C132.097 174.235 131.729 174.136 131.324 174.136C130.924 174.136 130.556 174.235 130.22 174.432C129.889 174.624 129.625 174.885 129.428 175.216C129.231 175.547 129.132 175.915 129.132 176.32V181H127.788V169H129.132V174C129.415 173.627 129.772 173.331 130.204 173.112C130.636 172.888 131.105 172.776 131.612 172.776C132.209 172.776 132.753 172.923 133.244 173.216C133.74 173.504 134.132 173.893 134.42 174.384C134.713 174.875 134.86 175.421 134.86 176.024ZM136.46 175.528H141.58V176.872H136.46V175.528ZM147.667 181H145.947L143.027 172.984H144.459L146.803 179.44L149.147 172.984H150.579L147.667 181ZM155.074 181.208C154.338 181.208 153.666 181.019 153.058 180.64C152.455 180.261 151.972 179.755 151.61 179.12C151.252 178.48 151.074 177.773 151.074 177C151.074 176.413 151.178 175.867 151.386 175.36C151.594 174.848 151.879 174.4 152.242 174.016C152.61 173.627 153.036 173.323 153.522 173.104C154.007 172.885 154.524 172.776 155.074 172.776C155.81 172.776 156.479 172.965 157.082 173.344C157.69 173.723 158.172 174.232 158.53 174.872C158.892 175.512 159.074 176.221 159.074 177C159.074 177.581 158.97 178.125 158.762 178.632C158.554 179.139 158.266 179.587 157.898 179.976C157.535 180.36 157.111 180.661 156.626 180.88C156.146 181.099 155.628 181.208 155.074 181.208ZM155.074 179.864C155.575 179.864 156.026 179.733 156.426 179.472C156.831 179.205 157.148 178.856 157.378 178.424C157.612 177.987 157.73 177.512 157.73 177C157.73 176.477 157.61 175.997 157.37 175.56C157.135 175.123 156.818 174.773 156.418 174.512C156.018 174.251 155.57 174.12 155.074 174.12C154.572 174.12 154.122 174.253 153.722 174.52C153.322 174.781 153.004 175.131 152.77 175.568C152.535 176.005 152.418 176.483 152.418 177C152.418 177.533 152.538 178.019 152.778 178.456C153.018 178.888 153.34 179.232 153.746 179.488C154.151 179.739 154.594 179.864 155.074 179.864ZM160.319 181V169H161.663V181H160.319ZM163.265 177.96V173H164.609V177.664C164.609 178.069 164.708 178.437 164.905 178.768C165.102 179.099 165.366 179.363 165.697 179.56C166.033 179.752 166.401 179.848 166.801 179.848C167.206 179.848 167.572 179.752 167.897 179.56C168.228 179.363 168.492 179.099 168.689 178.768C168.886 178.437 168.985 178.069 168.985 177.664V173H170.329L170.337 181H168.993L168.985 179.984C168.702 180.357 168.345 180.656 167.913 180.88C167.481 181.099 167.014 181.208 166.513 181.208C165.916 181.208 165.369 181.064 164.873 180.776C164.382 180.483 163.99 180.091 163.697 179.6C163.409 179.109 163.265 178.563 163.265 177.96ZM171.944 181V173H173.288V174C173.571 173.627 173.926 173.331 174.352 173.112C174.784 172.888 175.254 172.776 175.76 172.776C176.352 172.776 176.894 172.92 177.384 173.208C177.875 173.496 178.262 173.877 178.544 174.352C178.827 173.877 179.211 173.496 179.696 173.208C180.187 172.92 180.726 172.776 181.312 172.776C181.915 172.776 182.462 172.923 182.952 173.216C183.443 173.504 183.832 173.893 184.12 174.384C184.414 174.875 184.56 175.421 184.56 176.024V181H183.216V176.344C183.216 175.949 183.12 175.584 182.928 175.248C182.736 174.912 182.478 174.643 182.152 174.44C181.827 174.237 181.467 174.136 181.072 174.136C180.678 174.136 180.318 174.232 179.992 174.424C179.667 174.611 179.408 174.872 179.216 175.208C179.024 175.539 178.928 175.917 178.928 176.344V181H177.584V176.344C177.584 175.917 177.488 175.539 177.296 175.208C177.104 174.872 176.843 174.611 176.512 174.424C176.187 174.232 175.827 174.136 175.432 174.136C175.043 174.136 174.683 174.237 174.352 174.44C174.027 174.643 173.768 174.912 173.576 175.248C173.384 175.584 173.288 175.949 173.288 176.344V181H171.944ZM189.527 181.208C188.791 181.208 188.119 181.019 187.511 180.64C186.908 180.261 186.426 179.755 186.063 179.12C185.706 178.48 185.527 177.773 185.527 177C185.527 176.413 185.631 175.867 185.839 175.36C186.047 174.848 186.332 174.4 186.695 174.016C187.063 173.627 187.49 173.323 187.975 173.104C188.46 172.885 188.978 172.776 189.527 172.776C190.13 172.776 190.682 172.899 191.183 173.144C191.69 173.384 192.122 173.72 192.479 174.152C192.842 174.584 193.111 175.085 193.287 175.656C193.468 176.227 193.535 176.837 193.487 177.488H186.959C187.023 177.941 187.172 178.347 187.407 178.704C187.642 179.056 187.94 179.336 188.303 179.544C188.671 179.752 189.079 179.859 189.527 179.864C190.007 179.864 190.442 179.741 190.831 179.496C191.22 179.245 191.535 178.904 191.775 178.472L193.143 178.792C192.823 179.501 192.34 180.083 191.695 180.536C191.05 180.984 190.327 181.208 189.527 181.208ZM186.919 176.432H192.135C192.092 175.984 191.948 175.576 191.703 175.208C191.458 174.835 191.146 174.536 190.767 174.312C190.388 174.088 189.975 173.976 189.527 173.976C189.079 173.976 188.668 174.085 188.295 174.304C187.922 174.523 187.612 174.819 187.367 175.192C187.127 175.56 186.978 175.973 186.919 176.432ZM198.788 173H200.132V181H198.788V173ZM199.476 171.696C199.263 171.696 199.084 171.627 198.94 171.488C198.796 171.349 198.724 171.176 198.724 170.968C198.724 170.76 198.796 170.587 198.94 170.448C199.084 170.309 199.26 170.24 199.468 170.24C199.676 170.24 199.852 170.309 199.996 170.448C200.14 170.587 200.212 170.76 200.212 170.968C200.212 171.176 200.14 171.349 199.996 171.488C199.857 171.627 199.684 171.696 199.476 171.696ZM209.095 176.024V181H207.751V176.32C207.751 175.915 207.652 175.547 207.455 175.216C207.257 174.885 206.993 174.624 206.663 174.432C206.332 174.235 205.964 174.136 205.559 174.136C205.159 174.136 204.791 174.235 204.455 174.432C204.124 174.624 203.86 174.885 203.663 175.216C203.465 175.547 203.367 175.915 203.367 176.32V181H202.023V173H203.367V174C203.649 173.627 204.007 173.331 204.439 173.112C204.871 172.888 205.34 172.776 205.847 172.776C206.444 172.776 206.988 172.923 207.479 173.216C207.975 173.504 208.367 173.893 208.655 174.384C208.948 174.875 209.095 175.421 209.095 176.024ZM212.51 171.024V173H214.854V174.344H212.51V181H211.166V174.344H210.134V173H211.166V171.024C211.166 170.613 211.265 170.243 211.462 169.912C211.665 169.576 211.934 169.309 212.27 169.112C212.612 168.909 212.985 168.808 213.39 168.808C213.689 168.808 213.98 168.869 214.262 168.992C214.545 169.109 214.796 169.285 215.014 169.52L214.054 170.472C213.98 170.371 213.881 170.293 213.758 170.24C213.641 170.181 213.518 170.152 213.39 170.152C213.15 170.152 212.942 170.237 212.766 170.408C212.596 170.579 212.51 170.784 212.51 171.024ZM216.335 181V173H217.679V174C217.962 173.627 218.319 173.331 218.751 173.112C219.183 172.888 219.652 172.776 220.159 172.776C220.468 172.776 220.767 172.816 221.055 172.896L220.511 174.24C220.292 174.171 220.079 174.136 219.871 174.136C219.471 174.136 219.103 174.235 218.767 174.432C218.436 174.624 218.172 174.885 217.975 175.216C217.778 175.547 217.679 175.915 217.679 176.32V181H216.335ZM228.064 173H229.408V181H228.064L228.008 179.648C227.757 180.112 227.411 180.488 226.968 180.776C226.531 181.064 226.008 181.208 225.4 181.208C224.813 181.208 224.264 181.099 223.752 180.88C223.24 180.656 222.787 180.349 222.392 179.96C222.003 179.565 221.699 179.112 221.48 178.6C221.261 178.088 221.152 177.536 221.152 176.944C221.152 176.373 221.259 175.835 221.472 175.328C221.685 174.821 221.981 174.379 222.36 174C222.744 173.616 223.187 173.317 223.688 173.104C224.189 172.885 224.728 172.776 225.304 172.776C225.933 172.776 226.485 172.925 226.96 173.224C227.435 173.517 227.819 173.899 228.112 174.368L228.064 173ZM225.376 179.904C225.904 179.904 226.36 179.776 226.744 179.52C227.133 179.259 227.432 178.907 227.64 178.464C227.853 178.021 227.96 177.533 227.96 177C227.96 176.456 227.853 175.965 227.64 175.528C227.427 175.085 227.125 174.736 226.736 174.48C226.352 174.219 225.899 174.088 225.376 174.088C224.848 174.088 224.368 174.219 223.936 174.48C223.504 174.741 223.16 175.093 222.904 175.536C222.653 175.973 222.528 176.461 222.528 177C222.528 177.539 222.659 178.029 222.92 178.472C223.181 178.909 223.528 179.259 223.96 179.52C224.392 179.776 224.864 179.904 225.376 179.904ZM233.447 181.152C233.015 181.136 232.594 181.056 232.183 180.912C231.778 180.763 231.42 180.563 231.111 180.312C230.807 180.056 230.586 179.763 230.447 179.432L231.599 178.936C231.679 179.117 231.823 179.288 232.031 179.448C232.239 179.608 232.479 179.736 232.751 179.832C233.023 179.928 233.298 179.976 233.575 179.976C233.868 179.976 234.143 179.931 234.399 179.84C234.655 179.749 234.863 179.616 235.023 179.44C235.188 179.259 235.271 179.043 235.271 178.792C235.271 178.525 235.18 178.317 234.999 178.168C234.823 178.013 234.599 177.893 234.327 177.808C234.06 177.717 233.788 177.632 233.511 177.552C232.962 177.413 232.471 177.248 232.039 177.056C231.607 176.859 231.266 176.611 231.015 176.312C230.77 176.008 230.647 175.621 230.647 175.152C230.647 174.656 230.783 174.227 231.055 173.864C231.332 173.501 231.695 173.221 232.143 173.024C232.591 172.827 233.071 172.728 233.583 172.728C234.228 172.728 234.818 172.867 235.351 173.144C235.884 173.421 236.282 173.797 236.543 174.272L235.463 174.904C235.372 174.712 235.234 174.544 235.047 174.4C234.86 174.251 234.647 174.133 234.407 174.048C234.167 173.963 233.922 173.917 233.671 173.912C233.362 173.901 233.071 173.941 232.799 174.032C232.532 174.123 232.316 174.261 232.151 174.448C231.991 174.629 231.911 174.856 231.911 175.128C231.911 175.395 231.996 175.597 232.167 175.736C232.343 175.875 232.57 175.987 232.847 176.072C233.13 176.152 233.436 176.245 233.767 176.352C234.252 176.507 234.706 176.685 235.127 176.888C235.548 177.091 235.887 177.344 236.143 177.648C236.404 177.952 236.532 178.328 236.527 178.776C236.527 179.267 236.38 179.696 236.087 180.064C235.794 180.427 235.412 180.704 234.943 180.896C234.479 181.088 233.98 181.173 233.447 181.152ZM242.042 174.344H240.226L240.218 181H238.874L238.882 174.344H237.506V173H238.882L238.874 170.488H240.218L240.226 173H242.042V174.344ZM243.476 181V173H244.82V174C245.102 173.627 245.46 173.331 245.892 173.112C246.324 172.888 246.793 172.776 247.3 172.776C247.609 172.776 247.908 172.816 248.196 172.896L247.652 174.24C247.433 174.171 247.22 174.136 247.012 174.136C246.612 174.136 246.244 174.235 245.908 174.432C245.577 174.624 245.313 174.885 245.116 175.216C244.918 175.547 244.82 175.915 244.82 176.32V181H243.476ZM248.843 177.96V173H250.187V177.664C250.187 178.069 250.286 178.437 250.483 178.768C250.68 179.099 250.944 179.363 251.275 179.56C251.611 179.752 251.979 179.848 252.379 179.848C252.784 179.848 253.15 179.752 253.475 179.56C253.806 179.363 254.07 179.099 254.267 178.768C254.464 178.437 254.563 178.069 254.563 177.664V173H255.907L255.915 181H254.571L254.563 179.984C254.28 180.357 253.923 180.656 253.491 180.88C253.059 181.099 252.592 181.208 252.091 181.208C251.494 181.208 250.947 181.064 250.451 180.776C249.96 180.483 249.568 180.091 249.275 179.6C248.987 179.109 248.843 178.563 248.843 177.96ZM262.956 178.888L264.156 179.536C263.794 180.043 263.332 180.448 262.772 180.752C262.218 181.056 261.615 181.208 260.964 181.208C260.228 181.208 259.556 181.019 258.948 180.64C258.346 180.261 257.863 179.755 257.5 179.12C257.143 178.48 256.964 177.773 256.964 177C256.964 176.413 257.068 175.867 257.276 175.36C257.484 174.848 257.77 174.4 258.132 174.016C258.5 173.627 258.927 173.323 259.412 173.104C259.898 172.885 260.415 172.776 260.964 172.776C261.615 172.776 262.218 172.928 262.772 173.232C263.332 173.536 263.794 173.944 264.156 174.456L262.956 175.104C262.7 174.789 262.396 174.547 262.044 174.376C261.692 174.205 261.332 174.12 260.964 174.12C260.468 174.12 260.018 174.253 259.612 174.52C259.212 174.781 258.895 175.131 258.66 175.568C258.426 176.005 258.308 176.483 258.308 177C258.308 177.517 258.426 177.995 258.66 178.432C258.9 178.864 259.22 179.211 259.62 179.472C260.026 179.733 260.474 179.864 260.964 179.864C261.359 179.864 261.73 179.773 262.076 179.592C262.423 179.411 262.716 179.176 262.956 178.888ZM269.745 174.344H267.929L267.921 181H266.577L266.585 174.344H265.209V173H266.585L266.577 170.488H267.921L267.929 173H269.745V174.344ZM270.859 177.96V173H272.203V177.664C272.203 178.069 272.301 178.437 272.499 178.768C272.696 179.099 272.96 179.363 273.291 179.56C273.627 179.752 273.995 179.848 274.395 179.848C274.8 179.848 275.165 179.752 275.491 179.56C275.821 179.363 276.085 179.099 276.283 178.768C276.48 178.437 276.579 178.069 276.579 177.664V173H277.923L277.931 181H276.587L276.579 179.984C276.296 180.357 275.939 180.656 275.507 180.88C275.075 181.099 274.608 181.208 274.107 181.208C273.509 181.208 272.963 181.064 272.467 180.776C271.976 180.483 271.584 180.091 271.291 179.6C271.003 179.109 270.859 178.563 270.859 177.96ZM279.538 181V173H280.882V174C281.165 173.627 281.522 173.331 281.954 173.112C282.386 172.888 282.855 172.776 283.362 172.776C283.671 172.776 283.97 172.816 284.258 172.896L283.714 174.24C283.495 174.171 283.282 174.136 283.074 174.136C282.674 174.136 282.306 174.235 281.97 174.432C281.639 174.624 281.375 174.885 281.178 175.216C280.981 175.547 280.882 175.915 280.882 176.32V181H279.538ZM288.355 181.208C287.619 181.208 286.947 181.019 286.339 180.64C285.736 180.261 285.254 179.755 284.891 179.12C284.534 178.48 284.355 177.773 284.355 177C284.355 176.413 284.459 175.867 284.667 175.36C284.875 174.848 285.16 174.4 285.523 174.016C285.891 173.627 286.318 173.323 286.803 173.104C287.288 172.885 287.806 172.776 288.355 172.776C288.958 172.776 289.51 172.899 290.011 173.144C290.518 173.384 290.95 173.72 291.307 174.152C291.67 174.584 291.939 175.085 292.115 175.656C292.296 176.227 292.363 176.837 292.315 177.488H285.787C285.851 177.941 286 178.347 286.235 178.704C286.47 179.056 286.768 179.336 287.131 179.544C287.499 179.752 287.907 179.859 288.355 179.864C288.835 179.864 289.27 179.741 289.659 179.496C290.048 179.245 290.363 178.904 290.603 178.472L291.971 178.792C291.651 179.501 291.168 180.083 290.523 180.536C289.878 180.984 289.155 181.208 288.355 181.208ZM285.747 176.432H290.963C290.92 175.984 290.776 175.576 290.531 175.208C290.286 174.835 289.974 174.536 289.595 174.312C289.216 174.088 288.803 173.976 288.355 173.976C287.907 173.976 287.496 174.085 287.123 174.304C286.75 174.523 286.44 174.819 286.195 175.192C285.955 175.56 285.806 175.973 285.747 176.432Z" fill="#4268FF"/>
</g>
<rect x="68.4596" y="94.4596" width="426.081" height="375.081" rx="21.6033" stroke="#0C1021" stroke-opacity="0.05" stroke-width="0.919289"/>
</g>
<defs>
<filter id="filter0_d_2307_2455" x="49.6142" y="79.2914" width="463.772" height="412.772" filterUnits="userSpaceOnUse" color-interpolation-filters="sRGB">
<feFlood flood-opacity="0" result="BackgroundImageFix"/>
<feColorMatrix in="SourceAlpha" type="matrix" values="0 0 0 0 0 0 0 0 0 0 0 0 0 0 0 0 0 0 127 0" result="hardAlpha"/>
<feOffset dy="3.67715"/>
<feGaussianBlur stdDeviation="9.19289"/>
<feComposite in2="hardAlpha" operator="out"/>
<feColorMatrix type="matrix" values="0 0 0 0 0.0468057 0 0 0 0 0.0634939 0 0 0 0 0.129808 0 0 0 0.1 0"/>
<feBlend mode="normal" in2="BackgroundImageFix" result="effect1_dropShadow_2307_2455"/>
<feBlend mode="normal" in="SourceGraphic" in2="effect1_dropShadow_2307_2455" result="shape"/>
</filter>
<filter id="filter1_d_2307_2455" x="388" y="241" width="24" height="24" filterUnits="userSpaceOnUse" color-interpolation-filters="sRGB">
<feFlood flood-opacity="0" result="BackgroundImageFix"/>
<feColorMatrix in="SourceAlpha" type="matrix" values="0 0 0 0 0 0 0 0 0 0 0 0 0 0 0 0 0 0 127 0" result="hardAlpha"/>
<feOffset dy="4"/>
<feGaussianBlur stdDeviation="2"/>
<feComposite in2="hardAlpha" operator="out"/>
<feColorMatrix type="matrix" values="0 0 0 0 0.259615 0 0 0 0 0.407692 0 0 0 0 1 0 0 0 0.25 0"/>
<feBlend mode="normal" in2="BackgroundImageFix" result="effect1_dropShadow_2307_2455"/>
<feBlend mode="normal" in="SourceGraphic" in2="effect1_dropShadow_2307_2455" result="shape"/>
</filter>
<filter id="filter2_d_2307_2455" x="347.854" y="208" width="105.293" height="34.1463" filterUnits="userSpaceOnUse" color-interpolation-filters="sRGB">
<feFlood flood-opacity="0" result="BackgroundImageFix"/>
<feColorMatrix in="SourceAlpha" type="matrix" values="0 0 0 0 0 0 0 0 0 0 0 0 0 0 0 0 0 0 127 0" result="hardAlpha"/>
<feOffset dy="2.82927"/>
<feGaussianBlur stdDeviation="1.41463"/>
<feComposite in2="hardAlpha" operator="out"/>
<feColorMatrix type="matrix" values="0 0 0 0 0.259615 0 0 0 0 0.407692 0 0 0 0 1 0 0 0 0.15 0"/>
<feBlend mode="normal" in2="BackgroundImageFix" result="effect1_dropShadow_2307_2455"/>
<feBlend mode="normal" in="SourceGraphic" in2="effect1_dropShadow_2307_2455" result="shape"/>
</filter>
<linearGradient id="paint0_linear_2307_2455" x1="181.412" y1="268.654" x2="265.919" y2="474.17" gradientUnits="userSpaceOnUse">
<stop stop-color="#4268FF"/>
<stop offset="1" stop-color="#4268FF" stop-opacity="0"/>
</linearGradient>
<clipPath id="clip0_2307_2455">
<rect x="68" y="94" width="427" height="376" rx="22.0629" fill="white"/>
</clipPath>
</defs>
</svg>
