<svg preserveAspectRatio="none" width="100%" height="100%" overflow="visible" style="display: block;" viewBox="0 0 24 24" fill="none" xmlns="http://www.w3.org/2000/svg">
<g id="fa7-solid:gear">
<path id="Vector" d="M9.71625 2.75625C9.82875 2.20125 10.32 1.8 10.89 1.8H13.1325C13.7025 1.8 14.1938 2.20125 14.3063 2.75625L14.85 5.38125C15.3788 5.60625 15.8737 5.895 16.3237 6.23625L18.8663 5.3925C19.4063 5.2125 19.9988 5.4375 20.2838 5.9325L21.405 7.875C21.69 8.37 21.5888 8.9925 21.1613 9.37125L19.1625 11.1487C19.1963 11.4262 19.2113 11.7112 19.2113 12C19.2113 12.2888 19.1925 12.5738 19.1625 12.8513L21.165 14.6325C21.5925 15.0113 21.69 15.6375 21.4088 16.1288L20.2875 18.0713C20.0025 18.5625 19.41 18.7912 18.87 18.6112L16.3275 17.7675C15.8738 18.1087 15.3788 18.3938 14.8538 18.6225L14.3138 21.2438C14.1975 21.8025 13.7063 22.2 13.14 22.2H10.8975C10.3275 22.2 9.83625 21.7988 9.72375 21.2438L9.18375 18.6225C8.655 18.3975 8.16375 18.1087 7.71 17.7675L5.15625 18.6112C4.61625 18.7912 4.02375 18.5663 3.73875 18.0713L2.6175 16.1288C2.3325 15.6338 2.43375 15.0113 2.86125 14.6325L4.86375 12.8513C4.83 12.5738 4.815 12.2888 4.815 12C4.815 11.7112 4.83375 11.4262 4.86375 11.1487L2.86125 9.3675C2.43375 8.98875 2.33625 8.3625 2.6175 7.87125L3.73875 5.92875C4.02375 5.43375 4.61625 5.20875 5.15625 5.38875L7.69875 6.2325C8.1525 5.89125 8.6475 5.60625 9.1725 5.3775L9.71625 2.75625ZM12.0112 15C13.6687 14.9925 15.0075 13.6463 15 11.9888C14.9925 10.3313 13.6463 8.9925 11.9888 9C10.3313 9.0075 8.9925 10.3537 9 12.0112C9.0075 13.6687 10.3537 15.0075 12.0112 15Z" fill="var(--fill-0, #4268FF)"/>
</g>
</svg>
