<svg width="458" height="318" viewBox="0 0 458 318" fill="none" xmlns="http://www.w3.org/2000/svg">
<g clip-path="url(#clip0_790_3977)">
<path d="M4.788 33.234C3.996 33.234 3.27 33.039 2.61 32.649C1.956 32.253 1.431 31.725 1.035 31.065C0.645 30.405 0.45 29.676 0.45 28.878C0.45 28.416 0.504 28.023 0.612 27.699C0.72 27.369 0.879 27.003 1.089 26.601L4.662 20.4H6.129L3.51 24.936C4.038 24.732 4.569 24.642 5.103 24.666C5.637 24.684 6.147 24.801 6.633 25.017C7.119 25.233 7.551 25.53 7.929 25.908C8.307 26.28 8.604 26.718 8.82 27.222C9.042 27.726 9.153 28.278 9.153 28.878C9.153 29.478 9.039 30.042 8.811 30.57C8.583 31.092 8.268 31.554 7.866 31.956C7.47 32.352 7.008 32.664 6.48 32.892C5.952 33.12 5.388 33.234 4.788 33.234ZM4.788 31.974C5.388 31.974 5.922 31.83 6.39 31.542C6.858 31.248 7.224 30.864 7.488 30.39C7.758 29.916 7.893 29.409 7.893 28.869C7.893 28.305 7.755 27.792 7.479 27.33C7.203 26.862 6.831 26.49 6.363 26.214C5.895 25.932 5.376 25.791 4.806 25.791C4.218 25.791 3.69 25.935 3.222 26.223C2.754 26.511 2.385 26.889 2.115 27.357C1.845 27.819 1.71 28.323 1.71 28.869C1.71 29.457 1.851 29.985 2.133 30.453C2.421 30.921 2.799 31.293 3.267 31.569C3.735 31.839 4.242 31.974 4.788 31.974ZM15.0585 33.234C14.3025 33.234 13.6275 33.066 13.0335 32.73C12.4395 32.388 11.9325 31.917 11.5125 31.317C11.0925 30.717 10.7715 30.024 10.5495 29.238C10.3335 28.446 10.2255 27.6 10.2255 26.7C10.2255 25.8 10.3335 24.954 10.5495 24.162C10.7715 23.37 11.0925 22.677 11.5125 22.083C11.9325 21.483 12.4395 21.015 13.0335 20.679C13.6275 20.337 14.3025 20.166 15.0585 20.166C15.8085 20.166 16.4805 20.337 17.0745 20.679C17.6685 21.015 18.1725 21.483 18.5865 22.083C19.0005 22.677 19.3155 23.37 19.5315 24.162C19.7535 24.954 19.8645 25.8 19.8645 26.7C19.8645 27.6 19.7535 28.446 19.5315 29.238C19.3155 30.024 19.0005 30.717 18.5865 31.317C18.1725 31.917 17.6685 32.388 17.0745 32.73C16.4805 33.066 15.8085 33.234 15.0585 33.234ZM15.0585 31.974C15.8505 31.974 16.5135 31.731 17.0475 31.245C17.5875 30.759 17.9925 30.117 18.2625 29.319C18.5325 28.515 18.6675 27.642 18.6675 26.7C18.6675 25.704 18.5265 24.81 18.2445 24.018C17.9685 23.22 17.5605 22.59 17.0205 22.128C16.4865 21.66 15.8325 21.426 15.0585 21.426C14.4465 21.426 13.9125 21.567 13.4565 21.849C13.0005 22.131 12.6225 22.518 12.3225 23.01C12.0225 23.502 11.7975 24.066 11.6475 24.702C11.4975 25.332 11.4225 25.998 11.4225 26.7C11.4225 27.648 11.5605 28.524 11.8365 29.328C12.1125 30.126 12.5205 30.768 13.0605 31.254C13.6005 31.734 14.2665 31.974 15.0585 31.974ZM25.6054 33.234C24.8494 33.234 24.1744 33.066 23.5804 32.73C22.9864 32.388 22.4794 31.917 22.0594 31.317C21.6394 30.717 21.3184 30.024 21.0964 29.238C20.8804 28.446 20.7724 27.6 20.7724 26.7C20.7724 25.8 20.8804 24.954 21.0964 24.162C21.3184 23.37 21.6394 22.677 22.0594 22.083C22.4794 21.483 22.9864 21.015 23.5804 20.679C24.1744 20.337 24.8494 20.166 25.6054 20.166C26.3554 20.166 27.0274 20.337 27.6214 20.679C28.2154 21.015 28.7194 21.483 29.1334 22.083C29.5474 22.677 29.8624 23.37 30.0784 24.162C30.3004 24.954 30.4114 25.8 30.4114 26.7C30.4114 27.6 30.3004 28.446 30.0784 29.238C29.8624 30.024 29.5474 30.717 29.1334 31.317C28.7194 31.917 28.2154 32.388 27.6214 32.73C27.0274 33.066 26.3554 33.234 25.6054 33.234ZM25.6054 31.974C26.3974 31.974 27.0604 31.731 27.5944 31.245C28.1344 30.759 28.5394 30.117 28.8094 29.319C29.0794 28.515 29.2144 27.642 29.2144 26.7C29.2144 25.704 29.0734 24.81 28.7914 24.018C28.5154 23.22 28.1074 22.59 27.5674 22.128C27.0334 21.66 26.3794 21.426 25.6054 21.426C24.9934 21.426 24.4594 21.567 24.0034 21.849C23.5474 22.131 23.1694 22.518 22.8694 23.01C22.5694 23.502 22.3444 24.066 22.1944 24.702C22.0444 25.332 21.9694 25.998 21.9694 26.7C21.9694 27.648 22.1074 28.524 22.3834 29.328C22.6594 30.126 23.0674 30.768 23.6074 31.254C24.1474 31.734 24.8134 31.974 25.6054 31.974Z" fill="#535662"/>
<path d="M4.761 74.234C3.993 74.234 3.294 74.048 2.664 73.676C2.04 73.304 1.545 72.806 1.179 72.182C0.813 71.552 0.63 70.862 0.63 70.112H1.89C1.89 70.634 2.019 71.114 2.277 71.552C2.535 71.984 2.88 72.329 3.312 72.587C3.75 72.845 4.233 72.974 4.761 72.974C5.283 72.974 5.76 72.845 6.192 72.587C6.624 72.329 6.969 71.984 7.227 71.552C7.491 71.114 7.623 70.634 7.623 70.112C7.623 69.584 7.497 69.104 7.245 68.672C6.999 68.234 6.648 67.886 6.192 67.628C5.742 67.364 5.205 67.232 4.581 67.232H1.521L2.709 61.4H8.604V62.66H3.726L3.069 65.972L4.536 65.981C5.394 65.993 6.147 66.176 6.795 66.53C7.449 66.884 7.959 67.37 8.325 67.988C8.697 68.6 8.883 69.308 8.883 70.112C8.883 70.676 8.775 71.207 8.559 71.705C8.349 72.203 8.052 72.644 7.668 73.028C7.29 73.406 6.852 73.703 6.354 73.919C5.862 74.129 5.331 74.234 4.761 74.234ZM14.7949 74.234C14.0389 74.234 13.3639 74.066 12.7699 73.73C12.1759 73.388 11.6689 72.917 11.2489 72.317C10.8289 71.717 10.5079 71.024 10.2859 70.238C10.0699 69.446 9.96188 68.6 9.96188 67.7C9.96188 66.8 10.0699 65.954 10.2859 65.162C10.5079 64.37 10.8289 63.677 11.2489 63.083C11.6689 62.483 12.1759 62.015 12.7699 61.679C13.3639 61.337 14.0389 61.166 14.7949 61.166C15.5449 61.166 16.2169 61.337 16.8109 61.679C17.4049 62.015 17.9089 62.483 18.3229 63.083C18.7369 63.677 19.0519 64.37 19.2679 65.162C19.4899 65.954 19.6009 66.8 19.6009 67.7C19.6009 68.6 19.4899 69.446 19.2679 70.238C19.0519 71.024 18.7369 71.717 18.3229 72.317C17.9089 72.917 17.4049 73.388 16.8109 73.73C16.2169 74.066 15.5449 74.234 14.7949 74.234ZM14.7949 72.974C15.5869 72.974 16.2499 72.731 16.7839 72.245C17.3239 71.759 17.7289 71.117 17.9989 70.319C18.2689 69.515 18.4039 68.642 18.4039 67.7C18.4039 66.704 18.2629 65.81 17.9809 65.018C17.7049 64.22 17.2969 63.59 16.7569 63.128C16.2229 62.66 15.5689 62.426 14.7949 62.426C14.1829 62.426 13.6489 62.567 13.1929 62.849C12.7369 63.131 12.3589 63.518 12.0589 64.01C11.7589 64.502 11.5339 65.066 11.3839 65.702C11.2339 66.332 11.1589 66.998 11.1589 67.7C11.1589 68.648 11.2969 69.524 11.5729 70.328C11.8489 71.126 12.2569 71.768 12.7969 72.254C13.3369 72.734 14.0029 72.974 14.7949 72.974ZM25.3418 74.234C24.5858 74.234 23.9108 74.066 23.3168 73.73C22.7228 73.388 22.2158 72.917 21.7958 72.317C21.3758 71.717 21.0548 71.024 20.8328 70.238C20.6168 69.446 20.5088 68.6 20.5088 67.7C20.5088 66.8 20.6168 65.954 20.8328 65.162C21.0548 64.37 21.3758 63.677 21.7958 63.083C22.2158 62.483 22.7228 62.015 23.3168 61.679C23.9108 61.337 24.5858 61.166 25.3418 61.166C26.0918 61.166 26.7638 61.337 27.3578 61.679C27.9518 62.015 28.4558 62.483 28.8698 63.083C29.2838 63.677 29.5988 64.37 29.8148 65.162C30.0368 65.954 30.1478 66.8 30.1478 67.7C30.1478 68.6 30.0368 69.446 29.8148 70.238C29.5988 71.024 29.2838 71.717 28.8698 72.317C28.4558 72.917 27.9518 73.388 27.3578 73.73C26.7638 74.066 26.0918 74.234 25.3418 74.234ZM25.3418 72.974C26.1338 72.974 26.7968 72.731 27.3308 72.245C27.8708 71.759 28.2758 71.117 28.5458 70.319C28.8158 69.515 28.9508 68.642 28.9508 67.7C28.9508 66.704 28.8098 65.81 28.5278 65.018C28.2518 64.22 27.8438 63.59 27.3038 63.128C26.7698 62.66 26.1158 62.426 25.3418 62.426C24.7298 62.426 24.1958 62.567 23.7398 62.849C23.2838 63.131 22.9058 63.518 22.6058 64.01C22.3058 64.502 22.0808 65.066 21.9308 65.702C21.7808 66.332 21.7058 66.998 21.7058 67.7C21.7058 68.648 21.8438 69.524 22.1198 70.328C22.3958 71.126 22.8038 71.768 23.3438 72.254C23.8838 72.734 24.5498 72.974 25.3418 72.974Z" fill="#535662"/>
<path d="M6.156 115V111.463H0.72V110.185L5.832 102.4H7.416V110.203H8.739V111.463H7.416V115H6.156ZM2.214 110.185L6.156 110.203L6.129 104.2L2.214 110.185ZM14.6543 115.234C13.8983 115.234 13.2233 115.066 12.6293 114.73C12.0353 114.388 11.5283 113.917 11.1083 113.317C10.6883 112.717 10.3673 112.024 10.1453 111.238C9.92925 110.446 9.82125 109.6 9.82125 108.7C9.82125 107.8 9.92925 106.954 10.1453 106.162C10.3673 105.37 10.6883 104.677 11.1083 104.083C11.5283 103.483 12.0353 103.015 12.6293 102.679C13.2233 102.337 13.8983 102.166 14.6543 102.166C15.4043 102.166 16.0763 102.337 16.6703 102.679C17.2643 103.015 17.7683 103.483 18.1823 104.083C18.5963 104.677 18.9113 105.37 19.1273 106.162C19.3493 106.954 19.4603 107.8 19.4603 108.7C19.4603 109.6 19.3493 110.446 19.1273 111.238C18.9113 112.024 18.5963 112.717 18.1823 113.317C17.7683 113.917 17.2643 114.388 16.6703 114.73C16.0763 115.066 15.4043 115.234 14.6543 115.234ZM14.6543 113.974C15.4463 113.974 16.1093 113.731 16.6433 113.245C17.1833 112.759 17.5883 112.117 17.8583 111.319C18.1283 110.515 18.2633 109.642 18.2633 108.7C18.2633 107.704 18.1223 106.81 17.8403 106.018C17.5643 105.22 17.1563 104.59 16.6163 104.128C16.0823 103.66 15.4283 103.426 14.6543 103.426C14.0423 103.426 13.5083 103.567 13.0523 103.849C12.5963 104.131 12.2183 104.518 11.9183 105.01C11.6183 105.502 11.3933 106.066 11.2433 106.702C11.0933 107.332 11.0183 107.998 11.0183 108.7C11.0183 109.648 11.1563 110.524 11.4323 111.328C11.7083 112.126 12.1163 112.768 12.6563 113.254C13.1963 113.734 13.8623 113.974 14.6543 113.974ZM25.2011 115.234C24.4451 115.234 23.7701 115.066 23.1761 114.73C22.5821 114.388 22.0751 113.917 21.6551 113.317C21.2351 112.717 20.9141 112.024 20.6921 111.238C20.4761 110.446 20.3681 109.6 20.3681 108.7C20.3681 107.8 20.4761 106.954 20.6921 106.162C20.9141 105.37 21.2351 104.677 21.6551 104.083C22.0751 103.483 22.5821 103.015 23.1761 102.679C23.7701 102.337 24.4451 102.166 25.2011 102.166C25.9511 102.166 26.6231 102.337 27.2171 102.679C27.8111 103.015 28.3151 103.483 28.7291 104.083C29.1431 104.677 29.4581 105.37 29.6741 106.162C29.8961 106.954 30.0071 107.8 30.0071 108.7C30.0071 109.6 29.8961 110.446 29.6741 111.238C29.4581 112.024 29.1431 112.717 28.7291 113.317C28.3151 113.917 27.8111 114.388 27.2171 114.73C26.6231 115.066 25.9511 115.234 25.2011 115.234ZM25.2011 113.974C25.9931 113.974 26.6561 113.731 27.1901 113.245C27.7301 112.759 28.1351 112.117 28.4051 111.319C28.6751 110.515 28.8101 109.642 28.8101 108.7C28.8101 107.704 28.6691 106.81 28.3871 106.018C28.1111 105.22 27.7031 104.59 27.1631 104.128C26.6291 103.66 25.9751 103.426 25.2011 103.426C24.5891 103.426 24.0551 103.567 23.5991 103.849C23.1431 104.131 22.7651 104.518 22.4651 105.01C22.1651 105.502 21.9401 106.066 21.7901 106.702C21.6401 107.332 21.5651 107.998 21.5651 108.7C21.5651 109.648 21.7031 110.524 21.9791 111.328C22.2551 112.126 22.6631 112.768 23.2031 113.254C23.7431 113.734 24.4091 113.974 25.2011 113.974Z" fill="#535662"/>
<path d="M4.419 155.234C3.651 155.234 2.976 155.066 2.394 154.73C1.812 154.388 1.356 153.932 1.026 153.362C0.702 152.792 0.54 152.162 0.54 151.472H1.8C1.8 151.928 1.905 152.348 2.115 152.732C2.331 153.11 2.634 153.413 3.024 153.641C3.414 153.863 3.879 153.974 4.419 153.974C4.875 153.974 5.301 153.863 5.697 153.641C6.099 153.413 6.423 153.11 6.669 152.732C6.921 152.348 7.047 151.928 7.047 151.472C7.047 150.902 6.903 150.428 6.615 150.05C6.327 149.666 5.931 149.381 5.427 149.195C4.923 149.003 4.347 148.907 3.699 148.907V147.863C4.593 147.863 5.31 147.674 5.85 147.296C6.396 146.912 6.669 146.351 6.669 145.613C6.669 145.211 6.558 144.845 6.336 144.515C6.12 144.185 5.835 143.921 5.481 143.723C5.133 143.519 4.758 143.417 4.356 143.417C3.954 143.417 3.567 143.519 3.195 143.723C2.829 143.921 2.529 144.185 2.295 144.515C2.067 144.845 1.953 145.211 1.953 145.613H0.693C0.693 145.139 0.792 144.695 0.99 144.281C1.188 143.861 1.458 143.492 1.8 143.174C2.142 142.856 2.532 142.607 2.97 142.427C3.408 142.247 3.867 142.157 4.347 142.157C4.977 142.157 5.562 142.313 6.102 142.625C6.648 142.937 7.089 143.354 7.425 143.876C7.761 144.398 7.929 144.977 7.929 145.613C7.929 146.231 7.77 146.789 7.452 147.287C7.134 147.785 6.705 148.136 6.165 148.34C6.633 148.496 7.026 148.733 7.344 149.051C7.662 149.363 7.902 149.726 8.064 150.14C8.226 150.554 8.307 150.998 8.307 151.472C8.307 152.162 8.127 152.792 7.767 153.362C7.407 153.932 6.93 154.388 6.336 154.73C5.748 155.066 5.109 155.234 4.419 155.234ZM14.2148 155.234C13.4588 155.234 12.7838 155.066 12.1898 154.73C11.5958 154.388 11.0888 153.917 10.6688 153.317C10.2488 152.717 9.9278 152.024 9.7058 151.238C9.4898 150.446 9.3818 149.6 9.3818 148.7C9.3818 147.8 9.4898 146.954 9.7058 146.162C9.9278 145.37 10.2488 144.677 10.6688 144.083C11.0888 143.483 11.5958 143.015 12.1898 142.679C12.7838 142.337 13.4588 142.166 14.2148 142.166C14.9648 142.166 15.6368 142.337 16.2308 142.679C16.8248 143.015 17.3288 143.483 17.7428 144.083C18.1568 144.677 18.4718 145.37 18.6878 146.162C18.9098 146.954 19.0208 147.8 19.0208 148.7C19.0208 149.6 18.9098 150.446 18.6878 151.238C18.4718 152.024 18.1568 152.717 17.7428 153.317C17.3288 153.917 16.8248 154.388 16.2308 154.73C15.6368 155.066 14.9648 155.234 14.2148 155.234ZM14.2148 153.974C15.0068 153.974 15.6698 153.731 16.2038 153.245C16.7438 152.759 17.1488 152.117 17.4188 151.319C17.6888 150.515 17.8238 149.642 17.8238 148.7C17.8238 147.704 17.6828 146.81 17.4008 146.018C17.1248 145.22 16.7168 144.59 16.1768 144.128C15.6428 143.66 14.9888 143.426 14.2148 143.426C13.6028 143.426 13.0688 143.567 12.6128 143.849C12.1568 144.131 11.7788 144.518 11.4788 145.01C11.1788 145.502 10.9538 146.066 10.8038 146.702C10.6538 147.332 10.5788 147.998 10.5788 148.7C10.5788 149.648 10.7168 150.524 10.9928 151.328C11.2688 152.126 11.6768 152.768 12.2168 153.254C12.7568 153.734 13.4228 153.974 14.2148 153.974ZM24.7617 155.234C24.0057 155.234 23.3307 155.066 22.7367 154.73C22.1427 154.388 21.6357 153.917 21.2157 153.317C20.7957 152.717 20.4747 152.024 20.2527 151.238C20.0367 150.446 19.9287 149.6 19.9287 148.7C19.9287 147.8 20.0367 146.954 20.2527 146.162C20.4747 145.37 20.7957 144.677 21.2157 144.083C21.6357 143.483 22.1427 143.015 22.7367 142.679C23.3307 142.337 24.0057 142.166 24.7617 142.166C25.5117 142.166 26.1837 142.337 26.7777 142.679C27.3717 143.015 27.8757 143.483 28.2897 144.083C28.7037 144.677 29.0187 145.37 29.2347 146.162C29.4567 146.954 29.5677 147.8 29.5677 148.7C29.5677 149.6 29.4567 150.446 29.2347 151.238C29.0187 152.024 28.7037 152.717 28.2897 153.317C27.8757 153.917 27.3717 154.388 26.7777 154.73C26.1837 155.066 25.5117 155.234 24.7617 155.234ZM24.7617 153.974C25.5537 153.974 26.2167 153.731 26.7507 153.245C27.2907 152.759 27.6957 152.117 27.9657 151.319C28.2357 150.515 28.3707 149.642 28.3707 148.7C28.3707 147.704 28.2297 146.81 27.9477 146.018C27.6717 145.22 27.2637 144.59 26.7237 144.128C26.1897 143.66 25.5357 143.426 24.7617 143.426C24.1497 143.426 23.6157 143.567 23.1597 143.849C22.7037 144.131 22.3257 144.518 22.0257 145.01C21.7257 145.502 21.5007 146.066 21.3507 146.702C21.2007 147.332 21.1257 147.998 21.1257 148.7C21.1257 149.648 21.2637 150.524 21.5397 151.328C21.8157 152.126 22.2237 152.768 22.7637 153.254C23.3037 153.734 23.9697 153.974 24.7617 153.974Z" fill="#535662"/>
<path d="M0.72 196V194.884C1.212 194.428 1.752 193.93 2.34 193.39C2.928 192.844 3.51 192.283 4.086 191.707C4.668 191.125 5.199 190.552 5.679 189.988C6.159 189.418 6.543 188.881 6.831 188.377C7.125 187.867 7.272 187.417 7.272 187.027C7.272 186.553 7.155 186.121 6.921 185.731C6.693 185.335 6.384 185.02 5.994 184.786C5.61 184.546 5.181 184.426 4.707 184.426C4.233 184.426 3.798 184.546 3.402 184.786C3.012 185.02 2.7 185.335 2.466 185.731C2.232 186.121 2.115 186.553 2.115 187.027H0.855C0.855 186.307 1.029 185.656 1.377 185.074C1.731 184.492 2.199 184.03 2.781 183.688C3.363 183.34 4.005 183.166 4.707 183.166C5.409 183.166 6.048 183.34 6.624 183.688C7.206 184.036 7.668 184.501 8.01 185.083C8.358 185.665 8.532 186.313 8.532 187.027C8.532 187.453 8.418 187.921 8.19 188.431C7.968 188.935 7.665 189.46 7.281 190.006C6.897 190.546 6.465 191.092 5.985 191.644C5.505 192.196 5.004 192.736 4.482 193.264C3.96 193.786 3.453 194.278 2.961 194.74H8.721V196H0.72ZM14.7246 196.234C13.9686 196.234 13.2936 196.066 12.6996 195.73C12.1056 195.388 11.5986 194.917 11.1786 194.317C10.7586 193.717 10.4376 193.024 10.2156 192.238C9.99956 191.446 9.89156 190.6 9.89156 189.7C9.89156 188.8 9.99956 187.954 10.2156 187.162C10.4376 186.37 10.7586 185.677 11.1786 185.083C11.5986 184.483 12.1056 184.015 12.6996 183.679C13.2936 183.337 13.9686 183.166 14.7246 183.166C15.4746 183.166 16.1466 183.337 16.7406 183.679C17.3346 184.015 17.8386 184.483 18.2526 185.083C18.6666 185.677 18.9816 186.37 19.1976 187.162C19.4196 187.954 19.5306 188.8 19.5306 189.7C19.5306 190.6 19.4196 191.446 19.1976 192.238C18.9816 193.024 18.6666 193.717 18.2526 194.317C17.8386 194.917 17.3346 195.388 16.7406 195.73C16.1466 196.066 15.4746 196.234 14.7246 196.234ZM14.7246 194.974C15.5166 194.974 16.1796 194.731 16.7136 194.245C17.2536 193.759 17.6586 193.117 17.9286 192.319C18.1986 191.515 18.3336 190.642 18.3336 189.7C18.3336 188.704 18.1926 187.81 17.9106 187.018C17.6346 186.22 17.2266 185.59 16.6866 185.128C16.1526 184.66 15.4986 184.426 14.7246 184.426C14.1126 184.426 13.5786 184.567 13.1226 184.849C12.6666 185.131 12.2886 185.518 11.9886 186.01C11.6886 186.502 11.4636 187.066 11.3136 187.702C11.1636 188.332 11.0886 188.998 11.0886 189.7C11.0886 190.648 11.2266 191.524 11.5026 192.328C11.7786 193.126 12.1866 193.768 12.7266 194.254C13.2666 194.734 13.9326 194.974 14.7246 194.974ZM25.2714 196.234C24.5154 196.234 23.8404 196.066 23.2464 195.73C22.6524 195.388 22.1454 194.917 21.7254 194.317C21.3054 193.717 20.9844 193.024 20.7624 192.238C20.5464 191.446 20.4384 190.6 20.4384 189.7C20.4384 188.8 20.5464 187.954 20.7624 187.162C20.9844 186.37 21.3054 185.677 21.7254 185.083C22.1454 184.483 22.6524 184.015 23.2464 183.679C23.8404 183.337 24.5154 183.166 25.2714 183.166C26.0214 183.166 26.6934 183.337 27.2874 183.679C27.8814 184.015 28.3854 184.483 28.7994 185.083C29.2134 185.677 29.5284 186.37 29.7444 187.162C29.9664 187.954 30.0774 188.8 30.0774 189.7C30.0774 190.6 29.9664 191.446 29.7444 192.238C29.5284 193.024 29.2134 193.717 28.7994 194.317C28.3854 194.917 27.8814 195.388 27.2874 195.73C26.6934 196.066 26.0214 196.234 25.2714 196.234ZM25.2714 194.974C26.0634 194.974 26.7264 194.731 27.2604 194.245C27.8004 193.759 28.2054 193.117 28.4754 192.319C28.7454 191.515 28.8804 190.642 28.8804 189.7C28.8804 188.704 28.7394 187.81 28.4574 187.018C28.1814 186.22 27.7734 185.59 27.2334 185.128C26.6994 184.66 26.0454 184.426 25.2714 184.426C24.6594 184.426 24.1254 184.567 23.6694 184.849C23.2134 185.131 22.8354 185.518 22.5354 186.01C22.2354 186.502 22.0104 187.066 21.8604 187.702C21.7104 188.332 21.6354 188.998 21.6354 189.7C21.6354 190.648 21.7734 191.524 22.0494 192.328C22.3254 193.126 22.7334 193.768 23.2734 194.254C23.8134 194.734 24.4794 194.974 25.2714 194.974Z" fill="#535662"/>
<path d="M2.07 238V226.66H0.72L1.08 225.4H3.33V238H2.07ZM10.1367 238.234C9.38067 238.234 8.70567 238.066 8.11167 237.73C7.51767 237.388 7.01067 236.917 6.59067 236.317C6.17067 235.717 5.84967 235.024 5.62767 234.238C5.41167 233.446 5.30367 232.6 5.30367 231.7C5.30367 230.8 5.41167 229.954 5.62767 229.162C5.84967 228.37 6.17067 227.677 6.59067 227.083C7.01067 226.483 7.51767 226.015 8.11167 225.679C8.70567 225.337 9.38067 225.166 10.1367 225.166C10.8867 225.166 11.5587 225.337 12.1527 225.679C12.7467 226.015 13.2507 226.483 13.6647 227.083C14.0787 227.677 14.3937 228.37 14.6097 229.162C14.8317 229.954 14.9427 230.8 14.9427 231.7C14.9427 232.6 14.8317 233.446 14.6097 234.238C14.3937 235.024 14.0787 235.717 13.6647 236.317C13.2507 236.917 12.7467 237.388 12.1527 237.73C11.5587 238.066 10.8867 238.234 10.1367 238.234ZM10.1367 236.974C10.9287 236.974 11.5917 236.731 12.1257 236.245C12.6657 235.759 13.0707 235.117 13.3407 234.319C13.6107 233.515 13.7457 232.642 13.7457 231.7C13.7457 230.704 13.6047 229.81 13.3227 229.018C13.0467 228.22 12.6387 227.59 12.0987 227.128C11.5647 226.66 10.9107 226.426 10.1367 226.426C9.52467 226.426 8.99067 226.567 8.53467 226.849C8.07867 227.131 7.70067 227.518 7.40067 228.01C7.10067 228.502 6.87567 229.066 6.72567 229.702C6.57567 230.332 6.50067 230.998 6.50067 231.7C6.50067 232.648 6.63867 233.524 6.91467 234.328C7.19067 235.126 7.59867 235.768 8.13867 236.254C8.67867 236.734 9.34467 236.974 10.1367 236.974ZM20.6835 238.234C19.9275 238.234 19.2525 238.066 18.6585 237.73C18.0645 237.388 17.5575 236.917 17.1375 236.317C16.7175 235.717 16.3965 235.024 16.1745 234.238C15.9585 233.446 15.8505 232.6 15.8505 231.7C15.8505 230.8 15.9585 229.954 16.1745 229.162C16.3965 228.37 16.7175 227.677 17.1375 227.083C17.5575 226.483 18.0645 226.015 18.6585 225.679C19.2525 225.337 19.9275 225.166 20.6835 225.166C21.4335 225.166 22.1055 225.337 22.6995 225.679C23.2935 226.015 23.7975 226.483 24.2115 227.083C24.6255 227.677 24.9405 228.37 25.1565 229.162C25.3785 229.954 25.4895 230.8 25.4895 231.7C25.4895 232.6 25.3785 233.446 25.1565 234.238C24.9405 235.024 24.6255 235.717 24.2115 236.317C23.7975 236.917 23.2935 237.388 22.6995 237.73C22.1055 238.066 21.4335 238.234 20.6835 238.234ZM20.6835 236.974C21.4755 236.974 22.1385 236.731 22.6725 236.245C23.2125 235.759 23.6175 235.117 23.8875 234.319C24.1575 233.515 24.2925 232.642 24.2925 231.7C24.2925 230.704 24.1515 229.81 23.8695 229.018C23.5935 228.22 23.1855 227.59 22.6455 227.128C22.1115 226.66 21.4575 226.426 20.6835 226.426C20.0715 226.426 19.5375 226.567 19.0815 226.849C18.6255 227.131 18.2475 227.518 17.9475 228.01C17.6475 228.502 17.4225 229.066 17.2725 229.702C17.1225 230.332 17.0475 230.998 17.0475 231.7C17.0475 232.648 17.1855 233.524 17.4615 234.328C17.7375 235.126 18.1455 235.768 18.6855 236.254C19.2255 236.734 19.8915 236.974 20.6835 236.974Z" fill="#535662"/>
<path d="M4.761 278.234C3.993 278.234 3.294 278.048 2.664 277.676C2.04 277.304 1.545 276.806 1.179 276.182C0.813 275.552 0.63 274.862 0.63 274.112H1.89C1.89 274.634 2.019 275.114 2.277 275.552C2.535 275.984 2.88 276.329 3.312 276.587C3.75 276.845 4.233 276.974 4.761 276.974C5.283 276.974 5.76 276.845 6.192 276.587C6.624 276.329 6.969 275.984 7.227 275.552C7.491 275.114 7.623 274.634 7.623 274.112C7.623 273.584 7.497 273.104 7.245 272.672C6.999 272.234 6.648 271.886 6.192 271.628C5.742 271.364 5.205 271.232 4.581 271.232H1.521L2.709 265.4H8.604V266.66H3.726L3.069 269.972L4.536 269.981C5.394 269.993 6.147 270.176 6.795 270.53C7.449 270.884 7.959 271.37 8.325 271.988C8.697 272.6 8.883 273.308 8.883 274.112C8.883 274.676 8.775 275.207 8.559 275.705C8.349 276.203 8.052 276.644 7.668 277.028C7.29 277.406 6.852 277.703 6.354 277.919C5.862 278.129 5.331 278.234 4.761 278.234ZM14.7949 278.234C14.0389 278.234 13.3639 278.066 12.7699 277.73C12.1759 277.388 11.6689 276.917 11.2489 276.317C10.8289 275.717 10.5079 275.024 10.2859 274.238C10.0699 273.446 9.96188 272.6 9.96188 271.7C9.96188 270.8 10.0699 269.954 10.2859 269.162C10.5079 268.37 10.8289 267.677 11.2489 267.083C11.6689 266.483 12.1759 266.015 12.7699 265.679C13.3639 265.337 14.0389 265.166 14.7949 265.166C15.5449 265.166 16.2169 265.337 16.8109 265.679C17.4049 266.015 17.9089 266.483 18.3229 267.083C18.7369 267.677 19.0519 268.37 19.2679 269.162C19.4899 269.954 19.6009 270.8 19.6009 271.7C19.6009 272.6 19.4899 273.446 19.2679 274.238C19.0519 275.024 18.7369 275.717 18.3229 276.317C17.9089 276.917 17.4049 277.388 16.8109 277.73C16.2169 278.066 15.5449 278.234 14.7949 278.234ZM14.7949 276.974C15.5869 276.974 16.2499 276.731 16.7839 276.245C17.3239 275.759 17.7289 275.117 17.9989 274.319C18.2689 273.515 18.4039 272.642 18.4039 271.7C18.4039 270.704 18.2629 269.81 17.9809 269.018C17.7049 268.22 17.2969 267.59 16.7569 267.128C16.2229 266.66 15.5689 266.426 14.7949 266.426C14.1829 266.426 13.6489 266.567 13.1929 266.849C12.7369 267.131 12.3589 267.518 12.0589 268.01C11.7589 268.502 11.5339 269.066 11.3839 269.702C11.2339 270.332 11.1589 270.998 11.1589 271.7C11.1589 272.648 11.2969 273.524 11.5729 274.328C11.8489 275.126 12.2569 275.768 12.7969 276.254C13.3369 276.734 14.0029 276.974 14.7949 276.974Z" fill="#535662"/>
<path d="M5.373 313.234C4.617 313.234 3.942 313.066 3.348 312.73C2.754 312.388 2.247 311.917 1.827 311.317C1.407 310.717 1.086 310.024 0.864 309.238C0.648 308.446 0.54 307.6 0.54 306.7C0.54 305.8 0.648 304.954 0.864 304.162C1.086 303.37 1.407 302.677 1.827 302.083C2.247 301.483 2.754 301.015 3.348 300.679C3.942 300.337 4.617 300.166 5.373 300.166C6.123 300.166 6.795 300.337 7.389 300.679C7.983 301.015 8.487 301.483 8.901 302.083C9.315 302.677 9.63 303.37 9.846 304.162C10.068 304.954 10.179 305.8 10.179 306.7C10.179 307.6 10.068 308.446 9.846 309.238C9.63 310.024 9.315 310.717 8.901 311.317C8.487 311.917 7.983 312.388 7.389 312.73C6.795 313.066 6.123 313.234 5.373 313.234ZM5.373 311.974C6.165 311.974 6.828 311.731 7.362 311.245C7.902 310.759 8.307 310.117 8.577 309.319C8.847 308.515 8.982 307.642 8.982 306.7C8.982 305.704 8.841 304.81 8.559 304.018C8.283 303.22 7.875 302.59 7.335 302.128C6.801 301.66 6.147 301.426 5.373 301.426C4.761 301.426 4.227 301.567 3.771 301.849C3.315 302.131 2.937 302.518 2.637 303.01C2.337 303.502 2.112 304.066 1.962 304.702C1.812 305.332 1.737 305.998 1.737 306.7C1.737 307.648 1.875 308.524 2.151 309.328C2.427 310.126 2.835 310.768 3.375 311.254C3.915 311.734 4.581 311.974 5.373 311.974Z" fill="#535662"/>
<rect x="508" y="67" width="1.00001" height="467" transform="rotate(90 508 67)" fill="#535662" fill-opacity="0.08"/>
<rect x="508" y="26" width="1.00001" height="467" transform="rotate(90 508 26)" fill="#535662" fill-opacity="0.08"/>
<rect x="508" y="108" width="1.00001" height="467" transform="rotate(90 508 108)" fill="#535662" fill-opacity="0.08"/>
<rect x="508" y="149" width="1.00001" height="467" transform="rotate(90 508 149)" fill="#535662" fill-opacity="0.08"/>
<rect x="508" y="190" width="1.00001" height="467" transform="rotate(90 508 190)" fill="#535662" fill-opacity="0.08"/>
<rect x="508" y="231" width="1.00001" height="467" transform="rotate(90 508 231)" fill="#535662" fill-opacity="0.08"/>
<rect x="508" y="272" width="1.00001" height="467" transform="rotate(90 508 272)" fill="#535662" fill-opacity="0.08"/>
<g filter="url(#filter0_d_790_3977)">
<path d="M223.781 74.4207C223.781 68.5193 228.565 63.7354 234.467 63.7354H273.539C279.441 63.7354 284.225 68.5193 284.225 74.4207V303.265H223.781V74.4207Z" fill="#7994FD"/>
<path d="M234.467 64.1807H273.539C279.195 64.1807 283.779 68.7654 283.779 74.4209V302.819H224.227V74.4209C224.227 68.7654 228.811 64.1807 234.467 64.1807Z" stroke="#4268FF" stroke-width="0.890444"/>
</g>
<path d="M303.57 109.148C303.57 103.247 308.354 98.4629 314.256 98.4629H354.537C360.439 98.4629 365.222 103.247 365.222 109.148V303.265H303.57V109.148Z" fill="#B0C0FC"/>
<path d="M314.256 98.9082H354.537C360.193 98.9082 364.777 103.493 364.777 109.148V302.819H304.016V109.148C304.016 103.493 308.6 98.9082 314.256 98.9082Z" stroke="#0C1021" stroke-opacity="0.25" stroke-width="0.890444"/>
<path d="M142.789 98.4622C142.789 92.5608 147.573 87.7769 153.474 87.7769H193.756C199.657 87.7769 204.441 92.5608 204.441 98.4622V303.264H142.789V98.4622Z" fill="#B0C0FC"/>
<path d="M153.475 88.2222H193.756C199.411 88.2222 203.996 92.807 203.996 98.4624V302.819H143.234V98.4624C143.234 92.807 147.819 88.2222 153.475 88.2222Z" stroke="#0C1021" stroke-opacity="0.25" stroke-width="0.890444"/>
<path d="M63 114.491C63 108.59 67.784 103.806 73.6853 103.806H113.967C119.868 103.806 124.652 108.59 124.652 114.491V303.265H63V114.491Z" fill="#B0C0FC"/>
<path d="M73.6855 104.251H113.967C119.622 104.251 124.207 108.836 124.207 114.491V302.82H63.4453V114.491C63.4453 108.836 68.0301 104.251 73.6855 104.251Z" stroke="#0C1021" stroke-opacity="0.25" stroke-width="0.890444"/>
<path d="M383.352 91.3391C383.352 85.4378 388.136 80.6538 394.037 80.6538H434.318C440.22 80.6538 445.004 85.4378 445.004 91.3391V303.265H383.352V91.3391Z" fill="#B0C0FC"/>
<path d="M394.037 81.0991H434.318C439.974 81.0991 444.559 85.6839 444.559 91.3394V302.82H383.797V91.3394C383.797 85.6839 388.382 81.0991 394.037 81.0991Z" stroke="#0C1021" stroke-opacity="0.25" stroke-width="0.890444"/>
<rect y="149" width="508" height="170" fill="url(#paint0_linear_790_3977)"/>
<g filter="url(#filter1_d_790_3977)">
<rect x="259" y="26" width="115" height="36" rx="18" fill="#0C1021" shape-rendering="crispEdges"/>
<rect x="259.5" y="26.5" width="114" height="35" rx="17.5" stroke="#0C1021" stroke-opacity="0.1" shape-rendering="crispEdges"/>
<path d="M280.89 37H282.63L287.73 51H286.24L285.15 48H278.38L277.29 51H275.8L280.89 37ZM278.89 46.6H284.63L281.76 38.72L278.89 46.6ZM296.689 41H298.089V51.37C298.089 52.01 297.949 52.61 297.669 53.17C297.396 53.73 297.022 54.22 296.549 54.64C296.082 55.0667 295.549 55.4 294.949 55.64C294.349 55.88 293.726 56 293.079 56C292.386 56 291.716 55.84 291.069 55.52C290.422 55.2067 289.859 54.7867 289.379 54.26C288.906 53.7333 288.569 53.15 288.369 52.51L289.659 51.92C289.786 52.42 290.022 52.87 290.369 53.27C290.722 53.6767 291.136 53.9967 291.609 54.23C292.089 54.47 292.579 54.59 293.079 54.59C293.539 54.59 293.982 54.5033 294.409 54.33C294.842 54.1633 295.229 53.9333 295.569 53.64C295.916 53.3467 296.189 53.0033 296.389 52.61C296.589 52.2233 296.689 51.81 296.689 51.37V49.16C296.342 49.7867 295.872 50.2933 295.279 50.68C294.692 51.0667 294.009 51.26 293.229 51.26C292.529 51.26 291.869 51.1233 291.249 50.85C290.636 50.5767 290.096 50.2 289.629 49.72C289.162 49.2333 288.796 48.6733 288.529 48.04C288.269 47.4067 288.139 46.7267 288.139 46C288.139 45.2733 288.269 44.5933 288.529 43.96C288.796 43.32 289.162 42.76 289.629 42.28C290.096 41.7933 290.636 41.4133 291.249 41.14C291.869 40.8667 292.529 40.73 293.229 40.73C294.009 40.73 294.692 40.9233 295.279 41.31C295.872 41.69 296.342 42.1967 296.689 42.83V41ZM293.239 49.9C293.932 49.9 294.529 49.72 295.029 49.36C295.536 49 295.926 48.5233 296.199 47.93C296.472 47.3367 296.609 46.6933 296.609 46C296.609 45.2867 296.469 44.6367 296.189 44.05C295.916 43.4567 295.526 42.9833 295.019 42.63C294.512 42.27 293.919 42.09 293.239 42.09C292.559 42.09 291.939 42.2667 291.379 42.62C290.826 42.9667 290.386 43.4367 290.059 44.03C289.732 44.6233 289.569 45.28 289.569 46C289.569 46.72 289.736 47.3767 290.069 47.97C290.402 48.5567 290.846 49.0267 291.399 49.38C291.959 49.7267 292.572 49.9 293.239 49.9ZM304.799 51.26C303.879 51.26 303.039 51.0233 302.279 50.55C301.526 50.0767 300.923 49.4433 300.469 48.65C300.023 47.85 299.799 46.9667 299.799 46C299.799 45.2667 299.929 44.5833 300.189 43.95C300.449 43.31 300.806 42.75 301.259 42.27C301.719 41.7833 302.253 41.4033 302.859 41.13C303.466 40.8567 304.113 40.72 304.799 40.72C305.539 40.72 306.219 40.8667 306.839 41.16C307.466 41.4533 308.003 41.8633 308.449 42.39C308.903 42.9167 309.243 43.5333 309.469 44.24C309.703 44.9467 309.799 45.71 309.759 46.53H301.279C301.359 47.1633 301.559 47.73 301.879 48.23C302.206 48.73 302.619 49.1267 303.119 49.42C303.626 49.7067 304.186 49.8533 304.799 49.86C305.466 49.86 306.066 49.6867 306.599 49.34C307.139 48.9933 307.573 48.5167 307.899 47.91L309.319 48.24C308.919 49.1267 308.316 49.8533 307.509 50.42C306.703 50.98 305.799 51.26 304.799 51.26ZM301.239 45.4H308.349C308.303 44.78 308.113 44.2133 307.779 43.7C307.453 43.18 307.029 42.7667 306.509 42.46C305.989 42.1467 305.419 41.99 304.799 41.99C304.179 41.99 303.613 42.1433 303.099 42.45C302.586 42.75 302.166 43.16 301.839 43.68C301.513 44.1933 301.313 44.7667 301.239 45.4ZM320.193 44.81V51H318.793V45.09C318.793 44.5433 318.66 44.0467 318.393 43.6C318.127 43.1533 317.77 42.7967 317.323 42.53C316.877 42.2633 316.38 42.13 315.833 42.13C315.293 42.13 314.797 42.2633 314.343 42.53C313.897 42.7967 313.54 43.1533 313.273 43.6C313.007 44.0467 312.873 44.5433 312.873 45.09V51H311.473V41H312.873V42.38C313.227 41.8733 313.687 41.47 314.253 41.17C314.82 40.87 315.437 40.72 316.103 40.72C316.857 40.72 317.543 40.9033 318.163 41.27C318.783 41.6367 319.277 42.13 319.643 42.75C320.01 43.37 320.193 44.0567 320.193 44.81ZM327.306 42.4H324.916L324.906 51H323.506L323.516 42.4H321.706V41H323.516L323.506 37.86H324.906L324.916 41H327.306V42.4ZM346.645 41.71H344.625L343.395 46.27H345.425L345.065 47.63H343.045L342.135 51H340.735L341.645 47.63H336.925L336.015 51H334.615L335.525 47.63H333.495L333.865 46.27H335.875L337.105 41.71H335.075L335.445 40.36H337.465L338.365 37H339.765L338.865 40.36H343.595L344.485 37H345.885L344.995 40.36H347.005L346.645 41.71ZM341.995 46.27L343.225 41.71H338.505L337.275 46.27H341.995ZM352.723 51.26C351.869 51.26 351.119 51.0733 350.473 50.7C349.826 50.32 349.319 49.8133 348.953 49.18C348.593 48.5467 348.413 47.8467 348.413 47.08H349.813C349.813 47.5867 349.929 48.0533 350.163 48.48C350.403 48.9 350.739 49.2367 351.173 49.49C351.606 49.7367 352.123 49.86 352.723 49.86C353.229 49.86 353.703 49.7367 354.143 49.49C354.589 49.2367 354.949 48.9 355.223 48.48C355.503 48.0533 355.643 47.5867 355.643 47.08C355.643 46.4467 355.483 45.92 355.163 45.5C354.843 45.0733 354.403 44.7567 353.843 44.55C353.283 44.3367 352.643 44.23 351.923 44.23V43.07C352.916 43.07 353.713 42.86 354.313 42.44C354.919 42.0133 355.223 41.39 355.223 40.57C355.223 40.1233 355.099 39.7167 354.853 39.35C354.613 38.9833 354.296 38.69 353.903 38.47C353.516 38.2433 353.099 38.13 352.653 38.13C352.206 38.13 351.776 38.2433 351.363 38.47C350.956 38.69 350.623 38.9833 350.363 39.35C350.109 39.7167 349.983 40.1233 349.983 40.57H348.583C348.583 40.0433 348.693 39.55 348.913 39.09C349.133 38.6233 349.433 38.2133 349.813 37.86C350.193 37.5067 350.626 37.23 351.113 37.03C351.599 36.83 352.109 36.73 352.643 36.73C353.343 36.73 353.993 36.9033 354.593 37.25C355.199 37.5967 355.689 38.06 356.063 38.64C356.436 39.22 356.623 39.8633 356.623 40.57C356.623 41.2567 356.446 41.8767 356.093 42.43C355.739 42.9833 355.263 43.3733 354.663 43.6C355.183 43.7733 355.619 44.0367 355.973 44.39C356.326 44.7367 356.593 45.14 356.773 45.6C356.953 46.06 357.043 46.5533 357.043 47.08C357.043 47.8467 356.843 48.5467 356.443 49.18C356.043 49.8133 355.513 50.32 354.853 50.7C354.199 51.0733 353.489 51.26 352.723 51.26Z" fill="white"/>
</g>
<g filter="url(#filter2_d_790_3977)">
<circle cx="255" cy="62" r="8" fill="#88A0FD"/>
<circle cx="255" cy="62" r="7" stroke="#4268FF" stroke-width="2"/>
</g>
<path d="M255.281 67.7993C255.142 65.9383 257.074 64.5751 258.661 65.5776L258.813 65.6821L258.814 65.6831L259.08 65.8804L259.849 66.4565C263.675 69.3601 267.275 72.6133 270.61 76.1821C271.36 76.9849 271.398 78.037 271.028 78.8286C270.669 79.5976 269.84 80.2663 268.774 80.1392V80.1382L264.028 79.5747C264.023 79.5741 264.02 79.5752 264.018 79.5757C264.015 79.5763 264.01 79.5777 264.004 79.5815C263.99 79.5899 263.972 79.6081 263.959 79.6392L263.958 79.6401L262.039 84.3374C261.641 85.3113 260.735 85.8151 259.828 85.7437C258.918 85.672 258.104 85.0315 257.85 84.0054C256.561 78.8172 255.709 73.5078 255.307 68.146L255.281 67.7993Z" fill="white" stroke="#B1C0FF" stroke-width="2"/>
</g>
<defs>
<filter id="filter0_d_790_3977" x="210.425" y="50.3787" width="87.1586" height="266.243" filterUnits="userSpaceOnUse" color-interpolation-filters="sRGB">
<feFlood flood-opacity="0" result="BackgroundImageFix"/>
<feColorMatrix in="SourceAlpha" type="matrix" values="0 0 0 0 0 0 0 0 0 0 0 0 0 0 0 0 0 0 127 0" result="hardAlpha"/>
<feOffset/>
<feGaussianBlur stdDeviation="6.67833"/>
<feComposite in2="hardAlpha" operator="out"/>
<feColorMatrix type="matrix" values="0 0 0 0 0.259615 0 0 0 0 0.407692 0 0 0 0 1 0 0 0 0.2 0"/>
<feBlend mode="normal" in2="BackgroundImageFix" result="effect1_dropShadow_790_3977"/>
<feBlend mode="normal" in="SourceGraphic" in2="effect1_dropShadow_790_3977" result="shape"/>
</filter>
<filter id="filter1_d_790_3977" x="255" y="26" width="123" height="44" filterUnits="userSpaceOnUse" color-interpolation-filters="sRGB">
<feFlood flood-opacity="0" result="BackgroundImageFix"/>
<feColorMatrix in="SourceAlpha" type="matrix" values="0 0 0 0 0 0 0 0 0 0 0 0 0 0 0 0 0 0 127 0" result="hardAlpha"/>
<feOffset dy="4"/>
<feGaussianBlur stdDeviation="2"/>
<feComposite in2="hardAlpha" operator="out"/>
<feColorMatrix type="matrix" values="0 0 0 0 0.259615 0 0 0 0 0.407692 0 0 0 0 1 0 0 0 0.15 0"/>
<feBlend mode="normal" in2="BackgroundImageFix" result="effect1_dropShadow_790_3977"/>
<feBlend mode="normal" in="SourceGraphic" in2="effect1_dropShadow_790_3977" result="shape"/>
</filter>
<filter id="filter2_d_790_3977" x="243" y="54" width="24" height="24" filterUnits="userSpaceOnUse" color-interpolation-filters="sRGB">
<feFlood flood-opacity="0" result="BackgroundImageFix"/>
<feColorMatrix in="SourceAlpha" type="matrix" values="0 0 0 0 0 0 0 0 0 0 0 0 0 0 0 0 0 0 127 0" result="hardAlpha"/>
<feOffset dy="4"/>
<feGaussianBlur stdDeviation="2"/>
<feComposite in2="hardAlpha" operator="out"/>
<feColorMatrix type="matrix" values="0 0 0 0 0.259615 0 0 0 0 0.407692 0 0 0 0 1 0 0 0 0.25 0"/>
<feBlend mode="normal" in2="BackgroundImageFix" result="effect1_dropShadow_790_3977"/>
<feBlend mode="normal" in="SourceGraphic" in2="effect1_dropShadow_790_3977" result="shape"/>
</filter>
<linearGradient id="paint0_linear_790_3977" x1="254" y1="149" x2="254" y2="319" gradientUnits="userSpaceOnUse">
<stop stop-color="white" stop-opacity="0"/>
<stop offset="1" stop-color="white"/>
</linearGradient>
<clipPath id="clip0_790_3977">
<rect width="458" height="318" fill="white"/>
</clipPath>
</defs>
</svg>
