<svg width="458" height="318" viewBox="0 0 458 318" fill="none" xmlns="http://www.w3.org/2000/svg">
<g clip-path="url(#clip0_790_4213)">
<g filter="url(#filter0_d_790_4213)">
<circle cx="229.5" cy="159.5" r="117.5" stroke="#F1F1F1" stroke-width="20" shape-rendering="crispEdges"/>
</g>
<g filter="url(#filter1_d_790_4213)">
<circle cx="229.5" cy="159.5" r="127.5" stroke="#595959" stroke-opacity="0.1" shape-rendering="crispEdges"/>
</g>
<g filter="url(#filter2_i_790_4213)">
<mask id="path-3-inside-1_790_4213" fill="white">
<path d="M357 159.5C357 131.099 347.517 103.51 330.055 81.1108C312.594 58.7114 288.153 42.7836 260.61 35.8536C233.067 28.9237 203.999 31.3884 178.016 42.8569C152.033 54.3254 130.623 74.141 117.182 99.1607C103.741 124.18 99.0382 152.971 103.82 180.967C108.602 208.963 122.595 234.561 143.579 253.701C164.563 272.84 191.336 284.426 219.653 286.619C247.969 288.813 276.208 281.489 299.889 265.809L289.487 250.099C269.305 263.462 245.24 269.703 221.108 267.834C196.976 265.964 174.159 256.091 156.276 239.78C138.393 223.469 126.468 201.654 122.393 177.795C118.318 153.936 122.325 129.4 133.78 108.078C145.235 86.7552 163.481 69.868 185.624 60.0943C207.767 50.3206 232.54 48.2201 256.013 54.1259C279.485 60.0318 300.314 73.6058 315.195 92.6951C330.077 111.784 338.158 135.296 338.158 159.5H357Z"/>
</mask>
<path d="M357 159.5C357 131.099 347.517 103.51 330.055 81.1108C312.594 58.7114 288.153 42.7836 260.61 35.8536C233.067 28.9237 203.999 31.3884 178.016 42.8569C152.033 54.3254 130.623 74.141 117.182 99.1607C103.741 124.18 99.0382 152.971 103.82 180.967C108.602 208.963 122.595 234.561 143.579 253.701C164.563 272.84 191.336 284.426 219.653 286.619C247.969 288.813 276.208 281.489 299.889 265.809L289.487 250.099C269.305 263.462 245.24 269.703 221.108 267.834C196.976 265.964 174.159 256.091 156.276 239.78C138.393 223.469 126.468 201.654 122.393 177.795C118.318 153.936 122.325 129.4 133.78 108.078C145.235 86.7552 163.481 69.868 185.624 60.0943C207.767 50.3206 232.54 48.2201 256.013 54.1259C279.485 60.0318 300.314 73.6058 315.195 92.6951C330.077 111.784 338.158 135.296 338.158 159.5H357Z" stroke="#4268FF" stroke-width="40" mask="url(#path-3-inside-1_790_4213)"/>
</g>
<g filter="url(#filter3_d_790_4213)">
<rect x="56" y="43" width="73" height="41" rx="20.5" fill="#0C1021" shape-rendering="crispEdges"/>
<rect x="56.5" y="43.5" width="72" height="40" rx="20" stroke="#0C1021" stroke-opacity="0.1" shape-rendering="crispEdges"/>
<path d="M78.312 72.312C77.328 72.312 76.428 72.088 75.612 71.64C74.804 71.192 74.16 70.592 73.68 69.84C73.2 69.088 72.96 68.252 72.96 67.332C72.96 66.436 73.208 65.62 73.704 64.884C74.2 64.14 74.844 63.564 75.636 63.156C74.98 62.78 74.44 62.268 74.016 61.62C73.592 60.964 73.38 60.244 73.38 59.46C73.38 58.62 73.6 57.856 74.04 57.168C74.488 56.472 75.084 55.92 75.828 55.512C76.58 55.096 77.408 54.888 78.312 54.888C79.216 54.888 80.04 55.096 80.784 55.512C81.536 55.92 82.132 56.472 82.572 57.168C83.02 57.856 83.244 58.62 83.244 59.46C83.244 60.244 83.032 60.964 82.608 61.62C82.192 62.268 81.652 62.78 80.988 63.156C81.796 63.564 82.444 64.14 82.932 64.884C83.428 65.62 83.676 66.436 83.676 67.332C83.676 68.244 83.432 69.08 82.944 69.84C82.464 70.592 81.82 71.192 81.012 71.64C80.204 72.088 79.304 72.312 78.312 72.312ZM78.312 70.632C78.976 70.632 79.576 70.484 80.112 70.188C80.648 69.892 81.076 69.496 81.396 69C81.716 68.496 81.876 67.94 81.876 67.332C81.876 66.724 81.716 66.172 81.396 65.676C81.076 65.18 80.648 64.784 80.112 64.488C79.576 64.192 78.976 64.044 78.312 64.044C77.664 64.044 77.068 64.192 76.524 64.488C75.988 64.784 75.556 65.18 75.228 65.676C74.908 66.172 74.748 66.724 74.748 67.332C74.748 67.94 74.908 68.496 75.228 69C75.556 69.496 75.988 69.892 76.524 70.188C77.068 70.484 77.664 70.632 78.312 70.632ZM78.312 62.364C78.896 62.364 79.424 62.236 79.896 61.98C80.368 61.716 80.744 61.364 81.024 60.924C81.312 60.484 81.456 59.996 81.456 59.46C81.456 58.924 81.312 58.44 81.024 58.008C80.744 57.568 80.368 57.22 79.896 56.964C79.424 56.7 78.896 56.568 78.312 56.568C77.736 56.568 77.208 56.7 76.728 56.964C76.256 57.22 75.876 57.568 75.588 58.008C75.308 58.44 75.168 58.924 75.168 59.46C75.168 59.996 75.308 60.484 75.588 60.924C75.876 61.364 76.256 61.716 76.728 61.98C77.208 62.236 77.736 62.364 78.312 62.364ZM86.3248 72L95.0368 56.88H85.1128V55.2H96.9808V56.88L88.2448 72H86.3248ZM99.3131 72L109.009 55.2H110.953L101.257 72H99.3131ZM101.281 61.764C100.753 61.764 100.273 61.636 99.8411 61.38C99.4091 61.124 99.0611 60.78 98.7971 60.348C98.5411 59.908 98.4131 59.424 98.4131 58.896C98.4131 58.352 98.5411 57.864 98.7971 57.432C99.0611 57 99.4091 56.656 99.8411 56.4C100.281 56.144 100.761 56.016 101.281 56.016C101.809 56.016 102.289 56.148 102.721 56.412C103.153 56.668 103.497 57.012 103.753 57.444C104.017 57.876 104.149 58.36 104.149 58.896C104.149 59.432 104.017 59.916 103.753 60.348C103.497 60.78 103.149 61.124 102.709 61.38C102.277 61.636 101.801 61.764 101.281 61.764ZM101.281 60.48C101.729 60.48 102.105 60.328 102.409 60.024C102.713 59.712 102.865 59.336 102.865 58.896C102.865 58.448 102.713 58.072 102.409 57.768C102.105 57.456 101.729 57.3 101.281 57.3C100.841 57.3 100.465 57.456 100.153 57.768C99.8491 58.072 99.6971 58.448 99.6971 58.896C99.6971 59.336 99.8491 59.712 100.153 60.024C100.465 60.328 100.841 60.48 101.281 60.48ZM109.009 71.196C108.481 71.196 107.997 71.064 107.557 70.8C107.125 70.528 106.777 70.176 106.513 69.744C106.257 69.304 106.129 68.828 106.129 68.316C106.129 67.78 106.261 67.296 106.525 66.864C106.789 66.424 107.137 66.076 107.569 65.82C108.009 65.564 108.489 65.436 109.009 65.436C109.545 65.436 110.029 65.568 110.461 65.832C110.893 66.096 111.237 66.448 111.493 66.888C111.749 67.32 111.877 67.796 111.877 68.316C111.877 68.844 111.749 69.328 111.493 69.768C111.237 70.2 110.889 70.548 110.449 70.812C110.017 71.068 109.537 71.196 109.009 71.196ZM109.009 69.912C109.441 69.912 109.813 69.756 110.125 69.444C110.437 69.132 110.593 68.756 110.593 68.316C110.593 67.876 110.437 67.5 110.125 67.188C109.813 66.876 109.441 66.72 109.009 66.72C108.569 66.72 108.189 66.876 107.869 67.188C107.557 67.5 107.401 67.876 107.401 68.316C107.401 68.756 107.557 69.132 107.869 69.444C108.189 69.756 108.569 69.912 109.009 69.912Z" fill="white"/>
</g>
<g filter="url(#filter4_d_790_4213)">
<circle cx="141" cy="66" r="8" fill="#4268FF"/>
<circle cx="141" cy="66" r="7" stroke="white" stroke-width="2"/>
</g>
<path d="M155.883 79.5459C155.743 77.6849 157.675 76.3217 159.263 77.3242L159.415 77.4287L159.416 77.4297L159.682 77.627L160.45 78.2031C164.276 81.1067 167.877 84.3599 171.212 87.9287C171.962 88.7315 172 89.7836 171.63 90.5752C171.27 91.3442 170.442 92.0129 169.376 91.8857V91.8848L164.63 91.3213C164.625 91.3207 164.621 91.3217 164.619 91.3223C164.616 91.3229 164.612 91.3243 164.605 91.3281C164.592 91.3365 164.573 91.3547 164.561 91.3857L164.56 91.3867L162.641 96.084C162.243 97.0579 161.337 97.5617 160.43 97.4902C159.52 97.4185 158.706 96.778 158.451 95.752C157.163 90.5638 156.311 85.2543 155.908 79.8926L155.883 79.5459Z" fill="white" stroke="#B1C0FF" stroke-width="2"/>
</g>
<defs>
<filter id="filter0_d_790_4213" x="52" y="-18" width="355" height="355" filterUnits="userSpaceOnUse" color-interpolation-filters="sRGB">
<feFlood flood-opacity="0" result="BackgroundImageFix"/>
<feColorMatrix in="SourceAlpha" type="matrix" values="0 0 0 0 0 0 0 0 0 0 0 0 0 0 0 0 0 0 127 0" result="hardAlpha"/>
<feOffset/>
<feGaussianBlur stdDeviation="25"/>
<feComposite in2="hardAlpha" operator="out"/>
<feColorMatrix type="matrix" values="0 0 0 0 0.0468057 0 0 0 0 0.0634939 0 0 0 0 0.129808 0 0 0 0.1 0"/>
<feBlend mode="normal" in2="BackgroundImageFix" result="effect1_dropShadow_790_4213"/>
<feBlend mode="normal" in="SourceGraphic" in2="effect1_dropShadow_790_4213" result="shape"/>
</filter>
<filter id="filter1_d_790_4213" x="51.5" y="-18.5" width="356" height="356" filterUnits="userSpaceOnUse" color-interpolation-filters="sRGB">
<feFlood flood-opacity="0" result="BackgroundImageFix"/>
<feColorMatrix in="SourceAlpha" type="matrix" values="0 0 0 0 0 0 0 0 0 0 0 0 0 0 0 0 0 0 127 0" result="hardAlpha"/>
<feOffset/>
<feGaussianBlur stdDeviation="25"/>
<feComposite in2="hardAlpha" operator="out"/>
<feColorMatrix type="matrix" values="0 0 0 0 0.0468057 0 0 0 0 0.0634939 0 0 0 0 0.129808 0 0 0 0.1 0"/>
<feBlend mode="normal" in2="BackgroundImageFix" result="effect1_dropShadow_790_4213"/>
<feBlend mode="normal" in="SourceGraphic" in2="effect1_dropShadow_790_4213" result="shape"/>
</filter>
<filter id="filter2_i_790_4213" x="102" y="32" width="255" height="259" filterUnits="userSpaceOnUse" color-interpolation-filters="sRGB">
<feFlood flood-opacity="0" result="BackgroundImageFix"/>
<feBlend mode="normal" in="SourceGraphic" in2="BackgroundImageFix" result="shape"/>
<feColorMatrix in="SourceAlpha" type="matrix" values="0 0 0 0 0 0 0 0 0 0 0 0 0 0 0 0 0 0 127 0" result="hardAlpha"/>
<feOffset dy="4"/>
<feGaussianBlur stdDeviation="2"/>
<feComposite in2="hardAlpha" operator="arithmetic" k2="-1" k3="1"/>
<feColorMatrix type="matrix" values="0 0 0 0 0 0 0 0 0 0 0 0 0 0 0 0 0 0 0.25 0"/>
<feBlend mode="normal" in2="shape" result="effect1_innerShadow_790_4213"/>
</filter>
<filter id="filter3_d_790_4213" x="52" y="43" width="81" height="49" filterUnits="userSpaceOnUse" color-interpolation-filters="sRGB">
<feFlood flood-opacity="0" result="BackgroundImageFix"/>
<feColorMatrix in="SourceAlpha" type="matrix" values="0 0 0 0 0 0 0 0 0 0 0 0 0 0 0 0 0 0 127 0" result="hardAlpha"/>
<feOffset dy="4"/>
<feGaussianBlur stdDeviation="2"/>
<feComposite in2="hardAlpha" operator="out"/>
<feColorMatrix type="matrix" values="0 0 0 0 0.259615 0 0 0 0 0.407692 0 0 0 0 1 0 0 0 0.15 0"/>
<feBlend mode="normal" in2="BackgroundImageFix" result="effect1_dropShadow_790_4213"/>
<feBlend mode="normal" in="SourceGraphic" in2="effect1_dropShadow_790_4213" result="shape"/>
</filter>
<filter id="filter4_d_790_4213" x="129" y="58" width="24" height="24" filterUnits="userSpaceOnUse" color-interpolation-filters="sRGB">
<feFlood flood-opacity="0" result="BackgroundImageFix"/>
<feColorMatrix in="SourceAlpha" type="matrix" values="0 0 0 0 0 0 0 0 0 0 0 0 0 0 0 0 0 0 127 0" result="hardAlpha"/>
<feOffset dy="4"/>
<feGaussianBlur stdDeviation="2"/>
<feComposite in2="hardAlpha" operator="out"/>
<feColorMatrix type="matrix" values="0 0 0 0 0.259615 0 0 0 0 0.407692 0 0 0 0 1 0 0 0 0.25 0"/>
<feBlend mode="normal" in2="BackgroundImageFix" result="effect1_dropShadow_790_4213"/>
<feBlend mode="normal" in="SourceGraphic" in2="effect1_dropShadow_790_4213" result="shape"/>
</filter>
<clipPath id="clip0_790_4213">
<rect width="458" height="318" fill="white"/>
</clipPath>
</defs>
</svg>
