<svg width="458" height="319" viewBox="0 0 458 319" fill="none" xmlns="http://www.w3.org/2000/svg">
<g clip-path="url(#clip0_790_4023)">
<g filter="url(#filter0_d_790_4023)">
<rect x="13.6641" y="71.5" width="430" height="177" rx="24" fill="white" shape-rendering="crispEdges"/>
<rect x="14.1641" y="72" width="429" height="176" rx="23.5" stroke="#0C1021" stroke-opacity="0.05" shape-rendering="crispEdges"/>
<path d="M53.3441 122.76C52.3974 122.76 51.5074 122.573 50.6741 122.2C49.8407 121.82 49.1074 121.3 48.4741 120.64C47.8474 119.973 47.3541 119.2 46.9941 118.32C46.6407 117.44 46.4641 116.5 46.4641 115.5C46.4641 114.5 46.6407 113.56 46.9941 112.68C47.3541 111.8 47.8474 111.03 48.4741 110.37C49.1074 109.703 49.8407 109.183 50.6741 108.81C51.5074 108.43 52.3974 108.24 53.3441 108.24C54.4774 108.24 55.5207 108.503 56.4741 109.03C57.4274 109.557 58.2174 110.257 58.8441 111.13L57.6041 111.8C57.1107 111.14 56.4841 110.617 55.7241 110.23C54.9707 109.837 54.1774 109.64 53.3441 109.64C52.5774 109.64 51.8607 109.797 51.1941 110.11C50.5341 110.417 49.9541 110.84 49.4541 111.38C48.9541 111.92 48.5641 112.543 48.2841 113.25C48.0041 113.957 47.8641 114.707 47.8641 115.5C47.8641 116.307 48.0041 117.063 48.2841 117.77C48.5707 118.477 48.9641 119.1 49.4641 119.64C49.9707 120.18 50.5541 120.603 51.2141 120.91C51.8807 121.21 52.5907 121.36 53.3441 121.36C54.2107 121.36 55.0141 121.163 55.7541 120.77C56.5007 120.37 57.1174 119.85 57.6041 119.21L58.8441 119.88C58.2174 120.753 57.4274 121.453 56.4741 121.98C55.5207 122.5 54.4774 122.76 53.3441 122.76ZM68.5606 112.5H69.9606V122.5H68.5606L68.5106 120.64C68.184 121.273 67.7273 121.787 67.1406 122.18C66.554 122.567 65.854 122.76 65.0406 122.76C64.3073 122.76 63.6206 122.623 62.9806 122.35C62.3406 122.07 61.7773 121.687 61.2906 121.2C60.804 120.713 60.424 120.15 60.1506 119.51C59.8773 118.87 59.7406 118.183 59.7406 117.45C59.7406 116.73 59.874 116.053 60.1406 115.42C60.414 114.787 60.7873 114.23 61.2606 113.75C61.7406 113.27 62.294 112.897 62.9206 112.63C63.554 112.357 64.2306 112.22 64.9506 112.22C65.784 112.22 66.5106 112.42 67.1306 112.82C67.7506 113.213 68.244 113.73 68.6106 114.37L68.5606 112.5ZM65.0106 121.4C65.724 121.4 66.3373 121.227 66.8506 120.88C67.364 120.527 67.7573 120.053 68.0306 119.46C68.3106 118.867 68.4506 118.213 68.4506 117.5C68.4506 116.767 68.3106 116.107 68.0306 115.52C67.7506 114.927 67.354 114.457 66.8406 114.11C66.3273 113.763 65.7173 113.59 65.0106 113.59C64.304 113.59 63.6573 113.767 63.0706 114.12C62.4906 114.467 62.0273 114.937 61.6806 115.53C61.3406 116.123 61.1706 116.78 61.1706 117.5C61.1706 118.227 61.3473 118.887 61.7006 119.48C62.054 120.067 62.5206 120.533 63.1006 120.88C63.6873 121.227 64.324 121.4 65.0106 121.4ZM72.0984 122.5V107.5H73.4984V122.5H72.0984ZM75.907 122.5V107.5H77.307V122.5H75.907ZM91.0003 122.76C90.0536 122.76 89.1636 122.573 88.3303 122.2C87.497 121.82 86.7636 121.3 86.1303 120.64C85.5036 119.973 85.0103 119.2 84.6503 118.32C84.297 117.44 84.1203 116.5 84.1203 115.5C84.1203 114.5 84.297 113.56 84.6503 112.68C85.0103 111.8 85.5036 111.03 86.1303 110.37C86.7636 109.703 87.497 109.183 88.3303 108.81C89.1636 108.43 90.0536 108.24 91.0003 108.24C92.1336 108.24 93.177 108.503 94.1303 109.03C95.0836 109.557 95.8736 110.257 96.5003 111.13L95.2603 111.8C94.767 111.14 94.1403 110.617 93.3803 110.23C92.627 109.837 91.8336 109.64 91.0003 109.64C90.2336 109.64 89.517 109.797 88.8503 110.11C88.1903 110.417 87.6103 110.84 87.1103 111.38C86.6103 111.92 86.2203 112.543 85.9403 113.25C85.6603 113.957 85.5203 114.707 85.5203 115.5C85.5203 116.307 85.6603 117.063 85.9403 117.77C86.227 118.477 86.6203 119.1 87.1203 119.64C87.627 120.18 88.2103 120.603 88.8703 120.91C89.537 121.21 90.247 121.36 91.0003 121.36C91.867 121.36 92.6703 121.163 93.4103 120.77C94.157 120.37 94.7736 119.85 95.2603 119.21L96.5003 119.88C95.8736 120.753 95.0836 121.453 94.1303 121.98C93.177 122.5 92.1336 122.76 91.0003 122.76ZM102.397 122.76C101.477 122.76 100.637 122.523 99.8769 122.05C99.1235 121.577 98.5202 120.943 98.0669 120.15C97.6202 119.35 97.3969 118.467 97.3969 117.5C97.3969 116.767 97.5269 116.083 97.7869 115.45C98.0469 114.81 98.4035 114.25 98.8569 113.77C99.3169 113.283 99.8502 112.903 100.457 112.63C101.064 112.357 101.71 112.22 102.397 112.22C103.317 112.22 104.154 112.457 104.907 112.93C105.667 113.403 106.27 114.04 106.717 114.84C107.17 115.64 107.397 116.527 107.397 117.5C107.397 118.227 107.267 118.907 107.007 119.54C106.747 120.173 106.387 120.733 105.927 121.22C105.474 121.7 104.944 122.077 104.337 122.35C103.737 122.623 103.09 122.76 102.397 122.76ZM102.397 121.36C103.077 121.36 103.687 121.183 104.227 120.83C104.774 120.47 105.204 119.997 105.517 119.41C105.837 118.823 105.997 118.187 105.997 117.5C105.997 116.8 105.837 116.157 105.517 115.57C105.197 114.977 104.764 114.503 104.217 114.15C103.677 113.797 103.07 113.62 102.397 113.62C101.717 113.62 101.104 113.8 100.557 114.16C100.017 114.513 99.5869 114.983 99.2669 115.57C98.9535 116.157 98.7969 116.8 98.7969 117.5C98.7969 118.22 98.9602 118.873 99.2869 119.46C99.6135 120.04 100.05 120.503 100.597 120.85C101.144 121.19 101.744 121.36 102.397 121.36ZM109.091 122.5V112.5H110.491V113.88C110.851 113.373 111.311 112.97 111.871 112.67C112.431 112.37 113.044 112.22 113.711 112.22C114.464 112.22 115.154 112.407 115.781 112.78C116.407 113.147 116.897 113.637 117.251 114.25C117.604 113.637 118.091 113.147 118.711 112.78C119.331 112.407 120.017 112.22 120.771 112.22C121.524 112.22 122.211 112.403 122.831 112.77C123.451 113.137 123.944 113.63 124.311 114.25C124.677 114.87 124.861 115.557 124.861 116.31V122.5H123.461V116.62C123.461 116.087 123.331 115.593 123.071 115.14C122.811 114.687 122.461 114.323 122.021 114.05C121.587 113.77 121.104 113.63 120.571 113.63C120.037 113.63 119.551 113.76 119.111 114.02C118.677 114.273 118.331 114.627 118.071 115.08C117.811 115.527 117.681 116.04 117.681 116.62V122.5H116.281V116.62C116.281 116.04 116.151 115.527 115.891 115.08C115.631 114.627 115.281 114.273 114.841 114.02C114.401 113.76 113.914 113.63 113.381 113.63C112.854 113.63 112.371 113.77 111.931 114.05C111.491 114.323 111.141 114.687 110.881 115.14C110.621 115.593 110.491 116.087 110.491 116.62V122.5H109.091ZM128.264 127.5H126.864V112.5H128.264V114.37C128.611 113.737 129.084 113.223 129.684 112.83C130.284 112.437 130.997 112.24 131.824 112.24C132.551 112.24 133.231 112.377 133.864 112.65C134.504 112.923 135.064 113.303 135.544 113.79C136.024 114.27 136.401 114.827 136.674 115.46C136.947 116.093 137.084 116.773 137.084 117.5C137.084 118.227 136.947 118.91 136.674 119.55C136.401 120.19 136.024 120.753 135.544 121.24C135.064 121.72 134.504 122.097 133.864 122.37C133.231 122.643 132.551 122.78 131.824 122.78C130.997 122.78 130.284 122.583 129.684 122.19C129.084 121.797 128.611 121.283 128.264 120.65V127.5ZM131.814 113.6C131.114 113.6 130.504 113.777 129.984 114.13C129.471 114.477 129.074 114.943 128.794 115.53C128.514 116.117 128.374 116.773 128.374 117.5C128.374 118.213 128.511 118.867 128.784 119.46C129.064 120.053 129.461 120.527 129.974 120.88C130.494 121.233 131.107 121.41 131.814 121.41C132.507 121.41 133.144 121.237 133.724 120.89C134.311 120.543 134.781 120.077 135.134 119.49C135.487 118.897 135.664 118.233 135.664 117.5C135.664 116.787 135.491 116.137 135.144 115.55C134.797 114.957 134.334 114.483 133.754 114.13C133.174 113.777 132.527 113.6 131.814 113.6ZM138.7 122.5V107.5H140.1V122.5H138.7ZM146.83 122.76C145.91 122.76 145.07 122.523 144.31 122.05C143.557 121.577 142.954 120.943 142.5 120.15C142.054 119.35 141.83 118.467 141.83 117.5C141.83 116.767 141.96 116.083 142.22 115.45C142.48 114.81 142.837 114.25 143.29 113.77C143.75 113.283 144.284 112.903 144.89 112.63C145.497 112.357 146.144 112.22 146.83 112.22C147.57 112.22 148.25 112.367 148.87 112.66C149.497 112.953 150.034 113.363 150.48 113.89C150.934 114.417 151.274 115.033 151.5 115.74C151.734 116.447 151.83 117.21 151.79 118.03H143.31C143.39 118.663 143.59 119.23 143.91 119.73C144.237 120.23 144.65 120.627 145.15 120.92C145.657 121.207 146.217 121.353 146.83 121.36C147.497 121.36 148.097 121.187 148.63 120.84C149.17 120.493 149.604 120.017 149.93 119.41L151.35 119.74C150.95 120.627 150.347 121.353 149.54 121.92C148.734 122.48 147.83 122.76 146.83 122.76ZM143.27 116.9H150.38C150.334 116.28 150.144 115.713 149.81 115.2C149.484 114.68 149.06 114.267 148.54 113.96C148.02 113.647 147.45 113.49 146.83 113.49C146.21 113.49 145.644 113.643 145.13 113.95C144.617 114.25 144.197 114.66 143.87 115.18C143.544 115.693 143.344 116.267 143.27 116.9ZM158.439 113.9H156.049L156.039 122.5H154.639L154.649 113.9H152.839V112.5H154.649L154.639 109.36H156.039L156.049 112.5H158.439V113.9ZM160.145 112.5H161.545V122.5H160.145V112.5ZM160.855 110.75C160.629 110.75 160.435 110.677 160.275 110.53C160.122 110.377 160.045 110.187 160.045 109.96C160.045 109.733 160.122 109.547 160.275 109.4C160.435 109.247 160.629 109.17 160.855 109.17C161.075 109.17 161.262 109.247 161.415 109.4C161.575 109.547 161.655 109.733 161.655 109.96C161.655 110.187 161.579 110.377 161.425 110.53C161.272 110.677 161.082 110.75 160.855 110.75ZM168.256 122.76C167.336 122.76 166.496 122.523 165.736 122.05C164.983 121.577 164.38 120.943 163.926 120.15C163.48 119.35 163.256 118.467 163.256 117.5C163.256 116.767 163.386 116.083 163.646 115.45C163.906 114.81 164.263 114.25 164.716 113.77C165.176 113.283 165.71 112.903 166.316 112.63C166.923 112.357 167.57 112.22 168.256 112.22C169.176 112.22 170.013 112.457 170.766 112.93C171.526 113.403 172.13 114.04 172.576 114.84C173.03 115.64 173.256 116.527 173.256 117.5C173.256 118.227 173.126 118.907 172.866 119.54C172.606 120.173 172.246 120.733 171.786 121.22C171.333 121.7 170.803 122.077 170.196 122.35C169.596 122.623 168.95 122.76 168.256 122.76ZM168.256 121.36C168.936 121.36 169.546 121.183 170.086 120.83C170.633 120.47 171.063 119.997 171.376 119.41C171.696 118.823 171.856 118.187 171.856 117.5C171.856 116.8 171.696 116.157 171.376 115.57C171.056 114.977 170.623 114.503 170.076 114.15C169.536 113.797 168.93 113.62 168.256 113.62C167.576 113.62 166.963 113.8 166.416 114.16C165.876 114.513 165.446 114.983 165.126 115.57C164.813 116.157 164.656 116.8 164.656 117.5C164.656 118.22 164.82 118.873 165.146 119.46C165.473 120.04 165.91 120.503 166.456 120.85C167.003 121.19 167.603 121.36 168.256 121.36ZM183.67 116.31V122.5H182.27V116.59C182.27 116.043 182.137 115.547 181.87 115.1C181.603 114.653 181.247 114.297 180.8 114.03C180.353 113.763 179.857 113.63 179.31 113.63C178.77 113.63 178.273 113.763 177.82 114.03C177.373 114.297 177.017 114.653 176.75 115.1C176.483 115.547 176.35 116.043 176.35 116.59V122.5H174.95V112.5H176.35V113.88C176.703 113.373 177.163 112.97 177.73 112.67C178.297 112.37 178.913 112.22 179.58 112.22C180.333 112.22 181.02 112.403 181.64 112.77C182.26 113.137 182.753 113.63 183.12 114.25C183.487 114.87 183.67 115.557 183.67 116.31ZM190.477 122.5V108.5H195.227C195.974 108.5 196.647 108.683 197.247 109.05C197.847 109.41 198.324 109.9 198.677 110.52C199.031 111.133 199.207 111.823 199.207 112.59C199.207 113.277 199.067 113.9 198.787 114.46C198.507 115.02 198.124 115.483 197.637 115.85C197.157 116.217 196.614 116.46 196.007 116.58L199.427 122.5H197.807L194.437 116.69H191.877V122.5H190.477ZM191.877 115.29H195.107C195.601 115.29 196.051 115.17 196.457 114.93C196.871 114.683 197.197 114.353 197.437 113.94C197.684 113.52 197.807 113.047 197.807 112.52C197.807 111.993 197.684 111.523 197.437 111.11C197.197 110.69 196.871 110.36 196.457 110.12C196.051 109.873 195.601 109.75 195.107 109.75H191.877V115.29ZM209.479 112.5H210.879V122.5H209.479L209.429 120.64C209.102 121.273 208.645 121.787 208.059 122.18C207.472 122.567 206.772 122.76 205.959 122.76C205.225 122.76 204.539 122.623 203.899 122.35C203.259 122.07 202.695 121.687 202.209 121.2C201.722 120.713 201.342 120.15 201.069 119.51C200.795 118.87 200.659 118.183 200.659 117.45C200.659 116.73 200.792 116.053 201.059 115.42C201.332 114.787 201.705 114.23 202.179 113.75C202.659 113.27 203.212 112.897 203.839 112.63C204.472 112.357 205.149 112.22 205.869 112.22C206.702 112.22 207.429 112.42 208.049 112.82C208.669 113.213 209.162 113.73 209.529 114.37L209.479 112.5ZM205.929 121.4C206.642 121.4 207.255 121.227 207.769 120.88C208.282 120.527 208.675 120.053 208.949 119.46C209.229 118.867 209.369 118.213 209.369 117.5C209.369 116.767 209.229 116.107 208.949 115.52C208.669 114.927 208.272 114.457 207.759 114.11C207.245 113.763 206.635 113.59 205.929 113.59C205.222 113.59 204.575 113.767 203.989 114.12C203.409 114.467 202.945 114.937 202.599 115.53C202.259 116.123 202.089 116.78 202.089 117.5C202.089 118.227 202.265 118.887 202.619 119.48C202.972 120.067 203.439 120.533 204.019 120.88C204.605 121.227 205.242 121.4 205.929 121.4ZM217.99 113.9H215.6L215.59 122.5H214.19L214.2 113.9H212.39V112.5H214.2L214.19 109.36H215.59L215.6 112.5H217.99V113.9ZM223.901 122.76C222.981 122.76 222.141 122.523 221.381 122.05C220.627 121.577 220.024 120.943 219.571 120.15C219.124 119.35 218.901 118.467 218.901 117.5C218.901 116.767 219.031 116.083 219.291 115.45C219.551 114.81 219.907 114.25 220.361 113.77C220.821 113.283 221.354 112.903 221.961 112.63C222.567 112.357 223.214 112.22 223.901 112.22C224.641 112.22 225.321 112.367 225.941 112.66C226.567 112.953 227.104 113.363 227.551 113.89C228.004 114.417 228.344 115.033 228.571 115.74C228.804 116.447 228.901 117.21 228.861 118.03H220.381C220.461 118.663 220.661 119.23 220.981 119.73C221.307 120.23 221.721 120.627 222.221 120.92C222.727 121.207 223.287 121.353 223.901 121.36C224.567 121.36 225.167 121.187 225.701 120.84C226.241 120.493 226.674 120.017 227.001 119.41L228.421 119.74C228.021 120.627 227.417 121.353 226.611 121.92C225.804 122.48 224.901 122.76 223.901 122.76ZM220.341 116.9H227.451C227.404 116.28 227.214 115.713 226.881 115.2C226.554 114.68 226.131 114.267 225.611 113.96C225.091 113.647 224.521 113.49 223.901 113.49C223.281 113.49 222.714 113.643 222.201 113.95C221.687 114.25 221.267 114.66 220.941 115.18C220.614 115.693 220.414 116.267 220.341 116.9Z" fill="#0C1021"/>
<g clip-path="url(#clip1_790_4023)">
<rect x="45.6641" y="139.5" width="366" height="25" fill="#F1F1F1"/>
<g filter="url(#filter1_i_790_4023)">
<rect x="45.6641" y="139.5" width="351" height="25" fill="#4268FF"/>
</g>
</g>
<circle cx="50.6641" cy="196.5" r="5" fill="#4268FF"/>
<path d="M67.0401 189.682C66.3774 189.682 65.7544 189.551 65.1711 189.29C64.5877 189.024 64.0744 188.66 63.6311 188.198C63.1924 187.731 62.8471 187.19 62.5951 186.574C62.3477 185.958 62.2241 185.3 62.2241 184.6C62.2241 183.9 62.3477 183.242 62.5951 182.626C62.8471 182.01 63.1924 181.471 63.6311 181.009C64.0744 180.542 64.5877 180.178 65.1711 179.917C65.7544 179.651 66.3774 179.518 67.0401 179.518C67.8334 179.518 68.5637 179.702 69.2311 180.071C69.8984 180.44 70.4514 180.93 70.8901 181.541L70.0221 182.01C69.6767 181.548 69.2381 181.182 68.7061 180.911C68.1787 180.636 67.6234 180.498 67.0401 180.498C66.5034 180.498 66.0017 180.608 65.5351 180.827C65.0731 181.042 64.6671 181.338 64.3171 181.716C63.9671 182.094 63.6941 182.53 63.4981 183.025C63.3021 183.52 63.2041 184.045 63.2041 184.6C63.2041 185.165 63.3021 185.694 63.4981 186.189C63.6987 186.684 63.9741 187.12 64.3241 187.498C64.6787 187.876 65.0871 188.172 65.5491 188.387C66.0157 188.597 66.5127 188.702 67.0401 188.702C67.6467 188.702 68.2091 188.564 68.7271 188.289C69.2497 188.009 69.6814 187.645 70.0221 187.197L70.8901 187.666C70.4514 188.277 69.8984 188.767 69.2311 189.136C68.5637 189.5 67.8334 189.682 67.0401 189.682ZM75.0177 189.682C74.3737 189.682 73.7857 189.516 73.2537 189.185C72.7263 188.854 72.304 188.41 71.9867 187.855C71.674 187.295 71.5177 186.677 71.5177 186C71.5177 185.487 71.6087 185.008 71.7907 184.565C71.9727 184.117 72.2223 183.725 72.5397 183.389C72.8617 183.048 73.235 182.782 73.6597 182.591C74.0843 182.4 74.537 182.304 75.0177 182.304C75.6617 182.304 76.2473 182.47 76.7747 182.801C77.3067 183.132 77.729 183.578 78.0417 184.138C78.359 184.698 78.5177 185.319 78.5177 186C78.5177 186.509 78.4267 186.985 78.2447 187.428C78.0627 187.871 77.8107 188.263 77.4887 188.604C77.1713 188.94 76.8003 189.204 76.3757 189.395C75.9557 189.586 75.503 189.682 75.0177 189.682ZM75.0177 188.702C75.4937 188.702 75.9207 188.578 76.2987 188.331C76.6813 188.079 76.9823 187.748 77.2017 187.337C77.4257 186.926 77.5377 186.481 77.5377 186C77.5377 185.51 77.4257 185.06 77.2017 184.649C76.9777 184.234 76.6743 183.902 76.2917 183.655C75.9137 183.408 75.489 183.284 75.0177 183.284C74.5417 183.284 74.1123 183.41 73.7297 183.662C73.3517 183.909 73.0507 184.238 72.8267 184.649C72.6073 185.06 72.4977 185.51 72.4977 186C72.4977 186.504 72.612 186.961 72.8407 187.372C73.0693 187.778 73.375 188.102 73.7577 188.345C74.1403 188.583 74.5603 188.702 75.0177 188.702ZM79.7033 189.5V182.5H80.6833V183.466C80.9353 183.111 81.2573 182.829 81.6493 182.619C82.0413 182.409 82.4706 182.304 82.9373 182.304C83.4646 182.304 83.9476 182.435 84.3863 182.696C84.8249 182.953 85.1679 183.296 85.4153 183.725C85.6626 183.296 86.0033 182.953 86.4373 182.696C86.8713 182.435 87.3519 182.304 87.8793 182.304C88.4066 182.304 88.8873 182.432 89.3213 182.689C89.7553 182.946 90.1006 183.291 90.3573 183.725C90.6139 184.159 90.7423 184.64 90.7423 185.167V189.5H89.7623V185.384C89.7623 185.011 89.6713 184.665 89.4893 184.348C89.3073 184.031 89.0623 183.776 88.7543 183.585C88.4509 183.389 88.1126 183.291 87.7393 183.291C87.3659 183.291 87.0253 183.382 86.7173 183.564C86.4139 183.741 86.1713 183.989 85.9893 184.306C85.8073 184.619 85.7163 184.978 85.7163 185.384V189.5H84.7363V185.384C84.7363 184.978 84.6453 184.619 84.4633 184.306C84.2813 183.989 84.0363 183.741 83.7283 183.564C83.4203 183.382 83.0796 183.291 82.7063 183.291C82.3376 183.291 81.9993 183.389 81.6913 183.585C81.3833 183.776 81.1383 184.031 80.9563 184.348C80.7743 184.665 80.6833 185.011 80.6833 185.384V189.5H79.7033ZM93.1247 193H92.1447V182.5H93.1247V183.809C93.3674 183.366 93.6987 183.006 94.1187 182.731C94.5387 182.456 95.038 182.318 95.6167 182.318C96.1254 182.318 96.6014 182.414 97.0447 182.605C97.4927 182.796 97.8847 183.062 98.2207 183.403C98.5567 183.739 98.8204 184.129 99.0117 184.572C99.203 185.015 99.2987 185.491 99.2987 186C99.2987 186.509 99.203 186.987 99.0117 187.435C98.8204 187.883 98.5567 188.277 98.2207 188.618C97.8847 188.954 97.4927 189.218 97.0447 189.409C96.6014 189.6 96.1254 189.696 95.6167 189.696C95.038 189.696 94.5387 189.558 94.1187 189.283C93.6987 189.008 93.3674 188.648 93.1247 188.205V193ZM95.6097 183.27C95.1197 183.27 94.6927 183.394 94.3287 183.641C93.9694 183.884 93.6917 184.21 93.4957 184.621C93.2997 185.032 93.2017 185.491 93.2017 186C93.2017 186.499 93.2974 186.957 93.4887 187.372C93.6847 187.787 93.9624 188.119 94.3217 188.366C94.6857 188.613 95.115 188.737 95.6097 188.737C96.095 188.737 96.5407 188.616 96.9467 188.373C97.3574 188.13 97.6864 187.804 97.9337 187.393C98.181 186.978 98.3047 186.513 98.3047 186C98.3047 185.501 98.1834 185.046 97.9407 184.635C97.698 184.22 97.3737 183.888 96.9677 183.641C96.5617 183.394 96.109 183.27 95.6097 183.27ZM100.43 189.5V179H101.41V189.5H100.43ZM106.121 189.682C105.477 189.682 104.889 189.516 104.357 189.185C103.83 188.854 103.408 188.41 103.09 187.855C102.778 187.295 102.621 186.677 102.621 186C102.621 185.487 102.712 185.008 102.894 184.565C103.076 184.117 103.326 183.725 103.643 183.389C103.965 183.048 104.339 182.782 104.763 182.591C105.188 182.4 105.641 182.304 106.121 182.304C106.639 182.304 107.115 182.407 107.549 182.612C107.988 182.817 108.364 183.104 108.676 183.473C108.994 183.842 109.232 184.273 109.39 184.768C109.554 185.263 109.621 185.797 109.593 186.371H103.657C103.713 186.814 103.853 187.211 104.077 187.561C104.306 187.911 104.595 188.189 104.945 188.394C105.3 188.595 105.692 188.697 106.121 188.702C106.588 188.702 107.008 188.581 107.381 188.338C107.759 188.095 108.063 187.762 108.291 187.337L109.285 187.568C109.005 188.189 108.583 188.697 108.018 189.094C107.454 189.486 106.821 189.682 106.121 189.682ZM103.629 185.58H108.606C108.574 185.146 108.441 184.749 108.207 184.39C107.979 184.026 107.682 183.737 107.318 183.522C106.954 183.303 106.555 183.193 106.121 183.193C105.687 183.193 105.291 183.3 104.931 183.515C104.572 183.725 104.278 184.012 104.049 184.376C103.821 184.735 103.681 185.137 103.629 185.58ZM114.247 183.48H112.574L112.567 189.5H111.587L111.594 183.48H110.327V182.5H111.594L111.587 180.302H112.567L112.574 182.5H114.247V183.48ZM118.385 189.682C117.741 189.682 117.153 189.516 116.621 189.185C116.094 188.854 115.671 188.41 115.354 187.855C115.041 187.295 114.885 186.677 114.885 186C114.885 185.487 114.976 185.008 115.158 184.565C115.34 184.117 115.59 183.725 115.907 183.389C116.229 183.048 116.602 182.782 117.027 182.591C117.452 182.4 117.904 182.304 118.385 182.304C118.903 182.304 119.379 182.407 119.813 182.612C120.252 182.817 120.627 183.104 120.94 183.473C121.257 183.842 121.495 184.273 121.654 184.768C121.817 185.263 121.885 185.797 121.857 186.371H115.921C115.977 186.814 116.117 187.211 116.341 187.561C116.57 187.911 116.859 188.189 117.209 188.394C117.564 188.595 117.956 188.697 118.385 188.702C118.852 188.702 119.272 188.581 119.645 188.338C120.023 188.095 120.326 187.762 120.555 187.337L121.549 187.568C121.269 188.189 120.847 188.697 120.282 189.094C119.717 189.486 119.085 189.682 118.385 189.682ZM115.893 185.58H120.87C120.837 185.146 120.704 184.749 120.471 184.39C120.242 184.026 119.946 183.737 119.582 183.522C119.218 183.303 118.819 183.193 118.385 183.193C117.951 183.193 117.554 183.3 117.195 183.515C116.836 183.725 116.542 184.012 116.313 184.376C116.084 184.735 115.944 185.137 115.893 185.58ZM128.749 179H129.729V189.5H128.749V188.191C128.507 188.639 128.173 189.001 127.748 189.276C127.328 189.547 126.829 189.682 126.25 189.682C125.742 189.682 125.266 189.586 124.822 189.395C124.379 189.204 123.987 188.94 123.646 188.604C123.31 188.263 123.047 187.871 122.855 187.428C122.664 186.985 122.568 186.509 122.568 186C122.568 185.491 122.664 185.015 122.855 184.572C123.047 184.124 123.31 183.732 123.646 183.396C123.987 183.055 124.379 182.789 124.822 182.598C125.266 182.407 125.742 182.311 126.25 182.311C126.829 182.311 127.328 182.449 127.748 182.724C128.173 182.995 128.507 183.352 128.749 183.795V179ZM126.257 188.73C126.757 188.73 127.186 188.609 127.545 188.366C127.905 188.119 128.18 187.787 128.371 187.372C128.567 186.957 128.665 186.499 128.665 186C128.665 185.487 128.567 185.025 128.371 184.614C128.175 184.199 127.898 183.87 127.538 183.627C127.179 183.384 126.752 183.263 126.257 183.263C125.763 183.263 125.312 183.387 124.906 183.634C124.5 183.877 124.176 184.206 123.933 184.621C123.691 185.036 123.569 185.496 123.569 186C123.569 186.509 123.693 186.971 123.94 187.386C124.188 187.797 124.514 188.123 124.92 188.366C125.331 188.609 125.777 188.73 126.257 188.73Z" fill="#535662"/>
<path d="M64.4801 212.5L66.9521 208.22C66.3867 208.433 65.8214 208.5 65.2561 208.42C64.6907 208.335 64.1734 208.132 63.7041 207.812C63.2347 207.487 62.8561 207.071 62.5681 206.564C62.2854 206.052 62.1441 205.476 62.1441 204.836C62.1441 204.324 62.2401 203.841 62.4321 203.388C62.6294 202.935 62.8987 202.537 63.2401 202.196C63.5814 201.849 63.9761 201.58 64.4241 201.388C64.8774 201.191 65.3627 201.092 65.8801 201.092C66.5627 201.092 67.1841 201.263 67.7441 201.604C68.3094 201.94 68.7601 202.391 69.0961 202.956C69.4374 203.521 69.6081 204.148 69.6081 204.836C69.6081 205.225 69.5601 205.561 69.4641 205.844C69.3734 206.121 69.2347 206.433 69.0481 206.78L65.7681 212.5H64.4801ZM65.8641 207.46C66.3707 207.46 66.8214 207.34 67.2161 207.1C67.6161 206.855 67.9307 206.532 68.1601 206.132C68.3894 205.732 68.5041 205.303 68.5041 204.844C68.5041 204.343 68.3814 203.895 68.1361 203.5C67.8961 203.1 67.5761 202.785 67.1761 202.556C66.7761 202.321 66.3441 202.204 65.8801 202.204C65.3681 202.204 64.9121 202.327 64.5121 202.572C64.1174 202.817 63.8054 203.143 63.5761 203.548C63.3521 203.948 63.2401 204.38 63.2401 204.844C63.2401 205.324 63.3574 205.764 63.5921 206.164C63.8267 206.559 64.1414 206.873 64.5361 207.108C64.9361 207.343 65.3787 207.46 65.8641 207.46ZM74.2939 212.708C73.6379 212.708 73.0379 212.559 72.4939 212.26C71.9553 211.961 71.5259 211.561 71.2059 211.06C70.8859 210.559 70.7259 210.001 70.7259 209.388C70.7259 208.791 70.8913 208.247 71.2219 207.756C71.5526 207.26 71.9819 206.876 72.5099 206.604C72.0726 206.353 71.7126 206.012 71.4299 205.58C71.1473 205.143 71.0059 204.663 71.0059 204.14C71.0059 203.58 71.1526 203.071 71.4459 202.612C71.7446 202.148 72.1419 201.78 72.6379 201.508C73.1393 201.231 73.6913 201.092 74.2939 201.092C74.8966 201.092 75.4459 201.231 75.9419 201.508C76.4433 201.78 76.8406 202.148 77.1339 202.612C77.4326 203.071 77.5819 203.58 77.5819 204.14C77.5819 204.663 77.4406 205.143 77.1579 205.58C76.8806 206.012 76.5206 206.353 76.0779 206.604C76.6166 206.876 77.0486 207.26 77.3739 207.756C77.7046 208.247 77.8699 208.791 77.8699 209.388C77.8699 209.996 77.7073 210.553 77.3819 211.06C77.0619 211.561 76.6326 211.961 76.0939 212.26C75.5553 212.559 74.9553 212.708 74.2939 212.708ZM74.2939 211.588C74.7366 211.588 75.1366 211.489 75.4939 211.292C75.8513 211.095 76.1366 210.831 76.3499 210.5C76.5633 210.164 76.6699 209.793 76.6699 209.388C76.6699 208.983 76.5633 208.615 76.3499 208.284C76.1366 207.953 75.8513 207.689 75.4939 207.492C75.1366 207.295 74.7366 207.196 74.2939 207.196C73.8619 207.196 73.4646 207.295 73.1019 207.492C72.7446 207.689 72.4566 207.953 72.2379 208.284C72.0246 208.615 71.9179 208.983 71.9179 209.388C71.9179 209.793 72.0246 210.164 72.2379 210.5C72.4566 210.831 72.7446 211.095 73.1019 211.292C73.4646 211.489 73.8619 211.588 74.2939 211.588ZM74.2939 206.076C74.6833 206.076 75.0353 205.991 75.3499 205.82C75.6646 205.644 75.9153 205.409 76.1019 205.116C76.2939 204.823 76.3899 204.497 76.3899 204.14C76.3899 203.783 76.2939 203.46 76.1019 203.172C75.9153 202.879 75.6646 202.647 75.3499 202.476C75.0353 202.3 74.6833 202.212 74.2939 202.212C73.9099 202.212 73.5579 202.3 73.2379 202.476C72.9233 202.647 72.6699 202.879 72.4779 203.172C72.2913 203.46 72.1979 203.783 72.1979 204.14C72.1979 204.497 72.2913 204.823 72.4779 205.116C72.6699 205.409 72.9233 205.644 73.2379 205.82C73.5579 205.991 73.9099 206.076 74.2939 206.076ZM79.7798 212.708C79.6038 212.708 79.4545 212.644 79.3318 212.516C79.2091 212.393 79.1478 212.241 79.1478 212.06C79.1478 211.889 79.2091 211.743 79.3318 211.62C79.4545 211.492 79.6038 211.428 79.7798 211.428C79.9611 211.428 80.1131 211.492 80.2358 211.62C80.3638 211.743 80.4278 211.889 80.4278 212.06C80.4278 212.241 80.3638 212.393 80.2358 212.516C80.1131 212.644 79.9611 212.708 79.7798 212.708ZM85.6388 212.708C84.9348 212.708 84.2895 212.535 83.7028 212.188C83.1215 211.836 82.6548 211.367 82.3028 210.78C81.9561 210.193 81.7828 209.545 81.7828 208.836C81.7828 208.425 81.8308 208.076 81.9268 207.788C82.0228 207.495 82.1641 207.169 82.3508 206.812L85.5268 201.3H86.8308L84.5028 205.332C84.9721 205.151 85.4441 205.071 85.9188 205.092C86.3935 205.108 86.8468 205.212 87.2788 205.404C87.7108 205.596 88.0948 205.86 88.4308 206.196C88.7668 206.527 89.0308 206.916 89.2228 207.364C89.4201 207.812 89.5188 208.303 89.5188 208.836C89.5188 209.369 89.4175 209.871 89.2148 210.34C89.0121 210.804 88.7321 211.215 88.3748 211.572C88.0228 211.924 87.6121 212.201 87.1428 212.404C86.6735 212.607 86.1721 212.708 85.6388 212.708ZM85.6388 211.588C86.1721 211.588 86.6468 211.46 87.0628 211.204C87.4788 210.943 87.8041 210.601 88.0388 210.18C88.2788 209.759 88.3988 209.308 88.3988 208.828C88.3988 208.327 88.2761 207.871 88.0308 207.46C87.7855 207.044 87.4548 206.713 87.0388 206.468C86.6228 206.217 86.1615 206.092 85.6548 206.092C85.1321 206.092 84.6628 206.22 84.2468 206.476C83.8308 206.732 83.5028 207.068 83.2628 207.484C83.0228 207.895 82.9028 208.343 82.9028 208.828C82.9028 209.351 83.0281 209.82 83.2788 210.236C83.5348 210.652 83.8708 210.983 84.2868 211.228C84.7028 211.468 85.1535 211.588 85.6388 211.588ZM91.2322 212.5L97.6962 201.3H98.9922L92.5282 212.5H91.2322ZM92.5442 205.676C92.1922 205.676 91.8722 205.591 91.5842 205.42C91.2962 205.249 91.0642 205.02 90.8882 204.732C90.7175 204.439 90.6322 204.116 90.6322 203.764C90.6322 203.401 90.7175 203.076 90.8882 202.788C91.0642 202.5 91.2962 202.271 91.5842 202.1C91.8775 201.929 92.1975 201.844 92.5442 201.844C92.8962 201.844 93.2162 201.932 93.5042 202.108C93.7922 202.279 94.0215 202.508 94.1922 202.796C94.3682 203.084 94.4562 203.407 94.4562 203.764C94.4562 204.121 94.3682 204.444 94.1922 204.732C94.0215 205.02 93.7895 205.249 93.4962 205.42C93.2082 205.591 92.8909 205.676 92.5442 205.676ZM92.5442 204.82C92.8429 204.82 93.0935 204.719 93.2962 204.516C93.4989 204.308 93.6002 204.057 93.6002 203.764C93.6002 203.465 93.4989 203.215 93.2962 203.012C93.0935 202.804 92.8429 202.7 92.5442 202.7C92.2509 202.7 92.0002 202.804 91.7922 203.012C91.5895 203.215 91.4882 203.465 91.4882 203.764C91.4882 204.057 91.5895 204.308 91.7922 204.516C92.0002 204.719 92.2509 204.82 92.5442 204.82ZM97.6962 211.964C97.3442 211.964 97.0215 211.876 96.7282 211.7C96.4402 211.519 96.2082 211.284 96.0322 210.996C95.8615 210.703 95.7762 210.385 95.7762 210.044C95.7762 209.687 95.8642 209.364 96.0402 209.076C96.2162 208.783 96.4482 208.551 96.7362 208.38C97.0295 208.209 97.3495 208.124 97.6962 208.124C98.0535 208.124 98.3762 208.212 98.6642 208.388C98.9522 208.564 99.1815 208.799 99.3522 209.092C99.5229 209.38 99.6082 209.697 99.6082 210.044C99.6082 210.396 99.5229 210.719 99.3522 211.012C99.1815 211.3 98.9495 211.532 98.6562 211.708C98.3682 211.879 98.0482 211.964 97.6962 211.964ZM97.6962 211.108C97.9842 211.108 98.2322 211.004 98.4402 210.796C98.6482 210.588 98.7522 210.337 98.7522 210.044C98.7522 209.751 98.6482 209.5 98.4402 209.292C98.2322 209.084 97.9842 208.98 97.6962 208.98C97.4029 208.98 97.1495 209.084 96.9362 209.292C96.7282 209.5 96.6242 209.751 96.6242 210.044C96.6242 210.337 96.7282 210.588 96.9362 210.796C97.1495 211.004 97.4029 211.108 97.6962 211.108Z" fill="#0C1021"/>
<circle cx="162.664" cy="196.5" r="5" fill="#F1F1F1"/>
<path d="M174.504 189.5V179.7H177.745C178.422 179.7 179.056 179.828 179.649 180.085C180.242 180.337 180.762 180.689 181.21 181.142C181.658 181.59 182.008 182.11 182.26 182.703C182.517 183.291 182.645 183.923 182.645 184.6C182.645 185.277 182.517 185.911 182.26 186.504C182.008 187.092 181.658 187.612 181.21 188.065C180.762 188.513 180.242 188.865 179.649 189.122C179.056 189.374 178.422 189.5 177.745 189.5H174.504ZM175.484 188.52H177.745C178.286 188.52 178.793 188.42 179.264 188.219C179.74 188.014 180.158 187.731 180.517 187.372C180.876 187.013 181.156 186.597 181.357 186.126C181.562 185.65 181.665 185.141 181.665 184.6C181.665 184.059 181.562 183.552 181.357 183.081C181.156 182.605 180.874 182.187 180.51 181.828C180.151 181.469 179.735 181.189 179.264 180.988C178.793 180.783 178.286 180.68 177.745 180.68H175.484V188.52ZM183.883 189.5V182.5H184.863V183.466C185.11 183.111 185.432 182.829 185.829 182.619C186.226 182.409 186.657 182.304 187.124 182.304C187.395 182.304 187.656 182.339 187.908 182.409L187.509 183.382C187.313 183.321 187.122 183.291 186.935 183.291C186.557 183.291 186.209 183.384 185.892 183.571C185.579 183.758 185.33 184.007 185.143 184.32C184.956 184.633 184.863 184.98 184.863 185.363V189.5H183.883ZM191.502 189.682C190.858 189.682 190.27 189.516 189.738 189.185C189.211 188.854 188.788 188.41 188.471 187.855C188.158 187.295 188.002 186.677 188.002 186C188.002 185.487 188.093 185.008 188.275 184.565C188.457 184.117 188.707 183.725 189.024 183.389C189.346 183.048 189.719 182.782 190.144 182.591C190.569 182.4 191.021 182.304 191.502 182.304C192.146 182.304 192.732 182.47 193.259 182.801C193.791 183.132 194.213 183.578 194.526 184.138C194.843 184.698 195.002 185.319 195.002 186C195.002 186.509 194.911 186.985 194.729 187.428C194.547 187.871 194.295 188.263 193.973 188.604C193.656 188.94 193.285 189.204 192.86 189.395C192.44 189.586 191.987 189.682 191.502 189.682ZM191.502 188.702C191.978 188.702 192.405 188.578 192.783 188.331C193.166 188.079 193.467 187.748 193.686 187.337C193.91 186.926 194.022 186.481 194.022 186C194.022 185.51 193.91 185.06 193.686 184.649C193.462 184.234 193.159 183.902 192.776 183.655C192.398 183.408 191.973 183.284 191.502 183.284C191.026 183.284 190.597 183.41 190.214 183.662C189.836 183.909 189.535 184.238 189.311 184.649C189.092 185.06 188.982 185.51 188.982 186C188.982 186.504 189.096 186.961 189.325 187.372C189.554 187.778 189.859 188.102 190.242 188.345C190.625 188.583 191.045 188.702 191.502 188.702ZM197.168 193H196.188V182.5H197.168V183.809C197.41 183.366 197.742 183.006 198.162 182.731C198.582 182.456 199.081 182.318 199.66 182.318C200.168 182.318 200.644 182.414 201.088 182.605C201.536 182.796 201.928 183.062 202.264 183.403C202.6 183.739 202.863 184.129 203.055 184.572C203.246 185.015 203.342 185.491 203.342 186C203.342 186.509 203.246 186.987 203.055 187.435C202.863 187.883 202.6 188.277 202.264 188.618C201.928 188.954 201.536 189.218 201.088 189.409C200.644 189.6 200.168 189.696 199.66 189.696C199.081 189.696 198.582 189.558 198.162 189.283C197.742 189.008 197.41 188.648 197.168 188.205V193ZM199.653 183.27C199.163 183.27 198.736 183.394 198.372 183.641C198.012 183.884 197.735 184.21 197.539 184.621C197.343 185.032 197.245 185.491 197.245 186C197.245 186.499 197.34 186.957 197.532 187.372C197.728 187.787 198.005 188.119 198.365 188.366C198.729 188.613 199.158 188.737 199.653 188.737C200.138 188.737 200.584 188.616 200.99 188.373C201.4 188.13 201.729 187.804 201.977 187.393C202.224 186.978 202.348 186.513 202.348 186C202.348 185.501 202.226 185.046 201.984 184.635C201.741 184.22 201.417 183.888 201.011 183.641C200.605 183.394 200.152 183.27 199.653 183.27ZM205.508 193H204.528V182.5H205.508V183.809C205.75 183.366 206.082 183.006 206.502 182.731C206.922 182.456 207.421 182.318 208 182.318C208.508 182.318 208.984 182.414 209.428 182.605C209.876 182.796 210.268 183.062 210.604 183.403C210.94 183.739 211.203 184.129 211.395 184.572C211.586 185.015 211.682 185.491 211.682 186C211.682 186.509 211.586 186.987 211.395 187.435C211.203 187.883 210.94 188.277 210.604 188.618C210.268 188.954 209.876 189.218 209.428 189.409C208.984 189.6 208.508 189.696 208 189.696C207.421 189.696 206.922 189.558 206.502 189.283C206.082 189.008 205.75 188.648 205.508 188.205V193ZM207.993 183.27C207.503 183.27 207.076 183.394 206.712 183.641C206.352 183.884 206.075 184.21 205.879 184.621C205.683 185.032 205.585 185.491 205.585 186C205.585 186.499 205.68 186.957 205.872 187.372C206.068 187.787 206.345 188.119 206.705 188.366C207.069 188.613 207.498 188.737 207.993 188.737C208.478 188.737 208.924 188.616 209.33 188.373C209.74 188.13 210.069 187.804 210.317 187.393C210.564 186.978 210.688 186.513 210.688 186C210.688 185.501 210.566 185.046 210.324 184.635C210.081 184.22 209.757 183.888 209.351 183.641C208.945 183.394 208.492 183.27 207.993 183.27ZM215.879 189.682C215.235 189.682 214.647 189.516 214.115 189.185C213.588 188.854 213.165 188.41 212.848 187.855C212.535 187.295 212.379 186.677 212.379 186C212.379 185.487 212.47 185.008 212.652 184.565C212.834 184.117 213.084 183.725 213.401 183.389C213.723 183.048 214.096 182.782 214.521 182.591C214.946 182.4 215.398 182.304 215.879 182.304C216.397 182.304 216.873 182.407 217.307 182.612C217.746 182.817 218.121 183.104 218.434 183.473C218.751 183.842 218.989 184.273 219.148 184.768C219.311 185.263 219.379 185.797 219.351 186.371H213.415C213.471 186.814 213.611 187.211 213.835 187.561C214.064 187.911 214.353 188.189 214.703 188.394C215.058 188.595 215.45 188.697 215.879 188.702C216.346 188.702 216.766 188.581 217.139 188.338C217.517 188.095 217.82 187.762 218.049 187.337L219.043 187.568C218.763 188.189 218.341 188.697 217.776 189.094C217.211 189.486 216.579 189.682 215.879 189.682ZM213.387 185.58H218.364C218.331 185.146 218.198 184.749 217.965 184.39C217.736 184.026 217.44 183.737 217.076 183.522C216.712 183.303 216.313 183.193 215.879 183.193C215.445 183.193 215.048 183.3 214.689 183.515C214.33 183.725 214.036 184.012 213.807 184.376C213.578 184.735 213.438 185.137 213.387 185.58ZM226.244 179H227.224V189.5H226.244V188.191C226.001 188.639 225.667 189.001 225.243 189.276C224.823 189.547 224.323 189.682 223.745 189.682C223.236 189.682 222.76 189.586 222.317 189.395C221.873 189.204 221.481 188.94 221.141 188.604C220.805 188.263 220.541 187.871 220.35 187.428C220.158 186.985 220.063 186.509 220.063 186C220.063 185.491 220.158 185.015 220.35 184.572C220.541 184.124 220.805 183.732 221.141 183.396C221.481 183.055 221.873 182.789 222.317 182.598C222.76 182.407 223.236 182.311 223.745 182.311C224.323 182.311 224.823 182.449 225.243 182.724C225.667 182.995 226.001 183.352 226.244 183.795V179ZM223.752 188.73C224.251 188.73 224.68 188.609 225.04 188.366C225.399 188.119 225.674 187.787 225.866 187.372C226.062 186.957 226.16 186.499 226.16 186C226.16 185.487 226.062 185.025 225.866 184.614C225.67 184.199 225.392 183.87 225.033 183.627C224.673 183.384 224.246 183.263 223.752 183.263C223.257 183.263 222.807 183.387 222.401 183.634C221.995 183.877 221.67 184.206 221.428 184.621C221.185 185.036 221.064 185.496 221.064 186C221.064 186.509 221.187 186.971 221.435 187.386C221.682 187.797 222.009 188.123 222.415 188.366C222.825 188.609 223.271 188.73 223.752 188.73Z" fill="#535662"/>
<path d="M175.504 212.5V202.42H174.304L174.624 201.3H176.624V212.5H175.504ZM179.17 212.708C178.994 212.708 178.845 212.644 178.722 212.516C178.6 212.393 178.538 212.241 178.538 212.06C178.538 211.889 178.6 211.743 178.722 211.62C178.845 211.492 178.994 211.428 179.17 211.428C179.352 211.428 179.504 211.492 179.626 211.62C179.754 211.743 179.818 211.889 179.818 212.06C179.818 212.241 179.754 212.393 179.626 212.516C179.504 212.644 179.352 212.708 179.17 212.708ZM186.245 212.5V209.356H181.413V208.22L185.957 201.3H187.365V208.236H188.541V209.356H187.365V212.5H186.245ZM182.741 208.22L186.245 208.236L186.221 202.9L182.741 208.22ZM190.748 212.5L197.212 201.3H198.508L192.044 212.5H190.748ZM192.06 205.676C191.708 205.676 191.388 205.591 191.1 205.42C190.812 205.249 190.58 205.02 190.404 204.732C190.233 204.439 190.148 204.116 190.148 203.764C190.148 203.401 190.233 203.076 190.404 202.788C190.58 202.5 190.812 202.271 191.1 202.1C191.393 201.929 191.713 201.844 192.06 201.844C192.412 201.844 192.732 201.932 193.02 202.108C193.308 202.279 193.537 202.508 193.708 202.796C193.884 203.084 193.972 203.407 193.972 203.764C193.972 204.121 193.884 204.444 193.708 204.732C193.537 205.02 193.305 205.249 193.012 205.42C192.724 205.591 192.406 205.676 192.06 205.676ZM192.06 204.82C192.358 204.82 192.609 204.719 192.812 204.516C193.014 204.308 193.116 204.057 193.116 203.764C193.116 203.465 193.014 203.215 192.812 203.012C192.609 202.804 192.358 202.7 192.06 202.7C191.766 202.7 191.516 202.804 191.308 203.012C191.105 203.215 191.004 203.465 191.004 203.764C191.004 204.057 191.105 204.308 191.308 204.516C191.516 204.719 191.766 204.82 192.06 204.82ZM197.212 211.964C196.86 211.964 196.537 211.876 196.244 211.7C195.956 211.519 195.724 211.284 195.548 210.996C195.377 210.703 195.292 210.385 195.292 210.044C195.292 209.687 195.38 209.364 195.556 209.076C195.732 208.783 195.964 208.551 196.252 208.38C196.545 208.209 196.865 208.124 197.212 208.124C197.569 208.124 197.892 208.212 198.18 208.388C198.468 208.564 198.697 208.799 198.868 209.092C199.038 209.38 199.124 209.697 199.124 210.044C199.124 210.396 199.038 210.719 198.868 211.012C198.697 211.3 198.465 211.532 198.172 211.708C197.884 211.879 197.564 211.964 197.212 211.964ZM197.212 211.108C197.5 211.108 197.748 211.004 197.956 210.796C198.164 210.588 198.268 210.337 198.268 210.044C198.268 209.751 198.164 209.5 197.956 209.292C197.748 209.084 197.5 208.98 197.212 208.98C196.918 208.98 196.665 209.084 196.452 209.292C196.244 209.5 196.14 209.751 196.14 210.044C196.14 210.337 196.244 210.588 196.452 210.796C196.665 211.004 196.918 211.108 197.212 211.108Z" fill="#0C1021"/>
<g filter="url(#filter2_d_790_4023)">
<rect x="314.664" y="86.5" width="90" height="41" rx="20.5" fill="#0C1021" shape-rendering="crispEdges"/>
<rect x="315.164" y="87" width="89" height="40" rx="20" stroke="#0C1021" stroke-opacity="0.1" shape-rendering="crispEdges"/>
<path d="M334.888 115.5L338.596 109.08C337.748 109.4 336.9 109.5 336.052 109.38C335.204 109.252 334.428 108.948 333.724 108.468C333.02 107.98 332.452 107.356 332.02 106.596C331.596 105.828 331.384 104.964 331.384 104.004C331.384 103.236 331.528 102.512 331.816 101.832C332.112 101.152 332.516 100.556 333.028 100.044C333.54 99.524 334.132 99.12 334.804 98.832C335.484 98.536 336.212 98.388 336.988 98.388C338.012 98.388 338.944 98.644 339.784 99.156C340.632 99.66 341.308 100.336 341.812 101.184C342.324 102.032 342.58 102.972 342.58 104.004C342.58 104.588 342.508 105.092 342.364 105.516C342.228 105.932 342.02 106.4 341.74 106.92L336.82 115.5H334.888ZM336.964 107.94C337.724 107.94 338.4 107.76 338.992 107.4C339.592 107.032 340.064 106.548 340.408 105.948C340.752 105.348 340.924 104.704 340.924 104.016C340.924 103.264 340.74 102.592 340.372 102C340.012 101.4 339.532 100.928 338.932 100.584C338.332 100.232 337.684 100.056 336.988 100.056C336.22 100.056 335.536 100.24 334.936 100.608C334.344 100.976 333.876 101.464 333.532 102.072C333.196 102.672 333.028 103.32 333.028 104.016C333.028 104.736 333.204 105.396 333.556 105.996C333.908 106.588 334.38 107.06 334.972 107.412C335.572 107.764 336.236 107.94 336.964 107.94ZM349.609 115.812C348.625 115.812 347.725 115.588 346.909 115.14C346.101 114.692 345.457 114.092 344.977 113.34C344.497 112.588 344.257 111.752 344.257 110.832C344.257 109.936 344.505 109.12 345.001 108.384C345.497 107.64 346.141 107.064 346.933 106.656C346.277 106.28 345.737 105.768 345.313 105.12C344.889 104.464 344.677 103.744 344.677 102.96C344.677 102.12 344.897 101.356 345.337 100.668C345.785 99.972 346.381 99.42 347.125 99.012C347.877 98.596 348.705 98.388 349.609 98.388C350.513 98.388 351.337 98.596 352.081 99.012C352.833 99.42 353.429 99.972 353.869 100.668C354.317 101.356 354.541 102.12 354.541 102.96C354.541 103.744 354.329 104.464 353.905 105.12C353.489 105.768 352.949 106.28 352.285 106.656C353.093 107.064 353.741 107.64 354.229 108.384C354.725 109.12 354.973 109.936 354.973 110.832C354.973 111.744 354.729 112.58 354.241 113.34C353.761 114.092 353.117 114.692 352.309 115.14C351.501 115.588 350.601 115.812 349.609 115.812ZM349.609 114.132C350.273 114.132 350.873 113.984 351.409 113.688C351.945 113.392 352.373 112.996 352.693 112.5C353.013 111.996 353.173 111.44 353.173 110.832C353.173 110.224 353.013 109.672 352.693 109.176C352.373 108.68 351.945 108.284 351.409 107.988C350.873 107.692 350.273 107.544 349.609 107.544C348.961 107.544 348.365 107.692 347.821 107.988C347.285 108.284 346.853 108.68 346.525 109.176C346.205 109.672 346.045 110.224 346.045 110.832C346.045 111.44 346.205 111.996 346.525 112.5C346.853 112.996 347.285 113.392 347.821 113.688C348.365 113.984 348.961 114.132 349.609 114.132ZM349.609 105.864C350.193 105.864 350.721 105.736 351.193 105.48C351.665 105.216 352.041 104.864 352.321 104.424C352.609 103.984 352.753 103.496 352.753 102.96C352.753 102.424 352.609 101.94 352.321 101.508C352.041 101.068 351.665 100.72 351.193 100.464C350.721 100.2 350.193 100.068 349.609 100.068C349.033 100.068 348.505 100.2 348.025 100.464C347.553 100.72 347.173 101.068 346.885 101.508C346.605 101.94 346.465 102.424 346.465 102.96C346.465 103.496 346.605 103.984 346.885 104.424C347.173 104.864 347.553 105.216 348.025 105.48C348.505 105.736 349.033 105.864 349.609 105.864ZM357.838 115.812C357.574 115.812 357.35 115.716 357.166 115.524C356.982 115.34 356.89 115.112 356.89 114.84C356.89 114.584 356.982 114.364 357.166 114.18C357.35 113.988 357.574 113.892 357.838 113.892C358.11 113.892 358.338 113.988 358.522 114.18C358.714 114.364 358.81 114.584 358.81 114.84C358.81 115.112 358.714 115.34 358.522 115.524C358.338 115.716 358.11 115.812 357.838 115.812ZM366.626 115.812C365.57 115.812 364.602 115.552 363.722 115.032C362.85 114.504 362.15 113.8 361.622 112.92C361.102 112.04 360.842 111.068 360.842 110.004C360.842 109.388 360.914 108.864 361.058 108.432C361.202 107.992 361.414 107.504 361.694 106.968L366.458 98.7H368.414L364.922 104.748C365.626 104.476 366.334 104.356 367.046 104.388C367.758 104.412 368.438 104.568 369.086 104.856C369.734 105.144 370.31 105.54 370.814 106.044C371.318 106.54 371.714 107.124 372.002 107.796C372.298 108.468 372.446 109.204 372.446 110.004C372.446 110.804 372.294 111.556 371.99 112.26C371.686 112.956 371.266 113.572 370.73 114.108C370.202 114.636 369.586 115.052 368.882 115.356C368.178 115.66 367.426 115.812 366.626 115.812ZM366.626 114.132C367.426 114.132 368.138 113.94 368.762 113.556C369.386 113.164 369.874 112.652 370.226 112.02C370.586 111.388 370.766 110.712 370.766 109.992C370.766 109.24 370.582 108.556 370.214 107.94C369.846 107.316 369.35 106.82 368.726 106.452C368.102 106.076 367.41 105.888 366.65 105.888C365.866 105.888 365.162 106.08 364.538 106.464C363.914 106.848 363.422 107.352 363.062 107.976C362.702 108.592 362.522 109.264 362.522 109.992C362.522 110.776 362.71 111.48 363.086 112.104C363.47 112.728 363.974 113.224 364.598 113.592C365.222 113.952 365.898 114.132 366.626 114.132ZM375.016 115.5L384.712 98.7H386.656L376.96 115.5H375.016ZM376.984 105.264C376.456 105.264 375.976 105.136 375.544 104.88C375.112 104.624 374.764 104.28 374.5 103.848C374.244 103.408 374.116 102.924 374.116 102.396C374.116 101.852 374.244 101.364 374.5 100.932C374.764 100.5 375.112 100.156 375.544 99.9C375.984 99.644 376.464 99.516 376.984 99.516C377.512 99.516 377.992 99.648 378.424 99.912C378.856 100.168 379.2 100.512 379.456 100.944C379.72 101.376 379.852 101.86 379.852 102.396C379.852 102.932 379.72 103.416 379.456 103.848C379.2 104.28 378.852 104.624 378.412 104.88C377.98 105.136 377.504 105.264 376.984 105.264ZM376.984 103.98C377.432 103.98 377.808 103.828 378.112 103.524C378.416 103.212 378.568 102.836 378.568 102.396C378.568 101.948 378.416 101.572 378.112 101.268C377.808 100.956 377.432 100.8 376.984 100.8C376.544 100.8 376.168 100.956 375.856 101.268C375.552 101.572 375.4 101.948 375.4 102.396C375.4 102.836 375.552 103.212 375.856 103.524C376.168 103.828 376.544 103.98 376.984 103.98ZM384.712 114.696C384.184 114.696 383.7 114.564 383.26 114.3C382.828 114.028 382.48 113.676 382.216 113.244C381.96 112.804 381.832 112.328 381.832 111.816C381.832 111.28 381.964 110.796 382.228 110.364C382.492 109.924 382.84 109.576 383.272 109.32C383.712 109.064 384.192 108.936 384.712 108.936C385.248 108.936 385.732 109.068 386.164 109.332C386.596 109.596 386.94 109.948 387.196 110.388C387.452 110.82 387.58 111.296 387.58 111.816C387.58 112.344 387.452 112.828 387.196 113.268C386.94 113.7 386.592 114.048 386.152 114.312C385.72 114.568 385.24 114.696 384.712 114.696ZM384.712 113.412C385.144 113.412 385.516 113.256 385.828 112.944C386.14 112.632 386.296 112.256 386.296 111.816C386.296 111.376 386.14 111 385.828 110.688C385.516 110.376 385.144 110.22 384.712 110.22C384.272 110.22 383.892 110.376 383.572 110.688C383.26 111 383.104 111.376 383.104 111.816C383.104 112.256 383.26 112.632 383.572 112.944C383.892 113.256 384.272 113.412 384.712 113.412Z" fill="white"/>
</g>
<g filter="url(#filter3_d_790_4023)">
<circle cx="361.664" cy="139.5" r="8" fill="#4268FF"/>
<circle cx="361.664" cy="139.5" r="7" stroke="white" stroke-width="2"/>
</g>
<path d="M368.673 154.054C368.496 151.923 370.851 150.884 372.376 151.901H372.377L372.673 152.1L373.523 152.675C377.762 155.575 381.752 158.825 385.449 162.392V162.393C386.28 163.195 386.342 164.286 385.913 165.112C385.527 165.857 384.722 166.426 383.751 166.4L383.555 166.387L378.289 165.823C378.166 165.81 378.091 165.879 378.072 165.921V165.922L375.943 170.618C375.055 172.579 372.118 172.43 371.524 170.276C370.094 165.084 369.15 159.769 368.702 154.401L368.673 154.054Z" fill="white" stroke="#B1C0FF" stroke-width="2"/>
</g>
</g>
<defs>
<filter id="filter0_d_790_4023" x="-6.33594" y="55.5" width="470" height="217" filterUnits="userSpaceOnUse" color-interpolation-filters="sRGB">
<feFlood flood-opacity="0" result="BackgroundImageFix"/>
<feColorMatrix in="SourceAlpha" type="matrix" values="0 0 0 0 0 0 0 0 0 0 0 0 0 0 0 0 0 0 127 0" result="hardAlpha"/>
<feOffset dy="4"/>
<feGaussianBlur stdDeviation="10"/>
<feComposite in2="hardAlpha" operator="out"/>
<feColorMatrix type="matrix" values="0 0 0 0 0.0468057 0 0 0 0 0.0634939 0 0 0 0 0.129808 0 0 0 0.1 0"/>
<feBlend mode="normal" in2="BackgroundImageFix" result="effect1_dropShadow_790_4023"/>
<feBlend mode="normal" in="SourceGraphic" in2="effect1_dropShadow_790_4023" result="shape"/>
</filter>
<filter id="filter1_i_790_4023" x="45.6641" y="139.5" width="351" height="29" filterUnits="userSpaceOnUse" color-interpolation-filters="sRGB">
<feFlood flood-opacity="0" result="BackgroundImageFix"/>
<feBlend mode="normal" in="SourceGraphic" in2="BackgroundImageFix" result="shape"/>
<feColorMatrix in="SourceAlpha" type="matrix" values="0 0 0 0 0 0 0 0 0 0 0 0 0 0 0 0 0 0 127 0" result="hardAlpha"/>
<feOffset dy="4"/>
<feGaussianBlur stdDeviation="2"/>
<feComposite in2="hardAlpha" operator="arithmetic" k2="-1" k3="1"/>
<feColorMatrix type="matrix" values="0 0 0 0 0 0 0 0 0 0 0 0 0 0 0 0 0 0 0.25 0"/>
<feBlend mode="normal" in2="shape" result="effect1_innerShadow_790_4023"/>
</filter>
<filter id="filter2_d_790_4023" x="310.664" y="86.5" width="98" height="49" filterUnits="userSpaceOnUse" color-interpolation-filters="sRGB">
<feFlood flood-opacity="0" result="BackgroundImageFix"/>
<feColorMatrix in="SourceAlpha" type="matrix" values="0 0 0 0 0 0 0 0 0 0 0 0 0 0 0 0 0 0 127 0" result="hardAlpha"/>
<feOffset dy="4"/>
<feGaussianBlur stdDeviation="2"/>
<feComposite in2="hardAlpha" operator="out"/>
<feColorMatrix type="matrix" values="0 0 0 0 0.259615 0 0 0 0 0.407692 0 0 0 0 1 0 0 0 0.15 0"/>
<feBlend mode="normal" in2="BackgroundImageFix" result="effect1_dropShadow_790_4023"/>
<feBlend mode="normal" in="SourceGraphic" in2="effect1_dropShadow_790_4023" result="shape"/>
</filter>
<filter id="filter3_d_790_4023" x="349.664" y="131.5" width="24" height="24" filterUnits="userSpaceOnUse" color-interpolation-filters="sRGB">
<feFlood flood-opacity="0" result="BackgroundImageFix"/>
<feColorMatrix in="SourceAlpha" type="matrix" values="0 0 0 0 0 0 0 0 0 0 0 0 0 0 0 0 0 0 127 0" result="hardAlpha"/>
<feOffset dy="4"/>
<feGaussianBlur stdDeviation="2"/>
<feComposite in2="hardAlpha" operator="out"/>
<feColorMatrix type="matrix" values="0 0 0 0 0.259615 0 0 0 0 0.407692 0 0 0 0 1 0 0 0 0.25 0"/>
<feBlend mode="normal" in2="BackgroundImageFix" result="effect1_dropShadow_790_4023"/>
<feBlend mode="normal" in="SourceGraphic" in2="effect1_dropShadow_790_4023" result="shape"/>
</filter>
<clipPath id="clip0_790_4023">
<rect width="458" height="318" fill="white" transform="translate(0 0.5)"/>
</clipPath>
<clipPath id="clip1_790_4023">
<rect x="45.6641" y="139.5" width="366" height="25" rx="12.5" fill="white"/>
</clipPath>
</defs>
</svg>
