<svg width="508" height="318" viewBox="0 0 508 318" fill="none" xmlns="http://www.w3.org/2000/svg">
<g filter="url(#filter0_n_776_1008)">
<g filter="url(#filter1_d_776_1008)">
<rect x="39" y="71" width="430" height="177" rx="24" fill="white" shape-rendering="crispEdges"/>
<rect x="39.5" y="71.5" width="429" height="176" rx="23.5" stroke="#0C1021" stroke-opacity="0.05" shape-rendering="crispEdges"/>
<path d="M78.68 122.26C77.7333 122.26 76.8433 122.073 76.01 121.7C75.1767 121.32 74.4433 120.8 73.81 120.14C73.1833 119.473 72.69 118.7 72.33 117.82C71.9767 116.94 71.8 116 71.8 115C71.8 114 71.9767 113.06 72.33 112.18C72.69 111.3 73.1833 110.53 73.81 109.87C74.4433 109.203 75.1767 108.683 76.01 108.31C76.8433 107.93 77.7333 107.74 78.68 107.74C79.8133 107.74 80.8567 108.003 81.81 108.53C82.7633 109.057 83.5533 109.757 84.18 110.63L82.94 111.3C82.4467 110.64 81.82 110.117 81.06 109.73C80.3067 109.337 79.5133 109.14 78.68 109.14C77.9133 109.14 77.1967 109.297 76.53 109.61C75.87 109.917 75.29 110.34 74.79 110.88C74.29 111.42 73.9 112.043 73.62 112.75C73.34 113.457 73.2 114.207 73.2 115C73.2 115.807 73.34 116.563 73.62 117.27C73.9067 117.977 74.3 118.6 74.8 119.14C75.3067 119.68 75.89 120.103 76.55 120.41C77.2167 120.71 77.9267 120.86 78.68 120.86C79.5467 120.86 80.35 120.663 81.09 120.27C81.8367 119.87 82.4533 119.35 82.94 118.71L84.18 119.38C83.5533 120.253 82.7633 120.953 81.81 121.48C80.8567 122 79.8133 122.26 78.68 122.26ZM93.8966 112H95.2966V122H93.8966L93.8466 120.14C93.5199 120.773 93.0632 121.287 92.4766 121.68C91.8899 122.067 91.1899 122.26 90.3766 122.26C89.6432 122.26 88.9566 122.123 88.3166 121.85C87.6766 121.57 87.1132 121.187 86.6266 120.7C86.1399 120.213 85.7599 119.65 85.4866 119.01C85.2132 118.37 85.0766 117.683 85.0766 116.95C85.0766 116.23 85.2099 115.553 85.4766 114.92C85.7499 114.287 86.1232 113.73 86.5966 113.25C87.0766 112.77 87.6299 112.397 88.2566 112.13C88.8899 111.857 89.5666 111.72 90.2866 111.72C91.1199 111.72 91.8466 111.92 92.4666 112.32C93.0866 112.713 93.5799 113.23 93.9466 113.87L93.8966 112ZM90.3466 120.9C91.0599 120.9 91.6732 120.727 92.1866 120.38C92.6999 120.027 93.0932 119.553 93.3666 118.96C93.6466 118.367 93.7866 117.713 93.7866 117C93.7866 116.267 93.6466 115.607 93.3666 115.02C93.0866 114.427 92.6899 113.957 92.1766 113.61C91.6632 113.263 91.0532 113.09 90.3466 113.09C89.6399 113.09 88.9932 113.267 88.4066 113.62C87.8266 113.967 87.3632 114.437 87.0166 115.03C86.6766 115.623 86.5066 116.28 86.5066 117C86.5066 117.727 86.6832 118.387 87.0366 118.98C87.3899 119.567 87.8566 120.033 88.4366 120.38C89.0232 120.727 89.6599 120.9 90.3466 120.9ZM97.4344 122V107H98.8344V122H97.4344ZM101.243 122V107H102.643V122H101.243ZM116.336 122.26C115.39 122.26 114.5 122.073 113.666 121.7C112.833 121.32 112.1 120.8 111.466 120.14C110.84 119.473 110.346 118.7 109.986 117.82C109.633 116.94 109.456 116 109.456 115C109.456 114 109.633 113.06 109.986 112.18C110.346 111.3 110.84 110.53 111.466 109.87C112.1 109.203 112.833 108.683 113.666 108.31C114.5 107.93 115.39 107.74 116.336 107.74C117.47 107.74 118.513 108.003 119.466 108.53C120.42 109.057 121.21 109.757 121.836 110.63L120.596 111.3C120.103 110.64 119.476 110.117 118.716 109.73C117.963 109.337 117.17 109.14 116.336 109.14C115.57 109.14 114.853 109.297 114.186 109.61C113.526 109.917 112.946 110.34 112.446 110.88C111.946 111.42 111.556 112.043 111.276 112.75C110.996 113.457 110.856 114.207 110.856 115C110.856 115.807 110.996 116.563 111.276 117.27C111.563 117.977 111.956 118.6 112.456 119.14C112.963 119.68 113.546 120.103 114.206 120.41C114.873 120.71 115.583 120.86 116.336 120.86C117.203 120.86 118.006 120.663 118.746 120.27C119.493 119.87 120.11 119.35 120.596 118.71L121.836 119.38C121.21 120.253 120.42 120.953 119.466 121.48C118.513 122 117.47 122.26 116.336 122.26ZM127.733 122.26C126.813 122.26 125.973 122.023 125.213 121.55C124.459 121.077 123.856 120.443 123.403 119.65C122.956 118.85 122.733 117.967 122.733 117C122.733 116.267 122.863 115.583 123.123 114.95C123.383 114.31 123.739 113.75 124.193 113.27C124.653 112.783 125.186 112.403 125.793 112.13C126.399 111.857 127.046 111.72 127.733 111.72C128.653 111.72 129.489 111.957 130.243 112.43C131.003 112.903 131.606 113.54 132.053 114.34C132.506 115.14 132.733 116.027 132.733 117C132.733 117.727 132.603 118.407 132.343 119.04C132.083 119.673 131.723 120.233 131.263 120.72C130.809 121.2 130.279 121.577 129.673 121.85C129.073 122.123 128.426 122.26 127.733 122.26ZM127.733 120.86C128.413 120.86 129.023 120.683 129.563 120.33C130.109 119.97 130.539 119.497 130.853 118.91C131.173 118.323 131.333 117.687 131.333 117C131.333 116.3 131.173 115.657 130.853 115.07C130.533 114.477 130.099 114.003 129.553 113.65C129.013 113.297 128.406 113.12 127.733 113.12C127.053 113.12 126.439 113.3 125.893 113.66C125.353 114.013 124.923 114.483 124.603 115.07C124.289 115.657 124.133 116.3 124.133 117C124.133 117.72 124.296 118.373 124.623 118.96C124.949 119.54 125.386 120.003 125.933 120.35C126.479 120.69 127.079 120.86 127.733 120.86ZM134.427 122V112H135.827V113.38C136.187 112.873 136.647 112.47 137.207 112.17C137.767 111.87 138.38 111.72 139.047 111.72C139.8 111.72 140.49 111.907 141.117 112.28C141.743 112.647 142.233 113.137 142.587 113.75C142.94 113.137 143.427 112.647 144.047 112.28C144.667 111.907 145.353 111.72 146.107 111.72C146.86 111.72 147.547 111.903 148.167 112.27C148.787 112.637 149.28 113.13 149.647 113.75C150.013 114.37 150.197 115.057 150.197 115.81V122H148.797V116.12C148.797 115.587 148.667 115.093 148.407 114.64C148.147 114.187 147.797 113.823 147.357 113.55C146.923 113.27 146.44 113.13 145.907 113.13C145.373 113.13 144.887 113.26 144.447 113.52C144.013 113.773 143.667 114.127 143.407 114.58C143.147 115.027 143.017 115.54 143.017 116.12V122H141.617V116.12C141.617 115.54 141.487 115.027 141.227 114.58C140.967 114.127 140.617 113.773 140.177 113.52C139.737 113.26 139.25 113.13 138.717 113.13C138.19 113.13 137.707 113.27 137.267 113.55C136.827 113.823 136.477 114.187 136.217 114.64C135.957 115.093 135.827 115.587 135.827 116.12V122H134.427ZM153.6 127H152.2V112H153.6V113.87C153.947 113.237 154.42 112.723 155.02 112.33C155.62 111.937 156.333 111.74 157.16 111.74C157.887 111.74 158.567 111.877 159.2 112.15C159.84 112.423 160.4 112.803 160.88 113.29C161.36 113.77 161.737 114.327 162.01 114.96C162.283 115.593 162.42 116.273 162.42 117C162.42 117.727 162.283 118.41 162.01 119.05C161.737 119.69 161.36 120.253 160.88 120.74C160.4 121.22 159.84 121.597 159.2 121.87C158.567 122.143 157.887 122.28 157.16 122.28C156.333 122.28 155.62 122.083 155.02 121.69C154.42 121.297 153.947 120.783 153.6 120.15V127ZM157.15 113.1C156.45 113.1 155.84 113.277 155.32 113.63C154.807 113.977 154.41 114.443 154.13 115.03C153.85 115.617 153.71 116.273 153.71 117C153.71 117.713 153.847 118.367 154.12 118.96C154.4 119.553 154.797 120.027 155.31 120.38C155.83 120.733 156.443 120.91 157.15 120.91C157.843 120.91 158.48 120.737 159.06 120.39C159.647 120.043 160.117 119.577 160.47 118.99C160.823 118.397 161 117.733 161 117C161 116.287 160.827 115.637 160.48 115.05C160.133 114.457 159.67 113.983 159.09 113.63C158.51 113.277 157.863 113.1 157.15 113.1ZM164.036 122V107H165.436V122H164.036ZM172.166 122.26C171.246 122.26 170.406 122.023 169.646 121.55C168.893 121.077 168.29 120.443 167.836 119.65C167.39 118.85 167.166 117.967 167.166 117C167.166 116.267 167.296 115.583 167.556 114.95C167.816 114.31 168.173 113.75 168.626 113.27C169.086 112.783 169.62 112.403 170.226 112.13C170.833 111.857 171.48 111.72 172.166 111.72C172.906 111.72 173.586 111.867 174.206 112.16C174.833 112.453 175.37 112.863 175.816 113.39C176.27 113.917 176.61 114.533 176.836 115.24C177.07 115.947 177.166 116.71 177.126 117.53H168.646C168.726 118.163 168.926 118.73 169.246 119.23C169.573 119.73 169.986 120.127 170.486 120.42C170.993 120.707 171.553 120.853 172.166 120.86C172.833 120.86 173.433 120.687 173.966 120.34C174.506 119.993 174.94 119.517 175.266 118.91L176.686 119.24C176.286 120.127 175.683 120.853 174.876 121.42C174.07 121.98 173.166 122.26 172.166 122.26ZM168.606 116.4H175.716C175.67 115.78 175.48 115.213 175.146 114.7C174.82 114.18 174.396 113.767 173.876 113.46C173.356 113.147 172.786 112.99 172.166 112.99C171.546 112.99 170.98 113.143 170.466 113.45C169.953 113.75 169.533 114.16 169.206 114.68C168.88 115.193 168.68 115.767 168.606 116.4ZM183.775 113.4H181.385L181.375 122H179.975L179.985 113.4H178.175V112H179.985L179.975 108.86H181.375L181.385 112H183.775V113.4ZM185.481 112H186.881V122H185.481V112ZM186.191 110.25C185.965 110.25 185.771 110.177 185.611 110.03C185.458 109.877 185.381 109.687 185.381 109.46C185.381 109.233 185.458 109.047 185.611 108.9C185.771 108.747 185.965 108.67 186.191 108.67C186.411 108.67 186.598 108.747 186.751 108.9C186.911 109.047 186.991 109.233 186.991 109.46C186.991 109.687 186.915 109.877 186.761 110.03C186.608 110.177 186.418 110.25 186.191 110.25ZM193.592 122.26C192.672 122.26 191.832 122.023 191.072 121.55C190.319 121.077 189.716 120.443 189.262 119.65C188.816 118.85 188.592 117.967 188.592 117C188.592 116.267 188.722 115.583 188.982 114.95C189.242 114.31 189.599 113.75 190.052 113.27C190.512 112.783 191.046 112.403 191.652 112.13C192.259 111.857 192.906 111.72 193.592 111.72C194.512 111.72 195.349 111.957 196.102 112.43C196.862 112.903 197.466 113.54 197.912 114.34C198.366 115.14 198.592 116.027 198.592 117C198.592 117.727 198.462 118.407 198.202 119.04C197.942 119.673 197.582 120.233 197.122 120.72C196.669 121.2 196.139 121.577 195.532 121.85C194.932 122.123 194.286 122.26 193.592 122.26ZM193.592 120.86C194.272 120.86 194.882 120.683 195.422 120.33C195.969 119.97 196.399 119.497 196.712 118.91C197.032 118.323 197.192 117.687 197.192 117C197.192 116.3 197.032 115.657 196.712 115.07C196.392 114.477 195.959 114.003 195.412 113.65C194.872 113.297 194.266 113.12 193.592 113.12C192.912 113.12 192.299 113.3 191.752 113.66C191.212 114.013 190.782 114.483 190.462 115.07C190.149 115.657 189.992 116.3 189.992 117C189.992 117.72 190.156 118.373 190.482 118.96C190.809 119.54 191.246 120.003 191.792 120.35C192.339 120.69 192.939 120.86 193.592 120.86ZM209.006 115.81V122H207.606V116.09C207.606 115.543 207.473 115.047 207.206 114.6C206.939 114.153 206.583 113.797 206.136 113.53C205.689 113.263 205.193 113.13 204.646 113.13C204.106 113.13 203.609 113.263 203.156 113.53C202.709 113.797 202.353 114.153 202.086 114.6C201.819 115.047 201.686 115.543 201.686 116.09V122H200.286V112H201.686V113.38C202.039 112.873 202.499 112.47 203.066 112.17C203.633 111.87 204.249 111.72 204.916 111.72C205.669 111.72 206.356 111.903 206.976 112.27C207.596 112.637 208.089 113.13 208.456 113.75C208.823 114.37 209.006 115.057 209.006 115.81ZM215.813 122V108H220.563C221.31 108 221.983 108.183 222.583 108.55C223.183 108.91 223.66 109.4 224.013 110.02C224.367 110.633 224.543 111.323 224.543 112.09C224.543 112.777 224.403 113.4 224.123 113.96C223.843 114.52 223.46 114.983 222.973 115.35C222.493 115.717 221.95 115.96 221.343 116.08L224.763 122H223.143L219.773 116.19H217.213V122H215.813ZM217.213 114.79H220.443C220.937 114.79 221.387 114.67 221.793 114.43C222.207 114.183 222.533 113.853 222.773 113.44C223.02 113.02 223.143 112.547 223.143 112.02C223.143 111.493 223.02 111.023 222.773 110.61C222.533 110.19 222.207 109.86 221.793 109.62C221.387 109.373 220.937 109.25 220.443 109.25H217.213V114.79ZM234.815 112H236.215V122H234.815L234.765 120.14C234.438 120.773 233.981 121.287 233.395 121.68C232.808 122.067 232.108 122.26 231.295 122.26C230.561 122.26 229.875 122.123 229.235 121.85C228.595 121.57 228.031 121.187 227.545 120.7C227.058 120.213 226.678 119.65 226.405 119.01C226.131 118.37 225.995 117.683 225.995 116.95C225.995 116.23 226.128 115.553 226.395 114.92C226.668 114.287 227.041 113.73 227.515 113.25C227.995 112.77 228.548 112.397 229.175 112.13C229.808 111.857 230.485 111.72 231.205 111.72C232.038 111.72 232.765 111.92 233.385 112.32C234.005 112.713 234.498 113.23 234.865 113.87L234.815 112ZM231.265 120.9C231.978 120.9 232.591 120.727 233.105 120.38C233.618 120.027 234.011 119.553 234.285 118.96C234.565 118.367 234.705 117.713 234.705 117C234.705 116.267 234.565 115.607 234.285 115.02C234.005 114.427 233.608 113.957 233.095 113.61C232.581 113.263 231.971 113.09 231.265 113.09C230.558 113.09 229.911 113.267 229.325 113.62C228.745 113.967 228.281 114.437 227.935 115.03C227.595 115.623 227.425 116.28 227.425 117C227.425 117.727 227.601 118.387 227.955 118.98C228.308 119.567 228.775 120.033 229.355 120.38C229.941 120.727 230.578 120.9 231.265 120.9ZM243.326 113.4H240.936L240.926 122H239.526L239.536 113.4H237.726V112H239.536L239.526 108.86H240.926L240.936 112H243.326V113.4ZM249.237 122.26C248.317 122.26 247.477 122.023 246.717 121.55C245.963 121.077 245.36 120.443 244.907 119.65C244.46 118.85 244.237 117.967 244.237 117C244.237 116.267 244.367 115.583 244.627 114.95C244.887 114.31 245.243 113.75 245.697 113.27C246.157 112.783 246.69 112.403 247.297 112.13C247.903 111.857 248.55 111.72 249.237 111.72C249.977 111.72 250.657 111.867 251.277 112.16C251.903 112.453 252.44 112.863 252.887 113.39C253.34 113.917 253.68 114.533 253.907 115.24C254.14 115.947 254.237 116.71 254.197 117.53H245.717C245.797 118.163 245.997 118.73 246.317 119.23C246.643 119.73 247.057 120.127 247.557 120.42C248.063 120.707 248.623 120.853 249.237 120.86C249.903 120.86 250.503 120.687 251.037 120.34C251.577 119.993 252.01 119.517 252.337 118.91L253.757 119.24C253.357 120.127 252.753 120.853 251.947 121.42C251.14 121.98 250.237 122.26 249.237 122.26ZM245.677 116.4H252.787C252.74 115.78 252.55 115.213 252.217 114.7C251.89 114.18 251.467 113.767 250.947 113.46C250.427 113.147 249.857 112.99 249.237 112.99C248.617 112.99 248.05 113.143 247.537 113.45C247.023 113.75 246.603 114.16 246.277 114.68C245.95 115.193 245.75 115.767 245.677 116.4Z" fill="#0C1021"/>
<g clip-path="url(#clip0_776_1008)">
<rect x="71" y="139" width="366" height="25" fill="#F1F1F1"/>
<g filter="url(#filter2_i_776_1008)">
<rect x="71" y="139" width="351" height="25" fill="#4268FF"/>
</g>
</g>
<circle cx="76" cy="196" r="5" fill="#4268FF"/>
<path d="M92.376 189.182C91.7133 189.182 91.0903 189.051 90.507 188.79C89.9237 188.524 89.4103 188.16 88.967 187.698C88.5283 187.231 88.183 186.69 87.931 186.074C87.6837 185.458 87.56 184.8 87.56 184.1C87.56 183.4 87.6837 182.742 87.931 182.126C88.183 181.51 88.5283 180.971 88.967 180.509C89.4103 180.042 89.9237 179.678 90.507 179.417C91.0903 179.151 91.7133 179.018 92.376 179.018C93.1693 179.018 93.8997 179.202 94.567 179.571C95.2343 179.94 95.7873 180.43 96.226 181.041L95.358 181.51C95.0127 181.048 94.574 180.682 94.042 180.411C93.5147 180.136 92.9593 179.998 92.376 179.998C91.8393 179.998 91.3377 180.108 90.871 180.327C90.409 180.542 90.003 180.838 89.653 181.216C89.303 181.594 89.03 182.03 88.834 182.525C88.638 183.02 88.54 183.545 88.54 184.1C88.54 184.665 88.638 185.194 88.834 185.689C89.0347 186.184 89.31 186.62 89.66 186.998C90.0147 187.376 90.423 187.672 90.885 187.887C91.3517 188.097 91.8487 188.202 92.376 188.202C92.9827 188.202 93.545 188.064 94.063 187.789C94.5857 187.509 95.0173 187.145 95.358 186.697L96.226 187.166C95.7873 187.777 95.2343 188.267 94.567 188.636C93.8997 189 93.1693 189.182 92.376 189.182ZM100.354 189.182C99.7096 189.182 99.1216 189.016 98.5896 188.685C98.0623 188.354 97.6399 187.91 97.3226 187.355C97.0099 186.795 96.8536 186.177 96.8536 185.5C96.8536 184.987 96.9446 184.508 97.1266 184.065C97.3086 183.617 97.5583 183.225 97.8756 182.889C98.1976 182.548 98.5709 182.282 98.9956 182.091C99.4203 181.9 99.8729 181.804 100.354 181.804C100.998 181.804 101.583 181.97 102.111 182.301C102.643 182.632 103.065 183.078 103.378 183.638C103.695 184.198 103.854 184.819 103.854 185.5C103.854 186.009 103.763 186.485 103.581 186.928C103.399 187.371 103.147 187.763 102.825 188.104C102.507 188.44 102.136 188.704 101.712 188.895C101.292 189.086 100.839 189.182 100.354 189.182ZM100.354 188.202C100.83 188.202 101.257 188.078 101.635 187.831C102.017 187.579 102.318 187.248 102.538 186.837C102.762 186.426 102.874 185.981 102.874 185.5C102.874 185.01 102.762 184.56 102.538 184.149C102.314 183.734 102.01 183.402 101.628 183.155C101.25 182.908 100.825 182.784 100.354 182.784C99.8776 182.784 99.4483 182.91 99.0656 183.162C98.6876 183.409 98.3866 183.738 98.1626 184.149C97.9433 184.56 97.8336 185.01 97.8336 185.5C97.8336 186.004 97.9479 186.461 98.1766 186.872C98.4053 187.278 98.7109 187.602 99.0936 187.845C99.4763 188.083 99.8963 188.202 100.354 188.202ZM105.039 189V182H106.019V182.966C106.271 182.611 106.593 182.329 106.985 182.119C107.377 181.909 107.807 181.804 108.273 181.804C108.801 181.804 109.284 181.935 109.722 182.196C110.161 182.453 110.504 182.796 110.751 183.225C110.999 182.796 111.339 182.453 111.773 182.196C112.207 181.935 112.688 181.804 113.215 181.804C113.743 181.804 114.223 181.932 114.657 182.189C115.091 182.446 115.437 182.791 115.693 183.225C115.95 183.659 116.078 184.14 116.078 184.667V189H115.098V184.884C115.098 184.511 115.007 184.165 114.825 183.848C114.643 183.531 114.398 183.276 114.09 183.085C113.787 182.889 113.449 182.791 113.075 182.791C112.702 182.791 112.361 182.882 112.053 183.064C111.75 183.241 111.507 183.489 111.325 183.806C111.143 184.119 111.052 184.478 111.052 184.884V189H110.072V184.884C110.072 184.478 109.981 184.119 109.799 183.806C109.617 183.489 109.372 183.241 109.064 183.064C108.756 182.882 108.416 182.791 108.042 182.791C107.674 182.791 107.335 182.889 107.027 183.085C106.719 183.276 106.474 183.531 106.292 183.848C106.11 184.165 106.019 184.511 106.019 184.884V189H105.039ZM118.461 192.5H117.481V182H118.461V183.309C118.703 182.866 119.035 182.506 119.455 182.231C119.875 181.956 120.374 181.818 120.953 181.818C121.461 181.818 121.937 181.914 122.381 182.105C122.829 182.296 123.221 182.562 123.557 182.903C123.893 183.239 124.156 183.629 124.348 184.072C124.539 184.515 124.635 184.991 124.635 185.5C124.635 186.009 124.539 186.487 124.348 186.935C124.156 187.383 123.893 187.777 123.557 188.118C123.221 188.454 122.829 188.718 122.381 188.909C121.937 189.1 121.461 189.196 120.953 189.196C120.374 189.196 119.875 189.058 119.455 188.783C119.035 188.508 118.703 188.148 118.461 187.705V192.5ZM120.946 182.77C120.456 182.77 120.029 182.894 119.665 183.141C119.305 183.384 119.028 183.71 118.832 184.121C118.636 184.532 118.538 184.991 118.538 185.5C118.538 185.999 118.633 186.457 118.825 186.872C119.021 187.287 119.298 187.619 119.658 187.866C120.022 188.113 120.451 188.237 120.946 188.237C121.431 188.237 121.877 188.116 122.283 187.873C122.693 187.63 123.022 187.304 123.27 186.893C123.517 186.478 123.641 186.013 123.641 185.5C123.641 185.001 123.519 184.546 123.277 184.135C123.034 183.72 122.71 183.388 122.304 183.141C121.898 182.894 121.445 182.77 120.946 182.77ZM125.766 189V178.5H126.746V189H125.766ZM131.457 189.182C130.813 189.182 130.225 189.016 129.693 188.685C129.166 188.354 128.743 187.91 128.426 187.355C128.113 186.795 127.957 186.177 127.957 185.5C127.957 184.987 128.048 184.508 128.23 184.065C128.412 183.617 128.662 183.225 128.979 182.889C129.301 182.548 129.674 182.282 130.099 182.091C130.524 181.9 130.976 181.804 131.457 181.804C131.975 181.804 132.451 181.907 132.885 182.112C133.324 182.317 133.699 182.604 134.012 182.973C134.329 183.342 134.567 183.773 134.726 184.268C134.889 184.763 134.957 185.297 134.929 185.871H128.993C129.049 186.314 129.189 186.711 129.413 187.061C129.642 187.411 129.931 187.689 130.281 187.894C130.636 188.095 131.028 188.197 131.457 188.202C131.924 188.202 132.344 188.081 132.717 187.838C133.095 187.595 133.398 187.262 133.627 186.837L134.621 187.068C134.341 187.689 133.919 188.197 133.354 188.594C132.789 188.986 132.157 189.182 131.457 189.182ZM128.965 185.08H133.942C133.909 184.646 133.776 184.249 133.543 183.89C133.314 183.526 133.018 183.237 132.654 183.022C132.29 182.803 131.891 182.693 131.457 182.693C131.023 182.693 130.626 182.8 130.267 183.015C129.908 183.225 129.614 183.512 129.385 183.876C129.156 184.235 129.016 184.637 128.965 185.08ZM139.583 182.98H137.91L137.903 189H136.923L136.93 182.98H135.663V182H136.93L136.923 179.802H137.903L137.91 182H139.583V182.98ZM143.721 189.182C143.077 189.182 142.489 189.016 141.957 188.685C141.429 188.354 141.007 187.91 140.69 187.355C140.377 186.795 140.221 186.177 140.221 185.5C140.221 184.987 140.312 184.508 140.494 184.065C140.676 183.617 140.925 183.225 141.243 182.889C141.565 182.548 141.938 182.282 142.363 182.091C142.787 181.9 143.24 181.804 143.721 181.804C144.239 181.804 144.715 181.907 145.149 182.112C145.587 182.317 145.963 182.604 146.276 182.973C146.593 183.342 146.831 183.773 146.99 184.268C147.153 184.763 147.221 185.297 147.193 185.871H141.257C141.313 186.314 141.453 186.711 141.677 187.061C141.905 187.411 142.195 187.689 142.545 187.894C142.899 188.095 143.291 188.197 143.721 188.202C144.187 188.202 144.607 188.081 144.981 187.838C145.359 187.595 145.662 187.262 145.891 186.837L146.885 187.068C146.605 187.689 146.182 188.197 145.618 188.594C145.053 188.986 144.421 189.182 143.721 189.182ZM141.229 185.08H146.206C146.173 184.646 146.04 184.249 145.807 183.89C145.578 183.526 145.282 183.237 144.918 183.022C144.554 182.803 144.155 182.693 143.721 182.693C143.287 182.693 142.89 182.8 142.531 183.015C142.171 183.225 141.877 183.512 141.649 183.876C141.42 184.235 141.28 184.637 141.229 185.08ZM154.085 178.5H155.065V189H154.085V187.691C153.843 188.139 153.509 188.501 153.084 188.776C152.664 189.047 152.165 189.182 151.586 189.182C151.078 189.182 150.602 189.086 150.158 188.895C149.715 188.704 149.323 188.44 148.982 188.104C148.646 187.763 148.383 187.371 148.191 186.928C148 186.485 147.904 186.009 147.904 185.5C147.904 184.991 148 184.515 148.191 184.072C148.383 183.624 148.646 183.232 148.982 182.896C149.323 182.555 149.715 182.289 150.158 182.098C150.602 181.907 151.078 181.811 151.586 181.811C152.165 181.811 152.664 181.949 153.084 182.224C153.509 182.495 153.843 182.852 154.085 183.295V178.5ZM151.593 188.23C152.093 188.23 152.522 188.109 152.881 187.866C153.241 187.619 153.516 187.287 153.707 186.872C153.903 186.457 154.001 185.999 154.001 185.5C154.001 184.987 153.903 184.525 153.707 184.114C153.511 183.699 153.234 183.37 152.874 183.127C152.515 182.884 152.088 182.763 151.593 182.763C151.099 182.763 150.648 182.887 150.242 183.134C149.836 183.377 149.512 183.706 149.269 184.121C149.027 184.536 148.905 184.996 148.905 185.5C148.905 186.009 149.029 186.471 149.276 186.886C149.524 187.297 149.85 187.623 150.256 187.866C150.667 188.109 151.113 188.23 151.593 188.23Z" fill="#535662"/>
<path d="M89.816 212L92.288 207.72C91.7227 207.933 91.1573 208 90.592 207.92C90.0267 207.835 89.5093 207.632 89.04 207.312C88.5707 206.987 88.192 206.571 87.904 206.064C87.6213 205.552 87.48 204.976 87.48 204.336C87.48 203.824 87.576 203.341 87.768 202.888C87.9653 202.435 88.2347 202.037 88.576 201.696C88.9173 201.349 89.312 201.08 89.76 200.888C90.2133 200.691 90.6987 200.592 91.216 200.592C91.8987 200.592 92.52 200.763 93.08 201.104C93.6453 201.44 94.096 201.891 94.432 202.456C94.7733 203.021 94.944 203.648 94.944 204.336C94.944 204.725 94.896 205.061 94.8 205.344C94.7093 205.621 94.5707 205.933 94.384 206.28L91.104 212H89.816ZM91.2 206.96C91.7067 206.96 92.1573 206.84 92.552 206.6C92.952 206.355 93.2667 206.032 93.496 205.632C93.7253 205.232 93.84 204.803 93.84 204.344C93.84 203.843 93.7173 203.395 93.472 203C93.232 202.6 92.912 202.285 92.512 202.056C92.112 201.821 91.68 201.704 91.216 201.704C90.704 201.704 90.248 201.827 89.848 202.072C89.4533 202.317 89.1413 202.643 88.912 203.048C88.688 203.448 88.576 203.88 88.576 204.344C88.576 204.824 88.6933 205.264 88.928 205.664C89.1627 206.059 89.4773 206.373 89.872 206.608C90.272 206.843 90.7147 206.96 91.2 206.96ZM99.6299 212.208C98.9739 212.208 98.3739 212.059 97.8299 211.76C97.2912 211.461 96.8619 211.061 96.5419 210.56C96.2219 210.059 96.0619 209.501 96.0619 208.888C96.0619 208.291 96.2272 207.747 96.5579 207.256C96.8885 206.76 97.3179 206.376 97.8459 206.104C97.4085 205.853 97.0485 205.512 96.7659 205.08C96.4832 204.643 96.3419 204.163 96.3419 203.64C96.3419 203.08 96.4885 202.571 96.7819 202.112C97.0805 201.648 97.4779 201.28 97.9739 201.008C98.4752 200.731 99.0272 200.592 99.6299 200.592C100.233 200.592 100.782 200.731 101.278 201.008C101.779 201.28 102.177 201.648 102.47 202.112C102.769 202.571 102.918 203.08 102.918 203.64C102.918 204.163 102.777 204.643 102.494 205.08C102.217 205.512 101.857 205.853 101.414 206.104C101.953 206.376 102.385 206.76 102.71 207.256C103.041 207.747 103.206 208.291 103.206 208.888C103.206 209.496 103.043 210.053 102.718 210.56C102.398 211.061 101.969 211.461 101.43 211.76C100.891 212.059 100.291 212.208 99.6299 212.208ZM99.6299 211.088C100.073 211.088 100.473 210.989 100.83 210.792C101.187 210.595 101.473 210.331 101.686 210C101.899 209.664 102.006 209.293 102.006 208.888C102.006 208.483 101.899 208.115 101.686 207.784C101.473 207.453 101.187 207.189 100.83 206.992C100.473 206.795 100.073 206.696 99.6299 206.696C99.1979 206.696 98.8005 206.795 98.4379 206.992C98.0805 207.189 97.7925 207.453 97.5739 207.784C97.3605 208.115 97.2539 208.483 97.2539 208.888C97.2539 209.293 97.3605 209.664 97.5739 210C97.7925 210.331 98.0805 210.595 98.4379 210.792C98.8005 210.989 99.1979 211.088 99.6299 211.088ZM99.6299 205.576C100.019 205.576 100.371 205.491 100.686 205.32C101.001 205.144 101.251 204.909 101.438 204.616C101.63 204.323 101.726 203.997 101.726 203.64C101.726 203.283 101.63 202.96 101.438 202.672C101.251 202.379 101.001 202.147 100.686 201.976C100.371 201.8 100.019 201.712 99.6299 201.712C99.2459 201.712 98.8939 201.8 98.5739 201.976C98.2592 202.147 98.0059 202.379 97.8139 202.672C97.6272 202.96 97.5339 203.283 97.5339 203.64C97.5339 203.997 97.6272 204.323 97.8139 204.616C98.0059 204.909 98.2592 205.144 98.5739 205.32C98.8939 205.491 99.2459 205.576 99.6299 205.576ZM105.116 212.208C104.94 212.208 104.79 212.144 104.668 212.016C104.545 211.893 104.484 211.741 104.484 211.56C104.484 211.389 104.545 211.243 104.668 211.12C104.79 210.992 104.94 210.928 105.116 210.928C105.297 210.928 105.449 210.992 105.572 211.12C105.7 211.243 105.764 211.389 105.764 211.56C105.764 211.741 105.7 211.893 105.572 212.016C105.449 212.144 105.297 212.208 105.116 212.208ZM110.975 212.208C110.271 212.208 109.625 212.035 109.039 211.688C108.457 211.336 107.991 210.867 107.639 210.28C107.292 209.693 107.119 209.045 107.119 208.336C107.119 207.925 107.167 207.576 107.263 207.288C107.359 206.995 107.5 206.669 107.687 206.312L110.863 200.8H112.167L109.839 204.832C110.308 204.651 110.78 204.571 111.255 204.592C111.729 204.608 112.183 204.712 112.615 204.904C113.047 205.096 113.431 205.36 113.767 205.696C114.103 206.027 114.367 206.416 114.559 206.864C114.756 207.312 114.855 207.803 114.855 208.336C114.855 208.869 114.753 209.371 114.551 209.84C114.348 210.304 114.068 210.715 113.711 211.072C113.359 211.424 112.948 211.701 112.479 211.904C112.009 212.107 111.508 212.208 110.975 212.208ZM110.975 211.088C111.508 211.088 111.983 210.96 112.399 210.704C112.815 210.443 113.14 210.101 113.375 209.68C113.615 209.259 113.735 208.808 113.735 208.328C113.735 207.827 113.612 207.371 113.367 206.96C113.121 206.544 112.791 206.213 112.375 205.968C111.959 205.717 111.497 205.592 110.991 205.592C110.468 205.592 109.999 205.72 109.583 205.976C109.167 206.232 108.839 206.568 108.599 206.984C108.359 207.395 108.239 207.843 108.239 208.328C108.239 208.851 108.364 209.32 108.615 209.736C108.871 210.152 109.207 210.483 109.623 210.728C110.039 210.968 110.489 211.088 110.975 211.088ZM116.568 212L123.032 200.8H124.328L117.864 212H116.568ZM117.88 205.176C117.528 205.176 117.208 205.091 116.92 204.92C116.632 204.749 116.4 204.52 116.224 204.232C116.053 203.939 115.968 203.616 115.968 203.264C115.968 202.901 116.053 202.576 116.224 202.288C116.4 202 116.632 201.771 116.92 201.6C117.213 201.429 117.533 201.344 117.88 201.344C118.232 201.344 118.552 201.432 118.84 201.608C119.128 201.779 119.357 202.008 119.528 202.296C119.704 202.584 119.792 202.907 119.792 203.264C119.792 203.621 119.704 203.944 119.528 204.232C119.357 204.52 119.125 204.749 118.832 204.92C118.544 205.091 118.227 205.176 117.88 205.176ZM117.88 204.32C118.179 204.32 118.429 204.219 118.632 204.016C118.835 203.808 118.936 203.557 118.936 203.264C118.936 202.965 118.835 202.715 118.632 202.512C118.429 202.304 118.179 202.2 117.88 202.2C117.587 202.2 117.336 202.304 117.128 202.512C116.925 202.715 116.824 202.965 116.824 203.264C116.824 203.557 116.925 203.808 117.128 204.016C117.336 204.219 117.587 204.32 117.88 204.32ZM123.032 211.464C122.68 211.464 122.357 211.376 122.064 211.2C121.776 211.019 121.544 210.784 121.368 210.496C121.197 210.203 121.112 209.885 121.112 209.544C121.112 209.187 121.2 208.864 121.376 208.576C121.552 208.283 121.784 208.051 122.072 207.88C122.365 207.709 122.685 207.624 123.032 207.624C123.389 207.624 123.712 207.712 124 207.888C124.288 208.064 124.517 208.299 124.688 208.592C124.859 208.88 124.944 209.197 124.944 209.544C124.944 209.896 124.859 210.219 124.688 210.512C124.517 210.8 124.285 211.032 123.992 211.208C123.704 211.379 123.384 211.464 123.032 211.464ZM123.032 210.608C123.32 210.608 123.568 210.504 123.776 210.296C123.984 210.088 124.088 209.837 124.088 209.544C124.088 209.251 123.984 209 123.776 208.792C123.568 208.584 123.32 208.48 123.032 208.48C122.739 208.48 122.485 208.584 122.272 208.792C122.064 209 121.96 209.251 121.96 209.544C121.96 209.837 122.064 210.088 122.272 210.296C122.485 210.504 122.739 210.608 123.032 210.608Z" fill="#0C1021"/>
<circle cx="188" cy="196" r="5" fill="#F1F1F1"/>
<path d="M199.84 189V179.2H203.081C203.758 179.2 204.392 179.328 204.985 179.585C205.578 179.837 206.098 180.189 206.546 180.642C206.994 181.09 207.344 181.61 207.596 182.203C207.853 182.791 207.981 183.423 207.981 184.1C207.981 184.777 207.853 185.411 207.596 186.004C207.344 186.592 206.994 187.112 206.546 187.565C206.098 188.013 205.578 188.365 204.985 188.622C204.392 188.874 203.758 189 203.081 189H199.84ZM200.82 188.02H203.081C203.622 188.02 204.129 187.92 204.6 187.719C205.076 187.514 205.494 187.231 205.853 186.872C206.212 186.513 206.492 186.097 206.693 185.626C206.898 185.15 207.001 184.641 207.001 184.1C207.001 183.559 206.898 183.052 206.693 182.581C206.492 182.105 206.21 181.687 205.846 181.328C205.487 180.969 205.071 180.689 204.6 180.488C204.129 180.283 203.622 180.18 203.081 180.18H200.82V188.02ZM209.219 189V182H210.199V182.966C210.446 182.611 210.768 182.329 211.165 182.119C211.562 181.909 211.993 181.804 212.46 181.804C212.731 181.804 212.992 181.839 213.244 181.909L212.845 182.882C212.649 182.821 212.458 182.791 212.271 182.791C211.893 182.791 211.545 182.884 211.228 183.071C210.915 183.258 210.666 183.507 210.479 183.82C210.292 184.133 210.199 184.48 210.199 184.863V189H209.219ZM216.838 189.182C216.194 189.182 215.606 189.016 215.074 188.685C214.547 188.354 214.124 187.91 213.807 187.355C213.494 186.795 213.338 186.177 213.338 185.5C213.338 184.987 213.429 184.508 213.611 184.065C213.793 183.617 214.043 183.225 214.36 182.889C214.682 182.548 215.055 182.282 215.48 182.091C215.905 181.9 216.357 181.804 216.838 181.804C217.482 181.804 218.068 181.97 218.595 182.301C219.127 182.632 219.549 183.078 219.862 183.638C220.179 184.198 220.338 184.819 220.338 185.5C220.338 186.009 220.247 186.485 220.065 186.928C219.883 187.371 219.631 187.763 219.309 188.104C218.992 188.44 218.621 188.704 218.196 188.895C217.776 189.086 217.323 189.182 216.838 189.182ZM216.838 188.202C217.314 188.202 217.741 188.078 218.119 187.831C218.502 187.579 218.803 187.248 219.022 186.837C219.246 186.426 219.358 185.981 219.358 185.5C219.358 185.01 219.246 184.56 219.022 184.149C218.798 183.734 218.495 183.402 218.112 183.155C217.734 182.908 217.309 182.784 216.838 182.784C216.362 182.784 215.933 182.91 215.55 183.162C215.172 183.409 214.871 183.738 214.647 184.149C214.428 184.56 214.318 185.01 214.318 185.5C214.318 186.004 214.432 186.461 214.661 186.872C214.89 187.278 215.195 187.602 215.578 187.845C215.961 188.083 216.381 188.202 216.838 188.202ZM222.504 192.5H221.524V182H222.504V183.309C222.746 182.866 223.078 182.506 223.498 182.231C223.918 181.956 224.417 181.818 224.996 181.818C225.504 181.818 225.98 181.914 226.424 182.105C226.872 182.296 227.264 182.562 227.6 182.903C227.936 183.239 228.199 183.629 228.391 184.072C228.582 184.515 228.678 184.991 228.678 185.5C228.678 186.009 228.582 186.487 228.391 186.935C228.199 187.383 227.936 187.777 227.6 188.118C227.264 188.454 226.872 188.718 226.424 188.909C225.98 189.1 225.504 189.196 224.996 189.196C224.417 189.196 223.918 189.058 223.498 188.783C223.078 188.508 222.746 188.148 222.504 187.705V192.5ZM224.989 182.77C224.499 182.77 224.072 182.894 223.708 183.141C223.348 183.384 223.071 183.71 222.875 184.121C222.679 184.532 222.581 184.991 222.581 185.5C222.581 185.999 222.676 186.457 222.868 186.872C223.064 187.287 223.341 187.619 223.701 187.866C224.065 188.113 224.494 188.237 224.989 188.237C225.474 188.237 225.92 188.116 226.326 187.873C226.736 187.63 227.065 187.304 227.313 186.893C227.56 186.478 227.684 186.013 227.684 185.5C227.684 185.001 227.562 184.546 227.32 184.135C227.077 183.72 226.753 183.388 226.347 183.141C225.941 182.894 225.488 182.77 224.989 182.77ZM230.843 192.5H229.863V182H230.843V183.309C231.086 182.866 231.417 182.506 231.837 182.231C232.257 181.956 232.757 181.818 233.335 181.818C233.844 181.818 234.32 181.914 234.763 182.105C235.211 182.296 235.603 182.562 235.939 182.903C236.275 183.239 236.539 183.629 236.73 184.072C236.922 184.515 237.017 184.991 237.017 185.5C237.017 186.009 236.922 186.487 236.73 186.935C236.539 187.383 236.275 187.777 235.939 188.118C235.603 188.454 235.211 188.718 234.763 188.909C234.32 189.1 233.844 189.196 233.335 189.196C232.757 189.196 232.257 189.058 231.837 188.783C231.417 188.508 231.086 188.148 230.843 187.705V192.5ZM233.328 182.77C232.838 182.77 232.411 182.894 232.047 183.141C231.688 183.384 231.41 183.71 231.214 184.121C231.018 184.532 230.92 184.991 230.92 185.5C230.92 185.999 231.016 186.457 231.207 186.872C231.403 187.287 231.681 187.619 232.04 187.866C232.404 188.113 232.834 188.237 233.328 188.237C233.814 188.237 234.259 188.116 234.665 187.873C235.076 187.63 235.405 187.304 235.652 186.893C235.9 186.478 236.023 186.013 236.023 185.5C236.023 185.001 235.902 184.546 235.659 184.135C235.417 183.72 235.092 183.388 234.686 183.141C234.28 182.894 233.828 182.77 233.328 182.77ZM241.215 189.182C240.571 189.182 239.983 189.016 239.451 188.685C238.924 188.354 238.501 187.91 238.184 187.355C237.871 186.795 237.715 186.177 237.715 185.5C237.715 184.987 237.806 184.508 237.988 184.065C238.17 183.617 238.42 183.225 238.737 182.889C239.059 182.548 239.432 182.282 239.857 182.091C240.282 181.9 240.734 181.804 241.215 181.804C241.733 181.804 242.209 181.907 242.643 182.112C243.082 182.317 243.457 182.604 243.77 182.973C244.087 183.342 244.325 183.773 244.484 184.268C244.647 184.763 244.715 185.297 244.687 185.871H238.751C238.807 186.314 238.947 186.711 239.171 187.061C239.4 187.411 239.689 187.689 240.039 187.894C240.394 188.095 240.786 188.197 241.215 188.202C241.682 188.202 242.102 188.081 242.475 187.838C242.853 187.595 243.156 187.262 243.385 186.837L244.379 187.068C244.099 187.689 243.677 188.197 243.112 188.594C242.547 188.986 241.915 189.182 241.215 189.182ZM238.723 185.08H243.7C243.667 184.646 243.534 184.249 243.301 183.89C243.072 183.526 242.776 183.237 242.412 183.022C242.048 182.803 241.649 182.693 241.215 182.693C240.781 182.693 240.384 182.8 240.025 183.015C239.666 183.225 239.372 183.512 239.143 183.876C238.914 184.235 238.774 184.637 238.723 185.08ZM251.58 178.5H252.56V189H251.58V187.691C251.337 188.139 251.003 188.501 250.579 188.776C250.159 189.047 249.659 189.182 249.081 189.182C248.572 189.182 248.096 189.086 247.653 188.895C247.209 188.704 246.817 188.44 246.477 188.104C246.141 187.763 245.877 187.371 245.686 186.928C245.494 186.485 245.399 186.009 245.399 185.5C245.399 184.991 245.494 184.515 245.686 184.072C245.877 183.624 246.141 183.232 246.477 182.896C246.817 182.555 247.209 182.289 247.653 182.098C248.096 181.907 248.572 181.811 249.081 181.811C249.659 181.811 250.159 181.949 250.579 182.224C251.003 182.495 251.337 182.852 251.58 183.295V178.5ZM249.088 188.23C249.587 188.23 250.016 188.109 250.376 187.866C250.735 187.619 251.01 187.287 251.202 186.872C251.398 186.457 251.496 185.999 251.496 185.5C251.496 184.987 251.398 184.525 251.202 184.114C251.006 183.699 250.728 183.37 250.369 183.127C250.009 182.884 249.582 182.763 249.088 182.763C248.593 182.763 248.143 182.887 247.737 183.134C247.331 183.377 247.006 183.706 246.764 184.121C246.521 184.536 246.4 184.996 246.4 185.5C246.4 186.009 246.523 186.471 246.771 186.886C247.018 187.297 247.345 187.623 247.751 187.866C248.161 188.109 248.607 188.23 249.088 188.23Z" fill="#535662"/>
<path d="M200.84 212V201.92H199.64L199.96 200.8H201.96V212H200.84ZM204.506 212.208C204.33 212.208 204.181 212.144 204.058 212.016C203.936 211.893 203.874 211.741 203.874 211.56C203.874 211.389 203.936 211.243 204.058 211.12C204.181 210.992 204.33 210.928 204.506 210.928C204.688 210.928 204.84 210.992 204.962 211.12C205.09 211.243 205.154 211.389 205.154 211.56C205.154 211.741 205.09 211.893 204.962 212.016C204.84 212.144 204.688 212.208 204.506 212.208ZM211.581 212V208.856H206.749V207.72L211.293 200.8H212.701V207.736H213.877V208.856H212.701V212H211.581ZM208.077 207.72L211.581 207.736L211.557 202.4L208.077 207.72ZM216.084 212L222.548 200.8H223.844L217.38 212H216.084ZM217.396 205.176C217.044 205.176 216.724 205.091 216.436 204.92C216.148 204.749 215.916 204.52 215.74 204.232C215.569 203.939 215.484 203.616 215.484 203.264C215.484 202.901 215.569 202.576 215.74 202.288C215.916 202 216.148 201.771 216.436 201.6C216.729 201.429 217.049 201.344 217.396 201.344C217.748 201.344 218.068 201.432 218.356 201.608C218.644 201.779 218.873 202.008 219.044 202.296C219.22 202.584 219.308 202.907 219.308 203.264C219.308 203.621 219.22 203.944 219.044 204.232C218.873 204.52 218.641 204.749 218.348 204.92C218.06 205.091 217.742 205.176 217.396 205.176ZM217.396 204.32C217.694 204.32 217.945 204.219 218.148 204.016C218.35 203.808 218.452 203.557 218.452 203.264C218.452 202.965 218.35 202.715 218.148 202.512C217.945 202.304 217.694 202.2 217.396 202.2C217.102 202.2 216.852 202.304 216.644 202.512C216.441 202.715 216.34 202.965 216.34 203.264C216.34 203.557 216.441 203.808 216.644 204.016C216.852 204.219 217.102 204.32 217.396 204.32ZM222.548 211.464C222.196 211.464 221.873 211.376 221.58 211.2C221.292 211.019 221.06 210.784 220.884 210.496C220.713 210.203 220.628 209.885 220.628 209.544C220.628 209.187 220.716 208.864 220.892 208.576C221.068 208.283 221.3 208.051 221.588 207.88C221.881 207.709 222.201 207.624 222.548 207.624C222.905 207.624 223.228 207.712 223.516 207.888C223.804 208.064 224.033 208.299 224.204 208.592C224.374 208.88 224.46 209.197 224.46 209.544C224.46 209.896 224.374 210.219 224.204 210.512C224.033 210.8 223.801 211.032 223.508 211.208C223.22 211.379 222.9 211.464 222.548 211.464ZM222.548 210.608C222.836 210.608 223.084 210.504 223.292 210.296C223.5 210.088 223.604 209.837 223.604 209.544C223.604 209.251 223.5 209 223.292 208.792C223.084 208.584 222.836 208.48 222.548 208.48C222.254 208.48 222.001 208.584 221.788 208.792C221.58 209 221.476 209.251 221.476 209.544C221.476 209.837 221.58 210.088 221.788 210.296C222.001 210.504 222.254 210.608 222.548 210.608Z" fill="#0C1021"/>
<g filter="url(#filter3_d_776_1008)">
<rect x="340" y="86" width="90" height="41" rx="20.5" fill="#0C1021" shape-rendering="crispEdges"/>
<rect x="340.5" y="86.5" width="89" height="40" rx="20" stroke="#0C1021" stroke-opacity="0.1" shape-rendering="crispEdges"/>
<path d="M360.224 115L363.932 108.58C363.084 108.9 362.236 109 361.388 108.88C360.54 108.752 359.764 108.448 359.06 107.968C358.356 107.48 357.788 106.856 357.356 106.096C356.932 105.328 356.72 104.464 356.72 103.504C356.72 102.736 356.864 102.012 357.152 101.332C357.448 100.652 357.852 100.056 358.364 99.544C358.876 99.024 359.468 98.62 360.14 98.332C360.82 98.036 361.548 97.888 362.324 97.888C363.348 97.888 364.28 98.144 365.12 98.656C365.968 99.16 366.644 99.836 367.148 100.684C367.66 101.532 367.916 102.472 367.916 103.504C367.916 104.088 367.844 104.592 367.7 105.016C367.564 105.432 367.356 105.9 367.076 106.42L362.156 115H360.224ZM362.3 107.44C363.06 107.44 363.736 107.26 364.328 106.9C364.928 106.532 365.4 106.048 365.744 105.448C366.088 104.848 366.26 104.204 366.26 103.516C366.26 102.764 366.076 102.092 365.708 101.5C365.348 100.9 364.868 100.428 364.268 100.084C363.668 99.732 363.02 99.556 362.324 99.556C361.556 99.556 360.872 99.74 360.272 100.108C359.68 100.476 359.212 100.964 358.868 101.572C358.532 102.172 358.364 102.82 358.364 103.516C358.364 104.236 358.54 104.896 358.892 105.496C359.244 106.088 359.716 106.56 360.308 106.912C360.908 107.264 361.572 107.44 362.3 107.44ZM374.945 115.312C373.961 115.312 373.061 115.088 372.245 114.64C371.437 114.192 370.793 113.592 370.313 112.84C369.833 112.088 369.593 111.252 369.593 110.332C369.593 109.436 369.841 108.62 370.337 107.884C370.833 107.14 371.477 106.564 372.269 106.156C371.613 105.78 371.073 105.268 370.649 104.62C370.225 103.964 370.013 103.244 370.013 102.46C370.013 101.62 370.233 100.856 370.673 100.168C371.121 99.472 371.717 98.92 372.461 98.512C373.213 98.096 374.041 97.888 374.945 97.888C375.849 97.888 376.673 98.096 377.417 98.512C378.169 98.92 378.765 99.472 379.205 100.168C379.653 100.856 379.877 101.62 379.877 102.46C379.877 103.244 379.665 103.964 379.241 104.62C378.825 105.268 378.285 105.78 377.621 106.156C378.429 106.564 379.077 107.14 379.565 107.884C380.061 108.62 380.309 109.436 380.309 110.332C380.309 111.244 380.065 112.08 379.577 112.84C379.097 113.592 378.453 114.192 377.645 114.64C376.837 115.088 375.937 115.312 374.945 115.312ZM374.945 113.632C375.609 113.632 376.209 113.484 376.745 113.188C377.281 112.892 377.709 112.496 378.029 112C378.349 111.496 378.509 110.94 378.509 110.332C378.509 109.724 378.349 109.172 378.029 108.676C377.709 108.18 377.281 107.784 376.745 107.488C376.209 107.192 375.609 107.044 374.945 107.044C374.297 107.044 373.701 107.192 373.157 107.488C372.621 107.784 372.189 108.18 371.861 108.676C371.541 109.172 371.381 109.724 371.381 110.332C371.381 110.94 371.541 111.496 371.861 112C372.189 112.496 372.621 112.892 373.157 113.188C373.701 113.484 374.297 113.632 374.945 113.632ZM374.945 105.364C375.529 105.364 376.057 105.236 376.529 104.98C377.001 104.716 377.377 104.364 377.657 103.924C377.945 103.484 378.089 102.996 378.089 102.46C378.089 101.924 377.945 101.44 377.657 101.008C377.377 100.568 377.001 100.22 376.529 99.964C376.057 99.7 375.529 99.568 374.945 99.568C374.369 99.568 373.841 99.7 373.361 99.964C372.889 100.22 372.509 100.568 372.221 101.008C371.941 101.44 371.801 101.924 371.801 102.46C371.801 102.996 371.941 103.484 372.221 103.924C372.509 104.364 372.889 104.716 373.361 104.98C373.841 105.236 374.369 105.364 374.945 105.364ZM383.174 115.312C382.91 115.312 382.686 115.216 382.502 115.024C382.318 114.84 382.226 114.612 382.226 114.34C382.226 114.084 382.318 113.864 382.502 113.68C382.686 113.488 382.91 113.392 383.174 113.392C383.446 113.392 383.674 113.488 383.858 113.68C384.05 113.864 384.146 114.084 384.146 114.34C384.146 114.612 384.05 114.84 383.858 115.024C383.674 115.216 383.446 115.312 383.174 115.312ZM391.962 115.312C390.906 115.312 389.938 115.052 389.058 114.532C388.186 114.004 387.486 113.3 386.958 112.42C386.438 111.54 386.178 110.568 386.178 109.504C386.178 108.888 386.25 108.364 386.394 107.932C386.538 107.492 386.75 107.004 387.03 106.468L391.794 98.2H393.75L390.258 104.248C390.962 103.976 391.67 103.856 392.382 103.888C393.094 103.912 393.774 104.068 394.422 104.356C395.07 104.644 395.646 105.04 396.15 105.544C396.654 106.04 397.05 106.624 397.338 107.296C397.634 107.968 397.782 108.704 397.782 109.504C397.782 110.304 397.63 111.056 397.326 111.76C397.022 112.456 396.602 113.072 396.066 113.608C395.538 114.136 394.922 114.552 394.218 114.856C393.514 115.16 392.762 115.312 391.962 115.312ZM391.962 113.632C392.762 113.632 393.474 113.44 394.098 113.056C394.722 112.664 395.21 112.152 395.562 111.52C395.922 110.888 396.102 110.212 396.102 109.492C396.102 108.74 395.918 108.056 395.55 107.44C395.182 106.816 394.686 106.32 394.062 105.952C393.438 105.576 392.746 105.388 391.986 105.388C391.202 105.388 390.498 105.58 389.874 105.964C389.25 106.348 388.758 106.852 388.398 107.476C388.038 108.092 387.858 108.764 387.858 109.492C387.858 110.276 388.046 110.98 388.422 111.604C388.806 112.228 389.31 112.724 389.934 113.092C390.558 113.452 391.234 113.632 391.962 113.632ZM400.352 115L410.048 98.2H411.992L402.296 115H400.352ZM402.32 104.764C401.792 104.764 401.312 104.636 400.88 104.38C400.448 104.124 400.1 103.78 399.836 103.348C399.58 102.908 399.452 102.424 399.452 101.896C399.452 101.352 399.58 100.864 399.836 100.432C400.1 100 400.448 99.656 400.88 99.4C401.32 99.144 401.8 99.016 402.32 99.016C402.848 99.016 403.328 99.148 403.76 99.412C404.192 99.668 404.536 100.012 404.792 100.444C405.056 100.876 405.188 101.36 405.188 101.896C405.188 102.432 405.056 102.916 404.792 103.348C404.536 103.78 404.188 104.124 403.748 104.38C403.316 104.636 402.84 104.764 402.32 104.764ZM402.32 103.48C402.768 103.48 403.144 103.328 403.448 103.024C403.752 102.712 403.904 102.336 403.904 101.896C403.904 101.448 403.752 101.072 403.448 100.768C403.144 100.456 402.768 100.3 402.32 100.3C401.88 100.3 401.504 100.456 401.192 100.768C400.888 101.072 400.736 101.448 400.736 101.896C400.736 102.336 400.888 102.712 401.192 103.024C401.504 103.328 401.88 103.48 402.32 103.48ZM410.048 114.196C409.52 114.196 409.036 114.064 408.596 113.8C408.164 113.528 407.816 113.176 407.552 112.744C407.296 112.304 407.168 111.828 407.168 111.316C407.168 110.78 407.3 110.296 407.564 109.864C407.828 109.424 408.176 109.076 408.608 108.82C409.048 108.564 409.528 108.436 410.048 108.436C410.584 108.436 411.068 108.568 411.5 108.832C411.932 109.096 412.276 109.448 412.532 109.888C412.788 110.32 412.916 110.796 412.916 111.316C412.916 111.844 412.788 112.328 412.532 112.768C412.276 113.2 411.928 113.548 411.488 113.812C411.056 114.068 410.576 114.196 410.048 114.196ZM410.048 112.912C410.48 112.912 410.852 112.756 411.164 112.444C411.476 112.132 411.632 111.756 411.632 111.316C411.632 110.876 411.476 110.5 411.164 110.188C410.852 109.876 410.48 109.72 410.048 109.72C409.608 109.72 409.228 109.876 408.908 110.188C408.596 110.5 408.44 110.876 408.44 111.316C408.44 111.756 408.596 112.132 408.908 112.444C409.228 112.756 409.608 112.912 410.048 112.912Z" fill="white"/>
</g>
<g filter="url(#filter4_d_776_1008)">
<circle cx="387" cy="139" r="8" fill="#4268FF"/>
<circle cx="387" cy="139" r="7" stroke="white" stroke-width="2"/>
</g>
<path d="M394.009 153.554C393.832 151.423 396.187 150.384 397.712 151.401H397.713L398.009 151.6L398.859 152.175C403.098 155.075 407.088 158.325 410.785 161.892V161.893C411.616 162.695 411.677 163.786 411.249 164.612C410.863 165.357 410.058 165.926 409.087 165.9L408.891 165.887L403.625 165.323C403.502 165.31 403.427 165.379 403.408 165.421V165.422L401.279 170.118C400.391 172.079 397.454 171.93 396.86 169.776C395.43 164.584 394.485 159.269 394.038 153.901L394.009 153.554Z" fill="white" stroke="#B1C0FF" stroke-width="2"/>
</g>
</g>
<defs>
<filter id="filter0_n_776_1008" x="0" y="0" width="508" height="318" filterUnits="userSpaceOnUse" color-interpolation-filters="sRGB">
<feFlood flood-opacity="0" result="BackgroundImageFix"/>
<feBlend mode="normal" in="SourceGraphic" in2="BackgroundImageFix" result="shape"/>
<feTurbulence type="fractalNoise" baseFrequency="2 2" stitchTiles="stitch" numOctaves="3" result="noise" seed="2580" />
<feColorMatrix in="noise" type="luminanceToAlpha" result="alphaNoise" />
<feComponentTransfer in="alphaNoise" result="coloredNoise1">
<feFuncA type="discrete" tableValues="1 1 1 1 1 1 1 1 1 1 1 1 1 1 1 1 1 1 1 1 1 1 1 1 1 1 1 1 1 1 1 1 1 1 1 1 1 1 1 1 1 1 1 1 1 1 1 1 1 1 1 0 0 0 0 0 0 0 0 0 0 0 0 0 0 0 0 0 0 0 0 0 0 0 0 0 0 0 0 0 0 0 0 0 0 0 0 0 0 0 0 0 0 0 0 0 0 0 0 0 "/>
</feComponentTransfer>
<feComposite operator="in" in2="shape" in="coloredNoise1" result="noise1Clipped" />
<feFlood flood-color="rgba(255, 255, 255, 0.25)" result="color1Flood" />
<feComposite operator="in" in2="noise1Clipped" in="color1Flood" result="color1" />
<feMerge result="effect1_noise_776_1008">
<feMergeNode in="shape" />
<feMergeNode in="color1" />
</feMerge>
</filter>
<filter id="filter1_d_776_1008" x="19" y="55" width="470" height="217" filterUnits="userSpaceOnUse" color-interpolation-filters="sRGB">
<feFlood flood-opacity="0" result="BackgroundImageFix"/>
<feColorMatrix in="SourceAlpha" type="matrix" values="0 0 0 0 0 0 0 0 0 0 0 0 0 0 0 0 0 0 127 0" result="hardAlpha"/>
<feOffset dy="4"/>
<feGaussianBlur stdDeviation="10"/>
<feComposite in2="hardAlpha" operator="out"/>
<feColorMatrix type="matrix" values="0 0 0 0 0.0468057 0 0 0 0 0.0634939 0 0 0 0 0.129808 0 0 0 0.1 0"/>
<feBlend mode="normal" in2="BackgroundImageFix" result="effect1_dropShadow_776_1008"/>
<feBlend mode="normal" in="SourceGraphic" in2="effect1_dropShadow_776_1008" result="shape"/>
</filter>
<filter id="filter2_i_776_1008" x="71" y="139" width="351" height="29" filterUnits="userSpaceOnUse" color-interpolation-filters="sRGB">
<feFlood flood-opacity="0" result="BackgroundImageFix"/>
<feBlend mode="normal" in="SourceGraphic" in2="BackgroundImageFix" result="shape"/>
<feColorMatrix in="SourceAlpha" type="matrix" values="0 0 0 0 0 0 0 0 0 0 0 0 0 0 0 0 0 0 127 0" result="hardAlpha"/>
<feOffset dy="4"/>
<feGaussianBlur stdDeviation="2"/>
<feComposite in2="hardAlpha" operator="arithmetic" k2="-1" k3="1"/>
<feColorMatrix type="matrix" values="0 0 0 0 0 0 0 0 0 0 0 0 0 0 0 0 0 0 0.25 0"/>
<feBlend mode="normal" in2="shape" result="effect1_innerShadow_776_1008"/>
</filter>
<filter id="filter3_d_776_1008" x="336" y="86" width="98" height="49" filterUnits="userSpaceOnUse" color-interpolation-filters="sRGB">
<feFlood flood-opacity="0" result="BackgroundImageFix"/>
<feColorMatrix in="SourceAlpha" type="matrix" values="0 0 0 0 0 0 0 0 0 0 0 0 0 0 0 0 0 0 127 0" result="hardAlpha"/>
<feOffset dy="4"/>
<feGaussianBlur stdDeviation="2"/>
<feComposite in2="hardAlpha" operator="out"/>
<feColorMatrix type="matrix" values="0 0 0 0 0.259615 0 0 0 0 0.407692 0 0 0 0 1 0 0 0 0.15 0"/>
<feBlend mode="normal" in2="BackgroundImageFix" result="effect1_dropShadow_776_1008"/>
<feBlend mode="normal" in="SourceGraphic" in2="effect1_dropShadow_776_1008" result="shape"/>
</filter>
<filter id="filter4_d_776_1008" x="375" y="131" width="24" height="24" filterUnits="userSpaceOnUse" color-interpolation-filters="sRGB">
<feFlood flood-opacity="0" result="BackgroundImageFix"/>
<feColorMatrix in="SourceAlpha" type="matrix" values="0 0 0 0 0 0 0 0 0 0 0 0 0 0 0 0 0 0 127 0" result="hardAlpha"/>
<feOffset dy="4"/>
<feGaussianBlur stdDeviation="2"/>
<feComposite in2="hardAlpha" operator="out"/>
<feColorMatrix type="matrix" values="0 0 0 0 0.259615 0 0 0 0 0.407692 0 0 0 0 1 0 0 0 0.25 0"/>
<feBlend mode="normal" in2="BackgroundImageFix" result="effect1_dropShadow_776_1008"/>
<feBlend mode="normal" in="SourceGraphic" in2="effect1_dropShadow_776_1008" result="shape"/>
</filter>
<clipPath id="clip0_776_1008">
<rect x="71" y="139" width="366" height="25" rx="12.5" fill="white"/>
</clipPath>
</defs>
</svg>
