<svg width="458" height="318" viewBox="0 0 458 318" fill="none" xmlns="http://www.w3.org/2000/svg">
<g clip-path="url(#clip0_790_4226)">
<g filter="url(#filter0_d_790_4226)">
<circle cx="229.5" cy="159.5" r="127.5" fill="#F1F1F1" shape-rendering="crispEdges"/>
<circle cx="229.5" cy="159.5" r="128" stroke="#0C1021" stroke-opacity="0.15" shape-rendering="crispEdges"/>
</g>
<g filter="url(#filter1_di_790_4226)">
<path d="M133.03 242.864C153.86 266.97 182.961 282.404 214.602 286.127C246.243 289.849 278.132 281.591 303.989 262.979C329.845 244.366 347.797 216.747 354.309 185.56C360.821 154.374 355.421 121.879 339.173 94.4744C322.924 67.07 297.005 46.7416 266.518 37.4919C236.031 28.2422 203.185 30.7415 174.449 44.4977C145.713 58.2538 123.167 82.27 111.253 111.817C99.3378 141.365 98.9168 174.303 110.073 204.145L229.501 159.5L133.03 242.864Z" fill="#4268FF"/>
</g>
<g filter="url(#filter2_d_790_4226)">
<rect x="39.3359" y="206" width="66" height="41" rx="20.5" fill="#0C1021" shape-rendering="crispEdges"/>
<rect x="39.8359" y="206.5" width="65" height="40" rx="20" stroke="#0C1021" stroke-opacity="0.1" shape-rendering="crispEdges"/>
<path d="M58.0959 235V219.88H56.2959L56.7759 218.2H59.7759V235H58.0959ZM67.5795 235.312C66.5555 235.312 65.6555 235.088 64.8795 234.64C64.1035 234.184 63.4955 233.576 63.0555 232.816C62.6235 232.056 62.4075 231.216 62.4075 230.296H64.0875C64.0875 230.904 64.2275 231.464 64.5075 231.976C64.7955 232.48 65.1995 232.884 65.7195 233.188C66.2395 233.484 66.8595 233.632 67.5795 233.632C68.1875 233.632 68.7555 233.484 69.2835 233.188C69.8195 232.884 70.2515 232.48 70.5795 231.976C70.9155 231.464 71.0835 230.904 71.0835 230.296C71.0835 229.536 70.8915 228.904 70.5075 228.4C70.1235 227.888 69.5955 227.508 68.9235 227.26C68.2515 227.004 67.4835 226.876 66.6195 226.876V225.484C67.8115 225.484 68.7675 225.232 69.4875 224.728C70.2155 224.216 70.5795 223.468 70.5795 222.484C70.5795 221.948 70.4315 221.46 70.1355 221.02C69.8475 220.58 69.4675 220.228 68.9955 219.964C68.5315 219.692 68.0315 219.556 67.4955 219.556C66.9595 219.556 66.4435 219.692 65.9475 219.964C65.4595 220.228 65.0595 220.58 64.7475 221.02C64.4435 221.46 64.2915 221.948 64.2915 222.484H62.6115C62.6115 221.852 62.7435 221.26 63.0075 220.708C63.2715 220.148 63.6315 219.656 64.0875 219.232C64.5435 218.808 65.0635 218.476 65.6475 218.236C66.2315 217.996 66.8435 217.876 67.4835 217.876C68.3235 217.876 69.1035 218.084 69.8235 218.5C70.5515 218.916 71.1395 219.472 71.5875 220.168C72.0355 220.864 72.2595 221.636 72.2595 222.484C72.2595 223.308 72.0475 224.052 71.6235 224.716C71.1995 225.38 70.6275 225.848 69.9075 226.12C70.5315 226.328 71.0555 226.644 71.4795 227.068C71.9035 227.484 72.2235 227.968 72.4395 228.52C72.6555 229.072 72.7635 229.664 72.7635 230.296C72.7635 231.216 72.5235 232.056 72.0435 232.816C71.5635 233.576 70.9275 234.184 70.1355 234.64C69.3515 235.088 68.4995 235.312 67.5795 235.312ZM75.3366 235L85.0326 218.2H86.9766L77.2806 235H75.3366ZM77.3046 224.764C76.7766 224.764 76.2966 224.636 75.8646 224.38C75.4326 224.124 75.0846 223.78 74.8206 223.348C74.5646 222.908 74.4366 222.424 74.4366 221.896C74.4366 221.352 74.5646 220.864 74.8206 220.432C75.0846 220 75.4326 219.656 75.8646 219.4C76.3046 219.144 76.7846 219.016 77.3046 219.016C77.8326 219.016 78.3126 219.148 78.7446 219.412C79.1766 219.668 79.5206 220.012 79.7766 220.444C80.0406 220.876 80.1726 221.36 80.1726 221.896C80.1726 222.432 80.0406 222.916 79.7766 223.348C79.5206 223.78 79.1726 224.124 78.7326 224.38C78.3006 224.636 77.8246 224.764 77.3046 224.764ZM77.3046 223.48C77.7526 223.48 78.1286 223.328 78.4326 223.024C78.7366 222.712 78.8886 222.336 78.8886 221.896C78.8886 221.448 78.7366 221.072 78.4326 220.768C78.1286 220.456 77.7526 220.3 77.3046 220.3C76.8646 220.3 76.4886 220.456 76.1766 220.768C75.8726 221.072 75.7206 221.448 75.7206 221.896C75.7206 222.336 75.8726 222.712 76.1766 223.024C76.4886 223.328 76.8646 223.48 77.3046 223.48ZM85.0326 234.196C84.5046 234.196 84.0206 234.064 83.5806 233.8C83.1486 233.528 82.8006 233.176 82.5366 232.744C82.2806 232.304 82.1526 231.828 82.1526 231.316C82.1526 230.78 82.2846 230.296 82.5486 229.864C82.8126 229.424 83.1606 229.076 83.5926 228.82C84.0326 228.564 84.5126 228.436 85.0326 228.436C85.5686 228.436 86.0526 228.568 86.4846 228.832C86.9166 229.096 87.2606 229.448 87.5166 229.888C87.7726 230.32 87.9006 230.796 87.9006 231.316C87.9006 231.844 87.7726 232.328 87.5166 232.768C87.2606 233.2 86.9126 233.548 86.4726 233.812C86.0406 234.068 85.5606 234.196 85.0326 234.196ZM85.0326 232.912C85.4646 232.912 85.8366 232.756 86.1486 232.444C86.4606 232.132 86.6166 231.756 86.6166 231.316C86.6166 230.876 86.4606 230.5 86.1486 230.188C85.8366 229.876 85.4646 229.72 85.0326 229.72C84.5926 229.72 84.2126 229.876 83.8926 230.188C83.5806 230.5 83.4246 230.876 83.4246 231.316C83.4246 231.756 83.5806 232.132 83.8926 232.444C84.2126 232.756 84.5926 232.912 85.0326 232.912Z" fill="white"/>
</g>
<g filter="url(#filter3_d_790_4226)">
<circle cx="118" cy="223" r="8" fill="#4268FF"/>
<circle cx="118" cy="223" r="7" stroke="white" stroke-width="2"/>
</g>
<path d="M152.273 223.546C152.134 221.685 154.066 220.322 155.653 221.324L155.806 221.429L155.807 221.43L156.072 221.627L156.841 222.203C160.667 225.107 164.267 228.36 167.603 231.929C168.353 232.731 168.391 233.784 168.021 234.575C167.661 235.344 166.833 236.013 165.767 235.886V235.885L161.021 235.321C161.015 235.321 161.012 235.322 161.01 235.322C161.007 235.323 161.002 235.324 160.996 235.328C160.983 235.336 160.964 235.355 160.951 235.386L160.95 235.387L159.031 240.084C158.634 241.058 157.727 241.562 156.82 241.49C155.91 241.419 155.097 240.778 154.842 239.752C153.554 234.564 152.702 229.254 152.299 223.893L152.273 223.546Z" fill="white" stroke="#B1C0FF" stroke-width="2"/>
</g>
<defs>
<filter id="filter0_d_790_4226" x="51" y="-19" width="357" height="357" filterUnits="userSpaceOnUse" color-interpolation-filters="sRGB">
<feFlood flood-opacity="0" result="BackgroundImageFix"/>
<feColorMatrix in="SourceAlpha" type="matrix" values="0 0 0 0 0 0 0 0 0 0 0 0 0 0 0 0 0 0 127 0" result="hardAlpha"/>
<feOffset/>
<feGaussianBlur stdDeviation="25"/>
<feComposite in2="hardAlpha" operator="out"/>
<feColorMatrix type="matrix" values="0 0 0 0 0.0468057 0 0 0 0 0.0634939 0 0 0 0 0.129808 0 0 0 0.1 0"/>
<feBlend mode="normal" in2="BackgroundImageFix" result="effect1_dropShadow_790_4226"/>
<feBlend mode="normal" in="SourceGraphic" in2="effect1_dropShadow_790_4226" result="shape"/>
</filter>
<filter id="filter1_di_790_4226" x="52" y="-18" width="355" height="355" filterUnits="userSpaceOnUse" color-interpolation-filters="sRGB">
<feFlood flood-opacity="0" result="BackgroundImageFix"/>
<feColorMatrix in="SourceAlpha" type="matrix" values="0 0 0 0 0 0 0 0 0 0 0 0 0 0 0 0 0 0 127 0" result="hardAlpha"/>
<feOffset/>
<feGaussianBlur stdDeviation="25"/>
<feComposite in2="hardAlpha" operator="out"/>
<feColorMatrix type="matrix" values="0 0 0 0 0.0468057 0 0 0 0 0.0634939 0 0 0 0 0.129808 0 0 0 0.1 0"/>
<feBlend mode="normal" in2="BackgroundImageFix" result="effect1_dropShadow_790_4226"/>
<feBlend mode="normal" in="SourceGraphic" in2="effect1_dropShadow_790_4226" result="shape"/>
<feColorMatrix in="SourceAlpha" type="matrix" values="0 0 0 0 0 0 0 0 0 0 0 0 0 0 0 0 0 0 127 0" result="hardAlpha"/>
<feOffset dy="5"/>
<feGaussianBlur stdDeviation="12.5"/>
<feComposite in2="hardAlpha" operator="arithmetic" k2="-1" k3="1"/>
<feColorMatrix type="matrix" values="0 0 0 0 0 0 0 0 0 0 0 0 0 0 0 0 0 0 0.25 0"/>
<feBlend mode="normal" in2="shape" result="effect2_innerShadow_790_4226"/>
</filter>
<filter id="filter2_d_790_4226" x="35.3359" y="206" width="74" height="49" filterUnits="userSpaceOnUse" color-interpolation-filters="sRGB">
<feFlood flood-opacity="0" result="BackgroundImageFix"/>
<feColorMatrix in="SourceAlpha" type="matrix" values="0 0 0 0 0 0 0 0 0 0 0 0 0 0 0 0 0 0 127 0" result="hardAlpha"/>
<feOffset dy="4"/>
<feGaussianBlur stdDeviation="2"/>
<feComposite in2="hardAlpha" operator="out"/>
<feColorMatrix type="matrix" values="0 0 0 0 0.259615 0 0 0 0 0.407692 0 0 0 0 1 0 0 0 0.15 0"/>
<feBlend mode="normal" in2="BackgroundImageFix" result="effect1_dropShadow_790_4226"/>
<feBlend mode="normal" in="SourceGraphic" in2="effect1_dropShadow_790_4226" result="shape"/>
</filter>
<filter id="filter3_d_790_4226" x="106" y="215" width="24" height="24" filterUnits="userSpaceOnUse" color-interpolation-filters="sRGB">
<feFlood flood-opacity="0" result="BackgroundImageFix"/>
<feColorMatrix in="SourceAlpha" type="matrix" values="0 0 0 0 0 0 0 0 0 0 0 0 0 0 0 0 0 0 127 0" result="hardAlpha"/>
<feOffset dy="4"/>
<feGaussianBlur stdDeviation="2"/>
<feComposite in2="hardAlpha" operator="out"/>
<feColorMatrix type="matrix" values="0 0 0 0 0.259615 0 0 0 0 0.407692 0 0 0 0 1 0 0 0 0.25 0"/>
<feBlend mode="normal" in2="BackgroundImageFix" result="effect1_dropShadow_790_4226"/>
<feBlend mode="normal" in="SourceGraphic" in2="effect1_dropShadow_790_4226" result="shape"/>
</filter>
<clipPath id="clip0_790_4226">
<rect width="458" height="318" fill="white"/>
</clipPath>
</defs>
</svg>
