<svg width="508" height="318" viewBox="0 0 508 318" fill="none" xmlns="http://www.w3.org/2000/svg">
<g clip-path="url(#clip0_776_1029)" filter="url(#filter0_n_776_1029)">
<g filter="url(#filter1_d_776_1029)">
<circle cx="254.5" cy="159.5" r="127.5" fill="#F1F1F1" shape-rendering="crispEdges"/>
<circle cx="254.5" cy="159.5" r="128" stroke="#0C1021" stroke-opacity="0.15" shape-rendering="crispEdges"/>
</g>
<g filter="url(#filter2_di_776_1029)">
<path d="M158.03 242.864C178.86 266.97 207.961 282.404 239.602 286.127C271.243 289.849 303.132 281.591 328.989 262.979C354.845 244.366 372.797 216.747 379.309 185.56C385.821 154.374 380.421 121.879 364.173 94.4744C347.924 67.07 322.005 46.7416 291.518 37.4919C261.031 28.2422 228.185 30.7415 199.449 44.4977C170.713 58.2538 148.167 82.27 136.253 111.817C124.338 141.365 123.917 174.303 135.073 204.145L254.501 159.5L158.03 242.864Z" fill="#4268FF"/>
</g>
<g filter="url(#filter3_d_776_1029)">
<rect x="61" y="190" width="66" height="41" rx="20.5" fill="#0C1021" shape-rendering="crispEdges"/>
<rect x="61.5" y="190.5" width="65" height="40" rx="20" stroke="#0C1021" stroke-opacity="0.1" shape-rendering="crispEdges"/>
<path d="M79.76 219V203.88H77.96L78.44 202.2H81.44V219H79.76ZM89.2436 219.312C88.2196 219.312 87.3196 219.088 86.5436 218.64C85.7676 218.184 85.1596 217.576 84.7196 216.816C84.2876 216.056 84.0716 215.216 84.0716 214.296H85.7516C85.7516 214.904 85.8916 215.464 86.1716 215.976C86.4596 216.48 86.8636 216.884 87.3836 217.188C87.9036 217.484 88.5236 217.632 89.2436 217.632C89.8516 217.632 90.4196 217.484 90.9476 217.188C91.4836 216.884 91.9156 216.48 92.2436 215.976C92.5796 215.464 92.7476 214.904 92.7476 214.296C92.7476 213.536 92.5556 212.904 92.1716 212.4C91.7876 211.888 91.2596 211.508 90.5876 211.26C89.9156 211.004 89.1476 210.876 88.2836 210.876V209.484C89.4756 209.484 90.4316 209.232 91.1516 208.728C91.8796 208.216 92.2436 207.468 92.2436 206.484C92.2436 205.948 92.0956 205.46 91.7996 205.02C91.5116 204.58 91.1316 204.228 90.6596 203.964C90.1956 203.692 89.6956 203.556 89.1596 203.556C88.6236 203.556 88.1076 203.692 87.6116 203.964C87.1236 204.228 86.7236 204.58 86.4116 205.02C86.1076 205.46 85.9556 205.948 85.9556 206.484H84.2756C84.2756 205.852 84.4076 205.26 84.6716 204.708C84.9356 204.148 85.2956 203.656 85.7516 203.232C86.2076 202.808 86.7276 202.476 87.3116 202.236C87.8956 201.996 88.5076 201.876 89.1476 201.876C89.9876 201.876 90.7676 202.084 91.4876 202.5C92.2156 202.916 92.8036 203.472 93.2516 204.168C93.6996 204.864 93.9236 205.636 93.9236 206.484C93.9236 207.308 93.7116 208.052 93.2876 208.716C92.8636 209.38 92.2916 209.848 91.5716 210.12C92.1956 210.328 92.7196 210.644 93.1436 211.068C93.5676 211.484 93.8876 211.968 94.1036 212.52C94.3196 213.072 94.4276 213.664 94.4276 214.296C94.4276 215.216 94.1876 216.056 93.7076 216.816C93.2276 217.576 92.5916 218.184 91.7996 218.64C91.0156 219.088 90.1636 219.312 89.2436 219.312ZM97.0006 219L106.697 202.2H108.641L98.9446 219H97.0006ZM98.9686 208.764C98.4406 208.764 97.9606 208.636 97.5286 208.38C97.0966 208.124 96.7486 207.78 96.4846 207.348C96.2286 206.908 96.1006 206.424 96.1006 205.896C96.1006 205.352 96.2286 204.864 96.4846 204.432C96.7486 204 97.0966 203.656 97.5286 203.4C97.9686 203.144 98.4486 203.016 98.9686 203.016C99.4966 203.016 99.9766 203.148 100.409 203.412C100.841 203.668 101.185 204.012 101.441 204.444C101.705 204.876 101.837 205.36 101.837 205.896C101.837 206.432 101.705 206.916 101.441 207.348C101.185 207.78 100.837 208.124 100.397 208.38C99.9646 208.636 99.4886 208.764 98.9686 208.764ZM98.9686 207.48C99.4166 207.48 99.7926 207.328 100.097 207.024C100.401 206.712 100.553 206.336 100.553 205.896C100.553 205.448 100.401 205.072 100.097 204.768C99.7926 204.456 99.4166 204.3 98.9686 204.3C98.5286 204.3 98.1526 204.456 97.8406 204.768C97.5366 205.072 97.3846 205.448 97.3846 205.896C97.3846 206.336 97.5366 206.712 97.8406 207.024C98.1526 207.328 98.5286 207.48 98.9686 207.48ZM106.697 218.196C106.169 218.196 105.685 218.064 105.245 217.8C104.813 217.528 104.465 217.176 104.201 216.744C103.945 216.304 103.817 215.828 103.817 215.316C103.817 214.78 103.949 214.296 104.213 213.864C104.477 213.424 104.825 213.076 105.257 212.82C105.697 212.564 106.177 212.436 106.697 212.436C107.233 212.436 107.717 212.568 108.149 212.832C108.581 213.096 108.925 213.448 109.181 213.888C109.437 214.32 109.565 214.796 109.565 215.316C109.565 215.844 109.437 216.328 109.181 216.768C108.925 217.2 108.577 217.548 108.137 217.812C107.705 218.068 107.225 218.196 106.697 218.196ZM106.697 216.912C107.129 216.912 107.501 216.756 107.813 216.444C108.125 216.132 108.281 215.756 108.281 215.316C108.281 214.876 108.125 214.5 107.813 214.188C107.501 213.876 107.129 213.72 106.697 213.72C106.257 213.72 105.877 213.876 105.557 214.188C105.245 214.5 105.089 214.876 105.089 215.316C105.089 215.756 105.245 216.132 105.557 216.444C105.877 216.756 106.257 216.912 106.697 216.912Z" fill="white"/>
</g>
<g filter="url(#filter4_d_776_1029)">
<circle cx="143" cy="223" r="8" fill="#4268FF"/>
<circle cx="143" cy="223" r="7" stroke="white" stroke-width="2"/>
</g>
<path d="M169.009 223.554C168.832 221.423 171.187 220.384 172.712 221.401H172.713L173.009 221.6L173.859 222.175C178.098 225.075 182.088 228.325 185.785 231.892V231.893C186.616 232.695 186.677 233.786 186.249 234.612C185.863 235.357 185.058 235.926 184.087 235.9L183.891 235.887L178.625 235.323C178.502 235.31 178.427 235.379 178.408 235.421V235.422L176.279 240.118C175.391 242.079 172.454 241.93 171.86 239.776C170.43 234.584 169.485 229.269 169.038 223.901L169.009 223.554Z" fill="white" stroke="#B1C0FF" stroke-width="2"/>
</g>
<defs>
<filter id="filter0_n_776_1029" x="0" y="0" width="508" height="318" filterUnits="userSpaceOnUse" color-interpolation-filters="sRGB">
<feFlood flood-opacity="0" result="BackgroundImageFix"/>
<feBlend mode="normal" in="SourceGraphic" in2="BackgroundImageFix" result="shape"/>
<feTurbulence type="fractalNoise" baseFrequency="2 2" stitchTiles="stitch" numOctaves="3" result="noise" seed="2580" />
<feColorMatrix in="noise" type="luminanceToAlpha" result="alphaNoise" />
<feComponentTransfer in="alphaNoise" result="coloredNoise1">
<feFuncA type="discrete" tableValues="1 1 1 1 1 1 1 1 1 1 1 1 1 1 1 1 1 1 1 1 1 1 1 1 1 1 1 1 1 1 1 1 1 1 1 1 1 1 1 1 1 1 1 1 1 1 1 1 1 1 1 0 0 0 0 0 0 0 0 0 0 0 0 0 0 0 0 0 0 0 0 0 0 0 0 0 0 0 0 0 0 0 0 0 0 0 0 0 0 0 0 0 0 0 0 0 0 0 0 0 "/>
</feComponentTransfer>
<feComposite operator="in" in2="shape" in="coloredNoise1" result="noise1Clipped" />
<feFlood flood-color="rgba(255, 255, 255, 0.25)" result="color1Flood" />
<feComposite operator="in" in2="noise1Clipped" in="color1Flood" result="color1" />
<feMerge result="effect1_noise_776_1029">
<feMergeNode in="shape" />
<feMergeNode in="color1" />
</feMerge>
</filter>
<filter id="filter1_d_776_1029" x="76" y="-19" width="357" height="357" filterUnits="userSpaceOnUse" color-interpolation-filters="sRGB">
<feFlood flood-opacity="0" result="BackgroundImageFix"/>
<feColorMatrix in="SourceAlpha" type="matrix" values="0 0 0 0 0 0 0 0 0 0 0 0 0 0 0 0 0 0 127 0" result="hardAlpha"/>
<feOffset/>
<feGaussianBlur stdDeviation="25"/>
<feComposite in2="hardAlpha" operator="out"/>
<feColorMatrix type="matrix" values="0 0 0 0 0.0468057 0 0 0 0 0.0634939 0 0 0 0 0.129808 0 0 0 0.1 0"/>
<feBlend mode="normal" in2="BackgroundImageFix" result="effect1_dropShadow_776_1029"/>
<feBlend mode="normal" in="SourceGraphic" in2="effect1_dropShadow_776_1029" result="shape"/>
</filter>
<filter id="filter2_di_776_1029" x="77" y="-18" width="355" height="355" filterUnits="userSpaceOnUse" color-interpolation-filters="sRGB">
<feFlood flood-opacity="0" result="BackgroundImageFix"/>
<feColorMatrix in="SourceAlpha" type="matrix" values="0 0 0 0 0 0 0 0 0 0 0 0 0 0 0 0 0 0 127 0" result="hardAlpha"/>
<feOffset/>
<feGaussianBlur stdDeviation="25"/>
<feComposite in2="hardAlpha" operator="out"/>
<feColorMatrix type="matrix" values="0 0 0 0 0.0468057 0 0 0 0 0.0634939 0 0 0 0 0.129808 0 0 0 0.1 0"/>
<feBlend mode="normal" in2="BackgroundImageFix" result="effect1_dropShadow_776_1029"/>
<feBlend mode="normal" in="SourceGraphic" in2="effect1_dropShadow_776_1029" result="shape"/>
<feColorMatrix in="SourceAlpha" type="matrix" values="0 0 0 0 0 0 0 0 0 0 0 0 0 0 0 0 0 0 127 0" result="hardAlpha"/>
<feOffset dy="5"/>
<feGaussianBlur stdDeviation="12.5"/>
<feComposite in2="hardAlpha" operator="arithmetic" k2="-1" k3="1"/>
<feColorMatrix type="matrix" values="0 0 0 0 0 0 0 0 0 0 0 0 0 0 0 0 0 0 0.25 0"/>
<feBlend mode="normal" in2="shape" result="effect2_innerShadow_776_1029"/>
</filter>
<filter id="filter3_d_776_1029" x="57" y="190" width="74" height="49" filterUnits="userSpaceOnUse" color-interpolation-filters="sRGB">
<feFlood flood-opacity="0" result="BackgroundImageFix"/>
<feColorMatrix in="SourceAlpha" type="matrix" values="0 0 0 0 0 0 0 0 0 0 0 0 0 0 0 0 0 0 127 0" result="hardAlpha"/>
<feOffset dy="4"/>
<feGaussianBlur stdDeviation="2"/>
<feComposite in2="hardAlpha" operator="out"/>
<feColorMatrix type="matrix" values="0 0 0 0 0.259615 0 0 0 0 0.407692 0 0 0 0 1 0 0 0 0.15 0"/>
<feBlend mode="normal" in2="BackgroundImageFix" result="effect1_dropShadow_776_1029"/>
<feBlend mode="normal" in="SourceGraphic" in2="effect1_dropShadow_776_1029" result="shape"/>
</filter>
<filter id="filter4_d_776_1029" x="131" y="215" width="24" height="24" filterUnits="userSpaceOnUse" color-interpolation-filters="sRGB">
<feFlood flood-opacity="0" result="BackgroundImageFix"/>
<feColorMatrix in="SourceAlpha" type="matrix" values="0 0 0 0 0 0 0 0 0 0 0 0 0 0 0 0 0 0 127 0" result="hardAlpha"/>
<feOffset dy="4"/>
<feGaussianBlur stdDeviation="2"/>
<feComposite in2="hardAlpha" operator="out"/>
<feColorMatrix type="matrix" values="0 0 0 0 0.259615 0 0 0 0 0.407692 0 0 0 0 1 0 0 0 0.25 0"/>
<feBlend mode="normal" in2="BackgroundImageFix" result="effect1_dropShadow_776_1029"/>
<feBlend mode="normal" in="SourceGraphic" in2="effect1_dropShadow_776_1029" result="shape"/>
</filter>
<clipPath id="clip0_776_1029">
<rect width="508" height="318" fill="white"/>
</clipPath>
</defs>
</svg>
