<svg preserveAspectRatio="none" width="100%" height="100%" overflow="visible" style="display: block;" viewBox="0 0 40.0174 40.0176" fill="none" xmlns="http://www.w3.org/2000/svg">
<g id="Group">
<path id="Vector" d="M23.0174 0C22.6614 0 22.3054 0.0260001 22.0334 0.0440001L21.8854 0.0539999C21.3789 0.0875045 20.9041 0.312376 20.5572 0.683023C20.2103 1.05367 20.0173 1.54236 20.0174 2.05V18C20.0174 18.5304 20.2281 19.0391 20.6032 19.4142C20.9783 19.7893 21.487 20 22.0174 20H37.9674C38.4751 20.0001 38.9638 19.8071 39.3344 19.4603C39.7051 19.1134 39.9299 18.6385 39.9634 18.132L39.9734 17.984C39.9996 17.6566 40.0143 17.3284 40.0174 17C40.0174 14.7675 39.5777 12.5569 38.7234 10.4944C37.8691 8.43185 36.6168 6.55778 35.0383 4.97919C33.4597 3.40059 31.5856 2.14838 29.5231 1.29405C27.4605 0.439718 25.2499 0 23.0174 0Z" fill="var(--fill-0, white)"/>
<path id="Vector_2" d="M18.0174 8.05C18.0175 7.77639 17.9614 7.50568 17.8526 7.25462C17.7438 7.00356 17.5847 6.77749 17.385 6.5904C17.1853 6.4033 16.9494 6.25917 16.6918 6.16691C16.4343 6.07464 16.1605 6.03622 15.8874 6.054C12.627 6.26784 9.49727 7.41675 6.87287 9.36321C4.24848 11.3097 2.24062 13.9712 1.08964 17.0292C-0.0613323 20.0872 -0.306655 23.4121 0.38304 26.6059C1.07273 29.7998 2.66822 32.7271 4.97852 35.0377C7.28882 37.3483 10.216 38.9441 13.4098 39.6341C16.6035 40.3242 19.9285 40.0792 22.9866 38.9286C26.0447 37.7779 28.7065 35.7704 30.6532 33.1462C32.6 30.522 33.7492 27.3924 33.9634 24.132C33.9815 23.8588 33.9433 23.5848 33.8512 23.327C33.759 23.0692 33.6149 22.833 33.4278 22.6331C33.2407 22.4332 33.0145 22.2739 32.7633 22.165C32.5121 22.0561 32.2412 22 31.9674 22H18.0174V8.05Z" fill="var(--fill-0, white)"/>
</g>
</svg>
