<svg preserveAspectRatio="none" width="100%" height="100%" overflow="visible" style="display: block;" viewBox="0 0 48 48" fill="none" xmlns="http://www.w3.org/2000/svg">
<g id="fluent:brain-sparkle-20-filled" clip-path="url(#clip0_0_130)">
<path id="Vector" d="M35.7072 0.676799L36.5424 3.2472C36.8017 4.02928 37.2403 4.73983 37.8234 5.32201C38.4064 5.9042 39.1176 6.34187 39.9 6.6L42.4704 7.4352L42.5208 7.4496C42.719 7.51939 42.8908 7.64899 43.0122 7.82051C43.1337 7.99203 43.1989 8.19703 43.1989 8.4072C43.1989 8.61737 43.1337 8.82237 43.0122 8.99389C42.8908 9.16541 42.719 9.29501 42.5208 9.3648L39.9504 10.2C39.168 10.4581 38.4568 10.8958 37.8738 11.478C37.2907 12.0602 36.8521 12.7707 36.5928 13.5528L35.7576 16.1208C35.6878 16.319 35.5582 16.4908 35.3867 16.6122C35.2152 16.7337 35.0102 16.7989 34.8 16.7989C34.5898 16.7989 34.3848 16.7337 34.2133 16.6122C34.0418 16.4908 33.9122 16.319 33.8424 16.1208L33.0048 13.5528C32.7476 12.769 32.3103 12.0563 31.728 11.472C31.1454 10.8865 30.4335 10.4459 29.6496 10.1856L27.0792 9.3504C26.881 9.28061 26.7092 9.15101 26.5878 8.97949C26.4663 8.80797 26.4011 8.60297 26.4011 8.3928C26.4011 8.18263 26.4663 7.97763 26.5878 7.80611C26.7092 7.63458 26.881 7.50499 27.0792 7.4352L29.6496 6.6C30.4223 6.33488 31.1229 5.89409 31.6964 5.31231C32.2698 4.73053 32.7005 4.02362 32.9544 3.2472L33.7896 0.679199C33.8589 0.480116 33.9884 0.307536 34.1602 0.185409C34.332 0.0632823 34.5376 -0.00233405 34.7484 -0.00233405C34.9592 -0.00233405 35.1648 0.0632823 35.3366 0.185409C35.5084 0.307536 35.6379 0.477716 35.7072 0.676799ZM47.4792 19.7136L45.6408 19.1184C45.083 18.9319 44.5762 18.6182 44.1604 18.2021C43.7447 17.7859 43.4315 17.2788 43.2456 16.7208L42.6456 14.8872C42.5959 14.7454 42.5034 14.6226 42.3809 14.5357C42.2583 14.4488 42.1118 14.4021 41.9616 14.4021C41.8114 14.4021 41.6649 14.4488 41.5423 14.5357C41.4198 14.6226 41.3273 14.7454 41.2776 14.8872L40.6824 16.7208C40.4999 17.2752 40.1918 17.7801 39.7821 18.1959C39.3725 18.6118 38.8724 18.9275 38.3208 19.1184L36.4848 19.7136C36.3441 19.7644 36.2225 19.8573 36.1366 19.9797C36.0506 20.1021 36.0045 20.248 36.0045 20.3976C36.0045 20.5472 36.0506 20.6931 36.1366 20.8155C36.2225 20.9379 36.3441 21.0308 36.4848 21.0816L38.3208 21.6792C38.8803 21.8658 39.3886 22.1803 39.8052 22.5978C40.2218 23.0152 40.5353 23.5241 40.7208 24.084L41.316 25.9176C41.3657 26.0594 41.4582 26.1822 41.5807 26.2691C41.7033 26.356 41.8498 26.4027 42 26.4027C42.1502 26.4027 42.2967 26.356 42.4193 26.2691C42.5418 26.1822 42.6343 26.0594 42.684 25.9176L43.2816 24.084C43.4678 23.5257 43.7814 23.0184 44.1975 22.6023C44.6136 22.1861 45.1209 21.8726 45.6792 21.6864L47.5152 21.0912C47.6559 21.0404 47.7775 20.9475 47.8634 20.8251C47.9494 20.7027 47.9955 20.5568 47.9955 20.4072C47.9955 20.2576 47.9494 20.1117 47.8634 19.9893C47.7775 19.8669 47.6559 19.774 47.5152 19.7232L47.4792 19.7136ZM42.0048 28.8C41.3662 28.7992 40.7426 28.6069 40.2144 28.248C39.6864 27.864 39.3024 27.3576 39.0624 26.7576L38.4384 24.8328C38.3751 24.6302 38.2591 24.448 38.1024 24.3048C37.9532 24.1554 37.7729 24.0407 37.5744 23.9688L35.7456 23.3688C35.0976 23.1288 34.5696 22.7424 34.1856 22.2144C33.8016 21.6864 33.6096 21.06 33.6096 20.4096C33.6096 19.9536 33.7056 19.4976 33.8976 19.0896C33.5136 18.9936 33.1536 18.8256 32.8176 18.5856C32.2465 18.167 31.8116 17.5893 31.5672 16.9248L30.7032 14.304C30.4872 13.752 30.2712 13.44 30.0072 13.176C29.6849 12.8647 29.2994 12.6265 28.8768 12.4776L26.3304 11.6376C25.9155 11.4996 25.5315 11.2819 25.2 10.9968V41.4048C26.1389 42.2377 27.2809 42.8082 28.5107 43.0587C29.7406 43.3093 31.0147 43.231 32.2047 42.8317C33.3946 42.4325 34.4581 41.7265 35.288 40.7849C36.1178 39.8433 36.6846 38.6994 36.9312 37.4688L37.02 37.02C38.8976 36.6218 40.5625 35.5452 41.696 33.9963C42.8296 32.4474 43.3522 30.5349 43.164 28.6248C42.7898 28.7461 42.3982 28.8053 42.0048 28.8ZM22.8 5.9088C22.011 5.33571 21.0905 4.97025 20.1232 4.84606C19.1559 4.72187 18.173 4.84292 17.2647 5.19808C16.3565 5.55325 15.5522 6.13112 14.9258 6.87853C14.2994 7.62593 13.871 8.51888 13.68 9.4752L13.38 10.98L12.4056 11.1744C10.938 11.4688 9.6175 12.2622 8.66855 13.4198C7.71961 14.5775 7.2007 16.0279 7.2 17.5248V18C7.2 19.7424 7.944 21.312 9.132 22.4088C7.68093 23.1278 6.48983 24.2809 5.72415 25.7079C4.95848 27.135 4.65625 28.765 4.85946 30.3716C5.06266 31.9783 5.76121 33.4818 6.85806 34.6732C7.95491 35.8646 9.3956 36.6849 10.98 37.02L11.0688 37.464C11.315 38.6948 11.8816 39.839 12.7113 40.7808C13.541 41.7227 14.6045 42.4291 15.7945 42.8286C16.9845 43.2281 18.2588 43.3066 19.4888 43.0562C20.7188 42.8058 21.8609 42.2353 22.8 41.4024V5.9088Z" fill="var(--fill-0, white)"/>
</g>
<defs>
<clipPath id="clip0_0_130">
<rect width="48" height="48" fill="white"/>
</clipPath>
</defs>
</svg>
