<svg width="564" height="564" viewBox="0 0 564 564" fill="none" xmlns="http://www.w3.org/2000/svg">
<rect width="564" height="564" rx="24" fill="#FAFAFA"/>
<g filter="url(#filter0_d_2931_5438)">
<rect x="68" y="93" width="427" height="378" rx="22.0629" fill="white" shape-rendering="crispEdges"/>
<rect x="68.4596" y="93.4596" width="426.081" height="377.081" rx="21.6033" stroke="#0C1021" stroke-opacity="0.05" stroke-width="0.919289" shape-rendering="crispEdges"/>
<path d="M204.603 123.2H207.519L213.627 140H210.987L209.823 136.808H202.299L201.147 140H198.495L204.603 123.2ZM203.223 134.312H208.899L206.055 126.512L203.223 134.312ZM216.116 140V123.2H218.612V140H216.116ZM235.416 140.312C234.28 140.312 233.212 140.088 232.212 139.64C231.212 139.184 230.332 138.556 229.572 137.756C228.812 136.956 228.216 136.032 227.784 134.984C227.352 133.928 227.136 132.8 227.136 131.6C227.136 130.4 227.352 129.276 227.784 128.228C228.216 127.172 228.812 126.244 229.572 125.444C230.332 124.644 231.212 124.02 232.212 123.572C233.212 123.116 234.28 122.888 235.416 122.888C236.56 122.888 237.632 123.116 238.632 123.572C239.632 124.02 240.512 124.644 241.272 125.444C242.032 126.244 242.624 127.172 243.048 128.228C243.48 129.276 243.696 130.4 243.696 131.6C243.696 132.8 243.48 133.928 243.048 134.984C242.624 136.032 242.032 136.956 241.272 137.756C240.512 138.556 239.632 139.184 238.632 139.64C237.632 140.088 236.56 140.312 235.416 140.312ZM235.416 137.816C236.216 137.816 236.964 137.652 237.66 137.324C238.356 136.996 238.968 136.548 239.496 135.98C240.032 135.404 240.448 134.744 240.744 134C241.048 133.248 241.2 132.448 241.2 131.6C241.2 130.752 241.048 129.952 240.744 129.2C240.448 128.448 240.032 127.788 239.496 127.22C238.968 126.644 238.356 126.196 237.66 125.876C236.964 125.548 236.216 125.384 235.416 125.384C234.616 125.384 233.868 125.548 233.172 125.876C232.476 126.204 231.86 126.656 231.324 127.232C230.796 127.8 230.38 128.46 230.076 129.212C229.78 129.956 229.632 130.752 229.632 131.6C229.632 132.456 229.78 133.26 230.076 134.012C230.38 134.756 230.796 135.416 231.324 135.992C231.86 136.56 232.476 137.008 233.172 137.336C233.868 137.656 234.616 137.816 235.416 137.816ZM248.581 146H246.085V128H248.581V129.764C248.981 129.148 249.493 128.648 250.117 128.264C250.741 127.88 251.477 127.688 252.325 127.688C253.197 127.688 254.013 127.852 254.773 128.18C255.541 128.508 256.213 128.964 256.789 129.548C257.365 130.124 257.817 130.792 258.145 131.552C258.473 132.312 258.637 133.128 258.637 134C258.637 134.872 258.473 135.692 258.145 136.46C257.817 137.228 257.365 137.904 256.789 138.488C256.213 139.064 255.541 139.516 254.773 139.844C254.013 140.172 253.197 140.336 252.325 140.336C251.477 140.336 250.741 140.144 250.117 139.76C249.493 139.368 248.981 138.868 248.581 138.26V146ZM252.301 130.1C251.605 130.1 250.993 130.276 250.465 130.628C249.937 130.98 249.525 131.452 249.229 132.044C248.933 132.628 248.785 133.28 248.785 134C248.785 134.72 248.933 135.376 249.229 135.968C249.525 136.56 249.937 137.032 250.465 137.384C250.993 137.736 251.605 137.912 252.301 137.912C252.989 137.912 253.621 137.74 254.197 137.396C254.773 137.044 255.233 136.572 255.577 135.98C255.921 135.388 256.093 134.728 256.093 134C256.093 133.288 255.921 132.636 255.577 132.044C255.241 131.452 254.785 130.98 254.209 130.628C253.633 130.276 252.997 130.1 252.301 130.1ZM266.858 130.496H264.338L264.326 140H261.83L261.842 130.496H259.934V128H261.842L261.83 124.232H264.326L264.338 128H266.858V130.496ZM268.842 128H271.338V140H268.842V128ZM270.114 126.26C269.73 126.26 269.41 126.136 269.154 125.888C268.898 125.64 268.77 125.328 268.77 124.952C268.77 124.584 268.898 124.276 269.154 124.028C269.41 123.772 269.726 123.644 270.102 123.644C270.47 123.644 270.782 123.772 271.038 124.028C271.294 124.276 271.422 124.584 271.422 124.952C271.422 125.328 271.294 125.64 271.038 125.888C270.79 126.136 270.482 126.26 270.114 126.26ZM274.139 140V128H276.635V129.272C277.051 128.776 277.559 128.384 278.159 128.096C278.767 127.808 279.423 127.664 280.127 127.664C280.983 127.664 281.771 127.872 282.491 128.288C283.211 128.696 283.783 129.24 284.207 129.92C284.631 129.24 285.195 128.696 285.899 128.288C286.611 127.872 287.395 127.664 288.251 127.664C289.139 127.664 289.947 127.88 290.675 128.312C291.403 128.744 291.983 129.324 292.415 130.052C292.847 130.78 293.063 131.588 293.063 132.476V140H290.567V133.112C290.567 132.584 290.439 132.1 290.183 131.66C289.927 131.22 289.583 130.864 289.151 130.592C288.719 130.32 288.239 130.184 287.711 130.184C287.183 130.184 286.703 130.312 286.271 130.568C285.839 130.824 285.495 131.172 285.239 131.612C284.983 132.052 284.855 132.552 284.855 133.112V140H282.359V133.112C282.359 132.552 282.231 132.052 281.975 131.612C281.719 131.172 281.371 130.824 280.931 130.568C280.499 130.312 280.019 130.184 279.491 130.184C278.971 130.184 278.491 130.32 278.051 130.592C277.619 130.864 277.275 131.22 277.019 131.66C276.763 132.1 276.635 132.584 276.635 133.112V140H274.139ZM295.467 128H297.963V140H295.467V128ZM296.739 126.26C296.355 126.26 296.035 126.136 295.779 125.888C295.523 125.64 295.395 125.328 295.395 124.952C295.395 124.584 295.523 124.276 295.779 124.028C296.035 123.772 296.351 123.644 296.727 123.644C297.095 123.644 297.407 123.772 297.663 124.028C297.919 124.276 298.047 124.584 298.047 124.952C298.047 125.328 297.919 125.64 297.663 125.888C297.415 126.136 297.107 126.26 296.739 126.26ZM310.603 130.496L303.931 137.504H310.603V140H300.355V137.504L307.027 130.496H300.355V128H310.603V130.496ZM322.124 128H324.62V140H322.112L322.016 138.26C321.664 138.876 321.188 139.372 320.588 139.748C319.988 140.124 319.28 140.312 318.464 140.312C317.584 140.312 316.756 140.148 315.98 139.82C315.204 139.484 314.52 139.02 313.928 138.428C313.344 137.836 312.888 137.156 312.56 136.388C312.232 135.612 312.068 134.78 312.068 133.892C312.068 133.036 312.228 132.232 312.548 131.48C312.868 130.72 313.312 130.056 313.88 129.488C314.448 128.92 315.104 128.476 315.848 128.156C316.6 127.828 317.404 127.664 318.26 127.664C319.132 127.664 319.9 127.864 320.564 128.264C321.236 128.656 321.792 129.16 322.232 129.776L322.124 128ZM318.404 137.9C319.108 137.9 319.724 137.728 320.252 137.384C320.78 137.032 321.188 136.56 321.476 135.968C321.772 135.376 321.92 134.72 321.92 134C321.92 133.272 321.772 132.612 321.476 132.02C321.18 131.428 320.768 130.96 320.24 130.616C319.72 130.264 319.108 130.088 318.404 130.088C317.708 130.088 317.072 130.264 316.496 130.616C315.92 130.968 315.464 131.44 315.128 132.032C314.792 132.624 314.624 133.28 314.624 134C314.624 134.728 314.796 135.388 315.14 135.98C315.492 136.564 315.952 137.032 316.52 137.384C317.096 137.728 317.724 137.9 318.404 137.9ZM333.35 130.496H330.83L330.818 140H328.322L328.334 130.496H326.426V128H328.334L328.322 124.232H330.818L330.83 128H333.35V130.496ZM335.335 128H337.831V140H335.335V128ZM336.607 126.26C336.223 126.26 335.903 126.136 335.647 125.888C335.391 125.64 335.263 125.328 335.263 124.952C335.263 124.584 335.391 124.276 335.647 124.028C335.903 123.772 336.219 123.644 336.595 123.644C336.963 123.644 337.275 123.772 337.531 124.028C337.787 124.276 337.915 124.584 337.915 124.952C337.915 125.328 337.787 125.64 337.531 125.888C337.283 126.136 336.975 126.26 336.607 126.26ZM345.771 140.312C344.667 140.312 343.659 140.028 342.747 139.46C341.843 138.892 341.119 138.132 340.575 137.18C340.039 136.22 339.771 135.16 339.771 134C339.771 133.12 339.927 132.3 340.239 131.54C340.551 130.772 340.979 130.1 341.523 129.524C342.075 128.94 342.715 128.484 343.443 128.156C344.171 127.828 344.947 127.664 345.771 127.664C346.875 127.664 347.879 127.948 348.783 128.516C349.695 129.084 350.419 129.848 350.955 130.808C351.499 131.768 351.771 132.832 351.771 134C351.771 134.872 351.615 135.688 351.303 136.448C350.991 137.208 350.559 137.88 350.007 138.464C349.463 139.04 348.827 139.492 348.099 139.82C347.379 140.148 346.603 140.312 345.771 140.312ZM345.771 137.816C346.435 137.816 347.031 137.64 347.559 137.288C348.087 136.936 348.503 136.472 348.807 135.896C349.119 135.312 349.275 134.68 349.275 134C349.275 133.304 349.115 132.664 348.795 132.08C348.483 131.496 348.063 131.032 347.535 130.688C347.007 130.336 346.419 130.16 345.771 130.16C345.115 130.16 344.519 130.336 343.983 130.688C343.455 131.04 343.035 131.508 342.723 132.092C342.419 132.676 342.267 133.312 342.267 134C342.267 134.712 342.427 135.356 342.747 135.932C343.067 136.508 343.491 136.968 344.019 137.312C344.555 137.648 345.139 137.816 345.771 137.816ZM364.51 132.476V140H362.014V133.088C362.014 132.552 361.882 132.064 361.618 131.624C361.362 131.184 361.014 130.836 360.574 130.58C360.142 130.316 359.654 130.184 359.11 130.184C358.582 130.184 358.098 130.316 357.658 130.58C357.218 130.836 356.866 131.184 356.602 131.624C356.338 132.064 356.206 132.552 356.206 133.088V140H353.71V128H356.206V129.272C356.622 128.776 357.134 128.384 357.742 128.096C358.35 127.808 359.006 127.664 359.71 127.664C360.598 127.664 361.406 127.88 362.134 128.312C362.862 128.744 363.438 129.324 363.862 130.052C364.294 130.78 364.51 131.588 364.51 132.476Z" fill="#0C1021"/>
<g clip-path="url(#clip0_2931_5438)">
<mask id="path-5-inside-1_2931_5438" fill="white">
<path d="M92 170H471V447H92V170Z"/>
</mask>
<rect x="424" y="241" width="2" height="210" fill="url(#paint0_linear_2931_5438)"/>
<rect x="93.8262" y="229.864" width="377" height="1" rx="0.5" fill="#002852" fill-opacity="0.05"/>
<rect x="93" y="169" width="278" height="0.999988" rx="0.499994" transform="rotate(90 93 169)" fill="#002852" fill-opacity="0.05"/>
<rect x="93.8262" y="281.864" width="377" height="1" rx="0.5" fill="#002852" fill-opacity="0.05"/>
<rect x="93.8262" y="334.864" width="377" height="1" rx="0.5" fill="#002852" fill-opacity="0.05"/>
<rect x="93.8262" y="386.864" width="377" height="1" rx="0.5" fill="#002852" fill-opacity="0.05"/>
<path d="M312.249 295.742C224.416 328.658 81 346 81 346V459.5H523V182C523 182 398.078 263.577 312.249 295.742Z" fill="url(#paint1_linear_2931_5438)" fill-opacity="0.25" stroke="#4268FF" stroke-width="2"/>
<rect width="377" height="1" rx="0.5" transform="matrix(-1 0 0 1 510.174 229.864)" fill="#002852" fill-opacity="0.05"/>
<rect width="377" height="1" rx="0.5" transform="matrix(-1 0 0 1 510.174 281.864)" fill="#002852" fill-opacity="0.05"/>
<rect width="377" height="1" rx="0.5" transform="matrix(-1 0 0 1 510.174 334.864)" fill="#002852" fill-opacity="0.05"/>
<rect width="377" height="1" rx="0.5" transform="matrix(-1 0 0 1 510.174 386.864)" fill="#002852" fill-opacity="0.05"/>
<path d="M296.751 371.742C384.584 404.658 528 422 528 422V535.5H86V258C86 258 210.922 339.577 296.751 371.742Z" fill="url(#paint2_linear_2931_5438)" fill-opacity="0.25" stroke="#A305FF" stroke-width="2"/>
<g filter="url(#filter1_d_2931_5438)">
<rect x="380" y="199" width="89.6341" height="28.4878" rx="14.2439" fill="#0C1021" shape-rendering="crispEdges"/>
<rect x="380.354" y="199.354" width="88.9268" height="27.7805" rx="13.8902" stroke="#0C1021" stroke-opacity="0.1" stroke-width="0.707317" shape-rendering="crispEdges"/>
<path d="M396.486 219.465C395.852 219.465 395.238 219.366 394.644 219.168C394.056 218.97 393.541 218.687 393.099 218.319C392.658 217.951 392.347 217.513 392.166 217.003L393.278 216.587C393.402 216.938 393.628 217.241 393.957 217.496C394.291 217.745 394.678 217.937 395.119 218.073C395.567 218.209 396.022 218.277 396.486 218.277C397.029 218.277 397.536 218.186 398.005 218.005C398.475 217.824 398.854 217.572 399.143 217.25C399.431 216.921 399.576 216.537 399.576 216.095C399.576 215.648 399.426 215.28 399.126 214.992C398.826 214.703 398.438 214.477 397.963 214.313C397.493 214.143 397.001 214.013 396.486 213.922C395.677 213.781 394.95 213.588 394.305 213.345C393.665 213.102 393.159 212.759 392.785 212.318C392.412 211.871 392.225 211.283 392.225 210.553C392.225 209.868 392.423 209.274 392.819 208.77C393.215 208.267 393.736 207.876 394.381 207.599C395.032 207.322 395.733 207.183 396.486 207.183C397.103 207.183 397.705 207.279 398.294 207.472C398.882 207.664 399.4 207.944 399.847 208.312C400.3 208.68 400.625 209.13 400.823 209.661L399.694 210.069C399.57 209.712 399.341 209.41 399.007 209.161C398.679 208.906 398.294 208.714 397.853 208.583C397.411 208.448 396.956 208.38 396.486 208.38C395.948 208.374 395.445 208.465 394.975 208.651C394.511 208.832 394.135 209.087 393.846 209.415C393.558 209.738 393.413 210.117 393.413 210.553C393.413 211.062 393.546 211.455 393.812 211.732C394.084 212.004 394.452 212.208 394.916 212.344C395.38 212.479 395.903 212.601 396.486 212.709C397.244 212.839 397.949 213.042 398.599 213.32C399.25 213.591 399.774 213.956 400.17 214.415C400.566 214.867 400.764 215.427 400.764 216.095C400.764 216.774 400.566 217.368 400.17 217.878C399.774 218.381 399.25 218.772 398.599 219.049C397.954 219.326 397.25 219.465 396.486 219.465ZM408.641 217.114L409.702 217.691C409.317 218.228 408.828 218.658 408.233 218.981C407.645 219.304 407.005 219.465 406.315 219.465C405.534 219.465 404.821 219.264 404.176 218.862C403.537 218.46 403.025 217.923 402.64 217.25C402.261 216.57 402.071 215.821 402.071 215C402.071 214.378 402.182 213.798 402.402 213.26C402.623 212.717 402.926 212.242 403.31 211.834C403.701 211.421 404.154 211.099 404.669 210.867C405.183 210.635 405.732 210.519 406.315 210.519C407.005 210.519 407.645 210.68 408.233 211.002C408.828 211.325 409.317 211.758 409.702 212.301L408.641 212.87C408.347 212.496 407.993 212.211 407.58 212.013C407.167 211.809 406.745 211.707 406.315 211.707C405.744 211.707 405.226 211.86 404.762 212.165C404.298 212.465 403.93 212.864 403.658 213.362C403.393 213.86 403.26 214.406 403.26 215C403.26 215.594 403.395 216.14 403.667 216.638C403.944 217.136 404.315 217.535 404.779 217.835C405.243 218.129 405.755 218.277 406.315 218.277C406.779 218.277 407.215 218.169 407.622 217.954C408.03 217.739 408.369 217.459 408.641 217.114ZM418.095 210.756H419.283V219.244H418.095L418.053 217.665C417.775 218.203 417.388 218.639 416.89 218.973C416.392 219.301 415.798 219.465 415.107 219.465C414.485 219.465 413.902 219.349 413.359 219.117C412.816 218.879 412.337 218.554 411.924 218.141C411.511 217.728 411.189 217.25 410.957 216.706C410.725 216.163 410.609 215.58 410.609 214.958C410.609 214.347 410.722 213.772 410.948 213.235C411.18 212.697 411.497 212.225 411.899 211.817C412.306 211.41 412.776 211.093 413.308 210.867C413.845 210.635 414.42 210.519 415.031 210.519C415.738 210.519 416.355 210.688 416.881 211.028C417.408 211.362 417.826 211.8 418.137 212.344L418.095 210.756ZM415.082 218.31C415.687 218.31 416.208 218.163 416.644 217.869C417.079 217.569 417.413 217.167 417.645 216.664C417.883 216.16 418.002 215.606 418.002 215C418.002 214.378 417.883 213.818 417.645 213.32C417.408 212.816 417.071 212.417 416.635 212.123C416.199 211.829 415.682 211.682 415.082 211.682C414.482 211.682 413.933 211.831 413.435 212.131C412.943 212.426 412.55 212.825 412.255 213.328C411.967 213.832 411.823 214.389 411.823 215C411.823 215.617 411.972 216.177 412.272 216.681C412.572 217.179 412.968 217.575 413.461 217.869C413.959 218.163 414.499 218.31 415.082 218.31ZM421.098 219.244V206.512H422.286V219.244H421.098ZM427.999 219.465C427.218 219.465 426.505 219.264 425.86 218.862C425.221 218.46 424.708 217.923 424.324 217.25C423.945 216.57 423.755 215.821 423.755 215C423.755 214.378 423.865 213.798 424.086 213.26C424.307 212.717 424.609 212.242 424.994 211.834C425.385 211.421 425.837 211.099 426.352 210.867C426.867 210.635 427.416 210.519 427.999 210.519C428.627 210.519 429.204 210.643 429.73 210.892C430.262 211.141 430.718 211.489 431.097 211.936C431.482 212.383 431.77 212.907 431.963 213.506C432.161 214.106 432.243 214.754 432.209 215.45H425.011C425.079 215.988 425.249 216.469 425.52 216.893C425.798 217.317 426.149 217.654 426.573 217.903C427.003 218.146 427.478 218.271 427.999 218.277C428.565 218.277 429.074 218.129 429.527 217.835C429.985 217.541 430.353 217.136 430.63 216.621L431.835 216.902C431.496 217.654 430.984 218.271 430.299 218.752C429.614 219.227 428.848 219.465 427.999 219.465ZM424.977 214.491H431.012C430.972 213.965 430.811 213.484 430.528 213.048C430.251 212.607 429.892 212.256 429.45 211.996C429.009 211.73 428.525 211.597 427.999 211.597C427.473 211.597 426.992 211.727 426.556 211.987C426.12 212.242 425.764 212.59 425.486 213.031C425.209 213.467 425.039 213.953 424.977 214.491ZM442.434 219.465C441.483 219.465 440.663 219.233 439.972 218.769C439.282 218.305 438.75 217.682 438.377 216.902C438.009 216.115 437.825 215.244 437.825 214.287V207.361H439.013V214.287C439.013 215.012 439.146 215.676 439.412 216.282C439.678 216.887 440.066 217.371 440.575 217.733C441.084 218.095 441.704 218.277 442.434 218.277C443.181 218.277 443.806 218.095 444.309 217.733C444.819 217.366 445.204 216.879 445.464 216.273C445.724 215.668 445.854 215.006 445.854 214.287V207.361H447.043V214.287C447.043 215.006 446.935 215.679 446.72 216.307C446.511 216.93 446.205 217.479 445.803 217.954C445.407 218.429 444.923 218.8 444.352 219.066C443.786 219.332 443.147 219.465 442.434 219.465ZM450.269 223.488H449.081V210.756H450.269V212.344C450.564 211.806 450.965 211.37 451.475 211.036C451.984 210.703 452.589 210.536 453.291 210.536C453.908 210.536 454.485 210.652 455.023 210.884C455.566 211.116 456.041 211.438 456.449 211.851C456.856 212.259 457.176 212.731 457.408 213.269C457.64 213.806 457.756 214.383 457.756 215C457.756 215.617 457.64 216.197 457.408 216.74C457.176 217.283 456.856 217.762 456.449 218.175C456.041 218.582 455.566 218.902 455.023 219.134C454.485 219.366 453.908 219.482 453.291 219.482C452.589 219.482 451.984 219.315 451.475 218.981C450.965 218.647 450.564 218.211 450.269 217.674V223.488ZM453.283 211.69C452.688 211.69 452.171 211.84 451.729 212.14C451.294 212.434 450.957 212.83 450.719 213.328C450.482 213.826 450.363 214.383 450.363 215C450.363 215.606 450.479 216.16 450.711 216.664C450.948 217.167 451.285 217.569 451.721 217.869C452.162 218.169 452.683 218.319 453.283 218.319C453.871 218.319 454.411 218.172 454.904 217.878C455.402 217.583 455.801 217.187 456.101 216.689C456.4 216.186 456.55 215.623 456.55 215C456.55 214.395 456.403 213.843 456.109 213.345C455.815 212.842 455.421 212.44 454.929 212.14C454.437 211.84 453.888 211.69 453.283 211.69Z" fill="white"/>
</g>
<g filter="url(#filter2_d_2931_5438)">
<rect x="327.5" y="357" width="104.634" height="28.4878" rx="14.2439" fill="#0C1021" shape-rendering="crispEdges"/>
<rect x="327.854" y="357.354" width="103.927" height="27.7805" rx="13.8902" stroke="#0C1021" stroke-opacity="0.1" stroke-width="0.707317" shape-rendering="crispEdges"/>
<path d="M345.336 377.465C344.532 377.465 343.777 377.306 343.069 376.99C342.362 376.667 341.74 376.226 341.202 375.665C340.67 375.1 340.251 374.443 339.946 373.696C339.646 372.949 339.496 372.151 339.496 371.303C339.496 370.454 339.646 369.656 339.946 368.909C340.251 368.162 340.67 367.509 341.202 366.948C341.74 366.383 342.362 365.941 343.069 365.624C343.777 365.302 344.532 365.141 345.336 365.141C346.298 365.141 347.183 365.364 347.992 365.811C348.801 366.258 349.472 366.852 350.004 367.594L348.951 368.162C348.533 367.602 348.001 367.158 347.356 366.83C346.716 366.496 346.043 366.329 345.336 366.329C344.685 366.329 344.077 366.462 343.511 366.728C342.951 366.988 342.458 367.347 342.034 367.806C341.609 368.264 341.278 368.793 341.041 369.393C340.803 369.993 340.684 370.629 340.684 371.303C340.684 371.987 340.803 372.63 341.041 373.229C341.284 373.829 341.618 374.358 342.042 374.817C342.472 375.275 342.967 375.634 343.528 375.895C344.094 376.149 344.696 376.277 345.336 376.277C346.071 376.277 346.753 376.11 347.381 375.776C348.015 375.436 348.538 374.995 348.951 374.452L350.004 375.02C349.472 375.762 348.801 376.356 347.992 376.803C347.183 377.244 346.298 377.465 345.336 377.465ZM355.009 377.465C354.228 377.465 353.515 377.264 352.87 376.862C352.23 376.46 351.718 375.923 351.334 375.25C350.954 374.57 350.765 373.821 350.765 373C350.765 372.378 350.875 371.798 351.096 371.26C351.317 370.717 351.619 370.242 352.004 369.834C352.395 369.421 352.847 369.099 353.362 368.867C353.877 368.635 354.426 368.519 355.009 368.519C355.79 368.519 356.5 368.72 357.139 369.121C357.784 369.523 358.296 370.063 358.675 370.742C359.06 371.422 359.253 372.174 359.253 373C359.253 373.617 359.142 374.194 358.922 374.732C358.701 375.269 358.395 375.745 358.005 376.158C357.62 376.565 357.17 376.885 356.655 377.117C356.146 377.349 355.597 377.465 355.009 377.465ZM355.009 376.277C355.586 376.277 356.104 376.127 356.562 375.827C357.026 375.521 357.391 375.119 357.657 374.621C357.929 374.123 358.064 373.583 358.064 373C358.064 372.406 357.929 371.86 357.657 371.362C357.385 370.858 357.018 370.457 356.554 370.157C356.095 369.857 355.58 369.707 355.009 369.707C354.432 369.707 353.911 369.86 353.447 370.165C352.989 370.465 352.624 370.864 352.352 371.362C352.086 371.86 351.953 372.406 351.953 373C351.953 373.611 352.092 374.166 352.369 374.664C352.646 375.156 353.017 375.549 353.481 375.844C353.945 376.132 354.454 376.277 355.009 376.277ZM363.33 377.405C362.866 377.394 362.413 377.309 361.972 377.151C361.53 376.992 361.145 376.777 360.817 376.506C360.489 376.234 360.254 375.926 360.113 375.581L361.14 375.139C361.23 375.36 361.397 375.564 361.641 375.75C361.889 375.931 362.172 376.078 362.489 376.192C362.806 376.299 363.12 376.353 363.431 376.353C363.777 376.353 364.099 376.296 364.399 376.183C364.699 376.07 364.942 375.909 365.129 375.699C365.321 375.484 365.418 375.233 365.418 374.944C365.418 374.633 365.316 374.389 365.112 374.214C364.908 374.033 364.651 373.891 364.34 373.79C364.028 373.682 363.709 373.58 363.381 373.484C362.781 373.32 362.252 373.139 361.793 372.941C361.335 372.743 360.976 372.491 360.715 372.185C360.461 371.874 360.333 371.475 360.333 370.989C360.333 370.474 360.478 370.03 360.766 369.656C361.061 369.277 361.442 368.986 361.912 368.782C362.387 368.572 362.894 368.468 363.431 368.468C364.122 368.468 364.75 368.618 365.316 368.918C365.887 369.218 366.3 369.616 366.555 370.114L365.596 370.683C365.494 370.451 365.333 370.25 365.112 370.08C364.891 369.911 364.64 369.778 364.357 369.682C364.079 369.585 363.796 369.534 363.508 369.529C363.146 369.523 362.809 369.577 362.498 369.69C362.187 369.798 361.935 369.959 361.742 370.174C361.556 370.389 361.462 370.652 361.462 370.963C361.462 371.274 361.556 371.512 361.742 371.676C361.929 371.835 362.181 371.965 362.498 372.067C362.82 372.163 363.182 372.276 363.584 372.406C364.099 372.57 364.583 372.757 365.036 372.966C365.488 373.176 365.853 373.436 366.131 373.747C366.408 374.058 366.544 374.452 366.538 374.927C366.538 375.436 366.385 375.88 366.08 376.26C365.774 376.639 365.378 376.93 364.891 377.134C364.405 377.332 363.884 377.422 363.33 377.405ZM372.338 369.945H370.31L370.301 377.244H369.113L369.121 369.945H367.585V368.756H369.121L369.113 366.091H370.301L370.31 368.756H372.338V369.945ZM377.931 377.244V365.361H381.861C382.681 365.361 383.451 365.517 384.17 365.828C384.888 366.134 385.519 366.561 386.062 367.11C386.606 367.653 387.03 368.284 387.336 369.002C387.647 369.715 387.802 370.482 387.802 371.303C387.802 372.123 387.647 372.893 387.336 373.611C387.03 374.324 386.606 374.955 386.062 375.504C385.519 376.047 384.888 376.475 384.17 376.786C383.451 377.091 382.681 377.244 381.861 377.244H377.931ZM379.119 376.056H381.861C382.517 376.056 383.131 375.934 383.703 375.691C384.28 375.442 384.786 375.1 385.222 374.664C385.658 374.228 385.997 373.725 386.241 373.153C386.49 372.576 386.614 371.959 386.614 371.303C386.614 370.646 386.49 370.032 386.241 369.461C385.997 368.884 385.655 368.377 385.214 367.942C384.778 367.506 384.274 367.166 383.703 366.923C383.131 366.674 382.517 366.55 381.861 366.55H379.119V376.056ZM392.955 377.465C392.174 377.465 391.461 377.264 390.816 376.862C390.177 376.46 389.665 375.923 389.28 375.25C388.901 374.57 388.711 373.821 388.711 373C388.711 372.378 388.822 371.798 389.042 371.26C389.263 370.717 389.566 370.242 389.951 369.834C390.341 369.421 390.794 369.099 391.309 368.867C391.824 368.635 392.372 368.519 392.955 368.519C393.736 368.519 394.446 368.72 395.086 369.121C395.731 369.523 396.243 370.063 396.622 370.742C397.007 371.422 397.199 372.174 397.199 373C397.199 373.617 397.089 374.194 396.868 374.732C396.647 375.269 396.342 375.745 395.951 376.158C395.567 376.565 395.117 376.885 394.602 377.117C394.093 377.349 393.544 377.465 392.955 377.465ZM392.955 376.277C393.532 376.277 394.05 376.127 394.508 375.827C394.972 375.521 395.337 375.119 395.603 374.621C395.875 374.123 396.011 373.583 396.011 373C396.011 372.406 395.875 371.86 395.603 371.362C395.332 370.858 394.964 370.457 394.5 370.157C394.042 369.857 393.527 369.707 392.955 369.707C392.378 369.707 391.857 369.86 391.393 370.165C390.935 370.465 390.57 370.864 390.299 371.362C390.033 371.86 389.9 372.406 389.9 373C389.9 373.611 390.038 374.166 390.316 374.664C390.593 375.156 390.963 375.549 391.427 375.844C391.891 376.132 392.401 376.277 392.955 376.277ZM401.828 377.244H400.606L397.763 368.756H398.926L401.234 375.598L403.526 368.756H404.782L407.074 375.598L409.366 368.756H410.537L407.693 377.244H406.463L404.137 370.335L401.828 377.244ZM419.35 371.99V377.244H418.162V372.228C418.162 371.764 418.049 371.342 417.822 370.963C417.596 370.584 417.293 370.281 416.914 370.055C416.535 369.829 416.113 369.715 415.649 369.715C415.191 369.715 414.769 369.829 414.385 370.055C414.006 370.281 413.703 370.584 413.476 370.963C413.25 371.342 413.137 371.764 413.137 372.228V377.244H411.949V368.756H413.137V369.928C413.437 369.498 413.827 369.155 414.308 368.901C414.789 368.646 415.313 368.519 415.879 368.519C416.518 368.519 417.101 368.674 417.627 368.986C418.153 369.297 418.572 369.715 418.883 370.242C419.194 370.768 419.35 371.351 419.35 371.99Z" fill="white"/>
</g>
<g filter="url(#filter3_d_2931_5438)">
<circle cx="425" cy="239" r="8" fill="#4268FF"/>
<circle cx="425" cy="239" r="7" stroke="white" stroke-width="2"/>
</g>
<rect x="379" y="396" width="2" height="55" fill="url(#paint3_linear_2931_5438)"/>
<g filter="url(#filter4_d_2931_5438)">
<circle cx="380" cy="395" r="8" fill="#A305FF"/>
<circle cx="380" cy="395" r="7" stroke="white" stroke-width="2"/>
</g>
</g>
<path d="M471 447V446H92V447V448H471V447Z" fill="#002852" fill-opacity="0.05" mask="url(#path-5-inside-1_2931_5438)"/>
</g>
<defs>
<filter id="filter0_d_2931_5438" x="49.6142" y="78.2914" width="463.772" height="414.772" filterUnits="userSpaceOnUse" color-interpolation-filters="sRGB">
<feFlood flood-opacity="0" result="BackgroundImageFix"/>
<feColorMatrix in="SourceAlpha" type="matrix" values="0 0 0 0 0 0 0 0 0 0 0 0 0 0 0 0 0 0 127 0" result="hardAlpha"/>
<feOffset dy="3.67715"/>
<feGaussianBlur stdDeviation="9.19289"/>
<feComposite in2="hardAlpha" operator="out"/>
<feColorMatrix type="matrix" values="0 0 0 0 0.0468057 0 0 0 0 0.0634939 0 0 0 0 0.129808 0 0 0 0.1 0"/>
<feBlend mode="normal" in2="BackgroundImageFix" result="effect1_dropShadow_2931_5438"/>
<feBlend mode="normal" in="SourceGraphic" in2="effect1_dropShadow_2931_5438" result="shape"/>
</filter>
<filter id="filter1_d_2931_5438" x="377.171" y="199" width="95.2927" height="34.1463" filterUnits="userSpaceOnUse" color-interpolation-filters="sRGB">
<feFlood flood-opacity="0" result="BackgroundImageFix"/>
<feColorMatrix in="SourceAlpha" type="matrix" values="0 0 0 0 0 0 0 0 0 0 0 0 0 0 0 0 0 0 127 0" result="hardAlpha"/>
<feOffset dy="2.82927"/>
<feGaussianBlur stdDeviation="1.41463"/>
<feComposite in2="hardAlpha" operator="out"/>
<feColorMatrix type="matrix" values="0 0 0 0 0.259615 0 0 0 0 0.407692 0 0 0 0 1 0 0 0 0.15 0"/>
<feBlend mode="normal" in2="BackgroundImageFix" result="effect1_dropShadow_2931_5438"/>
<feBlend mode="normal" in="SourceGraphic" in2="effect1_dropShadow_2931_5438" result="shape"/>
</filter>
<filter id="filter2_d_2931_5438" x="324.671" y="357" width="110.293" height="34.1463" filterUnits="userSpaceOnUse" color-interpolation-filters="sRGB">
<feFlood flood-opacity="0" result="BackgroundImageFix"/>
<feColorMatrix in="SourceAlpha" type="matrix" values="0 0 0 0 0 0 0 0 0 0 0 0 0 0 0 0 0 0 127 0" result="hardAlpha"/>
<feOffset dy="2.82927"/>
<feGaussianBlur stdDeviation="1.41463"/>
<feComposite in2="hardAlpha" operator="out"/>
<feColorMatrix type="matrix" values="0 0 0 0 0.259615 0 0 0 0 0.407692 0 0 0 0 1 0 0 0 0.15 0"/>
<feBlend mode="normal" in2="BackgroundImageFix" result="effect1_dropShadow_2931_5438"/>
<feBlend mode="normal" in="SourceGraphic" in2="effect1_dropShadow_2931_5438" result="shape"/>
</filter>
<filter id="filter3_d_2931_5438" x="413" y="231" width="24" height="24" filterUnits="userSpaceOnUse" color-interpolation-filters="sRGB">
<feFlood flood-opacity="0" result="BackgroundImageFix"/>
<feColorMatrix in="SourceAlpha" type="matrix" values="0 0 0 0 0 0 0 0 0 0 0 0 0 0 0 0 0 0 127 0" result="hardAlpha"/>
<feOffset dy="4"/>
<feGaussianBlur stdDeviation="2"/>
<feComposite in2="hardAlpha" operator="out"/>
<feColorMatrix type="matrix" values="0 0 0 0 0.259615 0 0 0 0 0.407692 0 0 0 0 1 0 0 0 0.25 0"/>
<feBlend mode="normal" in2="BackgroundImageFix" result="effect1_dropShadow_2931_5438"/>
<feBlend mode="normal" in="SourceGraphic" in2="effect1_dropShadow_2931_5438" result="shape"/>
</filter>
<filter id="filter4_d_2931_5438" x="368" y="387" width="24" height="24" filterUnits="userSpaceOnUse" color-interpolation-filters="sRGB">
<feFlood flood-opacity="0" result="BackgroundImageFix"/>
<feColorMatrix in="SourceAlpha" type="matrix" values="0 0 0 0 0 0 0 0 0 0 0 0 0 0 0 0 0 0 127 0" result="hardAlpha"/>
<feOffset dy="4"/>
<feGaussianBlur stdDeviation="2"/>
<feComposite in2="hardAlpha" operator="out"/>
<feColorMatrix type="matrix" values="0 0 0 0 0.639216 0 0 0 0 0.0196078 0 0 0 0 1 0 0 0 0.25 0"/>
<feBlend mode="normal" in2="BackgroundImageFix" result="effect1_dropShadow_2931_5438"/>
<feBlend mode="normal" in="SourceGraphic" in2="effect1_dropShadow_2931_5438" result="shape"/>
</filter>
<linearGradient id="paint0_linear_2931_5438" x1="425" y1="241" x2="425" y2="451" gradientUnits="userSpaceOnUse">
<stop stop-color="#4268FF"/>
<stop offset="1" stop-color="#4268FF" stop-opacity="0"/>
</linearGradient>
<linearGradient id="paint1_linear_2931_5438" x1="302" y1="182" x2="302" y2="459.5" gradientUnits="userSpaceOnUse">
<stop stop-color="#4268FF"/>
<stop offset="1" stop-color="#4268FF" stop-opacity="0.09"/>
</linearGradient>
<linearGradient id="paint2_linear_2931_5438" x1="307" y1="258" x2="307" y2="535.5" gradientUnits="userSpaceOnUse">
<stop stop-color="#A305FF"/>
<stop offset="1" stop-color="#A305FF"/>
</linearGradient>
<linearGradient id="paint3_linear_2931_5438" x1="380" y1="396" x2="380" y2="451" gradientUnits="userSpaceOnUse">
<stop stop-color="#A305FF"/>
<stop offset="1" stop-color="#A305FF"/>
</linearGradient>
<clipPath id="clip0_2931_5438">
<path d="M92 170H471V447H92V170Z" fill="white"/>
</clipPath>
</defs>
</svg>
