<svg width="96" height="96" viewBox="0 0 96 96" fill="none" xmlns="http://www.w3.org/2000/svg">
<rect width="96" height="96" rx="48" fill="#4268FF"/>
<path d="M32.026 29.935C30.74 31.25 30.74 32.75 32.026 34.065C32.783 34.839 33.952 35.605 35.514 36.28C38.633 37.63 43.046 38.5 48 38.5C52.954 38.5 57.367 37.629 60.486 36.28C62.048 35.605 63.216 34.839 63.974 34.065C65.26 32.75 65.26 31.25 63.974 29.935C63.217 29.161 62.048 28.395 60.486 27.72C57.367 26.37 52.954 25.5 48 25.5C43.046 25.5 38.633 26.371 35.514 27.72C33.952 28.395 32.784 29.161 32.026 29.935Z" fill="white"/>
<path fill-rule="evenodd" clip-rule="evenodd" d="M27.9968 32.0011L27.9998 31.9541V32.0001C27.9998 33.6071 28.7598 35.0161 29.8808 36.1631C30.9968 37.3031 32.5368 38.2611 34.3228 39.0331C37.8998 40.5801 42.7358 41.5001 47.9998 41.5001C53.2638 41.5001 58.0998 40.5801 61.6768 39.0341C63.4628 38.2611 65.0028 37.3041 66.1178 36.1631C67.2398 35.0161 67.9998 33.5671 67.9998 31.9601L68.0758 33.2951C68.1228 34.1751 68.1858 35.4311 68.2488 36.9381C68.3558 39.5041 68.4628 42.8031 68.4918 46.2151C68.3638 47.9791 66.6628 50.0111 62.9358 51.7051C59.1898 53.4091 53.9098 54.5001 47.9998 54.5001C42.0898 54.5001 36.8098 53.4081 33.0638 51.7061C29.3368 50.0111 27.6358 47.9791 27.5078 46.2161C27.5378 42.8031 27.6438 39.5041 27.7508 36.9381C27.8197 35.2915 27.9017 33.6454 27.9968 32.0001M32.4998 46.0001C32.4998 45.4697 32.7105 44.961 33.0856 44.5859C33.4607 44.2108 33.9694 44.0001 34.4998 44.0001C35.0302 44.0001 35.539 44.2108 35.914 44.5859C36.2891 44.961 36.4998 45.4697 36.4998 46.0001C36.4998 46.5305 36.2891 47.0392 35.914 47.4143C35.539 47.7894 35.0302 48.0001 34.4998 48.0001C33.9694 48.0001 33.4607 47.7894 33.0856 47.4143C32.7105 47.0392 32.4998 46.5305 32.4998 46.0001ZM40.9998 49.7501C41.5302 49.7501 42.039 49.5394 42.414 49.1643C42.7891 48.7892 42.9998 48.2805 42.9998 47.7501C42.9998 47.2197 42.7891 46.711 42.414 46.3359C42.039 45.9608 41.5302 45.7501 40.9998 45.7501C40.4694 45.7501 39.9607 45.9608 39.5856 46.3359C39.2105 46.711 38.9998 47.2197 38.9998 47.7501C38.9998 48.2805 39.2105 48.7892 39.5856 49.1643C39.9607 49.5394 40.4694 49.7501 40.9998 49.7501Z" fill="white"/>
<path fill-rule="evenodd" clip-rule="evenodd" d="M27.7521 57.5832C27.6468 55.6513 27.5754 53.7176 27.5381 51.7832C28.7381 52.8182 30.2151 53.7062 31.8231 54.4372C36.0401 56.3542 41.7601 57.5002 48.0001 57.5002C54.2401 57.5002 59.9601 56.3542 64.1771 54.4372C65.7851 53.7062 67.2621 52.8172 68.4621 51.7832C68.4161 54.1112 68.3321 56.0702 68.2481 57.5832C68.1867 58.691 68.109 59.7977 68.0151 60.9032L68.0111 60.9572L67.9991 61.0782C67.9751 62.6532 67.2221 64.0342 66.1191 65.1632C65.0031 66.3032 63.4631 67.2612 61.6771 68.0332C58.1001 69.5802 53.2631 70.5002 48.0001 70.5002C42.7371 70.5002 37.9001 69.5802 34.3231 68.0342C32.5371 67.2612 30.9971 66.3042 29.8811 65.1632C28.7781 64.0352 28.0251 62.6532 28.0011 61.0792L27.9841 60.9042L27.9261 60.2122C27.8588 59.3365 27.8008 58.4601 27.7521 57.5832ZM34.5001 63.5002C35.0305 63.5002 35.5392 63.2895 35.9143 62.9144C36.2894 62.5393 36.5001 62.0306 36.5001 61.5002C36.5001 60.9698 36.2894 60.4611 35.9143 60.086C35.5392 59.7109 35.0305 59.5002 34.5001 59.5002C33.9697 59.5002 33.4609 59.7109 33.0859 60.086C32.7108 60.4611 32.5001 60.9698 32.5001 61.5002C32.5001 62.0306 32.7108 62.5393 33.0859 62.9144C33.4609 63.2895 33.9697 63.5002 34.5001 63.5002ZM41.0001 65.2502C41.5305 65.2502 42.0392 65.0395 42.4143 64.6644C42.7894 64.2893 43.0001 63.7806 43.0001 63.2502C43.0001 62.7198 42.7894 62.2111 42.4143 61.836C42.0392 61.4609 41.5305 61.2502 41.0001 61.2502C40.4697 61.2502 39.9609 61.4609 39.5859 61.836C39.2108 62.2111 39.0001 62.7198 39.0001 63.2502C39.0001 63.7806 39.2108 64.2893 39.5859 64.6644C39.9609 65.0395 40.4697 65.2502 41.0001 65.2502Z" fill="white"/>
</svg>
