<svg width="96" height="96" viewBox="0 0 96 96" fill="none" xmlns="http://www.w3.org/2000/svg">
<rect width="96" height="96" rx="48" fill="#4268FF"/>
<path d="M48 36V42L56 34L48 26V32C43.7565 32 39.6869 33.6857 36.6863 36.6863C33.6857 39.6869 32 43.7565 32 48C32 51.14 32.92 54.06 34.48 56.52L37.4 53.6C36.4769 51.878 35.9959 49.9538 36 48C36 44.8174 37.2643 41.7652 39.5147 39.5147C41.7652 37.2643 44.8174 36 48 36ZM61.52 39.48L58.6 42.4C59.48 44.08 60 46 60 48C60 51.1826 58.7357 54.2348 56.4853 56.4853C54.2348 58.7357 51.1826 60 48 60V54L40 62L48 70V64C52.2435 64 56.3131 62.3143 59.3137 59.3137C62.3143 56.3131 64 52.2435 64 48C64 44.86 63.08 41.94 61.52 39.48Z" fill="white"/>
</svg>
