<svg width="433" height="419" viewBox="0 0 433 419" fill="none" xmlns="http://www.w3.org/2000/svg">
<rect width="427" height="419" rx="22.0629" fill="white"/>
<rect x="0.459644" y="0.459644" width="426.081" height="418.081" rx="21.6033" stroke="#0C1021" stroke-opacity="0.05" stroke-width="0.919289"/>
<path d="M41.7486 47V30.2H51.6486V32.696H44.2446V36.752H50.4966V39.248H44.2446V47H41.7486ZM52.6705 35H55.1665V47H52.6705V35ZM53.9425 33.26C53.5585 33.26 53.2385 33.136 52.9825 32.888C52.7265 32.64 52.5985 32.328 52.5985 31.952C52.5985 31.584 52.7265 31.276 52.9825 31.028C53.2385 30.772 53.5545 30.644 53.9305 30.644C54.2985 30.644 54.6105 30.772 54.8665 31.028C55.1225 31.276 55.2505 31.584 55.2505 31.952C55.2505 32.328 55.1225 32.64 54.8665 32.888C54.6185 33.136 54.3105 33.26 53.9425 33.26ZM57.9673 47V35H60.4633V36.272C60.8793 35.776 61.3913 35.384 61.9993 35.096C62.6073 34.808 63.2633 34.664 63.9673 34.664C64.4153 34.664 64.8593 34.724 65.2993 34.844L64.3033 37.364C63.9913 37.244 63.6793 37.184 63.3673 37.184C62.8393 37.184 62.3553 37.316 61.9153 37.58C61.4753 37.836 61.1233 38.184 60.8593 38.624C60.5953 39.064 60.4633 39.552 60.4633 40.088V47H57.9673ZM70.3095 47.228C69.6775 47.188 69.0615 47.06 68.4615 46.844C67.8615 46.628 67.3335 46.336 66.8775 45.968C66.4295 45.592 66.0935 45.152 65.8695 44.648L67.9935 43.736C68.0975 43.952 68.2775 44.164 68.5335 44.372C68.7975 44.58 69.1055 44.752 69.4575 44.888C69.8095 45.016 70.1775 45.08 70.5615 45.08C70.9375 45.08 71.2855 45.028 71.6055 44.924C71.9335 44.812 72.2015 44.644 72.4095 44.42C72.6175 44.196 72.7215 43.928 72.7215 43.616C72.7215 43.264 72.6015 42.992 72.3615 42.8C72.1295 42.6 71.8375 42.448 71.4855 42.344C71.1335 42.24 70.7815 42.14 70.4295 42.044C69.6455 41.868 68.9255 41.628 68.2695 41.324C67.6215 41.012 67.1055 40.616 66.7215 40.136C66.3375 39.648 66.1455 39.052 66.1455 38.348C66.1455 37.58 66.3535 36.916 66.7695 36.356C67.1855 35.788 67.7295 35.352 68.4015 35.048C69.0815 34.744 69.8055 34.592 70.5735 34.592C71.5335 34.592 72.4135 34.796 73.2135 35.204C74.0135 35.612 74.6255 36.172 75.0495 36.884L73.0695 38.06C72.9495 37.82 72.7695 37.604 72.5295 37.412C72.2895 37.22 72.0175 37.068 71.7135 36.956C71.4095 36.836 71.0935 36.768 70.7655 36.752C70.3575 36.736 69.9775 36.784 69.6255 36.896C69.2815 37 69.0055 37.168 68.7975 37.4C68.5895 37.632 68.4855 37.928 68.4855 38.288C68.4855 38.64 68.6095 38.904 68.8575 39.08C69.1055 39.248 69.4175 39.384 69.7935 39.488C70.1775 39.592 70.5695 39.708 70.9695 39.836C71.6815 40.06 72.3495 40.336 72.9735 40.664C73.5975 40.984 74.1015 41.38 74.4855 41.852C74.8695 42.324 75.0535 42.9 75.0375 43.58C75.0375 44.332 74.8095 44.992 74.3535 45.56C73.9055 46.128 73.3215 46.56 72.6015 46.856C71.8815 47.152 71.1175 47.276 70.3095 47.228ZM83.4283 37.496H80.9083L80.8963 47H78.4003L78.4123 37.496H76.5043V35H78.4123L78.4003 31.232H80.8963L80.9083 35H83.4283V37.496ZM85.3423 38.552H93.0223V41.048H85.3423V38.552ZM103.749 43.592L105.981 44.804C105.437 45.564 104.745 46.172 103.905 46.628C103.073 47.084 102.169 47.312 101.193 47.312C100.089 47.312 99.0807 47.028 98.1687 46.46C97.2647 45.892 96.5407 45.132 95.9967 44.18C95.4607 43.22 95.1927 42.16 95.1927 41C95.1927 40.12 95.3487 39.3 95.6607 38.54C95.9727 37.772 96.4007 37.1 96.9447 36.524C97.4967 35.94 98.1367 35.484 98.8647 35.156C99.5927 34.828 100.369 34.664 101.193 34.664C102.169 34.664 103.073 34.892 103.905 35.348C104.745 35.804 105.437 36.416 105.981 37.184L103.749 38.396C103.413 37.996 103.021 37.692 102.573 37.484C102.125 37.268 101.665 37.16 101.193 37.16C100.537 37.16 99.9407 37.34 99.4047 37.7C98.8767 38.052 98.4567 38.52 98.1447 39.104C97.8407 39.68 97.6887 40.312 97.6887 41C97.6887 41.68 97.8447 42.312 98.1567 42.896C98.4687 43.472 98.8887 43.936 99.4167 44.288C99.9527 44.64 100.545 44.816 101.193 44.816C101.689 44.816 102.161 44.704 102.609 44.48C103.057 44.256 103.437 43.96 103.749 43.592ZM117.202 35H119.698V47H117.19L117.094 45.26C116.742 45.876 116.266 46.372 115.666 46.748C115.066 47.124 114.358 47.312 113.542 47.312C112.662 47.312 111.834 47.148 111.058 46.82C110.282 46.484 109.598 46.02 109.006 45.428C108.422 44.836 107.966 44.156 107.638 43.388C107.31 42.612 107.146 41.78 107.146 40.892C107.146 40.036 107.306 39.232 107.626 38.48C107.946 37.72 108.39 37.056 108.958 36.488C109.526 35.92 110.182 35.476 110.926 35.156C111.678 34.828 112.482 34.664 113.338 34.664C114.21 34.664 114.978 34.864 115.642 35.264C116.314 35.656 116.87 36.16 117.31 36.776L117.202 35ZM113.482 44.9C114.186 44.9 114.802 44.728 115.33 44.384C115.858 44.032 116.266 43.56 116.554 42.968C116.85 42.376 116.998 41.72 116.998 41C116.998 40.272 116.85 39.612 116.554 39.02C116.258 38.428 115.846 37.96 115.318 37.616C114.798 37.264 114.186 37.088 113.482 37.088C112.786 37.088 112.15 37.264 111.574 37.616C110.998 37.968 110.542 38.44 110.206 39.032C109.87 39.624 109.702 40.28 109.702 41C109.702 41.728 109.874 42.388 110.218 42.98C110.57 43.564 111.03 44.032 111.598 44.384C112.174 44.728 112.802 44.9 113.482 44.9ZM122.186 47V29H124.682V47H122.186ZM127.553 47V29H130.049V47H127.553ZM138.686 47V35H141.182V36.272C141.598 35.776 142.11 35.384 142.718 35.096C143.326 34.808 143.982 34.664 144.686 34.664C145.134 34.664 145.578 34.724 146.018 34.844L145.022 37.364C144.71 37.244 144.398 37.184 144.086 37.184C143.558 37.184 143.074 37.316 142.634 37.58C142.194 37.836 141.842 38.184 141.578 38.624C141.314 39.064 141.182 39.552 141.182 40.088V47H138.686ZM152.122 47.312C151.018 47.312 150.01 47.028 149.098 46.46C148.194 45.892 147.47 45.132 146.926 44.18C146.39 43.22 146.122 42.16 146.122 41C146.122 40.12 146.278 39.3 146.59 38.54C146.902 37.772 147.33 37.1 147.874 36.524C148.426 35.94 149.066 35.484 149.794 35.156C150.522 34.828 151.298 34.664 152.122 34.664C153.042 34.664 153.886 34.856 154.654 35.24C155.422 35.616 156.078 36.14 156.622 36.812C157.166 37.476 157.566 38.244 157.822 39.116C158.078 39.98 158.154 40.9 158.05 41.876H148.798C148.902 42.428 149.102 42.928 149.398 43.376C149.702 43.816 150.086 44.164 150.55 44.42C151.022 44.676 151.546 44.808 152.122 44.816C152.73 44.816 153.282 44.664 153.778 44.36C154.282 44.056 154.694 43.636 155.014 43.1L157.546 43.688C157.066 44.752 156.342 45.624 155.374 46.304C154.406 46.976 153.322 47.312 152.122 47.312ZM148.714 39.968H155.53C155.45 39.392 155.246 38.872 154.918 38.408C154.598 37.936 154.194 37.564 153.706 37.292C153.226 37.012 152.698 36.872 152.122 36.872C151.554 36.872 151.026 37.008 150.538 37.28C150.058 37.552 149.658 37.924 149.338 38.396C149.026 38.86 148.818 39.384 148.714 39.968ZM163.685 47.228C163.053 47.188 162.437 47.06 161.837 46.844C161.237 46.628 160.709 46.336 160.253 45.968C159.805 45.592 159.469 45.152 159.245 44.648L161.369 43.736C161.473 43.952 161.653 44.164 161.909 44.372C162.173 44.58 162.481 44.752 162.833 44.888C163.185 45.016 163.553 45.08 163.937 45.08C164.313 45.08 164.661 45.028 164.981 44.924C165.309 44.812 165.577 44.644 165.785 44.42C165.993 44.196 166.097 43.928 166.097 43.616C166.097 43.264 165.977 42.992 165.737 42.8C165.505 42.6 165.213 42.448 164.861 42.344C164.509 42.24 164.157 42.14 163.805 42.044C163.021 41.868 162.301 41.628 161.645 41.324C160.997 41.012 160.481 40.616 160.097 40.136C159.713 39.648 159.521 39.052 159.521 38.348C159.521 37.58 159.729 36.916 160.145 36.356C160.561 35.788 161.105 35.352 161.777 35.048C162.457 34.744 163.181 34.592 163.949 34.592C164.909 34.592 165.789 34.796 166.589 35.204C167.389 35.612 168.001 36.172 168.425 36.884L166.445 38.06C166.325 37.82 166.145 37.604 165.905 37.412C165.665 37.22 165.393 37.068 165.089 36.956C164.785 36.836 164.469 36.768 164.141 36.752C163.733 36.736 163.353 36.784 163.001 36.896C162.657 37 162.381 37.168 162.173 37.4C161.965 37.632 161.861 37.928 161.861 38.288C161.861 38.64 161.985 38.904 162.233 39.08C162.481 39.248 162.793 39.384 163.169 39.488C163.553 39.592 163.945 39.708 164.345 39.836C165.057 40.06 165.725 40.336 166.349 40.664C166.973 40.984 167.477 41.38 167.861 41.852C168.245 42.324 168.429 42.9 168.413 43.58C168.413 44.332 168.185 44.992 167.729 45.56C167.281 46.128 166.697 46.56 165.977 46.856C165.257 47.152 164.493 47.276 163.685 47.228ZM175.583 47.312C174.479 47.312 173.471 47.028 172.559 46.46C171.655 45.892 170.931 45.132 170.387 44.18C169.851 43.22 169.583 42.16 169.583 41C169.583 40.12 169.739 39.3 170.051 38.54C170.363 37.772 170.791 37.1 171.335 36.524C171.887 35.94 172.527 35.484 173.255 35.156C173.983 34.828 174.759 34.664 175.583 34.664C176.687 34.664 177.691 34.948 178.595 35.516C179.507 36.084 180.231 36.848 180.767 37.808C181.311 38.768 181.583 39.832 181.583 41C181.583 41.872 181.427 42.688 181.115 43.448C180.803 44.208 180.371 44.88 179.819 45.464C179.275 46.04 178.639 46.492 177.911 46.82C177.191 47.148 176.415 47.312 175.583 47.312ZM175.583 44.816C176.247 44.816 176.843 44.64 177.371 44.288C177.899 43.936 178.315 43.472 178.619 42.896C178.931 42.312 179.087 41.68 179.087 41C179.087 40.304 178.927 39.664 178.607 39.08C178.295 38.496 177.875 38.032 177.347 37.688C176.819 37.336 176.231 37.16 175.583 37.16C174.927 37.16 174.331 37.336 173.795 37.688C173.267 38.04 172.847 38.508 172.535 39.092C172.231 39.676 172.079 40.312 172.079 41C172.079 41.712 172.239 42.356 172.559 42.932C172.879 43.508 173.303 43.968 173.831 44.312C174.367 44.648 174.951 44.816 175.583 44.816ZM183.358 47V29H185.854V47H183.358ZM188.245 42.5V35H190.741V41.888C190.741 42.424 190.873 42.912 191.137 43.352C191.401 43.792 191.753 44.144 192.193 44.408C192.633 44.664 193.117 44.792 193.645 44.792C194.181 44.792 194.665 44.664 195.097 44.408C195.537 44.144 195.885 43.792 196.141 43.352C196.405 42.912 196.537 42.424 196.537 41.888V35H199.033L199.045 47H196.549L196.537 45.704C196.129 46.2 195.621 46.592 195.013 46.88C194.405 47.168 193.753 47.312 193.057 47.312C192.169 47.312 191.361 47.096 190.633 46.664C189.905 46.232 189.325 45.652 188.893 44.924C188.461 44.196 188.245 43.388 188.245 42.5ZM207.788 37.496H205.268L205.256 47H202.76L202.772 37.496H200.864V35H202.772L202.76 31.232H205.256L205.268 35H207.788V37.496ZM209.772 35H212.268V47H209.772V35ZM211.044 33.26C210.66 33.26 210.34 33.136 210.084 32.888C209.828 32.64 209.7 32.328 209.7 31.952C209.7 31.584 209.828 31.276 210.084 31.028C210.34 30.772 210.656 30.644 211.032 30.644C211.4 30.644 211.712 30.772 211.968 31.028C212.224 31.276 212.352 31.584 212.352 31.952C212.352 32.328 212.224 32.64 211.968 32.888C211.72 33.136 211.412 33.26 211.044 33.26ZM220.208 47.312C219.104 47.312 218.096 47.028 217.184 46.46C216.28 45.892 215.556 45.132 215.012 44.18C214.476 43.22 214.208 42.16 214.208 41C214.208 40.12 214.364 39.3 214.676 38.54C214.988 37.772 215.416 37.1 215.96 36.524C216.512 35.94 217.152 35.484 217.88 35.156C218.608 34.828 219.384 34.664 220.208 34.664C221.312 34.664 222.316 34.948 223.22 35.516C224.132 36.084 224.856 36.848 225.392 37.808C225.936 38.768 226.208 39.832 226.208 41C226.208 41.872 226.052 42.688 225.74 43.448C225.428 44.208 224.996 44.88 224.444 45.464C223.9 46.04 223.264 46.492 222.536 46.82C221.816 47.148 221.04 47.312 220.208 47.312ZM220.208 44.816C220.872 44.816 221.468 44.64 221.996 44.288C222.524 43.936 222.94 43.472 223.244 42.896C223.556 42.312 223.712 41.68 223.712 41C223.712 40.304 223.552 39.664 223.232 39.08C222.92 38.496 222.5 38.032 221.972 37.688C221.444 37.336 220.856 37.16 220.208 37.16C219.552 37.16 218.956 37.336 218.42 37.688C217.892 38.04 217.472 38.508 217.16 39.092C216.856 39.676 216.704 40.312 216.704 41C216.704 41.712 216.864 42.356 217.184 42.932C217.504 43.508 217.928 43.968 218.456 44.312C218.992 44.648 219.576 44.816 220.208 44.816ZM238.947 39.476V47H236.451V40.088C236.451 39.552 236.319 39.064 236.055 38.624C235.799 38.184 235.451 37.836 235.011 37.58C234.579 37.316 234.091 37.184 233.547 37.184C233.019 37.184 232.535 37.316 232.095 37.58C231.655 37.836 231.303 38.184 231.039 38.624C230.775 39.064 230.643 39.552 230.643 40.088V47H228.147V35H230.643V36.272C231.059 35.776 231.571 35.384 232.179 35.096C232.787 34.808 233.443 34.664 234.147 34.664C235.035 34.664 235.843 34.88 236.571 35.312C237.299 35.744 237.875 36.324 238.299 37.052C238.731 37.78 238.947 38.588 238.947 39.476ZM249.604 53H247.108V35H249.604V36.764C250.004 36.148 250.516 35.648 251.14 35.264C251.764 34.88 252.5 34.688 253.348 34.688C254.22 34.688 255.036 34.852 255.796 35.18C256.564 35.508 257.236 35.964 257.812 36.548C258.388 37.124 258.84 37.792 259.168 38.552C259.496 39.312 259.66 40.128 259.66 41C259.66 41.872 259.496 42.692 259.168 43.46C258.84 44.228 258.388 44.904 257.812 45.488C257.236 46.064 256.564 46.516 255.796 46.844C255.036 47.172 254.22 47.336 253.348 47.336C252.5 47.336 251.764 47.144 251.14 46.76C250.516 46.368 250.004 45.868 249.604 45.26V53ZM253.324 37.1C252.628 37.1 252.016 37.276 251.488 37.628C250.96 37.98 250.548 38.452 250.252 39.044C249.956 39.628 249.808 40.28 249.808 41C249.808 41.72 249.956 42.376 250.252 42.968C250.548 43.56 250.96 44.032 251.488 44.384C252.016 44.736 252.628 44.912 253.324 44.912C254.012 44.912 254.644 44.74 255.22 44.396C255.796 44.044 256.256 43.572 256.6 42.98C256.944 42.388 257.116 41.728 257.116 41C257.116 40.288 256.944 39.636 256.6 39.044C256.264 38.452 255.808 37.98 255.232 37.628C254.656 37.276 254.02 37.1 253.324 37.1ZM266.872 47.312C265.768 47.312 264.76 47.028 263.848 46.46C262.944 45.892 262.22 45.132 261.676 44.18C261.14 43.22 260.872 42.16 260.872 41C260.872 40.12 261.028 39.3 261.34 38.54C261.652 37.772 262.08 37.1 262.624 36.524C263.176 35.94 263.816 35.484 264.544 35.156C265.272 34.828 266.048 34.664 266.872 34.664C267.792 34.664 268.636 34.856 269.404 35.24C270.172 35.616 270.828 36.14 271.372 36.812C271.916 37.476 272.316 38.244 272.572 39.116C272.828 39.98 272.904 40.9 272.8 41.876H263.548C263.652 42.428 263.852 42.928 264.148 43.376C264.452 43.816 264.836 44.164 265.3 44.42C265.772 44.676 266.296 44.808 266.872 44.816C267.48 44.816 268.032 44.664 268.528 44.36C269.032 44.056 269.444 43.636 269.764 43.1L272.296 43.688C271.816 44.752 271.092 45.624 270.124 46.304C269.156 46.976 268.072 47.312 266.872 47.312ZM263.464 39.968H270.28C270.2 39.392 269.996 38.872 269.668 38.408C269.348 37.936 268.944 37.564 268.456 37.292C267.976 37.012 267.448 36.872 266.872 36.872C266.304 36.872 265.776 37.008 265.288 37.28C264.808 37.552 264.408 37.924 264.088 38.396C263.776 38.86 263.568 39.384 263.464 39.968ZM274.788 47V35H277.284V36.272C277.7 35.776 278.212 35.384 278.82 35.096C279.428 34.808 280.084 34.664 280.788 34.664C281.236 34.664 281.68 34.724 282.12 34.844L281.124 37.364C280.812 37.244 280.5 37.184 280.188 37.184C279.66 37.184 279.176 37.316 278.736 37.58C278.296 37.836 277.944 38.184 277.68 38.624C277.416 39.064 277.284 39.552 277.284 40.088V47H274.788ZM287.364 32.276V35H290.748V37.496H287.364V47H284.868V37.496H283.44V35H284.868V32.276C284.868 31.62 285.028 31.024 285.348 30.488C285.668 29.944 286.096 29.512 286.632 29.192C287.176 28.872 287.78 28.712 288.444 28.712C288.924 28.712 289.392 28.808 289.848 29C290.304 29.192 290.712 29.488 291.072 29.888L289.284 31.652C289.196 31.508 289.072 31.4 288.912 31.328C288.76 31.248 288.604 31.208 288.444 31.208C288.148 31.208 287.892 31.312 287.676 31.52C287.468 31.728 287.364 31.98 287.364 32.276ZM297.74 47.312C296.636 47.312 295.628 47.028 294.716 46.46C293.812 45.892 293.088 45.132 292.544 44.18C292.008 43.22 291.74 42.16 291.74 41C291.74 40.12 291.896 39.3 292.208 38.54C292.52 37.772 292.948 37.1 293.492 36.524C294.044 35.94 294.684 35.484 295.412 35.156C296.14 34.828 296.916 34.664 297.74 34.664C298.844 34.664 299.848 34.948 300.752 35.516C301.664 36.084 302.388 36.848 302.924 37.808C303.468 38.768 303.74 39.832 303.74 41C303.74 41.872 303.584 42.688 303.272 43.448C302.96 44.208 302.528 44.88 301.976 45.464C301.432 46.04 300.796 46.492 300.068 46.82C299.348 47.148 298.572 47.312 297.74 47.312ZM297.74 44.816C298.404 44.816 299 44.64 299.528 44.288C300.056 43.936 300.472 43.472 300.776 42.896C301.088 42.312 301.244 41.68 301.244 41C301.244 40.304 301.084 39.664 300.764 39.08C300.452 38.496 300.032 38.032 299.504 37.688C298.976 37.336 298.388 37.16 297.74 37.16C297.084 37.16 296.488 37.336 295.952 37.688C295.424 38.04 295.004 38.508 294.692 39.092C294.388 39.676 294.236 40.312 294.236 41C294.236 41.712 294.396 42.356 294.716 42.932C295.036 43.508 295.46 43.968 295.988 44.312C296.524 44.648 297.108 44.816 297.74 44.816ZM305.678 47V35H308.174V36.272C308.59 35.776 309.102 35.384 309.71 35.096C310.318 34.808 310.974 34.664 311.678 34.664C312.126 34.664 312.57 34.724 313.01 34.844L312.014 37.364C311.702 37.244 311.39 37.184 311.078 37.184C310.55 37.184 310.066 37.316 309.626 37.58C309.186 37.836 308.834 38.184 308.57 38.624C308.306 39.064 308.174 39.552 308.174 40.088V47H305.678ZM314.491 47V35H316.987V36.272C317.403 35.776 317.911 35.384 318.511 35.096C319.119 34.808 319.775 34.664 320.479 34.664C321.335 34.664 322.123 34.872 322.843 35.288C323.563 35.696 324.135 36.24 324.559 36.92C324.983 36.24 325.547 35.696 326.251 35.288C326.963 34.872 327.747 34.664 328.603 34.664C329.491 34.664 330.299 34.88 331.027 35.312C331.755 35.744 332.335 36.324 332.767 37.052C333.199 37.78 333.415 38.588 333.415 39.476V47H330.919V40.112C330.919 39.584 330.791 39.1 330.535 38.66C330.279 38.22 329.935 37.864 329.503 37.592C329.071 37.32 328.591 37.184 328.063 37.184C327.535 37.184 327.055 37.312 326.623 37.568C326.191 37.824 325.847 38.172 325.591 38.612C325.335 39.052 325.207 39.552 325.207 40.112V47H322.711V40.112C322.711 39.552 322.583 39.052 322.327 38.612C322.071 38.172 321.723 37.824 321.283 37.568C320.851 37.312 320.371 37.184 319.843 37.184C319.323 37.184 318.843 37.32 318.403 37.592C317.971 37.864 317.627 38.22 317.371 38.66C317.115 39.1 316.987 39.584 316.987 40.112V47H314.491ZM344.921 35H347.417V47H344.909L344.813 45.26C344.461 45.876 343.985 46.372 343.385 46.748C342.785 47.124 342.077 47.312 341.261 47.312C340.381 47.312 339.553 47.148 338.777 46.82C338.001 46.484 337.317 46.02 336.725 45.428C336.141 44.836 335.685 44.156 335.357 43.388C335.029 42.612 334.865 41.78 334.865 40.892C334.865 40.036 335.025 39.232 335.345 38.48C335.665 37.72 336.109 37.056 336.677 36.488C337.245 35.92 337.901 35.476 338.645 35.156C339.397 34.828 340.201 34.664 341.057 34.664C341.929 34.664 342.697 34.864 343.361 35.264C344.033 35.656 344.589 36.16 345.029 36.776L344.921 35ZM341.201 44.9C341.905 44.9 342.521 44.728 343.049 44.384C343.577 44.032 343.985 43.56 344.273 42.968C344.569 42.376 344.717 41.72 344.717 41C344.717 40.272 344.569 39.612 344.273 39.02C343.977 38.428 343.565 37.96 343.037 37.616C342.517 37.264 341.905 37.088 341.201 37.088C340.505 37.088 339.869 37.264 339.293 37.616C338.717 37.968 338.261 38.44 337.925 39.032C337.589 39.624 337.421 40.28 337.421 41C337.421 41.728 337.593 42.388 337.937 42.98C338.289 43.564 338.749 44.032 339.317 44.384C339.893 44.728 340.521 44.9 341.201 44.9ZM360.611 39.476V47H358.115V40.088C358.115 39.552 357.983 39.064 357.719 38.624C357.463 38.184 357.115 37.836 356.675 37.58C356.243 37.316 355.755 37.184 355.211 37.184C354.683 37.184 354.199 37.316 353.759 37.58C353.319 37.836 352.967 38.184 352.703 38.624C352.439 39.064 352.307 39.552 352.307 40.088V47H349.811V35H352.307V36.272C352.723 35.776 353.235 35.384 353.843 35.096C354.451 34.808 355.107 34.664 355.811 34.664C356.699 34.664 357.507 34.88 358.235 35.312C358.963 35.744 359.539 36.324 359.963 37.052C360.395 37.78 360.611 38.588 360.611 39.476ZM370.608 43.592L372.84 44.804C372.296 45.564 371.604 46.172 370.764 46.628C369.932 47.084 369.028 47.312 368.052 47.312C366.948 47.312 365.94 47.028 365.028 46.46C364.124 45.892 363.4 45.132 362.856 44.18C362.32 43.22 362.052 42.16 362.052 41C362.052 40.12 362.208 39.3 362.52 38.54C362.832 37.772 363.26 37.1 363.804 36.524C364.356 35.94 364.996 35.484 365.724 35.156C366.452 34.828 367.228 34.664 368.052 34.664C369.028 34.664 369.932 34.892 370.764 35.348C371.604 35.804 372.296 36.416 372.84 37.184L370.608 38.396C370.272 37.996 369.88 37.692 369.432 37.484C368.984 37.268 368.524 37.16 368.052 37.16C367.396 37.16 366.8 37.34 366.264 37.7C365.736 38.052 365.316 38.52 365.004 39.104C364.7 39.68 364.548 40.312 364.548 41C364.548 41.68 364.704 42.312 365.016 42.896C365.328 43.472 365.748 43.936 366.276 44.288C366.812 44.64 367.404 44.816 368.052 44.816C368.548 44.816 369.02 44.704 369.468 44.48C369.916 44.256 370.296 43.96 370.608 43.592ZM380.005 47.312C378.901 47.312 377.893 47.028 376.981 46.46C376.077 45.892 375.353 45.132 374.809 44.18C374.273 43.22 374.005 42.16 374.005 41C374.005 40.12 374.161 39.3 374.473 38.54C374.785 37.772 375.213 37.1 375.757 36.524C376.309 35.94 376.949 35.484 377.677 35.156C378.405 34.828 379.181 34.664 380.005 34.664C380.925 34.664 381.769 34.856 382.537 35.24C383.305 35.616 383.961 36.14 384.505 36.812C385.049 37.476 385.449 38.244 385.705 39.116C385.961 39.98 386.037 40.9 385.933 41.876H376.681C376.785 42.428 376.985 42.928 377.281 43.376C377.585 43.816 377.969 44.164 378.433 44.42C378.905 44.676 379.429 44.808 380.005 44.816C380.613 44.816 381.165 44.664 381.661 44.36C382.165 44.056 382.577 43.636 382.897 43.1L385.429 43.688C384.949 44.752 384.225 45.624 383.257 46.304C382.289 46.976 381.205 47.312 380.005 47.312ZM376.597 39.968H383.413C383.333 39.392 383.129 38.872 382.801 38.408C382.481 37.936 382.077 37.564 381.589 37.292C381.109 37.012 380.581 36.872 380.005 36.872C379.437 36.872 378.909 37.008 378.421 37.28C377.941 37.552 377.541 37.924 377.221 38.396C376.909 38.86 376.701 39.384 376.597 39.968Z" fill="#0C1021"/>
<g filter="url(#filter0_n_2374_18758)">
<g clip-path="url(#clip0_2374_18758)">
<g filter="url(#filter1_d_2374_18758)">
<circle cx="214.5" cy="236.5" r="118" stroke="#FF9858" stroke-width="19" shape-rendering="crispEdges"/>
</g>
<g filter="url(#filter2_d_2374_18758)">
<circle cx="214.5" cy="236.5" r="127.5" stroke="#595959" stroke-opacity="0.1" shape-rendering="crispEdges"/>
</g>
<g filter="url(#filter3_i_2374_18758)">
<mask id="path-6-inside-1_2374_18758" fill="white">
<path d="M97.1917 286.45C106.167 307.529 120.657 325.801 139.136 339.343C157.616 352.885 179.403 361.197 202.207 363.406C225.011 365.615 247.988 361.639 268.724 351.895C289.459 342.152 307.186 327.001 320.04 308.037C332.895 289.072 340.402 266.994 341.772 244.125C343.142 221.255 338.325 198.439 327.826 178.076C317.328 157.712 301.537 140.554 282.113 128.404C262.689 116.255 240.351 109.564 217.447 109.034L217.011 127.871C236.531 128.322 255.568 134.024 272.121 144.378C288.675 154.732 302.132 169.355 311.079 186.71C320.026 204.064 324.131 223.508 322.964 242.998C321.796 262.488 315.399 281.303 304.444 297.465C293.489 313.627 278.382 326.539 260.711 334.842C243.04 343.146 223.458 346.534 204.024 344.652C184.59 342.77 166.022 335.685 150.274 324.145C134.525 312.604 122.177 297.033 114.527 279.069L97.1917 286.45Z"/>
</mask>
<path d="M97.1917 286.45C106.167 307.529 120.657 325.801 139.136 339.343C157.616 352.885 179.403 361.197 202.207 363.406C225.011 365.615 247.988 361.639 268.724 351.895C289.459 342.152 307.186 327.001 320.04 308.037C332.895 289.072 340.402 266.994 341.772 244.125C343.142 221.255 338.325 198.439 327.826 178.076C317.328 157.712 301.537 140.554 282.113 128.404C262.689 116.255 240.351 109.564 217.447 109.034L217.011 127.871C236.531 128.322 255.568 134.024 272.121 144.378C288.675 154.732 302.132 169.355 311.079 186.71C320.026 204.064 324.131 223.508 322.964 242.998C321.796 262.488 315.399 281.303 304.444 297.465C293.489 313.627 278.382 326.539 260.711 334.842C243.04 343.146 223.458 346.534 204.024 344.652C184.59 342.77 166.022 335.685 150.274 324.145C134.525 312.604 122.177 297.033 114.527 279.069L97.1917 286.45Z" stroke="#4268FF" stroke-width="40" mask="url(#path-6-inside-1_2374_18758)"/>
</g>
<g filter="url(#filter4_i_2374_18758)">
<mask id="path-7-inside-2_2374_18758" fill="white">
<path d="M124.344 146.344C106.314 164.374 94.1037 187.396 89.2913 212.437C84.4789 237.477 87.2852 263.385 97.3475 286.815L114.66 279.379C106.085 259.412 103.693 237.333 107.794 215.993C111.896 194.653 122.301 175.033 137.667 159.667L124.344 146.344Z"/>
</mask>
<path d="M124.344 146.344C106.314 164.374 94.1037 187.396 89.2913 212.437C84.4789 237.477 87.2852 263.385 97.3475 286.815L114.66 279.379C106.085 259.412 103.693 237.333 107.794 215.993C111.896 194.653 122.301 175.033 137.667 159.667L124.344 146.344Z" stroke="#AD42FF" stroke-width="40" mask="url(#path-7-inside-2_2374_18758)"/>
</g>
</g>
</g>
<g filter="url(#filter5_d_2374_18758)">
<rect x="180" y="146.5" width="238" height="106.146" rx="16.9756" fill="white" shape-rendering="crispEdges"/>
<rect x="180.5" y="147" width="237" height="105.146" rx="16.4756" stroke="#0C1021" stroke-opacity="0.1" shape-rendering="crispEdges"/>
<path d="M197.019 178.5V166.617H201.05C201.684 166.617 202.256 166.773 202.765 167.084C203.274 167.389 203.679 167.805 203.979 168.332C204.278 168.852 204.428 169.438 204.428 170.089C204.428 170.671 204.31 171.2 204.072 171.676C203.834 172.151 203.509 172.544 203.096 172.856C202.688 173.167 202.227 173.373 201.712 173.475L204.615 178.5H203.24L200.38 173.569H198.207V178.5H197.019ZM198.207 172.38H200.948C201.367 172.38 201.749 172.278 202.094 172.075C202.445 171.865 202.722 171.585 202.926 171.234C203.135 170.878 203.24 170.476 203.24 170.029C203.24 169.582 203.135 169.183 202.926 168.832C202.722 168.476 202.445 168.196 202.094 167.992C201.749 167.783 201.367 167.678 200.948 167.678H198.207V172.38ZM209.904 178.721C209.123 178.721 208.41 178.52 207.765 178.118C207.126 177.716 206.614 177.179 206.229 176.505C205.85 175.826 205.66 175.077 205.66 174.256C205.66 173.634 205.771 173.054 205.991 172.516C206.212 171.973 206.515 171.498 206.899 171.09C207.29 170.677 207.743 170.355 208.257 170.123C208.772 169.891 209.321 169.775 209.904 169.775C210.532 169.775 211.109 169.899 211.636 170.148C212.167 170.397 212.623 170.745 213.002 171.192C213.387 171.639 213.675 172.162 213.868 172.762C214.066 173.362 214.148 174.01 214.114 174.706H206.916C206.984 175.244 207.154 175.724 207.426 176.149C207.703 176.573 208.054 176.91 208.478 177.159C208.908 177.402 209.383 177.527 209.904 177.532C210.47 177.532 210.979 177.385 211.432 177.091C211.89 176.797 212.258 176.392 212.535 175.877L213.741 176.157C213.401 176.91 212.889 177.527 212.204 178.008C211.52 178.483 210.753 178.721 209.904 178.721ZM206.882 173.747H212.917C212.878 173.221 212.716 172.74 212.433 172.304C212.156 171.863 211.797 171.512 211.355 171.251C210.914 170.985 210.43 170.852 209.904 170.852C209.378 170.852 208.897 170.983 208.461 171.243C208.025 171.498 207.669 171.846 207.392 172.287C207.114 172.723 206.945 173.209 206.882 173.747ZM218.208 178.661C217.744 178.65 217.292 178.565 216.85 178.407C216.409 178.248 216.024 178.033 215.696 177.762C215.368 177.49 215.133 177.182 214.991 176.836L216.018 176.395C216.109 176.616 216.276 176.819 216.519 177.006C216.768 177.187 217.051 177.334 217.368 177.448C217.685 177.555 217.999 177.609 218.31 177.609C218.655 177.609 218.978 177.552 219.278 177.439C219.578 177.326 219.821 177.165 220.008 176.955C220.2 176.74 220.296 176.488 220.296 176.2C220.296 175.889 220.194 175.645 219.991 175.47C219.787 175.289 219.53 175.147 219.218 175.045C218.907 174.938 218.587 174.836 218.259 174.74C217.659 174.576 217.13 174.395 216.672 174.197C216.214 173.999 215.854 173.747 215.594 173.441C215.339 173.13 215.212 172.731 215.212 172.244C215.212 171.73 215.356 171.285 215.645 170.912C215.939 170.533 216.321 170.241 216.791 170.038C217.266 169.828 217.773 169.724 218.31 169.724C219.001 169.724 219.629 169.874 220.194 170.173C220.766 170.473 221.179 170.872 221.434 171.37L220.475 171.939C220.373 171.707 220.211 171.506 219.991 171.336C219.77 171.167 219.518 171.034 219.235 170.937C218.958 170.841 218.675 170.79 218.387 170.785C218.024 170.779 217.688 170.833 217.377 170.946C217.065 171.053 216.814 171.215 216.621 171.43C216.434 171.645 216.341 171.908 216.341 172.219C216.341 172.53 216.434 172.768 216.621 172.932C216.808 173.09 217.06 173.221 217.377 173.322C217.699 173.419 218.061 173.532 218.463 173.662C218.978 173.826 219.462 174.013 219.914 174.222C220.367 174.432 220.732 174.692 221.009 175.003C221.287 175.314 221.422 175.708 221.417 176.183C221.417 176.692 221.264 177.136 220.958 177.515C220.653 177.895 220.257 178.186 219.77 178.39C219.283 178.588 218.763 178.678 218.208 178.661ZM226.548 178.721C225.767 178.721 225.054 178.52 224.409 178.118C223.77 177.716 223.258 177.179 222.873 176.505C222.494 175.826 222.304 175.077 222.304 174.256C222.304 173.634 222.415 173.054 222.635 172.516C222.856 171.973 223.159 171.498 223.543 171.09C223.934 170.677 224.387 170.355 224.902 170.123C225.416 169.891 225.965 169.775 226.548 169.775C227.329 169.775 228.039 169.975 228.679 170.377C229.324 170.779 229.836 171.319 230.215 171.998C230.6 172.677 230.792 173.43 230.792 174.256C230.792 174.873 230.682 175.45 230.461 175.988C230.24 176.525 229.935 177 229.544 177.414C229.16 177.821 228.71 178.141 228.195 178.373C227.686 178.605 227.137 178.721 226.548 178.721ZM226.548 177.532C227.125 177.532 227.643 177.382 228.101 177.083C228.565 176.777 228.93 176.375 229.196 175.877C229.468 175.379 229.604 174.839 229.604 174.256C229.604 173.662 229.468 173.116 229.196 172.618C228.925 172.114 228.557 171.713 228.093 171.413C227.635 171.113 227.12 170.963 226.548 170.963C225.971 170.963 225.45 171.116 224.986 171.421C224.528 171.721 224.163 172.12 223.891 172.618C223.626 173.116 223.493 173.662 223.493 174.256C223.493 174.867 223.631 175.422 223.908 175.92C224.186 176.412 224.556 176.805 225.02 177.1C225.484 177.388 225.994 177.532 226.548 177.532ZM232.163 178.5V165.768H233.352V178.5H232.163ZM239.413 178.5H237.902L234.804 169.987H236.069L238.657 177.108L241.246 169.987H242.511L239.413 178.5ZM247.32 178.721C246.539 178.721 245.826 178.52 245.181 178.118C244.542 177.716 244.03 177.179 243.645 176.505C243.266 175.826 243.076 175.077 243.076 174.256C243.076 173.634 243.186 173.054 243.407 172.516C243.628 171.973 243.931 171.498 244.315 171.09C244.706 170.677 245.158 170.355 245.673 170.123C246.188 169.891 246.737 169.775 247.32 169.775C247.948 169.775 248.525 169.899 249.052 170.148C249.583 170.397 250.039 170.745 250.418 171.192C250.803 171.639 251.091 172.162 251.284 172.762C251.482 173.362 251.564 174.01 251.53 174.706H244.332C244.4 175.244 244.57 175.724 244.842 176.149C245.119 176.573 245.47 176.91 245.894 177.159C246.324 177.402 246.799 177.527 247.32 177.532C247.886 177.532 248.395 177.385 248.848 177.091C249.306 176.797 249.674 176.392 249.951 175.877L251.157 176.157C250.817 176.91 250.305 177.527 249.62 178.008C248.936 178.483 248.169 178.721 247.32 178.721ZM244.298 173.747H250.333C250.294 173.221 250.132 172.74 249.849 172.304C249.572 171.863 249.213 171.512 248.771 171.251C248.33 170.985 247.846 170.852 247.32 170.852C246.794 170.852 246.313 170.983 245.877 171.243C245.441 171.498 245.085 171.846 244.808 172.287C244.53 172.723 244.361 173.209 244.298 173.747ZM259.888 165.768H261.076V178.5H259.888V176.913C259.593 177.456 259.189 177.895 258.674 178.228C258.165 178.557 257.559 178.721 256.857 178.721C256.241 178.721 255.663 178.605 255.126 178.373C254.588 178.141 254.113 177.821 253.7 177.414C253.293 177 252.973 176.525 252.741 175.988C252.509 175.45 252.393 174.873 252.393 174.256C252.393 173.639 252.509 173.062 252.741 172.525C252.973 171.981 253.293 171.506 253.7 171.099C254.113 170.686 254.588 170.363 255.126 170.131C255.663 169.899 256.241 169.783 256.857 169.783C257.559 169.783 258.165 169.95 258.674 170.284C259.189 170.612 259.593 171.045 259.888 171.582V165.768ZM256.866 177.566C257.471 177.566 257.992 177.419 258.428 177.125C258.863 176.825 259.197 176.423 259.429 175.92C259.667 175.416 259.786 174.862 259.786 174.256C259.786 173.634 259.667 173.073 259.429 172.576C259.192 172.072 258.855 171.673 258.419 171.379C257.983 171.084 257.466 170.937 256.866 170.937C256.266 170.937 255.72 171.087 255.228 171.387C254.735 171.681 254.342 172.08 254.048 172.584C253.754 173.088 253.607 173.645 253.607 174.256C253.607 174.873 253.757 175.433 254.056 175.937C254.356 176.435 254.752 176.831 255.245 177.125C255.743 177.419 256.283 177.566 256.866 177.566ZM270.927 178.721C270.146 178.721 269.433 178.52 268.788 178.118C268.148 177.716 267.636 177.179 267.252 176.505C266.872 175.826 266.683 175.077 266.683 174.256C266.683 173.634 266.793 173.054 267.014 172.516C267.235 171.973 267.537 171.498 267.922 171.09C268.313 170.677 268.765 170.355 269.28 170.123C269.795 169.891 270.344 169.775 270.927 169.775C271.708 169.775 272.418 169.975 273.057 170.377C273.702 170.779 274.214 171.319 274.593 171.998C274.978 172.677 275.171 173.43 275.171 174.256C275.171 174.873 275.06 175.45 274.84 175.988C274.619 176.525 274.313 177 273.923 177.414C273.538 177.821 273.088 178.141 272.573 178.373C272.064 178.605 271.515 178.721 270.927 178.721ZM270.927 177.532C271.504 177.532 272.022 177.382 272.48 177.083C272.944 176.777 273.309 176.375 273.575 175.877C273.847 175.379 273.982 174.839 273.982 174.256C273.982 173.662 273.847 173.116 273.575 172.618C273.303 172.114 272.936 171.713 272.472 171.413C272.013 171.113 271.498 170.963 270.927 170.963C270.35 170.963 269.829 171.116 269.365 171.421C268.907 171.721 268.542 172.12 268.27 172.618C268.004 173.116 267.871 173.662 267.871 174.256C267.871 174.867 268.01 175.422 268.287 175.92C268.564 176.412 268.935 176.805 269.399 177.1C269.863 177.388 270.372 177.532 270.927 177.532ZM284.01 173.246V178.5H282.821V173.484C282.821 173.02 282.708 172.598 282.482 172.219C282.256 171.84 281.953 171.537 281.574 171.311C281.195 171.084 280.773 170.971 280.309 170.971C279.851 170.971 279.429 171.084 279.044 171.311C278.665 171.537 278.362 171.84 278.136 172.219C277.91 172.598 277.797 173.02 277.797 173.484V178.5H276.608V170.012H277.797V171.184C278.096 170.753 278.487 170.411 278.968 170.156C279.449 169.902 279.972 169.775 280.538 169.775C281.178 169.775 281.76 169.93 282.287 170.241C282.813 170.553 283.232 170.971 283.543 171.498C283.854 172.024 284.01 172.607 284.01 173.246ZM291.545 167.797V170.012H294.091V171.2H291.545V178.5H290.356V171.2H289.193V170.012H290.356V167.797C290.356 167.384 290.455 167.01 290.653 166.676C290.857 166.337 291.129 166.068 291.468 165.87C291.808 165.666 292.184 165.565 292.597 165.565C292.897 165.565 293.186 165.624 293.463 165.743C293.746 165.862 293.998 166.037 294.218 166.269L293.369 167.109C293.279 166.996 293.163 166.908 293.021 166.846C292.886 166.784 292.744 166.753 292.597 166.753C292.308 166.753 292.059 166.855 291.85 167.058C291.646 167.262 291.545 167.508 291.545 167.797ZM295.391 170.012H296.579V178.5H295.391V170.012ZM295.994 168.527C295.801 168.527 295.637 168.465 295.501 168.34C295.371 168.21 295.306 168.049 295.306 167.856C295.306 167.664 295.371 167.505 295.501 167.381C295.637 167.251 295.801 167.186 295.994 167.186C296.18 167.186 296.339 167.251 296.469 167.381C296.605 167.505 296.673 167.664 296.673 167.856C296.673 168.049 296.607 168.21 296.477 168.34C296.347 168.465 296.186 168.527 295.994 168.527ZM298.59 178.5V170.012H299.779V171.184C300.079 170.753 300.469 170.411 300.95 170.156C301.431 169.902 301.954 169.775 302.52 169.775C302.848 169.775 303.165 169.817 303.471 169.902L302.987 171.082C302.749 171.008 302.517 170.971 302.291 170.971C301.833 170.971 301.411 171.084 301.026 171.311C300.647 171.537 300.345 171.84 300.118 172.219C299.892 172.598 299.779 173.02 299.779 173.484V178.5H298.59ZM307.165 178.661C306.701 178.65 306.248 178.565 305.806 178.407C305.365 178.248 304.98 178.033 304.652 177.762C304.324 177.49 304.089 177.182 303.948 176.836L304.975 176.395C305.065 176.616 305.232 176.819 305.475 177.006C305.724 177.187 306.007 177.334 306.324 177.448C306.641 177.555 306.955 177.609 307.266 177.609C307.612 177.609 307.934 177.552 308.234 177.439C308.534 177.326 308.777 177.165 308.964 176.955C309.156 176.74 309.253 176.488 309.253 176.2C309.253 175.889 309.151 175.645 308.947 175.47C308.743 175.289 308.486 175.147 308.175 175.045C307.863 174.938 307.544 174.836 307.215 174.74C306.616 174.576 306.087 174.395 305.628 174.197C305.17 173.999 304.811 173.747 304.55 173.441C304.296 173.13 304.168 172.731 304.168 172.244C304.168 171.73 304.313 171.285 304.601 170.912C304.895 170.533 305.277 170.241 305.747 170.038C306.222 169.828 306.729 169.724 307.266 169.724C307.957 169.724 308.585 169.874 309.151 170.173C309.722 170.473 310.135 170.872 310.39 171.37L309.431 171.939C309.329 171.707 309.168 171.506 308.947 171.336C308.726 171.167 308.474 171.034 308.192 170.937C307.914 170.841 307.631 170.79 307.343 170.785C306.981 170.779 306.644 170.833 306.333 170.946C306.021 171.053 305.77 171.215 305.577 171.43C305.391 171.645 305.297 171.908 305.297 172.219C305.297 172.53 305.391 172.768 305.577 172.932C305.764 173.09 306.016 173.221 306.333 173.322C306.655 173.419 307.017 173.532 307.419 173.662C307.934 173.826 308.418 174.013 308.871 174.222C309.323 174.432 309.688 174.692 309.965 175.003C310.243 175.314 310.379 175.708 310.373 176.183C310.373 176.692 310.22 177.136 309.915 177.515C309.609 177.895 309.213 178.186 308.726 178.39C308.24 178.588 307.719 178.678 307.165 178.661ZM316.173 171.2H314.145L314.136 178.5H312.948L312.956 171.2H311.42V170.012H312.956L312.948 167.347H314.136L314.145 170.012H316.173V171.2ZM327.826 176.37L328.887 176.947C328.503 177.484 328.013 177.914 327.419 178.237C326.83 178.559 326.191 178.721 325.501 178.721C324.72 178.721 324.007 178.52 323.362 178.118C322.722 177.716 322.21 177.179 321.825 176.505C321.446 175.826 321.257 175.077 321.257 174.256C321.257 173.634 321.367 173.054 321.588 172.516C321.808 171.973 322.111 171.498 322.496 171.09C322.886 170.677 323.339 170.355 323.854 170.123C324.369 169.891 324.918 169.775 325.501 169.775C326.191 169.775 326.83 169.936 327.419 170.258C328.013 170.581 328.503 171.014 328.887 171.557L327.826 172.126C327.532 171.752 327.178 171.466 326.765 171.268C326.352 171.065 325.931 170.963 325.501 170.963C324.929 170.963 324.411 171.116 323.947 171.421C323.483 171.721 323.116 172.12 322.844 172.618C322.578 173.116 322.445 173.662 322.445 174.256C322.445 174.85 322.581 175.396 322.852 175.894C323.13 176.392 323.5 176.791 323.964 177.091C324.428 177.385 324.94 177.532 325.501 177.532C325.965 177.532 326.4 177.425 326.808 177.21C327.215 176.995 327.555 176.715 327.826 176.37ZM337.281 170.012H338.469V178.5H337.281L337.238 176.921C336.961 177.459 336.573 177.895 336.075 178.228C335.577 178.557 334.983 178.721 334.293 178.721C333.67 178.721 333.088 178.605 332.544 178.373C332.001 178.135 331.523 177.81 331.11 177.397C330.697 176.984 330.374 176.505 330.142 175.962C329.91 175.419 329.794 174.836 329.794 174.214C329.794 173.603 329.907 173.028 330.134 172.491C330.366 171.953 330.683 171.481 331.084 171.073C331.492 170.666 331.962 170.349 332.493 170.123C333.031 169.891 333.605 169.775 334.216 169.775C334.924 169.775 335.541 169.944 336.067 170.284C336.593 170.618 337.012 171.056 337.323 171.599L337.281 170.012ZM334.267 177.566C334.873 177.566 335.393 177.419 335.829 177.125C336.265 176.825 336.599 176.423 336.831 175.92C337.068 175.416 337.187 174.862 337.187 174.256C337.187 173.634 337.068 173.073 336.831 172.576C336.593 172.072 336.256 171.673 335.821 171.379C335.385 171.084 334.867 170.937 334.267 170.937C333.668 170.937 333.119 171.087 332.621 171.387C332.128 171.681 331.735 172.08 331.441 172.584C331.152 173.088 331.008 173.645 331.008 174.256C331.008 174.873 331.158 175.433 331.458 175.937C331.758 176.435 332.154 176.831 332.646 177.125C333.144 177.419 333.685 177.566 334.267 177.566ZM340.283 178.5V165.768H341.472V178.5H340.283ZM343.516 178.5V165.768H344.704V178.5H343.516Z" fill="#535662"/>
<path d="M377.571 178.721C376.824 178.721 376.139 178.537 375.517 178.169C374.9 177.796 374.405 177.298 374.031 176.675C373.664 176.053 373.48 175.365 373.48 174.613C373.48 174.177 373.531 173.806 373.632 173.501C373.734 173.189 373.884 172.844 374.082 172.465L377.452 166.617H378.835L376.366 170.895C376.863 170.703 377.364 170.618 377.868 170.64C378.371 170.657 378.852 170.768 379.311 170.971C379.769 171.175 380.177 171.455 380.533 171.812C380.89 172.162 381.17 172.576 381.373 173.051C381.583 173.526 381.687 174.047 381.687 174.613C381.687 175.178 381.58 175.71 381.365 176.208C381.15 176.701 380.853 177.136 380.474 177.515C380.1 177.889 379.664 178.183 379.166 178.398C378.669 178.613 378.137 178.721 377.571 178.721ZM377.571 177.532C378.137 177.532 378.64 177.397 379.082 177.125C379.523 176.848 379.868 176.486 380.117 176.039C380.372 175.592 380.499 175.113 380.499 174.604C380.499 174.072 380.369 173.588 380.109 173.153C379.848 172.711 379.498 172.36 379.056 172.1C378.615 171.834 378.125 171.701 377.588 171.701C377.033 171.701 376.535 171.837 376.094 172.109C375.653 172.38 375.305 172.737 375.05 173.178C374.795 173.614 374.668 174.089 374.668 174.604C374.668 175.159 374.801 175.657 375.067 176.098C375.338 176.539 375.695 176.89 376.136 177.15C376.578 177.405 377.056 177.532 377.571 177.532ZM386.654 178.721C385.958 178.721 385.322 178.562 384.744 178.245C384.173 177.928 383.717 177.504 383.378 176.972C383.038 176.44 382.869 175.849 382.869 175.198C382.869 174.564 383.044 173.987 383.395 173.467C383.746 172.94 384.201 172.533 384.761 172.244C384.297 171.979 383.915 171.616 383.616 171.158C383.316 170.694 383.166 170.185 383.166 169.63C383.166 169.036 383.321 168.496 383.633 168.009C383.949 167.517 384.371 167.126 384.897 166.838C385.429 166.544 386.015 166.396 386.654 166.396C387.294 166.396 387.876 166.544 388.403 166.838C388.935 167.126 389.356 167.517 389.667 168.009C389.984 168.496 390.143 169.036 390.143 169.63C390.143 170.185 389.993 170.694 389.693 171.158C389.399 171.616 389.017 171.979 388.547 172.244C389.118 172.533 389.577 172.94 389.922 173.467C390.273 173.987 390.448 174.564 390.448 175.198C390.448 175.843 390.276 176.435 389.93 176.972C389.591 177.504 389.135 177.928 388.564 178.245C387.992 178.562 387.356 178.721 386.654 178.721ZM386.654 177.532C387.124 177.532 387.548 177.428 387.927 177.218C388.306 177.009 388.609 176.729 388.836 176.378C389.062 176.022 389.175 175.628 389.175 175.198C389.175 174.768 389.062 174.378 388.836 174.027C388.609 173.676 388.306 173.396 387.927 173.187C387.548 172.977 387.124 172.873 386.654 172.873C386.196 172.873 385.774 172.977 385.389 173.187C385.01 173.396 384.705 173.676 384.473 174.027C384.246 174.378 384.133 174.768 384.133 175.198C384.133 175.628 384.246 176.022 384.473 176.378C384.705 176.729 385.01 177.009 385.389 177.218C385.774 177.428 386.196 177.532 386.654 177.532ZM386.654 171.684C387.067 171.684 387.441 171.594 387.775 171.413C388.108 171.226 388.374 170.977 388.572 170.666C388.776 170.355 388.878 170.009 388.878 169.63C388.878 169.251 388.776 168.909 388.572 168.603C388.374 168.292 388.108 168.046 387.775 167.865C387.441 167.678 387.067 167.585 386.654 167.585C386.247 167.585 385.873 167.678 385.534 167.865C385.2 168.046 384.931 168.292 384.727 168.603C384.529 168.909 384.43 169.251 384.43 169.63C384.43 170.009 384.529 170.355 384.727 170.666C384.931 170.977 385.2 171.226 385.534 171.413C385.873 171.594 386.247 171.684 386.654 171.684ZM392.441 178.5L399.299 166.617H400.674L393.816 178.5H392.441ZM393.833 171.26C393.459 171.26 393.12 171.169 392.814 170.988C392.509 170.807 392.262 170.564 392.076 170.258C391.895 169.947 391.804 169.605 391.804 169.231C391.804 168.847 391.895 168.501 392.076 168.196C392.262 167.89 392.509 167.647 392.814 167.466C393.125 167.285 393.465 167.194 393.833 167.194C394.206 167.194 394.546 167.288 394.851 167.474C395.157 167.655 395.4 167.899 395.581 168.204C395.768 168.51 395.861 168.852 395.861 169.231C395.861 169.61 395.768 169.953 395.581 170.258C395.4 170.564 395.154 170.807 394.843 170.988C394.537 171.169 394.2 171.26 393.833 171.26ZM393.833 170.352C394.149 170.352 394.415 170.244 394.63 170.029C394.845 169.808 394.953 169.543 394.953 169.231C394.953 168.914 394.845 168.648 394.63 168.433C394.415 168.213 394.149 168.102 393.833 168.102C393.521 168.102 393.255 168.213 393.035 168.433C392.82 168.648 392.712 168.914 392.712 169.231C392.712 169.543 392.82 169.808 393.035 170.029C393.255 170.244 393.521 170.352 393.833 170.352ZM399.299 177.931C398.925 177.931 398.583 177.838 398.272 177.651C397.966 177.459 397.72 177.21 397.533 176.904C397.352 176.593 397.262 176.256 397.262 175.894C397.262 175.515 397.355 175.173 397.542 174.867C397.729 174.556 397.975 174.31 398.28 174.129C398.591 173.948 398.931 173.857 399.299 173.857C399.678 173.857 400.02 173.951 400.326 174.137C400.631 174.324 400.875 174.573 401.056 174.884C401.237 175.19 401.327 175.526 401.327 175.894C401.327 176.268 401.237 176.61 401.056 176.921C400.875 177.227 400.629 177.473 400.317 177.66C400.012 177.841 399.672 177.931 399.299 177.931ZM399.299 177.023C399.604 177.023 399.867 176.913 400.088 176.692C400.309 176.471 400.419 176.205 400.419 175.894C400.419 175.583 400.309 175.317 400.088 175.096C399.867 174.876 399.604 174.765 399.299 174.765C398.988 174.765 398.719 174.876 398.492 175.096C398.272 175.317 398.161 175.583 398.161 175.894C398.161 176.205 398.272 176.471 398.492 176.692C398.719 176.913 398.988 177.023 399.299 177.023Z" fill="#0C1021"/>
<path d="M197.019 205.573V193.69H204.25V194.879H198.207V198.613H203.206V199.802H198.207V204.385H204.25V205.573H197.019ZM208.742 205.735C208.278 205.723 207.826 205.638 207.384 205.48C206.943 205.321 206.558 205.106 206.23 204.835C205.902 204.563 205.667 204.255 205.526 203.91L206.553 203.468C206.643 203.689 206.81 203.893 207.053 204.079C207.302 204.26 207.585 204.408 207.902 204.521C208.219 204.628 208.533 204.682 208.844 204.682C209.189 204.682 209.512 204.625 209.812 204.512C210.112 204.399 210.355 204.238 210.542 204.028C210.734 203.813 210.83 203.562 210.83 203.273C210.83 202.962 210.729 202.719 210.525 202.543C210.321 202.362 210.064 202.221 209.752 202.119C209.441 202.011 209.122 201.909 208.793 201.813C208.194 201.649 207.664 201.468 207.206 201.27C206.748 201.072 206.388 200.82 206.128 200.515C205.874 200.203 205.746 199.804 205.746 199.318C205.746 198.803 205.891 198.359 206.179 197.985C206.473 197.606 206.855 197.315 207.325 197.111C207.8 196.902 208.307 196.797 208.844 196.797C209.535 196.797 210.163 196.947 210.729 197.247C211.3 197.547 211.713 197.946 211.968 198.443L211.009 199.012C210.907 198.78 210.746 198.579 210.525 198.41C210.304 198.24 210.052 198.107 209.769 198.011C209.492 197.914 209.209 197.863 208.921 197.858C208.559 197.852 208.222 197.906 207.911 198.019C207.599 198.127 207.348 198.288 207.155 198.503C206.968 198.718 206.875 198.981 206.875 199.292C206.875 199.603 206.968 199.841 207.155 200.005C207.342 200.164 207.594 200.294 207.911 200.396C208.233 200.492 208.595 200.605 208.997 200.735C209.512 200.899 209.996 201.086 210.448 201.295C210.901 201.505 211.266 201.765 211.543 202.076C211.821 202.387 211.956 202.781 211.951 203.256C211.951 203.765 211.798 204.21 211.492 204.589C211.187 204.968 210.791 205.259 210.304 205.463C209.818 205.661 209.297 205.751 208.742 205.735ZM219.408 203.443L220.469 204.02C220.084 204.558 219.595 204.988 219 205.31C218.412 205.633 217.773 205.794 217.082 205.794C216.301 205.794 215.588 205.593 214.943 205.191C214.304 204.79 213.792 204.252 213.407 203.579C213.028 202.9 212.838 202.15 212.838 201.329C212.838 200.707 212.949 200.127 213.169 199.589C213.39 199.046 213.693 198.571 214.078 198.163C214.468 197.75 214.921 197.428 215.436 197.196C215.951 196.964 216.499 196.848 217.082 196.848C217.773 196.848 218.412 197.009 219 197.332C219.595 197.654 220.084 198.087 220.469 198.63L219.408 199.199C219.114 198.825 218.76 198.54 218.347 198.342C217.934 198.138 217.512 198.036 217.082 198.036C216.511 198.036 215.993 198.189 215.529 198.494C215.065 198.794 214.697 199.193 214.426 199.691C214.16 200.189 214.027 200.735 214.027 201.329C214.027 201.923 214.162 202.47 214.434 202.967C214.711 203.465 215.082 203.864 215.546 204.164C216.01 204.459 216.522 204.606 217.082 204.606C217.546 204.606 217.982 204.498 218.389 204.283C218.797 204.068 219.136 203.788 219.408 203.443ZM228.862 197.085H230.05V205.573H228.862L228.82 203.995C228.542 204.532 228.155 204.968 227.657 205.302C227.159 205.63 226.565 205.794 225.874 205.794C225.252 205.794 224.669 205.678 224.126 205.446C223.583 205.208 223.105 204.883 222.691 204.47C222.278 204.057 221.956 203.579 221.724 203.035C221.492 202.492 221.376 201.909 221.376 201.287C221.376 200.676 221.489 200.101 221.715 199.564C221.947 199.026 222.264 198.554 222.666 198.146C223.073 197.739 223.543 197.422 224.075 197.196C224.613 196.964 225.187 196.848 225.798 196.848C226.505 196.848 227.122 197.018 227.648 197.357C228.175 197.691 228.593 198.129 228.905 198.673L228.862 197.085ZM225.849 204.64C226.454 204.64 226.975 204.492 227.411 204.198C227.846 203.898 228.18 203.497 228.412 202.993C228.65 202.489 228.769 201.935 228.769 201.329C228.769 200.707 228.65 200.147 228.412 199.649C228.175 199.145 227.838 198.746 227.402 198.452C226.967 198.158 226.449 198.011 225.849 198.011C225.249 198.011 224.7 198.161 224.202 198.46C223.71 198.755 223.317 199.154 223.023 199.657C222.734 200.161 222.59 200.718 222.59 201.329C222.59 201.946 222.74 202.506 223.039 203.01C223.339 203.508 223.735 203.904 224.228 204.198C224.726 204.492 225.266 204.64 225.849 204.64ZM231.865 205.573V192.842H233.053V205.573H231.865ZM242.008 197.085H243.197V205.573H242.008L241.966 203.995C241.689 204.532 241.301 204.968 240.803 205.302C240.305 205.63 239.711 205.794 239.021 205.794C238.398 205.794 237.815 205.678 237.272 205.446C236.729 205.208 236.251 204.883 235.838 204.47C235.425 204.057 235.102 203.579 234.87 203.035C234.638 202.492 234.522 201.909 234.522 201.287C234.522 200.676 234.635 200.101 234.862 199.564C235.094 199.026 235.41 198.554 235.812 198.146C236.22 197.739 236.689 197.422 237.221 197.196C237.759 196.964 238.333 196.848 238.944 196.848C239.651 196.848 240.268 197.018 240.795 197.357C241.321 197.691 241.739 198.129 242.051 198.673L242.008 197.085ZM238.995 204.64C239.601 204.64 240.121 204.492 240.557 204.198C240.993 203.898 241.326 203.497 241.558 202.993C241.796 202.489 241.915 201.935 241.915 201.329C241.915 200.707 241.796 200.147 241.558 199.649C241.321 199.145 240.984 198.746 240.548 198.452C240.113 198.158 239.595 198.011 238.995 198.011C238.395 198.011 237.846 198.161 237.348 198.46C236.856 198.755 236.463 199.154 236.169 199.657C235.88 200.161 235.736 200.718 235.736 201.329C235.736 201.946 235.886 202.506 236.186 203.01C236.486 203.508 236.882 203.904 237.374 204.198C237.872 204.492 238.412 204.64 238.995 204.64ZM249.232 198.274H247.204L247.195 205.573H246.007L246.015 198.274H244.479V197.085H246.015L246.007 194.42H247.195L247.204 197.085H249.232V198.274ZM254.25 205.794C253.469 205.794 252.756 205.593 252.111 205.191C251.471 204.79 250.959 204.252 250.574 203.579C250.195 202.9 250.006 202.15 250.006 201.329C250.006 200.707 250.116 200.127 250.337 199.589C250.557 199.046 250.86 198.571 251.245 198.163C251.635 197.75 252.088 197.428 252.603 197.196C253.118 196.964 253.667 196.848 254.25 196.848C254.878 196.848 255.455 196.972 255.981 197.221C256.513 197.47 256.968 197.818 257.348 198.265C257.732 198.712 258.021 199.236 258.213 199.835C258.411 200.435 258.493 201.083 258.459 201.779H251.262C251.33 202.317 251.499 202.798 251.771 203.222C252.048 203.647 252.399 203.983 252.824 204.232C253.254 204.475 253.729 204.6 254.25 204.606C254.815 204.606 255.325 204.459 255.777 204.164C256.236 203.87 256.603 203.465 256.881 202.951L258.086 203.231C257.747 203.983 257.234 204.6 256.55 205.081C255.865 205.556 255.098 205.794 254.25 205.794ZM251.228 200.82H257.263C257.223 200.294 257.062 199.813 256.779 199.377C256.502 198.936 256.142 198.585 255.701 198.325C255.26 198.059 254.776 197.926 254.25 197.926C253.723 197.926 253.242 198.056 252.807 198.316C252.371 198.571 252.014 198.919 251.737 199.36C251.46 199.796 251.29 200.283 251.228 200.82ZM266.817 192.842H268.005V205.573H266.817V203.986C266.523 204.529 266.118 204.968 265.603 205.302C265.094 205.63 264.489 205.794 263.787 205.794C263.17 205.794 262.593 205.678 262.055 205.446C261.518 205.214 261.043 204.894 260.629 204.487C260.222 204.074 259.902 203.598 259.67 203.061C259.438 202.523 259.322 201.946 259.322 201.329C259.322 200.713 259.438 200.135 259.67 199.598C259.902 199.055 260.222 198.579 260.629 198.172C261.043 197.759 261.518 197.436 262.055 197.204C262.593 196.972 263.17 196.856 263.787 196.856C264.489 196.856 265.094 197.023 265.603 197.357C266.118 197.685 266.523 198.118 266.817 198.656V192.842ZM263.795 204.64C264.401 204.64 264.921 204.492 265.357 204.198C265.793 203.898 266.127 203.497 266.359 202.993C266.596 202.489 266.715 201.935 266.715 201.329C266.715 200.707 266.596 200.147 266.359 199.649C266.121 199.145 265.784 198.746 265.349 198.452C264.913 198.158 264.395 198.011 263.795 198.011C263.196 198.011 262.65 198.161 262.157 198.46C261.665 198.755 261.272 199.154 260.977 199.657C260.683 200.161 260.536 200.718 260.536 201.329C260.536 201.946 260.686 202.506 260.986 203.01C261.286 203.508 261.682 203.904 262.174 204.198C262.672 204.492 263.213 204.64 263.795 204.64ZM278.459 198.274H276.43L276.422 205.573H275.234L275.242 198.274H273.706V197.085H275.242L275.234 194.42H276.422L276.43 197.085H278.459V198.274ZM283.476 205.794C282.695 205.794 281.982 205.593 281.337 205.191C280.698 204.79 280.186 204.252 279.801 203.579C279.422 202.9 279.232 202.15 279.232 201.329C279.232 200.707 279.343 200.127 279.563 199.589C279.784 199.046 280.087 198.571 280.471 198.163C280.862 197.75 281.315 197.428 281.829 197.196C282.344 196.964 282.893 196.848 283.476 196.848C284.257 196.848 284.967 197.049 285.607 197.45C286.252 197.852 286.764 198.393 287.143 199.072C287.528 199.751 287.72 200.503 287.72 201.329C287.72 201.946 287.61 202.523 287.389 203.061C287.168 203.598 286.863 204.074 286.472 204.487C286.088 204.894 285.638 205.214 285.123 205.446C284.613 205.678 284.065 205.794 283.476 205.794ZM283.476 204.606C284.053 204.606 284.571 204.456 285.029 204.156C285.493 203.85 285.858 203.448 286.124 202.951C286.396 202.453 286.532 201.912 286.532 201.329C286.532 200.735 286.396 200.189 286.124 199.691C285.853 199.188 285.485 198.786 285.021 198.486C284.563 198.186 284.048 198.036 283.476 198.036C282.899 198.036 282.378 198.189 281.914 198.494C281.456 198.794 281.091 199.193 280.819 199.691C280.553 200.189 280.42 200.735 280.42 201.329C280.42 201.94 280.559 202.495 280.836 202.993C281.114 203.485 281.484 203.879 281.948 204.173C282.412 204.461 282.922 204.606 283.476 204.606ZM300.296 197.085H301.484V205.573H300.296L300.253 203.995C299.976 204.532 299.588 204.968 299.09 205.302C298.592 205.63 297.998 205.794 297.308 205.794C296.685 205.794 296.103 205.678 295.559 205.446C295.016 205.208 294.538 204.883 294.125 204.47C293.712 204.057 293.389 203.579 293.157 203.035C292.925 202.492 292.809 201.909 292.809 201.287C292.809 200.676 292.923 200.101 293.149 199.564C293.381 199.026 293.698 198.554 294.1 198.146C294.507 197.739 294.977 197.422 295.509 197.196C296.046 196.964 296.62 196.848 297.232 196.848C297.939 196.848 298.556 197.018 299.082 197.357C299.608 197.691 300.027 198.129 300.338 198.673L300.296 197.085ZM297.282 204.64C297.888 204.64 298.408 204.492 298.844 204.198C299.28 203.898 299.614 203.497 299.846 202.993C300.083 202.489 300.202 201.935 300.202 201.329C300.202 200.707 300.083 200.147 299.846 199.649C299.608 199.145 299.271 198.746 298.836 198.452C298.4 198.158 297.882 198.011 297.282 198.011C296.683 198.011 296.134 198.161 295.636 198.46C295.144 198.755 294.75 199.154 294.456 199.657C294.167 200.161 294.023 200.718 294.023 201.329C294.023 201.946 294.173 202.506 294.473 203.01C294.773 203.508 295.169 203.904 295.661 204.198C296.159 204.492 296.7 204.64 297.282 204.64ZM309.764 197.085H310.953V205.887C310.953 206.431 310.834 206.94 310.596 207.415C310.364 207.89 310.047 208.306 309.646 208.663C309.249 209.025 308.797 209.308 308.288 209.512C307.778 209.715 307.249 209.817 306.7 209.817C306.112 209.817 305.543 209.681 304.994 209.41C304.445 209.144 303.967 208.787 303.56 208.34C303.158 207.893 302.872 207.398 302.703 206.855L303.797 206.354C303.905 206.779 304.106 207.16 304.4 207.5C304.7 207.845 305.051 208.117 305.453 208.315C305.86 208.519 306.276 208.62 306.7 208.62C307.091 208.62 307.467 208.547 307.829 208.4C308.197 208.258 308.525 208.063 308.814 207.814C309.108 207.565 309.34 207.274 309.51 206.94C309.68 206.612 309.764 206.261 309.764 205.887V204.011C309.47 204.543 309.071 204.973 308.568 205.302C308.07 205.63 307.49 205.794 306.828 205.794C306.233 205.794 305.673 205.678 305.147 205.446C304.626 205.214 304.168 204.894 303.772 204.487C303.376 204.074 303.065 203.598 302.838 203.061C302.618 202.523 302.507 201.946 302.507 201.329C302.507 200.713 302.618 200.135 302.838 199.598C303.065 199.055 303.376 198.579 303.772 198.172C304.168 197.759 304.626 197.436 305.147 197.204C305.673 196.972 306.233 196.856 306.828 196.856C307.49 196.856 308.07 197.02 308.568 197.349C309.071 197.671 309.47 198.101 309.764 198.639V197.085ZM306.836 204.64C307.425 204.64 307.931 204.487 308.355 204.181C308.785 203.876 309.117 203.471 309.349 202.967C309.581 202.464 309.697 201.918 309.697 201.329C309.697 200.724 309.578 200.172 309.34 199.674C309.108 199.171 308.777 198.769 308.347 198.469C307.917 198.163 307.413 198.011 306.836 198.011C306.259 198.011 305.733 198.161 305.257 198.46C304.788 198.755 304.414 199.154 304.137 199.657C303.86 200.161 303.721 200.718 303.721 201.329C303.721 201.94 303.863 202.498 304.145 203.001C304.428 203.499 304.805 203.898 305.274 204.198C305.75 204.492 306.27 204.64 306.836 204.64ZM316.648 205.794C315.867 205.794 315.154 205.593 314.509 205.191C313.87 204.79 313.358 204.252 312.973 203.579C312.594 202.9 312.404 202.15 312.404 201.329C312.404 200.707 312.515 200.127 312.735 199.589C312.956 199.046 313.259 198.571 313.643 198.163C314.034 197.75 314.487 197.428 315.002 197.196C315.516 196.964 316.065 196.848 316.648 196.848C317.276 196.848 317.853 196.972 318.38 197.221C318.912 197.47 319.367 197.818 319.746 198.265C320.131 198.712 320.42 199.236 320.612 199.835C320.81 200.435 320.892 201.083 320.858 201.779H313.66C313.728 202.317 313.898 202.798 314.17 203.222C314.447 203.647 314.798 203.983 315.222 204.232C315.652 204.475 316.128 204.6 316.648 204.606C317.214 204.606 317.723 204.459 318.176 204.164C318.634 203.87 319.002 203.465 319.279 202.951L320.485 203.231C320.145 203.983 319.633 204.6 318.948 205.081C318.264 205.556 317.497 205.794 316.648 205.794ZM313.627 200.82H319.661C319.622 200.294 319.46 199.813 319.178 199.377C318.9 198.936 318.541 198.585 318.1 198.325C317.658 198.059 317.174 197.926 316.648 197.926C316.122 197.926 315.641 198.056 315.205 198.316C314.77 198.571 314.413 198.919 314.136 199.36C313.859 199.796 313.689 200.283 313.627 200.82ZM329.714 200.319V205.573H328.526V200.557C328.526 200.093 328.413 199.671 328.187 199.292C327.96 198.913 327.658 198.61 327.278 198.384C326.899 198.158 326.478 198.045 326.014 198.045C325.555 198.045 325.134 198.158 324.749 198.384C324.37 198.61 324.067 198.913 323.841 199.292C323.615 199.671 323.501 200.093 323.501 200.557V205.573H322.313V197.085H323.501V198.257C323.801 197.827 324.192 197.484 324.673 197.23C325.154 196.975 325.677 196.848 326.243 196.848C326.882 196.848 327.465 197.003 327.991 197.315C328.518 197.626 328.936 198.045 329.248 198.571C329.559 199.097 329.714 199.68 329.714 200.319ZM335.752 198.274H333.723L333.714 205.573H332.526L332.535 198.274H330.998V197.085H332.535L332.526 194.42H333.714L333.723 197.085H335.752V198.274Z" fill="#535662"/>
<path d="M373.303 205.573V204.521C373.767 204.091 374.277 203.621 374.831 203.112C375.386 202.597 375.934 202.068 376.478 201.525C377.027 200.976 377.527 200.435 377.98 199.903C378.433 199.366 378.795 198.859 379.066 198.384C379.344 197.903 379.482 197.479 379.482 197.111C379.482 196.664 379.372 196.256 379.151 195.889C378.936 195.515 378.645 195.218 378.277 194.997C377.915 194.771 377.51 194.658 377.063 194.658C376.616 194.658 376.206 194.771 375.833 194.997C375.465 195.218 375.171 195.515 374.95 195.889C374.729 196.256 374.619 196.664 374.619 197.111H373.431C373.431 196.432 373.595 195.818 373.923 195.269C374.257 194.72 374.698 194.284 375.247 193.962C375.796 193.634 376.401 193.47 377.063 193.47C377.725 193.47 378.328 193.634 378.871 193.962C379.42 194.29 379.856 194.729 380.178 195.278C380.507 195.826 380.671 196.438 380.671 197.111C380.671 197.513 380.563 197.954 380.348 198.435C380.139 198.91 379.853 199.405 379.491 199.92C379.129 200.43 378.721 200.945 378.269 201.465C377.816 201.986 377.343 202.495 376.851 202.993C376.359 203.485 375.881 203.949 375.417 204.385H380.849V205.573H373.303ZM382.554 205.573V204.521C383.018 204.091 383.527 203.621 384.081 203.112C384.636 202.597 385.185 202.068 385.728 201.525C386.277 200.976 386.778 200.435 387.23 199.903C387.683 199.366 388.045 198.859 388.317 198.384C388.594 197.903 388.733 197.479 388.733 197.111C388.733 196.664 388.622 196.256 388.402 195.889C388.187 195.515 387.895 195.218 387.528 194.997C387.165 194.771 386.761 194.658 386.314 194.658C385.867 194.658 385.456 194.771 385.083 194.997C384.715 195.218 384.421 195.515 384.2 195.889C383.98 196.256 383.869 196.664 383.869 197.111H382.681C382.681 196.432 382.845 195.818 383.173 195.269C383.507 194.72 383.948 194.284 384.497 193.962C385.046 193.634 385.652 193.47 386.314 193.47C386.976 193.47 387.578 193.634 388.122 193.962C388.671 194.29 389.106 194.729 389.429 195.278C389.757 195.826 389.921 196.438 389.921 197.111C389.921 197.513 389.814 197.954 389.599 198.435C389.389 198.91 389.103 199.405 388.741 199.92C388.379 200.43 387.972 200.945 387.519 201.465C387.066 201.986 386.594 202.495 386.102 202.993C385.609 203.485 385.131 203.949 384.667 204.385H390.099V205.573H382.554ZM392.441 205.573L399.299 193.69H400.674L393.816 205.573H392.441ZM393.833 198.333C393.459 198.333 393.12 198.243 392.814 198.062C392.509 197.88 392.262 197.637 392.076 197.332C391.895 197.02 391.804 196.678 391.804 196.305C391.804 195.92 391.895 195.575 392.076 195.269C392.262 194.963 392.509 194.72 392.814 194.539C393.125 194.358 393.465 194.267 393.833 194.267C394.206 194.267 394.546 194.361 394.851 194.548C395.157 194.729 395.4 194.972 395.581 195.278C395.768 195.583 395.861 195.925 395.861 196.305C395.861 196.684 395.768 197.026 395.581 197.332C395.4 197.637 395.154 197.88 394.843 198.062C394.537 198.243 394.2 198.333 393.833 198.333ZM393.833 197.425C394.149 197.425 394.415 197.317 394.63 197.102C394.845 196.882 394.953 196.616 394.953 196.305C394.953 195.988 394.845 195.722 394.63 195.507C394.415 195.286 394.149 195.176 393.833 195.176C393.521 195.176 393.255 195.286 393.035 195.507C392.82 195.722 392.712 195.988 392.712 196.305C392.712 196.616 392.82 196.882 393.035 197.102C393.255 197.317 393.521 197.425 393.833 197.425ZM399.299 205.005C398.925 205.005 398.583 204.911 398.272 204.724C397.966 204.532 397.72 204.283 397.533 203.978C397.352 203.666 397.262 203.33 397.262 202.967C397.262 202.588 397.355 202.246 397.542 201.94C397.729 201.629 397.975 201.383 398.28 201.202C398.591 201.021 398.931 200.93 399.299 200.93C399.678 200.93 400.02 201.024 400.326 201.211C400.631 201.397 400.875 201.646 401.056 201.957C401.237 202.263 401.327 202.6 401.327 202.967C401.327 203.341 401.237 203.683 401.056 203.995C400.875 204.3 400.629 204.546 400.317 204.733C400.012 204.914 399.672 205.005 399.299 205.005ZM399.299 204.096C399.604 204.096 399.867 203.986 400.088 203.765C400.309 203.545 400.419 203.279 400.419 202.967C400.419 202.656 400.309 202.39 400.088 202.17C399.867 201.949 399.604 201.839 399.299 201.839C398.988 201.839 398.719 201.949 398.492 202.17C398.272 202.39 398.161 202.656 398.161 202.967C398.161 203.279 398.272 203.545 398.492 203.765C398.719 203.986 398.988 204.096 399.299 204.096Z" fill="#0C1021"/>
<path d="M197.019 232.646V220.763H203.97V221.952H198.207V225.686H203.155V226.875H198.207V232.646H197.019ZM208.047 232.867C207.266 232.867 206.554 232.666 205.908 232.264C205.269 231.863 204.757 231.325 204.372 230.652C203.993 229.973 203.803 229.223 203.803 228.402C203.803 227.78 203.914 227.2 204.134 226.662C204.355 226.119 204.658 225.644 205.043 225.236C205.433 224.823 205.886 224.501 206.401 224.269C206.916 224.037 207.465 223.921 208.047 223.921C208.828 223.921 209.538 224.122 210.178 224.523C210.823 224.925 211.335 225.466 211.714 226.145C212.099 226.824 212.291 227.576 212.291 228.402C212.291 229.019 212.181 229.596 211.96 230.134C211.74 230.671 211.434 231.147 211.044 231.56C210.659 231.967 210.209 232.287 209.694 232.519C209.185 232.751 208.636 232.867 208.047 232.867ZM208.047 231.679C208.625 231.679 209.142 231.529 209.601 231.229C210.065 230.923 210.43 230.521 210.696 230.024C210.967 229.526 211.103 228.985 211.103 228.402C211.103 227.808 210.967 227.262 210.696 226.764C210.424 226.261 210.056 225.859 209.592 225.559C209.134 225.259 208.619 225.109 208.047 225.109C207.47 225.109 206.95 225.262 206.486 225.567C206.027 225.867 205.662 226.266 205.391 226.764C205.125 227.262 204.992 227.808 204.992 228.402C204.992 229.013 205.13 229.568 205.408 230.066C205.685 230.558 206.056 230.952 206.52 231.246C206.984 231.534 207.493 231.679 208.047 231.679ZM213.663 232.646V219.915H214.851V232.646H213.663ZM216.895 232.646V219.915H218.084V232.646H216.895ZM223.796 232.867C223.015 232.867 222.302 232.666 221.657 232.264C221.018 231.863 220.506 231.325 220.121 230.652C219.742 229.973 219.552 229.223 219.552 228.402C219.552 227.78 219.663 227.2 219.883 226.662C220.104 226.119 220.407 225.644 220.792 225.236C221.182 224.823 221.635 224.501 222.15 224.269C222.665 224.037 223.213 223.921 223.796 223.921C224.577 223.921 225.287 224.122 225.927 224.523C226.572 224.925 227.084 225.466 227.463 226.145C227.848 226.824 228.04 227.576 228.04 228.402C228.04 229.019 227.93 229.596 227.709 230.134C227.488 230.671 227.183 231.147 226.792 231.56C226.408 231.967 225.958 232.287 225.443 232.519C224.934 232.751 224.385 232.867 223.796 232.867ZM223.796 231.679C224.373 231.679 224.891 231.529 225.35 231.229C225.814 230.923 226.178 230.521 226.444 230.024C226.716 229.526 226.852 228.985 226.852 228.402C226.852 227.808 226.716 227.262 226.444 226.764C226.173 226.261 225.805 225.859 225.341 225.559C224.883 225.259 224.368 225.109 223.796 225.109C223.219 225.109 222.698 225.262 222.234 225.567C221.776 225.867 221.411 226.266 221.14 226.764C220.874 227.262 220.741 227.808 220.741 228.402C220.741 229.013 220.879 229.568 221.157 230.066C221.434 230.558 221.804 230.952 222.268 231.246C222.732 231.534 223.242 231.679 223.796 231.679ZM232.669 232.646H231.447L228.604 224.158H229.767L232.075 231L234.367 224.158H235.623L237.915 231L240.207 224.158H241.378L238.535 232.646H237.304L234.978 225.737L232.669 232.646ZM242.657 226.959H248.089V228.148H242.657V226.959ZM249.794 229.395V224.158H250.982V229.158C250.982 229.622 251.096 230.043 251.322 230.422C251.548 230.802 251.851 231.104 252.23 231.331C252.615 231.557 253.036 231.67 253.495 231.67C253.959 231.67 254.378 231.557 254.751 231.331C255.13 231.104 255.433 230.802 255.659 230.422C255.886 230.043 255.999 229.622 255.999 229.158V224.158H257.187L257.195 232.646H256.007L255.999 231.458C255.699 231.888 255.308 232.23 254.827 232.485C254.352 232.74 253.831 232.867 253.266 232.867C252.626 232.867 252.043 232.711 251.517 232.4C250.991 232.089 250.572 231.67 250.261 231.144C249.95 230.618 249.794 230.035 249.794 229.395ZM259.909 236.89H258.721V224.158H259.909V225.746C260.203 225.208 260.605 224.772 261.114 224.439C261.624 224.105 262.229 223.938 262.931 223.938C263.548 223.938 264.125 224.054 264.662 224.286C265.206 224.518 265.681 224.84 266.088 225.253C266.496 225.661 266.815 226.133 267.047 226.671C267.279 227.208 267.395 227.786 267.395 228.402C267.395 229.019 267.279 229.599 267.047 230.142C266.815 230.686 266.496 231.164 266.088 231.577C265.681 231.984 265.206 232.304 264.662 232.536C264.125 232.768 263.548 232.884 262.931 232.884C262.229 232.884 261.624 232.717 261.114 232.383C260.605 232.049 260.203 231.614 259.909 231.076V236.89ZM262.922 225.092C262.328 225.092 261.81 225.242 261.369 225.542C260.933 225.836 260.597 226.232 260.359 226.73C260.121 227.228 260.003 227.786 260.003 228.402C260.003 229.008 260.119 229.562 260.351 230.066C260.588 230.57 260.925 230.971 261.361 231.271C261.802 231.571 262.323 231.721 262.922 231.721C263.511 231.721 264.051 231.574 264.544 231.28C265.041 230.985 265.44 230.589 265.74 230.091C266.04 229.588 266.19 229.025 266.19 228.402C266.19 227.797 266.043 227.245 265.749 226.747C265.455 226.244 265.061 225.842 264.569 225.542C264.077 225.242 263.528 225.092 262.922 225.092ZM275.617 232.808C275.153 232.796 274.7 232.711 274.259 232.553C273.818 232.394 273.433 232.179 273.105 231.908C272.776 231.636 272.542 231.328 272.4 230.983L273.427 230.541C273.518 230.762 273.685 230.966 273.928 231.152C274.177 231.333 274.46 231.481 274.777 231.594C275.094 231.701 275.408 231.755 275.719 231.755C276.064 231.755 276.387 231.698 276.687 231.585C276.986 231.472 277.23 231.311 277.416 231.101C277.609 230.886 277.705 230.635 277.705 230.346C277.705 230.035 277.603 229.792 277.4 229.616C277.196 229.435 276.938 229.294 276.627 229.192C276.316 229.084 275.996 228.982 275.668 228.886C275.068 228.722 274.539 228.541 274.081 228.343C273.622 228.145 273.263 227.893 273.003 227.588C272.748 227.276 272.621 226.877 272.621 226.391C272.621 225.876 272.765 225.432 273.054 225.058C273.348 224.679 273.73 224.388 274.2 224.184C274.675 223.975 275.181 223.87 275.719 223.87C276.409 223.87 277.037 224.02 277.603 224.32C278.175 224.62 278.588 225.019 278.842 225.516L277.883 226.085C277.781 225.853 277.62 225.652 277.4 225.483C277.179 225.313 276.927 225.18 276.644 225.084C276.367 224.987 276.084 224.936 275.795 224.931C275.433 224.925 275.096 224.979 274.785 225.092C274.474 225.2 274.222 225.361 274.03 225.576C273.843 225.791 273.75 226.054 273.75 226.365C273.75 226.676 273.843 226.914 274.03 227.078C274.217 227.237 274.468 227.367 274.785 227.469C275.108 227.565 275.47 227.678 275.872 227.808C276.387 227.972 276.87 228.159 277.323 228.368C277.776 228.578 278.141 228.838 278.418 229.149C278.695 229.46 278.831 229.854 278.825 230.329C278.825 230.838 278.673 231.283 278.367 231.662C278.062 232.041 277.665 232.332 277.179 232.536C276.692 232.734 276.172 232.824 275.617 232.808ZM286.283 230.516L287.343 231.093C286.959 231.631 286.469 232.061 285.875 232.383C285.287 232.706 284.647 232.867 283.957 232.867C283.176 232.867 282.463 232.666 281.818 232.264C281.179 231.863 280.666 231.325 280.282 230.652C279.903 229.973 279.713 229.223 279.713 228.402C279.713 227.78 279.823 227.2 280.044 226.662C280.265 226.119 280.567 225.644 280.952 225.236C281.343 224.823 281.795 224.501 282.31 224.269C282.825 224.037 283.374 223.921 283.957 223.921C284.647 223.921 285.287 224.082 285.875 224.405C286.469 224.727 286.959 225.16 287.343 225.703L286.283 226.272C285.988 225.898 285.635 225.613 285.222 225.415C284.808 225.211 284.387 225.109 283.957 225.109C283.385 225.109 282.868 225.262 282.404 225.567C281.94 225.867 281.572 226.266 281.3 226.764C281.034 227.262 280.901 227.808 280.901 228.402C280.901 228.996 281.037 229.543 281.309 230.04C281.586 230.538 281.957 230.937 282.421 231.237C282.885 231.532 283.397 231.679 283.957 231.679C284.421 231.679 284.857 231.571 285.264 231.356C285.671 231.141 286.011 230.861 286.283 230.516ZM296.161 227.392V232.646H294.973V227.63C294.973 227.166 294.86 226.744 294.633 226.365C294.407 225.986 294.104 225.683 293.725 225.457C293.346 225.231 292.924 225.118 292.46 225.118C292.002 225.118 291.581 225.231 291.196 225.457C290.817 225.683 290.514 225.986 290.288 226.365C290.061 226.744 289.948 227.166 289.948 227.63V232.646H288.76V219.915H289.948V225.33C290.248 224.9 290.638 224.557 291.119 224.303C291.6 224.048 292.124 223.921 292.69 223.921C293.329 223.921 293.912 224.076 294.438 224.388C294.964 224.699 295.383 225.118 295.694 225.644C296.006 226.17 296.161 226.753 296.161 227.392ZM301.43 232.867C300.649 232.867 299.936 232.666 299.291 232.264C298.651 231.863 298.139 231.325 297.755 230.652C297.375 229.973 297.186 229.223 297.186 228.402C297.186 227.78 297.296 227.2 297.517 226.662C297.738 226.119 298.04 225.644 298.425 225.236C298.816 224.823 299.268 224.501 299.783 224.269C300.298 224.037 300.847 223.921 301.43 223.921C302.058 223.921 302.635 224.045 303.161 224.294C303.693 224.543 304.149 224.891 304.528 225.338C304.913 225.785 305.201 226.309 305.394 226.908C305.592 227.508 305.674 228.156 305.64 228.852H298.442C298.51 229.39 298.68 229.871 298.951 230.295C299.229 230.72 299.579 231.056 300.004 231.305C300.434 231.548 300.909 231.673 301.43 231.679C301.996 231.679 302.505 231.532 302.958 231.237C303.416 230.943 303.784 230.538 304.061 230.024L305.266 230.304C304.927 231.056 304.415 231.673 303.73 232.154C303.045 232.629 302.279 232.867 301.43 232.867ZM298.408 227.893H304.443C304.403 227.367 304.242 226.886 303.959 226.45C303.682 226.009 303.323 225.658 302.881 225.398C302.44 225.132 301.956 224.999 301.43 224.999C300.904 224.999 300.423 225.129 299.987 225.389C299.551 225.644 299.195 225.992 298.917 226.433C298.64 226.869 298.47 227.356 298.408 227.893ZM313.997 219.915H315.186V232.646H313.997V231.059C313.703 231.602 313.298 232.041 312.784 232.375C312.274 232.703 311.669 232.867 310.967 232.867C310.35 232.867 309.773 232.751 309.236 232.519C308.698 232.287 308.223 231.967 307.81 231.56C307.402 231.147 307.083 230.671 306.851 230.134C306.619 229.596 306.503 229.019 306.503 228.402C306.503 227.786 306.619 227.208 306.851 226.671C307.083 226.128 307.402 225.652 307.81 225.245C308.223 224.832 308.698 224.509 309.236 224.277C309.773 224.045 310.35 223.929 310.967 223.929C311.669 223.929 312.274 224.096 312.784 224.43C313.298 224.758 313.703 225.191 313.997 225.729V219.915ZM310.976 231.713C311.581 231.713 312.102 231.565 312.537 231.271C312.973 230.971 313.307 230.57 313.539 230.066C313.777 229.562 313.895 229.008 313.895 228.402C313.895 227.78 313.777 227.22 313.539 226.722C313.301 226.218 312.965 225.819 312.529 225.525C312.093 225.231 311.575 225.084 310.976 225.084C310.376 225.084 309.83 225.234 309.338 225.533C308.845 225.828 308.452 226.227 308.158 226.73C307.863 227.234 307.716 227.791 307.716 228.402C307.716 229.019 307.866 229.579 308.166 230.083C308.466 230.581 308.862 230.977 309.354 231.271C309.852 231.565 310.393 231.713 310.976 231.713ZM316.884 229.395V224.158H318.073V229.158C318.073 229.622 318.186 230.043 318.412 230.422C318.638 230.802 318.941 231.104 319.32 231.331C319.705 231.557 320.127 231.67 320.585 231.67C321.049 231.67 321.468 231.557 321.841 231.331C322.22 231.104 322.523 230.802 322.749 230.422C322.976 230.043 323.089 229.622 323.089 229.158V224.158H324.277L324.286 232.646H323.097L323.089 231.458C322.789 231.888 322.398 232.23 321.918 232.485C321.442 232.74 320.922 232.867 320.356 232.867C319.716 232.867 319.134 232.711 318.607 232.4C318.081 232.089 317.662 231.67 317.351 231.144C317.04 230.618 316.884 230.035 316.884 229.395ZM326.093 232.646V219.915H327.281V232.646H326.093ZM332.994 232.867C332.213 232.867 331.5 232.666 330.855 232.264C330.215 231.863 329.703 231.325 329.319 230.652C328.939 229.973 328.75 229.223 328.75 228.402C328.75 227.78 328.86 227.2 329.081 226.662C329.302 226.119 329.604 225.644 329.989 225.236C330.38 224.823 330.832 224.501 331.347 224.269C331.862 224.037 332.411 223.921 332.994 223.921C333.622 223.921 334.199 224.045 334.725 224.294C335.257 224.543 335.713 224.891 336.092 225.338C336.477 225.785 336.765 226.309 336.958 226.908C337.156 227.508 337.238 228.156 337.204 228.852H330.006C330.074 229.39 330.244 229.871 330.515 230.295C330.793 230.72 331.143 231.056 331.568 231.305C331.998 231.548 332.473 231.673 332.994 231.679C333.56 231.679 334.069 231.532 334.522 231.237C334.98 230.943 335.348 230.538 335.625 230.024L336.83 230.304C336.491 231.056 335.979 231.673 335.294 232.154C334.609 232.629 333.843 232.867 332.994 232.867ZM329.972 227.893H336.007C335.967 227.367 335.806 226.886 335.523 226.45C335.246 226.009 334.887 225.658 334.445 225.398C334.004 225.132 333.52 224.999 332.994 224.999C332.468 224.999 331.987 225.129 331.551 225.389C331.115 225.644 330.759 225.992 330.481 226.433C330.204 226.869 330.034 227.356 329.972 227.893ZM345.561 219.915H346.75V232.646H345.561V231.059C345.267 231.602 344.863 232.041 344.348 232.375C343.838 232.703 343.233 232.867 342.531 232.867C341.914 232.867 341.337 232.751 340.8 232.519C340.262 232.287 339.787 231.967 339.374 231.56C338.966 231.147 338.647 230.671 338.415 230.134C338.183 229.596 338.067 229.019 338.067 228.402C338.067 227.786 338.183 227.208 338.415 226.671C338.647 226.128 338.966 225.652 339.374 225.245C339.787 224.832 340.262 224.509 340.8 224.277C341.337 224.045 341.914 223.929 342.531 223.929C343.233 223.929 343.838 224.096 344.348 224.43C344.863 224.758 345.267 225.191 345.561 225.729V219.915ZM342.54 231.713C343.145 231.713 343.666 231.565 344.101 231.271C344.537 230.971 344.871 230.57 345.103 230.066C345.341 229.562 345.459 229.008 345.459 228.402C345.459 227.78 345.341 227.22 345.103 226.722C344.865 226.218 344.529 225.819 344.093 225.525C343.657 225.231 343.139 225.084 342.54 225.084C341.94 225.084 341.394 225.234 340.902 225.533C340.409 225.828 340.016 226.227 339.722 226.73C339.427 227.234 339.28 227.791 339.28 228.402C339.28 229.019 339.43 229.579 339.73 230.083C340.03 230.581 340.426 230.977 340.919 231.271C341.416 231.565 341.957 231.713 342.54 231.713Z" fill="#535662"/>
<path d="M378.472 232.646V221.952H377.199L377.539 220.763H379.66V232.646H378.472ZM386.08 232.867C385.367 232.867 384.73 232.708 384.17 232.392C383.61 232.069 383.132 231.625 382.736 231.059C382.34 230.493 382.037 229.84 381.827 229.098C381.624 228.351 381.522 227.554 381.522 226.705C381.522 225.856 381.624 225.058 381.827 224.311C382.037 223.564 382.34 222.911 382.736 222.351C383.132 221.785 383.61 221.343 384.17 221.026C384.73 220.704 385.367 220.543 386.08 220.543C386.787 220.543 387.421 220.704 387.981 221.026C388.541 221.343 389.017 221.785 389.407 222.351C389.797 222.911 390.095 223.564 390.298 224.311C390.508 225.058 390.612 225.856 390.612 226.705C390.612 227.554 390.508 228.351 390.298 229.098C390.095 229.84 389.797 230.493 389.407 231.059C389.017 231.625 388.541 232.069 387.981 232.392C387.421 232.708 386.787 232.867 386.08 232.867ZM386.08 231.679C386.827 231.679 387.452 231.449 387.956 230.991C388.465 230.533 388.847 229.927 389.101 229.175C389.356 228.416 389.483 227.593 389.483 226.705C389.483 225.765 389.35 224.922 389.084 224.175C388.824 223.423 388.439 222.829 387.93 222.393C387.427 221.952 386.81 221.731 386.08 221.731C385.503 221.731 384.999 221.864 384.569 222.13C384.139 222.396 383.782 222.761 383.5 223.225C383.217 223.689 383.004 224.221 382.863 224.82C382.721 225.415 382.651 226.043 382.651 226.705C382.651 227.599 382.781 228.425 383.041 229.183C383.301 229.936 383.686 230.541 384.196 231C384.705 231.452 385.333 231.679 386.08 231.679ZM392.441 232.646L399.299 220.763H400.674L393.816 232.646H392.441ZM393.833 225.406C393.459 225.406 393.12 225.316 392.814 225.135C392.509 224.953 392.262 224.71 392.076 224.405C391.895 224.093 391.804 223.751 391.804 223.378C391.804 222.993 391.895 222.648 392.076 222.342C392.262 222.036 392.509 221.793 392.814 221.612C393.125 221.431 393.465 221.34 393.833 221.34C394.206 221.34 394.546 221.434 394.851 221.621C395.157 221.802 395.4 222.045 395.581 222.351C395.768 222.656 395.861 222.998 395.861 223.378C395.861 223.757 395.768 224.099 395.581 224.405C395.4 224.71 395.154 224.953 394.843 225.135C394.537 225.316 394.2 225.406 393.833 225.406ZM393.833 224.498C394.149 224.498 394.415 224.39 394.63 224.175C394.845 223.955 394.953 223.689 394.953 223.378C394.953 223.061 394.845 222.795 394.63 222.58C394.415 222.359 394.149 222.249 393.833 222.249C393.521 222.249 393.255 222.359 393.035 222.58C392.82 222.795 392.712 223.061 392.712 223.378C392.712 223.689 392.82 223.955 393.035 224.175C393.255 224.39 393.521 224.498 393.833 224.498ZM399.299 232.078C398.925 232.078 398.583 231.984 398.272 231.797C397.966 231.605 397.72 231.356 397.533 231.051C397.352 230.739 397.262 230.403 397.262 230.04C397.262 229.661 397.355 229.319 397.542 229.013C397.729 228.702 397.975 228.456 398.28 228.275C398.591 228.094 398.931 228.003 399.299 228.003C399.678 228.003 400.02 228.097 400.326 228.284C400.631 228.47 400.875 228.719 401.056 229.03C401.237 229.336 401.327 229.673 401.327 230.04C401.327 230.414 401.237 230.756 401.056 231.068C400.875 231.373 400.629 231.619 400.317 231.806C400.012 231.987 399.672 232.078 399.299 232.078ZM399.299 231.169C399.604 231.169 399.867 231.059 400.088 230.838C400.309 230.618 400.419 230.352 400.419 230.04C400.419 229.729 400.309 229.463 400.088 229.243C399.867 229.022 399.604 228.912 399.299 228.912C398.988 228.912 398.719 229.022 398.492 229.243C398.272 229.463 398.161 229.729 398.161 230.04C398.161 230.352 398.272 230.618 398.492 230.838C398.719 231.059 398.988 231.169 399.299 231.169Z" fill="#0C1021"/>
</g>
<g filter="url(#filter6_d_2374_18758)">
<circle cx="332" cy="254.5" r="12" fill="#4268FF"/>
<circle cx="332" cy="254.5" r="10.5" stroke="white" stroke-width="3"/>
</g>
<defs>
<filter id="filter0_n_2374_18758" x="24" y="77" width="379" height="318" filterUnits="userSpaceOnUse" color-interpolation-filters="sRGB">
<feFlood flood-opacity="0" result="BackgroundImageFix"/>
<feBlend mode="normal" in="SourceGraphic" in2="BackgroundImageFix" result="shape"/>
<feTurbulence type="fractalNoise" baseFrequency="2 2" stitchTiles="stitch" numOctaves="3" result="noise" seed="2580" />
<feColorMatrix in="noise" type="luminanceToAlpha" result="alphaNoise" />
<feComponentTransfer in="alphaNoise" result="coloredNoise1">
<feFuncA type="discrete" tableValues="1 1 1 1 1 1 1 1 1 1 1 1 1 1 1 1 1 1 1 1 1 1 1 1 1 1 1 1 1 1 1 1 1 1 1 1 1 1 1 1 1 1 1 1 1 1 1 1 1 1 1 0 0 0 0 0 0 0 0 0 0 0 0 0 0 0 0 0 0 0 0 0 0 0 0 0 0 0 0 0 0 0 0 0 0 0 0 0 0 0 0 0 0 0 0 0 0 0 0 0 "/>
</feComponentTransfer>
<feComposite operator="in" in2="shape" in="coloredNoise1" result="noise1Clipped" />
<feFlood flood-color="rgba(255, 255, 255, 0.25)" result="color1Flood" />
<feComposite operator="in" in2="noise1Clipped" in="color1Flood" result="color1" />
<feMerge result="effect1_noise_2374_18758">
<feMergeNode in="shape" />
<feMergeNode in="color1" />
</feMerge>
</filter>
<filter id="filter1_d_2374_18758" x="37" y="59" width="355" height="355" filterUnits="userSpaceOnUse" color-interpolation-filters="sRGB">
<feFlood flood-opacity="0" result="BackgroundImageFix"/>
<feColorMatrix in="SourceAlpha" type="matrix" values="0 0 0 0 0 0 0 0 0 0 0 0 0 0 0 0 0 0 127 0" result="hardAlpha"/>
<feOffset/>
<feGaussianBlur stdDeviation="25"/>
<feComposite in2="hardAlpha" operator="out"/>
<feColorMatrix type="matrix" values="0 0 0 0 0.0468057 0 0 0 0 0.0634939 0 0 0 0 0.129808 0 0 0 0.1 0"/>
<feBlend mode="normal" in2="BackgroundImageFix" result="effect1_dropShadow_2374_18758"/>
<feBlend mode="normal" in="SourceGraphic" in2="effect1_dropShadow_2374_18758" result="shape"/>
</filter>
<filter id="filter2_d_2374_18758" x="36.5" y="58.5" width="356" height="356" filterUnits="userSpaceOnUse" color-interpolation-filters="sRGB">
<feFlood flood-opacity="0" result="BackgroundImageFix"/>
<feColorMatrix in="SourceAlpha" type="matrix" values="0 0 0 0 0 0 0 0 0 0 0 0 0 0 0 0 0 0 127 0" result="hardAlpha"/>
<feOffset/>
<feGaussianBlur stdDeviation="25"/>
<feComposite in2="hardAlpha" operator="out"/>
<feColorMatrix type="matrix" values="0 0 0 0 0.0468057 0 0 0 0 0.0634939 0 0 0 0 0.129808 0 0 0 0.1 0"/>
<feBlend mode="normal" in2="BackgroundImageFix" result="effect1_dropShadow_2374_18758"/>
<feBlend mode="normal" in="SourceGraphic" in2="effect1_dropShadow_2374_18758" result="shape"/>
</filter>
<filter id="filter3_i_2374_18758" x="97.1919" y="109.034" width="244.808" height="258.966" filterUnits="userSpaceOnUse" color-interpolation-filters="sRGB">
<feFlood flood-opacity="0" result="BackgroundImageFix"/>
<feBlend mode="normal" in="SourceGraphic" in2="BackgroundImageFix" result="shape"/>
<feColorMatrix in="SourceAlpha" type="matrix" values="0 0 0 0 0 0 0 0 0 0 0 0 0 0 0 0 0 0 127 0" result="hardAlpha"/>
<feOffset dy="4"/>
<feGaussianBlur stdDeviation="2"/>
<feComposite in2="hardAlpha" operator="arithmetic" k2="-1" k3="1"/>
<feColorMatrix type="matrix" values="0 0 0 0 0 0 0 0 0 0 0 0 0 0 0 0 0 0 0.25 0"/>
<feBlend mode="normal" in2="shape" result="effect1_innerShadow_2374_18758"/>
</filter>
<filter id="filter4_i_2374_18758" x="87" y="146.344" width="50.667" height="144.47" filterUnits="userSpaceOnUse" color-interpolation-filters="sRGB">
<feFlood flood-opacity="0" result="BackgroundImageFix"/>
<feBlend mode="normal" in="SourceGraphic" in2="BackgroundImageFix" result="shape"/>
<feColorMatrix in="SourceAlpha" type="matrix" values="0 0 0 0 0 0 0 0 0 0 0 0 0 0 0 0 0 0 127 0" result="hardAlpha"/>
<feOffset dy="4"/>
<feGaussianBlur stdDeviation="2"/>
<feComposite in2="hardAlpha" operator="arithmetic" k2="-1" k3="1"/>
<feColorMatrix type="matrix" values="0 0 0 0 0 0 0 0 0 0 0 0 0 0 0 0 0 0 0.25 0"/>
<feBlend mode="normal" in2="shape" result="effect1_innerShadow_2374_18758"/>
</filter>
<filter id="filter5_d_2374_18758" x="165" y="134.329" width="268" height="136.146" filterUnits="userSpaceOnUse" color-interpolation-filters="sRGB">
<feFlood flood-opacity="0" result="BackgroundImageFix"/>
<feColorMatrix in="SourceAlpha" type="matrix" values="0 0 0 0 0 0 0 0 0 0 0 0 0 0 0 0 0 0 127 0" result="hardAlpha"/>
<feOffset dy="2.82927"/>
<feGaussianBlur stdDeviation="7.5"/>
<feComposite in2="hardAlpha" operator="out"/>
<feColorMatrix type="matrix" values="0 0 0 0 0.0470588 0 0 0 0 0.0627451 0 0 0 0 0.129412 0 0 0 0.05 0"/>
<feBlend mode="normal" in2="BackgroundImageFix" result="effect1_dropShadow_2374_18758"/>
<feBlend mode="normal" in="SourceGraphic" in2="effect1_dropShadow_2374_18758" result="shape"/>
</filter>
<filter id="filter6_d_2374_18758" x="316" y="242.5" width="32" height="32" filterUnits="userSpaceOnUse" color-interpolation-filters="sRGB">
<feFlood flood-opacity="0" result="BackgroundImageFix"/>
<feColorMatrix in="SourceAlpha" type="matrix" values="0 0 0 0 0 0 0 0 0 0 0 0 0 0 0 0 0 0 127 0" result="hardAlpha"/>
<feOffset dy="4"/>
<feGaussianBlur stdDeviation="2"/>
<feComposite in2="hardAlpha" operator="out"/>
<feColorMatrix type="matrix" values="0 0 0 0 0.259615 0 0 0 0 0.407692 0 0 0 0 1 0 0 0 0.25 0"/>
<feBlend mode="normal" in2="BackgroundImageFix" result="effect1_dropShadow_2374_18758"/>
<feBlend mode="normal" in="SourceGraphic" in2="effect1_dropShadow_2374_18758" result="shape"/>
</filter>
<clipPath id="clip0_2374_18758">
<rect width="379" height="318" fill="white" transform="translate(24 77)"/>
</clipPath>
</defs>
</svg>
