<svg width="430" height="177" viewBox="0 0 430 177" fill="none" xmlns="http://www.w3.org/2000/svg">
<rect width="430" height="177" rx="24" fill="white"/>
<rect x="0.5" y="0.5" width="429" height="176" rx="23.5" stroke="#0C1021" stroke-opacity="0.05"/>
<path d="M45.72 51.24L44.05 49.57C43.4633 50.09 42.7967 50.4967 42.05 50.79C41.31 51.0833 40.5267 51.23 39.7 51.23C38.7467 51.23 37.8533 51.0433 37.02 50.67C36.1867 50.29 35.4533 49.77 34.82 49.11C34.1867 48.4433 33.69 47.67 33.33 46.79C32.9767 45.91 32.8 44.97 32.8 43.97C32.8 42.97 32.9767 42.0333 33.33 41.16C33.69 40.28 34.1867 39.5067 34.82 38.84C35.4533 38.1733 36.1867 37.6533 37.02 37.28C37.8533 36.9 38.7467 36.71 39.7 36.71C40.6533 36.71 41.5433 36.9 42.37 37.28C43.2033 37.6533 43.9367 38.1733 44.57 38.84C45.2033 39.5067 45.6967 40.28 46.05 41.16C46.41 42.0333 46.59 42.97 46.59 43.97C46.59 44.85 46.45 45.68 46.17 46.46C45.89 47.24 45.5033 47.9433 45.01 48.57L46.71 50.25L45.72 51.24ZM39.7 49.83C40.3067 49.83 40.9 49.72 41.48 49.5C42.0667 49.28 42.5833 48.9667 43.03 48.56L40.96 46.49L41.95 45.49L43.98 47.53C44.3733 47.03 44.6733 46.4733 44.88 45.86C45.0867 45.2467 45.19 44.6167 45.19 43.97C45.19 43.1633 45.0467 42.4067 44.76 41.7C44.4733 40.9933 44.0767 40.37 43.57 39.83C43.07 39.29 42.4867 38.87 41.82 38.57C41.16 38.2633 40.4533 38.11 39.7 38.11C38.9333 38.11 38.2167 38.2667 37.55 38.58C36.89 38.8867 36.3067 39.3133 35.8 39.86C35.3 40.4 34.9067 41.0233 34.62 41.73C34.34 42.43 34.2 43.1767 34.2 43.97C34.2 44.7767 34.3433 45.5333 34.63 46.24C34.9167 46.9467 35.3133 47.57 35.82 48.11C36.3267 48.65 36.91 49.0733 37.57 49.38C38.2367 49.68 38.9467 49.83 39.7 49.83ZM48.1906 47.17V41H49.5906V46.89C49.5906 47.4367 49.724 47.9333 49.9906 48.38C50.2573 48.8267 50.614 49.1833 51.0606 49.45C51.514 49.7167 52.0106 49.85 52.5506 49.85C53.0973 49.85 53.5906 49.7167 54.0306 49.45C54.4773 49.1833 54.834 48.8267 55.1006 48.38C55.3673 47.9333 55.5006 47.4367 55.5006 46.89V41H56.9006L56.9106 51H55.5106L55.5006 49.6C55.1473 50.1067 54.6873 50.51 54.1206 50.81C53.5606 51.11 52.9473 51.26 52.2806 51.26C51.5273 51.26 50.8406 51.0767 50.2206 50.71C49.6006 50.3433 49.1073 49.85 48.7406 49.23C48.374 48.61 48.1906 47.9233 48.1906 47.17ZM67.045 41H68.445V51H67.045L66.995 49.14C66.6683 49.7733 66.2117 50.2867 65.625 50.68C65.0383 51.0667 64.3383 51.26 63.525 51.26C62.7917 51.26 62.105 51.1233 61.465 50.85C60.825 50.57 60.2617 50.1867 59.775 49.7C59.2883 49.2133 58.9083 48.65 58.635 48.01C58.3617 47.37 58.225 46.6833 58.225 45.95C58.225 45.23 58.3583 44.5533 58.625 43.92C58.8983 43.2867 59.2717 42.73 59.745 42.25C60.225 41.77 60.7783 41.3967 61.405 41.13C62.0383 40.8567 62.715 40.72 63.435 40.72C64.2683 40.72 64.995 40.92 65.615 41.32C66.235 41.7133 66.7283 42.23 67.095 42.87L67.045 41ZM63.495 49.9C64.2083 49.9 64.8217 49.7267 65.335 49.38C65.8483 49.0267 66.2417 48.5533 66.515 47.96C66.795 47.3667 66.935 46.7133 66.935 46C66.935 45.2667 66.795 44.6067 66.515 44.02C66.235 43.4267 65.8383 42.9567 65.325 42.61C64.8117 42.2633 64.2017 42.09 63.495 42.09C62.7883 42.09 62.1417 42.2667 61.555 42.62C60.975 42.9667 60.5117 43.4367 60.165 44.03C59.825 44.6233 59.655 45.28 59.655 46C59.655 46.7267 59.8317 47.3867 60.185 47.98C60.5383 48.5667 61.005 49.0333 61.585 49.38C62.1717 49.7267 62.8083 49.9 63.495 49.9ZM70.5828 51V36H71.9828V51H70.5828ZM74.3914 41H75.7914V51H74.3914V41ZM75.1014 39.25C74.8747 39.25 74.6814 39.1767 74.5214 39.03C74.3681 38.8767 74.2914 38.6867 74.2914 38.46C74.2914 38.2333 74.3681 38.0467 74.5214 37.9C74.6814 37.7467 74.8747 37.67 75.1014 37.67C75.3214 37.67 75.5081 37.7467 75.6614 37.9C75.8214 38.0467 75.9014 38.2333 75.9014 38.46C75.9014 38.6867 75.8247 38.8767 75.6714 39.03C75.5181 39.1767 75.3281 39.25 75.1014 39.25ZM80.27 38.39V41H83.27V42.4H80.27V51H78.87V42.4H77.5V41H78.87V38.39C78.87 37.9033 78.9867 37.4633 79.22 37.07C79.46 36.67 79.78 36.3533 80.18 36.12C80.58 35.88 81.0233 35.76 81.51 35.76C81.8633 35.76 82.2033 35.83 82.53 35.97C82.8633 36.11 83.16 36.3167 83.42 36.59L82.42 37.58C82.3133 37.4467 82.1767 37.3433 82.01 37.27C81.85 37.1967 81.6833 37.16 81.51 37.16C81.17 37.16 80.8767 37.28 80.63 37.52C80.39 37.76 80.27 38.05 80.27 38.39ZM84.8016 41H86.2016V51H84.8016V41ZM85.5116 39.25C85.2849 39.25 85.0916 39.1767 84.9316 39.03C84.7782 38.8767 84.7016 38.6867 84.7016 38.46C84.7016 38.2333 84.7782 38.0467 84.9316 37.9C85.0916 37.7467 85.2849 37.67 85.5116 37.67C85.7316 37.67 85.9182 37.7467 86.0716 37.9C86.2316 38.0467 86.3116 38.2333 86.3116 38.46C86.3116 38.6867 86.2349 38.8767 86.0816 39.03C85.9282 39.1767 85.7382 39.25 85.5116 39.25ZM92.9125 51.26C91.9925 51.26 91.1525 51.0233 90.3925 50.55C89.6392 50.0767 89.0358 49.4433 88.5825 48.65C88.1358 47.85 87.9125 46.9667 87.9125 46C87.9125 45.2667 88.0425 44.5833 88.3025 43.95C88.5625 43.31 88.9192 42.75 89.3725 42.27C89.8325 41.7833 90.3658 41.4033 90.9725 41.13C91.5792 40.8567 92.2258 40.72 92.9125 40.72C93.6525 40.72 94.3325 40.8667 94.9525 41.16C95.5792 41.4533 96.1158 41.8633 96.5625 42.39C97.0158 42.9167 97.3558 43.5333 97.5825 44.24C97.8158 44.9467 97.9125 45.71 97.8725 46.53H89.3925C89.4725 47.1633 89.6725 47.73 89.9925 48.23C90.3192 48.73 90.7325 49.1267 91.2325 49.42C91.7392 49.7067 92.2992 49.8533 92.9125 49.86C93.5792 49.86 94.1792 49.6867 94.7125 49.34C95.2525 48.9933 95.6858 48.5167 96.0125 47.91L97.4325 48.24C97.0325 49.1267 96.4292 49.8533 95.6225 50.42C94.8158 50.98 93.9125 51.26 92.9125 51.26ZM89.3525 45.4H96.4625C96.4158 44.78 96.2258 44.2133 95.8925 43.7C95.5658 43.18 95.1425 42.7667 94.6225 42.46C94.1025 42.1467 93.5325 41.99 92.9125 41.99C92.2925 41.99 91.7258 42.1433 91.2125 42.45C90.6992 42.75 90.2792 43.16 89.9525 43.68C89.6258 44.1933 89.4258 44.7667 89.3525 45.4ZM107.719 36H109.119V51H107.719V49.13C107.372 49.77 106.896 50.2867 106.289 50.68C105.689 51.0667 104.976 51.26 104.149 51.26C103.422 51.26 102.742 51.1233 102.109 50.85C101.476 50.5767 100.916 50.2 100.429 49.72C99.9491 49.2333 99.5724 48.6733 99.2991 48.04C99.0257 47.4067 98.8891 46.7267 98.8891 46C98.8891 45.2733 99.0257 44.5933 99.2991 43.96C99.5724 43.32 99.9491 42.76 100.429 42.28C100.916 41.7933 101.476 41.4133 102.109 41.14C102.742 40.8667 103.422 40.73 104.149 40.73C104.976 40.73 105.689 40.9267 106.289 41.32C106.896 41.7067 107.372 42.2167 107.719 42.85V36ZM104.159 49.9C104.872 49.9 105.486 49.7267 105.999 49.38C106.512 49.0267 106.906 48.5533 107.179 47.96C107.459 47.3667 107.599 46.7133 107.599 46C107.599 45.2667 107.459 44.6067 107.179 44.02C106.899 43.4267 106.502 42.9567 105.989 42.61C105.476 42.2633 104.866 42.09 104.159 42.09C103.452 42.09 102.809 42.2667 102.229 42.62C101.649 42.9667 101.186 43.4367 100.839 44.03C100.492 44.6233 100.319 45.28 100.319 46C100.319 46.7267 100.496 47.3867 100.849 47.98C101.202 48.5667 101.669 49.0333 102.249 49.38C102.836 49.7267 103.472 49.9 104.159 49.9ZM116.325 51V36H117.725V51H116.325ZM124.455 51.26C123.535 51.26 122.695 51.0233 121.935 50.55C121.182 50.0767 120.579 49.4433 120.125 48.65C119.679 47.85 119.455 46.9667 119.455 46C119.455 45.2667 119.585 44.5833 119.845 43.95C120.105 43.31 120.462 42.75 120.915 42.27C121.375 41.7833 121.909 41.4033 122.515 41.13C123.122 40.8567 123.769 40.72 124.455 40.72C125.195 40.72 125.875 40.8667 126.495 41.16C127.122 41.4533 127.659 41.8633 128.105 42.39C128.559 42.9167 128.899 43.5333 129.125 44.24C129.359 44.9467 129.455 45.71 129.415 46.53H120.935C121.015 47.1633 121.215 47.73 121.535 48.23C121.862 48.73 122.275 49.1267 122.775 49.42C123.282 49.7067 123.842 49.8533 124.455 49.86C125.122 49.86 125.722 49.6867 126.255 49.34C126.795 48.9933 127.229 48.5167 127.555 47.91L128.975 48.24C128.575 49.1267 127.972 49.8533 127.165 50.42C126.359 50.98 125.455 51.26 124.455 51.26ZM120.895 45.4H128.005C127.959 44.78 127.769 44.2133 127.435 43.7C127.109 43.18 126.685 42.7667 126.165 42.46C125.645 42.1467 125.075 41.99 124.455 41.99C123.835 41.99 123.269 42.1433 122.755 42.45C122.242 42.75 121.822 43.16 121.495 43.68C121.169 44.1933 120.969 44.7667 120.895 45.4ZM139.252 41H140.652V51H139.252L139.202 49.14C138.875 49.7733 138.419 50.2867 137.832 50.68C137.245 51.0667 136.545 51.26 135.732 51.26C134.999 51.26 134.312 51.1233 133.672 50.85C133.032 50.57 132.469 50.1867 131.982 49.7C131.495 49.2133 131.115 48.65 130.842 48.01C130.569 47.37 130.432 46.6833 130.432 45.95C130.432 45.23 130.565 44.5533 130.832 43.92C131.105 43.2867 131.479 42.73 131.952 42.25C132.432 41.77 132.985 41.3967 133.612 41.13C134.245 40.8567 134.922 40.72 135.642 40.72C136.475 40.72 137.202 40.92 137.822 41.32C138.442 41.7133 138.935 42.23 139.302 42.87L139.252 41ZM135.702 49.9C136.415 49.9 137.029 49.7267 137.542 49.38C138.055 49.0267 138.449 48.5533 138.722 47.96C139.002 47.3667 139.142 46.7133 139.142 46C139.142 45.2667 139.002 44.6067 138.722 44.02C138.442 43.4267 138.045 42.9567 137.532 42.61C137.019 42.2633 136.409 42.09 135.702 42.09C134.995 42.09 134.349 42.2667 133.762 42.62C133.182 42.9667 132.719 43.4367 132.372 44.03C132.032 44.6233 131.862 45.28 131.862 46C131.862 46.7267 132.039 47.3867 132.392 47.98C132.745 48.5667 133.212 49.0333 133.792 49.38C134.379 49.7267 135.015 49.9 135.702 49.9ZM150.688 36H152.088V51H150.688V49.13C150.341 49.77 149.864 50.2867 149.258 50.68C148.658 51.0667 147.944 51.26 147.118 51.26C146.391 51.26 145.711 51.1233 145.078 50.85C144.444 50.5767 143.884 50.2 143.398 49.72C142.918 49.2333 142.541 48.6733 142.268 48.04C141.994 47.4067 141.858 46.7267 141.858 46C141.858 45.2733 141.994 44.5933 142.268 43.96C142.541 43.32 142.918 42.76 143.398 42.28C143.884 41.7933 144.444 41.4133 145.078 41.14C145.711 40.8667 146.391 40.73 147.118 40.73C147.944 40.73 148.658 40.9267 149.258 41.32C149.864 41.7067 150.341 42.2167 150.688 42.85V36ZM147.128 49.9C147.841 49.9 148.454 49.7267 148.968 49.38C149.481 49.0267 149.874 48.5533 150.148 47.96C150.428 47.3667 150.568 46.7133 150.568 46C150.568 45.2667 150.428 44.6067 150.148 44.02C149.868 43.4267 149.471 42.9567 148.958 42.61C148.444 42.2633 147.834 42.09 147.128 42.09C146.421 42.09 145.778 42.2667 145.198 42.62C144.618 42.9667 144.154 43.4367 143.808 44.03C143.461 44.6233 143.288 45.28 143.288 46C143.288 46.7267 143.464 47.3867 143.818 47.98C144.171 48.5667 144.638 49.0333 145.218 49.38C145.804 49.7267 146.441 49.9 147.128 49.9ZM157.579 51.19C157.032 51.1767 156.499 51.0767 155.979 50.89C155.459 50.7033 155.006 50.45 154.619 50.13C154.232 49.81 153.956 49.4467 153.789 49.04L154.999 48.52C155.106 48.78 155.302 49.02 155.589 49.24C155.882 49.4533 156.216 49.6267 156.589 49.76C156.962 49.8867 157.332 49.95 157.699 49.95C158.106 49.95 158.486 49.8833 158.839 49.75C159.192 49.6167 159.479 49.4267 159.699 49.18C159.926 48.9267 160.039 48.63 160.039 48.29C160.039 47.9233 159.919 47.6367 159.679 47.43C159.439 47.2167 159.136 47.05 158.769 46.93C158.402 46.8033 158.026 46.6833 157.639 46.57C156.932 46.3767 156.309 46.1633 155.769 45.93C155.229 45.6967 154.806 45.4 154.499 45.04C154.199 44.6733 154.049 44.2033 154.049 43.63C154.049 43.0233 154.219 42.5 154.559 42.06C154.906 41.6133 155.356 41.27 155.909 41.03C156.469 40.7833 157.066 40.66 157.699 40.66C158.512 40.66 159.252 40.8367 159.919 41.19C160.592 41.5433 161.079 42.0133 161.379 42.6L160.249 43.27C160.129 42.9967 159.939 42.76 159.679 42.56C159.419 42.36 159.122 42.2033 158.789 42.09C158.462 41.9767 158.129 41.9167 157.789 41.91C157.362 41.9033 156.966 41.9667 156.599 42.1C156.232 42.2267 155.936 42.4167 155.709 42.67C155.489 42.9233 155.379 43.2333 155.379 43.6C155.379 43.9667 155.489 44.2467 155.709 44.44C155.929 44.6267 156.226 44.78 156.599 44.9C156.979 45.0133 157.406 45.1467 157.879 45.3C158.486 45.4933 159.056 45.7133 159.589 45.96C160.122 46.2067 160.552 46.5133 160.879 46.88C161.206 47.2467 161.366 47.71 161.359 48.27C161.359 48.87 161.179 49.3933 160.819 49.84C160.459 50.2867 159.992 50.63 159.419 50.87C158.846 51.1033 158.232 51.21 157.579 51.19Z" fill="#0C1021"/>
<g clip-path="url(#clip0_2374_18902)">
<rect x="32" y="68" width="366" height="25" fill="#F1F1F1"/>
<g filter="url(#filter0_i_2374_18902)">
<rect x="32" y="68" width="238" height="25" fill="#4268FF"/>
</g>
</g>
<circle cx="37" cy="125" r="5" fill="#4268FF"/>
<path d="M53.376 118.182C52.7133 118.182 52.0903 118.051 51.507 117.79C50.9237 117.524 50.4103 117.16 49.967 116.698C49.5283 116.231 49.183 115.69 48.931 115.074C48.6837 114.458 48.56 113.8 48.56 113.1C48.56 112.4 48.6837 111.742 48.931 111.126C49.183 110.51 49.5283 109.971 49.967 109.509C50.4103 109.042 50.9237 108.678 51.507 108.417C52.0903 108.151 52.7133 108.018 53.376 108.018C54.1693 108.018 54.8997 108.202 55.567 108.571C56.2343 108.94 56.7873 109.43 57.226 110.041L56.358 110.51C56.0127 110.048 55.574 109.682 55.042 109.411C54.5147 109.136 53.9593 108.998 53.376 108.998C52.8393 108.998 52.3377 109.108 51.871 109.327C51.409 109.542 51.003 109.838 50.653 110.216C50.303 110.594 50.03 111.03 49.834 111.525C49.638 112.02 49.54 112.545 49.54 113.1C49.54 113.665 49.638 114.194 49.834 114.689C50.0347 115.184 50.31 115.62 50.66 115.998C51.0147 116.376 51.423 116.672 51.885 116.887C52.3517 117.097 52.8487 117.202 53.376 117.202C53.9827 117.202 54.545 117.064 55.063 116.789C55.5857 116.509 56.0173 116.145 56.358 115.697L57.226 116.166C56.7873 116.777 56.2343 117.267 55.567 117.636C54.8997 118 54.1693 118.182 53.376 118.182ZM61.3536 118.182C60.7096 118.182 60.1216 118.016 59.5896 117.685C59.0623 117.354 58.6399 116.91 58.3226 116.355C58.0099 115.795 57.8536 115.177 57.8536 114.5C57.8536 113.987 57.9446 113.508 58.1266 113.065C58.3086 112.617 58.5583 112.225 58.8756 111.889C59.1976 111.548 59.5709 111.282 59.9956 111.091C60.4203 110.9 60.8729 110.804 61.3536 110.804C61.9976 110.804 62.5833 110.97 63.1106 111.301C63.6426 111.632 64.0649 112.078 64.3776 112.638C64.6949 113.198 64.8536 113.819 64.8536 114.5C64.8536 115.009 64.7626 115.485 64.5806 115.928C64.3986 116.371 64.1466 116.763 63.8246 117.104C63.5073 117.44 63.1363 117.704 62.7116 117.895C62.2916 118.086 61.8389 118.182 61.3536 118.182ZM61.3536 117.202C61.8296 117.202 62.2566 117.078 62.6346 116.831C63.0173 116.579 63.3183 116.248 63.5376 115.837C63.7616 115.426 63.8736 114.981 63.8736 114.5C63.8736 114.01 63.7616 113.56 63.5376 113.149C63.3136 112.734 63.0103 112.402 62.6276 112.155C62.2496 111.908 61.8249 111.784 61.3536 111.784C60.8776 111.784 60.4483 111.91 60.0656 112.162C59.6876 112.409 59.3866 112.738 59.1626 113.149C58.9433 113.56 58.8336 114.01 58.8336 114.5C58.8336 115.004 58.9479 115.461 59.1766 115.872C59.4053 116.278 59.7109 116.602 60.0936 116.845C60.4763 117.083 60.8963 117.202 61.3536 117.202ZM66.0392 118V111H67.0192V111.966C67.2712 111.611 67.5932 111.329 67.9852 111.119C68.3772 110.909 68.8066 110.804 69.2732 110.804C69.8006 110.804 70.2836 110.935 70.7222 111.196C71.1609 111.453 71.5039 111.796 71.7512 112.225C71.9986 111.796 72.3392 111.453 72.7732 111.196C73.2072 110.935 73.6879 110.804 74.2152 110.804C74.7426 110.804 75.2232 110.932 75.6572 111.189C76.0912 111.446 76.4366 111.791 76.6932 112.225C76.9499 112.659 77.0782 113.14 77.0782 113.667V118H76.0982V113.884C76.0982 113.511 76.0072 113.165 75.8252 112.848C75.6432 112.531 75.3982 112.276 75.0902 112.085C74.7869 111.889 74.4486 111.791 74.0752 111.791C73.7019 111.791 73.3612 111.882 73.0532 112.064C72.7499 112.241 72.5072 112.489 72.3252 112.806C72.1432 113.119 72.0522 113.478 72.0522 113.884V118H71.0722V113.884C71.0722 113.478 70.9812 113.119 70.7992 112.806C70.6172 112.489 70.3722 112.241 70.0642 112.064C69.7562 111.882 69.4156 111.791 69.0422 111.791C68.6736 111.791 68.3352 111.889 68.0272 112.085C67.7192 112.276 67.4742 112.531 67.2922 112.848C67.1102 113.165 67.0192 113.511 67.0192 113.884V118H66.0392ZM79.4606 121.5H78.4806V111H79.4606V112.309C79.7033 111.866 80.0346 111.506 80.4546 111.231C80.8746 110.956 81.374 110.818 81.9526 110.818C82.4613 110.818 82.9373 110.914 83.3806 111.105C83.8286 111.296 84.2206 111.562 84.5566 111.903C84.8926 112.239 85.1563 112.629 85.3476 113.072C85.539 113.515 85.6346 113.991 85.6346 114.5C85.6346 115.009 85.539 115.487 85.3476 115.935C85.1563 116.383 84.8926 116.777 84.5566 117.118C84.2206 117.454 83.8286 117.718 83.3806 117.909C82.9373 118.1 82.4613 118.196 81.9526 118.196C81.374 118.196 80.8746 118.058 80.4546 117.783C80.0346 117.508 79.7033 117.148 79.4606 116.705V121.5ZM81.9456 111.77C81.4556 111.77 81.0286 111.894 80.6646 112.141C80.3053 112.384 80.0276 112.71 79.8316 113.121C79.6356 113.532 79.5376 113.991 79.5376 114.5C79.5376 114.999 79.6333 115.457 79.8246 115.872C80.0206 116.287 80.2983 116.619 80.6576 116.866C81.0216 117.113 81.451 117.237 81.9456 117.237C82.431 117.237 82.8766 117.116 83.2826 116.873C83.6933 116.63 84.0223 116.304 84.2696 115.893C84.517 115.478 84.6406 115.013 84.6406 114.5C84.6406 114.001 84.5193 113.546 84.2766 113.135C84.034 112.72 83.7096 112.388 83.3036 112.141C82.8976 111.894 82.445 111.77 81.9456 111.77ZM86.7658 118V107.5H87.7458V118H86.7658ZM92.4571 118.182C91.8131 118.182 91.2251 118.016 90.6931 117.685C90.1658 117.354 89.7434 116.91 89.4261 116.355C89.1134 115.795 88.9571 115.177 88.9571 114.5C88.9571 113.987 89.0481 113.508 89.2301 113.065C89.4121 112.617 89.6618 112.225 89.9791 111.889C90.3011 111.548 90.6744 111.282 91.0991 111.091C91.5238 110.9 91.9764 110.804 92.4571 110.804C92.9751 110.804 93.4511 110.907 93.8851 111.112C94.3238 111.317 94.6994 111.604 95.0121 111.973C95.3294 112.342 95.5674 112.773 95.7261 113.268C95.8894 113.763 95.9571 114.297 95.9291 114.871H89.9931C90.0491 115.314 90.1891 115.711 90.4131 116.061C90.6418 116.411 90.9311 116.689 91.2811 116.894C91.6358 117.095 92.0278 117.197 92.4571 117.202C92.9238 117.202 93.3438 117.081 93.7171 116.838C94.0951 116.595 94.3984 116.262 94.6271 115.837L95.6211 116.068C95.3411 116.689 94.9188 117.197 94.3541 117.594C93.7894 117.986 93.1571 118.182 92.4571 118.182ZM89.9651 114.08H94.9421C94.9094 113.646 94.7764 113.249 94.5431 112.89C94.3144 112.526 94.0181 112.237 93.6541 112.022C93.2901 111.803 92.8911 111.693 92.4571 111.693C92.0231 111.693 91.6264 111.8 91.2671 112.015C90.9078 112.225 90.6138 112.512 90.3851 112.876C90.1564 113.235 90.0164 113.637 89.9651 114.08ZM100.583 111.98H98.91L98.903 118H97.923L97.93 111.98H96.663V111H97.93L97.923 108.802H98.903L98.91 111H100.583V111.98ZM104.721 118.182C104.077 118.182 103.489 118.016 102.957 117.685C102.429 117.354 102.007 116.91 101.69 116.355C101.377 115.795 101.221 115.177 101.221 114.5C101.221 113.987 101.312 113.508 101.494 113.065C101.676 112.617 101.925 112.225 102.243 111.889C102.565 111.548 102.938 111.282 103.363 111.091C103.787 110.9 104.24 110.804 104.721 110.804C105.239 110.804 105.715 110.907 106.149 111.112C106.587 111.317 106.963 111.604 107.276 111.973C107.593 112.342 107.831 112.773 107.99 113.268C108.153 113.763 108.221 114.297 108.193 114.871H102.257C102.313 115.314 102.453 115.711 102.677 116.061C102.905 116.411 103.195 116.689 103.545 116.894C103.899 117.095 104.291 117.197 104.721 117.202C105.187 117.202 105.607 117.081 105.981 116.838C106.359 116.595 106.662 116.262 106.891 115.837L107.885 116.068C107.605 116.689 107.182 117.197 106.618 117.594C106.053 117.986 105.421 118.182 104.721 118.182ZM102.229 114.08H107.206C107.173 113.646 107.04 113.249 106.807 112.89C106.578 112.526 106.282 112.237 105.918 112.022C105.554 111.803 105.155 111.693 104.721 111.693C104.287 111.693 103.89 111.8 103.531 112.015C103.171 112.225 102.877 112.512 102.649 112.876C102.42 113.235 102.28 113.637 102.229 114.08ZM115.085 107.5H116.065V118H115.085V116.691C114.843 117.139 114.509 117.501 114.084 117.776C113.664 118.047 113.165 118.182 112.586 118.182C112.078 118.182 111.602 118.086 111.158 117.895C110.715 117.704 110.323 117.44 109.982 117.104C109.646 116.763 109.383 116.371 109.191 115.928C109 115.485 108.904 115.009 108.904 114.5C108.904 113.991 109 113.515 109.191 113.072C109.383 112.624 109.646 112.232 109.982 111.896C110.323 111.555 110.715 111.289 111.158 111.098C111.602 110.907 112.078 110.811 112.586 110.811C113.165 110.811 113.664 110.949 114.084 111.224C114.509 111.495 114.843 111.852 115.085 112.295V107.5ZM112.593 117.23C113.093 117.23 113.522 117.109 113.881 116.866C114.241 116.619 114.516 116.287 114.707 115.872C114.903 115.457 115.001 114.999 115.001 114.5C115.001 113.987 114.903 113.525 114.707 113.114C114.511 112.699 114.234 112.37 113.874 112.127C113.515 111.884 113.088 111.763 112.593 111.763C112.099 111.763 111.648 111.887 111.242 112.134C110.836 112.377 110.512 112.706 110.269 113.121C110.027 113.536 109.905 113.996 109.905 114.5C109.905 115.009 110.029 115.471 110.276 115.886C110.524 116.297 110.85 116.623 111.256 116.866C111.667 117.109 112.113 117.23 112.593 117.23Z" fill="#535662"/>
<path d="M49.128 141L54.936 130.92H48.32V129.8H56.232V130.92L50.408 141H49.128ZM57.1869 141V140.008C57.6242 139.603 58.1042 139.16 58.6269 138.68C59.1495 138.195 59.6669 137.696 60.1789 137.184C60.6962 136.667 61.1682 136.157 61.5949 135.656C62.0215 135.149 62.3629 134.672 62.6189 134.224C62.8802 133.771 63.0109 133.371 63.0109 133.024C63.0109 132.603 62.9069 132.219 62.6989 131.872C62.4962 131.52 62.2215 131.24 61.8749 131.032C61.5335 130.819 61.1522 130.712 60.7309 130.712C60.3095 130.712 59.9229 130.819 59.5709 131.032C59.2242 131.24 58.9469 131.52 58.7389 131.872C58.5309 132.219 58.4269 132.603 58.4269 133.024H57.3069C57.3069 132.384 57.4615 131.805 57.7709 131.288C58.0855 130.771 58.5015 130.36 59.0189 130.056C59.5362 129.747 60.1069 129.592 60.7309 129.592C61.3549 129.592 61.9229 129.747 62.4349 130.056C62.9522 130.365 63.3629 130.779 63.6669 131.296C63.9762 131.813 64.1309 132.389 64.1309 133.024C64.1309 133.403 64.0295 133.819 63.8269 134.272C63.6295 134.72 63.3602 135.187 63.0189 135.672C62.6775 136.152 62.2935 136.637 61.8669 137.128C61.4402 137.619 60.9949 138.099 60.5309 138.568C60.0669 139.032 59.6162 139.469 59.1789 139.88H64.2989V141H57.1869ZM66.5056 141L72.9696 129.8H74.2656L67.8016 141H66.5056ZM67.8176 134.176C67.4656 134.176 67.1456 134.091 66.8576 133.92C66.5696 133.749 66.3376 133.52 66.1616 133.232C65.991 132.939 65.9056 132.616 65.9056 132.264C65.9056 131.901 65.991 131.576 66.1616 131.288C66.3376 131 66.5696 130.771 66.8576 130.6C67.151 130.429 67.471 130.344 67.8176 130.344C68.1696 130.344 68.4896 130.432 68.7776 130.608C69.0656 130.779 69.295 131.008 69.4656 131.296C69.6416 131.584 69.7296 131.907 69.7296 132.264C69.7296 132.621 69.6416 132.944 69.4656 133.232C69.295 133.52 69.063 133.749 68.7696 133.92C68.4816 134.091 68.1643 134.176 67.8176 134.176ZM67.8176 133.32C68.1163 133.32 68.367 133.219 68.5696 133.016C68.7723 132.808 68.8736 132.557 68.8736 132.264C68.8736 131.965 68.7723 131.715 68.5696 131.512C68.367 131.304 68.1163 131.2 67.8176 131.2C67.5243 131.2 67.2736 131.304 67.0656 131.512C66.863 131.715 66.7616 131.965 66.7616 132.264C66.7616 132.557 66.863 132.808 67.0656 133.016C67.2736 133.219 67.5243 133.32 67.8176 133.32ZM72.9696 140.464C72.6176 140.464 72.295 140.376 72.0016 140.2C71.7136 140.019 71.4816 139.784 71.3056 139.496C71.135 139.203 71.0496 138.885 71.0496 138.544C71.0496 138.187 71.1376 137.864 71.3136 137.576C71.4896 137.283 71.7216 137.051 72.0096 136.88C72.303 136.709 72.623 136.624 72.9696 136.624C73.327 136.624 73.6496 136.712 73.9376 136.888C74.2256 137.064 74.455 137.299 74.6256 137.592C74.7963 137.88 74.8816 138.197 74.8816 138.544C74.8816 138.896 74.7963 139.219 74.6256 139.512C74.455 139.8 74.223 140.032 73.9296 140.208C73.6416 140.379 73.3216 140.464 72.9696 140.464ZM72.9696 139.608C73.2576 139.608 73.5056 139.504 73.7136 139.296C73.9216 139.088 74.0256 138.837 74.0256 138.544C74.0256 138.251 73.9216 138 73.7136 137.792C73.5056 137.584 73.2576 137.48 72.9696 137.48C72.6763 137.48 72.423 137.584 72.2096 137.792C72.0016 138 71.8976 138.251 71.8976 138.544C71.8976 138.837 72.0016 139.088 72.2096 139.296C72.423 139.504 72.6763 139.608 72.9696 139.608Z" fill="#0C1021"/>
<circle cx="149" cy="125" r="5" fill="#4268FF"/>
<path d="M160.84 118V108.2H161.82V117.02H166.321V118H160.84ZM170.223 118.182C169.579 118.182 168.991 118.016 168.459 117.685C167.931 117.354 167.509 116.91 167.192 116.355C166.879 115.795 166.723 115.177 166.723 114.5C166.723 113.987 166.814 113.508 166.996 113.065C167.178 112.617 167.427 112.225 167.745 111.889C168.067 111.548 168.44 111.282 168.865 111.091C169.289 110.9 169.742 110.804 170.223 110.804C170.741 110.804 171.217 110.907 171.651 111.112C172.089 111.317 172.465 111.604 172.778 111.973C173.095 112.342 173.333 112.773 173.492 113.268C173.655 113.763 173.723 114.297 173.695 114.871H167.759C167.815 115.314 167.955 115.711 168.179 116.061C168.407 116.411 168.697 116.689 169.047 116.894C169.401 117.095 169.793 117.197 170.223 117.202C170.689 117.202 171.109 117.081 171.483 116.838C171.861 116.595 172.164 116.262 172.393 115.837L173.387 116.068C173.107 116.689 172.684 117.197 172.12 117.594C171.555 117.986 170.923 118.182 170.223 118.182ZM167.731 114.08H172.708C172.675 113.646 172.542 113.249 172.309 112.89C172.08 112.526 171.784 112.237 171.42 112.022C171.056 111.803 170.657 111.693 170.223 111.693C169.789 111.693 169.392 111.8 169.033 112.015C168.673 112.225 168.379 112.512 168.151 112.876C167.922 113.235 167.782 113.637 167.731 114.08ZM180.58 111H181.56V118H180.58L180.545 116.698C180.317 117.141 179.997 117.501 179.586 117.776C179.176 118.047 178.686 118.182 178.116 118.182C177.603 118.182 177.122 118.086 176.674 117.895C176.226 117.699 175.832 117.431 175.491 117.09C175.151 116.749 174.885 116.355 174.693 115.907C174.502 115.459 174.406 114.978 174.406 114.465C174.406 113.961 174.5 113.487 174.686 113.044C174.878 112.601 175.139 112.211 175.47 111.875C175.806 111.539 176.194 111.278 176.632 111.091C177.076 110.9 177.549 110.804 178.053 110.804C178.637 110.804 179.145 110.944 179.579 111.224C180.013 111.499 180.359 111.861 180.615 112.309L180.58 111ZM178.095 117.23C178.595 117.23 179.024 117.109 179.383 116.866C179.743 116.619 180.018 116.287 180.209 115.872C180.405 115.457 180.503 114.999 180.503 114.5C180.503 113.987 180.405 113.525 180.209 113.114C180.013 112.699 179.736 112.37 179.376 112.127C179.017 111.884 178.59 111.763 178.095 111.763C177.601 111.763 177.148 111.887 176.737 112.134C176.331 112.377 176.007 112.706 175.764 113.121C175.526 113.536 175.407 113.996 175.407 114.5C175.407 115.009 175.531 115.471 175.778 115.886C176.026 116.297 176.352 116.623 176.758 116.866C177.169 117.109 177.615 117.23 178.095 117.23ZM188.585 107.5H189.565V118H188.585V116.691C188.343 117.139 188.009 117.501 187.584 117.776C187.164 118.047 186.665 118.182 186.086 118.182C185.578 118.182 185.102 118.086 184.658 117.895C184.215 117.704 183.823 117.44 183.482 117.104C183.146 116.763 182.883 116.371 182.691 115.928C182.5 115.485 182.404 115.009 182.404 114.5C182.404 113.991 182.5 113.515 182.691 113.072C182.883 112.624 183.146 112.232 183.482 111.896C183.823 111.555 184.215 111.289 184.658 111.098C185.102 110.907 185.578 110.811 186.086 110.811C186.665 110.811 187.164 110.949 187.584 111.224C188.009 111.495 188.343 111.852 188.585 112.295V107.5ZM186.093 117.23C186.593 117.23 187.022 117.109 187.381 116.866C187.741 116.619 188.016 116.287 188.207 115.872C188.403 115.457 188.501 114.999 188.501 114.5C188.501 113.987 188.403 113.525 188.207 113.114C188.011 112.699 187.734 112.37 187.374 112.127C187.015 111.884 186.588 111.763 186.093 111.763C185.599 111.763 185.148 111.887 184.742 112.134C184.336 112.377 184.012 112.706 183.769 113.121C183.527 113.536 183.405 113.996 183.405 114.5C183.405 115.009 183.529 115.471 183.776 115.886C184.024 116.297 184.35 116.623 184.756 116.866C185.167 117.109 185.613 117.23 186.093 117.23ZM196.773 118.133C196.39 118.124 196.017 118.054 195.653 117.923C195.289 117.792 194.971 117.615 194.701 117.391C194.43 117.167 194.236 116.913 194.12 116.628L194.967 116.264C195.041 116.446 195.179 116.614 195.38 116.768C195.585 116.917 195.818 117.039 196.08 117.132C196.341 117.221 196.6 117.265 196.857 117.265C197.141 117.265 197.407 117.218 197.655 117.125C197.902 117.032 198.103 116.899 198.257 116.726C198.415 116.549 198.495 116.341 198.495 116.103C198.495 115.846 198.411 115.646 198.243 115.501C198.075 115.352 197.862 115.235 197.606 115.151C197.349 115.062 197.085 114.978 196.815 114.899C196.32 114.764 195.884 114.614 195.506 114.451C195.128 114.288 194.831 114.08 194.617 113.828C194.407 113.571 194.302 113.242 194.302 112.841C194.302 112.416 194.421 112.05 194.659 111.742C194.901 111.429 195.216 111.189 195.604 111.021C195.996 110.848 196.413 110.762 196.857 110.762C197.426 110.762 197.944 110.886 198.411 111.133C198.882 111.38 199.223 111.709 199.433 112.12L198.642 112.589C198.558 112.398 198.425 112.232 198.243 112.092C198.061 111.952 197.853 111.842 197.62 111.763C197.391 111.684 197.158 111.642 196.92 111.637C196.621 111.632 196.343 111.677 196.087 111.77C195.83 111.859 195.622 111.992 195.464 112.169C195.31 112.346 195.233 112.563 195.233 112.82C195.233 113.077 195.31 113.273 195.464 113.408C195.618 113.539 195.825 113.646 196.087 113.73C196.353 113.809 196.651 113.903 196.983 114.01C197.407 114.145 197.806 114.299 198.18 114.472C198.553 114.645 198.854 114.859 199.083 115.116C199.311 115.373 199.423 115.697 199.419 116.089C199.419 116.509 199.293 116.875 199.041 117.188C198.789 117.501 198.462 117.741 198.061 117.909C197.659 118.072 197.23 118.147 196.773 118.133ZM205.568 116.243L206.443 116.719C206.126 117.162 205.722 117.517 205.232 117.783C204.747 118.049 204.22 118.182 203.65 118.182C203.006 118.182 202.418 118.016 201.886 117.685C201.359 117.354 200.937 116.91 200.619 116.355C200.307 115.795 200.15 115.177 200.15 114.5C200.15 113.987 200.241 113.508 200.423 113.065C200.605 112.617 200.855 112.225 201.172 111.889C201.494 111.548 201.868 111.282 202.292 111.091C202.717 110.9 203.17 110.804 203.65 110.804C204.22 110.804 204.747 110.937 205.232 111.203C205.722 111.469 206.126 111.826 206.443 112.274L205.568 112.743C205.326 112.435 205.034 112.199 204.693 112.036C204.353 111.868 204.005 111.784 203.65 111.784C203.179 111.784 202.752 111.91 202.369 112.162C201.987 112.409 201.683 112.738 201.459 113.149C201.24 113.56 201.13 114.01 201.13 114.5C201.13 114.99 201.242 115.44 201.466 115.851C201.695 116.262 202.001 116.591 202.383 116.838C202.766 117.081 203.188 117.202 203.65 117.202C204.033 117.202 204.392 117.113 204.728 116.936C205.064 116.759 205.344 116.528 205.568 116.243ZM210.691 118.182C210.047 118.182 209.459 118.016 208.927 117.685C208.4 117.354 207.978 116.91 207.66 116.355C207.348 115.795 207.191 115.177 207.191 114.5C207.191 113.987 207.282 113.508 207.464 113.065C207.646 112.617 207.896 112.225 208.213 111.889C208.535 111.548 208.909 111.282 209.333 111.091C209.758 110.9 210.211 110.804 210.691 110.804C211.335 110.804 211.921 110.97 212.448 111.301C212.98 111.632 213.403 112.078 213.715 112.638C214.033 113.198 214.191 113.819 214.191 114.5C214.191 115.009 214.1 115.485 213.918 115.928C213.736 116.371 213.484 116.763 213.162 117.104C212.845 117.44 212.474 117.704 212.049 117.895C211.629 118.086 211.177 118.182 210.691 118.182ZM210.691 117.202C211.167 117.202 211.594 117.078 211.972 116.831C212.355 116.579 212.656 116.248 212.875 115.837C213.099 115.426 213.211 114.981 213.211 114.5C213.211 114.01 213.099 113.56 212.875 113.149C212.651 112.734 212.348 112.402 211.965 112.155C211.587 111.908 211.163 111.784 210.691 111.784C210.215 111.784 209.786 111.91 209.403 112.162C209.025 112.409 208.724 112.738 208.5 113.149C208.281 113.56 208.171 114.01 208.171 114.5C208.171 115.004 208.286 115.461 208.514 115.872C208.743 116.278 209.049 116.602 209.431 116.845C209.814 117.083 210.234 117.202 210.691 117.202ZM215.377 118V111H216.357V111.966C216.604 111.611 216.926 111.329 217.323 111.119C217.72 110.909 218.151 110.804 218.618 110.804C218.889 110.804 219.15 110.839 219.402 110.909L219.003 111.882C218.807 111.821 218.616 111.791 218.429 111.791C218.051 111.791 217.703 111.884 217.386 112.071C217.073 112.258 216.824 112.507 216.637 112.82C216.45 113.133 216.357 113.48 216.357 113.863V118H215.377ZM222.996 118.182C222.352 118.182 221.764 118.016 221.232 117.685C220.705 117.354 220.283 116.91 219.965 116.355C219.653 115.795 219.496 115.177 219.496 114.5C219.496 113.987 219.587 113.508 219.769 113.065C219.951 112.617 220.201 112.225 220.518 111.889C220.84 111.548 221.214 111.282 221.638 111.091C222.063 110.9 222.516 110.804 222.996 110.804C223.514 110.804 223.99 110.907 224.424 111.112C224.863 111.317 225.239 111.604 225.551 111.973C225.869 112.342 226.107 112.773 226.265 113.268C226.429 113.763 226.496 114.297 226.468 114.871H220.532C220.588 115.314 220.728 115.711 220.952 116.061C221.181 116.411 221.47 116.689 221.82 116.894C222.175 117.095 222.567 117.197 222.996 117.202C223.463 117.202 223.883 117.081 224.256 116.838C224.634 116.595 224.938 116.262 225.166 115.837L226.16 116.068C225.88 116.689 225.458 117.197 224.893 117.594C224.329 117.986 223.696 118.182 222.996 118.182ZM220.504 114.08H225.481C225.449 113.646 225.316 113.249 225.082 112.89C224.854 112.526 224.557 112.237 224.193 112.022C223.829 111.803 223.43 111.693 222.996 111.693C222.562 111.693 222.166 111.8 221.806 112.015C221.447 112.225 221.153 112.512 220.924 112.876C220.696 113.235 220.556 113.637 220.504 114.08Z" fill="#535662"/>
<path d="M164.208 141.208C163.552 141.208 162.952 141.059 162.408 140.76C161.869 140.461 161.44 140.061 161.12 139.56C160.8 139.059 160.64 138.501 160.64 137.888C160.64 137.291 160.805 136.747 161.136 136.256C161.467 135.76 161.896 135.376 162.424 135.104C161.987 134.853 161.627 134.512 161.344 134.08C161.061 133.643 160.92 133.163 160.92 132.64C160.92 132.08 161.067 131.571 161.36 131.112C161.659 130.648 162.056 130.28 162.552 130.008C163.053 129.731 163.605 129.592 164.208 129.592C164.811 129.592 165.36 129.731 165.856 130.008C166.357 130.28 166.755 130.648 167.048 131.112C167.347 131.571 167.496 132.08 167.496 132.64C167.496 133.163 167.355 133.643 167.072 134.08C166.795 134.512 166.435 134.853 165.992 135.104C166.531 135.376 166.963 135.76 167.288 136.256C167.619 136.747 167.784 137.291 167.784 137.888C167.784 138.496 167.621 139.053 167.296 139.56C166.976 140.061 166.547 140.461 166.008 140.76C165.469 141.059 164.869 141.208 164.208 141.208ZM164.208 140.088C164.651 140.088 165.051 139.989 165.408 139.792C165.765 139.595 166.051 139.331 166.264 139C166.477 138.664 166.584 138.293 166.584 137.888C166.584 137.483 166.477 137.115 166.264 136.784C166.051 136.453 165.765 136.189 165.408 135.992C165.051 135.795 164.651 135.696 164.208 135.696C163.776 135.696 163.379 135.795 163.016 135.992C162.659 136.189 162.371 136.453 162.152 136.784C161.939 137.115 161.832 137.483 161.832 137.888C161.832 138.293 161.939 138.664 162.152 139C162.371 139.331 162.659 139.595 163.016 139.792C163.379 139.989 163.776 140.088 164.208 140.088ZM164.208 134.576C164.597 134.576 164.949 134.491 165.264 134.32C165.579 134.144 165.829 133.909 166.016 133.616C166.208 133.323 166.304 132.997 166.304 132.64C166.304 132.283 166.208 131.96 166.016 131.672C165.829 131.379 165.579 131.147 165.264 130.976C164.949 130.8 164.597 130.712 164.208 130.712C163.824 130.712 163.472 130.8 163.152 130.976C162.837 131.147 162.584 131.379 162.392 131.672C162.205 131.96 162.112 132.283 162.112 132.64C162.112 132.997 162.205 133.323 162.392 133.616C162.584 133.909 162.837 134.144 163.152 134.32C163.472 134.491 163.824 134.576 164.208 134.576ZM169.55 141L175.358 130.92H168.742V129.8H176.654V130.92L170.83 141H169.55ZM185.812 129.8L182.573 141.896H181.453L184.693 129.8H185.812ZM192.137 141V130.92H190.937L191.257 129.8H193.257V141H192.137ZM199.307 141.208C198.635 141.208 198.035 141.059 197.507 140.76C196.979 140.456 196.529 140.037 196.155 139.504C195.782 138.971 195.497 138.355 195.299 137.656C195.107 136.952 195.011 136.2 195.011 135.4C195.011 134.6 195.107 133.848 195.299 133.144C195.497 132.44 195.782 131.824 196.155 131.296C196.529 130.763 196.979 130.347 197.507 130.048C198.035 129.744 198.635 129.592 199.307 129.592C199.974 129.592 200.571 129.744 201.099 130.048C201.627 130.347 202.075 130.763 202.443 131.296C202.811 131.824 203.091 132.44 203.283 133.144C203.481 133.848 203.579 134.6 203.579 135.4C203.579 136.2 203.481 136.952 203.283 137.656C203.091 138.355 202.811 138.971 202.443 139.504C202.075 140.037 201.627 140.456 201.099 140.76C200.571 141.059 199.974 141.208 199.307 141.208ZM199.307 140.088C200.011 140.088 200.601 139.872 201.075 139.44C201.555 139.008 201.915 138.437 202.155 137.728C202.395 137.013 202.515 136.237 202.515 135.4C202.515 134.515 202.39 133.72 202.139 133.016C201.894 132.307 201.531 131.747 201.051 131.336C200.577 130.92 199.995 130.712 199.307 130.712C198.763 130.712 198.289 130.837 197.883 131.088C197.478 131.339 197.142 131.683 196.875 132.12C196.609 132.557 196.409 133.059 196.275 133.624C196.142 134.184 196.075 134.776 196.075 135.4C196.075 136.243 196.198 137.021 196.443 137.736C196.689 138.445 197.051 139.016 197.531 139.448C198.011 139.875 198.603 140.088 199.307 140.088ZM208.682 141.208C208.01 141.208 207.41 141.059 206.882 140.76C206.354 140.456 205.904 140.037 205.53 139.504C205.157 138.971 204.872 138.355 204.674 137.656C204.482 136.952 204.386 136.2 204.386 135.4C204.386 134.6 204.482 133.848 204.674 133.144C204.872 132.44 205.157 131.824 205.53 131.296C205.904 130.763 206.354 130.347 206.882 130.048C207.41 129.744 208.01 129.592 208.682 129.592C209.349 129.592 209.946 129.744 210.474 130.048C211.002 130.347 211.45 130.763 211.818 131.296C212.186 131.824 212.466 132.44 212.658 133.144C212.856 133.848 212.954 134.6 212.954 135.4C212.954 136.2 212.856 136.952 212.658 137.656C212.466 138.355 212.186 138.971 211.818 139.504C211.45 140.037 211.002 140.456 210.474 140.76C209.946 141.059 209.349 141.208 208.682 141.208ZM208.682 140.088C209.386 140.088 209.976 139.872 210.45 139.44C210.93 139.008 211.29 138.437 211.53 137.728C211.77 137.013 211.89 136.237 211.89 135.4C211.89 134.515 211.765 133.72 211.514 133.016C211.269 132.307 210.906 131.747 210.426 131.336C209.952 130.92 209.37 130.712 208.682 130.712C208.138 130.712 207.664 130.837 207.258 131.088C206.853 131.339 206.517 131.683 206.25 132.12C205.984 132.557 205.784 133.059 205.65 133.624C205.517 134.184 205.45 134.776 205.45 135.4C205.45 136.243 205.573 137.021 205.818 137.736C206.064 138.445 206.426 139.016 206.906 139.448C207.386 139.875 207.978 140.088 208.682 140.088Z" fill="#0C1021"/>
<circle cx="261" cy="125" r="5" fill="#4268FF"/>
<path d="M272.84 118V108.2H276.151C276.627 108.2 277.059 108.298 277.446 108.494C277.838 108.685 278.148 108.968 278.377 109.341C278.61 109.71 278.727 110.158 278.727 110.685C278.727 110.984 278.673 111.268 278.566 111.539C278.459 111.81 278.319 112.041 278.146 112.232C277.973 112.419 277.787 112.54 277.586 112.596C277.875 112.671 278.125 112.801 278.335 112.988C278.545 113.17 278.718 113.387 278.853 113.639C278.988 113.886 279.086 114.148 279.147 114.423C279.212 114.698 279.245 114.969 279.245 115.235C279.245 115.786 279.124 116.269 278.881 116.684C278.643 117.099 278.323 117.424 277.922 117.657C277.521 117.886 277.075 118 276.585 118H272.84ZM273.82 117.125H276.508C276.849 117.125 277.157 117.036 277.432 116.859C277.712 116.682 277.934 116.439 278.097 116.131C278.265 115.823 278.349 115.475 278.349 115.088C278.349 114.743 278.265 114.418 278.097 114.115C277.934 113.807 277.712 113.56 277.432 113.373C277.157 113.182 276.849 113.086 276.508 113.086H273.82V117.125ZM273.82 112.225H276.067C276.529 112.225 276.923 112.092 277.25 111.826C277.581 111.555 277.747 111.173 277.747 110.678C277.747 110.137 277.581 109.735 277.25 109.474C276.923 109.208 276.529 109.075 276.067 109.075H273.82V112.225ZM280.244 115.319V111H281.224V115.123C281.224 115.506 281.317 115.853 281.504 116.166C281.69 116.479 281.94 116.728 282.253 116.915C282.57 117.102 282.918 117.195 283.296 117.195C283.678 117.195 284.024 117.102 284.332 116.915C284.644 116.728 284.894 116.479 285.081 116.166C285.267 115.853 285.361 115.506 285.361 115.123V111H286.341L286.348 118H285.368L285.361 117.02C285.113 117.375 284.791 117.657 284.395 117.867C284.003 118.077 283.573 118.182 283.107 118.182C282.579 118.182 282.099 118.054 281.665 117.797C281.231 117.54 280.885 117.195 280.629 116.761C280.372 116.327 280.244 115.846 280.244 115.319ZM292.442 111H293.478L289.649 121.5H288.606L289.88 118L287.367 111H288.438L290.37 116.649L292.442 111ZM297.535 118.182C296.891 118.182 296.303 118.016 295.771 117.685C295.244 117.354 294.822 116.91 294.504 116.355C294.192 115.795 294.035 115.177 294.035 114.5C294.035 113.987 294.126 113.508 294.308 113.065C294.49 112.617 294.74 112.225 295.057 111.889C295.379 111.548 295.753 111.282 296.177 111.091C296.602 110.9 297.055 110.804 297.535 110.804C298.053 110.804 298.529 110.907 298.963 111.112C299.402 111.317 299.778 111.604 300.09 111.973C300.408 112.342 300.646 112.773 300.804 113.268C300.968 113.763 301.035 114.297 301.007 114.871H295.071C295.127 115.314 295.267 115.711 295.491 116.061C295.72 116.411 296.009 116.689 296.359 116.894C296.714 117.095 297.106 117.197 297.535 117.202C298.002 117.202 298.422 117.081 298.795 116.838C299.173 116.595 299.477 116.262 299.705 115.837L300.699 116.068C300.419 116.689 299.997 117.197 299.432 117.594C298.868 117.986 298.235 118.182 297.535 118.182ZM295.043 114.08H300.02C299.988 113.646 299.855 113.249 299.621 112.89C299.393 112.526 299.096 112.237 298.732 112.022C298.368 111.803 297.969 111.693 297.535 111.693C297.101 111.693 296.705 111.8 296.345 112.015C295.986 112.225 295.692 112.512 295.463 112.876C295.235 113.235 295.095 113.637 295.043 114.08ZM302.207 118V111H303.187V111.966C303.435 111.611 303.757 111.329 304.153 111.119C304.55 110.909 304.982 110.804 305.448 110.804C305.719 110.804 305.98 110.839 306.232 110.909L305.833 111.882C305.637 111.821 305.446 111.791 305.259 111.791C304.881 111.791 304.534 111.884 304.216 112.071C303.904 112.258 303.654 112.507 303.467 112.82C303.281 113.133 303.187 113.48 303.187 113.863V118H302.207ZM310.574 111H311.554V118H310.574V111ZM311.071 109.775C310.913 109.775 310.777 109.724 310.665 109.621C310.558 109.514 310.504 109.381 310.504 109.222C310.504 109.063 310.558 108.933 310.665 108.83C310.777 108.723 310.913 108.669 311.071 108.669C311.225 108.669 311.356 108.723 311.463 108.83C311.575 108.933 311.631 109.063 311.631 109.222C311.631 109.381 311.578 109.514 311.47 109.621C311.363 109.724 311.23 109.775 311.071 109.775ZM319.317 113.667V118H318.337V113.863C318.337 113.48 318.244 113.133 318.057 112.82C317.87 112.507 317.621 112.258 317.308 112.071C316.995 111.884 316.648 111.791 316.265 111.791C315.887 111.791 315.539 111.884 315.222 112.071C314.909 112.258 314.66 112.507 314.473 112.82C314.286 113.133 314.193 113.48 314.193 113.863V118H313.213V111H314.193V111.966C314.44 111.611 314.762 111.329 315.159 111.119C315.556 110.909 315.987 110.804 316.454 110.804C316.981 110.804 317.462 110.932 317.896 111.189C318.33 111.446 318.675 111.791 318.932 112.225C319.189 112.659 319.317 113.14 319.317 113.667ZM324.296 111.98H322.623L322.616 118H321.636L321.643 111.98H320.376V111H321.643L321.636 108.802H322.616L322.623 111H324.296V111.98ZM328.434 118.182C327.79 118.182 327.202 118.016 326.67 117.685C326.142 117.354 325.72 116.91 325.403 116.355C325.09 115.795 324.934 115.177 324.934 114.5C324.934 113.987 325.025 113.508 325.207 113.065C325.389 112.617 325.638 112.225 325.956 111.889C326.278 111.548 326.651 111.282 327.076 111.091C327.5 110.9 327.953 110.804 328.434 110.804C328.952 110.804 329.428 110.907 329.862 111.112C330.3 111.317 330.676 111.604 330.989 111.973C331.306 112.342 331.544 112.773 331.703 113.268C331.866 113.763 331.934 114.297 331.906 114.871H325.97C326.026 115.314 326.166 115.711 326.39 116.061C326.618 116.411 326.908 116.689 327.258 116.894C327.612 117.095 328.004 117.197 328.434 117.202C328.9 117.202 329.32 117.081 329.694 116.838C330.072 116.595 330.375 116.262 330.604 115.837L331.598 116.068C331.318 116.689 330.895 117.197 330.331 117.594C329.766 117.986 329.134 118.182 328.434 118.182ZM325.942 114.08H330.919C330.886 113.646 330.753 113.249 330.52 112.89C330.291 112.526 329.995 112.237 329.631 112.022C329.267 111.803 328.868 111.693 328.434 111.693C328 111.693 327.603 111.8 327.244 112.015C326.884 112.225 326.59 112.512 326.362 112.876C326.133 113.235 325.993 113.637 325.942 114.08ZM339.21 113.667V118H338.23V113.863C338.23 113.48 338.136 113.133 337.95 112.82C337.763 112.507 337.513 112.258 337.201 112.071C336.888 111.884 336.54 111.791 336.158 111.791C335.78 111.791 335.432 111.884 335.115 112.071C334.802 112.258 334.552 112.507 334.366 112.82C334.179 113.133 334.086 113.48 334.086 113.863V118H333.106V111H334.086V111.966C334.333 111.611 334.655 111.329 335.052 111.119C335.448 110.909 335.88 110.804 336.347 110.804C336.874 110.804 337.355 110.932 337.789 111.189C338.223 111.446 338.568 111.791 338.825 112.225C339.081 112.659 339.21 113.14 339.21 113.667ZM344.188 111.98H342.515L342.508 118H341.528L341.535 111.98H340.268V111H341.535L341.528 108.802H342.508L342.515 111H344.188V111.98Z" fill="#535662"/>
<path d="M279.96 129.8H281.08V141H279.96V135.56H274.08V141H272.96V129.8H274.08V134.44H279.96V129.8ZM283.007 133H284.127V141H283.007V133ZM283.575 131.6C283.394 131.6 283.239 131.541 283.111 131.424C282.988 131.301 282.927 131.149 282.927 130.968C282.927 130.787 282.988 130.637 283.111 130.52C283.239 130.397 283.394 130.336 283.575 130.336C283.751 130.336 283.9 130.397 284.023 130.52C284.151 130.637 284.215 130.787 284.215 130.968C284.215 131.149 284.154 131.301 284.031 131.424C283.908 131.541 283.756 131.6 283.575 131.6ZM292.336 133H293.456V141.296C293.456 141.808 293.344 142.288 293.12 142.736C292.901 143.184 292.602 143.576 292.224 143.912C291.85 144.253 291.424 144.52 290.944 144.712C290.464 144.904 289.965 145 289.448 145C288.893 145 288.357 144.872 287.84 144.616C287.322 144.365 286.872 144.029 286.488 143.608C286.109 143.187 285.84 142.72 285.68 142.208L286.712 141.736C286.813 142.136 287.002 142.496 287.28 142.816C287.562 143.141 287.893 143.397 288.272 143.584C288.656 143.776 289.048 143.872 289.448 143.872C289.816 143.872 290.17 143.803 290.512 143.664C290.858 143.531 291.168 143.347 291.44 143.112C291.717 142.877 291.936 142.603 292.096 142.288C292.256 141.979 292.336 141.648 292.336 141.296V139.528C292.058 140.029 291.682 140.435 291.208 140.744C290.738 141.053 290.192 141.208 289.568 141.208C289.008 141.208 288.48 141.099 287.984 140.88C287.493 140.661 287.061 140.36 286.688 139.976C286.314 139.587 286.021 139.139 285.808 138.632C285.6 138.125 285.496 137.581 285.496 137C285.496 136.419 285.6 135.875 285.808 135.368C286.021 134.856 286.314 134.408 286.688 134.024C287.061 133.635 287.493 133.331 287.984 133.112C288.48 132.893 289.008 132.784 289.568 132.784C290.192 132.784 290.738 132.939 291.208 133.248C291.682 133.552 292.058 133.957 292.336 134.464V133ZM289.576 140.12C290.13 140.12 290.608 139.976 291.008 139.688C291.413 139.4 291.725 139.019 291.944 138.544C292.162 138.069 292.272 137.555 292.272 137C292.272 136.429 292.16 135.909 291.936 135.44C291.717 134.965 291.405 134.587 291 134.304C290.594 134.016 290.12 133.872 289.576 133.872C289.032 133.872 288.536 134.013 288.088 134.296C287.645 134.573 287.293 134.949 287.032 135.424C286.77 135.899 286.64 136.424 286.64 137C286.64 137.576 286.773 138.101 287.04 138.576C287.306 139.045 287.661 139.421 288.104 139.704C288.552 139.981 289.042 140.12 289.576 140.12ZM302.358 136.048V141H301.238V136.272C301.238 135.835 301.131 135.437 300.918 135.08C300.705 134.723 300.419 134.437 300.062 134.224C299.705 134.011 299.307 133.904 298.87 133.904C298.438 133.904 298.041 134.011 297.678 134.224C297.321 134.437 297.035 134.723 296.822 135.08C296.609 135.437 296.502 135.835 296.502 136.272V141H295.382V129H296.502V134.104C296.785 133.699 297.153 133.376 297.606 133.136C298.059 132.896 298.553 132.776 299.086 132.776C299.689 132.776 300.238 132.923 300.734 133.216C301.23 133.509 301.625 133.904 301.918 134.4C302.211 134.896 302.358 135.445 302.358 136.048Z" fill="#28BC62"/>
<g filter="url(#filter1_d_2374_18902)">
<rect x="224" y="15" width="74" height="41" rx="20.5" fill="#0C1021" shape-rendering="crispEdges"/>
<rect x="224.5" y="15.5" width="73" height="40" rx="20" stroke="#0C1021" stroke-opacity="0.1" shape-rendering="crispEdges"/>
<path d="M241.692 44L250.404 28.88H240.48V27.2H252.348V28.88L243.612 44H241.692ZM253.78 44V42.512C254.436 41.904 255.156 41.24 255.94 40.52C256.724 39.792 257.5 39.044 258.268 38.276C259.044 37.5 259.752 36.736 260.392 35.984C261.032 35.224 261.544 34.508 261.928 33.836C262.32 33.156 262.516 32.556 262.516 32.036C262.516 31.404 262.36 30.828 262.048 30.308C261.744 29.78 261.332 29.36 260.812 29.048C260.3 28.728 259.728 28.568 259.096 28.568C258.464 28.568 257.884 28.728 257.356 29.048C256.836 29.36 256.42 29.78 256.108 30.308C255.796 30.828 255.64 31.404 255.64 32.036H253.96C253.96 31.076 254.192 30.208 254.656 29.432C255.128 28.656 255.752 28.04 256.528 27.584C257.304 27.12 258.16 26.888 259.096 26.888C260.032 26.888 260.884 27.12 261.652 27.584C262.428 28.048 263.044 28.668 263.5 29.444C263.964 30.22 264.196 31.084 264.196 32.036C264.196 32.604 264.044 33.228 263.74 33.908C263.444 34.58 263.04 35.28 262.528 36.008C262.016 36.728 261.44 37.456 260.8 38.192C260.16 38.928 259.492 39.648 258.796 40.352C258.1 41.048 257.424 41.704 256.768 42.32H264.448V44H253.78ZM267.758 44L277.454 27.2H279.398L269.702 44H267.758ZM269.726 33.764C269.198 33.764 268.718 33.636 268.286 33.38C267.854 33.124 267.506 32.78 267.242 32.348C266.986 31.908 266.858 31.424 266.858 30.896C266.858 30.352 266.986 29.864 267.242 29.432C267.506 29 267.854 28.656 268.286 28.4C268.726 28.144 269.206 28.016 269.726 28.016C270.254 28.016 270.734 28.148 271.166 28.412C271.598 28.668 271.942 29.012 272.198 29.444C272.462 29.876 272.594 30.36 272.594 30.896C272.594 31.432 272.462 31.916 272.198 32.348C271.942 32.78 271.594 33.124 271.154 33.38C270.722 33.636 270.246 33.764 269.726 33.764ZM269.726 32.48C270.174 32.48 270.55 32.328 270.854 32.024C271.158 31.712 271.31 31.336 271.31 30.896C271.31 30.448 271.158 30.072 270.854 29.768C270.55 29.456 270.174 29.3 269.726 29.3C269.286 29.3 268.91 29.456 268.598 29.768C268.294 30.072 268.142 30.448 268.142 30.896C268.142 31.336 268.294 31.712 268.598 32.024C268.91 32.328 269.286 32.48 269.726 32.48ZM277.454 43.196C276.926 43.196 276.442 43.064 276.002 42.8C275.57 42.528 275.222 42.176 274.958 41.744C274.702 41.304 274.574 40.828 274.574 40.316C274.574 39.78 274.706 39.296 274.97 38.864C275.234 38.424 275.582 38.076 276.014 37.82C276.454 37.564 276.934 37.436 277.454 37.436C277.99 37.436 278.474 37.568 278.906 37.832C279.338 38.096 279.682 38.448 279.938 38.888C280.194 39.32 280.322 39.796 280.322 40.316C280.322 40.844 280.194 41.328 279.938 41.768C279.682 42.2 279.334 42.548 278.894 42.812C278.462 43.068 277.982 43.196 277.454 43.196ZM277.454 41.912C277.886 41.912 278.258 41.756 278.57 41.444C278.882 41.132 279.038 40.756 279.038 40.316C279.038 39.876 278.882 39.5 278.57 39.188C278.258 38.876 277.886 38.72 277.454 38.72C277.014 38.72 276.634 38.876 276.314 39.188C276.002 39.5 275.846 39.876 275.846 40.316C275.846 40.756 276.002 41.132 276.314 41.444C276.634 41.756 277.014 41.912 277.454 41.912Z" fill="white"/>
</g>
<g filter="url(#filter2_d_2374_18902)">
<circle cx="269" cy="68" r="8" fill="#4268FF"/>
<circle cx="269" cy="68" r="7" stroke="white" stroke-width="2"/>
</g>
<path d="M268.009 82.5537C267.832 80.4233 270.187 79.384 271.712 80.4014H271.713L272.009 80.5996L272.859 81.1748C277.098 84.0749 281.088 87.3249 284.785 90.8916V90.8926C285.616 91.6946 285.677 92.786 285.249 93.6123C284.863 94.3573 284.058 94.9259 283.087 94.9004L282.891 94.8867L277.625 94.3232C277.502 94.3104 277.427 94.3794 277.408 94.4209V94.4219L275.279 99.1182C274.391 101.079 271.454 100.93 270.86 98.7764C269.43 93.5835 268.485 88.2689 268.038 82.9014L268.009 82.5537Z" fill="white" stroke="#B1C0FF" stroke-width="2"/>
<defs>
<filter id="filter0_i_2374_18902" x="32" y="68" width="238" height="29" filterUnits="userSpaceOnUse" color-interpolation-filters="sRGB">
<feFlood flood-opacity="0" result="BackgroundImageFix"/>
<feBlend mode="normal" in="SourceGraphic" in2="BackgroundImageFix" result="shape"/>
<feColorMatrix in="SourceAlpha" type="matrix" values="0 0 0 0 0 0 0 0 0 0 0 0 0 0 0 0 0 0 127 0" result="hardAlpha"/>
<feOffset dy="4"/>
<feGaussianBlur stdDeviation="2"/>
<feComposite in2="hardAlpha" operator="arithmetic" k2="-1" k3="1"/>
<feColorMatrix type="matrix" values="0 0 0 0 0 0 0 0 0 0 0 0 0 0 0 0 0 0 0.25 0"/>
<feBlend mode="normal" in2="shape" result="effect1_innerShadow_2374_18902"/>
</filter>
<filter id="filter1_d_2374_18902" x="220" y="15" width="82" height="49" filterUnits="userSpaceOnUse" color-interpolation-filters="sRGB">
<feFlood flood-opacity="0" result="BackgroundImageFix"/>
<feColorMatrix in="SourceAlpha" type="matrix" values="0 0 0 0 0 0 0 0 0 0 0 0 0 0 0 0 0 0 127 0" result="hardAlpha"/>
<feOffset dy="4"/>
<feGaussianBlur stdDeviation="2"/>
<feComposite in2="hardAlpha" operator="out"/>
<feColorMatrix type="matrix" values="0 0 0 0 0.259615 0 0 0 0 0.407692 0 0 0 0 1 0 0 0 0.15 0"/>
<feBlend mode="normal" in2="BackgroundImageFix" result="effect1_dropShadow_2374_18902"/>
<feBlend mode="normal" in="SourceGraphic" in2="effect1_dropShadow_2374_18902" result="shape"/>
</filter>
<filter id="filter2_d_2374_18902" x="257" y="60" width="24" height="24" filterUnits="userSpaceOnUse" color-interpolation-filters="sRGB">
<feFlood flood-opacity="0" result="BackgroundImageFix"/>
<feColorMatrix in="SourceAlpha" type="matrix" values="0 0 0 0 0 0 0 0 0 0 0 0 0 0 0 0 0 0 127 0" result="hardAlpha"/>
<feOffset dy="4"/>
<feGaussianBlur stdDeviation="2"/>
<feComposite in2="hardAlpha" operator="out"/>
<feColorMatrix type="matrix" values="0 0 0 0 0.259615 0 0 0 0 0.407692 0 0 0 0 1 0 0 0 0.25 0"/>
<feBlend mode="normal" in2="BackgroundImageFix" result="effect1_dropShadow_2374_18902"/>
<feBlend mode="normal" in="SourceGraphic" in2="effect1_dropShadow_2374_18902" result="shape"/>
</filter>
<clipPath id="clip0_2374_18902">
<rect x="32" y="68" width="366" height="25" rx="12.5" fill="white"/>
</clipPath>
</defs>
</svg>
