<svg width="427" height="349" viewBox="0 0 427 349" fill="none" xmlns="http://www.w3.org/2000/svg">
<rect width="427" height="349" rx="22.0629" fill="white"/>
<rect x="0.459644" y="0.459644" width="426.081" height="348.081" rx="21.6033" stroke="#0C1021" stroke-opacity="0.05" stroke-width="0.919289"/>
<path d="M25.44 47V30.2H31.224C32.128 30.2 32.944 30.424 33.672 30.872C34.408 31.32 34.992 31.924 35.424 32.684C35.864 33.444 36.084 34.284 36.084 35.204C36.084 36.14 35.86 36.988 35.412 37.748C34.972 38.5 34.384 39.1 33.648 39.548C32.912 39.996 32.104 40.22 31.224 40.22H27.936V47H25.44ZM27.936 37.724H30.972C31.452 37.724 31.888 37.604 32.28 37.364C32.68 37.124 32.996 36.804 33.228 36.404C33.468 36.004 33.588 35.552 33.588 35.048C33.588 34.544 33.468 34.092 33.228 33.692C32.996 33.284 32.68 32.964 32.28 32.732C31.888 32.492 31.452 32.372 30.972 32.372H27.936V37.724ZM42.7434 47.312C41.6394 47.312 40.6314 47.028 39.7194 46.46C38.8154 45.892 38.0914 45.132 37.5474 44.18C37.0114 43.22 36.7434 42.16 36.7434 41C36.7434 40.12 36.8994 39.3 37.2114 38.54C37.5234 37.772 37.9514 37.1 38.4954 36.524C39.0474 35.94 39.6874 35.484 40.4154 35.156C41.1434 34.828 41.9194 34.664 42.7434 34.664C43.6634 34.664 44.5074 34.856 45.2754 35.24C46.0434 35.616 46.6994 36.14 47.2434 36.812C47.7874 37.476 48.1874 38.244 48.4434 39.116C48.6994 39.98 48.7754 40.9 48.6714 41.876H39.4194C39.5234 42.428 39.7234 42.928 40.0194 43.376C40.3234 43.816 40.7074 44.164 41.1714 44.42C41.6434 44.676 42.1674 44.808 42.7434 44.816C43.3514 44.816 43.9034 44.664 44.3994 44.36C44.9034 44.056 45.3154 43.636 45.6354 43.1L48.1674 43.688C47.6874 44.752 46.9634 45.624 45.9954 46.304C45.0274 46.976 43.9434 47.312 42.7434 47.312ZM39.3354 39.968H46.1514C46.0714 39.392 45.8674 38.872 45.5394 38.408C45.2194 37.936 44.8154 37.564 44.3274 37.292C43.8474 37.012 43.3194 36.872 42.7434 36.872C42.1754 36.872 41.6474 37.008 41.1594 37.28C40.6794 37.552 40.2794 37.924 39.9594 38.396C39.6474 38.86 39.4394 39.384 39.3354 39.968ZM59.9713 35H62.4673V47H59.9593L59.8633 45.26C59.5113 45.876 59.0353 46.372 58.4353 46.748C57.8353 47.124 57.1273 47.312 56.3113 47.312C55.4313 47.312 54.6033 47.148 53.8273 46.82C53.0513 46.484 52.3673 46.02 51.7753 45.428C51.1913 44.836 50.7353 44.156 50.4073 43.388C50.0793 42.612 49.9153 41.78 49.9153 40.892C49.9153 40.036 50.0753 39.232 50.3953 38.48C50.7153 37.72 51.1593 37.056 51.7273 36.488C52.2953 35.92 52.9513 35.476 53.6953 35.156C54.4473 34.828 55.2513 34.664 56.1073 34.664C56.9793 34.664 57.7473 34.864 58.4113 35.264C59.0833 35.656 59.6393 36.16 60.0793 36.776L59.9713 35ZM56.2513 44.9C56.9553 44.9 57.5713 44.728 58.0993 44.384C58.6273 44.032 59.0353 43.56 59.3233 42.968C59.6193 42.376 59.7673 41.72 59.7673 41C59.7673 40.272 59.6193 39.612 59.3233 39.02C59.0273 38.428 58.6153 37.96 58.0873 37.616C57.5673 37.264 56.9553 37.088 56.2513 37.088C55.5553 37.088 54.9193 37.264 54.3433 37.616C53.7673 37.968 53.3113 38.44 52.9753 39.032C52.6393 39.624 52.4713 40.28 52.4713 41C52.4713 41.728 52.6433 42.388 52.9873 42.98C53.3393 43.564 53.7993 44.032 54.3673 44.384C54.9433 44.728 55.5713 44.9 56.2513 44.9ZM75.2156 47H72.3356L69.3836 41.912L67.4516 44.216V47H64.9556V29H67.4516V40.34L71.9156 35H75.1796L71.0876 39.884L75.2156 47ZM89.43 34.664C90.598 34.664 91.658 34.948 92.61 35.516C93.57 36.084 94.334 36.848 94.902 37.808C95.47 38.76 95.754 39.82 95.754 40.988C95.754 41.86 95.59 42.68 95.262 43.448C94.934 44.208 94.478 44.88 93.894 45.464C93.318 46.04 92.646 46.492 91.878 46.82C91.118 47.148 90.302 47.312 89.43 47.312C88.59 47.312 87.854 47.12 87.222 46.736C86.598 46.344 86.086 45.844 85.686 45.236V47H83.19V29H85.686V36.74C86.086 36.124 86.598 35.624 87.222 35.24C87.854 34.856 88.59 34.664 89.43 34.664ZM89.406 44.888C90.102 44.888 90.738 44.712 91.314 44.36C91.89 44.008 92.346 43.536 92.682 42.944C93.026 42.352 93.198 41.7 93.198 40.988C93.198 40.26 93.026 39.6 92.682 39.008C92.338 38.416 91.878 37.948 91.302 37.604C90.726 37.252 90.094 37.076 89.406 37.076C88.71 37.076 88.098 37.252 87.57 37.604C87.042 37.956 86.63 38.428 86.334 39.02C86.038 39.612 85.89 40.268 85.89 40.988C85.89 41.708 86.038 42.364 86.334 42.956C86.63 43.548 87.042 44.02 87.57 44.372C88.098 44.716 88.71 44.888 89.406 44.888ZM96.9834 42.5V35H99.4794V41.888C99.4794 42.424 99.6114 42.912 99.8754 43.352C100.139 43.792 100.491 44.144 100.931 44.408C101.371 44.664 101.855 44.792 102.383 44.792C102.919 44.792 103.403 44.664 103.835 44.408C104.275 44.144 104.623 43.792 104.879 43.352C105.143 42.912 105.275 42.424 105.275 41.888V35H107.771L107.783 47H105.287L105.275 45.704C104.867 46.2 104.359 46.592 103.751 46.88C103.143 47.168 102.491 47.312 101.795 47.312C100.907 47.312 100.099 47.096 99.3714 46.664C98.6434 46.232 98.0634 45.652 97.6314 44.924C97.1994 44.196 96.9834 43.388 96.9834 42.5ZM118.129 35H120.793L114.217 53H111.565L113.737 47L109.429 35H112.153L114.985 43.58L118.129 35ZM127.447 47.312C126.343 47.312 125.335 47.028 124.423 46.46C123.519 45.892 122.795 45.132 122.251 44.18C121.715 43.22 121.447 42.16 121.447 41C121.447 40.12 121.603 39.3 121.915 38.54C122.227 37.772 122.655 37.1 123.199 36.524C123.751 35.94 124.391 35.484 125.119 35.156C125.847 34.828 126.623 34.664 127.447 34.664C128.367 34.664 129.211 34.856 129.979 35.24C130.747 35.616 131.403 36.14 131.947 36.812C132.491 37.476 132.891 38.244 133.147 39.116C133.403 39.98 133.479 40.9 133.375 41.876H124.123C124.227 42.428 124.427 42.928 124.723 43.376C125.027 43.816 125.411 44.164 125.875 44.42C126.347 44.676 126.871 44.808 127.447 44.816C128.055 44.816 128.607 44.664 129.103 44.36C129.607 44.056 130.019 43.636 130.339 43.1L132.871 43.688C132.391 44.752 131.667 45.624 130.699 46.304C129.731 46.976 128.647 47.312 127.447 47.312ZM124.039 39.968H130.855C130.775 39.392 130.571 38.872 130.243 38.408C129.923 37.936 129.519 37.564 129.031 37.292C128.551 37.012 128.023 36.872 127.447 36.872C126.879 36.872 126.351 37.008 125.863 37.28C125.383 37.552 124.983 37.924 124.663 38.396C124.351 38.86 124.143 39.384 124.039 39.968ZM135.362 47V35H137.858V36.272C138.274 35.776 138.786 35.384 139.394 35.096C140.002 34.808 140.658 34.664 141.362 34.664C141.81 34.664 142.254 34.724 142.694 34.844L141.698 37.364C141.386 37.244 141.074 37.184 140.762 37.184C140.234 37.184 139.75 37.316 139.31 37.58C138.87 37.836 138.518 38.184 138.254 38.624C137.99 39.064 137.858 39.552 137.858 40.088V47H135.362ZM150.151 35H152.647V47H150.151V35ZM151.423 33.26C151.039 33.26 150.719 33.136 150.463 32.888C150.207 32.64 150.079 32.328 150.079 31.952C150.079 31.584 150.207 31.276 150.463 31.028C150.719 30.772 151.035 30.644 151.411 30.644C151.779 30.644 152.091 30.772 152.347 31.028C152.603 31.276 152.731 31.584 152.731 31.952C152.731 32.328 152.603 32.64 152.347 32.888C152.099 33.136 151.791 33.26 151.423 33.26ZM166.248 39.476V47H163.752V40.088C163.752 39.552 163.62 39.064 163.356 38.624C163.1 38.184 162.752 37.836 162.312 37.58C161.88 37.316 161.392 37.184 160.848 37.184C160.32 37.184 159.836 37.316 159.396 37.58C158.956 37.836 158.604 38.184 158.34 38.624C158.076 39.064 157.944 39.552 157.944 40.088V47H155.448V35H157.944V36.272C158.36 35.776 158.872 35.384 159.48 35.096C160.088 34.808 160.744 34.664 161.448 34.664C162.336 34.664 163.144 34.88 163.872 35.312C164.6 35.744 165.176 36.324 165.6 37.052C166.032 37.78 166.248 38.588 166.248 39.476ZM174.001 47.336C172.841 47.336 171.781 47.052 170.821 46.484C169.869 45.916 169.109 45.152 168.541 44.192C167.973 43.232 167.689 42.168 167.689 41C167.689 40.128 167.853 39.312 168.181 38.552C168.509 37.792 168.961 37.124 169.537 36.548C170.121 35.964 170.793 35.508 171.553 35.18C172.313 34.852 173.129 34.688 174.001 34.688C174.849 34.688 175.585 34.88 176.209 35.264C176.833 35.648 177.345 36.148 177.745 36.764V35H180.241V53H177.745V45.26C177.345 45.868 176.833 46.368 176.209 46.76C175.585 47.144 174.849 47.336 174.001 47.336ZM174.025 37.1C173.329 37.1 172.693 37.276 172.117 37.628C171.541 37.98 171.085 38.452 170.749 39.044C170.413 39.636 170.245 40.288 170.245 41C170.245 41.728 170.417 42.388 170.761 42.98C171.105 43.572 171.561 44.044 172.129 44.396C172.705 44.74 173.337 44.912 174.025 44.912C174.729 44.912 175.345 44.736 175.873 44.384C176.401 44.032 176.809 43.56 177.097 42.968C177.385 42.376 177.529 41.72 177.529 41C177.529 40.28 177.381 39.628 177.085 39.044C176.797 38.452 176.389 37.98 175.861 37.628C175.341 37.276 174.729 37.1 174.025 37.1ZM182.366 42.5V35H184.862V41.888C184.862 42.424 184.994 42.912 185.258 43.352C185.522 43.792 185.874 44.144 186.314 44.408C186.754 44.664 187.238 44.792 187.766 44.792C188.302 44.792 188.786 44.664 189.218 44.408C189.658 44.144 190.006 43.792 190.262 43.352C190.526 42.912 190.658 42.424 190.658 41.888V35H193.154L193.166 47H190.67L190.658 45.704C190.25 46.2 189.742 46.592 189.134 46.88C188.526 47.168 187.874 47.312 187.178 47.312C186.29 47.312 185.482 47.096 184.754 46.664C184.026 46.232 183.446 45.652 183.014 44.924C182.582 44.196 182.366 43.388 182.366 42.5ZM195.573 35H198.069V47H195.573V35ZM196.845 33.26C196.461 33.26 196.141 33.136 195.885 32.888C195.629 32.64 195.501 32.328 195.501 31.952C195.501 31.584 195.629 31.276 195.885 31.028C196.141 30.772 196.457 30.644 196.833 30.644C197.201 30.644 197.513 30.772 197.769 31.028C198.025 31.276 198.153 31.584 198.153 31.952C198.153 32.328 198.025 32.64 197.769 32.888C197.521 33.136 197.213 33.26 196.845 33.26ZM200.87 47V35H203.366V36.272C203.782 35.776 204.294 35.384 204.902 35.096C205.51 34.808 206.166 34.664 206.87 34.664C207.318 34.664 207.762 34.724 208.202 34.844L207.206 37.364C206.894 37.244 206.582 37.184 206.27 37.184C205.742 37.184 205.258 37.316 204.818 37.58C204.378 37.836 204.026 38.184 203.762 38.624C203.498 39.064 203.366 39.552 203.366 40.088V47H200.87ZM217.832 35H220.496L213.92 53H211.268L213.44 47L209.132 35H211.856L214.688 43.58L217.832 35ZM239.467 39.476V47H236.971V40.088C236.971 39.552 236.839 39.064 236.575 38.624C236.319 38.184 235.971 37.836 235.531 37.58C235.099 37.316 234.611 37.184 234.067 37.184C233.539 37.184 233.055 37.316 232.615 37.58C232.175 37.836 231.823 38.184 231.559 38.624C231.295 39.064 231.163 39.552 231.163 40.088V47H228.667V29H231.163V36.272C231.579 35.776 232.091 35.384 232.699 35.096C233.307 34.808 233.963 34.664 234.667 34.664C235.555 34.664 236.363 34.88 237.091 35.312C237.819 35.744 238.395 36.324 238.819 37.052C239.251 37.78 239.467 38.588 239.467 39.476ZM246.908 47.312C245.804 47.312 244.796 47.028 243.884 46.46C242.98 45.892 242.256 45.132 241.712 44.18C241.176 43.22 240.908 42.16 240.908 41C240.908 40.12 241.064 39.3 241.376 38.54C241.688 37.772 242.116 37.1 242.66 36.524C243.212 35.94 243.852 35.484 244.58 35.156C245.308 34.828 246.084 34.664 246.908 34.664C248.012 34.664 249.016 34.948 249.92 35.516C250.832 36.084 251.556 36.848 252.092 37.808C252.636 38.768 252.908 39.832 252.908 41C252.908 41.872 252.752 42.688 252.44 43.448C252.128 44.208 251.696 44.88 251.144 45.464C250.6 46.04 249.964 46.492 249.236 46.82C248.516 47.148 247.74 47.312 246.908 47.312ZM246.908 44.816C247.572 44.816 248.168 44.64 248.696 44.288C249.224 43.936 249.64 43.472 249.944 42.896C250.256 42.312 250.412 41.68 250.412 41C250.412 40.304 250.252 39.664 249.932 39.08C249.62 38.496 249.2 38.032 248.672 37.688C248.144 37.336 247.556 37.16 246.908 37.16C246.252 37.16 245.656 37.336 245.12 37.688C244.592 38.04 244.172 38.508 243.86 39.092C243.556 39.676 243.404 40.312 243.404 41C243.404 41.712 243.564 42.356 243.884 42.932C244.204 43.508 244.628 43.968 245.156 44.312C245.692 44.648 246.276 44.816 246.908 44.816ZM254.132 42.5V35H256.628V41.888C256.628 42.424 256.76 42.912 257.024 43.352C257.288 43.792 257.64 44.144 258.08 44.408C258.52 44.664 259.004 44.792 259.532 44.792C260.068 44.792 260.552 44.664 260.984 44.408C261.424 44.144 261.772 43.792 262.028 43.352C262.292 42.912 262.424 42.424 262.424 41.888V35H264.92L264.932 47H262.436L262.424 45.704C262.016 46.2 261.508 46.592 260.9 46.88C260.292 47.168 259.64 47.312 258.944 47.312C258.056 47.312 257.248 47.096 256.52 46.664C255.792 46.232 255.212 45.652 254.78 44.924C254.348 44.196 254.132 43.388 254.132 42.5ZM267.338 47V35H269.834V36.272C270.25 35.776 270.762 35.384 271.37 35.096C271.978 34.808 272.634 34.664 273.338 34.664C273.786 34.664 274.23 34.724 274.67 34.844L273.674 37.364C273.362 37.244 273.05 37.184 272.738 37.184C272.21 37.184 271.726 37.316 271.286 37.58C270.846 37.836 270.494 38.184 270.23 38.624C269.966 39.064 269.834 39.552 269.834 40.088V47H267.338ZM279.681 47.228C279.049 47.188 278.433 47.06 277.833 46.844C277.233 46.628 276.705 46.336 276.249 45.968C275.801 45.592 275.465 45.152 275.241 44.648L277.365 43.736C277.469 43.952 277.649 44.164 277.905 44.372C278.169 44.58 278.477 44.752 278.829 44.888C279.181 45.016 279.549 45.08 279.933 45.08C280.309 45.08 280.657 45.028 280.977 44.924C281.305 44.812 281.573 44.644 281.781 44.42C281.989 44.196 282.093 43.928 282.093 43.616C282.093 43.264 281.973 42.992 281.733 42.8C281.501 42.6 281.209 42.448 280.857 42.344C280.505 42.24 280.153 42.14 279.801 42.044C279.017 41.868 278.297 41.628 277.641 41.324C276.993 41.012 276.477 40.616 276.093 40.136C275.709 39.648 275.517 39.052 275.517 38.348C275.517 37.58 275.725 36.916 276.141 36.356C276.557 35.788 277.101 35.352 277.773 35.048C278.453 34.744 279.177 34.592 279.945 34.592C280.905 34.592 281.785 34.796 282.585 35.204C283.385 35.612 283.997 36.172 284.421 36.884L282.441 38.06C282.321 37.82 282.141 37.604 281.901 37.412C281.661 37.22 281.389 37.068 281.085 36.956C280.781 36.836 280.465 36.768 280.137 36.752C279.729 36.736 279.349 36.784 278.997 36.896C278.653 37 278.377 37.168 278.169 37.4C277.961 37.632 277.857 37.928 277.857 38.288C277.857 38.64 277.981 38.904 278.229 39.08C278.477 39.248 278.789 39.384 279.165 39.488C279.549 39.592 279.941 39.708 280.341 39.836C281.053 40.06 281.721 40.336 282.345 40.664C282.969 40.984 283.473 41.38 283.857 41.852C284.241 42.324 284.425 42.9 284.409 43.58C284.409 44.332 284.181 44.992 283.725 45.56C283.277 46.128 282.693 46.56 281.973 46.856C281.253 47.152 280.489 47.276 279.681 47.228Z" fill="#0C1021"/>
<path d="M29.376 74.182C28.7133 74.182 28.0903 74.0513 27.507 73.79C26.9237 73.524 26.4103 73.16 25.967 72.698C25.5283 72.2313 25.183 71.69 24.931 71.074C24.6837 70.458 24.56 69.8 24.56 69.1C24.56 68.4 24.6837 67.742 24.931 67.126C25.183 66.51 25.5283 65.971 25.967 65.509C26.4103 65.0423 26.9237 64.6783 27.507 64.417C28.0903 64.151 28.7133 64.018 29.376 64.018C30.1693 64.018 30.8997 64.2023 31.567 64.571C32.2343 64.9397 32.7873 65.4297 33.226 66.041L32.358 66.51C32.0127 66.048 31.574 65.6817 31.042 65.411C30.5147 65.1357 29.9593 64.998 29.376 64.998C28.8393 64.998 28.3377 65.1077 27.871 65.327C27.409 65.5417 27.003 65.838 26.653 66.216C26.303 66.594 26.03 67.0303 25.834 67.525C25.638 68.0197 25.54 68.5447 25.54 69.1C25.54 69.6647 25.638 70.1943 25.834 70.689C26.0347 71.1837 26.31 71.62 26.66 71.998C27.0147 72.376 27.423 72.6723 27.885 72.887C28.3517 73.097 28.8487 73.202 29.376 73.202C29.9827 73.202 30.545 73.0643 31.063 72.789C31.5857 72.509 32.0173 72.145 32.358 71.697L33.226 72.166C32.7873 72.7773 32.2343 73.2673 31.567 73.636C30.8997 74 30.1693 74.182 29.376 74.182ZM40.0276 67H41.0076V74H40.0276L39.9926 72.698C39.7639 73.1413 39.4443 73.5007 39.0336 73.776C38.6229 74.0467 38.1329 74.182 37.5636 74.182C37.0503 74.182 36.5696 74.0863 36.1216 73.895C35.6736 73.699 35.2793 73.4307 34.9386 73.09C34.5979 72.7493 34.3319 72.355 34.1406 71.907C33.9493 71.459 33.8536 70.9783 33.8536 70.465C33.8536 69.961 33.9469 69.4873 34.1336 69.044C34.3249 68.6007 34.5863 68.211 34.9176 67.875C35.2536 67.539 35.6409 67.2777 36.0796 67.091C36.5229 66.8997 36.9966 66.804 37.5006 66.804C38.0839 66.804 38.5926 66.944 39.0266 67.224C39.4606 67.4993 39.8059 67.861 40.0626 68.309L40.0276 67ZM37.5426 73.23C38.0419 73.23 38.4713 73.1087 38.8306 72.866C39.1899 72.6187 39.4653 72.2873 39.6566 71.872C39.8526 71.4567 39.9506 70.9993 39.9506 70.5C39.9506 69.9867 39.8526 69.5247 39.6566 69.114C39.4606 68.6987 39.1829 68.3697 38.8236 68.127C38.4643 67.8843 38.0373 67.763 37.5426 67.763C37.0479 67.763 36.5953 67.8867 36.1846 68.134C35.7786 68.3767 35.4543 68.7057 35.2116 69.121C34.9736 69.5363 34.8546 69.996 34.8546 70.5C34.8546 71.0087 34.9783 71.4707 35.2256 71.886C35.4729 72.2967 35.7996 72.6233 36.2056 72.866C36.6163 73.1087 37.0619 73.23 37.5426 73.23ZM42.5041 74V63.5H43.4841V74H42.5041ZM45.1701 74V63.5H46.1501V74H45.1701ZM49.9991 74.133C49.6164 74.1237 49.2431 74.0537 48.8791 73.923C48.5151 73.7923 48.1978 73.615 47.9271 73.391C47.6564 73.167 47.4628 72.9127 47.3461 72.628L48.1931 72.264C48.2678 72.446 48.4054 72.614 48.6061 72.768C48.8114 72.9173 49.0448 73.0387 49.3061 73.132C49.5674 73.2207 49.8264 73.265 50.0831 73.265C50.3678 73.265 50.6338 73.2183 50.8811 73.125C51.1284 73.0317 51.3291 72.8987 51.4831 72.726C51.6418 72.5487 51.7211 72.341 51.7211 72.103C51.7211 71.8463 51.6371 71.6457 51.4691 71.501C51.3011 71.3517 51.0888 71.235 50.8321 71.151C50.5754 71.0623 50.3118 70.9783 50.0411 70.899C49.5464 70.7637 49.1101 70.6143 48.7321 70.451C48.3541 70.2877 48.0578 70.08 47.8431 69.828C47.6331 69.5713 47.5281 69.2423 47.5281 68.841C47.5281 68.4163 47.6471 68.05 47.8851 67.742C48.1278 67.4293 48.4428 67.189 48.8301 67.021C49.2221 66.8483 49.6398 66.762 50.0831 66.762C50.6524 66.762 51.1704 66.8857 51.6371 67.133C52.1084 67.3803 52.4491 67.7093 52.6591 68.12L51.8681 68.589C51.7841 68.3977 51.6511 68.232 51.4691 68.092C51.2871 67.952 51.0794 67.8423 50.8461 67.763C50.6174 67.6837 50.3841 67.6417 50.1461 67.637C49.8474 67.6323 49.5698 67.6767 49.3131 67.77C49.0564 67.8587 48.8488 67.9917 48.6901 68.169C48.5361 68.3463 48.4591 68.5633 48.4591 68.82C48.4591 69.0767 48.5361 69.2727 48.6901 69.408C48.8441 69.5387 49.0518 69.646 49.3131 69.73C49.5791 69.8093 49.8778 69.9027 50.2091 70.01C50.6338 70.1453 51.0328 70.2993 51.4061 70.472C51.7794 70.6447 52.0804 70.8593 52.3091 71.116C52.5378 71.3727 52.6498 71.697 52.6451 72.089C52.6451 72.509 52.5191 72.8753 52.2671 73.188C52.0151 73.5007 51.6884 73.741 51.2871 73.909C50.8858 74.0723 50.4564 74.147 49.9991 74.133ZM63.319 69.667V74H62.339V69.863C62.339 69.4803 62.2457 69.1327 62.059 68.82C61.8723 68.5073 61.6227 68.2577 61.31 68.071C60.9973 67.8843 60.6497 67.791 60.267 67.791C59.889 67.791 59.5413 67.8843 59.224 68.071C58.9113 68.2577 58.6617 68.5073 58.475 68.82C58.2883 69.1327 58.195 69.4803 58.195 69.863V74H57.215V63.5H58.195V67.966C58.4423 67.6113 58.7643 67.329 59.161 67.119C59.5577 66.909 59.9893 66.804 60.456 66.804C60.9833 66.804 61.464 66.9323 61.898 67.189C62.332 67.4457 62.6773 67.791 62.934 68.225C63.1907 68.659 63.319 69.1397 63.319 69.667ZM70.3381 67H71.3181V74H70.3381L70.3031 72.698C70.0745 73.1413 69.7548 73.5007 69.3441 73.776C68.9335 74.0467 68.4435 74.182 67.8741 74.182C67.3608 74.182 66.8801 74.0863 66.4321 73.895C65.9841 73.699 65.5898 73.4307 65.2491 73.09C64.9085 72.7493 64.6425 72.355 64.4511 71.907C64.2598 71.459 64.1641 70.9783 64.1641 70.465C64.1641 69.961 64.2575 69.4873 64.4441 69.044C64.6355 68.6007 64.8968 68.211 65.2281 67.875C65.5641 67.539 65.9515 67.2777 66.3901 67.091C66.8335 66.8997 67.3071 66.804 67.8111 66.804C68.3945 66.804 68.9031 66.944 69.3371 67.224C69.7711 67.4993 70.1165 67.861 70.3731 68.309L70.3381 67ZM67.8531 73.23C68.3525 73.23 68.7818 73.1087 69.1411 72.866C69.5005 72.6187 69.7758 72.2873 69.9671 71.872C70.1631 71.4567 70.2611 70.9993 70.2611 70.5C70.2611 69.9867 70.1631 69.5247 69.9671 69.114C69.7711 68.6987 69.4935 68.3697 69.1341 68.127C68.7748 67.8843 68.3478 67.763 67.8531 67.763C67.3585 67.763 66.9058 67.8867 66.4951 68.134C66.0891 68.3767 65.7648 68.7057 65.5221 69.121C65.2841 69.5363 65.1651 69.996 65.1651 70.5C65.1651 71.0087 65.2888 71.4707 65.5361 71.886C65.7835 72.2967 66.1101 72.6233 66.5161 72.866C66.9268 73.1087 67.3725 73.23 67.8531 73.23ZM78.8229 69.667V74H77.8429V69.863C77.8429 69.4803 77.7496 69.1327 77.5629 68.82C77.3762 68.5073 77.1266 68.2577 76.8139 68.071C76.5012 67.8843 76.1536 67.791 75.7709 67.791C75.3929 67.791 75.0452 67.8843 74.7279 68.071C74.4152 68.2577 74.1656 68.5073 73.9789 68.82C73.7922 69.1327 73.6989 69.4803 73.6989 69.863V74H72.7189V67H73.6989V67.966C73.9462 67.6113 74.2682 67.329 74.6649 67.119C75.0616 66.909 75.4932 66.804 75.9599 66.804C76.4872 66.804 76.9679 66.9323 77.4019 67.189C77.8359 67.4457 78.1812 67.791 78.4379 68.225C78.6946 68.659 78.8229 69.1397 78.8229 69.667ZM85.849 63.5H86.829V74H85.849V72.691C85.6064 73.139 85.2727 73.5007 84.848 73.776C84.428 74.0467 83.9287 74.182 83.35 74.182C82.8414 74.182 82.3654 74.0863 81.922 73.895C81.4787 73.7037 81.0867 73.44 80.746 73.104C80.41 72.7633 80.1464 72.3713 79.955 71.928C79.7637 71.4847 79.668 71.0087 79.668 70.5C79.668 69.9913 79.7637 69.5153 79.955 69.072C80.1464 68.624 80.41 68.232 80.746 67.896C81.0867 67.5553 81.4787 67.2893 81.922 67.098C82.3654 66.9067 82.8414 66.811 83.35 66.811C83.9287 66.811 84.428 66.9487 84.848 67.224C85.2727 67.4947 85.6064 67.8517 85.849 68.295V63.5ZM83.357 73.23C83.8564 73.23 84.2857 73.1087 84.645 72.866C85.0044 72.6187 85.2797 72.2873 85.471 71.872C85.667 71.4567 85.765 70.9993 85.765 70.5C85.765 69.9867 85.667 69.5247 85.471 69.114C85.275 68.6987 84.9974 68.3697 84.638 68.127C84.2787 67.8843 83.8517 67.763 83.357 67.763C82.8624 67.763 82.412 67.8867 82.006 68.134C81.6 68.3767 81.2757 68.7057 81.033 69.121C80.7904 69.5363 80.669 69.996 80.669 70.5C80.669 71.0087 80.7927 71.4707 81.04 71.886C81.2874 72.2967 81.614 72.6233 82.02 72.866C82.4307 73.1087 82.8764 73.23 83.357 73.23ZM88.5099 74V63.5H89.4899V74H88.5099ZM94.2013 74.182C93.5573 74.182 92.9693 74.0163 92.4373 73.685C91.9099 73.3537 91.4876 72.9103 91.1703 72.355C90.8576 71.795 90.7013 71.1767 90.7013 70.5C90.7013 69.9867 90.7923 69.5083 90.9743 69.065C91.1563 68.617 91.4059 68.225 91.7233 67.889C92.0453 67.5483 92.4186 67.2823 92.8433 67.091C93.2679 66.8997 93.7206 66.804 94.2013 66.804C94.7193 66.804 95.1953 66.9067 95.6293 67.112C96.0679 67.3173 96.4436 67.6043 96.7563 67.973C97.0736 68.3417 97.3116 68.7733 97.4703 69.268C97.6336 69.7627 97.7013 70.297 97.6732 70.871H91.7373C91.7933 71.3143 91.9333 71.711 92.1573 72.061C92.3859 72.411 92.6753 72.6887 93.0253 72.894C93.3799 73.0947 93.7719 73.1973 94.2013 73.202C94.6679 73.202 95.0879 73.0807 95.4613 72.838C95.8393 72.5953 96.1426 72.2617 96.3713 71.837L97.3653 72.068C97.0853 72.6887 96.6629 73.1973 96.0983 73.594C95.5336 73.986 94.9013 74.182 94.2013 74.182ZM91.7093 70.08H96.6863C96.6536 69.646 96.5206 69.2493 96.2873 68.89C96.0586 68.526 95.7623 68.2367 95.3983 68.022C95.0343 67.8027 94.6353 67.693 94.2013 67.693C93.7673 67.693 93.3706 67.8003 93.0113 68.015C92.6519 68.225 92.3579 68.512 92.1292 68.876C91.9006 69.2353 91.7606 69.6367 91.7093 70.08ZM104.566 63.5H105.546V74H104.566V72.691C104.323 73.139 103.99 73.5007 103.565 73.776C103.145 74.0467 102.646 74.182 102.067 74.182C101.558 74.182 101.082 74.0863 100.639 73.895C100.196 73.7037 99.8035 73.44 99.4628 73.104C99.1268 72.7633 98.8632 72.3713 98.6718 71.928C98.4805 71.4847 98.3848 71.0087 98.3848 70.5C98.3848 69.9913 98.4805 69.5153 98.6718 69.072C98.8632 68.624 99.1268 68.232 99.4628 67.896C99.8035 67.5553 100.196 67.2893 100.639 67.098C101.082 66.9067 101.558 66.811 102.067 66.811C102.646 66.811 103.145 66.9487 103.565 67.224C103.99 67.4947 104.323 67.8517 104.566 68.295V63.5ZM102.074 73.23C102.573 73.23 103.003 73.1087 103.362 72.866C103.721 72.6187 103.997 72.2873 104.188 71.872C104.384 71.4567 104.482 70.9993 104.482 70.5C104.482 69.9867 104.384 69.5247 104.188 69.114C103.992 68.6987 103.714 68.3697 103.355 68.127C102.996 67.8843 102.569 67.763 102.074 67.763C101.579 67.763 101.129 67.8867 100.723 68.134C100.317 68.3767 99.9925 68.7057 99.7498 69.121C99.5072 69.5363 99.3858 69.996 99.3858 70.5C99.3858 71.0087 99.5095 71.4707 99.7568 71.886C100.004 72.2967 100.331 72.6233 100.737 72.866C101.148 73.1087 101.593 73.23 102.074 73.23ZM114.062 66.804C114.743 66.804 115.362 66.9697 115.917 67.301C116.477 67.6323 116.923 68.078 117.254 68.638C117.585 69.1933 117.751 69.8117 117.751 70.493C117.751 71.0017 117.655 71.48 117.464 71.928C117.273 72.3713 117.007 72.7633 116.666 73.104C116.33 73.44 115.938 73.7037 115.49 73.895C115.047 74.0863 114.571 74.182 114.062 74.182C113.483 74.182 112.984 74.0443 112.564 73.769C112.144 73.4937 111.813 73.1343 111.57 72.691V74H110.59V63.5H111.57V68.295C111.813 67.8517 112.144 67.4923 112.564 67.217C112.984 66.9417 113.483 66.804 114.062 66.804ZM114.055 73.223C114.554 73.223 115.007 73.1017 115.413 72.859C115.819 72.6117 116.143 72.2803 116.386 71.865C116.629 71.4497 116.75 70.9923 116.75 70.493C116.75 69.9797 116.626 69.5177 116.379 69.107C116.132 68.6917 115.803 68.3627 115.392 68.12C114.986 67.8773 114.54 67.756 114.055 67.756C113.56 67.756 113.131 67.8797 112.767 68.127C112.408 68.3743 112.13 68.7057 111.934 69.121C111.743 69.5363 111.647 69.9937 111.647 70.493C111.647 71.0017 111.745 71.4637 111.941 71.879C112.137 72.2897 112.415 72.6163 112.774 72.859C113.138 73.1017 113.565 73.223 114.055 73.223ZM123.383 67H124.419L120.59 77.5H119.547L120.821 74L118.308 67H119.379L121.311 72.649L123.383 67ZM132.467 64.2H133.685L137.255 74H136.212L135.449 71.9H130.71L129.947 74H128.904L132.467 64.2ZM131.067 70.92H135.085L133.076 65.404L131.067 70.92ZM138.773 74V64.2H139.753V74H138.773ZM145.002 69.31H149.482V70.29H145.002V69.31Z" fill="#535662"/>
<path d="M157.373 74.182C156.799 74.182 156.274 74.0513 155.798 73.79C155.327 73.5287 154.951 73.1787 154.671 72.74C154.391 72.3013 154.251 71.8137 154.251 71.277C154.251 70.7543 154.396 70.2783 154.685 69.849C154.975 69.415 155.35 69.079 155.812 68.841C155.43 68.6217 155.115 68.323 154.867 67.945C154.62 67.5623 154.496 67.1423 154.496 66.685C154.496 66.195 154.625 65.7493 154.881 65.348C155.143 64.942 155.49 64.62 155.924 64.382C156.363 64.1393 156.846 64.018 157.373 64.018C157.901 64.018 158.381 64.1393 158.815 64.382C159.254 64.62 159.602 64.942 159.858 65.348C160.12 65.7493 160.25 66.195 160.25 66.685C160.25 67.1423 160.127 67.5623 159.879 67.945C159.637 68.323 159.322 68.6217 158.934 68.841C159.406 69.079 159.784 69.415 160.068 69.849C160.358 70.2783 160.502 70.7543 160.502 71.277C160.502 71.809 160.36 72.2967 160.075 72.74C159.795 73.1787 159.42 73.5287 158.948 73.79C158.477 74.0513 157.952 74.182 157.373 74.182ZM157.373 73.202C157.761 73.202 158.111 73.1157 158.423 72.943C158.736 72.7703 158.986 72.5393 159.172 72.25C159.359 71.956 159.452 71.6317 159.452 71.277C159.452 70.9223 159.359 70.6003 159.172 70.311C158.986 70.0217 158.736 69.7907 158.423 69.618C158.111 69.4453 157.761 69.359 157.373 69.359C156.995 69.359 156.648 69.4453 156.33 69.618C156.018 69.7907 155.766 70.0217 155.574 70.311C155.388 70.6003 155.294 70.9223 155.294 71.277C155.294 71.6317 155.388 71.956 155.574 72.25C155.766 72.5393 156.018 72.7703 156.33 72.943C156.648 73.1157 156.995 73.202 157.373 73.202ZM157.373 68.379C157.714 68.379 158.022 68.3043 158.297 68.155C158.573 68.001 158.792 67.7957 158.955 67.539C159.123 67.2823 159.207 66.9977 159.207 66.685C159.207 66.3723 159.123 66.09 158.955 65.838C158.792 65.5813 158.573 65.3783 158.297 65.229C158.022 65.075 157.714 64.998 157.373 64.998C157.037 64.998 156.729 65.075 156.449 65.229C156.174 65.3783 155.952 65.5813 155.784 65.838C155.621 66.09 155.539 66.3723 155.539 66.685C155.539 66.9977 155.621 67.2823 155.784 67.539C155.952 67.7957 156.174 68.001 156.449 68.155C156.729 68.3043 157.037 68.379 157.373 68.379ZM162.671 74V65.18H161.621L161.901 64.2H163.651V74H162.671ZM165.851 74L171.507 64.2H172.641L166.985 74H165.851ZM166.999 68.029C166.691 68.029 166.411 67.9543 166.159 67.805C165.907 67.6557 165.704 67.455 165.55 67.203C165.4 66.9463 165.326 66.664 165.326 66.356C165.326 66.0387 165.4 65.754 165.55 65.502C165.704 65.25 165.907 65.0493 166.159 64.9C166.415 64.7507 166.695 64.676 166.999 64.676C167.307 64.676 167.587 64.753 167.839 64.907C168.091 65.0563 168.291 65.257 168.441 65.509C168.595 65.761 168.672 66.0433 168.672 66.356C168.672 66.6687 168.595 66.951 168.441 67.203C168.291 67.455 168.088 67.6557 167.832 67.805C167.58 67.9543 167.302 68.029 166.999 68.029ZM166.999 67.28C167.26 67.28 167.479 67.1913 167.657 67.014C167.834 66.832 167.923 66.6127 167.923 66.356C167.923 66.0947 167.834 65.8753 167.657 65.698C167.479 65.516 167.26 65.425 166.999 65.425C166.742 65.425 166.523 65.516 166.341 65.698C166.163 65.8753 166.075 66.0947 166.075 66.356C166.075 66.6127 166.163 66.832 166.341 67.014C166.523 67.1913 166.742 67.28 166.999 67.28ZM171.507 73.531C171.199 73.531 170.916 73.454 170.66 73.3C170.408 73.1413 170.205 72.936 170.051 72.684C169.901 72.4273 169.827 72.1497 169.827 71.851C169.827 71.5383 169.904 71.256 170.058 71.004C170.212 70.7473 170.415 70.5443 170.667 70.395C170.923 70.2457 171.203 70.171 171.507 70.171C171.819 70.171 172.102 70.248 172.354 70.402C172.606 70.556 172.806 70.7613 172.956 71.018C173.105 71.27 173.18 71.5477 173.18 71.851C173.18 72.159 173.105 72.4413 172.956 72.698C172.806 72.95 172.603 73.153 172.347 73.307C172.095 73.4563 171.815 73.531 171.507 73.531ZM171.507 72.782C171.759 72.782 171.976 72.691 172.158 72.509C172.34 72.327 172.431 72.1077 172.431 71.851C172.431 71.5943 172.34 71.375 172.158 71.193C171.976 71.011 171.759 70.92 171.507 70.92C171.25 70.92 171.028 71.011 170.842 71.193C170.66 71.375 170.569 71.5943 170.569 71.851C170.569 72.1077 170.66 72.327 170.842 72.509C171.028 72.691 171.25 72.782 171.507 72.782Z" fill="#4268FF"/>
<path d="M24.84 119L26.737 109.2H27.451L30.195 116.41L32.925 109.2H33.639L35.543 119H34.542L33.093 111.503L30.503 118.356H29.873L27.283 111.503L25.834 119H24.84ZM39.7462 119.182C39.1022 119.182 38.5142 119.016 37.9822 118.685C37.4548 118.354 37.0325 117.91 36.7152 117.355C36.4025 116.795 36.2462 116.177 36.2462 115.5C36.2462 114.987 36.3372 114.508 36.5192 114.065C36.7012 113.617 36.9508 113.225 37.2682 112.889C37.5902 112.548 37.9635 112.282 38.3882 112.091C38.8128 111.9 39.2655 111.804 39.7462 111.804C40.3902 111.804 40.9758 111.97 41.5032 112.301C42.0352 112.632 42.4575 113.078 42.7702 113.638C43.0875 114.198 43.2462 114.819 43.2462 115.5C43.2462 116.009 43.1552 116.485 42.9732 116.928C42.7912 117.371 42.5392 117.763 42.2172 118.104C41.8998 118.44 41.5288 118.704 41.1042 118.895C40.6842 119.086 40.2315 119.182 39.7462 119.182ZM39.7462 118.202C40.2222 118.202 40.6492 118.078 41.0272 117.831C41.4098 117.579 41.7108 117.248 41.9302 116.837C42.1542 116.426 42.2662 115.981 42.2662 115.5C42.2662 115.01 42.1542 114.56 41.9302 114.149C41.7062 113.734 41.4028 113.402 41.0202 113.155C40.6422 112.908 40.2175 112.784 39.7462 112.784C39.2702 112.784 38.8408 112.91 38.4582 113.162C38.0802 113.409 37.7792 113.738 37.5552 114.149C37.3358 114.56 37.2262 115.01 37.2262 115.5C37.2262 116.004 37.3405 116.461 37.5692 116.872C37.7978 117.278 38.1035 117.602 38.4862 117.845C38.8688 118.083 39.2888 118.202 39.7462 118.202ZM50.5358 114.667V119H49.5558V114.863C49.5558 114.48 49.4625 114.133 49.2758 113.82C49.0891 113.507 48.8395 113.258 48.5268 113.071C48.2141 112.884 47.8665 112.791 47.4838 112.791C47.1058 112.791 46.7581 112.884 46.4408 113.071C46.1281 113.258 45.8785 113.507 45.6918 113.82C45.5051 114.133 45.4118 114.48 45.4118 114.863V119H44.4318V112H45.4118V112.966C45.6591 112.611 45.9811 112.329 46.3778 112.119C46.7745 111.909 47.2061 111.804 47.6728 111.804C48.2001 111.804 48.6808 111.932 49.1148 112.189C49.5488 112.446 49.8941 112.791 50.1508 113.225C50.4075 113.659 50.5358 114.14 50.5358 114.667Z" fill="#535662"/>
<g clip-path="url(#clip0_2368_14489)">
<rect x="66" y="102" width="366" height="25" fill="#F1F1F1"/>
<g filter="url(#filter0_i_2368_14489)">
<rect x="66" y="101.5" width="102" height="25" fill="#4268FF"/>
</g>
</g>
<path d="M32.253 142.2V143.18H28.893V152H27.913V143.18H24.56V142.2H32.253ZM32.3803 149.319V145H33.3603V149.123C33.3603 149.506 33.4536 149.853 33.6403 150.166C33.827 150.479 34.0766 150.728 34.3893 150.915C34.7066 151.102 35.0543 151.195 35.4323 151.195C35.815 151.195 36.1603 151.102 36.4683 150.915C36.781 150.728 37.0306 150.479 37.2173 150.166C37.404 149.853 37.4973 149.506 37.4973 149.123V145H38.4773L38.4843 152H37.5043L37.4973 151.02C37.25 151.375 36.928 151.657 36.5313 151.867C36.1393 152.077 35.71 152.182 35.2433 152.182C34.716 152.182 34.2353 152.054 33.8013 151.797C33.3673 151.54 33.022 151.195 32.7653 150.761C32.5086 150.327 32.3803 149.846 32.3803 149.319ZM42.9044 152.182C42.2604 152.182 41.6724 152.016 41.1404 151.685C40.613 151.354 40.1907 150.91 39.8734 150.355C39.5607 149.795 39.4044 149.177 39.4044 148.5C39.4044 147.987 39.4954 147.508 39.6774 147.065C39.8594 146.617 40.109 146.225 40.4264 145.889C40.7484 145.548 41.1217 145.282 41.5464 145.091C41.971 144.9 42.4237 144.804 42.9044 144.804C43.4224 144.804 43.8984 144.907 44.3324 145.112C44.771 145.317 45.1467 145.604 45.4594 145.973C45.7767 146.342 46.0147 146.773 46.1734 147.268C46.3367 147.763 46.4044 148.297 46.3764 148.871H40.4404C40.4964 149.314 40.6364 149.711 40.8604 150.061C41.089 150.411 41.3784 150.689 41.7284 150.894C42.083 151.095 42.475 151.197 42.9044 151.202C43.371 151.202 43.791 151.081 44.1644 150.838C44.5424 150.595 44.8457 150.262 45.0744 149.837L46.0684 150.068C45.7884 150.689 45.366 151.197 44.8014 151.594C44.2367 151.986 43.6044 152.182 42.9044 152.182ZM40.4124 148.08H45.3894C45.3567 147.646 45.2237 147.249 44.9904 146.89C44.7617 146.526 44.4654 146.237 44.1014 146.022C43.7374 145.803 43.3384 145.693 42.9044 145.693C42.4704 145.693 42.0737 145.8 41.7144 146.015C41.355 146.225 41.061 146.512 40.8324 146.876C40.6037 147.235 40.4637 147.637 40.4124 148.08Z" fill="#535662"/>
<g clip-path="url(#clip1_2368_14489)">
<rect x="66" y="135" width="366" height="25" fill="#F1F1F1"/>
<g filter="url(#filter1_i_2368_14489)">
<rect x="66" y="134.5" width="183" height="25" fill="#4268FF"/>
</g>
</g>
<path d="M26.835 185L24.329 175.2H25.337L27.409 183.313L29.474 175.2H30.342L32.414 183.313L34.479 175.2H35.487L32.995 185H31.833L29.908 177.475L27.983 185H26.835ZM39.0489 185.182C38.4049 185.182 37.8169 185.016 37.2849 184.685C36.7576 184.354 36.3352 183.91 36.0179 183.355C35.7052 182.795 35.5489 182.177 35.5489 181.5C35.5489 180.987 35.6399 180.508 35.8219 180.065C36.0039 179.617 36.2536 179.225 36.5709 178.889C36.8929 178.548 37.2662 178.282 37.6909 178.091C38.1156 177.9 38.5682 177.804 39.0489 177.804C39.5669 177.804 40.0429 177.907 40.4769 178.112C40.9156 178.317 41.2912 178.604 41.6039 178.973C41.9212 179.342 42.1592 179.773 42.3179 180.268C42.4812 180.763 42.5489 181.297 42.5209 181.871H36.5849C36.6409 182.314 36.7809 182.711 37.0049 183.061C37.2336 183.411 37.5229 183.689 37.8729 183.894C38.2276 184.095 38.6196 184.197 39.0489 184.202C39.5156 184.202 39.9356 184.081 40.3089 183.838C40.6869 183.595 40.9902 183.262 41.2189 182.837L42.2129 183.068C41.9329 183.689 41.5106 184.197 40.9459 184.594C40.3812 184.986 39.7489 185.182 39.0489 185.182ZM36.5569 181.08H41.5339C41.5012 180.646 41.3682 180.249 41.1349 179.89C40.9062 179.526 40.6099 179.237 40.2459 179.022C39.8819 178.803 39.4829 178.693 39.0489 178.693C38.6149 178.693 38.2182 178.8 37.8589 179.015C37.4996 179.225 37.2056 179.512 36.9769 179.876C36.7482 180.235 36.6082 180.637 36.5569 181.08ZM49.4135 174.5H50.3935V185H49.4135V183.691C49.1708 184.139 48.8372 184.501 48.4125 184.776C47.9925 185.047 47.4932 185.182 46.9145 185.182C46.4058 185.182 45.9298 185.086 45.4865 184.895C45.0432 184.704 44.6512 184.44 44.3105 184.104C43.9745 183.763 43.7108 183.371 43.5195 182.928C43.3282 182.485 43.2325 182.009 43.2325 181.5C43.2325 180.991 43.3282 180.515 43.5195 180.072C43.7108 179.624 43.9745 179.232 44.3105 178.896C44.6512 178.555 45.0432 178.289 45.4865 178.098C45.9298 177.907 46.4058 177.811 46.9145 177.811C47.4932 177.811 47.9925 177.949 48.4125 178.224C48.8372 178.495 49.1708 178.852 49.4135 179.295V174.5ZM46.9215 184.23C47.4208 184.23 47.8502 184.109 48.2095 183.866C48.5688 183.619 48.8442 183.287 49.0355 182.872C49.2315 182.457 49.3295 181.999 49.3295 181.5C49.3295 180.987 49.2315 180.525 49.0355 180.114C48.8395 179.699 48.5618 179.37 48.2025 179.127C47.8432 178.884 47.4162 178.763 46.9215 178.763C46.4268 178.763 45.9765 178.887 45.5705 179.134C45.1645 179.377 44.8402 179.706 44.5975 180.121C44.3548 180.536 44.2335 180.996 44.2335 181.5C44.2335 182.009 44.3572 182.471 44.6045 182.886C44.8518 183.297 45.1785 183.623 45.5845 183.866C45.9952 184.109 46.4408 184.23 46.9215 184.23Z" fill="#535662"/>
<g clip-path="url(#clip2_2368_14489)">
<rect x="66" y="168" width="366" height="25" fill="#F1F1F1"/>
<g filter="url(#filter2_i_2368_14489)">
<rect x="66" y="167.5" width="125" height="25" fill="#4268FF"/>
</g>
</g>
<path d="M32.253 208.2V209.18H28.893V218H27.913V209.18H24.56V208.2H32.253ZM39.7624 213.667V218H38.7824V213.863C38.7824 213.48 38.689 213.133 38.5024 212.82C38.3157 212.507 38.066 212.258 37.7534 212.071C37.4407 211.884 37.093 211.791 36.7104 211.791C36.3324 211.791 35.9847 211.884 35.6674 212.071C35.3547 212.258 35.105 212.507 34.9184 212.82C34.7317 213.133 34.6384 213.48 34.6384 213.863V218H33.6584V207.5H34.6384V211.966C34.8857 211.611 35.2077 211.329 35.6044 211.119C36.001 210.909 36.4327 210.804 36.8994 210.804C37.4267 210.804 37.9074 210.932 38.3414 211.189C38.7754 211.446 39.1207 211.791 39.3774 212.225C39.634 212.659 39.7624 213.14 39.7624 213.667ZM40.8842 215.319V211H41.8642V215.123C41.8642 215.506 41.9576 215.853 42.1442 216.166C42.3309 216.479 42.5806 216.728 42.8932 216.915C43.2106 217.102 43.5582 217.195 43.9362 217.195C44.3189 217.195 44.6642 217.102 44.9722 216.915C45.2849 216.728 45.5346 216.479 45.7212 216.166C45.9079 215.853 46.0012 215.506 46.0012 215.123V211H46.9812L46.9882 218H46.0082L46.0012 217.02C45.7539 217.375 45.4319 217.657 45.0352 217.867C44.6432 218.077 44.2139 218.182 43.7472 218.182C43.2199 218.182 42.7392 218.054 42.3052 217.797C41.8712 217.54 41.5259 217.195 41.2692 216.761C41.0126 216.327 40.8842 215.846 40.8842 215.319Z" fill="#535662"/>
<g clip-path="url(#clip3_2368_14489)">
<rect x="66" y="201" width="366" height="25" fill="#F1F1F1"/>
<g filter="url(#filter3_i_2368_14489)">
<rect x="66" y="200.5" width="160" height="25" fill="#4268FF"/>
</g>
</g>
<path d="M24.84 251V241.2H30.573V242.18H25.82V245.26H29.901V246.24H25.82V251H24.84ZM31.2931 251V244H32.2731V244.966C32.5205 244.611 32.8425 244.329 33.2391 244.119C33.6358 243.909 34.0675 243.804 34.5341 243.804C34.8048 243.804 35.0661 243.839 35.3181 243.909L34.9191 244.882C34.7231 244.821 34.5318 244.791 34.3451 244.791C33.9671 244.791 33.6195 244.884 33.3021 245.071C32.9895 245.258 32.7398 245.507 32.5531 245.82C32.3665 246.133 32.2731 246.48 32.2731 246.863V251H31.2931ZM36.2013 244H37.1813V251H36.2013V244ZM36.6983 242.775C36.5397 242.775 36.4043 242.724 36.2923 242.621C36.185 242.514 36.1313 242.381 36.1313 242.222C36.1313 242.063 36.185 241.933 36.2923 241.83C36.4043 241.723 36.5397 241.669 36.6983 241.669C36.8523 241.669 36.983 241.723 37.0903 241.83C37.2023 241.933 37.2583 242.063 37.2583 242.222C37.2583 242.381 37.2047 242.514 37.0973 242.621C36.99 242.724 36.857 242.775 36.6983 242.775Z" fill="#535662"/>
<g clip-path="url(#clip4_2368_14489)">
<rect x="66" y="234" width="366" height="25" fill="#F1F1F1"/>
<g filter="url(#filter4_i_2368_14489)">
<rect x="66" y="233.5" width="100" height="25" fill="#4268FF"/>
</g>
</g>
<path d="M28.263 284.182C27.7403 284.182 27.234 284.1 26.744 283.937C26.2587 283.774 25.834 283.54 25.47 283.237C25.106 282.934 24.8493 282.572 24.7 282.152L25.617 281.809C25.7197 282.098 25.9063 282.348 26.177 282.558C26.4523 282.763 26.772 282.922 27.136 283.034C27.5047 283.146 27.8803 283.202 28.263 283.202C28.711 283.202 29.1287 283.127 29.516 282.978C29.9033 282.829 30.216 282.621 30.454 282.355C30.692 282.084 30.811 281.767 30.811 281.403C30.811 281.034 30.6873 280.731 30.44 280.493C30.1927 280.255 29.873 280.068 29.481 279.933C29.0937 279.793 28.6877 279.686 28.263 279.611C27.5957 279.494 26.996 279.336 26.464 279.135C25.9367 278.934 25.519 278.652 25.211 278.288C24.903 277.919 24.749 277.434 24.749 276.832C24.749 276.267 24.9123 275.777 25.239 275.362C25.5657 274.947 25.995 274.625 26.527 274.396C27.0637 274.167 27.6423 274.053 28.263 274.053C28.7717 274.053 29.2687 274.132 29.754 274.291C30.2393 274.45 30.6663 274.681 31.035 274.984C31.4083 275.287 31.6767 275.658 31.84 276.097L30.909 276.433C30.8063 276.139 30.6173 275.889 30.342 275.684C30.0713 275.474 29.754 275.315 29.39 275.208C29.026 275.096 28.6503 275.04 28.263 275.04C27.8197 275.035 27.4043 275.11 27.017 275.264C26.6343 275.413 26.324 275.623 26.086 275.894C25.848 276.16 25.729 276.473 25.729 276.832C25.729 277.252 25.8387 277.576 26.058 277.805C26.282 278.029 26.5853 278.197 26.968 278.309C27.3507 278.421 27.7823 278.521 28.263 278.61C28.8883 278.717 29.4693 278.885 30.006 279.114C30.5427 279.338 30.9743 279.639 31.301 280.017C31.6277 280.39 31.791 280.852 31.791 281.403C31.791 281.963 31.6277 282.453 31.301 282.873C30.9743 283.288 30.5427 283.61 30.006 283.839C29.474 284.068 28.893 284.182 28.263 284.182ZM39.0432 277H40.0232V284H39.0432L39.0082 282.698C38.7796 283.141 38.4599 283.501 38.0492 283.776C37.6386 284.047 37.1486 284.182 36.5792 284.182C36.0659 284.182 35.5852 284.086 35.1372 283.895C34.6892 283.699 34.2949 283.431 33.9542 283.09C33.6136 282.749 33.3476 282.355 33.1562 281.907C32.9649 281.459 32.8692 280.978 32.8692 280.465C32.8692 279.961 32.9626 279.487 33.1492 279.044C33.3406 278.601 33.6019 278.211 33.9332 277.875C34.2692 277.539 34.6566 277.278 35.0952 277.091C35.5386 276.9 36.0122 276.804 36.5162 276.804C37.0996 276.804 37.6082 276.944 38.0422 277.224C38.4762 277.499 38.8216 277.861 39.0782 278.309L39.0432 277ZM36.5582 283.23C37.0576 283.23 37.4869 283.109 37.8462 282.866C38.2056 282.619 38.4809 282.287 38.6722 281.872C38.8682 281.457 38.9662 280.999 38.9662 280.5C38.9662 279.987 38.8682 279.525 38.6722 279.114C38.4762 278.699 38.1986 278.37 37.8392 278.127C37.4799 277.884 37.0529 277.763 36.5582 277.763C36.0636 277.763 35.6109 277.887 35.2002 278.134C34.7942 278.377 34.4699 278.706 34.2272 279.121C33.9892 279.536 33.8702 279.996 33.8702 280.5C33.8702 281.009 33.9939 281.471 34.2412 281.886C34.4886 282.297 34.8152 282.623 35.2212 282.866C35.6319 283.109 36.0776 283.23 36.5582 283.23ZM45.001 277.98H43.328L43.321 284H42.341L42.348 277.98H41.081V277H42.348L42.341 274.802H43.321L43.328 277H45.001V277.98Z" fill="#535662"/>
<g clip-path="url(#clip5_2368_14489)">
<rect x="66" y="267" width="366" height="25" fill="#F1F1F1"/>
<g filter="url(#filter5_i_2368_14489)">
<rect x="66" y="266.5" width="310" height="25" fill="#4268FF"/>
</g>
</g>
<path d="M28.263 317.182C27.7403 317.182 27.234 317.1 26.744 316.937C26.2587 316.774 25.834 316.54 25.47 316.237C25.106 315.934 24.8493 315.572 24.7 315.152L25.617 314.809C25.7197 315.098 25.9063 315.348 26.177 315.558C26.4523 315.763 26.772 315.922 27.136 316.034C27.5047 316.146 27.8803 316.202 28.263 316.202C28.711 316.202 29.1287 316.127 29.516 315.978C29.9033 315.829 30.216 315.621 30.454 315.355C30.692 315.084 30.811 314.767 30.811 314.403C30.811 314.034 30.6873 313.731 30.44 313.493C30.1927 313.255 29.873 313.068 29.481 312.933C29.0937 312.793 28.6877 312.686 28.263 312.611C27.5957 312.494 26.996 312.336 26.464 312.135C25.9367 311.934 25.519 311.652 25.211 311.288C24.903 310.919 24.749 310.434 24.749 309.832C24.749 309.267 24.9123 308.777 25.239 308.362C25.5657 307.947 25.995 307.625 26.527 307.396C27.0637 307.167 27.6423 307.053 28.263 307.053C28.7717 307.053 29.2687 307.132 29.754 307.291C30.2393 307.45 30.6663 307.681 31.035 307.984C31.4083 308.287 31.6767 308.658 31.84 309.097L30.909 309.433C30.8063 309.139 30.6173 308.889 30.342 308.684C30.0713 308.474 29.754 308.315 29.39 308.208C29.026 308.096 28.6503 308.04 28.263 308.04C27.8197 308.035 27.4043 308.11 27.017 308.264C26.6343 308.413 26.324 308.623 26.086 308.894C25.848 309.16 25.729 309.473 25.729 309.832C25.729 310.252 25.8387 310.576 26.058 310.805C26.282 311.029 26.5853 311.197 26.968 311.309C27.3507 311.421 27.7823 311.521 28.263 311.61C28.8883 311.717 29.4693 311.885 30.006 312.114C30.5427 312.338 30.9743 312.639 31.301 313.017C31.6277 313.39 31.791 313.852 31.791 314.403C31.791 314.963 31.6277 315.453 31.301 315.873C30.9743 316.288 30.5427 316.61 30.006 316.839C29.474 317.068 28.893 317.182 28.263 317.182ZM33.0366 314.319V310H34.0166V314.123C34.0166 314.506 34.1099 314.853 34.2966 315.166C34.4832 315.479 34.7329 315.728 35.0456 315.915C35.3629 316.102 35.7106 316.195 36.0886 316.195C36.4712 316.195 36.8166 316.102 37.1246 315.915C37.4372 315.728 37.6869 315.479 37.8736 315.166C38.0602 314.853 38.1536 314.506 38.1536 314.123V310H39.1336L39.1406 317H38.1606L38.1536 316.02C37.9062 316.375 37.5842 316.657 37.1876 316.867C36.7956 317.077 36.3662 317.182 35.8996 317.182C35.3722 317.182 34.8916 317.054 34.4576 316.797C34.0236 316.54 33.6782 316.195 33.4216 315.761C33.1649 315.327 33.0366 314.846 33.0366 314.319ZM46.6393 312.667V317H45.6593V312.863C45.6593 312.48 45.566 312.133 45.3793 311.82C45.1926 311.507 44.943 311.258 44.6303 311.071C44.3176 310.884 43.97 310.791 43.5873 310.791C43.2093 310.791 42.8616 310.884 42.5443 311.071C42.2316 311.258 41.982 311.507 41.7953 311.82C41.6086 312.133 41.5153 312.48 41.5153 312.863V317H40.5353V310H41.5153V310.966C41.7626 310.611 42.0846 310.329 42.4813 310.119C42.878 309.909 43.3096 309.804 43.7763 309.804C44.3036 309.804 44.7843 309.932 45.2183 310.189C45.6523 310.446 45.9976 310.791 46.2543 311.225C46.511 311.659 46.6393 312.14 46.6393 312.667Z" fill="#535662"/>
<g clip-path="url(#clip6_2368_14489)">
<rect x="66" y="300" width="366" height="25" fill="#F1F1F1"/>
<g filter="url(#filter6_i_2368_14489)">
<rect x="66" y="299.5" width="242" height="25" fill="#4268FF"/>
</g>
</g>
<defs>
<filter id="filter0_i_2368_14489" x="66" y="101.5" width="102" height="29" filterUnits="userSpaceOnUse" color-interpolation-filters="sRGB">
<feFlood flood-opacity="0" result="BackgroundImageFix"/>
<feBlend mode="normal" in="SourceGraphic" in2="BackgroundImageFix" result="shape"/>
<feColorMatrix in="SourceAlpha" type="matrix" values="0 0 0 0 0 0 0 0 0 0 0 0 0 0 0 0 0 0 127 0" result="hardAlpha"/>
<feOffset dy="4"/>
<feGaussianBlur stdDeviation="2"/>
<feComposite in2="hardAlpha" operator="arithmetic" k2="-1" k3="1"/>
<feColorMatrix type="matrix" values="0 0 0 0 0 0 0 0 0 0 0 0 0 0 0 0 0 0 0.25 0"/>
<feBlend mode="normal" in2="shape" result="effect1_innerShadow_2368_14489"/>
</filter>
<filter id="filter1_i_2368_14489" x="66" y="134.5" width="183" height="29" filterUnits="userSpaceOnUse" color-interpolation-filters="sRGB">
<feFlood flood-opacity="0" result="BackgroundImageFix"/>
<feBlend mode="normal" in="SourceGraphic" in2="BackgroundImageFix" result="shape"/>
<feColorMatrix in="SourceAlpha" type="matrix" values="0 0 0 0 0 0 0 0 0 0 0 0 0 0 0 0 0 0 127 0" result="hardAlpha"/>
<feOffset dy="4"/>
<feGaussianBlur stdDeviation="2"/>
<feComposite in2="hardAlpha" operator="arithmetic" k2="-1" k3="1"/>
<feColorMatrix type="matrix" values="0 0 0 0 0 0 0 0 0 0 0 0 0 0 0 0 0 0 0.25 0"/>
<feBlend mode="normal" in2="shape" result="effect1_innerShadow_2368_14489"/>
</filter>
<filter id="filter2_i_2368_14489" x="66" y="167.5" width="125" height="29" filterUnits="userSpaceOnUse" color-interpolation-filters="sRGB">
<feFlood flood-opacity="0" result="BackgroundImageFix"/>
<feBlend mode="normal" in="SourceGraphic" in2="BackgroundImageFix" result="shape"/>
<feColorMatrix in="SourceAlpha" type="matrix" values="0 0 0 0 0 0 0 0 0 0 0 0 0 0 0 0 0 0 127 0" result="hardAlpha"/>
<feOffset dy="4"/>
<feGaussianBlur stdDeviation="2"/>
<feComposite in2="hardAlpha" operator="arithmetic" k2="-1" k3="1"/>
<feColorMatrix type="matrix" values="0 0 0 0 0 0 0 0 0 0 0 0 0 0 0 0 0 0 0.25 0"/>
<feBlend mode="normal" in2="shape" result="effect1_innerShadow_2368_14489"/>
</filter>
<filter id="filter3_i_2368_14489" x="66" y="200.5" width="160" height="29" filterUnits="userSpaceOnUse" color-interpolation-filters="sRGB">
<feFlood flood-opacity="0" result="BackgroundImageFix"/>
<feBlend mode="normal" in="SourceGraphic" in2="BackgroundImageFix" result="shape"/>
<feColorMatrix in="SourceAlpha" type="matrix" values="0 0 0 0 0 0 0 0 0 0 0 0 0 0 0 0 0 0 127 0" result="hardAlpha"/>
<feOffset dy="4"/>
<feGaussianBlur stdDeviation="2"/>
<feComposite in2="hardAlpha" operator="arithmetic" k2="-1" k3="1"/>
<feColorMatrix type="matrix" values="0 0 0 0 0 0 0 0 0 0 0 0 0 0 0 0 0 0 0.25 0"/>
<feBlend mode="normal" in2="shape" result="effect1_innerShadow_2368_14489"/>
</filter>
<filter id="filter4_i_2368_14489" x="66" y="233.5" width="100" height="29" filterUnits="userSpaceOnUse" color-interpolation-filters="sRGB">
<feFlood flood-opacity="0" result="BackgroundImageFix"/>
<feBlend mode="normal" in="SourceGraphic" in2="BackgroundImageFix" result="shape"/>
<feColorMatrix in="SourceAlpha" type="matrix" values="0 0 0 0 0 0 0 0 0 0 0 0 0 0 0 0 0 0 127 0" result="hardAlpha"/>
<feOffset dy="4"/>
<feGaussianBlur stdDeviation="2"/>
<feComposite in2="hardAlpha" operator="arithmetic" k2="-1" k3="1"/>
<feColorMatrix type="matrix" values="0 0 0 0 0 0 0 0 0 0 0 0 0 0 0 0 0 0 0.25 0"/>
<feBlend mode="normal" in2="shape" result="effect1_innerShadow_2368_14489"/>
</filter>
<filter id="filter5_i_2368_14489" x="66" y="266.5" width="310" height="29" filterUnits="userSpaceOnUse" color-interpolation-filters="sRGB">
<feFlood flood-opacity="0" result="BackgroundImageFix"/>
<feBlend mode="normal" in="SourceGraphic" in2="BackgroundImageFix" result="shape"/>
<feColorMatrix in="SourceAlpha" type="matrix" values="0 0 0 0 0 0 0 0 0 0 0 0 0 0 0 0 0 0 127 0" result="hardAlpha"/>
<feOffset dy="4"/>
<feGaussianBlur stdDeviation="2"/>
<feComposite in2="hardAlpha" operator="arithmetic" k2="-1" k3="1"/>
<feColorMatrix type="matrix" values="0 0 0 0 0 0 0 0 0 0 0 0 0 0 0 0 0 0 0.25 0"/>
<feBlend mode="normal" in2="shape" result="effect1_innerShadow_2368_14489"/>
</filter>
<filter id="filter6_i_2368_14489" x="66" y="299.5" width="242" height="29" filterUnits="userSpaceOnUse" color-interpolation-filters="sRGB">
<feFlood flood-opacity="0" result="BackgroundImageFix"/>
<feBlend mode="normal" in="SourceGraphic" in2="BackgroundImageFix" result="shape"/>
<feColorMatrix in="SourceAlpha" type="matrix" values="0 0 0 0 0 0 0 0 0 0 0 0 0 0 0 0 0 0 127 0" result="hardAlpha"/>
<feOffset dy="4"/>
<feGaussianBlur stdDeviation="2"/>
<feComposite in2="hardAlpha" operator="arithmetic" k2="-1" k3="1"/>
<feColorMatrix type="matrix" values="0 0 0 0 0 0 0 0 0 0 0 0 0 0 0 0 0 0 0.25 0"/>
<feBlend mode="normal" in2="shape" result="effect1_innerShadow_2368_14489"/>
</filter>
<clipPath id="clip0_2368_14489">
<rect x="66" y="102" width="337" height="25" rx="12.5" fill="white"/>
</clipPath>
<clipPath id="clip1_2368_14489">
<rect x="66" y="135" width="337" height="25" rx="12.5" fill="white"/>
</clipPath>
<clipPath id="clip2_2368_14489">
<rect x="66" y="168" width="337" height="25" rx="12.5" fill="white"/>
</clipPath>
<clipPath id="clip3_2368_14489">
<rect x="66" y="201" width="337" height="25" rx="12.5" fill="white"/>
</clipPath>
<clipPath id="clip4_2368_14489">
<rect x="66" y="234" width="337" height="25" rx="12.5" fill="white"/>
</clipPath>
<clipPath id="clip5_2368_14489">
<rect x="66" y="267" width="337" height="25" rx="12.5" fill="white"/>
</clipPath>
<clipPath id="clip6_2368_14489">
<rect x="66" y="300" width="337" height="25" rx="12.5" fill="white"/>
</clipPath>
</defs>
</svg>
