<svg width="427" height="350" viewBox="0 0 427 350" fill="none" xmlns="http://www.w3.org/2000/svg">
<rect width="427" height="350" rx="22.0629" fill="white"/>
<rect x="0.459644" y="0.459644" width="426.081" height="349.081" rx="21.6033" stroke="#0C1021" stroke-opacity="0.05" stroke-width="0.919289"/>
<path d="M98.4673 47V30.2H100.963V44.504H108.199V47H98.4673ZM119.1 35H121.596V47H119.088L118.992 45.26C118.64 45.876 118.164 46.372 117.564 46.748C116.964 47.124 116.256 47.312 115.44 47.312C114.56 47.312 113.732 47.148 112.956 46.82C112.18 46.484 111.496 46.02 110.904 45.428C110.32 44.836 109.864 44.156 109.536 43.388C109.208 42.612 109.044 41.78 109.044 40.892C109.044 40.036 109.204 39.232 109.524 38.48C109.844 37.72 110.288 37.056 110.856 36.488C111.424 35.92 112.08 35.476 112.824 35.156C113.576 34.828 114.38 34.664 115.236 34.664C116.108 34.664 116.876 34.864 117.54 35.264C118.212 35.656 118.768 36.16 119.208 36.776L119.1 35ZM115.38 44.9C116.084 44.9 116.7 44.728 117.228 44.384C117.756 44.032 118.164 43.56 118.452 42.968C118.748 42.376 118.896 41.72 118.896 41C118.896 40.272 118.748 39.612 118.452 39.02C118.156 38.428 117.744 37.96 117.216 37.616C116.696 37.264 116.084 37.088 115.38 37.088C114.684 37.088 114.048 37.264 113.472 37.616C112.896 37.968 112.44 38.44 112.104 39.032C111.768 39.624 111.6 40.28 111.6 41C111.6 41.728 111.772 42.388 112.116 42.98C112.468 43.564 112.928 44.032 113.496 44.384C114.072 44.728 114.7 44.9 115.38 44.9ZM134.791 39.476V47H132.295V40.088C132.295 39.552 132.163 39.064 131.899 38.624C131.643 38.184 131.295 37.836 130.855 37.58C130.423 37.316 129.935 37.184 129.391 37.184C128.863 37.184 128.379 37.316 127.939 37.58C127.499 37.836 127.147 38.184 126.883 38.624C126.619 39.064 126.487 39.552 126.487 40.088V47H123.991V35H126.487V36.272C126.903 35.776 127.415 35.384 128.023 35.096C128.631 34.808 129.287 34.664 129.991 34.664C130.879 34.664 131.687 34.88 132.415 35.312C133.143 35.744 133.719 36.324 134.143 37.052C134.575 37.78 134.791 38.588 134.791 39.476ZM146.084 35H148.58V47.312C148.58 48.136 148.404 48.896 148.052 49.592C147.708 50.288 147.24 50.888 146.648 51.392C146.056 51.904 145.376 52.3 144.608 52.58C143.848 52.86 143.052 53 142.22 53C141.38 53 140.572 52.82 139.796 52.46C139.02 52.108 138.336 51.628 137.744 51.02C137.16 50.412 136.724 49.724 136.436 48.956L138.728 47.924C138.888 48.42 139.144 48.86 139.496 49.244C139.856 49.628 140.272 49.932 140.744 50.156C141.224 50.38 141.716 50.492 142.22 50.492C142.716 50.492 143.192 50.412 143.648 50.252C144.112 50.1 144.524 49.884 144.884 49.604C145.252 49.324 145.544 48.988 145.76 48.596C145.976 48.204 146.084 47.776 146.084 47.312V45.284C145.692 45.892 145.188 46.384 144.572 46.76C143.956 47.128 143.24 47.312 142.424 47.312C141.576 47.312 140.776 47.148 140.024 46.82C139.272 46.492 138.612 46.04 138.044 45.464C137.476 44.88 137.032 44.208 136.712 43.448C136.392 42.688 136.232 41.872 136.232 41C136.232 40.128 136.392 39.312 136.712 38.552C137.032 37.784 137.476 37.112 138.044 36.536C138.612 35.952 139.272 35.496 140.024 35.168C140.776 34.84 141.576 34.676 142.424 34.676C143.24 34.676 143.956 34.864 144.572 35.24C145.188 35.608 145.692 36.1 146.084 36.716V35ZM142.448 44.9C143.144 44.9 143.752 44.724 144.272 44.372C144.792 44.012 145.196 43.536 145.484 42.944C145.772 42.352 145.916 41.704 145.916 41C145.916 40.28 145.768 39.628 145.472 39.044C145.184 38.452 144.78 37.98 144.26 37.628C143.74 37.268 143.136 37.088 142.448 37.088C141.776 37.088 141.16 37.264 140.6 37.616C140.048 37.968 139.608 38.44 139.28 39.032C138.952 39.624 138.788 40.28 138.788 41C138.788 41.72 138.952 42.376 139.28 42.968C139.616 43.56 140.06 44.032 140.612 44.384C141.172 44.728 141.784 44.9 142.448 44.9ZM150.698 42.5V35H153.194V41.888C153.194 42.424 153.326 42.912 153.59 43.352C153.854 43.792 154.206 44.144 154.646 44.408C155.086 44.664 155.57 44.792 156.098 44.792C156.634 44.792 157.118 44.664 157.55 44.408C157.99 44.144 158.338 43.792 158.594 43.352C158.858 42.912 158.99 42.424 158.99 41.888V35H161.486L161.498 47H159.002L158.99 45.704C158.582 46.2 158.074 46.592 157.466 46.88C156.858 47.168 156.206 47.312 155.51 47.312C154.622 47.312 153.814 47.096 153.086 46.664C152.358 46.232 151.778 45.652 151.346 44.924C150.914 44.196 150.698 43.388 150.698 42.5ZM173.077 35H175.573V47H173.065L172.969 45.26C172.617 45.876 172.141 46.372 171.541 46.748C170.941 47.124 170.233 47.312 169.417 47.312C168.537 47.312 167.709 47.148 166.933 46.82C166.157 46.484 165.473 46.02 164.881 45.428C164.297 44.836 163.841 44.156 163.513 43.388C163.185 42.612 163.021 41.78 163.021 40.892C163.021 40.036 163.181 39.232 163.501 38.48C163.821 37.72 164.265 37.056 164.833 36.488C165.401 35.92 166.057 35.476 166.801 35.156C167.553 34.828 168.357 34.664 169.213 34.664C170.085 34.664 170.853 34.864 171.517 35.264C172.189 35.656 172.745 36.16 173.185 36.776L173.077 35ZM169.357 44.9C170.061 44.9 170.677 44.728 171.205 44.384C171.733 44.032 172.141 43.56 172.429 42.968C172.725 42.376 172.873 41.72 172.873 41C172.873 40.272 172.725 39.612 172.429 39.02C172.133 38.428 171.721 37.96 171.193 37.616C170.673 37.264 170.061 37.088 169.357 37.088C168.661 37.088 168.025 37.264 167.449 37.616C166.873 37.968 166.417 38.44 166.081 39.032C165.745 39.624 165.577 40.28 165.577 41C165.577 41.728 165.749 42.388 166.093 42.98C166.445 43.564 166.905 44.032 167.473 44.384C168.049 44.728 168.677 44.9 169.357 44.9ZM186.865 35H189.361V47.312C189.361 48.136 189.185 48.896 188.833 49.592C188.489 50.288 188.021 50.888 187.429 51.392C186.837 51.904 186.157 52.3 185.389 52.58C184.629 52.86 183.833 53 183.001 53C182.161 53 181.353 52.82 180.577 52.46C179.801 52.108 179.117 51.628 178.525 51.02C177.941 50.412 177.505 49.724 177.217 48.956L179.509 47.924C179.669 48.42 179.925 48.86 180.277 49.244C180.637 49.628 181.053 49.932 181.525 50.156C182.005 50.38 182.497 50.492 183.001 50.492C183.497 50.492 183.973 50.412 184.429 50.252C184.893 50.1 185.305 49.884 185.665 49.604C186.033 49.324 186.325 48.988 186.541 48.596C186.757 48.204 186.865 47.776 186.865 47.312V45.284C186.473 45.892 185.969 46.384 185.353 46.76C184.737 47.128 184.021 47.312 183.205 47.312C182.357 47.312 181.557 47.148 180.805 46.82C180.053 46.492 179.393 46.04 178.825 45.464C178.257 44.88 177.813 44.208 177.493 43.448C177.173 42.688 177.013 41.872 177.013 41C177.013 40.128 177.173 39.312 177.493 38.552C177.813 37.784 178.257 37.112 178.825 36.536C179.393 35.952 180.053 35.496 180.805 35.168C181.557 34.84 182.357 34.676 183.205 34.676C184.021 34.676 184.737 34.864 185.353 35.24C185.969 35.608 186.473 36.1 186.865 36.716V35ZM183.229 44.9C183.925 44.9 184.533 44.724 185.053 44.372C185.573 44.012 185.977 43.536 186.265 42.944C186.553 42.352 186.697 41.704 186.697 41C186.697 40.28 186.549 39.628 186.253 39.044C185.965 38.452 185.561 37.98 185.041 37.628C184.521 37.268 183.917 37.088 183.229 37.088C182.557 37.088 181.941 37.264 181.381 37.616C180.829 37.968 180.389 38.44 180.061 39.032C179.733 39.624 179.569 40.28 179.569 41C179.569 41.72 179.733 42.376 180.061 42.968C180.397 43.56 180.841 44.032 181.393 44.384C181.953 44.728 182.565 44.9 183.229 44.9ZM197.31 47.312C196.206 47.312 195.198 47.028 194.286 46.46C193.382 45.892 192.658 45.132 192.114 44.18C191.578 43.22 191.31 42.16 191.31 41C191.31 40.12 191.466 39.3 191.778 38.54C192.09 37.772 192.518 37.1 193.062 36.524C193.614 35.94 194.254 35.484 194.982 35.156C195.71 34.828 196.486 34.664 197.31 34.664C198.23 34.664 199.074 34.856 199.842 35.24C200.61 35.616 201.266 36.14 201.81 36.812C202.354 37.476 202.754 38.244 203.01 39.116C203.266 39.98 203.342 40.9 203.238 41.876H193.986C194.09 42.428 194.29 42.928 194.586 43.376C194.89 43.816 195.274 44.164 195.738 44.42C196.21 44.676 196.734 44.808 197.31 44.816C197.918 44.816 198.47 44.664 198.966 44.36C199.47 44.056 199.882 43.636 200.202 43.1L202.734 43.688C202.254 44.752 201.53 45.624 200.562 46.304C199.594 46.976 198.51 47.312 197.31 47.312ZM193.902 39.968H200.718C200.638 39.392 200.434 38.872 200.106 38.408C199.786 37.936 199.382 37.564 198.894 37.292C198.414 37.012 197.886 36.872 197.31 36.872C196.742 36.872 196.214 37.008 195.726 37.28C195.246 37.552 194.846 37.924 194.526 38.396C194.214 38.86 194.006 39.384 193.902 39.968ZM208.872 47.228C208.24 47.188 207.624 47.06 207.024 46.844C206.424 46.628 205.896 46.336 205.44 45.968C204.992 45.592 204.656 45.152 204.432 44.648L206.556 43.736C206.66 43.952 206.84 44.164 207.096 44.372C207.36 44.58 207.668 44.752 208.02 44.888C208.372 45.016 208.74 45.08 209.124 45.08C209.5 45.08 209.848 45.028 210.168 44.924C210.496 44.812 210.764 44.644 210.972 44.42C211.18 44.196 211.284 43.928 211.284 43.616C211.284 43.264 211.164 42.992 210.924 42.8C210.692 42.6 210.4 42.448 210.048 42.344C209.696 42.24 209.344 42.14 208.992 42.044C208.208 41.868 207.488 41.628 206.832 41.324C206.184 41.012 205.668 40.616 205.284 40.136C204.9 39.648 204.708 39.052 204.708 38.348C204.708 37.58 204.916 36.916 205.332 36.356C205.748 35.788 206.292 35.352 206.964 35.048C207.644 34.744 208.368 34.592 209.136 34.592C210.096 34.592 210.976 34.796 211.776 35.204C212.576 35.612 213.188 36.172 213.612 36.884L211.632 38.06C211.512 37.82 211.332 37.604 211.092 37.412C210.852 37.22 210.58 37.068 210.276 36.956C209.972 36.836 209.656 36.768 209.328 36.752C208.92 36.736 208.54 36.784 208.188 36.896C207.844 37 207.568 37.168 207.36 37.4C207.152 37.632 207.048 37.928 207.048 38.288C207.048 38.64 207.172 38.904 207.42 39.08C207.668 39.248 207.98 39.384 208.356 39.488C208.74 39.592 209.132 39.708 209.532 39.836C210.244 40.06 210.912 40.336 211.536 40.664C212.16 40.984 212.664 41.38 213.048 41.852C213.432 42.324 213.616 42.9 213.6 43.58C213.6 44.332 213.372 44.992 212.916 45.56C212.468 46.128 211.884 46.56 211.164 46.856C210.444 47.152 209.68 47.276 208.872 47.228ZM225.02 47.228C224.388 47.188 223.772 47.06 223.172 46.844C222.572 46.628 222.044 46.336 221.588 45.968C221.14 45.592 220.804 45.152 220.58 44.648L222.704 43.736C222.808 43.952 222.988 44.164 223.244 44.372C223.508 44.58 223.816 44.752 224.168 44.888C224.52 45.016 224.888 45.08 225.272 45.08C225.648 45.08 225.996 45.028 226.316 44.924C226.644 44.812 226.912 44.644 227.12 44.42C227.328 44.196 227.432 43.928 227.432 43.616C227.432 43.264 227.312 42.992 227.072 42.8C226.84 42.6 226.548 42.448 226.196 42.344C225.844 42.24 225.492 42.14 225.14 42.044C224.356 41.868 223.636 41.628 222.98 41.324C222.332 41.012 221.816 40.616 221.432 40.136C221.048 39.648 220.856 39.052 220.856 38.348C220.856 37.58 221.064 36.916 221.48 36.356C221.896 35.788 222.44 35.352 223.112 35.048C223.792 34.744 224.516 34.592 225.284 34.592C226.244 34.592 227.124 34.796 227.924 35.204C228.724 35.612 229.336 36.172 229.76 36.884L227.78 38.06C227.66 37.82 227.48 37.604 227.24 37.412C227 37.22 226.728 37.068 226.424 36.956C226.12 36.836 225.804 36.768 225.476 36.752C225.068 36.736 224.688 36.784 224.336 36.896C223.992 37 223.716 37.168 223.508 37.4C223.3 37.632 223.196 37.928 223.196 38.288C223.196 38.64 223.32 38.904 223.568 39.08C223.816 39.248 224.128 39.384 224.504 39.488C224.888 39.592 225.28 39.708 225.68 39.836C226.392 40.06 227.06 40.336 227.684 40.664C228.308 40.984 228.812 41.38 229.196 41.852C229.58 42.324 229.764 42.9 229.748 43.58C229.748 44.332 229.52 44.992 229.064 45.56C228.616 46.128 228.032 46.56 227.312 46.856C226.592 47.152 225.828 47.276 225.02 47.228ZM231.323 42.5V35H233.819V41.888C233.819 42.424 233.951 42.912 234.215 43.352C234.479 43.792 234.831 44.144 235.271 44.408C235.711 44.664 236.195 44.792 236.723 44.792C237.259 44.792 237.743 44.664 238.175 44.408C238.615 44.144 238.963 43.792 239.219 43.352C239.483 42.912 239.615 42.424 239.615 41.888V35H242.111L242.123 47H239.627L239.615 45.704C239.207 46.2 238.699 46.592 238.091 46.88C237.483 47.168 236.831 47.312 236.135 47.312C235.247 47.312 234.439 47.096 233.711 46.664C232.983 46.232 232.403 45.652 231.971 44.924C231.539 44.196 231.323 43.388 231.323 42.5ZM246.581 53H244.085V35H246.581V36.764C246.981 36.148 247.493 35.648 248.117 35.264C248.741 34.88 249.477 34.688 250.325 34.688C251.197 34.688 252.013 34.852 252.773 35.18C253.541 35.508 254.213 35.964 254.789 36.548C255.365 37.124 255.817 37.792 256.145 38.552C256.473 39.312 256.637 40.128 256.637 41C256.637 41.872 256.473 42.692 256.145 43.46C255.817 44.228 255.365 44.904 254.789 45.488C254.213 46.064 253.541 46.516 252.773 46.844C252.013 47.172 251.197 47.336 250.325 47.336C249.477 47.336 248.741 47.144 248.117 46.76C247.493 46.368 246.981 45.868 246.581 45.26V53ZM250.301 37.1C249.605 37.1 248.993 37.276 248.465 37.628C247.937 37.98 247.525 38.452 247.229 39.044C246.933 39.628 246.785 40.28 246.785 41C246.785 41.72 246.933 42.376 247.229 42.968C247.525 43.56 247.937 44.032 248.465 44.384C248.993 44.736 249.605 44.912 250.301 44.912C250.989 44.912 251.621 44.74 252.197 44.396C252.773 44.044 253.233 43.572 253.577 42.98C253.921 42.388 254.093 41.728 254.093 41C254.093 40.288 253.921 39.636 253.577 39.044C253.241 38.452 252.785 37.98 252.209 37.628C251.633 37.276 250.997 37.1 250.301 37.1ZM261.088 53H258.592V35H261.088V36.764C261.488 36.148 262 35.648 262.624 35.264C263.248 34.88 263.984 34.688 264.832 34.688C265.704 34.688 266.52 34.852 267.28 35.18C268.048 35.508 268.72 35.964 269.296 36.548C269.872 37.124 270.324 37.792 270.652 38.552C270.98 39.312 271.144 40.128 271.144 41C271.144 41.872 270.98 42.692 270.652 43.46C270.324 44.228 269.872 44.904 269.296 45.488C268.72 46.064 268.048 46.516 267.28 46.844C266.52 47.172 265.704 47.336 264.832 47.336C263.984 47.336 263.248 47.144 262.624 46.76C262 46.368 261.488 45.868 261.088 45.26V53ZM264.808 37.1C264.112 37.1 263.5 37.276 262.972 37.628C262.444 37.98 262.032 38.452 261.736 39.044C261.44 39.628 261.292 40.28 261.292 41C261.292 41.72 261.44 42.376 261.736 42.968C262.032 43.56 262.444 44.032 262.972 44.384C263.5 44.736 264.112 44.912 264.808 44.912C265.496 44.912 266.128 44.74 266.704 44.396C267.28 44.044 267.74 43.572 268.084 42.98C268.428 42.388 268.6 41.728 268.6 41C268.6 40.288 268.428 39.636 268.084 39.044C267.748 38.452 267.292 37.98 266.716 37.628C266.14 37.276 265.504 37.1 264.808 37.1ZM278.357 47.312C277.253 47.312 276.245 47.028 275.333 46.46C274.429 45.892 273.705 45.132 273.161 44.18C272.625 43.22 272.357 42.16 272.357 41C272.357 40.12 272.513 39.3 272.825 38.54C273.137 37.772 273.565 37.1 274.109 36.524C274.661 35.94 275.301 35.484 276.029 35.156C276.757 34.828 277.533 34.664 278.357 34.664C279.461 34.664 280.465 34.948 281.369 35.516C282.281 36.084 283.005 36.848 283.541 37.808C284.085 38.768 284.357 39.832 284.357 41C284.357 41.872 284.201 42.688 283.889 43.448C283.577 44.208 283.145 44.88 282.593 45.464C282.049 46.04 281.413 46.492 280.685 46.82C279.965 47.148 279.189 47.312 278.357 47.312ZM278.357 44.816C279.021 44.816 279.617 44.64 280.145 44.288C280.673 43.936 281.089 43.472 281.393 42.896C281.705 42.312 281.861 41.68 281.861 41C281.861 40.304 281.701 39.664 281.381 39.08C281.069 38.496 280.649 38.032 280.121 37.688C279.593 37.336 279.005 37.16 278.357 37.16C277.701 37.16 277.105 37.336 276.569 37.688C276.041 38.04 275.621 38.508 275.309 39.092C275.005 39.676 274.853 40.312 274.853 41C274.853 41.712 275.013 42.356 275.333 42.932C275.653 43.508 276.077 43.968 276.605 44.312C277.141 44.648 277.725 44.816 278.357 44.816ZM286.295 47V35H288.791V36.272C289.207 35.776 289.719 35.384 290.327 35.096C290.935 34.808 291.591 34.664 292.295 34.664C292.743 34.664 293.187 34.724 293.627 34.844L292.631 37.364C292.319 37.244 292.007 37.184 291.695 37.184C291.167 37.184 290.683 37.316 290.243 37.58C289.803 37.836 289.451 38.184 289.187 38.624C288.923 39.064 288.791 39.552 288.791 40.088V47H286.295ZM301.655 37.496H299.135L299.123 47H296.627L296.639 37.496H294.731V35H296.639L296.627 31.232H299.123L299.135 35H301.655V37.496ZM308.802 47.312C307.698 47.312 306.69 47.028 305.778 46.46C304.874 45.892 304.15 45.132 303.606 44.18C303.07 43.22 302.802 42.16 302.802 41C302.802 40.12 302.958 39.3 303.27 38.54C303.582 37.772 304.01 37.1 304.554 36.524C305.106 35.94 305.746 35.484 306.474 35.156C307.202 34.828 307.978 34.664 308.802 34.664C309.722 34.664 310.566 34.856 311.334 35.24C312.102 35.616 312.758 36.14 313.302 36.812C313.846 37.476 314.246 38.244 314.502 39.116C314.758 39.98 314.834 40.9 314.73 41.876H305.478C305.582 42.428 305.782 42.928 306.078 43.376C306.382 43.816 306.766 44.164 307.23 44.42C307.702 44.676 308.226 44.808 308.802 44.816C309.41 44.816 309.962 44.664 310.458 44.36C310.962 44.056 311.374 43.636 311.694 43.1L314.226 43.688C313.746 44.752 313.022 45.624 312.054 46.304C311.086 46.976 310.002 47.312 308.802 47.312ZM305.394 39.968H312.21C312.13 39.392 311.926 38.872 311.598 38.408C311.278 37.936 310.874 37.564 310.386 37.292C309.906 37.012 309.378 36.872 308.802 36.872C308.234 36.872 307.706 37.008 307.218 37.28C306.738 37.552 306.338 37.924 306.018 38.396C305.706 38.86 305.498 39.384 305.394 39.968ZM326.042 29H328.538V47H326.042V45.236C325.65 45.86 325.138 46.364 324.506 46.748C323.874 47.124 323.134 47.312 322.286 47.312C321.414 47.312 320.598 47.148 319.838 46.82C319.078 46.492 318.406 46.04 317.822 45.464C317.246 44.88 316.794 44.208 316.466 43.448C316.138 42.688 315.974 41.872 315.974 41C315.974 40.128 316.138 39.312 316.466 38.552C316.794 37.784 317.246 37.112 317.822 36.536C318.406 35.952 319.078 35.496 319.838 35.168C320.598 34.84 321.414 34.676 322.286 34.676C323.134 34.676 323.874 34.868 324.506 35.252C325.138 35.628 325.65 36.124 326.042 36.74V29ZM322.31 44.9C323.014 44.9 323.63 44.728 324.158 44.384C324.686 44.032 325.094 43.56 325.382 42.968C325.678 42.376 325.826 41.72 325.826 41C325.826 40.272 325.678 39.612 325.382 39.02C325.086 38.428 324.674 37.96 324.146 37.616C323.626 37.264 323.014 37.088 322.31 37.088C321.614 37.088 320.978 37.264 320.402 37.616C319.834 37.968 319.378 38.44 319.034 39.032C318.698 39.624 318.53 40.28 318.53 41C318.53 41.728 318.702 42.388 319.046 42.98C319.398 43.564 319.858 44.032 320.426 44.384C321.002 44.728 321.63 44.9 322.31 44.9Z" fill="#0C1021"/>
<rect x="24" y="77" width="379" height="1" fill="#0C1021" fill-opacity="0.15"/>
<g clip-path="url(#clip0_2368_14515)">
<path d="M224.762 163.766V104.234C236.62 108.907 245 120.476 245 134C245 147.525 236.62 159.093 224.762 163.766Z" fill="#F30040"/>
<path d="M201.238 163.766C189.38 159.093 181 147.525 181 134C181 120.476 189.38 108.907 201.238 104.234V163.766Z" fill="#14439E"/>
<path d="M213 166C208.846 166 204.873 165.215 201.238 163.766V104.234C204.873 102.785 208.846 102 213 102C217.154 102 221.127 102.785 224.761 104.234V163.766C221.127 165.215 217.154 166 213 166Z" fill="white"/>
</g>
<g clip-path="url(#clip1_2368_14515)">
<path d="M201 245C201 262.668 186.681 276.992 169.015 277H168.669C167.118 276.984 165.57 276.856 164.037 276.617C162.782 276.423 161.54 276.154 160.317 275.809C153.605 273.915 147.695 269.881 143.486 264.319C139.277 258.758 137 251.974 137 245C137 227.329 151.323 213 169 213H169.015C173.368 212.996 177.676 213.883 181.674 215.607C185.672 217.331 189.274 219.854 192.26 223.023C197.875 228.962 201.003 236.826 201 245Z" fill="white"/>
<path d="M160.924 235.483V236.923H156.272L143.206 226.057C144.013 224.959 144.891 223.913 145.832 222.927L160.924 235.483Z" fill="#C8102E"/>
<path d="M194.836 226.116L181.846 236.916H177.076V235.58L192.22 222.981L192.26 223.023C193.133 223.943 193.95 224.915 194.706 225.933L194.836 226.116Z" fill="#C8102E"/>
<path d="M160.924 253.075V254.515L145.832 267.073C145.699 266.94 145.565 266.796 145.44 266.656C144.646 265.793 143.9 264.888 143.207 263.943L156.273 253.075H160.924Z" fill="#C8102E"/>
<path d="M194.838 263.883C194.033 264.982 193.159 266.029 192.222 267.017L177.076 254.417V253.075H181.846L194.838 263.883Z" fill="#C8102E"/>
<path d="M149.78 236.923H138.028C138.695 234.362 139.681 231.896 140.961 229.58L149.78 236.923Z" fill="#012169"/>
<path d="M149.514 253.075L140.866 260.267C139.631 257.994 138.677 255.579 138.028 253.075H149.514Z" fill="#012169"/>
<path d="M160.924 259.837V275.971C160.721 275.919 160.524 275.864 160.317 275.807C156.124 274.626 152.217 272.598 148.838 269.849L160.924 259.837Z" fill="#012169"/>
<path d="M160.924 214.028V229.908L149.019 220.004C152.522 217.196 156.579 215.16 160.924 214.028Z" fill="#012169"/>
<path d="M189.164 220.153L177.076 230.173V214.029L177.258 214.076C181.612 215.237 185.67 217.309 189.164 220.153Z" fill="#012169"/>
<path d="M199.972 236.923H188.505L197.133 229.744C198.368 232.012 199.321 234.423 199.972 236.923Z" fill="#012169"/>
<path d="M189.267 269.771C185.701 272.694 181.544 274.81 177.083 275.972V259.635L189.267 269.771Z" fill="#012169"/>
<path d="M199.972 253.075C199.336 255.518 198.412 257.878 197.219 260.103L188.772 253.075H199.972Z" fill="#012169"/>
<path d="M201 244.665V245.304C200.986 246.796 200.869 248.285 200.649 249.761H173.761V276.648C172.295 276.867 170.815 276.984 169.332 277H168.665C167.182 276.985 165.702 276.867 164.235 276.647V249.761H137.352C137.133 248.293 137.016 246.811 137 245.327C137 245.117 137 244.907 137 244.696C137.014 243.203 137.131 241.714 137.351 240.237H164.239V213.352C165.635 213.143 167.043 213.026 168.455 213H169.487C170.834 213.019 172.178 213.123 173.512 213.312L173.761 213.349V240.237H200.648C200.867 241.704 200.984 243.183 201 244.665Z" fill="#C8102E"/>
</g>
<g clip-path="url(#clip2_2368_14515)">
<path fill-rule="evenodd" clip-rule="evenodd" d="M90.1045 175.43H149.896C145.294 187.458 133.646 196 120 196C106.355 196 94.706 187.458 90.1045 175.43Z" fill="#D80027"/>
<path fill-rule="evenodd" clip-rule="evenodd" d="M149.896 152.57H90.1045C94.706 140.542 106.354 132 120 132C133.646 132 145.294 140.542 149.896 152.57Z" fill="#D80027"/>
<path fill-rule="evenodd" clip-rule="evenodd" d="M90.1044 152.57H149.896C152.701 159.932 152.701 168.068 149.896 175.43H90.1044C87.2985 168.068 87.2985 159.932 90.1044 152.57Z" fill="#FFDA44"/>
</g>
<rect x="275" y="132" width="64" height="64" rx="32" fill="#F5F5F5"/>
<path fill-rule="evenodd" clip-rule="evenodd" d="M306.51 179C314.773 179 321.5 172.269 321.5 164C321.5 155.731 314.773 149 306.51 149C298.247 149 291.5 155.731 291.5 164C291.5 172.269 298.247 179 306.51 179Z" fill="#DB1F26"/>
<g clip-path="url(#clip3_2368_14515)">
<path d="M56 278C73.6731 278 88 263.673 88 246C88 228.327 73.6731 214 56 214C38.3269 214 24 228.327 24 246C24 263.673 38.3269 278 56 278Z" fill="#EE1C25"/>
<path d="M73.0901 251.052L69.9477 251.001L68.9258 248.031L67.9061 251.001L64.7637 251.054L67.2746 252.94L66.3551 255.941L68.9279 254.139L71.5007 255.941L70.5791 252.94L73.0901 251.052Z" fill="#FFFF00"/>
<path d="M61.5656 236.884L61.6168 233.742L64.5864 232.72L61.6168 231.698L61.5634 228.556L59.6776 231.067L56.6738 230.149L58.4786 232.722L56.6738 235.295L59.6776 234.371L61.5656 236.884Z" fill="#FFFF00"/>
<path d="M61.5656 263.444L61.6168 260.302L64.5864 259.28L61.6168 258.258L61.5634 255.116L59.6776 257.627L56.6738 256.709L58.4786 259.282L56.6738 261.855L59.6776 260.931L61.5656 263.444Z" fill="#FFFF00"/>
<path d="M70.1929 240.746L71.571 237.923L68.7486 239.301L66.4894 237.117L66.9311 240.225L64.1577 241.699L67.2532 242.243L67.7972 245.339L69.267 242.563L72.3774 243.003L70.1929 240.746Z" fill="#FFFF00"/>
<path d="M52.8234 242.19L44.3519 242.049L41.5978 234.045L38.8458 242.051L30.3765 242.194L37.1455 247.282L34.6666 255.378L41.6021 250.516L48.5397 255.374L46.0565 247.28L52.8234 242.19Z" fill="#FFFF00"/>
</g>
<g clip-path="url(#clip4_2368_14515)">
<path d="M299.766 234.238H240.234C244.907 222.38 256.475 214 270 214C283.524 214 295.093 222.38 299.766 234.238Z" fill="#020202"/>
<path d="M299.766 257.762C295.093 269.62 283.524 278 270 278C256.475 278 244.907 269.62 240.234 257.762H299.766Z" fill="#FFDD00"/>
<path d="M302 246C302 250.154 301.215 254.127 299.766 257.762H240.234C238.785 254.127 238 250.154 238 246C238 241.846 238.785 237.873 240.234 234.239H299.766C301.215 237.873 302 241.846 302 246Z" fill="#F30040"/>
</g>
<g clip-path="url(#clip5_2368_14515)">
<path d="M339 246C339 259.759 347.684 271.488 359.869 276.009L362.652 246L359.869 215.99C347.684 220.512 339 232.241 339 246Z" fill="#6DA544"/>
<path d="M403 246C403 228.327 388.673 214 371 214C367.086 214 363.336 214.704 359.869 215.99V276.01C363.336 277.296 367.086 278 371 278C388.673 278 403 263.673 403 246Z" fill="#D80027"/>
<path d="M359.87 257.13C366.017 257.13 371 252.147 371 246C371 239.853 366.017 234.87 359.87 234.87C353.722 234.87 348.739 239.853 348.739 246C348.739 252.147 353.722 257.13 359.87 257.13Z" fill="#FFDA44"/>
<path d="M353.609 240.435V247.391C353.609 250.849 356.412 253.652 359.87 253.652C363.328 253.652 366.131 250.849 366.131 247.391V240.435H353.609Z" fill="#D80027"/>
<path d="M359.87 249.478C358.719 249.478 357.783 248.542 357.783 247.391V244.609H361.957V247.391C361.957 248.542 361.02 249.478 359.87 249.478Z" fill="#F0F0F0"/>
</g>
<path d="M175.918 311H177.318V321H175.918L175.868 319.14C175.541 319.773 175.085 320.287 174.498 320.68C173.911 321.067 173.211 321.26 172.398 321.26C171.665 321.26 170.978 321.123 170.338 320.85C169.698 320.57 169.135 320.187 168.648 319.7C168.161 319.213 167.781 318.65 167.508 318.01C167.235 317.37 167.098 316.683 167.098 315.95C167.098 315.23 167.231 314.553 167.498 313.92C167.771 313.287 168.145 312.73 168.618 312.25C169.098 311.77 169.651 311.397 170.278 311.13C170.911 310.857 171.588 310.72 172.308 310.72C173.141 310.72 173.868 310.92 174.488 311.32C175.108 311.713 175.601 312.23 175.968 312.87L175.918 311ZM172.368 319.9C173.081 319.9 173.695 319.727 174.208 319.38C174.721 319.027 175.115 318.553 175.388 317.96C175.668 317.367 175.808 316.713 175.808 316C175.808 315.267 175.668 314.607 175.388 314.02C175.108 313.427 174.711 312.957 174.198 312.61C173.685 312.263 173.075 312.09 172.368 312.09C171.661 312.09 171.015 312.267 170.428 312.62C169.848 312.967 169.385 313.437 169.038 314.03C168.698 314.623 168.528 315.28 168.528 316C168.528 316.727 168.705 317.387 169.058 317.98C169.411 318.567 169.878 319.033 170.458 319.38C171.045 319.727 171.681 319.9 172.368 319.9ZM188.039 314.81V321H186.639V315.09C186.639 314.543 186.506 314.047 186.239 313.6C185.972 313.153 185.616 312.797 185.169 312.53C184.722 312.263 184.226 312.13 183.679 312.13C183.139 312.13 182.642 312.263 182.189 312.53C181.742 312.797 181.386 313.153 181.119 313.6C180.852 314.047 180.719 314.543 180.719 315.09V321H179.319V311H180.719V312.38C181.072 311.873 181.532 311.47 182.099 311.17C182.666 310.87 183.282 310.72 183.949 310.72C184.702 310.72 185.389 310.903 186.009 311.27C186.629 311.637 187.122 312.13 187.489 312.75C187.856 313.37 188.039 314.057 188.039 314.81ZM198.076 306H199.476V321H198.076V319.13C197.73 319.77 197.253 320.287 196.646 320.68C196.046 321.067 195.333 321.26 194.506 321.26C193.78 321.26 193.1 321.123 192.466 320.85C191.833 320.577 191.273 320.2 190.786 319.72C190.306 319.233 189.93 318.673 189.656 318.04C189.383 317.407 189.246 316.727 189.246 316C189.246 315.273 189.383 314.593 189.656 313.96C189.93 313.32 190.306 312.76 190.786 312.28C191.273 311.793 191.833 311.413 192.466 311.14C193.1 310.867 193.78 310.73 194.506 310.73C195.333 310.73 196.046 310.927 196.646 311.32C197.253 311.707 197.73 312.217 198.076 312.85V306ZM194.516 319.9C195.23 319.9 195.843 319.727 196.356 319.38C196.87 319.027 197.263 318.553 197.536 317.96C197.816 317.367 197.956 316.713 197.956 316C197.956 315.267 197.816 314.607 197.536 314.02C197.256 313.427 196.86 312.957 196.346 312.61C195.833 312.263 195.223 312.09 194.516 312.09C193.81 312.09 193.166 312.267 192.586 312.62C192.006 312.967 191.543 313.437 191.196 314.03C190.85 314.623 190.676 315.28 190.676 316C190.676 316.727 190.853 317.387 191.206 317.98C191.56 318.567 192.026 319.033 192.606 319.38C193.193 319.727 193.83 319.9 194.516 319.9ZM211.082 321.26C210.162 321.26 209.322 321.023 208.562 320.55C207.809 320.077 207.206 319.443 206.752 318.65C206.306 317.85 206.082 316.967 206.082 316C206.082 315.267 206.212 314.583 206.472 313.95C206.732 313.31 207.089 312.75 207.542 312.27C208.002 311.783 208.536 311.403 209.142 311.13C209.749 310.857 210.396 310.72 211.082 310.72C212.002 310.72 212.839 310.957 213.592 311.43C214.352 311.903 214.956 312.54 215.402 313.34C215.856 314.14 216.082 315.027 216.082 316C216.082 316.727 215.952 317.407 215.692 318.04C215.432 318.673 215.072 319.233 214.612 319.72C214.159 320.2 213.629 320.577 213.022 320.85C212.422 321.123 211.776 321.26 211.082 321.26ZM211.082 319.86C211.762 319.86 212.372 319.683 212.912 319.33C213.459 318.97 213.889 318.497 214.202 317.91C214.522 317.323 214.682 316.687 214.682 316C214.682 315.3 214.522 314.657 214.202 314.07C213.882 313.477 213.449 313.003 212.902 312.65C212.362 312.297 211.756 312.12 211.082 312.12C210.402 312.12 209.789 312.3 209.242 312.66C208.702 313.013 208.272 313.483 207.952 314.07C207.639 314.657 207.482 315.3 207.482 316C207.482 316.72 207.646 317.373 207.972 317.96C208.299 318.54 208.736 319.003 209.282 319.35C209.829 319.69 210.429 319.86 211.082 319.86ZM222.71 312.4H220.32L220.31 321H218.91L218.92 312.4H217.11V311H218.92L218.91 307.86H220.31L220.32 311H222.71V312.4ZM233.215 314.81V321H231.815V315.09C231.815 314.543 231.682 314.047 231.415 313.6C231.148 313.153 230.792 312.797 230.345 312.53C229.898 312.263 229.402 312.13 228.855 312.13C228.315 312.13 227.818 312.263 227.365 312.53C226.918 312.797 226.562 313.153 226.295 313.6C226.028 314.047 225.895 314.543 225.895 315.09V321H224.495V306H225.895V312.38C226.248 311.873 226.708 311.47 227.275 311.17C227.842 310.87 228.458 310.72 229.125 310.72C229.878 310.72 230.565 310.903 231.185 311.27C231.805 311.637 232.298 312.13 232.665 312.75C233.032 313.37 233.215 314.057 233.215 314.81ZM239.422 321.26C238.502 321.26 237.662 321.023 236.902 320.55C236.149 320.077 235.546 319.443 235.092 318.65C234.646 317.85 234.422 316.967 234.422 316C234.422 315.267 234.552 314.583 234.812 313.95C235.072 313.31 235.429 312.75 235.882 312.27C236.342 311.783 236.876 311.403 237.482 311.13C238.089 310.857 238.736 310.72 239.422 310.72C240.162 310.72 240.842 310.867 241.462 311.16C242.089 311.453 242.626 311.863 243.072 312.39C243.526 312.917 243.866 313.533 244.092 314.24C244.326 314.947 244.422 315.71 244.382 316.53H235.902C235.982 317.163 236.182 317.73 236.502 318.23C236.829 318.73 237.242 319.127 237.742 319.42C238.249 319.707 238.809 319.853 239.422 319.86C240.089 319.86 240.689 319.687 241.222 319.34C241.762 318.993 242.196 318.517 242.522 317.91L243.942 318.24C243.542 319.127 242.939 319.853 242.132 320.42C241.326 320.98 240.422 321.26 239.422 321.26ZM235.862 315.4H242.972C242.926 314.78 242.736 314.213 242.402 313.7C242.076 313.18 241.652 312.767 241.132 312.46C240.612 312.147 240.042 311.99 239.422 311.99C238.802 311.99 238.236 312.143 237.722 312.45C237.209 312.75 236.789 313.16 236.462 313.68C236.136 314.193 235.936 314.767 235.862 315.4ZM246.096 321V311H247.496V312.38C247.85 311.873 248.31 311.47 248.876 311.17C249.443 310.87 250.06 310.72 250.726 310.72C251.113 310.72 251.486 310.77 251.846 310.87L251.276 312.26C250.996 312.173 250.723 312.13 250.456 312.13C249.916 312.13 249.42 312.263 248.966 312.53C248.52 312.797 248.163 313.153 247.896 313.6C247.63 314.047 247.496 314.543 247.496 315.09V321H246.096ZM256.198 321.19C255.652 321.177 255.118 321.077 254.598 320.89C254.078 320.703 253.625 320.45 253.238 320.13C252.852 319.81 252.575 319.447 252.408 319.04L253.618 318.52C253.725 318.78 253.922 319.02 254.208 319.24C254.502 319.453 254.835 319.627 255.208 319.76C255.582 319.887 255.952 319.95 256.318 319.95C256.725 319.95 257.105 319.883 257.458 319.75C257.812 319.617 258.098 319.427 258.318 319.18C258.545 318.927 258.658 318.63 258.658 318.29C258.658 317.923 258.538 317.637 258.298 317.43C258.058 317.217 257.755 317.05 257.388 316.93C257.022 316.803 256.645 316.683 256.258 316.57C255.552 316.377 254.928 316.163 254.388 315.93C253.848 315.697 253.425 315.4 253.118 315.04C252.818 314.673 252.668 314.203 252.668 313.63C252.668 313.023 252.838 312.5 253.178 312.06C253.525 311.613 253.975 311.27 254.528 311.03C255.088 310.783 255.685 310.66 256.318 310.66C257.132 310.66 257.872 310.837 258.538 311.19C259.212 311.543 259.698 312.013 259.998 312.6L258.868 313.27C258.748 312.997 258.558 312.76 258.298 312.56C258.038 312.36 257.742 312.203 257.408 312.09C257.082 311.977 256.748 311.917 256.408 311.91C255.982 311.903 255.585 311.967 255.218 312.1C254.852 312.227 254.555 312.417 254.328 312.67C254.108 312.923 253.998 313.233 253.998 313.6C253.998 313.967 254.108 314.247 254.328 314.44C254.548 314.627 254.845 314.78 255.218 314.9C255.598 315.013 256.025 315.147 256.498 315.3C257.105 315.493 257.675 315.713 258.208 315.96C258.742 316.207 259.172 316.513 259.498 316.88C259.825 317.247 259.985 317.71 259.978 318.27C259.978 318.87 259.798 319.393 259.438 319.84C259.078 320.287 258.612 320.63 258.038 320.87C257.465 321.103 256.852 321.21 256.198 321.19Z" fill="#535662"/>
<defs>
<clipPath id="clip0_2368_14515">
<rect width="64" height="64" fill="white" transform="translate(181 102)"/>
</clipPath>
<clipPath id="clip1_2368_14515">
<rect width="64" height="64" fill="white" transform="translate(137 213)"/>
</clipPath>
<clipPath id="clip2_2368_14515">
<rect width="64" height="64" fill="white" transform="translate(88 132)"/>
</clipPath>
<clipPath id="clip3_2368_14515">
<rect width="64" height="64" fill="white" transform="translate(24 214)"/>
</clipPath>
<clipPath id="clip4_2368_14515">
<rect width="64" height="64" fill="white" transform="translate(238 214)"/>
</clipPath>
<clipPath id="clip5_2368_14515">
<rect width="64" height="64" fill="white" transform="translate(339 214)"/>
</clipPath>
</defs>
</svg>
