<svg width="20" height="20" viewBox="0 0 20 20" fill="none" xmlns="http://www.w3.org/2000/svg">
<path d="M15.7687 8.91875C15.798 8.9478 15.8213 8.98236 15.8372 9.02044C15.853 9.05853 15.8612 9.09937 15.8612 9.14062C15.8612 9.18188 15.853 9.22272 15.8372 9.26081C15.8213 9.29889 15.798 9.33345 15.7687 9.3625L14.2062 10.925C14.148 10.9827 14.0695 11.0153 13.9875 11.0156C13.9464 11.0159 13.9056 11.008 13.8675 10.9924C13.8295 10.9769 13.7948 10.954 13.7656 10.925L13.1406 10.3C13.1113 10.2709 13.0881 10.2364 13.0722 10.1983C13.0564 10.1602 13.0482 10.1194 13.0482 10.0781C13.0482 10.0369 13.0564 9.99603 13.0722 9.95794C13.0881 9.91986 13.1113 9.8853 13.1406 9.85625C13.1992 9.79805 13.2784 9.76538 13.3609 9.76538C13.4435 9.76538 13.5227 9.79805 13.5812 9.85625L13.9969 10.2719L15.3375 8.92812C15.3944 8.87144 15.4709 8.83885 15.5512 8.8371C15.6315 8.83535 15.7094 8.86459 15.7687 8.91875ZM3.75 6.875V5C3.75 4.75136 3.84877 4.5129 4.02459 4.33709C4.2004 4.16127 4.43886 4.0625 4.6875 4.0625H6.5625C6.81114 4.0625 7.0496 4.16127 7.22541 4.33709C7.40123 4.5129 7.5 4.75136 7.5 5V6.875C7.5 7.12364 7.40123 7.3621 7.22541 7.53791C7.0496 7.71373 6.81114 7.8125 6.5625 7.8125H4.6875C4.43886 7.8125 4.2004 7.71373 4.02459 7.53791C3.84877 7.3621 3.75 7.12364 3.75 6.875ZM4.375 6.875C4.375 6.95788 4.40792 7.03737 4.46653 7.09597C4.52513 7.15458 4.60462 7.1875 4.6875 7.1875H6.5625C6.64538 7.1875 6.72487 7.15458 6.78347 7.09597C6.84208 7.03737 6.875 6.95788 6.875 6.875V5C6.875 4.91712 6.84208 4.83763 6.78347 4.77903C6.72487 4.72042 6.64538 4.6875 6.5625 4.6875H4.6875C4.60462 4.6875 4.52513 4.72042 4.46653 4.77903C4.40792 4.83763 4.375 4.91712 4.375 5V6.875ZM9.0625 5.625H11.25C11.3329 5.625 11.4124 5.59208 11.471 5.53347C11.5296 5.47487 11.5625 5.39538 11.5625 5.3125C11.5625 5.22962 11.5296 5.15013 11.471 5.09153C11.4124 5.03292 11.3329 5 11.25 5H9.0625C8.97962 5 8.90013 5.03292 8.84153 5.09153C8.78292 5.15013 8.75 5.22962 8.75 5.3125C8.75 5.39538 8.78292 5.47487 8.84153 5.53347C8.90013 5.59208 8.97962 5.625 9.0625 5.625ZM9.0625 6.875H11.25C11.3329 6.875 11.4124 6.84208 11.471 6.78347C11.5296 6.72487 11.5625 6.64538 11.5625 6.5625C11.5625 6.47962 11.5296 6.40013 11.471 6.34153C11.4124 6.28292 11.3329 6.25 11.25 6.25H9.0625C8.97962 6.25 8.90013 6.28292 8.84153 6.34153C8.78292 6.40013 8.75 6.47962 8.75 6.5625C8.75 6.64538 8.78292 6.72487 8.84153 6.78347C8.90013 6.84208 8.97962 6.875 9.0625 6.875ZM7.8125 15.625H4.0625C3.97962 15.625 3.90013 15.6579 3.84153 15.7165C3.78292 15.7751 3.75 15.8546 3.75 15.9375C3.75 16.0204 3.78292 16.0999 3.84153 16.1585C3.90013 16.2171 3.97962 16.25 4.0625 16.25H7.8125C7.89538 16.25 7.97487 16.2171 8.03347 16.1585C8.09208 16.0999 8.125 16.0204 8.125 15.9375C8.125 15.8546 8.09208 15.7751 8.03347 15.7165C7.97487 15.6579 7.89538 15.625 7.8125 15.625ZM9.0625 14.375H4.0625C3.97962 14.375 3.90013 14.4079 3.84153 14.4665C3.78292 14.5251 3.75 14.6046 3.75 14.6875C3.75 14.7704 3.78292 14.8499 3.84153 14.9085C3.90013 14.9671 3.97962 15 4.0625 15H9.0625C9.14538 15 9.22487 14.9671 9.28347 14.9085C9.34208 14.8499 9.375 14.7704 9.375 14.6875C9.375 14.6046 9.34208 14.5251 9.28347 14.4665C9.22487 14.4079 9.14538 14.375 9.0625 14.375ZM4.0625 13.75H7.8125C7.89538 13.75 7.97487 13.7171 8.03347 13.6585C8.09208 13.5999 8.125 13.5204 8.125 13.4375C8.125 13.3546 8.09208 13.2751 8.03347 13.2165C7.97487 13.1579 7.89538 13.125 7.8125 13.125H4.0625C3.97962 13.125 3.90013 13.1579 3.84153 13.2165C3.78292 13.2751 3.75 13.3546 3.75 13.4375C3.75 13.5204 3.78292 13.5999 3.84153 13.6585C3.90013 13.7171 3.97962 13.75 4.0625 13.75ZM14.6875 13.4375V15.9375C14.687 16.3022 14.559 16.6553 14.3255 16.9355C14.0921 17.2158 13.768 17.4055 13.4094 17.4719C13.343 17.8305 13.1533 18.1546 12.873 18.388C12.5928 18.6215 12.2397 18.7495 11.875 18.75H3.75C3.3356 18.75 2.93817 18.5854 2.64515 18.2924C2.35212 17.9993 2.1875 17.6019 2.1875 17.1875V4.0625C2.18797 3.69778 2.31602 3.34471 2.54945 3.06448C2.78289 2.78425 3.107 2.5945 3.46563 2.52813C3.532 2.1695 3.72175 1.84539 4.00198 1.61195C4.28221 1.37852 4.63528 1.25047 5 1.25H13.125C13.5394 1.25 13.9368 1.41462 14.2299 1.70765C14.5229 2.00067 14.6875 2.3981 14.6875 2.8125V6.57812C15.5571 6.63685 16.3719 7.02372 16.9671 7.66045C17.5623 8.29718 17.8934 9.13623 17.8934 10.0078C17.8934 10.8794 17.5623 11.7184 16.9671 12.3552C16.3719 12.9919 15.5571 13.3788 14.6875 13.4375ZM4.11875 2.5H11.875C12.2894 2.5 12.6868 2.66462 12.9799 2.95765C13.2729 3.25067 13.4375 3.6481 13.4375 4.0625V6.69688C13.6414 6.63663 13.8507 6.59685 14.0625 6.57812V2.8125C14.0625 2.56386 13.9637 2.3254 13.7879 2.14959C13.6121 1.97377 13.3736 1.875 13.125 1.875H5C4.80658 1.87554 4.61806 1.9359 4.46029 2.04779C4.30252 2.15969 4.18322 2.31764 4.11875 2.5ZM12.8125 17.1875V13.0594C12.2494 12.7709 11.7769 12.3326 11.4469 11.7928C11.117 11.253 10.9424 10.6327 10.9424 10C10.9424 9.36734 11.117 8.74695 11.4469 8.20715C11.7769 7.66736 12.2494 7.22909 12.8125 6.94062V4.0625C12.8125 3.81386 12.7137 3.5754 12.5379 3.39959C12.3621 3.22377 12.1236 3.125 11.875 3.125H3.75C3.50136 3.125 3.2629 3.22377 3.08709 3.39959C2.91127 3.5754 2.8125 3.81386 2.8125 4.0625V17.1875C2.8125 17.4361 2.91127 17.6746 3.08709 17.8504C3.2629 18.0262 3.50136 18.125 3.75 18.125H11.875C12.1236 18.125 12.3621 18.0262 12.5379 17.8504C12.7137 17.6746 12.8125 17.4361 12.8125 17.1875ZM14.0625 15.9375V13.4375C13.8507 13.4188 13.6414 13.379 13.4375 13.3187V16.8188C13.6199 16.7543 13.7778 16.635 13.8897 16.4772C14.0016 16.3194 14.062 16.1309 14.0625 15.9375ZM17.1875 10C17.1875 9.44374 17.0225 8.89997 16.7135 8.43746C16.4045 7.97495 15.9652 7.61446 15.4513 7.40159C14.9374 7.18872 14.3719 7.13302 13.8263 7.24154C13.2807 7.35006 12.7796 7.61793 12.3863 8.01126C11.9929 8.4046 11.7251 8.90574 11.6165 9.45131C11.508 9.99688 11.5637 10.5624 11.7766 11.0763C11.9895 11.5902 12.3499 12.0295 12.8125 12.3385C13.275 12.6475 13.8187 12.8125 14.375 12.8125C15.1209 12.8125 15.8363 12.5162 16.3637 11.9887C16.8912 11.4613 17.1875 10.7459 17.1875 10Z" fill="black"/>
</svg>
