<svg width="24" height="24" viewBox="0 0 24 24" fill="none" xmlns="http://www.w3.org/2000/svg">
<g clip-path="url(#clip0_1905_10329)">
<path d="M21 18.7501C20.5545 18.7508 20.1193 18.8838 19.7494 19.1321C19.3796 19.3805 19.0918 19.733 18.9225 20.1451L16.095 19.6726C15.9507 19.6493 15.8163 19.5844 15.7084 19.4858C15.6004 19.3872 15.5237 19.2592 15.4875 19.1176L15 17.1826C16.1524 16.5136 17.0515 15.4827 17.5575 14.2501H20.625C21.2582 14.2537 21.8714 14.0284 22.3515 13.6156C22.8316 13.2028 23.1464 12.6303 23.2377 12.0038C23.3291 11.3772 23.1908 10.7387 22.8485 10.206C22.5062 9.67333 21.9829 9.28232 21.375 9.10506V9.00006C21.3717 8.13815 21.0717 7.30368 20.5253 6.63707C19.9789 5.97047 19.2195 5.51244 18.375 5.34006C17.9144 4.01637 17.0531 2.8689 15.9107 2.05689C14.7684 1.24487 13.4016 0.808594 12 0.808594C10.5985 0.808594 9.23166 1.24487 8.0893 2.05689C6.94694 2.8689 6.08567 4.01637 5.62502 5.34006C4.78051 5.51244 4.02117 5.97047 3.47477 6.63707C2.92838 7.30368 2.62829 8.13815 2.62502 9.00006V9.10506C2.01714 9.28232 1.49382 9.67333 1.15152 10.206C0.809209 10.7387 0.670986 11.3772 0.762323 12.0038C0.85366 12.6303 1.1684 13.2028 1.64854 13.6156C2.12867 14.0284 2.74184 14.2537 3.37502 14.2501H6.44252C6.94852 15.4827 7.84762 16.5136 9.00002 17.1826L8.52002 19.1176C8.48387 19.2592 8.40711 19.3872 8.29918 19.4858C8.19125 19.5844 8.05685 19.6493 7.91252 19.6726L5.08502 20.1451C4.88563 19.6532 4.51882 19.2477 4.04939 19.0002C3.57997 18.7526 3.03815 18.679 2.51968 18.7922C2.00121 18.9055 1.53946 19.1984 1.21602 19.6191C0.892587 20.0399 0.72828 20.5614 0.752137 21.0916C0.775994 21.6217 0.98648 22.1264 1.3464 22.5164C1.70632 22.9064 2.19251 23.1566 2.71906 23.2228C3.24561 23.2891 3.77862 23.167 4.22391 22.8783C4.6692 22.5896 4.99811 22.1528 5.15252 21.6451L8.15252 21.1426C8.58131 21.0732 8.98086 20.8812 9.30293 20.5897C9.625 20.2983 9.85581 19.9198 9.96752 19.5001L10.395 17.7976C10.6758 17.8745 10.9614 17.9321 11.25 17.9701V23.2501H12.75V17.9476C13.0386 17.9096 13.3243 17.852 13.605 17.7751L14.0325 19.5001C14.1392 19.9254 14.3678 20.3102 14.6902 20.6074C15.0127 20.9045 15.4149 21.101 15.8475 21.1726L18.8475 21.6751C18.9722 22.0715 19.2042 22.4257 19.5179 22.6983C19.8316 22.9709 20.2147 23.1513 20.6246 23.2196C21.0346 23.2878 21.4554 23.2411 21.8405 23.0847C22.2255 22.9283 22.5597 22.6684 22.8061 22.3336C23.0524 21.9989 23.2012 21.6025 23.236 21.1884C23.2708 20.7742 23.1902 20.3586 23.0031 19.9874C22.8161 19.6163 22.5299 19.3042 22.1763 19.0858C21.8228 18.8674 21.4156 18.7512 21 18.7501ZM3.00002 21.7501C2.85168 21.7501 2.70668 21.7061 2.58334 21.6237C2.46 21.5413 2.36388 21.4241 2.30711 21.2871C2.25034 21.15 2.23549 20.9992 2.26443 20.8537C2.29337 20.7083 2.3648 20.5746 2.46969 20.4697C2.57458 20.3648 2.70822 20.2934 2.8537 20.2645C2.99919 20.2355 3.14999 20.2504 3.28703 20.3072C3.42408 20.3639 3.54121 20.46 3.62362 20.5834C3.70603 20.7067 3.75002 20.8517 3.75002 21.0001C3.75002 21.199 3.671 21.3897 3.53035 21.5304C3.3897 21.671 3.19893 21.7501 3.00002 21.7501ZM14.52 11.8201C14.5859 11.5933 14.6212 11.3587 14.625 11.1226C14.625 10.4264 14.3485 9.75869 13.8562 9.26641C13.3639 8.77413 12.6962 8.49756 12 8.49756C11.3038 8.49756 10.6361 8.77413 10.1439 9.26641C9.65158 9.75869 9.37502 10.4264 9.37502 11.1226C9.37884 11.3587 9.41415 11.5933 9.48002 11.8201C8.79134 12.1359 8.17001 12.5815 7.65002 13.1326C7.55037 12.7633 7.49993 12.3825 7.50002 12.0001C7.50002 10.8066 7.97412 9.662 8.81804 8.81808C9.66195 7.97417 10.8065 7.50006 12 7.50006C13.1935 7.50006 14.3381 7.97417 15.182 8.81808C16.0259 9.662 16.5 10.8066 16.5 12.0001C16.5001 12.3825 16.4497 12.7633 16.35 13.1326C15.83 12.5815 15.2087 12.1359 14.52 11.8201ZM13.125 11.1226C13.125 11.3451 13.059 11.5626 12.9354 11.7476C12.8118 11.9326 12.6361 12.0768 12.4305 12.1619C12.225 12.2471 11.9988 12.2694 11.7805 12.2259C11.5623 12.1825 11.3619 12.0754 11.2045 11.9181C11.0472 11.7607 10.94 11.5603 10.8966 11.342C10.8532 11.1238 10.8755 10.8976 10.9607 10.692C11.0458 10.4865 11.19 10.3108 11.375 10.1872C11.56 10.0635 11.7775 9.99756 12 9.99756C12.2984 9.99756 12.5845 10.1161 12.7955 10.3271C13.0065 10.538 13.125 10.8242 13.125 11.1226ZM3.37502 12.7501C3.07665 12.7501 2.7905 12.6315 2.57952 12.4206C2.36855 12.2096 2.25002 11.9234 2.25002 11.6251C2.25002 11.3267 2.36855 11.0405 2.57952 10.8296C2.7905 10.6186 3.07665 10.5001 3.37502 10.5001H3.48002C3.59648 10.5038 3.7122 10.4803 3.81801 10.4315C3.92381 10.3827 4.0168 10.3099 4.08959 10.219C4.16237 10.128 4.21296 10.0213 4.23734 9.90735C4.26171 9.79342 4.25921 9.67536 4.23002 9.56256C4.16924 9.3808 4.13391 9.19151 4.12502 9.00006C4.12399 8.426 4.34242 7.87324 4.7356 7.45496C5.12879 7.03668 5.66699 6.78451 6.24002 6.75006C6.39871 6.74073 6.55033 6.68122 6.67301 6.58012C6.79568 6.47902 6.88305 6.34155 6.92252 6.18756C7.21742 5.06571 7.87556 4.0731 8.79415 3.36478C9.71274 2.65645 10.84 2.27229 12 2.27229C13.16 2.27229 14.2873 2.65645 15.2059 3.36478C16.1245 4.0731 16.7826 5.06571 17.0775 6.18756C17.117 6.34155 17.2044 6.47902 17.327 6.58012C17.4497 6.68122 17.6013 6.74073 17.76 6.75006C18.3331 6.78451 18.8713 7.03668 19.2644 7.45496C19.6576 7.87324 19.8761 8.426 19.875 9.00006C19.8734 9.19046 19.8457 9.37973 19.7925 9.56256C19.7633 9.67536 19.7608 9.79342 19.7852 9.90735C19.8096 10.0213 19.8602 10.128 19.933 10.219C20.0057 10.3099 20.0987 10.3827 20.2045 10.4315C20.3103 10.4803 20.4261 10.5038 20.5425 10.5001H20.6475C20.9459 10.5001 21.232 10.6186 21.443 10.8296C21.654 11.0405 21.7725 11.3267 21.7725 11.6251C21.7725 11.9234 21.654 12.2096 21.443 12.4206C21.232 12.6315 20.9459 12.7501 20.6475 12.7501H17.9475C17.9802 12.5014 17.9977 12.2509 18 12.0001C18 10.4088 17.3679 8.88264 16.2427 7.75742C15.1174 6.6322 13.5913 6.00006 12 6.00006C10.4087 6.00006 8.8826 6.6322 7.75738 7.75742C6.63216 8.88264 6.00002 10.4088 6.00002 12.0001C6.00232 12.2509 6.01985 12.5014 6.05252 12.7501H3.37502ZM8.36252 14.6401C8.85853 13.9697 9.53104 13.4504 10.305 13.1401C10.7741 13.5509 11.3764 13.7774 12 13.7774C12.6236 13.7774 13.2259 13.5509 13.695 13.1401C14.469 13.4504 15.1415 13.9697 15.6375 14.6401C15.22 15.2134 14.6728 15.6799 14.0406 16.0015C13.4085 16.3231 12.7093 16.4908 12 16.4908C11.2908 16.4908 10.5915 16.3231 9.95939 16.0015C9.32725 15.6799 8.78008 15.2134 8.36252 14.6401ZM21 21.7501C20.8517 21.7501 20.7067 21.7061 20.5833 21.6237C20.46 21.5413 20.3639 21.4241 20.3071 21.2871C20.2503 21.15 20.2355 20.9992 20.2644 20.8537C20.2934 20.7083 20.3648 20.5746 20.4697 20.4697C20.5746 20.3648 20.7082 20.2934 20.8537 20.2645C20.9992 20.2355 21.15 20.2504 21.287 20.3072C21.4241 20.3639 21.5412 20.46 21.6236 20.5834C21.706 20.7067 21.75 20.8517 21.75 21.0001C21.75 21.199 21.671 21.3897 21.5303 21.5304C21.3897 21.671 21.1989 21.7501 21 21.7501Z" fill="black"/>
</g>
<defs>
<clipPath id="clip0_1905_10329">
<rect width="24" height="24" fill="white"/>
</clipPath>
</defs>
</svg>
