<svg width="310" height="509" viewBox="0 0 310 509" fill="none" xmlns="http://www.w3.org/2000/svg" xmlns:xlink="http://www.w3.org/1999/xlink">
<rect width="310" height="509" rx="24" fill="#FAFAFA"/>
<rect width="310" height="509" rx="24" fill="url(#pattern0_3298_9785)" fill-opacity="0.02"/>
<g filter="url(#filter0_d_3298_9785)">
<rect x="77.5" y="124" width="158" height="41" rx="16" fill="white" shape-rendering="crispEdges"/>
<rect x="77.9596" y="124.46" width="157.081" height="40.0807" rx="15.5404" stroke="#0C1021" stroke-opacity="0.05" stroke-width="0.919289" shape-rendering="crispEdges"/>
<path d="M90.34 149L92.237 139.2H93.413L95.926 145.801L98.425 139.2H99.601L101.505 149H100.021L98.754 142.441L96.409 148.629H95.429L93.091 142.441L91.824 149H90.34ZM102.761 146.375V142H104.217V146.018C104.217 146.331 104.294 146.615 104.448 146.872C104.602 147.129 104.808 147.334 105.064 147.488C105.321 147.637 105.603 147.712 105.911 147.712C106.224 147.712 106.506 147.637 106.758 147.488C107.015 147.334 107.218 147.129 107.367 146.872C107.521 146.615 107.598 146.331 107.598 146.018V142H109.054L109.061 149H107.605L107.598 148.244C107.36 148.533 107.064 148.762 106.709 148.93C106.355 149.098 105.974 149.182 105.568 149.182C105.05 149.182 104.579 149.056 104.154 148.804C103.73 148.552 103.391 148.214 103.139 147.789C102.887 147.364 102.761 146.893 102.761 146.375ZM110.52 149V138.5H111.976V149H110.52ZM117.347 143.456H115.877L115.87 149H114.414L114.421 143.456H113.308V142H114.421L114.414 139.802H115.87L115.877 142H117.347V143.456ZM118.504 142H119.96V149H118.504V142ZM119.246 140.985C119.022 140.985 118.835 140.913 118.686 140.768C118.537 140.623 118.462 140.441 118.462 140.222C118.462 140.007 118.537 139.828 118.686 139.683C118.835 139.534 119.02 139.459 119.239 139.459C119.454 139.459 119.636 139.534 119.785 139.683C119.934 139.828 120.009 140.007 120.009 140.222C120.009 140.441 119.934 140.623 119.785 140.768C119.64 140.913 119.461 140.985 119.246 140.985ZM121.635 144.072H126.115V145.528H121.635V144.072ZM132.337 149.182C131.674 149.182 131.051 149.051 130.468 148.79C129.885 148.524 129.371 148.16 128.928 147.698C128.489 147.231 128.144 146.69 127.892 146.074C127.645 145.458 127.521 144.8 127.521 144.1C127.521 143.4 127.645 142.742 127.892 142.126C128.144 141.51 128.489 140.971 128.928 140.509C129.371 140.042 129.885 139.678 130.468 139.417C131.051 139.151 131.674 139.018 132.337 139.018C133.13 139.018 133.861 139.202 134.528 139.571C135.195 139.94 135.748 140.43 136.187 141.041L134.892 141.734C134.589 141.351 134.213 141.046 133.765 140.817C133.317 140.588 132.841 140.474 132.337 140.474C131.87 140.474 131.434 140.57 131.028 140.761C130.622 140.952 130.265 141.214 129.957 141.545C129.649 141.876 129.409 142.261 129.236 142.7C129.063 143.139 128.977 143.605 128.977 144.1C128.977 144.599 129.063 145.068 129.236 145.507C129.409 145.941 129.649 146.326 129.957 146.662C130.27 146.993 130.629 147.255 131.035 147.446C131.441 147.633 131.875 147.726 132.337 147.726C132.85 147.726 133.329 147.612 133.772 147.383C134.22 147.15 134.593 146.842 134.892 146.459L136.187 147.166C135.748 147.777 135.195 148.267 134.528 148.636C133.861 149 133.13 149.182 132.337 149.182ZM137.228 146.375V142H138.684V146.018C138.684 146.331 138.761 146.615 138.915 146.872C139.069 147.129 139.274 147.334 139.531 147.488C139.788 147.637 140.07 147.712 140.378 147.712C140.691 147.712 140.973 147.637 141.225 147.488C141.482 147.334 141.685 147.129 141.834 146.872C141.988 146.615 142.065 146.331 142.065 146.018V142H143.521L143.528 149H142.072L142.065 148.244C141.827 148.533 141.531 148.762 141.176 148.93C140.821 149.098 140.441 149.182 140.035 149.182C139.517 149.182 139.046 149.056 138.621 148.804C138.196 148.552 137.858 148.214 137.606 147.789C137.354 147.364 137.228 146.893 137.228 146.375ZM144.932 149V142H146.388V142.742C146.63 142.453 146.929 142.224 147.284 142.056C147.638 141.888 148.021 141.804 148.432 141.804C148.693 141.804 148.952 141.839 149.209 141.909L148.628 143.379C148.446 143.309 148.264 143.274 148.082 143.274C147.774 143.274 147.491 143.351 147.235 143.505C146.978 143.654 146.773 143.857 146.619 144.114C146.465 144.371 146.388 144.655 146.388 144.968V149H144.932ZM150.072 149V142H151.528V142.742C151.771 142.453 152.07 142.224 152.424 142.056C152.779 141.888 153.162 141.804 153.572 141.804C153.834 141.804 154.093 141.839 154.349 141.909L153.768 143.379C153.586 143.309 153.404 143.274 153.222 143.274C152.914 143.274 152.632 143.351 152.375 143.505C152.119 143.654 151.913 143.857 151.759 144.114C151.605 144.371 151.528 144.655 151.528 144.968V149H150.072ZM157.91 149.182C157.266 149.182 156.678 149.016 156.146 148.685C155.619 148.354 155.197 147.91 154.879 147.355C154.567 146.795 154.41 146.177 154.41 145.5C154.41 144.987 154.501 144.508 154.683 144.065C154.865 143.617 155.115 143.225 155.432 142.889C155.754 142.548 156.128 142.282 156.552 142.091C156.977 141.9 157.43 141.804 157.91 141.804C158.447 141.804 158.939 141.916 159.387 142.14C159.835 142.359 160.218 142.665 160.535 143.057C160.853 143.444 161.086 143.892 161.235 144.401C161.385 144.905 161.429 145.442 161.368 146.011H155.971C156.032 146.333 156.149 146.625 156.321 146.886C156.499 147.143 156.723 147.346 156.993 147.495C157.269 147.644 157.574 147.721 157.91 147.726C158.265 147.726 158.587 147.637 158.876 147.46C159.17 147.283 159.411 147.038 159.597 146.725L161.074 147.068C160.794 147.689 160.372 148.197 159.807 148.594C159.243 148.986 158.61 149.182 157.91 149.182ZM155.922 144.898H159.898C159.852 144.562 159.733 144.259 159.541 143.988C159.355 143.713 159.119 143.496 158.834 143.337C158.554 143.174 158.246 143.092 157.91 143.092C157.579 143.092 157.271 143.171 156.986 143.33C156.706 143.489 156.473 143.706 156.286 143.981C156.104 144.252 155.983 144.557 155.922 144.898ZM168.828 144.611V149H167.372V144.968C167.372 144.655 167.295 144.371 167.141 144.114C166.991 143.857 166.788 143.654 166.532 143.505C166.28 143.351 165.995 143.274 165.678 143.274C165.37 143.274 165.087 143.351 164.831 143.505C164.574 143.654 164.369 143.857 164.215 144.114C164.061 144.371 163.984 144.655 163.984 144.968V149H162.528V142H163.984V142.742C164.226 142.453 164.525 142.224 164.88 142.056C165.234 141.888 165.617 141.804 166.028 141.804C166.546 141.804 167.017 141.93 167.442 142.182C167.866 142.434 168.202 142.772 168.45 143.197C168.702 143.622 168.828 144.093 168.828 144.611ZM174.659 147.012L175.961 147.719C175.644 148.162 175.24 148.517 174.75 148.783C174.265 149.049 173.737 149.182 173.168 149.182C172.524 149.182 171.936 149.016 171.404 148.685C170.877 148.354 170.454 147.91 170.137 147.355C169.824 146.795 169.668 146.177 169.668 145.5C169.668 144.987 169.759 144.508 169.941 144.065C170.123 143.617 170.373 143.225 170.69 142.889C171.012 142.548 171.385 142.282 171.81 142.091C172.235 141.9 172.687 141.804 173.168 141.804C173.737 141.804 174.265 141.937 174.75 142.203C175.24 142.469 175.644 142.826 175.961 143.274L174.659 143.981C174.463 143.748 174.234 143.57 173.973 143.449C173.712 143.323 173.443 143.26 173.168 143.26C172.785 143.26 172.438 143.365 172.125 143.575C171.817 143.78 171.572 144.053 171.39 144.394C171.213 144.73 171.124 145.099 171.124 145.5C171.124 145.897 171.215 146.265 171.397 146.606C171.579 146.942 171.824 147.213 172.132 147.418C172.445 147.623 172.79 147.726 173.168 147.726C173.457 147.726 173.733 147.661 173.994 147.53C174.255 147.399 174.477 147.227 174.659 147.012ZM181.582 142H183.136L179.3 152.5H177.753L179.02 149L176.507 142H178.096L179.748 147.005L181.582 142ZM188.113 149V139.2H189.569V149H188.113ZM191.457 149V139.2H194.936C195.44 139.2 195.895 139.303 196.301 139.508C196.712 139.713 197.036 140.01 197.274 140.397C197.517 140.78 197.638 141.239 197.638 141.776C197.638 142.037 197.596 142.294 197.512 142.546C197.428 142.798 197.309 143.02 197.155 143.211C197.001 143.402 196.815 143.538 196.595 143.617C196.894 143.692 197.141 143.827 197.337 144.023C197.538 144.214 197.697 144.438 197.813 144.695C197.93 144.952 198.012 145.218 198.058 145.493C198.11 145.768 198.135 146.03 198.135 146.277C198.135 146.8 198.009 147.266 197.757 147.677C197.505 148.088 197.167 148.412 196.742 148.65C196.322 148.883 195.858 149 195.349 149H191.457ZM192.913 147.74H195.209C195.508 147.74 195.779 147.665 196.021 147.516C196.269 147.367 196.465 147.161 196.609 146.9C196.754 146.634 196.826 146.335 196.826 146.004C196.826 145.715 196.754 145.442 196.609 145.185C196.465 144.924 196.269 144.714 196.021 144.555C195.779 144.396 195.508 144.317 195.209 144.317H192.913V147.74ZM192.913 143.078H194.782C195.165 143.078 195.494 142.961 195.769 142.728C196.045 142.495 196.182 142.175 196.182 141.769C196.182 141.335 196.045 141.011 195.769 140.796C195.494 140.577 195.165 140.467 194.782 140.467H192.913V143.078ZM202.273 139.2H203.974L207.537 149H205.997L205.318 147.138H200.929L200.257 149H198.71L202.273 139.2ZM201.468 145.682H204.779L203.12 141.132L201.468 145.682ZM208.766 149V139.2H210.341L214.842 146.368V139.2H216.298V149H214.723L210.222 141.832V149H208.766ZM220.081 149.133C219.712 149.11 219.353 149.035 219.003 148.909C218.653 148.783 218.345 148.613 218.079 148.398C217.817 148.179 217.621 147.922 217.491 147.628L218.73 147.096C218.79 147.222 218.895 147.346 219.045 147.467C219.199 147.588 219.378 147.689 219.584 147.768C219.789 147.843 220.004 147.88 220.228 147.88C220.447 147.88 220.65 147.85 220.837 147.789C221.028 147.724 221.184 147.626 221.306 147.495C221.427 147.364 221.488 147.208 221.488 147.026C221.488 146.821 221.418 146.662 221.278 146.55C221.142 146.433 220.972 146.345 220.767 146.284C220.561 146.223 220.356 146.165 220.151 146.109C219.693 146.006 219.273 145.866 218.891 145.689C218.513 145.507 218.212 145.276 217.988 144.996C217.764 144.711 217.652 144.364 217.652 143.953C217.652 143.505 217.773 143.118 218.016 142.791C218.258 142.46 218.576 142.205 218.968 142.028C219.364 141.851 219.787 141.762 220.235 141.762C220.795 141.762 221.308 141.881 221.775 142.119C222.241 142.357 222.598 142.684 222.846 143.099L221.691 143.785C221.621 143.645 221.516 143.519 221.376 143.407C221.236 143.295 221.077 143.206 220.9 143.141C220.722 143.071 220.538 143.031 220.347 143.022C220.109 143.013 219.887 143.041 219.682 143.106C219.481 143.167 219.32 143.265 219.199 143.4C219.077 143.535 219.017 143.708 219.017 143.918C219.017 144.123 219.089 144.277 219.234 144.38C219.378 144.478 219.56 144.557 219.78 144.618C220.004 144.679 220.232 144.746 220.466 144.821C220.881 144.952 221.271 145.113 221.635 145.304C221.999 145.491 222.293 145.722 222.517 145.997C222.741 146.272 222.848 146.608 222.839 147.005C222.839 147.444 222.706 147.829 222.44 148.16C222.178 148.491 221.838 148.743 221.418 148.916C220.998 149.089 220.552 149.161 220.081 149.133Z" fill="#0C1021"/>
</g>
<g filter="url(#filter1_d_3298_9785)">
<rect x="91.5" y="197" width="130" height="41" rx="16" fill="white" shape-rendering="crispEdges"/>
<rect x="91.9596" y="197.46" width="129.081" height="40.0807" rx="15.5404" stroke="#0C1021" stroke-opacity="0.05" stroke-width="0.919289" shape-rendering="crispEdges"/>
<path d="M108.883 222.182C108.202 222.182 107.567 222.051 106.979 221.79C106.396 221.524 105.885 221.158 105.446 220.691C105.012 220.22 104.671 219.676 104.424 219.06C104.181 218.444 104.06 217.788 104.06 217.093C104.06 216.36 104.191 215.686 104.452 215.07C104.713 214.454 105.07 213.92 105.523 213.467C105.976 213.01 106.491 212.655 107.07 212.403C107.653 212.151 108.265 212.025 108.904 212.025C109.627 212.025 110.323 212.193 110.99 212.529C111.657 212.865 112.238 213.369 112.733 214.041L111.431 214.748C111.095 214.328 110.703 214.011 110.255 213.796C109.812 213.581 109.357 213.474 108.89 213.474C108.437 213.474 108.008 213.567 107.602 213.754C107.196 213.936 106.837 214.193 106.524 214.524C106.211 214.851 105.964 215.236 105.782 215.679C105.605 216.118 105.516 216.596 105.516 217.114C105.516 217.613 105.602 218.082 105.775 218.521C105.952 218.96 106.195 219.345 106.503 219.676C106.816 220.003 107.175 220.259 107.581 220.446C107.992 220.633 108.43 220.726 108.897 220.726C109.242 220.726 109.574 220.67 109.891 220.558C110.208 220.446 110.502 220.287 110.773 220.082C111.048 219.872 111.289 219.622 111.494 219.333C111.699 219.044 111.863 218.722 111.984 218.367H109.905V217.079H113.692C113.701 217.779 113.58 218.437 113.328 219.053C113.081 219.669 112.735 220.213 112.292 220.684C111.853 221.151 111.342 221.517 110.759 221.783C110.176 222.049 109.55 222.182 108.883 222.182ZM115.018 222V211.5H116.474V222H115.018ZM121.133 222.182C120.489 222.182 119.901 222.016 119.369 221.685C118.842 221.354 118.419 220.91 118.102 220.355C117.789 219.795 117.633 219.177 117.633 218.5C117.633 217.987 117.724 217.508 117.906 217.065C118.088 216.617 118.338 216.225 118.655 215.889C118.977 215.548 119.35 215.282 119.775 215.091C120.2 214.9 120.652 214.804 121.133 214.804C121.777 214.804 122.363 214.97 122.89 215.301C123.422 215.632 123.844 216.078 124.157 216.638C124.474 217.198 124.633 217.819 124.633 218.5C124.633 219.009 124.542 219.485 124.36 219.928C124.178 220.371 123.926 220.763 123.604 221.104C123.287 221.44 122.916 221.704 122.491 221.895C122.071 222.086 121.618 222.182 121.133 222.182ZM121.133 220.726C121.52 220.726 121.868 220.623 122.176 220.418C122.484 220.213 122.727 219.942 122.904 219.606C123.086 219.265 123.177 218.897 123.177 218.5C123.177 218.094 123.084 217.721 122.897 217.38C122.715 217.039 122.47 216.769 122.162 216.568C121.854 216.363 121.511 216.26 121.133 216.26C120.75 216.26 120.403 216.363 120.09 216.568C119.782 216.773 119.537 217.046 119.355 217.387C119.178 217.728 119.089 218.099 119.089 218.5C119.089 218.915 119.182 219.291 119.369 219.627C119.556 219.963 119.803 220.231 120.111 220.432C120.424 220.628 120.764 220.726 121.133 220.726ZM129.308 214.804C129.989 214.804 130.608 214.97 131.163 215.301C131.723 215.632 132.169 216.078 132.5 216.638C132.831 217.193 132.997 217.812 132.997 218.493C132.997 219.002 132.901 219.48 132.71 219.928C132.519 220.371 132.253 220.763 131.912 221.104C131.576 221.44 131.184 221.704 130.736 221.895C130.293 222.086 129.817 222.182 129.308 222.182C128.818 222.182 128.389 222.07 128.02 221.846C127.656 221.617 127.357 221.326 127.124 220.971V222H125.668V211.5H127.124V216.015C127.357 215.656 127.656 215.364 128.02 215.14C128.389 214.916 128.818 214.804 129.308 214.804ZM129.294 220.768C129.7 220.768 130.071 220.665 130.407 220.46C130.743 220.255 131.009 219.979 131.205 219.634C131.406 219.289 131.506 218.908 131.506 218.493C131.506 218.068 131.406 217.683 131.205 217.338C131.004 216.993 130.736 216.72 130.4 216.519C130.064 216.314 129.695 216.211 129.294 216.211C128.888 216.211 128.531 216.314 128.223 216.519C127.915 216.724 127.675 217 127.502 217.345C127.329 217.69 127.243 218.073 127.243 218.493C127.243 218.913 127.329 219.296 127.502 219.641C127.675 219.986 127.915 220.262 128.223 220.467C128.531 220.668 128.888 220.768 129.294 220.768ZM139.563 215H141.019V222H139.556L139.5 220.985C139.295 221.344 139.017 221.634 138.667 221.853C138.317 222.072 137.904 222.182 137.428 222.182C136.915 222.182 136.432 222.086 135.979 221.895C135.527 221.699 135.128 221.428 134.782 221.083C134.442 220.738 134.176 220.341 133.984 219.893C133.793 219.44 133.697 218.955 133.697 218.437C133.697 217.938 133.791 217.469 133.977 217.03C134.164 216.587 134.423 216.199 134.754 215.868C135.086 215.537 135.468 215.278 135.902 215.091C136.341 214.9 136.81 214.804 137.309 214.804C137.818 214.804 138.266 214.921 138.653 215.154C139.045 215.383 139.37 215.677 139.626 216.036L139.563 215ZM137.393 220.775C137.804 220.775 138.163 220.675 138.471 220.474C138.779 220.269 139.017 219.993 139.185 219.648C139.358 219.303 139.444 218.92 139.444 218.5C139.444 218.075 139.358 217.69 139.185 217.345C139.013 217 138.772 216.727 138.464 216.526C138.161 216.321 137.804 216.218 137.393 216.218C136.987 216.218 136.616 216.321 136.28 216.526C135.944 216.731 135.678 217.007 135.482 217.352C135.286 217.697 135.188 218.08 135.188 218.5C135.188 218.925 135.289 219.31 135.489 219.655C135.695 219.996 135.963 220.269 136.294 220.474C136.63 220.675 136.997 220.775 137.393 220.775ZM142.471 222V211.5H143.927V222H142.471ZM148.965 222V212.2H152.339C152.866 212.2 153.342 212.331 153.767 212.592C154.196 212.853 154.537 213.206 154.789 213.649C155.046 214.092 155.174 214.582 155.174 215.119C155.174 215.665 155.043 216.16 154.782 216.603C154.525 217.042 154.182 217.392 153.753 217.653C153.324 217.914 152.852 218.045 152.339 218.045H150.421V222H148.965ZM150.421 216.589H152.192C152.472 216.589 152.726 216.519 152.955 216.379C153.188 216.239 153.373 216.052 153.508 215.819C153.648 215.586 153.718 215.322 153.718 215.028C153.718 214.734 153.648 214.47 153.508 214.237C153.373 213.999 153.188 213.812 152.955 213.677C152.726 213.537 152.472 213.467 152.192 213.467H150.421V216.589ZM161.425 215H162.881V222H161.418L161.362 220.985C161.156 221.344 160.879 221.634 160.529 221.853C160.179 222.072 159.766 222.182 159.29 222.182C158.776 222.182 158.293 222.086 157.841 221.895C157.388 221.699 156.989 221.428 156.644 221.083C156.303 220.738 156.037 220.341 155.846 219.893C155.654 219.44 155.559 218.955 155.559 218.437C155.559 217.938 155.652 217.469 155.839 217.03C156.025 216.587 156.284 216.199 156.616 215.868C156.947 215.537 157.33 215.278 157.764 215.091C158.202 214.9 158.671 214.804 159.171 214.804C159.679 214.804 160.127 214.921 160.515 215.154C160.907 215.383 161.231 215.677 161.488 216.036L161.425 215ZM159.255 220.775C159.665 220.775 160.025 220.675 160.333 220.474C160.641 220.269 160.879 219.993 161.047 219.648C161.219 219.303 161.306 218.92 161.306 218.5C161.306 218.075 161.219 217.69 161.047 217.345C160.874 217 160.634 216.727 160.326 216.526C160.022 216.321 159.665 216.218 159.255 216.218C158.849 216.218 158.478 216.321 158.142 216.526C157.806 216.731 157.54 217.007 157.344 217.352C157.148 217.697 157.05 218.08 157.05 218.5C157.05 218.925 157.15 219.31 157.351 219.655C157.556 219.996 157.824 220.269 158.156 220.474C158.492 220.675 158.858 220.775 159.255 220.775ZM168.772 215H170.326L166.49 225.5H164.943L166.21 222L163.697 215H165.286L166.938 220.005L168.772 215ZM171.51 222V215H172.966V215.742C173.209 215.453 173.505 215.224 173.855 215.056C174.21 214.888 174.592 214.804 175.003 214.804C175.502 214.804 175.962 214.925 176.382 215.168C176.802 215.406 177.136 215.723 177.383 216.12C177.63 215.723 177.959 215.406 178.37 215.168C178.785 214.925 179.243 214.804 179.742 214.804C180.26 214.804 180.731 214.93 181.156 215.182C181.581 215.434 181.919 215.772 182.171 216.197C182.423 216.622 182.549 217.093 182.549 217.611V222H181.093V217.982C181.093 217.674 181.018 217.392 180.869 217.135C180.72 216.878 180.519 216.671 180.267 216.512C180.015 216.353 179.735 216.274 179.427 216.274C179.119 216.274 178.839 216.349 178.587 216.498C178.335 216.647 178.134 216.85 177.985 217.107C177.836 217.364 177.761 217.655 177.761 217.982V222H176.305V217.982C176.305 217.655 176.23 217.364 176.081 217.107C175.932 216.85 175.729 216.647 175.472 216.498C175.22 216.349 174.94 216.274 174.632 216.274C174.329 216.274 174.049 216.353 173.792 216.512C173.54 216.671 173.339 216.878 173.19 217.135C173.041 217.392 172.966 217.674 172.966 217.982V222H171.51ZM186.895 222.182C186.251 222.182 185.663 222.016 185.131 221.685C184.603 221.354 184.181 220.91 183.864 220.355C183.551 219.795 183.395 219.177 183.395 218.5C183.395 217.987 183.486 217.508 183.668 217.065C183.85 216.617 184.099 216.225 184.417 215.889C184.739 215.548 185.112 215.282 185.537 215.091C185.961 214.9 186.414 214.804 186.895 214.804C187.431 214.804 187.924 214.916 188.372 215.14C188.82 215.359 189.202 215.665 189.52 216.057C189.837 216.444 190.07 216.892 190.22 217.401C190.369 217.905 190.413 218.442 190.353 219.011H184.956C185.016 219.333 185.133 219.625 185.306 219.886C185.483 220.143 185.707 220.346 185.978 220.495C186.253 220.644 186.559 220.721 186.895 220.726C187.249 220.726 187.571 220.637 187.861 220.46C188.155 220.283 188.395 220.038 188.582 219.725L190.059 220.068C189.779 220.689 189.356 221.197 188.792 221.594C188.227 221.986 187.595 222.182 186.895 222.182ZM184.907 217.898H188.883C188.836 217.562 188.717 217.259 188.526 216.988C188.339 216.713 188.103 216.496 187.819 216.337C187.539 216.174 187.231 216.092 186.895 216.092C186.563 216.092 186.255 216.171 185.971 216.33C185.691 216.489 185.457 216.706 185.271 216.981C185.089 217.252 184.967 217.557 184.907 217.898ZM197.812 217.611V222H196.356V217.968C196.356 217.655 196.279 217.371 196.125 217.114C195.976 216.857 195.773 216.654 195.516 216.505C195.264 216.351 194.979 216.274 194.662 216.274C194.354 216.274 194.072 216.351 193.815 216.505C193.558 216.654 193.353 216.857 193.199 217.114C193.045 217.371 192.968 217.655 192.968 217.968V222H191.512V215H192.968V215.742C193.211 215.453 193.509 215.224 193.864 215.056C194.219 214.888 194.601 214.804 195.012 214.804C195.53 214.804 196.001 214.93 196.426 215.182C196.851 215.434 197.187 215.772 197.434 216.197C197.686 216.622 197.812 217.093 197.812 217.611ZM202.905 216.456H201.435L201.428 222H199.972L199.979 216.456H198.866V215H199.979L199.972 212.802H201.428L201.435 215H202.905V216.456ZM206.163 222.133C205.794 222.11 205.435 222.035 205.085 221.909C204.735 221.783 204.427 221.613 204.161 221.398C203.899 221.179 203.703 220.922 203.573 220.628L204.812 220.096C204.872 220.222 204.977 220.346 205.127 220.467C205.281 220.588 205.46 220.689 205.666 220.768C205.871 220.843 206.086 220.88 206.31 220.88C206.529 220.88 206.732 220.85 206.919 220.789C207.11 220.724 207.266 220.626 207.388 220.495C207.509 220.364 207.57 220.208 207.57 220.026C207.57 219.821 207.5 219.662 207.36 219.55C207.224 219.433 207.054 219.345 206.849 219.284C206.643 219.223 206.438 219.165 206.233 219.109C205.775 219.006 205.355 218.866 204.973 218.689C204.595 218.507 204.294 218.276 204.07 217.996C203.846 217.711 203.734 217.364 203.734 216.953C203.734 216.505 203.855 216.118 204.098 215.791C204.34 215.46 204.658 215.205 205.05 215.028C205.446 214.851 205.869 214.762 206.317 214.762C206.877 214.762 207.39 214.881 207.857 215.119C208.323 215.357 208.68 215.684 208.928 216.099L207.773 216.785C207.703 216.645 207.598 216.519 207.458 216.407C207.318 216.295 207.159 216.206 206.982 216.141C206.804 216.071 206.62 216.031 206.429 216.022C206.191 216.013 205.969 216.041 205.764 216.106C205.563 216.167 205.402 216.265 205.281 216.4C205.159 216.535 205.099 216.708 205.099 216.918C205.099 217.123 205.171 217.277 205.316 217.38C205.46 217.478 205.642 217.557 205.862 217.618C206.086 217.679 206.314 217.746 206.548 217.821C206.963 217.952 207.353 218.113 207.717 218.304C208.081 218.491 208.375 218.722 208.599 218.997C208.823 219.272 208.93 219.608 208.921 220.005C208.921 220.444 208.788 220.829 208.522 221.16C208.26 221.491 207.92 221.743 207.5 221.916C207.08 222.089 206.634 222.161 206.163 222.133Z" fill="#0C1021"/>
</g>
<g filter="url(#filter2_d_3298_9785)">
<rect x="89.5" y="270" width="134" height="41" rx="16" fill="white" shape-rendering="crispEdges"/>
<rect x="89.9596" y="270.46" width="133.081" height="40.0807" rx="15.5404" stroke="#0C1021" stroke-opacity="0.05" stroke-width="0.919289" shape-rendering="crispEdges"/>
<path d="M102.34 295V285.2H108.115V286.656H103.796V289.022H107.443V290.478H103.796V295H102.34ZM111.6 295.182C110.956 295.182 110.368 295.016 109.836 294.685C109.308 294.354 108.886 293.91 108.569 293.355C108.256 292.795 108.1 292.177 108.1 291.5C108.1 290.987 108.191 290.508 108.373 290.065C108.555 289.617 108.804 289.225 109.122 288.889C109.444 288.548 109.817 288.282 110.242 288.091C110.666 287.9 111.119 287.804 111.6 287.804C112.244 287.804 112.829 287.97 113.357 288.301C113.889 288.632 114.311 289.078 114.624 289.638C114.941 290.198 115.1 290.819 115.1 291.5C115.1 292.009 115.009 292.485 114.827 292.928C114.645 293.371 114.393 293.763 114.071 294.104C113.753 294.44 113.382 294.704 112.958 294.895C112.538 295.086 112.085 295.182 111.6 295.182ZM111.6 293.726C111.987 293.726 112.335 293.623 112.643 293.418C112.951 293.213 113.193 292.942 113.371 292.606C113.553 292.265 113.644 291.897 113.644 291.5C113.644 291.094 113.55 290.721 113.364 290.38C113.182 290.039 112.937 289.769 112.629 289.568C112.321 289.363 111.978 289.26 111.6 289.26C111.217 289.26 110.869 289.363 110.557 289.568C110.249 289.773 110.004 290.046 109.822 290.387C109.644 290.728 109.556 291.099 109.556 291.5C109.556 291.915 109.649 292.291 109.836 292.627C110.022 292.963 110.27 293.231 110.578 293.432C110.89 293.628 111.231 293.726 111.6 293.726ZM116.231 295V288H117.687V288.742C117.929 288.453 118.228 288.224 118.583 288.056C118.937 287.888 119.32 287.804 119.731 287.804C119.992 287.804 120.251 287.839 120.508 287.909L119.927 289.379C119.745 289.309 119.563 289.274 119.381 289.274C119.073 289.274 118.79 289.351 118.534 289.505C118.277 289.654 118.072 289.857 117.918 290.114C117.764 290.371 117.687 290.655 117.687 290.968V295H116.231ZM124.068 295.182C123.424 295.182 122.836 295.016 122.304 294.685C121.777 294.354 121.355 293.91 121.037 293.355C120.725 292.795 120.568 292.177 120.568 291.5C120.568 290.987 120.659 290.508 120.841 290.065C121.023 289.617 121.273 289.225 121.59 288.889C121.912 288.548 122.286 288.282 122.71 288.091C123.135 287.9 123.588 287.804 124.068 287.804C124.605 287.804 125.097 287.916 125.545 288.14C125.993 288.359 126.376 288.665 126.693 289.057C127.011 289.444 127.244 289.892 127.393 290.401C127.543 290.905 127.587 291.442 127.526 292.011H122.129C122.19 292.333 122.307 292.625 122.479 292.886C122.657 293.143 122.881 293.346 123.151 293.495C123.427 293.644 123.732 293.721 124.068 293.726C124.423 293.726 124.745 293.637 125.034 293.46C125.328 293.283 125.569 293.038 125.755 292.725L127.232 293.068C126.952 293.689 126.53 294.197 125.965 294.594C125.401 294.986 124.768 295.182 124.068 295.182ZM122.08 290.898H126.056C126.01 290.562 125.891 290.259 125.699 289.988C125.513 289.713 125.277 289.496 124.992 289.337C124.712 289.174 124.404 289.092 124.068 289.092C123.737 289.092 123.429 289.171 123.144 289.33C122.864 289.489 122.631 289.706 122.444 289.981C122.262 290.252 122.141 290.557 122.08 290.898ZM128.549 288H130.005V295H128.549V288ZM129.291 286.985C129.067 286.985 128.88 286.913 128.731 286.768C128.582 286.623 128.507 286.441 128.507 286.222C128.507 286.007 128.582 285.828 128.731 285.683C128.88 285.534 129.065 285.459 129.284 285.459C129.499 285.459 129.681 285.534 129.83 285.683C129.979 285.828 130.054 286.007 130.054 286.222C130.054 286.441 129.979 286.623 129.83 286.768C129.685 286.913 129.506 286.985 129.291 286.985ZM136.884 288H138.34V295.182C138.34 295.663 138.237 296.106 138.032 296.512C137.831 296.918 137.558 297.268 137.213 297.562C136.867 297.861 136.471 298.092 136.023 298.255C135.579 298.418 135.115 298.5 134.63 298.5C134.14 298.5 133.668 298.395 133.216 298.185C132.763 297.98 132.364 297.7 132.019 297.345C131.678 296.99 131.424 296.589 131.256 296.141L132.593 295.539C132.686 295.828 132.835 296.085 133.041 296.309C133.251 296.533 133.493 296.71 133.769 296.841C134.049 296.972 134.336 297.037 134.63 297.037C134.919 297.037 135.197 296.99 135.463 296.897C135.733 296.808 135.974 296.682 136.184 296.519C136.398 296.356 136.569 296.16 136.695 295.931C136.821 295.702 136.884 295.453 136.884 295.182V293.999C136.655 294.354 136.361 294.641 136.002 294.86C135.642 295.075 135.225 295.182 134.749 295.182C134.254 295.182 133.787 295.086 133.349 294.895C132.91 294.704 132.525 294.44 132.194 294.104C131.862 293.763 131.603 293.371 131.417 292.928C131.23 292.485 131.137 292.009 131.137 291.5C131.137 290.991 131.23 290.515 131.417 290.072C131.603 289.624 131.862 289.232 132.194 288.896C132.525 288.555 132.91 288.289 133.349 288.098C133.787 287.907 134.254 287.811 134.749 287.811C135.225 287.811 135.642 287.921 136.002 288.14C136.361 288.355 136.655 288.642 136.884 289.001V288ZM134.763 293.775C135.169 293.775 135.523 293.672 135.827 293.467C136.13 293.257 136.366 292.979 136.534 292.634C136.702 292.289 136.786 291.911 136.786 291.5C136.786 291.08 136.699 290.7 136.527 290.359C136.359 290.014 136.123 289.738 135.82 289.533C135.516 289.323 135.164 289.218 134.763 289.218C134.371 289.218 134.011 289.321 133.685 289.526C133.363 289.731 133.106 290.007 132.915 290.352C132.723 290.697 132.628 291.08 132.628 291.5C132.628 291.92 132.723 292.303 132.915 292.648C133.111 292.993 133.37 293.269 133.692 293.474C134.018 293.675 134.375 293.775 134.763 293.775ZM146.32 290.611V295H144.864V290.968C144.864 290.655 144.787 290.371 144.633 290.114C144.483 289.857 144.28 289.654 144.024 289.505C143.772 289.351 143.487 289.274 143.17 289.274C142.862 289.274 142.579 289.351 142.323 289.505C142.066 289.654 141.861 289.857 141.707 290.114C141.553 290.371 141.476 290.655 141.476 290.968V295H140.02V288H141.476V288.742C141.718 288.453 142.017 288.224 142.372 288.056C142.726 287.888 143.109 287.804 143.52 287.804C144.038 287.804 144.509 287.93 144.934 288.182C145.358 288.434 145.694 288.772 145.942 289.197C146.194 289.622 146.32 290.093 146.32 290.611ZM151.08 295V285.2H157.163V286.656H152.536V289.022H156.26V290.478H152.536V293.544H157.163V295H151.08ZM158.033 295L160.595 291.486L158.047 287.986H159.846L161.491 290.24L163.143 287.986H164.935L162.394 291.486L164.956 295H163.157L161.491 292.718L159.832 295H158.033ZM170.28 293.012L171.582 293.719C171.265 294.162 170.861 294.517 170.371 294.783C169.886 295.049 169.358 295.182 168.789 295.182C168.145 295.182 167.557 295.016 167.025 294.685C166.498 294.354 166.075 293.91 165.758 293.355C165.445 292.795 165.289 292.177 165.289 291.5C165.289 290.987 165.38 290.508 165.562 290.065C165.744 289.617 165.994 289.225 166.311 288.889C166.633 288.548 167.006 288.282 167.431 288.091C167.856 287.9 168.308 287.804 168.789 287.804C169.358 287.804 169.886 287.937 170.371 288.203C170.861 288.469 171.265 288.826 171.582 289.274L170.28 289.981C170.084 289.748 169.855 289.57 169.594 289.449C169.333 289.323 169.064 289.26 168.789 289.26C168.406 289.26 168.059 289.365 167.746 289.575C167.438 289.78 167.193 290.053 167.011 290.394C166.834 290.73 166.745 291.099 166.745 291.5C166.745 291.897 166.836 292.265 167.018 292.606C167.2 292.942 167.445 293.213 167.753 293.418C168.066 293.623 168.411 293.726 168.789 293.726C169.078 293.726 169.354 293.661 169.615 293.53C169.876 293.399 170.098 293.227 170.28 293.012ZM178.968 290.611V295H177.512V290.968C177.512 290.655 177.435 290.371 177.281 290.114C177.132 289.857 176.929 289.654 176.672 289.505C176.42 289.351 176.135 289.274 175.818 289.274C175.51 289.274 175.228 289.351 174.971 289.505C174.714 289.654 174.509 289.857 174.355 290.114C174.201 290.371 174.124 290.655 174.124 290.968V295H172.668V284.5H174.124V288.742C174.367 288.453 174.665 288.224 175.02 288.056C175.375 287.888 175.757 287.804 176.168 287.804C176.686 287.804 177.157 287.93 177.582 288.182C178.007 288.434 178.343 288.772 178.59 289.197C178.842 289.622 178.968 290.093 178.968 290.611ZM185.675 288H187.131V295H185.668L185.612 293.985C185.406 294.344 185.129 294.634 184.779 294.853C184.429 295.072 184.016 295.182 183.54 295.182C183.026 295.182 182.543 295.086 182.091 294.895C181.638 294.699 181.239 294.428 180.894 294.083C180.553 293.738 180.287 293.341 180.096 292.893C179.904 292.44 179.809 291.955 179.809 291.437C179.809 290.938 179.902 290.469 180.089 290.03C180.275 289.587 180.534 289.199 180.866 288.868C181.197 288.537 181.58 288.278 182.014 288.091C182.452 287.9 182.921 287.804 183.421 287.804C183.929 287.804 184.377 287.921 184.765 288.154C185.157 288.383 185.481 288.677 185.738 289.036L185.675 288ZM183.505 293.775C183.915 293.775 184.275 293.675 184.583 293.474C184.891 293.269 185.129 292.993 185.297 292.648C185.469 292.303 185.556 291.92 185.556 291.5C185.556 291.075 185.469 290.69 185.297 290.345C185.124 290 184.884 289.727 184.576 289.526C184.272 289.321 183.915 289.218 183.505 289.218C183.099 289.218 182.728 289.321 182.392 289.526C182.056 289.731 181.79 290.007 181.594 290.352C181.398 290.697 181.3 291.08 181.3 291.5C181.3 291.925 181.4 292.31 181.601 292.655C181.806 292.996 182.074 293.269 182.406 293.474C182.742 293.675 183.108 293.775 183.505 293.775ZM194.828 290.611V295H193.372V290.968C193.372 290.655 193.295 290.371 193.141 290.114C192.991 289.857 192.788 289.654 192.532 289.505C192.28 289.351 191.995 289.274 191.678 289.274C191.37 289.274 191.087 289.351 190.831 289.505C190.574 289.654 190.369 289.857 190.215 290.114C190.061 290.371 189.984 290.655 189.984 290.968V295H188.528V288H189.984V288.742C190.226 288.453 190.525 288.224 190.88 288.056C191.234 287.888 191.617 287.804 192.028 287.804C192.546 287.804 193.017 287.93 193.442 288.182C193.866 288.434 194.202 288.772 194.45 289.197C194.702 289.622 194.828 290.093 194.828 290.611ZM201.415 288H202.871V295.182C202.871 295.663 202.768 296.106 202.563 296.512C202.362 296.918 202.089 297.268 201.744 297.562C201.399 297.861 201.002 298.092 200.554 298.255C200.111 298.418 199.646 298.5 199.161 298.5C198.671 298.5 198.2 298.395 197.747 298.185C197.294 297.98 196.895 297.7 196.55 297.345C196.209 296.99 195.955 296.589 195.787 296.141L197.124 295.539C197.217 295.828 197.367 296.085 197.572 296.309C197.782 296.533 198.025 296.71 198.3 296.841C198.58 296.972 198.867 297.037 199.161 297.037C199.45 297.037 199.728 296.99 199.994 296.897C200.265 296.808 200.505 296.682 200.715 296.519C200.93 296.356 201.1 296.16 201.226 295.931C201.352 295.702 201.415 295.453 201.415 295.182V293.999C201.186 294.354 200.892 294.641 200.533 294.86C200.174 295.075 199.756 295.182 199.28 295.182C198.785 295.182 198.319 295.086 197.88 294.895C197.441 294.704 197.056 294.44 196.725 294.104C196.394 293.763 196.135 293.371 195.948 292.928C195.761 292.485 195.668 292.009 195.668 291.5C195.668 290.991 195.761 290.515 195.948 290.072C196.135 289.624 196.394 289.232 196.725 288.896C197.056 288.555 197.441 288.289 197.88 288.098C198.319 287.907 198.785 287.811 199.28 287.811C199.756 287.811 200.174 287.921 200.533 288.14C200.892 288.355 201.186 288.642 201.415 289.001V288ZM199.294 293.775C199.7 293.775 200.055 293.672 200.358 293.467C200.661 293.257 200.897 292.979 201.065 292.634C201.233 292.289 201.317 291.911 201.317 291.5C201.317 291.08 201.231 290.7 201.058 290.359C200.89 290.014 200.654 289.738 200.351 289.533C200.048 289.323 199.695 289.218 199.294 289.218C198.902 289.218 198.543 289.321 198.216 289.526C197.894 289.731 197.637 290.007 197.446 290.352C197.255 290.697 197.159 291.08 197.159 291.5C197.159 291.92 197.255 292.303 197.446 292.648C197.642 292.993 197.901 293.269 198.223 293.474C198.55 293.675 198.907 293.775 199.294 293.775ZM207.508 295.182C206.864 295.182 206.276 295.016 205.744 294.685C205.217 294.354 204.794 293.91 204.477 293.355C204.164 292.795 204.008 292.177 204.008 291.5C204.008 290.987 204.099 290.508 204.281 290.065C204.463 289.617 204.713 289.225 205.03 288.889C205.352 288.548 205.725 288.282 206.15 288.091C206.575 287.9 207.027 287.804 207.508 287.804C208.045 287.804 208.537 287.916 208.985 288.14C209.433 288.359 209.816 288.665 210.133 289.057C210.45 289.444 210.684 289.892 210.833 290.401C210.982 290.905 211.027 291.442 210.966 292.011H205.569C205.63 292.333 205.746 292.625 205.919 292.886C206.096 293.143 206.32 293.346 206.591 293.495C206.866 293.644 207.172 293.721 207.508 293.726C207.863 293.726 208.185 293.637 208.474 293.46C208.768 293.283 209.008 293.038 209.195 292.725L210.672 293.068C210.392 293.689 209.97 294.197 209.405 294.594C208.84 294.986 208.208 295.182 207.508 295.182ZM205.52 290.898H209.496C209.449 290.562 209.33 290.259 209.139 289.988C208.952 289.713 208.717 289.496 208.432 289.337C208.152 289.174 207.844 289.092 207.508 289.092C207.177 289.092 206.869 289.171 206.584 289.33C206.304 289.489 206.071 289.706 205.884 289.981C205.702 290.252 205.581 290.557 205.52 290.898Z" fill="#0C1021"/>
</g>
<g filter="url(#filter3_d_3298_9785)">
<rect x="100.5" y="343" width="112" height="41" rx="16" fill="white" shape-rendering="crispEdges"/>
<rect x="100.96" y="343.46" width="111.081" height="40.0807" rx="15.5404" stroke="#0C1021" stroke-opacity="0.05" stroke-width="0.919289" shape-rendering="crispEdges"/>
<path d="M117.89 368.182C117.227 368.182 116.604 368.051 116.021 367.79C115.438 367.524 114.924 367.158 114.481 366.691C114.038 366.224 113.69 365.685 113.438 365.074C113.186 364.458 113.06 363.8 113.06 363.1C113.06 362.4 113.186 361.744 113.438 361.133C113.69 360.517 114.038 359.976 114.481 359.509C114.924 359.042 115.438 358.678 116.021 358.417C116.604 358.151 117.227 358.018 117.89 358.018C118.557 358.018 119.183 358.151 119.766 358.417C120.349 358.678 120.863 359.042 121.306 359.509C121.749 359.976 122.095 360.517 122.342 361.133C122.594 361.744 122.72 362.4 122.72 363.1C122.72 363.8 122.594 364.458 122.342 365.074C122.095 365.685 121.749 366.224 121.306 366.691C120.863 367.158 120.349 367.524 119.766 367.79C119.183 368.051 118.557 368.182 117.89 368.182ZM117.89 366.726C118.357 366.726 118.793 366.63 119.199 366.439C119.605 366.248 119.962 365.986 120.27 365.655C120.583 365.319 120.825 364.934 120.998 364.5C121.175 364.061 121.264 363.595 121.264 363.1C121.264 362.605 121.175 362.139 120.998 361.7C120.825 361.261 120.583 360.876 120.27 360.545C119.962 360.209 119.605 359.948 119.199 359.761C118.793 359.57 118.357 359.474 117.89 359.474C117.423 359.474 116.987 359.57 116.581 359.761C116.175 359.952 115.816 360.216 115.503 360.552C115.195 360.883 114.952 361.268 114.775 361.707C114.602 362.141 114.516 362.605 114.516 363.1C114.516 363.599 114.602 364.068 114.775 364.507C114.952 364.941 115.195 365.326 115.503 365.662C115.816 365.993 116.175 366.255 116.581 366.446C116.987 366.633 117.423 366.726 117.89 366.726ZM130.359 363.611V368H128.903V363.968C128.903 363.655 128.826 363.371 128.672 363.114C128.522 362.857 128.319 362.654 128.063 362.505C127.811 362.351 127.526 362.274 127.209 362.274C126.901 362.274 126.618 362.351 126.362 362.505C126.105 362.654 125.9 362.857 125.746 363.114C125.592 363.371 125.515 363.655 125.515 363.968V368H124.059V361H125.515V361.742C125.757 361.453 126.056 361.224 126.411 361.056C126.765 360.888 127.148 360.804 127.559 360.804C128.077 360.804 128.548 360.93 128.973 361.182C129.397 361.434 129.733 361.772 129.981 362.197C130.233 362.622 130.359 363.093 130.359 363.611ZM135.767 358.2L132.932 368.784H131.476L134.311 358.2H135.767ZM141.72 368.182C141.057 368.182 140.434 368.051 139.851 367.79C139.268 367.524 138.754 367.158 138.311 366.691C137.868 366.224 137.52 365.685 137.268 365.074C137.016 364.458 136.89 363.8 136.89 363.1C136.89 362.4 137.016 361.744 137.268 361.133C137.52 360.517 137.868 359.976 138.311 359.509C138.754 359.042 139.268 358.678 139.851 358.417C140.434 358.151 141.057 358.018 141.72 358.018C142.387 358.018 143.013 358.151 143.596 358.417C144.179 358.678 144.693 359.042 145.136 359.509C145.579 359.976 145.925 360.517 146.172 361.133C146.424 361.744 146.55 362.4 146.55 363.1C146.55 363.8 146.424 364.458 146.172 365.074C145.925 365.685 145.579 366.224 145.136 366.691C144.693 367.158 144.179 367.524 143.596 367.79C143.013 368.051 142.387 368.182 141.72 368.182ZM141.72 366.726C142.187 366.726 142.623 366.63 143.029 366.439C143.435 366.248 143.792 365.986 144.1 365.655C144.413 365.319 144.655 364.934 144.828 364.5C145.005 364.061 145.094 363.595 145.094 363.1C145.094 362.605 145.005 362.139 144.828 361.7C144.655 361.261 144.413 360.876 144.1 360.545C143.792 360.209 143.435 359.948 143.029 359.761C142.623 359.57 142.187 359.474 141.72 359.474C141.253 359.474 140.817 359.57 140.411 359.761C140.005 359.952 139.646 360.216 139.333 360.552C139.025 360.883 138.782 361.268 138.605 361.707C138.432 362.141 138.346 362.605 138.346 363.1C138.346 363.599 138.432 364.068 138.605 364.507C138.782 364.941 139.025 365.326 139.333 365.662C139.646 365.993 140.005 366.255 140.411 366.446C140.817 366.633 141.253 366.726 141.72 366.726ZM149.743 359.411V361H151.717V362.456H149.743V368H148.287V362.456H147.454V361H148.287V359.411C148.287 359.028 148.38 358.681 148.567 358.368C148.753 358.051 149.003 357.799 149.316 357.612C149.633 357.425 149.985 357.332 150.373 357.332C150.653 357.332 150.926 357.388 151.192 357.5C151.458 357.612 151.696 357.785 151.906 358.018L150.863 359.047C150.811 358.963 150.739 358.9 150.646 358.858C150.557 358.811 150.466 358.788 150.373 358.788C150.2 358.788 150.051 358.849 149.925 358.97C149.803 359.091 149.743 359.238 149.743 359.411ZM154.801 359.411V361H156.775V362.456H154.801V368H153.345V362.456H152.512V361H153.345V359.411C153.345 359.028 153.438 358.681 153.625 358.368C153.812 358.051 154.061 357.799 154.374 357.612C154.691 357.425 155.044 357.332 155.431 357.332C155.711 357.332 155.984 357.388 156.25 357.5C156.516 357.612 156.754 357.785 156.964 358.018L155.921 359.047C155.87 358.963 155.797 358.9 155.704 358.858C155.615 358.811 155.524 358.788 155.431 358.788C155.258 358.788 155.109 358.849 154.983 358.97C154.862 359.091 154.801 359.238 154.801 359.411ZM157.815 363.072H162.295V364.528H157.815V363.072ZM163.981 368V358.2H167.586C168.118 358.2 168.596 358.331 169.021 358.592C169.445 358.853 169.781 359.206 170.029 359.649C170.281 360.088 170.407 360.578 170.407 361.119C170.407 361.576 170.32 361.994 170.148 362.372C169.98 362.75 169.742 363.072 169.434 363.338C169.13 363.604 168.783 363.795 168.391 363.912L170.757 368H169.07L166.774 364.045H165.437V368H163.981ZM165.437 362.589H167.432C167.712 362.589 167.966 362.519 168.195 362.379C168.428 362.239 168.612 362.052 168.748 361.819C168.883 361.586 168.951 361.322 168.951 361.028C168.951 360.734 168.883 360.47 168.748 360.237C168.612 359.999 168.428 359.812 168.195 359.677C167.966 359.537 167.712 359.467 167.432 359.467H165.437V362.589ZM177.206 361H178.662V368H177.199L177.143 366.985C176.938 367.344 176.66 367.634 176.31 367.853C175.96 368.072 175.547 368.182 175.071 368.182C174.558 368.182 174.075 368.086 173.622 367.895C173.169 367.699 172.77 367.428 172.425 367.083C172.084 366.738 171.818 366.341 171.627 365.893C171.436 365.44 171.34 364.955 171.34 364.437C171.34 363.938 171.433 363.469 171.62 363.03C171.807 362.587 172.066 362.199 172.397 361.868C172.728 361.537 173.111 361.278 173.545 361.091C173.984 360.9 174.453 360.804 174.952 360.804C175.461 360.804 175.909 360.921 176.296 361.154C176.688 361.383 177.012 361.677 177.269 362.036L177.206 361ZM175.036 366.775C175.447 366.775 175.806 366.675 176.114 366.474C176.422 366.269 176.66 365.993 176.828 365.648C177.001 365.303 177.087 364.92 177.087 364.5C177.087 364.075 177.001 363.69 176.828 363.345C176.655 363 176.415 362.727 176.107 362.526C175.804 362.321 175.447 362.218 175.036 362.218C174.63 362.218 174.259 362.321 173.923 362.526C173.587 362.731 173.321 363.007 173.125 363.352C172.929 363.697 172.831 364.08 172.831 364.5C172.831 364.925 172.931 365.31 173.132 365.655C173.337 365.996 173.606 366.269 173.937 366.474C174.273 366.675 174.639 366.775 175.036 366.775ZM180.059 368V361H181.515V361.742C181.757 361.453 182.054 361.224 182.404 361.056C182.758 360.888 183.141 360.804 183.552 360.804C184.051 360.804 184.511 360.925 184.931 361.168C185.351 361.406 185.684 361.723 185.932 362.12C186.179 361.723 186.508 361.406 186.919 361.168C187.334 360.925 187.791 360.804 188.291 360.804C188.809 360.804 189.28 360.93 189.705 361.182C190.129 361.434 190.468 361.772 190.72 362.197C190.972 362.622 191.098 363.093 191.098 363.611V368H189.642V363.982C189.642 363.674 189.567 363.392 189.418 363.135C189.268 362.878 189.068 362.671 188.816 362.512C188.564 362.353 188.284 362.274 187.976 362.274C187.668 362.274 187.388 362.349 187.136 362.498C186.884 362.647 186.683 362.85 186.534 363.107C186.384 363.364 186.31 363.655 186.31 363.982V368H184.854V363.982C184.854 363.655 184.779 363.364 184.63 363.107C184.48 362.85 184.277 362.647 184.021 362.498C183.769 362.349 183.489 362.274 183.181 362.274C182.877 362.274 182.597 362.353 182.341 362.512C182.089 362.671 181.888 362.878 181.739 363.135C181.589 363.392 181.515 363.674 181.515 363.982V368H180.059ZM193.956 371.5H192.5V361H193.956V362.029C194.189 361.67 194.488 361.378 194.852 361.154C195.216 360.93 195.645 360.818 196.14 360.818C196.649 360.818 197.125 360.914 197.568 361.105C198.016 361.296 198.408 361.562 198.744 361.903C199.08 362.239 199.344 362.629 199.535 363.072C199.726 363.515 199.822 363.991 199.822 364.5C199.822 365.009 199.726 365.487 199.535 365.935C199.344 366.383 199.08 366.777 198.744 367.118C198.408 367.454 198.016 367.718 197.568 367.909C197.125 368.1 196.649 368.196 196.14 368.196C195.645 368.196 195.216 368.084 194.852 367.86C194.488 367.631 194.189 367.34 193.956 366.985V371.5ZM196.126 362.225C195.72 362.225 195.363 362.328 195.055 362.533C194.747 362.738 194.507 363.014 194.334 363.359C194.161 363.7 194.075 364.08 194.075 364.5C194.075 364.92 194.161 365.303 194.334 365.648C194.507 365.993 194.747 366.269 195.055 366.474C195.363 366.679 195.72 366.782 196.126 366.782C196.527 366.782 196.896 366.682 197.232 366.481C197.568 366.276 197.836 366 198.037 365.655C198.238 365.31 198.338 364.925 198.338 364.5C198.338 364.085 198.238 363.704 198.037 363.359C197.841 363.014 197.575 362.738 197.239 362.533C196.903 362.328 196.532 362.225 196.126 362.225Z" fill="#0C1021"/>
</g>
<g filter="url(#filter4_d_3298_9785)">
<rect x="100.5" y="416" width="112" height="41" rx="16" fill="white" shape-rendering="crispEdges"/>
<rect x="100.96" y="416.46" width="111.081" height="40.0807" rx="15.5404" stroke="#0C1021" stroke-opacity="0.05" stroke-width="0.919289" shape-rendering="crispEdges"/>
<path d="M117.89 441.182C117.227 441.182 116.604 441.051 116.021 440.79C115.438 440.524 114.924 440.158 114.481 439.691C114.038 439.224 113.69 438.685 113.438 438.074C113.186 437.458 113.06 436.8 113.06 436.1C113.06 435.4 113.186 434.744 113.438 434.133C113.69 433.517 114.038 432.976 114.481 432.509C114.924 432.042 115.438 431.678 116.021 431.417C116.604 431.151 117.227 431.018 117.89 431.018C118.557 431.018 119.183 431.151 119.766 431.417C120.349 431.678 120.863 432.042 121.306 432.509C121.749 432.976 122.095 433.517 122.342 434.133C122.594 434.744 122.72 435.4 122.72 436.1C122.72 436.8 122.594 437.458 122.342 438.074C122.095 438.685 121.749 439.224 121.306 439.691C120.863 440.158 120.349 440.524 119.766 440.79C119.183 441.051 118.557 441.182 117.89 441.182ZM117.89 439.726C118.357 439.726 118.793 439.63 119.199 439.439C119.605 439.248 119.962 438.986 120.27 438.655C120.583 438.319 120.825 437.934 120.998 437.5C121.175 437.061 121.264 436.595 121.264 436.1C121.264 435.605 121.175 435.139 120.998 434.7C120.825 434.261 120.583 433.876 120.27 433.545C119.962 433.209 119.605 432.948 119.199 432.761C118.793 432.57 118.357 432.474 117.89 432.474C117.423 432.474 116.987 432.57 116.581 432.761C116.175 432.952 115.816 433.216 115.503 433.552C115.195 433.883 114.952 434.268 114.775 434.707C114.602 435.141 114.516 435.605 114.516 436.1C114.516 436.599 114.602 437.068 114.775 437.507C114.952 437.941 115.195 438.326 115.503 438.662C115.816 438.993 116.175 439.255 116.581 439.446C116.987 439.633 117.423 439.726 117.89 439.726ZM130.359 436.611V441H128.903V436.968C128.903 436.655 128.826 436.371 128.672 436.114C128.522 435.857 128.319 435.654 128.063 435.505C127.811 435.351 127.526 435.274 127.209 435.274C126.901 435.274 126.618 435.351 126.362 435.505C126.105 435.654 125.9 435.857 125.746 436.114C125.592 436.371 125.515 436.655 125.515 436.968V441H124.059V434H125.515V434.742C125.757 434.453 126.056 434.224 126.411 434.056C126.765 433.888 127.148 433.804 127.559 433.804C128.077 433.804 128.548 433.93 128.973 434.182C129.397 434.434 129.733 434.772 129.981 435.197C130.233 435.622 130.359 436.093 130.359 436.611ZM135.767 431.2L132.932 441.784H131.476L134.311 431.2H135.767ZM141.72 441.182C141.057 441.182 140.434 441.051 139.851 440.79C139.268 440.524 138.754 440.158 138.311 439.691C137.868 439.224 137.52 438.685 137.268 438.074C137.016 437.458 136.89 436.8 136.89 436.1C136.89 435.4 137.016 434.744 137.268 434.133C137.52 433.517 137.868 432.976 138.311 432.509C138.754 432.042 139.268 431.678 139.851 431.417C140.434 431.151 141.057 431.018 141.72 431.018C142.387 431.018 143.013 431.151 143.596 431.417C144.179 431.678 144.693 432.042 145.136 432.509C145.579 432.976 145.925 433.517 146.172 434.133C146.424 434.744 146.55 435.4 146.55 436.1C146.55 436.8 146.424 437.458 146.172 438.074C145.925 438.685 145.579 439.224 145.136 439.691C144.693 440.158 144.179 440.524 143.596 440.79C143.013 441.051 142.387 441.182 141.72 441.182ZM141.72 439.726C142.187 439.726 142.623 439.63 143.029 439.439C143.435 439.248 143.792 438.986 144.1 438.655C144.413 438.319 144.655 437.934 144.828 437.5C145.005 437.061 145.094 436.595 145.094 436.1C145.094 435.605 145.005 435.139 144.828 434.7C144.655 434.261 144.413 433.876 144.1 433.545C143.792 433.209 143.435 432.948 143.029 432.761C142.623 432.57 142.187 432.474 141.72 432.474C141.253 432.474 140.817 432.57 140.411 432.761C140.005 432.952 139.646 433.216 139.333 433.552C139.025 433.883 138.782 434.268 138.605 434.707C138.432 435.141 138.346 435.605 138.346 436.1C138.346 436.599 138.432 437.068 138.605 437.507C138.782 437.941 139.025 438.326 139.333 438.662C139.646 438.993 140.005 439.255 140.411 439.446C140.817 439.633 141.253 439.726 141.72 439.726ZM149.743 432.411V434H151.717V435.456H149.743V441H148.287V435.456H147.454V434H148.287V432.411C148.287 432.028 148.38 431.681 148.567 431.368C148.753 431.051 149.003 430.799 149.316 430.612C149.633 430.425 149.985 430.332 150.373 430.332C150.653 430.332 150.926 430.388 151.192 430.5C151.458 430.612 151.696 430.785 151.906 431.018L150.863 432.047C150.811 431.963 150.739 431.9 150.646 431.858C150.557 431.811 150.466 431.788 150.373 431.788C150.2 431.788 150.051 431.849 149.925 431.97C149.803 432.091 149.743 432.238 149.743 432.411ZM154.801 432.411V434H156.775V435.456H154.801V441H153.345V435.456H152.512V434H153.345V432.411C153.345 432.028 153.438 431.681 153.625 431.368C153.812 431.051 154.061 430.799 154.374 430.612C154.691 430.425 155.044 430.332 155.431 430.332C155.711 430.332 155.984 430.388 156.25 430.5C156.516 430.612 156.754 430.785 156.964 431.018L155.921 432.047C155.87 431.963 155.797 431.9 155.704 431.858C155.615 431.811 155.524 431.788 155.431 431.788C155.258 431.788 155.109 431.849 154.983 431.97C154.862 432.091 154.801 432.238 154.801 432.411ZM157.815 436.072H162.295V437.528H157.815V436.072ZM163.981 441V431.2H167.586C168.118 431.2 168.596 431.331 169.021 431.592C169.445 431.853 169.781 432.206 170.029 432.649C170.281 433.088 170.407 433.578 170.407 434.119C170.407 434.576 170.32 434.994 170.148 435.372C169.98 435.75 169.742 436.072 169.434 436.338C169.13 436.604 168.783 436.795 168.391 436.912L170.757 441H169.07L166.774 437.045H165.437V441H163.981ZM165.437 435.589H167.432C167.712 435.589 167.966 435.519 168.195 435.379C168.428 435.239 168.612 435.052 168.748 434.819C168.883 434.586 168.951 434.322 168.951 434.028C168.951 433.734 168.883 433.47 168.748 433.237C168.612 432.999 168.428 432.812 168.195 432.677C167.966 432.537 167.712 432.467 167.432 432.467H165.437V435.589ZM177.206 434H178.662V441H177.199L177.143 439.985C176.938 440.344 176.66 440.634 176.31 440.853C175.96 441.072 175.547 441.182 175.071 441.182C174.558 441.182 174.075 441.086 173.622 440.895C173.169 440.699 172.77 440.428 172.425 440.083C172.084 439.738 171.818 439.341 171.627 438.893C171.436 438.44 171.34 437.955 171.34 437.437C171.34 436.938 171.433 436.469 171.62 436.03C171.807 435.587 172.066 435.199 172.397 434.868C172.728 434.537 173.111 434.278 173.545 434.091C173.984 433.9 174.453 433.804 174.952 433.804C175.461 433.804 175.909 433.921 176.296 434.154C176.688 434.383 177.012 434.677 177.269 435.036L177.206 434ZM175.036 439.775C175.447 439.775 175.806 439.675 176.114 439.474C176.422 439.269 176.66 438.993 176.828 438.648C177.001 438.303 177.087 437.92 177.087 437.5C177.087 437.075 177.001 436.69 176.828 436.345C176.655 436 176.415 435.727 176.107 435.526C175.804 435.321 175.447 435.218 175.036 435.218C174.63 435.218 174.259 435.321 173.923 435.526C173.587 435.731 173.321 436.007 173.125 436.352C172.929 436.697 172.831 437.08 172.831 437.5C172.831 437.925 172.931 438.31 173.132 438.655C173.337 438.996 173.606 439.269 173.937 439.474C174.273 439.675 174.639 439.775 175.036 439.775ZM180.059 441V434H181.515V434.742C181.757 434.453 182.054 434.224 182.404 434.056C182.758 433.888 183.141 433.804 183.552 433.804C184.051 433.804 184.511 433.925 184.931 434.168C185.351 434.406 185.684 434.723 185.932 435.12C186.179 434.723 186.508 434.406 186.919 434.168C187.334 433.925 187.791 433.804 188.291 433.804C188.809 433.804 189.28 433.93 189.705 434.182C190.129 434.434 190.468 434.772 190.72 435.197C190.972 435.622 191.098 436.093 191.098 436.611V441H189.642V436.982C189.642 436.674 189.567 436.392 189.418 436.135C189.268 435.878 189.068 435.671 188.816 435.512C188.564 435.353 188.284 435.274 187.976 435.274C187.668 435.274 187.388 435.349 187.136 435.498C186.884 435.647 186.683 435.85 186.534 436.107C186.384 436.364 186.31 436.655 186.31 436.982V441H184.854V436.982C184.854 436.655 184.779 436.364 184.63 436.107C184.48 435.85 184.277 435.647 184.021 435.498C183.769 435.349 183.489 435.274 183.181 435.274C182.877 435.274 182.597 435.353 182.341 435.512C182.089 435.671 181.888 435.878 181.739 436.135C181.589 436.392 181.515 436.674 181.515 436.982V441H180.059ZM193.956 444.5H192.5V434H193.956V435.029C194.189 434.67 194.488 434.378 194.852 434.154C195.216 433.93 195.645 433.818 196.14 433.818C196.649 433.818 197.125 433.914 197.568 434.105C198.016 434.296 198.408 434.562 198.744 434.903C199.08 435.239 199.344 435.629 199.535 436.072C199.726 436.515 199.822 436.991 199.822 437.5C199.822 438.009 199.726 438.487 199.535 438.935C199.344 439.383 199.08 439.777 198.744 440.118C198.408 440.454 198.016 440.718 197.568 440.909C197.125 441.1 196.649 441.196 196.14 441.196C195.645 441.196 195.216 441.084 194.852 440.86C194.488 440.631 194.189 440.34 193.956 439.985V444.5ZM196.126 435.225C195.72 435.225 195.363 435.328 195.055 435.533C194.747 435.738 194.507 436.014 194.334 436.359C194.161 436.7 194.075 437.08 194.075 437.5C194.075 437.92 194.161 438.303 194.334 438.648C194.507 438.993 194.747 439.269 195.055 439.474C195.363 439.679 195.72 439.782 196.126 439.782C196.527 439.782 196.896 439.682 197.232 439.481C197.568 439.276 197.836 439 198.037 438.655C198.238 438.31 198.338 437.925 198.338 437.5C198.338 437.085 198.238 436.704 198.037 436.359C197.841 436.014 197.575 435.738 197.239 435.533C196.903 435.328 196.532 435.225 196.126 435.225Z" fill="#0C1021"/>
</g>
<path d="M97.5 436.5H86.75C76.6708 436.5 68.5 428.329 68.5 418.25C68.5 408.171 76.6708 400 86.75 400H226.25C236.329 400 244.5 391.829 244.5 381.75C244.5 371.671 236.329 363.5 226.25 363.5H215.5" stroke="#4268FF" stroke-linecap="round" stroke-linejoin="bevel" stroke-dasharray="6 6"/>
<path d="M88.5 217.5H77.75C67.6708 217.5 59.5 209.329 59.5 199.25C59.5 189.171 67.6708 181 77.75 181H249.25C259.329 181 267.5 172.829 267.5 162.75C267.5 152.671 259.329 144.5 249.25 144.5H238.5" stroke="#4268FF" stroke-linecap="round" stroke-linejoin="bevel" stroke-dasharray="6 6"/>
<path d="M86.5 290.5H75.75C65.6708 290.5 57.5 282.329 57.5 272.25C57.5 262.171 65.6708 254 75.75 254H235.25C245.329 254 253.5 245.829 253.5 235.75C253.5 225.671 245.329 217.5 235.25 217.5H224.5" stroke="#4268FF" stroke-linecap="round" stroke-linejoin="bevel" stroke-dasharray="6 6"/>
<path d="M97.5 363.5H86.75C76.6708 363.5 68.5 355.329 68.5 345.25C68.5 335.171 76.6708 327 86.75 327H237.25C247.329 327 255.5 318.829 255.5 308.75C255.5 298.671 247.329 290.5 237.25 290.5H226.5" stroke="#4268FF" stroke-linecap="round" stroke-linejoin="bevel" stroke-dasharray="6 6"/>
<path d="M56.611 70.4V71.66H52.291V83H51.031V71.66H46.72V70.4H56.611ZM66.2659 77.429V83H65.0059V77.681C65.0059 77.189 64.8859 76.742 64.6459 76.34C64.4059 75.938 64.0849 75.617 63.6829 75.377C63.2809 75.137 62.8339 75.017 62.3419 75.017C61.8559 75.017 61.4089 75.137 61.0009 75.377C60.5989 75.617 60.2779 75.938 60.0379 76.34C59.7979 76.742 59.6779 77.189 59.6779 77.681V83H58.4179V69.5H59.6779V75.242C59.9959 74.786 60.4099 74.423 60.9199 74.153C61.4299 73.883 61.9849 73.748 62.5849 73.748C63.2629 73.748 63.8809 73.913 64.4389 74.243C64.9969 74.573 65.4409 75.017 65.7709 75.575C66.1009 76.133 66.2659 76.751 66.2659 77.429ZM71.8525 83.234C71.0245 83.234 70.2685 83.021 69.5845 82.595C68.9065 82.169 68.3635 81.599 67.9555 80.885C67.5535 80.165 67.3525 79.37 67.3525 78.5C67.3525 77.84 67.4695 77.225 67.7035 76.655C67.9375 76.079 68.2585 75.575 68.6665 75.143C69.0805 74.705 69.5605 74.363 70.1065 74.117C70.6525 73.871 71.2345 73.748 71.8525 73.748C72.5185 73.748 73.1305 73.88 73.6885 74.144C74.2525 74.408 74.7355 74.777 75.1375 75.251C75.5455 75.725 75.8515 76.28 76.0555 76.916C76.2655 77.552 76.3525 78.239 76.3165 78.977H68.6845C68.7565 79.547 68.9365 80.057 69.2245 80.507C69.5185 80.957 69.8905 81.314 70.3405 81.578C70.7965 81.836 71.3005 81.968 71.8525 81.974C72.4525 81.974 72.9925 81.818 73.4725 81.506C73.9585 81.194 74.3485 80.765 74.6425 80.219L75.9205 80.516C75.5605 81.314 75.0175 81.968 74.2915 82.478C73.5655 82.982 72.7525 83.234 71.8525 83.234ZM68.6485 77.96H75.0475C75.0055 77.402 74.8345 76.892 74.5345 76.43C74.2405 75.962 73.8595 75.59 73.3915 75.314C72.9235 75.032 72.4105 74.891 71.8525 74.891C71.2945 74.891 70.7845 75.029 70.3225 75.305C69.8605 75.575 69.4825 75.944 69.1885 76.412C68.8945 76.874 68.7145 77.39 68.6485 77.96ZM77.7714 74H79.0314V83H77.7714V74ZM78.4104 72.425C78.2064 72.425 78.0324 72.359 77.8884 72.227C77.7504 72.089 77.6814 71.918 77.6814 71.714C77.6814 71.51 77.7504 71.342 77.8884 71.21C78.0324 71.072 78.2064 71.003 78.4104 71.003C78.6084 71.003 78.7764 71.072 78.9144 71.21C79.0584 71.342 79.1304 71.51 79.1304 71.714C79.1304 71.918 79.0614 72.089 78.9234 72.227C78.7854 72.359 78.6144 72.425 78.4104 72.425ZM81.164 83V74H82.424V75.242C82.742 74.786 83.156 74.423 83.666 74.153C84.176 73.883 84.731 73.748 85.331 73.748C85.679 73.748 86.015 73.793 86.339 73.883L85.826 75.134C85.574 75.056 85.328 75.017 85.088 75.017C84.602 75.017 84.155 75.137 83.747 75.377C83.345 75.617 83.024 75.938 82.784 76.34C82.544 76.742 82.424 77.189 82.424 77.681V83H81.164ZM98.3478 80.741L99.4728 81.353C99.0648 81.923 98.5458 82.379 97.9158 82.721C97.2918 83.063 96.6138 83.234 95.8818 83.234C95.0538 83.234 94.2978 83.021 93.6138 82.595C92.9358 82.169 92.3928 81.599 91.9848 80.885C91.5828 80.165 91.3818 79.37 91.3818 78.5C91.3818 77.84 91.4988 77.225 91.7328 76.655C91.9668 76.079 92.2878 75.575 92.6958 75.143C93.1098 74.705 93.5898 74.363 94.1358 74.117C94.6818 73.871 95.2638 73.748 95.8818 73.748C96.6138 73.748 97.2918 73.919 97.9158 74.261C98.5458 74.603 99.0648 75.062 99.4728 75.638L98.3478 76.241C98.0358 75.845 97.6608 75.542 97.2228 75.332C96.7848 75.116 96.3378 75.008 95.8818 75.008C95.2758 75.008 94.7268 75.17 94.2348 75.494C93.7428 75.812 93.3528 76.235 93.0648 76.763C92.7828 77.291 92.6418 77.87 92.6418 78.5C92.6418 79.13 92.7858 79.709 93.0738 80.237C93.3678 80.765 93.7608 81.188 94.2528 81.506C94.7448 81.818 95.2878 81.974 95.8818 81.974C96.3738 81.974 96.8358 81.86 97.2678 81.632C97.6998 81.404 98.0598 81.107 98.3478 80.741ZM104.935 83.234C104.107 83.234 103.351 83.021 102.667 82.595C101.989 82.169 101.446 81.599 101.038 80.885C100.636 80.165 100.435 79.37 100.435 78.5C100.435 77.84 100.552 77.225 100.786 76.655C101.02 76.079 101.341 75.575 101.749 75.143C102.163 74.705 102.643 74.363 103.189 74.117C103.735 73.871 104.317 73.748 104.935 73.748C105.763 73.748 106.516 73.961 107.194 74.387C107.878 74.813 108.421 75.386 108.823 76.106C109.231 76.826 109.435 77.624 109.435 78.5C109.435 79.154 109.318 79.766 109.084 80.336C108.85 80.906 108.526 81.41 108.112 81.848C107.704 82.28 107.227 82.619 106.681 82.865C106.141 83.111 105.559 83.234 104.935 83.234ZM104.935 81.974C105.547 81.974 106.096 81.815 106.582 81.497C107.074 81.173 107.461 80.747 107.743 80.219C108.031 79.691 108.175 79.118 108.175 78.5C108.175 77.87 108.031 77.291 107.743 76.763C107.455 76.229 107.065 75.803 106.573 75.485C106.087 75.167 105.541 75.008 104.935 75.008C104.323 75.008 103.771 75.17 103.279 75.494C102.793 75.812 102.406 76.235 102.118 76.763C101.836 77.291 101.695 77.87 101.695 78.5C101.695 79.148 101.842 79.736 102.136 80.264C102.43 80.786 102.823 81.203 103.315 81.515C103.807 81.821 104.347 81.974 104.935 81.974ZM110.959 83V74H112.219V75.242C112.537 74.786 112.951 74.423 113.461 74.153C113.971 73.883 114.526 73.748 115.126 73.748C115.474 73.748 115.81 73.793 116.134 73.883L115.621 75.134C115.369 75.056 115.123 75.017 114.883 75.017C114.397 75.017 113.95 75.137 113.542 75.377C113.14 75.617 112.819 75.938 112.579 76.34C112.339 76.742 112.219 77.189 112.219 77.681V83H110.959ZM120.755 83.234C119.927 83.234 119.171 83.021 118.487 82.595C117.809 82.169 117.266 81.599 116.858 80.885C116.456 80.165 116.255 79.37 116.255 78.5C116.255 77.84 116.372 77.225 116.606 76.655C116.84 76.079 117.161 75.575 117.569 75.143C117.983 74.705 118.463 74.363 119.009 74.117C119.555 73.871 120.137 73.748 120.755 73.748C121.421 73.748 122.033 73.88 122.591 74.144C123.155 74.408 123.638 74.777 124.04 75.251C124.448 75.725 124.754 76.28 124.958 76.916C125.168 77.552 125.255 78.239 125.219 78.977H117.587C117.659 79.547 117.839 80.057 118.127 80.507C118.421 80.957 118.793 81.314 119.243 81.578C119.699 81.836 120.203 81.968 120.755 81.974C121.355 81.974 121.895 81.818 122.375 81.506C122.861 81.194 123.251 80.765 123.545 80.219L124.823 80.516C124.463 81.314 123.92 81.968 123.194 82.478C122.468 82.982 121.655 83.234 120.755 83.234ZM117.551 77.96H123.95C123.908 77.402 123.737 76.892 123.437 76.43C123.143 75.962 122.762 75.59 122.294 75.314C121.826 75.032 121.313 74.891 120.755 74.891C120.197 74.891 119.687 75.029 119.225 75.305C118.763 75.575 118.385 75.944 118.091 76.412C117.797 76.874 117.617 77.39 117.551 77.96ZM135.134 83.234C134.306 83.234 133.55 83.021 132.866 82.595C132.188 82.169 131.645 81.599 131.237 80.885C130.835 80.165 130.634 79.37 130.634 78.5C130.634 77.84 130.751 77.225 130.985 76.655C131.219 76.079 131.54 75.575 131.948 75.143C132.362 74.705 132.842 74.363 133.388 74.117C133.934 73.871 134.516 73.748 135.134 73.748C135.962 73.748 136.715 73.961 137.393 74.387C138.077 74.813 138.62 75.386 139.022 76.106C139.43 76.826 139.634 77.624 139.634 78.5C139.634 79.154 139.517 79.766 139.283 80.336C139.049 80.906 138.725 81.41 138.311 81.848C137.903 82.28 137.426 82.619 136.88 82.865C136.34 83.111 135.758 83.234 135.134 83.234ZM135.134 81.974C135.746 81.974 136.295 81.815 136.781 81.497C137.273 81.173 137.66 80.747 137.942 80.219C138.23 79.691 138.374 79.118 138.374 78.5C138.374 77.87 138.23 77.291 137.942 76.763C137.654 76.229 137.264 75.803 136.772 75.485C136.286 75.167 135.74 75.008 135.134 75.008C134.522 75.008 133.97 75.17 133.478 75.494C132.992 75.812 132.605 76.235 132.317 76.763C132.035 77.291 131.894 77.87 131.894 78.5C131.894 79.148 132.041 79.736 132.335 80.264C132.629 80.786 133.022 81.203 133.514 81.515C134.006 81.821 134.546 81.974 135.134 81.974ZM143.109 71.651V74H145.809V75.26H143.109V83H141.849V75.26H140.616V74H141.849V71.651C141.849 71.213 141.954 70.817 142.164 70.463C142.38 70.103 142.668 69.818 143.028 69.608C143.388 69.392 143.787 69.284 144.225 69.284C144.543 69.284 144.849 69.347 145.143 69.473C145.443 69.599 145.71 69.785 145.944 70.031L145.044 70.922C144.948 70.802 144.825 70.709 144.675 70.643C144.531 70.577 144.381 70.544 144.225 70.544C143.919 70.544 143.655 70.652 143.433 70.868C143.217 71.084 143.109 71.345 143.109 71.651ZM149.367 71.651V74H152.067V75.26H149.367V83H148.107V75.26H146.874V74H148.107V71.651C148.107 71.213 148.212 70.817 148.422 70.463C148.638 70.103 148.926 69.818 149.286 69.608C149.646 69.392 150.045 69.284 150.483 69.284C150.801 69.284 151.107 69.347 151.401 69.473C151.701 69.599 151.968 69.785 152.202 70.031L151.302 70.922C151.206 70.802 151.083 70.709 150.933 70.643C150.789 70.577 150.639 70.544 150.483 70.544C150.177 70.544 149.913 70.652 149.691 70.868C149.475 71.084 149.367 71.345 149.367 71.651ZM157.265 83.234C156.437 83.234 155.681 83.021 154.997 82.595C154.319 82.169 153.776 81.599 153.368 80.885C152.966 80.165 152.765 79.37 152.765 78.5C152.765 77.84 152.882 77.225 153.116 76.655C153.35 76.079 153.671 75.575 154.079 75.143C154.493 74.705 154.973 74.363 155.519 74.117C156.065 73.871 156.647 73.748 157.265 73.748C157.931 73.748 158.543 73.88 159.101 74.144C159.665 74.408 160.148 74.777 160.55 75.251C160.958 75.725 161.264 76.28 161.468 76.916C161.678 77.552 161.765 78.239 161.729 78.977H154.097C154.169 79.547 154.349 80.057 154.637 80.507C154.931 80.957 155.303 81.314 155.753 81.578C156.209 81.836 156.713 81.968 157.265 81.974C157.865 81.974 158.405 81.818 158.885 81.506C159.371 81.194 159.761 80.765 160.055 80.219L161.333 80.516C160.973 81.314 160.43 81.968 159.704 82.478C158.978 82.982 158.165 83.234 157.265 83.234ZM154.061 77.96H160.46C160.418 77.402 160.247 76.892 159.947 76.43C159.653 75.962 159.272 75.59 158.804 75.314C158.336 75.032 157.823 74.891 157.265 74.891C156.707 74.891 156.197 75.029 155.735 75.305C155.273 75.575 154.895 75.944 154.601 76.412C154.307 76.874 154.127 77.39 154.061 77.96ZM163.271 83V74H164.531V75.242C164.849 74.786 165.263 74.423 165.773 74.153C166.283 73.883 166.838 73.748 167.438 73.748C167.786 73.748 168.122 73.793 168.446 73.883L167.933 75.134C167.681 75.056 167.435 75.017 167.195 75.017C166.709 75.017 166.262 75.137 165.854 75.377C165.452 75.617 165.131 75.938 164.891 76.34C164.651 76.742 164.531 77.189 164.531 77.681V83H163.271ZM169.582 74H170.842V83H169.582V74ZM170.221 72.425C170.017 72.425 169.843 72.359 169.699 72.227C169.561 72.089 169.492 71.918 169.492 71.714C169.492 71.51 169.561 71.342 169.699 71.21C169.843 71.072 170.017 71.003 170.221 71.003C170.419 71.003 170.587 71.072 170.725 71.21C170.869 71.342 170.941 71.51 170.941 71.714C170.941 71.918 170.872 72.089 170.734 72.227C170.596 72.359 170.425 72.425 170.221 72.425ZM180.823 77.429V83H179.563V77.681C179.563 77.189 179.443 76.742 179.203 76.34C178.963 75.938 178.642 75.617 178.24 75.377C177.838 75.137 177.391 75.017 176.899 75.017C176.413 75.017 175.966 75.137 175.558 75.377C175.156 75.617 174.835 75.938 174.595 76.34C174.355 76.742 174.235 77.189 174.235 77.681V83H172.975V74H174.235V75.242C174.553 74.786 174.967 74.423 175.477 74.153C175.987 73.883 176.542 73.748 177.142 73.748C177.82 73.748 178.438 73.913 178.996 74.243C179.554 74.573 179.998 75.017 180.328 75.575C180.658 76.133 180.823 76.751 180.823 77.429ZM189.604 74H190.864V83.333C190.864 83.909 190.738 84.449 190.486 84.953C190.24 85.457 189.904 85.898 189.478 86.276C189.058 86.66 188.578 86.96 188.038 87.176C187.498 87.392 186.937 87.5 186.355 87.5C185.731 87.5 185.128 87.356 184.546 87.068C183.964 86.786 183.457 86.408 183.025 85.934C182.599 85.46 182.296 84.935 182.116 84.359L183.277 83.828C183.391 84.278 183.604 84.683 183.916 85.043C184.234 85.409 184.606 85.697 185.032 85.907C185.464 86.123 185.905 86.231 186.355 86.231C186.769 86.231 187.168 86.153 187.552 85.997C187.942 85.847 188.29 85.64 188.596 85.376C188.908 85.112 189.154 84.803 189.334 84.449C189.514 84.101 189.604 83.729 189.604 83.333V81.344C189.292 81.908 188.869 82.364 188.335 82.712C187.807 83.06 187.192 83.234 186.49 83.234C185.86 83.234 185.266 83.111 184.708 82.865C184.156 82.619 183.67 82.28 183.25 81.848C182.83 81.41 182.5 80.906 182.26 80.336C182.026 79.766 181.909 79.154 181.909 78.5C181.909 77.846 182.026 77.234 182.26 76.664C182.5 76.088 182.83 75.584 183.25 75.152C183.67 74.714 184.156 74.372 184.708 74.126C185.266 73.88 185.86 73.757 186.49 73.757C187.192 73.757 187.807 73.931 188.335 74.279C188.869 74.621 189.292 75.077 189.604 75.647V74ZM186.499 82.01C187.123 82.01 187.66 81.848 188.11 81.524C188.566 81.2 188.917 80.771 189.163 80.237C189.409 79.703 189.532 79.124 189.532 78.5C189.532 77.858 189.406 77.273 189.154 76.745C188.908 76.211 188.557 75.785 188.101 75.467C187.645 75.143 187.111 74.981 186.499 74.981C185.887 74.981 185.329 75.14 184.825 75.458C184.327 75.77 183.931 76.193 183.637 76.727C183.343 77.261 183.196 77.852 183.196 78.5C183.196 79.148 183.346 79.739 183.646 80.273C183.946 80.801 184.345 81.224 184.843 81.542C185.347 81.854 185.899 82.01 186.499 82.01ZM197.355 74H198.615V83H197.355V74ZM197.994 72.425C197.79 72.425 197.616 72.359 197.472 72.227C197.334 72.089 197.265 71.918 197.265 71.714C197.265 71.51 197.334 71.342 197.472 71.21C197.616 71.072 197.79 71.003 197.994 71.003C198.192 71.003 198.36 71.072 198.498 71.21C198.642 71.342 198.714 71.51 198.714 71.714C198.714 71.918 198.645 72.089 198.507 72.227C198.369 72.359 198.198 72.425 197.994 72.425ZM208.596 77.429V83H207.336V77.681C207.336 77.189 207.216 76.742 206.976 76.34C206.736 75.938 206.415 75.617 206.013 75.377C205.611 75.137 205.164 75.017 204.672 75.017C204.186 75.017 203.739 75.137 203.331 75.377C202.929 75.617 202.608 75.938 202.368 76.34C202.128 76.742 202.008 77.189 202.008 77.681V83H200.748V74H202.008V75.242C202.326 74.786 202.74 74.423 203.25 74.153C203.76 73.883 204.315 73.748 204.915 73.748C205.593 73.748 206.211 73.913 206.769 74.243C207.327 74.573 207.771 75.017 208.101 75.575C208.431 76.133 208.596 76.751 208.596 77.429ZM216.649 80.741L217.774 81.353C217.366 81.923 216.847 82.379 216.217 82.721C215.593 83.063 214.915 83.234 214.183 83.234C213.355 83.234 212.599 83.021 211.915 82.595C211.237 82.169 210.694 81.599 210.286 80.885C209.884 80.165 209.683 79.37 209.683 78.5C209.683 77.84 209.8 77.225 210.034 76.655C210.268 76.079 210.589 75.575 210.997 75.143C211.411 74.705 211.891 74.363 212.437 74.117C212.983 73.871 213.565 73.748 214.183 73.748C214.915 73.748 215.593 73.919 216.217 74.261C216.847 74.603 217.366 75.062 217.774 75.638L216.649 76.241C216.337 75.845 215.962 75.542 215.524 75.332C215.086 75.116 214.639 75.008 214.183 75.008C213.577 75.008 213.028 75.17 212.536 75.494C212.044 75.812 211.654 76.235 211.366 76.763C211.084 77.291 210.943 77.87 210.943 78.5C210.943 79.13 211.087 79.709 211.375 80.237C211.669 80.765 212.062 81.188 212.554 81.506C213.046 81.818 213.589 81.974 214.183 81.974C214.675 81.974 215.137 81.86 215.569 81.632C216.001 81.404 216.361 81.107 216.649 80.741ZM219.275 83V69.5H220.535V83H219.275ZM222.343 79.553V74H223.603V79.301C223.603 79.793 223.723 80.24 223.963 80.642C224.203 81.044 224.524 81.365 224.926 81.605C225.334 81.845 225.781 81.965 226.267 81.965C226.759 81.965 227.203 81.845 227.599 81.605C228.001 81.365 228.322 81.044 228.562 80.642C228.802 80.24 228.922 79.793 228.922 79.301V74H230.182L230.191 83H228.931L228.922 81.74C228.604 82.196 228.19 82.559 227.68 82.829C227.176 83.099 226.624 83.234 226.024 83.234C225.346 83.234 224.728 83.069 224.17 82.739C223.612 82.409 223.168 81.965 222.838 81.407C222.508 80.849 222.343 80.231 222.343 79.553ZM239.321 69.5H240.581V83H239.321V81.317C239.009 81.893 238.58 82.358 238.034 82.712C237.494 83.06 236.852 83.234 236.108 83.234C235.454 83.234 234.842 83.111 234.272 82.865C233.702 82.619 233.198 82.28 232.76 81.848C232.328 81.41 231.989 80.906 231.743 80.336C231.497 79.766 231.374 79.154 231.374 78.5C231.374 77.846 231.497 77.234 231.743 76.664C231.989 76.088 232.328 75.584 232.76 75.152C233.198 74.714 233.702 74.372 234.272 74.126C234.842 73.88 235.454 73.757 236.108 73.757C236.852 73.757 237.494 73.934 238.034 74.288C238.58 74.636 239.009 75.095 239.321 75.665V69.5ZM236.117 82.01C236.759 82.01 237.311 81.854 237.773 81.542C238.235 81.224 238.589 80.798 238.835 80.264C239.087 79.73 239.213 79.142 239.213 78.5C239.213 77.84 239.087 77.246 238.835 76.718C238.583 76.184 238.226 75.761 237.764 75.449C237.302 75.137 236.753 74.981 236.117 74.981C235.481 74.981 234.902 75.14 234.38 75.458C233.858 75.77 233.441 76.193 233.129 76.727C232.817 77.261 232.661 77.852 232.661 78.5C232.661 79.154 232.82 79.748 233.138 80.282C233.456 80.81 233.876 81.23 234.398 81.542C234.926 81.854 235.499 82.01 236.117 82.01ZM246.632 83.234C245.804 83.234 245.048 83.021 244.364 82.595C243.686 82.169 243.143 81.599 242.735 80.885C242.333 80.165 242.132 79.37 242.132 78.5C242.132 77.84 242.249 77.225 242.483 76.655C242.717 76.079 243.038 75.575 243.446 75.143C243.86 74.705 244.34 74.363 244.886 74.117C245.432 73.871 246.014 73.748 246.632 73.748C247.298 73.748 247.91 73.88 248.468 74.144C249.032 74.408 249.515 74.777 249.917 75.251C250.325 75.725 250.631 76.28 250.835 76.916C251.045 77.552 251.132 78.239 251.096 78.977H243.464C243.536 79.547 243.716 80.057 244.004 80.507C244.298 80.957 244.67 81.314 245.12 81.578C245.576 81.836 246.08 81.968 246.632 81.974C247.232 81.974 247.772 81.818 248.252 81.506C248.738 81.194 249.128 80.765 249.422 80.219L250.7 80.516C250.34 81.314 249.797 81.968 249.071 82.478C248.345 82.982 247.532 83.234 246.632 83.234ZM243.428 77.96H249.827C249.785 77.402 249.614 76.892 249.314 76.43C249.02 75.962 248.639 75.59 248.171 75.314C247.703 75.032 247.19 74.891 246.632 74.891C246.074 74.891 245.564 75.029 245.102 75.305C244.64 75.575 244.262 75.944 243.968 76.412C243.674 76.874 243.494 77.39 243.428 77.96ZM255.437 83.171C254.945 83.159 254.465 83.069 253.997 82.901C253.529 82.733 253.121 82.505 252.773 82.217C252.425 81.929 252.176 81.602 252.026 81.236L253.115 80.768C253.211 81.002 253.388 81.218 253.646 81.416C253.91 81.608 254.21 81.764 254.546 81.884C254.882 81.998 255.215 82.055 255.545 82.055C255.911 82.055 256.253 81.995 256.571 81.875C256.889 81.755 257.147 81.584 257.345 81.362C257.549 81.134 257.651 80.867 257.651 80.561C257.651 80.231 257.543 79.973 257.327 79.787C257.111 79.595 256.838 79.445 256.508 79.337C256.178 79.223 255.839 79.115 255.491 79.013C254.855 78.839 254.294 78.647 253.808 78.437C253.322 78.227 252.941 77.96 252.665 77.636C252.395 77.306 252.26 76.883 252.26 76.367C252.26 75.821 252.413 75.35 252.719 74.954C253.031 74.552 253.436 74.243 253.934 74.027C254.438 73.805 254.975 73.694 255.545 73.694C256.277 73.694 256.943 73.853 257.543 74.171C258.149 74.489 258.587 74.912 258.857 75.44L257.84 76.043C257.732 75.797 257.561 75.584 257.327 75.404C257.093 75.224 256.826 75.083 256.526 74.981C256.232 74.879 255.932 74.825 255.626 74.819C255.242 74.813 254.885 74.87 254.555 74.99C254.225 75.104 253.958 75.275 253.754 75.503C253.556 75.731 253.457 76.01 253.457 76.34C253.457 76.67 253.556 76.922 253.754 77.096C253.952 77.264 254.219 77.402 254.555 77.51C254.897 77.612 255.281 77.732 255.707 77.87C256.253 78.044 256.766 78.242 257.246 78.464C257.726 78.686 258.113 78.962 258.407 79.292C258.701 79.622 258.845 80.039 258.839 80.543C258.839 81.083 258.677 81.554 258.353 81.956C258.029 82.358 257.609 82.667 257.093 82.883C256.577 83.093 256.025 83.189 255.437 83.171ZM260.742 75.44C260.544 75.44 260.376 75.371 260.238 75.233C260.1 75.089 260.031 74.915 260.031 74.711C260.031 74.519 260.1 74.354 260.238 74.216C260.376 74.072 260.544 74 260.742 74C260.946 74 261.117 74.072 261.255 74.216C261.399 74.354 261.471 74.519 261.471 74.711C261.471 74.915 261.399 75.089 261.255 75.233C261.117 75.371 260.946 75.44 260.742 75.44ZM260.742 83.234C260.544 83.234 260.376 83.162 260.238 83.018C260.1 82.88 260.031 82.709 260.031 82.505C260.031 82.313 260.1 82.148 260.238 82.01C260.376 81.866 260.544 81.794 260.742 81.794C260.946 81.794 261.117 81.866 261.255 82.01C261.399 82.148 261.471 82.313 261.471 82.505C261.471 82.709 261.399 82.88 261.255 83.018C261.117 83.162 260.946 83.234 260.742 83.234Z" fill="#535662"/>
<defs>
<filter id="filter0_d_3298_9785" x="59.1142" y="109.291" width="194.772" height="77.7715" filterUnits="userSpaceOnUse" color-interpolation-filters="sRGB">
<feFlood flood-opacity="0" result="BackgroundImageFix"/>
<feColorMatrix in="SourceAlpha" type="matrix" values="0 0 0 0 0 0 0 0 0 0 0 0 0 0 0 0 0 0 127 0" result="hardAlpha"/>
<feOffset dy="3.67715"/>
<feGaussianBlur stdDeviation="9.19289"/>
<feComposite in2="hardAlpha" operator="out"/>
<feColorMatrix type="matrix" values="0 0 0 0 0.0468057 0 0 0 0 0.0634939 0 0 0 0 0.129808 0 0 0 0.1 0"/>
<feBlend mode="normal" in2="BackgroundImageFix" result="effect1_dropShadow_3298_9785"/>
<feBlend mode="normal" in="SourceGraphic" in2="effect1_dropShadow_3298_9785" result="shape"/>
</filter>
<filter id="filter1_d_3298_9785" x="73.1142" y="182.291" width="166.772" height="77.7715" filterUnits="userSpaceOnUse" color-interpolation-filters="sRGB">
<feFlood flood-opacity="0" result="BackgroundImageFix"/>
<feColorMatrix in="SourceAlpha" type="matrix" values="0 0 0 0 0 0 0 0 0 0 0 0 0 0 0 0 0 0 127 0" result="hardAlpha"/>
<feOffset dy="3.67715"/>
<feGaussianBlur stdDeviation="9.19289"/>
<feComposite in2="hardAlpha" operator="out"/>
<feColorMatrix type="matrix" values="0 0 0 0 0.0468057 0 0 0 0 0.0634939 0 0 0 0 0.129808 0 0 0 0.1 0"/>
<feBlend mode="normal" in2="BackgroundImageFix" result="effect1_dropShadow_3298_9785"/>
<feBlend mode="normal" in="SourceGraphic" in2="effect1_dropShadow_3298_9785" result="shape"/>
</filter>
<filter id="filter2_d_3298_9785" x="71.1142" y="255.291" width="170.772" height="77.7715" filterUnits="userSpaceOnUse" color-interpolation-filters="sRGB">
<feFlood flood-opacity="0" result="BackgroundImageFix"/>
<feColorMatrix in="SourceAlpha" type="matrix" values="0 0 0 0 0 0 0 0 0 0 0 0 0 0 0 0 0 0 127 0" result="hardAlpha"/>
<feOffset dy="3.67715"/>
<feGaussianBlur stdDeviation="9.19289"/>
<feComposite in2="hardAlpha" operator="out"/>
<feColorMatrix type="matrix" values="0 0 0 0 0.0468057 0 0 0 0 0.0634939 0 0 0 0 0.129808 0 0 0 0.1 0"/>
<feBlend mode="normal" in2="BackgroundImageFix" result="effect1_dropShadow_3298_9785"/>
<feBlend mode="normal" in="SourceGraphic" in2="effect1_dropShadow_3298_9785" result="shape"/>
</filter>
<filter id="filter3_d_3298_9785" x="82.1142" y="328.291" width="148.772" height="77.7715" filterUnits="userSpaceOnUse" color-interpolation-filters="sRGB">
<feFlood flood-opacity="0" result="BackgroundImageFix"/>
<feColorMatrix in="SourceAlpha" type="matrix" values="0 0 0 0 0 0 0 0 0 0 0 0 0 0 0 0 0 0 127 0" result="hardAlpha"/>
<feOffset dy="3.67715"/>
<feGaussianBlur stdDeviation="9.19289"/>
<feComposite in2="hardAlpha" operator="out"/>
<feColorMatrix type="matrix" values="0 0 0 0 0.0468057 0 0 0 0 0.0634939 0 0 0 0 0.129808 0 0 0 0.1 0"/>
<feBlend mode="normal" in2="BackgroundImageFix" result="effect1_dropShadow_3298_9785"/>
<feBlend mode="normal" in="SourceGraphic" in2="effect1_dropShadow_3298_9785" result="shape"/>
</filter>
<filter id="filter4_d_3298_9785" x="82.1142" y="401.291" width="148.772" height="77.7715" filterUnits="userSpaceOnUse" color-interpolation-filters="sRGB">
<feFlood flood-opacity="0" result="BackgroundImageFix"/>
<feColorMatrix in="SourceAlpha" type="matrix" values="0 0 0 0 0 0 0 0 0 0 0 0 0 0 0 0 0 0 127 0" result="hardAlpha"/>
<feOffset dy="3.67715"/>
<feGaussianBlur stdDeviation="9.19289"/>
<feComposite in2="hardAlpha" operator="out"/>
<feColorMatrix type="matrix" values="0 0 0 0 0.0468057 0 0 0 0 0.0634939 0 0 0 0 0.129808 0 0 0 0.1 0"/>
<feBlend mode="normal" in2="BackgroundImageFix" result="effect1_dropShadow_3298_9785"/>
<feBlend mode="normal" in="SourceGraphic" in2="effect1_dropShadow_3298_9785" result="shape"/>
</filter>
<pattern id="pattern0_3298_9785" patternUnits="userSpaceOnUse" patternTransform="matrix(12.5 0 0 12.5 0 0)" preserveAspectRatio="none" viewBox="0 0 12.5 12.5" width="1" height="1">
<g id="pattern0_3298_9785_inner">
<circle cx="2.5" cy="2.5" r="2.5" fill="#0C1021"/>
</g>
</pattern></defs>
</svg>
