<svg width="1014" height="244" viewBox="0 0 1014 244" fill="none" xmlns="http://www.w3.org/2000/svg" xmlns:xlink="http://www.w3.org/1999/xlink">
<rect width="1014" height="244" rx="24" fill="#FAFAFA"/>
<rect width="1014" height="244" rx="24" fill="url(#pattern0_3290_7645)" fill-opacity="0.02"/>
<g filter="url(#filter0_d_3290_7645)">
<rect x="106" y="121" width="158" height="41" rx="16" fill="white" shape-rendering="crispEdges"/>
<rect x="106.46" y="121.46" width="157.081" height="40.0807" rx="15.5404" stroke="#0C1021" stroke-opacity="0.05" stroke-width="0.919289" shape-rendering="crispEdges"/>
<path d="M118.84 146L120.737 136.2H121.913L124.426 142.801L126.925 136.2H128.101L130.005 146H128.521L127.254 139.441L124.909 145.629H123.929L121.591 139.441L120.324 146H118.84ZM131.261 143.375V139H132.717V143.018C132.717 143.331 132.794 143.615 132.948 143.872C133.102 144.129 133.308 144.334 133.564 144.488C133.821 144.637 134.103 144.712 134.411 144.712C134.724 144.712 135.006 144.637 135.258 144.488C135.515 144.334 135.718 144.129 135.867 143.872C136.021 143.615 136.098 143.331 136.098 143.018V139H137.554L137.561 146H136.105L136.098 145.244C135.86 145.533 135.564 145.762 135.209 145.93C134.855 146.098 134.474 146.182 134.068 146.182C133.55 146.182 133.079 146.056 132.654 145.804C132.23 145.552 131.891 145.214 131.639 144.789C131.387 144.364 131.261 143.893 131.261 143.375ZM139.02 146V135.5H140.476V146H139.02ZM145.847 140.456H144.377L144.37 146H142.914L142.921 140.456H141.808V139H142.921L142.914 136.802H144.37L144.377 139H145.847V140.456ZM147.004 139H148.46V146H147.004V139ZM147.746 137.985C147.522 137.985 147.335 137.913 147.186 137.768C147.037 137.623 146.962 137.441 146.962 137.222C146.962 137.007 147.037 136.828 147.186 136.683C147.335 136.534 147.52 136.459 147.739 136.459C147.954 136.459 148.136 136.534 148.285 136.683C148.434 136.828 148.509 137.007 148.509 137.222C148.509 137.441 148.434 137.623 148.285 137.768C148.14 137.913 147.961 137.985 147.746 137.985ZM150.135 141.072H154.615V142.528H150.135V141.072ZM160.837 146.182C160.174 146.182 159.551 146.051 158.968 145.79C158.385 145.524 157.871 145.16 157.428 144.698C156.989 144.231 156.644 143.69 156.392 143.074C156.145 142.458 156.021 141.8 156.021 141.1C156.021 140.4 156.145 139.742 156.392 139.126C156.644 138.51 156.989 137.971 157.428 137.509C157.871 137.042 158.385 136.678 158.968 136.417C159.551 136.151 160.174 136.018 160.837 136.018C161.63 136.018 162.361 136.202 163.028 136.571C163.695 136.94 164.248 137.43 164.687 138.041L163.392 138.734C163.089 138.351 162.713 138.046 162.265 137.817C161.817 137.588 161.341 137.474 160.837 137.474C160.37 137.474 159.934 137.57 159.528 137.761C159.122 137.952 158.765 138.214 158.457 138.545C158.149 138.876 157.909 139.261 157.736 139.7C157.563 140.139 157.477 140.605 157.477 141.1C157.477 141.599 157.563 142.068 157.736 142.507C157.909 142.941 158.149 143.326 158.457 143.662C158.77 143.993 159.129 144.255 159.535 144.446C159.941 144.633 160.375 144.726 160.837 144.726C161.35 144.726 161.829 144.612 162.272 144.383C162.72 144.15 163.093 143.842 163.392 143.459L164.687 144.166C164.248 144.777 163.695 145.267 163.028 145.636C162.361 146 161.63 146.182 160.837 146.182ZM165.728 143.375V139H167.184V143.018C167.184 143.331 167.261 143.615 167.415 143.872C167.569 144.129 167.774 144.334 168.031 144.488C168.288 144.637 168.57 144.712 168.878 144.712C169.191 144.712 169.473 144.637 169.725 144.488C169.982 144.334 170.185 144.129 170.334 143.872C170.488 143.615 170.565 143.331 170.565 143.018V139H172.021L172.028 146H170.572L170.565 145.244C170.327 145.533 170.031 145.762 169.676 145.93C169.321 146.098 168.941 146.182 168.535 146.182C168.017 146.182 167.546 146.056 167.121 145.804C166.696 145.552 166.358 145.214 166.106 144.789C165.854 144.364 165.728 143.893 165.728 143.375ZM173.432 146V139H174.888V139.742C175.13 139.453 175.429 139.224 175.784 139.056C176.138 138.888 176.521 138.804 176.932 138.804C177.193 138.804 177.452 138.839 177.709 138.909L177.128 140.379C176.946 140.309 176.764 140.274 176.582 140.274C176.274 140.274 175.991 140.351 175.735 140.505C175.478 140.654 175.273 140.857 175.119 141.114C174.965 141.371 174.888 141.655 174.888 141.968V146H173.432ZM178.572 146V139H180.028V139.742C180.271 139.453 180.57 139.224 180.924 139.056C181.279 138.888 181.662 138.804 182.072 138.804C182.334 138.804 182.593 138.839 182.849 138.909L182.268 140.379C182.086 140.309 181.904 140.274 181.722 140.274C181.414 140.274 181.132 140.351 180.875 140.505C180.619 140.654 180.413 140.857 180.259 141.114C180.105 141.371 180.028 141.655 180.028 141.968V146H178.572ZM186.41 146.182C185.766 146.182 185.178 146.016 184.646 145.685C184.119 145.354 183.697 144.91 183.379 144.355C183.067 143.795 182.91 143.177 182.91 142.5C182.91 141.987 183.001 141.508 183.183 141.065C183.365 140.617 183.615 140.225 183.932 139.889C184.254 139.548 184.628 139.282 185.052 139.091C185.477 138.9 185.93 138.804 186.41 138.804C186.947 138.804 187.439 138.916 187.887 139.14C188.335 139.359 188.718 139.665 189.035 140.057C189.353 140.444 189.586 140.892 189.735 141.401C189.885 141.905 189.929 142.442 189.868 143.011H184.471C184.532 143.333 184.649 143.625 184.821 143.886C184.999 144.143 185.223 144.346 185.493 144.495C185.769 144.644 186.074 144.721 186.41 144.726C186.765 144.726 187.087 144.637 187.376 144.46C187.67 144.283 187.911 144.038 188.097 143.725L189.574 144.068C189.294 144.689 188.872 145.197 188.307 145.594C187.743 145.986 187.11 146.182 186.41 146.182ZM184.422 141.898H188.398C188.352 141.562 188.233 141.259 188.041 140.988C187.855 140.713 187.619 140.496 187.334 140.337C187.054 140.174 186.746 140.092 186.41 140.092C186.079 140.092 185.771 140.171 185.486 140.33C185.206 140.489 184.973 140.706 184.786 140.981C184.604 141.252 184.483 141.557 184.422 141.898ZM197.328 141.611V146H195.872V141.968C195.872 141.655 195.795 141.371 195.641 141.114C195.491 140.857 195.288 140.654 195.032 140.505C194.78 140.351 194.495 140.274 194.178 140.274C193.87 140.274 193.587 140.351 193.331 140.505C193.074 140.654 192.869 140.857 192.715 141.114C192.561 141.371 192.484 141.655 192.484 141.968V146H191.028V139H192.484V139.742C192.726 139.453 193.025 139.224 193.38 139.056C193.734 138.888 194.117 138.804 194.528 138.804C195.046 138.804 195.517 138.93 195.942 139.182C196.366 139.434 196.702 139.772 196.95 140.197C197.202 140.622 197.328 141.093 197.328 141.611ZM203.159 144.012L204.461 144.719C204.144 145.162 203.74 145.517 203.25 145.783C202.765 146.049 202.237 146.182 201.668 146.182C201.024 146.182 200.436 146.016 199.904 145.685C199.377 145.354 198.954 144.91 198.637 144.355C198.324 143.795 198.168 143.177 198.168 142.5C198.168 141.987 198.259 141.508 198.441 141.065C198.623 140.617 198.873 140.225 199.19 139.889C199.512 139.548 199.885 139.282 200.31 139.091C200.735 138.9 201.187 138.804 201.668 138.804C202.237 138.804 202.765 138.937 203.25 139.203C203.74 139.469 204.144 139.826 204.461 140.274L203.159 140.981C202.963 140.748 202.734 140.57 202.473 140.449C202.212 140.323 201.943 140.26 201.668 140.26C201.285 140.26 200.938 140.365 200.625 140.575C200.317 140.78 200.072 141.053 199.89 141.394C199.713 141.73 199.624 142.099 199.624 142.5C199.624 142.897 199.715 143.265 199.897 143.606C200.079 143.942 200.324 144.213 200.632 144.418C200.945 144.623 201.29 144.726 201.668 144.726C201.957 144.726 202.233 144.661 202.494 144.53C202.755 144.399 202.977 144.227 203.159 144.012ZM210.082 139H211.636L207.8 149.5H206.253L207.52 146L205.007 139H206.596L208.248 144.005L210.082 139ZM216.613 146V136.2H218.069V146H216.613ZM219.957 146V136.2H223.436C223.94 136.2 224.395 136.303 224.801 136.508C225.212 136.713 225.536 137.01 225.774 137.397C226.017 137.78 226.138 138.239 226.138 138.776C226.138 139.037 226.096 139.294 226.012 139.546C225.928 139.798 225.809 140.02 225.655 140.211C225.501 140.402 225.315 140.538 225.095 140.617C225.394 140.692 225.641 140.827 225.837 141.023C226.038 141.214 226.197 141.438 226.313 141.695C226.43 141.952 226.512 142.218 226.558 142.493C226.61 142.768 226.635 143.03 226.635 143.277C226.635 143.8 226.509 144.266 226.257 144.677C226.005 145.088 225.667 145.412 225.242 145.65C224.822 145.883 224.358 146 223.849 146H219.957ZM221.413 144.74H223.709C224.008 144.74 224.279 144.665 224.521 144.516C224.769 144.367 224.965 144.161 225.109 143.9C225.254 143.634 225.326 143.335 225.326 143.004C225.326 142.715 225.254 142.442 225.109 142.185C224.965 141.924 224.769 141.714 224.521 141.555C224.279 141.396 224.008 141.317 223.709 141.317H221.413V144.74ZM221.413 140.078H223.282C223.665 140.078 223.994 139.961 224.269 139.728C224.545 139.495 224.682 139.175 224.682 138.769C224.682 138.335 224.545 138.011 224.269 137.796C223.994 137.577 223.665 137.467 223.282 137.467H221.413V140.078ZM230.773 136.2H232.474L236.037 146H234.497L233.818 144.138H229.429L228.757 146H227.21L230.773 136.2ZM229.968 142.682H233.279L231.62 138.132L229.968 142.682ZM237.266 146V136.2H238.841L243.342 143.368V136.2H244.798V146H243.223L238.722 138.832V146H237.266ZM248.581 146.133C248.212 146.11 247.853 146.035 247.503 145.909C247.153 145.783 246.845 145.613 246.579 145.398C246.317 145.179 246.121 144.922 245.991 144.628L247.23 144.096C247.29 144.222 247.395 144.346 247.545 144.467C247.699 144.588 247.878 144.689 248.084 144.768C248.289 144.843 248.504 144.88 248.728 144.88C248.947 144.88 249.15 144.85 249.337 144.789C249.528 144.724 249.684 144.626 249.806 144.495C249.927 144.364 249.988 144.208 249.988 144.026C249.988 143.821 249.918 143.662 249.778 143.55C249.642 143.433 249.472 143.345 249.267 143.284C249.061 143.223 248.856 143.165 248.651 143.109C248.193 143.006 247.773 142.866 247.391 142.689C247.013 142.507 246.712 142.276 246.488 141.996C246.264 141.711 246.152 141.364 246.152 140.953C246.152 140.505 246.273 140.118 246.516 139.791C246.758 139.46 247.076 139.205 247.468 139.028C247.864 138.851 248.287 138.762 248.735 138.762C249.295 138.762 249.808 138.881 250.275 139.119C250.741 139.357 251.098 139.684 251.346 140.099L250.191 140.785C250.121 140.645 250.016 140.519 249.876 140.407C249.736 140.295 249.577 140.206 249.4 140.141C249.222 140.071 249.038 140.031 248.847 140.022C248.609 140.013 248.387 140.041 248.182 140.106C247.981 140.167 247.82 140.265 247.699 140.4C247.577 140.535 247.517 140.708 247.517 140.918C247.517 141.123 247.589 141.277 247.734 141.38C247.878 141.478 248.06 141.557 248.28 141.618C248.504 141.679 248.732 141.746 248.966 141.821C249.381 141.952 249.771 142.113 250.135 142.304C250.499 142.491 250.793 142.722 251.017 142.997C251.241 143.272 251.348 143.608 251.339 144.005C251.339 144.444 251.206 144.829 250.94 145.16C250.678 145.491 250.338 145.743 249.918 145.916C249.498 146.089 249.052 146.161 248.581 146.133Z" fill="#0C1021"/>
</g>
<g filter="url(#filter1_d_3290_7645)">
<rect x="294" y="121" width="130" height="41" rx="16" fill="white" shape-rendering="crispEdges"/>
<rect x="294.46" y="121.46" width="129.081" height="40.0807" rx="15.5404" stroke="#0C1021" stroke-opacity="0.05" stroke-width="0.919289" shape-rendering="crispEdges"/>
<path d="M311.383 146.182C310.702 146.182 310.067 146.051 309.479 145.79C308.896 145.524 308.385 145.158 307.946 144.691C307.512 144.22 307.171 143.676 306.924 143.06C306.681 142.444 306.56 141.788 306.56 141.093C306.56 140.36 306.691 139.686 306.952 139.07C307.213 138.454 307.57 137.92 308.023 137.467C308.476 137.01 308.991 136.655 309.57 136.403C310.153 136.151 310.765 136.025 311.404 136.025C312.127 136.025 312.823 136.193 313.49 136.529C314.157 136.865 314.738 137.369 315.233 138.041L313.931 138.748C313.595 138.328 313.203 138.011 312.755 137.796C312.312 137.581 311.857 137.474 311.39 137.474C310.937 137.474 310.508 137.567 310.102 137.754C309.696 137.936 309.337 138.193 309.024 138.524C308.711 138.851 308.464 139.236 308.282 139.679C308.105 140.118 308.016 140.596 308.016 141.114C308.016 141.613 308.102 142.082 308.275 142.521C308.452 142.96 308.695 143.345 309.003 143.676C309.316 144.003 309.675 144.259 310.081 144.446C310.492 144.633 310.93 144.726 311.397 144.726C311.742 144.726 312.074 144.67 312.391 144.558C312.708 144.446 313.002 144.287 313.273 144.082C313.548 143.872 313.789 143.622 313.994 143.333C314.199 143.044 314.363 142.722 314.484 142.367H312.405V141.079H316.192C316.201 141.779 316.08 142.437 315.828 143.053C315.581 143.669 315.235 144.213 314.792 144.684C314.353 145.151 313.842 145.517 313.259 145.783C312.676 146.049 312.05 146.182 311.383 146.182ZM317.518 146V135.5H318.974V146H317.518ZM323.633 146.182C322.989 146.182 322.401 146.016 321.869 145.685C321.342 145.354 320.919 144.91 320.602 144.355C320.289 143.795 320.133 143.177 320.133 142.5C320.133 141.987 320.224 141.508 320.406 141.065C320.588 140.617 320.838 140.225 321.155 139.889C321.477 139.548 321.85 139.282 322.275 139.091C322.7 138.9 323.152 138.804 323.633 138.804C324.277 138.804 324.863 138.97 325.39 139.301C325.922 139.632 326.344 140.078 326.657 140.638C326.974 141.198 327.133 141.819 327.133 142.5C327.133 143.009 327.042 143.485 326.86 143.928C326.678 144.371 326.426 144.763 326.104 145.104C325.787 145.44 325.416 145.704 324.991 145.895C324.571 146.086 324.118 146.182 323.633 146.182ZM323.633 144.726C324.02 144.726 324.368 144.623 324.676 144.418C324.984 144.213 325.227 143.942 325.404 143.606C325.586 143.265 325.677 142.897 325.677 142.5C325.677 142.094 325.584 141.721 325.397 141.38C325.215 141.039 324.97 140.769 324.662 140.568C324.354 140.363 324.011 140.26 323.633 140.26C323.25 140.26 322.903 140.363 322.59 140.568C322.282 140.773 322.037 141.046 321.855 141.387C321.678 141.728 321.589 142.099 321.589 142.5C321.589 142.915 321.682 143.291 321.869 143.627C322.056 143.963 322.303 144.231 322.611 144.432C322.924 144.628 323.264 144.726 323.633 144.726ZM331.808 138.804C332.489 138.804 333.108 138.97 333.663 139.301C334.223 139.632 334.669 140.078 335 140.638C335.331 141.193 335.497 141.812 335.497 142.493C335.497 143.002 335.401 143.48 335.21 143.928C335.019 144.371 334.753 144.763 334.412 145.104C334.076 145.44 333.684 145.704 333.236 145.895C332.793 146.086 332.317 146.182 331.808 146.182C331.318 146.182 330.889 146.07 330.52 145.846C330.156 145.617 329.857 145.326 329.624 144.971V146H328.168V135.5H329.624V140.015C329.857 139.656 330.156 139.364 330.52 139.14C330.889 138.916 331.318 138.804 331.808 138.804ZM331.794 144.768C332.2 144.768 332.571 144.665 332.907 144.46C333.243 144.255 333.509 143.979 333.705 143.634C333.906 143.289 334.006 142.908 334.006 142.493C334.006 142.068 333.906 141.683 333.705 141.338C333.504 140.993 333.236 140.72 332.9 140.519C332.564 140.314 332.195 140.211 331.794 140.211C331.388 140.211 331.031 140.314 330.723 140.519C330.415 140.724 330.175 141 330.002 141.345C329.829 141.69 329.743 142.073 329.743 142.493C329.743 142.913 329.829 143.296 330.002 143.641C330.175 143.986 330.415 144.262 330.723 144.467C331.031 144.668 331.388 144.768 331.794 144.768ZM342.063 139H343.519V146H342.056L342 144.985C341.795 145.344 341.517 145.634 341.167 145.853C340.817 146.072 340.404 146.182 339.928 146.182C339.415 146.182 338.932 146.086 338.479 145.895C338.027 145.699 337.628 145.428 337.282 145.083C336.942 144.738 336.676 144.341 336.484 143.893C336.293 143.44 336.197 142.955 336.197 142.437C336.197 141.938 336.291 141.469 336.477 141.03C336.664 140.587 336.923 140.199 337.254 139.868C337.586 139.537 337.968 139.278 338.402 139.091C338.841 138.9 339.31 138.804 339.809 138.804C340.318 138.804 340.766 138.921 341.153 139.154C341.545 139.383 341.87 139.677 342.126 140.036L342.063 139ZM339.893 144.775C340.304 144.775 340.663 144.675 340.971 144.474C341.279 144.269 341.517 143.993 341.685 143.648C341.858 143.303 341.944 142.92 341.944 142.5C341.944 142.075 341.858 141.69 341.685 141.345C341.513 141 341.272 140.727 340.964 140.526C340.661 140.321 340.304 140.218 339.893 140.218C339.487 140.218 339.116 140.321 338.78 140.526C338.444 140.731 338.178 141.007 337.982 141.352C337.786 141.697 337.688 142.08 337.688 142.5C337.688 142.925 337.789 143.31 337.989 143.655C338.195 143.996 338.463 144.269 338.794 144.474C339.13 144.675 339.497 144.775 339.893 144.775ZM344.971 146V135.5H346.427V146H344.971ZM351.465 146V136.2H354.839C355.366 136.2 355.842 136.331 356.267 136.592C356.696 136.853 357.037 137.206 357.289 137.649C357.546 138.092 357.674 138.582 357.674 139.119C357.674 139.665 357.543 140.16 357.282 140.603C357.025 141.042 356.682 141.392 356.253 141.653C355.824 141.914 355.352 142.045 354.839 142.045H352.921V146H351.465ZM352.921 140.589H354.692C354.972 140.589 355.226 140.519 355.455 140.379C355.688 140.239 355.873 140.052 356.008 139.819C356.148 139.586 356.218 139.322 356.218 139.028C356.218 138.734 356.148 138.47 356.008 138.237C355.873 137.999 355.688 137.812 355.455 137.677C355.226 137.537 354.972 137.467 354.692 137.467H352.921V140.589ZM363.925 139H365.381V146H363.918L363.862 144.985C363.656 145.344 363.379 145.634 363.029 145.853C362.679 146.072 362.266 146.182 361.79 146.182C361.276 146.182 360.793 146.086 360.341 145.895C359.888 145.699 359.489 145.428 359.144 145.083C358.803 144.738 358.537 144.341 358.346 143.893C358.154 143.44 358.059 142.955 358.059 142.437C358.059 141.938 358.152 141.469 358.339 141.03C358.525 140.587 358.784 140.199 359.116 139.868C359.447 139.537 359.83 139.278 360.264 139.091C360.702 138.9 361.171 138.804 361.671 138.804C362.179 138.804 362.627 138.921 363.015 139.154C363.407 139.383 363.731 139.677 363.988 140.036L363.925 139ZM361.755 144.775C362.165 144.775 362.525 144.675 362.833 144.474C363.141 144.269 363.379 143.993 363.547 143.648C363.719 143.303 363.806 142.92 363.806 142.5C363.806 142.075 363.719 141.69 363.547 141.345C363.374 141 363.134 140.727 362.826 140.526C362.522 140.321 362.165 140.218 361.755 140.218C361.349 140.218 360.978 140.321 360.642 140.526C360.306 140.731 360.04 141.007 359.844 141.352C359.648 141.697 359.55 142.08 359.55 142.5C359.55 142.925 359.65 143.31 359.851 143.655C360.056 143.996 360.324 144.269 360.656 144.474C360.992 144.675 361.358 144.775 361.755 144.775ZM371.272 139H372.826L368.99 149.5H367.443L368.71 146L366.197 139H367.786L369.438 144.005L371.272 139ZM374.01 146V139H375.466V139.742C375.709 139.453 376.005 139.224 376.355 139.056C376.71 138.888 377.092 138.804 377.503 138.804C378.002 138.804 378.462 138.925 378.882 139.168C379.302 139.406 379.636 139.723 379.883 140.12C380.13 139.723 380.459 139.406 380.87 139.168C381.285 138.925 381.743 138.804 382.242 138.804C382.76 138.804 383.231 138.93 383.656 139.182C384.081 139.434 384.419 139.772 384.671 140.197C384.923 140.622 385.049 141.093 385.049 141.611V146H383.593V141.982C383.593 141.674 383.518 141.392 383.369 141.135C383.22 140.878 383.019 140.671 382.767 140.512C382.515 140.353 382.235 140.274 381.927 140.274C381.619 140.274 381.339 140.349 381.087 140.498C380.835 140.647 380.634 140.85 380.485 141.107C380.336 141.364 380.261 141.655 380.261 141.982V146H378.805V141.982C378.805 141.655 378.73 141.364 378.581 141.107C378.432 140.85 378.229 140.647 377.972 140.498C377.72 140.349 377.44 140.274 377.132 140.274C376.829 140.274 376.549 140.353 376.292 140.512C376.04 140.671 375.839 140.878 375.69 141.135C375.541 141.392 375.466 141.674 375.466 141.982V146H374.01ZM389.395 146.182C388.751 146.182 388.163 146.016 387.631 145.685C387.103 145.354 386.681 144.91 386.364 144.355C386.051 143.795 385.895 143.177 385.895 142.5C385.895 141.987 385.986 141.508 386.168 141.065C386.35 140.617 386.599 140.225 386.917 139.889C387.239 139.548 387.612 139.282 388.037 139.091C388.461 138.9 388.914 138.804 389.395 138.804C389.931 138.804 390.424 138.916 390.872 139.14C391.32 139.359 391.702 139.665 392.02 140.057C392.337 140.444 392.57 140.892 392.72 141.401C392.869 141.905 392.913 142.442 392.853 143.011H387.456C387.516 143.333 387.633 143.625 387.806 143.886C387.983 144.143 388.207 144.346 388.478 144.495C388.753 144.644 389.059 144.721 389.395 144.726C389.749 144.726 390.071 144.637 390.361 144.46C390.655 144.283 390.895 144.038 391.082 143.725L392.559 144.068C392.279 144.689 391.856 145.197 391.292 145.594C390.727 145.986 390.095 146.182 389.395 146.182ZM387.407 141.898H391.383C391.336 141.562 391.217 141.259 391.026 140.988C390.839 140.713 390.603 140.496 390.319 140.337C390.039 140.174 389.731 140.092 389.395 140.092C389.063 140.092 388.755 140.171 388.471 140.33C388.191 140.489 387.957 140.706 387.771 140.981C387.589 141.252 387.467 141.557 387.407 141.898ZM400.312 141.611V146H398.856V141.968C398.856 141.655 398.779 141.371 398.625 141.114C398.476 140.857 398.273 140.654 398.016 140.505C397.764 140.351 397.479 140.274 397.162 140.274C396.854 140.274 396.572 140.351 396.315 140.505C396.058 140.654 395.853 140.857 395.699 141.114C395.545 141.371 395.468 141.655 395.468 141.968V146H394.012V139H395.468V139.742C395.711 139.453 396.009 139.224 396.364 139.056C396.719 138.888 397.101 138.804 397.512 138.804C398.03 138.804 398.501 138.93 398.926 139.182C399.351 139.434 399.687 139.772 399.934 140.197C400.186 140.622 400.312 141.093 400.312 141.611ZM405.405 140.456H403.935L403.928 146H402.472L402.479 140.456H401.366V139H402.479L402.472 136.802H403.928L403.935 139H405.405V140.456ZM408.663 146.133C408.294 146.11 407.935 146.035 407.585 145.909C407.235 145.783 406.927 145.613 406.661 145.398C406.399 145.179 406.203 144.922 406.073 144.628L407.312 144.096C407.372 144.222 407.477 144.346 407.627 144.467C407.781 144.588 407.96 144.689 408.166 144.768C408.371 144.843 408.586 144.88 408.81 144.88C409.029 144.88 409.232 144.85 409.419 144.789C409.61 144.724 409.766 144.626 409.888 144.495C410.009 144.364 410.07 144.208 410.07 144.026C410.07 143.821 410 143.662 409.86 143.55C409.724 143.433 409.554 143.345 409.349 143.284C409.143 143.223 408.938 143.165 408.733 143.109C408.275 143.006 407.855 142.866 407.473 142.689C407.095 142.507 406.794 142.276 406.57 141.996C406.346 141.711 406.234 141.364 406.234 140.953C406.234 140.505 406.355 140.118 406.598 139.791C406.84 139.46 407.158 139.205 407.55 139.028C407.946 138.851 408.369 138.762 408.817 138.762C409.377 138.762 409.89 138.881 410.357 139.119C410.823 139.357 411.18 139.684 411.428 140.099L410.273 140.785C410.203 140.645 410.098 140.519 409.958 140.407C409.818 140.295 409.659 140.206 409.482 140.141C409.304 140.071 409.12 140.031 408.929 140.022C408.691 140.013 408.469 140.041 408.264 140.106C408.063 140.167 407.902 140.265 407.781 140.4C407.659 140.535 407.599 140.708 407.599 140.918C407.599 141.123 407.671 141.277 407.816 141.38C407.96 141.478 408.142 141.557 408.362 141.618C408.586 141.679 408.814 141.746 409.048 141.821C409.463 141.952 409.853 142.113 410.217 142.304C410.581 142.491 410.875 142.722 411.099 142.997C411.323 143.272 411.43 143.608 411.421 144.005C411.421 144.444 411.288 144.829 411.022 145.16C410.76 145.491 410.42 145.743 410 145.916C409.58 146.089 409.134 146.161 408.663 146.133Z" fill="#0C1021"/>
</g>
<path d="M291 141.5H267" stroke="#4268FF" stroke-linecap="round" stroke-linejoin="bevel" stroke-dasharray="6 6"/>
<g filter="url(#filter2_d_3290_7645)">
<rect x="454.5" y="121" width="134" height="41" rx="16" fill="white" shape-rendering="crispEdges"/>
<rect x="454.96" y="121.46" width="133.081" height="40.0807" rx="15.5404" stroke="#0C1021" stroke-opacity="0.05" stroke-width="0.919289" shape-rendering="crispEdges"/>
<path d="M467.34 146V136.2H473.115V137.656H468.796V140.022H472.443V141.478H468.796V146H467.34ZM476.6 146.182C475.956 146.182 475.368 146.016 474.836 145.685C474.308 145.354 473.886 144.91 473.569 144.355C473.256 143.795 473.1 143.177 473.1 142.5C473.1 141.987 473.191 141.508 473.373 141.065C473.555 140.617 473.804 140.225 474.122 139.889C474.444 139.548 474.817 139.282 475.242 139.091C475.666 138.9 476.119 138.804 476.6 138.804C477.244 138.804 477.829 138.97 478.357 139.301C478.889 139.632 479.311 140.078 479.624 140.638C479.941 141.198 480.1 141.819 480.1 142.5C480.1 143.009 480.009 143.485 479.827 143.928C479.645 144.371 479.393 144.763 479.071 145.104C478.753 145.44 478.382 145.704 477.958 145.895C477.538 146.086 477.085 146.182 476.6 146.182ZM476.6 144.726C476.987 144.726 477.335 144.623 477.643 144.418C477.951 144.213 478.193 143.942 478.371 143.606C478.553 143.265 478.644 142.897 478.644 142.5C478.644 142.094 478.55 141.721 478.364 141.38C478.182 141.039 477.937 140.769 477.629 140.568C477.321 140.363 476.978 140.26 476.6 140.26C476.217 140.26 475.869 140.363 475.557 140.568C475.249 140.773 475.004 141.046 474.822 141.387C474.644 141.728 474.556 142.099 474.556 142.5C474.556 142.915 474.649 143.291 474.836 143.627C475.022 143.963 475.27 144.231 475.578 144.432C475.89 144.628 476.231 144.726 476.6 144.726ZM481.231 146V139H482.687V139.742C482.929 139.453 483.228 139.224 483.583 139.056C483.937 138.888 484.32 138.804 484.731 138.804C484.992 138.804 485.251 138.839 485.508 138.909L484.927 140.379C484.745 140.309 484.563 140.274 484.381 140.274C484.073 140.274 483.79 140.351 483.534 140.505C483.277 140.654 483.072 140.857 482.918 141.114C482.764 141.371 482.687 141.655 482.687 141.968V146H481.231ZM489.068 146.182C488.424 146.182 487.836 146.016 487.304 145.685C486.777 145.354 486.355 144.91 486.037 144.355C485.725 143.795 485.568 143.177 485.568 142.5C485.568 141.987 485.659 141.508 485.841 141.065C486.023 140.617 486.273 140.225 486.59 139.889C486.912 139.548 487.286 139.282 487.71 139.091C488.135 138.9 488.588 138.804 489.068 138.804C489.605 138.804 490.097 138.916 490.545 139.14C490.993 139.359 491.376 139.665 491.693 140.057C492.011 140.444 492.244 140.892 492.393 141.401C492.543 141.905 492.587 142.442 492.526 143.011H487.129C487.19 143.333 487.307 143.625 487.479 143.886C487.657 144.143 487.881 144.346 488.151 144.495C488.427 144.644 488.732 144.721 489.068 144.726C489.423 144.726 489.745 144.637 490.034 144.46C490.328 144.283 490.569 144.038 490.755 143.725L492.232 144.068C491.952 144.689 491.53 145.197 490.965 145.594C490.401 145.986 489.768 146.182 489.068 146.182ZM487.08 141.898H491.056C491.01 141.562 490.891 141.259 490.699 140.988C490.513 140.713 490.277 140.496 489.992 140.337C489.712 140.174 489.404 140.092 489.068 140.092C488.737 140.092 488.429 140.171 488.144 140.33C487.864 140.489 487.631 140.706 487.444 140.981C487.262 141.252 487.141 141.557 487.08 141.898ZM493.549 139H495.005V146H493.549V139ZM494.291 137.985C494.067 137.985 493.88 137.913 493.731 137.768C493.582 137.623 493.507 137.441 493.507 137.222C493.507 137.007 493.582 136.828 493.731 136.683C493.88 136.534 494.065 136.459 494.284 136.459C494.499 136.459 494.681 136.534 494.83 136.683C494.979 136.828 495.054 137.007 495.054 137.222C495.054 137.441 494.979 137.623 494.83 137.768C494.685 137.913 494.506 137.985 494.291 137.985ZM501.884 139H503.34V146.182C503.34 146.663 503.237 147.106 503.032 147.512C502.831 147.918 502.558 148.268 502.213 148.562C501.867 148.861 501.471 149.092 501.023 149.255C500.579 149.418 500.115 149.5 499.63 149.5C499.14 149.5 498.668 149.395 498.216 149.185C497.763 148.98 497.364 148.7 497.019 148.345C496.678 147.99 496.424 147.589 496.256 147.141L497.593 146.539C497.686 146.828 497.835 147.085 498.041 147.309C498.251 147.533 498.493 147.71 498.769 147.841C499.049 147.972 499.336 148.037 499.63 148.037C499.919 148.037 500.197 147.99 500.463 147.897C500.733 147.808 500.974 147.682 501.184 147.519C501.398 147.356 501.569 147.16 501.695 146.931C501.821 146.702 501.884 146.453 501.884 146.182V144.999C501.655 145.354 501.361 145.641 501.002 145.86C500.642 146.075 500.225 146.182 499.749 146.182C499.254 146.182 498.787 146.086 498.349 145.895C497.91 145.704 497.525 145.44 497.194 145.104C496.862 144.763 496.603 144.371 496.417 143.928C496.23 143.485 496.137 143.009 496.137 142.5C496.137 141.991 496.23 141.515 496.417 141.072C496.603 140.624 496.862 140.232 497.194 139.896C497.525 139.555 497.91 139.289 498.349 139.098C498.787 138.907 499.254 138.811 499.749 138.811C500.225 138.811 500.642 138.921 501.002 139.14C501.361 139.355 501.655 139.642 501.884 140.001V139ZM499.763 144.775C500.169 144.775 500.523 144.672 500.827 144.467C501.13 144.257 501.366 143.979 501.534 143.634C501.702 143.289 501.786 142.911 501.786 142.5C501.786 142.08 501.699 141.7 501.527 141.359C501.359 141.014 501.123 140.738 500.82 140.533C500.516 140.323 500.164 140.218 499.763 140.218C499.371 140.218 499.011 140.321 498.685 140.526C498.363 140.731 498.106 141.007 497.915 141.352C497.723 141.697 497.628 142.08 497.628 142.5C497.628 142.92 497.723 143.303 497.915 143.648C498.111 143.993 498.37 144.269 498.692 144.474C499.018 144.675 499.375 144.775 499.763 144.775ZM511.32 141.611V146H509.864V141.968C509.864 141.655 509.787 141.371 509.633 141.114C509.483 140.857 509.28 140.654 509.024 140.505C508.772 140.351 508.487 140.274 508.17 140.274C507.862 140.274 507.579 140.351 507.323 140.505C507.066 140.654 506.861 140.857 506.707 141.114C506.553 141.371 506.476 141.655 506.476 141.968V146H505.02V139H506.476V139.742C506.718 139.453 507.017 139.224 507.372 139.056C507.726 138.888 508.109 138.804 508.52 138.804C509.038 138.804 509.509 138.93 509.934 139.182C510.358 139.434 510.694 139.772 510.942 140.197C511.194 140.622 511.32 141.093 511.32 141.611ZM516.08 146V136.2H522.163V137.656H517.536V140.022H521.26V141.478H517.536V144.544H522.163V146H516.08ZM523.033 146L525.595 142.486L523.047 138.986H524.846L526.491 141.24L528.143 138.986H529.935L527.394 142.486L529.956 146H528.157L526.491 143.718L524.832 146H523.033ZM535.28 144.012L536.582 144.719C536.265 145.162 535.861 145.517 535.371 145.783C534.886 146.049 534.358 146.182 533.789 146.182C533.145 146.182 532.557 146.016 532.025 145.685C531.498 145.354 531.075 144.91 530.758 144.355C530.445 143.795 530.289 143.177 530.289 142.5C530.289 141.987 530.38 141.508 530.562 141.065C530.744 140.617 530.994 140.225 531.311 139.889C531.633 139.548 532.006 139.282 532.431 139.091C532.856 138.9 533.308 138.804 533.789 138.804C534.358 138.804 534.886 138.937 535.371 139.203C535.861 139.469 536.265 139.826 536.582 140.274L535.28 140.981C535.084 140.748 534.855 140.57 534.594 140.449C534.333 140.323 534.064 140.26 533.789 140.26C533.406 140.26 533.059 140.365 532.746 140.575C532.438 140.78 532.193 141.053 532.011 141.394C531.834 141.73 531.745 142.099 531.745 142.5C531.745 142.897 531.836 143.265 532.018 143.606C532.2 143.942 532.445 144.213 532.753 144.418C533.066 144.623 533.411 144.726 533.789 144.726C534.078 144.726 534.354 144.661 534.615 144.53C534.876 144.399 535.098 144.227 535.28 144.012ZM543.968 141.611V146H542.512V141.968C542.512 141.655 542.435 141.371 542.281 141.114C542.132 140.857 541.929 140.654 541.672 140.505C541.42 140.351 541.135 140.274 540.818 140.274C540.51 140.274 540.228 140.351 539.971 140.505C539.714 140.654 539.509 140.857 539.355 141.114C539.201 141.371 539.124 141.655 539.124 141.968V146H537.668V135.5H539.124V139.742C539.367 139.453 539.665 139.224 540.02 139.056C540.375 138.888 540.757 138.804 541.168 138.804C541.686 138.804 542.157 138.93 542.582 139.182C543.007 139.434 543.343 139.772 543.59 140.197C543.842 140.622 543.968 141.093 543.968 141.611ZM550.675 139H552.131V146H550.668L550.612 144.985C550.406 145.344 550.129 145.634 549.779 145.853C549.429 146.072 549.016 146.182 548.54 146.182C548.026 146.182 547.543 146.086 547.091 145.895C546.638 145.699 546.239 145.428 545.894 145.083C545.553 144.738 545.287 144.341 545.096 143.893C544.904 143.44 544.809 142.955 544.809 142.437C544.809 141.938 544.902 141.469 545.089 141.03C545.275 140.587 545.534 140.199 545.866 139.868C546.197 139.537 546.58 139.278 547.014 139.091C547.452 138.9 547.921 138.804 548.421 138.804C548.929 138.804 549.377 138.921 549.765 139.154C550.157 139.383 550.481 139.677 550.738 140.036L550.675 139ZM548.505 144.775C548.915 144.775 549.275 144.675 549.583 144.474C549.891 144.269 550.129 143.993 550.297 143.648C550.469 143.303 550.556 142.92 550.556 142.5C550.556 142.075 550.469 141.69 550.297 141.345C550.124 141 549.884 140.727 549.576 140.526C549.272 140.321 548.915 140.218 548.505 140.218C548.099 140.218 547.728 140.321 547.392 140.526C547.056 140.731 546.79 141.007 546.594 141.352C546.398 141.697 546.3 142.08 546.3 142.5C546.3 142.925 546.4 143.31 546.601 143.655C546.806 143.996 547.074 144.269 547.406 144.474C547.742 144.675 548.108 144.775 548.505 144.775ZM559.828 141.611V146H558.372V141.968C558.372 141.655 558.295 141.371 558.141 141.114C557.991 140.857 557.788 140.654 557.532 140.505C557.28 140.351 556.995 140.274 556.678 140.274C556.37 140.274 556.087 140.351 555.831 140.505C555.574 140.654 555.369 140.857 555.215 141.114C555.061 141.371 554.984 141.655 554.984 141.968V146H553.528V139H554.984V139.742C555.226 139.453 555.525 139.224 555.88 139.056C556.234 138.888 556.617 138.804 557.028 138.804C557.546 138.804 558.017 138.93 558.442 139.182C558.866 139.434 559.202 139.772 559.45 140.197C559.702 140.622 559.828 141.093 559.828 141.611ZM566.415 139H567.871V146.182C567.871 146.663 567.768 147.106 567.563 147.512C567.362 147.918 567.089 148.268 566.744 148.562C566.399 148.861 566.002 149.092 565.554 149.255C565.111 149.418 564.646 149.5 564.161 149.5C563.671 149.5 563.2 149.395 562.747 149.185C562.294 148.98 561.895 148.7 561.55 148.345C561.209 147.99 560.955 147.589 560.787 147.141L562.124 146.539C562.217 146.828 562.367 147.085 562.572 147.309C562.782 147.533 563.025 147.71 563.3 147.841C563.58 147.972 563.867 148.037 564.161 148.037C564.45 148.037 564.728 147.99 564.994 147.897C565.265 147.808 565.505 147.682 565.715 147.519C565.93 147.356 566.1 147.16 566.226 146.931C566.352 146.702 566.415 146.453 566.415 146.182V144.999C566.186 145.354 565.892 145.641 565.533 145.86C565.174 146.075 564.756 146.182 564.28 146.182C563.785 146.182 563.319 146.086 562.88 145.895C562.441 145.704 562.056 145.44 561.725 145.104C561.394 144.763 561.135 144.371 560.948 143.928C560.761 143.485 560.668 143.009 560.668 142.5C560.668 141.991 560.761 141.515 560.948 141.072C561.135 140.624 561.394 140.232 561.725 139.896C562.056 139.555 562.441 139.289 562.88 139.098C563.319 138.907 563.785 138.811 564.28 138.811C564.756 138.811 565.174 138.921 565.533 139.14C565.892 139.355 566.186 139.642 566.415 140.001V139ZM564.294 144.775C564.7 144.775 565.055 144.672 565.358 144.467C565.661 144.257 565.897 143.979 566.065 143.634C566.233 143.289 566.317 142.911 566.317 142.5C566.317 142.08 566.231 141.7 566.058 141.359C565.89 141.014 565.654 140.738 565.351 140.533C565.048 140.323 564.695 140.218 564.294 140.218C563.902 140.218 563.543 140.321 563.216 140.526C562.894 140.731 562.637 141.007 562.446 141.352C562.255 141.697 562.159 142.08 562.159 142.5C562.159 142.92 562.255 143.303 562.446 143.648C562.642 143.993 562.901 144.269 563.223 144.474C563.55 144.675 563.907 144.775 564.294 144.775ZM572.508 146.182C571.864 146.182 571.276 146.016 570.744 145.685C570.217 145.354 569.794 144.91 569.477 144.355C569.164 143.795 569.008 143.177 569.008 142.5C569.008 141.987 569.099 141.508 569.281 141.065C569.463 140.617 569.713 140.225 570.03 139.889C570.352 139.548 570.725 139.282 571.15 139.091C571.575 138.9 572.027 138.804 572.508 138.804C573.045 138.804 573.537 138.916 573.985 139.14C574.433 139.359 574.816 139.665 575.133 140.057C575.45 140.444 575.684 140.892 575.833 141.401C575.982 141.905 576.027 142.442 575.966 143.011H570.569C570.63 143.333 570.746 143.625 570.919 143.886C571.096 144.143 571.32 144.346 571.591 144.495C571.866 144.644 572.172 144.721 572.508 144.726C572.863 144.726 573.185 144.637 573.474 144.46C573.768 144.283 574.008 144.038 574.195 143.725L575.672 144.068C575.392 144.689 574.97 145.197 574.405 145.594C573.84 145.986 573.208 146.182 572.508 146.182ZM570.52 141.898H574.496C574.449 141.562 574.33 141.259 574.139 140.988C573.952 140.713 573.717 140.496 573.432 140.337C573.152 140.174 572.844 140.092 572.508 140.092C572.177 140.092 571.869 140.171 571.584 140.33C571.304 140.489 571.071 140.706 570.884 140.981C570.702 141.252 570.581 141.557 570.52 141.898Z" fill="#0C1021"/>
</g>
<path d="M451.5 141.5H427" stroke="#4268FF" stroke-linecap="round" stroke-linejoin="bevel" stroke-dasharray="6 6"/>
<g filter="url(#filter3_d_3290_7645)">
<rect x="636" y="121" width="112" height="41" rx="16" fill="white" shape-rendering="crispEdges"/>
<rect x="636.46" y="121.46" width="111.081" height="40.0807" rx="15.5404" stroke="#0C1021" stroke-opacity="0.05" stroke-width="0.919289" shape-rendering="crispEdges"/>
<path d="M653.39 146.182C652.727 146.182 652.104 146.051 651.521 145.79C650.938 145.524 650.424 145.158 649.981 144.691C649.538 144.224 649.19 143.685 648.938 143.074C648.686 142.458 648.56 141.8 648.56 141.1C648.56 140.4 648.686 139.744 648.938 139.133C649.19 138.517 649.538 137.976 649.981 137.509C650.424 137.042 650.938 136.678 651.521 136.417C652.104 136.151 652.727 136.018 653.39 136.018C654.057 136.018 654.683 136.151 655.266 136.417C655.849 136.678 656.363 137.042 656.806 137.509C657.249 137.976 657.595 138.517 657.842 139.133C658.094 139.744 658.22 140.4 658.22 141.1C658.22 141.8 658.094 142.458 657.842 143.074C657.595 143.685 657.249 144.224 656.806 144.691C656.363 145.158 655.849 145.524 655.266 145.79C654.683 146.051 654.057 146.182 653.39 146.182ZM653.39 144.726C653.857 144.726 654.293 144.63 654.699 144.439C655.105 144.248 655.462 143.986 655.77 143.655C656.083 143.319 656.325 142.934 656.498 142.5C656.675 142.061 656.764 141.595 656.764 141.1C656.764 140.605 656.675 140.139 656.498 139.7C656.325 139.261 656.083 138.876 655.77 138.545C655.462 138.209 655.105 137.948 654.699 137.761C654.293 137.57 653.857 137.474 653.39 137.474C652.923 137.474 652.487 137.57 652.081 137.761C651.675 137.952 651.316 138.216 651.003 138.552C650.695 138.883 650.452 139.268 650.275 139.707C650.102 140.141 650.016 140.605 650.016 141.1C650.016 141.599 650.102 142.068 650.275 142.507C650.452 142.941 650.695 143.326 651.003 143.662C651.316 143.993 651.675 144.255 652.081 144.446C652.487 144.633 652.923 144.726 653.39 144.726ZM665.859 141.611V146H664.403V141.968C664.403 141.655 664.326 141.371 664.172 141.114C664.022 140.857 663.819 140.654 663.563 140.505C663.311 140.351 663.026 140.274 662.709 140.274C662.401 140.274 662.118 140.351 661.862 140.505C661.605 140.654 661.4 140.857 661.246 141.114C661.092 141.371 661.015 141.655 661.015 141.968V146H659.559V139H661.015V139.742C661.257 139.453 661.556 139.224 661.911 139.056C662.265 138.888 662.648 138.804 663.059 138.804C663.577 138.804 664.048 138.93 664.473 139.182C664.897 139.434 665.233 139.772 665.481 140.197C665.733 140.622 665.859 141.093 665.859 141.611ZM671.267 136.2L668.432 146.784H666.976L669.811 136.2H671.267ZM677.22 146.182C676.557 146.182 675.934 146.051 675.351 145.79C674.768 145.524 674.254 145.158 673.811 144.691C673.368 144.224 673.02 143.685 672.768 143.074C672.516 142.458 672.39 141.8 672.39 141.1C672.39 140.4 672.516 139.744 672.768 139.133C673.02 138.517 673.368 137.976 673.811 137.509C674.254 137.042 674.768 136.678 675.351 136.417C675.934 136.151 676.557 136.018 677.22 136.018C677.887 136.018 678.513 136.151 679.096 136.417C679.679 136.678 680.193 137.042 680.636 137.509C681.079 137.976 681.425 138.517 681.672 139.133C681.924 139.744 682.05 140.4 682.05 141.1C682.05 141.8 681.924 142.458 681.672 143.074C681.425 143.685 681.079 144.224 680.636 144.691C680.193 145.158 679.679 145.524 679.096 145.79C678.513 146.051 677.887 146.182 677.22 146.182ZM677.22 144.726C677.687 144.726 678.123 144.63 678.529 144.439C678.935 144.248 679.292 143.986 679.6 143.655C679.913 143.319 680.155 142.934 680.328 142.5C680.505 142.061 680.594 141.595 680.594 141.1C680.594 140.605 680.505 140.139 680.328 139.7C680.155 139.261 679.913 138.876 679.6 138.545C679.292 138.209 678.935 137.948 678.529 137.761C678.123 137.57 677.687 137.474 677.22 137.474C676.753 137.474 676.317 137.57 675.911 137.761C675.505 137.952 675.146 138.216 674.833 138.552C674.525 138.883 674.282 139.268 674.105 139.707C673.932 140.141 673.846 140.605 673.846 141.1C673.846 141.599 673.932 142.068 674.105 142.507C674.282 142.941 674.525 143.326 674.833 143.662C675.146 143.993 675.505 144.255 675.911 144.446C676.317 144.633 676.753 144.726 677.22 144.726ZM685.243 137.411V139H687.217V140.456H685.243V146H683.787V140.456H682.954V139H683.787V137.411C683.787 137.028 683.88 136.681 684.067 136.368C684.253 136.051 684.503 135.799 684.816 135.612C685.133 135.425 685.485 135.332 685.873 135.332C686.153 135.332 686.426 135.388 686.692 135.5C686.958 135.612 687.196 135.785 687.406 136.018L686.363 137.047C686.311 136.963 686.239 136.9 686.146 136.858C686.057 136.811 685.966 136.788 685.873 136.788C685.7 136.788 685.551 136.849 685.425 136.97C685.303 137.091 685.243 137.238 685.243 137.411ZM690.301 137.411V139H692.275V140.456H690.301V146H688.845V140.456H688.012V139H688.845V137.411C688.845 137.028 688.938 136.681 689.125 136.368C689.312 136.051 689.561 135.799 689.874 135.612C690.191 135.425 690.544 135.332 690.931 135.332C691.211 135.332 691.484 135.388 691.75 135.5C692.016 135.612 692.254 135.785 692.464 136.018L691.421 137.047C691.37 136.963 691.297 136.9 691.204 136.858C691.115 136.811 691.024 136.788 690.931 136.788C690.758 136.788 690.609 136.849 690.483 136.97C690.362 137.091 690.301 137.238 690.301 137.411ZM693.315 141.072H697.795V142.528H693.315V141.072ZM699.481 146V136.2H703.086C703.618 136.2 704.096 136.331 704.521 136.592C704.945 136.853 705.281 137.206 705.529 137.649C705.781 138.088 705.907 138.578 705.907 139.119C705.907 139.576 705.82 139.994 705.648 140.372C705.48 140.75 705.242 141.072 704.934 141.338C704.63 141.604 704.283 141.795 703.891 141.912L706.257 146H704.57L702.274 142.045H700.937V146H699.481ZM700.937 140.589H702.932C703.212 140.589 703.466 140.519 703.695 140.379C703.928 140.239 704.112 140.052 704.248 139.819C704.383 139.586 704.451 139.322 704.451 139.028C704.451 138.734 704.383 138.47 704.248 138.237C704.112 137.999 703.928 137.812 703.695 137.677C703.466 137.537 703.212 137.467 702.932 137.467H700.937V140.589ZM712.706 139H714.162V146H712.699L712.643 144.985C712.438 145.344 712.16 145.634 711.81 145.853C711.46 146.072 711.047 146.182 710.571 146.182C710.058 146.182 709.575 146.086 709.122 145.895C708.669 145.699 708.27 145.428 707.925 145.083C707.584 144.738 707.318 144.341 707.127 143.893C706.936 143.44 706.84 142.955 706.84 142.437C706.84 141.938 706.933 141.469 707.12 141.03C707.307 140.587 707.566 140.199 707.897 139.868C708.228 139.537 708.611 139.278 709.045 139.091C709.484 138.9 709.953 138.804 710.452 138.804C710.961 138.804 711.409 138.921 711.796 139.154C712.188 139.383 712.512 139.677 712.769 140.036L712.706 139ZM710.536 144.775C710.947 144.775 711.306 144.675 711.614 144.474C711.922 144.269 712.16 143.993 712.328 143.648C712.501 143.303 712.587 142.92 712.587 142.5C712.587 142.075 712.501 141.69 712.328 141.345C712.155 141 711.915 140.727 711.607 140.526C711.304 140.321 710.947 140.218 710.536 140.218C710.13 140.218 709.759 140.321 709.423 140.526C709.087 140.731 708.821 141.007 708.625 141.352C708.429 141.697 708.331 142.08 708.331 142.5C708.331 142.925 708.431 143.31 708.632 143.655C708.837 143.996 709.106 144.269 709.437 144.474C709.773 144.675 710.139 144.775 710.536 144.775ZM715.559 146V139H717.015V139.742C717.257 139.453 717.554 139.224 717.904 139.056C718.258 138.888 718.641 138.804 719.052 138.804C719.551 138.804 720.011 138.925 720.431 139.168C720.851 139.406 721.184 139.723 721.432 140.12C721.679 139.723 722.008 139.406 722.419 139.168C722.834 138.925 723.291 138.804 723.791 138.804C724.309 138.804 724.78 138.93 725.205 139.182C725.629 139.434 725.968 139.772 726.22 140.197C726.472 140.622 726.598 141.093 726.598 141.611V146H725.142V141.982C725.142 141.674 725.067 141.392 724.918 141.135C724.768 140.878 724.568 140.671 724.316 140.512C724.064 140.353 723.784 140.274 723.476 140.274C723.168 140.274 722.888 140.349 722.636 140.498C722.384 140.647 722.183 140.85 722.034 141.107C721.884 141.364 721.81 141.655 721.81 141.982V146H720.354V141.982C720.354 141.655 720.279 141.364 720.13 141.107C719.98 140.85 719.777 140.647 719.521 140.498C719.269 140.349 718.989 140.274 718.681 140.274C718.377 140.274 718.097 140.353 717.841 140.512C717.589 140.671 717.388 140.878 717.239 141.135C717.089 141.392 717.015 141.674 717.015 141.982V146H715.559ZM729.456 149.5H728V139H729.456V140.029C729.689 139.67 729.988 139.378 730.352 139.154C730.716 138.93 731.145 138.818 731.64 138.818C732.149 138.818 732.625 138.914 733.068 139.105C733.516 139.296 733.908 139.562 734.244 139.903C734.58 140.239 734.844 140.629 735.035 141.072C735.226 141.515 735.322 141.991 735.322 142.5C735.322 143.009 735.226 143.487 735.035 143.935C734.844 144.383 734.58 144.777 734.244 145.118C733.908 145.454 733.516 145.718 733.068 145.909C732.625 146.1 732.149 146.196 731.64 146.196C731.145 146.196 730.716 146.084 730.352 145.86C729.988 145.631 729.689 145.34 729.456 144.985V149.5ZM731.626 140.225C731.22 140.225 730.863 140.328 730.555 140.533C730.247 140.738 730.007 141.014 729.834 141.359C729.661 141.7 729.575 142.08 729.575 142.5C729.575 142.92 729.661 143.303 729.834 143.648C730.007 143.993 730.247 144.269 730.555 144.474C730.863 144.679 731.22 144.782 731.626 144.782C732.027 144.782 732.396 144.682 732.732 144.481C733.068 144.276 733.336 144 733.537 143.655C733.738 143.31 733.838 142.925 733.838 142.5C733.838 142.085 733.738 141.704 733.537 141.359C733.341 141.014 733.075 140.738 732.739 140.533C732.403 140.328 732.032 140.225 731.626 140.225Z" fill="#0C1021"/>
</g>
<path d="M633 141.5H591.5" stroke="#4268FF" stroke-linecap="round" stroke-linejoin="bevel" stroke-dasharray="6 6"/>
<g filter="url(#filter4_d_3290_7645)">
<rect x="796" y="121" width="112" height="41" rx="16" fill="white" shape-rendering="crispEdges"/>
<rect x="796.46" y="121.46" width="111.081" height="40.0807" rx="15.5404" stroke="#0C1021" stroke-opacity="0.05" stroke-width="0.919289" shape-rendering="crispEdges"/>
<path d="M813.39 146.182C812.727 146.182 812.104 146.051 811.521 145.79C810.938 145.524 810.424 145.158 809.981 144.691C809.538 144.224 809.19 143.685 808.938 143.074C808.686 142.458 808.56 141.8 808.56 141.1C808.56 140.4 808.686 139.744 808.938 139.133C809.19 138.517 809.538 137.976 809.981 137.509C810.424 137.042 810.938 136.678 811.521 136.417C812.104 136.151 812.727 136.018 813.39 136.018C814.057 136.018 814.683 136.151 815.266 136.417C815.849 136.678 816.363 137.042 816.806 137.509C817.249 137.976 817.595 138.517 817.842 139.133C818.094 139.744 818.22 140.4 818.22 141.1C818.22 141.8 818.094 142.458 817.842 143.074C817.595 143.685 817.249 144.224 816.806 144.691C816.363 145.158 815.849 145.524 815.266 145.79C814.683 146.051 814.057 146.182 813.39 146.182ZM813.39 144.726C813.857 144.726 814.293 144.63 814.699 144.439C815.105 144.248 815.462 143.986 815.77 143.655C816.083 143.319 816.325 142.934 816.498 142.5C816.675 142.061 816.764 141.595 816.764 141.1C816.764 140.605 816.675 140.139 816.498 139.7C816.325 139.261 816.083 138.876 815.77 138.545C815.462 138.209 815.105 137.948 814.699 137.761C814.293 137.57 813.857 137.474 813.39 137.474C812.923 137.474 812.487 137.57 812.081 137.761C811.675 137.952 811.316 138.216 811.003 138.552C810.695 138.883 810.452 139.268 810.275 139.707C810.102 140.141 810.016 140.605 810.016 141.1C810.016 141.599 810.102 142.068 810.275 142.507C810.452 142.941 810.695 143.326 811.003 143.662C811.316 143.993 811.675 144.255 812.081 144.446C812.487 144.633 812.923 144.726 813.39 144.726ZM825.859 141.611V146H824.403V141.968C824.403 141.655 824.326 141.371 824.172 141.114C824.022 140.857 823.819 140.654 823.563 140.505C823.311 140.351 823.026 140.274 822.709 140.274C822.401 140.274 822.118 140.351 821.862 140.505C821.605 140.654 821.4 140.857 821.246 141.114C821.092 141.371 821.015 141.655 821.015 141.968V146H819.559V139H821.015V139.742C821.257 139.453 821.556 139.224 821.911 139.056C822.265 138.888 822.648 138.804 823.059 138.804C823.577 138.804 824.048 138.93 824.473 139.182C824.897 139.434 825.233 139.772 825.481 140.197C825.733 140.622 825.859 141.093 825.859 141.611ZM831.267 136.2L828.432 146.784H826.976L829.811 136.2H831.267ZM837.22 146.182C836.557 146.182 835.934 146.051 835.351 145.79C834.768 145.524 834.254 145.158 833.811 144.691C833.368 144.224 833.02 143.685 832.768 143.074C832.516 142.458 832.39 141.8 832.39 141.1C832.39 140.4 832.516 139.744 832.768 139.133C833.02 138.517 833.368 137.976 833.811 137.509C834.254 137.042 834.768 136.678 835.351 136.417C835.934 136.151 836.557 136.018 837.22 136.018C837.887 136.018 838.513 136.151 839.096 136.417C839.679 136.678 840.193 137.042 840.636 137.509C841.079 137.976 841.425 138.517 841.672 139.133C841.924 139.744 842.05 140.4 842.05 141.1C842.05 141.8 841.924 142.458 841.672 143.074C841.425 143.685 841.079 144.224 840.636 144.691C840.193 145.158 839.679 145.524 839.096 145.79C838.513 146.051 837.887 146.182 837.22 146.182ZM837.22 144.726C837.687 144.726 838.123 144.63 838.529 144.439C838.935 144.248 839.292 143.986 839.6 143.655C839.913 143.319 840.155 142.934 840.328 142.5C840.505 142.061 840.594 141.595 840.594 141.1C840.594 140.605 840.505 140.139 840.328 139.7C840.155 139.261 839.913 138.876 839.6 138.545C839.292 138.209 838.935 137.948 838.529 137.761C838.123 137.57 837.687 137.474 837.22 137.474C836.753 137.474 836.317 137.57 835.911 137.761C835.505 137.952 835.146 138.216 834.833 138.552C834.525 138.883 834.282 139.268 834.105 139.707C833.932 140.141 833.846 140.605 833.846 141.1C833.846 141.599 833.932 142.068 834.105 142.507C834.282 142.941 834.525 143.326 834.833 143.662C835.146 143.993 835.505 144.255 835.911 144.446C836.317 144.633 836.753 144.726 837.22 144.726ZM845.243 137.411V139H847.217V140.456H845.243V146H843.787V140.456H842.954V139H843.787V137.411C843.787 137.028 843.88 136.681 844.067 136.368C844.253 136.051 844.503 135.799 844.816 135.612C845.133 135.425 845.485 135.332 845.873 135.332C846.153 135.332 846.426 135.388 846.692 135.5C846.958 135.612 847.196 135.785 847.406 136.018L846.363 137.047C846.311 136.963 846.239 136.9 846.146 136.858C846.057 136.811 845.966 136.788 845.873 136.788C845.7 136.788 845.551 136.849 845.425 136.97C845.303 137.091 845.243 137.238 845.243 137.411ZM850.301 137.411V139H852.275V140.456H850.301V146H848.845V140.456H848.012V139H848.845V137.411C848.845 137.028 848.938 136.681 849.125 136.368C849.312 136.051 849.561 135.799 849.874 135.612C850.191 135.425 850.544 135.332 850.931 135.332C851.211 135.332 851.484 135.388 851.75 135.5C852.016 135.612 852.254 135.785 852.464 136.018L851.421 137.047C851.37 136.963 851.297 136.9 851.204 136.858C851.115 136.811 851.024 136.788 850.931 136.788C850.758 136.788 850.609 136.849 850.483 136.97C850.362 137.091 850.301 137.238 850.301 137.411ZM853.315 141.072H857.795V142.528H853.315V141.072ZM859.481 146V136.2H863.086C863.618 136.2 864.096 136.331 864.521 136.592C864.945 136.853 865.281 137.206 865.529 137.649C865.781 138.088 865.907 138.578 865.907 139.119C865.907 139.576 865.82 139.994 865.648 140.372C865.48 140.75 865.242 141.072 864.934 141.338C864.63 141.604 864.283 141.795 863.891 141.912L866.257 146H864.57L862.274 142.045H860.937V146H859.481ZM860.937 140.589H862.932C863.212 140.589 863.466 140.519 863.695 140.379C863.928 140.239 864.112 140.052 864.248 139.819C864.383 139.586 864.451 139.322 864.451 139.028C864.451 138.734 864.383 138.47 864.248 138.237C864.112 137.999 863.928 137.812 863.695 137.677C863.466 137.537 863.212 137.467 862.932 137.467H860.937V140.589ZM872.706 139H874.162V146H872.699L872.643 144.985C872.438 145.344 872.16 145.634 871.81 145.853C871.46 146.072 871.047 146.182 870.571 146.182C870.058 146.182 869.575 146.086 869.122 145.895C868.669 145.699 868.27 145.428 867.925 145.083C867.584 144.738 867.318 144.341 867.127 143.893C866.936 143.44 866.84 142.955 866.84 142.437C866.84 141.938 866.933 141.469 867.12 141.03C867.307 140.587 867.566 140.199 867.897 139.868C868.228 139.537 868.611 139.278 869.045 139.091C869.484 138.9 869.953 138.804 870.452 138.804C870.961 138.804 871.409 138.921 871.796 139.154C872.188 139.383 872.512 139.677 872.769 140.036L872.706 139ZM870.536 144.775C870.947 144.775 871.306 144.675 871.614 144.474C871.922 144.269 872.16 143.993 872.328 143.648C872.501 143.303 872.587 142.92 872.587 142.5C872.587 142.075 872.501 141.69 872.328 141.345C872.155 141 871.915 140.727 871.607 140.526C871.304 140.321 870.947 140.218 870.536 140.218C870.13 140.218 869.759 140.321 869.423 140.526C869.087 140.731 868.821 141.007 868.625 141.352C868.429 141.697 868.331 142.08 868.331 142.5C868.331 142.925 868.431 143.31 868.632 143.655C868.837 143.996 869.106 144.269 869.437 144.474C869.773 144.675 870.139 144.775 870.536 144.775ZM875.559 146V139H877.015V139.742C877.257 139.453 877.554 139.224 877.904 139.056C878.258 138.888 878.641 138.804 879.052 138.804C879.551 138.804 880.011 138.925 880.431 139.168C880.851 139.406 881.184 139.723 881.432 140.12C881.679 139.723 882.008 139.406 882.419 139.168C882.834 138.925 883.291 138.804 883.791 138.804C884.309 138.804 884.78 138.93 885.205 139.182C885.629 139.434 885.968 139.772 886.22 140.197C886.472 140.622 886.598 141.093 886.598 141.611V146H885.142V141.982C885.142 141.674 885.067 141.392 884.918 141.135C884.768 140.878 884.568 140.671 884.316 140.512C884.064 140.353 883.784 140.274 883.476 140.274C883.168 140.274 882.888 140.349 882.636 140.498C882.384 140.647 882.183 140.85 882.034 141.107C881.884 141.364 881.81 141.655 881.81 141.982V146H880.354V141.982C880.354 141.655 880.279 141.364 880.13 141.107C879.98 140.85 879.777 140.647 879.521 140.498C879.269 140.349 878.989 140.274 878.681 140.274C878.377 140.274 878.097 140.353 877.841 140.512C877.589 140.671 877.388 140.878 877.239 141.135C877.089 141.392 877.015 141.674 877.015 141.982V146H875.559ZM889.456 149.5H888V139H889.456V140.029C889.689 139.67 889.988 139.378 890.352 139.154C890.716 138.93 891.145 138.818 891.64 138.818C892.149 138.818 892.625 138.914 893.068 139.105C893.516 139.296 893.908 139.562 894.244 139.903C894.58 140.239 894.844 140.629 895.035 141.072C895.226 141.515 895.322 141.991 895.322 142.5C895.322 143.009 895.226 143.487 895.035 143.935C894.844 144.383 894.58 144.777 894.244 145.118C893.908 145.454 893.516 145.718 893.068 145.909C892.625 146.1 892.149 146.196 891.64 146.196C891.145 146.196 890.716 146.084 890.352 145.86C889.988 145.631 889.689 145.34 889.456 144.985V149.5ZM891.626 140.225C891.22 140.225 890.863 140.328 890.555 140.533C890.247 140.738 890.007 141.014 889.834 141.359C889.661 141.7 889.575 142.08 889.575 142.5C889.575 142.92 889.661 143.303 889.834 143.648C890.007 143.993 890.247 144.269 890.555 144.474C890.863 144.679 891.22 144.782 891.626 144.782C892.027 144.782 892.396 144.682 892.732 144.481C893.068 144.276 893.336 144 893.537 143.655C893.738 143.31 893.838 142.925 893.838 142.5C893.838 142.085 893.738 141.704 893.537 141.359C893.341 141.014 893.075 140.738 892.739 140.533C892.403 140.328 892.032 140.225 891.626 140.225Z" fill="#0C1021"/>
</g>
<path d="M793 141.5H751" stroke="#4268FF" stroke-linecap="round" stroke-linejoin="bevel" stroke-dasharray="6 6"/>
<path d="M408.611 70.4V71.66H404.291V83H403.031V71.66H398.72V70.4H408.611ZM418.266 77.429V83H417.006V77.681C417.006 77.189 416.886 76.742 416.646 76.34C416.406 75.938 416.085 75.617 415.683 75.377C415.281 75.137 414.834 75.017 414.342 75.017C413.856 75.017 413.409 75.137 413.001 75.377C412.599 75.617 412.278 75.938 412.038 76.34C411.798 76.742 411.678 77.189 411.678 77.681V83H410.418V69.5H411.678V75.242C411.996 74.786 412.41 74.423 412.92 74.153C413.43 73.883 413.985 73.748 414.585 73.748C415.263 73.748 415.881 73.913 416.439 74.243C416.997 74.573 417.441 75.017 417.771 75.575C418.101 76.133 418.266 76.751 418.266 77.429ZM423.853 83.234C423.025 83.234 422.269 83.021 421.585 82.595C420.907 82.169 420.364 81.599 419.956 80.885C419.554 80.165 419.353 79.37 419.353 78.5C419.353 77.84 419.47 77.225 419.704 76.655C419.938 76.079 420.259 75.575 420.667 75.143C421.081 74.705 421.561 74.363 422.107 74.117C422.653 73.871 423.235 73.748 423.853 73.748C424.519 73.748 425.131 73.88 425.689 74.144C426.253 74.408 426.736 74.777 427.138 75.251C427.546 75.725 427.852 76.28 428.056 76.916C428.266 77.552 428.353 78.239 428.316 78.977H420.685C420.757 79.547 420.937 80.057 421.225 80.507C421.519 80.957 421.891 81.314 422.341 81.578C422.797 81.836 423.301 81.968 423.853 81.974C424.453 81.974 424.993 81.818 425.473 81.506C425.959 81.194 426.349 80.765 426.643 80.219L427.921 80.516C427.561 81.314 427.018 81.968 426.292 82.478C425.566 82.982 424.753 83.234 423.853 83.234ZM420.649 77.96H427.048C427.006 77.402 426.835 76.892 426.535 76.43C426.241 75.962 425.86 75.59 425.392 75.314C424.924 75.032 424.411 74.891 423.853 74.891C423.295 74.891 422.785 75.029 422.323 75.305C421.861 75.575 421.483 75.944 421.188 76.412C420.895 76.874 420.715 77.39 420.649 77.96ZM429.771 74H431.031V83H429.771V74ZM430.41 72.425C430.206 72.425 430.032 72.359 429.888 72.227C429.75 72.089 429.681 71.918 429.681 71.714C429.681 71.51 429.75 71.342 429.888 71.21C430.032 71.072 430.206 71.003 430.41 71.003C430.608 71.003 430.776 71.072 430.914 71.21C431.058 71.342 431.13 71.51 431.13 71.714C431.13 71.918 431.061 72.089 430.923 72.227C430.785 72.359 430.614 72.425 430.41 72.425ZM433.164 83V74H434.424V75.242C434.742 74.786 435.156 74.423 435.666 74.153C436.176 73.883 436.731 73.748 437.331 73.748C437.679 73.748 438.015 73.793 438.339 73.883L437.826 75.134C437.574 75.056 437.328 75.017 437.088 75.017C436.602 75.017 436.155 75.137 435.747 75.377C435.345 75.617 435.024 75.938 434.784 76.34C434.544 76.742 434.424 77.189 434.424 77.681V83H433.164ZM450.348 80.741L451.473 81.353C451.065 81.923 450.546 82.379 449.916 82.721C449.292 83.063 448.614 83.234 447.882 83.234C447.054 83.234 446.298 83.021 445.614 82.595C444.936 82.169 444.393 81.599 443.985 80.885C443.583 80.165 443.382 79.37 443.382 78.5C443.382 77.84 443.499 77.225 443.733 76.655C443.967 76.079 444.288 75.575 444.696 75.143C445.11 74.705 445.59 74.363 446.136 74.117C446.682 73.871 447.264 73.748 447.882 73.748C448.614 73.748 449.292 73.919 449.916 74.261C450.546 74.603 451.065 75.062 451.473 75.638L450.348 76.241C450.036 75.845 449.661 75.542 449.223 75.332C448.785 75.116 448.338 75.008 447.882 75.008C447.276 75.008 446.727 75.17 446.235 75.494C445.743 75.812 445.353 76.235 445.065 76.763C444.783 77.291 444.642 77.87 444.642 78.5C444.642 79.13 444.786 79.709 445.074 80.237C445.368 80.765 445.761 81.188 446.253 81.506C446.745 81.818 447.288 81.974 447.882 81.974C448.374 81.974 448.836 81.86 449.268 81.632C449.7 81.404 450.06 81.107 450.348 80.741ZM456.935 83.234C456.107 83.234 455.351 83.021 454.667 82.595C453.989 82.169 453.446 81.599 453.038 80.885C452.636 80.165 452.435 79.37 452.435 78.5C452.435 77.84 452.552 77.225 452.786 76.655C453.02 76.079 453.341 75.575 453.749 75.143C454.163 74.705 454.643 74.363 455.189 74.117C455.735 73.871 456.317 73.748 456.935 73.748C457.763 73.748 458.516 73.961 459.194 74.387C459.878 74.813 460.421 75.386 460.823 76.106C461.231 76.826 461.435 77.624 461.435 78.5C461.435 79.154 461.318 79.766 461.084 80.336C460.85 80.906 460.526 81.41 460.112 81.848C459.704 82.28 459.227 82.619 458.681 82.865C458.141 83.111 457.559 83.234 456.935 83.234ZM456.935 81.974C457.547 81.974 458.096 81.815 458.582 81.497C459.074 81.173 459.461 80.747 459.743 80.219C460.031 79.691 460.175 79.118 460.175 78.5C460.175 77.87 460.031 77.291 459.743 76.763C459.455 76.229 459.065 75.803 458.573 75.485C458.087 75.167 457.541 75.008 456.935 75.008C456.323 75.008 455.771 75.17 455.279 75.494C454.793 75.812 454.406 76.235 454.118 76.763C453.836 77.291 453.695 77.87 453.695 78.5C453.695 79.148 453.842 79.736 454.136 80.264C454.43 80.786 454.823 81.203 455.315 81.515C455.807 81.821 456.347 81.974 456.935 81.974ZM462.959 83V74H464.219V75.242C464.537 74.786 464.951 74.423 465.461 74.153C465.971 73.883 466.526 73.748 467.126 73.748C467.474 73.748 467.81 73.793 468.134 73.883L467.621 75.134C467.369 75.056 467.123 75.017 466.883 75.017C466.397 75.017 465.95 75.137 465.542 75.377C465.14 75.617 464.819 75.938 464.579 76.34C464.339 76.742 464.219 77.189 464.219 77.681V83H462.959ZM472.755 83.234C471.927 83.234 471.171 83.021 470.487 82.595C469.809 82.169 469.266 81.599 468.858 80.885C468.456 80.165 468.255 79.37 468.255 78.5C468.255 77.84 468.372 77.225 468.606 76.655C468.84 76.079 469.161 75.575 469.569 75.143C469.983 74.705 470.463 74.363 471.009 74.117C471.555 73.871 472.137 73.748 472.755 73.748C473.421 73.748 474.033 73.88 474.591 74.144C475.155 74.408 475.638 74.777 476.04 75.251C476.448 75.725 476.754 76.28 476.958 76.916C477.168 77.552 477.255 78.239 477.219 78.977H469.587C469.659 79.547 469.839 80.057 470.127 80.507C470.421 80.957 470.793 81.314 471.243 81.578C471.699 81.836 472.203 81.968 472.755 81.974C473.355 81.974 473.895 81.818 474.375 81.506C474.861 81.194 475.251 80.765 475.545 80.219L476.823 80.516C476.463 81.314 475.92 81.968 475.194 82.478C474.468 82.982 473.655 83.234 472.755 83.234ZM469.551 77.96H475.95C475.908 77.402 475.737 76.892 475.437 76.43C475.143 75.962 474.762 75.59 474.294 75.314C473.826 75.032 473.313 74.891 472.755 74.891C472.197 74.891 471.687 75.029 471.225 75.305C470.763 75.575 470.385 75.944 470.091 76.412C469.797 76.874 469.617 77.39 469.551 77.96ZM487.134 83.234C486.306 83.234 485.55 83.021 484.866 82.595C484.188 82.169 483.645 81.599 483.237 80.885C482.835 80.165 482.634 79.37 482.634 78.5C482.634 77.84 482.751 77.225 482.985 76.655C483.219 76.079 483.54 75.575 483.948 75.143C484.362 74.705 484.842 74.363 485.388 74.117C485.934 73.871 486.516 73.748 487.134 73.748C487.962 73.748 488.715 73.961 489.393 74.387C490.077 74.813 490.62 75.386 491.022 76.106C491.43 76.826 491.634 77.624 491.634 78.5C491.634 79.154 491.517 79.766 491.283 80.336C491.049 80.906 490.725 81.41 490.311 81.848C489.903 82.28 489.426 82.619 488.88 82.865C488.34 83.111 487.758 83.234 487.134 83.234ZM487.134 81.974C487.746 81.974 488.295 81.815 488.781 81.497C489.273 81.173 489.66 80.747 489.942 80.219C490.23 79.691 490.374 79.118 490.374 78.5C490.374 77.87 490.23 77.291 489.942 76.763C489.654 76.229 489.264 75.803 488.772 75.485C488.286 75.167 487.74 75.008 487.134 75.008C486.522 75.008 485.97 75.17 485.478 75.494C484.992 75.812 484.605 76.235 484.317 76.763C484.035 77.291 483.894 77.87 483.894 78.5C483.894 79.148 484.041 79.736 484.335 80.264C484.629 80.786 485.022 81.203 485.514 81.515C486.006 81.821 486.546 81.974 487.134 81.974ZM495.109 71.651V74H497.809V75.26H495.109V83H493.849V75.26H492.616V74H493.849V71.651C493.849 71.213 493.954 70.817 494.164 70.463C494.38 70.103 494.668 69.818 495.028 69.608C495.388 69.392 495.787 69.284 496.225 69.284C496.543 69.284 496.849 69.347 497.143 69.473C497.443 69.599 497.71 69.785 497.944 70.031L497.044 70.922C496.948 70.802 496.825 70.709 496.675 70.643C496.531 70.577 496.381 70.544 496.225 70.544C495.919 70.544 495.655 70.652 495.433 70.868C495.217 71.084 495.109 71.345 495.109 71.651ZM501.367 71.651V74H504.067V75.26H501.367V83H500.107V75.26H498.874V74H500.107V71.651C500.107 71.213 500.212 70.817 500.422 70.463C500.638 70.103 500.926 69.818 501.286 69.608C501.646 69.392 502.045 69.284 502.483 69.284C502.801 69.284 503.107 69.347 503.401 69.473C503.701 69.599 503.968 69.785 504.202 70.031L503.302 70.922C503.206 70.802 503.083 70.709 502.933 70.643C502.789 70.577 502.639 70.544 502.483 70.544C502.177 70.544 501.913 70.652 501.691 70.868C501.475 71.084 501.367 71.345 501.367 71.651ZM509.265 83.234C508.437 83.234 507.681 83.021 506.997 82.595C506.319 82.169 505.776 81.599 505.368 80.885C504.966 80.165 504.765 79.37 504.765 78.5C504.765 77.84 504.882 77.225 505.116 76.655C505.35 76.079 505.671 75.575 506.079 75.143C506.493 74.705 506.973 74.363 507.519 74.117C508.065 73.871 508.647 73.748 509.265 73.748C509.931 73.748 510.543 73.88 511.101 74.144C511.665 74.408 512.148 74.777 512.55 75.251C512.958 75.725 513.264 76.28 513.468 76.916C513.678 77.552 513.765 78.239 513.729 78.977H506.097C506.169 79.547 506.349 80.057 506.637 80.507C506.931 80.957 507.303 81.314 507.753 81.578C508.209 81.836 508.713 81.968 509.265 81.974C509.865 81.974 510.405 81.818 510.885 81.506C511.371 81.194 511.761 80.765 512.055 80.219L513.333 80.516C512.973 81.314 512.43 81.968 511.704 82.478C510.978 82.982 510.165 83.234 509.265 83.234ZM506.061 77.96H512.46C512.418 77.402 512.247 76.892 511.947 76.43C511.653 75.962 511.272 75.59 510.804 75.314C510.336 75.032 509.823 74.891 509.265 74.891C508.707 74.891 508.197 75.029 507.735 75.305C507.273 75.575 506.895 75.944 506.601 76.412C506.307 76.874 506.127 77.39 506.061 77.96ZM515.271 83V74H516.531V75.242C516.849 74.786 517.263 74.423 517.773 74.153C518.283 73.883 518.838 73.748 519.438 73.748C519.786 73.748 520.122 73.793 520.446 73.883L519.933 75.134C519.681 75.056 519.435 75.017 519.195 75.017C518.709 75.017 518.262 75.137 517.854 75.377C517.452 75.617 517.131 75.938 516.891 76.34C516.651 76.742 516.531 77.189 516.531 77.681V83H515.271ZM521.582 74H522.842V83H521.582V74ZM522.221 72.425C522.017 72.425 521.843 72.359 521.699 72.227C521.561 72.089 521.492 71.918 521.492 71.714C521.492 71.51 521.561 71.342 521.699 71.21C521.843 71.072 522.017 71.003 522.221 71.003C522.419 71.003 522.587 71.072 522.725 71.21C522.869 71.342 522.941 71.51 522.941 71.714C522.941 71.918 522.872 72.089 522.734 72.227C522.596 72.359 522.425 72.425 522.221 72.425ZM532.823 77.429V83H531.563V77.681C531.563 77.189 531.443 76.742 531.203 76.34C530.963 75.938 530.642 75.617 530.24 75.377C529.838 75.137 529.391 75.017 528.899 75.017C528.413 75.017 527.966 75.137 527.558 75.377C527.156 75.617 526.835 75.938 526.595 76.34C526.355 76.742 526.235 77.189 526.235 77.681V83H524.975V74H526.235V75.242C526.553 74.786 526.967 74.423 527.477 74.153C527.987 73.883 528.542 73.748 529.142 73.748C529.82 73.748 530.438 73.913 530.996 74.243C531.554 74.573 531.998 75.017 532.328 75.575C532.658 76.133 532.823 76.751 532.823 77.429ZM541.604 74H542.864V83.333C542.864 83.909 542.738 84.449 542.486 84.953C542.24 85.457 541.904 85.898 541.478 86.276C541.058 86.66 540.578 86.96 540.038 87.176C539.498 87.392 538.937 87.5 538.355 87.5C537.731 87.5 537.128 87.356 536.546 87.068C535.964 86.786 535.457 86.408 535.025 85.934C534.599 85.46 534.296 84.935 534.116 84.359L535.277 83.828C535.391 84.278 535.604 84.683 535.916 85.043C536.234 85.409 536.606 85.697 537.032 85.907C537.464 86.123 537.905 86.231 538.355 86.231C538.769 86.231 539.168 86.153 539.552 85.997C539.942 85.847 540.29 85.64 540.596 85.376C540.908 85.112 541.154 84.803 541.334 84.449C541.514 84.101 541.604 83.729 541.604 83.333V81.344C541.292 81.908 540.869 82.364 540.335 82.712C539.807 83.06 539.192 83.234 538.49 83.234C537.86 83.234 537.266 83.111 536.708 82.865C536.156 82.619 535.67 82.28 535.25 81.848C534.83 81.41 534.5 80.906 534.26 80.336C534.026 79.766 533.909 79.154 533.909 78.5C533.909 77.846 534.026 77.234 534.26 76.664C534.5 76.088 534.83 75.584 535.25 75.152C535.67 74.714 536.156 74.372 536.708 74.126C537.266 73.88 537.86 73.757 538.49 73.757C539.192 73.757 539.807 73.931 540.335 74.279C540.869 74.621 541.292 75.077 541.604 75.647V74ZM538.499 82.01C539.123 82.01 539.66 81.848 540.11 81.524C540.566 81.2 540.917 80.771 541.163 80.237C541.409 79.703 541.532 79.124 541.532 78.5C541.532 77.858 541.406 77.273 541.154 76.745C540.908 76.211 540.557 75.785 540.101 75.467C539.645 75.143 539.111 74.981 538.499 74.981C537.887 74.981 537.329 75.14 536.825 75.458C536.327 75.77 535.931 76.193 535.637 76.727C535.343 77.261 535.196 77.852 535.196 78.5C535.196 79.148 535.346 79.739 535.646 80.273C535.946 80.801 536.345 81.224 536.843 81.542C537.347 81.854 537.899 82.01 538.499 82.01ZM549.355 74H550.615V83H549.355V74ZM549.994 72.425C549.79 72.425 549.616 72.359 549.472 72.227C549.334 72.089 549.265 71.918 549.265 71.714C549.265 71.51 549.334 71.342 549.472 71.21C549.616 71.072 549.79 71.003 549.994 71.003C550.192 71.003 550.36 71.072 550.498 71.21C550.642 71.342 550.714 71.51 550.714 71.714C550.714 71.918 550.645 72.089 550.507 72.227C550.369 72.359 550.198 72.425 549.994 72.425ZM560.596 77.429V83H559.336V77.681C559.336 77.189 559.216 76.742 558.976 76.34C558.736 75.938 558.415 75.617 558.013 75.377C557.611 75.137 557.164 75.017 556.672 75.017C556.186 75.017 555.739 75.137 555.331 75.377C554.929 75.617 554.608 75.938 554.368 76.34C554.128 76.742 554.008 77.189 554.008 77.681V83H552.748V74H554.008V75.242C554.326 74.786 554.74 74.423 555.25 74.153C555.76 73.883 556.315 73.748 556.915 73.748C557.593 73.748 558.211 73.913 558.769 74.243C559.327 74.573 559.771 75.017 560.101 75.575C560.431 76.133 560.596 76.751 560.596 77.429ZM568.649 80.741L569.774 81.353C569.366 81.923 568.847 82.379 568.217 82.721C567.593 83.063 566.915 83.234 566.183 83.234C565.355 83.234 564.599 83.021 563.915 82.595C563.237 82.169 562.694 81.599 562.286 80.885C561.884 80.165 561.683 79.37 561.683 78.5C561.683 77.84 561.8 77.225 562.034 76.655C562.268 76.079 562.589 75.575 562.997 75.143C563.411 74.705 563.891 74.363 564.437 74.117C564.983 73.871 565.565 73.748 566.183 73.748C566.915 73.748 567.593 73.919 568.217 74.261C568.847 74.603 569.366 75.062 569.774 75.638L568.649 76.241C568.337 75.845 567.962 75.542 567.524 75.332C567.086 75.116 566.639 75.008 566.183 75.008C565.577 75.008 565.028 75.17 564.536 75.494C564.044 75.812 563.654 76.235 563.366 76.763C563.084 77.291 562.943 77.87 562.943 78.5C562.943 79.13 563.087 79.709 563.375 80.237C563.669 80.765 564.062 81.188 564.554 81.506C565.046 81.818 565.589 81.974 566.183 81.974C566.675 81.974 567.137 81.86 567.569 81.632C568.001 81.404 568.361 81.107 568.649 80.741ZM571.275 83V69.5H572.535V83H571.275ZM574.343 79.553V74H575.603V79.301C575.603 79.793 575.723 80.24 575.963 80.642C576.203 81.044 576.524 81.365 576.926 81.605C577.334 81.845 577.781 81.965 578.267 81.965C578.759 81.965 579.203 81.845 579.599 81.605C580.001 81.365 580.322 81.044 580.562 80.642C580.802 80.24 580.922 79.793 580.922 79.301V74H582.182L582.191 83H580.931L580.922 81.74C580.604 82.196 580.19 82.559 579.68 82.829C579.176 83.099 578.624 83.234 578.024 83.234C577.346 83.234 576.728 83.069 576.17 82.739C575.612 82.409 575.168 81.965 574.838 81.407C574.508 80.849 574.343 80.231 574.343 79.553ZM591.321 69.5H592.581V83H591.321V81.317C591.009 81.893 590.58 82.358 590.034 82.712C589.494 83.06 588.852 83.234 588.108 83.234C587.454 83.234 586.842 83.111 586.272 82.865C585.702 82.619 585.198 82.28 584.76 81.848C584.328 81.41 583.989 80.906 583.743 80.336C583.497 79.766 583.374 79.154 583.374 78.5C583.374 77.846 583.497 77.234 583.743 76.664C583.989 76.088 584.328 75.584 584.76 75.152C585.198 74.714 585.702 74.372 586.272 74.126C586.842 73.88 587.454 73.757 588.108 73.757C588.852 73.757 589.494 73.934 590.034 74.288C590.58 74.636 591.009 75.095 591.321 75.665V69.5ZM588.117 82.01C588.759 82.01 589.311 81.854 589.773 81.542C590.235 81.224 590.589 80.798 590.835 80.264C591.087 79.73 591.213 79.142 591.213 78.5C591.213 77.84 591.087 77.246 590.835 76.718C590.583 76.184 590.226 75.761 589.764 75.449C589.302 75.137 588.753 74.981 588.117 74.981C587.481 74.981 586.902 75.14 586.38 75.458C585.858 75.77 585.441 76.193 585.129 76.727C584.817 77.261 584.661 77.852 584.661 78.5C584.661 79.154 584.82 79.748 585.138 80.282C585.456 80.81 585.876 81.23 586.398 81.542C586.926 81.854 587.499 82.01 588.117 82.01ZM598.632 83.234C597.804 83.234 597.048 83.021 596.364 82.595C595.686 82.169 595.143 81.599 594.735 80.885C594.333 80.165 594.132 79.37 594.132 78.5C594.132 77.84 594.249 77.225 594.483 76.655C594.717 76.079 595.038 75.575 595.446 75.143C595.86 74.705 596.34 74.363 596.886 74.117C597.432 73.871 598.014 73.748 598.632 73.748C599.298 73.748 599.91 73.88 600.468 74.144C601.032 74.408 601.515 74.777 601.917 75.251C602.325 75.725 602.631 76.28 602.835 76.916C603.045 77.552 603.132 78.239 603.096 78.977H595.464C595.536 79.547 595.716 80.057 596.004 80.507C596.298 80.957 596.67 81.314 597.12 81.578C597.576 81.836 598.08 81.968 598.632 81.974C599.232 81.974 599.772 81.818 600.252 81.506C600.738 81.194 601.128 80.765 601.422 80.219L602.7 80.516C602.34 81.314 601.797 81.968 601.071 82.478C600.345 82.982 599.532 83.234 598.632 83.234ZM595.428 77.96H601.827C601.785 77.402 601.614 76.892 601.314 76.43C601.02 75.962 600.639 75.59 600.171 75.314C599.703 75.032 599.19 74.891 598.632 74.891C598.074 74.891 597.564 75.029 597.102 75.305C596.64 75.575 596.262 75.944 595.968 76.412C595.674 76.874 595.494 77.39 595.428 77.96ZM607.437 83.171C606.945 83.159 606.465 83.069 605.997 82.901C605.529 82.733 605.121 82.505 604.773 82.217C604.425 81.929 604.176 81.602 604.026 81.236L605.115 80.768C605.211 81.002 605.388 81.218 605.646 81.416C605.91 81.608 606.21 81.764 606.546 81.884C606.882 81.998 607.215 82.055 607.545 82.055C607.911 82.055 608.253 81.995 608.571 81.875C608.889 81.755 609.147 81.584 609.345 81.362C609.549 81.134 609.651 80.867 609.651 80.561C609.651 80.231 609.543 79.973 609.327 79.787C609.111 79.595 608.838 79.445 608.508 79.337C608.178 79.223 607.839 79.115 607.491 79.013C606.855 78.839 606.294 78.647 605.808 78.437C605.322 78.227 604.941 77.96 604.665 77.636C604.395 77.306 604.26 76.883 604.26 76.367C604.26 75.821 604.413 75.35 604.719 74.954C605.031 74.552 605.436 74.243 605.934 74.027C606.438 73.805 606.975 73.694 607.545 73.694C608.277 73.694 608.943 73.853 609.543 74.171C610.149 74.489 610.587 74.912 610.857 75.44L609.84 76.043C609.732 75.797 609.561 75.584 609.327 75.404C609.093 75.224 608.826 75.083 608.526 74.981C608.232 74.879 607.932 74.825 607.626 74.819C607.242 74.813 606.885 74.87 606.555 74.99C606.225 75.104 605.958 75.275 605.754 75.503C605.556 75.731 605.457 76.01 605.457 76.34C605.457 76.67 605.556 76.922 605.754 77.096C605.952 77.264 606.219 77.402 606.555 77.51C606.897 77.612 607.281 77.732 607.707 77.87C608.253 78.044 608.766 78.242 609.246 78.464C609.726 78.686 610.113 78.962 610.407 79.292C610.701 79.622 610.845 80.039 610.839 80.543C610.839 81.083 610.677 81.554 610.353 81.956C610.029 82.358 609.609 82.667 609.093 82.883C608.577 83.093 608.025 83.189 607.437 83.171ZM612.742 75.44C612.544 75.44 612.376 75.371 612.238 75.233C612.1 75.089 612.031 74.915 612.031 74.711C612.031 74.519 612.1 74.354 612.238 74.216C612.376 74.072 612.544 74 612.742 74C612.946 74 613.117 74.072 613.255 74.216C613.399 74.354 613.471 74.519 613.471 74.711C613.471 74.915 613.399 75.089 613.255 75.233C613.117 75.371 612.946 75.44 612.742 75.44ZM612.742 83.234C612.544 83.234 612.376 83.162 612.238 83.018C612.1 82.88 612.031 82.709 612.031 82.505C612.031 82.313 612.1 82.148 612.238 82.01C612.376 81.866 612.544 81.794 612.742 81.794C612.946 81.794 613.117 81.866 613.255 82.01C613.399 82.148 613.471 82.313 613.471 82.505C613.471 82.709 613.399 82.88 613.255 83.018C613.117 83.162 612.946 83.234 612.742 83.234Z" fill="#535662"/>
<defs>
<filter id="filter0_d_3290_7645" x="87.6142" y="106.291" width="194.772" height="77.7715" filterUnits="userSpaceOnUse" color-interpolation-filters="sRGB">
<feFlood flood-opacity="0" result="BackgroundImageFix"/>
<feColorMatrix in="SourceAlpha" type="matrix" values="0 0 0 0 0 0 0 0 0 0 0 0 0 0 0 0 0 0 127 0" result="hardAlpha"/>
<feOffset dy="3.67715"/>
<feGaussianBlur stdDeviation="9.19289"/>
<feComposite in2="hardAlpha" operator="out"/>
<feColorMatrix type="matrix" values="0 0 0 0 0.0468057 0 0 0 0 0.0634939 0 0 0 0 0.129808 0 0 0 0.1 0"/>
<feBlend mode="normal" in2="BackgroundImageFix" result="effect1_dropShadow_3290_7645"/>
<feBlend mode="normal" in="SourceGraphic" in2="effect1_dropShadow_3290_7645" result="shape"/>
</filter>
<filter id="filter1_d_3290_7645" x="275.614" y="106.291" width="166.772" height="77.7715" filterUnits="userSpaceOnUse" color-interpolation-filters="sRGB">
<feFlood flood-opacity="0" result="BackgroundImageFix"/>
<feColorMatrix in="SourceAlpha" type="matrix" values="0 0 0 0 0 0 0 0 0 0 0 0 0 0 0 0 0 0 127 0" result="hardAlpha"/>
<feOffset dy="3.67715"/>
<feGaussianBlur stdDeviation="9.19289"/>
<feComposite in2="hardAlpha" operator="out"/>
<feColorMatrix type="matrix" values="0 0 0 0 0.0468057 0 0 0 0 0.0634939 0 0 0 0 0.129808 0 0 0 0.1 0"/>
<feBlend mode="normal" in2="BackgroundImageFix" result="effect1_dropShadow_3290_7645"/>
<feBlend mode="normal" in="SourceGraphic" in2="effect1_dropShadow_3290_7645" result="shape"/>
</filter>
<filter id="filter2_d_3290_7645" x="436.114" y="106.291" width="170.772" height="77.7715" filterUnits="userSpaceOnUse" color-interpolation-filters="sRGB">
<feFlood flood-opacity="0" result="BackgroundImageFix"/>
<feColorMatrix in="SourceAlpha" type="matrix" values="0 0 0 0 0 0 0 0 0 0 0 0 0 0 0 0 0 0 127 0" result="hardAlpha"/>
<feOffset dy="3.67715"/>
<feGaussianBlur stdDeviation="9.19289"/>
<feComposite in2="hardAlpha" operator="out"/>
<feColorMatrix type="matrix" values="0 0 0 0 0.0468057 0 0 0 0 0.0634939 0 0 0 0 0.129808 0 0 0 0.1 0"/>
<feBlend mode="normal" in2="BackgroundImageFix" result="effect1_dropShadow_3290_7645"/>
<feBlend mode="normal" in="SourceGraphic" in2="effect1_dropShadow_3290_7645" result="shape"/>
</filter>
<filter id="filter3_d_3290_7645" x="617.614" y="106.291" width="148.772" height="77.7715" filterUnits="userSpaceOnUse" color-interpolation-filters="sRGB">
<feFlood flood-opacity="0" result="BackgroundImageFix"/>
<feColorMatrix in="SourceAlpha" type="matrix" values="0 0 0 0 0 0 0 0 0 0 0 0 0 0 0 0 0 0 127 0" result="hardAlpha"/>
<feOffset dy="3.67715"/>
<feGaussianBlur stdDeviation="9.19289"/>
<feComposite in2="hardAlpha" operator="out"/>
<feColorMatrix type="matrix" values="0 0 0 0 0.0468057 0 0 0 0 0.0634939 0 0 0 0 0.129808 0 0 0 0.1 0"/>
<feBlend mode="normal" in2="BackgroundImageFix" result="effect1_dropShadow_3290_7645"/>
<feBlend mode="normal" in="SourceGraphic" in2="effect1_dropShadow_3290_7645" result="shape"/>
</filter>
<filter id="filter4_d_3290_7645" x="777.614" y="106.291" width="148.772" height="77.7715" filterUnits="userSpaceOnUse" color-interpolation-filters="sRGB">
<feFlood flood-opacity="0" result="BackgroundImageFix"/>
<feColorMatrix in="SourceAlpha" type="matrix" values="0 0 0 0 0 0 0 0 0 0 0 0 0 0 0 0 0 0 127 0" result="hardAlpha"/>
<feOffset dy="3.67715"/>
<feGaussianBlur stdDeviation="9.19289"/>
<feComposite in2="hardAlpha" operator="out"/>
<feColorMatrix type="matrix" values="0 0 0 0 0.0468057 0 0 0 0 0.0634939 0 0 0 0 0.129808 0 0 0 0.1 0"/>
<feBlend mode="normal" in2="BackgroundImageFix" result="effect1_dropShadow_3290_7645"/>
<feBlend mode="normal" in="SourceGraphic" in2="effect1_dropShadow_3290_7645" result="shape"/>
</filter>
<pattern id="pattern0_3290_7645" patternUnits="userSpaceOnUse" patternTransform="matrix(12.5 0 0 12.5 0 0)" preserveAspectRatio="none" viewBox="0 0 12.5 12.5" width="1" height="1">
<g id="pattern0_3290_7645_inner">
<circle cx="2.5" cy="2.5" r="2.5" fill="#0C1021"/>
</g>
</pattern></defs>
</svg>
