<svg preserveAspectRatio="none" width="100%" height="100%" overflow="visible" style="display: block;" viewBox="0 0 18.0005 20.5" fill="none" xmlns="http://www.w3.org/2000/svg">
<g id="Group">
<path id="Vector" d="M1 16.5L1.0025 12.5215C1.0025 12.3889 1.05518 12.2617 1.14895 12.1679C1.24271 12.0742 1.36989 12.0215 1.5025 12.0215H6.5035C6.9645 12.0215 6.962 11.6125 6.962 10.6395C6.962 9.6665 4.511 8.847 4.511 5.4265C4.511 2.006 7.05 1 9.16 1C11.27 1 13.5685 2.006 13.5685 5.4265C13.5685 8.847 11.1305 9.391 11.1305 10.6395C11.1305 11.888 11.1305 12.0215 11.5205 12.0215H16.5005C16.6331 12.0215 16.7603 12.0742 16.8541 12.1679C16.9478 12.2617 17.0005 12.3889 17.0005 12.5215V16.5H1Z" fill="var(--fill-0, white)" stroke="var(--stroke-0, white)" stroke-width="2" stroke-linejoin="round"/>
<path id="Vector_2" d="M1 19.5H17" stroke="var(--stroke-0, white)" stroke-width="2" stroke-linecap="round" stroke-linejoin="round"/>
</g>
</svg>
