<svg width="347" height="451" viewBox="0 0 347 451" fill="none" xmlns="http://www.w3.org/2000/svg">
<g filter="url(#filter0_d_3298_9825)">
<g clip-path="url(#clip0_3298_9825)">
<rect x="18.3857" y="14.7085" width="310" height="414" rx="22.0629" fill="white"/>
<path d="M68.4537 44.9085H71.3697L77.4777 61.7085H74.8377L73.6737 58.5165H66.1497L64.9977 61.7085H62.3457L68.4537 44.9085ZM67.0737 56.0205H72.7497L69.9057 48.2205L67.0737 56.0205ZM79.2554 49.7085H81.7514V61.7085H79.2554V49.7085ZM80.5274 47.9685C80.1434 47.9685 79.8234 47.8445 79.5674 47.5965C79.3114 47.3485 79.1834 47.0365 79.1834 46.6605C79.1834 46.2925 79.3114 45.9845 79.5674 45.7365C79.8234 45.4805 80.1394 45.3525 80.5154 45.3525C80.8834 45.3525 81.1954 45.4805 81.4514 45.7365C81.7074 45.9845 81.8354 46.2925 81.8354 46.6605C81.8354 47.0365 81.7074 47.3485 81.4514 47.5965C81.2034 47.8445 80.8954 47.9685 80.5274 47.9685ZM96.0162 44.9085H98.9322L105.04 61.7085H102.4L101.236 58.5165H93.7122L92.5602 61.7085H89.9082L96.0162 44.9085ZM94.6362 56.0205H100.312L97.4682 48.2205L94.6362 56.0205ZM115.387 49.7085H117.883V62.0205C117.883 62.8445 117.707 63.6045 117.355 64.3005C117.011 64.9965 116.543 65.5965 115.951 66.1005C115.359 66.6125 114.679 67.0085 113.911 67.2885C113.151 67.5685 112.355 67.7085 111.523 67.7085C110.683 67.7085 109.875 67.5285 109.099 67.1685C108.323 66.8165 107.639 66.3365 107.047 65.7285C106.463 65.1205 106.027 64.4325 105.739 63.6645L108.031 62.6325C108.191 63.1285 108.447 63.5685 108.799 63.9525C109.159 64.3365 109.575 64.6405 110.047 64.8645C110.527 65.0885 111.019 65.2005 111.523 65.2005C112.019 65.2005 112.495 65.1205 112.951 64.9605C113.415 64.8085 113.827 64.5925 114.187 64.3125C114.555 64.0325 114.847 63.6965 115.063 63.3045C115.279 62.9125 115.387 62.4845 115.387 62.0205V59.9925C114.995 60.6005 114.491 61.0925 113.875 61.4685C113.259 61.8365 112.543 62.0205 111.727 62.0205C110.879 62.0205 110.079 61.8565 109.327 61.5285C108.575 61.2005 107.915 60.7485 107.347 60.1725C106.779 59.5885 106.335 58.9165 106.015 58.1565C105.695 57.3965 105.535 56.5805 105.535 55.7085C105.535 54.8365 105.695 54.0205 106.015 53.2605C106.335 52.4925 106.779 51.8205 107.347 51.2445C107.915 50.6605 108.575 50.2045 109.327 49.8765C110.079 49.5485 110.879 49.3845 111.727 49.3845C112.543 49.3845 113.259 49.5725 113.875 49.9485C114.491 50.3165 114.995 50.8085 115.387 51.4245V49.7085ZM111.751 59.6085C112.447 59.6085 113.055 59.4325 113.575 59.0805C114.095 58.7205 114.499 58.2445 114.787 57.6525C115.075 57.0605 115.219 56.4125 115.219 55.7085C115.219 54.9885 115.071 54.3365 114.775 53.7525C114.487 53.1605 114.083 52.6885 113.563 52.3365C113.043 51.9765 112.439 51.7965 111.751 51.7965C111.079 51.7965 110.463 51.9725 109.903 52.3245C109.351 52.6765 108.911 53.1485 108.583 53.7405C108.255 54.3325 108.091 54.9885 108.091 55.7085C108.091 56.4285 108.255 57.0845 108.583 57.6765C108.919 58.2685 109.363 58.7405 109.915 59.0925C110.475 59.4365 111.087 59.6085 111.751 59.6085ZM125.832 62.0205C124.728 62.0205 123.72 61.7365 122.808 61.1685C121.904 60.6005 121.18 59.8405 120.636 58.8885C120.1 57.9285 119.832 56.8685 119.832 55.7085C119.832 54.8285 119.988 54.0085 120.3 53.2485C120.612 52.4805 121.04 51.8085 121.584 51.2325C122.136 50.6485 122.776 50.1925 123.504 49.8645C124.232 49.5365 125.008 49.3725 125.832 49.3725C126.752 49.3725 127.596 49.5645 128.364 49.9485C129.132 50.3245 129.788 50.8485 130.332 51.5205C130.876 52.1845 131.276 52.9525 131.532 53.8245C131.788 54.6885 131.864 55.6085 131.76 56.5845H122.508C122.612 57.1365 122.812 57.6365 123.108 58.0845C123.412 58.5245 123.796 58.8725 124.26 59.1285C124.732 59.3845 125.256 59.5165 125.832 59.5245C126.44 59.5245 126.992 59.3725 127.488 59.0685C127.992 58.7645 128.404 58.3445 128.724 57.8085L131.256 58.3965C130.776 59.4605 130.052 60.3325 129.084 61.0125C128.116 61.6845 127.032 62.0205 125.832 62.0205ZM122.424 54.6765H129.24C129.16 54.1005 128.956 53.5805 128.628 53.1165C128.308 52.6445 127.904 52.2725 127.416 52.0005C126.936 51.7205 126.408 51.5805 125.832 51.5805C125.264 51.5805 124.736 51.7165 124.248 51.9885C123.768 52.2605 123.368 52.6325 123.048 53.1045C122.736 53.5685 122.528 54.0925 122.424 54.6765ZM144.548 54.1845V61.7085H142.052V54.7965C142.052 54.2605 141.92 53.7725 141.656 53.3325C141.4 52.8925 141.052 52.5445 140.612 52.2885C140.18 52.0245 139.692 51.8925 139.148 51.8925C138.62 51.8925 138.136 52.0245 137.696 52.2885C137.256 52.5445 136.904 52.8925 136.64 53.3325C136.376 53.7725 136.244 54.2605 136.244 54.7965V61.7085H133.748V49.7085H136.244V50.9805C136.66 50.4845 137.172 50.0925 137.78 49.8045C138.388 49.5165 139.044 49.3725 139.748 49.3725C140.636 49.3725 141.444 49.5885 142.172 50.0205C142.9 50.4525 143.476 51.0325 143.9 51.7605C144.332 52.4885 144.548 53.2965 144.548 54.1845ZM153.279 52.2045H150.759L150.747 61.7085H148.251L148.263 52.2045H146.355V49.7085H148.263L148.251 45.9405H150.747L150.759 49.7085H153.279V52.2045ZM166.821 44.9085H169.737L175.845 61.7085H173.205L172.041 58.5165H164.517L163.365 61.7085H160.713L166.821 44.9085ZM165.441 56.0205H171.117L168.273 48.2205L165.441 56.0205ZM176.908 57.2085V49.7085H179.404V56.5965C179.404 57.1325 179.536 57.6205 179.8 58.0605C180.064 58.5005 180.416 58.8525 180.856 59.1165C181.296 59.3725 181.78 59.5005 182.308 59.5005C182.844 59.5005 183.328 59.3725 183.76 59.1165C184.2 58.8525 184.548 58.5005 184.804 58.0605C185.068 57.6205 185.2 57.1325 185.2 56.5965V49.7085H187.696L187.708 61.7085H185.212L185.2 60.4125C184.792 60.9085 184.284 61.3005 183.676 61.5885C183.068 61.8765 182.416 62.0205 181.72 62.0205C180.832 62.0205 180.024 61.8045 179.296 61.3725C178.568 60.9405 177.988 60.3605 177.556 59.6325C177.124 58.9045 176.908 58.0965 176.908 57.2085ZM196.451 52.2045H193.931L193.919 61.7085H191.423L191.435 52.2045H189.527V49.7085H191.435L191.423 45.9405H193.919L193.931 49.7085H196.451V52.2045ZM203.598 62.0205C202.494 62.0205 201.486 61.7365 200.574 61.1685C199.67 60.6005 198.946 59.8405 198.402 58.8885C197.866 57.9285 197.598 56.8685 197.598 55.7085C197.598 54.8285 197.754 54.0085 198.066 53.2485C198.378 52.4805 198.806 51.8085 199.35 51.2325C199.902 50.6485 200.542 50.1925 201.27 49.8645C201.998 49.5365 202.774 49.3725 203.598 49.3725C204.702 49.3725 205.706 49.6565 206.61 50.2245C207.522 50.7925 208.246 51.5565 208.782 52.5165C209.326 53.4765 209.598 54.5405 209.598 55.7085C209.598 56.5805 209.442 57.3965 209.13 58.1565C208.818 58.9165 208.386 59.5885 207.834 60.1725C207.29 60.7485 206.654 61.2005 205.926 61.5285C205.206 61.8565 204.43 62.0205 203.598 62.0205ZM203.598 59.5245C204.262 59.5245 204.858 59.3485 205.386 58.9965C205.914 58.6445 206.33 58.1805 206.634 57.6045C206.946 57.0205 207.102 56.3885 207.102 55.7085C207.102 55.0125 206.942 54.3725 206.622 53.7885C206.31 53.2045 205.89 52.7405 205.362 52.3965C204.834 52.0445 204.246 51.8685 203.598 51.8685C202.942 51.8685 202.346 52.0445 201.81 52.3965C201.282 52.7485 200.862 53.2165 200.55 53.8005C200.246 54.3845 200.094 55.0205 200.094 55.7085C200.094 56.4205 200.254 57.0645 200.574 57.6405C200.894 58.2165 201.318 58.6765 201.846 59.0205C202.382 59.3565 202.966 59.5245 203.598 59.5245ZM211.537 61.7085V49.7085H214.033V50.9805C214.449 50.4845 214.957 50.0925 215.557 49.8045C216.165 49.5165 216.821 49.3725 217.525 49.3725C218.381 49.3725 219.169 49.5805 219.889 49.9965C220.609 50.4045 221.181 50.9485 221.605 51.6285C222.029 50.9485 222.593 50.4045 223.297 49.9965C224.009 49.5805 224.793 49.3725 225.649 49.3725C226.537 49.3725 227.345 49.5885 228.073 50.0205C228.801 50.4525 229.381 51.0325 229.813 51.7605C230.245 52.4885 230.461 53.2965 230.461 54.1845V61.7085H227.965V54.8205C227.965 54.2925 227.837 53.8085 227.581 53.3685C227.325 52.9285 226.981 52.5725 226.549 52.3005C226.117 52.0285 225.637 51.8925 225.109 51.8925C224.581 51.8925 224.101 52.0205 223.669 52.2765C223.237 52.5325 222.893 52.8805 222.637 53.3205C222.381 53.7605 222.253 54.2605 222.253 54.8205V61.7085H219.757V54.8205C219.757 54.2605 219.629 53.7605 219.373 53.3205C219.117 52.8805 218.769 52.5325 218.329 52.2765C217.897 52.0205 217.417 51.8925 216.889 51.8925C216.369 51.8925 215.889 52.0285 215.449 52.3005C215.017 52.5725 214.673 52.9285 214.417 53.3685C214.161 53.8085 214.033 54.2925 214.033 54.8205V61.7085H211.537ZM241.966 49.7085H244.462V61.7085H241.954L241.858 59.9685C241.506 60.5845 241.03 61.0805 240.43 61.4565C239.83 61.8325 239.122 62.0205 238.306 62.0205C237.426 62.0205 236.598 61.8565 235.822 61.5285C235.046 61.1925 234.362 60.7285 233.77 60.1365C233.186 59.5445 232.73 58.8645 232.402 58.0965C232.074 57.3205 231.91 56.4885 231.91 55.6005C231.91 54.7445 232.07 53.9405 232.39 53.1885C232.71 52.4285 233.154 51.7645 233.722 51.1965C234.29 50.6285 234.946 50.1845 235.69 49.8645C236.442 49.5365 237.246 49.3725 238.102 49.3725C238.974 49.3725 239.742 49.5725 240.406 49.9725C241.078 50.3645 241.634 50.8685 242.074 51.4845L241.966 49.7085ZM238.246 59.6085C238.95 59.6085 239.566 59.4365 240.094 59.0925C240.622 58.7405 241.03 58.2685 241.318 57.6765C241.614 57.0845 241.762 56.4285 241.762 55.7085C241.762 54.9805 241.614 54.3205 241.318 53.7285C241.022 53.1365 240.61 52.6685 240.082 52.3245C239.562 51.9725 238.95 51.7965 238.246 51.7965C237.55 51.7965 236.914 51.9725 236.338 52.3245C235.762 52.6765 235.306 53.1485 234.97 53.7405C234.634 54.3325 234.466 54.9885 234.466 55.7085C234.466 56.4365 234.638 57.0965 234.982 57.6885C235.334 58.2725 235.794 58.7405 236.362 59.0925C236.938 59.4365 237.566 59.6085 238.246 59.6085ZM253.193 52.2045H250.673L250.661 61.7085H248.165L248.177 52.2045H246.269V49.7085H248.177L248.165 45.9405H250.661L250.673 49.7085H253.193V52.2045ZM255.177 49.7085H257.673V61.7085H255.177V49.7085ZM256.449 47.9685C256.065 47.9685 255.745 47.8445 255.489 47.5965C255.233 47.3485 255.105 47.0365 255.105 46.6605C255.105 46.2925 255.233 45.9845 255.489 45.7365C255.745 45.4805 256.061 45.3525 256.437 45.3525C256.805 45.3525 257.117 45.4805 257.373 45.7365C257.629 45.9845 257.757 46.2925 257.757 46.6605C257.757 47.0365 257.629 47.3485 257.373 47.5965C257.125 47.8445 256.817 47.9685 256.449 47.9685ZM265.614 62.0205C264.51 62.0205 263.502 61.7365 262.59 61.1685C261.686 60.6005 260.962 59.8405 260.418 58.8885C259.882 57.9285 259.614 56.8685 259.614 55.7085C259.614 54.8285 259.77 54.0085 260.082 53.2485C260.394 52.4805 260.822 51.8085 261.366 51.2325C261.918 50.6485 262.558 50.1925 263.286 49.8645C264.014 49.5365 264.79 49.3725 265.614 49.3725C266.718 49.3725 267.722 49.6565 268.626 50.2245C269.538 50.7925 270.262 51.5565 270.798 52.5165C271.342 53.4765 271.614 54.5405 271.614 55.7085C271.614 56.5805 271.458 57.3965 271.146 58.1565C270.834 58.9165 270.402 59.5885 269.85 60.1725C269.306 60.7485 268.67 61.2005 267.942 61.5285C267.222 61.8565 266.446 62.0205 265.614 62.0205ZM265.614 59.5245C266.278 59.5245 266.874 59.3485 267.402 58.9965C267.93 58.6445 268.346 58.1805 268.65 57.6045C268.962 57.0205 269.118 56.3885 269.118 55.7085C269.118 55.0125 268.958 54.3725 268.638 53.7885C268.326 53.2045 267.906 52.7405 267.378 52.3965C266.85 52.0445 266.262 51.8685 265.614 51.8685C264.958 51.8685 264.362 52.0445 263.826 52.3965C263.298 52.7485 262.878 53.2165 262.566 53.8005C262.262 54.3845 262.11 55.0205 262.11 55.7085C262.11 56.4205 262.27 57.0645 262.59 57.6405C262.91 58.2165 263.334 58.6765 263.862 59.0205C264.398 59.3565 264.982 59.5245 265.614 59.5245ZM284.352 54.1845V61.7085H281.856V54.7965C281.856 54.2605 281.724 53.7725 281.46 53.3325C281.204 52.8925 280.856 52.5445 280.416 52.2885C279.984 52.0245 279.496 51.8925 278.952 51.8925C278.424 51.8925 277.94 52.0245 277.5 52.2885C277.06 52.5445 276.708 52.8925 276.444 53.3325C276.18 53.7725 276.048 54.2605 276.048 54.7965V61.7085H273.552V49.7085H276.048V50.9805C276.464 50.4845 276.976 50.0925 277.584 49.8045C278.192 49.5165 278.848 49.3725 279.552 49.3725C280.44 49.3725 281.248 49.5885 281.976 50.0205C282.704 50.4525 283.28 51.0325 283.704 51.7605C284.136 52.4885 284.352 53.2965 284.352 54.1845Z" fill="#0C1021"/>
<rect x="85.8857" y="92.2085" width="175" height="40" rx="20" stroke="#0C1021" stroke-opacity="0.1"/>
<path d="M131.81 114.951L132.685 115.427C132.367 115.871 131.964 116.225 131.474 116.491C130.988 116.757 130.461 116.89 129.892 116.89C129.248 116.89 128.66 116.725 128.128 116.393C127.6 116.062 127.178 115.619 126.861 115.063C126.548 114.503 126.392 113.885 126.392 113.208C126.392 112.695 126.483 112.217 126.665 111.773C126.847 111.325 127.096 110.933 127.414 110.597C127.736 110.257 128.109 109.991 128.534 109.799C128.958 109.608 129.411 109.512 129.892 109.512C130.461 109.512 130.988 109.645 131.474 109.911C131.964 110.177 132.367 110.534 132.685 110.982L131.81 111.451C131.567 111.143 131.275 110.908 130.935 110.744C130.594 110.576 130.246 110.492 129.892 110.492C129.42 110.492 128.993 110.618 128.611 110.87C128.228 111.118 127.925 111.447 127.701 111.857C127.481 112.268 127.372 112.718 127.372 113.208C127.372 113.698 127.484 114.149 127.708 114.559C127.936 114.97 128.242 115.299 128.625 115.546C129.007 115.789 129.43 115.91 129.892 115.91C130.274 115.91 130.634 115.822 130.97 115.644C131.306 115.467 131.586 115.236 131.81 114.951ZM136.933 116.89C136.289 116.89 135.701 116.725 135.169 116.393C134.641 116.062 134.219 115.619 133.902 115.063C133.589 114.503 133.433 113.885 133.433 113.208C133.433 112.695 133.524 112.217 133.706 111.773C133.888 111.325 134.137 110.933 134.455 110.597C134.777 110.257 135.15 109.991 135.575 109.799C135.999 109.608 136.452 109.512 136.933 109.512C137.577 109.512 138.162 109.678 138.69 110.009C139.222 110.341 139.644 110.786 139.957 111.346C140.274 111.906 140.433 112.527 140.433 113.208C140.433 113.717 140.342 114.193 140.16 114.636C139.978 115.08 139.726 115.472 139.404 115.812C139.086 116.148 138.715 116.412 138.291 116.603C137.871 116.795 137.418 116.89 136.933 116.89ZM136.933 115.91C137.409 115.91 137.836 115.787 138.214 115.539C138.596 115.287 138.897 114.956 139.117 114.545C139.341 114.135 139.453 113.689 139.453 113.208C139.453 112.718 139.341 112.268 139.117 111.857C138.893 111.442 138.589 111.111 138.207 110.863C137.829 110.616 137.404 110.492 136.933 110.492C136.457 110.492 136.027 110.618 135.645 110.87C135.267 111.118 134.966 111.447 134.742 111.857C134.522 112.268 134.413 112.718 134.413 113.208C134.413 113.712 134.527 114.17 134.756 114.58C134.984 114.986 135.29 115.311 135.673 115.553C136.055 115.791 136.475 115.91 136.933 115.91ZM141.618 116.708V109.708H142.598V110.674C142.85 110.32 143.172 110.037 143.564 109.827C143.956 109.617 144.386 109.512 144.852 109.512C145.38 109.512 145.863 109.643 146.301 109.904C146.74 110.161 147.083 110.504 147.33 110.933C147.578 110.504 147.918 110.161 148.352 109.904C148.786 109.643 149.267 109.512 149.794 109.512C150.322 109.512 150.802 109.641 151.236 109.897C151.67 110.154 152.016 110.499 152.272 110.933C152.529 111.367 152.657 111.848 152.657 112.375V116.708H151.677V112.592C151.677 112.219 151.586 111.874 151.404 111.556C151.222 111.239 150.977 110.985 150.669 110.793C150.366 110.597 150.028 110.499 149.654 110.499C149.281 110.499 148.94 110.59 148.632 110.772C148.329 110.95 148.086 111.197 147.904 111.514C147.722 111.827 147.631 112.186 147.631 112.592V116.708H146.651V112.592C146.651 112.186 146.56 111.827 146.378 111.514C146.196 111.197 145.951 110.95 145.643 110.772C145.335 110.59 144.995 110.499 144.621 110.499C144.253 110.499 143.914 110.597 143.606 110.793C143.298 110.985 143.053 111.239 142.871 111.556C142.689 111.874 142.598 112.219 142.598 112.592V116.708H141.618ZM154.06 116.708V109.708H155.04V110.674C155.292 110.32 155.614 110.037 156.006 109.827C156.398 109.617 156.827 109.512 157.294 109.512C157.821 109.512 158.304 109.643 158.743 109.904C159.181 110.161 159.524 110.504 159.772 110.933C160.019 110.504 160.36 110.161 160.794 109.904C161.228 109.643 161.708 109.512 162.236 109.512C162.763 109.512 163.244 109.641 163.678 109.897C164.112 110.154 164.457 110.499 164.714 110.933C164.97 111.367 165.099 111.848 165.099 112.375V116.708H164.119V112.592C164.119 112.219 164.028 111.874 163.846 111.556C163.664 111.239 163.419 110.985 163.111 110.793C162.807 110.597 162.469 110.499 162.096 110.499C161.722 110.499 161.382 110.59 161.074 110.772C160.77 110.95 160.528 111.197 160.346 111.514C160.164 111.827 160.073 112.186 160.073 112.592V116.708H159.093V112.592C159.093 112.186 159.002 111.827 158.82 111.514C158.638 111.197 158.393 110.95 158.085 110.772C157.777 110.59 157.436 110.499 157.063 110.499C156.694 110.499 156.356 110.597 156.048 110.793C155.74 110.985 155.495 111.239 155.313 111.556C155.131 111.874 155.04 112.219 155.04 112.592V116.708H154.06ZM166.221 114.027V109.708H167.201V113.831C167.201 114.214 167.294 114.562 167.481 114.874C167.668 115.187 167.917 115.437 168.23 115.623C168.547 115.81 168.895 115.903 169.273 115.903C169.656 115.903 170.001 115.81 170.309 115.623C170.622 115.437 170.871 115.187 171.058 114.874C171.245 114.562 171.338 114.214 171.338 113.831V109.708H172.318L172.325 116.708H171.345L171.338 115.728C171.091 116.083 170.769 116.365 170.372 116.575C169.98 116.785 169.551 116.89 169.084 116.89C168.557 116.89 168.076 116.762 167.642 116.505C167.208 116.249 166.863 115.903 166.606 115.469C166.349 115.035 166.221 114.555 166.221 114.027ZM179.824 112.375V116.708H178.844V112.571C178.844 112.189 178.751 111.841 178.564 111.528C178.377 111.216 178.128 110.966 177.815 110.779C177.502 110.593 177.155 110.499 176.772 110.499C176.394 110.499 176.046 110.593 175.729 110.779C175.416 110.966 175.167 111.216 174.98 111.528C174.793 111.841 174.7 112.189 174.7 112.571V116.708H173.72V109.708H174.7V110.674C174.947 110.32 175.269 110.037 175.666 109.827C176.063 109.617 176.494 109.512 176.961 109.512C177.488 109.512 177.969 109.641 178.403 109.897C178.837 110.154 179.182 110.499 179.439 110.933C179.696 111.367 179.824 111.848 179.824 112.375ZM181.226 109.708H182.206V116.708H181.226V109.708ZM181.723 108.483C181.564 108.483 181.429 108.432 181.317 108.329C181.209 108.222 181.156 108.089 181.156 107.93C181.156 107.772 181.209 107.641 181.317 107.538C181.429 107.431 181.564 107.377 181.723 107.377C181.877 107.377 182.007 107.431 182.115 107.538C182.227 107.641 182.283 107.772 182.283 107.93C182.283 108.089 182.229 108.222 182.122 108.329C182.014 108.432 181.881 108.483 181.723 108.483ZM188.821 114.951L189.696 115.427C189.379 115.871 188.975 116.225 188.485 116.491C188 116.757 187.473 116.89 186.903 116.89C186.259 116.89 185.671 116.725 185.139 116.393C184.612 116.062 184.19 115.619 183.872 115.063C183.56 114.503 183.403 113.885 183.403 113.208C183.403 112.695 183.494 112.217 183.676 111.773C183.858 111.325 184.108 110.933 184.425 110.597C184.747 110.257 185.121 109.991 185.545 109.799C185.97 109.608 186.423 109.512 186.903 109.512C187.473 109.512 188 109.645 188.485 109.911C188.975 110.177 189.379 110.534 189.696 110.982L188.821 111.451C188.579 111.143 188.287 110.908 187.946 110.744C187.606 110.576 187.258 110.492 186.903 110.492C186.432 110.492 186.005 110.618 185.622 110.87C185.24 111.118 184.936 111.447 184.712 111.857C184.493 112.268 184.383 112.718 184.383 113.208C184.383 113.698 184.495 114.149 184.719 114.559C184.948 114.97 185.254 115.299 185.636 115.546C186.019 115.789 186.441 115.91 186.903 115.91C187.286 115.91 187.645 115.822 187.981 115.644C188.317 115.467 188.597 115.236 188.821 114.951ZM196.618 109.708H197.598V116.708H196.618L196.583 115.406C196.355 115.85 196.035 116.209 195.624 116.484C195.214 116.755 194.724 116.89 194.154 116.89C193.641 116.89 193.16 116.795 192.712 116.603C192.264 116.407 191.87 116.139 191.529 115.798C191.189 115.458 190.923 115.063 190.731 114.615C190.54 114.167 190.444 113.687 190.444 113.173C190.444 112.669 190.538 112.196 190.724 111.752C190.916 111.309 191.177 110.919 191.508 110.583C191.844 110.247 192.232 109.986 192.67 109.799C193.114 109.608 193.587 109.512 194.091 109.512C194.675 109.512 195.183 109.652 195.617 109.932C196.051 110.208 196.397 110.569 196.653 111.017L196.618 109.708ZM194.133 115.938C194.633 115.938 195.062 115.817 195.421 115.574C195.781 115.327 196.056 114.996 196.247 114.58C196.443 114.165 196.541 113.708 196.541 113.208C196.541 112.695 196.443 112.233 196.247 111.822C196.051 111.407 195.774 111.078 195.414 110.835C195.055 110.593 194.628 110.471 194.133 110.471C193.639 110.471 193.186 110.595 192.775 110.842C192.369 111.085 192.045 111.414 191.802 111.829C191.564 112.245 191.445 112.704 191.445 113.208C191.445 113.717 191.569 114.179 191.816 114.594C192.064 115.005 192.39 115.332 192.796 115.574C193.207 115.817 193.653 115.938 194.133 115.938ZM202.576 110.688H200.903L200.896 116.708H199.916L199.923 110.688H198.656V109.708H199.923L199.916 107.51H200.896L200.903 109.708H202.576V110.688ZM203.771 109.708H204.751V116.708H203.771V109.708ZM204.268 108.483C204.109 108.483 203.974 108.432 203.862 108.329C203.754 108.222 203.701 108.089 203.701 107.93C203.701 107.772 203.754 107.641 203.862 107.538C203.974 107.431 204.109 107.377 204.268 107.377C204.422 107.377 204.552 107.431 204.66 107.538C204.772 107.641 204.828 107.772 204.828 107.93C204.828 108.089 204.774 108.222 204.667 108.329C204.559 108.432 204.426 108.483 204.268 108.483ZM209.448 116.89C208.804 116.89 208.216 116.725 207.684 116.393C207.157 116.062 206.735 115.619 206.417 115.063C206.105 114.503 205.948 113.885 205.948 113.208C205.948 112.695 206.039 112.217 206.221 111.773C206.403 111.325 206.653 110.933 206.97 110.597C207.292 110.257 207.666 109.991 208.09 109.799C208.515 109.608 208.968 109.512 209.448 109.512C210.092 109.512 210.678 109.678 211.205 110.009C211.737 110.341 212.16 110.786 212.472 111.346C212.79 111.906 212.948 112.527 212.948 113.208C212.948 113.717 212.857 114.193 212.675 114.636C212.493 115.08 212.241 115.472 211.919 115.812C211.602 116.148 211.231 116.412 210.806 116.603C210.386 116.795 209.934 116.89 209.448 116.89ZM209.448 115.91C209.924 115.91 210.351 115.787 210.729 115.539C211.112 115.287 211.413 114.956 211.632 114.545C211.856 114.135 211.968 113.689 211.968 113.208C211.968 112.718 211.856 112.268 211.632 111.857C211.408 111.442 211.105 111.111 210.722 110.863C210.344 110.616 209.92 110.492 209.448 110.492C208.972 110.492 208.543 110.618 208.16 110.87C207.782 111.118 207.481 111.447 207.257 111.857C207.038 112.268 206.928 112.718 206.928 113.208C206.928 113.712 207.043 114.17 207.271 114.58C207.5 114.986 207.806 115.311 208.188 115.553C208.571 115.791 208.991 115.91 209.448 115.91ZM220.238 112.375V116.708H219.258V112.571C219.258 112.189 219.165 111.841 218.978 111.528C218.791 111.216 218.542 110.966 218.229 110.779C217.916 110.593 217.569 110.499 217.186 110.499C216.808 110.499 216.46 110.593 216.143 110.779C215.83 110.966 215.581 111.216 215.394 111.528C215.207 111.841 215.114 112.189 215.114 112.571V116.708H214.134V109.708H215.114V110.674C215.361 110.32 215.683 110.037 216.08 109.827C216.477 109.617 216.908 109.512 217.375 109.512C217.902 109.512 218.383 109.641 218.817 109.897C219.251 110.154 219.596 110.499 219.853 110.933C220.11 111.367 220.238 111.848 220.238 112.375Z" fill="#535662"/>
<rect x="50.3857" y="145.208" width="124" height="40" rx="20" stroke="#0C1021" stroke-opacity="0.1"/>
<path d="M75.1701 169.708V162.708H76.1501V163.674C76.3974 163.32 76.7194 163.037 77.1161 162.827C77.5127 162.617 77.9444 162.512 78.4111 162.512C78.6817 162.512 78.9431 162.547 79.1951 162.617L78.7961 163.59C78.6001 163.53 78.4087 163.499 78.2221 163.499C77.8441 163.499 77.4964 163.593 77.1791 163.779C76.8664 163.966 76.6167 164.216 76.4301 164.528C76.2434 164.841 76.1501 165.189 76.1501 165.571V169.708H75.1701ZM82.7891 169.89C82.1451 169.89 81.5571 169.725 81.0251 169.393C80.4978 169.062 80.0755 168.619 79.7581 168.063C79.4455 167.503 79.2891 166.885 79.2891 166.208C79.2891 165.695 79.3801 165.217 79.5621 164.773C79.7441 164.325 79.9938 163.933 80.3111 163.597C80.6331 163.257 81.0065 162.991 81.4311 162.799C81.8558 162.608 82.3085 162.512 82.7891 162.512C83.3071 162.512 83.7831 162.615 84.2171 162.82C84.6558 163.026 85.0315 163.313 85.3441 163.681C85.6615 164.05 85.8995 164.482 86.0581 164.976C86.2215 165.471 86.2891 166.005 86.2611 166.579H80.3251C80.3811 167.023 80.5211 167.419 80.7451 167.769C80.9738 168.119 81.2631 168.397 81.6131 168.602C81.9678 168.803 82.3598 168.906 82.7891 168.91C83.2558 168.91 83.6758 168.789 84.0491 168.546C84.4271 168.304 84.7305 167.97 84.9591 167.545L85.9531 167.776C85.6731 168.397 85.2508 168.906 84.6861 169.302C84.1215 169.694 83.4891 169.89 82.7891 169.89ZM80.2971 165.788H85.2741C85.2415 165.354 85.1085 164.958 84.8751 164.598C84.6465 164.234 84.3501 163.945 83.9861 163.73C83.6221 163.511 83.2231 163.401 82.7891 163.401C82.3551 163.401 81.9585 163.509 81.5991 163.723C81.2398 163.933 80.9458 164.22 80.7171 164.584C80.4885 164.944 80.3485 165.345 80.2971 165.788ZM93.1467 162.708H94.1267V169.708H93.1467L93.1117 168.406C92.8831 168.85 92.5634 169.209 92.1527 169.484C91.7421 169.755 91.2521 169.89 90.6827 169.89C90.1694 169.89 89.6887 169.795 89.2407 169.603C88.7927 169.407 88.3984 169.139 88.0577 168.798C87.7171 168.458 87.4511 168.063 87.2597 167.615C87.0684 167.167 86.9727 166.687 86.9727 166.173C86.9727 165.669 87.0661 165.196 87.2527 164.752C87.4441 164.309 87.7054 163.919 88.0367 163.583C88.3727 163.247 88.7601 162.986 89.1987 162.799C89.6421 162.608 90.1157 162.512 90.6197 162.512C91.2031 162.512 91.7117 162.652 92.1457 162.932C92.5797 163.208 92.9251 163.569 93.1817 164.017L93.1467 162.708ZM90.6617 168.938C91.1611 168.938 91.5904 168.817 91.9497 168.574C92.3091 168.327 92.5844 167.996 92.7757 167.58C92.9717 167.165 93.0697 166.708 93.0697 166.208C93.0697 165.695 92.9717 165.233 92.7757 164.822C92.5797 164.407 92.3021 164.078 91.9427 163.835C91.5834 163.593 91.1564 163.471 90.6617 163.471C90.1671 163.471 89.7144 163.595 89.3037 163.842C88.8977 164.085 88.5734 164.414 88.3307 164.829C88.0927 165.245 87.9737 165.704 87.9737 166.208C87.9737 166.717 88.0974 167.179 88.3447 167.594C88.5921 168.005 88.9187 168.332 89.3247 168.574C89.7354 168.817 90.1811 168.938 90.6617 168.938ZM100.389 167.951L101.264 168.427C100.946 168.871 100.543 169.225 100.053 169.491C99.5674 169.757 99.0401 169.89 98.4708 169.89C97.8268 169.89 97.2388 169.725 96.7068 169.393C96.1794 169.062 95.7571 168.619 95.4398 168.063C95.1271 167.503 94.9708 166.885 94.9708 166.208C94.9708 165.695 95.0618 165.217 95.2438 164.773C95.4258 164.325 95.6754 163.933 95.9928 163.597C96.3148 163.257 96.6881 162.991 97.1128 162.799C97.5374 162.608 97.9901 162.512 98.4708 162.512C99.0401 162.512 99.5674 162.645 100.053 162.911C100.543 163.177 100.946 163.534 101.264 163.982L100.389 164.451C100.146 164.143 99.8544 163.908 99.5138 163.744C99.1731 163.576 98.8254 163.492 98.4708 163.492C97.9994 163.492 97.5724 163.618 97.1898 163.87C96.8071 164.118 96.5038 164.447 96.2798 164.857C96.0604 165.268 95.9508 165.718 95.9508 166.208C95.9508 166.698 96.0628 167.149 96.2868 167.559C96.5154 167.97 96.8211 168.299 97.2038 168.546C97.5864 168.789 98.0088 168.91 98.4708 168.91C98.8534 168.91 99.2128 168.822 99.5488 168.644C99.8848 168.467 100.165 168.236 100.389 167.951ZM108.536 165.375V169.708H107.556V165.571C107.556 165.189 107.462 164.841 107.276 164.528C107.089 164.216 106.839 163.966 106.527 163.779C106.214 163.593 105.866 163.499 105.484 163.499C105.106 163.499 104.758 163.593 104.441 163.779C104.128 163.966 103.878 164.216 103.692 164.528C103.505 164.841 103.412 165.189 103.412 165.571V169.708H102.432V159.208H103.412V163.674C103.659 163.32 103.981 163.037 104.378 162.827C104.774 162.617 105.206 162.512 105.673 162.512C106.2 162.512 106.681 162.641 107.115 162.897C107.549 163.154 107.894 163.499 108.151 163.933C108.407 164.367 108.536 164.848 108.536 165.375ZM109.938 162.708H110.918V169.708H109.938V162.708ZM110.435 161.483C110.276 161.483 110.141 161.432 110.029 161.329C109.921 161.222 109.868 161.089 109.868 160.93C109.868 160.772 109.921 160.641 110.029 160.538C110.141 160.431 110.276 160.377 110.435 160.377C110.589 160.377 110.719 160.431 110.827 160.538C110.939 160.641 110.995 160.772 110.995 160.93C110.995 161.089 110.941 161.222 110.834 161.329C110.726 161.432 110.593 161.483 110.435 161.483ZM118.68 165.375V169.708H117.7V165.571C117.7 165.189 117.607 164.841 117.42 164.528C117.234 164.216 116.984 163.966 116.671 163.779C116.359 163.593 116.011 163.499 115.628 163.499C115.25 163.499 114.903 163.593 114.585 163.779C114.273 163.966 114.023 164.216 113.836 164.528C113.65 164.841 113.556 165.189 113.556 165.571V169.708H112.576V162.708H113.556V163.674C113.804 163.32 114.126 163.037 114.522 162.827C114.919 162.617 115.351 162.512 115.817 162.512C116.345 162.512 116.825 162.641 117.259 162.897C117.693 163.154 118.039 163.499 118.295 163.933C118.552 164.367 118.68 164.848 118.68 165.375ZM125.51 162.708H126.49V169.967C126.49 170.415 126.392 170.835 126.196 171.227C126.005 171.619 125.744 171.962 125.412 172.256C125.086 172.555 124.712 172.788 124.292 172.956C123.872 173.124 123.436 173.208 122.983 173.208C122.498 173.208 122.029 173.096 121.576 172.872C121.124 172.653 120.729 172.359 120.393 171.99C120.062 171.622 119.826 171.213 119.686 170.765L120.589 170.352C120.678 170.702 120.844 171.017 121.086 171.297C121.334 171.582 121.623 171.806 121.954 171.969C122.29 172.137 122.633 172.221 122.983 172.221C123.305 172.221 123.616 172.161 123.914 172.039C124.218 171.923 124.488 171.762 124.726 171.556C124.969 171.351 125.16 171.111 125.3 170.835C125.44 170.565 125.51 170.275 125.51 169.967V168.42C125.268 168.859 124.939 169.214 124.523 169.484C124.113 169.755 123.634 169.89 123.088 169.89C122.598 169.89 122.136 169.795 121.702 169.603C121.273 169.412 120.895 169.148 120.568 168.812C120.242 168.472 119.985 168.08 119.798 167.636C119.616 167.193 119.525 166.717 119.525 166.208C119.525 165.7 119.616 165.224 119.798 164.78C119.985 164.332 120.242 163.94 120.568 163.604C120.895 163.264 121.273 162.998 121.702 162.806C122.136 162.615 122.598 162.519 123.088 162.519C123.634 162.519 124.113 162.655 124.523 162.925C124.939 163.191 125.268 163.546 125.51 163.989V162.708ZM123.095 168.938C123.581 168.938 123.998 168.812 124.348 168.56C124.703 168.308 124.976 167.975 125.167 167.559C125.359 167.144 125.454 166.694 125.454 166.208C125.454 165.709 125.356 165.254 125.16 164.843C124.969 164.428 124.696 164.097 124.341 163.849C123.987 163.597 123.571 163.471 123.095 163.471C122.619 163.471 122.185 163.595 121.793 163.842C121.406 164.085 121.098 164.414 120.869 164.829C120.641 165.245 120.526 165.704 120.526 166.208C120.526 166.712 120.643 167.172 120.876 167.587C121.11 167.998 121.42 168.327 121.807 168.574C122.199 168.817 122.629 168.938 123.095 168.938ZM134.619 169.89C133.975 169.89 133.387 169.725 132.855 169.393C132.328 169.062 131.906 168.619 131.588 168.063C131.276 167.503 131.119 166.885 131.119 166.208C131.119 165.695 131.21 165.217 131.392 164.773C131.574 164.325 131.824 163.933 132.141 163.597C132.463 163.257 132.837 162.991 133.261 162.799C133.686 162.608 134.139 162.512 134.619 162.512C135.263 162.512 135.849 162.678 136.376 163.009C136.908 163.341 137.331 163.786 137.643 164.346C137.961 164.906 138.119 165.527 138.119 166.208C138.119 166.717 138.028 167.193 137.846 167.636C137.664 168.08 137.412 168.472 137.09 168.812C136.773 169.148 136.402 169.412 135.977 169.603C135.557 169.795 135.105 169.89 134.619 169.89ZM134.619 168.91C135.095 168.91 135.522 168.787 135.9 168.539C136.283 168.287 136.584 167.956 136.803 167.545C137.027 167.135 137.139 166.689 137.139 166.208C137.139 165.718 137.027 165.268 136.803 164.857C136.579 164.442 136.276 164.111 135.893 163.863C135.515 163.616 135.091 163.492 134.619 163.492C134.143 163.492 133.714 163.618 133.331 163.87C132.953 164.118 132.652 164.447 132.428 164.857C132.209 165.268 132.099 165.718 132.099 166.208C132.099 166.712 132.214 167.17 132.442 167.58C132.671 167.986 132.977 168.311 133.359 168.553C133.742 168.791 134.162 168.91 134.619 168.91ZM138.956 167.027V162.708H139.936V166.831C139.936 167.214 140.03 167.562 140.216 167.874C140.403 168.187 140.653 168.437 140.965 168.623C141.283 168.81 141.63 168.903 142.008 168.903C142.391 168.903 142.736 168.81 143.044 168.623C143.357 168.437 143.607 168.187 143.793 167.874C143.98 167.562 144.073 167.214 144.073 166.831V162.708H145.053L145.06 169.708H144.08L144.073 168.728C143.826 169.083 143.504 169.365 143.107 169.575C142.715 169.785 142.286 169.89 141.819 169.89C141.292 169.89 140.811 169.762 140.377 169.505C139.943 169.249 139.598 168.903 139.341 168.469C139.085 168.035 138.956 167.555 138.956 167.027ZM150.032 163.688H148.359L148.352 169.708H147.372L147.379 163.688H146.112V162.708H147.379L147.372 160.51H148.352L148.359 162.708H150.032V163.688Z" fill="#535662"/>
<rect x="187.386" y="145.208" width="109" height="40" rx="20" stroke="#0C1021" stroke-opacity="0.1"/>
<path d="M212.026 169.708V162.708H213.006V163.674C213.253 163.32 213.575 163.037 213.972 162.827C214.368 162.617 214.8 162.512 215.267 162.512C215.537 162.512 215.799 162.547 216.051 162.617L215.652 163.59C215.456 163.53 215.264 163.499 215.078 163.499C214.7 163.499 214.352 163.593 214.035 163.779C213.722 163.966 213.472 164.216 213.286 164.528C213.099 164.841 213.006 165.189 213.006 165.571V169.708H212.026ZM219.645 169.89C219.001 169.89 218.413 169.725 217.881 169.393C217.353 169.062 216.931 168.619 216.614 168.063C216.301 167.503 216.145 166.885 216.145 166.208C216.145 165.695 216.236 165.217 216.418 164.773C216.6 164.325 216.849 163.933 217.167 163.597C217.489 163.257 217.862 162.991 218.287 162.799C218.711 162.608 219.164 162.512 219.645 162.512C220.163 162.512 220.639 162.615 221.073 162.82C221.511 163.026 221.887 163.313 222.2 163.681C222.517 164.05 222.755 164.482 222.914 164.976C223.077 165.471 223.145 166.005 223.117 166.579H217.181C217.237 167.023 217.377 167.419 217.601 167.769C217.829 168.119 218.119 168.397 218.469 168.602C218.823 168.803 219.215 168.906 219.645 168.91C220.111 168.91 220.531 168.789 220.905 168.546C221.283 168.304 221.586 167.97 221.815 167.545L222.809 167.776C222.529 168.397 222.106 168.906 221.542 169.302C220.977 169.694 220.345 169.89 219.645 169.89ZM217.153 165.788H222.13C222.097 165.354 221.964 164.958 221.731 164.598C221.502 164.234 221.206 163.945 220.842 163.73C220.478 163.511 220.079 163.401 219.645 163.401C219.211 163.401 218.814 163.509 218.455 163.723C218.095 163.933 217.801 164.22 217.573 164.584C217.344 164.944 217.204 165.345 217.153 165.788ZM224.317 169.708V162.708H225.297V163.674C225.549 163.32 225.871 163.037 226.263 162.827C226.655 162.617 227.084 162.512 227.551 162.512C228.078 162.512 228.561 162.643 229 162.904C229.438 163.161 229.781 163.504 230.029 163.933C230.276 163.504 230.617 163.161 231.051 162.904C231.485 162.643 231.965 162.512 232.493 162.512C233.02 162.512 233.501 162.641 233.935 162.897C234.369 163.154 234.714 163.499 234.971 163.933C235.227 164.367 235.356 164.848 235.356 165.375V169.708H234.376V165.592C234.376 165.219 234.285 164.874 234.103 164.556C233.921 164.239 233.676 163.985 233.368 163.793C233.064 163.597 232.726 163.499 232.353 163.499C231.979 163.499 231.639 163.59 231.331 163.772C231.027 163.95 230.785 164.197 230.603 164.514C230.421 164.827 230.33 165.186 230.33 165.592V169.708H229.35V165.592C229.35 165.186 229.259 164.827 229.077 164.514C228.895 164.197 228.65 163.95 228.342 163.772C228.034 163.59 227.693 163.499 227.32 163.499C226.951 163.499 226.613 163.597 226.305 163.793C225.997 163.985 225.752 164.239 225.57 164.556C225.388 164.874 225.297 165.219 225.297 165.592V169.708H224.317ZM236.758 162.708H237.738V169.708H236.758V162.708ZM237.255 161.483C237.096 161.483 236.961 161.432 236.849 161.329C236.742 161.222 236.688 161.089 236.688 160.93C236.688 160.772 236.742 160.641 236.849 160.538C236.961 160.431 237.096 160.377 237.255 160.377C237.409 160.377 237.54 160.431 237.647 160.538C237.759 160.641 237.815 160.772 237.815 160.93C237.815 161.089 237.761 161.222 237.654 161.329C237.547 161.432 237.414 161.483 237.255 161.483ZM245.501 165.375V169.708H244.521V165.571C244.521 165.189 244.427 164.841 244.241 164.528C244.054 164.216 243.804 163.966 243.492 163.779C243.179 163.593 242.831 163.499 242.449 163.499C242.071 163.499 241.723 163.593 241.406 163.779C241.093 163.966 240.843 164.216 240.657 164.528C240.47 164.841 240.377 165.189 240.377 165.571V169.708H239.397V162.708H240.377V163.674C240.624 163.32 240.946 163.037 241.343 162.827C241.739 162.617 242.171 162.512 242.638 162.512C243.165 162.512 243.646 162.641 244.08 162.897C244.514 163.154 244.859 163.499 245.116 163.933C245.372 164.367 245.501 164.848 245.501 165.375ZM252.527 159.208H253.507V169.708H252.527V168.399C252.284 168.847 251.95 169.209 251.526 169.484C251.106 169.755 250.606 169.89 250.028 169.89C249.519 169.89 249.043 169.795 248.6 169.603C248.156 169.412 247.764 169.148 247.424 168.812C247.088 168.472 246.824 168.08 246.633 167.636C246.441 167.193 246.346 166.717 246.346 166.208C246.346 165.7 246.441 165.224 246.633 164.78C246.824 164.332 247.088 163.94 247.424 163.604C247.764 163.264 248.156 162.998 248.6 162.806C249.043 162.615 249.519 162.519 250.028 162.519C250.606 162.519 251.106 162.657 251.526 162.932C251.95 163.203 252.284 163.56 252.527 164.003V159.208ZM250.035 168.938C250.534 168.938 250.963 168.817 251.323 168.574C251.682 168.327 251.957 167.996 252.149 167.58C252.345 167.165 252.443 166.708 252.443 166.208C252.443 165.695 252.345 165.233 252.149 164.822C251.953 164.407 251.675 164.078 251.316 163.835C250.956 163.593 250.529 163.471 250.035 163.471C249.54 163.471 249.09 163.595 248.684 163.842C248.278 164.085 247.953 164.414 247.711 164.829C247.468 165.245 247.347 165.704 247.347 166.208C247.347 166.717 247.47 167.179 247.718 167.594C247.965 168.005 248.292 168.332 248.698 168.574C249.108 168.817 249.554 168.938 250.035 168.938ZM255.188 162.708H256.168V169.708H255.188V162.708ZM255.685 161.483C255.526 161.483 255.391 161.432 255.279 161.329C255.171 161.222 255.118 161.089 255.118 160.93C255.118 160.772 255.171 160.641 255.279 160.538C255.391 160.431 255.526 160.377 255.685 160.377C255.839 160.377 255.969 160.431 256.077 160.538C256.189 160.641 256.245 160.772 256.245 160.93C256.245 161.089 256.191 161.222 256.084 161.329C255.976 161.432 255.843 161.483 255.685 161.483ZM263.93 165.375V169.708H262.95V165.571C262.95 165.189 262.857 164.841 262.67 164.528C262.484 164.216 262.234 163.966 261.921 163.779C261.609 163.593 261.261 163.499 260.878 163.499C260.5 163.499 260.153 163.593 259.835 163.779C259.523 163.966 259.273 164.216 259.086 164.528C258.9 164.841 258.806 165.189 258.806 165.571V169.708H257.826V162.708H258.806V163.674C259.054 163.32 259.376 163.037 259.772 162.827C260.169 162.617 260.601 162.512 261.067 162.512C261.595 162.512 262.075 162.641 262.509 162.897C262.943 163.154 263.289 163.499 263.545 163.933C263.802 164.367 263.93 164.848 263.93 165.375ZM270.76 162.708H271.74V169.967C271.74 170.415 271.642 170.835 271.446 171.227C271.255 171.619 270.994 171.962 270.662 172.256C270.336 172.555 269.962 172.788 269.542 172.956C269.122 173.124 268.686 173.208 268.233 173.208C267.748 173.208 267.279 173.096 266.826 172.872C266.374 172.653 265.979 172.359 265.643 171.99C265.312 171.622 265.076 171.213 264.936 170.765L265.839 170.352C265.928 170.702 266.094 171.017 266.336 171.297C266.584 171.582 266.873 171.806 267.204 171.969C267.54 172.137 267.883 172.221 268.233 172.221C268.555 172.221 268.866 172.161 269.164 172.039C269.468 171.923 269.738 171.762 269.976 171.556C270.219 171.351 270.41 171.111 270.55 170.835C270.69 170.565 270.76 170.275 270.76 169.967V168.42C270.518 168.859 270.189 169.214 269.773 169.484C269.363 169.755 268.884 169.89 268.338 169.89C267.848 169.89 267.386 169.795 266.952 169.603C266.523 169.412 266.145 169.148 265.818 168.812C265.492 168.472 265.235 168.08 265.048 167.636C264.866 167.193 264.775 166.717 264.775 166.208C264.775 165.7 264.866 165.224 265.048 164.78C265.235 164.332 265.492 163.94 265.818 163.604C266.145 163.264 266.523 162.998 266.952 162.806C267.386 162.615 267.848 162.519 268.338 162.519C268.884 162.519 269.363 162.655 269.773 162.925C270.189 163.191 270.518 163.546 270.76 163.989V162.708ZM268.345 168.938C268.831 168.938 269.248 168.812 269.598 168.56C269.953 168.308 270.226 167.975 270.417 167.559C270.609 167.144 270.704 166.694 270.704 166.208C270.704 165.709 270.606 165.254 270.41 164.843C270.219 164.428 269.946 164.097 269.591 163.849C269.237 163.597 268.821 163.471 268.345 163.471C267.869 163.471 267.435 163.595 267.043 163.842C266.656 164.085 266.348 164.414 266.119 164.829C265.891 165.245 265.776 165.704 265.776 166.208C265.776 166.712 265.893 167.172 266.126 167.587C266.36 167.998 266.67 168.327 267.057 168.574C267.449 168.817 267.879 168.938 268.345 168.938Z" fill="#535662"/>
<rect x="59.8857" y="198.208" width="110" height="40" rx="20" stroke="#0C1021" stroke-opacity="0.1"/>
<path d="M87.4288 222.89C86.7848 222.89 86.1968 222.725 85.6648 222.393C85.1375 222.062 84.7151 221.619 84.3978 221.063C84.0851 220.503 83.9288 219.885 83.9288 219.208C83.9288 218.695 84.0198 218.217 84.2018 217.773C84.3838 217.325 84.6335 216.933 84.9508 216.597C85.2728 216.257 85.6461 215.991 86.0708 215.799C86.4955 215.608 86.9481 215.512 87.4288 215.512C87.9468 215.512 88.4228 215.615 88.8568 215.82C89.2955 216.026 89.6711 216.313 89.9838 216.681C90.3011 217.05 90.5391 217.482 90.6978 217.976C90.8611 218.471 90.9288 219.005 90.9008 219.579H84.9648C85.0208 220.023 85.1608 220.419 85.3848 220.769C85.6135 221.119 85.9028 221.397 86.2528 221.602C86.6075 221.803 86.9995 221.906 87.4288 221.91C87.8955 221.91 88.3155 221.789 88.6888 221.546C89.0668 221.304 89.3701 220.97 89.5988 220.545L90.5928 220.776C90.3128 221.397 89.8905 221.906 89.3258 222.302C88.7611 222.694 88.1288 222.89 87.4288 222.89ZM84.9368 218.788H89.9138C89.8811 218.354 89.7481 217.958 89.5148 217.598C89.2861 217.234 88.9898 216.945 88.6258 216.73C88.2618 216.511 87.8628 216.401 87.4288 216.401C86.9948 216.401 86.5981 216.509 86.2388 216.723C85.8795 216.933 85.5855 217.22 85.3568 217.584C85.1281 217.944 84.9881 218.345 84.9368 218.788ZM94.2774 222.841C93.8947 222.832 93.5214 222.762 93.1574 222.631C92.7934 222.501 92.4761 222.323 92.2054 222.099C91.9347 221.875 91.7411 221.621 91.6244 221.336L92.4714 220.972C92.5461 221.154 92.6837 221.322 92.8844 221.476C93.0897 221.626 93.3231 221.747 93.5844 221.84C93.8457 221.929 94.1047 221.973 94.3614 221.973C94.6461 221.973 94.9121 221.927 95.1594 221.833C95.4067 221.74 95.6074 221.607 95.7614 221.434C95.9201 221.257 95.9994 221.049 95.9994 220.811C95.9994 220.555 95.9154 220.354 95.7474 220.209C95.5794 220.06 95.3671 219.943 95.1104 219.859C94.8537 219.771 94.5901 219.687 94.3194 219.607C93.8247 219.472 93.3884 219.323 93.0104 219.159C92.6324 218.996 92.3361 218.788 92.1214 218.536C91.9114 218.28 91.8064 217.951 91.8064 217.549C91.8064 217.125 91.9254 216.758 92.1634 216.45C92.4061 216.138 92.7211 215.897 93.1084 215.729C93.5004 215.557 93.9181 215.47 94.3614 215.47C94.9307 215.47 95.4487 215.594 95.9154 215.841C96.3867 216.089 96.7274 216.418 96.9374 216.828L96.1464 217.297C96.0624 217.106 95.9294 216.94 95.7474 216.8C95.5654 216.66 95.3577 216.551 95.1244 216.471C94.8957 216.392 94.6624 216.35 94.4244 216.345C94.1257 216.341 93.8481 216.385 93.5914 216.478C93.3347 216.567 93.1271 216.7 92.9684 216.877C92.8144 217.055 92.7374 217.272 92.7374 217.528C92.7374 217.785 92.8144 217.981 92.9684 218.116C93.1224 218.247 93.3301 218.354 93.5914 218.438C93.8574 218.518 94.1561 218.611 94.4874 218.718C94.9121 218.854 95.3111 219.008 95.6844 219.18C96.0577 219.353 96.3587 219.568 96.5874 219.824C96.8161 220.081 96.9281 220.405 96.9234 220.797C96.9234 221.217 96.7974 221.584 96.5454 221.896C96.2934 222.209 95.9667 222.449 95.5654 222.617C95.1641 222.781 94.7347 222.855 94.2774 222.841ZM103.073 220.951L103.948 221.427C103.631 221.871 103.227 222.225 102.737 222.491C102.252 222.757 101.725 222.89 101.155 222.89C100.511 222.89 99.9234 222.725 99.3914 222.393C98.864 222.062 98.4417 221.619 98.1244 221.063C97.8117 220.503 97.6554 219.885 97.6554 219.208C97.6554 218.695 97.7464 218.217 97.9284 217.773C98.1104 217.325 98.36 216.933 98.6774 216.597C98.9994 216.257 99.3727 215.991 99.7974 215.799C100.222 215.608 100.675 215.512 101.155 215.512C101.725 215.512 102.252 215.645 102.737 215.911C103.227 216.177 103.631 216.534 103.948 216.982L103.073 217.451C102.831 217.143 102.539 216.908 102.198 216.744C101.858 216.576 101.51 216.492 101.155 216.492C100.684 216.492 100.257 216.618 99.8744 216.87C99.4917 217.118 99.1884 217.447 98.9644 217.857C98.745 218.268 98.6354 218.718 98.6354 219.208C98.6354 219.698 98.7474 220.149 98.9714 220.559C99.2 220.97 99.5057 221.299 99.8884 221.546C100.271 221.789 100.693 221.91 101.155 221.91C101.538 221.91 101.897 221.822 102.233 221.644C102.569 221.467 102.849 221.236 103.073 220.951ZM110.87 215.708H111.85V222.708H110.87L110.835 221.406C110.607 221.85 110.287 222.209 109.876 222.484C109.466 222.755 108.976 222.89 108.406 222.89C107.893 222.89 107.412 222.795 106.964 222.603C106.516 222.407 106.122 222.139 105.781 221.798C105.441 221.458 105.175 221.063 104.983 220.615C104.792 220.167 104.696 219.687 104.696 219.173C104.696 218.669 104.79 218.196 104.976 217.752C105.168 217.309 105.429 216.919 105.76 216.583C106.096 216.247 106.484 215.986 106.922 215.799C107.366 215.608 107.839 215.512 108.343 215.512C108.927 215.512 109.435 215.652 109.869 215.932C110.303 216.208 110.649 216.569 110.905 217.017L110.87 215.708ZM108.385 221.938C108.885 221.938 109.314 221.817 109.673 221.574C110.033 221.327 110.308 220.996 110.499 220.58C110.695 220.165 110.793 219.708 110.793 219.208C110.793 218.695 110.695 218.233 110.499 217.822C110.303 217.407 110.026 217.078 109.666 216.835C109.307 216.593 108.88 216.471 108.385 216.471C107.891 216.471 107.438 216.595 107.027 216.842C106.621 217.085 106.297 217.414 106.054 217.829C105.816 218.245 105.697 218.704 105.697 219.208C105.697 219.717 105.821 220.179 106.068 220.594C106.316 221.005 106.642 221.332 107.048 221.574C107.459 221.817 107.905 221.938 108.385 221.938ZM113.347 222.708V212.208H114.327V222.708H113.347ZM121.712 215.708H122.692V222.708H121.712L121.677 221.406C121.448 221.85 121.129 222.209 120.718 222.484C120.307 222.755 119.817 222.89 119.248 222.89C118.735 222.89 118.254 222.795 117.806 222.603C117.358 222.407 116.964 222.139 116.623 221.798C116.282 221.458 116.016 221.063 115.825 220.615C115.634 220.167 115.538 219.687 115.538 219.173C115.538 218.669 115.631 218.196 115.818 217.752C116.009 217.309 116.271 216.919 116.602 216.583C116.938 216.247 117.325 215.986 117.764 215.799C118.207 215.608 118.681 215.512 119.185 215.512C119.768 215.512 120.277 215.652 120.711 215.932C121.145 216.208 121.49 216.569 121.747 217.017L121.712 215.708ZM119.227 221.938C119.726 221.938 120.156 221.817 120.515 221.574C120.874 221.327 121.15 220.996 121.341 220.58C121.537 220.165 121.635 219.708 121.635 219.208C121.635 218.695 121.537 218.233 121.341 217.822C121.145 217.407 120.867 217.078 120.508 216.835C120.149 216.593 119.722 216.471 119.227 216.471C118.732 216.471 118.28 216.595 117.869 216.842C117.463 217.085 117.139 217.414 116.896 217.829C116.658 218.245 116.539 218.704 116.539 219.208C116.539 219.717 116.663 220.179 116.91 220.594C117.157 221.005 117.484 221.332 117.89 221.574C118.301 221.817 118.746 221.938 119.227 221.938ZM127.67 216.688H125.997L125.99 222.708H125.01L125.017 216.688H123.75V215.708H125.017L125.01 213.51H125.99L125.997 215.708H127.67V216.688ZM128.864 215.708H129.844V222.708H128.864V215.708ZM129.361 214.483C129.203 214.483 129.067 214.432 128.955 214.329C128.848 214.222 128.794 214.089 128.794 213.93C128.794 213.772 128.848 213.641 128.955 213.538C129.067 213.431 129.203 213.377 129.361 213.377C129.515 213.377 129.646 213.431 129.753 213.538C129.865 213.641 129.921 213.772 129.921 213.93C129.921 214.089 129.868 214.222 129.76 214.329C129.653 214.432 129.52 214.483 129.361 214.483ZM137.607 218.375V222.708H136.627V218.571C136.627 218.189 136.534 217.841 136.347 217.528C136.16 217.216 135.911 216.966 135.598 216.779C135.285 216.593 134.938 216.499 134.555 216.499C134.177 216.499 133.829 216.593 133.512 216.779C133.199 216.966 132.95 217.216 132.763 217.528C132.576 217.841 132.483 218.189 132.483 218.571V222.708H131.503V215.708H132.483V216.674C132.73 216.32 133.052 216.037 133.449 215.827C133.846 215.617 134.277 215.512 134.744 215.512C135.271 215.512 135.752 215.641 136.186 215.897C136.62 216.154 136.965 216.499 137.222 216.933C137.479 217.367 137.607 217.848 137.607 218.375ZM144.437 215.708H145.417V222.967C145.417 223.415 145.319 223.835 145.123 224.227C144.932 224.619 144.671 224.962 144.339 225.256C144.013 225.555 143.639 225.788 143.219 225.956C142.799 226.124 142.363 226.208 141.91 226.208C141.425 226.208 140.956 226.096 140.503 225.872C140.051 225.653 139.656 225.359 139.32 224.99C138.989 224.622 138.753 224.213 138.613 223.765L139.516 223.352C139.605 223.702 139.771 224.017 140.013 224.297C140.261 224.582 140.55 224.806 140.881 224.969C141.217 225.137 141.56 225.221 141.91 225.221C142.232 225.221 142.543 225.161 142.841 225.039C143.145 224.923 143.415 224.762 143.653 224.556C143.896 224.351 144.087 224.111 144.227 223.835C144.367 223.565 144.437 223.275 144.437 222.967V221.42C144.195 221.859 143.866 222.214 143.45 222.484C143.04 222.755 142.561 222.89 142.015 222.89C141.525 222.89 141.063 222.795 140.629 222.603C140.2 222.412 139.822 222.148 139.495 221.812C139.169 221.472 138.912 221.08 138.725 220.636C138.543 220.193 138.452 219.717 138.452 219.208C138.452 218.7 138.543 218.224 138.725 217.78C138.912 217.332 139.169 216.94 139.495 216.604C139.822 216.264 140.2 215.998 140.629 215.806C141.063 215.615 141.525 215.519 142.015 215.519C142.561 215.519 143.04 215.655 143.45 215.925C143.866 216.191 144.195 216.546 144.437 216.989V215.708ZM142.022 221.938C142.508 221.938 142.925 221.812 143.275 221.56C143.63 221.308 143.903 220.975 144.094 220.559C144.286 220.144 144.381 219.694 144.381 219.208C144.381 218.709 144.283 218.254 144.087 217.843C143.896 217.428 143.623 217.097 143.268 216.849C142.914 216.597 142.498 216.471 142.022 216.471C141.546 216.471 141.112 216.595 140.72 216.842C140.333 217.085 140.025 217.414 139.796 217.829C139.568 218.245 139.453 218.704 139.453 219.208C139.453 219.712 139.57 220.172 139.803 220.587C140.037 220.998 140.347 221.327 140.734 221.574C141.126 221.817 141.556 221.938 142.022 221.938Z" fill="#535662"/>
<rect x="182.886" y="198.208" width="104" height="40" rx="20" stroke="#0C1021" stroke-opacity="0.1"/>
<path d="M207.555 222.708V215.708H208.535V216.674C208.782 216.32 209.104 216.037 209.501 215.827C209.898 215.617 210.329 215.512 210.796 215.512C211.067 215.512 211.328 215.547 211.58 215.617L211.181 216.59C210.985 216.53 210.794 216.499 210.607 216.499C210.229 216.499 209.881 216.593 209.564 216.779C209.251 216.966 209.002 217.216 208.815 217.528C208.628 217.841 208.535 218.189 208.535 218.571V222.708H207.555ZM215.174 222.89C214.53 222.89 213.942 222.725 213.41 222.393C212.883 222.062 212.46 221.619 212.143 221.063C211.83 220.503 211.674 219.885 211.674 219.208C211.674 218.695 211.765 218.217 211.947 217.773C212.129 217.325 212.379 216.933 212.696 216.597C213.018 216.257 213.391 215.991 213.816 215.799C214.241 215.608 214.693 215.512 215.174 215.512C215.692 215.512 216.168 215.615 216.602 215.82C217.041 216.026 217.416 216.313 217.729 216.681C218.046 217.05 218.284 217.482 218.443 217.976C218.606 218.471 218.674 219.005 218.646 219.579H212.71C212.766 220.023 212.906 220.419 213.13 220.769C213.359 221.119 213.648 221.397 213.998 221.602C214.353 221.803 214.745 221.906 215.174 221.91C215.641 221.91 216.061 221.789 216.434 221.546C216.812 221.304 217.115 220.97 217.344 220.545L218.338 220.776C218.058 221.397 217.636 221.906 217.071 222.302C216.506 222.694 215.874 222.89 215.174 222.89ZM212.682 218.788H217.659C217.626 218.354 217.493 217.958 217.26 217.598C217.031 217.234 216.735 216.945 216.371 216.73C216.007 216.511 215.608 216.401 215.174 216.401C214.74 216.401 214.343 216.509 213.984 216.723C213.625 216.933 213.331 217.22 213.102 217.584C212.873 217.944 212.733 218.345 212.682 218.788ZM220.826 226.208H219.846V215.708H220.826V217.017C221.069 216.574 221.4 216.215 221.82 215.939C222.24 215.664 222.739 215.526 223.318 215.526C223.827 215.526 224.303 215.622 224.746 215.813C225.194 216.005 225.586 216.271 225.922 216.611C226.258 216.947 226.522 217.337 226.713 217.78C226.904 218.224 227 218.7 227 219.208C227 219.717 226.904 220.195 226.713 220.643C226.522 221.091 226.258 221.486 225.922 221.826C225.586 222.162 225.194 222.426 224.746 222.617C224.303 222.809 223.827 222.904 223.318 222.904C222.739 222.904 222.24 222.767 221.82 222.491C221.4 222.216 221.069 221.857 220.826 221.413V226.208ZM223.311 216.478C222.821 216.478 222.394 216.602 222.03 216.849C221.671 217.092 221.393 217.419 221.197 217.829C221.001 218.24 220.903 218.7 220.903 219.208C220.903 219.708 220.999 220.165 221.19 220.58C221.386 220.996 221.664 221.327 222.023 221.574C222.387 221.822 222.816 221.945 223.311 221.945C223.796 221.945 224.242 221.824 224.648 221.581C225.059 221.339 225.388 221.012 225.635 220.601C225.882 220.186 226.006 219.722 226.006 219.208C226.006 218.709 225.885 218.254 225.642 217.843C225.399 217.428 225.075 217.097 224.669 216.849C224.263 216.602 223.81 216.478 223.311 216.478ZM231.197 222.89C230.553 222.89 229.965 222.725 229.433 222.393C228.906 222.062 228.484 221.619 228.166 221.063C227.854 220.503 227.697 219.885 227.697 219.208C227.697 218.695 227.788 218.217 227.97 217.773C228.152 217.325 228.402 216.933 228.719 216.597C229.041 216.257 229.415 215.991 229.839 215.799C230.264 215.608 230.717 215.512 231.197 215.512C231.841 215.512 232.427 215.678 232.954 216.009C233.486 216.341 233.909 216.786 234.221 217.346C234.539 217.906 234.697 218.527 234.697 219.208C234.697 219.717 234.606 220.193 234.424 220.636C234.242 221.08 233.99 221.472 233.668 221.812C233.351 222.148 232.98 222.412 232.555 222.603C232.135 222.795 231.683 222.89 231.197 222.89ZM231.197 221.91C231.673 221.91 232.1 221.787 232.478 221.539C232.861 221.287 233.162 220.956 233.381 220.545C233.605 220.135 233.717 219.689 233.717 219.208C233.717 218.718 233.605 218.268 233.381 217.857C233.157 217.442 232.854 217.111 232.471 216.863C232.093 216.616 231.669 216.492 231.197 216.492C230.721 216.492 230.292 216.618 229.909 216.87C229.531 217.118 229.23 217.447 229.006 217.857C228.787 218.268 228.677 218.718 228.677 219.208C228.677 219.712 228.792 220.17 229.02 220.58C229.249 220.986 229.555 221.311 229.937 221.553C230.32 221.791 230.74 221.91 231.197 221.91ZM235.883 222.708V215.708H236.863V216.674C237.11 216.32 237.432 216.037 237.829 215.827C238.226 215.617 238.657 215.512 239.124 215.512C239.395 215.512 239.656 215.547 239.908 215.617L239.509 216.59C239.313 216.53 239.122 216.499 238.935 216.499C238.557 216.499 238.209 216.593 237.892 216.779C237.579 216.966 237.33 217.216 237.143 217.528C236.956 217.841 236.863 218.189 236.863 218.571V222.708H235.883ZM244.464 216.688H242.791L242.784 222.708H241.804L241.811 216.688H240.544V215.708H241.811L241.804 213.51H242.784L242.791 215.708H244.464V216.688ZM245.658 215.708H246.638V222.708H245.658V215.708ZM246.155 214.483C245.997 214.483 245.861 214.432 245.749 214.329C245.642 214.222 245.588 214.089 245.588 213.93C245.588 213.772 245.642 213.641 245.749 213.538C245.861 213.431 245.997 213.377 246.155 213.377C246.309 213.377 246.44 213.431 246.547 213.538C246.659 213.641 246.715 213.772 246.715 213.93C246.715 214.089 246.662 214.222 246.554 214.329C246.447 214.432 246.314 214.483 246.155 214.483ZM254.401 218.375V222.708H253.421V218.571C253.421 218.189 253.328 217.841 253.141 217.528C252.954 217.216 252.705 216.966 252.392 216.779C252.079 216.593 251.732 216.499 251.349 216.499C250.971 216.499 250.623 216.593 250.306 216.779C249.993 216.966 249.744 217.216 249.557 217.528C249.37 217.841 249.277 218.189 249.277 218.571V222.708H248.297V215.708H249.277V216.674C249.524 216.32 249.846 216.037 250.243 215.827C250.64 215.617 251.071 215.512 251.538 215.512C252.065 215.512 252.546 215.641 252.98 215.897C253.414 216.154 253.759 216.499 254.016 216.933C254.273 217.367 254.401 217.848 254.401 218.375ZM261.231 215.708H262.211V222.967C262.211 223.415 262.113 223.835 261.917 224.227C261.726 224.619 261.465 224.962 261.133 225.256C260.807 225.555 260.433 225.788 260.013 225.956C259.593 226.124 259.157 226.208 258.704 226.208C258.219 226.208 257.75 226.096 257.297 225.872C256.845 225.653 256.45 225.359 256.114 224.99C255.783 224.622 255.547 224.213 255.407 223.765L256.31 223.352C256.399 223.702 256.565 224.017 256.807 224.297C257.055 224.582 257.344 224.806 257.675 224.969C258.011 225.137 258.354 225.221 258.704 225.221C259.026 225.221 259.337 225.161 259.635 225.039C259.939 224.923 260.209 224.762 260.447 224.556C260.69 224.351 260.881 224.111 261.021 223.835C261.161 223.565 261.231 223.275 261.231 222.967V221.42C260.989 221.859 260.66 222.214 260.244 222.484C259.834 222.755 259.355 222.89 258.809 222.89C258.319 222.89 257.857 222.795 257.423 222.603C256.994 222.412 256.616 222.148 256.289 221.812C255.963 221.472 255.706 221.08 255.519 220.636C255.337 220.193 255.246 219.717 255.246 219.208C255.246 218.7 255.337 218.224 255.519 217.78C255.706 217.332 255.963 216.94 256.289 216.604C256.616 216.264 256.994 215.998 257.423 215.806C257.857 215.615 258.319 215.519 258.809 215.519C259.355 215.519 259.834 215.655 260.244 215.925C260.66 216.191 260.989 216.546 261.231 216.989V215.708ZM258.816 221.938C259.302 221.938 259.719 221.812 260.069 221.56C260.424 221.308 260.697 220.975 260.888 220.559C261.08 220.144 261.175 219.694 261.175 219.208C261.175 218.709 261.077 218.254 260.881 217.843C260.69 217.428 260.417 217.097 260.062 216.849C259.708 216.597 259.292 216.471 258.816 216.471C258.34 216.471 257.906 216.595 257.514 216.842C257.127 217.085 256.819 217.414 256.59 217.829C256.362 218.245 256.247 218.704 256.247 219.208C256.247 219.712 256.364 220.172 256.597 220.587C256.831 220.998 257.141 221.327 257.528 221.574C257.92 221.817 258.35 221.938 258.816 221.938Z" fill="#535662"/>
<path d="M310.451 626.028L-325.456 277.745C-325.456 277.745 -54.3787 319.621 117.564 302.093C292.638 284.246 551.57 185.784 551.57 185.784L310.451 626.028Z" fill="url(#paint0_linear_3298_9825)" fill-opacity="0.4" stroke="#4268FF"/>
</g>
<rect x="18.8454" y="15.1681" width="309.081" height="413.081" rx="21.6033" stroke="#0C1021" stroke-opacity="0.05" stroke-width="0.919289"/>
</g>
<defs>
<filter id="filter0_d_3298_9825" x="-3.05176e-05" y="-0.00012207" width="346.772" height="450.772" filterUnits="userSpaceOnUse" color-interpolation-filters="sRGB">
<feFlood flood-opacity="0" result="BackgroundImageFix"/>
<feColorMatrix in="SourceAlpha" type="matrix" values="0 0 0 0 0 0 0 0 0 0 0 0 0 0 0 0 0 0 127 0" result="hardAlpha"/>
<feOffset dy="3.67715"/>
<feGaussianBlur stdDeviation="9.19289"/>
<feComposite in2="hardAlpha" operator="out"/>
<feColorMatrix type="matrix" values="0 0 0 0 0.0468057 0 0 0 0 0.0634939 0 0 0 0 0.129808 0 0 0 0.1 0"/>
<feBlend mode="normal" in2="BackgroundImageFix" result="effect1_dropShadow_3298_9825"/>
<feBlend mode="normal" in="SourceGraphic" in2="effect1_dropShadow_3298_9825" result="shape"/>
</filter>
<linearGradient id="paint0_linear_3298_9825" x1="3.98307" y1="162.854" x2="-27.2047" y2="442.787" gradientUnits="userSpaceOnUse">
<stop stop-color="#4268FF"/>
<stop offset="1" stop-color="#4268FF" stop-opacity="0"/>
</linearGradient>
<clipPath id="clip0_3298_9825">
<rect x="18.3857" y="14.7085" width="310" height="414" rx="22.0629" fill="white"/>
</clipPath>
</defs>
</svg>
