<svg width="464" height="455" viewBox="0 0 464 455" fill="none" xmlns="http://www.w3.org/2000/svg">
<g filter="url(#filter0_d_3298_9761)">
<g clip-path="url(#clip0_3298_9761)">
<rect x="18.3858" y="14.7085" width="427" height="418" rx="22.0629" fill="white"/>
<path d="M126.954 44.9085H129.87L135.978 61.7085H133.338L132.174 58.5165H124.65L123.498 61.7085H120.846L126.954 44.9085ZM125.574 56.0205H131.25L128.406 48.2205L125.574 56.0205ZM137.755 49.7085H140.251V61.7085H137.755V49.7085ZM139.027 47.9685C138.643 47.9685 138.323 47.8445 138.067 47.5965C137.811 47.3485 137.683 47.0365 137.683 46.6605C137.683 46.2925 137.811 45.9845 138.067 45.7365C138.323 45.4805 138.639 45.3525 139.015 45.3525C139.383 45.3525 139.695 45.4805 139.951 45.7365C140.207 45.9845 140.335 46.2925 140.335 46.6605C140.335 47.0365 140.207 47.3485 139.951 47.5965C139.703 47.8445 139.395 47.9685 139.027 47.9685ZM154.516 44.9085H157.432L163.54 61.7085H160.9L159.736 58.5165H152.212L151.06 61.7085H148.408L154.516 44.9085ZM153.136 56.0205H158.812L155.968 48.2205L153.136 56.0205ZM173.887 49.7085H176.383V62.0205C176.383 62.8445 176.207 63.6045 175.855 64.3005C175.511 64.9965 175.043 65.5965 174.451 66.1005C173.859 66.6125 173.179 67.0085 172.411 67.2885C171.651 67.5685 170.855 67.7085 170.023 67.7085C169.183 67.7085 168.375 67.5285 167.599 67.1685C166.823 66.8165 166.139 66.3365 165.547 65.7285C164.963 65.1205 164.527 64.4325 164.239 63.6645L166.531 62.6325C166.691 63.1285 166.947 63.5685 167.299 63.9525C167.659 64.3365 168.075 64.6405 168.547 64.8645C169.027 65.0885 169.519 65.2005 170.023 65.2005C170.519 65.2005 170.995 65.1205 171.451 64.9605C171.915 64.8085 172.327 64.5925 172.687 64.3125C173.055 64.0325 173.347 63.6965 173.563 63.3045C173.779 62.9125 173.887 62.4845 173.887 62.0205V59.9925C173.495 60.6005 172.991 61.0925 172.375 61.4685C171.759 61.8365 171.043 62.0205 170.227 62.0205C169.379 62.0205 168.579 61.8565 167.827 61.5285C167.075 61.2005 166.415 60.7485 165.847 60.1725C165.279 59.5885 164.835 58.9165 164.515 58.1565C164.195 57.3965 164.035 56.5805 164.035 55.7085C164.035 54.8365 164.195 54.0205 164.515 53.2605C164.835 52.4925 165.279 51.8205 165.847 51.2445C166.415 50.6605 167.075 50.2045 167.827 49.8765C168.579 49.5485 169.379 49.3845 170.227 49.3845C171.043 49.3845 171.759 49.5725 172.375 49.9485C172.991 50.3165 173.495 50.8085 173.887 51.4245V49.7085ZM170.251 59.6085C170.947 59.6085 171.555 59.4325 172.075 59.0805C172.595 58.7205 172.999 58.2445 173.287 57.6525C173.575 57.0605 173.719 56.4125 173.719 55.7085C173.719 54.9885 173.571 54.3365 173.275 53.7525C172.987 53.1605 172.583 52.6885 172.063 52.3365C171.543 51.9765 170.939 51.7965 170.251 51.7965C169.579 51.7965 168.963 51.9725 168.403 52.3245C167.851 52.6765 167.411 53.1485 167.083 53.7405C166.755 54.3325 166.591 54.9885 166.591 55.7085C166.591 56.4285 166.755 57.0845 167.083 57.6765C167.419 58.2685 167.863 58.7405 168.415 59.0925C168.975 59.4365 169.587 59.6085 170.251 59.6085ZM184.332 62.0205C183.228 62.0205 182.22 61.7365 181.308 61.1685C180.404 60.6005 179.68 59.8405 179.136 58.8885C178.6 57.9285 178.332 56.8685 178.332 55.7085C178.332 54.8285 178.488 54.0085 178.8 53.2485C179.112 52.4805 179.54 51.8085 180.084 51.2325C180.636 50.6485 181.276 50.1925 182.004 49.8645C182.732 49.5365 183.508 49.3725 184.332 49.3725C185.252 49.3725 186.096 49.5645 186.864 49.9485C187.632 50.3245 188.288 50.8485 188.832 51.5205C189.376 52.1845 189.776 52.9525 190.032 53.8245C190.288 54.6885 190.364 55.6085 190.26 56.5845H181.008C181.112 57.1365 181.312 57.6365 181.608 58.0845C181.912 58.5245 182.296 58.8725 182.76 59.1285C183.232 59.3845 183.756 59.5165 184.332 59.5245C184.94 59.5245 185.492 59.3725 185.988 59.0685C186.492 58.7645 186.904 58.3445 187.224 57.8085L189.756 58.3965C189.276 59.4605 188.552 60.3325 187.584 61.0125C186.616 61.6845 185.532 62.0205 184.332 62.0205ZM180.924 54.6765H187.74C187.66 54.1005 187.456 53.5805 187.128 53.1165C186.808 52.6445 186.404 52.2725 185.916 52.0005C185.436 51.7205 184.908 51.5805 184.332 51.5805C183.764 51.5805 183.236 51.7165 182.748 51.9885C182.268 52.2605 181.868 52.6325 181.548 53.1045C181.236 53.5685 181.028 54.0925 180.924 54.6765ZM203.048 54.1845V61.7085H200.552V54.7965C200.552 54.2605 200.42 53.7725 200.156 53.3325C199.9 52.8925 199.552 52.5445 199.112 52.2885C198.68 52.0245 198.192 51.8925 197.648 51.8925C197.12 51.8925 196.636 52.0245 196.196 52.2885C195.756 52.5445 195.404 52.8925 195.14 53.3325C194.876 53.7725 194.744 54.2605 194.744 54.7965V61.7085H192.248V49.7085H194.744V50.9805C195.16 50.4845 195.672 50.0925 196.28 49.8045C196.888 49.5165 197.544 49.3725 198.248 49.3725C199.136 49.3725 199.944 49.5885 200.672 50.0205C201.4 50.4525 201.976 51.0325 202.4 51.7605C202.832 52.4885 203.048 53.2965 203.048 54.1845ZM211.779 52.2045H209.259L209.247 61.7085H206.751L206.763 52.2045H204.855V49.7085H206.763L206.751 45.9405H209.247L209.259 49.7085H211.779V52.2045ZM225.321 44.9085H228.237L234.345 61.7085H231.705L230.541 58.5165H223.017L221.865 61.7085H219.213L225.321 44.9085ZM223.941 56.0205H229.617L226.773 48.2205L223.941 56.0205ZM235.408 57.2085V49.7085H237.904V56.5965C237.904 57.1325 238.036 57.6205 238.3 58.0605C238.564 58.5005 238.916 58.8525 239.356 59.1165C239.796 59.3725 240.28 59.5005 240.808 59.5005C241.344 59.5005 241.828 59.3725 242.26 59.1165C242.7 58.8525 243.048 58.5005 243.304 58.0605C243.568 57.6205 243.7 57.1325 243.7 56.5965V49.7085H246.196L246.208 61.7085H243.712L243.7 60.4125C243.292 60.9085 242.784 61.3005 242.176 61.5885C241.568 61.8765 240.916 62.0205 240.22 62.0205C239.332 62.0205 238.524 61.8045 237.796 61.3725C237.068 60.9405 236.488 60.3605 236.056 59.6325C235.624 58.9045 235.408 58.0965 235.408 57.2085ZM254.951 52.2045H252.431L252.419 61.7085H249.923L249.935 52.2045H248.027V49.7085H249.935L249.923 45.9405H252.419L252.431 49.7085H254.951V52.2045ZM262.098 62.0205C260.994 62.0205 259.986 61.7365 259.074 61.1685C258.17 60.6005 257.446 59.8405 256.902 58.8885C256.366 57.9285 256.098 56.8685 256.098 55.7085C256.098 54.8285 256.254 54.0085 256.566 53.2485C256.878 52.4805 257.306 51.8085 257.85 51.2325C258.402 50.6485 259.042 50.1925 259.77 49.8645C260.498 49.5365 261.274 49.3725 262.098 49.3725C263.202 49.3725 264.206 49.6565 265.11 50.2245C266.022 50.7925 266.746 51.5565 267.282 52.5165C267.826 53.4765 268.098 54.5405 268.098 55.7085C268.098 56.5805 267.942 57.3965 267.63 58.1565C267.318 58.9165 266.886 59.5885 266.334 60.1725C265.79 60.7485 265.154 61.2005 264.426 61.5285C263.706 61.8565 262.93 62.0205 262.098 62.0205ZM262.098 59.5245C262.762 59.5245 263.358 59.3485 263.886 58.9965C264.414 58.6445 264.83 58.1805 265.134 57.6045C265.446 57.0205 265.602 56.3885 265.602 55.7085C265.602 55.0125 265.442 54.3725 265.122 53.7885C264.81 53.2045 264.39 52.7405 263.862 52.3965C263.334 52.0445 262.746 51.8685 262.098 51.8685C261.442 51.8685 260.846 52.0445 260.31 52.3965C259.782 52.7485 259.362 53.2165 259.05 53.8005C258.746 54.3845 258.594 55.0205 258.594 55.7085C258.594 56.4205 258.754 57.0645 259.074 57.6405C259.394 58.2165 259.818 58.6765 260.346 59.0205C260.882 59.3565 261.466 59.5245 262.098 59.5245ZM270.037 61.7085V49.7085H272.533V50.9805C272.949 50.4845 273.457 50.0925 274.057 49.8045C274.665 49.5165 275.321 49.3725 276.025 49.3725C276.881 49.3725 277.669 49.5805 278.389 49.9965C279.109 50.4045 279.681 50.9485 280.105 51.6285C280.529 50.9485 281.093 50.4045 281.797 49.9965C282.509 49.5805 283.293 49.3725 284.149 49.3725C285.037 49.3725 285.845 49.5885 286.573 50.0205C287.301 50.4525 287.881 51.0325 288.313 51.7605C288.745 52.4885 288.961 53.2965 288.961 54.1845V61.7085H286.465V54.8205C286.465 54.2925 286.337 53.8085 286.081 53.3685C285.825 52.9285 285.481 52.5725 285.049 52.3005C284.617 52.0285 284.137 51.8925 283.609 51.8925C283.081 51.8925 282.601 52.0205 282.169 52.2765C281.737 52.5325 281.393 52.8805 281.137 53.3205C280.881 53.7605 280.753 54.2605 280.753 54.8205V61.7085H278.257V54.8205C278.257 54.2605 278.129 53.7605 277.873 53.3205C277.617 52.8805 277.269 52.5325 276.829 52.2765C276.397 52.0205 275.917 51.8925 275.389 51.8925C274.869 51.8925 274.389 52.0285 273.949 52.3005C273.517 52.5725 273.173 52.9285 272.917 53.3685C272.661 53.8085 272.533 54.2925 272.533 54.8205V61.7085H270.037ZM300.466 49.7085H302.962V61.7085H300.454L300.358 59.9685C300.006 60.5845 299.53 61.0805 298.93 61.4565C298.33 61.8325 297.622 62.0205 296.806 62.0205C295.926 62.0205 295.098 61.8565 294.322 61.5285C293.546 61.1925 292.862 60.7285 292.27 60.1365C291.686 59.5445 291.23 58.8645 290.902 58.0965C290.574 57.3205 290.41 56.4885 290.41 55.6005C290.41 54.7445 290.57 53.9405 290.89 53.1885C291.21 52.4285 291.654 51.7645 292.222 51.1965C292.79 50.6285 293.446 50.1845 294.19 49.8645C294.942 49.5365 295.746 49.3725 296.602 49.3725C297.474 49.3725 298.242 49.5725 298.906 49.9725C299.578 50.3645 300.134 50.8685 300.574 51.4845L300.466 49.7085ZM296.746 59.6085C297.45 59.6085 298.066 59.4365 298.594 59.0925C299.122 58.7405 299.53 58.2685 299.818 57.6765C300.114 57.0845 300.262 56.4285 300.262 55.7085C300.262 54.9805 300.114 54.3205 299.818 53.7285C299.522 53.1365 299.11 52.6685 298.582 52.3245C298.062 51.9725 297.45 51.7965 296.746 51.7965C296.05 51.7965 295.414 51.9725 294.838 52.3245C294.262 52.6765 293.806 53.1485 293.47 53.7405C293.134 54.3325 292.966 54.9885 292.966 55.7085C292.966 56.4365 293.138 57.0965 293.482 57.6885C293.834 58.2725 294.294 58.7405 294.862 59.0925C295.438 59.4365 296.066 59.6085 296.746 59.6085ZM311.693 52.2045H309.173L309.161 61.7085H306.665L306.677 52.2045H304.769V49.7085H306.677L306.665 45.9405H309.161L309.173 49.7085H311.693V52.2045ZM313.677 49.7085H316.173V61.7085H313.677V49.7085ZM314.949 47.9685C314.565 47.9685 314.245 47.8445 313.989 47.5965C313.733 47.3485 313.605 47.0365 313.605 46.6605C313.605 46.2925 313.733 45.9845 313.989 45.7365C314.245 45.4805 314.561 45.3525 314.937 45.3525C315.305 45.3525 315.617 45.4805 315.873 45.7365C316.129 45.9845 316.257 46.2925 316.257 46.6605C316.257 47.0365 316.129 47.3485 315.873 47.5965C315.625 47.8445 315.317 47.9685 314.949 47.9685ZM324.114 62.0205C323.01 62.0205 322.002 61.7365 321.09 61.1685C320.186 60.6005 319.462 59.8405 318.918 58.8885C318.382 57.9285 318.114 56.8685 318.114 55.7085C318.114 54.8285 318.27 54.0085 318.582 53.2485C318.894 52.4805 319.322 51.8085 319.866 51.2325C320.418 50.6485 321.058 50.1925 321.786 49.8645C322.514 49.5365 323.29 49.3725 324.114 49.3725C325.218 49.3725 326.222 49.6565 327.126 50.2245C328.038 50.7925 328.762 51.5565 329.298 52.5165C329.842 53.4765 330.114 54.5405 330.114 55.7085C330.114 56.5805 329.958 57.3965 329.646 58.1565C329.334 58.9165 328.902 59.5885 328.35 60.1725C327.806 60.7485 327.17 61.2005 326.442 61.5285C325.722 61.8565 324.946 62.0205 324.114 62.0205ZM324.114 59.5245C324.778 59.5245 325.374 59.3485 325.902 58.9965C326.43 58.6445 326.846 58.1805 327.15 57.6045C327.462 57.0205 327.618 56.3885 327.618 55.7085C327.618 55.0125 327.458 54.3725 327.138 53.7885C326.826 53.2045 326.406 52.7405 325.878 52.3965C325.35 52.0445 324.762 51.8685 324.114 51.8685C323.458 51.8685 322.862 52.0445 322.326 52.3965C321.798 52.7485 321.378 53.2165 321.066 53.8005C320.762 54.3845 320.61 55.0205 320.61 55.7085C320.61 56.4205 320.77 57.0645 321.09 57.6405C321.41 58.2165 321.834 58.6765 322.362 59.0205C322.898 59.3565 323.482 59.5245 324.114 59.5245ZM342.852 54.1845V61.7085H340.356V54.7965C340.356 54.2605 340.224 53.7725 339.96 53.3325C339.704 52.8925 339.356 52.5445 338.916 52.2885C338.484 52.0245 337.996 51.8925 337.452 51.8925C336.924 51.8925 336.44 52.0245 336 52.2885C335.56 52.5445 335.208 52.8925 334.944 53.3325C334.68 53.7725 334.548 54.2605 334.548 54.7965V61.7085H332.052V49.7085H334.548V50.9805C334.964 50.4845 335.476 50.0925 336.084 49.8045C336.692 49.5165 337.348 49.3725 338.052 49.3725C338.94 49.3725 339.748 49.5885 340.476 50.0205C341.204 50.4525 341.78 51.0325 342.204 51.7605C342.636 52.4885 342.852 53.2965 342.852 54.1845Z" fill="#0C1021"/>
<rect x="65.3858" y="92.2085" width="175" height="45" rx="22.5" stroke="#0C1021" stroke-opacity="0.1"/>
<path d="M99.4308 118.449L100.556 119.061C100.148 119.631 99.6288 120.087 98.9988 120.429C98.3748 120.771 97.6968 120.942 96.9648 120.942C96.1368 120.942 95.3808 120.729 94.6968 120.303C94.0188 119.877 93.4758 119.307 93.0678 118.593C92.6658 117.873 92.4648 117.078 92.4648 116.208C92.4648 115.548 92.5818 114.933 92.8158 114.363C93.0498 113.787 93.3708 113.283 93.7788 112.851C94.1928 112.413 94.6728 112.071 95.2188 111.825C95.7648 111.579 96.3468 111.456 96.9648 111.456C97.6968 111.456 98.3748 111.627 98.9988 111.969C99.6288 112.311 100.148 112.77 100.556 113.346L99.4308 113.949C99.1188 113.553 98.7438 113.25 98.3058 113.04C97.8678 112.824 97.4208 112.716 96.9648 112.716C96.3588 112.716 95.8098 112.878 95.3178 113.202C94.8258 113.52 94.4358 113.943 94.1478 114.471C93.8658 114.999 93.7248 115.578 93.7248 116.208C93.7248 116.838 93.8688 117.417 94.1568 117.945C94.4508 118.473 94.8438 118.896 95.3358 119.214C95.8278 119.526 96.3708 119.682 96.9648 119.682C97.4568 119.682 97.9188 119.568 98.3508 119.34C98.7828 119.112 99.1428 118.815 99.4308 118.449ZM106.018 120.942C105.19 120.942 104.434 120.729 103.75 120.303C103.072 119.877 102.529 119.307 102.121 118.593C101.719 117.873 101.518 117.078 101.518 116.208C101.518 115.548 101.635 114.933 101.869 114.363C102.103 113.787 102.424 113.283 102.832 112.851C103.246 112.413 103.726 112.071 104.272 111.825C104.818 111.579 105.4 111.456 106.018 111.456C106.846 111.456 107.599 111.669 108.277 112.095C108.961 112.521 109.504 113.094 109.906 113.814C110.314 114.534 110.518 115.332 110.518 116.208C110.518 116.862 110.401 117.474 110.167 118.044C109.933 118.614 109.609 119.118 109.195 119.556C108.787 119.988 108.31 120.327 107.764 120.573C107.224 120.819 106.642 120.942 106.018 120.942ZM106.018 119.682C106.63 119.682 107.179 119.523 107.665 119.205C108.157 118.881 108.544 118.455 108.826 117.927C109.114 117.399 109.258 116.826 109.258 116.208C109.258 115.578 109.114 114.999 108.826 114.471C108.538 113.937 108.148 113.511 107.656 113.193C107.17 112.875 106.624 112.716 106.018 112.716C105.406 112.716 104.854 112.878 104.362 113.202C103.876 113.52 103.489 113.943 103.201 114.471C102.919 114.999 102.778 115.578 102.778 116.208C102.778 116.856 102.925 117.444 103.219 117.972C103.513 118.494 103.906 118.911 104.398 119.223C104.89 119.529 105.43 119.682 106.018 119.682ZM112.042 120.708V111.708H113.302V112.95C113.626 112.494 114.04 112.131 114.544 111.861C115.048 111.591 115.6 111.456 116.2 111.456C116.878 111.456 117.499 111.624 118.063 111.96C118.627 112.29 119.068 112.731 119.386 113.283C119.704 112.731 120.142 112.29 120.7 111.96C121.258 111.624 121.876 111.456 122.554 111.456C123.232 111.456 123.85 111.621 124.408 111.951C124.966 112.281 125.41 112.725 125.74 113.283C126.07 113.841 126.235 114.459 126.235 115.137V120.708H124.975V115.416C124.975 114.936 124.858 114.492 124.624 114.084C124.39 113.676 124.075 113.349 123.679 113.103C123.289 112.851 122.854 112.725 122.374 112.725C121.894 112.725 121.456 112.842 121.06 113.076C120.67 113.304 120.358 113.622 120.124 114.03C119.89 114.432 119.773 114.894 119.773 115.416V120.708H118.513V115.416C118.513 114.894 118.396 114.432 118.162 114.03C117.928 113.622 117.613 113.304 117.217 113.076C116.821 112.842 116.383 112.725 115.903 112.725C115.429 112.725 114.994 112.851 114.598 113.103C114.202 113.349 113.887 113.676 113.653 114.084C113.419 114.492 113.302 114.936 113.302 115.416V120.708H112.042ZM128.038 120.708V111.708H129.298V112.95C129.622 112.494 130.036 112.131 130.54 111.861C131.044 111.591 131.596 111.456 132.196 111.456C132.874 111.456 133.495 111.624 134.059 111.96C134.623 112.29 135.064 112.731 135.382 113.283C135.7 112.731 136.138 112.29 136.696 111.96C137.254 111.624 137.872 111.456 138.55 111.456C139.228 111.456 139.846 111.621 140.404 111.951C140.962 112.281 141.406 112.725 141.736 113.283C142.066 113.841 142.231 114.459 142.231 115.137V120.708H140.971V115.416C140.971 114.936 140.854 114.492 140.62 114.084C140.386 113.676 140.071 113.349 139.675 113.103C139.285 112.851 138.85 112.725 138.37 112.725C137.89 112.725 137.452 112.842 137.056 113.076C136.666 113.304 136.354 113.622 136.12 114.03C135.886 114.432 135.769 114.894 135.769 115.416V120.708H134.509V115.416C134.509 114.894 134.392 114.432 134.158 114.03C133.924 113.622 133.609 113.304 133.213 113.076C132.817 112.842 132.379 112.725 131.899 112.725C131.425 112.725 130.99 112.851 130.594 113.103C130.198 113.349 129.883 113.676 129.649 114.084C129.415 114.492 129.298 114.936 129.298 115.416V120.708H128.038ZM143.674 117.261V111.708H144.934V117.009C144.934 117.501 145.054 117.948 145.294 118.35C145.534 118.752 145.855 119.073 146.257 119.313C146.665 119.553 147.112 119.673 147.598 119.673C148.09 119.673 148.534 119.553 148.93 119.313C149.332 119.073 149.653 118.752 149.893 118.35C150.133 117.948 150.253 117.501 150.253 117.009V111.708H151.513L151.522 120.708H150.262L150.253 119.448C149.935 119.904 149.521 120.267 149.011 120.537C148.507 120.807 147.955 120.942 147.355 120.942C146.677 120.942 146.059 120.777 145.501 120.447C144.943 120.117 144.499 119.673 144.169 119.115C143.839 118.557 143.674 117.939 143.674 117.261ZM161.163 115.137V120.708H159.903V115.389C159.903 114.897 159.783 114.45 159.543 114.048C159.303 113.646 158.982 113.325 158.58 113.085C158.178 112.845 157.731 112.725 157.239 112.725C156.753 112.725 156.306 112.845 155.898 113.085C155.496 113.325 155.175 113.646 154.935 114.048C154.695 114.45 154.575 114.897 154.575 115.389V120.708H153.315V111.708H154.575V112.95C154.893 112.494 155.307 112.131 155.817 111.861C156.327 111.591 156.882 111.456 157.482 111.456C158.16 111.456 158.778 111.621 159.336 111.951C159.894 112.281 160.338 112.725 160.668 113.283C160.998 113.841 161.163 114.459 161.163 115.137ZM162.966 111.708H164.226V120.708H162.966V111.708ZM163.605 110.133C163.401 110.133 163.227 110.067 163.083 109.935C162.945 109.797 162.876 109.626 162.876 109.422C162.876 109.218 162.945 109.05 163.083 108.918C163.227 108.78 163.401 108.711 163.605 108.711C163.803 108.711 163.971 108.78 164.109 108.918C164.253 109.05 164.325 109.218 164.325 109.422C164.325 109.626 164.256 109.797 164.118 109.935C163.98 110.067 163.809 110.133 163.605 110.133ZM172.732 118.449L173.857 119.061C173.449 119.631 172.93 120.087 172.3 120.429C171.676 120.771 170.998 120.942 170.266 120.942C169.438 120.942 168.682 120.729 167.998 120.303C167.32 119.877 166.777 119.307 166.369 118.593C165.967 117.873 165.766 117.078 165.766 116.208C165.766 115.548 165.883 114.933 166.117 114.363C166.351 113.787 166.672 113.283 167.08 112.851C167.494 112.413 167.974 112.071 168.52 111.825C169.066 111.579 169.648 111.456 170.266 111.456C170.998 111.456 171.676 111.627 172.3 111.969C172.93 112.311 173.449 112.77 173.857 113.346L172.732 113.949C172.42 113.553 172.045 113.25 171.607 113.04C171.169 112.824 170.722 112.716 170.266 112.716C169.66 112.716 169.111 112.878 168.619 113.202C168.127 113.52 167.737 113.943 167.449 114.471C167.167 114.999 167.026 115.578 167.026 116.208C167.026 116.838 167.17 117.417 167.458 117.945C167.752 118.473 168.145 118.896 168.637 119.214C169.129 119.526 169.672 119.682 170.266 119.682C170.758 119.682 171.22 119.568 171.652 119.34C172.084 119.112 172.444 118.815 172.732 118.449ZM182.756 111.708H184.016V120.708H182.756L182.711 119.034C182.417 119.604 182.006 120.066 181.478 120.42C180.95 120.768 180.32 120.942 179.588 120.942C178.928 120.942 178.31 120.819 177.734 120.573C177.158 120.321 176.651 119.976 176.213 119.538C175.775 119.1 175.433 118.593 175.187 118.017C174.941 117.441 174.818 116.823 174.818 116.163C174.818 115.515 174.938 114.906 175.178 114.336C175.424 113.766 175.76 113.265 176.186 112.833C176.618 112.401 177.116 112.065 177.68 111.825C178.25 111.579 178.859 111.456 179.507 111.456C180.257 111.456 180.911 111.636 181.469 111.996C182.027 112.35 182.471 112.815 182.801 113.391L182.756 111.708ZM179.561 119.718C180.203 119.718 180.755 119.562 181.217 119.25C181.679 118.932 182.033 118.506 182.279 117.972C182.531 117.438 182.657 116.85 182.657 116.208C182.657 115.548 182.531 114.954 182.279 114.426C182.027 113.892 181.67 113.469 181.208 113.157C180.746 112.845 180.197 112.689 179.561 112.689C178.925 112.689 178.343 112.848 177.815 113.166C177.293 113.478 176.876 113.901 176.564 114.435C176.258 114.969 176.105 115.56 176.105 116.208C176.105 116.862 176.264 117.456 176.582 117.99C176.9 118.518 177.32 118.938 177.842 119.25C178.37 119.562 178.943 119.718 179.561 119.718ZM190.416 112.968H188.265L188.256 120.708H186.996L187.005 112.968H185.376V111.708H187.005L186.996 108.882H188.256L188.265 111.708H190.416V112.968ZM191.952 111.708H193.212V120.708H191.952V111.708ZM192.591 110.133C192.387 110.133 192.213 110.067 192.069 109.935C191.931 109.797 191.862 109.626 191.862 109.422C191.862 109.218 191.931 109.05 192.069 108.918C192.213 108.78 192.387 108.711 192.591 108.711C192.789 108.711 192.957 108.78 193.095 108.918C193.239 109.05 193.311 109.218 193.311 109.422C193.311 109.626 193.242 109.797 193.104 109.935C192.966 110.067 192.795 110.133 192.591 110.133ZM199.252 120.942C198.424 120.942 197.668 120.729 196.984 120.303C196.306 119.877 195.763 119.307 195.355 118.593C194.953 117.873 194.752 117.078 194.752 116.208C194.752 115.548 194.869 114.933 195.103 114.363C195.337 113.787 195.658 113.283 196.066 112.851C196.48 112.413 196.96 112.071 197.506 111.825C198.052 111.579 198.634 111.456 199.252 111.456C200.08 111.456 200.833 111.669 201.511 112.095C202.195 112.521 202.738 113.094 203.14 113.814C203.548 114.534 203.752 115.332 203.752 116.208C203.752 116.862 203.635 117.474 203.401 118.044C203.167 118.614 202.843 119.118 202.429 119.556C202.021 119.988 201.544 120.327 200.998 120.573C200.458 120.819 199.876 120.942 199.252 120.942ZM199.252 119.682C199.864 119.682 200.413 119.523 200.899 119.205C201.391 118.881 201.778 118.455 202.06 117.927C202.348 117.399 202.492 116.826 202.492 116.208C202.492 115.578 202.348 114.999 202.06 114.471C201.772 113.937 201.382 113.511 200.89 113.193C200.404 112.875 199.858 112.716 199.252 112.716C198.64 112.716 198.088 112.878 197.596 113.202C197.11 113.52 196.723 113.943 196.435 114.471C196.153 114.999 196.012 115.578 196.012 116.208C196.012 116.856 196.159 117.444 196.453 117.972C196.747 118.494 197.14 118.911 197.632 119.223C198.124 119.529 198.664 119.682 199.252 119.682ZM213.124 115.137V120.708H211.864V115.389C211.864 114.897 211.744 114.45 211.504 114.048C211.264 113.646 210.943 113.325 210.541 113.085C210.139 112.845 209.692 112.725 209.2 112.725C208.714 112.725 208.267 112.845 207.859 113.085C207.457 113.325 207.136 113.646 206.896 114.048C206.656 114.45 206.536 114.897 206.536 115.389V120.708H205.276V111.708H206.536V112.95C206.854 112.494 207.268 112.131 207.778 111.861C208.288 111.591 208.843 111.456 209.443 111.456C210.121 111.456 210.739 111.621 211.297 111.951C211.855 112.281 212.299 112.725 212.629 113.283C212.959 113.841 213.124 114.459 213.124 115.137Z" fill="#535662"/>
<rect x="253.386" y="92.2085" width="145" height="45" rx="22.5" stroke="#0C1021" stroke-opacity="0.1"/>
<path d="M278.037 120.708V111.708H279.297V112.95C279.615 112.494 280.029 112.131 280.539 111.861C281.049 111.591 281.604 111.456 282.204 111.456C282.552 111.456 282.888 111.501 283.212 111.591L282.699 112.842C282.447 112.764 282.201 112.725 281.961 112.725C281.475 112.725 281.028 112.845 280.62 113.085C280.218 113.325 279.897 113.646 279.657 114.048C279.417 114.45 279.297 114.897 279.297 115.389V120.708H278.037ZM287.833 120.942C287.005 120.942 286.249 120.729 285.565 120.303C284.887 119.877 284.344 119.307 283.936 118.593C283.534 117.873 283.333 117.078 283.333 116.208C283.333 115.548 283.45 114.933 283.684 114.363C283.918 113.787 284.239 113.283 284.647 112.851C285.061 112.413 285.541 112.071 286.087 111.825C286.633 111.579 287.215 111.456 287.833 111.456C288.499 111.456 289.111 111.588 289.669 111.852C290.233 112.116 290.716 112.485 291.118 112.959C291.526 113.433 291.832 113.988 292.036 114.624C292.246 115.26 292.333 115.947 292.297 116.685H284.665C284.737 117.255 284.917 117.765 285.205 118.215C285.499 118.665 285.871 119.022 286.321 119.286C286.777 119.544 287.281 119.676 287.833 119.682C288.433 119.682 288.973 119.526 289.453 119.214C289.939 118.902 290.329 118.473 290.623 117.927L291.901 118.224C291.541 119.022 290.998 119.676 290.272 120.186C289.546 120.69 288.733 120.942 287.833 120.942ZM284.629 115.668H291.028C290.986 115.11 290.815 114.6 290.515 114.138C290.221 113.67 289.84 113.298 289.372 113.022C288.904 112.74 288.391 112.599 287.833 112.599C287.275 112.599 286.765 112.737 286.303 113.013C285.841 113.283 285.463 113.652 285.169 114.12C284.875 114.582 284.695 115.098 284.629 115.668ZM301.15 111.708H302.41V120.708H301.15L301.105 119.034C300.811 119.604 300.4 120.066 299.872 120.42C299.344 120.768 298.714 120.942 297.982 120.942C297.322 120.942 296.704 120.819 296.128 120.573C295.552 120.321 295.045 119.976 294.607 119.538C294.169 119.1 293.827 118.593 293.581 118.017C293.335 117.441 293.212 116.823 293.212 116.163C293.212 115.515 293.332 114.906 293.572 114.336C293.818 113.766 294.154 113.265 294.58 112.833C295.012 112.401 295.51 112.065 296.074 111.825C296.644 111.579 297.253 111.456 297.901 111.456C298.651 111.456 299.305 111.636 299.863 111.996C300.421 112.35 300.865 112.815 301.195 113.391L301.15 111.708ZM297.955 119.718C298.597 119.718 299.149 119.562 299.611 119.25C300.073 118.932 300.427 118.506 300.673 117.972C300.925 117.438 301.051 116.85 301.051 116.208C301.051 115.548 300.925 114.954 300.673 114.426C300.421 113.892 300.064 113.469 299.602 113.157C299.14 112.845 298.591 112.689 297.955 112.689C297.319 112.689 296.737 112.848 296.209 113.166C295.687 113.478 295.27 113.901 294.958 114.435C294.652 114.969 294.499 115.56 294.499 116.208C294.499 116.862 294.658 117.456 294.976 117.99C295.294 118.518 295.714 118.938 296.236 119.25C296.764 119.562 297.337 119.718 297.955 119.718ZM310.461 118.449L311.586 119.061C311.178 119.631 310.659 120.087 310.029 120.429C309.405 120.771 308.727 120.942 307.995 120.942C307.167 120.942 306.411 120.729 305.727 120.303C305.049 119.877 304.506 119.307 304.098 118.593C303.696 117.873 303.495 117.078 303.495 116.208C303.495 115.548 303.612 114.933 303.846 114.363C304.08 113.787 304.401 113.283 304.809 112.851C305.223 112.413 305.703 112.071 306.249 111.825C306.795 111.579 307.377 111.456 307.995 111.456C308.727 111.456 309.405 111.627 310.029 111.969C310.659 112.311 311.178 112.77 311.586 113.346L310.461 113.949C310.149 113.553 309.774 113.25 309.336 113.04C308.898 112.824 308.451 112.716 307.995 112.716C307.389 112.716 306.84 112.878 306.348 113.202C305.856 113.52 305.466 113.943 305.178 114.471C304.896 114.999 304.755 115.578 304.755 116.208C304.755 116.838 304.899 117.417 305.187 117.945C305.481 118.473 305.874 118.896 306.366 119.214C306.858 119.526 307.401 119.682 307.995 119.682C308.487 119.682 308.949 119.568 309.381 119.34C309.813 119.112 310.173 118.815 310.461 118.449ZM320.936 115.137V120.708H319.676V115.389C319.676 114.897 319.556 114.45 319.316 114.048C319.076 113.646 318.755 113.325 318.353 113.085C317.951 112.845 317.504 112.725 317.012 112.725C316.526 112.725 316.079 112.845 315.671 113.085C315.269 113.325 314.948 113.646 314.708 114.048C314.468 114.45 314.348 114.897 314.348 115.389V120.708H313.088V107.208H314.348V112.95C314.666 112.494 315.08 112.131 315.59 111.861C316.1 111.591 316.655 111.456 317.255 111.456C317.933 111.456 318.551 111.621 319.109 111.951C319.667 112.281 320.111 112.725 320.441 113.283C320.771 113.841 320.936 114.459 320.936 115.137ZM322.738 111.708H323.998V120.708H322.738V111.708ZM323.377 110.133C323.173 110.133 322.999 110.067 322.855 109.935C322.717 109.797 322.648 109.626 322.648 109.422C322.648 109.218 322.717 109.05 322.855 108.918C322.999 108.78 323.173 108.711 323.377 108.711C323.575 108.711 323.743 108.78 323.881 108.918C324.025 109.05 324.097 109.218 324.097 109.422C324.097 109.626 324.028 109.797 323.89 109.935C323.752 110.067 323.581 110.133 323.377 110.133ZM333.979 115.137V120.708H332.719V115.389C332.719 114.897 332.599 114.45 332.359 114.048C332.119 113.646 331.798 113.325 331.396 113.085C330.994 112.845 330.547 112.725 330.055 112.725C329.569 112.725 329.122 112.845 328.714 113.085C328.312 113.325 327.991 113.646 327.751 114.048C327.511 114.45 327.391 114.897 327.391 115.389V120.708H326.131V111.708H327.391V112.95C327.709 112.494 328.123 112.131 328.633 111.861C329.143 111.591 329.698 111.456 330.298 111.456C330.976 111.456 331.594 111.621 332.152 111.951C332.71 112.281 333.154 112.725 333.484 113.283C333.814 113.841 333.979 114.459 333.979 115.137ZM342.76 111.708H344.02V121.041C344.02 121.617 343.894 122.157 343.642 122.661C343.396 123.165 343.06 123.606 342.634 123.984C342.214 124.368 341.734 124.668 341.194 124.884C340.654 125.1 340.093 125.208 339.511 125.208C338.887 125.208 338.284 125.064 337.702 124.776C337.12 124.494 336.613 124.116 336.181 123.642C335.755 123.168 335.452 122.643 335.272 122.067L336.433 121.536C336.547 121.986 336.76 122.391 337.072 122.751C337.39 123.117 337.762 123.405 338.188 123.615C338.62 123.831 339.061 123.939 339.511 123.939C339.925 123.939 340.324 123.861 340.708 123.705C341.098 123.555 341.446 123.348 341.752 123.084C342.064 122.82 342.31 122.511 342.49 122.157C342.67 121.809 342.76 121.437 342.76 121.041V119.052C342.448 119.616 342.025 120.072 341.491 120.42C340.963 120.768 340.348 120.942 339.646 120.942C339.016 120.942 338.422 120.819 337.864 120.573C337.312 120.327 336.826 119.988 336.406 119.556C335.986 119.118 335.656 118.614 335.416 118.044C335.182 117.474 335.065 116.862 335.065 116.208C335.065 115.554 335.182 114.942 335.416 114.372C335.656 113.796 335.986 113.292 336.406 112.86C336.826 112.422 337.312 112.08 337.864 111.834C338.422 111.588 339.016 111.465 339.646 111.465C340.348 111.465 340.963 111.639 341.491 111.987C342.025 112.329 342.448 112.785 342.76 113.355V111.708ZM339.655 119.718C340.279 119.718 340.816 119.556 341.266 119.232C341.722 118.908 342.073 118.479 342.319 117.945C342.565 117.411 342.688 116.832 342.688 116.208C342.688 115.566 342.562 114.981 342.31 114.453C342.064 113.919 341.713 113.493 341.257 113.175C340.801 112.851 340.267 112.689 339.655 112.689C339.043 112.689 338.485 112.848 337.981 113.166C337.483 113.478 337.087 113.901 336.793 114.435C336.499 114.969 336.352 115.56 336.352 116.208C336.352 116.856 336.502 117.447 336.802 117.981C337.102 118.509 337.501 118.932 337.999 119.25C338.503 119.562 339.055 119.718 339.655 119.718ZM354.472 120.942C353.644 120.942 352.888 120.729 352.204 120.303C351.526 119.877 350.983 119.307 350.575 118.593C350.173 117.873 349.972 117.078 349.972 116.208C349.972 115.548 350.089 114.933 350.323 114.363C350.557 113.787 350.878 113.283 351.286 112.851C351.7 112.413 352.18 112.071 352.726 111.825C353.272 111.579 353.854 111.456 354.472 111.456C355.3 111.456 356.053 111.669 356.731 112.095C357.415 112.521 357.958 113.094 358.36 113.814C358.768 114.534 358.972 115.332 358.972 116.208C358.972 116.862 358.855 117.474 358.621 118.044C358.387 118.614 358.063 119.118 357.649 119.556C357.241 119.988 356.764 120.327 356.218 120.573C355.678 120.819 355.096 120.942 354.472 120.942ZM354.472 119.682C355.084 119.682 355.633 119.523 356.119 119.205C356.611 118.881 356.998 118.455 357.28 117.927C357.568 117.399 357.712 116.826 357.712 116.208C357.712 115.578 357.568 114.999 357.28 114.471C356.992 113.937 356.602 113.511 356.11 113.193C355.624 112.875 355.078 112.716 354.472 112.716C353.86 112.716 353.308 112.878 352.816 113.202C352.33 113.52 351.943 113.943 351.655 114.471C351.373 114.999 351.232 115.578 351.232 116.208C351.232 116.856 351.379 117.444 351.673 117.972C351.967 118.494 352.36 118.911 352.852 119.223C353.344 119.529 353.884 119.682 354.472 119.682ZM360.048 117.261V111.708H361.308V117.009C361.308 117.501 361.428 117.948 361.668 118.35C361.908 118.752 362.229 119.073 362.631 119.313C363.039 119.553 363.486 119.673 363.972 119.673C364.464 119.673 364.908 119.553 365.304 119.313C365.706 119.073 366.027 118.752 366.267 118.35C366.507 117.948 366.627 117.501 366.627 117.009V111.708H367.887L367.896 120.708H366.636L366.627 119.448C366.309 119.904 365.895 120.267 365.385 120.537C364.881 120.807 364.329 120.942 363.729 120.942C363.051 120.942 362.433 120.777 361.875 120.447C361.317 120.117 360.873 119.673 360.543 119.115C360.213 118.557 360.048 117.939 360.048 117.261ZM374.288 112.968H372.137L372.128 120.708H370.868L370.877 112.968H369.248V111.708H370.877L370.868 108.882H372.128L372.137 111.708H374.288V112.968Z" fill="#535662"/>
<rect x="31.8858" y="150.208" width="126" height="45" rx="22.5" stroke="#0C1021" stroke-opacity="0.1"/>
<path d="M56.4941 178.708V169.708H57.7541V170.95C58.0721 170.494 58.4861 170.131 58.9961 169.861C59.5061 169.591 60.0611 169.456 60.6611 169.456C61.0091 169.456 61.3451 169.501 61.6691 169.591L61.1561 170.842C60.9041 170.764 60.6581 170.725 60.4181 170.725C59.9321 170.725 59.4851 170.845 59.0771 171.085C58.6751 171.325 58.3541 171.646 58.1141 172.048C57.8741 172.45 57.7541 172.897 57.7541 173.389V178.708H56.4941ZM66.29 178.942C65.462 178.942 64.706 178.729 64.022 178.303C63.344 177.877 62.801 177.307 62.393 176.593C61.991 175.873 61.79 175.078 61.79 174.208C61.79 173.548 61.907 172.933 62.141 172.363C62.375 171.787 62.696 171.283 63.104 170.851C63.518 170.413 63.998 170.071 64.544 169.825C65.09 169.579 65.672 169.456 66.29 169.456C66.956 169.456 67.568 169.588 68.126 169.852C68.69 170.116 69.173 170.485 69.575 170.959C69.983 171.433 70.289 171.988 70.493 172.624C70.703 173.26 70.79 173.947 70.754 174.685H63.122C63.194 175.255 63.374 175.765 63.662 176.215C63.956 176.665 64.328 177.022 64.778 177.286C65.234 177.544 65.738 177.676 66.29 177.682C66.89 177.682 67.43 177.526 67.91 177.214C68.396 176.902 68.786 176.473 69.08 175.927L70.358 176.224C69.998 177.022 69.455 177.676 68.729 178.186C68.003 178.69 67.19 178.942 66.29 178.942ZM63.086 173.668H69.485C69.443 173.11 69.272 172.6 68.972 172.138C68.678 171.67 68.297 171.298 67.829 171.022C67.361 170.74 66.848 170.599 66.29 170.599C65.732 170.599 65.222 170.737 64.76 171.013C64.298 171.283 63.92 171.652 63.626 172.12C63.332 172.582 63.152 173.098 63.086 173.668ZM72.2968 178.708V169.708H73.5568V170.95C73.8808 170.494 74.2948 170.131 74.7988 169.861C75.3028 169.591 75.8548 169.456 76.4548 169.456C77.1328 169.456 77.7538 169.624 78.3178 169.96C78.8818 170.29 79.3228 170.731 79.6408 171.283C79.9588 170.731 80.3968 170.29 80.9548 169.96C81.5128 169.624 82.1308 169.456 82.8088 169.456C83.4868 169.456 84.1048 169.621 84.6628 169.951C85.2208 170.281 85.6648 170.725 85.9948 171.283C86.3248 171.841 86.4898 172.459 86.4898 173.137V178.708H85.2298V173.416C85.2298 172.936 85.1128 172.492 84.8788 172.084C84.6448 171.676 84.3298 171.349 83.9338 171.103C83.5438 170.851 83.1088 170.725 82.6288 170.725C82.1488 170.725 81.7108 170.842 81.3148 171.076C80.9248 171.304 80.6128 171.622 80.3788 172.03C80.1448 172.432 80.0278 172.894 80.0278 173.416V178.708H78.7678V173.416C78.7678 172.894 78.6508 172.432 78.4168 172.03C78.1828 171.622 77.8678 171.304 77.4718 171.076C77.0758 170.842 76.6378 170.725 76.1578 170.725C75.6838 170.725 75.2488 170.851 74.8528 171.103C74.4568 171.349 74.1418 171.676 73.9078 172.084C73.6738 172.492 73.5568 172.936 73.5568 173.416V178.708H72.2968ZM88.2929 169.708H89.5529V178.708H88.2929V169.708ZM88.9319 168.133C88.7279 168.133 88.5539 168.067 88.4099 167.935C88.2719 167.797 88.2029 167.626 88.2029 167.422C88.2029 167.218 88.2719 167.05 88.4099 166.918C88.5539 166.78 88.7279 166.711 88.9319 166.711C89.1299 166.711 89.2979 166.78 89.4359 166.918C89.5799 167.05 89.6519 167.218 89.6519 167.422C89.6519 167.626 89.5829 167.797 89.4449 167.935C89.3069 168.067 89.1359 168.133 88.9319 168.133ZM99.5335 173.137V178.708H98.2735V173.389C98.2735 172.897 98.1535 172.45 97.9135 172.048C97.6735 171.646 97.3525 171.325 96.9505 171.085C96.5485 170.845 96.1015 170.725 95.6095 170.725C95.1235 170.725 94.6765 170.845 94.2685 171.085C93.8665 171.325 93.5455 171.646 93.3055 172.048C93.0655 172.45 92.9455 172.897 92.9455 173.389V178.708H91.6855V169.708H92.9455V170.95C93.2635 170.494 93.6775 170.131 94.1875 169.861C94.6975 169.591 95.2525 169.456 95.8525 169.456C96.5305 169.456 97.1485 169.621 97.7065 169.951C98.2645 170.281 98.7085 170.725 99.0385 171.283C99.3685 171.841 99.5335 172.459 99.5335 173.137ZM108.567 165.208H109.827V178.708H108.567V177.025C108.255 177.601 107.826 178.066 107.28 178.42C106.74 178.768 106.098 178.942 105.354 178.942C104.7 178.942 104.088 178.819 103.518 178.573C102.948 178.327 102.444 177.988 102.006 177.556C101.574 177.118 101.235 176.614 100.989 176.044C100.743 175.474 100.62 174.862 100.62 174.208C100.62 173.554 100.743 172.942 100.989 172.372C101.235 171.796 101.574 171.292 102.006 170.86C102.444 170.422 102.948 170.08 103.518 169.834C104.088 169.588 104.7 169.465 105.354 169.465C106.098 169.465 106.74 169.642 107.28 169.996C107.826 170.344 108.255 170.803 108.567 171.373V165.208ZM105.363 177.718C106.005 177.718 106.557 177.562 107.019 177.25C107.481 176.932 107.835 176.506 108.081 175.972C108.333 175.438 108.459 174.85 108.459 174.208C108.459 173.548 108.333 172.954 108.081 172.426C107.829 171.892 107.472 171.469 107.01 171.157C106.548 170.845 105.999 170.689 105.363 170.689C104.727 170.689 104.148 170.848 103.626 171.166C103.104 171.478 102.687 171.901 102.375 172.435C102.063 172.969 101.907 173.56 101.907 174.208C101.907 174.862 102.066 175.456 102.384 175.99C102.702 176.518 103.122 176.938 103.644 177.25C104.172 177.562 104.745 177.718 105.363 177.718ZM111.988 169.708H113.248V178.708H111.988V169.708ZM112.627 168.133C112.423 168.133 112.249 168.067 112.105 167.935C111.967 167.797 111.898 167.626 111.898 167.422C111.898 167.218 111.967 167.05 112.105 166.918C112.249 166.78 112.423 166.711 112.627 166.711C112.825 166.711 112.993 166.78 113.131 166.918C113.275 167.05 113.347 167.218 113.347 167.422C113.347 167.626 113.278 167.797 113.14 167.935C113.002 168.067 112.831 168.133 112.627 168.133ZM123.229 173.137V178.708H121.969V173.389C121.969 172.897 121.849 172.45 121.609 172.048C121.369 171.646 121.048 171.325 120.646 171.085C120.244 170.845 119.797 170.725 119.305 170.725C118.819 170.725 118.372 170.845 117.964 171.085C117.562 171.325 117.241 171.646 117.001 172.048C116.761 172.45 116.641 172.897 116.641 173.389V178.708H115.381V169.708H116.641V170.95C116.959 170.494 117.373 170.131 117.883 169.861C118.393 169.591 118.948 169.456 119.548 169.456C120.226 169.456 120.844 169.621 121.402 169.951C121.96 170.281 122.404 170.725 122.734 171.283C123.064 171.841 123.229 172.459 123.229 173.137ZM132.01 169.708H133.27V179.041C133.27 179.617 133.144 180.157 132.892 180.661C132.646 181.165 132.31 181.606 131.884 181.984C131.464 182.368 130.984 182.668 130.444 182.884C129.904 183.1 129.343 183.208 128.761 183.208C128.137 183.208 127.534 183.064 126.952 182.776C126.37 182.494 125.863 182.116 125.431 181.642C125.005 181.168 124.702 180.643 124.522 180.067L125.683 179.536C125.797 179.986 126.01 180.391 126.322 180.751C126.64 181.117 127.012 181.405 127.438 181.615C127.87 181.831 128.311 181.939 128.761 181.939C129.175 181.939 129.574 181.861 129.958 181.705C130.348 181.555 130.696 181.348 131.002 181.084C131.314 180.82 131.56 180.511 131.74 180.157C131.92 179.809 132.01 179.437 132.01 179.041V177.052C131.698 177.616 131.275 178.072 130.741 178.42C130.213 178.768 129.598 178.942 128.896 178.942C128.266 178.942 127.672 178.819 127.114 178.573C126.562 178.327 126.076 177.988 125.656 177.556C125.236 177.118 124.906 176.614 124.666 176.044C124.432 175.474 124.315 174.862 124.315 174.208C124.315 173.554 124.432 172.942 124.666 172.372C124.906 171.796 125.236 171.292 125.656 170.86C126.076 170.422 126.562 170.08 127.114 169.834C127.672 169.588 128.266 169.465 128.896 169.465C129.598 169.465 130.213 169.639 130.741 169.987C131.275 170.329 131.698 170.785 132.01 171.355V169.708ZM128.905 177.718C129.529 177.718 130.066 177.556 130.516 177.232C130.972 176.908 131.323 176.479 131.569 175.945C131.815 175.411 131.938 174.832 131.938 174.208C131.938 173.566 131.812 172.981 131.56 172.453C131.314 171.919 130.963 171.493 130.507 171.175C130.051 170.851 129.517 170.689 128.905 170.689C128.293 170.689 127.735 170.848 127.231 171.166C126.733 171.478 126.337 171.901 126.043 172.435C125.749 172.969 125.602 173.56 125.602 174.208C125.602 174.856 125.752 175.447 126.052 175.981C126.352 176.509 126.751 176.932 127.249 177.25C127.753 177.562 128.305 177.718 128.905 177.718Z" fill="#535662"/>
<rect x="170.886" y="150.208" width="128" height="45" rx="22.5" stroke="#0C1021" stroke-opacity="0.1"/>
<path d="M199.584 178.942C198.756 178.942 198 178.729 197.316 178.303C196.638 177.877 196.095 177.307 195.687 176.593C195.285 175.873 195.084 175.078 195.084 174.208C195.084 173.548 195.201 172.933 195.435 172.363C195.669 171.787 195.99 171.283 196.398 170.851C196.812 170.413 197.292 170.071 197.838 169.825C198.384 169.579 198.966 169.456 199.584 169.456C200.25 169.456 200.862 169.588 201.42 169.852C201.984 170.116 202.467 170.485 202.869 170.959C203.277 171.433 203.583 171.988 203.787 172.624C203.997 173.26 204.084 173.947 204.048 174.685H196.416C196.488 175.255 196.668 175.765 196.956 176.215C197.25 176.665 197.622 177.022 198.072 177.286C198.528 177.544 199.032 177.676 199.584 177.682C200.184 177.682 200.724 177.526 201.204 177.214C201.69 176.902 202.08 176.473 202.374 175.927L203.652 176.224C203.292 177.022 202.749 177.676 202.023 178.186C201.297 178.69 200.484 178.942 199.584 178.942ZM196.38 173.668H202.779C202.737 173.11 202.566 172.6 202.266 172.138C201.972 171.67 201.591 171.298 201.123 171.022C200.655 170.74 200.142 170.599 199.584 170.599C199.026 170.599 198.516 170.737 198.054 171.013C197.592 171.283 197.214 171.652 196.92 172.12C196.626 172.582 196.446 173.098 196.38 173.668ZM208.389 178.879C207.897 178.867 207.417 178.777 206.949 178.609C206.481 178.441 206.073 178.213 205.725 177.925C205.377 177.637 205.128 177.31 204.978 176.944L206.067 176.476C206.163 176.71 206.34 176.926 206.598 177.124C206.862 177.316 207.162 177.472 207.498 177.592C207.834 177.706 208.167 177.763 208.497 177.763C208.863 177.763 209.205 177.703 209.523 177.583C209.841 177.463 210.099 177.292 210.297 177.07C210.501 176.842 210.603 176.575 210.603 176.269C210.603 175.939 210.495 175.681 210.279 175.495C210.063 175.303 209.79 175.153 209.46 175.045C209.13 174.931 208.791 174.823 208.443 174.721C207.807 174.547 207.246 174.355 206.76 174.145C206.274 173.935 205.893 173.668 205.617 173.344C205.347 173.014 205.212 172.591 205.212 172.075C205.212 171.529 205.365 171.058 205.671 170.662C205.983 170.26 206.388 169.951 206.886 169.735C207.39 169.513 207.927 169.402 208.497 169.402C209.229 169.402 209.895 169.561 210.495 169.879C211.101 170.197 211.539 170.62 211.809 171.148L210.792 171.751C210.684 171.505 210.513 171.292 210.279 171.112C210.045 170.932 209.778 170.791 209.478 170.689C209.184 170.587 208.884 170.533 208.578 170.527C208.194 170.521 207.837 170.578 207.507 170.698C207.177 170.812 206.91 170.983 206.706 171.211C206.508 171.439 206.409 171.718 206.409 172.048C206.409 172.378 206.508 172.63 206.706 172.804C206.904 172.972 207.171 173.11 207.507 173.218C207.849 173.32 208.233 173.44 208.659 173.578C209.205 173.752 209.718 173.95 210.198 174.172C210.678 174.394 211.065 174.67 211.359 175C211.653 175.33 211.797 175.747 211.791 176.251C211.791 176.791 211.629 177.262 211.305 177.664C210.981 178.066 210.561 178.375 210.045 178.591C209.529 178.801 208.977 178.897 208.389 178.879ZM219.698 176.449L220.823 177.061C220.415 177.631 219.896 178.087 219.266 178.429C218.642 178.771 217.964 178.942 217.232 178.942C216.404 178.942 215.648 178.729 214.964 178.303C214.286 177.877 213.743 177.307 213.335 176.593C212.933 175.873 212.732 175.078 212.732 174.208C212.732 173.548 212.849 172.933 213.083 172.363C213.317 171.787 213.638 171.283 214.046 170.851C214.46 170.413 214.94 170.071 215.486 169.825C216.032 169.579 216.614 169.456 217.232 169.456C217.964 169.456 218.642 169.627 219.266 169.969C219.896 170.311 220.415 170.77 220.823 171.346L219.698 171.949C219.386 171.553 219.011 171.25 218.573 171.04C218.135 170.824 217.688 170.716 217.232 170.716C216.626 170.716 216.077 170.878 215.585 171.202C215.093 171.52 214.703 171.943 214.415 172.471C214.133 172.999 213.992 173.578 213.992 174.208C213.992 174.838 214.136 175.417 214.424 175.945C214.718 176.473 215.111 176.896 215.603 177.214C216.095 177.526 216.638 177.682 217.232 177.682C217.724 177.682 218.186 177.568 218.618 177.34C219.05 177.112 219.41 176.815 219.698 176.449ZM229.723 169.708H230.983V178.708H229.723L229.678 177.034C229.384 177.604 228.973 178.066 228.445 178.42C227.917 178.768 227.287 178.942 226.555 178.942C225.895 178.942 225.277 178.819 224.701 178.573C224.125 178.321 223.618 177.976 223.18 177.538C222.742 177.1 222.4 176.593 222.154 176.017C221.908 175.441 221.785 174.823 221.785 174.163C221.785 173.515 221.905 172.906 222.145 172.336C222.391 171.766 222.727 171.265 223.153 170.833C223.585 170.401 224.083 170.065 224.647 169.825C225.217 169.579 225.826 169.456 226.474 169.456C227.224 169.456 227.878 169.636 228.436 169.996C228.994 170.35 229.438 170.815 229.768 171.391L229.723 169.708ZM226.528 177.718C227.17 177.718 227.722 177.562 228.184 177.25C228.646 176.932 229 176.506 229.246 175.972C229.498 175.438 229.624 174.85 229.624 174.208C229.624 173.548 229.498 172.954 229.246 172.426C228.994 171.892 228.637 171.469 228.175 171.157C227.713 170.845 227.164 170.689 226.528 170.689C225.892 170.689 225.31 170.848 224.782 171.166C224.26 171.478 223.843 171.901 223.531 172.435C223.225 172.969 223.072 173.56 223.072 174.208C223.072 174.862 223.231 175.456 223.549 175.99C223.867 176.518 224.287 176.938 224.809 177.25C225.337 177.562 225.91 177.718 226.528 177.718ZM232.907 178.708V165.208H234.167V178.708H232.907ZM243.663 169.708H244.923V178.708H243.663L243.618 177.034C243.324 177.604 242.913 178.066 242.385 178.42C241.857 178.768 241.227 178.942 240.495 178.942C239.835 178.942 239.217 178.819 238.641 178.573C238.065 178.321 237.558 177.976 237.12 177.538C236.682 177.1 236.34 176.593 236.094 176.017C235.848 175.441 235.725 174.823 235.725 174.163C235.725 173.515 235.845 172.906 236.085 172.336C236.331 171.766 236.667 171.265 237.093 170.833C237.525 170.401 238.023 170.065 238.587 169.825C239.157 169.579 239.766 169.456 240.414 169.456C241.164 169.456 241.818 169.636 242.376 169.996C242.934 170.35 243.378 170.815 243.708 171.391L243.663 169.708ZM240.468 177.718C241.11 177.718 241.662 177.562 242.124 177.25C242.586 176.932 242.94 176.506 243.186 175.972C243.438 175.438 243.564 174.85 243.564 174.208C243.564 173.548 243.438 172.954 243.186 172.426C242.934 171.892 242.577 171.469 242.115 171.157C241.653 170.845 241.104 170.689 240.468 170.689C239.832 170.689 239.25 170.848 238.722 171.166C238.2 171.478 237.783 171.901 237.471 172.435C237.165 172.969 237.012 173.56 237.012 174.208C237.012 174.862 237.171 175.456 237.489 175.99C237.807 176.518 238.227 176.938 238.749 177.25C239.277 177.562 239.85 177.718 240.468 177.718ZM251.323 170.968H249.172L249.163 178.708H247.903L247.912 170.968H246.283V169.708H247.912L247.903 166.882H249.163L249.172 169.708H251.323V170.968ZM252.858 169.708H254.118V178.708H252.858V169.708ZM253.497 168.133C253.293 168.133 253.119 168.067 252.975 167.935C252.837 167.797 252.768 167.626 252.768 167.422C252.768 167.218 252.837 167.05 252.975 166.918C253.119 166.78 253.293 166.711 253.497 166.711C253.695 166.711 253.863 166.78 254.001 166.918C254.145 167.05 254.217 167.218 254.217 167.422C254.217 167.626 254.148 167.797 254.01 167.935C253.872 168.067 253.701 168.133 253.497 168.133ZM264.099 173.137V178.708H262.839V173.389C262.839 172.897 262.719 172.45 262.479 172.048C262.239 171.646 261.918 171.325 261.516 171.085C261.114 170.845 260.667 170.725 260.175 170.725C259.689 170.725 259.242 170.845 258.834 171.085C258.432 171.325 258.111 171.646 257.871 172.048C257.631 172.45 257.511 172.897 257.511 173.389V178.708H256.251V169.708H257.511V170.95C257.829 170.494 258.243 170.131 258.753 169.861C259.263 169.591 259.818 169.456 260.418 169.456C261.096 169.456 261.714 169.621 262.272 169.951C262.83 170.281 263.274 170.725 263.604 171.283C263.934 171.841 264.099 172.459 264.099 173.137ZM272.881 169.708H274.141V179.041C274.141 179.617 274.015 180.157 273.763 180.661C273.517 181.165 273.181 181.606 272.755 181.984C272.335 182.368 271.855 182.668 271.315 182.884C270.775 183.1 270.214 183.208 269.632 183.208C269.008 183.208 268.405 183.064 267.823 182.776C267.241 182.494 266.734 182.116 266.302 181.642C265.876 181.168 265.573 180.643 265.393 180.067L266.554 179.536C266.668 179.986 266.881 180.391 267.193 180.751C267.511 181.117 267.883 181.405 268.309 181.615C268.741 181.831 269.182 181.939 269.632 181.939C270.046 181.939 270.445 181.861 270.829 181.705C271.219 181.555 271.567 181.348 271.873 181.084C272.185 180.82 272.431 180.511 272.611 180.157C272.791 179.809 272.881 179.437 272.881 179.041V177.052C272.569 177.616 272.146 178.072 271.612 178.42C271.084 178.768 270.469 178.942 269.767 178.942C269.137 178.942 268.543 178.819 267.985 178.573C267.433 178.327 266.947 177.988 266.527 177.556C266.107 177.118 265.777 176.614 265.537 176.044C265.303 175.474 265.186 174.862 265.186 174.208C265.186 173.554 265.303 172.942 265.537 172.372C265.777 171.796 266.107 171.292 266.527 170.86C266.947 170.422 267.433 170.08 267.985 169.834C268.543 169.588 269.137 169.465 269.767 169.465C270.469 169.465 271.084 169.639 271.612 169.987C272.146 170.329 272.569 170.785 272.881 171.355V169.708ZM269.776 177.718C270.4 177.718 270.937 177.556 271.387 177.232C271.843 176.908 272.194 176.479 272.44 175.945C272.686 175.411 272.809 174.832 272.809 174.208C272.809 173.566 272.683 172.981 272.431 172.453C272.185 171.919 271.834 171.493 271.378 171.175C270.922 170.851 270.388 170.689 269.776 170.689C269.164 170.689 268.606 170.848 268.102 171.166C267.604 171.478 267.208 171.901 266.914 172.435C266.62 172.969 266.473 173.56 266.473 174.208C266.473 174.856 266.623 175.447 266.923 175.981C267.223 176.509 267.622 176.932 268.12 177.25C268.624 177.562 269.176 177.718 269.776 177.718Z" fill="#535662"/>
<rect x="311.886" y="150.208" width="120" height="45" rx="22.5" stroke="#0C1021" stroke-opacity="0.1"/>
<path d="M336.746 178.708V169.708H338.006V170.95C338.324 170.494 338.738 170.131 339.248 169.861C339.758 169.591 340.313 169.456 340.913 169.456C341.261 169.456 341.597 169.501 341.921 169.591L341.408 170.842C341.156 170.764 340.91 170.725 340.67 170.725C340.184 170.725 339.737 170.845 339.329 171.085C338.927 171.325 338.606 171.646 338.366 172.048C338.126 172.45 338.006 172.897 338.006 173.389V178.708H336.746ZM346.542 178.942C345.714 178.942 344.958 178.729 344.274 178.303C343.596 177.877 343.053 177.307 342.645 176.593C342.243 175.873 342.042 175.078 342.042 174.208C342.042 173.548 342.159 172.933 342.393 172.363C342.627 171.787 342.948 171.283 343.356 170.851C343.77 170.413 344.25 170.071 344.796 169.825C345.342 169.579 345.924 169.456 346.542 169.456C347.208 169.456 347.82 169.588 348.378 169.852C348.942 170.116 349.425 170.485 349.827 170.959C350.235 171.433 350.541 171.988 350.745 172.624C350.955 173.26 351.042 173.947 351.006 174.685H343.374C343.446 175.255 343.626 175.765 343.914 176.215C344.208 176.665 344.58 177.022 345.03 177.286C345.486 177.544 345.99 177.676 346.542 177.682C347.142 177.682 347.682 177.526 348.162 177.214C348.648 176.902 349.038 176.473 349.332 175.927L350.61 176.224C350.25 177.022 349.707 177.676 348.981 178.186C348.255 178.69 347.442 178.942 346.542 178.942ZM343.338 173.668H349.737C349.695 173.11 349.524 172.6 349.224 172.138C348.93 171.67 348.549 171.298 348.081 171.022C347.613 170.74 347.1 170.599 346.542 170.599C345.984 170.599 345.474 170.737 345.012 171.013C344.55 171.283 344.172 171.652 343.878 172.12C343.584 172.582 343.404 173.098 343.338 173.668ZM353.809 183.208H352.549V169.708H353.809V171.391C354.121 170.821 354.547 170.359 355.087 170.005C355.627 169.651 356.269 169.474 357.013 169.474C357.667 169.474 358.279 169.597 358.849 169.843C359.425 170.089 359.929 170.431 360.361 170.869C360.793 171.301 361.132 171.802 361.378 172.372C361.624 172.942 361.747 173.554 361.747 174.208C361.747 174.862 361.624 175.477 361.378 176.053C361.132 176.629 360.793 177.136 360.361 177.574C359.929 178.006 359.425 178.345 358.849 178.591C358.279 178.837 357.667 178.96 357.013 178.96C356.269 178.96 355.627 178.783 355.087 178.429C354.547 178.075 354.121 177.613 353.809 177.043V183.208ZM357.004 170.698C356.374 170.698 355.825 170.857 355.357 171.175C354.895 171.487 354.538 171.907 354.286 172.435C354.034 172.963 353.908 173.554 353.908 174.208C353.908 174.85 354.031 175.438 354.277 175.972C354.529 176.506 354.886 176.932 355.348 177.25C355.816 177.568 356.368 177.727 357.004 177.727C357.628 177.727 358.201 177.571 358.723 177.259C359.251 176.947 359.674 176.527 359.992 175.999C360.31 175.465 360.469 174.868 360.469 174.208C360.469 173.566 360.313 172.981 360.001 172.453C359.689 171.919 359.272 171.493 358.75 171.175C358.228 170.857 357.646 170.698 357.004 170.698ZM367.144 178.942C366.316 178.942 365.56 178.729 364.876 178.303C364.198 177.877 363.655 177.307 363.247 176.593C362.845 175.873 362.644 175.078 362.644 174.208C362.644 173.548 362.761 172.933 362.995 172.363C363.229 171.787 363.55 171.283 363.958 170.851C364.372 170.413 364.852 170.071 365.398 169.825C365.944 169.579 366.526 169.456 367.144 169.456C367.972 169.456 368.725 169.669 369.403 170.095C370.087 170.521 370.63 171.094 371.032 171.814C371.44 172.534 371.644 173.332 371.644 174.208C371.644 174.862 371.527 175.474 371.293 176.044C371.059 176.614 370.735 177.118 370.321 177.556C369.913 177.988 369.436 178.327 368.89 178.573C368.35 178.819 367.768 178.942 367.144 178.942ZM367.144 177.682C367.756 177.682 368.305 177.523 368.791 177.205C369.283 176.881 369.67 176.455 369.952 175.927C370.24 175.399 370.384 174.826 370.384 174.208C370.384 173.578 370.24 172.999 369.952 172.471C369.664 171.937 369.274 171.511 368.782 171.193C368.296 170.875 367.75 170.716 367.144 170.716C366.532 170.716 365.98 170.878 365.488 171.202C365.002 171.52 364.615 171.943 364.327 172.471C364.045 172.999 363.904 173.578 363.904 174.208C363.904 174.856 364.051 175.444 364.345 175.972C364.639 176.494 365.032 176.911 365.524 177.223C366.016 177.529 366.556 177.682 367.144 177.682ZM373.168 178.708V169.708H374.428V170.95C374.746 170.494 375.16 170.131 375.67 169.861C376.18 169.591 376.735 169.456 377.335 169.456C377.683 169.456 378.019 169.501 378.343 169.591L377.83 170.842C377.578 170.764 377.332 170.725 377.092 170.725C376.606 170.725 376.159 170.845 375.751 171.085C375.349 171.325 375.028 171.646 374.788 172.048C374.548 172.45 374.428 172.897 374.428 173.389V178.708H373.168ZM384.201 170.968H382.05L382.041 178.708H380.781L380.79 170.968H379.161V169.708H380.79L380.781 166.882H382.041L382.05 169.708H384.201V170.968ZM385.736 169.708H386.996V178.708H385.736V169.708ZM386.375 168.133C386.171 168.133 385.997 168.067 385.853 167.935C385.715 167.797 385.646 167.626 385.646 167.422C385.646 167.218 385.715 167.05 385.853 166.918C385.997 166.78 386.171 166.711 386.375 166.711C386.573 166.711 386.741 166.78 386.879 166.918C387.023 167.05 387.095 167.218 387.095 167.422C387.095 167.626 387.026 167.797 386.888 167.935C386.75 168.067 386.579 168.133 386.375 168.133ZM396.977 173.137V178.708H395.717V173.389C395.717 172.897 395.597 172.45 395.357 172.048C395.117 171.646 394.796 171.325 394.394 171.085C393.992 170.845 393.545 170.725 393.053 170.725C392.567 170.725 392.12 170.845 391.712 171.085C391.31 171.325 390.989 171.646 390.749 172.048C390.509 172.45 390.389 172.897 390.389 173.389V178.708H389.129V169.708H390.389V170.95C390.707 170.494 391.121 170.131 391.631 169.861C392.141 169.591 392.696 169.456 393.296 169.456C393.974 169.456 394.592 169.621 395.15 169.951C395.708 170.281 396.152 170.725 396.482 171.283C396.812 171.841 396.977 172.459 396.977 173.137ZM405.758 169.708H407.018V179.041C407.018 179.617 406.892 180.157 406.64 180.661C406.394 181.165 406.058 181.606 405.632 181.984C405.212 182.368 404.732 182.668 404.192 182.884C403.652 183.1 403.091 183.208 402.509 183.208C401.885 183.208 401.282 183.064 400.7 182.776C400.118 182.494 399.611 182.116 399.179 181.642C398.753 181.168 398.45 180.643 398.27 180.067L399.431 179.536C399.545 179.986 399.758 180.391 400.07 180.751C400.388 181.117 400.76 181.405 401.186 181.615C401.618 181.831 402.059 181.939 402.509 181.939C402.923 181.939 403.322 181.861 403.706 181.705C404.096 181.555 404.444 181.348 404.75 181.084C405.062 180.82 405.308 180.511 405.488 180.157C405.668 179.809 405.758 179.437 405.758 179.041V177.052C405.446 177.616 405.023 178.072 404.489 178.42C403.961 178.768 403.346 178.942 402.644 178.942C402.014 178.942 401.42 178.819 400.862 178.573C400.31 178.327 399.824 177.988 399.404 177.556C398.984 177.118 398.654 176.614 398.414 176.044C398.18 175.474 398.063 174.862 398.063 174.208C398.063 173.554 398.18 172.942 398.414 172.372C398.654 171.796 398.984 171.292 399.404 170.86C399.824 170.422 400.31 170.08 400.862 169.834C401.42 169.588 402.014 169.465 402.644 169.465C403.346 169.465 403.961 169.639 404.489 169.987C405.023 170.329 405.446 170.785 405.758 171.355V169.708ZM402.653 177.718C403.277 177.718 403.814 177.556 404.264 177.232C404.72 176.908 405.071 176.479 405.317 175.945C405.563 175.411 405.686 174.832 405.686 174.208C405.686 173.566 405.56 172.981 405.308 172.453C405.062 171.919 404.711 171.493 404.255 171.175C403.799 170.851 403.265 170.689 402.653 170.689C402.041 170.689 401.483 170.848 400.979 171.166C400.481 171.478 400.085 171.901 399.791 172.435C399.497 172.969 399.35 173.56 399.35 174.208C399.35 174.856 399.5 175.447 399.8 175.981C400.1 176.509 400.499 176.932 400.997 177.25C401.501 177.562 402.053 177.718 402.653 177.718Z" fill="#535662"/>
<path d="M369.451 630.028L-266.456 281.746C-266.456 281.746 4.6213 323.622 176.564 306.094C351.638 288.246 610.57 189.785 610.57 189.785L369.451 630.028Z" fill="url(#paint0_linear_3298_9761)" fill-opacity="0.4" stroke="#4268FF"/>
</g>
<rect x="18.8454" y="15.1681" width="426.081" height="417.081" rx="21.6033" stroke="#0C1021" stroke-opacity="0.05" stroke-width="0.919289"/>
</g>
<defs>
<filter id="filter0_d_3298_9761" x="0" y="-0.00012207" width="463.772" height="454.772" filterUnits="userSpaceOnUse" color-interpolation-filters="sRGB">
<feFlood flood-opacity="0" result="BackgroundImageFix"/>
<feColorMatrix in="SourceAlpha" type="matrix" values="0 0 0 0 0 0 0 0 0 0 0 0 0 0 0 0 0 0 127 0" result="hardAlpha"/>
<feOffset dy="3.67715"/>
<feGaussianBlur stdDeviation="9.19289"/>
<feComposite in2="hardAlpha" operator="out"/>
<feColorMatrix type="matrix" values="0 0 0 0 0.0468057 0 0 0 0 0.0634939 0 0 0 0 0.129808 0 0 0 0.1 0"/>
<feBlend mode="normal" in2="BackgroundImageFix" result="effect1_dropShadow_3298_9761"/>
<feBlend mode="normal" in="SourceGraphic" in2="effect1_dropShadow_3298_9761" result="shape"/>
</filter>
<linearGradient id="paint0_linear_3298_9761" x1="62.9831" y1="166.854" x2="31.7953" y2="446.787" gradientUnits="userSpaceOnUse">
<stop stop-color="#4268FF"/>
<stop offset="1" stop-color="#4268FF" stop-opacity="0"/>
</linearGradient>
<clipPath id="clip0_3298_9761">
<rect x="18.3858" y="14.7085" width="427" height="418" rx="22.0629" fill="white"/>
</clipPath>
</defs>
</svg>
