<svg preserveAspectRatio="none" width="100%" height="100%" overflow="visible" style="display: block;" viewBox="0 0 20.0683 18" fill="none" xmlns="http://www.w3.org/2000/svg">
<path id="Vector" d="M5.43054 14.25C4.73054 14.8333 4.00154 15.1 3.24354 15.05C2.48554 15 1.82287 14.7417 1.25554 14.275C0.688207 13.8083 0.300874 13.196 0.0935406 12.438C-0.113793 11.68 0.0235406 10.9007 0.505541 10.1L2.38054 7C1.96387 6.63333 1.63487 6.19167 1.39354 5.675C1.15221 5.15833 1.03121 4.6 1.03054 4C1.03054 2.9 1.42221 1.95833 2.20554 1.175C2.98887 0.391667 3.93054 0 5.03054 0C6.13054 0 7.07221 0.391667 7.85554 1.175C8.63887 1.95833 9.03054 2.9 9.03054 4C9.03054 5.1 8.63887 6.04167 7.85554 6.825C7.07221 7.60833 6.13054 8 5.03054 8C4.88054 8 4.73054 7.99167 4.58054 7.975C4.43054 7.95833 4.28887 7.93333 4.15554 7.9L2.23054 11.15C2.04721 11.45 1.98887 11.746 2.05554 12.038C2.12221 12.33 2.26387 12.5673 2.48054 12.75C2.69721 12.9327 2.95554 13.037 3.25554 13.063C3.55554 13.089 3.84721 12.9847 4.13054 12.75L14.6305 3.725C15.3305 3.14167 16.0639 2.879 16.8305 2.937C17.5972 2.995 18.2639 3.25767 18.8305 3.725C19.3972 4.19233 19.7805 4.805 19.9805 5.563C20.1805 6.321 20.0389 7.1 19.5555 7.9L17.6805 11C18.0972 11.3667 18.4265 11.8083 18.6685 12.325C18.9105 12.8417 19.0312 13.4 19.0305 14C19.0305 15.1 18.6389 16.0417 17.8555 16.825C17.0722 17.6083 16.1305 18 15.0305 18C13.9305 18 12.9889 17.6083 12.2055 16.825C11.4222 16.0417 11.0305 15.1 11.0305 14C11.0305 12.9 11.4222 11.9583 12.2055 11.175C12.9889 10.3917 13.9305 10 15.0305 10C15.1805 10 15.3265 10.0083 15.4685 10.025C15.6105 10.0417 15.7479 10.0667 15.8805 10.1L17.8305 6.85C18.0139 6.55 18.0722 6.254 18.0055 5.962C17.9389 5.67 17.7972 5.43267 17.5805 5.25C17.3639 5.06733 17.1055 4.96333 16.8055 4.938C16.5055 4.91267 16.2139 5.01667 15.9305 5.25L5.43054 14.25Z" fill="var(--fill-0, white)"/>
</svg>
