<svg width="310" height="348" viewBox="0 0 310 348" fill="none" xmlns="http://www.w3.org/2000/svg" xmlns:xlink="http://www.w3.org/1999/xlink">
<g clip-path="url(#clip0_3298_9949)">
<rect width="310" height="348" rx="24" fill="#FAFAFA"/>
<rect width="310" height="348" rx="24" fill="url(#pattern0_3298_9949)" fill-opacity="0.02"/>
<g filter="url(#filter0_d_3298_9949)">
<rect x="25" y="19.5" width="259" height="308" rx="22.0629" fill="white" shape-rendering="crispEdges"/>
<rect x="25.4596" y="19.9596" width="258.081" height="307.081" rx="21.6033" stroke="#0C1021" stroke-opacity="0.05" stroke-width="0.919289" shape-rendering="crispEdges"/>
<path d="M56.068 49.7H58.984L65.092 66.5H62.452L61.288 63.308H53.764L52.612 66.5H49.96L56.068 49.7ZM54.688 60.812H60.364L57.52 53.012L54.688 60.812ZM67.5578 66.5V49.7H70.0538V66.5H67.5578ZM88.3932 54.5H90.8892V66.5H88.3812L88.2852 64.76C87.9332 65.376 87.4572 65.872 86.8572 66.248C86.2572 66.624 85.5492 66.812 84.7332 66.812C83.8532 66.812 83.0252 66.648 82.2492 66.32C81.4732 65.984 80.7892 65.52 80.1972 64.928C79.6132 64.336 79.1572 63.656 78.8292 62.888C78.5012 62.112 78.3372 61.28 78.3372 60.392C78.3372 59.536 78.4972 58.732 78.8172 57.98C79.1372 57.22 79.5812 56.556 80.1492 55.988C80.7172 55.42 81.3732 54.976 82.1172 54.656C82.8692 54.328 83.6732 54.164 84.5292 54.164C85.4012 54.164 86.1692 54.364 86.8332 54.764C87.5052 55.156 88.0612 55.66 88.5012 56.276L88.3932 54.5ZM84.6732 64.4C85.3772 64.4 85.9932 64.228 86.5212 63.884C87.0492 63.532 87.4572 63.06 87.7452 62.468C88.0412 61.876 88.1892 61.22 88.1892 60.5C88.1892 59.772 88.0412 59.112 87.7452 58.52C87.4492 57.928 87.0372 57.46 86.5092 57.116C85.9892 56.764 85.3772 56.588 84.6732 56.588C83.9772 56.588 83.3412 56.764 82.7652 57.116C82.1892 57.468 81.7332 57.94 81.3972 58.532C81.0612 59.124 80.8932 59.78 80.8932 60.5C80.8932 61.228 81.0652 61.888 81.4092 62.48C81.7612 63.064 82.2212 63.532 82.7892 63.884C83.3652 64.228 83.9932 64.4 84.6732 64.4ZM102.181 54.5H104.677V66.812C104.677 67.636 104.501 68.396 104.149 69.092C103.805 69.788 103.337 70.388 102.745 70.892C102.153 71.404 101.473 71.8 100.705 72.08C99.9454 72.36 99.1494 72.5 98.3174 72.5C97.4774 72.5 96.6694 72.32 95.8934 71.96C95.1174 71.608 94.4334 71.128 93.8414 70.52C93.2574 69.912 92.8214 69.224 92.5334 68.456L94.8254 67.424C94.9854 67.92 95.2414 68.36 95.5934 68.744C95.9534 69.128 96.3694 69.432 96.8414 69.656C97.3214 69.88 97.8134 69.992 98.3174 69.992C98.8134 69.992 99.2894 69.912 99.7454 69.752C100.209 69.6 100.621 69.384 100.981 69.104C101.349 68.824 101.641 68.488 101.857 68.096C102.073 67.704 102.181 67.276 102.181 66.812V64.784C101.789 65.392 101.285 65.884 100.669 66.26C100.053 66.628 99.3374 66.812 98.5214 66.812C97.6734 66.812 96.8734 66.648 96.1214 66.32C95.3694 65.992 94.7094 65.54 94.1414 64.964C93.5734 64.38 93.1294 63.708 92.8094 62.948C92.4894 62.188 92.3294 61.372 92.3294 60.5C92.3294 59.628 92.4894 58.812 92.8094 58.052C93.1294 57.284 93.5734 56.612 94.1414 56.036C94.7094 55.452 95.3694 54.996 96.1214 54.668C96.8734 54.34 97.6734 54.176 98.5214 54.176C99.3374 54.176 100.053 54.364 100.669 54.74C101.285 55.108 101.789 55.6 102.181 56.216V54.5ZM98.5454 64.4C99.2414 64.4 99.8494 64.224 100.369 63.872C100.889 63.512 101.293 63.036 101.581 62.444C101.869 61.852 102.013 61.204 102.013 60.5C102.013 59.78 101.865 59.128 101.569 58.544C101.281 57.952 100.877 57.48 100.357 57.128C99.8374 56.768 99.2334 56.588 98.5454 56.588C97.8734 56.588 97.2574 56.764 96.6974 57.116C96.1454 57.468 95.7054 57.94 95.3774 58.532C95.0494 59.124 94.8854 59.78 94.8854 60.5C94.8854 61.22 95.0494 61.876 95.3774 62.468C95.7134 63.06 96.1574 63.532 96.7094 63.884C97.2694 64.228 97.8814 64.4 98.5454 64.4ZM112.626 66.812C111.522 66.812 110.514 66.528 109.602 65.96C108.698 65.392 107.974 64.632 107.43 63.68C106.894 62.72 106.626 61.66 106.626 60.5C106.626 59.62 106.782 58.8 107.094 58.04C107.406 57.272 107.834 56.6 108.378 56.024C108.93 55.44 109.57 54.984 110.298 54.656C111.026 54.328 111.802 54.164 112.626 54.164C113.546 54.164 114.39 54.356 115.158 54.74C115.926 55.116 116.582 55.64 117.126 56.312C117.67 56.976 118.07 57.744 118.326 58.616C118.582 59.48 118.658 60.4 118.554 61.376H109.302C109.406 61.928 109.606 62.428 109.902 62.876C110.206 63.316 110.59 63.664 111.054 63.92C111.526 64.176 112.05 64.308 112.626 64.316C113.234 64.316 113.786 64.164 114.282 63.86C114.786 63.556 115.198 63.136 115.518 62.6L118.05 63.188C117.57 64.252 116.846 65.124 115.878 65.804C114.91 66.476 113.826 66.812 112.626 66.812ZM109.218 59.468H116.034C115.954 58.892 115.75 58.372 115.422 57.908C115.102 57.436 114.698 57.064 114.21 56.792C113.73 56.512 113.202 56.372 112.626 56.372C112.058 56.372 111.53 56.508 111.042 56.78C110.562 57.052 110.162 57.424 109.842 57.896C109.53 58.36 109.322 58.884 109.218 59.468ZM131.342 58.976V66.5H128.846V59.588C128.846 59.052 128.714 58.564 128.45 58.124C128.194 57.684 127.846 57.336 127.406 57.08C126.974 56.816 126.486 56.684 125.942 56.684C125.414 56.684 124.93 56.816 124.49 57.08C124.05 57.336 123.698 57.684 123.434 58.124C123.17 58.564 123.038 59.052 123.038 59.588V66.5H120.542V54.5H123.038V55.772C123.454 55.276 123.966 54.884 124.574 54.596C125.182 54.308 125.838 54.164 126.542 54.164C127.43 54.164 128.238 54.38 128.966 54.812C129.694 55.244 130.27 55.824 130.694 56.552C131.126 57.28 131.342 58.088 131.342 58.976ZM140.073 56.996H137.553L137.541 66.5H135.045L135.057 56.996H133.149V54.5H135.057L135.045 50.732H137.541L137.553 54.5H140.073V56.996Z" fill="#0C1021"/>
<rect x="49" y="78.5" width="131" height="33" rx="16" fill="#3DEC82" fill-opacity="0.15"/>
<path d="M70.604 99.668L69.435 98.499C69.0243 98.863 68.5577 99.1477 68.035 99.353C67.517 99.5583 66.9687 99.661 66.39 99.661C65.7227 99.661 65.0973 99.5303 64.514 99.269C63.9307 99.003 63.4173 98.639 62.974 98.177C62.5307 97.7103 62.183 97.169 61.931 96.553C61.6837 95.937 61.56 95.279 61.56 94.579C61.56 93.879 61.6837 93.2233 61.931 92.612C62.183 91.996 62.5307 91.4547 62.974 90.988C63.4173 90.5213 63.9307 90.1573 64.514 89.896C65.0973 89.63 65.7227 89.497 66.39 89.497C67.0573 89.497 67.6803 89.63 68.259 89.896C68.8423 90.1573 69.3557 90.5213 69.799 90.988C70.2423 91.4547 70.5877 91.996 70.835 92.612C71.087 93.2233 71.213 93.879 71.213 94.579C71.213 95.195 71.115 95.776 70.919 96.322C70.723 96.868 70.4523 97.3603 70.107 97.799L71.297 98.975L70.604 99.668ZM66.39 98.681C66.8147 98.681 67.23 98.604 67.636 98.45C68.0467 98.296 68.4083 98.0767 68.721 97.792L67.272 96.343L67.965 95.643L69.386 97.071C69.6613 96.721 69.8713 96.3313 70.016 95.902C70.1607 95.4727 70.233 95.0317 70.233 94.579C70.233 94.0143 70.1327 93.4847 69.932 92.99C69.7313 92.4953 69.4537 92.059 69.099 91.681C68.749 91.303 68.3407 91.009 67.874 90.799C67.412 90.5843 66.9173 90.477 66.39 90.477C65.8533 90.477 65.3517 90.5867 64.885 90.806C64.423 91.0207 64.0147 91.3193 63.66 91.702C63.31 92.08 63.0347 92.5163 62.834 93.011C62.638 93.501 62.54 94.0237 62.54 94.579C62.54 95.1437 62.6403 95.6733 62.841 96.168C63.0417 96.6627 63.3193 97.099 63.674 97.477C64.0287 97.855 64.437 98.1513 64.899 98.366C65.3657 98.576 65.8627 98.681 66.39 98.681ZM72.3334 96.819V92.5H73.3134V96.623C73.3134 97.0057 73.4068 97.3533 73.5934 97.666C73.7801 97.9787 74.0298 98.2283 74.3424 98.415C74.6598 98.6017 75.0074 98.695 75.3854 98.695C75.7681 98.695 76.1134 98.6017 76.4214 98.415C76.7341 98.2283 76.9838 97.9787 77.1704 97.666C77.3571 97.3533 77.4504 97.0057 77.4504 96.623V92.5H78.4304L78.4374 99.5H77.4574L77.4504 98.52C77.2031 98.8747 76.8811 99.157 76.4844 99.367C76.0924 99.577 75.6631 99.682 75.1964 99.682C74.6691 99.682 74.1884 99.5537 73.7544 99.297C73.3204 99.0403 72.9751 98.695 72.7184 98.261C72.4618 97.827 72.3334 97.3463 72.3334 96.819ZM85.5315 92.5H86.5115V99.5H85.5315L85.4965 98.198C85.2678 98.6413 84.9482 99.0007 84.5375 99.276C84.1268 99.5467 83.6368 99.682 83.0675 99.682C82.5542 99.682 82.0735 99.5863 81.6255 99.395C81.1775 99.199 80.7832 98.9307 80.4425 98.59C80.1018 98.2493 79.8358 97.855 79.6445 97.407C79.4532 96.959 79.3575 96.4783 79.3575 95.965C79.3575 95.461 79.4508 94.9873 79.6375 94.544C79.8288 94.1007 80.0902 93.711 80.4215 93.375C80.7575 93.039 81.1448 92.7777 81.5835 92.591C82.0268 92.3997 82.5005 92.304 83.0045 92.304C83.5878 92.304 84.0965 92.444 84.5305 92.724C84.9645 92.9993 85.3098 93.361 85.5665 93.809L85.5315 92.5ZM83.0465 98.73C83.5458 98.73 83.9752 98.6087 84.3345 98.366C84.6938 98.1187 84.9692 97.7873 85.1605 97.372C85.3565 96.9567 85.4545 96.4993 85.4545 96C85.4545 95.4867 85.3565 95.0247 85.1605 94.614C84.9645 94.1987 84.6868 93.8697 84.3275 93.627C83.9682 93.3843 83.5412 93.263 83.0465 93.263C82.5518 93.263 82.0992 93.3867 81.6885 93.634C81.2825 93.8767 80.9582 94.2057 80.7155 94.621C80.4775 95.0363 80.3585 95.496 80.3585 96C80.3585 96.5087 80.4822 96.9707 80.7295 97.386C80.9768 97.7967 81.3035 98.1233 81.7095 98.366C82.1202 98.6087 82.5658 98.73 83.0465 98.73ZM88.008 99.5V89H88.988V99.5H88.008ZM90.674 92.5H91.654V99.5H90.674V92.5ZM91.171 91.275C91.0123 91.275 90.877 91.2237 90.765 91.121C90.6577 91.0137 90.604 90.8807 90.604 90.722C90.604 90.5633 90.6577 90.4327 90.765 90.33C90.877 90.2227 91.0123 90.169 91.171 90.169C91.325 90.169 91.4557 90.2227 91.563 90.33C91.675 90.4327 91.731 90.5633 91.731 90.722C91.731 90.8807 91.6773 91.0137 91.57 91.121C91.4627 91.2237 91.3297 91.275 91.171 91.275ZM94.789 90.673V92.5H96.889V93.48H94.789V99.5H93.809V93.48H92.85V92.5H93.809V90.673C93.809 90.3323 93.8907 90.0243 94.054 89.749C94.222 89.469 94.446 89.2473 94.726 89.084C95.006 88.916 95.3163 88.832 95.657 88.832C95.9043 88.832 96.1423 88.881 96.371 88.979C96.6043 89.077 96.812 89.2217 96.994 89.413L96.294 90.106C96.2193 90.0127 96.1237 89.9403 96.007 89.889C95.895 89.8377 95.7783 89.812 95.657 89.812C95.419 89.812 95.2137 89.896 95.041 90.064C94.873 90.232 94.789 90.435 94.789 90.673ZM97.9611 92.5H98.9411V99.5H97.9611V92.5ZM98.4581 91.275C98.2994 91.275 98.1641 91.2237 98.0521 91.121C97.9448 91.0137 97.8911 90.8807 97.8911 90.722C97.8911 90.5633 97.9448 90.4327 98.0521 90.33C98.1641 90.2227 98.2994 90.169 98.4581 90.169C98.6121 90.169 98.7428 90.2227 98.8501 90.33C98.9621 90.4327 99.0181 90.5633 99.0181 90.722C99.0181 90.8807 98.9644 91.0137 98.8571 91.121C98.7498 91.2237 98.6168 91.275 98.4581 91.275ZM105.557 97.743L106.432 98.219C106.114 98.6623 105.711 99.017 105.221 99.283C104.735 99.549 104.208 99.682 103.639 99.682C102.995 99.682 102.407 99.5163 101.875 99.185C101.347 98.8537 100.925 98.4103 100.608 97.855C100.295 97.295 100.139 96.6767 100.139 96C100.139 95.4867 100.23 95.0083 100.412 94.565C100.594 94.117 100.843 93.725 101.161 93.389C101.483 93.0483 101.856 92.7823 102.281 92.591C102.705 92.3997 103.158 92.304 103.639 92.304C104.208 92.304 104.735 92.437 105.221 92.703C105.711 92.969 106.114 93.326 106.432 93.774L105.557 94.243C105.314 93.935 105.022 93.6993 104.682 93.536C104.341 93.368 103.993 93.284 103.639 93.284C103.167 93.284 102.74 93.41 102.358 93.662C101.975 93.9093 101.672 94.2383 101.448 94.649C101.228 95.0597 101.119 95.51 101.119 96C101.119 96.49 101.231 96.9403 101.455 97.351C101.683 97.7617 101.989 98.0907 102.372 98.338C102.754 98.5807 103.177 98.702 103.639 98.702C104.021 98.702 104.381 98.6133 104.717 98.436C105.053 98.2587 105.333 98.0277 105.557 97.743ZM113.354 92.5H114.334V99.5H113.354L113.319 98.198C113.09 98.6413 112.77 99.0007 112.36 99.276C111.949 99.5467 111.459 99.682 110.89 99.682C110.376 99.682 109.896 99.5863 109.448 99.395C109 99.199 108.605 98.9307 108.265 98.59C107.924 98.2493 107.658 97.855 107.467 97.407C107.275 96.959 107.18 96.4783 107.18 95.965C107.18 95.461 107.273 94.9873 107.46 94.544C107.651 94.1007 107.912 93.711 108.244 93.375C108.58 93.039 108.967 92.7777 109.406 92.591C109.849 92.3997 110.323 92.304 110.827 92.304C111.41 92.304 111.919 92.444 112.353 92.724C112.787 92.9993 113.132 93.361 113.389 93.809L113.354 92.5ZM110.869 98.73C111.368 98.73 111.797 98.6087 112.157 98.366C112.516 98.1187 112.791 97.7873 112.983 97.372C113.179 96.9567 113.277 96.4993 113.277 96C113.277 95.4867 113.179 95.0247 112.983 94.614C112.787 94.1987 112.509 93.8697 112.15 93.627C111.79 93.3843 111.363 93.263 110.869 93.263C110.374 93.263 109.921 93.3867 109.511 93.634C109.105 93.8767 108.78 94.2057 108.538 94.621C108.3 95.0363 108.181 95.496 108.181 96C108.181 96.5087 108.304 96.9707 108.552 97.386C108.799 97.7967 109.126 98.1233 109.532 98.366C109.942 98.6087 110.388 98.73 110.869 98.73ZM119.312 93.48H117.639L117.632 99.5H116.652L116.659 93.48H115.392V92.5H116.659L116.652 90.302H117.632L117.639 92.5H119.312V93.48ZM120.506 92.5H121.486V99.5H120.506V92.5ZM121.003 91.275C120.844 91.275 120.709 91.2237 120.597 91.121C120.49 91.0137 120.436 90.8807 120.436 90.722C120.436 90.5633 120.49 90.4327 120.597 90.33C120.709 90.2227 120.844 90.169 121.003 90.169C121.157 90.169 121.288 90.2227 121.395 90.33C121.507 90.4327 121.563 90.5633 121.563 90.722C121.563 90.8807 121.509 91.0137 121.402 91.121C121.295 91.2237 121.162 91.275 121.003 91.275ZM126.184 99.682C125.54 99.682 124.952 99.5163 124.42 99.185C123.892 98.8537 123.47 98.4103 123.153 97.855C122.84 97.295 122.684 96.6767 122.684 96C122.684 95.4867 122.775 95.0083 122.957 94.565C123.139 94.117 123.388 93.725 123.706 93.389C124.028 93.0483 124.401 92.7823 124.826 92.591C125.25 92.3997 125.703 92.304 126.184 92.304C126.828 92.304 127.413 92.4697 127.941 92.801C128.473 93.1323 128.895 93.578 129.208 94.138C129.525 94.698 129.684 95.3187 129.684 96C129.684 96.5087 129.593 96.9847 129.411 97.428C129.229 97.8713 128.977 98.2633 128.655 98.604C128.337 98.94 127.966 99.2037 127.542 99.395C127.122 99.5863 126.669 99.682 126.184 99.682ZM126.184 98.702C126.66 98.702 127.087 98.5783 127.465 98.331C127.847 98.079 128.148 97.7477 128.368 97.337C128.592 96.9263 128.704 96.4807 128.704 96C128.704 95.51 128.592 95.0597 128.368 94.649C128.144 94.2337 127.84 93.9023 127.458 93.655C127.08 93.4077 126.655 93.284 126.184 93.284C125.708 93.284 125.278 93.41 124.896 93.662C124.518 93.9093 124.217 94.2383 123.993 94.649C123.773 95.0597 123.664 95.51 123.664 96C123.664 96.504 123.778 96.9613 124.007 97.372C124.235 97.778 124.541 98.1023 124.924 98.345C125.306 98.583 125.726 98.702 126.184 98.702ZM136.973 95.167V99.5H135.993V95.363C135.993 94.9803 135.9 94.6327 135.713 94.32C135.527 94.0073 135.277 93.7577 134.964 93.571C134.652 93.3843 134.304 93.291 133.921 93.291C133.543 93.291 133.196 93.3843 132.878 93.571C132.566 93.7577 132.316 94.0073 132.129 94.32C131.943 94.6327 131.849 94.9803 131.849 95.363V99.5H130.869V92.5H131.849V93.466C132.097 93.1113 132.419 92.829 132.815 92.619C133.212 92.409 133.644 92.304 134.11 92.304C134.638 92.304 135.118 92.4323 135.552 92.689C135.986 92.9457 136.332 93.291 136.588 93.725C136.845 94.159 136.973 94.6397 136.973 95.167ZM143.187 90.673V92.5H145.287V93.48H143.187V99.5H142.207V93.48H141.248V92.5H142.207V90.673C142.207 90.3323 142.289 90.0243 142.452 89.749C142.62 89.469 142.844 89.2473 143.124 89.084C143.404 88.916 143.715 88.832 144.055 88.832C144.303 88.832 144.541 88.881 144.769 88.979C145.003 89.077 145.21 89.2217 145.392 89.413L144.692 90.106C144.618 90.0127 144.522 89.9403 144.405 89.889C144.293 89.8377 144.177 89.812 144.055 89.812C143.817 89.812 143.612 89.896 143.439 90.064C143.271 90.232 143.187 90.435 143.187 90.673ZM146.483 99.5V89H147.463V99.5H146.483ZM152.174 99.682C151.53 99.682 150.942 99.5163 150.41 99.185C149.883 98.8537 149.46 98.4103 149.143 97.855C148.83 97.295 148.674 96.6767 148.674 96C148.674 95.4867 148.765 95.0083 148.947 94.565C149.129 94.117 149.379 93.725 149.696 93.389C150.018 93.0483 150.391 92.7823 150.816 92.591C151.241 92.3997 151.693 92.304 152.174 92.304C152.818 92.304 153.404 92.4697 153.931 92.801C154.463 93.1323 154.885 93.578 155.198 94.138C155.515 94.698 155.674 95.3187 155.674 96C155.674 96.5087 155.583 96.9847 155.401 97.428C155.219 97.8713 154.967 98.2633 154.645 98.604C154.328 98.94 153.957 99.2037 153.532 99.395C153.112 99.5863 152.659 99.682 152.174 99.682ZM152.174 98.702C152.65 98.702 153.077 98.5783 153.455 98.331C153.838 98.079 154.139 97.7477 154.358 97.337C154.582 96.9263 154.694 96.4807 154.694 96C154.694 95.51 154.582 95.0597 154.358 94.649C154.134 94.2337 153.831 93.9023 153.448 93.655C153.07 93.4077 152.645 93.284 152.174 93.284C151.698 93.284 151.269 93.41 150.886 93.662C150.508 93.9093 150.207 94.2383 149.983 94.649C149.764 95.0597 149.654 95.51 149.654 96C149.654 96.504 149.768 96.9613 149.997 97.372C150.226 97.778 150.531 98.1023 150.914 98.345C151.297 98.583 151.717 98.702 152.174 98.702ZM159.492 99.5H158.484L156.139 92.5H157.098L159.002 98.142L160.892 92.5H161.928L163.818 98.142L165.708 92.5H166.674L164.329 99.5H163.314L161.396 93.802L159.492 99.5Z" fill="#28BC62"/>
<rect x="49" y="135.5" width="24" height="24" rx="12" fill="#4268FF"/>
<path d="M60.7575 152V143.18H59.7075L59.9875 142.2H61.7375V152H60.7575Z" fill="white"/>
<rect x="60.5" y="159.5" width="1" height="12" fill="#4268FF"/>
<path d="M83.712 141.3H85.656L89.728 152.5H87.968L87.192 150.372H82.176L81.408 152.5H79.64L83.712 141.3ZM82.792 148.708H86.576L84.68 143.508L82.792 148.708ZM95.7621 150.228L97.2501 151.036C96.8875 151.543 96.4261 151.948 95.8661 152.252C95.3115 152.556 94.7088 152.708 94.0581 152.708C93.3221 152.708 92.6501 152.519 92.0421 152.14C91.4395 151.761 90.9568 151.255 90.5941 150.62C90.2368 149.98 90.0581 149.273 90.0581 148.5C90.0581 147.913 90.1621 147.367 90.3701 146.86C90.5781 146.348 90.8635 145.9 91.2261 145.516C91.5941 145.127 92.0208 144.823 92.5061 144.604C92.9915 144.385 93.5088 144.276 94.0581 144.276C94.7088 144.276 95.3115 144.428 95.8661 144.732C96.4261 145.036 96.8875 145.444 97.2501 145.956L95.7621 146.764C95.5381 146.497 95.2768 146.295 94.9781 146.156C94.6795 146.012 94.3728 145.94 94.0581 145.94C93.6208 145.94 93.2235 146.06 92.8661 146.3C92.5141 146.535 92.2341 146.847 92.0261 147.236C91.8235 147.62 91.7221 148.041 91.7221 148.5C91.7221 148.953 91.8261 149.375 92.0341 149.764C92.2421 150.148 92.5221 150.457 92.8741 150.692C93.2315 150.927 93.6261 151.044 94.0581 151.044C94.3888 151.044 94.7035 150.969 95.0021 150.82C95.3008 150.671 95.5541 150.473 95.7621 150.228ZM103.715 150.228L105.203 151.036C104.841 151.543 104.379 151.948 103.819 152.252C103.265 152.556 102.662 152.708 102.011 152.708C101.275 152.708 100.603 152.519 99.9953 152.14C99.3926 151.761 98.9099 151.255 98.5473 150.62C98.1899 149.98 98.0113 149.273 98.0113 148.5C98.0113 147.913 98.1153 147.367 98.3233 146.86C98.5313 146.348 98.8166 145.9 99.1793 145.516C99.5473 145.127 99.9739 144.823 100.459 144.604C100.945 144.385 101.462 144.276 102.011 144.276C102.662 144.276 103.265 144.428 103.819 144.732C104.379 145.036 104.841 145.444 105.203 145.956L103.715 146.764C103.491 146.497 103.23 146.295 102.931 146.156C102.633 146.012 102.326 145.94 102.011 145.94C101.574 145.94 101.177 146.06 100.819 146.3C100.467 146.535 100.187 146.847 99.9793 147.236C99.7766 147.62 99.6753 148.041 99.6753 148.5C99.6753 148.953 99.7793 149.375 99.9873 149.764C100.195 150.148 100.475 150.457 100.827 150.692C101.185 150.927 101.579 151.044 102.011 151.044C102.342 151.044 102.657 150.969 102.955 150.82C103.254 150.671 103.507 150.473 103.715 150.228ZM109.964 152.708C109.228 152.708 108.556 152.519 107.948 152.14C107.346 151.761 106.863 151.255 106.5 150.62C106.143 149.98 105.964 149.273 105.964 148.5C105.964 147.913 106.068 147.367 106.276 146.86C106.484 146.348 106.77 145.9 107.132 145.516C107.5 145.127 107.927 144.823 108.412 144.604C108.898 144.385 109.415 144.276 109.964 144.276C110.7 144.276 111.37 144.465 111.972 144.844C112.58 145.223 113.063 145.732 113.42 146.372C113.783 147.012 113.964 147.721 113.964 148.5C113.964 149.081 113.86 149.625 113.652 150.132C113.444 150.639 113.156 151.087 112.788 151.476C112.426 151.86 112.002 152.161 111.516 152.38C111.036 152.599 110.519 152.708 109.964 152.708ZM109.964 151.044C110.407 151.044 110.804 150.927 111.156 150.692C111.508 150.457 111.786 150.148 111.988 149.764C112.196 149.375 112.3 148.953 112.3 148.5C112.3 148.036 112.194 147.609 111.98 147.22C111.772 146.831 111.492 146.521 111.14 146.292C110.788 146.057 110.396 145.94 109.964 145.94C109.527 145.94 109.13 146.057 108.772 146.292C108.42 146.527 108.14 146.839 107.932 147.228C107.73 147.617 107.628 148.041 107.628 148.5C107.628 148.975 107.735 149.404 107.948 149.788C108.162 150.172 108.444 150.479 108.796 150.708C109.154 150.932 109.543 151.044 109.964 151.044ZM114.781 149.5V144.5H116.445V149.092C116.445 149.449 116.533 149.775 116.709 150.068C116.885 150.361 117.119 150.596 117.413 150.772C117.706 150.943 118.029 151.028 118.381 151.028C118.738 151.028 119.061 150.943 119.349 150.772C119.642 150.596 119.874 150.361 120.045 150.068C120.221 149.775 120.309 149.449 120.309 149.092V144.5H121.973L121.981 152.5H120.317L120.309 151.636C120.037 151.967 119.698 152.228 119.293 152.42C118.887 152.612 118.453 152.708 117.989 152.708C117.397 152.708 116.858 152.564 116.373 152.276C115.887 151.988 115.501 151.601 115.213 151.116C114.925 150.631 114.781 150.092 114.781 149.5ZM130.785 147.484V152.5H129.121V147.892C129.121 147.535 129.033 147.209 128.857 146.916C128.686 146.623 128.454 146.391 128.161 146.22C127.873 146.044 127.548 145.956 127.185 145.956C126.833 145.956 126.51 146.044 126.217 146.22C125.924 146.391 125.689 146.623 125.513 146.916C125.337 147.209 125.249 147.535 125.249 147.892V152.5H123.585V144.5H125.249V145.348C125.526 145.017 125.868 144.756 126.273 144.564C126.678 144.372 127.116 144.276 127.585 144.276C128.177 144.276 128.716 144.42 129.201 144.708C129.686 144.996 130.07 145.383 130.353 145.868C130.641 146.353 130.785 146.892 130.785 147.484ZM136.606 146.164H134.926L134.918 152.5H133.254L133.262 146.164H131.99V144.5H133.262L133.254 141.988H134.918L134.926 144.5H136.606V146.164Z" fill="#0C1021"/>
<rect x="49.5" y="172" width="23" height="23" rx="11.5" stroke="#4268FF"/>
<path d="M57.7455 188V187.132C58.1282 186.777 58.5482 186.39 59.0055 185.97C59.4629 185.545 59.9155 185.109 60.3635 184.661C60.8162 184.208 61.2292 183.763 61.6025 183.324C61.9759 182.881 62.2745 182.463 62.4985 182.071C62.7272 181.674 62.8415 181.324 62.8415 181.021C62.8415 180.652 62.7505 180.316 62.5685 180.013C62.3912 179.705 62.1509 179.46 61.8475 179.278C61.5489 179.091 61.2152 178.998 60.8465 178.998C60.4779 178.998 60.1395 179.091 59.8315 179.278C59.5282 179.46 59.2855 179.705 59.1035 180.013C58.9215 180.316 58.8305 180.652 58.8305 181.021H57.8505C57.8505 180.461 57.9859 179.955 58.2565 179.502C58.5319 179.049 58.8959 178.69 59.3485 178.424C59.8012 178.153 60.3005 178.018 60.8465 178.018C61.3925 178.018 61.8895 178.153 62.3375 178.424C62.7902 178.695 63.1495 179.056 63.4155 179.509C63.6862 179.962 63.8215 180.466 63.8215 181.021C63.8215 181.352 63.7329 181.716 63.5555 182.113C63.3829 182.505 63.1472 182.913 62.8485 183.338C62.5499 183.758 62.2139 184.183 61.8405 184.612C61.4672 185.041 61.0775 185.461 60.6715 185.872C60.2655 186.278 59.8712 186.661 59.4885 187.02H63.9685V188H57.7455Z" fill="#535662"/>
<rect x="60.5" y="195.5" width="1" height="12" fill="#D9D9D9"/>
<path d="M79.96 188.5V177.3H83.544C84.1413 177.3 84.68 177.447 85.16 177.74C85.64 178.028 86.0213 178.42 86.304 178.916C86.592 179.407 86.736 179.959 86.736 180.572C86.736 181.191 86.5893 181.748 86.296 182.244C86.008 182.74 85.6213 183.132 85.136 183.42C84.656 183.708 84.1253 183.852 83.544 183.852H81.08V188.5H79.96ZM81.08 182.732H83.456C83.8507 182.732 84.2107 182.636 84.536 182.444C84.8667 182.247 85.128 181.983 85.32 181.652C85.5173 181.316 85.616 180.937 85.616 180.516C85.616 180.095 85.5173 179.719 85.32 179.388C85.128 179.052 84.8667 178.788 84.536 178.596C84.2107 178.399 83.8507 178.3 83.456 178.3H81.08V182.732ZM94.2548 180.5H95.3748V188.5H94.2548L94.2148 187.012C93.9534 187.519 93.5881 187.929 93.1188 188.244C92.6494 188.553 92.0894 188.708 91.4388 188.708C90.8521 188.708 90.3028 188.599 89.7908 188.38C89.2788 188.156 88.8281 187.849 88.4388 187.46C88.0494 187.071 87.7454 186.62 87.5268 186.108C87.3081 185.596 87.1988 185.047 87.1988 184.46C87.1988 183.884 87.3054 183.343 87.5188 182.836C87.7374 182.329 88.0361 181.884 88.4148 181.5C88.7988 181.116 89.2414 180.817 89.7428 180.604C90.2494 180.385 90.7908 180.276 91.3668 180.276C92.0334 180.276 92.6148 180.436 93.1108 180.756C93.6068 181.071 94.0014 181.484 94.2948 181.996L94.2548 180.5ZM91.4148 187.62C91.9854 187.62 92.4761 187.481 92.8868 187.204C93.2974 186.921 93.6121 186.543 93.8308 186.068C94.0548 185.593 94.1668 185.071 94.1668 184.5C94.1668 183.913 94.0548 183.385 93.8308 182.916C93.6068 182.441 93.2894 182.065 92.8788 181.788C92.4681 181.511 91.9801 181.372 91.4148 181.372C90.8494 181.372 90.3321 181.513 89.8628 181.796C89.3988 182.073 89.0281 182.449 88.7508 182.924C88.4788 183.399 88.3428 183.924 88.3428 184.5C88.3428 185.081 88.4841 185.609 88.7668 186.084C89.0494 186.553 89.4228 186.927 89.8868 187.204C90.3561 187.481 90.8654 187.62 91.4148 187.62ZM102.268 180.5H103.452L99.0761 192.5H97.8841L99.3401 188.5L96.4681 180.5H97.6921L99.9001 186.956L102.268 180.5ZM104.913 188.5V180.5H106.033V181.604C106.321 181.199 106.689 180.876 107.137 180.636C107.585 180.396 108.076 180.276 108.609 180.276C109.212 180.276 109.764 180.425 110.265 180.724C110.766 181.017 111.158 181.409 111.441 181.9C111.724 181.409 112.113 181.017 112.609 180.724C113.105 180.425 113.654 180.276 114.257 180.276C114.86 180.276 115.409 180.423 115.905 180.716C116.401 181.009 116.796 181.404 117.089 181.9C117.382 182.396 117.529 182.945 117.529 183.548V188.5H116.409V183.796C116.409 183.369 116.305 182.975 116.097 182.612C115.889 182.249 115.609 181.959 115.257 181.74C114.91 181.516 114.524 181.404 114.097 181.404C113.67 181.404 113.281 181.508 112.929 181.716C112.582 181.919 112.305 182.201 112.097 182.564C111.889 182.921 111.785 183.332 111.785 183.796V188.5H110.665V183.796C110.665 183.332 110.561 182.921 110.353 182.564C110.145 182.201 109.865 181.919 109.513 181.716C109.161 181.508 108.772 181.404 108.345 181.404C107.924 181.404 107.537 181.516 107.185 181.74C106.833 181.959 106.553 182.249 106.345 182.612C106.137 182.975 106.033 183.369 106.033 183.796V188.5H104.913ZM122.496 188.708C121.76 188.708 121.088 188.519 120.48 188.14C119.877 187.761 119.394 187.255 119.032 186.62C118.674 185.98 118.496 185.273 118.496 184.5C118.496 183.913 118.6 183.367 118.808 182.86C119.016 182.348 119.301 181.9 119.664 181.516C120.032 181.127 120.458 180.823 120.944 180.604C121.429 180.385 121.946 180.276 122.496 180.276C123.088 180.276 123.632 180.393 124.128 180.628C124.629 180.863 125.058 181.191 125.416 181.612C125.778 182.033 126.05 182.527 126.232 183.092C126.418 183.657 126.496 184.268 126.464 184.924H119.68C119.744 185.431 119.904 185.884 120.16 186.284C120.421 186.684 120.752 187.001 121.152 187.236C121.557 187.465 122.005 187.583 122.496 187.588C123.029 187.588 123.509 187.449 123.936 187.172C124.368 186.895 124.714 186.513 124.976 186.028L126.112 186.292C125.792 187.001 125.309 187.583 124.664 188.036C124.018 188.484 123.296 188.708 122.496 188.708ZM119.648 184.02H125.336C125.298 183.524 125.146 183.071 124.88 182.66C124.618 182.244 124.28 181.913 123.864 181.668C123.448 181.417 122.992 181.292 122.496 181.292C122 181.292 121.546 181.415 121.136 181.66C120.725 181.9 120.389 182.228 120.128 182.644C119.866 183.055 119.706 183.513 119.648 184.02ZM134.811 183.548V188.5H133.691V183.772C133.691 183.335 133.584 182.937 133.371 182.58C133.158 182.223 132.872 181.937 132.515 181.724C132.158 181.511 131.76 181.404 131.323 181.404C130.891 181.404 130.494 181.511 130.131 181.724C129.774 181.937 129.488 182.223 129.275 182.58C129.062 182.937 128.955 183.335 128.955 183.772V188.5H127.835V180.5H128.955V181.604C129.238 181.199 129.606 180.876 130.059 180.636C130.512 180.396 131.006 180.276 131.539 180.276C132.142 180.276 132.691 180.423 133.187 180.716C133.683 181.009 134.078 181.404 134.371 181.9C134.664 182.396 134.811 182.945 134.811 183.548ZM140.501 181.62H138.589L138.581 188.5H137.461L137.469 181.62H136.021V180.5H137.469L137.461 177.988H138.581L138.589 180.5H140.501V181.62ZM152.357 176.5H153.477V188.5H152.357V187.004C152.079 187.516 151.698 187.929 151.213 188.244C150.733 188.553 150.162 188.708 149.501 188.708C148.919 188.708 148.375 188.599 147.869 188.38C147.362 188.161 146.914 187.86 146.525 187.476C146.141 187.087 145.839 186.639 145.621 186.132C145.402 185.625 145.293 185.081 145.293 184.5C145.293 183.919 145.402 183.375 145.621 182.868C145.839 182.356 146.141 181.908 146.525 181.524C146.914 181.135 147.362 180.831 147.869 180.612C148.375 180.393 148.919 180.284 149.501 180.284C150.162 180.284 150.733 180.441 151.213 180.756C151.698 181.065 152.079 181.473 152.357 181.98V176.5ZM149.509 187.62C150.079 187.62 150.57 187.481 150.981 187.204C151.391 186.921 151.706 186.543 151.925 186.068C152.149 185.593 152.261 185.071 152.261 184.5C152.261 183.913 152.149 183.385 151.925 182.916C151.701 182.441 151.383 182.065 150.973 181.788C150.562 181.511 150.074 181.372 149.509 181.372C148.943 181.372 148.429 181.513 147.965 181.796C147.501 182.073 147.13 182.449 146.853 182.924C146.575 183.399 146.437 183.924 146.437 184.5C146.437 185.081 146.578 185.609 146.861 186.084C147.143 186.553 147.517 186.927 147.981 187.204C148.45 187.481 148.959 187.62 149.509 187.62ZM158.855 188.708C158.119 188.708 157.447 188.519 156.839 188.14C156.236 187.761 155.754 187.255 155.391 186.62C155.034 185.98 154.855 185.273 154.855 184.5C154.855 183.913 154.959 183.367 155.167 182.86C155.375 182.348 155.66 181.9 156.023 181.516C156.391 181.127 156.818 180.823 157.303 180.604C157.788 180.385 158.306 180.276 158.855 180.276C159.447 180.276 159.991 180.393 160.487 180.628C160.988 180.863 161.418 181.191 161.775 181.612C162.138 182.033 162.41 182.527 162.591 183.092C162.778 183.657 162.855 184.268 162.823 184.924H156.039C156.103 185.431 156.263 185.884 156.519 186.284C156.78 186.684 157.111 187.001 157.511 187.236C157.916 187.465 158.364 187.583 158.855 187.588C159.388 187.588 159.868 187.449 160.295 187.172C160.727 186.895 161.074 186.513 161.335 186.028L162.471 186.292C162.151 187.001 161.668 187.583 161.023 188.036C160.378 188.484 159.655 188.708 158.855 188.708ZM156.007 184.02H161.695C161.658 183.524 161.506 183.071 161.239 182.66C160.978 182.244 160.639 181.913 160.223 181.668C159.807 181.417 159.351 181.292 158.855 181.292C158.359 181.292 157.906 181.415 157.495 181.66C157.084 181.9 156.748 182.228 156.487 182.644C156.226 183.055 156.066 183.513 156.007 184.02ZM168.142 181.62H166.23L166.222 188.5H165.102L165.11 181.62H163.662V180.5H165.11L165.102 177.988H166.222L166.23 180.5H168.142V181.62ZM175.927 180.5H177.047V188.5H175.927L175.887 187.012C175.625 187.519 175.26 187.929 174.791 188.244C174.321 188.553 173.761 188.708 173.111 188.708C172.524 188.708 171.975 188.599 171.463 188.38C170.951 188.156 170.5 187.849 170.111 187.46C169.721 187.071 169.417 186.62 169.199 186.108C168.98 185.596 168.871 185.047 168.871 184.46C168.871 183.884 168.977 183.343 169.191 182.836C169.409 182.329 169.708 181.884 170.087 181.5C170.471 181.116 170.913 180.817 171.415 180.604C171.921 180.385 172.463 180.276 173.039 180.276C173.705 180.276 174.287 180.436 174.783 180.756C175.279 181.071 175.673 181.484 175.967 181.996L175.927 180.5ZM173.087 187.62C173.657 187.62 174.148 187.481 174.559 187.204C174.969 186.921 175.284 186.543 175.503 186.068C175.727 185.593 175.839 185.071 175.839 184.5C175.839 183.913 175.727 183.385 175.503 182.916C175.279 182.441 174.961 182.065 174.551 181.788C174.14 181.511 173.652 181.372 173.087 181.372C172.521 181.372 172.004 181.513 171.535 181.796C171.071 182.073 170.7 182.449 170.423 182.924C170.151 183.399 170.015 183.924 170.015 184.5C170.015 185.081 170.156 185.609 170.439 186.084C170.721 186.553 171.095 186.927 171.559 187.204C172.028 187.481 172.537 187.62 173.087 187.62ZM178.648 180.5H179.768V188.5H178.648V180.5ZM179.216 179.1C179.034 179.1 178.88 179.041 178.752 178.924C178.629 178.801 178.568 178.649 178.568 178.468C178.568 178.287 178.629 178.137 178.752 178.02C178.88 177.897 179.034 177.836 179.216 177.836C179.392 177.836 179.541 177.897 179.664 178.02C179.792 178.137 179.856 178.287 179.856 178.468C179.856 178.649 179.794 178.801 179.672 178.924C179.549 179.041 179.397 179.1 179.216 179.1ZM181.757 188.5V176.5H182.877V188.5H181.757ZM187.276 188.652C186.838 188.641 186.412 188.561 185.996 188.412C185.58 188.263 185.217 188.06 184.908 187.804C184.598 187.548 184.377 187.257 184.244 186.932L185.212 186.516C185.297 186.724 185.454 186.916 185.684 187.092C185.918 187.263 186.185 187.401 186.484 187.508C186.782 187.609 187.078 187.66 187.372 187.66C187.697 187.66 188.001 187.607 188.284 187.5C188.566 187.393 188.796 187.241 188.972 187.044C189.153 186.841 189.244 186.604 189.244 186.332C189.244 186.039 189.148 185.809 188.956 185.644C188.764 185.473 188.521 185.34 188.228 185.244C187.934 185.143 187.633 185.047 187.324 184.956C186.758 184.801 186.26 184.631 185.828 184.444C185.396 184.257 185.057 184.02 184.812 183.732C184.572 183.439 184.452 183.063 184.452 182.604C184.452 182.119 184.588 181.7 184.86 181.348C185.137 180.991 185.497 180.716 185.94 180.524C186.388 180.327 186.865 180.228 187.372 180.228C188.022 180.228 188.614 180.369 189.148 180.652C189.686 180.935 190.076 181.311 190.316 181.78L189.412 182.316C189.316 182.097 189.164 181.908 188.956 181.748C188.748 181.588 188.51 181.463 188.244 181.372C187.982 181.281 187.716 181.233 187.444 181.228C187.102 181.223 186.785 181.273 186.492 181.38C186.198 181.481 185.961 181.633 185.78 181.836C185.604 182.039 185.516 182.287 185.516 182.58C185.516 182.873 185.604 183.097 185.78 183.252C185.956 183.401 186.193 183.524 186.492 183.62C186.796 183.711 187.137 183.817 187.516 183.94C188.001 184.095 188.457 184.271 188.884 184.468C189.31 184.665 189.654 184.911 189.916 185.204C190.177 185.497 190.305 185.868 190.3 186.316C190.3 186.796 190.156 187.215 189.868 187.572C189.58 187.929 189.206 188.204 188.748 188.396C188.289 188.583 187.798 188.668 187.276 188.652Z" fill="#535662"/>
<rect x="49.5" y="208" width="23" height="23" rx="11.5" stroke="#535662" stroke-opacity="0.15"/>
<path d="M60.9985 224.182C60.4012 224.182 59.8762 224.051 59.4235 223.79C58.9709 223.524 58.6162 223.169 58.3595 222.726C58.1075 222.283 57.9815 221.793 57.9815 221.256H58.9615C58.9615 221.611 59.0432 221.937 59.2065 222.236C59.3745 222.53 59.6102 222.766 59.9135 222.943C60.2169 223.116 60.5785 223.202 60.9985 223.202C61.3532 223.202 61.6845 223.116 61.9925 222.943C62.3052 222.766 62.5572 222.53 62.7485 222.236C62.9445 221.937 63.0425 221.611 63.0425 221.256C63.0425 220.813 62.9305 220.444 62.7065 220.15C62.4825 219.851 62.1745 219.63 61.7825 219.485C61.3905 219.336 60.9425 219.261 60.4385 219.261V218.449C61.1339 218.449 61.6915 218.302 62.1115 218.008C62.5362 217.709 62.7485 217.273 62.7485 216.699C62.7485 216.386 62.6622 216.102 62.4895 215.845C62.3215 215.588 62.0999 215.383 61.8245 215.229C61.5539 215.07 61.2622 214.991 60.9495 214.991C60.6369 214.991 60.3359 215.07 60.0465 215.229C59.7619 215.383 59.5285 215.588 59.3465 215.845C59.1692 216.102 59.0805 216.386 59.0805 216.699H58.1005C58.1005 216.33 58.1775 215.985 58.3315 215.663C58.4855 215.336 58.6955 215.049 58.9615 214.802C59.2275 214.555 59.5309 214.361 59.8715 214.221C60.2122 214.081 60.5692 214.011 60.9425 214.011C61.4325 214.011 61.8875 214.132 62.3075 214.375C62.7322 214.618 63.0752 214.942 63.3365 215.348C63.5979 215.754 63.7285 216.204 63.7285 216.699C63.7285 217.18 63.6049 217.614 63.3575 218.001C63.1102 218.388 62.7765 218.661 62.3565 218.82C62.7205 218.941 63.0262 219.126 63.2735 219.373C63.5209 219.616 63.7075 219.898 63.8335 220.22C63.9595 220.542 64.0225 220.887 64.0225 221.256C64.0225 221.793 63.8825 222.283 63.6025 222.726C63.3225 223.169 62.9515 223.524 62.4895 223.79C62.0322 224.051 61.5352 224.182 60.9985 224.182Z" fill="#535662"/>
<rect x="60.5" y="231.5" width="1" height="12" fill="#D9D9D9"/>
<path d="M85.144 224.708C84.3867 224.708 83.6747 224.559 83.008 224.26C82.3413 223.956 81.7547 223.54 81.248 223.012C80.7467 222.479 80.352 221.86 80.064 221.156C79.7813 220.452 79.64 219.7 79.64 218.9C79.64 218.1 79.7813 217.348 80.064 216.644C80.352 215.94 80.7467 215.324 81.248 214.796C81.7547 214.263 82.3413 213.847 83.008 213.548C83.6747 213.244 84.3867 213.092 85.144 213.092C86.0507 213.092 86.8853 213.303 87.648 213.724C88.4107 214.145 89.0427 214.705 89.544 215.404L88.552 215.94C88.1573 215.412 87.656 214.993 87.048 214.684C86.4453 214.369 85.8107 214.212 85.144 214.212C84.5307 214.212 83.9573 214.337 83.424 214.588C82.896 214.833 82.432 215.172 82.032 215.604C81.632 216.036 81.32 216.535 81.096 217.1C80.872 217.665 80.76 218.265 80.76 218.9C80.76 219.545 80.872 220.151 81.096 220.716C81.3253 221.281 81.64 221.78 82.04 222.212C82.4453 222.644 82.912 222.983 83.44 223.228C83.9733 223.468 84.5413 223.588 85.144 223.588C85.8373 223.588 86.48 223.431 87.072 223.116C87.6693 222.796 88.1627 222.38 88.552 221.868L89.544 222.404C89.0427 223.103 88.4107 223.663 87.648 224.084C86.8853 224.5 86.0507 224.708 85.144 224.708ZM94.2613 224.708C93.5253 224.708 92.8533 224.519 92.2453 224.14C91.6426 223.761 91.1599 223.255 90.7973 222.62C90.4399 221.98 90.2613 221.273 90.2613 220.5C90.2613 219.913 90.3653 219.367 90.5733 218.86C90.7813 218.348 91.0666 217.9 91.4293 217.516C91.7973 217.127 92.2239 216.823 92.7093 216.604C93.1946 216.385 93.7119 216.276 94.2613 216.276C94.9973 216.276 95.6666 216.465 96.2693 216.844C96.8773 217.223 97.3599 217.732 97.7173 218.372C98.0799 219.012 98.2613 219.721 98.2613 220.5C98.2613 221.081 98.1573 221.625 97.9493 222.132C97.7413 222.639 97.4533 223.087 97.0853 223.476C96.7226 223.86 96.2986 224.161 95.8133 224.38C95.3333 224.599 94.8159 224.708 94.2613 224.708ZM94.2613 223.588C94.8053 223.588 95.2933 223.447 95.7253 223.164C96.1626 222.876 96.5066 222.497 96.7573 222.028C97.0133 221.559 97.1413 221.049 97.1413 220.5C97.1413 219.94 97.0133 219.425 96.7573 218.956C96.5013 218.481 96.1546 218.103 95.7173 217.82C95.2853 217.537 94.7999 217.396 94.2613 217.396C93.7173 217.396 93.2266 217.54 92.7893 217.828C92.3573 218.111 92.0133 218.487 91.7573 218.956C91.5066 219.425 91.3813 219.94 91.3813 220.5C91.3813 221.076 91.5119 221.599 91.7733 222.068C92.0346 222.532 92.3839 222.903 92.8213 223.18C93.2586 223.452 93.7386 223.588 94.2613 223.588ZM99.2181 221.436V216.5H100.338V221.212C100.338 221.649 100.445 222.047 100.658 222.404C100.871 222.761 101.157 223.047 101.514 223.26C101.877 223.473 102.274 223.58 102.706 223.58C103.143 223.58 103.538 223.473 103.89 223.26C104.247 223.047 104.533 222.761 104.746 222.404C104.959 222.047 105.066 221.649 105.066 221.212V216.5H106.186L106.194 224.5H105.074L105.066 223.38C104.783 223.785 104.415 224.108 103.962 224.348C103.514 224.588 103.023 224.708 102.49 224.708C101.887 224.708 101.338 224.561 100.842 224.268C100.346 223.975 99.9515 223.58 99.6581 223.084C99.3648 222.588 99.2181 222.039 99.2181 221.436ZM114.764 219.548V224.5H113.644V219.772C113.644 219.335 113.537 218.937 113.324 218.58C113.111 218.223 112.825 217.937 112.468 217.724C112.111 217.511 111.713 217.404 111.276 217.404C110.844 217.404 110.447 217.511 110.084 217.724C109.727 217.937 109.441 218.223 109.228 218.58C109.015 218.937 108.908 219.335 108.908 219.772V224.5H107.788V216.5H108.908V217.604C109.191 217.199 109.559 216.876 110.012 216.636C110.465 216.396 110.959 216.276 111.492 216.276C112.095 216.276 112.644 216.423 113.14 216.716C113.636 217.009 114.031 217.404 114.324 217.9C114.617 218.396 114.764 218.945 114.764 219.548ZM120.454 217.62H118.542L118.534 224.5H117.414L117.422 217.62H115.974V216.5H117.422L117.414 213.988H118.534L118.542 216.5H120.454V217.62ZM121.882 224.5V216.5H123.002V217.604C123.285 217.199 123.653 216.876 124.106 216.636C124.559 216.396 125.053 216.276 125.586 216.276C125.895 216.276 126.194 216.316 126.482 216.396L126.026 217.508C125.802 217.439 125.583 217.404 125.37 217.404C124.938 217.404 124.541 217.511 124.178 217.724C123.821 217.937 123.535 218.223 123.322 218.58C123.109 218.937 123.002 219.335 123.002 219.772V224.5H121.882ZM132.971 216.5H134.155L129.779 228.5H128.587L130.043 224.5L127.171 216.5H128.395L130.603 222.956L132.971 216.5ZM143.121 224.708C142.385 224.708 141.713 224.519 141.105 224.14C140.502 223.761 140.019 223.255 139.657 222.62C139.299 221.98 139.121 221.273 139.121 220.5C139.121 219.913 139.225 219.367 139.433 218.86C139.641 218.348 139.926 217.9 140.289 217.516C140.657 217.127 141.083 216.823 141.569 216.604C142.054 216.385 142.571 216.276 143.121 216.276C143.857 216.276 144.526 216.465 145.129 216.844C145.737 217.223 146.219 217.732 146.577 218.372C146.939 219.012 147.121 219.721 147.121 220.5C147.121 221.081 147.017 221.625 146.809 222.132C146.601 222.639 146.313 223.087 145.945 223.476C145.582 223.86 145.158 224.161 144.673 224.38C144.193 224.599 143.675 224.708 143.121 224.708ZM143.121 223.588C143.665 223.588 144.153 223.447 144.585 223.164C145.022 222.876 145.366 222.497 145.617 222.028C145.873 221.559 146.001 221.049 146.001 220.5C146.001 219.94 145.873 219.425 145.617 218.956C145.361 218.481 145.014 218.103 144.577 217.82C144.145 217.537 143.659 217.396 143.121 217.396C142.577 217.396 142.086 217.54 141.649 217.828C141.217 218.111 140.873 218.487 140.617 218.956C140.366 219.425 140.241 219.94 140.241 220.5C140.241 221.076 140.371 221.599 140.633 222.068C140.894 222.532 141.243 222.903 141.681 223.18C142.118 223.452 142.598 223.588 143.121 223.588ZM150.21 214.412V216.5H152.61V217.62H150.21V224.5H149.09V217.62H147.994V216.5H149.09V214.412C149.09 214.023 149.183 213.671 149.37 213.356C149.562 213.036 149.818 212.783 150.138 212.596C150.458 212.404 150.812 212.308 151.202 212.308C151.484 212.308 151.756 212.364 152.018 212.476C152.284 212.588 152.522 212.753 152.73 212.972L151.93 213.764C151.844 213.657 151.735 213.575 151.602 213.516C151.474 213.457 151.34 213.428 151.202 213.428C150.93 213.428 150.695 213.524 150.498 213.716C150.306 213.908 150.21 214.14 150.21 214.412ZM161.261 224.708C160.525 224.708 159.853 224.519 159.245 224.14C158.643 223.761 158.16 223.255 157.797 222.62C157.44 221.98 157.261 221.273 157.261 220.5C157.261 219.913 157.365 219.367 157.573 218.86C157.781 218.348 158.067 217.9 158.429 217.516C158.797 217.127 159.224 216.823 159.709 216.604C160.195 216.385 160.712 216.276 161.261 216.276C161.997 216.276 162.667 216.465 163.269 216.844C163.877 217.223 164.36 217.732 164.717 218.372C165.08 219.012 165.261 219.721 165.261 220.5C165.261 221.081 165.157 221.625 164.949 222.132C164.741 222.639 164.453 223.087 164.085 223.476C163.723 223.86 163.299 224.161 162.813 224.38C162.333 224.599 161.816 224.708 161.261 224.708ZM161.261 223.588C161.805 223.588 162.293 223.447 162.725 223.164C163.163 222.876 163.507 222.497 163.757 222.028C164.013 221.559 164.141 221.049 164.141 220.5C164.141 219.94 164.013 219.425 163.757 218.956C163.501 218.481 163.155 218.103 162.717 217.82C162.285 217.537 161.8 217.396 161.261 217.396C160.717 217.396 160.227 217.54 159.789 217.828C159.357 218.111 159.013 218.487 158.757 218.956C158.507 219.425 158.381 219.94 158.381 220.5C158.381 221.076 158.512 221.599 158.773 222.068C159.035 222.532 159.384 222.903 159.821 223.18C160.259 223.452 160.739 223.588 161.261 223.588ZM167.736 228.5H166.616V216.5H167.736V217.996C168.014 217.489 168.392 217.079 168.872 216.764C169.352 216.449 169.923 216.292 170.584 216.292C171.166 216.292 171.71 216.401 172.216 216.62C172.728 216.839 173.176 217.143 173.56 217.532C173.944 217.916 174.246 218.361 174.464 218.868C174.683 219.375 174.792 219.919 174.792 220.5C174.792 221.081 174.683 221.628 174.464 222.14C174.246 222.652 173.944 223.103 173.56 223.492C173.176 223.876 172.728 224.177 172.216 224.396C171.71 224.615 171.166 224.724 170.584 224.724C169.923 224.724 169.352 224.567 168.872 224.252C168.392 223.937 168.014 223.527 167.736 223.02V228.5ZM170.576 217.38C170.016 217.38 169.528 217.521 169.112 217.804C168.702 218.081 168.384 218.455 168.16 218.924C167.936 219.393 167.824 219.919 167.824 220.5C167.824 221.071 167.934 221.593 168.152 222.068C168.376 222.543 168.694 222.921 169.104 223.204C169.52 223.487 170.011 223.628 170.576 223.628C171.131 223.628 171.64 223.489 172.104 223.212C172.574 222.935 172.95 222.561 173.232 222.092C173.515 221.617 173.656 221.087 173.656 220.5C173.656 219.929 173.518 219.409 173.24 218.94C172.963 218.465 172.592 218.087 172.128 217.804C171.664 217.521 171.147 217.38 170.576 217.38ZM179.589 224.708C178.853 224.708 178.181 224.519 177.573 224.14C176.971 223.761 176.488 223.255 176.125 222.62C175.768 221.98 175.589 221.273 175.589 220.5C175.589 219.913 175.693 219.367 175.901 218.86C176.109 218.348 176.395 217.9 176.757 217.516C177.125 217.127 177.552 216.823 178.037 216.604C178.523 216.385 179.04 216.276 179.589 216.276C180.181 216.276 180.725 216.393 181.221 216.628C181.723 216.863 182.152 217.191 182.509 217.612C182.872 218.033 183.144 218.527 183.325 219.092C183.512 219.657 183.589 220.268 183.557 220.924H176.773C176.837 221.431 176.997 221.884 177.253 222.284C177.515 222.684 177.845 223.001 178.245 223.236C178.651 223.465 179.099 223.583 179.589 223.588C180.123 223.588 180.603 223.449 181.029 223.172C181.461 222.895 181.808 222.513 182.069 222.028L183.205 222.292C182.885 223.001 182.403 223.583 181.757 224.036C181.112 224.484 180.389 224.708 179.589 224.708ZM176.741 220.02H182.429C182.392 219.524 182.24 219.071 181.973 218.66C181.712 218.244 181.373 217.913 180.957 217.668C180.541 217.417 180.085 217.292 179.589 217.292C179.093 217.292 178.64 217.415 178.229 217.66C177.819 217.9 177.483 218.228 177.221 218.644C176.96 219.055 176.8 219.513 176.741 220.02ZM184.929 224.5V216.5H186.049V217.604C186.331 217.199 186.699 216.876 187.153 216.636C187.606 216.396 188.099 216.276 188.633 216.276C188.942 216.276 189.241 216.316 189.529 216.396L189.073 217.508C188.849 217.439 188.63 217.404 188.417 217.404C187.985 217.404 187.587 217.511 187.225 217.724C186.867 217.937 186.582 218.223 186.369 218.58C186.155 218.937 186.049 219.335 186.049 219.772V224.5H184.929ZM196.692 216.5H197.812V224.5H196.692L196.652 223.012C196.391 223.519 196.026 223.929 195.556 224.244C195.087 224.553 194.527 224.708 193.876 224.708C193.29 224.708 192.74 224.599 192.228 224.38C191.716 224.156 191.266 223.849 190.876 223.46C190.487 223.071 190.183 222.62 189.964 222.108C189.746 221.596 189.636 221.047 189.636 220.46C189.636 219.884 189.743 219.343 189.956 218.836C190.175 218.329 190.474 217.884 190.852 217.5C191.236 217.116 191.679 216.817 192.18 216.604C192.687 216.385 193.228 216.276 193.804 216.276C194.471 216.276 195.052 216.436 195.548 216.756C196.044 217.071 196.439 217.484 196.732 217.996L196.692 216.5ZM193.852 223.62C194.423 223.62 194.914 223.481 195.324 223.204C195.735 222.921 196.05 222.543 196.268 222.068C196.492 221.593 196.604 221.071 196.604 220.5C196.604 219.913 196.492 219.385 196.268 218.916C196.044 218.441 195.727 218.065 195.316 217.788C194.906 217.511 194.418 217.372 193.852 217.372C193.287 217.372 192.77 217.513 192.3 217.796C191.836 218.073 191.466 218.449 191.188 218.924C190.916 219.399 190.78 219.924 190.78 220.5C190.78 221.081 190.922 221.609 191.204 222.084C191.487 222.553 191.86 222.927 192.324 223.204C192.794 223.481 193.303 223.62 193.852 223.62ZM203.501 217.62H201.589L201.581 224.5H200.461L200.469 217.62H199.021V216.5H200.469L200.461 213.988H201.581L201.589 216.5H203.501V217.62ZM204.866 216.5H205.986V224.5H204.866V216.5ZM205.434 215.1C205.253 215.1 205.098 215.041 204.97 214.924C204.848 214.801 204.786 214.649 204.786 214.468C204.786 214.287 204.848 214.137 204.97 214.02C205.098 213.897 205.253 213.836 205.434 213.836C205.61 213.836 205.76 213.897 205.882 214.02C206.01 214.137 206.074 214.287 206.074 214.468C206.074 214.649 206.013 214.801 205.89 214.924C205.768 215.041 205.616 215.1 205.434 215.1ZM211.355 224.708C210.619 224.708 209.947 224.519 209.339 224.14C208.736 223.761 208.254 223.255 207.891 222.62C207.534 221.98 207.355 221.273 207.355 220.5C207.355 219.913 207.459 219.367 207.667 218.86C207.875 218.348 208.16 217.9 208.523 217.516C208.891 217.127 209.318 216.823 209.803 216.604C210.288 216.385 210.806 216.276 211.355 216.276C212.091 216.276 212.76 216.465 213.363 216.844C213.971 217.223 214.454 217.732 214.811 218.372C215.174 219.012 215.355 219.721 215.355 220.5C215.355 221.081 215.251 221.625 215.043 222.132C214.835 222.639 214.547 223.087 214.179 223.476C213.816 223.86 213.392 224.161 212.907 224.38C212.427 224.599 211.91 224.708 211.355 224.708ZM211.355 223.588C211.899 223.588 212.387 223.447 212.819 223.164C213.256 222.876 213.6 222.497 213.851 222.028C214.107 221.559 214.235 221.049 214.235 220.5C214.235 219.94 214.107 219.425 213.851 218.956C213.595 218.481 213.248 218.103 212.811 217.82C212.379 217.537 211.894 217.396 211.355 217.396C210.811 217.396 210.32 217.54 209.883 217.828C209.451 218.111 209.107 218.487 208.851 218.956C208.6 219.425 208.475 219.94 208.475 220.5C208.475 221.076 208.606 221.599 208.867 222.068C209.128 222.532 209.478 222.903 209.915 223.18C210.352 223.452 210.832 223.588 211.355 223.588ZM223.686 219.548V224.5H222.566V219.772C222.566 219.335 222.459 218.937 222.246 218.58C222.033 218.223 221.747 217.937 221.39 217.724C221.033 217.511 220.635 217.404 220.198 217.404C219.766 217.404 219.369 217.511 219.006 217.724C218.649 217.937 218.363 218.223 218.15 218.58C217.937 218.937 217.83 219.335 217.83 219.772V224.5H216.71V216.5H217.83V217.604C218.113 217.199 218.481 216.876 218.934 216.636C219.387 216.396 219.881 216.276 220.414 216.276C221.017 216.276 221.566 216.423 222.062 216.716C222.558 217.009 222.953 217.404 223.246 217.9C223.539 218.396 223.686 218.945 223.686 219.548Z" fill="#535662"/>
<rect x="49.5" y="244" width="23" height="23" rx="11.5" stroke="#535662" stroke-opacity="0.15"/>
<path d="M61.9667 260V257.249H57.7387V256.255L61.7147 250.2H62.9467V256.269H63.9757V257.249H62.9467V260H61.9667ZM58.9007 256.255L61.9667 256.269L61.9457 251.6L58.9007 256.255Z" fill="#535662"/>
<rect x="60.5" y="267.5" width="1" height="12" fill="#D9D9D9"/>
<path d="M80.2 260.5V249.3H81.32V260.5H80.2ZM90.4516 255.548V260.5H89.3316V255.772C89.3316 255.335 89.225 254.937 89.0116 254.58C88.7983 254.223 88.513 253.937 88.1556 253.724C87.7983 253.511 87.401 253.404 86.9636 253.404C86.5316 253.404 86.1343 253.511 85.7716 253.724C85.4143 253.937 85.129 254.223 84.9156 254.58C84.7023 254.937 84.5956 255.335 84.5956 255.772V260.5H83.4756V252.5H84.5956V253.604C84.8783 253.199 85.2463 252.876 85.6996 252.636C86.153 252.396 86.6463 252.276 87.1796 252.276C87.7823 252.276 88.3316 252.423 88.8276 252.716C89.3236 253.009 89.7183 253.404 90.0116 253.9C90.305 254.396 90.4516 254.945 90.4516 255.548ZM98.4815 248.5H99.6015V260.5H98.4815V259.004C98.2042 259.516 97.8228 259.929 97.3375 260.244C96.8575 260.553 96.2868 260.708 95.6255 260.708C95.0442 260.708 94.5002 260.599 93.9935 260.38C93.4868 260.161 93.0388 259.86 92.6495 259.476C92.2655 259.087 91.9642 258.639 91.7455 258.132C91.5268 257.625 91.4175 257.081 91.4175 256.5C91.4175 255.919 91.5268 255.375 91.7455 254.868C91.9642 254.356 92.2655 253.908 92.6495 253.524C93.0388 253.135 93.4868 252.831 93.9935 252.612C94.5002 252.393 95.0442 252.284 95.6255 252.284C96.2868 252.284 96.8575 252.441 97.3375 252.756C97.8228 253.065 98.2042 253.473 98.4815 253.98V248.5ZM95.6335 259.62C96.2042 259.62 96.6948 259.481 97.1055 259.204C97.5162 258.921 97.8308 258.543 98.0495 258.068C98.2735 257.593 98.3855 257.071 98.3855 256.5C98.3855 255.913 98.2735 255.385 98.0495 254.916C97.8255 254.441 97.5082 254.065 97.0975 253.788C96.6868 253.511 96.1988 253.372 95.6335 253.372C95.0682 253.372 94.5535 253.513 94.0895 253.796C93.6255 254.073 93.2548 254.449 92.9775 254.924C92.7002 255.399 92.5615 255.924 92.5615 256.5C92.5615 257.081 92.7028 257.609 92.9855 258.084C93.2682 258.553 93.6415 258.927 94.1055 259.204C94.5748 259.481 95.0842 259.62 95.6335 259.62ZM101.203 257.436V252.5H102.323V257.212C102.323 257.649 102.429 258.047 102.643 258.404C102.856 258.761 103.141 259.047 103.499 259.26C103.861 259.473 104.259 259.58 104.691 259.58C105.128 259.58 105.523 259.473 105.875 259.26C106.232 259.047 106.517 258.761 106.731 258.404C106.944 258.047 107.051 257.649 107.051 257.212V252.5H108.171L108.179 260.5H107.059L107.051 259.38C106.768 259.785 106.4 260.108 105.947 260.348C105.499 260.588 105.008 260.708 104.475 260.708C103.872 260.708 103.323 260.561 102.827 260.268C102.331 259.975 101.936 259.58 101.643 259.084C101.349 258.588 101.203 258.039 101.203 257.436ZM112.245 260.652C111.807 260.641 111.381 260.561 110.965 260.412C110.549 260.263 110.186 260.06 109.877 259.804C109.567 259.548 109.346 259.257 109.213 258.932L110.181 258.516C110.266 258.724 110.423 258.916 110.653 259.092C110.887 259.263 111.154 259.401 111.453 259.508C111.751 259.609 112.047 259.66 112.341 259.66C112.666 259.66 112.97 259.607 113.253 259.5C113.535 259.393 113.765 259.241 113.941 259.044C114.122 258.841 114.213 258.604 114.213 258.332C114.213 258.039 114.117 257.809 113.925 257.644C113.733 257.473 113.49 257.34 113.197 257.244C112.903 257.143 112.602 257.047 112.293 256.956C111.727 256.801 111.229 256.631 110.797 256.444C110.365 256.257 110.026 256.02 109.781 255.732C109.541 255.439 109.421 255.063 109.421 254.604C109.421 254.119 109.557 253.7 109.829 253.348C110.106 252.991 110.466 252.716 110.909 252.524C111.357 252.327 111.834 252.228 112.341 252.228C112.991 252.228 113.583 252.369 114.117 252.652C114.655 252.935 115.045 253.311 115.285 253.78L114.381 254.316C114.285 254.097 114.133 253.908 113.925 253.748C113.717 253.588 113.479 253.463 113.213 253.372C112.951 253.281 112.685 253.233 112.413 253.228C112.071 253.223 111.754 253.273 111.461 253.38C111.167 253.481 110.93 253.633 110.749 253.836C110.573 254.039 110.485 254.287 110.485 254.58C110.485 254.873 110.573 255.097 110.749 255.252C110.925 255.401 111.162 255.524 111.461 255.62C111.765 255.711 112.106 255.817 112.485 255.94C112.97 256.095 113.426 256.271 113.853 256.468C114.279 256.665 114.623 256.911 114.885 257.204C115.146 257.497 115.274 257.868 115.269 258.316C115.269 258.796 115.125 259.215 114.837 259.572C114.549 259.929 114.175 260.204 113.717 260.396C113.258 260.583 112.767 260.668 112.245 260.652ZM120.736 253.62H118.824L118.816 260.5H117.696L117.704 253.62H116.256V252.5H117.704L117.696 249.988H118.816L118.824 252.5H120.736V253.62ZM122.163 260.5V252.5H123.283V253.604C123.566 253.199 123.934 252.876 124.387 252.636C124.84 252.396 125.334 252.276 125.867 252.276C126.176 252.276 126.475 252.316 126.763 252.396L126.307 253.508C126.083 253.439 125.864 253.404 125.651 253.404C125.219 253.404 124.822 253.511 124.459 253.724C124.102 253.937 123.816 254.223 123.603 254.58C123.39 254.937 123.283 255.335 123.283 255.772V260.5H122.163ZM133.253 252.5H134.437L130.061 264.5H128.868L130.325 260.5L127.453 252.5H128.677L130.885 258.956L133.253 252.5Z" fill="#535662"/>
<rect x="49.5" y="280" width="23" height="23" rx="11.5" stroke="#535662" stroke-opacity="0.15"/>
<path d="M60.827 296.182C60.2297 296.182 59.686 296.037 59.196 295.748C58.7107 295.459 58.3257 295.071 58.041 294.586C57.7564 294.096 57.614 293.559 57.614 292.976H58.594C58.594 293.382 58.6944 293.755 58.895 294.096C59.0957 294.432 59.364 294.7 59.7 294.901C60.0407 295.102 60.4164 295.202 60.827 295.202C61.233 295.202 61.604 295.102 61.94 294.901C62.276 294.7 62.5444 294.432 62.745 294.096C62.9504 293.755 63.053 293.382 63.053 292.976C63.053 292.565 62.955 292.192 62.759 291.856C62.5677 291.515 62.2947 291.245 61.94 291.044C61.59 290.839 61.1724 290.736 60.687 290.736H58.307L59.231 286.2H63.816V287.18H60.022L59.511 289.756L60.652 289.763C61.3194 289.772 61.905 289.915 62.409 290.19C62.9177 290.465 63.3144 290.843 63.599 291.324C63.8884 291.8 64.033 292.351 64.033 292.976C64.033 293.415 63.949 293.828 63.781 294.215C63.6177 294.602 63.3867 294.945 63.088 295.244C62.794 295.538 62.4534 295.769 62.066 295.937C61.6834 296.1 61.2704 296.182 60.827 296.182Z" fill="#535662"/>
<path d="M88.432 285.8V286.92H84.592V297H83.472V286.92H79.64V285.8H88.432ZM88.6788 297V289H89.7988V290.104C90.0814 289.699 90.4494 289.376 90.9028 289.136C91.3561 288.896 91.8494 288.776 92.3828 288.776C92.6921 288.776 92.9908 288.816 93.2788 288.896L92.8228 290.008C92.5988 289.939 92.3801 289.904 92.1668 289.904C91.7348 289.904 91.3374 290.011 90.9748 290.224C90.6174 290.437 90.3321 290.723 90.1188 291.08C89.9054 291.437 89.7988 291.835 89.7988 292.272V297H88.6788ZM100.442 289H101.562V297H100.442L100.402 295.512C100.141 296.019 99.7756 296.429 99.3063 296.744C98.8369 297.053 98.2769 297.208 97.6263 297.208C97.0396 297.208 96.4903 297.099 95.9783 296.88C95.4663 296.656 95.0156 296.349 94.6263 295.96C94.2369 295.571 93.9329 295.12 93.7143 294.608C93.4956 294.096 93.3863 293.547 93.3863 292.96C93.3863 292.384 93.4929 291.843 93.7063 291.336C93.9249 290.829 94.2236 290.384 94.6023 290C94.9863 289.616 95.4289 289.317 95.9303 289.104C96.4369 288.885 96.9783 288.776 97.5543 288.776C98.2209 288.776 98.8023 288.936 99.2983 289.256C99.7943 289.571 100.189 289.984 100.482 290.496L100.442 289ZM97.6023 296.12C98.1729 296.12 98.6636 295.981 99.0743 295.704C99.4849 295.421 99.7996 295.043 100.018 294.568C100.242 294.093 100.354 293.571 100.354 293C100.354 292.413 100.242 291.885 100.018 291.416C99.7943 290.941 99.4769 290.565 99.0663 290.288C98.6556 290.011 98.1676 289.872 97.6023 289.872C97.0369 289.872 96.5196 290.013 96.0503 290.296C95.5863 290.573 95.2156 290.949 94.9383 291.424C94.6663 291.899 94.5303 292.424 94.5303 293C94.5303 293.581 94.6716 294.109 94.9543 294.584C95.2369 295.053 95.6103 295.427 96.0743 295.704C96.5436 295.981 97.0529 296.12 97.6023 296.12ZM110.139 292.048V297H109.019V292.272C109.019 291.835 108.912 291.437 108.699 291.08C108.486 290.723 108.2 290.437 107.843 290.224C107.486 290.011 107.088 289.904 106.651 289.904C106.219 289.904 105.822 290.011 105.459 290.224C105.102 290.437 104.816 290.723 104.603 291.08C104.39 291.437 104.283 291.835 104.283 292.272V297H103.163V289H104.283V290.104C104.566 289.699 104.934 289.376 105.387 289.136C105.84 288.896 106.334 288.776 106.867 288.776C107.47 288.776 108.019 288.923 108.515 289.216C109.011 289.509 109.406 289.904 109.699 290.4C109.992 290.896 110.139 291.445 110.139 292.048ZM114.213 297.152C113.776 297.141 113.349 297.061 112.933 296.912C112.517 296.763 112.155 296.56 111.845 296.304C111.536 296.048 111.315 295.757 111.181 295.432L112.149 295.016C112.235 295.224 112.392 295.416 112.621 295.592C112.856 295.763 113.123 295.901 113.421 296.008C113.72 296.109 114.016 296.16 114.309 296.16C114.635 296.16 114.939 296.107 115.221 296C115.504 295.893 115.733 295.741 115.909 295.544C116.091 295.341 116.181 295.104 116.181 294.832C116.181 294.539 116.085 294.309 115.893 294.144C115.701 293.973 115.459 293.84 115.165 293.744C114.872 293.643 114.571 293.547 114.261 293.456C113.696 293.301 113.197 293.131 112.765 292.944C112.333 292.757 111.995 292.52 111.749 292.232C111.509 291.939 111.389 291.563 111.389 291.104C111.389 290.619 111.525 290.2 111.797 289.848C112.075 289.491 112.435 289.216 112.877 289.024C113.325 288.827 113.803 288.728 114.309 288.728C114.96 288.728 115.552 288.869 116.085 289.152C116.624 289.435 117.013 289.811 117.253 290.28L116.349 290.816C116.253 290.597 116.101 290.408 115.893 290.248C115.685 290.088 115.448 289.963 115.181 289.872C114.92 289.781 114.653 289.733 114.381 289.728C114.04 289.723 113.723 289.773 113.429 289.88C113.136 289.981 112.899 290.133 112.717 290.336C112.541 290.539 112.453 290.787 112.453 291.08C112.453 291.373 112.541 291.597 112.717 291.752C112.893 291.901 113.131 292.024 113.429 292.12C113.733 292.211 114.075 292.317 114.453 292.44C114.939 292.595 115.395 292.771 115.821 292.968C116.248 293.165 116.592 293.411 116.853 293.704C117.115 293.997 117.243 294.368 117.237 294.816C117.237 295.296 117.093 295.715 116.805 296.072C116.517 296.429 116.144 296.704 115.685 296.896C115.227 297.083 114.736 297.168 114.213 297.152ZM125.13 289H126.25V297H125.13L125.09 295.512C124.828 296.019 124.463 296.429 123.994 296.744C123.524 297.053 122.964 297.208 122.314 297.208C121.727 297.208 121.178 297.099 120.666 296.88C120.154 296.656 119.703 296.349 119.314 295.96C118.924 295.571 118.62 295.12 118.402 294.608C118.183 294.096 118.074 293.547 118.074 292.96C118.074 292.384 118.18 291.843 118.394 291.336C118.612 290.829 118.911 290.384 119.29 290C119.674 289.616 120.116 289.317 120.618 289.104C121.124 288.885 121.666 288.776 122.242 288.776C122.908 288.776 123.49 288.936 123.986 289.256C124.482 289.571 124.876 289.984 125.17 290.496L125.13 289ZM122.29 296.12C122.86 296.12 123.351 295.981 123.762 295.704C124.172 295.421 124.487 295.043 124.706 294.568C124.93 294.093 125.042 293.571 125.042 293C125.042 292.413 124.93 291.885 124.706 291.416C124.482 290.941 124.164 290.565 123.754 290.288C123.343 290.011 122.855 289.872 122.29 289.872C121.724 289.872 121.207 290.013 120.738 290.296C120.274 290.573 119.903 290.949 119.626 291.424C119.354 291.899 119.218 292.424 119.218 293C119.218 293.581 119.359 294.109 119.642 294.584C119.924 295.053 120.298 295.427 120.762 295.704C121.231 295.981 121.74 296.12 122.29 296.12ZM133.406 294.992L134.406 295.536C134.044 296.043 133.582 296.448 133.022 296.752C132.468 297.056 131.865 297.208 131.214 297.208C130.478 297.208 129.806 297.019 129.198 296.64C128.596 296.261 128.113 295.755 127.75 295.12C127.393 294.48 127.214 293.773 127.214 293C127.214 292.413 127.318 291.867 127.526 291.36C127.734 290.848 128.02 290.4 128.382 290.016C128.75 289.627 129.177 289.323 129.662 289.104C130.148 288.885 130.665 288.776 131.214 288.776C131.865 288.776 132.468 288.928 133.022 289.232C133.582 289.536 134.044 289.944 134.406 290.456L133.406 290.992C133.129 290.64 132.796 290.371 132.406 290.184C132.017 289.992 131.62 289.896 131.214 289.896C130.676 289.896 130.188 290.04 129.75 290.328C129.313 290.611 128.966 290.987 128.71 291.456C128.46 291.925 128.334 292.44 128.334 293C128.334 293.56 128.462 294.075 128.718 294.544C128.98 295.013 129.329 295.389 129.766 295.672C130.204 295.949 130.686 296.088 131.214 296.088C131.652 296.088 132.062 295.987 132.446 295.784C132.83 295.581 133.15 295.317 133.406 294.992ZM139.939 290.12H138.027L138.019 297H136.899L136.907 290.12H135.459V289H136.907L136.899 286.488H138.019L138.027 289H139.939V290.12ZM141.304 289H142.424V297H141.304V289ZM141.872 287.6C141.69 287.6 141.536 287.541 141.408 287.424C141.285 287.301 141.224 287.149 141.224 286.968C141.224 286.787 141.285 286.637 141.408 286.52C141.536 286.397 141.69 286.336 141.872 286.336C142.048 286.336 142.197 286.397 142.32 286.52C142.448 286.637 142.512 286.787 142.512 286.968C142.512 287.149 142.45 287.301 142.328 287.424C142.205 287.541 142.053 287.6 141.872 287.6ZM147.793 297.208C147.057 297.208 146.385 297.019 145.777 296.64C145.174 296.261 144.691 295.755 144.329 295.12C143.971 294.48 143.793 293.773 143.793 293C143.793 292.413 143.897 291.867 144.105 291.36C144.313 290.848 144.598 290.4 144.961 290.016C145.329 289.627 145.755 289.323 146.241 289.104C146.726 288.885 147.243 288.776 147.793 288.776C148.529 288.776 149.198 288.965 149.801 289.344C150.409 289.723 150.891 290.232 151.249 290.872C151.611 291.512 151.793 292.221 151.793 293C151.793 293.581 151.689 294.125 151.481 294.632C151.273 295.139 150.985 295.587 150.617 295.976C150.254 296.36 149.83 296.661 149.345 296.88C148.865 297.099 148.347 297.208 147.793 297.208ZM147.793 296.088C148.337 296.088 148.825 295.947 149.257 295.664C149.694 295.376 150.038 294.997 150.289 294.528C150.545 294.059 150.673 293.549 150.673 293C150.673 292.44 150.545 291.925 150.289 291.456C150.033 290.981 149.686 290.603 149.249 290.32C148.817 290.037 148.331 289.896 147.793 289.896C147.249 289.896 146.758 290.04 146.321 290.328C145.889 290.611 145.545 290.987 145.289 291.456C145.038 291.925 144.913 292.44 144.913 293C144.913 293.576 145.043 294.099 145.305 294.568C145.566 295.032 145.915 295.403 146.353 295.68C146.79 295.952 147.27 296.088 147.793 296.088ZM160.124 292.048V297H159.004V292.272C159.004 291.835 158.897 291.437 158.684 291.08C158.47 290.723 158.185 290.437 157.828 290.224C157.47 290.011 157.073 289.904 156.636 289.904C156.204 289.904 155.806 290.011 155.444 290.224C155.086 290.437 154.801 290.723 154.588 291.08C154.374 291.437 154.268 291.835 154.268 292.272V297H153.148V289H154.268V290.104C154.55 289.699 154.918 289.376 155.372 289.136C155.825 288.896 156.318 288.776 156.852 288.776C157.454 288.776 158.004 288.923 158.5 289.216C158.996 289.509 159.39 289.904 159.684 290.4C159.977 290.896 160.124 291.445 160.124 292.048ZM169.433 297H168.009L165.089 288.976H166.281L168.721 295.688L171.161 288.976H172.353L169.433 297ZM176.886 297.208C176.15 297.208 175.478 297.019 174.87 296.64C174.268 296.261 173.785 295.755 173.422 295.12C173.065 294.48 172.886 293.773 172.886 293C172.886 292.413 172.99 291.867 173.198 291.36C173.406 290.848 173.692 290.4 174.054 290.016C174.422 289.627 174.849 289.323 175.334 289.104C175.82 288.885 176.337 288.776 176.886 288.776C177.622 288.776 178.292 288.965 178.894 289.344C179.502 289.723 179.985 290.232 180.342 290.872C180.705 291.512 180.886 292.221 180.886 293C180.886 293.581 180.782 294.125 180.574 294.632C180.366 295.139 180.078 295.587 179.71 295.976C179.348 296.36 178.924 296.661 178.438 296.88C177.958 297.099 177.441 297.208 176.886 297.208ZM176.886 296.088C177.43 296.088 177.918 295.947 178.35 295.664C178.788 295.376 179.132 294.997 179.382 294.528C179.638 294.059 179.766 293.549 179.766 293C179.766 292.44 179.638 291.925 179.382 291.456C179.126 290.981 178.78 290.603 178.342 290.32C177.91 290.037 177.425 289.896 176.886 289.896C176.342 289.896 175.852 290.04 175.414 290.328C174.982 290.611 174.638 290.987 174.382 291.456C174.132 291.925 174.006 292.44 174.006 293C174.006 293.576 174.137 294.099 174.398 294.568C174.66 295.032 175.009 295.403 175.446 295.68C175.884 295.952 176.364 296.088 176.886 296.088ZM182.179 297V285H183.299V297H182.179ZM184.906 293.936V289H186.026V293.712C186.026 294.149 186.132 294.547 186.346 294.904C186.559 295.261 186.844 295.547 187.202 295.76C187.564 295.973 187.962 296.08 188.394 296.08C188.831 296.08 189.226 295.973 189.578 295.76C189.935 295.547 190.22 295.261 190.434 294.904C190.647 294.547 190.754 294.149 190.754 293.712V289H191.874L191.882 297H190.762L190.754 295.88C190.471 296.285 190.103 296.608 189.65 296.848C189.202 297.088 188.711 297.208 188.178 297.208C187.575 297.208 187.026 297.061 186.53 296.768C186.034 296.475 185.639 296.08 185.346 295.584C185.052 295.088 184.906 294.539 184.906 293.936ZM193.476 297V289H194.596V290.104C194.884 289.699 195.252 289.376 195.7 289.136C196.148 288.896 196.638 288.776 197.172 288.776C197.774 288.776 198.326 288.925 198.828 289.224C199.329 289.517 199.721 289.909 200.004 290.4C200.286 289.909 200.676 289.517 201.172 289.224C201.668 288.925 202.217 288.776 202.82 288.776C203.422 288.776 203.972 288.923 204.468 289.216C204.964 289.509 205.358 289.904 205.652 290.4C205.945 290.896 206.092 291.445 206.092 292.048V297H204.972V292.296C204.972 291.869 204.868 291.475 204.66 291.112C204.452 290.749 204.172 290.459 203.82 290.24C203.473 290.016 203.086 289.904 202.66 289.904C202.233 289.904 201.844 290.008 201.492 290.216C201.145 290.419 200.868 290.701 200.66 291.064C200.452 291.421 200.348 291.832 200.348 292.296V297H199.228V292.296C199.228 291.832 199.124 291.421 198.916 291.064C198.708 290.701 198.428 290.419 198.076 290.216C197.724 290.008 197.334 289.904 196.908 289.904C196.486 289.904 196.1 290.016 195.748 290.24C195.396 290.459 195.116 290.749 194.908 291.112C194.7 291.475 194.596 291.869 194.596 292.296V297H193.476ZM211.058 297.208C210.322 297.208 209.65 297.019 209.042 296.64C208.439 296.261 207.957 295.755 207.594 295.12C207.237 294.48 207.058 293.773 207.058 293C207.058 292.413 207.162 291.867 207.37 291.36C207.578 290.848 207.863 290.4 208.226 290.016C208.594 289.627 209.021 289.323 209.506 289.104C209.991 288.885 210.509 288.776 211.058 288.776C211.65 288.776 212.194 288.893 212.69 289.128C213.191 289.363 213.621 289.691 213.978 290.112C214.341 290.533 214.613 291.027 214.794 291.592C214.981 292.157 215.058 292.768 215.026 293.424H208.242C208.306 293.931 208.466 294.384 208.722 294.784C208.983 295.184 209.314 295.501 209.714 295.736C210.119 295.965 210.567 296.083 211.058 296.088C211.591 296.088 212.071 295.949 212.498 295.672C212.93 295.395 213.277 295.013 213.538 294.528L214.674 294.792C214.354 295.501 213.871 296.083 213.226 296.536C212.581 296.984 211.858 297.208 211.058 297.208ZM208.21 292.52H213.898C213.861 292.024 213.709 291.571 213.442 291.16C213.181 290.744 212.842 290.413 212.426 290.168C212.01 289.917 211.554 289.792 211.058 289.792C210.562 289.792 210.109 289.915 209.698 290.16C209.287 290.4 208.951 290.728 208.69 291.144C208.429 291.555 208.269 292.013 208.21 292.52Z" fill="#535662"/>
</g>
</g>
<defs>
<filter id="filter0_d_3298_9949" x="6.61423" y="4.79138" width="295.772" height="344.772" filterUnits="userSpaceOnUse" color-interpolation-filters="sRGB">
<feFlood flood-opacity="0" result="BackgroundImageFix"/>
<feColorMatrix in="SourceAlpha" type="matrix" values="0 0 0 0 0 0 0 0 0 0 0 0 0 0 0 0 0 0 127 0" result="hardAlpha"/>
<feOffset dy="3.67715"/>
<feGaussianBlur stdDeviation="9.19289"/>
<feComposite in2="hardAlpha" operator="out"/>
<feColorMatrix type="matrix" values="0 0 0 0 0.0468057 0 0 0 0 0.0634939 0 0 0 0 0.129808 0 0 0 0.1 0"/>
<feBlend mode="normal" in2="BackgroundImageFix" result="effect1_dropShadow_3298_9949"/>
<feBlend mode="normal" in="SourceGraphic" in2="effect1_dropShadow_3298_9949" result="shape"/>
</filter>
<clipPath id="clip0_3298_9949">
<rect width="310" height="348" rx="24" fill="white"/>
</clipPath>
<pattern id="pattern0_3298_9949" patternUnits="userSpaceOnUse" patternTransform="matrix(12.5 0 0 12.5 0 0)" preserveAspectRatio="none" viewBox="0 0 12.5 12.5" width="1" height="1">
<g id="pattern0_3298_9949_inner">
<circle cx="2.5" cy="2.5" r="2.5" fill="#0C1021"/>
</g>
</pattern></defs>
</svg>
