<svg width="491" height="348" viewBox="0 0 491 348" fill="none" xmlns="http://www.w3.org/2000/svg" xmlns:xlink="http://www.w3.org/1999/xlink">
<rect width="491" height="348" rx="24" fill="#FAFAFA"/>
<rect width="491" height="348" rx="24" fill="url(#pattern0_3290_7703)" fill-opacity="0.02"/>
<g filter="url(#filter0_d_3290_7703)">
<rect x="32" y="37" width="427" height="273" rx="22.0629" fill="white" shape-rendering="crispEdges"/>
<rect x="32.4596" y="37.4596" width="426.081" height="272.081" rx="21.6033" stroke="#0C1021" stroke-opacity="0.05" stroke-width="0.919289" shape-rendering="crispEdges"/>
<path d="M63.068 69.2H65.984L72.092 86H69.452L68.288 82.808H60.764L59.612 86H56.96L63.068 69.2ZM61.688 80.312H67.364L64.52 72.512L61.688 80.312ZM74.5578 86V69.2H77.0538V86H74.5578ZM95.3932 74H97.8892V86H95.3812L95.2852 84.26C94.9332 84.876 94.4572 85.372 93.8572 85.748C93.2572 86.124 92.5492 86.312 91.7332 86.312C90.8532 86.312 90.0252 86.148 89.2492 85.82C88.4732 85.484 87.7892 85.02 87.1972 84.428C86.6132 83.836 86.1572 83.156 85.8292 82.388C85.5012 81.612 85.3372 80.78 85.3372 79.892C85.3372 79.036 85.4972 78.232 85.8172 77.48C86.1372 76.72 86.5812 76.056 87.1492 75.488C87.7172 74.92 88.3732 74.476 89.1172 74.156C89.8692 73.828 90.6732 73.664 91.5292 73.664C92.4012 73.664 93.1692 73.864 93.8332 74.264C94.5052 74.656 95.0612 75.16 95.5012 75.776L95.3932 74ZM91.6732 83.9C92.3772 83.9 92.9932 83.728 93.5212 83.384C94.0492 83.032 94.4572 82.56 94.7452 81.968C95.0412 81.376 95.1892 80.72 95.1892 80C95.1892 79.272 95.0412 78.612 94.7452 78.02C94.4492 77.428 94.0372 76.96 93.5092 76.616C92.9892 76.264 92.3772 76.088 91.6732 76.088C90.9772 76.088 90.3412 76.264 89.7652 76.616C89.1892 76.968 88.7332 77.44 88.3972 78.032C88.0612 78.624 87.8932 79.28 87.8932 80C87.8932 80.728 88.0652 81.388 88.4092 81.98C88.7612 82.564 89.2212 83.032 89.7892 83.384C90.3652 83.728 90.9932 83.9 91.6732 83.9ZM109.181 74H111.677V86.312C111.677 87.136 111.501 87.896 111.149 88.592C110.805 89.288 110.337 89.888 109.745 90.392C109.153 90.904 108.473 91.3 107.705 91.58C106.945 91.86 106.149 92 105.317 92C104.477 92 103.669 91.82 102.893 91.46C102.117 91.108 101.433 90.628 100.841 90.02C100.257 89.412 99.8214 88.724 99.5334 87.956L101.825 86.924C101.985 87.42 102.241 87.86 102.593 88.244C102.953 88.628 103.369 88.932 103.841 89.156C104.321 89.38 104.813 89.492 105.317 89.492C105.813 89.492 106.289 89.412 106.745 89.252C107.209 89.1 107.621 88.884 107.981 88.604C108.349 88.324 108.641 87.988 108.857 87.596C109.073 87.204 109.181 86.776 109.181 86.312V84.284C108.789 84.892 108.285 85.384 107.669 85.76C107.053 86.128 106.337 86.312 105.521 86.312C104.673 86.312 103.873 86.148 103.121 85.82C102.369 85.492 101.709 85.04 101.141 84.464C100.573 83.88 100.129 83.208 99.8094 82.448C99.4894 81.688 99.3294 80.872 99.3294 80C99.3294 79.128 99.4894 78.312 99.8094 77.552C100.129 76.784 100.573 76.112 101.141 75.536C101.709 74.952 102.369 74.496 103.121 74.168C103.873 73.84 104.673 73.676 105.521 73.676C106.337 73.676 107.053 73.864 107.669 74.24C108.285 74.608 108.789 75.1 109.181 75.716V74ZM105.545 83.9C106.241 83.9 106.849 83.724 107.369 83.372C107.889 83.012 108.293 82.536 108.581 81.944C108.869 81.352 109.013 80.704 109.013 80C109.013 79.28 108.865 78.628 108.569 78.044C108.281 77.452 107.877 76.98 107.357 76.628C106.837 76.268 106.233 76.088 105.545 76.088C104.873 76.088 104.257 76.264 103.697 76.616C103.145 76.968 102.705 77.44 102.377 78.032C102.049 78.624 101.885 79.28 101.885 80C101.885 80.72 102.049 81.376 102.377 81.968C102.713 82.56 103.157 83.032 103.709 83.384C104.269 83.728 104.881 83.9 105.545 83.9ZM119.626 86.312C118.522 86.312 117.514 86.028 116.602 85.46C115.698 84.892 114.974 84.132 114.43 83.18C113.894 82.22 113.626 81.16 113.626 80C113.626 79.12 113.782 78.3 114.094 77.54C114.406 76.772 114.834 76.1 115.378 75.524C115.93 74.94 116.57 74.484 117.298 74.156C118.026 73.828 118.802 73.664 119.626 73.664C120.546 73.664 121.39 73.856 122.158 74.24C122.926 74.616 123.582 75.14 124.126 75.812C124.67 76.476 125.07 77.244 125.326 78.116C125.582 78.98 125.658 79.9 125.554 80.876H116.302C116.406 81.428 116.606 81.928 116.902 82.376C117.206 82.816 117.59 83.164 118.054 83.42C118.526 83.676 119.05 83.808 119.626 83.816C120.234 83.816 120.786 83.664 121.282 83.36C121.786 83.056 122.198 82.636 122.518 82.1L125.05 82.688C124.57 83.752 123.846 84.624 122.878 85.304C121.91 85.976 120.826 86.312 119.626 86.312ZM116.218 78.968H123.034C122.954 78.392 122.75 77.872 122.422 77.408C122.102 76.936 121.698 76.564 121.21 76.292C120.73 76.012 120.202 75.872 119.626 75.872C119.058 75.872 118.53 76.008 118.042 76.28C117.562 76.552 117.162 76.924 116.842 77.396C116.53 77.86 116.322 78.384 116.218 78.968ZM138.342 78.476V86H135.846V79.088C135.846 78.552 135.714 78.064 135.45 77.624C135.194 77.184 134.846 76.836 134.406 76.58C133.974 76.316 133.486 76.184 132.942 76.184C132.414 76.184 131.93 76.316 131.49 76.58C131.05 76.836 130.698 77.184 130.434 77.624C130.17 78.064 130.038 78.552 130.038 79.088V86H127.542V74H130.038V75.272C130.454 74.776 130.966 74.384 131.574 74.096C132.182 73.808 132.838 73.664 133.542 73.664C134.43 73.664 135.238 73.88 135.966 74.312C136.694 74.744 137.27 75.324 137.694 76.052C138.126 76.78 138.342 77.588 138.342 78.476ZM147.073 76.496H144.553L144.541 86H142.045L142.057 76.496H140.149V74H142.057L142.045 70.232H144.541L144.553 74H147.073V76.496Z" fill="#0C1021"/>
<rect x="304" y="61" width="131" height="33" rx="16" fill="#3DEC82" fill-opacity="0.15"/>
<path d="M325.604 82.168L324.435 80.999C324.024 81.363 323.558 81.6477 323.035 81.853C322.517 82.0583 321.969 82.161 321.39 82.161C320.723 82.161 320.097 82.0303 319.514 81.769C318.931 81.503 318.417 81.139 317.974 80.677C317.531 80.2103 317.183 79.669 316.931 79.053C316.684 78.437 316.56 77.779 316.56 77.079C316.56 76.379 316.684 75.7233 316.931 75.112C317.183 74.496 317.531 73.9547 317.974 73.488C318.417 73.0213 318.931 72.6573 319.514 72.396C320.097 72.13 320.723 71.997 321.39 71.997C322.057 71.997 322.68 72.13 323.259 72.396C323.842 72.6573 324.356 73.0213 324.799 73.488C325.242 73.9547 325.588 74.496 325.835 75.112C326.087 75.7233 326.213 76.379 326.213 77.079C326.213 77.695 326.115 78.276 325.919 78.822C325.723 79.368 325.452 79.8603 325.107 80.299L326.297 81.475L325.604 82.168ZM321.39 81.181C321.815 81.181 322.23 81.104 322.636 80.95C323.047 80.796 323.408 80.5767 323.721 80.292L322.272 78.843L322.965 78.143L324.386 79.571C324.661 79.221 324.871 78.8313 325.016 78.402C325.161 77.9727 325.233 77.5317 325.233 77.079C325.233 76.5143 325.133 75.9847 324.932 75.49C324.731 74.9953 324.454 74.559 324.099 74.181C323.749 73.803 323.341 73.509 322.874 73.299C322.412 73.0843 321.917 72.977 321.39 72.977C320.853 72.977 320.352 73.0867 319.885 73.306C319.423 73.5207 319.015 73.8193 318.66 74.202C318.31 74.58 318.035 75.0163 317.834 75.511C317.638 76.001 317.54 76.5237 317.54 77.079C317.54 77.6437 317.64 78.1733 317.841 78.668C318.042 79.1627 318.319 79.599 318.674 79.977C319.029 80.355 319.437 80.6513 319.899 80.866C320.366 81.076 320.863 81.181 321.39 81.181ZM327.333 79.319V75H328.313V79.123C328.313 79.5057 328.407 79.8533 328.593 80.166C328.78 80.4787 329.03 80.7283 329.342 80.915C329.66 81.1017 330.007 81.195 330.385 81.195C330.768 81.195 331.113 81.1017 331.421 80.915C331.734 80.7283 331.984 80.4787 332.17 80.166C332.357 79.8533 332.45 79.5057 332.45 79.123V75H333.43L333.437 82H332.457L332.45 81.02C332.203 81.3747 331.881 81.657 331.484 81.867C331.092 82.077 330.663 82.182 330.196 82.182C329.669 82.182 329.188 82.0537 328.754 81.797C328.32 81.5403 327.975 81.195 327.718 80.761C327.462 80.327 327.333 79.8463 327.333 79.319ZM340.532 75H341.512V82H340.532L340.497 80.698C340.268 81.1413 339.948 81.5007 339.538 81.776C339.127 82.0467 338.637 82.182 338.068 82.182C337.554 82.182 337.074 82.0863 336.626 81.895C336.178 81.699 335.783 81.4307 335.443 81.09C335.102 80.7493 334.836 80.355 334.645 79.907C334.453 79.459 334.358 78.9783 334.358 78.465C334.358 77.961 334.451 77.4873 334.638 77.044C334.829 76.6007 335.09 76.211 335.422 75.875C335.758 75.539 336.145 75.2777 336.584 75.091C337.027 74.8997 337.501 74.804 338.005 74.804C338.588 74.804 339.097 74.944 339.531 75.224C339.965 75.4993 340.31 75.861 340.567 76.309L340.532 75ZM338.047 81.23C338.546 81.23 338.975 81.1087 339.335 80.866C339.694 80.6187 339.969 80.2873 340.161 79.872C340.357 79.4567 340.455 78.9993 340.455 78.5C340.455 77.9867 340.357 77.5247 340.161 77.114C339.965 76.6987 339.687 76.3697 339.328 76.127C338.968 75.8843 338.541 75.763 338.047 75.763C337.552 75.763 337.099 75.8867 336.689 76.134C336.283 76.3767 335.958 76.7057 335.716 77.121C335.478 77.5363 335.359 77.996 335.359 78.5C335.359 79.0087 335.482 79.4707 335.73 79.886C335.977 80.2967 336.304 80.6233 336.71 80.866C337.12 81.1087 337.566 81.23 338.047 81.23ZM343.008 82V71.5H343.988V82H343.008ZM345.674 75H346.654V82H345.674V75ZM346.171 73.775C346.012 73.775 345.877 73.7237 345.765 73.621C345.658 73.5137 345.604 73.3807 345.604 73.222C345.604 73.0633 345.658 72.9327 345.765 72.83C345.877 72.7227 346.012 72.669 346.171 72.669C346.325 72.669 346.456 72.7227 346.563 72.83C346.675 72.9327 346.731 73.0633 346.731 73.222C346.731 73.3807 346.677 73.5137 346.57 73.621C346.463 73.7237 346.33 73.775 346.171 73.775ZM349.789 73.173V75H351.889V75.98H349.789V82H348.809V75.98H347.85V75H348.809V73.173C348.809 72.8323 348.891 72.5243 349.054 72.249C349.222 71.969 349.446 71.7473 349.726 71.584C350.006 71.416 350.316 71.332 350.657 71.332C350.904 71.332 351.142 71.381 351.371 71.479C351.604 71.577 351.812 71.7217 351.994 71.913L351.294 72.606C351.219 72.5127 351.124 72.4403 351.007 72.389C350.895 72.3377 350.778 72.312 350.657 72.312C350.419 72.312 350.214 72.396 350.041 72.564C349.873 72.732 349.789 72.935 349.789 73.173ZM352.961 75H353.941V82H352.961V75ZM353.458 73.775C353.299 73.775 353.164 73.7237 353.052 73.621C352.945 73.5137 352.891 73.3807 352.891 73.222C352.891 73.0633 352.945 72.9327 353.052 72.83C353.164 72.7227 353.299 72.669 353.458 72.669C353.612 72.669 353.743 72.7227 353.85 72.83C353.962 72.9327 354.018 73.0633 354.018 73.222C354.018 73.3807 353.964 73.5137 353.857 73.621C353.75 73.7237 353.617 73.775 353.458 73.775ZM360.557 80.243L361.432 80.719C361.114 81.1623 360.711 81.517 360.221 81.783C359.735 82.049 359.208 82.182 358.639 82.182C357.995 82.182 357.407 82.0163 356.875 81.685C356.347 81.3537 355.925 80.9103 355.608 80.355C355.295 79.795 355.139 79.1767 355.139 78.5C355.139 77.9867 355.23 77.5083 355.412 77.065C355.594 76.617 355.843 76.225 356.161 75.889C356.483 75.5483 356.856 75.2823 357.281 75.091C357.705 74.8997 358.158 74.804 358.639 74.804C359.208 74.804 359.735 74.937 360.221 75.203C360.711 75.469 361.114 75.826 361.432 76.274L360.557 76.743C360.314 76.435 360.022 76.1993 359.682 76.036C359.341 75.868 358.993 75.784 358.639 75.784C358.167 75.784 357.74 75.91 357.358 76.162C356.975 76.4093 356.672 76.7383 356.448 77.149C356.228 77.5597 356.119 78.01 356.119 78.5C356.119 78.99 356.231 79.4403 356.455 79.851C356.683 80.2617 356.989 80.5907 357.372 80.838C357.754 81.0807 358.177 81.202 358.639 81.202C359.021 81.202 359.381 81.1133 359.717 80.936C360.053 80.7587 360.333 80.5277 360.557 80.243ZM368.354 75H369.334V82H368.354L368.319 80.698C368.09 81.1413 367.77 81.5007 367.36 81.776C366.949 82.0467 366.459 82.182 365.89 82.182C365.376 82.182 364.896 82.0863 364.448 81.895C364 81.699 363.605 81.4307 363.265 81.09C362.924 80.7493 362.658 80.355 362.467 79.907C362.275 79.459 362.18 78.9783 362.18 78.465C362.18 77.961 362.273 77.4873 362.46 77.044C362.651 76.6007 362.912 76.211 363.244 75.875C363.58 75.539 363.967 75.2777 364.406 75.091C364.849 74.8997 365.323 74.804 365.827 74.804C366.41 74.804 366.919 74.944 367.353 75.224C367.787 75.4993 368.132 75.861 368.389 76.309L368.354 75ZM365.869 81.23C366.368 81.23 366.797 81.1087 367.157 80.866C367.516 80.6187 367.791 80.2873 367.983 79.872C368.179 79.4567 368.277 78.9993 368.277 78.5C368.277 77.9867 368.179 77.5247 367.983 77.114C367.787 76.6987 367.509 76.3697 367.15 76.127C366.79 75.8843 366.363 75.763 365.869 75.763C365.374 75.763 364.921 75.8867 364.511 76.134C364.105 76.3767 363.78 76.7057 363.538 77.121C363.3 77.5363 363.181 77.996 363.181 78.5C363.181 79.0087 363.304 79.4707 363.552 79.886C363.799 80.2967 364.126 80.6233 364.532 80.866C364.942 81.1087 365.388 81.23 365.869 81.23ZM374.312 75.98H372.639L372.632 82H371.652L371.659 75.98H370.392V75H371.659L371.652 72.802H372.632L372.639 75H374.312V75.98ZM375.506 75H376.486V82H375.506V75ZM376.003 73.775C375.844 73.775 375.709 73.7237 375.597 73.621C375.49 73.5137 375.436 73.3807 375.436 73.222C375.436 73.0633 375.49 72.9327 375.597 72.83C375.709 72.7227 375.844 72.669 376.003 72.669C376.157 72.669 376.288 72.7227 376.395 72.83C376.507 72.9327 376.563 73.0633 376.563 73.222C376.563 73.3807 376.509 73.5137 376.402 73.621C376.295 73.7237 376.162 73.775 376.003 73.775ZM381.184 82.182C380.54 82.182 379.952 82.0163 379.42 81.685C378.892 81.3537 378.47 80.9103 378.153 80.355C377.84 79.795 377.684 79.1767 377.684 78.5C377.684 77.9867 377.775 77.5083 377.957 77.065C378.139 76.617 378.388 76.225 378.706 75.889C379.028 75.5483 379.401 75.2823 379.826 75.091C380.25 74.8997 380.703 74.804 381.184 74.804C381.828 74.804 382.413 74.9697 382.941 75.301C383.473 75.6323 383.895 76.078 384.208 76.638C384.525 77.198 384.684 77.8187 384.684 78.5C384.684 79.0087 384.593 79.4847 384.411 79.928C384.229 80.3713 383.977 80.7633 383.655 81.104C383.337 81.44 382.966 81.7037 382.542 81.895C382.122 82.0863 381.669 82.182 381.184 82.182ZM381.184 81.202C381.66 81.202 382.087 81.0783 382.465 80.831C382.847 80.579 383.148 80.2477 383.368 79.837C383.592 79.4263 383.704 78.9807 383.704 78.5C383.704 78.01 383.592 77.5597 383.368 77.149C383.144 76.7337 382.84 76.4023 382.458 76.155C382.08 75.9077 381.655 75.784 381.184 75.784C380.708 75.784 380.278 75.91 379.896 76.162C379.518 76.4093 379.217 76.7383 378.993 77.149C378.773 77.5597 378.664 78.01 378.664 78.5C378.664 79.004 378.778 79.4613 379.007 79.872C379.235 80.278 379.541 80.6023 379.924 80.845C380.306 81.083 380.726 81.202 381.184 81.202ZM391.973 77.667V82H390.993V77.863C390.993 77.4803 390.9 77.1327 390.713 76.82C390.527 76.5073 390.277 76.2577 389.964 76.071C389.652 75.8843 389.304 75.791 388.921 75.791C388.543 75.791 388.196 75.8843 387.878 76.071C387.566 76.2577 387.316 76.5073 387.129 76.82C386.943 77.1327 386.849 77.4803 386.849 77.863V82H385.869V75H386.849V75.966C387.097 75.6113 387.419 75.329 387.815 75.119C388.212 74.909 388.644 74.804 389.11 74.804C389.638 74.804 390.118 74.9323 390.552 75.189C390.986 75.4457 391.332 75.791 391.588 76.225C391.845 76.659 391.973 77.1397 391.973 77.667ZM398.187 73.173V75H400.287V75.98H398.187V82H397.207V75.98H396.248V75H397.207V73.173C397.207 72.8323 397.289 72.5243 397.452 72.249C397.62 71.969 397.844 71.7473 398.124 71.584C398.404 71.416 398.715 71.332 399.055 71.332C399.303 71.332 399.541 71.381 399.769 71.479C400.003 71.577 400.21 71.7217 400.392 71.913L399.692 72.606C399.618 72.5127 399.522 72.4403 399.405 72.389C399.293 72.3377 399.177 72.312 399.055 72.312C398.817 72.312 398.612 72.396 398.439 72.564C398.271 72.732 398.187 72.935 398.187 73.173ZM401.483 82V71.5H402.463V82H401.483ZM407.174 82.182C406.53 82.182 405.942 82.0163 405.41 81.685C404.883 81.3537 404.46 80.9103 404.143 80.355C403.83 79.795 403.674 79.1767 403.674 78.5C403.674 77.9867 403.765 77.5083 403.947 77.065C404.129 76.617 404.379 76.225 404.696 75.889C405.018 75.5483 405.391 75.2823 405.816 75.091C406.241 74.8997 406.693 74.804 407.174 74.804C407.818 74.804 408.404 74.9697 408.931 75.301C409.463 75.6323 409.885 76.078 410.198 76.638C410.515 77.198 410.674 77.8187 410.674 78.5C410.674 79.0087 410.583 79.4847 410.401 79.928C410.219 80.3713 409.967 80.7633 409.645 81.104C409.328 81.44 408.957 81.7037 408.532 81.895C408.112 82.0863 407.659 82.182 407.174 82.182ZM407.174 81.202C407.65 81.202 408.077 81.0783 408.455 80.831C408.838 80.579 409.139 80.2477 409.358 79.837C409.582 79.4263 409.694 78.9807 409.694 78.5C409.694 78.01 409.582 77.5597 409.358 77.149C409.134 76.7337 408.831 76.4023 408.448 76.155C408.07 75.9077 407.645 75.784 407.174 75.784C406.698 75.784 406.269 75.91 405.886 76.162C405.508 76.4093 405.207 76.7383 404.983 77.149C404.764 77.5597 404.654 78.01 404.654 78.5C404.654 79.004 404.768 79.4613 404.997 79.872C405.226 80.278 405.531 80.6023 405.914 80.845C406.297 81.083 406.717 81.202 407.174 81.202ZM414.492 82H413.484L411.139 75H412.098L414.002 80.642L415.892 75H416.928L418.818 80.642L420.708 75H421.674L419.329 82H418.314L416.396 76.302L414.492 82Z" fill="#28BC62"/>
<rect x="56" y="118" width="24" height="24" rx="12" fill="#4268FF"/>
<path d="M67.7575 134.5V125.68H66.7075L66.9875 124.7H68.7375V134.5H67.7575Z" fill="white"/>
<rect x="67.5" y="142" width="1" height="12" fill="#4268FF"/>
<path d="M90.712 123.8H92.656L96.728 135H94.968L94.192 132.872H89.176L88.408 135H86.64L90.712 123.8ZM89.792 131.208H93.576L91.68 126.008L89.792 131.208ZM102.762 132.728L104.25 133.536C103.887 134.043 103.426 134.448 102.866 134.752C102.311 135.056 101.709 135.208 101.058 135.208C100.322 135.208 99.6501 135.019 99.0421 134.64C98.4395 134.261 97.9568 133.755 97.5941 133.12C97.2368 132.48 97.0581 131.773 97.0581 131C97.0581 130.413 97.1621 129.867 97.3701 129.36C97.5781 128.848 97.8635 128.4 98.2261 128.016C98.5941 127.627 99.0208 127.323 99.5061 127.104C99.9915 126.885 100.509 126.776 101.058 126.776C101.709 126.776 102.311 126.928 102.866 127.232C103.426 127.536 103.887 127.944 104.25 128.456L102.762 129.264C102.538 128.997 102.277 128.795 101.978 128.656C101.679 128.512 101.373 128.44 101.058 128.44C100.621 128.44 100.223 128.56 99.8661 128.8C99.5141 129.035 99.2341 129.347 99.0261 129.736C98.8235 130.12 98.7221 130.541 98.7221 131C98.7221 131.453 98.8261 131.875 99.0341 132.264C99.2421 132.648 99.5221 132.957 99.8741 133.192C100.231 133.427 100.626 133.544 101.058 133.544C101.389 133.544 101.703 133.469 102.002 133.32C102.301 133.171 102.554 132.973 102.762 132.728ZM110.715 132.728L112.203 133.536C111.841 134.043 111.379 134.448 110.819 134.752C110.265 135.056 109.662 135.208 109.011 135.208C108.275 135.208 107.603 135.019 106.995 134.64C106.393 134.261 105.91 133.755 105.547 133.12C105.19 132.48 105.011 131.773 105.011 131C105.011 130.413 105.115 129.867 105.323 129.36C105.531 128.848 105.817 128.4 106.179 128.016C106.547 127.627 106.974 127.323 107.459 127.104C107.945 126.885 108.462 126.776 109.011 126.776C109.662 126.776 110.265 126.928 110.819 127.232C111.379 127.536 111.841 127.944 112.203 128.456L110.715 129.264C110.491 128.997 110.23 128.795 109.931 128.656C109.633 128.512 109.326 128.44 109.011 128.44C108.574 128.44 108.177 128.56 107.819 128.8C107.467 129.035 107.187 129.347 106.979 129.736C106.777 130.12 106.675 130.541 106.675 131C106.675 131.453 106.779 131.875 106.987 132.264C107.195 132.648 107.475 132.957 107.827 133.192C108.185 133.427 108.579 133.544 109.011 133.544C109.342 133.544 109.657 133.469 109.955 133.32C110.254 133.171 110.507 132.973 110.715 132.728ZM116.964 135.208C116.228 135.208 115.556 135.019 114.948 134.64C114.346 134.261 113.863 133.755 113.5 133.12C113.143 132.48 112.964 131.773 112.964 131C112.964 130.413 113.068 129.867 113.276 129.36C113.484 128.848 113.77 128.4 114.132 128.016C114.5 127.627 114.927 127.323 115.412 127.104C115.898 126.885 116.415 126.776 116.964 126.776C117.7 126.776 118.37 126.965 118.972 127.344C119.58 127.723 120.063 128.232 120.42 128.872C120.783 129.512 120.964 130.221 120.964 131C120.964 131.581 120.86 132.125 120.652 132.632C120.444 133.139 120.156 133.587 119.788 133.976C119.426 134.36 119.002 134.661 118.516 134.88C118.036 135.099 117.519 135.208 116.964 135.208ZM116.964 133.544C117.407 133.544 117.804 133.427 118.156 133.192C118.508 132.957 118.786 132.648 118.988 132.264C119.196 131.875 119.3 131.453 119.3 131C119.3 130.536 119.194 130.109 118.98 129.72C118.772 129.331 118.492 129.021 118.14 128.792C117.788 128.557 117.396 128.44 116.964 128.44C116.527 128.44 116.13 128.557 115.772 128.792C115.42 129.027 115.14 129.339 114.932 129.728C114.73 130.117 114.628 130.541 114.628 131C114.628 131.475 114.735 131.904 114.948 132.288C115.162 132.672 115.444 132.979 115.796 133.208C116.154 133.432 116.543 133.544 116.964 133.544ZM121.781 132V127H123.445V131.592C123.445 131.949 123.533 132.275 123.709 132.568C123.885 132.861 124.119 133.096 124.413 133.272C124.706 133.443 125.029 133.528 125.381 133.528C125.738 133.528 126.061 133.443 126.349 133.272C126.642 133.096 126.874 132.861 127.045 132.568C127.221 132.275 127.309 131.949 127.309 131.592V127H128.973L128.981 135H127.317L127.309 134.136C127.037 134.467 126.698 134.728 126.293 134.92C125.887 135.112 125.453 135.208 124.989 135.208C124.397 135.208 123.858 135.064 123.373 134.776C122.887 134.488 122.501 134.101 122.213 133.616C121.925 133.131 121.781 132.592 121.781 132ZM137.785 129.984V135H136.121V130.392C136.121 130.035 136.033 129.709 135.857 129.416C135.686 129.123 135.454 128.891 135.161 128.72C134.873 128.544 134.548 128.456 134.185 128.456C133.833 128.456 133.51 128.544 133.217 128.72C132.924 128.891 132.689 129.123 132.513 129.416C132.337 129.709 132.249 130.035 132.249 130.392V135H130.585V127H132.249V127.848C132.526 127.517 132.868 127.256 133.273 127.064C133.678 126.872 134.116 126.776 134.585 126.776C135.177 126.776 135.716 126.92 136.201 127.208C136.686 127.496 137.07 127.883 137.353 128.368C137.641 128.853 137.785 129.392 137.785 129.984ZM143.606 128.664H141.926L141.918 135H140.254L140.262 128.664H138.99V127H140.262L140.254 124.488H141.918L141.926 127H143.606V128.664Z" fill="#0C1021"/>
<rect x="56.5" y="154.5" width="23" height="23" rx="11.5" stroke="#4268FF"/>
<path d="M64.7455 170.5V169.632C65.1282 169.277 65.5482 168.89 66.0055 168.47C66.4629 168.045 66.9155 167.609 67.3635 167.161C67.8162 166.708 68.2292 166.263 68.6025 165.824C68.9759 165.381 69.2745 164.963 69.4985 164.571C69.7272 164.174 69.8415 163.824 69.8415 163.521C69.8415 163.152 69.7505 162.816 69.5685 162.513C69.3912 162.205 69.1509 161.96 68.8475 161.778C68.5489 161.591 68.2152 161.498 67.8465 161.498C67.4779 161.498 67.1395 161.591 66.8315 161.778C66.5282 161.96 66.2855 162.205 66.1035 162.513C65.9215 162.816 65.8305 163.152 65.8305 163.521H64.8505C64.8505 162.961 64.9859 162.455 65.2565 162.002C65.5319 161.549 65.8959 161.19 66.3485 160.924C66.8012 160.653 67.3005 160.518 67.8465 160.518C68.3925 160.518 68.8895 160.653 69.3375 160.924C69.7902 161.195 70.1495 161.556 70.4155 162.009C70.6862 162.462 70.8215 162.966 70.8215 163.521C70.8215 163.852 70.7329 164.216 70.5555 164.613C70.3829 165.005 70.1472 165.413 69.8485 165.838C69.5499 166.258 69.2139 166.683 68.8405 167.112C68.4672 167.541 68.0775 167.961 67.6715 168.372C67.2655 168.778 66.8712 169.161 66.4885 169.52H70.9685V170.5H64.7455Z" fill="#535662"/>
<rect x="67.5" y="178" width="1" height="12" fill="#D9D9D9"/>
<path d="M86.96 171V159.8H90.544C91.1413 159.8 91.68 159.947 92.16 160.24C92.64 160.528 93.0213 160.92 93.304 161.416C93.592 161.907 93.736 162.459 93.736 163.072C93.736 163.691 93.5893 164.248 93.296 164.744C93.008 165.24 92.6213 165.632 92.136 165.92C91.656 166.208 91.1253 166.352 90.544 166.352H88.08V171H86.96ZM88.08 165.232H90.456C90.8507 165.232 91.2107 165.136 91.536 164.944C91.8667 164.747 92.128 164.483 92.32 164.152C92.5173 163.816 92.616 163.437 92.616 163.016C92.616 162.595 92.5173 162.219 92.32 161.888C92.128 161.552 91.8667 161.288 91.536 161.096C91.2107 160.899 90.8507 160.8 90.456 160.8H88.08V165.232ZM101.255 163H102.375V171H101.255L101.215 169.512C100.953 170.019 100.588 170.429 100.119 170.744C99.6494 171.053 99.0894 171.208 98.4388 171.208C97.8521 171.208 97.3028 171.099 96.7908 170.88C96.2788 170.656 95.8281 170.349 95.4388 169.96C95.0494 169.571 94.7454 169.12 94.5268 168.608C94.3081 168.096 94.1988 167.547 94.1988 166.96C94.1988 166.384 94.3054 165.843 94.5188 165.336C94.7374 164.829 95.0361 164.384 95.4148 164C95.7988 163.616 96.2414 163.317 96.7428 163.104C97.2494 162.885 97.7908 162.776 98.3668 162.776C99.0334 162.776 99.6148 162.936 100.111 163.256C100.607 163.571 101.001 163.984 101.295 164.496L101.255 163ZM98.4148 170.12C98.9854 170.12 99.4761 169.981 99.8868 169.704C100.297 169.421 100.612 169.043 100.831 168.568C101.055 168.093 101.167 167.571 101.167 167C101.167 166.413 101.055 165.885 100.831 165.416C100.607 164.941 100.289 164.565 99.8788 164.288C99.4681 164.011 98.9801 163.872 98.4148 163.872C97.8494 163.872 97.3321 164.013 96.8628 164.296C96.3988 164.573 96.0281 164.949 95.7508 165.424C95.4788 165.899 95.3428 166.424 95.3428 167C95.3428 167.581 95.4841 168.109 95.7668 168.584C96.0494 169.053 96.4228 169.427 96.8868 169.704C97.3561 169.981 97.8654 170.12 98.4148 170.12ZM109.268 163H110.452L106.076 175H104.884L106.34 171L103.468 163H104.692L106.9 169.456L109.268 163ZM111.913 171V163H113.033V164.104C113.321 163.699 113.689 163.376 114.137 163.136C114.585 162.896 115.076 162.776 115.609 162.776C116.212 162.776 116.764 162.925 117.265 163.224C117.766 163.517 118.158 163.909 118.441 164.4C118.724 163.909 119.113 163.517 119.609 163.224C120.105 162.925 120.654 162.776 121.257 162.776C121.86 162.776 122.409 162.923 122.905 163.216C123.401 163.509 123.796 163.904 124.089 164.4C124.382 164.896 124.529 165.445 124.529 166.048V171H123.409V166.296C123.409 165.869 123.305 165.475 123.097 165.112C122.889 164.749 122.609 164.459 122.257 164.24C121.91 164.016 121.524 163.904 121.097 163.904C120.67 163.904 120.281 164.008 119.929 164.216C119.582 164.419 119.305 164.701 119.097 165.064C118.889 165.421 118.785 165.832 118.785 166.296V171H117.665V166.296C117.665 165.832 117.561 165.421 117.353 165.064C117.145 164.701 116.865 164.419 116.513 164.216C116.161 164.008 115.772 163.904 115.345 163.904C114.924 163.904 114.537 164.016 114.185 164.24C113.833 164.459 113.553 164.749 113.345 165.112C113.137 165.475 113.033 165.869 113.033 166.296V171H111.913ZM129.496 171.208C128.76 171.208 128.088 171.019 127.48 170.64C126.877 170.261 126.394 169.755 126.032 169.12C125.674 168.48 125.496 167.773 125.496 167C125.496 166.413 125.6 165.867 125.808 165.36C126.016 164.848 126.301 164.4 126.664 164.016C127.032 163.627 127.458 163.323 127.944 163.104C128.429 162.885 128.946 162.776 129.496 162.776C130.088 162.776 130.632 162.893 131.128 163.128C131.629 163.363 132.058 163.691 132.416 164.112C132.778 164.533 133.05 165.027 133.232 165.592C133.418 166.157 133.496 166.768 133.464 167.424H126.68C126.744 167.931 126.904 168.384 127.16 168.784C127.421 169.184 127.752 169.501 128.152 169.736C128.557 169.965 129.005 170.083 129.496 170.088C130.029 170.088 130.509 169.949 130.936 169.672C131.368 169.395 131.714 169.013 131.976 168.528L133.112 168.792C132.792 169.501 132.309 170.083 131.664 170.536C131.018 170.984 130.296 171.208 129.496 171.208ZM126.648 166.52H132.336C132.298 166.024 132.146 165.571 131.88 165.16C131.618 164.744 131.28 164.413 130.864 164.168C130.448 163.917 129.992 163.792 129.496 163.792C129 163.792 128.546 163.915 128.136 164.16C127.725 164.4 127.389 164.728 127.128 165.144C126.866 165.555 126.706 166.013 126.648 166.52ZM141.811 166.048V171H140.691V166.272C140.691 165.835 140.584 165.437 140.371 165.08C140.158 164.723 139.872 164.437 139.515 164.224C139.158 164.011 138.76 163.904 138.323 163.904C137.891 163.904 137.494 164.011 137.131 164.224C136.774 164.437 136.488 164.723 136.275 165.08C136.062 165.437 135.955 165.835 135.955 166.272V171H134.835V163H135.955V164.104C136.238 163.699 136.606 163.376 137.059 163.136C137.512 162.896 138.006 162.776 138.539 162.776C139.142 162.776 139.691 162.923 140.187 163.216C140.683 163.509 141.078 163.904 141.371 164.4C141.664 164.896 141.811 165.445 141.811 166.048ZM147.501 164.12H145.589L145.581 171H144.461L144.469 164.12H143.021V163H144.469L144.461 160.488H145.581L145.589 163H147.501V164.12ZM159.357 159H160.477V171H159.357V169.504C159.079 170.016 158.698 170.429 158.213 170.744C157.733 171.053 157.162 171.208 156.501 171.208C155.919 171.208 155.375 171.099 154.869 170.88C154.362 170.661 153.914 170.36 153.525 169.976C153.141 169.587 152.839 169.139 152.621 168.632C152.402 168.125 152.293 167.581 152.293 167C152.293 166.419 152.402 165.875 152.621 165.368C152.839 164.856 153.141 164.408 153.525 164.024C153.914 163.635 154.362 163.331 154.869 163.112C155.375 162.893 155.919 162.784 156.501 162.784C157.162 162.784 157.733 162.941 158.213 163.256C158.698 163.565 159.079 163.973 159.357 164.48V159ZM156.509 170.12C157.079 170.12 157.57 169.981 157.981 169.704C158.391 169.421 158.706 169.043 158.925 168.568C159.149 168.093 159.261 167.571 159.261 167C159.261 166.413 159.149 165.885 158.925 165.416C158.701 164.941 158.383 164.565 157.973 164.288C157.562 164.011 157.074 163.872 156.509 163.872C155.943 163.872 155.429 164.013 154.965 164.296C154.501 164.573 154.13 164.949 153.853 165.424C153.575 165.899 153.437 166.424 153.437 167C153.437 167.581 153.578 168.109 153.861 168.584C154.143 169.053 154.517 169.427 154.981 169.704C155.45 169.981 155.959 170.12 156.509 170.12ZM165.855 171.208C165.119 171.208 164.447 171.019 163.839 170.64C163.236 170.261 162.754 169.755 162.391 169.12C162.034 168.48 161.855 167.773 161.855 167C161.855 166.413 161.959 165.867 162.167 165.36C162.375 164.848 162.66 164.4 163.023 164.016C163.391 163.627 163.818 163.323 164.303 163.104C164.788 162.885 165.306 162.776 165.855 162.776C166.447 162.776 166.991 162.893 167.487 163.128C167.988 163.363 168.418 163.691 168.775 164.112C169.138 164.533 169.41 165.027 169.591 165.592C169.778 166.157 169.855 166.768 169.823 167.424H163.039C163.103 167.931 163.263 168.384 163.519 168.784C163.78 169.184 164.111 169.501 164.511 169.736C164.916 169.965 165.364 170.083 165.855 170.088C166.388 170.088 166.868 169.949 167.295 169.672C167.727 169.395 168.074 169.013 168.335 168.528L169.471 168.792C169.151 169.501 168.668 170.083 168.023 170.536C167.378 170.984 166.655 171.208 165.855 171.208ZM163.007 166.52H168.695C168.658 166.024 168.506 165.571 168.239 165.16C167.978 164.744 167.639 164.413 167.223 164.168C166.807 163.917 166.351 163.792 165.855 163.792C165.359 163.792 164.906 163.915 164.495 164.16C164.084 164.4 163.748 164.728 163.487 165.144C163.226 165.555 163.066 166.013 163.007 166.52ZM175.142 164.12H173.23L173.222 171H172.102L172.11 164.12H170.662V163H172.11L172.102 160.488H173.222L173.23 163H175.142V164.12ZM182.927 163H184.047V171H182.927L182.887 169.512C182.625 170.019 182.26 170.429 181.791 170.744C181.321 171.053 180.761 171.208 180.111 171.208C179.524 171.208 178.975 171.099 178.463 170.88C177.951 170.656 177.5 170.349 177.111 169.96C176.721 169.571 176.417 169.12 176.199 168.608C175.98 168.096 175.871 167.547 175.871 166.96C175.871 166.384 175.977 165.843 176.191 165.336C176.409 164.829 176.708 164.384 177.087 164C177.471 163.616 177.913 163.317 178.415 163.104C178.921 162.885 179.463 162.776 180.039 162.776C180.705 162.776 181.287 162.936 181.783 163.256C182.279 163.571 182.673 163.984 182.967 164.496L182.927 163ZM180.087 170.12C180.657 170.12 181.148 169.981 181.559 169.704C181.969 169.421 182.284 169.043 182.503 168.568C182.727 168.093 182.839 167.571 182.839 167C182.839 166.413 182.727 165.885 182.503 165.416C182.279 164.941 181.961 164.565 181.551 164.288C181.14 164.011 180.652 163.872 180.087 163.872C179.521 163.872 179.004 164.013 178.535 164.296C178.071 164.573 177.7 164.949 177.423 165.424C177.151 165.899 177.015 166.424 177.015 167C177.015 167.581 177.156 168.109 177.439 168.584C177.721 169.053 178.095 169.427 178.559 169.704C179.028 169.981 179.537 170.12 180.087 170.12ZM185.648 163H186.768V171H185.648V163ZM186.216 161.6C186.034 161.6 185.88 161.541 185.752 161.424C185.629 161.301 185.568 161.149 185.568 160.968C185.568 160.787 185.629 160.637 185.752 160.52C185.88 160.397 186.034 160.336 186.216 160.336C186.392 160.336 186.541 160.397 186.664 160.52C186.792 160.637 186.856 160.787 186.856 160.968C186.856 161.149 186.794 161.301 186.672 161.424C186.549 161.541 186.397 161.6 186.216 161.6ZM188.757 171V159H189.877V171H188.757ZM194.276 171.152C193.838 171.141 193.412 171.061 192.996 170.912C192.58 170.763 192.217 170.56 191.908 170.304C191.598 170.048 191.377 169.757 191.244 169.432L192.212 169.016C192.297 169.224 192.454 169.416 192.684 169.592C192.918 169.763 193.185 169.901 193.484 170.008C193.782 170.109 194.078 170.16 194.372 170.16C194.697 170.16 195.001 170.107 195.284 170C195.566 169.893 195.796 169.741 195.972 169.544C196.153 169.341 196.244 169.104 196.244 168.832C196.244 168.539 196.148 168.309 195.956 168.144C195.764 167.973 195.521 167.84 195.228 167.744C194.934 167.643 194.633 167.547 194.324 167.456C193.758 167.301 193.26 167.131 192.828 166.944C192.396 166.757 192.057 166.52 191.812 166.232C191.572 165.939 191.452 165.563 191.452 165.104C191.452 164.619 191.588 164.2 191.86 163.848C192.137 163.491 192.497 163.216 192.94 163.024C193.388 162.827 193.865 162.728 194.372 162.728C195.022 162.728 195.614 162.869 196.148 163.152C196.686 163.435 197.076 163.811 197.316 164.28L196.412 164.816C196.316 164.597 196.164 164.408 195.956 164.248C195.748 164.088 195.51 163.963 195.244 163.872C194.982 163.781 194.716 163.733 194.444 163.728C194.102 163.723 193.785 163.773 193.492 163.88C193.198 163.981 192.961 164.133 192.78 164.336C192.604 164.539 192.516 164.787 192.516 165.08C192.516 165.373 192.604 165.597 192.78 165.752C192.956 165.901 193.193 166.024 193.492 166.12C193.796 166.211 194.137 166.317 194.516 166.44C195.001 166.595 195.457 166.771 195.884 166.968C196.31 167.165 196.654 167.411 196.916 167.704C197.177 167.997 197.305 168.368 197.3 168.816C197.3 169.296 197.156 169.715 196.868 170.072C196.58 170.429 196.206 170.704 195.748 170.896C195.289 171.083 194.798 171.168 194.276 171.152Z" fill="#535662"/>
<rect x="56.5" y="190.5" width="23" height="23" rx="11.5" stroke="#535662" stroke-opacity="0.15"/>
<path d="M67.9985 206.682C67.4012 206.682 66.8762 206.551 66.4235 206.29C65.9709 206.024 65.6162 205.669 65.3595 205.226C65.1075 204.783 64.9815 204.293 64.9815 203.756H65.9615C65.9615 204.111 66.0432 204.437 66.2065 204.736C66.3745 205.03 66.6102 205.266 66.9135 205.443C67.2169 205.616 67.5785 205.702 67.9985 205.702C68.3532 205.702 68.6845 205.616 68.9925 205.443C69.3052 205.266 69.5572 205.03 69.7485 204.736C69.9445 204.437 70.0425 204.111 70.0425 203.756C70.0425 203.313 69.9305 202.944 69.7065 202.65C69.4825 202.351 69.1745 202.13 68.7825 201.985C68.3905 201.836 67.9425 201.761 67.4385 201.761V200.949C68.1339 200.949 68.6915 200.802 69.1115 200.508C69.5362 200.209 69.7485 199.773 69.7485 199.199C69.7485 198.886 69.6622 198.602 69.4895 198.345C69.3215 198.088 69.0999 197.883 68.8245 197.729C68.5539 197.57 68.2622 197.491 67.9495 197.491C67.6369 197.491 67.3359 197.57 67.0465 197.729C66.7619 197.883 66.5285 198.088 66.3465 198.345C66.1692 198.602 66.0805 198.886 66.0805 199.199H65.1005C65.1005 198.83 65.1775 198.485 65.3315 198.163C65.4855 197.836 65.6955 197.549 65.9615 197.302C66.2275 197.055 66.5309 196.861 66.8715 196.721C67.2122 196.581 67.5692 196.511 67.9425 196.511C68.4325 196.511 68.8875 196.632 69.3075 196.875C69.7322 197.118 70.0752 197.442 70.3365 197.848C70.5979 198.254 70.7285 198.704 70.7285 199.199C70.7285 199.68 70.6049 200.114 70.3575 200.501C70.1102 200.888 69.7765 201.161 69.3565 201.32C69.7205 201.441 70.0262 201.626 70.2735 201.873C70.5209 202.116 70.7075 202.398 70.8335 202.72C70.9595 203.042 71.0225 203.387 71.0225 203.756C71.0225 204.293 70.8825 204.783 70.6025 205.226C70.3225 205.669 69.9515 206.024 69.4895 206.29C69.0322 206.551 68.5352 206.682 67.9985 206.682Z" fill="#535662"/>
<rect x="67.5" y="214" width="1" height="12" fill="#D9D9D9"/>
<path d="M92.144 207.208C91.3867 207.208 90.6747 207.059 90.008 206.76C89.3413 206.456 88.7547 206.04 88.248 205.512C87.7467 204.979 87.352 204.36 87.064 203.656C86.7813 202.952 86.64 202.2 86.64 201.4C86.64 200.6 86.7813 199.848 87.064 199.144C87.352 198.44 87.7467 197.824 88.248 197.296C88.7547 196.763 89.3413 196.347 90.008 196.048C90.6747 195.744 91.3867 195.592 92.144 195.592C93.0507 195.592 93.8853 195.803 94.648 196.224C95.4107 196.645 96.0427 197.205 96.544 197.904L95.552 198.44C95.1573 197.912 94.656 197.493 94.048 197.184C93.4453 196.869 92.8107 196.712 92.144 196.712C91.5307 196.712 90.9573 196.837 90.424 197.088C89.896 197.333 89.432 197.672 89.032 198.104C88.632 198.536 88.32 199.035 88.096 199.6C87.872 200.165 87.76 200.765 87.76 201.4C87.76 202.045 87.872 202.651 88.096 203.216C88.3253 203.781 88.64 204.28 89.04 204.712C89.4453 205.144 89.912 205.483 90.44 205.728C90.9733 205.968 91.5413 206.088 92.144 206.088C92.8373 206.088 93.48 205.931 94.072 205.616C94.6693 205.296 95.1627 204.88 95.552 204.368L96.544 204.904C96.0427 205.603 95.4107 206.163 94.648 206.584C93.8853 207 93.0507 207.208 92.144 207.208ZM101.261 207.208C100.525 207.208 99.8533 207.019 99.2453 206.64C98.6426 206.261 98.1599 205.755 97.7973 205.12C97.4399 204.48 97.2613 203.773 97.2613 203C97.2613 202.413 97.3653 201.867 97.5733 201.36C97.7813 200.848 98.0666 200.4 98.4293 200.016C98.7973 199.627 99.2239 199.323 99.7093 199.104C100.195 198.885 100.712 198.776 101.261 198.776C101.997 198.776 102.667 198.965 103.269 199.344C103.877 199.723 104.36 200.232 104.717 200.872C105.08 201.512 105.261 202.221 105.261 203C105.261 203.581 105.157 204.125 104.949 204.632C104.741 205.139 104.453 205.587 104.085 205.976C103.723 206.36 103.299 206.661 102.813 206.88C102.333 207.099 101.816 207.208 101.261 207.208ZM101.261 206.088C101.805 206.088 102.293 205.947 102.725 205.664C103.163 205.376 103.507 204.997 103.757 204.528C104.013 204.059 104.141 203.549 104.141 203C104.141 202.44 104.013 201.925 103.757 201.456C103.501 200.981 103.155 200.603 102.717 200.32C102.285 200.037 101.8 199.896 101.261 199.896C100.717 199.896 100.227 200.04 99.7893 200.328C99.3573 200.611 99.0133 200.987 98.7573 201.456C98.5066 201.925 98.3813 202.44 98.3813 203C98.3813 203.576 98.5119 204.099 98.7733 204.568C99.0346 205.032 99.3839 205.403 99.8213 205.68C100.259 205.952 100.739 206.088 101.261 206.088ZM106.218 203.936V199H107.338V203.712C107.338 204.149 107.445 204.547 107.658 204.904C107.871 205.261 108.157 205.547 108.514 205.76C108.877 205.973 109.274 206.08 109.706 206.08C110.143 206.08 110.538 205.973 110.89 205.76C111.247 205.547 111.533 205.261 111.746 204.904C111.959 204.547 112.066 204.149 112.066 203.712V199H113.186L113.194 207H112.074L112.066 205.88C111.783 206.285 111.415 206.608 110.962 206.848C110.514 207.088 110.023 207.208 109.49 207.208C108.887 207.208 108.338 207.061 107.842 206.768C107.346 206.475 106.951 206.08 106.658 205.584C106.365 205.088 106.218 204.539 106.218 203.936ZM121.764 202.048V207H120.644V202.272C120.644 201.835 120.537 201.437 120.324 201.08C120.111 200.723 119.825 200.437 119.468 200.224C119.111 200.011 118.713 199.904 118.276 199.904C117.844 199.904 117.447 200.011 117.084 200.224C116.727 200.437 116.441 200.723 116.228 201.08C116.015 201.437 115.908 201.835 115.908 202.272V207H114.788V199H115.908V200.104C116.191 199.699 116.559 199.376 117.012 199.136C117.465 198.896 117.959 198.776 118.492 198.776C119.095 198.776 119.644 198.923 120.14 199.216C120.636 199.509 121.031 199.904 121.324 200.4C121.617 200.896 121.764 201.445 121.764 202.048ZM127.454 200.12H125.542L125.534 207H124.414L124.422 200.12H122.974V199H124.422L124.414 196.488H125.534L125.542 199H127.454V200.12ZM128.882 207V199H130.002V200.104C130.285 199.699 130.653 199.376 131.106 199.136C131.559 198.896 132.053 198.776 132.586 198.776C132.895 198.776 133.194 198.816 133.482 198.896L133.026 200.008C132.802 199.939 132.583 199.904 132.37 199.904C131.938 199.904 131.541 200.011 131.178 200.224C130.821 200.437 130.535 200.723 130.322 201.08C130.109 201.437 130.002 201.835 130.002 202.272V207H128.882ZM139.971 199H141.155L136.779 211H135.587L137.043 207L134.171 199H135.395L137.603 205.456L139.971 199ZM150.121 207.208C149.385 207.208 148.713 207.019 148.105 206.64C147.502 206.261 147.019 205.755 146.657 205.12C146.299 204.48 146.121 203.773 146.121 203C146.121 202.413 146.225 201.867 146.433 201.36C146.641 200.848 146.926 200.4 147.289 200.016C147.657 199.627 148.083 199.323 148.569 199.104C149.054 198.885 149.571 198.776 150.121 198.776C150.857 198.776 151.526 198.965 152.129 199.344C152.737 199.723 153.219 200.232 153.577 200.872C153.939 201.512 154.121 202.221 154.121 203C154.121 203.581 154.017 204.125 153.809 204.632C153.601 205.139 153.313 205.587 152.945 205.976C152.582 206.36 152.158 206.661 151.673 206.88C151.193 207.099 150.675 207.208 150.121 207.208ZM150.121 206.088C150.665 206.088 151.153 205.947 151.585 205.664C152.022 205.376 152.366 204.997 152.617 204.528C152.873 204.059 153.001 203.549 153.001 203C153.001 202.44 152.873 201.925 152.617 201.456C152.361 200.981 152.014 200.603 151.577 200.32C151.145 200.037 150.659 199.896 150.121 199.896C149.577 199.896 149.086 200.04 148.649 200.328C148.217 200.611 147.873 200.987 147.617 201.456C147.366 201.925 147.241 202.44 147.241 203C147.241 203.576 147.371 204.099 147.633 204.568C147.894 205.032 148.243 205.403 148.681 205.68C149.118 205.952 149.598 206.088 150.121 206.088ZM157.21 196.912V199H159.61V200.12H157.21V207H156.09V200.12H154.994V199H156.09V196.912C156.09 196.523 156.183 196.171 156.37 195.856C156.562 195.536 156.818 195.283 157.138 195.096C157.458 194.904 157.812 194.808 158.202 194.808C158.484 194.808 158.756 194.864 159.018 194.976C159.284 195.088 159.522 195.253 159.73 195.472L158.93 196.264C158.844 196.157 158.735 196.075 158.602 196.016C158.474 195.957 158.34 195.928 158.202 195.928C157.93 195.928 157.695 196.024 157.498 196.216C157.306 196.408 157.21 196.64 157.21 196.912ZM168.261 207.208C167.525 207.208 166.853 207.019 166.245 206.64C165.643 206.261 165.16 205.755 164.797 205.12C164.44 204.48 164.261 203.773 164.261 203C164.261 202.413 164.365 201.867 164.573 201.36C164.781 200.848 165.067 200.4 165.429 200.016C165.797 199.627 166.224 199.323 166.709 199.104C167.195 198.885 167.712 198.776 168.261 198.776C168.997 198.776 169.667 198.965 170.269 199.344C170.877 199.723 171.36 200.232 171.717 200.872C172.08 201.512 172.261 202.221 172.261 203C172.261 203.581 172.157 204.125 171.949 204.632C171.741 205.139 171.453 205.587 171.085 205.976C170.723 206.36 170.299 206.661 169.813 206.88C169.333 207.099 168.816 207.208 168.261 207.208ZM168.261 206.088C168.805 206.088 169.293 205.947 169.725 205.664C170.163 205.376 170.507 204.997 170.757 204.528C171.013 204.059 171.141 203.549 171.141 203C171.141 202.44 171.013 201.925 170.757 201.456C170.501 200.981 170.155 200.603 169.717 200.32C169.285 200.037 168.8 199.896 168.261 199.896C167.717 199.896 167.227 200.04 166.789 200.328C166.357 200.611 166.013 200.987 165.757 201.456C165.507 201.925 165.381 202.44 165.381 203C165.381 203.576 165.512 204.099 165.773 204.568C166.035 205.032 166.384 205.403 166.821 205.68C167.259 205.952 167.739 206.088 168.261 206.088ZM174.736 211H173.616V199H174.736V200.496C175.014 199.989 175.392 199.579 175.872 199.264C176.352 198.949 176.923 198.792 177.584 198.792C178.166 198.792 178.71 198.901 179.216 199.12C179.728 199.339 180.176 199.643 180.56 200.032C180.944 200.416 181.246 200.861 181.464 201.368C181.683 201.875 181.792 202.419 181.792 203C181.792 203.581 181.683 204.128 181.464 204.64C181.246 205.152 180.944 205.603 180.56 205.992C180.176 206.376 179.728 206.677 179.216 206.896C178.71 207.115 178.166 207.224 177.584 207.224C176.923 207.224 176.352 207.067 175.872 206.752C175.392 206.437 175.014 206.027 174.736 205.52V211ZM177.576 199.88C177.016 199.88 176.528 200.021 176.112 200.304C175.702 200.581 175.384 200.955 175.16 201.424C174.936 201.893 174.824 202.419 174.824 203C174.824 203.571 174.934 204.093 175.152 204.568C175.376 205.043 175.694 205.421 176.104 205.704C176.52 205.987 177.011 206.128 177.576 206.128C178.131 206.128 178.64 205.989 179.104 205.712C179.574 205.435 179.95 205.061 180.232 204.592C180.515 204.117 180.656 203.587 180.656 203C180.656 202.429 180.518 201.909 180.24 201.44C179.963 200.965 179.592 200.587 179.128 200.304C178.664 200.021 178.147 199.88 177.576 199.88ZM186.589 207.208C185.853 207.208 185.181 207.019 184.573 206.64C183.971 206.261 183.488 205.755 183.125 205.12C182.768 204.48 182.589 203.773 182.589 203C182.589 202.413 182.693 201.867 182.901 201.36C183.109 200.848 183.395 200.4 183.757 200.016C184.125 199.627 184.552 199.323 185.037 199.104C185.523 198.885 186.04 198.776 186.589 198.776C187.181 198.776 187.725 198.893 188.221 199.128C188.723 199.363 189.152 199.691 189.509 200.112C189.872 200.533 190.144 201.027 190.325 201.592C190.512 202.157 190.589 202.768 190.557 203.424H183.773C183.837 203.931 183.997 204.384 184.253 204.784C184.515 205.184 184.845 205.501 185.245 205.736C185.651 205.965 186.099 206.083 186.589 206.088C187.123 206.088 187.603 205.949 188.029 205.672C188.461 205.395 188.808 205.013 189.069 204.528L190.205 204.792C189.885 205.501 189.403 206.083 188.757 206.536C188.112 206.984 187.389 207.208 186.589 207.208ZM183.741 202.52H189.429C189.392 202.024 189.24 201.571 188.973 201.16C188.712 200.744 188.373 200.413 187.957 200.168C187.541 199.917 187.085 199.792 186.589 199.792C186.093 199.792 185.64 199.915 185.229 200.16C184.819 200.4 184.483 200.728 184.221 201.144C183.96 201.555 183.8 202.013 183.741 202.52ZM191.929 207V199H193.049V200.104C193.331 199.699 193.699 199.376 194.153 199.136C194.606 198.896 195.099 198.776 195.633 198.776C195.942 198.776 196.241 198.816 196.529 198.896L196.073 200.008C195.849 199.939 195.63 199.904 195.417 199.904C194.985 199.904 194.587 200.011 194.225 200.224C193.867 200.437 193.582 200.723 193.369 201.08C193.155 201.437 193.049 201.835 193.049 202.272V207H191.929ZM203.692 199H204.812V207H203.692L203.652 205.512C203.391 206.019 203.026 206.429 202.556 206.744C202.087 207.053 201.527 207.208 200.876 207.208C200.29 207.208 199.74 207.099 199.228 206.88C198.716 206.656 198.266 206.349 197.876 205.96C197.487 205.571 197.183 205.12 196.964 204.608C196.746 204.096 196.636 203.547 196.636 202.96C196.636 202.384 196.743 201.843 196.956 201.336C197.175 200.829 197.474 200.384 197.852 200C198.236 199.616 198.679 199.317 199.18 199.104C199.687 198.885 200.228 198.776 200.804 198.776C201.471 198.776 202.052 198.936 202.548 199.256C203.044 199.571 203.439 199.984 203.732 200.496L203.692 199ZM200.852 206.12C201.423 206.12 201.914 205.981 202.324 205.704C202.735 205.421 203.05 205.043 203.268 204.568C203.492 204.093 203.604 203.571 203.604 203C203.604 202.413 203.492 201.885 203.268 201.416C203.044 200.941 202.727 200.565 202.316 200.288C201.906 200.011 201.418 199.872 200.852 199.872C200.287 199.872 199.77 200.013 199.3 200.296C198.836 200.573 198.466 200.949 198.188 201.424C197.916 201.899 197.78 202.424 197.78 203C197.78 203.581 197.922 204.109 198.204 204.584C198.487 205.053 198.86 205.427 199.324 205.704C199.794 205.981 200.303 206.12 200.852 206.12ZM210.501 200.12H208.589L208.581 207H207.461L207.469 200.12H206.021V199H207.469L207.461 196.488H208.581L208.589 199H210.501V200.12ZM211.866 199H212.986V207H211.866V199ZM212.434 197.6C212.253 197.6 212.098 197.541 211.97 197.424C211.848 197.301 211.786 197.149 211.786 196.968C211.786 196.787 211.848 196.637 211.97 196.52C212.098 196.397 212.253 196.336 212.434 196.336C212.61 196.336 212.76 196.397 212.882 196.52C213.01 196.637 213.074 196.787 213.074 196.968C213.074 197.149 213.013 197.301 212.89 197.424C212.768 197.541 212.616 197.6 212.434 197.6ZM218.355 207.208C217.619 207.208 216.947 207.019 216.339 206.64C215.736 206.261 215.254 205.755 214.891 205.12C214.534 204.48 214.355 203.773 214.355 203C214.355 202.413 214.459 201.867 214.667 201.36C214.875 200.848 215.16 200.4 215.523 200.016C215.891 199.627 216.318 199.323 216.803 199.104C217.288 198.885 217.806 198.776 218.355 198.776C219.091 198.776 219.76 198.965 220.363 199.344C220.971 199.723 221.454 200.232 221.811 200.872C222.174 201.512 222.355 202.221 222.355 203C222.355 203.581 222.251 204.125 222.043 204.632C221.835 205.139 221.547 205.587 221.179 205.976C220.816 206.36 220.392 206.661 219.907 206.88C219.427 207.099 218.91 207.208 218.355 207.208ZM218.355 206.088C218.899 206.088 219.387 205.947 219.819 205.664C220.256 205.376 220.6 204.997 220.851 204.528C221.107 204.059 221.235 203.549 221.235 203C221.235 202.44 221.107 201.925 220.851 201.456C220.595 200.981 220.248 200.603 219.811 200.32C219.379 200.037 218.894 199.896 218.355 199.896C217.811 199.896 217.32 200.04 216.883 200.328C216.451 200.611 216.107 200.987 215.851 201.456C215.6 201.925 215.475 202.44 215.475 203C215.475 203.576 215.606 204.099 215.867 204.568C216.128 205.032 216.478 205.403 216.915 205.68C217.352 205.952 217.832 206.088 218.355 206.088ZM230.686 202.048V207H229.566V202.272C229.566 201.835 229.459 201.437 229.246 201.08C229.033 200.723 228.747 200.437 228.39 200.224C228.033 200.011 227.635 199.904 227.198 199.904C226.766 199.904 226.369 200.011 226.006 200.224C225.649 200.437 225.363 200.723 225.15 201.08C224.937 201.437 224.83 201.835 224.83 202.272V207H223.71V199H224.83V200.104C225.113 199.699 225.481 199.376 225.934 199.136C226.387 198.896 226.881 198.776 227.414 198.776C228.017 198.776 228.566 198.923 229.062 199.216C229.558 199.509 229.953 199.904 230.246 200.4C230.539 200.896 230.686 201.445 230.686 202.048Z" fill="#535662"/>
<rect x="56.5" y="226.5" width="23" height="23" rx="11.5" stroke="#535662" stroke-opacity="0.15"/>
<path d="M68.9667 242.5V239.749H64.7387V238.755L68.7147 232.7H69.9467V238.769H70.9757V239.749H69.9467V242.5H68.9667ZM65.9007 238.755L68.9667 238.769L68.9457 234.1L65.9007 238.755Z" fill="#535662"/>
<rect x="67.5" y="250" width="1" height="12" fill="#D9D9D9"/>
<path d="M87.2 243V231.8H88.32V243H87.2ZM97.4516 238.048V243H96.3316V238.272C96.3316 237.835 96.225 237.437 96.0116 237.08C95.7983 236.723 95.513 236.437 95.1556 236.224C94.7983 236.011 94.401 235.904 93.9636 235.904C93.5316 235.904 93.1343 236.011 92.7716 236.224C92.4143 236.437 92.129 236.723 91.9156 237.08C91.7023 237.437 91.5956 237.835 91.5956 238.272V243H90.4756V235H91.5956V236.104C91.8783 235.699 92.2463 235.376 92.6996 235.136C93.153 234.896 93.6463 234.776 94.1796 234.776C94.7823 234.776 95.3316 234.923 95.8276 235.216C96.3236 235.509 96.7183 235.904 97.0116 236.4C97.305 236.896 97.4516 237.445 97.4516 238.048ZM105.482 231H106.602V243H105.482V241.504C105.204 242.016 104.823 242.429 104.338 242.744C103.858 243.053 103.287 243.208 102.626 243.208C102.044 243.208 101.5 243.099 100.994 242.88C100.487 242.661 100.039 242.36 99.6495 241.976C99.2655 241.587 98.9642 241.139 98.7455 240.632C98.5268 240.125 98.4175 239.581 98.4175 239C98.4175 238.419 98.5268 237.875 98.7455 237.368C98.9642 236.856 99.2655 236.408 99.6495 236.024C100.039 235.635 100.487 235.331 100.994 235.112C101.5 234.893 102.044 234.784 102.626 234.784C103.287 234.784 103.858 234.941 104.338 235.256C104.823 235.565 105.204 235.973 105.482 236.48V231ZM102.634 242.12C103.204 242.12 103.695 241.981 104.106 241.704C104.516 241.421 104.831 241.043 105.05 240.568C105.274 240.093 105.386 239.571 105.386 239C105.386 238.413 105.274 237.885 105.05 237.416C104.826 236.941 104.508 236.565 104.098 236.288C103.687 236.011 103.199 235.872 102.634 235.872C102.068 235.872 101.554 236.013 101.09 236.296C100.626 236.573 100.255 236.949 99.9775 237.424C99.7002 237.899 99.5615 238.424 99.5615 239C99.5615 239.581 99.7028 240.109 99.9855 240.584C100.268 241.053 100.642 241.427 101.106 241.704C101.575 241.981 102.084 242.12 102.634 242.12ZM108.203 239.936V235H109.323V239.712C109.323 240.149 109.429 240.547 109.643 240.904C109.856 241.261 110.141 241.547 110.499 241.76C110.861 241.973 111.259 242.08 111.691 242.08C112.128 242.08 112.523 241.973 112.875 241.76C113.232 241.547 113.517 241.261 113.731 240.904C113.944 240.547 114.051 240.149 114.051 239.712V235H115.171L115.179 243H114.059L114.051 241.88C113.768 242.285 113.4 242.608 112.947 242.848C112.499 243.088 112.008 243.208 111.475 243.208C110.872 243.208 110.323 243.061 109.827 242.768C109.331 242.475 108.936 242.08 108.643 241.584C108.349 241.088 108.203 240.539 108.203 239.936ZM119.245 243.152C118.807 243.141 118.381 243.061 117.965 242.912C117.549 242.763 117.186 242.56 116.877 242.304C116.567 242.048 116.346 241.757 116.213 241.432L117.181 241.016C117.266 241.224 117.423 241.416 117.653 241.592C117.887 241.763 118.154 241.901 118.453 242.008C118.751 242.109 119.047 242.16 119.341 242.16C119.666 242.16 119.97 242.107 120.253 242C120.535 241.893 120.765 241.741 120.941 241.544C121.122 241.341 121.213 241.104 121.213 240.832C121.213 240.539 121.117 240.309 120.925 240.144C120.733 239.973 120.49 239.84 120.197 239.744C119.903 239.643 119.602 239.547 119.293 239.456C118.727 239.301 118.229 239.131 117.797 238.944C117.365 238.757 117.026 238.52 116.781 238.232C116.541 237.939 116.421 237.563 116.421 237.104C116.421 236.619 116.557 236.2 116.829 235.848C117.106 235.491 117.466 235.216 117.909 235.024C118.357 234.827 118.834 234.728 119.341 234.728C119.991 234.728 120.583 234.869 121.117 235.152C121.655 235.435 122.045 235.811 122.285 236.28L121.381 236.816C121.285 236.597 121.133 236.408 120.925 236.248C120.717 236.088 120.479 235.963 120.213 235.872C119.951 235.781 119.685 235.733 119.413 235.728C119.071 235.723 118.754 235.773 118.461 235.88C118.167 235.981 117.93 236.133 117.749 236.336C117.573 236.539 117.485 236.787 117.485 237.08C117.485 237.373 117.573 237.597 117.749 237.752C117.925 237.901 118.162 238.024 118.461 238.12C118.765 238.211 119.106 238.317 119.485 238.44C119.97 238.595 120.426 238.771 120.853 238.968C121.279 239.165 121.623 239.411 121.885 239.704C122.146 239.997 122.274 240.368 122.269 240.816C122.269 241.296 122.125 241.715 121.837 242.072C121.549 242.429 121.175 242.704 120.717 242.896C120.258 243.083 119.767 243.168 119.245 243.152ZM127.736 236.12H125.824L125.816 243H124.696L124.704 236.12H123.256V235H124.704L124.696 232.488H125.816L125.824 235H127.736V236.12ZM129.163 243V235H130.283V236.104C130.566 235.699 130.934 235.376 131.387 235.136C131.84 234.896 132.334 234.776 132.867 234.776C133.176 234.776 133.475 234.816 133.763 234.896L133.307 236.008C133.083 235.939 132.864 235.904 132.651 235.904C132.219 235.904 131.822 236.011 131.459 236.224C131.102 236.437 130.816 236.723 130.603 237.08C130.39 237.437 130.283 237.835 130.283 238.272V243H129.163ZM140.253 235H141.437L137.061 247H135.868L137.325 243L134.453 235H135.677L137.885 241.456L140.253 235Z" fill="#535662"/>
<rect x="56.5" y="262.5" width="23" height="23" rx="11.5" stroke="#535662" stroke-opacity="0.15"/>
<path d="M67.827 278.682C67.2297 278.682 66.686 278.537 66.196 278.248C65.7107 277.959 65.3257 277.571 65.041 277.086C64.7564 276.596 64.614 276.059 64.614 275.476H65.594C65.594 275.882 65.6944 276.255 65.895 276.596C66.0957 276.932 66.364 277.2 66.7 277.401C67.0407 277.602 67.4164 277.702 67.827 277.702C68.233 277.702 68.604 277.602 68.94 277.401C69.276 277.2 69.5444 276.932 69.745 276.596C69.9504 276.255 70.053 275.882 70.053 275.476C70.053 275.065 69.955 274.692 69.759 274.356C69.5677 274.015 69.2947 273.745 68.94 273.544C68.59 273.339 68.1724 273.236 67.687 273.236H65.307L66.231 268.7H70.816V269.68H67.022L66.511 272.256L67.652 272.263C68.3194 272.272 68.905 272.415 69.409 272.69C69.9177 272.965 70.3144 273.343 70.599 273.824C70.8884 274.3 71.033 274.851 71.033 275.476C71.033 275.915 70.949 276.328 70.781 276.715C70.6177 277.102 70.3867 277.445 70.088 277.744C69.794 278.038 69.4534 278.269 69.066 278.437C68.6834 278.6 68.2704 278.682 67.827 278.682Z" fill="#535662"/>
<path d="M95.432 268.3V269.42H91.592V279.5H90.472V269.42H86.64V268.3H95.432ZM95.6788 279.5V271.5H96.7988V272.604C97.0814 272.199 97.4494 271.876 97.9028 271.636C98.3561 271.396 98.8494 271.276 99.3828 271.276C99.6921 271.276 99.9908 271.316 100.279 271.396L99.8228 272.508C99.5988 272.439 99.3801 272.404 99.1668 272.404C98.7348 272.404 98.3374 272.511 97.9748 272.724C97.6174 272.937 97.3321 273.223 97.1188 273.58C96.9054 273.937 96.7988 274.335 96.7988 274.772V279.5H95.6788ZM107.442 271.5H108.562V279.5H107.442L107.402 278.012C107.141 278.519 106.776 278.929 106.306 279.244C105.837 279.553 105.277 279.708 104.626 279.708C104.04 279.708 103.49 279.599 102.978 279.38C102.466 279.156 102.016 278.849 101.626 278.46C101.237 278.071 100.933 277.62 100.714 277.108C100.496 276.596 100.386 276.047 100.386 275.46C100.386 274.884 100.493 274.343 100.706 273.836C100.925 273.329 101.224 272.884 101.602 272.5C101.986 272.116 102.429 271.817 102.93 271.604C103.437 271.385 103.978 271.276 104.554 271.276C105.221 271.276 105.802 271.436 106.298 271.756C106.794 272.071 107.189 272.484 107.482 272.996L107.442 271.5ZM104.602 278.62C105.173 278.62 105.664 278.481 106.074 278.204C106.485 277.921 106.8 277.543 107.018 277.068C107.242 276.593 107.354 276.071 107.354 275.5C107.354 274.913 107.242 274.385 107.018 273.916C106.794 273.441 106.477 273.065 106.066 272.788C105.656 272.511 105.168 272.372 104.602 272.372C104.037 272.372 103.52 272.513 103.05 272.796C102.586 273.073 102.216 273.449 101.938 273.924C101.666 274.399 101.53 274.924 101.53 275.5C101.53 276.081 101.672 276.609 101.954 277.084C102.237 277.553 102.61 277.927 103.074 278.204C103.544 278.481 104.053 278.62 104.602 278.62ZM117.139 274.548V279.5H116.019V274.772C116.019 274.335 115.912 273.937 115.699 273.58C115.486 273.223 115.2 272.937 114.843 272.724C114.486 272.511 114.088 272.404 113.651 272.404C113.219 272.404 112.822 272.511 112.459 272.724C112.102 272.937 111.816 273.223 111.603 273.58C111.39 273.937 111.283 274.335 111.283 274.772V279.5H110.163V271.5H111.283V272.604C111.566 272.199 111.934 271.876 112.387 271.636C112.84 271.396 113.334 271.276 113.867 271.276C114.47 271.276 115.019 271.423 115.515 271.716C116.011 272.009 116.406 272.404 116.699 272.9C116.992 273.396 117.139 273.945 117.139 274.548ZM121.213 279.652C120.776 279.641 120.349 279.561 119.933 279.412C119.517 279.263 119.155 279.06 118.845 278.804C118.536 278.548 118.315 278.257 118.181 277.932L119.149 277.516C119.235 277.724 119.392 277.916 119.621 278.092C119.856 278.263 120.123 278.401 120.421 278.508C120.72 278.609 121.016 278.66 121.309 278.66C121.635 278.66 121.939 278.607 122.221 278.5C122.504 278.393 122.733 278.241 122.909 278.044C123.091 277.841 123.181 277.604 123.181 277.332C123.181 277.039 123.085 276.809 122.893 276.644C122.701 276.473 122.459 276.34 122.165 276.244C121.872 276.143 121.571 276.047 121.261 275.956C120.696 275.801 120.197 275.631 119.765 275.444C119.333 275.257 118.995 275.02 118.749 274.732C118.509 274.439 118.389 274.063 118.389 273.604C118.389 273.119 118.525 272.7 118.797 272.348C119.075 271.991 119.435 271.716 119.877 271.524C120.325 271.327 120.803 271.228 121.309 271.228C121.96 271.228 122.552 271.369 123.085 271.652C123.624 271.935 124.013 272.311 124.253 272.78L123.349 273.316C123.253 273.097 123.101 272.908 122.893 272.748C122.685 272.588 122.448 272.463 122.181 272.372C121.92 272.281 121.653 272.233 121.381 272.228C121.04 272.223 120.723 272.273 120.429 272.38C120.136 272.481 119.899 272.633 119.717 272.836C119.541 273.039 119.453 273.287 119.453 273.58C119.453 273.873 119.541 274.097 119.717 274.252C119.893 274.401 120.131 274.524 120.429 274.62C120.733 274.711 121.075 274.817 121.453 274.94C121.939 275.095 122.395 275.271 122.821 275.468C123.248 275.665 123.592 275.911 123.853 276.204C124.115 276.497 124.243 276.868 124.237 277.316C124.237 277.796 124.093 278.215 123.805 278.572C123.517 278.929 123.144 279.204 122.685 279.396C122.227 279.583 121.736 279.668 121.213 279.652ZM132.13 271.5H133.25V279.5H132.13L132.09 278.012C131.828 278.519 131.463 278.929 130.994 279.244C130.524 279.553 129.964 279.708 129.314 279.708C128.727 279.708 128.178 279.599 127.666 279.38C127.154 279.156 126.703 278.849 126.314 278.46C125.924 278.071 125.62 277.62 125.402 277.108C125.183 276.596 125.074 276.047 125.074 275.46C125.074 274.884 125.18 274.343 125.394 273.836C125.612 273.329 125.911 272.884 126.29 272.5C126.674 272.116 127.116 271.817 127.618 271.604C128.124 271.385 128.666 271.276 129.242 271.276C129.908 271.276 130.49 271.436 130.986 271.756C131.482 272.071 131.876 272.484 132.17 272.996L132.13 271.5ZM129.29 278.62C129.86 278.62 130.351 278.481 130.762 278.204C131.172 277.921 131.487 277.543 131.706 277.068C131.93 276.593 132.042 276.071 132.042 275.5C132.042 274.913 131.93 274.385 131.706 273.916C131.482 273.441 131.164 273.065 130.754 272.788C130.343 272.511 129.855 272.372 129.29 272.372C128.724 272.372 128.207 272.513 127.738 272.796C127.274 273.073 126.903 273.449 126.626 273.924C126.354 274.399 126.218 274.924 126.218 275.5C126.218 276.081 126.359 276.609 126.642 277.084C126.924 277.553 127.298 277.927 127.762 278.204C128.231 278.481 128.74 278.62 129.29 278.62ZM140.406 277.492L141.406 278.036C141.044 278.543 140.582 278.948 140.022 279.252C139.468 279.556 138.865 279.708 138.214 279.708C137.478 279.708 136.806 279.519 136.198 279.14C135.596 278.761 135.113 278.255 134.75 277.62C134.393 276.98 134.214 276.273 134.214 275.5C134.214 274.913 134.318 274.367 134.526 273.86C134.734 273.348 135.02 272.9 135.382 272.516C135.75 272.127 136.177 271.823 136.662 271.604C137.148 271.385 137.665 271.276 138.214 271.276C138.865 271.276 139.468 271.428 140.022 271.732C140.582 272.036 141.044 272.444 141.406 272.956L140.406 273.492C140.129 273.14 139.796 272.871 139.406 272.684C139.017 272.492 138.62 272.396 138.214 272.396C137.676 272.396 137.188 272.54 136.75 272.828C136.313 273.111 135.966 273.487 135.71 273.956C135.46 274.425 135.334 274.94 135.334 275.5C135.334 276.06 135.462 276.575 135.718 277.044C135.98 277.513 136.329 277.889 136.766 278.172C137.204 278.449 137.686 278.588 138.214 278.588C138.652 278.588 139.062 278.487 139.446 278.284C139.83 278.081 140.15 277.817 140.406 277.492ZM146.939 272.62H145.027L145.019 279.5H143.899L143.907 272.62H142.459V271.5H143.907L143.899 268.988H145.019L145.027 271.5H146.939V272.62ZM148.304 271.5H149.424V279.5H148.304V271.5ZM148.872 270.1C148.69 270.1 148.536 270.041 148.408 269.924C148.285 269.801 148.224 269.649 148.224 269.468C148.224 269.287 148.285 269.137 148.408 269.02C148.536 268.897 148.69 268.836 148.872 268.836C149.048 268.836 149.197 268.897 149.32 269.02C149.448 269.137 149.512 269.287 149.512 269.468C149.512 269.649 149.45 269.801 149.328 269.924C149.205 270.041 149.053 270.1 148.872 270.1ZM154.793 279.708C154.057 279.708 153.385 279.519 152.777 279.14C152.174 278.761 151.691 278.255 151.329 277.62C150.971 276.98 150.793 276.273 150.793 275.5C150.793 274.913 150.897 274.367 151.105 273.86C151.313 273.348 151.598 272.9 151.961 272.516C152.329 272.127 152.755 271.823 153.241 271.604C153.726 271.385 154.243 271.276 154.793 271.276C155.529 271.276 156.198 271.465 156.801 271.844C157.409 272.223 157.891 272.732 158.249 273.372C158.611 274.012 158.793 274.721 158.793 275.5C158.793 276.081 158.689 276.625 158.481 277.132C158.273 277.639 157.985 278.087 157.617 278.476C157.254 278.86 156.83 279.161 156.345 279.38C155.865 279.599 155.347 279.708 154.793 279.708ZM154.793 278.588C155.337 278.588 155.825 278.447 156.257 278.164C156.694 277.876 157.038 277.497 157.289 277.028C157.545 276.559 157.673 276.049 157.673 275.5C157.673 274.94 157.545 274.425 157.289 273.956C157.033 273.481 156.686 273.103 156.249 272.82C155.817 272.537 155.331 272.396 154.793 272.396C154.249 272.396 153.758 272.54 153.321 272.828C152.889 273.111 152.545 273.487 152.289 273.956C152.038 274.425 151.913 274.94 151.913 275.5C151.913 276.076 152.043 276.599 152.305 277.068C152.566 277.532 152.915 277.903 153.353 278.18C153.79 278.452 154.27 278.588 154.793 278.588ZM167.124 274.548V279.5H166.004V274.772C166.004 274.335 165.897 273.937 165.684 273.58C165.47 273.223 165.185 272.937 164.828 272.724C164.47 272.511 164.073 272.404 163.636 272.404C163.204 272.404 162.806 272.511 162.444 272.724C162.086 272.937 161.801 273.223 161.588 273.58C161.374 273.937 161.268 274.335 161.268 274.772V279.5H160.148V271.5H161.268V272.604C161.55 272.199 161.918 271.876 162.372 271.636C162.825 271.396 163.318 271.276 163.852 271.276C164.454 271.276 165.004 271.423 165.5 271.716C165.996 272.009 166.39 272.404 166.684 272.9C166.977 273.396 167.124 273.945 167.124 274.548ZM176.433 279.5H175.009L172.089 271.476H173.281L175.721 278.188L178.161 271.476H179.353L176.433 279.5ZM183.886 279.708C183.15 279.708 182.478 279.519 181.87 279.14C181.268 278.761 180.785 278.255 180.422 277.62C180.065 276.98 179.886 276.273 179.886 275.5C179.886 274.913 179.99 274.367 180.198 273.86C180.406 273.348 180.692 272.9 181.054 272.516C181.422 272.127 181.849 271.823 182.334 271.604C182.82 271.385 183.337 271.276 183.886 271.276C184.622 271.276 185.292 271.465 185.894 271.844C186.502 272.223 186.985 272.732 187.342 273.372C187.705 274.012 187.886 274.721 187.886 275.5C187.886 276.081 187.782 276.625 187.574 277.132C187.366 277.639 187.078 278.087 186.71 278.476C186.348 278.86 185.924 279.161 185.438 279.38C184.958 279.599 184.441 279.708 183.886 279.708ZM183.886 278.588C184.43 278.588 184.918 278.447 185.35 278.164C185.788 277.876 186.132 277.497 186.382 277.028C186.638 276.559 186.766 276.049 186.766 275.5C186.766 274.94 186.638 274.425 186.382 273.956C186.126 273.481 185.78 273.103 185.342 272.82C184.91 272.537 184.425 272.396 183.886 272.396C183.342 272.396 182.852 272.54 182.414 272.828C181.982 273.111 181.638 273.487 181.382 273.956C181.132 274.425 181.006 274.94 181.006 275.5C181.006 276.076 181.137 276.599 181.398 277.068C181.66 277.532 182.009 277.903 182.446 278.18C182.884 278.452 183.364 278.588 183.886 278.588ZM189.179 279.5V267.5H190.299V279.5H189.179ZM191.906 276.436V271.5H193.026V276.212C193.026 276.649 193.132 277.047 193.346 277.404C193.559 277.761 193.844 278.047 194.202 278.26C194.564 278.473 194.962 278.58 195.394 278.58C195.831 278.58 196.226 278.473 196.578 278.26C196.935 278.047 197.22 277.761 197.434 277.404C197.647 277.047 197.754 276.649 197.754 276.212V271.5H198.874L198.882 279.5H197.762L197.754 278.38C197.471 278.785 197.103 279.108 196.65 279.348C196.202 279.588 195.711 279.708 195.178 279.708C194.575 279.708 194.026 279.561 193.53 279.268C193.034 278.975 192.639 278.58 192.346 278.084C192.052 277.588 191.906 277.039 191.906 276.436ZM200.476 279.5V271.5H201.596V272.604C201.884 272.199 202.252 271.876 202.7 271.636C203.148 271.396 203.638 271.276 204.172 271.276C204.774 271.276 205.326 271.425 205.828 271.724C206.329 272.017 206.721 272.409 207.004 272.9C207.286 272.409 207.676 272.017 208.172 271.724C208.668 271.425 209.217 271.276 209.82 271.276C210.422 271.276 210.972 271.423 211.468 271.716C211.964 272.009 212.358 272.404 212.652 272.9C212.945 273.396 213.092 273.945 213.092 274.548V279.5H211.972V274.796C211.972 274.369 211.868 273.975 211.66 273.612C211.452 273.249 211.172 272.959 210.82 272.74C210.473 272.516 210.086 272.404 209.66 272.404C209.233 272.404 208.844 272.508 208.492 272.716C208.145 272.919 207.868 273.201 207.66 273.564C207.452 273.921 207.348 274.332 207.348 274.796V279.5H206.228V274.796C206.228 274.332 206.124 273.921 205.916 273.564C205.708 273.201 205.428 272.919 205.076 272.716C204.724 272.508 204.334 272.404 203.908 272.404C203.486 272.404 203.1 272.516 202.748 272.74C202.396 272.959 202.116 273.249 201.908 273.612C201.7 273.975 201.596 274.369 201.596 274.796V279.5H200.476ZM218.058 279.708C217.322 279.708 216.65 279.519 216.042 279.14C215.439 278.761 214.957 278.255 214.594 277.62C214.237 276.98 214.058 276.273 214.058 275.5C214.058 274.913 214.162 274.367 214.37 273.86C214.578 273.348 214.863 272.9 215.226 272.516C215.594 272.127 216.021 271.823 216.506 271.604C216.991 271.385 217.509 271.276 218.058 271.276C218.65 271.276 219.194 271.393 219.69 271.628C220.191 271.863 220.621 272.191 220.978 272.612C221.341 273.033 221.613 273.527 221.794 274.092C221.981 274.657 222.058 275.268 222.026 275.924H215.242C215.306 276.431 215.466 276.884 215.722 277.284C215.983 277.684 216.314 278.001 216.714 278.236C217.119 278.465 217.567 278.583 218.058 278.588C218.591 278.588 219.071 278.449 219.498 278.172C219.93 277.895 220.277 277.513 220.538 277.028L221.674 277.292C221.354 278.001 220.871 278.583 220.226 279.036C219.581 279.484 218.858 279.708 218.058 279.708ZM215.21 275.02H220.898C220.861 274.524 220.709 274.071 220.442 273.66C220.181 273.244 219.842 272.913 219.426 272.668C219.01 272.417 218.554 272.292 218.058 272.292C217.562 272.292 217.109 272.415 216.698 272.66C216.287 272.9 215.951 273.228 215.69 273.644C215.429 274.055 215.269 274.513 215.21 275.02Z" fill="#535662"/>
</g>
<defs>
<filter id="filter0_d_3290_7703" x="13.6142" y="22.2914" width="463.772" height="309.772" filterUnits="userSpaceOnUse" color-interpolation-filters="sRGB">
<feFlood flood-opacity="0" result="BackgroundImageFix"/>
<feColorMatrix in="SourceAlpha" type="matrix" values="0 0 0 0 0 0 0 0 0 0 0 0 0 0 0 0 0 0 127 0" result="hardAlpha"/>
<feOffset dy="3.67715"/>
<feGaussianBlur stdDeviation="9.19289"/>
<feComposite in2="hardAlpha" operator="out"/>
<feColorMatrix type="matrix" values="0 0 0 0 0.0468057 0 0 0 0 0.0634939 0 0 0 0 0.129808 0 0 0 0.1 0"/>
<feBlend mode="normal" in2="BackgroundImageFix" result="effect1_dropShadow_3290_7703"/>
<feBlend mode="normal" in="SourceGraphic" in2="effect1_dropShadow_3290_7703" result="shape"/>
</filter>
<pattern id="pattern0_3290_7703" patternUnits="userSpaceOnUse" patternTransform="matrix(12.5 0 0 12.5 0 0)" preserveAspectRatio="none" viewBox="0 0 12.5 12.5" width="1" height="1">
<g id="pattern0_3290_7703_inner">
<circle cx="2.5" cy="2.5" r="2.5" fill="#0C1021"/>
</g>
</pattern></defs>
</svg>
