<svg width="564" height="564" viewBox="0 0 564 564" fill="none" xmlns="http://www.w3.org/2000/svg">
<rect width="564" height="564" rx="24" fill="#FAFAFA"/>
<g filter="url(#filter0_d_3044_826)">
<rect x="69" y="166.5" width="427" height="231" rx="22.0629" fill="white" shape-rendering="crispEdges"/>
<rect x="69.4596" y="166.96" width="426.081" height="230.081" rx="21.6033" stroke="#0C1021" stroke-opacity="0.05" stroke-width="0.919289" shape-rendering="crispEdges"/>
<path d="M223.709 196.7H226.625L232.733 213.5H230.093L228.929 210.308H221.405L220.253 213.5H217.601L223.709 196.7ZM222.329 207.812H228.005L225.161 200.012L222.329 207.812ZM235.222 213.5V196.7H237.718V213.5H235.222ZM252.709 213.812C251.789 213.812 250.905 213.668 250.057 213.38C249.209 213.092 248.469 212.68 247.837 212.144C247.205 211.6 246.753 210.956 246.481 210.212L248.821 209.336C248.957 209.72 249.217 210.064 249.601 210.368C249.993 210.664 250.457 210.896 250.993 211.064C251.537 211.232 252.109 211.316 252.709 211.316C253.349 211.316 253.949 211.212 254.509 211.004C255.077 210.796 255.533 210.508 255.877 210.14C256.229 209.772 256.405 209.34 256.405 208.844C256.405 208.332 256.221 207.912 255.853 207.584C255.493 207.256 255.029 206.996 254.461 206.804C253.901 206.612 253.317 206.468 252.709 206.372C251.533 206.18 250.477 205.9 249.541 205.532C248.613 205.164 247.877 204.648 247.333 203.984C246.797 203.32 246.529 202.456 246.529 201.392C246.529 200.392 246.813 199.52 247.381 198.776C247.957 198.032 248.713 197.456 249.649 197.048C250.593 196.632 251.613 196.424 252.709 196.424C253.613 196.424 254.485 196.568 255.325 196.856C256.173 197.136 256.917 197.548 257.557 198.092C258.205 198.628 258.669 199.28 258.949 200.048L256.585 200.9C256.449 200.508 256.189 200.168 255.805 199.88C255.421 199.584 254.957 199.352 254.413 199.184C253.877 199.016 253.309 198.932 252.709 198.932C252.069 198.924 251.469 199.028 250.909 199.244C250.357 199.452 249.905 199.74 249.553 200.108C249.201 200.476 249.025 200.904 249.025 201.392C249.025 201.992 249.189 202.448 249.517 202.76C249.845 203.072 250.285 203.304 250.837 203.456C251.397 203.6 252.021 203.732 252.709 203.852C253.813 204.028 254.833 204.32 255.769 204.728C256.713 205.136 257.469 205.68 258.037 206.36C258.613 207.032 258.901 207.86 258.901 208.844C258.901 209.836 258.613 210.708 258.037 211.46C257.469 212.204 256.713 212.784 255.769 213.2C254.833 213.608 253.813 213.812 252.709 213.812ZM263.866 219.5H261.37V201.5H263.866V203.264C264.266 202.648 264.778 202.148 265.402 201.764C266.026 201.38 266.762 201.188 267.61 201.188C268.482 201.188 269.298 201.352 270.058 201.68C270.826 202.008 271.498 202.464 272.074 203.048C272.65 203.624 273.102 204.292 273.43 205.052C273.758 205.812 273.922 206.628 273.922 207.5C273.922 208.372 273.758 209.192 273.43 209.96C273.102 210.728 272.65 211.404 272.074 211.988C271.498 212.564 270.826 213.016 270.058 213.344C269.298 213.672 268.482 213.836 267.61 213.836C266.762 213.836 266.026 213.644 265.402 213.26C264.778 212.868 264.266 212.368 263.866 211.76V219.5ZM267.586 203.6C266.89 203.6 266.278 203.776 265.75 204.128C265.222 204.48 264.81 204.952 264.514 205.544C264.218 206.128 264.07 206.78 264.07 207.5C264.07 208.22 264.218 208.876 264.514 209.468C264.81 210.06 265.222 210.532 265.75 210.884C266.278 211.236 266.89 211.412 267.586 211.412C268.274 211.412 268.906 211.24 269.482 210.896C270.058 210.544 270.518 210.072 270.862 209.48C271.206 208.888 271.378 208.228 271.378 207.5C271.378 206.788 271.206 206.136 270.862 205.544C270.526 204.952 270.07 204.48 269.494 204.128C268.918 203.776 268.282 203.6 267.586 203.6ZM281.134 213.812C280.03 213.812 279.022 213.528 278.11 212.96C277.206 212.392 276.482 211.632 275.938 210.68C275.402 209.72 275.134 208.66 275.134 207.5C275.134 206.62 275.29 205.8 275.602 205.04C275.914 204.272 276.342 203.6 276.886 203.024C277.438 202.44 278.078 201.984 278.806 201.656C279.534 201.328 280.31 201.164 281.134 201.164C282.054 201.164 282.898 201.356 283.666 201.74C284.434 202.116 285.09 202.64 285.634 203.312C286.178 203.976 286.578 204.744 286.834 205.616C287.09 206.48 287.166 207.4 287.062 208.376H277.81C277.914 208.928 278.114 209.428 278.41 209.876C278.714 210.316 279.098 210.664 279.562 210.92C280.034 211.176 280.558 211.308 281.134 211.316C281.742 211.316 282.294 211.164 282.79 210.86C283.294 210.556 283.706 210.136 284.026 209.6L286.558 210.188C286.078 211.252 285.354 212.124 284.386 212.804C283.418 213.476 282.334 213.812 281.134 213.812ZM277.726 206.468H284.542C284.462 205.892 284.258 205.372 283.93 204.908C283.61 204.436 283.206 204.064 282.718 203.792C282.238 203.512 281.71 203.372 281.134 203.372C280.566 203.372 280.038 203.508 279.55 203.78C279.07 204.052 278.67 204.424 278.35 204.896C278.038 205.36 277.83 205.884 277.726 206.468ZM296.862 210.092L299.094 211.304C298.55 212.064 297.858 212.672 297.018 213.128C296.186 213.584 295.282 213.812 294.306 213.812C293.202 213.812 292.194 213.528 291.282 212.96C290.378 212.392 289.654 211.632 289.11 210.68C288.574 209.72 288.306 208.66 288.306 207.5C288.306 206.62 288.462 205.8 288.774 205.04C289.086 204.272 289.514 203.6 290.058 203.024C290.61 202.44 291.25 201.984 291.978 201.656C292.706 201.328 293.482 201.164 294.306 201.164C295.282 201.164 296.186 201.392 297.018 201.848C297.858 202.304 298.55 202.916 299.094 203.684L296.862 204.896C296.526 204.496 296.134 204.192 295.686 203.984C295.238 203.768 294.778 203.66 294.306 203.66C293.65 203.66 293.054 203.84 292.518 204.2C291.99 204.552 291.57 205.02 291.258 205.604C290.954 206.18 290.802 206.812 290.802 207.5C290.802 208.18 290.958 208.812 291.27 209.396C291.582 209.972 292.002 210.436 292.53 210.788C293.066 211.14 293.658 211.316 294.306 211.316C294.802 211.316 295.274 211.204 295.722 210.98C296.17 210.756 296.55 210.46 296.862 210.092ZM300.885 201.5H303.381V213.5H300.885V201.5ZM302.157 199.76C301.773 199.76 301.453 199.636 301.197 199.388C300.941 199.14 300.813 198.828 300.813 198.452C300.813 198.084 300.941 197.776 301.197 197.528C301.453 197.272 301.769 197.144 302.145 197.144C302.513 197.144 302.825 197.272 303.081 197.528C303.337 197.776 303.465 198.084 303.465 198.452C303.465 198.828 303.337 199.14 303.081 199.388C302.833 199.636 302.525 199.76 302.157 199.76ZM315.378 201.5H317.874V213.5H315.366L315.27 211.76C314.918 212.376 314.442 212.872 313.842 213.248C313.242 213.624 312.534 213.812 311.718 213.812C310.838 213.812 310.01 213.648 309.234 213.32C308.458 212.984 307.774 212.52 307.182 211.928C306.598 211.336 306.142 210.656 305.814 209.888C305.486 209.112 305.322 208.28 305.322 207.392C305.322 206.536 305.482 205.732 305.802 204.98C306.122 204.22 306.566 203.556 307.134 202.988C307.702 202.42 308.358 201.976 309.102 201.656C309.854 201.328 310.658 201.164 311.514 201.164C312.386 201.164 313.154 201.364 313.818 201.764C314.49 202.156 315.046 202.66 315.486 203.276L315.378 201.5ZM311.658 211.4C312.362 211.4 312.978 211.228 313.506 210.884C314.034 210.532 314.442 210.06 314.73 209.468C315.026 208.876 315.174 208.22 315.174 207.5C315.174 206.772 315.026 206.112 314.73 205.52C314.434 204.928 314.022 204.46 313.494 204.116C312.974 203.764 312.362 203.588 311.658 203.588C310.962 203.588 310.326 203.764 309.75 204.116C309.174 204.468 308.718 204.94 308.382 205.532C308.046 206.124 307.878 206.78 307.878 207.5C307.878 208.228 308.05 208.888 308.394 209.48C308.746 210.064 309.206 210.532 309.774 210.884C310.35 211.228 310.978 211.4 311.658 211.4ZM320.362 213.5V195.5H322.858V213.5H320.362ZM325.729 201.5H328.225V213.5H325.729V201.5ZM327.001 199.76C326.617 199.76 326.297 199.636 326.041 199.388C325.785 199.14 325.657 198.828 325.657 198.452C325.657 198.084 325.785 197.776 326.041 197.528C326.297 197.272 326.613 197.144 326.989 197.144C327.357 197.144 327.669 197.272 327.925 197.528C328.181 197.776 328.309 198.084 328.309 198.452C328.309 198.828 328.181 199.14 327.925 199.388C327.677 199.636 327.369 199.76 327.001 199.76ZM334.532 213.728C333.9 213.688 333.284 213.56 332.684 213.344C332.084 213.128 331.556 212.836 331.1 212.468C330.652 212.092 330.316 211.652 330.092 211.148L332.216 210.236C332.32 210.452 332.5 210.664 332.756 210.872C333.02 211.08 333.328 211.252 333.68 211.388C334.032 211.516 334.4 211.58 334.784 211.58C335.16 211.58 335.508 211.528 335.828 211.424C336.156 211.312 336.424 211.144 336.632 210.92C336.84 210.696 336.944 210.428 336.944 210.116C336.944 209.764 336.824 209.492 336.584 209.3C336.352 209.1 336.06 208.948 335.708 208.844C335.356 208.74 335.004 208.64 334.652 208.544C333.868 208.368 333.148 208.128 332.492 207.824C331.844 207.512 331.328 207.116 330.944 206.636C330.56 206.148 330.368 205.552 330.368 204.848C330.368 204.08 330.576 203.416 330.992 202.856C331.408 202.288 331.952 201.852 332.624 201.548C333.304 201.244 334.028 201.092 334.796 201.092C335.756 201.092 336.636 201.296 337.436 201.704C338.236 202.112 338.848 202.672 339.272 203.384L337.292 204.56C337.172 204.32 336.992 204.104 336.752 203.912C336.512 203.72 336.24 203.568 335.936 203.456C335.632 203.336 335.316 203.268 334.988 203.252C334.58 203.236 334.2 203.284 333.848 203.396C333.504 203.5 333.228 203.668 333.02 203.9C332.812 204.132 332.708 204.428 332.708 204.788C332.708 205.14 332.832 205.404 333.08 205.58C333.328 205.748 333.64 205.884 334.016 205.988C334.4 206.092 334.792 206.208 335.192 206.336C335.904 206.56 336.572 206.836 337.196 207.164C337.82 207.484 338.324 207.88 338.708 208.352C339.092 208.824 339.276 209.4 339.26 210.08C339.26 210.832 339.032 211.492 338.576 212.06C338.128 212.628 337.544 213.06 336.824 213.356C336.104 213.652 335.34 213.776 334.532 213.728ZM347.651 203.996H345.131L345.119 213.5H342.623L342.635 203.996H340.727V201.5H342.635L342.623 197.732H345.119L345.131 201.5H347.651V203.996Z" fill="#0C1021"/>
<path d="M97.952 258.708C97.3387 258.708 96.7493 258.612 96.184 258.42C95.6187 258.228 95.1253 257.953 94.704 257.596C94.2827 257.233 93.9813 256.804 93.8 256.308L95.36 255.724C95.4507 255.98 95.624 256.209 95.88 256.412C96.1413 256.609 96.4507 256.764 96.808 256.876C97.1707 256.988 97.552 257.044 97.952 257.044C98.3787 257.044 98.7787 256.975 99.152 256.836C99.5307 256.697 99.8347 256.505 100.064 256.26C100.299 256.015 100.416 255.727 100.416 255.396C100.416 255.055 100.293 254.775 100.048 254.556C99.808 254.337 99.4987 254.164 99.12 254.036C98.7467 253.908 98.3573 253.812 97.952 253.748C97.168 253.62 96.464 253.433 95.84 253.188C95.2213 252.943 94.7307 252.599 94.368 252.156C94.0107 251.713 93.832 251.137 93.832 250.428C93.832 249.761 94.0213 249.18 94.4 248.684C94.784 248.188 95.288 247.804 95.912 247.532C96.5413 247.255 97.2213 247.116 97.952 247.116C98.5547 247.116 99.136 247.212 99.696 247.404C100.261 247.591 100.757 247.865 101.184 248.228C101.616 248.585 101.925 249.02 102.112 249.532L100.536 250.1C100.445 249.839 100.272 249.612 100.016 249.42C99.76 249.223 99.4507 249.068 99.088 248.956C98.7307 248.844 98.352 248.788 97.952 248.788C97.5253 248.783 97.1253 248.852 96.752 248.996C96.384 249.135 96.0827 249.327 95.848 249.572C95.6133 249.817 95.496 250.103 95.496 250.428C95.496 250.828 95.6053 251.132 95.824 251.34C96.0427 251.548 96.336 251.703 96.704 251.804C97.0773 251.9 97.4933 251.988 97.952 252.068C98.688 252.185 99.368 252.38 99.992 252.652C100.621 252.924 101.125 253.287 101.504 253.74C101.888 254.188 102.08 254.74 102.08 255.396C102.08 256.057 101.888 256.639 101.504 257.14C101.125 257.636 100.621 258.023 99.992 258.3C99.368 258.572 98.688 258.708 97.952 258.708ZM109.903 250.5H111.567V258.5H109.895L109.831 257.34C109.596 257.751 109.279 258.081 108.879 258.332C108.479 258.583 108.007 258.708 107.463 258.708C106.876 258.708 106.324 258.599 105.807 258.38C105.289 258.156 104.833 257.847 104.439 257.452C104.049 257.057 103.745 256.604 103.527 256.092C103.308 255.575 103.199 255.02 103.199 254.428C103.199 253.857 103.305 253.321 103.519 252.82C103.732 252.313 104.028 251.871 104.407 251.492C104.785 251.113 105.223 250.817 105.719 250.604C106.22 250.385 106.756 250.276 107.327 250.276C107.908 250.276 108.42 250.409 108.863 250.676C109.311 250.937 109.681 251.273 109.975 251.684L109.903 250.5ZM107.423 257.1C107.892 257.1 108.303 256.985 108.655 256.756C109.007 256.521 109.279 256.207 109.471 255.812C109.668 255.417 109.767 254.98 109.767 254.5C109.767 254.015 109.668 253.575 109.471 253.18C109.273 252.785 108.999 252.473 108.647 252.244C108.3 252.009 107.892 251.892 107.423 251.892C106.959 251.892 106.535 252.009 106.151 252.244C105.767 252.479 105.463 252.793 105.239 253.188C105.015 253.583 104.903 254.02 104.903 254.5C104.903 254.985 105.017 255.425 105.247 255.82C105.481 256.209 105.788 256.521 106.167 256.756C106.551 256.985 106.969 257.1 107.423 257.1ZM113.163 258.5V250.5H114.827V251.348C115.104 251.017 115.446 250.756 115.851 250.564C116.256 250.372 116.694 250.276 117.163 250.276C117.462 250.276 117.758 250.316 118.051 250.396L117.387 252.076C117.179 251.996 116.971 251.956 116.763 251.956C116.411 251.956 116.088 252.044 115.795 252.22C115.502 252.391 115.267 252.623 115.091 252.916C114.915 253.209 114.827 253.535 114.827 253.892V258.5H113.163ZM124.825 250.5H126.489V258.5H124.817L124.753 257.34C124.518 257.751 124.201 258.081 123.801 258.332C123.401 258.583 122.929 258.708 122.385 258.708C121.798 258.708 121.246 258.599 120.729 258.38C120.211 258.156 119.755 257.847 119.361 257.452C118.971 257.057 118.667 256.604 118.449 256.092C118.23 255.575 118.121 255.02 118.121 254.428C118.121 253.857 118.227 253.321 118.441 252.82C118.654 252.313 118.95 251.871 119.329 251.492C119.707 251.113 120.145 250.817 120.641 250.604C121.142 250.385 121.678 250.276 122.249 250.276C122.83 250.276 123.342 250.409 123.785 250.676C124.233 250.937 124.603 251.273 124.897 251.684L124.825 250.5ZM122.345 257.1C122.814 257.1 123.225 256.985 123.577 256.756C123.929 256.521 124.201 256.207 124.393 255.812C124.59 255.417 124.689 254.98 124.689 254.5C124.689 254.015 124.59 253.575 124.393 253.18C124.195 252.785 123.921 252.473 123.569 252.244C123.222 252.009 122.814 251.892 122.345 251.892C121.881 251.892 121.457 252.009 121.073 252.244C120.689 252.479 120.385 252.793 120.161 253.188C119.937 253.583 119.825 254.02 119.825 254.5C119.825 254.985 119.939 255.425 120.169 255.82C120.403 256.209 120.71 256.521 121.089 256.756C121.473 256.985 121.891 257.1 122.345 257.1Z" fill="#0C1021"/>
<path d="M94.4758 279.5V269.7H95.4558V279.5H94.4758ZM103.446 275.167V279.5H102.466V275.363C102.466 274.98 102.373 274.633 102.186 274.32C101.999 274.007 101.75 273.758 101.437 273.571C101.124 273.384 100.777 273.291 100.394 273.291C100.016 273.291 99.6683 273.384 99.351 273.571C99.0383 273.758 98.7886 274.007 98.602 274.32C98.4153 274.633 98.322 274.98 98.322 275.363V279.5H97.342V272.5H98.322V273.466C98.5693 273.111 98.8913 272.829 99.288 272.619C99.6846 272.409 100.116 272.304 100.583 272.304C101.11 272.304 101.591 272.432 102.025 272.689C102.459 272.946 102.804 273.291 103.061 273.725C103.318 274.159 103.446 274.64 103.446 275.167ZM110.472 269H111.452V279.5H110.472V278.191C110.229 278.639 109.896 279.001 109.471 279.276C109.051 279.547 108.552 279.682 107.973 279.682C107.464 279.682 106.988 279.586 106.545 279.395C106.102 279.204 105.71 278.94 105.369 278.604C105.033 278.263 104.769 277.871 104.578 277.428C104.387 276.985 104.291 276.509 104.291 276C104.291 275.491 104.387 275.015 104.578 274.572C104.769 274.124 105.033 273.732 105.369 273.396C105.71 273.055 106.102 272.789 106.545 272.598C106.988 272.407 107.464 272.311 107.973 272.311C108.552 272.311 109.051 272.449 109.471 272.724C109.896 272.995 110.229 273.352 110.472 273.795V269ZM107.98 278.73C108.479 278.73 108.909 278.609 109.268 278.366C109.627 278.119 109.903 277.787 110.094 277.372C110.29 276.957 110.388 276.499 110.388 276C110.388 275.487 110.29 275.025 110.094 274.614C109.898 274.199 109.62 273.87 109.261 273.627C108.902 273.384 108.475 273.263 107.98 273.263C107.485 273.263 107.035 273.387 106.629 273.634C106.223 273.877 105.899 274.206 105.656 274.621C105.413 275.036 105.292 275.496 105.292 276C105.292 276.509 105.416 276.971 105.663 277.386C105.91 277.797 106.237 278.123 106.643 278.366C107.054 278.609 107.499 278.73 107.98 278.73ZM112.853 276.819V272.5H113.833V276.623C113.833 277.006 113.926 277.353 114.113 277.666C114.3 277.979 114.549 278.228 114.862 278.415C115.179 278.602 115.527 278.695 115.905 278.695C116.288 278.695 116.633 278.602 116.941 278.415C117.254 278.228 117.503 277.979 117.69 277.666C117.877 277.353 117.97 277.006 117.97 276.623V272.5H118.95L118.957 279.5H117.977L117.97 278.52C117.723 278.875 117.401 279.157 117.004 279.367C116.612 279.577 116.183 279.682 115.716 279.682C115.189 279.682 114.708 279.554 114.274 279.297C113.84 279.04 113.495 278.695 113.238 278.261C112.981 277.827 112.853 277.346 112.853 276.819ZM122.515 279.633C122.132 279.624 121.759 279.554 121.395 279.423C121.031 279.292 120.713 279.115 120.443 278.891C120.172 278.667 119.978 278.413 119.862 278.128L120.709 277.764C120.783 277.946 120.921 278.114 121.122 278.268C121.327 278.417 121.56 278.539 121.822 278.632C122.083 278.721 122.342 278.765 122.599 278.765C122.883 278.765 123.149 278.718 123.397 278.625C123.644 278.532 123.845 278.399 123.999 278.226C124.157 278.049 124.237 277.841 124.237 277.603C124.237 277.346 124.153 277.146 123.985 277.001C123.817 276.852 123.604 276.735 123.348 276.651C123.091 276.562 122.827 276.478 122.557 276.399C122.062 276.264 121.626 276.114 121.248 275.951C120.87 275.788 120.573 275.58 120.359 275.328C120.149 275.071 120.044 274.742 120.044 274.341C120.044 273.916 120.163 273.55 120.401 273.242C120.643 272.929 120.958 272.689 121.346 272.521C121.738 272.348 122.155 272.262 122.599 272.262C123.168 272.262 123.686 272.386 124.153 272.633C124.624 272.88 124.965 273.209 125.175 273.62L124.384 274.089C124.3 273.898 124.167 273.732 123.985 273.592C123.803 273.452 123.595 273.342 123.362 273.263C123.133 273.184 122.9 273.142 122.662 273.137C122.363 273.132 122.085 273.177 121.829 273.27C121.572 273.359 121.364 273.492 121.206 273.669C121.052 273.846 120.975 274.063 120.975 274.32C120.975 274.577 121.052 274.773 121.206 274.908C121.36 275.039 121.567 275.146 121.829 275.23C122.095 275.309 122.393 275.403 122.725 275.51C123.149 275.645 123.548 275.799 123.922 275.972C124.295 276.145 124.596 276.359 124.825 276.616C125.053 276.873 125.165 277.197 125.161 277.589C125.161 278.009 125.035 278.375 124.783 278.688C124.531 279.001 124.204 279.241 123.803 279.409C123.401 279.572 122.972 279.647 122.515 279.633ZM129.944 273.48H128.271L128.264 279.5H127.284L127.291 273.48H126.024V272.5H127.291L127.284 270.302H128.264L128.271 272.5H129.944V273.48ZM131.194 279.5V272.5H132.174V273.466C132.421 273.111 132.743 272.829 133.14 272.619C133.536 272.409 133.968 272.304 134.435 272.304C134.705 272.304 134.967 272.339 135.219 272.409L134.82 273.382C134.624 273.321 134.432 273.291 134.246 273.291C133.868 273.291 133.52 273.384 133.203 273.571C132.89 273.758 132.64 274.007 132.454 274.32C132.267 274.633 132.174 274.98 132.174 275.363V279.5H131.194ZM136.102 272.5H137.082V279.5H136.102V272.5ZM136.599 271.275C136.44 271.275 136.305 271.224 136.193 271.121C136.085 271.014 136.032 270.881 136.032 270.722C136.032 270.563 136.085 270.433 136.193 270.33C136.305 270.223 136.44 270.169 136.599 270.169C136.753 270.169 136.883 270.223 136.991 270.33C137.103 270.433 137.159 270.563 137.159 270.722C137.159 270.881 137.105 271.014 136.998 271.121C136.89 271.224 136.757 271.275 136.599 271.275ZM144.453 272.5H145.433V279.5H144.453L144.418 278.198C144.19 278.641 143.87 279.001 143.459 279.276C143.049 279.547 142.559 279.682 141.989 279.682C141.476 279.682 140.995 279.586 140.547 279.395C140.099 279.199 139.705 278.931 139.364 278.59C139.024 278.249 138.758 277.855 138.566 277.407C138.375 276.959 138.279 276.478 138.279 275.965C138.279 275.461 138.373 274.987 138.559 274.544C138.751 274.101 139.012 273.711 139.343 273.375C139.679 273.039 140.067 272.778 140.505 272.591C140.949 272.4 141.422 272.304 141.926 272.304C142.51 272.304 143.018 272.444 143.452 272.724C143.886 272.999 144.232 273.361 144.488 273.809L144.453 272.5ZM141.968 278.73C142.468 278.73 142.897 278.609 143.256 278.366C143.616 278.119 143.891 277.787 144.082 277.372C144.278 276.957 144.376 276.499 144.376 276C144.376 275.487 144.278 275.025 144.082 274.614C143.886 274.199 143.609 273.87 143.249 273.627C142.89 273.384 142.463 273.263 141.968 273.263C141.474 273.263 141.021 273.387 140.61 273.634C140.204 273.877 139.88 274.206 139.637 274.621C139.399 275.036 139.28 275.496 139.28 276C139.28 276.509 139.404 276.971 139.651 277.386C139.899 277.797 140.225 278.123 140.631 278.366C141.042 278.609 141.488 278.73 141.968 278.73ZM146.93 279.5V269H147.91V279.5H146.93ZM156.242 269.7H157.46L161.03 279.5H159.987L159.224 277.4H154.485L153.722 279.5H152.679L156.242 269.7ZM154.842 276.42H158.86L156.851 270.904L154.842 276.42ZM162.548 279.5V269.7H163.528V279.5H162.548Z" fill="#0C1021"/>
<rect x="371" y="243.5" width="101" height="40" rx="20" fill="#DEF8E8"/>
<rect x="371.5" y="244" width="100" height="39" rx="19.5" stroke="#28BC62" stroke-opacity="0.1"/>
<path d="M385 263.5C385 260.848 386.054 258.304 387.929 256.429C389.804 254.554 392.348 253.5 395 253.5C397.652 253.5 400.196 254.554 402.071 256.429C403.946 258.304 405 260.848 405 263.5C405 266.152 403.946 268.696 402.071 270.571C400.196 272.446 397.652 273.5 395 273.5C392.348 273.5 389.804 272.446 387.929 270.571C386.054 268.696 385 266.152 385 263.5ZM399.708 261.708C399.801 261.615 399.875 261.505 399.925 261.383C399.975 261.262 400.001 261.131 400.001 261C400.001 260.869 399.975 260.738 399.925 260.617C399.875 260.495 399.801 260.385 399.708 260.292C399.615 260.199 399.505 260.125 399.383 260.075C399.262 260.025 399.131 259.999 399 259.999C398.869 259.999 398.738 260.025 398.617 260.075C398.495 260.125 398.385 260.199 398.292 260.292L394 264.586L391.708 262.292C391.615 262.199 391.505 262.125 391.383 262.075C391.262 262.025 391.131 261.999 391 261.999C390.869 261.999 390.738 262.025 390.617 262.075C390.495 262.125 390.385 262.199 390.292 262.292C390.199 262.385 390.125 262.495 390.075 262.617C390.025 262.738 389.999 262.869 389.999 263C389.999 263.131 390.025 263.262 390.075 263.383C390.125 263.505 390.199 263.615 390.292 263.708L393.292 266.708C393.385 266.801 393.495 266.875 393.617 266.925C393.738 266.976 393.868 267.002 394 267.002C394.132 267.002 394.262 266.976 394.383 266.925C394.505 266.875 394.615 266.801 394.708 266.708L399.708 261.708Z" fill="#28BC62"/>
<path d="M419.712 257.8H421.336L425.408 269H423.984L423.152 266.712H417.896L417.072 269H415.64L419.712 257.8ZM418.392 265.368H422.656L420.52 259.52L418.392 265.368ZM431.722 266.888L432.922 267.536C432.559 268.043 432.098 268.448 431.538 268.752C430.983 269.056 430.381 269.208 429.73 269.208C428.994 269.208 428.322 269.019 427.714 268.64C427.111 268.261 426.629 267.755 426.266 267.12C425.909 266.48 425.73 265.773 425.73 265C425.73 264.413 425.834 263.867 426.042 263.36C426.25 262.848 426.535 262.4 426.898 262.016C427.266 261.627 427.693 261.323 428.178 261.104C428.663 260.885 429.181 260.776 429.73 260.776C430.381 260.776 430.983 260.928 431.538 261.232C432.098 261.536 432.559 261.944 432.922 262.456L431.722 263.104C431.466 262.789 431.162 262.547 430.81 262.376C430.458 262.205 430.098 262.12 429.73 262.12C429.234 262.12 428.783 262.253 428.378 262.52C427.978 262.781 427.661 263.131 427.426 263.568C427.191 264.005 427.074 264.483 427.074 265C427.074 265.517 427.191 265.995 427.426 266.432C427.666 266.864 427.986 267.211 428.386 267.472C428.791 267.733 429.239 267.864 429.73 267.864C430.125 267.864 430.495 267.773 430.842 267.592C431.189 267.411 431.482 267.176 431.722 266.888ZM438.51 262.344H436.694L436.686 269H435.342L435.35 262.344H433.974V261H435.35L435.342 258.488H436.686L436.694 261H438.51V262.344ZM439.866 261H441.21V269H439.866V261ZM440.554 259.696C440.341 259.696 440.162 259.627 440.018 259.488C439.874 259.349 439.802 259.176 439.802 258.968C439.802 258.76 439.874 258.587 440.018 258.448C440.162 258.309 440.338 258.24 440.546 258.24C440.754 258.24 440.93 258.309 441.074 258.448C441.218 258.587 441.29 258.76 441.29 258.968C441.29 259.176 441.218 259.349 441.074 259.488C440.936 259.627 440.762 259.696 440.554 259.696ZM447.151 269H445.431L442.511 260.984H443.943L446.287 267.44L448.631 260.984H450.063L447.151 269ZM454.558 269.208C453.822 269.208 453.15 269.019 452.542 268.64C451.939 268.261 451.457 267.755 451.094 267.12C450.737 266.48 450.558 265.773 450.558 265C450.558 264.413 450.662 263.867 450.87 263.36C451.078 262.848 451.363 262.4 451.726 262.016C452.094 261.627 452.521 261.323 453.006 261.104C453.491 260.885 454.009 260.776 454.558 260.776C455.161 260.776 455.713 260.899 456.214 261.144C456.721 261.384 457.153 261.72 457.51 262.152C457.873 262.584 458.142 263.085 458.318 263.656C458.499 264.227 458.566 264.837 458.518 265.488H451.99C452.054 265.941 452.203 266.347 452.438 266.704C452.673 267.056 452.971 267.336 453.334 267.544C453.702 267.752 454.11 267.859 454.558 267.864C455.038 267.864 455.473 267.741 455.862 267.496C456.251 267.245 456.566 266.904 456.806 266.472L458.174 266.792C457.854 267.501 457.371 268.083 456.726 268.536C456.081 268.984 455.358 269.208 454.558 269.208ZM451.95 264.432H457.166C457.123 263.984 456.979 263.576 456.734 263.208C456.489 262.835 456.177 262.536 455.798 262.312C455.419 262.088 455.006 261.976 454.558 261.976C454.11 261.976 453.699 262.085 453.326 262.304C452.953 262.523 452.643 262.819 452.398 263.192C452.158 263.56 452.009 263.973 451.95 264.432Z" fill="#28BC62"/>
<rect x="93" y="307.5" width="379" height="1" fill="#535662" fill-opacity="0.15"/>
<rect x="93.5" y="333" width="72" height="40" rx="20" stroke="#0C1021" stroke-opacity="0.1"/>
<path d="M110.39 357.682C109.727 357.682 109.104 357.551 108.521 357.29C107.937 357.024 107.424 356.66 106.981 356.198C106.542 355.731 106.197 355.19 105.945 354.574C105.697 353.958 105.574 353.3 105.574 352.6C105.574 351.9 105.697 351.242 105.945 350.626C106.197 350.01 106.542 349.471 106.981 349.009C107.424 348.542 107.937 348.178 108.521 347.917C109.104 347.651 109.727 347.518 110.39 347.518C111.183 347.518 111.913 347.702 112.581 348.071C113.248 348.44 113.801 348.93 114.24 349.541L113.372 350.01C113.026 349.548 112.588 349.182 112.056 348.911C111.528 348.636 110.973 348.498 110.39 348.498C109.853 348.498 109.351 348.608 108.885 348.827C108.423 349.042 108.017 349.338 107.667 349.716C107.317 350.094 107.044 350.53 106.848 351.025C106.652 351.52 106.554 352.045 106.554 352.6C106.554 353.165 106.652 353.694 106.848 354.189C107.048 354.684 107.324 355.12 107.674 355.498C108.028 355.876 108.437 356.172 108.899 356.387C109.365 356.597 109.862 356.702 110.39 356.702C110.996 356.702 111.559 356.564 112.077 356.289C112.599 356.009 113.031 355.645 113.372 355.197L114.24 355.666C113.801 356.277 113.248 356.767 112.581 357.136C111.913 357.5 111.183 357.682 110.39 357.682ZM121.041 350.5H122.021V357.5H121.041L121.006 356.198C120.778 356.641 120.458 357.001 120.047 357.276C119.637 357.547 119.147 357.682 118.577 357.682C118.064 357.682 117.583 357.586 117.135 357.395C116.687 357.199 116.293 356.931 115.952 356.59C115.612 356.249 115.346 355.855 115.154 355.407C114.963 354.959 114.867 354.478 114.867 353.965C114.867 353.461 114.961 352.987 115.147 352.544C115.339 352.101 115.6 351.711 115.931 351.375C116.267 351.039 116.655 350.778 117.093 350.591C117.537 350.4 118.01 350.304 118.514 350.304C119.098 350.304 119.606 350.444 120.04 350.724C120.474 350.999 120.82 351.361 121.076 351.809L121.041 350.5ZM118.556 356.73C119.056 356.73 119.485 356.609 119.844 356.366C120.204 356.119 120.479 355.787 120.67 355.372C120.866 354.957 120.964 354.499 120.964 354C120.964 353.487 120.866 353.025 120.67 352.614C120.474 352.199 120.197 351.87 119.837 351.627C119.478 351.384 119.051 351.263 118.556 351.263C118.062 351.263 117.609 351.387 117.198 351.634C116.792 351.877 116.468 352.206 116.225 352.621C115.987 353.036 115.868 353.496 115.868 354C115.868 354.509 115.992 354.971 116.239 355.386C116.487 355.797 116.813 356.123 117.219 356.366C117.63 356.609 118.076 356.73 118.556 356.73ZM126.999 351.48H125.326L125.319 357.5H124.339L124.346 351.48H123.079V350.5H124.346L124.339 348.302H125.319L125.326 350.5H126.999V351.48ZM133.811 350.5H134.791V357.5H133.811L133.776 356.198C133.547 356.641 133.227 357.001 132.817 357.276C132.406 357.547 131.916 357.682 131.347 357.682C130.833 357.682 130.353 357.586 129.905 357.395C129.457 357.199 129.062 356.931 128.722 356.59C128.381 356.249 128.115 355.855 127.924 355.407C127.732 354.959 127.637 354.478 127.637 353.965C127.637 353.461 127.73 352.987 127.917 352.544C128.108 352.101 128.369 351.711 128.701 351.375C129.037 351.039 129.424 350.778 129.863 350.591C130.306 350.4 130.78 350.304 131.284 350.304C131.867 350.304 132.376 350.444 132.81 350.724C133.244 350.999 133.589 351.361 133.846 351.809L133.811 350.5ZM131.326 356.73C131.825 356.73 132.254 356.609 132.614 356.366C132.973 356.119 133.248 355.787 133.44 355.372C133.636 354.957 133.734 354.499 133.734 354C133.734 353.487 133.636 353.025 133.44 352.614C133.244 352.199 132.966 351.87 132.607 351.627C132.247 351.384 131.82 351.263 131.326 351.263C130.831 351.263 130.378 351.387 129.968 351.634C129.562 351.877 129.237 352.206 128.995 352.621C128.757 353.036 128.638 353.496 128.638 354C128.638 354.509 128.761 354.971 129.009 355.386C129.256 355.797 129.583 356.123 129.989 356.366C130.399 356.609 130.845 356.73 131.326 356.73ZM136.287 357.5V347H137.267V357.5H136.287ZM141.979 357.682C141.335 357.682 140.747 357.516 140.215 357.185C139.687 356.854 139.265 356.41 138.948 355.855C138.635 355.295 138.479 354.677 138.479 354C138.479 353.487 138.57 353.008 138.752 352.565C138.934 352.117 139.183 351.725 139.501 351.389C139.823 351.048 140.196 350.782 140.621 350.591C141.045 350.4 141.498 350.304 141.979 350.304C142.623 350.304 143.208 350.47 143.736 350.801C144.268 351.132 144.69 351.578 145.003 352.138C145.32 352.698 145.479 353.319 145.479 354C145.479 354.509 145.388 354.985 145.206 355.428C145.024 355.871 144.772 356.263 144.45 356.604C144.132 356.94 143.761 357.204 143.337 357.395C142.917 357.586 142.464 357.682 141.979 357.682ZM141.979 356.702C142.455 356.702 142.882 356.578 143.26 356.331C143.642 356.079 143.943 355.748 144.163 355.337C144.387 354.926 144.499 354.481 144.499 354C144.499 353.51 144.387 353.06 144.163 352.649C143.939 352.234 143.635 351.902 143.253 351.655C142.875 351.408 142.45 351.284 141.979 351.284C141.503 351.284 141.073 351.41 140.691 351.662C140.313 351.909 140.012 352.238 139.788 352.649C139.568 353.06 139.459 353.51 139.459 354C139.459 354.504 139.573 354.961 139.802 355.372C140.03 355.778 140.336 356.102 140.719 356.345C141.101 356.583 141.521 356.702 141.979 356.702ZM152.161 350.5H153.141V357.759C153.141 358.207 153.043 358.627 152.847 359.019C152.656 359.411 152.394 359.754 152.063 360.048C151.736 360.347 151.363 360.58 150.943 360.748C150.523 360.916 150.087 361 149.634 361C149.149 361 148.68 360.888 148.227 360.664C147.774 360.445 147.38 360.151 147.044 359.782C146.713 359.413 146.477 359.005 146.337 358.557L147.24 358.144C147.329 358.494 147.494 358.809 147.737 359.089C147.984 359.374 148.274 359.598 148.605 359.761C148.941 359.929 149.284 360.013 149.634 360.013C149.956 360.013 150.266 359.952 150.565 359.831C150.868 359.714 151.139 359.553 151.377 359.348C151.62 359.143 151.811 358.902 151.951 358.627C152.091 358.356 152.161 358.067 152.161 357.759V356.212C151.918 356.651 151.589 357.005 151.174 357.276C150.763 357.547 150.285 357.682 149.739 357.682C149.249 357.682 148.787 357.586 148.353 357.395C147.924 357.204 147.546 356.94 147.219 356.604C146.892 356.263 146.636 355.871 146.449 355.428C146.267 354.985 146.176 354.509 146.176 354C146.176 353.491 146.267 353.015 146.449 352.572C146.636 352.124 146.892 351.732 147.219 351.396C147.546 351.055 147.924 350.789 148.353 350.598C148.787 350.407 149.249 350.311 149.739 350.311C150.285 350.311 150.763 350.446 151.174 350.717C151.589 350.983 151.918 351.338 152.161 351.781V350.5ZM149.746 356.73C150.231 356.73 150.649 356.604 150.999 356.352C151.354 356.1 151.627 355.766 151.818 355.351C152.009 354.936 152.105 354.485 152.105 354C152.105 353.501 152.007 353.046 151.811 352.635C151.62 352.22 151.347 351.888 150.992 351.641C150.637 351.389 150.222 351.263 149.746 351.263C149.27 351.263 148.836 351.387 148.444 351.634C148.057 351.877 147.749 352.206 147.52 352.621C147.291 353.036 147.177 353.496 147.177 354C147.177 354.504 147.294 354.964 147.527 355.379C147.76 355.79 148.071 356.119 148.458 356.366C148.85 356.609 149.279 356.73 149.746 356.73Z" fill="#0C1021"/>
<rect x="172.5" y="333" width="102" height="40" rx="20" stroke="#0C1021" stroke-opacity="0.1"/>
<path d="M184.91 357.5L186.807 347.7H187.521L190.265 354.91L192.995 347.7H193.709L195.613 357.5H194.612L193.163 350.003L190.573 356.856H189.943L187.353 350.003L185.904 357.5H184.91ZM202.49 350.5H203.47V357.5H202.49L202.455 356.198C202.227 356.641 201.907 357.001 201.496 357.276C201.086 357.547 200.596 357.682 200.026 357.682C199.513 357.682 199.032 357.586 198.584 357.395C198.136 357.199 197.742 356.931 197.401 356.59C197.061 356.249 196.795 355.855 196.603 355.407C196.412 354.959 196.316 354.478 196.316 353.965C196.316 353.461 196.41 352.987 196.596 352.544C196.788 352.101 197.049 351.711 197.38 351.375C197.716 351.039 198.104 350.778 198.542 350.591C198.986 350.4 199.459 350.304 199.963 350.304C200.547 350.304 201.055 350.444 201.489 350.724C201.923 350.999 202.269 351.361 202.525 351.809L202.49 350.5ZM200.005 356.73C200.505 356.73 200.934 356.609 201.293 356.366C201.653 356.119 201.928 355.787 202.119 355.372C202.315 354.957 202.413 354.499 202.413 354C202.413 353.487 202.315 353.025 202.119 352.614C201.923 352.199 201.646 351.87 201.286 351.627C200.927 351.384 200.5 351.263 200.005 351.263C199.511 351.263 199.058 351.387 198.647 351.634C198.241 351.877 197.917 352.206 197.674 352.621C197.436 353.036 197.317 353.496 197.317 354C197.317 354.509 197.441 354.971 197.688 355.386C197.936 355.797 198.262 356.123 198.668 356.366C199.079 356.609 199.525 356.73 200.005 356.73ZM204.871 357.5V350.5H205.851V351.466C206.099 351.111 206.421 350.829 206.817 350.619C207.214 350.409 207.646 350.304 208.112 350.304C208.383 350.304 208.644 350.339 208.896 350.409L208.497 351.382C208.301 351.321 208.11 351.291 207.923 351.291C207.545 351.291 207.198 351.384 206.88 351.571C206.568 351.758 206.318 352.007 206.131 352.32C205.945 352.633 205.851 352.98 205.851 353.363V357.5H204.871ZM215.178 357.5H214.051L212.091 354.119L210.691 355.792V357.5H209.711V347H210.691V354.266L213.848 350.5H215.129L212.756 353.321L215.178 357.5ZM219.135 357.682C218.491 357.682 217.903 357.516 217.371 357.185C216.844 356.854 216.421 356.41 216.104 355.855C215.791 355.295 215.635 354.677 215.635 354C215.635 353.487 215.726 353.008 215.908 352.565C216.09 352.117 216.34 351.725 216.657 351.389C216.979 351.048 217.352 350.782 217.777 350.591C218.202 350.4 218.654 350.304 219.135 350.304C219.653 350.304 220.129 350.407 220.563 350.612C221.002 350.817 221.377 351.104 221.69 351.473C222.007 351.842 222.245 352.273 222.404 352.768C222.567 353.263 222.635 353.797 222.607 354.371H216.671C216.727 354.814 216.867 355.211 217.091 355.561C217.32 355.911 217.609 356.189 217.959 356.394C218.314 356.595 218.706 356.697 219.135 356.702C219.602 356.702 220.022 356.581 220.395 356.338C220.773 356.095 221.076 355.762 221.305 355.337L222.299 355.568C222.019 356.189 221.597 356.697 221.032 357.094C220.467 357.486 219.835 357.682 219.135 357.682ZM216.643 353.58H221.62C221.587 353.146 221.454 352.749 221.221 352.39C220.992 352.026 220.696 351.737 220.332 351.522C219.968 351.303 219.569 351.193 219.135 351.193C218.701 351.193 218.304 351.3 217.945 351.515C217.586 351.725 217.292 352.012 217.063 352.376C216.834 352.735 216.694 353.137 216.643 353.58ZM227.261 351.48H225.588L225.581 357.5H224.601L224.608 351.48H223.341V350.5H224.608L224.601 348.302H225.581L225.588 350.5H227.261V351.48ZM231.873 357.5V347.7H232.853V356.52H237.354V357.5H231.873ZM241.256 357.682C240.612 357.682 240.024 357.516 239.492 357.185C238.965 356.854 238.542 356.41 238.225 355.855C237.912 355.295 237.756 354.677 237.756 354C237.756 353.487 237.847 353.008 238.029 352.565C238.211 352.117 238.461 351.725 238.778 351.389C239.1 351.048 239.473 350.782 239.898 350.591C240.323 350.4 240.775 350.304 241.256 350.304C241.9 350.304 242.486 350.47 243.013 350.801C243.545 351.132 243.967 351.578 244.28 352.138C244.597 352.698 244.756 353.319 244.756 354C244.756 354.509 244.665 354.985 244.483 355.428C244.301 355.871 244.049 356.263 243.727 356.604C243.41 356.94 243.039 357.204 242.614 357.395C242.194 357.586 241.741 357.682 241.256 357.682ZM241.256 356.702C241.732 356.702 242.159 356.578 242.537 356.331C242.92 356.079 243.221 355.748 243.44 355.337C243.664 354.926 243.776 354.481 243.776 354C243.776 353.51 243.664 353.06 243.44 352.649C243.216 352.234 242.913 351.902 242.53 351.655C242.152 351.408 241.727 351.284 241.256 351.284C240.78 351.284 240.351 351.41 239.968 351.662C239.59 351.909 239.289 352.238 239.065 352.649C238.846 353.06 238.736 353.51 238.736 354C238.736 354.504 238.85 354.961 239.079 355.372C239.308 355.778 239.613 356.102 239.996 356.345C240.379 356.583 240.799 356.702 241.256 356.702ZM251.438 350.5H252.418V357.759C252.418 358.207 252.32 358.627 252.124 359.019C251.933 359.411 251.672 359.754 251.34 360.048C251.014 360.347 250.64 360.58 250.22 360.748C249.8 360.916 249.364 361 248.911 361C248.426 361 247.957 360.888 247.504 360.664C247.052 360.445 246.657 360.151 246.321 359.782C245.99 359.413 245.754 359.005 245.614 358.557L246.517 358.144C246.606 358.494 246.772 358.809 247.014 359.089C247.262 359.374 247.551 359.598 247.882 359.761C248.218 359.929 248.561 360.013 248.911 360.013C249.233 360.013 249.544 359.952 249.842 359.831C250.146 359.714 250.416 359.553 250.654 359.348C250.897 359.143 251.088 358.902 251.228 358.627C251.368 358.356 251.438 358.067 251.438 357.759V356.212C251.196 356.651 250.867 357.005 250.451 357.276C250.041 357.547 249.562 357.682 249.016 357.682C248.526 357.682 248.064 357.586 247.63 357.395C247.201 357.204 246.823 356.94 246.496 356.604C246.17 356.263 245.913 355.871 245.726 355.428C245.544 354.985 245.453 354.509 245.453 354C245.453 353.491 245.544 353.015 245.726 352.572C245.913 352.124 246.17 351.732 246.496 351.396C246.823 351.055 247.201 350.789 247.63 350.598C248.064 350.407 248.526 350.311 249.016 350.311C249.562 350.311 250.041 350.446 250.451 350.717C250.867 350.983 251.196 351.338 251.438 351.781V350.5ZM249.023 356.73C249.509 356.73 249.926 356.604 250.276 356.352C250.631 356.1 250.904 355.766 251.095 355.351C251.287 354.936 251.382 354.485 251.382 354C251.382 353.501 251.284 353.046 251.088 352.635C250.897 352.22 250.624 351.888 250.269 351.641C249.915 351.389 249.499 351.263 249.023 351.263C248.547 351.263 248.113 351.387 247.721 351.634C247.334 351.877 247.026 352.206 246.797 352.621C246.569 353.036 246.454 353.496 246.454 354C246.454 354.504 246.571 354.964 246.804 355.379C247.038 355.79 247.348 356.119 247.735 356.366C248.127 356.609 248.557 356.73 249.023 356.73ZM254.035 350.5H255.015V357.5H254.035V350.5ZM254.532 349.275C254.374 349.275 254.238 349.224 254.126 349.121C254.019 349.014 253.965 348.881 253.965 348.722C253.965 348.563 254.019 348.433 254.126 348.33C254.238 348.223 254.374 348.169 254.532 348.169C254.686 348.169 254.817 348.223 254.924 348.33C255.036 348.433 255.092 348.563 255.092 348.722C255.092 348.881 255.039 349.014 254.931 349.121C254.824 349.224 254.691 349.275 254.532 349.275ZM261.631 355.743L262.506 356.219C262.189 356.662 261.785 357.017 261.295 357.283C260.81 357.549 260.282 357.682 259.713 357.682C259.069 357.682 258.481 357.516 257.949 357.185C257.422 356.854 256.999 356.41 256.682 355.855C256.369 355.295 256.213 354.677 256.213 354C256.213 353.487 256.304 353.008 256.486 352.565C256.668 352.117 256.918 351.725 257.235 351.389C257.557 351.048 257.93 350.782 258.355 350.591C258.78 350.4 259.232 350.304 259.713 350.304C260.282 350.304 260.81 350.437 261.295 350.703C261.785 350.969 262.189 351.326 262.506 351.774L261.631 352.243C261.388 351.935 261.097 351.699 260.756 351.536C260.415 351.368 260.068 351.284 259.713 351.284C259.242 351.284 258.815 351.41 258.432 351.662C258.049 351.909 257.746 352.238 257.522 352.649C257.303 353.06 257.193 353.51 257.193 354C257.193 354.49 257.305 354.94 257.529 355.351C257.758 355.762 258.063 356.091 258.446 356.338C258.829 356.581 259.251 356.702 259.713 356.702C260.096 356.702 260.455 356.613 260.791 356.436C261.127 356.259 261.407 356.028 261.631 355.743Z" fill="#0C1021"/>
</g>
<defs>
<filter id="filter0_d_3044_826" x="50.6142" y="151.791" width="463.772" height="267.772" filterUnits="userSpaceOnUse" color-interpolation-filters="sRGB">
<feFlood flood-opacity="0" result="BackgroundImageFix"/>
<feColorMatrix in="SourceAlpha" type="matrix" values="0 0 0 0 0 0 0 0 0 0 0 0 0 0 0 0 0 0 127 0" result="hardAlpha"/>
<feOffset dy="3.67715"/>
<feGaussianBlur stdDeviation="9.19289"/>
<feComposite in2="hardAlpha" operator="out"/>
<feColorMatrix type="matrix" values="0 0 0 0 0.0468057 0 0 0 0 0.0634939 0 0 0 0 0.129808 0 0 0 0.1 0"/>
<feBlend mode="normal" in2="BackgroundImageFix" result="effect1_dropShadow_3044_826"/>
<feBlend mode="normal" in="SourceGraphic" in2="effect1_dropShadow_3044_826" result="shape"/>
</filter>
</defs>
</svg>
