<svg width="564" height="564" viewBox="0 0 564 564" fill="none" xmlns="http://www.w3.org/2000/svg">
<rect width="564" height="564" rx="24" fill="#FAFAFA"/>
<g filter="url(#filter0_d_3044_961)">
<rect x="68" y="183.5" width="427" height="197" rx="22.0629" fill="white" shape-rendering="crispEdges"/>
<rect x="68.4596" y="183.96" width="426.081" height="196.081" rx="21.6033" stroke="#0C1021" stroke-opacity="0.05" stroke-width="0.919289" shape-rendering="crispEdges"/>
<path d="M93.44 230.5V213.7H103.868V216.196H95.936V220.252H102.32V222.748H95.936V228.004H103.868V230.5H93.44ZM109.602 215.776V218.5H112.986V220.996H109.602V230.5H107.106V220.996H105.678V218.5H107.106V215.776C107.106 215.12 107.266 214.524 107.586 213.988C107.906 213.444 108.334 213.012 108.87 212.692C109.414 212.372 110.018 212.212 110.682 212.212C111.162 212.212 111.63 212.308 112.086 212.5C112.542 212.692 112.95 212.988 113.31 213.388L111.522 215.152C111.434 215.008 111.31 214.9 111.15 214.828C110.998 214.748 110.842 214.708 110.682 214.708C110.386 214.708 110.13 214.812 109.914 215.02C109.706 215.228 109.602 215.48 109.602 215.776ZM118.274 215.776V218.5H121.658V220.996H118.274V230.5H115.778V220.996H114.35V218.5H115.778V215.776C115.778 215.12 115.938 214.524 116.258 213.988C116.578 213.444 117.006 213.012 117.542 212.692C118.086 212.372 118.69 212.212 119.354 212.212C119.834 212.212 120.302 212.308 120.758 212.5C121.214 212.692 121.622 212.988 121.982 213.388L120.194 215.152C120.106 215.008 119.982 214.9 119.822 214.828C119.67 214.748 119.514 214.708 119.354 214.708C119.058 214.708 118.802 214.812 118.586 215.02C118.378 215.228 118.274 215.48 118.274 215.776ZM123.51 218.5H126.006V230.5H123.51V218.5ZM124.782 216.76C124.398 216.76 124.078 216.636 123.822 216.388C123.566 216.14 123.438 215.828 123.438 215.452C123.438 215.084 123.566 214.776 123.822 214.528C124.078 214.272 124.394 214.144 124.77 214.144C125.138 214.144 125.45 214.272 125.706 214.528C125.962 214.776 126.09 215.084 126.09 215.452C126.09 215.828 125.962 216.14 125.706 216.388C125.458 216.636 125.15 216.76 124.782 216.76ZM136.503 227.092L138.735 228.304C138.191 229.064 137.499 229.672 136.659 230.128C135.827 230.584 134.923 230.812 133.947 230.812C132.843 230.812 131.835 230.528 130.923 229.96C130.019 229.392 129.295 228.632 128.751 227.68C128.215 226.72 127.947 225.66 127.947 224.5C127.947 223.62 128.103 222.8 128.415 222.04C128.727 221.272 129.155 220.6 129.699 220.024C130.251 219.44 130.891 218.984 131.619 218.656C132.347 218.328 133.123 218.164 133.947 218.164C134.923 218.164 135.827 218.392 136.659 218.848C137.499 219.304 138.191 219.916 138.735 220.684L136.503 221.896C136.167 221.496 135.775 221.192 135.327 220.984C134.879 220.768 134.419 220.66 133.947 220.66C133.291 220.66 132.695 220.84 132.159 221.2C131.631 221.552 131.211 222.02 130.899 222.604C130.595 223.18 130.443 223.812 130.443 224.5C130.443 225.18 130.599 225.812 130.911 226.396C131.223 226.972 131.643 227.436 132.171 227.788C132.707 228.14 133.299 228.316 133.947 228.316C134.443 228.316 134.915 228.204 135.363 227.98C135.811 227.756 136.191 227.46 136.503 227.092ZM140.526 218.5H143.022V230.5H140.526V218.5ZM141.798 216.76C141.414 216.76 141.094 216.636 140.838 216.388C140.582 216.14 140.454 215.828 140.454 215.452C140.454 215.084 140.582 214.776 140.838 214.528C141.094 214.272 141.41 214.144 141.786 214.144C142.154 214.144 142.466 214.272 142.722 214.528C142.978 214.776 143.106 215.084 143.106 215.452C143.106 215.828 142.978 216.14 142.722 216.388C142.474 216.636 142.166 216.76 141.798 216.76ZM150.962 230.812C149.858 230.812 148.85 230.528 147.938 229.96C147.034 229.392 146.31 228.632 145.766 227.68C145.23 226.72 144.962 225.66 144.962 224.5C144.962 223.62 145.118 222.8 145.43 222.04C145.742 221.272 146.17 220.6 146.714 220.024C147.266 219.44 147.906 218.984 148.634 218.656C149.362 218.328 150.138 218.164 150.962 218.164C151.882 218.164 152.726 218.356 153.494 218.74C154.262 219.116 154.918 219.64 155.462 220.312C156.006 220.976 156.406 221.744 156.662 222.616C156.918 223.48 156.994 224.4 156.89 225.376H147.638C147.742 225.928 147.942 226.428 148.238 226.876C148.542 227.316 148.926 227.664 149.39 227.92C149.862 228.176 150.386 228.308 150.962 228.316C151.57 228.316 152.122 228.164 152.618 227.86C153.122 227.556 153.534 227.136 153.854 226.6L156.386 227.188C155.906 228.252 155.182 229.124 154.214 229.804C153.246 230.476 152.162 230.812 150.962 230.812ZM147.554 223.468H154.37C154.29 222.892 154.086 222.372 153.758 221.908C153.438 221.436 153.034 221.064 152.546 220.792C152.066 220.512 151.538 220.372 150.962 220.372C150.394 220.372 149.866 220.508 149.378 220.78C148.898 221.052 148.498 221.424 148.178 221.896C147.866 222.36 147.658 222.884 147.554 223.468ZM169.678 222.976V230.5H167.182V223.588C167.182 223.052 167.05 222.564 166.786 222.124C166.53 221.684 166.182 221.336 165.742 221.08C165.31 220.816 164.822 220.684 164.278 220.684C163.75 220.684 163.266 220.816 162.826 221.08C162.386 221.336 162.034 221.684 161.77 222.124C161.506 222.564 161.374 223.052 161.374 223.588V230.5H158.878V218.5H161.374V219.772C161.79 219.276 162.302 218.884 162.91 218.596C163.518 218.308 164.174 218.164 164.878 218.164C165.766 218.164 166.574 218.38 167.302 218.812C168.03 219.244 168.606 219.824 169.03 220.552C169.462 221.28 169.678 222.088 169.678 222.976ZM179.674 227.092L181.906 228.304C181.362 229.064 180.67 229.672 179.83 230.128C178.998 230.584 178.094 230.812 177.118 230.812C176.014 230.812 175.006 230.528 174.094 229.96C173.19 229.392 172.466 228.632 171.922 227.68C171.386 226.72 171.118 225.66 171.118 224.5C171.118 223.62 171.274 222.8 171.586 222.04C171.898 221.272 172.326 220.6 172.87 220.024C173.422 219.44 174.062 218.984 174.79 218.656C175.518 218.328 176.294 218.164 177.118 218.164C178.094 218.164 178.998 218.392 179.83 218.848C180.67 219.304 181.362 219.916 181.906 220.684L179.674 221.896C179.338 221.496 178.946 221.192 178.498 220.984C178.05 220.768 177.59 220.66 177.118 220.66C176.462 220.66 175.866 220.84 175.33 221.2C174.802 221.552 174.382 222.02 174.07 222.604C173.766 223.18 173.614 223.812 173.614 224.5C173.614 225.18 173.77 225.812 174.082 226.396C174.394 226.972 174.814 227.436 175.342 227.788C175.878 228.14 176.47 228.316 177.118 228.316C177.614 228.316 178.086 228.204 178.534 227.98C178.982 227.756 179.362 227.46 179.674 227.092ZM191.566 218.5H194.23L187.654 236.5H185.002L187.174 230.5L182.866 218.5H185.59L188.422 227.08L191.566 218.5Z" fill="#0C1021"/>
<rect x="92" y="260.5" width="24" height="24" rx="12" fill="#28BC62"/>
<path d="M109.139 268.695C109.201 268.757 109.25 268.83 109.284 268.911C109.317 268.992 109.335 269.079 109.335 269.167C109.335 269.254 109.317 269.341 109.284 269.422C109.25 269.503 109.201 269.577 109.139 269.639L103.139 275.639C103.077 275.701 103.003 275.75 102.922 275.784C102.841 275.817 102.754 275.834 102.667 275.834C102.579 275.834 102.492 275.817 102.411 275.784C102.33 275.75 102.257 275.701 102.195 275.639L99.528 272.972C99.4028 272.847 99.3325 272.677 99.3325 272.5C99.3325 272.323 99.4028 272.153 99.528 272.028C99.6532 271.903 99.823 271.832 100 271.832C100.177 271.832 100.347 271.903 100.472 272.028L102.667 274.224L108.195 268.695C108.257 268.633 108.33 268.583 108.411 268.55C108.492 268.516 108.579 268.499 108.667 268.499C108.754 268.499 108.841 268.516 108.922 268.55C109.003 268.583 109.077 268.633 109.139 268.695Z" fill="white"/>
<rect x="103.5" y="284.5" width="1" height="12" fill="#28BC62"/>
<path d="M127.344 277.708C126.448 277.708 125.669 277.489 125.008 277.052C124.352 276.615 123.845 276.028 123.488 275.292C123.136 274.551 122.96 273.729 122.96 272.828V266.3H124.304V272.828C124.304 273.468 124.421 274.057 124.656 274.596C124.896 275.135 125.24 275.564 125.688 275.884C126.141 276.204 126.693 276.364 127.344 276.364C128.005 276.364 128.56 276.204 129.008 275.884C129.456 275.559 129.795 275.129 130.024 274.596C130.259 274.057 130.376 273.468 130.376 272.828V266.3H131.72V272.828C131.72 273.505 131.619 274.14 131.416 274.732C131.213 275.319 130.92 275.836 130.536 276.284C130.157 276.732 129.699 277.081 129.16 277.332C128.621 277.583 128.016 277.708 127.344 277.708ZM137.792 270.844H135.976L135.968 277.5H134.624L134.632 270.844H133.256V269.5H134.632L134.624 266.988H135.968L135.976 269.5H137.792V270.844ZM139.148 269.5H140.492V277.5H139.148V269.5ZM139.836 268.196C139.622 268.196 139.444 268.127 139.3 267.988C139.156 267.849 139.084 267.676 139.084 267.468C139.084 267.26 139.156 267.087 139.3 266.948C139.444 266.809 139.62 266.74 139.828 266.74C140.036 266.74 140.212 266.809 140.356 266.948C140.5 267.087 140.572 267.26 140.572 267.468C140.572 267.676 140.5 267.849 140.356 267.988C140.217 268.127 140.044 268.196 139.836 268.196ZM142.46 277.5V265.5H143.804V277.5H142.46ZM145.726 269.5H147.07V277.5H145.726V269.5ZM146.414 268.196C146.2 268.196 146.022 268.127 145.878 267.988C145.734 267.849 145.662 267.676 145.662 267.468C145.662 267.26 145.734 267.087 145.878 266.948C146.022 266.809 146.198 266.74 146.406 266.74C146.614 266.74 146.79 266.809 146.934 266.948C147.078 267.087 147.15 267.26 147.15 267.468C147.15 267.676 147.078 267.849 146.934 267.988C146.795 268.127 146.622 268.196 146.414 268.196ZM155.503 270.844L150.583 276.156H155.503V277.5H148.671V276.156L153.591 270.844H148.671V269.5H155.503V270.844ZM163.423 269.5H164.767V277.5H163.423L163.367 276.148C163.117 276.612 162.77 276.988 162.327 277.276C161.89 277.564 161.367 277.708 160.759 277.708C160.173 277.708 159.623 277.599 159.111 277.38C158.599 277.156 158.146 276.849 157.751 276.46C157.362 276.065 157.058 275.612 156.839 275.1C156.621 274.588 156.511 274.036 156.511 273.444C156.511 272.873 156.618 272.335 156.831 271.828C157.045 271.321 157.341 270.879 157.719 270.5C158.103 270.116 158.546 269.817 159.047 269.604C159.549 269.385 160.087 269.276 160.663 269.276C161.293 269.276 161.845 269.425 162.319 269.724C162.794 270.017 163.178 270.399 163.471 270.868L163.423 269.5ZM160.735 276.404C161.263 276.404 161.719 276.276 162.103 276.02C162.493 275.759 162.791 275.407 162.999 274.964C163.213 274.521 163.319 274.033 163.319 273.5C163.319 272.956 163.213 272.465 162.999 272.028C162.786 271.585 162.485 271.236 162.095 270.98C161.711 270.719 161.258 270.588 160.735 270.588C160.207 270.588 159.727 270.719 159.295 270.98C158.863 271.241 158.519 271.593 158.263 272.036C158.013 272.473 157.887 272.961 157.887 273.5C157.887 274.039 158.018 274.529 158.279 274.972C158.541 275.409 158.887 275.759 159.319 276.02C159.751 276.276 160.223 276.404 160.735 276.404ZM170.51 270.844H168.694L168.686 277.5H167.342L167.35 270.844H165.974V269.5H167.35L167.342 266.988H168.686L168.694 269.5H170.51V270.844ZM171.866 269.5H173.21V277.5H171.866V269.5ZM172.554 268.196C172.341 268.196 172.162 268.127 172.018 267.988C171.874 267.849 171.802 267.676 171.802 267.468C171.802 267.26 171.874 267.087 172.018 266.948C172.162 266.809 172.338 266.74 172.546 266.74C172.754 266.74 172.93 266.809 173.074 266.948C173.218 267.087 173.29 267.26 173.29 267.468C173.29 267.676 173.218 267.849 173.074 267.988C172.936 268.127 172.762 268.196 172.554 268.196ZM178.543 277.708C177.807 277.708 177.135 277.519 176.527 277.14C175.924 276.761 175.441 276.255 175.079 275.62C174.721 274.98 174.543 274.273 174.543 273.5C174.543 272.913 174.647 272.367 174.855 271.86C175.063 271.348 175.348 270.9 175.711 270.516C176.079 270.127 176.505 269.823 176.991 269.604C177.476 269.385 177.993 269.276 178.543 269.276C179.279 269.276 179.948 269.465 180.551 269.844C181.159 270.223 181.641 270.732 181.999 271.372C182.361 272.012 182.543 272.721 182.543 273.5C182.543 274.081 182.439 274.625 182.231 275.132C182.023 275.639 181.735 276.087 181.367 276.476C181.004 276.86 180.58 277.161 180.095 277.38C179.615 277.599 179.097 277.708 178.543 277.708ZM178.543 276.364C179.044 276.364 179.495 276.233 179.895 275.972C180.3 275.705 180.617 275.356 180.847 274.924C181.081 274.487 181.199 274.012 181.199 273.5C181.199 272.977 181.079 272.497 180.839 272.06C180.604 271.623 180.287 271.273 179.887 271.012C179.487 270.751 179.039 270.62 178.543 270.62C178.041 270.62 177.591 270.753 177.191 271.02C176.791 271.281 176.473 271.631 176.239 272.068C176.004 272.505 175.887 272.983 175.887 273.5C175.887 274.033 176.007 274.519 176.247 274.956C176.487 275.388 176.809 275.732 177.215 275.988C177.62 276.239 178.063 276.364 178.543 276.364ZM190.938 272.524V277.5H189.594V272.82C189.594 272.415 189.496 272.047 189.298 271.716C189.101 271.385 188.837 271.124 188.506 270.932C188.176 270.735 187.808 270.636 187.402 270.636C187.002 270.636 186.634 270.735 186.298 270.932C185.968 271.124 185.704 271.385 185.506 271.716C185.309 272.047 185.21 272.415 185.21 272.82V277.5H183.866V269.5H185.21V270.5C185.493 270.127 185.85 269.831 186.282 269.612C186.714 269.388 187.184 269.276 187.69 269.276C188.288 269.276 188.832 269.423 189.322 269.716C189.818 270.004 190.21 270.393 190.498 270.884C190.792 271.375 190.938 271.921 190.938 272.524Z" fill="#0C1021"/>
<path d="M203.793 276.5V268.156H202.624L203.023 266.7H205.249V276.5H203.793ZM210.592 276.682C210.013 276.682 209.491 276.551 209.024 276.29C208.562 276.024 208.163 275.658 207.827 275.191C207.491 274.724 207.234 274.185 207.057 273.574C206.88 272.958 206.791 272.3 206.791 271.6C206.791 270.9 206.88 270.242 207.057 269.626C207.234 269.01 207.491 268.471 207.827 268.009C208.163 267.542 208.562 267.178 209.024 266.917C209.491 266.651 210.013 266.518 210.592 266.518C211.161 266.518 211.679 266.651 212.146 266.917C212.613 267.178 213.009 267.542 213.336 268.009C213.667 268.471 213.922 269.01 214.099 269.626C214.276 270.242 214.365 270.9 214.365 271.6C214.365 272.3 214.276 272.958 214.099 273.574C213.922 274.185 213.667 274.724 213.336 275.191C213.009 275.658 212.613 276.024 212.146 276.29C211.679 276.551 211.161 276.682 210.592 276.682ZM210.592 275.226C211.129 275.226 211.574 275.058 211.929 274.722C212.288 274.381 212.557 273.936 212.734 273.385C212.911 272.834 213 272.239 213 271.6C213 270.928 212.907 270.319 212.72 269.773C212.538 269.222 212.267 268.786 211.908 268.464C211.553 268.137 211.115 267.974 210.592 267.974C210.177 267.974 209.815 268.072 209.507 268.268C209.204 268.464 208.952 268.732 208.751 269.073C208.555 269.414 208.406 269.801 208.303 270.235C208.205 270.669 208.156 271.124 208.156 271.6C208.156 272.239 208.247 272.834 208.429 273.385C208.611 273.936 208.882 274.381 209.241 274.722C209.605 275.058 210.055 275.226 210.592 275.226ZM218.741 276.682C218.162 276.682 217.639 276.551 217.173 276.29C216.711 276.024 216.312 275.658 215.976 275.191C215.64 274.724 215.383 274.185 215.206 273.574C215.028 272.958 214.94 272.3 214.94 271.6C214.94 270.9 215.028 270.242 215.206 269.626C215.383 269.01 215.64 268.471 215.976 268.009C216.312 267.542 216.711 267.178 217.173 266.917C217.639 266.651 218.162 266.518 218.741 266.518C219.31 266.518 219.828 266.651 220.295 266.917C220.761 267.178 221.158 267.542 221.485 268.009C221.816 268.471 222.07 269.01 222.248 269.626C222.425 270.242 222.514 270.9 222.514 271.6C222.514 272.3 222.425 272.958 222.248 273.574C222.07 274.185 221.816 274.724 221.485 275.191C221.158 275.658 220.761 276.024 220.295 276.29C219.828 276.551 219.31 276.682 218.741 276.682ZM218.741 275.226C219.277 275.226 219.723 275.058 220.078 274.722C220.437 274.381 220.705 273.936 220.883 273.385C221.06 272.834 221.149 272.239 221.149 271.6C221.149 270.928 221.055 270.319 220.869 269.773C220.687 269.222 220.416 268.786 220.057 268.464C219.702 268.137 219.263 267.974 218.741 267.974C218.325 267.974 217.964 268.072 217.656 268.268C217.352 268.464 217.1 268.732 216.9 269.073C216.704 269.414 216.554 269.801 216.452 270.235C216.354 270.669 216.305 271.124 216.305 271.6C216.305 272.239 216.396 272.834 216.578 273.385C216.76 273.936 217.03 274.381 217.39 274.722C217.754 275.058 218.204 275.226 218.741 275.226ZM224.258 276.5L229.914 266.7H231.594L225.938 276.5H224.258ZM225.441 270.809C225.086 270.809 224.759 270.723 224.461 270.55C224.167 270.373 223.931 270.137 223.754 269.843C223.576 269.544 223.488 269.215 223.488 268.856C223.488 268.483 223.576 268.149 223.754 267.855C223.936 267.561 224.174 267.33 224.468 267.162C224.766 266.989 225.091 266.903 225.441 266.903C225.8 266.903 226.127 266.992 226.421 267.169C226.715 267.342 226.95 267.575 227.128 267.869C227.305 268.163 227.394 268.492 227.394 268.856C227.394 269.225 227.303 269.556 227.121 269.85C226.943 270.144 226.705 270.377 226.407 270.55C226.113 270.723 225.791 270.809 225.441 270.809ZM225.441 269.78C225.702 269.78 225.921 269.691 226.099 269.514C226.276 269.332 226.365 269.113 226.365 268.856C226.365 268.595 226.276 268.375 226.099 268.198C225.921 268.016 225.702 267.925 225.441 267.925C225.184 267.925 224.965 268.016 224.783 268.198C224.605 268.375 224.517 268.595 224.517 268.856C224.517 269.113 224.605 269.332 224.783 269.514C224.965 269.691 225.184 269.78 225.441 269.78ZM230.425 276.311C230.061 276.311 229.729 276.22 229.431 276.038C229.137 275.851 228.901 275.611 228.724 275.317C228.551 275.018 228.465 274.696 228.465 274.351C228.465 273.987 228.556 273.658 228.738 273.364C228.92 273.065 229.158 272.83 229.452 272.657C229.75 272.48 230.075 272.391 230.425 272.391C230.793 272.391 231.125 272.482 231.419 272.664C231.713 272.846 231.946 273.086 232.119 273.385C232.291 273.684 232.378 274.006 232.378 274.351C232.378 274.71 232.289 275.039 232.112 275.338C231.939 275.632 231.703 275.868 231.405 276.045C231.111 276.222 230.784 276.311 230.425 276.311ZM230.425 275.282C230.677 275.282 230.894 275.191 231.076 275.009C231.258 274.827 231.349 274.608 231.349 274.351C231.349 274.094 231.258 273.875 231.076 273.693C230.894 273.511 230.677 273.42 230.425 273.42C230.168 273.42 229.946 273.511 229.76 273.693C229.578 273.875 229.487 274.094 229.487 274.351C229.487 274.608 229.578 274.827 229.76 275.009C229.946 275.191 230.168 275.282 230.425 275.282Z" fill="#28BC62"/>
<rect x="92" y="296.5" width="24" height="24" rx="12" fill="#28BC62"/>
<path d="M109.139 304.695C109.201 304.757 109.25 304.83 109.284 304.911C109.317 304.992 109.335 305.079 109.335 305.167C109.335 305.254 109.317 305.341 109.284 305.422C109.25 305.503 109.201 305.577 109.139 305.639L103.139 311.639C103.077 311.701 103.003 311.75 102.922 311.784C102.841 311.817 102.754 311.834 102.667 311.834C102.579 311.834 102.492 311.817 102.411 311.784C102.33 311.75 102.257 311.701 102.195 311.639L99.528 308.972C99.4028 308.847 99.3325 308.677 99.3325 308.5C99.3325 308.323 99.4028 308.153 99.528 308.028C99.6532 307.903 99.823 307.832 100 307.832C100.177 307.832 100.347 307.903 100.472 308.028L102.667 310.224L108.195 304.695C108.257 304.633 108.33 304.583 108.411 304.55C108.492 304.516 108.579 304.499 108.667 304.499C108.754 304.499 108.841 304.516 108.922 304.55C109.003 304.583 109.077 304.633 109.139 304.695Z" fill="white"/>
<rect x="103.5" y="320.5" width="1" height="12" fill="#28BC62"/>
<path d="M122.96 313.5L125.128 302.3H126.16L129.184 310.252L132.2 302.3H133.232L135.408 313.5H134.04L132.464 305.372L129.624 312.892H128.736L125.896 305.372L124.328 313.5H122.96ZM143.064 305.5H144.408V313.5H143.064L143.008 312.148C142.757 312.612 142.411 312.988 141.968 313.276C141.531 313.564 141.008 313.708 140.4 313.708C139.813 313.708 139.264 313.599 138.752 313.38C138.24 313.156 137.787 312.849 137.392 312.46C137.003 312.065 136.699 311.612 136.48 311.1C136.261 310.588 136.152 310.036 136.152 309.444C136.152 308.873 136.259 308.335 136.472 307.828C136.685 307.321 136.981 306.879 137.36 306.5C137.744 306.116 138.187 305.817 138.688 305.604C139.189 305.385 139.728 305.276 140.304 305.276C140.933 305.276 141.485 305.425 141.96 305.724C142.435 306.017 142.819 306.399 143.112 306.868L143.064 305.5ZM140.376 312.404C140.904 312.404 141.36 312.276 141.744 312.02C142.133 311.759 142.432 311.407 142.64 310.964C142.853 310.521 142.96 310.033 142.96 309.5C142.96 308.956 142.853 308.465 142.64 308.028C142.427 307.585 142.125 307.236 141.736 306.98C141.352 306.719 140.899 306.588 140.376 306.588C139.848 306.588 139.368 306.719 138.936 306.98C138.504 307.241 138.16 307.593 137.904 308.036C137.653 308.473 137.528 308.961 137.528 309.5C137.528 310.039 137.659 310.529 137.92 310.972C138.181 311.409 138.528 311.759 138.96 312.02C139.392 312.276 139.864 312.404 140.376 312.404ZM153.079 308.524V313.5H151.735V308.82C151.735 308.415 151.636 308.047 151.439 307.716C151.242 307.385 150.978 307.124 150.647 306.932C150.316 306.735 149.948 306.636 149.543 306.636C149.143 306.636 148.775 306.735 148.439 306.932C148.108 307.124 147.844 307.385 147.647 307.716C147.45 308.047 147.351 308.415 147.351 308.82V313.5H146.007V305.5H147.351V306.5C147.634 306.127 147.991 305.831 148.423 305.612C148.855 305.388 149.324 305.276 149.831 305.276C150.428 305.276 150.972 305.423 151.463 305.716C151.959 306.004 152.351 306.393 152.639 306.884C152.932 307.375 153.079 307.921 153.079 308.524ZM154.359 310.46V305.5H155.703V310.164C155.703 310.569 155.801 310.937 155.999 311.268C156.196 311.599 156.46 311.863 156.791 312.06C157.127 312.252 157.495 312.348 157.895 312.348C158.3 312.348 158.665 312.252 158.991 312.06C159.321 311.863 159.585 311.599 159.783 311.268C159.98 310.937 160.079 310.569 160.079 310.164V305.5H161.423L161.431 313.5H160.087L160.079 312.484C159.796 312.857 159.439 313.156 159.007 313.38C158.575 313.599 158.108 313.708 157.607 313.708C157.009 313.708 156.463 313.564 155.967 313.276C155.476 312.983 155.084 312.591 154.791 312.1C154.503 311.609 154.359 311.063 154.359 310.46ZM169.392 305.5H170.736V313.5H169.392L169.336 312.148C169.085 312.612 168.739 312.988 168.296 313.276C167.859 313.564 167.336 313.708 166.728 313.708C166.141 313.708 165.592 313.599 165.08 313.38C164.568 313.156 164.115 312.849 163.72 312.46C163.331 312.065 163.027 311.612 162.808 311.1C162.589 310.588 162.48 310.036 162.48 309.444C162.48 308.873 162.587 308.335 162.8 307.828C163.013 307.321 163.309 306.879 163.688 306.5C164.072 306.116 164.515 305.817 165.016 305.604C165.517 305.385 166.056 305.276 166.632 305.276C167.261 305.276 167.813 305.425 168.288 305.724C168.763 306.017 169.147 306.399 169.44 306.868L169.392 305.5ZM166.704 312.404C167.232 312.404 167.688 312.276 168.072 312.02C168.461 311.759 168.76 311.407 168.968 310.964C169.181 310.521 169.288 310.033 169.288 309.5C169.288 308.956 169.181 308.465 168.968 308.028C168.755 307.585 168.453 307.236 168.064 306.98C167.68 306.719 167.227 306.588 166.704 306.588C166.176 306.588 165.696 306.719 165.264 306.98C164.832 307.241 164.488 307.593 164.232 308.036C163.981 308.473 163.856 308.961 163.856 309.5C163.856 310.039 163.987 310.529 164.248 310.972C164.509 311.409 164.856 311.759 165.288 312.02C165.72 312.276 166.192 312.404 166.704 312.404ZM172.429 313.5V301.5H173.773V313.5H172.429Z" fill="#0C1021"/>
<path d="M189.513 312.682C188.934 312.682 188.412 312.551 187.945 312.29C187.483 312.024 187.084 311.658 186.748 311.191C186.412 310.724 186.155 310.185 185.978 309.574C185.801 308.958 185.712 308.3 185.712 307.6C185.712 306.9 185.801 306.242 185.978 305.626C186.155 305.01 186.412 304.471 186.748 304.009C187.084 303.542 187.483 303.178 187.945 302.917C188.412 302.651 188.934 302.518 189.513 302.518C190.082 302.518 190.6 302.651 191.067 302.917C191.534 303.178 191.93 303.542 192.257 304.009C192.588 304.471 192.843 305.01 193.02 305.626C193.197 306.242 193.286 306.9 193.286 307.6C193.286 308.3 193.197 308.958 193.02 309.574C192.843 310.185 192.588 310.724 192.257 311.191C191.93 311.658 191.534 312.024 191.067 312.29C190.6 312.551 190.082 312.682 189.513 312.682ZM189.513 311.226C190.05 311.226 190.495 311.058 190.85 310.722C191.209 310.381 191.478 309.936 191.655 309.385C191.832 308.834 191.921 308.239 191.921 307.6C191.921 306.928 191.828 306.319 191.641 305.773C191.459 305.222 191.188 304.786 190.829 304.464C190.474 304.137 190.036 303.974 189.513 303.974C189.098 303.974 188.736 304.072 188.428 304.268C188.125 304.464 187.873 304.732 187.672 305.073C187.476 305.414 187.327 305.801 187.224 306.235C187.126 306.669 187.077 307.124 187.077 307.6C187.077 308.239 187.168 308.834 187.35 309.385C187.532 309.936 187.803 310.381 188.162 310.722C188.526 311.058 188.976 311.226 189.513 311.226ZM195.03 312.5L200.686 302.7H202.366L196.71 312.5H195.03ZM196.213 306.809C195.859 306.809 195.532 306.723 195.233 306.55C194.939 306.373 194.704 306.137 194.526 305.843C194.349 305.544 194.26 305.215 194.26 304.856C194.26 304.483 194.349 304.149 194.526 303.855C194.708 303.561 194.946 303.33 195.24 303.162C195.539 302.989 195.863 302.903 196.213 302.903C196.573 302.903 196.899 302.992 197.193 303.169C197.487 303.342 197.723 303.575 197.9 303.869C198.078 304.163 198.166 304.492 198.166 304.856C198.166 305.225 198.075 305.556 197.893 305.85C197.716 306.144 197.478 306.377 197.179 306.55C196.885 306.723 196.563 306.809 196.213 306.809ZM196.213 305.78C196.475 305.78 196.694 305.691 196.871 305.514C197.049 305.332 197.137 305.113 197.137 304.856C197.137 304.595 197.049 304.375 196.871 304.198C196.694 304.016 196.475 303.925 196.213 303.925C195.957 303.925 195.737 304.016 195.555 304.198C195.378 304.375 195.289 304.595 195.289 304.856C195.289 305.113 195.378 305.332 195.555 305.514C195.737 305.691 195.957 305.78 196.213 305.78ZM201.197 312.311C200.833 312.311 200.502 312.22 200.203 312.038C199.909 311.851 199.674 311.611 199.496 311.317C199.324 311.018 199.237 310.696 199.237 310.351C199.237 309.987 199.328 309.658 199.51 309.364C199.692 309.065 199.93 308.83 200.224 308.657C200.523 308.48 200.847 308.391 201.197 308.391C201.566 308.391 201.897 308.482 202.191 308.664C202.485 308.846 202.719 309.086 202.891 309.385C203.064 309.684 203.15 310.006 203.15 310.351C203.15 310.71 203.062 311.039 202.884 311.338C202.712 311.632 202.476 311.868 202.177 312.045C201.883 312.222 201.557 312.311 201.197 312.311ZM201.197 311.282C201.449 311.282 201.666 311.191 201.848 311.009C202.03 310.827 202.121 310.608 202.121 310.351C202.121 310.094 202.03 309.875 201.848 309.693C201.666 309.511 201.449 309.42 201.197 309.42C200.941 309.42 200.719 309.511 200.532 309.693C200.35 309.875 200.259 310.094 200.259 310.351C200.259 310.608 200.35 310.827 200.532 311.009C200.719 311.191 200.941 311.282 201.197 311.282Z" fill="#28BC62"/>
<rect x="92" y="332.5" width="24" height="24" rx="12" fill="#28BC62"/>
<path d="M109.139 340.695C109.201 340.757 109.25 340.83 109.284 340.911C109.317 340.992 109.335 341.079 109.335 341.167C109.335 341.254 109.317 341.341 109.284 341.422C109.25 341.503 109.201 341.577 109.139 341.639L103.139 347.639C103.077 347.701 103.003 347.75 102.922 347.784C102.841 347.817 102.754 347.834 102.667 347.834C102.579 347.834 102.492 347.817 102.411 347.784C102.33 347.75 102.257 347.701 102.195 347.639L99.528 344.972C99.4028 344.847 99.3325 344.677 99.3325 344.5C99.3325 344.323 99.4028 344.153 99.528 344.028C99.6532 343.903 99.823 343.832 100 343.832C100.177 343.832 100.347 343.903 100.472 344.028L102.667 346.224L108.195 340.695C108.257 340.633 108.33 340.583 108.411 340.55C108.492 340.516 108.579 340.499 108.667 340.499C108.754 340.499 108.841 340.516 108.922 340.55C109.003 340.583 109.077 340.633 109.139 340.695Z" fill="white"/>
<path d="M122.64 349.5V348.308C123.051 347.94 123.512 347.529 124.024 347.076C124.536 346.617 125.045 346.14 125.552 345.644C126.064 345.143 126.533 344.647 126.96 344.156C127.387 343.665 127.731 343.201 127.992 342.764C128.253 342.321 128.384 341.935 128.384 341.604C128.384 341.209 128.288 340.849 128.096 340.524C127.904 340.193 127.645 339.929 127.32 339.732C127 339.535 126.643 339.436 126.248 339.436C125.853 339.436 125.491 339.535 125.16 339.732C124.835 339.929 124.573 340.193 124.376 340.524C124.184 340.849 124.088 341.209 124.088 341.604H122.744C122.744 340.948 122.904 340.356 123.224 339.828C123.544 339.295 123.968 338.873 124.496 338.564C125.024 338.249 125.608 338.092 126.248 338.092C126.888 338.092 127.469 338.249 127.992 338.564C128.52 338.879 128.941 339.303 129.256 339.836C129.571 340.364 129.728 340.953 129.728 341.604C129.728 341.977 129.637 342.38 129.456 342.812C129.275 343.239 129.027 343.679 128.712 344.132C128.397 344.585 128.04 345.044 127.64 345.508C127.24 345.967 126.819 346.42 126.376 346.868C125.933 347.316 125.493 347.745 125.056 348.156H129.872V349.5H122.64ZM135.8 349.5V346.476H130.984V345.116L135.464 338.3H137.144V345.132H138.256V346.476H137.144V349.5H135.8ZM132.56 345.116L135.8 345.132L135.776 340.188L132.56 345.116ZM144.443 338.3L141.203 350.396H139.859L143.099 338.3H144.443ZM146.142 349.5L151.822 339.644H145.398V338.3H153.374V339.644L147.678 349.5H146.142ZM162.243 338.3H163.867L167.939 349.5H166.515L165.683 347.212H160.427L159.603 349.5H158.171L162.243 338.3ZM160.923 345.868H165.187L163.051 340.02L160.923 345.868ZM174.253 347.388L175.453 348.036C175.091 348.543 174.629 348.948 174.069 349.252C173.515 349.556 172.912 349.708 172.261 349.708C171.525 349.708 170.853 349.519 170.245 349.14C169.643 348.761 169.16 348.255 168.797 347.62C168.44 346.98 168.261 346.273 168.261 345.5C168.261 344.913 168.365 344.367 168.573 343.86C168.781 343.348 169.067 342.9 169.429 342.516C169.797 342.127 170.224 341.823 170.709 341.604C171.195 341.385 171.712 341.276 172.261 341.276C172.912 341.276 173.515 341.428 174.069 341.732C174.629 342.036 175.091 342.444 175.453 342.956L174.253 343.604C173.997 343.289 173.693 343.047 173.341 342.876C172.989 342.705 172.629 342.62 172.261 342.62C171.765 342.62 171.315 342.753 170.909 343.02C170.509 343.281 170.192 343.631 169.957 344.068C169.723 344.505 169.605 344.983 169.605 345.5C169.605 346.017 169.723 346.495 169.957 346.932C170.197 347.364 170.517 347.711 170.917 347.972C171.323 348.233 171.771 348.364 172.261 348.364C172.656 348.364 173.027 348.273 173.373 348.092C173.72 347.911 174.013 347.676 174.253 347.388ZM181.042 342.844H179.226L179.218 349.5H177.874L177.882 342.844H176.506V341.5H177.882L177.874 338.988H179.218L179.226 341.5H181.042V342.844ZM182.398 341.5H183.742V349.5H182.398V341.5ZM183.086 340.196C182.872 340.196 182.694 340.127 182.55 339.988C182.406 339.849 182.334 339.676 182.334 339.468C182.334 339.26 182.406 339.087 182.55 338.948C182.694 338.809 182.87 338.74 183.078 338.74C183.286 338.74 183.462 338.809 183.606 338.948C183.75 339.087 183.822 339.26 183.822 339.468C183.822 339.676 183.75 339.849 183.606 339.988C183.467 340.127 183.294 340.196 183.086 340.196ZM189.683 349.5H187.963L185.043 341.484H186.475L188.819 347.94L191.163 341.484H192.595L189.683 349.5ZM197.089 349.708C196.353 349.708 195.681 349.519 195.073 349.14C194.471 348.761 193.988 348.255 193.625 347.62C193.268 346.98 193.089 346.273 193.089 345.5C193.089 344.913 193.193 344.367 193.401 343.86C193.609 343.348 193.895 342.9 194.257 342.516C194.625 342.127 195.052 341.823 195.537 341.604C196.023 341.385 196.54 341.276 197.089 341.276C197.692 341.276 198.244 341.399 198.745 341.644C199.252 341.884 199.684 342.22 200.041 342.652C200.404 343.084 200.673 343.585 200.849 344.156C201.031 344.727 201.097 345.337 201.049 345.988H194.521C194.585 346.441 194.735 346.847 194.969 347.204C195.204 347.556 195.503 347.836 195.865 348.044C196.233 348.252 196.641 348.359 197.089 348.364C197.569 348.364 198.004 348.241 198.393 347.996C198.783 347.745 199.097 347.404 199.337 346.972L200.705 347.292C200.385 348.001 199.903 348.583 199.257 349.036C198.612 349.484 197.889 349.708 197.089 349.708ZM194.481 344.932H199.697C199.655 344.484 199.511 344.076 199.265 343.708C199.02 343.335 198.708 343.036 198.329 342.812C197.951 342.588 197.537 342.476 197.089 342.476C196.641 342.476 196.231 342.585 195.857 342.804C195.484 343.023 195.175 343.319 194.929 343.692C194.689 344.06 194.54 344.473 194.481 344.932Z" fill="#0C1021"/>
</g>
<defs>
<filter id="filter0_d_3044_961" x="49.6142" y="168.791" width="463.772" height="233.772" filterUnits="userSpaceOnUse" color-interpolation-filters="sRGB">
<feFlood flood-opacity="0" result="BackgroundImageFix"/>
<feColorMatrix in="SourceAlpha" type="matrix" values="0 0 0 0 0 0 0 0 0 0 0 0 0 0 0 0 0 0 127 0" result="hardAlpha"/>
<feOffset dy="3.67715"/>
<feGaussianBlur stdDeviation="9.19289"/>
<feComposite in2="hardAlpha" operator="out"/>
<feColorMatrix type="matrix" values="0 0 0 0 0.0468057 0 0 0 0 0.0634939 0 0 0 0 0.129808 0 0 0 0.1 0"/>
<feBlend mode="normal" in2="BackgroundImageFix" result="effect1_dropShadow_3044_961"/>
<feBlend mode="normal" in="SourceGraphic" in2="effect1_dropShadow_3044_961" result="shape"/>
</filter>
</defs>
</svg>
