<svg width="1014" height="272" viewBox="0 0 1014 272" fill="none" xmlns="http://www.w3.org/2000/svg" xmlns:xlink="http://www.w3.org/1999/xlink">
<rect width="1014" height="272" rx="24" fill="#FAFAFA"/>
<rect width="1014" height="272" rx="24" fill="url(#pattern0_3049_3137)" fill-opacity="0.02"/>
<g filter="url(#filter0_d_3049_3137)">
<rect x="171" y="116" width="127" height="41" rx="16" fill="white" shape-rendering="crispEdges"/>
<rect x="171.46" y="116.46" width="126.081" height="40.0807" rx="15.5404" stroke="#0C1021" stroke-opacity="0.05" stroke-width="0.919289" shape-rendering="crispEdges"/>
<path d="M187.333 141.182C186.796 141.182 186.281 141.098 185.786 140.93C185.291 140.762 184.86 140.522 184.491 140.209C184.122 139.892 183.859 139.516 183.7 139.082L185.065 138.571C185.144 138.795 185.296 138.996 185.52 139.173C185.749 139.346 186.019 139.481 186.332 139.579C186.649 139.677 186.983 139.726 187.333 139.726C187.706 139.726 188.056 139.665 188.383 139.544C188.714 139.423 188.98 139.255 189.181 139.04C189.386 138.825 189.489 138.573 189.489 138.284C189.489 137.985 189.382 137.74 189.167 137.549C188.957 137.358 188.686 137.206 188.355 137.094C188.028 136.982 187.688 136.898 187.333 136.842C186.647 136.73 186.031 136.567 185.485 136.352C184.944 136.137 184.514 135.836 184.197 135.449C183.884 135.062 183.728 134.558 183.728 133.937C183.728 133.354 183.894 132.845 184.225 132.411C184.561 131.977 185.002 131.641 185.548 131.403C186.099 131.16 186.694 131.039 187.333 131.039C187.86 131.039 188.369 131.123 188.859 131.291C189.354 131.454 189.788 131.695 190.161 132.012C190.539 132.325 190.81 132.705 190.973 133.153L189.594 133.65C189.515 133.421 189.363 133.223 189.139 133.055C188.915 132.882 188.644 132.747 188.327 132.649C188.014 132.551 187.683 132.502 187.333 132.502C186.96 132.497 186.61 132.558 186.283 132.684C185.961 132.805 185.697 132.973 185.492 133.188C185.287 133.403 185.184 133.652 185.184 133.937C185.184 134.287 185.28 134.553 185.471 134.735C185.662 134.917 185.919 135.052 186.241 135.141C186.568 135.225 186.932 135.302 187.333 135.372C187.977 135.475 188.572 135.645 189.118 135.883C189.669 136.121 190.11 136.438 190.441 136.835C190.777 137.227 190.945 137.71 190.945 138.284C190.945 138.863 190.777 139.371 190.441 139.81C190.11 140.244 189.669 140.582 189.118 140.825C188.572 141.063 187.977 141.182 187.333 141.182ZM192.385 134H193.841V141H192.385V134ZM193.127 132.985C192.903 132.985 192.716 132.913 192.567 132.768C192.418 132.623 192.343 132.441 192.343 132.222C192.343 132.007 192.418 131.828 192.567 131.683C192.716 131.534 192.901 131.459 193.12 131.459C193.335 131.459 193.517 131.534 193.666 131.683C193.815 131.828 193.89 132.007 193.89 132.222C193.89 132.441 193.815 132.623 193.666 132.768C193.521 132.913 193.342 132.985 193.127 132.985ZM200.72 134H202.176V141.182C202.176 141.663 202.073 142.106 201.868 142.512C201.667 142.918 201.394 143.268 201.049 143.562C200.703 143.861 200.307 144.092 199.859 144.255C199.415 144.418 198.951 144.5 198.466 144.5C197.976 144.5 197.504 144.395 197.052 144.185C196.599 143.98 196.2 143.7 195.855 143.345C195.514 142.99 195.26 142.589 195.092 142.141L196.429 141.539C196.522 141.828 196.671 142.085 196.877 142.309C197.087 142.533 197.329 142.71 197.605 142.841C197.885 142.972 198.172 143.037 198.466 143.037C198.755 143.037 199.033 142.99 199.299 142.897C199.569 142.808 199.81 142.682 200.02 142.519C200.234 142.356 200.405 142.16 200.531 141.931C200.657 141.702 200.72 141.453 200.72 141.182V139.999C200.491 140.354 200.197 140.641 199.838 140.86C199.478 141.075 199.061 141.182 198.585 141.182C198.09 141.182 197.623 141.086 197.185 140.895C196.746 140.704 196.361 140.44 196.03 140.104C195.698 139.763 195.439 139.371 195.253 138.928C195.066 138.485 194.973 138.009 194.973 137.5C194.973 136.991 195.066 136.515 195.253 136.072C195.439 135.624 195.698 135.232 196.03 134.896C196.361 134.555 196.746 134.289 197.185 134.098C197.623 133.907 198.09 133.811 198.585 133.811C199.061 133.811 199.478 133.921 199.838 134.14C200.197 134.355 200.491 134.642 200.72 135.001V134ZM198.599 139.775C199.005 139.775 199.359 139.672 199.663 139.467C199.966 139.257 200.202 138.979 200.37 138.634C200.538 138.289 200.622 137.911 200.622 137.5C200.622 137.08 200.535 136.7 200.363 136.359C200.195 136.014 199.959 135.738 199.656 135.533C199.352 135.323 199 135.218 198.599 135.218C198.207 135.218 197.847 135.321 197.521 135.526C197.199 135.731 196.942 136.007 196.751 136.352C196.559 136.697 196.464 137.08 196.464 137.5C196.464 137.92 196.559 138.303 196.751 138.648C196.947 138.993 197.206 139.269 197.528 139.474C197.854 139.675 198.211 139.775 198.599 139.775ZM210.156 136.611V141H208.7V136.968C208.7 136.655 208.623 136.371 208.469 136.114C208.319 135.857 208.116 135.654 207.86 135.505C207.608 135.351 207.323 135.274 207.006 135.274C206.698 135.274 206.415 135.351 206.159 135.505C205.902 135.654 205.697 135.857 205.543 136.114C205.389 136.371 205.312 136.655 205.312 136.968V141H203.856V134H205.312V134.742C205.554 134.453 205.853 134.224 206.208 134.056C206.562 133.888 206.945 133.804 207.356 133.804C207.874 133.804 208.345 133.93 208.77 134.182C209.194 134.434 209.53 134.772 209.778 135.197C210.03 135.622 210.156 136.093 210.156 136.611ZM216.862 134H218.318V141H216.855L216.799 139.985C216.594 140.344 216.316 140.634 215.966 140.853C215.616 141.072 215.203 141.182 214.727 141.182C214.214 141.182 213.731 141.086 213.278 140.895C212.826 140.699 212.427 140.428 212.081 140.083C211.741 139.738 211.475 139.341 211.283 138.893C211.092 138.44 210.996 137.955 210.996 137.437C210.996 136.938 211.09 136.469 211.276 136.03C211.463 135.587 211.722 135.199 212.053 134.868C212.385 134.537 212.767 134.278 213.201 134.091C213.64 133.9 214.109 133.804 214.608 133.804C215.117 133.804 215.565 133.921 215.952 134.154C216.344 134.383 216.669 134.677 216.925 135.036L216.862 134ZM214.692 139.775C215.103 139.775 215.462 139.675 215.77 139.474C216.078 139.269 216.316 138.993 216.484 138.648C216.657 138.303 216.743 137.92 216.743 137.5C216.743 137.075 216.657 136.69 216.484 136.345C216.312 136 216.071 135.727 215.763 135.526C215.46 135.321 215.103 135.218 214.692 135.218C214.286 135.218 213.915 135.321 213.579 135.526C213.243 135.731 212.977 136.007 212.781 136.352C212.585 136.697 212.487 137.08 212.487 137.5C212.487 137.925 212.588 138.31 212.788 138.655C212.994 138.996 213.262 139.269 213.593 139.474C213.929 139.675 214.296 139.775 214.692 139.775ZM219.77 141V130.5H221.226V141H219.77ZM226.264 141V131.2H229.505C230.181 131.2 230.816 131.328 231.409 131.585C232.001 131.837 232.522 132.189 232.97 132.642C233.418 133.09 233.768 133.61 234.02 134.203C234.276 134.791 234.405 135.423 234.405 136.1C234.405 136.777 234.276 137.411 234.02 138.004C233.768 138.592 233.418 139.112 232.97 139.565C232.522 140.013 232.001 140.365 231.409 140.622C230.816 140.874 230.181 141 229.505 141H226.264ZM227.72 139.544H229.505C229.981 139.544 230.424 139.455 230.835 139.278C231.25 139.101 231.616 138.853 231.934 138.536C232.256 138.219 232.505 137.852 232.683 137.437C232.86 137.022 232.949 136.576 232.949 136.1C232.949 135.624 232.86 135.178 232.683 134.763C232.505 134.348 232.256 133.981 231.934 133.664C231.616 133.347 231.25 133.099 230.835 132.922C230.424 132.745 229.981 132.656 229.505 132.656H227.72V139.544ZM238.586 141.182C237.942 141.182 237.354 141.016 236.822 140.685C236.295 140.354 235.872 139.91 235.555 139.355C235.242 138.795 235.086 138.177 235.086 137.5C235.086 136.987 235.177 136.508 235.359 136.065C235.541 135.617 235.791 135.225 236.108 134.889C236.43 134.548 236.803 134.282 237.228 134.091C237.653 133.9 238.105 133.804 238.586 133.804C239.123 133.804 239.615 133.916 240.063 134.14C240.511 134.359 240.894 134.665 241.211 135.057C241.528 135.444 241.762 135.892 241.911 136.401C242.06 136.905 242.105 137.442 242.044 138.011H236.647C236.708 138.333 236.824 138.625 236.997 138.886C237.174 139.143 237.398 139.346 237.669 139.495C237.944 139.644 238.25 139.721 238.586 139.726C238.941 139.726 239.263 139.637 239.552 139.46C239.846 139.283 240.086 139.038 240.273 138.725L241.75 139.068C241.47 139.689 241.048 140.197 240.483 140.594C239.918 140.986 239.286 141.182 238.586 141.182ZM236.598 136.898H240.574C240.527 136.562 240.408 136.259 240.217 135.988C240.03 135.713 239.795 135.496 239.51 135.337C239.23 135.174 238.922 135.092 238.586 135.092C238.255 135.092 237.947 135.171 237.662 135.33C237.382 135.489 237.149 135.706 236.962 135.981C236.78 136.252 236.659 136.557 236.598 136.898ZM246.858 135.456H245.388L245.381 141H243.925L243.932 135.456H242.819V134H243.932L243.925 131.802H245.381L245.388 134H246.858V135.456ZM251.027 141.182C250.383 141.182 249.795 141.016 249.263 140.685C248.736 140.354 248.314 139.91 247.996 139.355C247.684 138.795 247.527 138.177 247.527 137.5C247.527 136.987 247.618 136.508 247.8 136.065C247.982 135.617 248.232 135.225 248.549 134.889C248.871 134.548 249.245 134.282 249.669 134.091C250.094 133.9 250.547 133.804 251.027 133.804C251.564 133.804 252.056 133.916 252.504 134.14C252.952 134.359 253.335 134.665 253.652 135.057C253.97 135.444 254.203 135.892 254.352 136.401C254.502 136.905 254.546 137.442 254.485 138.011H249.088C249.149 138.333 249.266 138.625 249.438 138.886C249.616 139.143 249.84 139.346 250.11 139.495C250.386 139.644 250.691 139.721 251.027 139.726C251.382 139.726 251.704 139.637 251.993 139.46C252.287 139.283 252.528 139.038 252.714 138.725L254.191 139.068C253.911 139.689 253.489 140.197 252.924 140.594C252.36 140.986 251.727 141.182 251.027 141.182ZM249.039 136.898H253.015C252.969 136.562 252.85 136.259 252.658 135.988C252.472 135.713 252.236 135.496 251.951 135.337C251.671 135.174 251.363 135.092 251.027 135.092C250.696 135.092 250.388 135.171 250.103 135.33C249.823 135.489 249.59 135.706 249.403 135.981C249.221 136.252 249.1 136.557 249.039 136.898ZM260.202 139.012L261.504 139.719C261.187 140.162 260.783 140.517 260.293 140.783C259.808 141.049 259.28 141.182 258.711 141.182C258.067 141.182 257.479 141.016 256.947 140.685C256.42 140.354 255.997 139.91 255.68 139.355C255.367 138.795 255.211 138.177 255.211 137.5C255.211 136.987 255.302 136.508 255.484 136.065C255.666 135.617 255.916 135.225 256.233 134.889C256.555 134.548 256.928 134.282 257.353 134.091C257.778 133.9 258.23 133.804 258.711 133.804C259.28 133.804 259.808 133.937 260.293 134.203C260.783 134.469 261.187 134.826 261.504 135.274L260.202 135.981C260.006 135.748 259.777 135.57 259.516 135.449C259.255 135.323 258.986 135.26 258.711 135.26C258.328 135.26 257.981 135.365 257.668 135.575C257.36 135.78 257.115 136.053 256.933 136.394C256.756 136.73 256.667 137.099 256.667 137.5C256.667 137.897 256.758 138.265 256.94 138.606C257.122 138.942 257.367 139.213 257.675 139.418C257.988 139.623 258.333 139.726 258.711 139.726C259 139.726 259.276 139.661 259.537 139.53C259.798 139.399 260.02 139.227 260.202 139.012ZM266.464 135.456H264.994L264.987 141H263.531L263.538 135.456H262.425V134H263.538L263.531 131.802H264.987L264.994 134H266.464V135.456ZM267.621 134H269.077V141H267.621V134ZM268.363 132.985C268.139 132.985 267.953 132.913 267.803 132.768C267.654 132.623 267.579 132.441 267.579 132.222C267.579 132.007 267.654 131.828 267.803 131.683C267.953 131.534 268.137 131.459 268.356 131.459C268.571 131.459 268.753 131.534 268.902 131.683C269.052 131.828 269.126 132.007 269.126 132.222C269.126 132.441 269.052 132.623 268.902 132.768C268.758 132.913 268.578 132.985 268.363 132.985ZM273.709 141.182C273.065 141.182 272.477 141.016 271.945 140.685C271.418 140.354 270.995 139.91 270.678 139.355C270.365 138.795 270.209 138.177 270.209 137.5C270.209 136.987 270.3 136.508 270.482 136.065C270.664 135.617 270.914 135.225 271.231 134.889C271.553 134.548 271.926 134.282 272.351 134.091C272.776 133.9 273.228 133.804 273.709 133.804C274.353 133.804 274.939 133.97 275.466 134.301C275.998 134.632 276.42 135.078 276.733 135.638C277.05 136.198 277.209 136.819 277.209 137.5C277.209 138.009 277.118 138.485 276.936 138.928C276.754 139.371 276.502 139.763 276.18 140.104C275.863 140.44 275.492 140.704 275.067 140.895C274.647 141.086 274.194 141.182 273.709 141.182ZM273.709 139.726C274.096 139.726 274.444 139.623 274.752 139.418C275.06 139.213 275.303 138.942 275.48 138.606C275.662 138.265 275.753 137.897 275.753 137.5C275.753 137.094 275.66 136.721 275.473 136.38C275.291 136.039 275.046 135.769 274.738 135.568C274.43 135.363 274.087 135.26 273.709 135.26C273.326 135.26 272.979 135.363 272.666 135.568C272.358 135.773 272.113 136.046 271.931 136.387C271.754 136.728 271.665 137.099 271.665 137.5C271.665 137.915 271.758 138.291 271.945 138.627C272.132 138.963 272.379 139.231 272.687 139.432C273 139.628 273.34 139.726 273.709 139.726ZM284.64 136.611V141H283.184V136.968C283.184 136.655 283.107 136.371 282.953 136.114C282.804 135.857 282.601 135.654 282.344 135.505C282.092 135.351 281.807 135.274 281.49 135.274C281.182 135.274 280.9 135.351 280.643 135.505C280.386 135.654 280.181 135.857 280.027 136.114C279.873 136.371 279.796 136.655 279.796 136.968V141H278.34V134H279.796V134.742C280.039 134.453 280.337 134.224 280.692 134.056C281.047 133.888 281.429 133.804 281.84 133.804C282.358 133.804 282.829 133.93 283.254 134.182C283.679 134.434 284.015 134.772 284.262 135.197C284.514 135.622 284.64 136.093 284.64 136.611Z" fill="#0C1021"/>
</g>
<g filter="url(#filter1_d_3049_3137)">
<rect x="549" y="116" width="131" height="41" rx="16" fill="white" shape-rendering="crispEdges"/>
<rect x="549.46" y="116.46" width="130.081" height="40.0807" rx="15.5404" stroke="#0C1021" stroke-opacity="0.05" stroke-width="0.919289" shape-rendering="crispEdges"/>
<path d="M565.333 141.182C564.796 141.182 564.281 141.098 563.786 140.93C563.291 140.762 562.86 140.522 562.491 140.209C562.122 139.892 561.859 139.516 561.7 139.082L563.065 138.571C563.144 138.795 563.296 138.996 563.52 139.173C563.749 139.346 564.019 139.481 564.332 139.579C564.649 139.677 564.983 139.726 565.333 139.726C565.706 139.726 566.056 139.665 566.383 139.544C566.714 139.423 566.98 139.255 567.181 139.04C567.386 138.825 567.489 138.573 567.489 138.284C567.489 137.985 567.382 137.74 567.167 137.549C566.957 137.358 566.686 137.206 566.355 137.094C566.028 136.982 565.688 136.898 565.333 136.842C564.647 136.73 564.031 136.567 563.485 136.352C562.944 136.137 562.514 135.836 562.197 135.449C561.884 135.062 561.728 134.558 561.728 133.937C561.728 133.354 561.894 132.845 562.225 132.411C562.561 131.977 563.002 131.641 563.548 131.403C564.099 131.16 564.694 131.039 565.333 131.039C565.86 131.039 566.369 131.123 566.859 131.291C567.354 131.454 567.788 131.695 568.161 132.012C568.539 132.325 568.81 132.705 568.973 133.153L567.594 133.65C567.515 133.421 567.363 133.223 567.139 133.055C566.915 132.882 566.644 132.747 566.327 132.649C566.014 132.551 565.683 132.502 565.333 132.502C564.96 132.497 564.61 132.558 564.283 132.684C563.961 132.805 563.697 132.973 563.492 133.188C563.287 133.403 563.184 133.652 563.184 133.937C563.184 134.287 563.28 134.553 563.471 134.735C563.662 134.917 563.919 135.052 564.241 135.141C564.568 135.225 564.932 135.302 565.333 135.372C565.977 135.475 566.572 135.645 567.118 135.883C567.669 136.121 568.11 136.438 568.441 136.835C568.777 137.227 568.945 137.71 568.945 138.284C568.945 138.863 568.777 139.371 568.441 139.81C568.11 140.244 567.669 140.582 567.118 140.825C566.572 141.063 565.977 141.182 565.333 141.182ZM574.915 139.012L576.217 139.719C575.9 140.162 575.496 140.517 575.006 140.783C574.521 141.049 573.993 141.182 573.424 141.182C572.78 141.182 572.192 141.016 571.66 140.685C571.133 140.354 570.71 139.91 570.393 139.355C570.08 138.795 569.924 138.177 569.924 137.5C569.924 136.987 570.015 136.508 570.197 136.065C570.379 135.617 570.629 135.225 570.946 134.889C571.268 134.548 571.641 134.282 572.066 134.091C572.491 133.9 572.943 133.804 573.424 133.804C573.993 133.804 574.521 133.937 575.006 134.203C575.496 134.469 575.9 134.826 576.217 135.274L574.915 135.981C574.719 135.748 574.49 135.57 574.229 135.449C573.968 135.323 573.699 135.26 573.424 135.26C573.041 135.26 572.694 135.365 572.381 135.575C572.073 135.78 571.828 136.053 571.646 136.394C571.469 136.73 571.38 137.099 571.38 137.5C571.38 137.897 571.471 138.265 571.653 138.606C571.835 138.942 572.08 139.213 572.388 139.418C572.701 139.623 573.046 139.726 573.424 139.726C573.713 139.726 573.989 139.661 574.25 139.53C574.511 139.399 574.733 139.227 574.915 139.012ZM580.397 141.182C579.753 141.182 579.165 141.016 578.633 140.685C578.105 140.354 577.683 139.91 577.366 139.355C577.053 138.795 576.897 138.177 576.897 137.5C576.897 136.987 576.988 136.508 577.17 136.065C577.352 135.617 577.601 135.225 577.919 134.889C578.241 134.548 578.614 134.282 579.039 134.091C579.463 133.9 579.916 133.804 580.397 133.804C581.041 133.804 581.626 133.97 582.154 134.301C582.686 134.632 583.108 135.078 583.421 135.638C583.738 136.198 583.897 136.819 583.897 137.5C583.897 138.009 583.806 138.485 583.624 138.928C583.442 139.371 583.19 139.763 582.868 140.104C582.55 140.44 582.179 140.704 581.755 140.895C581.335 141.086 580.882 141.182 580.397 141.182ZM580.397 139.726C580.784 139.726 581.132 139.623 581.44 139.418C581.748 139.213 581.99 138.942 582.168 138.606C582.35 138.265 582.441 137.897 582.441 137.5C582.441 137.094 582.347 136.721 582.161 136.38C581.979 136.039 581.734 135.769 581.426 135.568C581.118 135.363 580.775 135.26 580.397 135.26C580.014 135.26 579.666 135.363 579.354 135.568C579.046 135.773 578.801 136.046 578.619 136.387C578.441 136.728 578.353 137.099 578.353 137.5C578.353 137.915 578.446 138.291 578.633 138.627C578.819 138.963 579.067 139.231 579.375 139.432C579.687 139.628 580.028 139.726 580.397 139.726ZM585.028 141V134H586.484V134.742C586.726 134.453 587.025 134.224 587.38 134.056C587.734 133.888 588.117 133.804 588.528 133.804C588.789 133.804 589.048 133.839 589.305 133.909L588.724 135.379C588.542 135.309 588.36 135.274 588.178 135.274C587.87 135.274 587.587 135.351 587.331 135.505C587.074 135.654 586.869 135.857 586.715 136.114C586.561 136.371 586.484 136.655 586.484 136.968V141H585.028ZM592.865 141.182C592.221 141.182 591.633 141.016 591.101 140.685C590.574 140.354 590.152 139.91 589.834 139.355C589.522 138.795 589.365 138.177 589.365 137.5C589.365 136.987 589.456 136.508 589.638 136.065C589.82 135.617 590.07 135.225 590.387 134.889C590.709 134.548 591.083 134.282 591.507 134.091C591.932 133.9 592.385 133.804 592.865 133.804C593.402 133.804 593.894 133.916 594.342 134.14C594.79 134.359 595.173 134.665 595.49 135.057C595.808 135.444 596.041 135.892 596.19 136.401C596.34 136.905 596.384 137.442 596.323 138.011H590.926C590.987 138.333 591.104 138.625 591.276 138.886C591.454 139.143 591.678 139.346 591.948 139.495C592.224 139.644 592.529 139.721 592.865 139.726C593.22 139.726 593.542 139.637 593.831 139.46C594.125 139.283 594.366 139.038 594.552 138.725L596.029 139.068C595.749 139.689 595.327 140.197 594.762 140.594C594.198 140.986 593.565 141.182 592.865 141.182ZM590.877 136.898H594.853C594.807 136.562 594.688 136.259 594.496 135.988C594.31 135.713 594.074 135.496 593.789 135.337C593.509 135.174 593.201 135.092 592.865 135.092C592.534 135.092 592.226 135.171 591.941 135.33C591.661 135.489 591.428 135.706 591.241 135.981C591.059 136.252 590.938 136.557 590.877 136.898ZM605.512 141.182C604.831 141.182 604.196 141.051 603.608 140.79C603.025 140.524 602.514 140.158 602.075 139.691C601.641 139.22 601.3 138.676 601.053 138.06C600.81 137.444 600.689 136.788 600.689 136.093C600.689 135.36 600.82 134.686 601.081 134.07C601.342 133.454 601.699 132.92 602.152 132.467C602.605 132.01 603.12 131.655 603.699 131.403C604.282 131.151 604.894 131.025 605.533 131.025C606.256 131.025 606.952 131.193 607.619 131.529C608.286 131.865 608.867 132.369 609.362 133.041L608.06 133.748C607.724 133.328 607.332 133.011 606.884 132.796C606.441 132.581 605.986 132.474 605.519 132.474C605.066 132.474 604.637 132.567 604.231 132.754C603.825 132.936 603.466 133.193 603.153 133.524C602.84 133.851 602.593 134.236 602.411 134.679C602.234 135.118 602.145 135.596 602.145 136.114C602.145 136.613 602.231 137.082 602.404 137.521C602.581 137.96 602.824 138.345 603.132 138.676C603.445 139.003 603.804 139.259 604.21 139.446C604.621 139.633 605.059 139.726 605.526 139.726C605.871 139.726 606.203 139.67 606.52 139.558C606.837 139.446 607.131 139.287 607.402 139.082C607.677 138.872 607.918 138.622 608.123 138.333C608.328 138.044 608.492 137.722 608.613 137.367H606.534V136.079H610.321C610.33 136.779 610.209 137.437 609.957 138.053C609.71 138.669 609.364 139.213 608.921 139.684C608.482 140.151 607.971 140.517 607.388 140.783C606.805 141.049 606.179 141.182 605.512 141.182ZM614.631 141.182C613.987 141.182 613.399 141.016 612.867 140.685C612.34 140.354 611.917 139.91 611.6 139.355C611.287 138.795 611.131 138.177 611.131 137.5C611.131 136.987 611.222 136.508 611.404 136.065C611.586 135.617 611.836 135.225 612.153 134.889C612.475 134.548 612.848 134.282 613.273 134.091C613.698 133.9 614.15 133.804 614.631 133.804C615.168 133.804 615.66 133.916 616.108 134.14C616.556 134.359 616.939 134.665 617.256 135.057C617.573 135.444 617.807 135.892 617.956 136.401C618.105 136.905 618.15 137.442 618.089 138.011H612.692C612.753 138.333 612.869 138.625 613.042 138.886C613.219 139.143 613.443 139.346 613.714 139.495C613.989 139.644 614.295 139.721 614.631 139.726C614.986 139.726 615.308 139.637 615.597 139.46C615.891 139.283 616.131 139.038 616.318 138.725L617.795 139.068C617.515 139.689 617.093 140.197 616.528 140.594C615.963 140.986 615.331 141.182 614.631 141.182ZM612.643 136.898H616.619C616.572 136.562 616.453 136.259 616.262 135.988C616.075 135.713 615.84 135.496 615.555 135.337C615.275 135.174 614.967 135.092 614.631 135.092C614.3 135.092 613.992 135.171 613.707 135.33C613.427 135.489 613.194 135.706 613.007 135.981C612.825 136.252 612.704 136.557 612.643 136.898ZM625.548 136.611V141H624.092V136.968C624.092 136.655 624.015 136.371 623.861 136.114C623.712 135.857 623.509 135.654 623.252 135.505C623 135.351 622.716 135.274 622.398 135.274C622.09 135.274 621.808 135.351 621.551 135.505C621.295 135.654 621.089 135.857 620.935 136.114C620.781 136.371 620.704 136.655 620.704 136.968V141H619.248V134H620.704V134.742C620.947 134.453 621.246 134.224 621.6 134.056C621.955 133.888 622.338 133.804 622.748 133.804C623.266 133.804 623.738 133.93 624.162 134.182C624.587 134.434 624.923 134.772 625.17 135.197C625.422 135.622 625.548 136.093 625.548 136.611ZM629.889 141.182C629.245 141.182 628.657 141.016 628.125 140.685C627.597 140.354 627.175 139.91 626.858 139.355C626.545 138.795 626.389 138.177 626.389 137.5C626.389 136.987 626.48 136.508 626.662 136.065C626.844 135.617 627.093 135.225 627.411 134.889C627.733 134.548 628.106 134.282 628.531 134.091C628.955 133.9 629.408 133.804 629.889 133.804C630.425 133.804 630.918 133.916 631.366 134.14C631.814 134.359 632.196 134.665 632.514 135.057C632.831 135.444 633.064 135.892 633.214 136.401C633.363 136.905 633.407 137.442 633.347 138.011H627.95C628.01 138.333 628.127 138.625 628.3 138.886C628.477 139.143 628.701 139.346 628.972 139.495C629.247 139.644 629.553 139.721 629.889 139.726C630.243 139.726 630.565 139.637 630.855 139.46C631.149 139.283 631.389 139.038 631.576 138.725L633.053 139.068C632.773 139.689 632.35 140.197 631.786 140.594C631.221 140.986 630.589 141.182 629.889 141.182ZM627.901 136.898H631.877C631.83 136.562 631.711 136.259 631.52 135.988C631.333 135.713 631.097 135.496 630.813 135.337C630.533 135.174 630.225 135.092 629.889 135.092C629.557 135.092 629.249 135.171 628.965 135.33C628.685 135.489 628.451 135.706 628.265 135.981C628.083 136.252 627.961 136.557 627.901 136.898ZM634.506 141V134H635.962V134.742C636.205 134.453 636.503 134.224 636.858 134.056C637.213 133.888 637.595 133.804 638.006 133.804C638.267 133.804 638.526 133.839 638.783 133.909L638.202 135.379C638.02 135.309 637.838 135.274 637.656 135.274C637.348 135.274 637.066 135.351 636.809 135.505C636.552 135.654 636.347 135.857 636.193 136.114C636.039 136.371 635.962 136.655 635.962 136.968V141H634.506ZM644.71 134H646.166V141H644.703L644.647 139.985C644.441 140.344 644.164 140.634 643.814 140.853C643.464 141.072 643.051 141.182 642.575 141.182C642.061 141.182 641.578 141.086 641.126 140.895C640.673 140.699 640.274 140.428 639.929 140.083C639.588 139.738 639.322 139.341 639.131 138.893C638.939 138.44 638.844 137.955 638.844 137.437C638.844 136.938 638.937 136.469 639.124 136.03C639.31 135.587 639.569 135.199 639.901 134.868C640.232 134.537 640.615 134.278 641.049 134.091C641.487 133.9 641.956 133.804 642.456 133.804C642.964 133.804 643.412 133.921 643.8 134.154C644.192 134.383 644.516 134.677 644.773 135.036L644.71 134ZM642.54 139.775C642.95 139.775 643.31 139.675 643.618 139.474C643.926 139.269 644.164 138.993 644.332 138.648C644.504 138.303 644.591 137.92 644.591 137.5C644.591 137.075 644.504 136.69 644.332 136.345C644.159 136 643.919 135.727 643.611 135.526C643.307 135.321 642.95 135.218 642.54 135.218C642.134 135.218 641.763 135.321 641.427 135.526C641.091 135.731 640.825 136.007 640.629 136.352C640.433 136.697 640.335 137.08 640.335 137.5C640.335 137.925 640.435 138.31 640.636 138.655C640.841 138.996 641.109 139.269 641.441 139.474C641.777 139.675 642.143 139.775 642.54 139.775ZM651.259 135.456H649.789L649.782 141H648.326L648.333 135.456H647.22V134H648.333L648.326 131.802H649.782L649.789 134H651.259V135.456ZM655.428 141.182C654.784 141.182 654.196 141.016 653.664 140.685C653.136 140.354 652.714 139.91 652.397 139.355C652.084 138.795 651.928 138.177 651.928 137.5C651.928 136.987 652.019 136.508 652.201 136.065C652.383 135.617 652.632 135.225 652.95 134.889C653.272 134.548 653.645 134.282 654.07 134.091C654.494 133.9 654.947 133.804 655.428 133.804C655.964 133.804 656.457 133.916 656.905 134.14C657.353 134.359 657.735 134.665 658.053 135.057C658.37 135.444 658.603 135.892 658.753 136.401C658.902 136.905 658.946 137.442 658.886 138.011H653.489C653.549 138.333 653.666 138.625 653.839 138.886C654.016 139.143 654.24 139.346 654.511 139.495C654.786 139.644 655.092 139.721 655.428 139.726C655.782 139.726 656.104 139.637 656.394 139.46C656.688 139.283 656.928 139.038 657.115 138.725L658.592 139.068C658.312 139.689 657.889 140.197 657.325 140.594C656.76 140.986 656.128 141.182 655.428 141.182ZM653.44 136.898H657.416C657.369 136.562 657.25 136.259 657.059 135.988C656.872 135.713 656.636 135.496 656.352 135.337C656.072 135.174 655.764 135.092 655.428 135.092C655.096 135.092 654.788 135.171 654.504 135.33C654.224 135.489 653.99 135.706 653.804 135.981C653.622 136.252 653.5 136.557 653.44 136.898ZM665.484 130.5H666.94V141H665.484V139.971C665.256 140.335 664.957 140.629 664.588 140.853C664.22 141.072 663.788 141.182 663.293 141.182C662.785 141.182 662.309 141.086 661.865 140.895C661.422 140.704 661.03 140.44 660.689 140.104C660.353 139.763 660.09 139.371 659.898 138.928C659.707 138.485 659.611 138.009 659.611 137.5C659.611 136.991 659.707 136.515 659.898 136.072C660.09 135.624 660.353 135.232 660.689 134.896C661.03 134.555 661.422 134.289 661.865 134.098C662.309 133.907 662.785 133.811 663.293 133.811C663.788 133.811 664.22 133.923 664.588 134.147C664.957 134.366 665.256 134.656 665.484 135.015V130.5ZM663.307 139.775C663.718 139.775 664.077 139.675 664.385 139.474C664.693 139.269 664.931 138.993 665.099 138.648C665.272 138.303 665.358 137.92 665.358 137.5C665.358 137.075 665.272 136.69 665.099 136.345C664.927 136 664.686 135.727 664.378 135.526C664.075 135.321 663.718 135.218 663.307 135.218C662.901 135.218 662.53 135.321 662.194 135.526C661.863 135.731 661.597 136.007 661.396 136.352C661.2 136.697 661.102 137.08 661.102 137.5C661.102 137.925 661.203 138.31 661.403 138.655C661.609 138.996 661.877 139.269 662.208 139.474C662.544 139.675 662.911 139.775 663.307 139.775Z" fill="#0C1021"/>
</g>
<g filter="url(#filter2_d_3049_3137)">
<rect x="746" y="116" width="116" height="41" rx="16" fill="#4268FF" shape-rendering="crispEdges"/>
<rect x="746.46" y="116.46" width="115.081" height="40.0807" rx="15.5404" stroke="#0C1021" stroke-opacity="0.05" stroke-width="0.919289" shape-rendering="crispEdges"/>
<path d="M758.84 141V131.2H760.296V139.544H764.517V141H758.84ZM768.51 141.182C767.866 141.182 767.278 141.016 766.746 140.685C766.219 140.354 765.796 139.91 765.479 139.355C765.166 138.795 765.01 138.177 765.01 137.5C765.01 136.987 765.101 136.508 765.283 136.065C765.465 135.617 765.715 135.225 766.032 134.889C766.354 134.548 766.727 134.282 767.152 134.091C767.577 133.9 768.029 133.804 768.51 133.804C769.047 133.804 769.539 133.916 769.987 134.14C770.435 134.359 770.818 134.665 771.135 135.057C771.452 135.444 771.686 135.892 771.835 136.401C771.984 136.905 772.029 137.442 771.968 138.011H766.571C766.632 138.333 766.748 138.625 766.921 138.886C767.098 139.143 767.322 139.346 767.593 139.495C767.868 139.644 768.174 139.721 768.51 139.726C768.865 139.726 769.187 139.637 769.476 139.46C769.77 139.283 770.01 139.038 770.197 138.725L771.674 139.068C771.394 139.689 770.972 140.197 770.407 140.594C769.842 140.986 769.21 141.182 768.51 141.182ZM766.522 136.898H770.498C770.451 136.562 770.332 136.259 770.141 135.988C769.954 135.713 769.719 135.496 769.434 135.337C769.154 135.174 768.846 135.092 768.51 135.092C768.179 135.092 767.871 135.171 767.586 135.33C767.306 135.489 767.073 135.706 766.886 135.981C766.704 136.252 766.583 136.557 766.522 136.898ZM778.559 134H780.015V141H778.552L778.496 139.985C778.291 140.344 778.013 140.634 777.663 140.853C777.313 141.072 776.9 141.182 776.424 141.182C775.911 141.182 775.428 141.086 774.975 140.895C774.523 140.699 774.124 140.428 773.778 140.083C773.438 139.738 773.172 139.341 772.98 138.893C772.789 138.44 772.693 137.955 772.693 137.437C772.693 136.938 772.787 136.469 772.973 136.03C773.16 135.587 773.419 135.199 773.75 134.868C774.082 134.537 774.464 134.278 774.898 134.091C775.337 133.9 775.806 133.804 776.305 133.804C776.814 133.804 777.262 133.921 777.649 134.154C778.041 134.383 778.366 134.677 778.622 135.036L778.559 134ZM776.389 139.775C776.8 139.775 777.159 139.675 777.467 139.474C777.775 139.269 778.013 138.993 778.181 138.648C778.354 138.303 778.44 137.92 778.44 137.5C778.44 137.075 778.354 136.69 778.181 136.345C778.009 136 777.768 135.727 777.46 135.526C777.157 135.321 776.8 135.218 776.389 135.218C775.983 135.218 775.612 135.321 775.276 135.526C774.94 135.731 774.674 136.007 774.478 136.352C774.282 136.697 774.184 137.08 774.184 137.5C774.184 137.925 774.285 138.31 774.485 138.655C774.691 138.996 774.959 139.269 775.29 139.474C775.626 139.675 775.993 139.775 776.389 139.775ZM786.729 130.5H788.185V141H786.729V139.971C786.5 140.335 786.201 140.629 785.833 140.853C785.464 141.072 785.032 141.182 784.538 141.182C784.029 141.182 783.553 141.086 783.11 140.895C782.666 140.704 782.274 140.44 781.934 140.104C781.598 139.763 781.334 139.371 781.143 138.928C780.951 138.485 780.856 138.009 780.856 137.5C780.856 136.991 780.951 136.515 781.143 136.072C781.334 135.624 781.598 135.232 781.934 134.896C782.274 134.555 782.666 134.289 783.11 134.098C783.553 133.907 784.029 133.811 784.538 133.811C785.032 133.811 785.464 133.923 785.833 134.147C786.201 134.366 786.5 134.656 786.729 135.015V130.5ZM784.552 139.775C784.962 139.775 785.322 139.675 785.63 139.474C785.938 139.269 786.176 138.993 786.344 138.648C786.516 138.303 786.603 137.92 786.603 137.5C786.603 137.075 786.516 136.69 786.344 136.345C786.171 136 785.931 135.727 785.623 135.526C785.319 135.321 784.962 135.218 784.552 135.218C784.146 135.218 783.775 135.321 783.439 135.526C783.107 135.731 782.841 136.007 782.641 136.352C782.445 136.697 782.347 137.08 782.347 137.5C782.347 137.925 782.447 138.31 782.648 138.655C782.853 138.996 783.121 139.269 783.453 139.474C783.789 139.675 784.155 139.775 784.552 139.775ZM801.751 141.252L800.631 140.139C800.239 140.456 799.8 140.704 799.315 140.881C798.829 141.058 798.316 141.147 797.775 141.147C797.107 141.147 796.482 141.016 795.899 140.755C795.315 140.489 794.802 140.125 794.359 139.663C793.915 139.196 793.568 138.655 793.316 138.039C793.068 137.423 792.945 136.765 792.945 136.065C792.945 135.365 793.068 134.709 793.316 134.098C793.568 133.482 793.915 132.941 794.359 132.474C794.802 132.007 795.315 131.643 795.899 131.382C796.482 131.116 797.107 130.983 797.775 130.983C798.442 130.983 799.065 131.116 799.644 131.382C800.227 131.643 800.74 132.007 801.184 132.474C801.627 132.941 801.972 133.482 802.22 134.098C802.472 134.709 802.598 135.365 802.598 136.065C802.598 136.634 802.511 137.176 802.339 137.689C802.171 138.198 801.937 138.664 801.639 139.089L802.78 140.223L801.751 141.252ZM797.775 139.691C798.101 139.691 798.419 139.637 798.727 139.53C799.039 139.423 799.322 139.271 799.574 139.075L798.489 137.997L799.518 136.961L800.554 138.004C800.75 137.724 800.897 137.418 800.995 137.087C801.093 136.756 801.142 136.415 801.142 136.065C801.142 135.566 801.053 135.099 800.876 134.665C800.703 134.226 800.46 133.841 800.148 133.51C799.84 133.174 799.483 132.913 799.077 132.726C798.671 132.535 798.237 132.439 797.775 132.439C797.308 132.439 796.872 132.535 796.466 132.726C796.06 132.917 795.7 133.181 795.388 133.517C795.08 133.848 794.837 134.233 794.66 134.672C794.487 135.106 794.401 135.57 794.401 136.065C794.401 136.564 794.487 137.033 794.66 137.472C794.837 137.911 795.082 138.298 795.395 138.634C795.707 138.965 796.067 139.224 796.473 139.411C796.879 139.598 797.313 139.691 797.775 139.691ZM803.746 138.375V134H805.202V138.018C805.202 138.331 805.279 138.615 805.433 138.872C805.587 139.129 805.792 139.334 806.049 139.488C806.305 139.637 806.588 139.712 806.896 139.712C807.208 139.712 807.491 139.637 807.743 139.488C807.999 139.334 808.202 139.129 808.352 138.872C808.506 138.615 808.583 138.331 808.583 138.018V134H810.039L810.046 141H808.59L808.583 140.244C808.345 140.533 808.048 140.762 807.694 140.93C807.339 141.098 806.959 141.182 806.553 141.182C806.035 141.182 805.563 141.056 805.139 140.804C804.714 140.552 804.376 140.214 804.124 139.789C803.872 139.364 803.746 138.893 803.746 138.375ZM816.8 134H818.256V141H816.793L816.737 139.985C816.531 140.344 816.254 140.634 815.904 140.853C815.554 141.072 815.141 141.182 814.665 141.182C814.151 141.182 813.668 141.086 813.216 140.895C812.763 140.699 812.364 140.428 812.019 140.083C811.678 139.738 811.412 139.341 811.221 138.893C811.029 138.44 810.934 137.955 810.934 137.437C810.934 136.938 811.027 136.469 811.214 136.03C811.4 135.587 811.659 135.199 811.991 134.868C812.322 134.537 812.705 134.278 813.139 134.091C813.577 133.9 814.046 133.804 814.546 133.804C815.054 133.804 815.502 133.921 815.89 134.154C816.282 134.383 816.606 134.677 816.863 135.036L816.8 134ZM814.63 139.775C815.04 139.775 815.4 139.675 815.708 139.474C816.016 139.269 816.254 138.993 816.422 138.648C816.594 138.303 816.681 137.92 816.681 137.5C816.681 137.075 816.594 136.69 816.422 136.345C816.249 136 816.009 135.727 815.701 135.526C815.397 135.321 815.04 135.218 814.63 135.218C814.224 135.218 813.853 135.321 813.517 135.526C813.181 135.731 812.915 136.007 812.719 136.352C812.523 136.697 812.425 137.08 812.425 137.5C812.425 137.925 812.525 138.31 812.726 138.655C812.931 138.996 813.199 139.269 813.531 139.474C813.867 139.675 814.233 139.775 814.63 139.775ZM819.707 141V130.5H821.163V141H819.707ZM822.838 134H824.294V141H822.838V134ZM823.58 132.985C823.356 132.985 823.169 132.913 823.02 132.768C822.871 132.623 822.796 132.441 822.796 132.222C822.796 132.007 822.871 131.828 823.02 131.683C823.169 131.534 823.354 131.459 823.573 131.459C823.788 131.459 823.97 131.534 824.119 131.683C824.268 131.828 824.343 132.007 824.343 132.222C824.343 132.441 824.268 132.623 824.119 132.768C823.974 132.913 823.795 132.985 823.58 132.985ZM827.768 132.411V134H829.742V135.456H827.768V141H826.312V135.456H825.479V134H826.312V132.411C826.312 132.028 826.405 131.681 826.592 131.368C826.779 131.051 827.028 130.799 827.341 130.612C827.658 130.425 828.011 130.332 828.398 130.332C828.678 130.332 828.951 130.388 829.217 130.5C829.483 130.612 829.721 130.785 829.931 131.018L828.888 132.047C828.837 131.963 828.764 131.9 828.671 131.858C828.582 131.811 828.491 131.788 828.398 131.788C828.225 131.788 828.076 131.849 827.95 131.97C827.829 132.091 827.768 132.238 827.768 132.411ZM830.822 134H832.278V141H830.822V134ZM831.564 132.985C831.34 132.985 831.154 132.913 831.004 132.768C830.855 132.623 830.78 132.441 830.78 132.222C830.78 132.007 830.855 131.828 831.004 131.683C831.154 131.534 831.338 131.459 831.557 131.459C831.772 131.459 831.954 131.534 832.103 131.683C832.253 131.828 832.327 132.007 832.327 132.222C832.327 132.441 832.253 132.623 832.103 132.768C831.959 132.913 831.779 132.985 831.564 132.985ZM836.91 141.182C836.266 141.182 835.678 141.016 835.146 140.685C834.619 140.354 834.197 139.91 833.879 139.355C833.567 138.795 833.41 138.177 833.41 137.5C833.41 136.987 833.501 136.508 833.683 136.065C833.865 135.617 834.115 135.225 834.432 134.889C834.754 134.548 835.128 134.282 835.552 134.091C835.977 133.9 836.43 133.804 836.91 133.804C837.447 133.804 837.939 133.916 838.387 134.14C838.835 134.359 839.218 134.665 839.535 135.057C839.853 135.444 840.086 135.892 840.235 136.401C840.385 136.905 840.429 137.442 840.368 138.011H834.971C835.032 138.333 835.149 138.625 835.321 138.886C835.499 139.143 835.723 139.346 835.993 139.495C836.269 139.644 836.574 139.721 836.91 139.726C837.265 139.726 837.587 139.637 837.876 139.46C838.17 139.283 838.411 139.038 838.597 138.725L840.074 139.068C839.794 139.689 839.372 140.197 838.807 140.594C838.243 140.986 837.61 141.182 836.91 141.182ZM834.922 136.898H838.898C838.852 136.562 838.733 136.259 838.541 135.988C838.355 135.713 838.119 135.496 837.834 135.337C837.554 135.174 837.246 135.092 836.91 135.092C836.579 135.092 836.271 135.171 835.986 135.33C835.706 135.489 835.473 135.706 835.286 135.981C835.104 136.252 834.983 136.557 834.922 136.898ZM846.967 130.5H848.423V141H846.967V139.971C846.738 140.335 846.439 140.629 846.071 140.853C845.702 141.072 845.27 141.182 844.776 141.182C844.267 141.182 843.791 141.086 843.348 140.895C842.904 140.704 842.512 140.44 842.172 140.104C841.836 139.763 841.572 139.371 841.381 138.928C841.189 138.485 841.094 138.009 841.094 137.5C841.094 136.991 841.189 136.515 841.381 136.072C841.572 135.624 841.836 135.232 842.172 134.896C842.512 134.555 842.904 134.289 843.348 134.098C843.791 133.907 844.267 133.811 844.776 133.811C845.27 133.811 845.702 133.923 846.071 134.147C846.439 134.366 846.738 134.656 846.967 135.015V130.5ZM844.79 139.775C845.2 139.775 845.56 139.675 845.868 139.474C846.176 139.269 846.414 138.993 846.582 138.648C846.754 138.303 846.841 137.92 846.841 137.5C846.841 137.075 846.754 136.69 846.582 136.345C846.409 136 846.169 135.727 845.861 135.526C845.557 135.321 845.2 135.218 844.79 135.218C844.384 135.218 844.013 135.321 843.677 135.526C843.345 135.731 843.079 136.007 842.879 136.352C842.683 136.697 842.585 137.08 842.585 137.5C842.585 137.925 842.685 138.31 842.886 138.655C843.091 138.996 843.359 139.269 843.691 139.474C844.027 139.675 844.393 139.775 844.79 139.775Z" fill="white"/>
</g>
<g filter="url(#filter3_d_3049_3137)">
<rect x="358" y="116" width="115" height="41" rx="16" fill="white" shape-rendering="crispEdges"/>
<rect x="358.46" y="116.46" width="114.081" height="40.0807" rx="15.5404" stroke="#0C1021" stroke-opacity="0.05" stroke-width="0.919289" shape-rendering="crispEdges"/>
<path d="M371.05 141V131.2H372.506V141H371.05ZM380.695 136.611V141H379.239V136.968C379.239 136.655 379.162 136.371 379.008 136.114C378.858 135.857 378.655 135.654 378.399 135.505C378.147 135.351 377.862 135.274 377.545 135.274C377.237 135.274 376.954 135.351 376.698 135.505C376.441 135.654 376.236 135.857 376.082 136.114C375.928 136.371 375.851 136.655 375.851 136.968V141H374.395V134H375.851V134.742C376.093 134.453 376.392 134.224 376.747 134.056C377.101 133.888 377.484 133.804 377.895 133.804C378.413 133.804 378.884 133.93 379.309 134.182C379.733 134.434 380.069 134.772 380.317 135.197C380.569 135.622 380.695 136.093 380.695 136.611ZM385.788 135.456H384.318L384.311 141H382.855L382.862 135.456H381.749V134H382.862L382.855 131.802H384.311L384.318 134H385.788V135.456ZM389.957 141.182C389.313 141.182 388.725 141.016 388.193 140.685C387.666 140.354 387.243 139.91 386.926 139.355C386.613 138.795 386.457 138.177 386.457 137.5C386.457 136.987 386.548 136.508 386.73 136.065C386.912 135.617 387.162 135.225 387.479 134.889C387.801 134.548 388.174 134.282 388.599 134.091C389.024 133.9 389.476 133.804 389.957 133.804C390.494 133.804 390.986 133.916 391.434 134.14C391.882 134.359 392.265 134.665 392.582 135.057C392.899 135.444 393.133 135.892 393.282 136.401C393.431 136.905 393.476 137.442 393.415 138.011H388.018C388.079 138.333 388.195 138.625 388.368 138.886C388.545 139.143 388.769 139.346 389.04 139.495C389.315 139.644 389.621 139.721 389.957 139.726C390.312 139.726 390.634 139.637 390.923 139.46C391.217 139.283 391.457 139.038 391.644 138.725L393.121 139.068C392.841 139.689 392.419 140.197 391.854 140.594C391.289 140.986 390.657 141.182 389.957 141.182ZM387.969 136.898H391.945C391.898 136.562 391.779 136.259 391.588 135.988C391.401 135.713 391.166 135.496 390.881 135.337C390.601 135.174 390.293 135.092 389.957 135.092C389.626 135.092 389.318 135.171 389.033 135.33C388.753 135.489 388.52 135.706 388.333 135.981C388.151 136.252 388.03 136.557 387.969 136.898ZM400.874 136.611V141H399.418V136.968C399.418 136.655 399.341 136.371 399.187 136.114C399.038 135.857 398.835 135.654 398.578 135.505C398.326 135.351 398.042 135.274 397.724 135.274C397.416 135.274 397.134 135.351 396.877 135.505C396.621 135.654 396.415 135.857 396.261 136.114C396.107 136.371 396.03 136.655 396.03 136.968V141H394.574V134H396.03V134.742C396.273 134.453 396.572 134.224 396.926 134.056C397.281 133.888 397.664 133.804 398.074 133.804C398.592 133.804 399.064 133.93 399.488 134.182C399.913 134.434 400.249 134.772 400.496 135.197C400.748 135.622 400.874 136.093 400.874 136.611ZM405.968 135.456H404.498L404.491 141H403.035L403.042 135.456H401.929V134H403.042L403.035 131.802H404.491L404.498 134H405.968V135.456ZM413.867 131.2H415.568L419.131 141H417.591L416.912 139.138H412.523L411.851 141H410.304L413.867 131.2ZM413.062 137.682H416.373L414.714 133.132L413.062 137.682ZM426.578 136.611V141H425.122V136.968C425.122 136.655 425.045 136.371 424.891 136.114C424.741 135.857 424.538 135.654 424.282 135.505C424.03 135.351 423.745 135.274 423.428 135.274C423.12 135.274 422.837 135.351 422.581 135.505C422.324 135.654 422.119 135.857 421.965 136.114C421.811 136.371 421.734 136.655 421.734 136.968V141H420.278V134H421.734V134.742C421.976 134.453 422.275 134.224 422.63 134.056C422.984 133.888 423.367 133.804 423.778 133.804C424.296 133.804 424.767 133.93 425.192 134.182C425.616 134.434 425.952 134.772 426.2 135.197C426.452 135.622 426.578 136.093 426.578 136.611ZM433.284 134H434.74V141H433.277L433.221 139.985C433.016 140.344 432.738 140.634 432.388 140.853C432.038 141.072 431.625 141.182 431.149 141.182C430.636 141.182 430.153 141.086 429.7 140.895C429.247 140.699 428.848 140.428 428.503 140.083C428.162 139.738 427.896 139.341 427.705 138.893C427.514 138.44 427.418 137.955 427.418 137.437C427.418 136.938 427.511 136.469 427.698 136.03C427.885 135.587 428.144 135.199 428.475 134.868C428.806 134.537 429.189 134.278 429.623 134.091C430.062 133.9 430.531 133.804 431.03 133.804C431.539 133.804 431.987 133.921 432.374 134.154C432.766 134.383 433.09 134.677 433.347 135.036L433.284 134ZM431.114 139.775C431.525 139.775 431.884 139.675 432.192 139.474C432.5 139.269 432.738 138.993 432.906 138.648C433.079 138.303 433.165 137.92 433.165 137.5C433.165 137.075 433.079 136.69 432.906 136.345C432.733 136 432.493 135.727 432.185 135.526C431.882 135.321 431.525 135.218 431.114 135.218C430.708 135.218 430.337 135.321 430.001 135.526C429.665 135.731 429.399 136.007 429.203 136.352C429.007 136.697 428.909 137.08 428.909 137.5C428.909 137.925 429.009 138.31 429.21 138.655C429.415 138.996 429.684 139.269 430.015 139.474C430.351 139.675 430.717 139.775 431.114 139.775ZM436.192 141V130.5H437.648V141H436.192ZM443.735 134H445.289L441.453 144.5H439.906L441.173 141L438.66 134H440.249L441.901 139.005L443.735 134ZM448.436 141.133C448.067 141.11 447.708 141.035 447.358 140.909C447.008 140.783 446.7 140.613 446.434 140.398C446.173 140.179 445.977 139.922 445.846 139.628L447.085 139.096C447.146 139.222 447.251 139.346 447.4 139.467C447.554 139.588 447.734 139.689 447.939 139.768C448.144 139.843 448.359 139.88 448.583 139.88C448.802 139.88 449.005 139.85 449.192 139.789C449.383 139.724 449.54 139.626 449.661 139.495C449.782 139.364 449.843 139.208 449.843 139.026C449.843 138.821 449.773 138.662 449.633 138.55C449.498 138.433 449.327 138.345 449.122 138.284C448.917 138.223 448.711 138.165 448.506 138.109C448.049 138.006 447.629 137.866 447.246 137.689C446.868 137.507 446.567 137.276 446.343 136.996C446.119 136.711 446.007 136.364 446.007 135.953C446.007 135.505 446.128 135.118 446.371 134.791C446.614 134.46 446.931 134.205 447.323 134.028C447.72 133.851 448.142 133.762 448.59 133.762C449.15 133.762 449.663 133.881 450.13 134.119C450.597 134.357 450.954 134.684 451.201 135.099L450.046 135.785C449.976 135.645 449.871 135.519 449.731 135.407C449.591 135.295 449.432 135.206 449.255 135.141C449.078 135.071 448.893 135.031 448.702 135.022C448.464 135.013 448.242 135.041 448.037 135.106C447.836 135.167 447.675 135.265 447.554 135.4C447.433 135.535 447.372 135.708 447.372 135.918C447.372 136.123 447.444 136.277 447.589 136.38C447.734 136.478 447.916 136.557 448.135 136.618C448.359 136.679 448.588 136.746 448.821 136.821C449.236 136.952 449.626 137.113 449.99 137.304C450.354 137.491 450.648 137.722 450.872 137.997C451.096 138.272 451.203 138.608 451.194 139.005C451.194 139.444 451.061 139.829 450.795 140.16C450.534 140.491 450.193 140.743 449.773 140.916C449.353 141.089 448.907 141.161 448.436 141.133ZM452.27 134H453.726V141H452.27V134ZM453.012 132.985C452.788 132.985 452.601 132.913 452.452 132.768C452.302 132.623 452.228 132.441 452.228 132.222C452.228 132.007 452.302 131.828 452.452 131.683C452.601 131.534 452.785 131.459 453.005 131.459C453.219 131.459 453.401 131.534 453.551 131.683C453.7 131.828 453.775 132.007 453.775 132.222C453.775 132.441 453.7 132.623 453.551 132.768C453.406 132.913 453.226 132.985 453.012 132.985ZM457.405 141.133C457.036 141.11 456.677 141.035 456.327 140.909C455.977 140.783 455.669 140.613 455.403 140.398C455.142 140.179 454.946 139.922 454.815 139.628L456.054 139.096C456.115 139.222 456.22 139.346 456.369 139.467C456.523 139.588 456.703 139.689 456.908 139.768C457.113 139.843 457.328 139.88 457.552 139.88C457.771 139.88 457.974 139.85 458.161 139.789C458.352 139.724 458.509 139.626 458.63 139.495C458.751 139.364 458.812 139.208 458.812 139.026C458.812 138.821 458.742 138.662 458.602 138.55C458.467 138.433 458.296 138.345 458.091 138.284C457.886 138.223 457.68 138.165 457.475 138.109C457.018 138.006 456.598 137.866 456.215 137.689C455.837 137.507 455.536 137.276 455.312 136.996C455.088 136.711 454.976 136.364 454.976 135.953C454.976 135.505 455.097 135.118 455.34 134.791C455.583 134.46 455.9 134.205 456.292 134.028C456.689 133.851 457.111 133.762 457.559 133.762C458.119 133.762 458.632 133.881 459.099 134.119C459.566 134.357 459.923 134.684 460.17 135.099L459.015 135.785C458.945 135.645 458.84 135.519 458.7 135.407C458.56 135.295 458.401 135.206 458.224 135.141C458.047 135.071 457.862 135.031 457.671 135.022C457.433 135.013 457.211 135.041 457.006 135.106C456.805 135.167 456.644 135.265 456.523 135.4C456.402 135.535 456.341 135.708 456.341 135.918C456.341 136.123 456.413 136.277 456.558 136.38C456.703 136.478 456.885 136.557 457.104 136.618C457.328 136.679 457.557 136.746 457.79 136.821C458.205 136.952 458.595 137.113 458.959 137.304C459.323 137.491 459.617 137.722 459.841 137.997C460.065 138.272 460.172 138.608 460.163 139.005C460.163 139.444 460.03 139.829 459.764 140.16C459.503 140.491 459.162 140.743 458.742 140.916C458.322 141.089 457.876 141.161 457.405 141.133Z" fill="#0C1021"/>
</g>
<path d="M355 136.5H301" stroke="#4268FF" stroke-linecap="round" stroke-linejoin="bevel" stroke-dasharray="6 6"/>
<path d="M476 136.5H546" stroke="#4268FF" stroke-linecap="round" stroke-linejoin="bevel" stroke-dasharray="6 6"/>
<path d="M743 136.5H683" stroke="#4268FF" stroke-linecap="round" stroke-linejoin="bevel" stroke-dasharray="6 6"/>
<defs>
<filter id="filter0_d_3049_3137" x="152.614" y="101.291" width="163.772" height="77.7715" filterUnits="userSpaceOnUse" color-interpolation-filters="sRGB">
<feFlood flood-opacity="0" result="BackgroundImageFix"/>
<feColorMatrix in="SourceAlpha" type="matrix" values="0 0 0 0 0 0 0 0 0 0 0 0 0 0 0 0 0 0 127 0" result="hardAlpha"/>
<feOffset dy="3.67715"/>
<feGaussianBlur stdDeviation="9.19289"/>
<feComposite in2="hardAlpha" operator="out"/>
<feColorMatrix type="matrix" values="0 0 0 0 0.0468057 0 0 0 0 0.0634939 0 0 0 0 0.129808 0 0 0 0.1 0"/>
<feBlend mode="normal" in2="BackgroundImageFix" result="effect1_dropShadow_3049_3137"/>
<feBlend mode="normal" in="SourceGraphic" in2="effect1_dropShadow_3049_3137" result="shape"/>
</filter>
<filter id="filter1_d_3049_3137" x="530.614" y="101.291" width="167.772" height="77.7715" filterUnits="userSpaceOnUse" color-interpolation-filters="sRGB">
<feFlood flood-opacity="0" result="BackgroundImageFix"/>
<feColorMatrix in="SourceAlpha" type="matrix" values="0 0 0 0 0 0 0 0 0 0 0 0 0 0 0 0 0 0 127 0" result="hardAlpha"/>
<feOffset dy="3.67715"/>
<feGaussianBlur stdDeviation="9.19289"/>
<feComposite in2="hardAlpha" operator="out"/>
<feColorMatrix type="matrix" values="0 0 0 0 0.0468057 0 0 0 0 0.0634939 0 0 0 0 0.129808 0 0 0 0.1 0"/>
<feBlend mode="normal" in2="BackgroundImageFix" result="effect1_dropShadow_3049_3137"/>
<feBlend mode="normal" in="SourceGraphic" in2="effect1_dropShadow_3049_3137" result="shape"/>
</filter>
<filter id="filter2_d_3049_3137" x="727.614" y="101.291" width="152.772" height="77.7715" filterUnits="userSpaceOnUse" color-interpolation-filters="sRGB">
<feFlood flood-opacity="0" result="BackgroundImageFix"/>
<feColorMatrix in="SourceAlpha" type="matrix" values="0 0 0 0 0 0 0 0 0 0 0 0 0 0 0 0 0 0 127 0" result="hardAlpha"/>
<feOffset dy="3.67715"/>
<feGaussianBlur stdDeviation="9.19289"/>
<feComposite in2="hardAlpha" operator="out"/>
<feColorMatrix type="matrix" values="0 0 0 0 0.0468057 0 0 0 0 0.0634939 0 0 0 0 0.129808 0 0 0 0.1 0"/>
<feBlend mode="normal" in2="BackgroundImageFix" result="effect1_dropShadow_3049_3137"/>
<feBlend mode="normal" in="SourceGraphic" in2="effect1_dropShadow_3049_3137" result="shape"/>
</filter>
<filter id="filter3_d_3049_3137" x="339.614" y="101.291" width="151.772" height="77.7715" filterUnits="userSpaceOnUse" color-interpolation-filters="sRGB">
<feFlood flood-opacity="0" result="BackgroundImageFix"/>
<feColorMatrix in="SourceAlpha" type="matrix" values="0 0 0 0 0 0 0 0 0 0 0 0 0 0 0 0 0 0 127 0" result="hardAlpha"/>
<feOffset dy="3.67715"/>
<feGaussianBlur stdDeviation="9.19289"/>
<feComposite in2="hardAlpha" operator="out"/>
<feColorMatrix type="matrix" values="0 0 0 0 0.0468057 0 0 0 0 0.0634939 0 0 0 0 0.129808 0 0 0 0.1 0"/>
<feBlend mode="normal" in2="BackgroundImageFix" result="effect1_dropShadow_3049_3137"/>
<feBlend mode="normal" in="SourceGraphic" in2="effect1_dropShadow_3049_3137" result="shape"/>
</filter>
<pattern id="pattern0_3049_3137" patternUnits="userSpaceOnUse" patternTransform="matrix(12.5 0 0 12.5 0 0)" preserveAspectRatio="none" viewBox="0 0 12.5 12.5" width="1" height="1">
<g id="pattern0_3049_3137_inner">
<circle cx="2.5" cy="2.5" r="2.5" fill="#0C1021"/>
</g>
</pattern></defs>
</svg>
