<svg width="564" height="564" viewBox="0 0 564 564" fill="none" xmlns="http://www.w3.org/2000/svg">
<rect width="564" height="564" rx="24" fill="#FAFAFA"/>
<g filter="url(#filter0_d_3044_866)">
<g clip-path="url(#clip0_3044_866)">
<rect x="68" y="138" width="427" height="301" rx="22.0629" fill="white"/>
<path d="M185.44 185V168.2H187.936V182.504H195.172V185H185.44ZM202.017 185.312C200.913 185.312 199.905 185.028 198.993 184.46C198.089 183.892 197.365 183.132 196.821 182.18C196.285 181.22 196.017 180.16 196.017 179C196.017 178.12 196.173 177.3 196.485 176.54C196.797 175.772 197.225 175.1 197.769 174.524C198.321 173.94 198.961 173.484 199.689 173.156C200.417 172.828 201.193 172.664 202.017 172.664C202.937 172.664 203.781 172.856 204.549 173.24C205.317 173.616 205.973 174.14 206.517 174.812C207.061 175.476 207.461 176.244 207.717 177.116C207.973 177.98 208.049 178.9 207.945 179.876H198.693C198.797 180.428 198.997 180.928 199.293 181.376C199.597 181.816 199.981 182.164 200.445 182.42C200.917 182.676 201.441 182.808 202.017 182.816C202.625 182.816 203.177 182.664 203.673 182.36C204.177 182.056 204.589 181.636 204.909 181.1L207.441 181.688C206.961 182.752 206.237 183.624 205.269 184.304C204.301 184.976 203.217 185.312 202.017 185.312ZM198.609 177.968H205.425C205.345 177.392 205.141 176.872 204.813 176.408C204.493 175.936 204.089 175.564 203.601 175.292C203.121 175.012 202.593 174.872 202.017 174.872C201.449 174.872 200.921 175.008 200.433 175.28C199.953 175.552 199.553 175.924 199.233 176.396C198.921 176.86 198.713 177.384 198.609 177.968ZM219.245 173H221.741V185H219.233L219.137 183.26C218.785 183.876 218.309 184.372 217.709 184.748C217.109 185.124 216.401 185.312 215.585 185.312C214.705 185.312 213.877 185.148 213.101 184.82C212.325 184.484 211.641 184.02 211.049 183.428C210.465 182.836 210.009 182.156 209.681 181.388C209.353 180.612 209.189 179.78 209.189 178.892C209.189 178.036 209.349 177.232 209.669 176.48C209.989 175.72 210.433 175.056 211.001 174.488C211.569 173.92 212.225 173.476 212.969 173.156C213.721 172.828 214.525 172.664 215.381 172.664C216.253 172.664 217.021 172.864 217.685 173.264C218.357 173.656 218.913 174.16 219.353 174.776L219.245 173ZM215.525 182.9C216.229 182.9 216.845 182.728 217.373 182.384C217.901 182.032 218.309 181.56 218.597 180.968C218.893 180.376 219.041 179.72 219.041 179C219.041 178.272 218.893 177.612 218.597 177.02C218.301 176.428 217.889 175.96 217.361 175.616C216.841 175.264 216.229 175.088 215.525 175.088C214.829 175.088 214.193 175.264 213.617 175.616C213.041 175.968 212.585 176.44 212.249 177.032C211.913 177.624 211.745 178.28 211.745 179C211.745 179.728 211.917 180.388 212.261 180.98C212.613 181.564 213.073 182.032 213.641 182.384C214.217 182.728 214.845 182.9 215.525 182.9ZM233.249 167H235.745V185H233.249V183.236C232.857 183.86 232.345 184.364 231.713 184.748C231.081 185.124 230.341 185.312 229.493 185.312C228.621 185.312 227.805 185.148 227.045 184.82C226.285 184.492 225.613 184.04 225.029 183.464C224.453 182.88 224.001 182.208 223.673 181.448C223.345 180.688 223.181 179.872 223.181 179C223.181 178.128 223.345 177.312 223.673 176.552C224.001 175.784 224.453 175.112 225.029 174.536C225.613 173.952 226.285 173.496 227.045 173.168C227.805 172.84 228.621 172.676 229.493 172.676C230.341 172.676 231.081 172.868 231.713 173.252C232.345 173.628 232.857 174.124 233.249 174.74V167ZM229.517 182.9C230.221 182.9 230.837 182.728 231.365 182.384C231.893 182.032 232.301 181.56 232.589 180.968C232.885 180.376 233.033 179.72 233.033 179C233.033 178.272 232.885 177.612 232.589 177.02C232.293 176.428 231.881 175.96 231.353 175.616C230.833 175.264 230.221 175.088 229.517 175.088C228.821 175.088 228.185 175.264 227.609 175.616C227.041 175.968 226.585 176.44 226.241 177.032C225.905 177.624 225.737 178.28 225.737 179C225.737 179.728 225.909 180.388 226.253 180.98C226.605 181.564 227.065 182.032 227.633 182.384C228.209 182.728 228.837 182.9 229.517 182.9ZM259.001 185.432L257.081 183.524C256.409 184.068 255.657 184.492 254.825 184.796C253.993 185.1 253.113 185.252 252.185 185.252C251.041 185.252 249.969 185.028 248.969 184.58C247.969 184.124 247.089 183.5 246.329 182.708C245.569 181.908 244.973 180.98 244.541 179.924C244.117 178.868 243.905 177.74 243.905 176.54C243.905 175.34 244.117 174.216 244.541 173.168C244.973 172.112 245.569 171.184 246.329 170.384C247.089 169.584 247.969 168.96 248.969 168.512C249.969 168.056 251.041 167.828 252.185 167.828C253.329 167.828 254.397 168.056 255.389 168.512C256.389 168.96 257.269 169.584 258.029 170.384C258.789 171.184 259.381 172.112 259.805 173.168C260.237 174.216 260.453 175.34 260.453 176.54C260.453 177.516 260.305 178.444 260.009 179.324C259.721 180.196 259.321 180.996 258.809 181.724L260.765 183.668L259.001 185.432ZM252.185 182.756C252.745 182.756 253.289 182.664 253.817 182.48C254.353 182.296 254.837 182.036 255.269 181.7L253.409 179.852L255.173 178.076L256.949 179.864C257.285 179.384 257.537 178.86 257.705 178.292C257.873 177.724 257.957 177.14 257.957 176.54C257.957 175.684 257.805 174.884 257.501 174.14C257.205 173.388 256.789 172.728 256.253 172.16C255.725 171.584 255.113 171.136 254.417 170.816C253.721 170.488 252.977 170.324 252.185 170.324C251.385 170.324 250.637 170.488 249.941 170.816C249.245 171.144 248.629 171.596 248.093 172.172C247.565 172.74 247.149 173.4 246.845 174.152C246.549 174.896 246.401 175.692 246.401 176.54C246.401 177.396 246.549 178.2 246.845 178.952C247.149 179.704 247.569 180.368 248.105 180.944C248.641 181.512 249.257 181.956 249.953 182.276C250.649 182.596 251.393 182.756 252.185 182.756ZM262.421 180.5V173H264.917V179.888C264.917 180.424 265.049 180.912 265.313 181.352C265.577 181.792 265.929 182.144 266.369 182.408C266.809 182.664 267.293 182.792 267.821 182.792C268.357 182.792 268.841 182.664 269.273 182.408C269.713 182.144 270.061 181.792 270.317 181.352C270.581 180.912 270.713 180.424 270.713 179.888V173H273.209L273.221 185H270.725L270.713 183.704C270.305 184.2 269.797 184.592 269.189 184.88C268.581 185.168 267.929 185.312 267.233 185.312C266.345 185.312 265.537 185.096 264.809 184.664C264.081 184.232 263.501 183.652 263.069 182.924C262.637 182.196 262.421 181.388 262.421 180.5ZM284.799 173H287.295V185H284.787L284.691 183.26C284.339 183.876 283.863 184.372 283.263 184.748C282.663 185.124 281.955 185.312 281.139 185.312C280.259 185.312 279.431 185.148 278.655 184.82C277.879 184.484 277.195 184.02 276.603 183.428C276.019 182.836 275.563 182.156 275.235 181.388C274.907 180.612 274.743 179.78 274.743 178.892C274.743 178.036 274.903 177.232 275.223 176.48C275.543 175.72 275.987 175.056 276.555 174.488C277.123 173.92 277.779 173.476 278.523 173.156C279.275 172.828 280.079 172.664 280.935 172.664C281.807 172.664 282.575 172.864 283.239 173.264C283.911 173.656 284.467 174.16 284.907 174.776L284.799 173ZM281.079 182.9C281.783 182.9 282.399 182.728 282.927 182.384C283.455 182.032 283.863 181.56 284.151 180.968C284.447 180.376 284.595 179.72 284.595 179C284.595 178.272 284.447 177.612 284.151 177.02C283.855 176.428 283.443 175.96 282.915 175.616C282.395 175.264 281.783 175.088 281.079 175.088C280.383 175.088 279.747 175.264 279.171 175.616C278.595 175.968 278.139 176.44 277.803 177.032C277.467 177.624 277.299 178.28 277.299 179C277.299 179.728 277.471 180.388 277.815 180.98C278.167 181.564 278.627 182.032 279.195 182.384C279.771 182.728 280.399 182.9 281.079 182.9ZM289.784 185V167H292.28V185H289.784ZM295.151 173H297.647V185H295.151V173ZM296.423 171.26C296.039 171.26 295.719 171.136 295.463 170.888C295.207 170.64 295.079 170.328 295.079 169.952C295.079 169.584 295.207 169.276 295.463 169.028C295.719 168.772 296.035 168.644 296.411 168.644C296.779 168.644 297.091 168.772 297.347 169.028C297.603 169.276 297.731 169.584 297.731 169.952C297.731 170.328 297.603 170.64 297.347 170.888C297.099 171.136 296.791 171.26 296.423 171.26ZM303.602 170.276V173H306.986V175.496H303.602V185H301.106V175.496H299.678V173H301.106V170.276C301.106 169.62 301.266 169.024 301.586 168.488C301.906 167.944 302.334 167.512 302.87 167.192C303.414 166.872 304.018 166.712 304.682 166.712C305.162 166.712 305.63 166.808 306.086 167C306.542 167.192 306.95 167.488 307.31 167.888L305.522 169.652C305.434 169.508 305.31 169.4 305.15 169.328C304.998 169.248 304.842 169.208 304.682 169.208C304.386 169.208 304.13 169.312 303.914 169.52C303.706 169.728 303.602 169.98 303.602 170.276ZM308.838 173H311.334V185H308.838V173ZM310.11 171.26C309.726 171.26 309.406 171.136 309.15 170.888C308.894 170.64 308.766 170.328 308.766 169.952C308.766 169.584 308.894 169.276 309.15 169.028C309.406 168.772 309.722 168.644 310.098 168.644C310.466 168.644 310.778 168.772 311.034 169.028C311.29 169.276 311.418 169.584 311.418 169.952C311.418 170.328 311.29 170.64 311.034 170.888C310.786 171.136 310.478 171.26 310.11 171.26ZM321.831 181.592L324.063 182.804C323.519 183.564 322.827 184.172 321.987 184.628C321.155 185.084 320.251 185.312 319.275 185.312C318.171 185.312 317.163 185.028 316.251 184.46C315.347 183.892 314.623 183.132 314.079 182.18C313.543 181.22 313.275 180.16 313.275 179C313.275 178.12 313.431 177.3 313.743 176.54C314.055 175.772 314.483 175.1 315.027 174.524C315.579 173.94 316.219 173.484 316.947 173.156C317.675 172.828 318.451 172.664 319.275 172.664C320.251 172.664 321.155 172.892 321.987 173.348C322.827 173.804 323.519 174.416 324.063 175.184L321.831 176.396C321.495 175.996 321.103 175.692 320.655 175.484C320.207 175.268 319.747 175.16 319.275 175.16C318.619 175.16 318.023 175.34 317.487 175.7C316.959 176.052 316.539 176.52 316.227 177.104C315.923 177.68 315.771 178.312 315.771 179C315.771 179.68 315.927 180.312 316.239 180.896C316.551 181.472 316.971 181.936 317.499 182.288C318.035 182.64 318.627 182.816 319.275 182.816C319.771 182.816 320.243 182.704 320.691 182.48C321.139 182.256 321.519 181.96 321.831 181.592ZM335.284 173H337.78V185H335.272L335.176 183.26C334.824 183.876 334.348 184.372 333.748 184.748C333.148 185.124 332.44 185.312 331.624 185.312C330.744 185.312 329.916 185.148 329.14 184.82C328.364 184.484 327.68 184.02 327.088 183.428C326.504 182.836 326.048 182.156 325.72 181.388C325.392 180.612 325.228 179.78 325.228 178.892C325.228 178.036 325.388 177.232 325.708 176.48C326.028 175.72 326.472 175.056 327.04 174.488C327.608 173.92 328.264 173.476 329.008 173.156C329.76 172.828 330.564 172.664 331.42 172.664C332.292 172.664 333.06 172.864 333.724 173.264C334.396 173.656 334.952 174.16 335.392 174.776L335.284 173ZM331.564 182.9C332.268 182.9 332.884 182.728 333.412 182.384C333.94 182.032 334.348 181.56 334.636 180.968C334.932 180.376 335.08 179.72 335.08 179C335.08 178.272 334.932 177.612 334.636 177.02C334.34 176.428 333.928 175.96 333.4 175.616C332.88 175.264 332.268 175.088 331.564 175.088C330.868 175.088 330.232 175.264 329.656 175.616C329.08 175.968 328.624 176.44 328.288 177.032C327.952 177.624 327.784 178.28 327.784 179C327.784 179.728 327.956 180.388 328.3 180.98C328.652 181.564 329.112 182.032 329.68 182.384C330.256 182.728 330.884 182.9 331.564 182.9ZM346.51 175.496H343.99L343.978 185H341.482L341.494 175.496H339.586V173H341.494L341.482 169.232H343.978L343.99 173H346.51V175.496ZM348.495 173H350.991V185H348.495V173ZM349.767 171.26C349.383 171.26 349.063 171.136 348.807 170.888C348.551 170.64 348.423 170.328 348.423 169.952C348.423 169.584 348.551 169.276 348.807 169.028C349.063 168.772 349.379 168.644 349.755 168.644C350.123 168.644 350.435 168.772 350.691 169.028C350.947 169.276 351.075 169.584 351.075 169.952C351.075 170.328 350.947 170.64 350.691 170.888C350.443 171.136 350.135 171.26 349.767 171.26ZM358.931 185.312C357.827 185.312 356.819 185.028 355.907 184.46C355.003 183.892 354.279 183.132 353.735 182.18C353.199 181.22 352.931 180.16 352.931 179C352.931 178.12 353.087 177.3 353.399 176.54C353.711 175.772 354.139 175.1 354.683 174.524C355.235 173.94 355.875 173.484 356.603 173.156C357.331 172.828 358.107 172.664 358.931 172.664C360.035 172.664 361.039 172.948 361.943 173.516C362.855 174.084 363.579 174.848 364.115 175.808C364.659 176.768 364.931 177.832 364.931 179C364.931 179.872 364.775 180.688 364.463 181.448C364.151 182.208 363.719 182.88 363.167 183.464C362.623 184.04 361.987 184.492 361.259 184.82C360.539 185.148 359.763 185.312 358.931 185.312ZM358.931 182.816C359.595 182.816 360.191 182.64 360.719 182.288C361.247 181.936 361.663 181.472 361.967 180.896C362.279 180.312 362.435 179.68 362.435 179C362.435 178.304 362.275 177.664 361.955 177.08C361.643 176.496 361.223 176.032 360.695 175.688C360.167 175.336 359.579 175.16 358.931 175.16C358.275 175.16 357.679 175.336 357.143 175.688C356.615 176.04 356.195 176.508 355.883 177.092C355.579 177.676 355.427 178.312 355.427 179C355.427 179.712 355.587 180.356 355.907 180.932C356.227 181.508 356.651 181.968 357.179 182.312C357.715 182.648 358.299 182.816 358.931 182.816ZM377.67 177.476V185H375.174V178.088C375.174 177.552 375.042 177.064 374.778 176.624C374.522 176.184 374.174 175.836 373.734 175.58C373.302 175.316 372.814 175.184 372.27 175.184C371.742 175.184 371.258 175.316 370.818 175.58C370.378 175.836 370.026 176.184 369.762 176.624C369.498 177.064 369.366 177.552 369.366 178.088V185H366.87V173H369.366V174.272C369.782 173.776 370.294 173.384 370.902 173.096C371.51 172.808 372.166 172.664 372.87 172.664C373.758 172.664 374.566 172.88 375.294 173.312C376.022 173.744 376.598 174.324 377.022 175.052C377.454 175.78 377.67 176.588 377.67 177.476Z" fill="#0C1021"/>
<rect x="92.5" y="215.5" width="117.333" height="68" rx="23.5" stroke="#0C1021" stroke-opacity="0.1"/>
<path d="M140.39 244V233.272H138.887L139.4 231.4H142.262V244H140.39ZM144.424 244V242.335C144.85 241.981 145.339 241.57 145.891 241.102C146.443 240.628 147.004 240.127 147.574 239.599C148.144 239.065 148.669 238.534 149.149 238.006C149.629 237.472 150.016 236.968 150.31 236.494C150.61 236.014 150.76 235.597 150.76 235.243C150.76 234.841 150.661 234.475 150.463 234.145C150.271 233.809 150.01 233.542 149.68 233.344C149.35 233.14 148.984 233.038 148.582 233.038C148.18 233.038 147.811 233.14 147.475 233.344C147.145 233.542 146.878 233.809 146.674 234.145C146.476 234.475 146.377 234.841 146.377 235.243H144.505C144.505 234.481 144.691 233.794 145.063 233.182C145.441 232.564 145.936 232.075 146.548 231.715C147.166 231.349 147.844 231.166 148.582 231.166C149.326 231.166 150.004 231.349 150.616 231.715C151.228 232.081 151.717 232.573 152.083 233.191C152.449 233.803 152.632 234.487 152.632 235.243C152.632 235.663 152.545 236.095 152.371 236.539C152.197 236.983 151.954 237.436 151.642 237.898C151.336 238.36 150.979 238.828 150.571 239.302C150.163 239.776 149.725 240.25 149.257 240.724C148.789 241.198 148.312 241.666 147.826 242.128H152.74V244H144.424ZM158.653 244.234C157.891 244.234 157.198 244.06 156.574 243.712C155.95 243.364 155.452 242.899 155.08 242.317C154.714 241.729 154.531 241.075 154.531 240.355C154.531 239.749 154.681 239.185 154.981 238.663C155.281 238.141 155.68 237.709 156.178 237.367C155.776 237.067 155.449 236.689 155.197 236.233C154.945 235.777 154.819 235.285 154.819 234.757C154.819 234.097 154.99 233.497 155.332 232.957C155.68 232.411 156.145 231.976 156.727 231.652C157.309 231.328 157.951 231.166 158.653 231.166C159.355 231.166 159.997 231.328 160.579 231.652C161.161 231.976 161.623 232.411 161.965 232.957C162.313 233.497 162.487 234.097 162.487 234.757C162.487 235.285 162.361 235.777 162.109 236.233C161.863 236.689 161.536 237.067 161.128 237.367C161.638 237.709 162.04 238.141 162.334 238.663C162.634 239.185 162.784 239.749 162.784 240.355C162.784 241.069 162.598 241.72 162.226 242.308C161.854 242.896 161.356 243.364 160.732 243.712C160.108 244.06 159.415 244.234 158.653 244.234ZM158.653 242.362C159.049 242.362 159.409 242.272 159.733 242.092C160.057 241.912 160.315 241.672 160.507 241.372C160.705 241.066 160.804 240.727 160.804 240.355C160.804 239.989 160.705 239.656 160.507 239.356C160.315 239.05 160.057 238.807 159.733 238.627C159.409 238.447 159.049 238.357 158.653 238.357C158.263 238.357 157.903 238.447 157.573 238.627C157.249 238.807 156.988 239.05 156.79 239.356C156.598 239.656 156.502 239.989 156.502 240.355C156.502 240.727 156.598 241.066 156.79 241.372C156.988 241.672 157.249 241.912 157.573 242.092C157.903 242.272 158.263 242.362 158.653 242.362ZM158.653 236.485C158.995 236.485 159.304 236.407 159.58 236.251C159.862 236.095 160.087 235.888 160.255 235.63C160.423 235.366 160.507 235.075 160.507 234.757C160.507 234.439 160.423 234.151 160.255 233.893C160.087 233.635 159.862 233.428 159.58 233.272C159.304 233.116 158.995 233.038 158.653 233.038C158.311 233.038 157.999 233.116 157.717 233.272C157.441 233.428 157.219 233.635 157.051 233.893C156.883 234.151 156.799 234.439 156.799 234.757C156.799 235.075 156.883 235.366 157.051 235.63C157.219 235.888 157.441 236.095 157.717 236.251C157.999 236.407 158.311 236.485 158.653 236.485Z" fill="#0C1021"/>
<path d="M133.796 268V258.2H134.776V267.02H139.277V268H133.796ZM143.178 268.182C142.534 268.182 141.946 268.016 141.414 267.685C140.887 267.354 140.465 266.91 140.147 266.355C139.835 265.795 139.678 265.177 139.678 264.5C139.678 263.987 139.769 263.508 139.951 263.065C140.133 262.617 140.383 262.225 140.7 261.889C141.022 261.548 141.396 261.282 141.82 261.091C142.245 260.9 142.698 260.804 143.178 260.804C143.696 260.804 144.172 260.907 144.606 261.112C145.045 261.317 145.421 261.604 145.733 261.973C146.051 262.342 146.289 262.773 146.447 263.268C146.611 263.763 146.678 264.297 146.65 264.871H140.714C140.77 265.314 140.91 265.711 141.134 266.061C141.363 266.411 141.652 266.689 142.002 266.894C142.357 267.095 142.749 267.197 143.178 267.202C143.645 267.202 144.065 267.081 144.438 266.838C144.816 266.595 145.12 266.262 145.348 265.837L146.342 266.068C146.062 266.689 145.64 267.197 145.075 267.594C144.511 267.986 143.878 268.182 143.178 268.182ZM140.686 264.08H145.663C145.631 263.646 145.498 263.249 145.264 262.89C145.036 262.526 144.739 262.237 144.375 262.022C144.011 261.803 143.612 261.693 143.178 261.693C142.744 261.693 142.348 261.8 141.988 262.015C141.629 262.225 141.335 262.512 141.106 262.876C140.878 263.235 140.738 263.637 140.686 264.08ZM153.536 261H154.516V268H153.536L153.501 266.698C153.272 267.141 152.953 267.501 152.542 267.776C152.131 268.047 151.641 268.182 151.072 268.182C150.559 268.182 150.078 268.086 149.63 267.895C149.182 267.699 148.788 267.431 148.447 267.09C148.106 266.749 147.84 266.355 147.649 265.907C147.458 265.459 147.362 264.978 147.362 264.465C147.362 263.961 147.455 263.487 147.642 263.044C147.833 262.601 148.095 262.211 148.426 261.875C148.762 261.539 149.149 261.278 149.588 261.091C150.031 260.9 150.505 260.804 151.009 260.804C151.592 260.804 152.101 260.944 152.535 261.224C152.969 261.499 153.314 261.861 153.571 262.309L153.536 261ZM151.051 267.23C151.55 267.23 151.98 267.109 152.339 266.866C152.698 266.619 152.974 266.287 153.165 265.872C153.361 265.457 153.459 264.999 153.459 264.5C153.459 263.987 153.361 263.525 153.165 263.114C152.969 262.699 152.691 262.37 152.332 262.127C151.973 261.884 151.546 261.763 151.051 261.763C150.556 261.763 150.104 261.887 149.693 262.134C149.287 262.377 148.963 262.706 148.72 263.121C148.482 263.536 148.363 263.996 148.363 264.5C148.363 265.009 148.487 265.471 148.734 265.886C148.981 266.297 149.308 266.623 149.714 266.866C150.125 267.109 150.57 267.23 151.051 267.23ZM161.541 257.5H162.521V268H161.541V266.691C161.298 267.139 160.965 267.501 160.54 267.776C160.12 268.047 159.621 268.182 159.042 268.182C158.533 268.182 158.057 268.086 157.614 267.895C157.171 267.704 156.779 267.44 156.438 267.104C156.102 266.763 155.838 266.371 155.647 265.928C155.456 265.485 155.36 265.009 155.36 264.5C155.36 263.991 155.456 263.515 155.647 263.072C155.838 262.624 156.102 262.232 156.438 261.896C156.779 261.555 157.171 261.289 157.614 261.098C158.057 260.907 158.533 260.811 159.042 260.811C159.621 260.811 160.12 260.949 160.54 261.224C160.965 261.495 161.298 261.852 161.541 262.295V257.5ZM159.049 267.23C159.548 267.23 159.978 267.109 160.337 266.866C160.696 266.619 160.972 266.287 161.163 265.872C161.359 265.457 161.457 264.999 161.457 264.5C161.457 263.987 161.359 263.525 161.163 263.114C160.967 262.699 160.689 262.37 160.33 262.127C159.971 261.884 159.544 261.763 159.049 261.763C158.554 261.763 158.104 261.887 157.698 262.134C157.292 262.377 156.968 262.706 156.725 263.121C156.482 263.536 156.361 263.996 156.361 264.5C156.361 265.009 156.485 265.471 156.732 265.886C156.979 266.297 157.306 266.623 157.712 266.866C158.123 267.109 158.568 267.23 159.049 267.23ZM166.365 268.133C165.982 268.124 165.609 268.054 165.245 267.923C164.881 267.792 164.564 267.615 164.293 267.391C164.022 267.167 163.829 266.913 163.712 266.628L164.559 266.264C164.634 266.446 164.771 266.614 164.972 266.768C165.177 266.917 165.411 267.039 165.672 267.132C165.933 267.221 166.192 267.265 166.449 267.265C166.734 267.265 167 267.218 167.247 267.125C167.494 267.032 167.695 266.899 167.849 266.726C168.008 266.549 168.087 266.341 168.087 266.103C168.087 265.846 168.003 265.646 167.835 265.501C167.667 265.352 167.455 265.235 167.198 265.151C166.941 265.062 166.678 264.978 166.407 264.899C165.912 264.764 165.476 264.614 165.098 264.451C164.72 264.288 164.424 264.08 164.209 263.828C163.999 263.571 163.894 263.242 163.894 262.841C163.894 262.416 164.013 262.05 164.251 261.742C164.494 261.429 164.809 261.189 165.196 261.021C165.588 260.848 166.006 260.762 166.449 260.762C167.018 260.762 167.536 260.886 168.003 261.133C168.474 261.38 168.815 261.709 169.025 262.12L168.234 262.589C168.15 262.398 168.017 262.232 167.835 262.092C167.653 261.952 167.445 261.842 167.212 261.763C166.983 261.684 166.75 261.642 166.512 261.637C166.213 261.632 165.936 261.677 165.679 261.77C165.422 261.859 165.215 261.992 165.056 262.169C164.902 262.346 164.825 262.563 164.825 262.82C164.825 263.077 164.902 263.273 165.056 263.408C165.21 263.539 165.418 263.646 165.679 263.73C165.945 263.809 166.244 263.903 166.575 264.01C167 264.145 167.399 264.299 167.772 264.472C168.145 264.645 168.446 264.859 168.675 265.116C168.904 265.373 169.016 265.697 169.011 266.089C169.011 266.509 168.885 266.875 168.633 267.188C168.381 267.501 168.054 267.741 167.653 267.909C167.252 268.072 166.822 268.147 166.365 268.133Z" fill="#535662"/>
<rect x="222.833" y="215.5" width="117.333" height="68" rx="23.5" stroke="#0C1021" stroke-opacity="0.1"/>
<path d="M277.111 244V240.778H271.72V238.897L276.661 231.4H278.983V238.906H280.135V240.778H278.983V244H277.111ZM273.898 238.897L277.111 238.906L277.093 233.983L273.898 238.897ZM287.324 244V240.778H281.933V238.897L286.874 231.4H289.196V238.906H290.348V240.778H289.196V244H287.324ZM284.111 238.897L287.324 238.906L287.306 233.983L284.111 238.897Z" fill="#0C1021"/>
<path d="M263.692 268.168L262.523 266.999C262.112 267.363 261.646 267.648 261.123 267.853C260.605 268.058 260.057 268.161 259.478 268.161C258.811 268.161 258.185 268.03 257.602 267.769C257.019 267.503 256.505 267.139 256.062 266.677C255.619 266.21 255.271 265.669 255.019 265.053C254.772 264.437 254.648 263.779 254.648 263.079C254.648 262.379 254.772 261.723 255.019 261.112C255.271 260.496 255.619 259.955 256.062 259.488C256.505 259.021 257.019 258.657 257.602 258.396C258.185 258.13 258.811 257.997 259.478 257.997C260.145 257.997 260.768 258.13 261.347 258.396C261.93 258.657 262.444 259.021 262.887 259.488C263.33 259.955 263.676 260.496 263.923 261.112C264.175 261.723 264.301 262.379 264.301 263.079C264.301 263.695 264.203 264.276 264.007 264.822C263.811 265.368 263.54 265.86 263.195 266.299L264.385 267.475L263.692 268.168ZM259.478 267.181C259.903 267.181 260.318 267.104 260.724 266.95C261.135 266.796 261.496 266.577 261.809 266.292L260.36 264.843L261.053 264.143L262.474 265.571C262.749 265.221 262.959 264.831 263.104 264.402C263.249 263.973 263.321 263.532 263.321 263.079C263.321 262.514 263.221 261.985 263.02 261.49C262.819 260.995 262.542 260.559 262.187 260.181C261.837 259.803 261.429 259.509 260.962 259.299C260.5 259.084 260.005 258.977 259.478 258.977C258.941 258.977 258.44 259.087 257.973 259.306C257.511 259.521 257.103 259.819 256.748 260.202C256.398 260.58 256.123 261.016 255.922 261.511C255.726 262.001 255.628 262.524 255.628 263.079C255.628 263.644 255.728 264.173 255.929 264.668C256.13 265.163 256.407 265.599 256.762 265.977C257.117 266.355 257.525 266.651 257.987 266.866C258.454 267.076 258.951 267.181 259.478 267.181ZM265.421 265.319V261H266.401V265.123C266.401 265.506 266.495 265.853 266.681 266.166C266.868 266.479 267.118 266.728 267.43 266.915C267.748 267.102 268.095 267.195 268.473 267.195C268.856 267.195 269.201 267.102 269.509 266.915C269.822 266.728 270.072 266.479 270.258 266.166C270.445 265.853 270.538 265.506 270.538 265.123V261H271.518L271.525 268H270.545L270.538 267.02C270.291 267.375 269.969 267.657 269.572 267.867C269.18 268.077 268.751 268.182 268.284 268.182C267.757 268.182 267.276 268.054 266.842 267.797C266.408 267.54 266.063 267.195 265.806 266.761C265.55 266.327 265.421 265.846 265.421 265.319ZM278.619 261H279.599V268H278.619L278.584 266.698C278.356 267.141 278.036 267.501 277.625 267.776C277.215 268.047 276.725 268.182 276.155 268.182C275.642 268.182 275.161 268.086 274.713 267.895C274.265 267.699 273.871 267.431 273.53 267.09C273.19 266.749 272.924 266.355 272.732 265.907C272.541 265.459 272.445 264.978 272.445 264.465C272.445 263.961 272.539 263.487 272.725 263.044C272.917 262.601 273.178 262.211 273.509 261.875C273.845 261.539 274.233 261.278 274.671 261.091C275.115 260.9 275.588 260.804 276.092 260.804C276.676 260.804 277.184 260.944 277.618 261.224C278.052 261.499 278.398 261.861 278.654 262.309L278.619 261ZM276.134 267.23C276.634 267.23 277.063 267.109 277.422 266.866C277.782 266.619 278.057 266.287 278.248 265.872C278.444 265.457 278.542 264.999 278.542 264.5C278.542 263.987 278.444 263.525 278.248 263.114C278.052 262.699 277.775 262.37 277.415 262.127C277.056 261.884 276.629 261.763 276.134 261.763C275.64 261.763 275.187 261.887 274.776 262.134C274.37 262.377 274.046 262.706 273.803 263.121C273.565 263.536 273.446 263.996 273.446 264.5C273.446 265.009 273.57 265.471 273.817 265.886C274.065 266.297 274.391 266.623 274.797 266.866C275.208 267.109 275.654 267.23 276.134 267.23ZM281.096 268V257.5H282.076V268H281.096ZM283.762 261H284.742V268H283.762V261ZM284.259 259.775C284.1 259.775 283.965 259.724 283.853 259.621C283.746 259.514 283.692 259.381 283.692 259.222C283.692 259.063 283.746 258.933 283.853 258.83C283.965 258.723 284.1 258.669 284.259 258.669C284.413 258.669 284.544 258.723 284.651 258.83C284.763 258.933 284.819 259.063 284.819 259.222C284.819 259.381 284.765 259.514 284.658 259.621C284.551 259.724 284.418 259.775 284.259 259.775ZM287.877 259.173V261H289.977V261.98H287.877V268H286.897V261.98H285.938V261H286.897V259.173C286.897 258.832 286.979 258.524 287.142 258.249C287.31 257.969 287.534 257.747 287.814 257.584C288.094 257.416 288.404 257.332 288.745 257.332C288.992 257.332 289.23 257.381 289.459 257.479C289.692 257.577 289.9 257.722 290.082 257.913L289.382 258.606C289.307 258.513 289.212 258.44 289.095 258.389C288.983 258.338 288.866 258.312 288.745 258.312C288.507 258.312 288.302 258.396 288.129 258.564C287.961 258.732 287.877 258.935 287.877 259.173ZM291.049 261H292.029V268H291.049V261ZM291.546 259.775C291.387 259.775 291.252 259.724 291.14 259.621C291.033 259.514 290.979 259.381 290.979 259.222C290.979 259.063 291.033 258.933 291.14 258.83C291.252 258.723 291.387 258.669 291.546 258.669C291.7 258.669 291.831 258.723 291.938 258.83C292.05 258.933 292.106 259.063 292.106 259.222C292.106 259.381 292.052 259.514 291.945 259.621C291.838 259.724 291.705 259.775 291.546 259.775ZM296.727 268.182C296.083 268.182 295.495 268.016 294.963 267.685C294.435 267.354 294.013 266.91 293.696 266.355C293.383 265.795 293.227 265.177 293.227 264.5C293.227 263.987 293.318 263.508 293.5 263.065C293.682 262.617 293.931 262.225 294.249 261.889C294.571 261.548 294.944 261.282 295.369 261.091C295.793 260.9 296.246 260.804 296.727 260.804C297.245 260.804 297.721 260.907 298.155 261.112C298.593 261.317 298.969 261.604 299.282 261.973C299.599 262.342 299.837 262.773 299.996 263.268C300.159 263.763 300.227 264.297 300.199 264.871H294.263C294.319 265.314 294.459 265.711 294.683 266.061C294.911 266.411 295.201 266.689 295.551 266.894C295.905 267.095 296.297 267.197 296.727 267.202C297.193 267.202 297.613 267.081 297.987 266.838C298.365 266.595 298.668 266.262 298.897 265.837L299.891 266.068C299.611 266.689 299.188 267.197 298.624 267.594C298.059 267.986 297.427 268.182 296.727 268.182ZM294.235 264.08H299.212C299.179 263.646 299.046 263.249 298.813 262.89C298.584 262.526 298.288 262.237 297.924 262.022C297.56 261.803 297.161 261.693 296.727 261.693C296.293 261.693 295.896 261.8 295.537 262.015C295.177 262.225 294.883 262.512 294.655 262.876C294.426 263.235 294.286 263.637 294.235 264.08ZM307.091 257.5H308.071V268H307.091V266.691C306.849 267.139 306.515 267.501 306.09 267.776C305.67 268.047 305.171 268.182 304.592 268.182C304.084 268.182 303.608 268.086 303.164 267.895C302.721 267.704 302.329 267.44 301.988 267.104C301.652 266.763 301.389 266.371 301.197 265.928C301.006 265.485 300.91 265.009 300.91 264.5C300.91 263.991 301.006 263.515 301.197 263.072C301.389 262.624 301.652 262.232 301.988 261.896C302.329 261.555 302.721 261.289 303.164 261.098C303.608 260.907 304.084 260.811 304.592 260.811C305.171 260.811 305.67 260.949 306.09 261.224C306.515 261.495 306.849 261.852 307.091 262.295V257.5ZM304.599 267.23C305.099 267.23 305.528 267.109 305.887 266.866C306.247 266.619 306.522 266.287 306.713 265.872C306.909 265.457 307.007 264.999 307.007 264.5C307.007 263.987 306.909 263.525 306.713 263.114C306.517 262.699 306.24 262.37 305.88 262.127C305.521 261.884 305.094 261.763 304.599 261.763C304.105 261.763 303.654 261.887 303.248 262.134C302.842 262.377 302.518 262.706 302.275 263.121C302.033 263.536 301.911 263.996 301.911 264.5C301.911 265.009 302.035 265.471 302.282 265.886C302.53 266.297 302.856 266.623 303.262 266.866C303.673 267.109 304.119 267.23 304.599 267.23Z" fill="#535662"/>
<rect x="353.167" y="215.5" width="117.333" height="68" rx="23.5" stroke="#0C1021" stroke-opacity="0.1"/>
<path d="M406.056 244V233.272H404.553L405.066 231.4H407.928V244H406.056ZM414.212 244.234C413.45 244.234 412.757 244.06 412.133 243.712C411.509 243.364 411.011 242.899 410.639 242.317C410.273 241.729 410.09 241.075 410.09 240.355C410.09 239.749 410.24 239.185 410.54 238.663C410.84 238.141 411.239 237.709 411.737 237.367C411.335 237.067 411.008 236.689 410.756 236.233C410.504 235.777 410.378 235.285 410.378 234.757C410.378 234.097 410.549 233.497 410.891 232.957C411.239 232.411 411.704 231.976 412.286 231.652C412.868 231.328 413.51 231.166 414.212 231.166C414.914 231.166 415.556 231.328 416.138 231.652C416.72 231.976 417.182 232.411 417.524 232.957C417.872 233.497 418.046 234.097 418.046 234.757C418.046 235.285 417.92 235.777 417.668 236.233C417.422 236.689 417.095 237.067 416.687 237.367C417.197 237.709 417.599 238.141 417.893 238.663C418.193 239.185 418.343 239.749 418.343 240.355C418.343 241.069 418.157 241.72 417.785 242.308C417.413 242.896 416.915 243.364 416.291 243.712C415.667 244.06 414.974 244.234 414.212 244.234ZM414.212 242.362C414.608 242.362 414.968 242.272 415.292 242.092C415.616 241.912 415.874 241.672 416.066 241.372C416.264 241.066 416.363 240.727 416.363 240.355C416.363 239.989 416.264 239.656 416.066 239.356C415.874 239.05 415.616 238.807 415.292 238.627C414.968 238.447 414.608 238.357 414.212 238.357C413.822 238.357 413.462 238.447 413.132 238.627C412.808 238.807 412.547 239.05 412.349 239.356C412.157 239.656 412.061 239.989 412.061 240.355C412.061 240.727 412.157 241.066 412.349 241.372C412.547 241.672 412.808 241.912 413.132 242.092C413.462 242.272 413.822 242.362 414.212 242.362ZM414.212 236.485C414.554 236.485 414.863 236.407 415.139 236.251C415.421 236.095 415.646 235.888 415.814 235.63C415.982 235.366 416.066 235.075 416.066 234.757C416.066 234.439 415.982 234.151 415.814 233.893C415.646 233.635 415.421 233.428 415.139 233.272C414.863 233.116 414.554 233.038 414.212 233.038C413.87 233.038 413.558 233.116 413.276 233.272C413 233.428 412.778 233.635 412.61 233.893C412.442 234.151 412.358 234.439 412.358 234.757C412.358 235.075 412.442 235.366 412.61 235.63C412.778 235.888 413 236.095 413.276 236.251C413.558 236.407 413.87 236.485 414.212 236.485Z" fill="#0C1021"/>
<path d="M385.077 258.2H386.057V268H385.077V263.24H379.932V268H378.952V258.2H379.932V262.26H385.077V258.2ZM387.743 261H388.723V268H387.743V261ZM388.24 259.775C388.081 259.775 387.946 259.724 387.834 259.621C387.726 259.514 387.673 259.381 387.673 259.222C387.673 259.063 387.726 258.933 387.834 258.83C387.946 258.723 388.081 258.669 388.24 258.669C388.394 258.669 388.524 258.723 388.632 258.83C388.744 258.933 388.8 259.063 388.8 259.222C388.8 259.381 388.746 259.514 388.639 259.621C388.531 259.724 388.398 259.775 388.24 259.775ZM395.905 261H396.885V268.259C396.885 268.707 396.787 269.127 396.591 269.519C396.4 269.911 396.139 270.254 395.807 270.548C395.481 270.847 395.107 271.08 394.687 271.248C394.267 271.416 393.831 271.5 393.378 271.5C392.893 271.5 392.424 271.388 391.971 271.164C391.519 270.945 391.124 270.651 390.788 270.282C390.457 269.913 390.221 269.505 390.081 269.057L390.984 268.644C391.073 268.994 391.239 269.309 391.481 269.589C391.729 269.874 392.018 270.098 392.349 270.261C392.685 270.429 393.028 270.513 393.378 270.513C393.7 270.513 394.011 270.452 394.309 270.331C394.613 270.214 394.883 270.053 395.121 269.848C395.364 269.643 395.555 269.402 395.695 269.127C395.835 268.856 395.905 268.567 395.905 268.259V266.712C395.663 267.151 395.334 267.505 394.918 267.776C394.508 268.047 394.029 268.182 393.483 268.182C392.993 268.182 392.531 268.086 392.097 267.895C391.668 267.704 391.29 267.44 390.963 267.104C390.637 266.763 390.38 266.371 390.193 265.928C390.011 265.485 389.92 265.009 389.92 264.5C389.92 263.991 390.011 263.515 390.193 263.072C390.38 262.624 390.637 262.232 390.963 261.896C391.29 261.555 391.668 261.289 392.097 261.098C392.531 260.907 392.993 260.811 393.483 260.811C394.029 260.811 394.508 260.946 394.918 261.217C395.334 261.483 395.663 261.838 395.905 262.281V261ZM393.49 267.23C393.976 267.23 394.393 267.104 394.743 266.852C395.098 266.6 395.371 266.266 395.562 265.851C395.754 265.436 395.849 264.985 395.849 264.5C395.849 264.001 395.751 263.546 395.555 263.135C395.364 262.72 395.091 262.388 394.736 262.141C394.382 261.889 393.966 261.763 393.49 261.763C393.014 261.763 392.58 261.887 392.188 262.134C391.801 262.377 391.493 262.706 391.264 263.121C391.036 263.536 390.921 263.996 390.921 264.5C390.921 265.004 391.038 265.464 391.271 265.879C391.505 266.29 391.815 266.619 392.202 266.866C392.594 267.109 393.024 267.23 393.49 267.23ZM404.675 263.667V268H403.695V263.863C403.695 263.48 403.601 263.133 403.415 262.82C403.228 262.507 402.978 262.258 402.666 262.071C402.353 261.884 402.005 261.791 401.623 261.791C401.245 261.791 400.897 261.884 400.58 262.071C400.267 262.258 400.017 262.507 399.831 262.82C399.644 263.133 399.551 263.48 399.551 263.863V268H398.571V257.5H399.551V261.966C399.798 261.611 400.12 261.329 400.517 261.119C400.913 260.909 401.345 260.804 401.812 260.804C402.339 260.804 402.82 260.932 403.254 261.189C403.688 261.446 404.033 261.791 404.29 262.225C404.546 262.659 404.675 263.14 404.675 263.667ZM406.077 263.31H410.557V264.29H406.077V263.31ZM415.288 268L411.732 258.2H412.768L415.876 266.768L418.998 258.2H420.034L416.471 268H415.288ZM426.268 261H427.248V268H426.268L426.233 266.698C426.005 267.141 425.685 267.501 425.274 267.776C424.864 268.047 424.374 268.182 423.804 268.182C423.291 268.182 422.81 268.086 422.362 267.895C421.914 267.699 421.52 267.431 421.179 267.09C420.839 266.749 420.573 266.355 420.381 265.907C420.19 265.459 420.094 264.978 420.094 264.465C420.094 263.961 420.188 263.487 420.374 263.044C420.566 262.601 420.827 262.211 421.158 261.875C421.494 261.539 421.882 261.278 422.32 261.091C422.764 260.9 423.237 260.804 423.741 260.804C424.325 260.804 424.833 260.944 425.267 261.224C425.701 261.499 426.047 261.861 426.303 262.309L426.268 261ZM423.783 267.23C424.283 267.23 424.712 267.109 425.071 266.866C425.431 266.619 425.706 266.287 425.897 265.872C426.093 265.457 426.191 264.999 426.191 264.5C426.191 263.987 426.093 263.525 425.897 263.114C425.701 262.699 425.424 262.37 425.064 262.127C424.705 261.884 424.278 261.763 423.783 261.763C423.289 261.763 422.836 261.887 422.425 262.134C422.019 262.377 421.695 262.706 421.452 263.121C421.214 263.536 421.095 263.996 421.095 264.5C421.095 265.009 421.219 265.471 421.466 265.886C421.714 266.297 422.04 266.623 422.446 266.866C422.857 267.109 423.303 267.23 423.783 267.23ZM428.745 268V257.5H429.725V268H428.745ZM431.131 265.319V261H432.111V265.123C432.111 265.506 432.204 265.853 432.391 266.166C432.577 266.479 432.827 266.728 433.14 266.915C433.457 267.102 433.805 267.195 434.183 267.195C434.565 267.195 434.911 267.102 435.219 266.915C435.531 266.728 435.781 266.479 435.968 266.166C436.154 265.853 436.248 265.506 436.248 265.123V261H437.228L437.235 268H436.255L436.248 267.02C436 267.375 435.678 267.657 435.282 267.867C434.89 268.077 434.46 268.182 433.994 268.182C433.466 268.182 432.986 268.054 432.552 267.797C432.118 267.54 431.772 267.195 431.516 266.761C431.259 266.327 431.131 265.846 431.131 265.319ZM441.655 268.182C441.011 268.182 440.423 268.016 439.891 267.685C439.363 267.354 438.941 266.91 438.624 266.355C438.311 265.795 438.155 265.177 438.155 264.5C438.155 263.987 438.246 263.508 438.428 263.065C438.61 262.617 438.859 262.225 439.177 261.889C439.499 261.548 439.872 261.282 440.297 261.091C440.721 260.9 441.174 260.804 441.655 260.804C442.173 260.804 442.649 260.907 443.083 261.112C443.521 261.317 443.897 261.604 444.21 261.973C444.527 262.342 444.765 262.773 444.924 263.268C445.087 263.763 445.155 264.297 445.127 264.871H439.191C439.247 265.314 439.387 265.711 439.611 266.061C439.839 266.411 440.129 266.689 440.479 266.894C440.833 267.095 441.225 267.197 441.655 267.202C442.121 267.202 442.541 267.081 442.915 266.838C443.293 266.595 443.596 266.262 443.825 265.837L444.819 266.068C444.539 266.689 444.116 267.197 443.552 267.594C442.987 267.986 442.355 268.182 441.655 268.182ZM439.163 264.08H444.14C444.107 263.646 443.974 263.249 443.741 262.89C443.512 262.526 443.216 262.237 442.852 262.022C442.488 261.803 442.089 261.693 441.655 261.693C441.221 261.693 440.824 261.8 440.465 262.015C440.105 262.225 439.811 262.512 439.583 262.876C439.354 263.235 439.214 263.637 439.163 264.08Z" fill="#535662"/>
<path d="M441.762 648.988L-113.166 345.056C-113.166 345.056 123.391 381.6 273.438 366.304C426.217 350.729 652.177 264.806 652.177 264.806L441.762 648.988Z" fill="url(#paint0_linear_3044_866)" fill-opacity="0.4" stroke="#4268FF"/>
</g>
<rect x="68.4596" y="138.46" width="426.081" height="300.081" rx="21.6033" stroke="#0C1021" stroke-opacity="0.05" stroke-width="0.919289"/>
</g>
<defs>
<filter id="filter0_d_3044_866" x="49.6142" y="123.291" width="463.772" height="337.772" filterUnits="userSpaceOnUse" color-interpolation-filters="sRGB">
<feFlood flood-opacity="0" result="BackgroundImageFix"/>
<feColorMatrix in="SourceAlpha" type="matrix" values="0 0 0 0 0 0 0 0 0 0 0 0 0 0 0 0 0 0 127 0" result="hardAlpha"/>
<feOffset dy="3.67715"/>
<feGaussianBlur stdDeviation="9.19289"/>
<feComposite in2="hardAlpha" operator="out"/>
<feColorMatrix type="matrix" values="0 0 0 0 0.0468057 0 0 0 0 0.0634939 0 0 0 0 0.129808 0 0 0 0.1 0"/>
<feBlend mode="normal" in2="BackgroundImageFix" result="effect1_dropShadow_3044_866"/>
<feBlend mode="normal" in="SourceGraphic" in2="effect1_dropShadow_3044_866" result="shape"/>
</filter>
<linearGradient id="paint0_linear_3044_866" x1="174.321" y1="244.795" x2="147.104" y2="489.081" gradientUnits="userSpaceOnUse">
<stop stop-color="#4268FF"/>
<stop offset="1" stop-color="#4268FF" stop-opacity="0"/>
</linearGradient>
<clipPath id="clip0_3044_866">
<rect x="68" y="138" width="427" height="301" rx="22.0629" fill="white"/>
</clipPath>
</defs>
</svg>
