<svg width="564" height="564" viewBox="0 0 564 564" fill="none" xmlns="http://www.w3.org/2000/svg">
<rect width="564" height="564" rx="24" fill="#FAFAFA"/>
<g filter="url(#filter0_d_3044_922)">
<rect x="83" y="181" width="398" height="202" rx="22.0629" fill="white" shape-rendering="crispEdges"/>
<rect x="83.4596" y="181.46" width="397.081" height="201.081" rx="21.6033" stroke="#0C1021" stroke-opacity="0.05" stroke-width="0.919289" shape-rendering="crispEdges"/>
<path d="M108.44 228V211.2H110.936V225.504H118.172V228H108.44ZM125.017 228.312C123.913 228.312 122.905 228.028 121.993 227.46C121.089 226.892 120.365 226.132 119.821 225.18C119.285 224.22 119.017 223.16 119.017 222C119.017 221.12 119.173 220.3 119.485 219.54C119.797 218.772 120.225 218.1 120.769 217.524C121.321 216.94 121.961 216.484 122.689 216.156C123.417 215.828 124.193 215.664 125.017 215.664C125.937 215.664 126.781 215.856 127.549 216.24C128.317 216.616 128.973 217.14 129.517 217.812C130.061 218.476 130.461 219.244 130.717 220.116C130.973 220.98 131.049 221.9 130.945 222.876H121.693C121.797 223.428 121.997 223.928 122.293 224.376C122.597 224.816 122.981 225.164 123.445 225.42C123.917 225.676 124.441 225.808 125.017 225.816C125.625 225.816 126.177 225.664 126.673 225.36C127.177 225.056 127.589 224.636 127.909 224.1L130.441 224.688C129.961 225.752 129.237 226.624 128.269 227.304C127.301 227.976 126.217 228.312 125.017 228.312ZM121.609 220.968H128.425C128.345 220.392 128.141 219.872 127.813 219.408C127.493 218.936 127.089 218.564 126.601 218.292C126.121 218.012 125.593 217.872 125.017 217.872C124.449 217.872 123.921 218.008 123.433 218.28C122.953 218.552 122.553 218.924 122.233 219.396C121.921 219.86 121.713 220.384 121.609 220.968ZM142.245 216H144.741V228H142.233L142.137 226.26C141.785 226.876 141.309 227.372 140.709 227.748C140.109 228.124 139.401 228.312 138.585 228.312C137.705 228.312 136.877 228.148 136.101 227.82C135.325 227.484 134.641 227.02 134.049 226.428C133.465 225.836 133.009 225.156 132.681 224.388C132.353 223.612 132.189 222.78 132.189 221.892C132.189 221.036 132.349 220.232 132.669 219.48C132.989 218.72 133.433 218.056 134.001 217.488C134.569 216.92 135.225 216.476 135.969 216.156C136.721 215.828 137.525 215.664 138.381 215.664C139.253 215.664 140.021 215.864 140.685 216.264C141.357 216.656 141.913 217.16 142.353 217.776L142.245 216ZM138.525 225.9C139.229 225.9 139.845 225.728 140.373 225.384C140.901 225.032 141.309 224.56 141.597 223.968C141.893 223.376 142.041 222.72 142.041 222C142.041 221.272 141.893 220.612 141.597 220.02C141.301 219.428 140.889 218.96 140.361 218.616C139.841 218.264 139.229 218.088 138.525 218.088C137.829 218.088 137.193 218.264 136.617 218.616C136.041 218.968 135.585 219.44 135.249 220.032C134.913 220.624 134.745 221.28 134.745 222C134.745 222.728 134.917 223.388 135.261 223.98C135.613 224.564 136.073 225.032 136.641 225.384C137.217 225.728 137.845 225.9 138.525 225.9ZM156.249 210H158.745V228H156.249V226.236C155.857 226.86 155.345 227.364 154.713 227.748C154.081 228.124 153.341 228.312 152.493 228.312C151.621 228.312 150.805 228.148 150.045 227.82C149.285 227.492 148.613 227.04 148.029 226.464C147.453 225.88 147.001 225.208 146.673 224.448C146.345 223.688 146.181 222.872 146.181 222C146.181 221.128 146.345 220.312 146.673 219.552C147.001 218.784 147.453 218.112 148.029 217.536C148.613 216.952 149.285 216.496 150.045 216.168C150.805 215.84 151.621 215.676 152.493 215.676C153.341 215.676 154.081 215.868 154.713 216.252C155.345 216.628 155.857 217.124 156.249 217.74V210ZM152.517 225.9C153.221 225.9 153.837 225.728 154.365 225.384C154.893 225.032 155.301 224.56 155.589 223.968C155.885 223.376 156.033 222.72 156.033 222C156.033 221.272 155.885 220.612 155.589 220.02C155.293 219.428 154.881 218.96 154.353 218.616C153.833 218.264 153.221 218.088 152.517 218.088C151.821 218.088 151.185 218.264 150.609 218.616C150.041 218.968 149.585 219.44 149.241 220.032C148.905 220.624 148.737 221.28 148.737 222C148.737 222.728 148.909 223.388 149.253 223.98C149.605 224.564 150.065 225.032 150.633 225.384C151.209 225.728 151.837 225.9 152.517 225.9ZM182.001 228.432L180.081 226.524C179.409 227.068 178.657 227.492 177.825 227.796C176.993 228.1 176.113 228.252 175.185 228.252C174.041 228.252 172.969 228.028 171.969 227.58C170.969 227.124 170.089 226.5 169.329 225.708C168.569 224.908 167.973 223.98 167.541 222.924C167.117 221.868 166.905 220.74 166.905 219.54C166.905 218.34 167.117 217.216 167.541 216.168C167.973 215.112 168.569 214.184 169.329 213.384C170.089 212.584 170.969 211.96 171.969 211.512C172.969 211.056 174.041 210.828 175.185 210.828C176.329 210.828 177.397 211.056 178.389 211.512C179.389 211.96 180.269 212.584 181.029 213.384C181.789 214.184 182.381 215.112 182.805 216.168C183.237 217.216 183.453 218.34 183.453 219.54C183.453 220.516 183.305 221.444 183.009 222.324C182.721 223.196 182.321 223.996 181.809 224.724L183.765 226.668L182.001 228.432ZM175.185 225.756C175.745 225.756 176.289 225.664 176.817 225.48C177.353 225.296 177.837 225.036 178.269 224.7L176.409 222.852L178.173 221.076L179.949 222.864C180.285 222.384 180.537 221.86 180.705 221.292C180.873 220.724 180.957 220.14 180.957 219.54C180.957 218.684 180.805 217.884 180.501 217.14C180.205 216.388 179.789 215.728 179.253 215.16C178.725 214.584 178.113 214.136 177.417 213.816C176.721 213.488 175.977 213.324 175.185 213.324C174.385 213.324 173.637 213.488 172.941 213.816C172.245 214.144 171.629 214.596 171.093 215.172C170.565 215.74 170.149 216.4 169.845 217.152C169.549 217.896 169.401 218.692 169.401 219.54C169.401 220.396 169.549 221.2 169.845 221.952C170.149 222.704 170.569 223.368 171.105 223.944C171.641 224.512 172.257 224.956 172.953 225.276C173.649 225.596 174.393 225.756 175.185 225.756ZM185.421 223.5V216H187.917V222.888C187.917 223.424 188.049 223.912 188.313 224.352C188.577 224.792 188.929 225.144 189.369 225.408C189.809 225.664 190.293 225.792 190.821 225.792C191.357 225.792 191.841 225.664 192.273 225.408C192.713 225.144 193.061 224.792 193.317 224.352C193.581 223.912 193.713 223.424 193.713 222.888V216H196.209L196.221 228H193.725L193.713 226.704C193.305 227.2 192.797 227.592 192.189 227.88C191.581 228.168 190.929 228.312 190.233 228.312C189.345 228.312 188.537 228.096 187.809 227.664C187.081 227.232 186.501 226.652 186.069 225.924C185.637 225.196 185.421 224.388 185.421 223.5ZM207.799 216H210.295V228H207.787L207.691 226.26C207.339 226.876 206.863 227.372 206.263 227.748C205.663 228.124 204.955 228.312 204.139 228.312C203.259 228.312 202.431 228.148 201.655 227.82C200.879 227.484 200.195 227.02 199.603 226.428C199.019 225.836 198.563 225.156 198.235 224.388C197.907 223.612 197.743 222.78 197.743 221.892C197.743 221.036 197.903 220.232 198.223 219.48C198.543 218.72 198.987 218.056 199.555 217.488C200.123 216.92 200.779 216.476 201.523 216.156C202.275 215.828 203.079 215.664 203.935 215.664C204.807 215.664 205.575 215.864 206.239 216.264C206.911 216.656 207.467 217.16 207.907 217.776L207.799 216ZM204.079 225.9C204.783 225.9 205.399 225.728 205.927 225.384C206.455 225.032 206.863 224.56 207.151 223.968C207.447 223.376 207.595 222.72 207.595 222C207.595 221.272 207.447 220.612 207.151 220.02C206.855 219.428 206.443 218.96 205.915 218.616C205.395 218.264 204.783 218.088 204.079 218.088C203.383 218.088 202.747 218.264 202.171 218.616C201.595 218.968 201.139 219.44 200.803 220.032C200.467 220.624 200.299 221.28 200.299 222C200.299 222.728 200.471 223.388 200.815 223.98C201.167 224.564 201.627 225.032 202.195 225.384C202.771 225.728 203.399 225.9 204.079 225.9ZM212.784 228V210H215.28V228H212.784ZM218.151 216H220.647V228H218.151V216ZM219.423 214.26C219.039 214.26 218.719 214.136 218.463 213.888C218.207 213.64 218.079 213.328 218.079 212.952C218.079 212.584 218.207 212.276 218.463 212.028C218.719 211.772 219.035 211.644 219.411 211.644C219.779 211.644 220.091 211.772 220.347 212.028C220.603 212.276 220.731 212.584 220.731 212.952C220.731 213.328 220.603 213.64 220.347 213.888C220.099 214.136 219.791 214.26 219.423 214.26ZM226.602 213.276V216H229.986V218.496H226.602V228H224.106V218.496H222.678V216H224.106V213.276C224.106 212.62 224.266 212.024 224.586 211.488C224.906 210.944 225.334 210.512 225.87 210.192C226.414 209.872 227.018 209.712 227.682 209.712C228.162 209.712 228.63 209.808 229.086 210C229.542 210.192 229.95 210.488 230.31 210.888L228.522 212.652C228.434 212.508 228.31 212.4 228.15 212.328C227.998 212.248 227.842 212.208 227.682 212.208C227.386 212.208 227.13 212.312 226.914 212.52C226.706 212.728 226.602 212.98 226.602 213.276ZM231.838 216H234.334V228H231.838V216ZM233.11 214.26C232.726 214.26 232.406 214.136 232.15 213.888C231.894 213.64 231.766 213.328 231.766 212.952C231.766 212.584 231.894 212.276 232.15 212.028C232.406 211.772 232.722 211.644 233.098 211.644C233.466 211.644 233.778 211.772 234.034 212.028C234.29 212.276 234.418 212.584 234.418 212.952C234.418 213.328 234.29 213.64 234.034 213.888C233.786 214.136 233.478 214.26 233.11 214.26ZM244.831 224.592L247.063 225.804C246.519 226.564 245.827 227.172 244.987 227.628C244.155 228.084 243.251 228.312 242.275 228.312C241.171 228.312 240.163 228.028 239.251 227.46C238.347 226.892 237.623 226.132 237.079 225.18C236.543 224.22 236.275 223.16 236.275 222C236.275 221.12 236.431 220.3 236.743 219.54C237.055 218.772 237.483 218.1 238.027 217.524C238.579 216.94 239.219 216.484 239.947 216.156C240.675 215.828 241.451 215.664 242.275 215.664C243.251 215.664 244.155 215.892 244.987 216.348C245.827 216.804 246.519 217.416 247.063 218.184L244.831 219.396C244.495 218.996 244.103 218.692 243.655 218.484C243.207 218.268 242.747 218.16 242.275 218.16C241.619 218.16 241.023 218.34 240.487 218.7C239.959 219.052 239.539 219.52 239.227 220.104C238.923 220.68 238.771 221.312 238.771 222C238.771 222.68 238.927 223.312 239.239 223.896C239.551 224.472 239.971 224.936 240.499 225.288C241.035 225.64 241.627 225.816 242.275 225.816C242.771 225.816 243.243 225.704 243.691 225.48C244.139 225.256 244.519 224.96 244.831 224.592ZM258.284 216H260.78V228H258.272L258.176 226.26C257.824 226.876 257.348 227.372 256.748 227.748C256.148 228.124 255.44 228.312 254.624 228.312C253.744 228.312 252.916 228.148 252.14 227.82C251.364 227.484 250.68 227.02 250.088 226.428C249.504 225.836 249.048 225.156 248.72 224.388C248.392 223.612 248.228 222.78 248.228 221.892C248.228 221.036 248.388 220.232 248.708 219.48C249.028 218.72 249.472 218.056 250.04 217.488C250.608 216.92 251.264 216.476 252.008 216.156C252.76 215.828 253.564 215.664 254.42 215.664C255.292 215.664 256.06 215.864 256.724 216.264C257.396 216.656 257.952 217.16 258.392 217.776L258.284 216ZM254.564 225.9C255.268 225.9 255.884 225.728 256.412 225.384C256.94 225.032 257.348 224.56 257.636 223.968C257.932 223.376 258.08 222.72 258.08 222C258.08 221.272 257.932 220.612 257.636 220.02C257.34 219.428 256.928 218.96 256.4 218.616C255.88 218.264 255.268 218.088 254.564 218.088C253.868 218.088 253.232 218.264 252.656 218.616C252.08 218.968 251.624 219.44 251.288 220.032C250.952 220.624 250.784 221.28 250.784 222C250.784 222.728 250.956 223.388 251.3 223.98C251.652 224.564 252.112 225.032 252.68 225.384C253.256 225.728 253.884 225.9 254.564 225.9ZM269.51 218.496H266.99L266.978 228H264.482L264.494 218.496H262.586V216H264.494L264.482 212.232H266.978L266.99 216H269.51V218.496ZM271.495 216H273.991V228H271.495V216ZM272.767 214.26C272.383 214.26 272.063 214.136 271.807 213.888C271.551 213.64 271.423 213.328 271.423 212.952C271.423 212.584 271.551 212.276 271.807 212.028C272.063 211.772 272.379 211.644 272.755 211.644C273.123 211.644 273.435 211.772 273.691 212.028C273.947 212.276 274.075 212.584 274.075 212.952C274.075 213.328 273.947 213.64 273.691 213.888C273.443 214.136 273.135 214.26 272.767 214.26ZM281.931 228.312C280.827 228.312 279.819 228.028 278.907 227.46C278.003 226.892 277.279 226.132 276.735 225.18C276.199 224.22 275.931 223.16 275.931 222C275.931 221.12 276.087 220.3 276.399 219.54C276.711 218.772 277.139 218.1 277.683 217.524C278.235 216.94 278.875 216.484 279.603 216.156C280.331 215.828 281.107 215.664 281.931 215.664C283.035 215.664 284.039 215.948 284.943 216.516C285.855 217.084 286.579 217.848 287.115 218.808C287.659 219.768 287.931 220.832 287.931 222C287.931 222.872 287.775 223.688 287.463 224.448C287.151 225.208 286.719 225.88 286.167 226.464C285.623 227.04 284.987 227.492 284.259 227.82C283.539 228.148 282.763 228.312 281.931 228.312ZM281.931 225.816C282.595 225.816 283.191 225.64 283.719 225.288C284.247 224.936 284.663 224.472 284.967 223.896C285.279 223.312 285.435 222.68 285.435 222C285.435 221.304 285.275 220.664 284.955 220.08C284.643 219.496 284.223 219.032 283.695 218.688C283.167 218.336 282.579 218.16 281.931 218.16C281.275 218.16 280.679 218.336 280.143 218.688C279.615 219.04 279.195 219.508 278.883 220.092C278.579 220.676 278.427 221.312 278.427 222C278.427 222.712 278.587 223.356 278.907 223.932C279.227 224.508 279.651 224.968 280.179 225.312C280.715 225.648 281.299 225.816 281.931 225.816ZM300.67 220.476V228H298.174V221.088C298.174 220.552 298.042 220.064 297.778 219.624C297.522 219.184 297.174 218.836 296.734 218.58C296.302 218.316 295.814 218.184 295.27 218.184C294.742 218.184 294.258 218.316 293.818 218.58C293.378 218.836 293.026 219.184 292.762 219.624C292.498 220.064 292.366 220.552 292.366 221.088V228H289.87V216H292.366V217.272C292.782 216.776 293.294 216.384 293.902 216.096C294.51 215.808 295.166 215.664 295.87 215.664C296.758 215.664 297.566 215.88 298.294 216.312C299.022 216.744 299.598 217.324 300.022 218.052C300.454 218.78 300.67 219.588 300.67 220.476Z" fill="#0C1021"/>
<rect x="397" y="288.5" width="1.00001" height="290" transform="rotate(90 397 288.5)" fill="#535662" fill-opacity="0.08"/>
<rect x="397" y="319.5" width="1.00001" height="290" transform="rotate(90 397 319.5)" fill="#535662" fill-opacity="0.08"/>
<path d="M107.502 278.5V269.071H108.444V277.557H112.775V278.5H107.502ZM116.529 278.675C115.909 278.675 115.343 278.516 114.832 278.197C114.324 277.878 113.918 277.452 113.613 276.917C113.312 276.379 113.161 275.784 113.161 275.133C113.161 274.639 113.249 274.179 113.424 273.752C113.599 273.321 113.839 272.944 114.145 272.621C114.454 272.293 114.814 272.037 115.222 271.853C115.631 271.669 116.066 271.577 116.529 271.577C117.027 271.577 117.485 271.676 117.903 271.873C118.325 272.071 118.686 272.347 118.987 272.701C119.292 273.056 119.521 273.471 119.674 273.947C119.831 274.423 119.896 274.937 119.869 275.49H114.158C114.212 275.916 114.347 276.298 114.562 276.634C114.782 276.971 115.06 277.238 115.397 277.436C115.738 277.629 116.116 277.728 116.529 277.732C116.978 277.732 117.382 277.616 117.741 277.382C118.105 277.149 118.396 276.828 118.616 276.419L119.573 276.641C119.303 277.238 118.897 277.728 118.354 278.109C117.81 278.487 117.202 278.675 116.529 278.675ZM114.131 274.729H118.919C118.888 274.311 118.76 273.929 118.536 273.584C118.316 273.233 118.03 272.955 117.68 272.749C117.33 272.538 116.946 272.432 116.529 272.432C116.111 272.432 115.729 272.535 115.384 272.742C115.038 272.944 114.755 273.22 114.535 273.57C114.315 273.916 114.18 274.302 114.131 274.729ZM126.494 271.765H127.437V278.5H126.494L126.46 277.247C126.24 277.674 125.932 278.02 125.537 278.284C125.142 278.545 124.671 278.675 124.123 278.675C123.629 278.675 123.167 278.583 122.736 278.399C122.305 278.21 121.925 277.952 121.598 277.624C121.27 277.297 121.014 276.917 120.83 276.486C120.646 276.055 120.554 275.593 120.554 275.099C120.554 274.614 120.643 274.158 120.823 273.732C121.007 273.305 121.259 272.93 121.577 272.607C121.901 272.284 122.273 272.032 122.695 271.853C123.122 271.669 123.578 271.577 124.062 271.577C124.624 271.577 125.113 271.711 125.531 271.981C125.948 272.246 126.28 272.594 126.527 273.025L126.494 271.765ZM124.103 277.759C124.583 277.759 124.996 277.642 125.342 277.409C125.688 277.171 125.953 276.852 126.137 276.453C126.325 276.053 126.42 275.613 126.42 275.133C126.42 274.639 126.325 274.194 126.137 273.799C125.948 273.4 125.681 273.083 125.335 272.85C124.99 272.616 124.579 272.499 124.103 272.499C123.627 272.499 123.191 272.618 122.796 272.856C122.406 273.09 122.094 273.406 121.86 273.806C121.631 274.206 121.517 274.648 121.517 275.133C121.517 275.622 121.636 276.067 121.874 276.466C122.112 276.861 122.426 277.176 122.817 277.409C123.212 277.642 123.64 277.759 124.103 277.759ZM134.195 268.398H135.138V278.5H134.195V277.241C133.962 277.672 133.641 278.02 133.232 278.284C132.828 278.545 132.348 278.675 131.791 278.675C131.302 278.675 130.844 278.583 130.417 278.399C129.991 278.215 129.613 277.961 129.286 277.638C128.962 277.31 128.709 276.933 128.525 276.507C128.341 276.08 128.249 275.622 128.249 275.133C128.249 274.643 128.341 274.185 128.525 273.759C128.709 273.328 128.962 272.951 129.286 272.627C129.613 272.3 129.991 272.044 130.417 271.86C130.844 271.676 131.302 271.583 131.791 271.583C132.348 271.583 132.828 271.716 133.232 271.981C133.641 272.241 133.962 272.585 134.195 273.011V268.398ZM131.798 277.759C132.278 277.759 132.691 277.642 133.037 277.409C133.383 277.171 133.648 276.852 133.832 276.453C134.02 276.053 134.115 275.613 134.115 275.133C134.115 274.639 134.02 274.194 133.832 273.799C133.643 273.4 133.376 273.083 133.03 272.85C132.685 272.616 132.274 272.499 131.798 272.499C131.322 272.499 130.889 272.618 130.498 272.856C130.107 273.09 129.795 273.406 129.562 273.806C129.328 274.206 129.212 274.648 129.212 275.133C129.212 275.622 129.331 276.067 129.569 276.466C129.807 276.861 130.121 277.176 130.511 277.409C130.907 277.642 131.335 277.759 131.798 277.759Z" fill="#0C1021" fill-opacity="0.5"/>
<path d="M161.24 278.662L160.115 277.537C159.72 277.887 159.271 278.161 158.768 278.359C158.27 278.556 157.743 278.655 157.186 278.655C156.544 278.655 155.942 278.529 155.381 278.278C154.82 278.022 154.326 277.672 153.899 277.227C153.473 276.778 153.138 276.257 152.896 275.665C152.658 275.072 152.539 274.439 152.539 273.766C152.539 273.092 152.658 272.461 152.896 271.873C153.138 271.28 153.473 270.76 153.899 270.311C154.326 269.862 154.82 269.511 155.381 269.26C155.942 269.004 156.544 268.876 157.186 268.876C157.828 268.876 158.427 269.004 158.984 269.26C159.545 269.511 160.039 269.862 160.466 270.311C160.892 270.76 161.224 271.28 161.462 271.873C161.705 272.461 161.826 273.092 161.826 273.766C161.826 274.358 161.732 274.917 161.543 275.442C161.355 275.968 161.094 276.441 160.762 276.863L161.907 277.995L161.24 278.662ZM157.186 277.712C157.594 277.712 157.994 277.638 158.385 277.49C158.78 277.342 159.128 277.131 159.428 276.857L158.034 275.463L158.701 274.789L160.068 276.163C160.333 275.826 160.535 275.451 160.674 275.038C160.814 274.625 160.883 274.201 160.883 273.766C160.883 273.222 160.787 272.713 160.594 272.237C160.401 271.761 160.133 271.341 159.792 270.977C159.455 270.614 159.063 270.331 158.614 270.129C158.169 269.922 157.693 269.819 157.186 269.819C156.67 269.819 156.187 269.924 155.738 270.136C155.293 270.342 154.901 270.629 154.559 270.998C154.223 271.361 153.958 271.781 153.765 272.257C153.576 272.728 153.482 273.231 153.482 273.766C153.482 274.309 153.578 274.818 153.771 275.294C153.964 275.77 154.232 276.19 154.573 276.554C154.914 276.917 155.307 277.202 155.751 277.409C156.2 277.611 156.678 277.712 157.186 277.712ZM162.904 275.921V271.765H163.847V275.732C163.847 276.1 163.937 276.435 164.116 276.736C164.296 277.036 164.536 277.277 164.837 277.456C165.142 277.636 165.477 277.726 165.84 277.726C166.209 277.726 166.541 277.636 166.837 277.456C167.138 277.277 167.378 277.036 167.558 276.736C167.737 276.435 167.827 276.1 167.827 275.732V271.765H168.77L168.777 278.5H167.834L167.827 277.557C167.589 277.898 167.279 278.17 166.898 278.372C166.521 278.574 166.107 278.675 165.659 278.675C165.151 278.675 164.689 278.552 164.271 278.305C163.854 278.058 163.521 277.726 163.274 277.308C163.027 276.89 162.904 276.428 162.904 275.921ZM175.602 271.765H176.545V278.5H175.602L175.568 277.247C175.348 277.674 175.041 278.02 174.646 278.284C174.25 278.545 173.779 278.675 173.231 278.675C172.737 278.675 172.275 278.583 171.844 278.399C171.413 278.21 171.033 277.952 170.706 277.624C170.378 277.297 170.122 276.917 169.938 276.486C169.754 276.055 169.662 275.593 169.662 275.099C169.662 274.614 169.752 274.158 169.931 273.732C170.115 273.305 170.367 272.93 170.686 272.607C171.009 272.284 171.381 272.032 171.803 271.853C172.23 271.669 172.686 271.577 173.171 271.577C173.732 271.577 174.221 271.711 174.639 271.981C175.056 272.246 175.389 272.594 175.636 273.025L175.602 271.765ZM173.211 277.759C173.691 277.759 174.105 277.642 174.45 277.409C174.796 277.171 175.061 276.852 175.245 276.453C175.433 276.053 175.528 275.613 175.528 275.133C175.528 274.639 175.433 274.194 175.245 273.799C175.056 273.4 174.789 273.083 174.443 272.85C174.098 272.616 173.687 272.499 173.211 272.499C172.735 272.499 172.3 272.618 171.905 272.856C171.514 273.09 171.202 273.406 170.968 273.806C170.739 274.206 170.625 274.648 170.625 275.133C170.625 275.622 170.744 276.067 170.982 276.466C171.22 276.861 171.534 277.176 171.925 277.409C172.32 277.642 172.749 277.759 173.211 277.759ZM177.984 278.5V268.398H178.927V278.5H177.984ZM180.549 271.765H181.492V278.5H180.549V271.765ZM181.028 270.587C180.875 270.587 180.745 270.537 180.637 270.439C180.534 270.335 180.482 270.207 180.482 270.055C180.482 269.902 180.534 269.776 180.637 269.678C180.745 269.574 180.875 269.523 181.028 269.523C181.176 269.523 181.301 269.574 181.405 269.678C181.513 269.776 181.566 269.902 181.566 270.055C181.566 270.207 181.515 270.335 181.411 270.439C181.308 270.537 181.18 270.587 181.028 270.587ZM184.508 270.008V271.765H186.529V272.708H184.508V278.5H183.566V272.708H182.643V271.765H183.566V270.008C183.566 269.68 183.644 269.383 183.801 269.119C183.963 268.849 184.178 268.636 184.448 268.479C184.717 268.317 185.016 268.236 185.344 268.236C185.582 268.236 185.811 268.283 186.031 268.378C186.255 268.472 186.455 268.611 186.63 268.795L185.956 269.462C185.885 269.372 185.793 269.303 185.68 269.253C185.573 269.204 185.46 269.179 185.344 269.179C185.115 269.179 184.917 269.26 184.751 269.422C184.589 269.583 184.508 269.779 184.508 270.008ZM187.56 271.765H188.503V278.5H187.56V271.765ZM188.039 270.587C187.886 270.587 187.756 270.537 187.648 270.439C187.545 270.335 187.493 270.207 187.493 270.055C187.493 269.902 187.545 269.776 187.648 269.678C187.756 269.574 187.886 269.523 188.039 269.523C188.187 269.523 188.312 269.574 188.416 269.678C188.523 269.776 188.577 269.902 188.577 270.055C188.577 270.207 188.526 270.335 188.422 270.439C188.319 270.537 188.191 270.587 188.039 270.587ZM193.023 278.675C192.403 278.675 191.838 278.516 191.326 278.197C190.818 277.878 190.412 277.452 190.107 276.917C189.806 276.379 189.655 275.784 189.655 275.133C189.655 274.639 189.743 274.179 189.918 273.752C190.093 273.321 190.333 272.944 190.639 272.621C190.949 272.293 191.308 272.037 191.716 271.853C192.125 271.669 192.56 271.577 193.023 271.577C193.521 271.577 193.979 271.676 194.397 271.873C194.819 272.071 195.18 272.347 195.481 272.701C195.786 273.056 196.015 273.471 196.168 273.947C196.325 274.423 196.39 274.937 196.363 275.49H190.652C190.706 275.916 190.841 276.298 191.056 276.634C191.276 276.971 191.555 277.238 191.891 277.436C192.233 277.629 192.61 277.728 193.023 277.732C193.472 277.732 193.876 277.616 194.235 277.382C194.599 277.149 194.891 276.828 195.111 276.419L196.067 276.641C195.798 277.238 195.391 277.728 194.848 278.109C194.305 278.487 193.696 278.675 193.023 278.675ZM190.625 274.729H195.414C195.382 274.311 195.254 273.929 195.03 273.584C194.81 273.233 194.525 272.955 194.174 272.749C193.824 272.538 193.44 272.432 193.023 272.432C192.605 272.432 192.224 272.535 191.878 272.742C191.532 272.944 191.249 273.22 191.029 273.57C190.809 273.916 190.675 274.302 190.625 274.729ZM202.995 268.398H203.937V278.5H202.995V277.241C202.761 277.672 202.44 278.02 202.032 278.284C201.627 278.545 201.147 278.675 200.59 278.675C200.101 278.675 199.643 278.583 199.216 278.399C198.79 278.215 198.413 277.961 198.085 277.638C197.762 277.31 197.508 276.933 197.324 276.507C197.14 276.08 197.048 275.622 197.048 275.133C197.048 274.643 197.14 274.185 197.324 273.759C197.508 273.328 197.762 272.951 198.085 272.627C198.413 272.3 198.79 272.044 199.216 271.86C199.643 271.676 200.101 271.583 200.59 271.583C201.147 271.583 201.627 271.716 202.032 271.981C202.44 272.241 202.761 272.585 202.995 273.011V268.398ZM200.597 277.759C201.077 277.759 201.491 277.642 201.836 277.409C202.182 277.171 202.447 276.852 202.631 276.453C202.819 276.053 202.914 275.613 202.914 275.133C202.914 274.639 202.819 274.194 202.631 273.799C202.442 273.4 202.175 273.083 201.829 272.85C201.484 272.616 201.073 272.499 200.597 272.499C200.121 272.499 199.688 272.618 199.297 272.856C198.907 273.09 198.595 273.406 198.361 273.806C198.128 274.206 198.011 274.648 198.011 275.133C198.011 275.622 198.13 276.067 198.368 276.466C198.606 276.861 198.92 277.176 199.311 277.409C199.706 277.642 200.135 277.759 200.597 277.759Z" fill="#0C1021"/>
<path d="M114.634 300.071V301.014H111.401V309.5H110.458V301.014H107.232V300.071H114.634ZM115.157 302.765H116.1V309.5H115.157V302.765ZM115.635 301.587C115.482 301.587 115.352 301.537 115.245 301.439C115.141 301.335 115.09 301.207 115.09 301.055C115.09 300.902 115.141 300.776 115.245 300.678C115.352 300.574 115.482 300.523 115.635 300.523C115.783 300.523 115.909 300.574 116.012 300.678C116.12 300.776 116.174 300.902 116.174 301.055C116.174 301.207 116.122 301.335 116.019 301.439C115.916 301.537 115.788 301.587 115.635 301.587ZM117.696 309.5V302.765H118.638V303.695C118.881 303.353 119.191 303.082 119.568 302.88C119.945 302.678 120.358 302.577 120.807 302.577C121.314 302.577 121.779 302.702 122.201 302.954C122.623 303.201 122.953 303.531 123.191 303.944C123.429 303.531 123.757 303.201 124.174 302.954C124.592 302.702 125.054 302.577 125.562 302.577C126.069 302.577 126.532 302.7 126.949 302.947C127.367 303.194 127.699 303.526 127.946 303.944C128.193 304.361 128.316 304.824 128.316 305.331V309.5H127.373V305.54C127.373 305.181 127.286 304.849 127.111 304.543C126.936 304.238 126.7 303.993 126.404 303.809C126.112 303.621 125.786 303.526 125.427 303.526C125.068 303.526 124.74 303.614 124.444 303.789C124.152 303.96 123.918 304.198 123.743 304.503C123.568 304.804 123.481 305.149 123.481 305.54V309.5H122.538V305.54C122.538 305.149 122.45 304.804 122.275 304.503C122.1 304.198 121.864 303.96 121.568 303.789C121.272 303.614 120.944 303.526 120.585 303.526C120.23 303.526 119.905 303.621 119.608 303.809C119.312 303.993 119.076 304.238 118.901 304.543C118.726 304.849 118.638 305.181 118.638 305.54V309.5H117.696ZM132.497 309.675C131.878 309.675 131.312 309.516 130.8 309.197C130.293 308.878 129.886 308.452 129.581 307.917C129.28 307.379 129.13 306.784 129.13 306.133C129.13 305.639 129.217 305.179 129.393 304.752C129.568 304.321 129.808 303.944 130.113 303.621C130.423 303.293 130.782 303.037 131.191 302.853C131.599 302.669 132.035 302.577 132.497 302.577C132.996 302.577 133.454 302.676 133.871 302.873C134.293 303.071 134.655 303.347 134.955 303.701C135.261 304.056 135.49 304.471 135.642 304.947C135.799 305.423 135.865 305.937 135.838 306.49H130.127C130.181 306.916 130.315 307.298 130.531 307.634C130.751 307.971 131.029 308.238 131.366 308.436C131.707 308.629 132.084 308.728 132.497 308.732C132.946 308.732 133.35 308.616 133.709 308.382C134.073 308.149 134.365 307.828 134.585 307.419L135.541 307.641C135.272 308.238 134.866 308.728 134.322 309.109C133.779 309.487 133.171 309.675 132.497 309.675ZM130.1 305.729H134.888C134.857 305.311 134.729 304.929 134.504 304.584C134.284 304.233 133.999 303.955 133.649 303.749C133.299 303.538 132.915 303.432 132.497 303.432C132.08 303.432 131.698 303.535 131.352 303.742C131.007 303.944 130.724 304.22 130.504 304.57C130.284 304.916 130.149 305.302 130.1 305.729Z" fill="#0C1021" fill-opacity="0.5"/>
<path d="M153.549 309.5V301.014H152.539L152.808 300.071H154.492V309.5H153.549ZM160.171 309.5V306.853H156.104V305.897L159.929 300.071H161.114V305.91H162.104V306.853H161.114V309.5H160.171ZM157.222 305.897L160.171 305.91L160.151 301.418L157.222 305.897ZM163.989 303.843C163.84 303.843 163.715 303.791 163.611 303.688C163.508 303.58 163.456 303.45 163.456 303.297C163.456 303.154 163.508 303.03 163.611 302.927C163.715 302.819 163.84 302.765 163.989 302.765C164.141 302.765 164.269 302.819 164.372 302.927C164.48 303.03 164.534 303.154 164.534 303.297C164.534 303.45 164.48 303.58 164.372 303.688C164.269 303.791 164.141 303.843 163.989 303.843ZM163.989 309.675C163.84 309.675 163.715 309.621 163.611 309.513C163.508 309.41 163.456 309.282 163.456 309.13C163.456 308.986 163.508 308.862 163.611 308.759C163.715 308.651 163.84 308.598 163.989 308.598C164.141 308.598 164.269 308.651 164.372 308.759C164.48 308.862 164.534 308.986 164.534 309.13C164.534 309.282 164.48 309.41 164.372 309.513C164.269 309.621 164.141 309.675 163.989 309.675ZM169.359 309.675C168.793 309.675 168.288 309.549 167.843 309.298C167.399 309.042 167.019 308.69 166.705 308.241C166.391 307.792 166.151 307.273 165.985 306.685C165.823 306.092 165.742 305.459 165.742 304.786C165.742 304.112 165.823 303.479 165.985 302.887C166.151 302.294 166.391 301.775 166.705 301.331C167.019 300.882 167.399 300.532 167.843 300.28C168.288 300.024 168.793 299.896 169.359 299.896C169.92 299.896 170.423 300.024 170.867 300.28C171.312 300.532 171.689 300.882 171.999 301.331C172.308 301.775 172.544 302.294 172.706 302.887C172.872 303.479 172.955 304.112 172.955 304.786C172.955 305.459 172.872 306.092 172.706 306.685C172.544 307.273 172.308 307.792 171.999 308.241C171.689 308.69 171.312 309.042 170.867 309.298C170.423 309.549 169.92 309.675 169.359 309.675ZM169.359 308.732C169.951 308.732 170.447 308.55 170.847 308.187C171.251 307.823 171.554 307.343 171.756 306.746C171.958 306.144 172.059 305.491 172.059 304.786C172.059 304.04 171.954 303.371 171.743 302.779C171.536 302.182 171.231 301.71 170.827 301.364C170.427 301.014 169.938 300.839 169.359 300.839C168.901 300.839 168.501 300.945 168.16 301.156C167.819 301.367 167.536 301.656 167.311 302.024C167.087 302.393 166.918 302.815 166.806 303.291C166.694 303.762 166.638 304.26 166.638 304.786C166.638 305.495 166.741 306.151 166.948 306.752C167.154 307.349 167.459 307.83 167.863 308.193C168.268 308.553 168.766 308.732 169.359 308.732ZM177.251 309.675C176.685 309.675 176.18 309.549 175.736 309.298C175.291 309.042 174.912 308.69 174.597 308.241C174.283 307.792 174.043 307.273 173.877 306.685C173.715 306.092 173.634 305.459 173.634 304.786C173.634 304.112 173.715 303.479 173.877 302.887C174.043 302.294 174.283 301.775 174.597 301.331C174.912 300.882 175.291 300.532 175.736 300.28C176.18 300.024 176.685 299.896 177.251 299.896C177.812 299.896 178.315 300.024 178.759 300.28C179.204 300.532 179.581 300.882 179.891 301.331C180.201 301.775 180.436 302.294 180.598 302.887C180.764 303.479 180.847 304.112 180.847 304.786C180.847 305.459 180.764 306.092 180.598 306.685C180.436 307.273 180.201 307.792 179.891 308.241C179.581 308.69 179.204 309.042 178.759 309.298C178.315 309.549 177.812 309.675 177.251 309.675ZM177.251 308.732C177.843 308.732 178.34 308.55 178.739 308.187C179.143 307.823 179.446 307.343 179.648 306.746C179.85 306.144 179.951 305.491 179.951 304.786C179.951 304.04 179.846 303.371 179.635 302.779C179.428 302.182 179.123 301.71 178.719 301.364C178.319 301.014 177.83 300.839 177.251 300.839C176.793 300.839 176.393 300.945 176.052 301.156C175.711 301.367 175.428 301.656 175.203 302.024C174.979 302.393 174.811 302.815 174.698 303.291C174.586 303.762 174.53 304.26 174.53 304.786C174.53 305.495 174.633 306.151 174.84 306.752C175.046 307.349 175.352 307.83 175.756 308.193C176.16 308.553 176.658 308.732 177.251 308.732Z" fill="#0C1021"/>
<path d="M110.795 340.675C110.292 340.675 109.805 340.597 109.333 340.439C108.866 340.282 108.458 340.058 108.108 339.766C107.757 339.474 107.511 339.126 107.367 338.722L108.249 338.392C108.348 338.67 108.527 338.911 108.788 339.113C109.053 339.31 109.36 339.463 109.711 339.571C110.065 339.678 110.427 339.732 110.795 339.732C111.226 339.732 111.628 339.66 112 339.517C112.373 339.373 112.674 339.173 112.903 338.917C113.132 338.657 113.246 338.352 113.246 338.001C113.246 337.647 113.127 337.355 112.889 337.126C112.651 336.897 112.344 336.717 111.967 336.587C111.594 336.452 111.203 336.349 110.795 336.277C110.153 336.165 109.576 336.012 109.064 335.819C108.557 335.626 108.155 335.355 107.858 335.004C107.562 334.65 107.414 334.183 107.414 333.604C107.414 333.06 107.571 332.589 107.885 332.189C108.2 331.79 108.613 331.48 109.125 331.26C109.641 331.04 110.198 330.93 110.795 330.93C111.284 330.93 111.762 331.006 112.229 331.159C112.696 331.312 113.107 331.534 113.462 331.826C113.821 332.118 114.079 332.474 114.236 332.897L113.341 333.22C113.242 332.937 113.06 332.697 112.795 332.499C112.535 332.297 112.229 332.144 111.879 332.041C111.529 331.933 111.167 331.88 110.795 331.88C110.368 331.875 109.969 331.947 109.596 332.095C109.228 332.239 108.929 332.441 108.7 332.701C108.471 332.957 108.357 333.258 108.357 333.604C108.357 334.008 108.462 334.32 108.673 334.54C108.889 334.755 109.181 334.917 109.549 335.025C109.917 335.132 110.332 335.229 110.795 335.314C111.396 335.418 111.955 335.579 112.472 335.799C112.988 336.015 113.403 336.304 113.718 336.668C114.032 337.027 114.189 337.472 114.189 338.001C114.189 338.54 114.032 339.012 113.718 339.416C113.403 339.815 112.988 340.125 112.472 340.345C111.96 340.565 111.401 340.675 110.795 340.675ZM119.098 334.708H117.489L117.482 340.5H116.539L116.546 334.708H115.327V333.765H116.546L116.539 331.651H117.482L117.489 333.765H119.098V334.708ZM125.652 333.765H126.595V340.5H125.652L125.618 339.247C125.398 339.674 125.091 340.02 124.696 340.284C124.3 340.545 123.829 340.675 123.281 340.675C122.787 340.675 122.325 340.583 121.894 340.399C121.463 340.21 121.083 339.952 120.756 339.624C120.428 339.297 120.172 338.917 119.988 338.486C119.804 338.055 119.712 337.593 119.712 337.099C119.712 336.614 119.802 336.158 119.981 335.732C120.165 335.305 120.417 334.93 120.736 334.607C121.059 334.284 121.431 334.032 121.853 333.853C122.28 333.669 122.736 333.577 123.221 333.577C123.782 333.577 124.271 333.711 124.689 333.981C125.106 334.246 125.439 334.594 125.686 335.025L125.652 333.765ZM123.261 339.759C123.741 339.759 124.154 339.642 124.5 339.409C124.846 339.171 125.111 338.852 125.295 338.453C125.483 338.053 125.578 337.613 125.578 337.133C125.578 336.639 125.483 336.194 125.295 335.799C125.106 335.4 124.839 335.083 124.493 334.85C124.148 334.616 123.737 334.499 123.261 334.499C122.785 334.499 122.35 334.618 121.954 334.856C121.564 335.09 121.252 335.406 121.018 335.806C120.789 336.206 120.675 336.648 120.675 337.133C120.675 337.622 120.794 338.067 121.032 338.466C121.27 338.861 121.584 339.176 121.975 339.409C122.37 339.642 122.799 339.759 123.261 339.759ZM131.384 334.708H129.774L129.767 340.5H128.825L128.831 334.708H127.612V333.765H128.831L128.825 331.651H129.767L129.774 333.765H131.384V334.708ZM132.316 337.921V333.765H133.259V337.732C133.259 338.1 133.349 338.435 133.528 338.736C133.708 339.036 133.948 339.277 134.249 339.456C134.554 339.636 134.889 339.726 135.253 339.726C135.621 339.726 135.953 339.636 136.249 339.456C136.55 339.277 136.79 339.036 136.97 338.736C137.15 338.435 137.239 338.1 137.239 337.732V333.765H138.182L138.189 340.5H137.246L137.239 339.557C137.001 339.898 136.692 340.17 136.31 340.372C135.933 340.574 135.52 340.675 135.071 340.675C134.563 340.675 134.101 340.552 133.683 340.305C133.266 340.058 132.934 339.726 132.687 339.308C132.44 338.89 132.316 338.428 132.316 337.921ZM141.612 340.628C141.244 340.619 140.884 340.552 140.534 340.426C140.184 340.3 139.879 340.13 139.618 339.914C139.358 339.699 139.172 339.454 139.059 339.18L139.874 338.83C139.946 339.005 140.079 339.167 140.272 339.315C140.469 339.458 140.694 339.575 140.945 339.665C141.196 339.75 141.446 339.793 141.693 339.793C141.966 339.793 142.222 339.748 142.46 339.658C142.698 339.568 142.891 339.44 143.04 339.274C143.192 339.104 143.269 338.904 143.269 338.675C143.269 338.428 143.188 338.235 143.026 338.096C142.864 337.952 142.66 337.84 142.413 337.759C142.166 337.674 141.913 337.593 141.652 337.517C141.176 337.386 140.756 337.243 140.393 337.086C140.029 336.928 139.744 336.729 139.538 336.486C139.335 336.239 139.234 335.923 139.234 335.537C139.234 335.128 139.349 334.776 139.578 334.479C139.811 334.178 140.114 333.947 140.487 333.786C140.864 333.619 141.266 333.536 141.693 333.536C142.24 333.536 142.739 333.655 143.188 333.893C143.641 334.131 143.969 334.448 144.171 334.843L143.41 335.294C143.329 335.11 143.201 334.951 143.026 334.816C142.851 334.681 142.651 334.576 142.427 334.499C142.207 334.423 141.982 334.383 141.753 334.378C141.466 334.374 141.199 334.416 140.952 334.506C140.705 334.591 140.505 334.719 140.352 334.89C140.204 335.061 140.13 335.269 140.13 335.516C140.13 335.763 140.204 335.952 140.352 336.082C140.501 336.208 140.7 336.311 140.952 336.392C141.208 336.468 141.495 336.558 141.814 336.661C142.222 336.791 142.606 336.94 142.965 337.106C143.325 337.272 143.614 337.478 143.834 337.725C144.054 337.972 144.162 338.284 144.158 338.661C144.158 339.066 144.036 339.418 143.794 339.719C143.551 340.02 143.237 340.251 142.851 340.412C142.465 340.57 142.052 340.641 141.612 340.628Z" fill="#0C1021" fill-opacity="0.5"/>
<path d="M156.102 340.675C155.599 340.675 155.112 340.597 154.64 340.439C154.173 340.282 153.765 340.058 153.414 339.766C153.064 339.474 152.817 339.126 152.674 338.722L153.556 338.392C153.655 338.67 153.834 338.911 154.095 339.113C154.36 339.31 154.667 339.463 155.017 339.571C155.372 339.678 155.733 339.732 156.102 339.732C156.533 339.732 156.934 339.66 157.307 339.517C157.68 339.373 157.981 339.173 158.21 338.917C158.438 338.657 158.553 338.352 158.553 338.001C158.553 337.647 158.434 337.355 158.196 337.126C157.958 336.897 157.651 336.717 157.273 336.587C156.901 336.452 156.51 336.349 156.102 336.277C155.46 336.165 154.883 336.012 154.371 335.819C153.863 335.626 153.462 335.355 153.165 335.004C152.869 334.65 152.721 334.183 152.721 333.604C152.721 333.06 152.878 332.589 153.192 332.189C153.506 331.79 153.92 331.48 154.431 331.26C154.948 331.04 155.504 330.93 156.102 330.93C156.591 330.93 157.069 331.006 157.536 331.159C158.003 331.312 158.414 331.534 158.768 331.826C159.128 332.118 159.386 332.474 159.543 332.897L158.647 333.22C158.548 332.937 158.367 332.697 158.102 332.499C157.841 332.297 157.536 332.144 157.186 332.041C156.836 331.933 156.474 331.88 156.102 331.88C155.675 331.875 155.275 331.947 154.903 332.095C154.535 332.239 154.236 332.441 154.007 332.701C153.778 332.957 153.664 333.258 153.664 333.604C153.664 334.008 153.769 334.32 153.98 334.54C154.196 334.755 154.487 334.917 154.856 335.025C155.224 335.132 155.639 335.229 156.102 335.314C156.703 335.418 157.262 335.579 157.778 335.799C158.295 336.015 158.71 336.304 159.024 336.668C159.339 337.027 159.496 337.472 159.496 338.001C159.496 338.54 159.339 339.012 159.024 339.416C158.71 339.815 158.295 340.125 157.778 340.345C157.267 340.565 156.708 340.675 156.102 340.675ZM165.746 338.81L166.588 339.268C166.282 339.694 165.894 340.035 165.423 340.291C164.956 340.547 164.448 340.675 163.901 340.675C163.281 340.675 162.715 340.516 162.203 340.197C161.696 339.878 161.29 339.452 160.984 338.917C160.684 338.379 160.533 337.784 160.533 337.133C160.533 336.639 160.621 336.179 160.796 335.752C160.971 335.321 161.211 334.944 161.516 334.621C161.826 334.293 162.185 334.037 162.594 333.853C163.003 333.669 163.438 333.577 163.901 333.577C164.448 333.577 164.956 333.705 165.423 333.961C165.894 334.217 166.282 334.56 166.588 334.991L165.746 335.442C165.512 335.146 165.232 334.919 164.904 334.762C164.576 334.6 164.242 334.52 163.901 334.52C163.447 334.52 163.036 334.641 162.668 334.883C162.3 335.121 162.008 335.438 161.793 335.833C161.582 336.228 161.476 336.661 161.476 337.133C161.476 337.604 161.584 338.037 161.799 338.432C162.019 338.828 162.313 339.144 162.682 339.382C163.05 339.616 163.456 339.732 163.901 339.732C164.269 339.732 164.614 339.647 164.938 339.476C165.261 339.306 165.53 339.083 165.746 338.81ZM173.584 336.331V340.5H172.641V336.52C172.641 336.152 172.551 335.817 172.372 335.516C172.192 335.216 171.952 334.975 171.651 334.796C171.35 334.616 171.016 334.526 170.648 334.526C170.284 334.526 169.95 334.616 169.644 334.796C169.343 334.975 169.103 335.216 168.924 335.516C168.744 335.817 168.654 336.152 168.654 336.52V340.5H167.711V330.398H168.654V334.695C168.892 334.353 169.202 334.082 169.584 333.88C169.965 333.678 170.381 333.577 170.83 333.577C171.337 333.577 171.799 333.7 172.217 333.947C172.634 334.194 172.967 334.526 173.214 334.944C173.461 335.361 173.584 335.824 173.584 336.331ZM177.765 340.675C177.145 340.675 176.579 340.516 176.067 340.197C175.56 339.878 175.154 339.452 174.848 338.917C174.548 338.379 174.397 337.784 174.397 337.133C174.397 336.639 174.485 336.179 174.66 335.752C174.835 335.321 175.075 334.944 175.38 334.621C175.69 334.293 176.049 334.037 176.458 333.853C176.867 333.669 177.302 333.577 177.765 333.577C178.263 333.577 178.721 333.676 179.138 333.873C179.56 334.071 179.922 334.347 180.223 334.701C180.528 335.056 180.757 335.471 180.91 335.947C181.067 336.423 181.132 336.937 181.105 337.49H175.394C175.448 337.916 175.582 338.298 175.798 338.634C176.018 338.971 176.296 339.238 176.633 339.436C176.974 339.629 177.351 339.728 177.765 339.732C178.214 339.732 178.618 339.616 178.977 339.382C179.34 339.149 179.632 338.828 179.852 338.419L180.809 338.641C180.539 339.238 180.133 339.728 179.59 340.109C179.046 340.487 178.438 340.675 177.765 340.675ZM175.367 336.729H180.155C180.124 336.311 179.996 335.929 179.771 335.584C179.551 335.233 179.266 334.955 178.916 334.749C178.566 334.538 178.182 334.432 177.765 334.432C177.347 334.432 176.965 334.535 176.62 334.742C176.274 334.944 175.991 335.22 175.771 335.57C175.551 335.916 175.416 336.302 175.367 336.729ZM187.736 330.398H188.679V340.5H187.736V339.241C187.503 339.672 187.182 340.02 186.773 340.284C186.369 340.545 185.889 340.675 185.332 340.675C184.843 340.675 184.385 340.583 183.958 340.399C183.532 340.215 183.154 339.961 182.827 339.638C182.503 339.31 182.25 338.933 182.066 338.507C181.882 338.08 181.79 337.622 181.79 337.133C181.79 336.643 181.882 336.185 182.066 335.759C182.25 335.328 182.503 334.951 182.827 334.627C183.154 334.3 183.532 334.044 183.958 333.86C184.385 333.676 184.843 333.583 185.332 333.583C185.889 333.583 186.369 333.716 186.773 333.981C187.182 334.241 187.503 334.585 187.736 335.011V330.398ZM185.339 339.759C185.819 339.759 186.232 339.642 186.578 339.409C186.924 339.171 187.189 338.852 187.373 338.453C187.561 338.053 187.655 337.613 187.655 337.133C187.655 336.639 187.561 336.194 187.373 335.799C187.184 335.4 186.917 335.083 186.571 334.85C186.225 334.616 185.815 334.499 185.339 334.499C184.863 334.499 184.43 334.618 184.039 334.856C183.648 335.09 183.336 335.406 183.103 335.806C182.869 336.206 182.753 336.648 182.753 337.133C182.753 337.622 182.872 338.067 183.11 338.466C183.348 338.861 183.662 339.176 184.052 339.409C184.448 339.642 184.876 339.759 185.339 339.759ZM190.027 337.921V333.765H190.97V337.732C190.97 338.1 191.06 338.435 191.239 338.736C191.419 339.036 191.659 339.277 191.96 339.456C192.265 339.636 192.6 339.726 192.963 339.726C193.331 339.726 193.664 339.636 193.96 339.456C194.261 339.277 194.501 339.036 194.681 338.736C194.86 338.435 194.95 338.1 194.95 337.732V333.765H195.893L195.9 340.5H194.957L194.95 339.557C194.712 339.898 194.402 340.17 194.021 340.372C193.643 340.574 193.23 340.675 192.781 340.675C192.274 340.675 191.812 340.552 191.394 340.305C190.977 340.058 190.644 339.726 190.397 339.308C190.15 338.89 190.027 338.428 190.027 337.921ZM197.334 340.5V330.398H198.276V340.5H197.334ZM202.809 340.675C202.19 340.675 201.624 340.516 201.112 340.197C200.605 339.878 200.198 339.452 199.893 338.917C199.592 338.379 199.442 337.784 199.442 337.133C199.442 336.639 199.529 336.179 199.704 335.752C199.88 335.321 200.12 334.944 200.425 334.621C200.735 334.293 201.094 334.037 201.503 333.853C201.911 333.669 202.347 333.577 202.809 333.577C203.308 333.577 203.766 333.676 204.183 333.873C204.605 334.071 204.967 334.347 205.267 334.701C205.573 335.056 205.802 335.471 205.954 335.947C206.111 336.423 206.177 336.937 206.15 337.49H200.439C200.492 337.916 200.627 338.298 200.843 338.634C201.063 338.971 201.341 339.238 201.678 339.436C202.019 339.629 202.396 339.728 202.809 339.732C203.258 339.732 203.662 339.616 204.021 339.382C204.385 339.149 204.677 338.828 204.897 338.419L205.853 338.641C205.584 339.238 205.178 339.728 204.634 340.109C204.091 340.487 203.483 340.675 202.809 340.675ZM200.412 336.729H205.2C205.169 336.311 205.041 335.929 204.816 335.584C204.596 335.233 204.311 334.955 203.961 334.749C203.611 334.538 203.227 334.432 202.809 334.432C202.392 334.432 202.01 334.535 201.664 334.742C201.319 334.944 201.036 335.22 200.816 335.57C200.596 335.916 200.461 336.302 200.412 336.729ZM212.781 330.398H213.724V340.5H212.781V339.241C212.547 339.672 212.226 340.02 211.818 340.284C211.414 340.545 210.933 340.675 210.377 340.675C209.887 340.675 209.429 340.583 209.003 340.399C208.576 340.215 208.199 339.961 207.871 339.638C207.548 339.31 207.294 338.933 207.11 338.507C206.926 338.08 206.834 337.622 206.834 337.133C206.834 336.643 206.926 336.185 207.11 335.759C207.294 335.328 207.548 334.951 207.871 334.627C208.199 334.3 208.576 334.044 209.003 333.86C209.429 333.676 209.887 333.583 210.377 333.583C210.933 333.583 211.414 333.716 211.818 333.981C212.226 334.241 212.547 334.585 212.781 335.011V330.398ZM210.383 339.759C210.864 339.759 211.277 339.642 211.623 339.409C211.968 339.171 212.233 338.852 212.417 338.453C212.606 338.053 212.7 337.613 212.7 337.133C212.7 336.639 212.606 336.194 212.417 335.799C212.229 335.4 211.962 335.083 211.616 334.85C211.27 334.616 210.859 334.499 210.383 334.499C209.907 334.499 209.474 334.618 209.084 334.856C208.693 335.09 208.381 335.406 208.147 335.806C207.914 336.206 207.797 336.648 207.797 337.133C207.797 337.622 207.916 338.067 208.154 338.466C208.392 338.861 208.706 339.176 209.097 339.409C209.492 339.642 209.921 339.759 210.383 339.759Z" fill="#0C1021"/>
</g>
<defs>
<filter id="filter0_d_3044_922" x="64.6142" y="166.291" width="434.772" height="238.772" filterUnits="userSpaceOnUse" color-interpolation-filters="sRGB">
<feFlood flood-opacity="0" result="BackgroundImageFix"/>
<feColorMatrix in="SourceAlpha" type="matrix" values="0 0 0 0 0 0 0 0 0 0 0 0 0 0 0 0 0 0 127 0" result="hardAlpha"/>
<feOffset dy="3.67715"/>
<feGaussianBlur stdDeviation="9.19289"/>
<feComposite in2="hardAlpha" operator="out"/>
<feColorMatrix type="matrix" values="0 0 0 0 0.0468057 0 0 0 0 0.0634939 0 0 0 0 0.129808 0 0 0 0.1 0"/>
<feBlend mode="normal" in2="BackgroundImageFix" result="effect1_dropShadow_3044_922"/>
<feBlend mode="normal" in="SourceGraphic" in2="effect1_dropShadow_3044_922" result="shape"/>
</filter>
</defs>
</svg>
