<svg width="1014" height="272" viewBox="0 0 1014 272" fill="none" xmlns="http://www.w3.org/2000/svg" xmlns:xlink="http://www.w3.org/1999/xlink">
<rect width="1014" height="272" rx="24" fill="#FAFAFA"/>
<rect width="1014" height="272" rx="24" fill="url(#pattern0_3044_214)" fill-opacity="0.02"/>
<g filter="url(#filter0_d_3044_214)">
<rect x="192" y="110" width="147" height="41" rx="16" fill="white" shape-rendering="crispEdges"/>
<rect x="192.46" y="110.46" width="146.081" height="40.0807" rx="15.5404" stroke="#0C1021" stroke-opacity="0.05" stroke-width="0.919289" shape-rendering="crispEdges"/>
<path d="M204.84 135V125.2H208.081C208.758 125.2 209.392 125.328 209.985 125.585C210.578 125.837 211.098 126.189 211.546 126.642C211.994 127.09 212.344 127.61 212.596 128.203C212.853 128.791 212.981 129.423 212.981 130.1C212.981 130.777 212.853 131.411 212.596 132.004C212.344 132.592 211.994 133.112 211.546 133.565C211.098 134.013 210.578 134.365 209.985 134.622C209.392 134.874 208.758 135 208.081 135H204.84ZM206.296 133.544H208.081C208.557 133.544 209 133.455 209.411 133.278C209.826 133.101 210.193 132.853 210.51 132.536C210.832 132.219 211.082 131.852 211.259 131.437C211.436 131.022 211.525 130.576 211.525 130.1C211.525 129.624 211.436 129.178 211.259 128.763C211.082 128.348 210.832 127.981 210.51 127.664C210.193 127.347 209.826 127.099 209.411 126.922C209 126.745 208.557 126.656 208.081 126.656H206.296V133.544ZM217.162 135.182C216.518 135.182 215.93 135.016 215.398 134.685C214.871 134.354 214.449 133.91 214.131 133.355C213.819 132.795 213.662 132.177 213.662 131.5C213.662 130.987 213.753 130.508 213.935 130.065C214.117 129.617 214.367 129.225 214.684 128.889C215.006 128.548 215.38 128.282 215.804 128.091C216.229 127.9 216.682 127.804 217.162 127.804C217.699 127.804 218.191 127.916 218.639 128.14C219.087 128.359 219.47 128.665 219.787 129.057C220.105 129.444 220.338 129.892 220.487 130.401C220.637 130.905 220.681 131.442 220.62 132.011H215.223C215.284 132.333 215.401 132.625 215.573 132.886C215.751 133.143 215.975 133.346 216.245 133.495C216.521 133.644 216.826 133.721 217.162 133.726C217.517 133.726 217.839 133.637 218.128 133.46C218.422 133.283 218.663 133.038 218.849 132.725L220.326 133.068C220.046 133.689 219.624 134.197 219.059 134.594C218.495 134.986 217.862 135.182 217.162 135.182ZM215.174 130.898H219.15C219.104 130.562 218.985 130.259 218.793 129.988C218.607 129.713 218.371 129.496 218.086 129.337C217.806 129.174 217.498 129.092 217.162 129.092C216.831 129.092 216.523 129.171 216.238 129.33C215.958 129.489 215.725 129.706 215.538 129.981C215.356 130.252 215.235 130.557 215.174 130.898ZM225.434 129.456H223.964L223.957 135H222.501L222.508 129.456H221.395V128H222.508L222.501 125.802H223.957L223.964 128H225.434V129.456ZM229.604 135.182C228.96 135.182 228.372 135.016 227.84 134.685C227.312 134.354 226.89 133.91 226.573 133.355C226.26 132.795 226.104 132.177 226.104 131.5C226.104 130.987 226.195 130.508 226.377 130.065C226.559 129.617 226.808 129.225 227.126 128.889C227.448 128.548 227.821 128.282 228.246 128.091C228.67 127.9 229.123 127.804 229.604 127.804C230.14 127.804 230.633 127.916 231.081 128.14C231.529 128.359 231.911 128.665 232.229 129.057C232.546 129.444 232.779 129.892 232.929 130.401C233.078 130.905 233.122 131.442 233.062 132.011H227.665C227.725 132.333 227.842 132.625 228.015 132.886C228.192 133.143 228.416 133.346 228.687 133.495C228.962 133.644 229.268 133.721 229.604 133.726C229.958 133.726 230.28 133.637 230.57 133.46C230.864 133.283 231.104 133.038 231.291 132.725L232.768 133.068C232.488 133.689 232.065 134.197 231.501 134.594C230.936 134.986 230.304 135.182 229.604 135.182ZM227.616 130.898H231.592C231.545 130.562 231.426 130.259 231.235 129.988C231.048 129.713 230.812 129.496 230.528 129.337C230.248 129.174 229.94 129.092 229.604 129.092C229.272 129.092 228.964 129.171 228.68 129.33C228.4 129.489 228.166 129.706 227.98 129.981C227.798 130.252 227.676 130.557 227.616 130.898ZM238.778 133.012L240.08 133.719C239.763 134.162 239.359 134.517 238.869 134.783C238.384 135.049 237.857 135.182 237.287 135.182C236.643 135.182 236.055 135.016 235.523 134.685C234.996 134.354 234.574 133.91 234.256 133.355C233.944 132.795 233.787 132.177 233.787 131.5C233.787 130.987 233.878 130.508 234.06 130.065C234.242 129.617 234.492 129.225 234.809 128.889C235.131 128.548 235.505 128.282 235.929 128.091C236.354 127.9 236.807 127.804 237.287 127.804C237.857 127.804 238.384 127.937 238.869 128.203C239.359 128.469 239.763 128.826 240.08 129.274L238.778 129.981C238.582 129.748 238.354 129.57 238.092 129.449C237.831 129.323 237.563 129.26 237.287 129.26C236.905 129.26 236.557 129.365 236.244 129.575C235.936 129.78 235.691 130.053 235.509 130.394C235.332 130.73 235.243 131.099 235.243 131.5C235.243 131.897 235.334 132.265 235.516 132.606C235.698 132.942 235.943 133.213 236.251 133.418C236.564 133.623 236.909 133.726 237.287 133.726C237.577 133.726 237.852 133.661 238.113 133.53C238.375 133.399 238.596 133.227 238.778 133.012ZM245.04 129.456H243.57L243.563 135H242.107L242.114 129.456H241.001V128H242.114L242.107 125.802H243.563L243.57 128H245.04V129.456ZM249.656 135V125.2H253.03C253.558 125.2 254.034 125.331 254.458 125.592C254.888 125.853 255.228 126.206 255.48 126.649C255.737 127.092 255.865 127.582 255.865 128.119C255.865 128.665 255.735 129.16 255.473 129.603C255.217 130.042 254.874 130.392 254.444 130.653C254.015 130.914 253.544 131.045 253.03 131.045H251.112V135H249.656ZM251.112 129.589H252.883C253.163 129.589 253.418 129.519 253.646 129.379C253.88 129.239 254.064 129.052 254.199 128.819C254.339 128.586 254.409 128.322 254.409 128.028C254.409 127.734 254.339 127.47 254.199 127.237C254.064 126.999 253.88 126.812 253.646 126.677C253.418 126.537 253.163 126.467 252.883 126.467H251.112V129.589ZM257.012 135V128H258.468V128.742C258.711 128.453 259.009 128.224 259.364 128.056C259.719 127.888 260.101 127.804 260.512 127.804C260.773 127.804 261.032 127.839 261.289 127.909L260.708 129.379C260.526 129.309 260.344 129.274 260.162 129.274C259.854 129.274 259.572 129.351 259.315 129.505C259.058 129.654 258.853 129.857 258.699 130.114C258.545 130.371 258.468 130.655 258.468 130.968V135H257.012ZM264.85 135.182C264.206 135.182 263.618 135.016 263.086 134.685C262.558 134.354 262.136 133.91 261.819 133.355C261.506 132.795 261.35 132.177 261.35 131.5C261.35 130.987 261.441 130.508 261.623 130.065C261.805 129.617 262.054 129.225 262.372 128.889C262.694 128.548 263.067 128.282 263.492 128.091C263.916 127.9 264.369 127.804 264.85 127.804C265.494 127.804 266.079 127.97 266.607 128.301C267.139 128.632 267.561 129.078 267.874 129.638C268.191 130.198 268.35 130.819 268.35 131.5C268.35 132.009 268.259 132.485 268.077 132.928C267.895 133.371 267.643 133.763 267.321 134.104C267.003 134.44 266.632 134.704 266.208 134.895C265.788 135.086 265.335 135.182 264.85 135.182ZM264.85 133.726C265.237 133.726 265.585 133.623 265.893 133.418C266.201 133.213 266.443 132.942 266.621 132.606C266.803 132.265 266.894 131.897 266.894 131.5C266.894 131.094 266.8 130.721 266.614 130.38C266.432 130.039 266.187 129.769 265.879 129.568C265.571 129.363 265.228 129.26 264.85 129.26C264.467 129.26 264.119 129.363 263.807 129.568C263.499 129.773 263.254 130.046 263.072 130.387C262.894 130.728 262.806 131.099 262.806 131.5C262.806 131.915 262.899 132.291 263.086 132.627C263.272 132.963 263.52 133.231 263.828 133.432C264.14 133.628 264.481 133.726 264.85 133.726ZM268.122 138.5V137.044C268.416 137.044 268.679 136.976 268.913 136.841C269.151 136.71 269.337 136.528 269.473 136.295C269.613 136.062 269.683 135.803 269.683 135.518V128H271.139V135.518C271.139 136.064 271.006 136.563 270.74 137.016C270.474 137.469 270.112 137.828 269.655 138.094C269.202 138.365 268.691 138.5 268.122 138.5ZM270.425 126.985C270.201 126.985 270.014 126.913 269.865 126.768C269.715 126.623 269.641 126.441 269.641 126.222C269.641 126.007 269.715 125.828 269.865 125.683C270.014 125.534 270.198 125.459 270.418 125.459C270.632 125.459 270.814 125.534 270.964 125.683C271.113 125.828 271.188 126.007 271.188 126.222C271.188 126.441 271.113 126.623 270.964 126.768C270.819 126.913 270.639 126.985 270.425 126.985ZM275.774 135.182C275.13 135.182 274.542 135.016 274.01 134.685C273.482 134.354 273.06 133.91 272.743 133.355C272.43 132.795 272.274 132.177 272.274 131.5C272.274 130.987 272.365 130.508 272.547 130.065C272.729 129.617 272.978 129.225 273.296 128.889C273.618 128.548 273.991 128.282 274.416 128.091C274.84 127.9 275.293 127.804 275.774 127.804C276.31 127.804 276.803 127.916 277.251 128.14C277.699 128.359 278.081 128.665 278.399 129.057C278.716 129.444 278.949 129.892 279.099 130.401C279.248 130.905 279.292 131.442 279.232 132.011H273.835C273.895 132.333 274.012 132.625 274.185 132.886C274.362 133.143 274.586 133.346 274.857 133.495C275.132 133.644 275.438 133.721 275.774 133.726C276.128 133.726 276.45 133.637 276.74 133.46C277.034 133.283 277.274 133.038 277.461 132.725L278.938 133.068C278.658 133.689 278.235 134.197 277.671 134.594C277.106 134.986 276.474 135.182 275.774 135.182ZM273.786 130.898H277.762C277.715 130.562 277.596 130.259 277.405 129.988C277.218 129.713 276.982 129.496 276.698 129.337C276.418 129.174 276.11 129.092 275.774 129.092C275.442 129.092 275.134 129.171 274.85 129.33C274.57 129.489 274.336 129.706 274.15 129.981C273.968 130.252 273.846 130.557 273.786 130.898ZM284.948 133.012L286.25 133.719C285.933 134.162 285.529 134.517 285.039 134.783C284.554 135.049 284.026 135.182 283.457 135.182C282.813 135.182 282.225 135.016 281.693 134.685C281.166 134.354 280.743 133.91 280.426 133.355C280.113 132.795 279.957 132.177 279.957 131.5C279.957 130.987 280.048 130.508 280.23 130.065C280.412 129.617 280.662 129.225 280.979 128.889C281.301 128.548 281.674 128.282 282.099 128.091C282.524 127.9 282.976 127.804 283.457 127.804C284.026 127.804 284.554 127.937 285.039 128.203C285.529 128.469 285.933 128.826 286.25 129.274L284.948 129.981C284.752 129.748 284.523 129.57 284.262 129.449C284.001 129.323 283.732 129.26 283.457 129.26C283.074 129.26 282.727 129.365 282.414 129.575C282.106 129.78 281.861 130.053 281.679 130.394C281.502 130.73 281.413 131.099 281.413 131.5C281.413 131.897 281.504 132.265 281.686 132.606C281.868 132.942 282.113 133.213 282.421 133.418C282.734 133.623 283.079 133.726 283.457 133.726C283.746 133.726 284.022 133.661 284.283 133.53C284.544 133.399 284.766 133.227 284.948 133.012ZM291.21 129.456H289.74L289.733 135H288.277L288.284 129.456H287.171V128H288.284L288.277 125.802H289.733L289.74 128H291.21V129.456ZM303.239 125.2V126.656H300.117V135H298.661V126.656H295.546V125.2H303.239ZM308.209 128H309.763L305.927 138.5H304.38L305.647 135L303.134 128H304.723L306.375 133.005L308.209 128ZM312.321 138.5H310.865V128H312.321V129.029C312.555 128.67 312.853 128.378 313.217 128.154C313.581 127.93 314.011 127.818 314.505 127.818C315.014 127.818 315.49 127.914 315.933 128.105C316.381 128.296 316.773 128.562 317.109 128.903C317.445 129.239 317.709 129.629 317.9 130.072C318.092 130.515 318.187 130.991 318.187 131.5C318.187 132.009 318.092 132.487 317.9 132.935C317.709 133.383 317.445 133.777 317.109 134.118C316.773 134.454 316.381 134.718 315.933 134.909C315.49 135.1 315.014 135.196 314.505 135.196C314.011 135.196 313.581 135.084 313.217 134.86C312.853 134.631 312.555 134.34 312.321 133.985V138.5ZM314.491 129.225C314.085 129.225 313.728 129.328 313.42 129.533C313.112 129.738 312.872 130.014 312.699 130.359C312.527 130.7 312.44 131.08 312.44 131.5C312.44 131.92 312.527 132.303 312.699 132.648C312.872 132.993 313.112 133.269 313.42 133.474C313.728 133.679 314.085 133.782 314.491 133.782C314.893 133.782 315.261 133.682 315.597 133.481C315.933 133.276 316.202 133 316.402 132.655C316.603 132.31 316.703 131.925 316.703 131.5C316.703 131.085 316.603 130.704 316.402 130.359C316.206 130.014 315.94 129.738 315.604 129.533C315.268 129.328 314.897 129.225 314.491 129.225ZM322.395 135.182C321.751 135.182 321.163 135.016 320.631 134.685C320.103 134.354 319.681 133.91 319.364 133.355C319.051 132.795 318.895 132.177 318.895 131.5C318.895 130.987 318.986 130.508 319.168 130.065C319.35 129.617 319.599 129.225 319.917 128.889C320.239 128.548 320.612 128.282 321.037 128.091C321.461 127.9 321.914 127.804 322.395 127.804C322.931 127.804 323.424 127.916 323.872 128.14C324.32 128.359 324.702 128.665 325.02 129.057C325.337 129.444 325.57 129.892 325.72 130.401C325.869 130.905 325.913 131.442 325.853 132.011H320.456C320.516 132.333 320.633 132.625 320.806 132.886C320.983 133.143 321.207 133.346 321.478 133.495C321.753 133.644 322.059 133.721 322.395 133.726C322.749 133.726 323.071 133.637 323.361 133.46C323.655 133.283 323.895 133.038 324.082 132.725L325.559 133.068C325.279 133.689 324.856 134.197 324.292 134.594C323.727 134.986 323.095 135.182 322.395 135.182ZM320.407 130.898H324.383C324.336 130.562 324.217 130.259 324.026 129.988C323.839 129.713 323.603 129.496 323.319 129.337C323.039 129.174 322.731 129.092 322.395 129.092C322.063 129.092 321.755 129.171 321.471 129.33C321.191 129.489 320.957 129.706 320.771 129.981C320.589 130.252 320.467 130.557 320.407 130.898Z" fill="#0C1021"/>
</g>
<g filter="url(#filter1_d_3044_214)">
<rect x="609" y="110" width="126" height="41" rx="16" fill="white" shape-rendering="crispEdges"/>
<rect x="609.46" y="110.46" width="125.081" height="40.0807" rx="15.5404" stroke="#0C1021" stroke-opacity="0.05" stroke-width="0.919289" shape-rendering="crispEdges"/>
<path d="M621.84 135V125.2H623.415L627.916 132.368V125.2H629.372V135H627.797L623.296 127.832V135H621.84ZM634.039 135.182C633.395 135.182 632.807 135.016 632.275 134.685C631.748 134.354 631.325 133.91 631.008 133.355C630.695 132.795 630.539 132.177 630.539 131.5C630.539 130.987 630.63 130.508 630.812 130.065C630.994 129.617 631.244 129.225 631.561 128.889C631.883 128.548 632.256 128.282 632.681 128.091C633.106 127.9 633.558 127.804 634.039 127.804C634.576 127.804 635.068 127.916 635.516 128.14C635.964 128.359 636.347 128.665 636.664 129.057C636.981 129.444 637.215 129.892 637.364 130.401C637.513 130.905 637.558 131.442 637.497 132.011H632.1C632.161 132.333 632.277 132.625 632.45 132.886C632.627 133.143 632.851 133.346 633.122 133.495C633.397 133.644 633.703 133.721 634.039 133.726C634.394 133.726 634.716 133.637 635.005 133.46C635.299 133.283 635.539 133.038 635.726 132.725L637.203 133.068C636.923 133.689 636.501 134.197 635.936 134.594C635.371 134.986 634.739 135.182 634.039 135.182ZM632.051 130.898H636.027C635.98 130.562 635.861 130.259 635.67 129.988C635.483 129.713 635.248 129.496 634.963 129.337C634.683 129.174 634.375 129.092 634.039 129.092C633.708 129.092 633.4 129.171 633.115 129.33C632.835 129.489 632.602 129.706 632.415 129.981C632.233 130.252 632.112 130.557 632.051 130.898ZM641.723 135.182C641.079 135.182 640.491 135.016 639.959 134.685C639.431 134.354 639.009 133.91 638.692 133.355C638.379 132.795 638.223 132.177 638.223 131.5C638.223 130.987 638.314 130.508 638.496 130.065C638.678 129.617 638.927 129.225 639.245 128.889C639.567 128.548 639.94 128.282 640.365 128.091C640.789 127.9 641.242 127.804 641.723 127.804C642.259 127.804 642.752 127.916 643.2 128.14C643.648 128.359 644.03 128.665 644.348 129.057C644.665 129.444 644.898 129.892 645.048 130.401C645.197 130.905 645.241 131.442 645.181 132.011H639.784C639.844 132.333 639.961 132.625 640.134 132.886C640.311 133.143 640.535 133.346 640.806 133.495C641.081 133.644 641.387 133.721 641.723 133.726C642.077 133.726 642.399 133.637 642.689 133.46C642.983 133.283 643.223 133.038 643.41 132.725L644.887 133.068C644.607 133.689 644.184 134.197 643.62 134.594C643.055 134.986 642.423 135.182 641.723 135.182ZM639.735 130.898H643.711C643.664 130.562 643.545 130.259 643.354 129.988C643.167 129.713 642.931 129.496 642.647 129.337C642.367 129.174 642.059 129.092 641.723 129.092C641.391 129.092 641.083 129.171 640.799 129.33C640.519 129.489 640.285 129.706 640.099 129.981C639.917 130.252 639.795 130.557 639.735 130.898ZM651.779 124.5H653.235V135H651.779V133.971C651.551 134.335 651.252 134.629 650.883 134.853C650.515 135.072 650.083 135.182 649.588 135.182C649.08 135.182 648.604 135.086 648.16 134.895C647.717 134.704 647.325 134.44 646.984 134.104C646.648 133.763 646.385 133.371 646.193 132.928C646.002 132.485 645.906 132.009 645.906 131.5C645.906 130.991 646.002 130.515 646.193 130.072C646.385 129.624 646.648 129.232 646.984 128.896C647.325 128.555 647.717 128.289 648.16 128.098C648.604 127.907 649.08 127.811 649.588 127.811C650.083 127.811 650.515 127.923 650.883 128.147C651.252 128.366 651.551 128.656 651.779 129.015V124.5ZM649.602 133.775C650.013 133.775 650.372 133.675 650.68 133.474C650.988 133.269 651.226 132.993 651.394 132.648C651.567 132.303 651.653 131.92 651.653 131.5C651.653 131.075 651.567 130.69 651.394 130.345C651.222 130 650.981 129.727 650.673 129.526C650.37 129.321 650.013 129.218 649.602 129.218C649.196 129.218 648.825 129.321 648.489 129.526C648.158 129.731 647.892 130.007 647.691 130.352C647.495 130.697 647.397 131.08 647.397 131.5C647.397 131.925 647.498 132.31 647.698 132.655C647.904 132.996 648.172 133.269 648.503 133.474C648.839 133.675 649.206 133.775 649.602 133.775ZM657.012 135.133C656.644 135.11 656.284 135.035 655.934 134.909C655.584 134.783 655.276 134.613 655.01 134.398C654.749 134.179 654.553 133.922 654.422 133.628L655.661 133.096C655.722 133.222 655.827 133.346 655.976 133.467C656.13 133.588 656.31 133.689 656.515 133.768C656.721 133.843 656.935 133.88 657.159 133.88C657.379 133.88 657.582 133.85 657.768 133.789C657.96 133.724 658.116 133.626 658.237 133.495C658.359 133.364 658.419 133.208 658.419 133.026C658.419 132.821 658.349 132.662 658.209 132.55C658.074 132.433 657.904 132.345 657.698 132.284C657.493 132.223 657.288 132.165 657.082 132.109C656.625 132.006 656.205 131.866 655.822 131.689C655.444 131.507 655.143 131.276 654.919 130.996C654.695 130.711 654.583 130.364 654.583 129.953C654.583 129.505 654.705 129.118 654.947 128.791C655.19 128.46 655.507 128.205 655.899 128.028C656.296 127.851 656.718 127.762 657.166 127.762C657.726 127.762 658.24 127.881 658.706 128.119C659.173 128.357 659.53 128.684 659.777 129.099L658.622 129.785C658.552 129.645 658.447 129.519 658.307 129.407C658.167 129.295 658.009 129.206 657.831 129.141C657.654 129.071 657.47 129.031 657.278 129.022C657.04 129.013 656.819 129.041 656.613 129.106C656.413 129.167 656.252 129.265 656.13 129.4C656.009 129.535 655.948 129.708 655.948 129.918C655.948 130.123 656.021 130.277 656.165 130.38C656.31 130.478 656.492 130.557 656.711 130.618C656.935 130.679 657.164 130.746 657.397 130.821C657.813 130.952 658.202 131.113 658.566 131.304C658.93 131.491 659.224 131.722 659.448 131.997C659.672 132.272 659.78 132.608 659.77 133.005C659.77 133.444 659.637 133.829 659.371 134.16C659.11 134.491 658.769 134.743 658.349 134.916C657.929 135.089 657.484 135.161 657.012 135.133ZM664.542 135V125.2H665.998V135H664.542ZM673.244 124.5H674.7V135H673.244V133.971C673.016 134.335 672.717 134.629 672.348 134.853C671.98 135.072 671.548 135.182 671.053 135.182C670.545 135.182 670.069 135.086 669.625 134.895C669.182 134.704 668.79 134.44 668.449 134.104C668.113 133.763 667.85 133.371 667.658 132.928C667.467 132.485 667.371 132.009 667.371 131.5C667.371 130.991 667.467 130.515 667.658 130.072C667.85 129.624 668.113 129.232 668.449 128.896C668.79 128.555 669.182 128.289 669.625 128.098C670.069 127.907 670.545 127.811 671.053 127.811C671.548 127.811 671.98 127.923 672.348 128.147C672.717 128.366 673.016 128.656 673.244 129.015V124.5ZM671.067 133.775C671.478 133.775 671.837 133.675 672.145 133.474C672.453 133.269 672.691 132.993 672.859 132.648C673.032 132.303 673.118 131.92 673.118 131.5C673.118 131.075 673.032 130.69 672.859 130.345C672.687 130 672.446 129.727 672.138 129.526C671.835 129.321 671.478 129.218 671.067 129.218C670.661 129.218 670.29 129.321 669.954 129.526C669.623 129.731 669.357 130.007 669.156 130.352C668.96 130.697 668.862 131.08 668.862 131.5C668.862 131.925 668.963 132.31 669.163 132.655C669.369 132.996 669.637 133.269 669.968 133.474C670.304 133.675 670.671 133.775 671.067 133.775ZM679.361 135.182C678.717 135.182 678.129 135.016 677.597 134.685C677.07 134.354 676.648 133.91 676.33 133.355C676.018 132.795 675.861 132.177 675.861 131.5C675.861 130.987 675.952 130.508 676.134 130.065C676.316 129.617 676.566 129.225 676.883 128.889C677.205 128.548 677.579 128.282 678.003 128.091C678.428 127.9 678.881 127.804 679.361 127.804C679.898 127.804 680.39 127.916 680.838 128.14C681.286 128.359 681.669 128.665 681.986 129.057C682.304 129.444 682.537 129.892 682.686 130.401C682.836 130.905 682.88 131.442 682.819 132.011H677.422C677.483 132.333 677.6 132.625 677.772 132.886C677.95 133.143 678.174 133.346 678.444 133.495C678.72 133.644 679.025 133.721 679.361 133.726C679.716 133.726 680.038 133.637 680.327 133.46C680.621 133.283 680.862 133.038 681.048 132.725L682.525 133.068C682.245 133.689 681.823 134.197 681.258 134.594C680.694 134.986 680.061 135.182 679.361 135.182ZM677.373 130.898H681.349C681.303 130.562 681.184 130.259 680.992 129.988C680.806 129.713 680.57 129.496 680.285 129.337C680.005 129.174 679.697 129.092 679.361 129.092C679.03 129.092 678.722 129.171 678.437 129.33C678.157 129.489 677.924 129.706 677.737 129.981C677.555 130.252 677.434 130.557 677.373 130.898ZM690.279 130.611V135H688.823V130.968C688.823 130.655 688.746 130.371 688.592 130.114C688.442 129.857 688.239 129.654 687.983 129.505C687.731 129.351 687.446 129.274 687.129 129.274C686.821 129.274 686.538 129.351 686.282 129.505C686.025 129.654 685.82 129.857 685.666 130.114C685.512 130.371 685.435 130.655 685.435 130.968V135H683.979V128H685.435V128.742C685.677 128.453 685.976 128.224 686.331 128.056C686.685 127.888 687.068 127.804 687.479 127.804C687.997 127.804 688.468 127.93 688.893 128.182C689.317 128.434 689.653 128.772 689.901 129.197C690.153 129.622 690.279 130.093 690.279 130.611ZM695.372 129.456H693.902L693.895 135H692.439L692.446 129.456H691.333V128H692.446L692.439 125.802H693.895L693.902 128H695.372V129.456ZM696.529 128H697.985V135H696.529V128ZM697.271 126.985C697.047 126.985 696.861 126.913 696.711 126.768C696.562 126.623 696.487 126.441 696.487 126.222C696.487 126.007 696.562 125.828 696.711 125.683C696.861 125.534 697.045 125.459 697.264 125.459C697.479 125.459 697.661 125.534 697.81 125.683C697.96 125.828 698.034 126.007 698.034 126.222C698.034 126.441 697.96 126.623 697.81 126.768C697.666 126.913 697.486 126.985 697.271 126.985ZM701.459 126.411V128H703.433V129.456H701.459V135H700.003V129.456H699.17V128H700.003V126.411C700.003 126.028 700.097 125.681 700.283 125.368C700.47 125.051 700.72 124.799 701.032 124.612C701.35 124.425 701.702 124.332 702.089 124.332C702.369 124.332 702.642 124.388 702.908 124.5C703.174 124.612 703.412 124.785 703.622 125.018L702.579 126.047C702.528 125.963 702.456 125.9 702.362 125.858C702.274 125.811 702.183 125.788 702.089 125.788C701.917 125.788 701.767 125.849 701.641 125.97C701.52 126.091 701.459 126.238 701.459 126.411ZM704.514 128H705.97V135H704.514V128ZM705.256 126.985C705.032 126.985 704.845 126.913 704.696 126.768C704.546 126.623 704.472 126.441 704.472 126.222C704.472 126.007 704.546 125.828 704.696 125.683C704.845 125.534 705.029 125.459 705.249 125.459C705.463 125.459 705.645 125.534 705.795 125.683C705.944 125.828 706.019 126.007 706.019 126.222C706.019 126.441 705.944 126.623 705.795 126.768C705.65 126.913 705.47 126.985 705.256 126.985ZM710.602 135.182C709.958 135.182 709.37 135.016 708.838 134.685C708.31 134.354 707.888 133.91 707.571 133.355C707.258 132.795 707.102 132.177 707.102 131.5C707.102 130.987 707.193 130.508 707.375 130.065C707.557 129.617 707.806 129.225 708.124 128.889C708.446 128.548 708.819 128.282 709.244 128.091C709.668 127.9 710.121 127.804 710.602 127.804C711.138 127.804 711.631 127.916 712.079 128.14C712.527 128.359 712.909 128.665 713.227 129.057C713.544 129.444 713.777 129.892 713.927 130.401C714.076 130.905 714.12 131.442 714.06 132.011H708.663C708.723 132.333 708.84 132.625 709.013 132.886C709.19 133.143 709.414 133.346 709.685 133.495C709.96 133.644 710.266 133.721 710.602 133.726C710.956 133.726 711.278 133.637 711.568 133.46C711.862 133.283 712.102 133.038 712.289 132.725L713.766 133.068C713.486 133.689 713.063 134.197 712.499 134.594C711.934 134.986 711.302 135.182 710.602 135.182ZM708.614 130.898H712.59C712.543 130.562 712.424 130.259 712.233 129.988C712.046 129.713 711.81 129.496 711.526 129.337C711.246 129.174 710.938 129.092 710.602 129.092C710.27 129.092 709.962 129.171 709.678 129.33C709.398 129.489 709.164 129.706 708.978 129.981C708.796 130.252 708.674 130.557 708.614 130.898ZM720.658 124.5H722.114V135H720.658V133.971C720.43 134.335 720.131 134.629 719.762 134.853C719.394 135.072 718.962 135.182 718.467 135.182C717.959 135.182 717.483 135.086 717.039 134.895C716.596 134.704 716.204 134.44 715.863 134.104C715.527 133.763 715.264 133.371 715.072 132.928C714.881 132.485 714.785 132.009 714.785 131.5C714.785 130.991 714.881 130.515 715.072 130.072C715.264 129.624 715.527 129.232 715.863 128.896C716.204 128.555 716.596 128.289 717.039 128.098C717.483 127.907 717.959 127.811 718.467 127.811C718.962 127.811 719.394 127.923 719.762 128.147C720.131 128.366 720.43 128.656 720.658 129.015V124.5ZM718.481 133.775C718.892 133.775 719.251 133.675 719.559 133.474C719.867 133.269 720.105 132.993 720.273 132.648C720.446 132.303 720.532 131.92 720.532 131.5C720.532 131.075 720.446 130.69 720.273 130.345C720.101 130 719.86 129.727 719.552 129.526C719.249 129.321 718.892 129.218 718.481 129.218C718.075 129.218 717.704 129.321 717.368 129.526C717.037 129.731 716.771 130.007 716.57 130.352C716.374 130.697 716.276 131.08 716.276 131.5C716.276 131.925 716.377 132.31 716.577 132.655C716.783 132.996 717.051 133.269 717.382 133.474C717.718 133.675 718.085 133.775 718.481 133.775Z" fill="#0C1021"/>
</g>
<g filter="url(#filter2_d_3044_214)">
<rect x="767" y="110" width="152" height="41" rx="16" fill="#4268FF" shape-rendering="crispEdges"/>
<rect x="767.46" y="110.46" width="151.081" height="40.0807" rx="15.5404" stroke="#0C1021" stroke-opacity="0.05" stroke-width="0.919289" shape-rendering="crispEdges"/>
<path d="M783.333 135.182C782.796 135.182 782.281 135.098 781.786 134.93C781.291 134.762 780.86 134.522 780.491 134.209C780.122 133.892 779.859 133.516 779.7 133.082L781.065 132.571C781.144 132.795 781.296 132.996 781.52 133.173C781.749 133.346 782.019 133.481 782.332 133.579C782.649 133.677 782.983 133.726 783.333 133.726C783.706 133.726 784.056 133.665 784.383 133.544C784.714 133.423 784.98 133.255 785.181 133.04C785.386 132.825 785.489 132.573 785.489 132.284C785.489 131.985 785.382 131.74 785.167 131.549C784.957 131.358 784.686 131.206 784.355 131.094C784.028 130.982 783.688 130.898 783.333 130.842C782.647 130.73 782.031 130.567 781.485 130.352C780.944 130.137 780.514 129.836 780.197 129.449C779.884 129.062 779.728 128.558 779.728 127.937C779.728 127.354 779.894 126.845 780.225 126.411C780.561 125.977 781.002 125.641 781.548 125.403C782.099 125.16 782.694 125.039 783.333 125.039C783.86 125.039 784.369 125.123 784.859 125.291C785.354 125.454 785.788 125.695 786.161 126.012C786.539 126.325 786.81 126.705 786.973 127.153L785.594 127.65C785.515 127.421 785.363 127.223 785.139 127.055C784.915 126.882 784.644 126.747 784.327 126.649C784.014 126.551 783.683 126.502 783.333 126.502C782.96 126.497 782.61 126.558 782.283 126.684C781.961 126.805 781.697 126.973 781.492 127.188C781.287 127.403 781.184 127.652 781.184 127.937C781.184 128.287 781.28 128.553 781.471 128.735C781.662 128.917 781.919 129.052 782.241 129.141C782.568 129.225 782.932 129.302 783.333 129.372C783.977 129.475 784.572 129.645 785.118 129.883C785.669 130.121 786.11 130.438 786.441 130.835C786.777 131.227 786.945 131.71 786.945 132.284C786.945 132.863 786.777 133.371 786.441 133.81C786.11 134.244 785.669 134.582 785.118 134.825C784.572 135.063 783.977 135.182 783.333 135.182ZM792.915 133.012L794.217 133.719C793.9 134.162 793.496 134.517 793.006 134.783C792.521 135.049 791.993 135.182 791.424 135.182C790.78 135.182 790.192 135.016 789.66 134.685C789.133 134.354 788.71 133.91 788.393 133.355C788.08 132.795 787.924 132.177 787.924 131.5C787.924 130.987 788.015 130.508 788.197 130.065C788.379 129.617 788.629 129.225 788.946 128.889C789.268 128.548 789.641 128.282 790.066 128.091C790.491 127.9 790.943 127.804 791.424 127.804C791.993 127.804 792.521 127.937 793.006 128.203C793.496 128.469 793.9 128.826 794.217 129.274L792.915 129.981C792.719 129.748 792.49 129.57 792.229 129.449C791.968 129.323 791.699 129.26 791.424 129.26C791.041 129.26 790.694 129.365 790.381 129.575C790.073 129.78 789.828 130.053 789.646 130.394C789.469 130.73 789.38 131.099 789.38 131.5C789.38 131.897 789.471 132.265 789.653 132.606C789.835 132.942 790.08 133.213 790.388 133.418C790.701 133.623 791.046 133.726 791.424 133.726C791.713 133.726 791.989 133.661 792.25 133.53C792.511 133.399 792.733 133.227 792.915 133.012ZM795.481 135V128H796.937V128.742C797.179 128.453 797.478 128.224 797.833 128.056C798.187 127.888 798.57 127.804 798.981 127.804C799.242 127.804 799.501 127.839 799.758 127.909L799.177 129.379C798.995 129.309 798.813 129.274 798.631 129.274C798.323 129.274 798.04 129.351 797.784 129.505C797.527 129.654 797.322 129.857 797.168 130.114C797.014 130.371 796.937 130.655 796.937 130.968V135H795.481ZM803.318 135.182C802.674 135.182 802.086 135.016 801.554 134.685C801.027 134.354 800.605 133.91 800.287 133.355C799.975 132.795 799.818 132.177 799.818 131.5C799.818 130.987 799.909 130.508 800.091 130.065C800.273 129.617 800.523 129.225 800.84 128.889C801.162 128.548 801.536 128.282 801.96 128.091C802.385 127.9 802.838 127.804 803.318 127.804C803.855 127.804 804.347 127.916 804.795 128.14C805.243 128.359 805.626 128.665 805.943 129.057C806.261 129.444 806.494 129.892 806.643 130.401C806.793 130.905 806.837 131.442 806.776 132.011H801.379C801.44 132.333 801.557 132.625 801.729 132.886C801.907 133.143 802.131 133.346 802.401 133.495C802.677 133.644 802.982 133.721 803.318 133.726C803.673 133.726 803.995 133.637 804.284 133.46C804.578 133.283 804.819 133.038 805.005 132.725L806.482 133.068C806.202 133.689 805.78 134.197 805.215 134.594C804.651 134.986 804.018 135.182 803.318 135.182ZM801.33 130.898H805.306C805.26 130.562 805.141 130.259 804.949 129.988C804.763 129.713 804.527 129.496 804.242 129.337C803.962 129.174 803.654 129.092 803.318 129.092C802.987 129.092 802.679 129.171 802.394 129.33C802.114 129.489 801.881 129.706 801.694 129.981C801.512 130.252 801.391 130.557 801.33 130.898ZM811.002 135.182C810.358 135.182 809.77 135.016 809.238 134.685C808.711 134.354 808.288 133.91 807.971 133.355C807.658 132.795 807.502 132.177 807.502 131.5C807.502 130.987 807.593 130.508 807.775 130.065C807.957 129.617 808.207 129.225 808.524 128.889C808.846 128.548 809.219 128.282 809.644 128.091C810.069 127.9 810.521 127.804 811.002 127.804C811.539 127.804 812.031 127.916 812.479 128.14C812.927 128.359 813.31 128.665 813.627 129.057C813.944 129.444 814.178 129.892 814.327 130.401C814.476 130.905 814.521 131.442 814.46 132.011H809.063C809.124 132.333 809.24 132.625 809.413 132.886C809.59 133.143 809.814 133.346 810.085 133.495C810.36 133.644 810.666 133.721 811.002 133.726C811.357 133.726 811.679 133.637 811.968 133.46C812.262 133.283 812.502 133.038 812.689 132.725L814.166 133.068C813.886 133.689 813.464 134.197 812.899 134.594C812.334 134.986 811.702 135.182 811.002 135.182ZM809.014 130.898H812.99C812.943 130.562 812.824 130.259 812.633 129.988C812.446 129.713 812.211 129.496 811.926 129.337C811.646 129.174 811.338 129.092 811.002 129.092C810.671 129.092 810.363 129.171 810.078 129.33C809.798 129.489 809.565 129.706 809.378 129.981C809.196 130.252 809.075 130.557 809.014 130.898ZM821.919 130.611V135H820.463V130.968C820.463 130.655 820.386 130.371 820.232 130.114C820.083 129.857 819.88 129.654 819.623 129.505C819.371 129.351 819.087 129.274 818.769 129.274C818.461 129.274 818.179 129.351 817.922 129.505C817.666 129.654 817.46 129.857 817.306 130.114C817.152 130.371 817.075 130.655 817.075 130.968V135H815.619V128H817.075V128.742C817.318 128.453 817.617 128.224 817.971 128.056C818.326 127.888 818.709 127.804 819.119 127.804C819.637 127.804 820.109 127.93 820.533 128.182C820.958 128.434 821.294 128.772 821.541 129.197C821.793 129.622 821.919 130.093 821.919 130.611ZM823.317 128H824.773V135H823.317V128ZM824.059 126.985C823.835 126.985 823.648 126.913 823.499 126.768C823.349 126.623 823.275 126.441 823.275 126.222C823.275 126.007 823.349 125.828 823.499 125.683C823.648 125.534 823.832 125.459 824.052 125.459C824.266 125.459 824.448 125.534 824.598 125.683C824.747 125.828 824.822 126.007 824.822 126.222C824.822 126.441 824.747 126.623 824.598 126.768C824.453 126.913 824.273 126.985 824.059 126.985ZM832.706 130.611V135H831.25V130.968C831.25 130.655 831.173 130.371 831.019 130.114C830.87 129.857 830.667 129.654 830.41 129.505C830.158 129.351 829.874 129.274 829.556 129.274C829.248 129.274 828.966 129.351 828.709 129.505C828.453 129.654 828.247 129.857 828.093 130.114C827.939 130.371 827.862 130.655 827.862 130.968V135H826.406V128H827.862V128.742C828.105 128.453 828.404 128.224 828.758 128.056C829.113 127.888 829.496 127.804 829.906 127.804C830.424 127.804 830.896 127.93 831.32 128.182C831.745 128.434 832.081 128.772 832.328 129.197C832.58 129.622 832.706 130.093 832.706 130.611ZM839.294 128H840.75V135.182C840.75 135.663 840.647 136.106 840.442 136.512C840.241 136.918 839.968 137.268 839.623 137.562C839.278 137.861 838.881 138.092 838.433 138.255C837.99 138.418 837.525 138.5 837.04 138.5C836.55 138.5 836.079 138.395 835.626 138.185C835.173 137.98 834.774 137.7 834.429 137.345C834.088 136.99 833.834 136.589 833.666 136.141L835.003 135.539C835.096 135.828 835.246 136.085 835.451 136.309C835.661 136.533 835.904 136.71 836.179 136.841C836.459 136.972 836.746 137.037 837.04 137.037C837.329 137.037 837.607 136.99 837.873 136.897C838.144 136.808 838.384 136.682 838.594 136.519C838.809 136.356 838.979 136.16 839.105 135.931C839.231 135.702 839.294 135.453 839.294 135.182V133.999C839.065 134.354 838.771 134.641 838.412 134.86C838.053 135.075 837.635 135.182 837.159 135.182C836.664 135.182 836.198 135.086 835.759 134.895C835.32 134.704 834.935 134.44 834.604 134.104C834.273 133.763 834.014 133.371 833.827 132.928C833.64 132.485 833.547 132.009 833.547 131.5C833.547 130.991 833.64 130.515 833.827 130.072C834.014 129.624 834.273 129.232 834.604 128.896C834.935 128.555 835.32 128.289 835.759 128.098C836.198 127.907 836.664 127.811 837.159 127.811C837.635 127.811 838.053 127.921 838.412 128.14C838.771 128.355 839.065 128.642 839.294 129.001V128ZM837.173 133.775C837.579 133.775 837.934 133.672 838.237 133.467C838.54 133.257 838.776 132.979 838.944 132.634C839.112 132.289 839.196 131.911 839.196 131.5C839.196 131.08 839.11 130.7 838.937 130.359C838.769 130.014 838.533 129.738 838.23 129.533C837.927 129.323 837.574 129.218 837.173 129.218C836.781 129.218 836.422 129.321 836.095 129.526C835.773 129.731 835.516 130.007 835.325 130.352C835.134 130.697 835.038 131.08 835.038 131.5C835.038 131.92 835.134 132.303 835.325 132.648C835.521 132.993 835.78 133.269 836.102 133.474C836.429 133.675 836.786 133.775 837.173 133.775ZM850.329 135.182C849.666 135.182 849.043 135.051 848.46 134.79C847.877 134.524 847.363 134.16 846.92 133.698C846.481 133.231 846.136 132.69 845.884 132.074C845.637 131.458 845.513 130.8 845.513 130.1C845.513 129.4 845.637 128.742 845.884 128.126C846.136 127.51 846.481 126.971 846.92 126.509C847.363 126.042 847.877 125.678 848.46 125.417C849.043 125.151 849.666 125.018 850.329 125.018C851.122 125.018 851.853 125.202 852.52 125.571C853.187 125.94 853.74 126.43 854.179 127.041L852.884 127.734C852.581 127.351 852.205 127.046 851.757 126.817C851.309 126.588 850.833 126.474 850.329 126.474C849.862 126.474 849.426 126.57 849.02 126.761C848.614 126.952 848.257 127.214 847.949 127.545C847.641 127.876 847.401 128.261 847.228 128.7C847.055 129.139 846.969 129.605 846.969 130.1C846.969 130.599 847.055 131.068 847.228 131.507C847.401 131.941 847.641 132.326 847.949 132.662C848.262 132.993 848.621 133.255 849.027 133.446C849.433 133.633 849.867 133.726 850.329 133.726C850.842 133.726 851.321 133.612 851.764 133.383C852.212 133.15 852.585 132.842 852.884 132.459L854.179 133.166C853.74 133.777 853.187 134.267 852.52 134.636C851.853 135 851.122 135.182 850.329 135.182ZM858.252 135.182C857.608 135.182 857.02 135.016 856.488 134.685C855.961 134.354 855.538 133.91 855.221 133.355C854.908 132.795 854.752 132.177 854.752 131.5C854.752 130.987 854.843 130.508 855.025 130.065C855.207 129.617 855.457 129.225 855.774 128.889C856.096 128.548 856.469 128.282 856.894 128.091C857.319 127.9 857.771 127.804 858.252 127.804C858.896 127.804 859.482 127.97 860.009 128.301C860.541 128.632 860.963 129.078 861.276 129.638C861.593 130.198 861.752 130.819 861.752 131.5C861.752 132.009 861.661 132.485 861.479 132.928C861.297 133.371 861.045 133.763 860.723 134.104C860.406 134.44 860.035 134.704 859.61 134.895C859.19 135.086 858.737 135.182 858.252 135.182ZM858.252 133.726C858.639 133.726 858.987 133.623 859.295 133.418C859.603 133.213 859.846 132.942 860.023 132.606C860.205 132.265 860.296 131.897 860.296 131.5C860.296 131.094 860.203 130.721 860.016 130.38C859.834 130.039 859.589 129.769 859.281 129.568C858.973 129.363 858.63 129.26 858.252 129.26C857.869 129.26 857.522 129.363 857.209 129.568C856.901 129.773 856.656 130.046 856.474 130.387C856.297 130.728 856.208 131.099 856.208 131.5C856.208 131.915 856.301 132.291 856.488 132.627C856.675 132.963 856.922 133.231 857.23 133.432C857.543 133.628 857.883 133.726 858.252 133.726ZM862.883 135V128H864.339V128.742C864.582 128.453 864.878 128.224 865.228 128.056C865.583 127.888 865.965 127.804 866.376 127.804C866.875 127.804 867.335 127.925 867.755 128.168C868.175 128.406 868.509 128.723 868.756 129.12C869.003 128.723 869.332 128.406 869.743 128.168C870.158 127.925 870.616 127.804 871.115 127.804C871.633 127.804 872.104 127.93 872.529 128.182C872.954 128.434 873.292 128.772 873.544 129.197C873.796 129.622 873.922 130.093 873.922 130.611V135H872.466V130.982C872.466 130.674 872.391 130.392 872.242 130.135C872.093 129.878 871.892 129.671 871.64 129.512C871.388 129.353 871.108 129.274 870.8 129.274C870.492 129.274 870.212 129.349 869.96 129.498C869.708 129.647 869.507 129.85 869.358 130.107C869.209 130.364 869.134 130.655 869.134 130.982V135H867.678V130.982C867.678 130.655 867.603 130.364 867.454 130.107C867.305 129.85 867.102 129.647 866.845 129.498C866.593 129.349 866.313 129.274 866.005 129.274C865.702 129.274 865.422 129.353 865.165 129.512C864.913 129.671 864.712 129.878 864.563 130.135C864.414 130.392 864.339 130.674 864.339 130.982V135H862.883ZM876.78 138.5H875.324V128H876.78V129.029C877.014 128.67 877.312 128.378 877.676 128.154C878.04 127.93 878.47 127.818 878.964 127.818C879.473 127.818 879.949 127.914 880.392 128.105C880.84 128.296 881.232 128.562 881.568 128.903C881.904 129.239 882.168 129.629 882.359 130.072C882.551 130.515 882.646 130.991 882.646 131.5C882.646 132.009 882.551 132.487 882.359 132.935C882.168 133.383 881.904 133.777 881.568 134.118C881.232 134.454 880.84 134.718 880.392 134.909C879.949 135.1 879.473 135.196 878.964 135.196C878.47 135.196 878.04 135.084 877.676 134.86C877.312 134.631 877.014 134.34 876.78 133.985V138.5ZM878.95 129.225C878.544 129.225 878.187 129.328 877.879 129.533C877.571 129.738 877.331 130.014 877.158 130.359C876.986 130.7 876.899 131.08 876.899 131.5C876.899 131.92 876.986 132.303 877.158 132.648C877.331 132.993 877.571 133.269 877.879 133.474C878.187 133.679 878.544 133.782 878.95 133.782C879.352 133.782 879.72 133.682 880.056 133.481C880.392 133.276 880.661 133 880.861 132.655C881.062 132.31 881.162 131.925 881.162 131.5C881.162 131.085 881.062 130.704 880.861 130.359C880.665 130.014 880.399 129.738 880.063 129.533C879.727 129.328 879.356 129.225 878.95 129.225ZM883.692 135V124.5H885.148V135H883.692ZM889.807 135.182C889.163 135.182 888.575 135.016 888.043 134.685C887.515 134.354 887.093 133.91 886.776 133.355C886.463 132.795 886.307 132.177 886.307 131.5C886.307 130.987 886.398 130.508 886.58 130.065C886.762 129.617 887.011 129.225 887.329 128.889C887.651 128.548 888.024 128.282 888.449 128.091C888.873 127.9 889.326 127.804 889.807 127.804C890.343 127.804 890.836 127.916 891.284 128.14C891.732 128.359 892.114 128.665 892.432 129.057C892.749 129.444 892.982 129.892 893.132 130.401C893.281 130.905 893.325 131.442 893.265 132.011H887.868C887.928 132.333 888.045 132.625 888.218 132.886C888.395 133.143 888.619 133.346 888.89 133.495C889.165 133.644 889.471 133.721 889.807 133.726C890.161 133.726 890.483 133.637 890.773 133.46C891.067 133.283 891.307 133.038 891.494 132.725L892.971 133.068C892.691 133.689 892.268 134.197 891.704 134.594C891.139 134.986 890.507 135.182 889.807 135.182ZM887.819 130.898H891.795C891.748 130.562 891.629 130.259 891.438 129.988C891.251 129.713 891.015 129.496 890.731 129.337C890.451 129.174 890.143 129.092 889.807 129.092C889.475 129.092 889.167 129.171 888.883 129.33C888.603 129.489 888.369 129.706 888.183 129.981C888.001 130.252 887.879 130.557 887.819 130.898ZM898.079 129.456H896.609L896.602 135H895.146L895.153 129.456H894.04V128H895.153L895.146 125.802H896.602L896.609 128H898.079V129.456ZM902.248 135.182C901.604 135.182 901.016 135.016 900.484 134.685C899.957 134.354 899.534 133.91 899.217 133.355C898.904 132.795 898.748 132.177 898.748 131.5C898.748 130.987 898.839 130.508 899.021 130.065C899.203 129.617 899.453 129.225 899.77 128.889C900.092 128.548 900.465 128.282 900.89 128.091C901.315 127.9 901.767 127.804 902.248 127.804C902.785 127.804 903.277 127.916 903.725 128.14C904.173 128.359 904.556 128.665 904.873 129.057C905.19 129.444 905.424 129.892 905.573 130.401C905.722 130.905 905.767 131.442 905.706 132.011H900.309C900.37 132.333 900.486 132.625 900.659 132.886C900.836 133.143 901.06 133.346 901.331 133.495C901.606 133.644 901.912 133.721 902.248 133.726C902.603 133.726 902.925 133.637 903.214 133.46C903.508 133.283 903.748 133.038 903.935 132.725L905.412 133.068C905.132 133.689 904.71 134.197 904.145 134.594C903.58 134.986 902.948 135.182 902.248 135.182ZM900.26 130.898H904.236C904.189 130.562 904.07 130.259 903.879 129.988C903.692 129.713 903.457 129.496 903.172 129.337C902.892 129.174 902.584 129.092 902.248 129.092C901.917 129.092 901.609 129.171 901.324 129.33C901.044 129.489 900.811 129.706 900.624 129.981C900.442 130.252 900.321 130.557 900.26 130.898Z" fill="white"/>
</g>
<g filter="url(#filter3_d_3044_214)">
<rect x="457" y="50" width="67" height="41" rx="16" fill="white" shape-rendering="crispEdges"/>
<rect x="457.46" y="50.4596" width="66.0807" height="40.0807" rx="15.5404" stroke="#0C1021" stroke-opacity="0.05" stroke-width="0.919289" shape-rendering="crispEdges"/>
<path d="M469.84 75V65.2H473.214C473.741 65.2 474.217 65.3307 474.642 65.592C475.071 65.8533 475.412 66.2057 475.664 66.649C475.921 67.0923 476.049 67.5823 476.049 68.119C476.049 68.665 475.918 69.1597 475.657 69.603C475.4 70.0417 475.057 70.3917 474.628 70.653C474.199 70.9143 473.727 71.045 473.214 71.045H471.296V75H469.84ZM471.296 69.589H473.067C473.347 69.589 473.601 69.519 473.83 69.379C474.063 69.239 474.248 69.0523 474.383 68.819C474.523 68.5857 474.593 68.322 474.593 68.028C474.593 67.734 474.523 67.4703 474.383 67.237C474.248 66.999 474.063 66.8123 473.83 66.677C473.601 66.537 473.347 66.467 473.067 66.467H471.296V69.589ZM479.934 75.182C479.29 75.182 478.702 75.0163 478.17 74.685C477.642 74.3537 477.22 73.9103 476.903 73.355C476.59 72.795 476.434 72.1767 476.434 71.5C476.434 70.9867 476.525 70.5083 476.707 70.065C476.889 69.617 477.138 69.225 477.456 68.889C477.778 68.5483 478.151 68.2823 478.576 68.091C479 67.8997 479.453 67.804 479.934 67.804C480.578 67.804 481.163 67.9697 481.691 68.301C482.223 68.6323 482.645 69.078 482.958 69.638C483.275 70.198 483.434 70.8187 483.434 71.5C483.434 72.0087 483.343 72.4847 483.161 72.928C482.979 73.3713 482.727 73.7633 482.405 74.104C482.087 74.44 481.716 74.7037 481.292 74.895C480.872 75.0863 480.419 75.182 479.934 75.182ZM479.934 73.726C480.321 73.726 480.669 73.6233 480.977 73.418C481.285 73.2127 481.527 72.942 481.705 72.606C481.887 72.2653 481.978 71.8967 481.978 71.5C481.978 71.094 481.884 70.7207 481.698 70.38C481.516 70.0393 481.271 69.7687 480.963 69.568C480.655 69.3627 480.312 69.26 479.934 69.26C479.551 69.26 479.203 69.3627 478.891 69.568C478.583 69.7733 478.338 70.0463 478.156 70.387C477.978 70.7277 477.89 71.0987 477.89 71.5C477.89 71.9153 477.983 72.291 478.17 72.627C478.356 72.963 478.604 73.2313 478.912 73.432C479.224 73.628 479.565 73.726 479.934 73.726ZM484.148 72.375V68H485.604V72.018C485.604 72.3307 485.681 72.6153 485.835 72.872C485.989 73.1287 486.194 73.334 486.451 73.488C486.708 73.6373 486.99 73.712 487.298 73.712C487.611 73.712 487.893 73.6373 488.145 73.488C488.402 73.334 488.605 73.1287 488.754 72.872C488.908 72.6153 488.985 72.3307 488.985 72.018V68H490.441L490.448 75H488.992L488.985 74.244C488.747 74.5333 488.451 74.762 488.096 74.93C487.741 75.098 487.361 75.182 486.955 75.182C486.437 75.182 485.966 75.056 485.541 74.804C485.116 74.552 484.778 74.2137 484.526 73.789C484.274 73.3643 484.148 72.893 484.148 72.375ZM491.906 75V64.5H493.362V75H491.906ZM498.733 69.456H497.263L497.256 75H495.8L495.807 69.456H494.694V68H495.807L495.8 65.802H497.256L497.263 68H498.733V69.456ZM499.986 75V68H501.442V68.742C501.685 68.4527 501.984 68.224 502.338 68.056C502.693 67.888 503.076 67.804 503.486 67.804C503.748 67.804 504.007 67.839 504.263 67.909L503.682 69.379C503.5 69.309 503.318 69.274 503.136 69.274C502.828 69.274 502.546 69.351 502.289 69.505C502.033 69.6543 501.827 69.8573 501.673 70.114C501.519 70.3707 501.442 70.6553 501.442 70.968V75H499.986ZM509.881 68H511.435L507.599 78.5H506.052L507.319 75L504.806 68H506.395L508.047 73.005L509.881 68Z" fill="#0C1021"/>
</g>
<g filter="url(#filter4_d_3044_214)">
<rect x="457" y="175" width="59" height="41" rx="16" fill="white" shape-rendering="crispEdges"/>
<rect x="457.46" y="175.46" width="58.0807" height="40.0807" rx="15.5404" stroke="#0C1021" stroke-opacity="0.05" stroke-width="0.919289" shape-rendering="crispEdges"/>
<path d="M474.383 200.182C473.702 200.182 473.067 200.051 472.479 199.79C471.896 199.524 471.385 199.158 470.946 198.691C470.512 198.22 470.171 197.676 469.924 197.06C469.681 196.444 469.56 195.788 469.56 195.093C469.56 194.36 469.691 193.686 469.952 193.07C470.213 192.454 470.57 191.92 471.023 191.467C471.476 191.01 471.991 190.655 472.57 190.403C473.153 190.151 473.765 190.025 474.404 190.025C475.127 190.025 475.823 190.193 476.49 190.529C477.157 190.865 477.738 191.369 478.233 192.041L476.931 192.748C476.595 192.328 476.203 192.011 475.755 191.796C475.312 191.581 474.857 191.474 474.39 191.474C473.937 191.474 473.508 191.567 473.102 191.754C472.696 191.936 472.337 192.193 472.024 192.524C471.711 192.851 471.464 193.236 471.282 193.679C471.105 194.118 471.016 194.596 471.016 195.114C471.016 195.613 471.102 196.082 471.275 196.521C471.452 196.96 471.695 197.345 472.003 197.676C472.316 198.003 472.675 198.259 473.081 198.446C473.492 198.633 473.93 198.726 474.397 198.726C474.742 198.726 475.074 198.67 475.391 198.558C475.708 198.446 476.002 198.287 476.273 198.082C476.548 197.872 476.789 197.622 476.994 197.333C477.199 197.044 477.363 196.722 477.484 196.367H475.405V195.079H479.192C479.201 195.779 479.08 196.437 478.828 197.053C478.581 197.669 478.235 198.213 477.792 198.684C477.353 199.151 476.842 199.517 476.259 199.783C475.676 200.049 475.05 200.182 474.383 200.182ZM480.545 200V193H482.001V193.742C482.244 193.453 482.542 193.224 482.897 193.056C483.252 192.888 483.634 192.804 484.045 192.804C484.306 192.804 484.565 192.839 484.822 192.909L484.241 194.379C484.059 194.309 483.877 194.274 483.695 194.274C483.387 194.274 483.105 194.351 482.848 194.505C482.591 194.654 482.386 194.857 482.232 195.114C482.078 195.371 482.001 195.655 482.001 195.968V200H480.545ZM490.749 193H492.205V200H490.742L490.686 198.985C490.481 199.344 490.203 199.634 489.853 199.853C489.503 200.072 489.09 200.182 488.614 200.182C488.101 200.182 487.618 200.086 487.165 199.895C486.712 199.699 486.313 199.428 485.968 199.083C485.627 198.738 485.361 198.341 485.17 197.893C484.979 197.44 484.883 196.955 484.883 196.437C484.883 195.938 484.976 195.469 485.163 195.03C485.35 194.587 485.609 194.199 485.94 193.868C486.271 193.537 486.654 193.278 487.088 193.091C487.527 192.9 487.996 192.804 488.495 192.804C489.004 192.804 489.452 192.921 489.839 193.154C490.231 193.383 490.555 193.677 490.812 194.036L490.749 193ZM488.579 198.775C488.99 198.775 489.349 198.675 489.657 198.474C489.965 198.269 490.203 197.993 490.371 197.648C490.544 197.303 490.63 196.92 490.63 196.5C490.63 196.075 490.544 195.69 490.371 195.345C490.198 195 489.958 194.727 489.65 194.526C489.347 194.321 488.99 194.218 488.579 194.218C488.173 194.218 487.802 194.321 487.466 194.526C487.13 194.731 486.864 195.007 486.668 195.352C486.472 195.697 486.374 196.08 486.374 196.5C486.374 196.925 486.474 197.31 486.675 197.655C486.88 197.996 487.149 198.269 487.48 198.474C487.816 198.675 488.182 198.775 488.579 198.775ZM493.602 193H495.058V200H493.602V193ZM494.344 191.985C494.12 191.985 493.933 191.913 493.784 191.768C493.634 191.623 493.56 191.441 493.56 191.222C493.56 191.007 493.634 190.828 493.784 190.683C493.933 190.534 494.117 190.459 494.337 190.459C494.551 190.459 494.733 190.534 494.883 190.683C495.032 190.828 495.107 191.007 495.107 191.222C495.107 191.441 495.032 191.623 494.883 191.768C494.738 191.913 494.558 191.985 494.344 191.985ZM502.992 195.611V200H501.536V195.968C501.536 195.655 501.459 195.371 501.305 195.114C501.155 194.857 500.952 194.654 500.696 194.505C500.444 194.351 500.159 194.274 499.842 194.274C499.534 194.274 499.251 194.351 498.995 194.505C498.738 194.654 498.533 194.857 498.379 195.114C498.225 195.371 498.148 195.655 498.148 195.968V200H496.692V193H498.148V193.742C498.39 193.453 498.689 193.224 499.044 193.056C499.398 192.888 499.781 192.804 500.192 192.804C500.71 192.804 501.181 192.93 501.606 193.182C502.03 193.434 502.366 193.772 502.614 194.197C502.866 194.622 502.992 195.093 502.992 195.611Z" fill="#0C1021"/>
</g>
<g filter="url(#filter5_d_3044_214)">
<rect x="457" y="110" width="43" height="41" rx="16" fill="white" shape-rendering="crispEdges"/>
<rect x="457.46" y="110.46" width="42.0807" height="40.0807" rx="15.5404" stroke="#0C1021" stroke-opacity="0.05" stroke-width="0.919289" shape-rendering="crispEdges"/>
<path d="M469.84 135V125.2H473.214C473.741 125.2 474.217 125.331 474.642 125.592C475.071 125.853 475.412 126.206 475.664 126.649C475.921 127.092 476.049 127.582 476.049 128.119C476.049 128.665 475.918 129.16 475.657 129.603C475.4 130.042 475.057 130.392 474.628 130.653C474.199 130.914 473.727 131.045 473.214 131.045H471.296V135H469.84ZM471.296 129.589H473.067C473.347 129.589 473.601 129.519 473.83 129.379C474.063 129.239 474.248 129.052 474.383 128.819C474.523 128.586 474.593 128.322 474.593 128.028C474.593 127.734 474.523 127.47 474.383 127.237C474.248 126.999 474.063 126.812 473.83 126.677C473.601 126.537 473.347 126.467 473.067 126.467H471.296V129.589ZM477.195 128H478.651V135H477.195V128ZM477.937 126.985C477.713 126.985 477.527 126.913 477.377 126.768C477.228 126.623 477.153 126.441 477.153 126.222C477.153 126.007 477.228 125.828 477.377 125.683C477.527 125.534 477.711 125.459 477.93 125.459C478.145 125.459 478.327 125.534 478.476 125.683C478.626 125.828 478.7 126.007 478.7 126.222C478.7 126.441 478.626 126.623 478.476 126.768C478.332 126.913 478.152 126.985 477.937 126.985ZM485.53 128H486.986V135.182C486.986 135.663 486.884 136.106 486.678 136.512C486.478 136.918 486.205 137.268 485.859 137.562C485.514 137.861 485.117 138.092 484.669 138.255C484.226 138.418 483.762 138.5 483.276 138.5C482.786 138.5 482.315 138.395 481.862 138.185C481.41 137.98 481.011 137.7 480.665 137.345C480.325 136.99 480.07 136.589 479.902 136.141L481.239 135.539C481.333 135.828 481.482 136.085 481.687 136.309C481.897 136.533 482.14 136.71 482.415 136.841C482.695 136.972 482.982 137.037 483.276 137.037C483.566 137.037 483.843 136.99 484.109 136.897C484.38 136.808 484.62 136.682 484.83 136.519C485.045 136.356 485.215 136.16 485.341 135.931C485.467 135.702 485.53 135.453 485.53 135.182V133.999C485.302 134.354 485.008 134.641 484.648 134.86C484.289 135.075 483.871 135.182 483.395 135.182C482.901 135.182 482.434 135.086 481.995 134.895C481.557 134.704 481.172 134.44 480.84 134.104C480.509 133.763 480.25 133.371 480.063 132.928C479.877 132.485 479.783 132.009 479.783 131.5C479.783 130.991 479.877 130.515 480.063 130.072C480.25 129.624 480.509 129.232 480.84 128.896C481.172 128.555 481.557 128.289 481.995 128.098C482.434 127.907 482.901 127.811 483.395 127.811C483.871 127.811 484.289 127.921 484.648 128.14C485.008 128.355 485.302 128.642 485.53 129.001V128ZM483.409 133.775C483.815 133.775 484.17 133.672 484.473 133.467C484.777 133.257 485.012 132.979 485.18 132.634C485.348 132.289 485.432 131.911 485.432 131.5C485.432 131.08 485.346 130.7 485.173 130.359C485.005 130.014 484.77 129.738 484.466 129.533C484.163 129.323 483.811 129.218 483.409 129.218C483.017 129.218 482.658 129.321 482.331 129.526C482.009 129.731 481.753 130.007 481.561 130.352C481.37 130.697 481.274 131.08 481.274 131.5C481.274 131.92 481.37 132.303 481.561 132.648C481.757 132.993 482.016 133.269 482.338 133.474C482.665 133.675 483.022 133.775 483.409 133.775Z" fill="#0C1021"/>
</g>
<path d="M454 70.5H422C408.745 70.5 398 81.2452 398 94.5V106.5C398 119.755 387.255 130.5 374 130.5H342" stroke="#4268FF" stroke-linecap="round" stroke-linejoin="bevel" stroke-dasharray="6 6"/>
<path d="M454 130.5H374M342 130.5H374M374 130.5L-nan -nanL-nan -nanL374 130.5Z" stroke="#4268FF" stroke-linecap="round" stroke-linejoin="bevel" stroke-dasharray="6 6"/>
<path d="M454 195.5H422C408.745 195.5 398 184.755 398 171.5V154.5C398 141.245 387.255 130.5 374 130.5H342" stroke="#4268FF" stroke-linecap="round" stroke-linejoin="bevel" stroke-dasharray="6 6"/>
<path d="M519 195.5H543C556.255 195.5 567 184.755 567 171.5V154.5C567 141.245 577.745 130.5 591 130.5H606" stroke="#4268FF" stroke-linecap="round" stroke-linejoin="bevel" stroke-dasharray="6 6"/>
<path d="M503 130.5H588" stroke="#4268FF" stroke-linecap="round" stroke-linejoin="bevel" stroke-dasharray="6 6"/>
<path d="M527 70.5H542.5C555.755 70.5 566.5 81.2452 566.5 94.5V106.5C566.5 119.755 577.245 130.5 590.5 130.5H591H606" stroke="#4268FF" stroke-linecap="round" stroke-linejoin="bevel" stroke-dasharray="6 6"/>
<path d="M764 130.5H738" stroke="#4268FF" stroke-linecap="round" stroke-linejoin="bevel" stroke-dasharray="6 6"/>
<defs>
<filter id="filter0_d_3044_214" x="173.614" y="95.2914" width="183.772" height="77.7715" filterUnits="userSpaceOnUse" color-interpolation-filters="sRGB">
<feFlood flood-opacity="0" result="BackgroundImageFix"/>
<feColorMatrix in="SourceAlpha" type="matrix" values="0 0 0 0 0 0 0 0 0 0 0 0 0 0 0 0 0 0 127 0" result="hardAlpha"/>
<feOffset dy="3.67715"/>
<feGaussianBlur stdDeviation="9.19289"/>
<feComposite in2="hardAlpha" operator="out"/>
<feColorMatrix type="matrix" values="0 0 0 0 0.0468057 0 0 0 0 0.0634939 0 0 0 0 0.129808 0 0 0 0.1 0"/>
<feBlend mode="normal" in2="BackgroundImageFix" result="effect1_dropShadow_3044_214"/>
<feBlend mode="normal" in="SourceGraphic" in2="effect1_dropShadow_3044_214" result="shape"/>
</filter>
<filter id="filter1_d_3044_214" x="590.614" y="95.2914" width="162.772" height="77.7715" filterUnits="userSpaceOnUse" color-interpolation-filters="sRGB">
<feFlood flood-opacity="0" result="BackgroundImageFix"/>
<feColorMatrix in="SourceAlpha" type="matrix" values="0 0 0 0 0 0 0 0 0 0 0 0 0 0 0 0 0 0 127 0" result="hardAlpha"/>
<feOffset dy="3.67715"/>
<feGaussianBlur stdDeviation="9.19289"/>
<feComposite in2="hardAlpha" operator="out"/>
<feColorMatrix type="matrix" values="0 0 0 0 0.0468057 0 0 0 0 0.0634939 0 0 0 0 0.129808 0 0 0 0.1 0"/>
<feBlend mode="normal" in2="BackgroundImageFix" result="effect1_dropShadow_3044_214"/>
<feBlend mode="normal" in="SourceGraphic" in2="effect1_dropShadow_3044_214" result="shape"/>
</filter>
<filter id="filter2_d_3044_214" x="748.614" y="95.2914" width="188.772" height="77.7715" filterUnits="userSpaceOnUse" color-interpolation-filters="sRGB">
<feFlood flood-opacity="0" result="BackgroundImageFix"/>
<feColorMatrix in="SourceAlpha" type="matrix" values="0 0 0 0 0 0 0 0 0 0 0 0 0 0 0 0 0 0 127 0" result="hardAlpha"/>
<feOffset dy="3.67715"/>
<feGaussianBlur stdDeviation="9.19289"/>
<feComposite in2="hardAlpha" operator="out"/>
<feColorMatrix type="matrix" values="0 0 0 0 0.0468057 0 0 0 0 0.0634939 0 0 0 0 0.129808 0 0 0 0.1 0"/>
<feBlend mode="normal" in2="BackgroundImageFix" result="effect1_dropShadow_3044_214"/>
<feBlend mode="normal" in="SourceGraphic" in2="effect1_dropShadow_3044_214" result="shape"/>
</filter>
<filter id="filter3_d_3044_214" x="438.614" y="35.2914" width="103.772" height="77.7715" filterUnits="userSpaceOnUse" color-interpolation-filters="sRGB">
<feFlood flood-opacity="0" result="BackgroundImageFix"/>
<feColorMatrix in="SourceAlpha" type="matrix" values="0 0 0 0 0 0 0 0 0 0 0 0 0 0 0 0 0 0 127 0" result="hardAlpha"/>
<feOffset dy="3.67715"/>
<feGaussianBlur stdDeviation="9.19289"/>
<feComposite in2="hardAlpha" operator="out"/>
<feColorMatrix type="matrix" values="0 0 0 0 0.0468057 0 0 0 0 0.0634939 0 0 0 0 0.129808 0 0 0 0.1 0"/>
<feBlend mode="normal" in2="BackgroundImageFix" result="effect1_dropShadow_3044_214"/>
<feBlend mode="normal" in="SourceGraphic" in2="effect1_dropShadow_3044_214" result="shape"/>
</filter>
<filter id="filter4_d_3044_214" x="438.614" y="160.291" width="95.7715" height="77.7715" filterUnits="userSpaceOnUse" color-interpolation-filters="sRGB">
<feFlood flood-opacity="0" result="BackgroundImageFix"/>
<feColorMatrix in="SourceAlpha" type="matrix" values="0 0 0 0 0 0 0 0 0 0 0 0 0 0 0 0 0 0 127 0" result="hardAlpha"/>
<feOffset dy="3.67715"/>
<feGaussianBlur stdDeviation="9.19289"/>
<feComposite in2="hardAlpha" operator="out"/>
<feColorMatrix type="matrix" values="0 0 0 0 0.0468057 0 0 0 0 0.0634939 0 0 0 0 0.129808 0 0 0 0.1 0"/>
<feBlend mode="normal" in2="BackgroundImageFix" result="effect1_dropShadow_3044_214"/>
<feBlend mode="normal" in="SourceGraphic" in2="effect1_dropShadow_3044_214" result="shape"/>
</filter>
<filter id="filter5_d_3044_214" x="438.614" y="95.2914" width="79.7715" height="77.7715" filterUnits="userSpaceOnUse" color-interpolation-filters="sRGB">
<feFlood flood-opacity="0" result="BackgroundImageFix"/>
<feColorMatrix in="SourceAlpha" type="matrix" values="0 0 0 0 0 0 0 0 0 0 0 0 0 0 0 0 0 0 127 0" result="hardAlpha"/>
<feOffset dy="3.67715"/>
<feGaussianBlur stdDeviation="9.19289"/>
<feComposite in2="hardAlpha" operator="out"/>
<feColorMatrix type="matrix" values="0 0 0 0 0.0468057 0 0 0 0 0.0634939 0 0 0 0 0.129808 0 0 0 0.1 0"/>
<feBlend mode="normal" in2="BackgroundImageFix" result="effect1_dropShadow_3044_214"/>
<feBlend mode="normal" in="SourceGraphic" in2="effect1_dropShadow_3044_214" result="shape"/>
</filter>
<pattern id="pattern0_3044_214" patternUnits="userSpaceOnUse" patternTransform="matrix(12.5 0 0 12.5 0 0)" preserveAspectRatio="none" viewBox="0 0 12.5 12.5" width="1" height="1">
<g id="pattern0_3044_214_inner">
<circle cx="2.5" cy="2.5" r="2.5" fill="#0C1021"/>
</g>
</pattern></defs>
</svg>
