<svg width="564" height="564" viewBox="0 0 564 564" fill="none" xmlns="http://www.w3.org/2000/svg">
<g clip-path="url(#clip0_4007_110)">
<rect width="564" height="564" rx="24" fill="#FAFAFA"/>
<path d="M737 572C737 512.249 725.244 453.082 702.403 397.879C679.562 342.676 646.084 292.517 603.88 250.266C561.676 208.016 511.572 174.501 456.43 151.635C401.287 128.769 342.186 117 282.5 117C222.814 117 163.713 128.769 108.57 151.635C53.4279 174.501 3.32418 208.016 -38.88 250.266C-81.0843 292.517 -114.563 342.676 -137.403 397.879C-160.244 453.082 -172 512.249 -172 572L737 572Z" fill="url(#paint0_linear_4007_110)" fill-opacity="0.2"/>
<path d="M730.309 494.216C731.58 501.549 732.67 508.915 733.581 516.306H733.582L733.086 516.367C733.995 523.744 734.724 531.145 735.271 538.566L735.769 538.529C736.315 545.947 736.68 553.384 736.862 560.834L736.363 560.847C736.45 564.395 736.494 567.947 736.498 571.5H727.119V572H707.358V571.5H687.598V572H667.837V571.5H648.076V572H628.315V571.5H608.555V572H588.794V571.5H569.032V572H549.271V571.5H529.511V572H509.75V571.5H489.989V572H470.229V571.5H450.468V572H430.706V571.5H410.945V572H391.185V571.5H371.424V572H351.663V571.5H331.902V572H312.142V571.5H292.381V572H272.619V571.5H252.858V572H233.098V571.5H213.337V572H193.576V571.5H173.815V572H154.055V571.5H134.294V572H114.532V571.5H94.7715V572H75.0107V571.5H55.25V572H35.4893V571.5H15.7285V572H-4.03223V571.5H-23.793V572H-43.5547V571.5H-63.3154V572H-83.0762V571.5H-102.837V572H-122.598V571.5H-142.358V572H-162.119V571.5H-171.498C-171.494 567.947 -171.45 564.395 -171.363 560.847L-171.863 560.834C-171.681 553.385 -171.316 545.947 -170.77 538.529L-170.271 538.566C-169.724 531.145 -168.995 523.744 -168.086 516.367L-168.582 516.306C-167.784 509.83 -166.848 503.375 -165.773 496.943L-165.31 494.216L-164.816 494.301C-163.546 486.973 -162.097 479.678 -160.47 472.422L-160.957 472.312L-160.958 472.312C-159.329 465.049 -157.522 457.826 -155.538 450.648L-155.056 450.782C-153.075 443.619 -150.919 436.5 -148.587 429.434L-149.062 429.277L-149.062 429.276C-146.735 422.222 -144.231 415.22 -141.556 408.275L-141.546 408.249L-141.079 408.429C-140.077 405.828 -139.051 403.235 -138 400.651L-136.941 398.07C-135.519 394.634 -134.056 391.216 -132.552 387.819L-133.01 387.616C-129.994 380.804 -126.814 374.074 -123.474 367.431L-123.026 367.656C-119.685 361.01 -116.182 354.451 -112.523 347.984L-112.958 347.737C-109.745 342.059 -106.411 336.452 -102.959 330.921L-101.49 328.583L-101.068 328.851C-97.094 322.567 -92.966 316.382 -88.6885 310.302L-89.0977 310.015L-89.0986 310.014C-84.8175 303.928 -80.3865 297.947 -75.8096 292.075L-75.8086 292.076L-75.4141 292.383C-70.846 286.523 -66.132 280.772 -61.2764 275.137L-61.6553 274.811C-56.8071 269.184 -51.8175 263.672 -46.6904 258.28L-46.6719 258.261L-46.3096 258.605C-44.3893 256.586 -42.4499 254.584 -40.4912 252.599L-38.5264 250.62C-35.8989 247.99 -33.2408 245.393 -30.5527 242.831L-30.8975 242.469C-25.5072 237.331 -19.9974 232.331 -14.3721 227.473L-14.0449 227.852C-8.41697 222.991 -2.67365 218.274 3.17871 213.701L2.87109 213.307C8.73547 208.725 14.7098 204.29 20.7881 200.004L21.0762 200.412C27.1498 196.13 33.3283 191.997 39.6045 188.019L39.3359 187.597L39.335 187.596C45.6168 183.613 51.9974 179.785 58.4707 176.113L58.7178 176.549C65.1783 172.885 71.7318 169.378 78.3721 166.032L78.1475 165.585C84.7854 162.24 91.5102 159.055 98.3164 156.035L98.5186 156.492C101.913 154.986 105.328 153.521 108.762 152.097C112.195 150.673 115.643 149.292 119.106 147.955L118.927 147.488C125.871 144.807 132.873 142.298 139.928 139.965L139.929 139.966L140.086 140.44C147.144 138.106 154.254 135.947 161.409 133.965L161.275 133.482C168.445 131.496 175.66 129.686 182.914 128.056L183.024 128.544C190.273 126.914 197.56 125.463 204.88 124.191L204.794 123.699C212.12 122.427 219.478 121.334 226.861 120.422L226.923 120.918C234.292 120.008 241.686 119.279 249.1 118.731L249.063 118.233C256.474 117.686 263.904 117.32 271.346 117.137L271.357 117.637C275.069 117.546 278.783 117.5 282.5 117.5C286.217 117.5 289.931 117.546 293.643 117.637L293.653 117.137C301.095 117.32 308.525 117.686 315.936 118.233L315.9 118.731C323.314 119.279 330.708 120.008 338.077 120.918L338.138 120.422C345.521 121.334 352.879 122.427 360.204 123.699L360.12 124.191C367.44 125.463 374.727 126.914 381.976 128.544L382.085 128.056C389.339 129.686 396.554 131.496 403.724 133.482L403.591 133.965C410.746 135.947 417.856 138.106 424.914 140.44L425.071 139.966V139.965C432.126 142.298 439.128 144.807 446.072 147.488L445.894 147.955C449.357 149.292 452.805 150.673 456.238 152.097C459.672 153.521 463.087 154.986 466.481 156.492L466.683 156.035C473.489 159.055 480.214 162.24 486.852 165.585L486.628 166.031C493.268 169.377 499.822 172.885 506.282 176.549L506.528 176.113C513.002 179.785 519.382 183.613 525.664 187.596V187.597L525.396 188.019C531.672 191.997 537.85 196.13 543.924 200.412L544.211 200.004C550.289 204.29 556.264 208.725 562.128 213.307L561.821 213.701C567.673 218.273 573.416 222.992 579.044 227.852L579.371 227.473C584.996 232.331 590.506 237.331 595.896 242.469H595.897L595.553 242.831C598.241 245.393 600.899 247.99 603.526 250.62C606.155 253.251 608.749 255.914 611.31 258.605L611.671 258.261C616.805 263.659 621.8 269.177 626.654 274.811L626.276 275.137C631.132 280.772 635.846 286.523 640.414 292.383L640.808 292.075C645.385 297.947 649.816 303.928 654.098 310.014V310.015L653.688 310.302C657.966 316.382 662.094 322.567 666.068 328.851L666.489 328.583C670.467 334.871 674.29 341.258 677.957 347.737L677.523 347.984C681.182 354.451 684.685 361.01 688.026 367.656L688.473 367.431C691.813 374.074 694.993 380.804 698.009 387.616L697.552 387.819C699.056 391.216 700.519 394.634 701.941 398.07C703.364 401.508 704.743 404.961 706.079 408.429L706.545 408.249C709.224 415.202 711.73 422.214 714.061 429.277L713.587 429.434C715.919 436.5 718.075 443.619 720.056 450.782L720.537 450.648C722.521 457.826 724.327 465.05 725.956 472.312H725.957L725.47 472.422C727.097 479.678 728.546 486.973 729.816 494.301L730.309 494.216Z" stroke="black" stroke-opacity="0.08" stroke-dasharray="20 20"/>
<path d="M609 568C609 525.058 600.555 482.536 584.147 442.863C567.739 403.189 543.689 367.141 513.37 336.776C483.052 306.411 447.059 282.325 407.446 265.891C367.833 249.458 325.377 241 282.5 241C239.623 241 197.167 249.458 157.554 265.891C117.941 282.325 81.948 306.411 51.6296 336.776C21.3113 367.141 -2.73852 403.189 -19.1467 442.863C-35.5548 482.536 -44 525.058 -44 568L609 568Z" fill="url(#paint1_linear_4007_110)" fill-opacity="0.2"/>
<path d="M607.427 535.95C608.124 543.043 608.59 550.164 608.823 557.302L608.325 557.317C608.436 560.708 608.493 564.103 608.498 567.5H598.797V568H578.391V567.5H557.984V568H537.578V567.5H517.172V568H496.766V567.5H476.359V568H455.953V567.5H435.547V568H415.141V567.5H394.734V568H374.328V567.5H353.922V568H333.516V567.5H313.109V568H292.703V567.5H272.297V568H251.891V567.5H231.484V568H211.078V567.5H190.672V568H170.266V567.5H149.859V568H129.453V567.5H109.047V568H88.6406V567.5H68.2344V568H47.8281V567.5H27.4219V568H7.01562V567.5H-13.3906V568H-33.7969V567.5H-43.498C-43.4929 564.103 -43.436 560.708 -43.3252 557.317L-43.8242 557.302C-43.6124 550.82 -43.209 544.352 -42.6143 537.907L-42.4277 535.95L-41.9307 536C-41.2332 528.907 -40.3044 521.842 -39.1465 514.817L-39.6387 514.736C-38.4783 507.697 -37.0882 500.698 -35.4707 493.75L-34.9844 493.863C-33.3701 486.929 -31.5297 480.045 -29.4639 473.225L-29.9424 473.08C-27.8765 466.259 -25.5855 459.501 -23.0732 452.815L-22.6055 452.991C-21.6666 450.493 -20.6972 448.005 -19.6963 445.527L-18.6846 443.054C-17.323 439.761 -15.9086 436.494 -14.4424 433.253L-14.8975 433.047C-11.9549 426.542 -8.80492 420.143 -5.45117 413.858L-5.00879 414.095C-1.65447 407.809 1.90267 401.639 5.65625 395.593L5.23145 395.329C8.99313 389.27 12.9523 383.337 17.1016 377.537L17.5068 377.828C21.6478 372.04 25.9793 366.386 30.4941 360.876L30.1074 360.559C34.6225 355.048 39.3215 349.682 44.1973 344.468L44.5625 344.809C46.9923 342.21 49.4663 339.65 51.9834 337.129C54.4992 334.609 57.0546 332.133 59.6475 329.701L59.3066 329.337C64.5104 324.455 69.8656 319.75 75.3652 315.229L75.6826 315.616C81.1833 311.095 86.8275 306.757 92.6055 302.61L92.3145 302.204C98.1049 298.048 104.03 294.083 110.079 290.315L110.343 290.74C116.38 286.98 122.542 283.416 128.819 280.056L128.583 279.615L128.582 279.614C134.859 276.254 141.252 273.098 147.749 270.149L147.955 270.604C150.383 269.502 152.826 268.43 155.283 267.387L157.745 266.354C161.033 264.99 164.341 263.68 167.666 262.427L167.489 261.96C174.163 259.444 180.91 257.15 187.719 255.081L187.864 255.56C194.674 253.491 201.547 251.647 208.47 250.03L208.356 249.544C215.294 247.924 222.283 246.531 229.312 245.369L229.393 245.861C236.407 244.701 243.461 243.771 250.544 243.072L250.494 242.574C257.577 241.875 264.688 241.41 271.816 241.176L271.833 241.675C275.385 241.558 278.941 241.5 282.5 241.5C286.059 241.5 289.615 241.558 293.167 241.675L293.183 241.176C300.311 241.409 307.422 241.876 314.505 242.574V242.575L314.456 243.072C321.539 243.771 328.593 244.701 335.607 245.861L335.688 245.369C342.716 246.531 349.705 247.924 356.643 249.544L356.53 250.03C363.453 251.647 370.326 253.491 377.136 255.56L377.28 255.081C384.089 257.15 390.836 259.444 397.51 261.96L397.334 262.427C400.659 263.68 403.967 264.99 407.255 266.354C410.544 267.718 413.807 269.134 417.045 270.604L417.25 270.149C423.747 273.098 430.139 276.254 436.416 279.614L436.181 280.056C442.457 283.416 448.62 286.98 454.657 290.74L454.92 290.315C460.969 294.083 466.894 298.048 472.685 302.204L472.395 302.61C478.172 306.757 483.817 311.095 489.317 315.616L489.634 315.229C495.133 319.75 500.489 324.455 505.692 329.337L505.353 329.701C507.945 332.133 510.501 334.609 513.017 337.129C515.534 339.65 518.008 342.21 520.438 344.809L520.802 344.468C525.678 349.682 530.376 355.048 534.892 360.559L534.506 360.876C539.021 366.386 543.352 372.04 547.493 377.828L547.897 377.537C552.047 383.337 556.006 389.27 559.768 395.329L559.344 395.593C563.097 401.639 566.654 407.809 570.009 414.095L570.449 413.858C573.803 420.143 576.954 426.542 579.896 433.047L579.442 433.253C580.909 436.494 582.323 439.761 583.685 443.054C585.047 446.347 586.354 449.66 587.605 452.991L588.072 452.815C590.585 459.501 592.876 466.259 594.941 473.08H594.942L594.464 473.225C596.53 480.045 598.37 486.929 599.984 493.863L600.47 493.75C602.087 500.698 603.477 507.697 604.638 514.736L604.146 514.817C605.304 521.842 606.233 528.907 606.931 536L607.427 535.95Z" stroke="black" stroke-opacity="0.08" stroke-dasharray="20 20"/>
<path d="M480 568C480 541.998 474.891 516.251 464.966 492.229C455.041 468.206 440.493 446.379 422.154 427.993C403.814 409.607 382.042 395.022 358.08 385.072C334.118 375.121 308.436 370 282.5 370C256.564 370 230.882 375.121 206.92 385.072C182.958 395.022 161.186 409.607 142.846 427.993C124.507 446.379 109.959 468.206 100.034 492.229C90.1085 516.251 85 541.998 85 568L480 568Z" fill="url(#paint2_linear_4007_110)" fill-opacity="0.2"/>
<path d="M477.862 538.95C478.81 545.353 479.443 551.806 479.761 558.286H479.762L479.263 558.311C479.413 561.368 479.489 564.432 479.497 567.5H470.125V568H450.375V567.5H430.625V568H410.875V567.5H391.125V568H371.375V567.5H351.625V568H331.875V567.5H312.125V568H292.375V567.5H272.625V568H252.875V567.5H233.125V568H213.375V567.5H193.625V568H173.875V567.5H154.125V568H134.375V567.5H114.625V568H94.875V567.5H85.5029C85.5107 564.432 85.5875 561.368 85.7373 558.311L85.2383 558.286C85.5558 551.806 86.1895 545.353 87.1367 538.95L87.6318 539.023C88.5779 532.629 89.8367 526.285 91.4033 520.015L90.917 519.893C92.4858 513.613 94.3635 507.407 96.5439 501.298L97.0156 501.466C97.8294 499.186 98.6857 496.919 99.584 494.667L100.496 492.42C101.731 489.432 103.037 486.478 104.413 483.561L103.96 483.347C106.384 478.209 109.025 473.184 111.874 468.284L113.095 466.215L113.523 466.471C116.838 460.926 120.423 455.548 124.264 450.355L123.861 450.059L123.86 450.058C127.707 444.857 131.812 439.843 136.159 435.034L136.53 435.369C138.694 432.976 140.917 430.634 143.2 428.346C145.481 426.059 147.815 423.831 150.2 421.664L149.864 421.294C154.065 417.477 158.424 413.848 162.926 410.414L164.843 408.97L165.141 409.371C170.32 405.52 175.684 401.926 181.215 398.603L180.958 398.174L180.957 398.173C186.496 394.844 192.202 391.786 198.054 389.011L198.269 389.464C201.181 388.083 204.129 386.772 207.111 385.533C210.092 384.295 213.1 383.133 216.131 382.046L215.962 381.575C222.055 379.389 228.245 377.507 234.508 375.935L234.63 376.42C240.885 374.849 247.213 373.586 253.591 372.638L253.518 372.144C259.905 371.194 266.343 370.557 272.808 370.238L272.832 370.738C276.049 370.58 279.273 370.5 282.5 370.5C285.727 370.5 288.95 370.58 292.167 370.738L292.191 370.238C298.656 370.557 305.094 371.194 311.481 372.144L311.409 372.638C317.787 373.586 324.115 374.849 330.37 376.42L330.491 375.935C336.754 377.507 342.944 379.388 349.037 381.574L348.869 382.046C351.9 383.133 354.908 384.295 357.889 385.533C360.871 386.772 363.819 388.083 366.731 389.464L366.945 389.011C372.797 391.786 378.503 394.844 384.042 398.173V398.174L383.785 398.603C389.316 401.926 394.68 405.52 399.859 409.371L400.156 408.97C405.341 412.825 410.34 416.937 415.135 421.294L414.8 421.664C417.185 423.831 419.519 426.059 421.8 428.346C424.083 430.634 426.306 432.976 428.47 435.369L428.84 435.034C433.187 439.843 437.292 444.857 441.139 450.058V450.059L440.736 450.355C444.577 455.548 448.162 460.926 451.477 466.471L451.904 466.215C455.223 471.766 458.273 477.482 461.039 483.347L460.587 483.561C461.963 486.478 463.269 489.432 464.504 492.42C465.739 495.409 466.899 498.426 467.984 501.466L468.455 501.298C470.636 507.407 472.513 513.613 474.082 519.893L473.597 520.015C475.163 526.285 476.422 532.629 477.368 539.023L477.862 538.95Z" stroke="black" stroke-opacity="0.08" stroke-dasharray="20 20"/>
</g>
<defs>
<linearGradient id="paint0_linear_4007_110" x1="282.5" y1="117" x2="282.5" y2="572" gradientUnits="userSpaceOnUse">
<stop stop-color="#D7D7D7"/>
<stop offset="1" stop-color="white"/>
</linearGradient>
<linearGradient id="paint1_linear_4007_110" x1="282.5" y1="241" x2="282.5" y2="568" gradientUnits="userSpaceOnUse">
<stop stop-color="#D7D7D7"/>
<stop offset="1" stop-color="white"/>
</linearGradient>
<linearGradient id="paint2_linear_4007_110" x1="282.5" y1="370" x2="282.5" y2="568" gradientUnits="userSpaceOnUse">
<stop stop-color="#D7D7D7"/>
<stop offset="1" stop-color="white"/>
</linearGradient>
<clipPath id="clip0_4007_110">
<rect width="564" height="564" rx="24" fill="white"/>
</clipPath>
</defs>
</svg>
