<svg width="464" height="239" viewBox="0 0 464 239" fill="none" xmlns="http://www.w3.org/2000/svg">
<g filter="url(#filter0_d_2178_5481)">
<rect x="18.3857" y="14.7086" width="427" height="202" rx="16" fill="white" shape-rendering="crispEdges"/>
<rect x="18.8454" y="15.1683" width="426.081" height="201.081" rx="15.5404" stroke="#0C1021" stroke-opacity="0.05" stroke-width="0.919289" shape-rendering="crispEdges"/>
<path d="M48.2757 46.7086H50.7057L55.7957 60.7086H53.5957L52.6257 58.0486H46.3557L45.3957 60.7086H43.1857L48.2757 46.7086ZM47.1257 55.9686H51.8557L49.4857 49.4686L47.1257 55.9686ZM63.3384 57.8686L65.1984 58.8786C64.7451 59.512 64.1684 60.0186 63.4684 60.3986C62.7751 60.7786 62.0217 60.9686 61.2084 60.9686C60.2884 60.9686 59.4484 60.732 58.6884 60.2586C57.9351 59.7853 57.3317 59.152 56.8784 58.3586C56.4317 57.5586 56.2084 56.6753 56.2084 55.7086C56.2084 54.9753 56.3384 54.292 56.5984 53.6586C56.8584 53.0186 57.2151 52.4586 57.6684 51.9786C58.1284 51.492 58.6617 51.112 59.2684 50.8386C59.8751 50.5653 60.5217 50.4286 61.2084 50.4286C62.0217 50.4286 62.7751 50.6186 63.4684 50.9986C64.1684 51.3786 64.7451 51.8886 65.1984 52.5286L63.3384 53.5386C63.0584 53.2053 62.7317 52.952 62.3584 52.7786C61.9851 52.5986 61.6017 52.5086 61.2084 52.5086C60.6617 52.5086 60.1651 52.6586 59.7184 52.9586C59.2784 53.252 58.9284 53.642 58.6684 54.1286C58.4151 54.6086 58.2884 55.1353 58.2884 55.7086C58.2884 56.2753 58.4184 56.802 58.6784 57.2886C58.9384 57.7686 59.2884 58.1553 59.7284 58.4486C60.1751 58.742 60.6684 58.8886 61.2084 58.8886C61.6217 58.8886 62.0151 58.7953 62.3884 58.6086C62.7617 58.422 63.0784 58.1753 63.3384 57.8686ZM72.2837 52.7886H70.1837L70.1737 60.7086H68.0937L68.1037 52.7886H66.5137V50.7086H68.1037L68.0937 47.5686H70.1737L70.1837 50.7086H72.2837V52.7886ZM73.9373 50.7086H76.0173V60.7086H73.9373V50.7086ZM74.9973 49.2586C74.6773 49.2586 74.4106 49.1553 74.1973 48.9486C73.984 48.742 73.8773 48.482 73.8773 48.1686C73.8773 47.862 73.984 47.6053 74.1973 47.3986C74.4106 47.1853 74.674 47.0786 74.9873 47.0786C75.294 47.0786 75.554 47.1853 75.7673 47.3986C75.9806 47.6053 76.0873 47.862 76.0873 48.1686C76.0873 48.482 75.9806 48.742 75.7673 48.9486C75.5606 49.1553 75.304 49.2586 74.9973 49.2586ZM83.8761 60.7086H81.2061L77.5561 50.6886H79.7761L82.5361 58.3086L85.3061 50.6886H87.5161L83.8761 60.7086ZM93.0639 60.9686C92.1439 60.9686 91.3039 60.732 90.5439 60.2586C89.7905 59.7853 89.1872 59.152 88.7339 58.3586C88.2872 57.5586 88.0639 56.6753 88.0639 55.7086C88.0639 54.9753 88.1939 54.292 88.4539 53.6586C88.7139 53.0186 89.0705 52.4586 89.5239 51.9786C89.9839 51.492 90.5172 51.112 91.1239 50.8386C91.7305 50.5653 92.3772 50.4286 93.0639 50.4286C93.8305 50.4286 94.5339 50.5886 95.1739 50.9086C95.8139 51.222 96.3605 51.6586 96.8139 52.2186C97.2672 52.772 97.6005 53.412 97.8139 54.1386C98.0272 54.8586 98.0905 55.6253 98.0039 56.4386H90.2939C90.3805 56.8986 90.5472 57.3153 90.7939 57.6886C91.0472 58.0553 91.3672 58.3453 91.7539 58.5586C92.1472 58.772 92.5839 58.882 93.0639 58.8886C93.5705 58.8886 94.0305 58.762 94.4439 58.5086C94.8639 58.2553 95.2072 57.9053 95.4739 57.4586L97.5839 57.9486C97.1839 58.8353 96.5805 59.562 95.7739 60.1286C94.9672 60.6886 94.0639 60.9686 93.0639 60.9686ZM90.2239 54.8486H95.9039C95.8372 54.3686 95.6672 53.9353 95.3939 53.5486C95.1272 53.1553 94.7905 52.8453 94.3839 52.6186C93.9839 52.3853 93.5439 52.2686 93.0639 52.2686C92.5905 52.2686 92.1505 52.382 91.7439 52.6086C91.3439 52.8353 91.0105 53.1453 90.7439 53.5386C90.4839 53.9253 90.3105 54.362 90.2239 54.8486ZM111.12 60.9686C110.174 60.9686 109.284 60.782 108.45 60.4086C107.617 60.0286 106.884 59.5086 106.25 58.8486C105.624 58.182 105.13 57.4086 104.77 56.5286C104.417 55.6486 104.24 54.7086 104.24 53.7086C104.24 52.7086 104.417 51.7686 104.77 50.8886C105.13 50.0086 105.624 49.2386 106.25 48.5786C106.884 47.912 107.617 47.392 108.45 47.0186C109.284 46.6386 110.174 46.4486 111.12 46.4486C112.254 46.4486 113.297 46.712 114.25 47.2386C115.204 47.7653 115.994 48.4653 116.62 49.3386L114.77 50.3286C114.337 49.782 113.8 49.3453 113.16 49.0186C112.52 48.692 111.84 48.5286 111.12 48.5286C110.454 48.5286 109.83 48.6653 109.25 48.9386C108.67 49.212 108.16 49.5853 107.72 50.0586C107.28 50.532 106.937 51.082 106.69 51.7086C106.444 52.3353 106.32 53.002 106.32 53.7086C106.32 54.422 106.444 55.092 106.69 55.7186C106.937 56.3386 107.28 56.8886 107.72 57.3686C108.167 57.842 108.68 58.2153 109.26 58.4886C109.84 58.7553 110.46 58.8886 111.12 58.8886C111.854 58.8886 112.537 58.7253 113.17 58.3986C113.81 58.0653 114.344 57.6253 114.77 57.0786L116.62 58.0886C115.994 58.962 115.204 59.662 114.25 60.1886C113.297 60.7086 112.254 60.9686 111.12 60.9686ZM125.819 50.7086H127.899V60.7086H125.809L125.729 59.2586C125.436 59.772 125.039 60.1853 124.539 60.4986C124.039 60.812 123.449 60.9686 122.769 60.9686C122.036 60.9686 121.346 60.832 120.699 60.5586C120.052 60.2786 119.482 59.892 118.989 59.3986C118.502 58.9053 118.122 58.3386 117.849 57.6986C117.576 57.052 117.439 56.3586 117.439 55.6186C117.439 54.9053 117.572 54.2353 117.839 53.6086C118.106 52.9753 118.476 52.422 118.949 51.9486C119.422 51.4753 119.969 51.1053 120.589 50.8386C121.216 50.5653 121.886 50.4286 122.599 50.4286C123.326 50.4286 123.966 50.5953 124.519 50.9286C125.079 51.2553 125.542 51.6753 125.909 52.1886L125.819 50.7086ZM122.719 58.9586C123.306 58.9586 123.819 58.8153 124.259 58.5286C124.699 58.2353 125.039 57.842 125.279 57.3486C125.526 56.8553 125.649 56.3086 125.649 55.7086C125.649 55.102 125.526 54.552 125.279 54.0586C125.032 53.5653 124.689 53.1753 124.249 52.8886C123.816 52.5953 123.306 52.4486 122.719 52.4486C122.139 52.4486 121.609 52.5953 121.129 52.8886C120.649 53.182 120.269 53.5753 119.989 54.0686C119.709 54.562 119.569 55.1086 119.569 55.7086C119.569 56.3153 119.712 56.8653 119.999 57.3586C120.292 57.8453 120.676 58.2353 121.149 58.5286C121.629 58.8153 122.152 58.9586 122.719 58.9586ZM129.972 60.7086V45.7086H132.052V60.7086H129.972ZM134.445 60.7086V45.7086H136.525V60.7086H134.445ZM141.918 60.8986C141.391 60.8653 140.878 60.7586 140.378 60.5786C139.878 60.3986 139.438 60.1553 139.058 59.8486C138.684 59.5353 138.404 59.1686 138.218 58.7486L139.988 57.9886C140.074 58.1686 140.224 58.3453 140.438 58.5186C140.658 58.692 140.914 58.8353 141.208 58.9486C141.501 59.0553 141.808 59.1086 142.128 59.1086C142.441 59.1086 142.731 59.0653 142.998 58.9786C143.271 58.8853 143.494 58.7453 143.668 58.5586C143.841 58.372 143.928 58.1486 143.928 57.8886C143.928 57.5953 143.828 57.3686 143.628 57.2086C143.434 57.042 143.191 56.9153 142.898 56.8286C142.604 56.742 142.311 56.6586 142.018 56.5786C141.364 56.432 140.764 56.232 140.218 55.9786C139.678 55.7186 139.248 55.3886 138.928 54.9886C138.608 54.582 138.448 54.0853 138.448 53.4986C138.448 52.8586 138.621 52.3053 138.968 51.8386C139.314 51.3653 139.768 51.002 140.328 50.7486C140.894 50.4953 141.498 50.3686 142.138 50.3686C142.938 50.3686 143.671 50.5386 144.338 50.8786C145.004 51.2186 145.514 51.6853 145.868 52.2786L144.218 53.2586C144.118 53.0586 143.968 52.8786 143.768 52.7186C143.568 52.5586 143.341 52.432 143.088 52.3386C142.834 52.2386 142.571 52.182 142.298 52.1686C141.958 52.1553 141.641 52.1953 141.348 52.2886C141.061 52.3753 140.831 52.5153 140.658 52.7086C140.484 52.902 140.398 53.1486 140.398 53.4486C140.398 53.742 140.501 53.962 140.708 54.1086C140.914 54.2486 141.174 54.362 141.488 54.4486C141.808 54.5353 142.134 54.632 142.468 54.7386C143.061 54.9253 143.618 55.1553 144.138 55.4286C144.658 55.6953 145.078 56.0253 145.398 56.4186C145.718 56.812 145.871 57.292 145.858 57.8586C145.858 58.4853 145.668 59.0353 145.288 59.5086C144.914 59.982 144.428 60.342 143.828 60.5886C143.228 60.8353 142.591 60.9386 141.918 60.8986Z" fill="#0C1021"/>
<rect x="280.386" y="38.7086" width="141" height="30" rx="15" fill="#4268FF" fill-opacity="0.15"/>
<path d="M295.92 49.3086H296.964L300.024 57.7086H299.13L298.476 55.9086H294.414L293.76 57.7086H292.866L295.92 49.3086ZM294.72 55.0686H298.164L296.442 50.3406L294.72 55.0686ZM300.588 55.4106V51.7086H301.428V55.2426C301.428 55.5706 301.508 55.8686 301.668 56.1366C301.828 56.4046 302.042 56.6186 302.31 56.7786C302.582 56.9386 302.88 57.0186 303.204 57.0186C303.532 57.0186 303.828 56.9386 304.092 56.7786C304.36 56.6186 304.574 56.4046 304.734 56.1366C304.894 55.8686 304.974 55.5706 304.974 55.2426V51.7086H305.814L305.82 57.7086H304.98L304.974 56.8686C304.762 57.1726 304.486 57.4146 304.146 57.5946C303.81 57.7746 303.442 57.8646 303.042 57.8646C302.59 57.8646 302.178 57.7546 301.806 57.5346C301.434 57.3146 301.138 57.0186 300.918 56.6466C300.698 56.2746 300.588 55.8626 300.588 55.4106ZM310.082 52.5486H308.648L308.642 57.7086H307.802L307.808 52.5486H306.722V51.7086H307.808L307.802 49.8246H308.642L308.648 51.7086H310.082V52.5486ZM313.629 57.8646C313.077 57.8646 312.573 57.7226 312.117 57.4386C311.665 57.1546 311.303 56.7746 311.031 56.2986C310.763 55.8186 310.629 55.2886 310.629 54.7086C310.629 54.2686 310.707 53.8586 310.863 53.4786C311.019 53.0946 311.233 52.7586 311.505 52.4706C311.781 52.1786 312.101 51.9506 312.465 51.7866C312.829 51.6226 313.217 51.5406 313.629 51.5406C314.181 51.5406 314.683 51.6826 315.135 51.9666C315.591 52.2506 315.953 52.6326 316.221 53.1126C316.493 53.5926 316.629 54.1246 316.629 54.7086C316.629 55.1446 316.551 55.5526 316.395 55.9326C316.239 56.3126 316.023 56.6486 315.747 56.9406C315.475 57.2286 315.157 57.4546 314.793 57.6186C314.433 57.7826 314.045 57.8646 313.629 57.8646ZM313.629 57.0246C314.037 57.0246 314.403 56.9186 314.727 56.7066C315.055 56.4906 315.313 56.2066 315.501 55.8546C315.693 55.5026 315.789 55.1206 315.789 54.7086C315.789 54.2886 315.693 53.9026 315.501 53.5506C315.309 53.1946 315.049 52.9106 314.721 52.6986C314.397 52.4866 314.033 52.3806 313.629 52.3806C313.221 52.3806 312.853 52.4886 312.525 52.7046C312.201 52.9166 311.943 53.1986 311.751 53.5506C311.563 53.9026 311.469 54.2886 311.469 54.7086C311.469 55.1406 311.567 55.5326 311.763 55.8846C311.959 56.2326 312.221 56.5106 312.549 56.7186C312.877 56.9226 313.237 57.0246 313.629 57.0246ZM317.703 53.6886H321.543V54.5286H317.703V53.6886ZM324.843 57.8226C324.515 57.8146 324.195 57.7546 323.883 57.6426C323.571 57.5306 323.299 57.3786 323.067 57.1866C322.835 56.9946 322.669 56.7766 322.569 56.5326L323.295 56.2206C323.359 56.3766 323.477 56.5206 323.649 56.6526C323.825 56.7806 324.025 56.8846 324.249 56.9646C324.473 57.0406 324.695 57.0786 324.915 57.0786C325.159 57.0786 325.387 57.0386 325.599 56.9586C325.811 56.8786 325.983 56.7646 326.115 56.6166C326.251 56.4646 326.319 56.2866 326.319 56.0826C326.319 55.8626 326.247 55.6906 326.103 55.5666C325.959 55.4386 325.777 55.3386 325.557 55.2666C325.337 55.1906 325.111 55.1186 324.879 55.0506C324.455 54.9346 324.081 54.8066 323.757 54.6666C323.433 54.5266 323.179 54.3486 322.995 54.1326C322.815 53.9126 322.725 53.6306 322.725 53.2866C322.725 52.9226 322.827 52.6086 323.031 52.3446C323.239 52.0766 323.509 51.8706 323.841 51.7266C324.177 51.5786 324.535 51.5046 324.915 51.5046C325.403 51.5046 325.847 51.6106 326.247 51.8226C326.651 52.0346 326.943 52.3166 327.123 52.6686L326.445 53.0706C326.373 52.9066 326.259 52.7646 326.103 52.6446C325.947 52.5246 325.769 52.4306 325.569 52.3626C325.373 52.2946 325.173 52.2586 324.969 52.2546C324.713 52.2506 324.475 52.2886 324.255 52.3686C324.035 52.4446 323.857 52.5586 323.721 52.7106C323.589 52.8626 323.523 53.0486 323.523 53.2686C323.523 53.4886 323.589 53.6566 323.721 53.7726C323.853 53.8846 324.031 53.9766 324.255 54.0486C324.483 54.1166 324.739 54.1966 325.023 54.2886C325.387 54.4046 325.729 54.5366 326.049 54.6846C326.369 54.8326 326.627 55.0166 326.823 55.2366C327.019 55.4566 327.115 55.7346 327.111 56.0706C327.111 56.4306 327.003 56.7446 326.787 57.0126C326.571 57.2806 326.291 57.4866 325.947 57.6306C325.603 57.7706 325.235 57.8346 324.843 57.8226ZM332.382 56.2026L333.132 56.6106C332.86 56.9906 332.514 57.2946 332.094 57.5226C331.678 57.7506 331.226 57.8646 330.738 57.8646C330.186 57.8646 329.682 57.7226 329.226 57.4386C328.774 57.1546 328.412 56.7746 328.14 56.2986C327.872 55.8186 327.738 55.2886 327.738 54.7086C327.738 54.2686 327.816 53.8586 327.972 53.4786C328.128 53.0946 328.342 52.7586 328.614 52.4706C328.89 52.1786 329.21 51.9506 329.574 51.7866C329.938 51.6226 330.326 51.5406 330.738 51.5406C331.226 51.5406 331.678 51.6546 332.094 51.8826C332.514 52.1106 332.86 52.4166 333.132 52.8006L332.382 53.2026C332.174 52.9386 331.924 52.7366 331.632 52.5966C331.34 52.4526 331.042 52.3806 330.738 52.3806C330.334 52.3806 329.968 52.4886 329.64 52.7046C329.312 52.9166 329.052 53.1986 328.86 53.5506C328.672 53.9026 328.578 54.2886 328.578 54.7086C328.578 55.1286 328.674 55.5146 328.866 55.8666C329.062 56.2186 329.324 56.5006 329.652 56.7126C329.98 56.9206 330.342 57.0246 330.738 57.0246C331.066 57.0246 331.374 56.9486 331.662 56.7966C331.95 56.6446 332.19 56.4466 332.382 56.2026ZM339.065 51.7086H339.905V57.7086H339.065L339.035 56.5926C338.839 56.9726 338.565 57.2806 338.213 57.5166C337.861 57.7486 337.441 57.8646 336.953 57.8646C336.513 57.8646 336.101 57.7826 335.717 57.6186C335.333 57.4506 334.995 57.2206 334.703 56.9286C334.411 56.6366 334.183 56.2986 334.019 55.9146C333.855 55.5306 333.773 55.1186 333.773 54.6786C333.773 54.2466 333.853 53.8406 334.013 53.4606C334.177 53.0806 334.401 52.7466 334.685 52.4586C334.973 52.1706 335.305 51.9466 335.681 51.7866C336.061 51.6226 336.467 51.5406 336.899 51.5406C337.399 51.5406 337.835 51.6606 338.207 51.9006C338.579 52.1366 338.875 52.4466 339.095 52.8306L339.065 51.7086ZM336.935 57.0486C337.363 57.0486 337.731 56.9446 338.039 56.7366C338.347 56.5246 338.583 56.2406 338.747 55.8846C338.915 55.5286 338.999 55.1366 338.999 54.7086C338.999 54.2686 338.915 53.8726 338.747 53.5206C338.579 53.1646 338.341 52.8826 338.033 52.6746C337.725 52.4666 337.359 52.3626 336.935 52.3626C336.511 52.3626 336.123 52.4686 335.771 52.6806C335.423 52.8886 335.145 53.1706 334.937 53.5266C334.733 53.8826 334.631 54.2766 334.631 54.7086C334.631 55.1446 334.737 55.5406 334.949 55.8966C335.161 56.2486 335.441 56.5286 335.789 56.7366C336.141 56.9446 336.523 57.0486 336.935 57.0486ZM341.188 57.7086V48.7086H342.028V57.7086H341.188ZM346.066 57.8646C345.514 57.8646 345.01 57.7226 344.554 57.4386C344.102 57.1546 343.74 56.7746 343.468 56.2986C343.2 55.8186 343.066 55.2886 343.066 54.7086C343.066 54.2686 343.144 53.8586 343.3 53.4786C343.456 53.0946 343.67 52.7586 343.942 52.4706C344.218 52.1786 344.538 51.9506 344.902 51.7866C345.266 51.6226 345.654 51.5406 346.066 51.5406C346.51 51.5406 346.918 51.6286 347.29 51.8046C347.666 51.9806 347.988 52.2266 348.256 52.5426C348.528 52.8586 348.732 53.2286 348.868 53.6526C349.008 54.0766 349.066 54.5346 349.042 55.0266H343.954C344.002 55.4066 344.122 55.7466 344.314 56.0466C344.51 56.3466 344.758 56.5846 345.058 56.7606C345.362 56.9326 345.698 57.0206 346.066 57.0246C346.466 57.0246 346.826 56.9206 347.146 56.7126C347.47 56.5046 347.73 56.2186 347.926 55.8546L348.778 56.0526C348.538 56.5846 348.176 57.0206 347.692 57.3606C347.208 57.6966 346.666 57.8646 346.066 57.8646ZM343.93 54.3486H348.196C348.168 53.9766 348.054 53.6366 347.854 53.3286C347.658 53.0166 347.404 52.7686 347.092 52.5846C346.78 52.3966 346.438 52.3026 346.066 52.3026C345.694 52.3026 345.354 52.3946 345.046 52.5786C344.738 52.7586 344.486 53.0046 344.29 53.3166C344.094 53.6246 343.974 53.9686 343.93 54.3486ZM354.95 48.7086H355.79V57.7086H354.95V56.5866C354.742 56.9706 354.456 57.2806 354.092 57.5166C353.732 57.7486 353.304 57.8646 352.808 57.8646C352.372 57.8646 351.964 57.7826 351.584 57.6186C351.204 57.4546 350.868 57.2286 350.576 56.9406C350.288 56.6486 350.062 56.3126 349.898 55.9326C349.734 55.5526 349.652 55.1446 349.652 54.7086C349.652 54.2726 349.734 53.8646 349.898 53.4846C350.062 53.1006 350.288 52.7646 350.576 52.4766C350.868 52.1846 351.204 51.9566 351.584 51.7926C351.964 51.6286 352.372 51.5466 352.808 51.5466C353.304 51.5466 353.732 51.6646 354.092 51.9006C354.456 52.1326 354.742 52.4386 354.95 52.8186V48.7086ZM352.814 57.0486C353.242 57.0486 353.61 56.9446 353.918 56.7366C354.226 56.5246 354.462 56.2406 354.626 55.8846C354.794 55.5286 354.878 55.1366 354.878 54.7086C354.878 54.2686 354.794 53.8726 354.626 53.5206C354.458 53.1646 354.22 52.8826 353.912 52.6746C353.604 52.4666 353.238 52.3626 352.814 52.3626C352.39 52.3626 352.004 52.4686 351.656 52.6806C351.308 52.8886 351.03 53.1706 350.822 53.5266C350.614 53.8826 350.51 54.2766 350.51 54.7086C350.51 55.1446 350.616 55.5406 350.828 55.8966C351.04 56.2486 351.32 56.5286 351.668 56.7366C352.02 56.9446 352.402 57.0486 352.814 57.0486ZM362.928 49.3086H363.972L367.032 57.7086H366.138L365.484 55.9086H361.422L360.768 57.7086H359.874L362.928 49.3086ZM361.728 55.0686H365.172L363.45 50.3406L361.728 55.0686ZM368.333 57.7086V49.3086H369.173V57.7086H368.333ZM378.604 51.7086H379.444V57.7086H378.604L378.574 56.5926C378.378 56.9726 378.104 57.2806 377.752 57.5166C377.4 57.7486 376.98 57.8646 376.492 57.8646C376.052 57.8646 375.64 57.7826 375.256 57.6186C374.872 57.4506 374.534 57.2206 374.242 56.9286C373.95 56.6366 373.722 56.2986 373.558 55.9146C373.394 55.5306 373.312 55.1186 373.312 54.6786C373.312 54.2466 373.392 53.8406 373.552 53.4606C373.716 53.0806 373.94 52.7466 374.224 52.4586C374.512 52.1706 374.844 51.9466 375.22 51.7866C375.6 51.6226 376.006 51.5406 376.438 51.5406C376.938 51.5406 377.374 51.6606 377.746 51.9006C378.118 52.1366 378.414 52.4466 378.634 52.8306L378.604 51.7086ZM376.474 57.0486C376.902 57.0486 377.27 56.9446 377.578 56.7366C377.886 56.5246 378.122 56.2406 378.286 55.8846C378.454 55.5286 378.538 55.1366 378.538 54.7086C378.538 54.2686 378.454 53.8726 378.286 53.5206C378.118 53.1646 377.88 52.8826 377.572 52.6746C377.264 52.4666 376.898 52.3626 376.474 52.3626C376.05 52.3626 375.662 52.4686 375.31 52.6806C374.962 52.8886 374.684 53.1706 374.476 53.5266C374.272 53.8826 374.17 54.2766 374.17 54.7086C374.17 55.1446 374.276 55.5406 374.488 55.8966C374.7 56.2486 374.98 56.5286 375.328 56.7366C375.68 56.9446 376.062 57.0486 376.474 57.0486ZM385.298 51.7086H386.138V57.9306C386.138 58.3146 386.054 58.6746 385.886 59.0106C385.722 59.3466 385.498 59.6406 385.214 59.8926C384.934 60.1486 384.614 60.3486 384.254 60.4926C383.894 60.6366 383.52 60.7086 383.132 60.7086C382.716 60.7086 382.314 60.6126 381.926 60.4206C381.538 60.2326 381.2 59.9806 380.912 59.6646C380.628 59.3486 380.426 58.9986 380.306 58.6146L381.08 58.2606C381.156 58.5606 381.298 58.8306 381.506 59.0706C381.718 59.3146 381.966 59.5066 382.25 59.6466C382.538 59.7906 382.832 59.8626 383.132 59.8626C383.408 59.8626 383.674 59.8106 383.93 59.7066C384.19 59.6066 384.422 59.4686 384.626 59.2926C384.834 59.1166 384.998 58.9106 385.118 58.6746C385.238 58.4426 385.298 58.1946 385.298 57.9306V56.6046C385.09 56.9806 384.808 57.2846 384.452 57.5166C384.1 57.7486 383.69 57.8646 383.222 57.8646C382.802 57.8646 382.406 57.7826 382.034 57.6186C381.666 57.4546 381.342 57.2286 381.062 56.9406C380.782 56.6486 380.562 56.3126 380.402 55.9326C380.246 55.5526 380.168 55.1446 380.168 54.7086C380.168 54.2726 380.246 53.8646 380.402 53.4846C380.562 53.1006 380.782 52.7646 381.062 52.4766C381.342 52.1846 381.666 51.9566 382.034 51.7926C382.406 51.6286 382.802 51.5466 383.222 51.5466C383.69 51.5466 384.1 51.6626 384.452 51.8946C384.808 52.1226 385.09 52.4266 385.298 52.8066V51.7086ZM383.228 57.0486C383.644 57.0486 384.002 56.9406 384.302 56.7246C384.606 56.5086 384.84 56.2226 385.004 55.8666C385.168 55.5106 385.25 55.1246 385.25 54.7086C385.25 54.2806 385.166 53.8906 384.998 53.5386C384.834 53.1826 384.6 52.8986 384.296 52.6866C383.992 52.4706 383.636 52.3626 383.228 52.3626C382.82 52.3626 382.448 52.4686 382.112 52.6806C381.78 52.8886 381.516 53.1706 381.32 53.5266C381.124 53.8826 381.026 54.2766 381.026 54.7086C381.026 55.1406 381.126 55.5346 381.326 55.8906C381.526 56.2426 381.792 56.5246 382.124 56.7366C382.46 56.9446 382.828 57.0486 383.228 57.0486ZM390.164 57.8646C389.612 57.8646 389.108 57.7226 388.652 57.4386C388.2 57.1546 387.838 56.7746 387.566 56.2986C387.298 55.8186 387.164 55.2886 387.164 54.7086C387.164 54.2686 387.242 53.8586 387.398 53.4786C387.554 53.0946 387.768 52.7586 388.04 52.4706C388.316 52.1786 388.636 51.9506 389 51.7866C389.364 51.6226 389.752 51.5406 390.164 51.5406C390.608 51.5406 391.016 51.6286 391.388 51.8046C391.764 51.9806 392.086 52.2266 392.354 52.5426C392.626 52.8586 392.83 53.2286 392.966 53.6526C393.106 54.0766 393.164 54.5346 393.14 55.0266H388.052C388.1 55.4066 388.22 55.7466 388.412 56.0466C388.608 56.3466 388.856 56.5846 389.156 56.7606C389.46 56.9326 389.796 57.0206 390.164 57.0246C390.564 57.0246 390.924 56.9206 391.244 56.7126C391.568 56.5046 391.828 56.2186 392.024 55.8546L392.876 56.0526C392.636 56.5846 392.274 57.0206 391.79 57.3606C391.306 57.6966 390.764 57.8646 390.164 57.8646ZM388.028 54.3486H392.294C392.266 53.9766 392.152 53.6366 391.952 53.3286C391.756 53.0166 391.502 52.7686 391.19 52.5846C390.878 52.3966 390.536 52.3026 390.164 52.3026C389.792 52.3026 389.452 52.3946 389.144 52.5786C388.836 52.7586 388.584 53.0046 388.388 53.3166C388.192 53.6246 388.072 53.9686 388.028 54.3486ZM399.4 53.9946V57.7086H398.56V54.1626C398.56 53.8346 398.48 53.5366 398.32 53.2686C398.16 53.0006 397.946 52.7866 397.678 52.6266C397.41 52.4666 397.112 52.3866 396.784 52.3866C396.46 52.3866 396.162 52.4666 395.89 52.6266C395.622 52.7866 395.408 53.0006 395.248 53.2686C395.088 53.5366 395.008 53.8346 395.008 54.1626V57.7086H394.168V51.7086H395.008V52.5366C395.22 52.2326 395.496 51.9906 395.836 51.8106C396.176 51.6306 396.546 51.5406 396.946 51.5406C397.398 51.5406 397.81 51.6506 398.182 51.8706C398.554 52.0906 398.85 52.3866 399.07 52.7586C399.29 53.1306 399.4 53.5426 399.4 53.9946ZM403.668 52.5486H402.234L402.228 57.7086H401.388L401.394 52.5486H400.308V51.7086H401.394L401.388 49.8246H402.228L402.234 51.7086H403.668V52.5486ZM406.546 57.8226C406.218 57.8146 405.898 57.7546 405.586 57.6426C405.274 57.5306 405.002 57.3786 404.77 57.1866C404.538 56.9946 404.372 56.7766 404.272 56.5326L404.998 56.2206C405.062 56.3766 405.18 56.5206 405.352 56.6526C405.528 56.7806 405.728 56.8846 405.952 56.9646C406.176 57.0406 406.398 57.0786 406.618 57.0786C406.862 57.0786 407.09 57.0386 407.302 56.9586C407.514 56.8786 407.686 56.7646 407.818 56.6166C407.954 56.4646 408.022 56.2866 408.022 56.0826C408.022 55.8626 407.95 55.6906 407.806 55.5666C407.662 55.4386 407.48 55.3386 407.26 55.2666C407.04 55.1906 406.814 55.1186 406.582 55.0506C406.158 54.9346 405.784 54.8066 405.46 54.6666C405.136 54.5266 404.882 54.3486 404.698 54.1326C404.518 53.9126 404.428 53.6306 404.428 53.2866C404.428 52.9226 404.53 52.6086 404.734 52.3446C404.942 52.0766 405.212 51.8706 405.544 51.7266C405.88 51.5786 406.238 51.5046 406.618 51.5046C407.106 51.5046 407.55 51.6106 407.95 51.8226C408.354 52.0346 408.646 52.3166 408.826 52.6686L408.148 53.0706C408.076 52.9066 407.962 52.7646 407.806 52.6446C407.65 52.5246 407.472 52.4306 407.272 52.3626C407.076 52.2946 406.876 52.2586 406.672 52.2546C406.416 52.2506 406.178 52.2886 405.958 52.3686C405.738 52.4446 405.56 52.5586 405.424 52.7106C405.292 52.8626 405.226 53.0486 405.226 53.2686C405.226 53.4886 405.292 53.6566 405.424 53.7726C405.556 53.8846 405.734 53.9766 405.958 54.0486C406.186 54.1166 406.442 54.1966 406.726 54.2886C407.09 54.4046 407.432 54.5366 407.752 54.6846C408.072 54.8326 408.33 55.0166 408.526 55.2366C408.722 55.4566 408.818 55.7346 408.814 56.0706C408.814 56.4306 408.706 56.7446 408.49 57.0126C408.274 57.2806 407.994 57.4866 407.65 57.6306C407.306 57.7706 406.938 57.8346 406.546 57.8226Z" fill="#4268FF"/>
<rect x="42.3857" y="92.7086" width="35" height="38" rx="17.5" fill="white"/>
<rect x="42.8857" y="93.2086" width="34" height="37" rx="17" stroke="#2D2D2D" stroke-opacity="0.1"/>
<path d="M59.7767 117.943C59.0267 117.943 58.3547 117.775 57.7607 117.439C57.1667 117.097 56.6567 116.626 56.2307 116.026C55.8047 115.426 55.4807 114.733 55.2587 113.947C55.0367 113.155 54.9257 112.309 54.9257 111.409C54.9257 110.509 55.0367 109.663 55.2587 108.871C55.4807 108.079 55.8047 107.386 56.2307 106.792C56.6567 106.192 57.1667 105.724 57.7607 105.388C58.3547 105.046 59.0267 104.875 59.7767 104.875C60.5207 104.875 61.1897 105.046 61.7837 105.388C62.3837 105.724 62.8907 106.192 63.3047 106.792C63.7247 107.386 64.0457 108.079 64.2677 108.871C64.4957 109.663 64.6097 110.509 64.6097 111.409C64.6097 112.309 64.4957 113.155 64.2677 113.947C64.0457 114.733 63.7247 115.426 63.3047 116.026C62.8907 116.626 62.3837 117.097 61.7837 117.439C61.1897 117.775 60.5207 117.943 59.7767 117.943ZM59.7767 116.431C60.5267 116.431 61.1537 116.2 61.6577 115.738C62.1677 115.27 62.5487 114.655 62.8007 113.893C63.0527 113.131 63.1787 112.303 63.1787 111.409C63.1787 110.467 63.0467 109.618 62.7827 108.862C62.5247 108.1 62.1407 107.497 61.6307 107.053C61.1267 106.609 60.5087 106.387 59.7767 106.387C59.2007 106.387 58.6967 106.522 58.2647 106.792C57.8387 107.062 57.4847 107.431 57.2027 107.899C56.9207 108.367 56.7077 108.904 56.5637 109.51C56.4257 110.11 56.3567 110.743 56.3567 111.409C56.3567 112.303 56.4857 113.134 56.7437 113.902C57.0017 114.664 57.3827 115.276 57.8867 115.738C58.3967 116.2 59.0267 116.431 59.7767 116.431Z" fill="#0C1021"/>
<rect x="128.386" y="135.709" width="55" height="38" rx="19" fill="white"/>
<rect x="128.886" y="136.209" width="54" height="37" rx="18.5" stroke="#2D2D2D" stroke-opacity="0.1"/>
<path d="M141.106 160.709V159.368C141.568 158.954 142.087 158.492 142.663 157.982C143.239 157.466 143.812 156.929 144.382 156.371C144.958 155.807 145.486 155.249 145.966 154.697C146.446 154.145 146.833 153.623 147.127 153.131C147.421 152.633 147.568 152.198 147.568 151.826C147.568 151.382 147.46 150.977 147.244 150.611C147.028 150.239 146.737 149.942 146.371 149.72C146.011 149.498 145.609 149.387 145.165 149.387C144.721 149.387 144.313 149.498 143.941 149.72C143.575 149.942 143.281 150.239 143.059 150.611C142.843 150.977 142.735 151.382 142.735 151.826H141.223C141.223 151.088 141.403 150.422 141.763 149.828C142.123 149.228 142.6 148.754 143.194 148.406C143.788 148.052 144.445 147.875 145.165 147.875C145.885 147.875 146.539 148.052 147.127 148.406C147.721 148.76 148.195 149.237 148.549 149.837C148.903 150.431 149.08 151.094 149.08 151.826C149.08 152.246 148.978 152.699 148.774 153.185C148.57 153.665 148.291 154.16 147.937 154.67C147.583 155.18 147.181 155.696 146.731 156.218C146.281 156.734 145.807 157.244 145.309 157.748C144.811 158.252 144.316 158.735 143.824 159.197H149.242V160.709H141.106ZM155.132 160.943C154.352 160.943 153.644 160.754 153.008 160.376C152.372 159.998 151.868 159.494 151.496 158.864C151.13 158.228 150.947 157.529 150.947 156.767H152.459C152.459 157.253 152.579 157.7 152.819 158.108C153.059 158.51 153.38 158.831 153.782 159.071C154.19 159.311 154.64 159.431 155.132 159.431C155.618 159.431 156.062 159.311 156.464 159.071C156.866 158.831 157.187 158.51 157.427 158.108C157.667 157.7 157.787 157.253 157.787 156.767C157.787 156.281 157.673 155.834 157.445 155.426C157.223 155.018 156.896 154.694 156.464 154.454C156.032 154.208 155.507 154.085 154.889 154.085H151.784L153.008 148.109H158.984V149.621H154.232L153.647 152.573L154.952 152.582C155.81 152.6 156.563 152.792 157.211 153.158C157.865 153.518 158.375 154.01 158.741 154.634C159.113 155.252 159.299 155.963 159.299 156.767C159.299 157.337 159.191 157.877 158.975 158.387C158.759 158.891 158.459 159.335 158.075 159.719C157.691 160.103 157.247 160.403 156.743 160.619C156.245 160.835 155.708 160.943 155.132 160.943ZM165.218 160.943C164.468 160.943 163.796 160.775 163.202 160.439C162.608 160.097 162.098 159.626 161.672 159.026C161.246 158.426 160.922 157.733 160.7 156.947C160.478 156.155 160.367 155.309 160.367 154.409C160.367 153.509 160.478 152.663 160.7 151.871C160.922 151.079 161.246 150.386 161.672 149.792C162.098 149.192 162.608 148.724 163.202 148.388C163.796 148.046 164.468 147.875 165.218 147.875C165.962 147.875 166.631 148.046 167.225 148.388C167.825 148.724 168.332 149.192 168.746 149.792C169.166 150.386 169.487 151.079 169.709 151.871C169.937 152.663 170.051 153.509 170.051 154.409C170.051 155.309 169.937 156.155 169.709 156.947C169.487 157.733 169.166 158.426 168.746 159.026C168.332 159.626 167.825 160.097 167.225 160.439C166.631 160.775 165.962 160.943 165.218 160.943ZM165.218 159.431C165.968 159.431 166.595 159.2 167.099 158.738C167.609 158.27 167.99 157.655 168.242 156.893C168.494 156.131 168.62 155.303 168.62 154.409C168.62 153.467 168.488 152.618 168.224 151.862C167.966 151.1 167.582 150.497 167.072 150.053C166.568 149.609 165.95 149.387 165.218 149.387C164.642 149.387 164.138 149.522 163.706 149.792C163.28 150.062 162.926 150.431 162.644 150.899C162.362 151.367 162.149 151.904 162.005 152.51C161.867 153.11 161.798 153.743 161.798 154.409C161.798 155.303 161.927 156.134 162.185 156.902C162.443 157.664 162.824 158.276 163.328 158.738C163.838 159.2 164.468 159.431 165.218 159.431Z" fill="#0C1021"/>
<rect x="231.386" y="95.7086" width="64" height="38" rx="19" fill="white"/>
<rect x="231.886" y="96.2086" width="63" height="37" rx="18.5" stroke="#2D2D2D" stroke-opacity="0.1"/>
<path d="M245.519 120.709V109.621H244.106L244.529 108.109H247.031V120.709H245.519ZM249.186 121.717L249.744 118.675H251.256L250.194 121.717H249.186ZM253.053 120.709V119.368C253.515 118.954 254.034 118.492 254.61 117.982C255.186 117.466 255.759 116.929 256.329 116.371C256.905 115.807 257.433 115.249 257.913 114.697C258.393 114.145 258.78 113.623 259.074 113.131C259.368 112.633 259.515 112.198 259.515 111.826C259.515 111.382 259.407 110.977 259.191 110.611C258.975 110.239 258.684 109.942 258.318 109.72C257.958 109.498 257.556 109.387 257.112 109.387C256.668 109.387 256.26 109.498 255.888 109.72C255.522 109.942 255.228 110.239 255.006 110.611C254.79 110.977 254.682 111.382 254.682 111.826H253.17C253.17 111.088 253.35 110.422 253.71 109.828C254.07 109.228 254.547 108.754 255.141 108.406C255.735 108.052 256.392 107.875 257.112 107.875C257.832 107.875 258.486 108.052 259.074 108.406C259.668 108.76 260.142 109.237 260.496 109.837C260.85 110.431 261.027 111.094 261.027 111.826C261.027 112.246 260.925 112.699 260.721 113.185C260.517 113.665 260.238 114.16 259.884 114.67C259.53 115.18 259.128 115.696 258.678 116.218C258.228 116.734 257.754 117.244 257.256 117.748C256.758 118.252 256.263 118.735 255.771 119.197H261.189V120.709H253.053ZM267.199 120.943C266.449 120.943 265.777 120.775 265.183 120.439C264.589 120.097 264.079 119.626 263.653 119.026C263.227 118.426 262.903 117.733 262.681 116.947C262.459 116.155 262.348 115.309 262.348 114.409C262.348 113.509 262.459 112.663 262.681 111.871C262.903 111.079 263.227 110.386 263.653 109.792C264.079 109.192 264.589 108.724 265.183 108.388C265.777 108.046 266.449 107.875 267.199 107.875C267.943 107.875 268.612 108.046 269.206 108.388C269.806 108.724 270.313 109.192 270.727 109.792C271.147 110.386 271.468 111.079 271.69 111.871C271.918 112.663 272.032 113.509 272.032 114.409C272.032 115.309 271.918 116.155 271.69 116.947C271.468 117.733 271.147 118.426 270.727 119.026C270.313 119.626 269.806 120.097 269.206 120.439C268.612 120.775 267.943 120.943 267.199 120.943ZM267.199 119.431C267.949 119.431 268.576 119.2 269.08 118.738C269.59 118.27 269.971 117.655 270.223 116.893C270.475 116.131 270.601 115.303 270.601 114.409C270.601 113.467 270.469 112.618 270.205 111.862C269.947 111.1 269.563 110.497 269.053 110.053C268.549 109.609 267.931 109.387 267.199 109.387C266.623 109.387 266.119 109.522 265.687 109.792C265.261 110.062 264.907 110.431 264.625 110.899C264.343 111.367 264.13 111.904 263.986 112.51C263.848 113.11 263.779 113.743 263.779 114.409C263.779 115.303 263.908 116.134 264.166 116.902C264.424 117.664 264.805 118.276 265.309 118.738C265.819 119.2 266.449 119.431 267.199 119.431ZM277.71 120.943C276.96 120.943 276.288 120.775 275.694 120.439C275.1 120.097 274.59 119.626 274.164 119.026C273.738 118.426 273.414 117.733 273.192 116.947C272.97 116.155 272.859 115.309 272.859 114.409C272.859 113.509 272.97 112.663 273.192 111.871C273.414 111.079 273.738 110.386 274.164 109.792C274.59 109.192 275.1 108.724 275.694 108.388C276.288 108.046 276.96 107.875 277.71 107.875C278.454 107.875 279.123 108.046 279.717 108.388C280.317 108.724 280.824 109.192 281.238 109.792C281.658 110.386 281.979 111.079 282.201 111.871C282.429 112.663 282.543 113.509 282.543 114.409C282.543 115.309 282.429 116.155 282.201 116.947C281.979 117.733 281.658 118.426 281.238 119.026C280.824 119.626 280.317 120.097 279.717 120.439C279.123 120.775 278.454 120.943 277.71 120.943ZM277.71 119.431C278.46 119.431 279.087 119.2 279.591 118.738C280.101 118.27 280.482 117.655 280.734 116.893C280.986 116.131 281.112 115.303 281.112 114.409C281.112 113.467 280.98 112.618 280.716 111.862C280.458 111.1 280.074 110.497 279.564 110.053C279.06 109.609 278.442 109.387 277.71 109.387C277.134 109.387 276.63 109.522 276.198 109.792C275.772 110.062 275.418 110.431 275.136 110.899C274.854 111.367 274.641 111.904 274.497 112.51C274.359 113.11 274.29 113.743 274.29 114.409C274.29 115.303 274.419 116.134 274.677 116.902C274.935 117.664 275.316 118.276 275.82 118.738C276.33 119.2 276.96 119.431 277.71 119.431Z" fill="#0C1021"/>
<rect x="348.386" y="119.709" width="68" height="38" rx="19" fill="white"/>
<rect x="348.886" y="120.209" width="67" height="37" rx="18.5" stroke="#2D2D2D" stroke-opacity="0.1"/>
<path d="M364.85 144.943C364.088 144.943 363.41 144.772 362.816 144.43C362.228 144.082 361.766 143.62 361.43 143.044C361.094 142.462 360.926 141.817 360.926 141.109H362.438C362.438 141.535 362.537 141.925 362.735 142.279C362.933 142.627 363.212 142.906 363.572 143.116C363.932 143.326 364.358 143.431 364.85 143.431C365.276 143.431 365.672 143.326 366.038 143.116C366.41 142.906 366.71 142.627 366.938 142.279C367.166 141.925 367.28 141.535 367.28 141.109C367.28 140.575 367.142 140.131 366.866 139.777C366.596 139.417 366.218 139.15 365.732 138.976C365.252 138.796 364.703 138.706 364.085 138.706V137.491C364.937 137.491 365.618 137.314 366.128 136.96C366.644 136.606 366.902 136.084 366.902 135.394C366.902 135.028 366.803 134.692 366.605 134.386C366.407 134.08 366.146 133.837 365.822 133.657C365.504 133.471 365.162 133.378 364.796 133.378C364.424 133.378 364.067 133.471 363.725 133.657C363.383 133.837 363.104 134.08 362.888 134.386C362.672 134.692 362.564 135.028 362.564 135.394H361.052C361.052 134.908 361.151 134.452 361.349 134.026C361.553 133.6 361.829 133.225 362.177 132.901C362.531 132.577 362.93 132.325 363.374 132.145C363.818 131.959 364.286 131.866 364.778 131.866C365.42 131.866 366.017 132.025 366.569 132.343C367.121 132.661 367.565 133.087 367.901 133.621C368.243 134.155 368.414 134.746 368.414 135.394C368.414 135.976 368.267 136.513 367.973 137.005C367.679 137.497 367.28 137.842 366.776 138.04C367.214 138.19 367.583 138.424 367.883 138.742C368.183 139.054 368.408 139.414 368.558 139.822C368.714 140.23 368.792 140.659 368.792 141.109C368.792 141.811 368.609 142.453 368.243 143.035C367.883 143.617 367.403 144.082 366.803 144.43C366.209 144.772 365.558 144.943 364.85 144.943ZM370.053 145.717L370.611 142.675H372.123L371.061 145.717H370.053ZM379.338 144.709V141.307H373.92V139.777L378.96 132.109H380.85V139.795H382.101V141.307H380.85V144.709H379.338ZM375.693 139.777L379.338 139.795L379.311 134.233L375.693 139.777ZM387.964 144.943C387.214 144.943 386.53 144.772 385.912 144.43C385.3 144.088 384.811 143.632 384.445 143.062C384.085 142.486 383.905 141.85 383.905 141.154C383.905 140.506 384.076 139.912 384.418 139.372C384.76 138.826 385.207 138.394 385.759 138.076C385.309 137.788 384.937 137.407 384.643 136.933C384.355 136.453 384.211 135.934 384.211 135.376C384.211 134.728 384.379 134.14 384.715 133.612C385.057 133.084 385.51 132.664 386.074 132.352C386.644 132.034 387.274 131.875 387.964 131.875C388.654 131.875 389.281 132.034 389.845 132.352C390.415 132.664 390.868 133.084 391.204 133.612C391.546 134.14 391.717 134.728 391.717 135.376C391.717 135.934 391.573 136.453 391.285 136.933C390.997 137.407 390.622 137.788 390.16 138.076C390.73 138.394 391.183 138.826 391.519 139.372C391.861 139.912 392.032 140.506 392.032 141.154C392.032 141.844 391.849 142.477 391.483 143.053C391.117 143.629 390.625 144.088 390.007 144.43C389.395 144.772 388.714 144.943 387.964 144.943ZM387.964 143.431C388.42 143.431 388.831 143.329 389.197 143.125C389.569 142.921 389.866 142.648 390.088 142.306C390.31 141.958 390.421 141.574 390.421 141.154C390.421 140.728 390.31 140.344 390.088 140.002C389.866 139.66 389.569 139.387 389.197 139.183C388.831 138.979 388.42 138.877 387.964 138.877C387.514 138.877 387.103 138.979 386.731 139.183C386.359 139.387 386.062 139.66 385.84 140.002C385.618 140.344 385.507 140.728 385.507 141.154C385.507 141.574 385.618 141.958 385.84 142.306C386.062 142.648 386.359 142.921 386.731 143.125C387.103 143.329 387.514 143.431 387.964 143.431ZM387.964 137.365C388.36 137.365 388.72 137.275 389.044 137.095C389.368 136.915 389.626 136.675 389.818 136.375C390.016 136.075 390.115 135.742 390.115 135.376C390.115 135.004 390.016 134.671 389.818 134.377C389.626 134.077 389.368 133.837 389.044 133.657C388.72 133.477 388.36 133.387 387.964 133.387C387.568 133.387 387.208 133.477 386.884 133.657C386.56 133.837 386.299 134.077 386.101 134.377C385.909 134.671 385.813 135.004 385.813 135.376C385.813 135.742 385.909 136.075 386.101 136.375C386.299 136.675 386.56 136.915 386.884 137.095C387.208 137.275 387.568 137.365 387.964 137.365ZM398.138 144.943C397.388 144.943 396.716 144.775 396.122 144.439C395.528 144.097 395.018 143.626 394.592 143.026C394.166 142.426 393.842 141.733 393.62 140.947C393.398 140.155 393.287 139.309 393.287 138.409C393.287 137.509 393.398 136.663 393.62 135.871C393.842 135.079 394.166 134.386 394.592 133.792C395.018 133.192 395.528 132.724 396.122 132.388C396.716 132.046 397.388 131.875 398.138 131.875C398.882 131.875 399.551 132.046 400.145 132.388C400.745 132.724 401.252 133.192 401.666 133.792C402.086 134.386 402.407 135.079 402.629 135.871C402.857 136.663 402.971 137.509 402.971 138.409C402.971 139.309 402.857 140.155 402.629 140.947C402.407 141.733 402.086 142.426 401.666 143.026C401.252 143.626 400.745 144.097 400.145 144.439C399.551 144.775 398.882 144.943 398.138 144.943ZM398.138 143.431C398.888 143.431 399.515 143.2 400.019 142.738C400.529 142.27 400.91 141.655 401.162 140.893C401.414 140.131 401.54 139.303 401.54 138.409C401.54 137.467 401.408 136.618 401.144 135.862C400.886 135.1 400.502 134.497 399.992 134.053C399.488 133.609 398.87 133.387 398.138 133.387C397.562 133.387 397.058 133.522 396.626 133.792C396.2 134.062 395.846 134.431 395.564 134.899C395.282 135.367 395.069 135.904 394.925 136.51C394.787 137.11 394.718 137.743 394.718 138.409C394.718 139.303 394.847 140.134 395.105 140.902C395.363 141.664 395.744 142.276 396.248 142.738C396.758 143.2 397.388 143.431 398.138 143.431Z" fill="#0C1021"/>
<path d="M74.7191 111.709C74.7191 113.181 75.913 114.375 77.3857 114.375C78.8585 114.375 80.0524 113.181 80.0524 111.709C80.0524 110.236 78.8585 109.042 77.3857 109.042C75.913 109.042 74.7191 110.236 74.7191 111.709ZM125.739 155.062C125.935 154.867 125.935 154.55 125.739 154.355L122.557 151.173C122.362 150.978 122.045 150.978 121.85 151.173C121.655 151.368 121.655 151.685 121.85 151.88L124.679 154.709L121.85 157.537C121.655 157.732 121.655 158.049 121.85 158.244C122.045 158.439 122.362 158.439 122.557 158.244L125.739 155.062ZM78.9857 112.209C79.2619 112.209 79.4857 111.985 79.4857 111.709C79.4857 111.432 79.2619 111.209 78.9857 111.209V111.709V112.209ZM80.5857 111.209C80.3096 111.209 80.0857 111.432 80.0857 111.709C80.0857 111.985 80.3096 112.209 80.5857 112.209V111.709V111.209ZM84.1292 112.386C84.403 112.422 84.6539 112.229 84.6896 111.955C84.7254 111.681 84.5323 111.43 84.2585 111.395L84.1938 111.89L84.1292 112.386ZM89.8072 112.878C89.5521 112.772 89.2596 112.893 89.1538 113.149C89.048 113.404 89.1691 113.696 89.4242 113.802L89.6157 113.34L89.8072 112.878ZM94.1699 116.547C94.3889 116.715 94.7028 116.674 94.8711 116.455C95.0393 116.236 94.9982 115.922 94.7793 115.754L94.4746 116.151L94.1699 116.547ZM98.8403 119.815C98.672 119.596 98.3581 119.555 98.1392 119.723C97.9202 119.892 97.8791 120.205 98.0474 120.424L98.4438 120.12L98.8403 119.815ZM100.792 125.17C100.898 125.425 101.191 125.546 101.446 125.441C101.701 125.335 101.822 125.042 101.716 124.787L101.254 124.979L100.792 125.17ZM103.2 130.336C103.164 130.062 102.913 129.869 102.639 129.905C102.366 129.94 102.173 130.191 102.208 130.465L102.704 130.401L103.2 130.336ZM102.572 136.081C102.607 136.355 102.858 136.548 103.132 136.513C103.406 136.477 103.599 136.226 103.563 135.952L103.067 136.017L102.572 136.081ZM104.979 141.247C104.873 140.992 104.581 140.871 104.326 140.977C104.071 141.082 103.95 141.375 104.055 141.63L104.517 141.439L104.979 141.247ZM106.931 146.602C107.099 146.821 107.413 146.862 107.632 146.694C107.851 146.526 107.892 146.212 107.724 145.993L107.328 146.297L106.931 146.602ZM111.602 149.87C111.383 149.702 111.069 149.743 110.9 149.962C110.732 150.181 110.773 150.495 110.992 150.663L111.297 150.267L111.602 149.87ZM115.964 153.539C116.219 153.645 116.512 153.524 116.618 153.269C116.723 153.014 116.602 152.721 116.347 152.615L116.156 153.077L115.964 153.539ZM121.642 154.031C121.368 153.995 121.118 154.188 121.082 154.462C121.046 154.736 121.239 154.987 121.513 155.023L121.578 154.527L121.642 154.031ZM124.586 155.209C124.862 155.209 125.086 154.985 125.086 154.709C125.086 154.432 124.862 154.209 124.586 154.209V154.709V155.209ZM124.986 154.209C124.71 154.209 124.486 154.432 124.486 154.709C124.486 154.985 124.71 155.209 124.986 155.209V154.709V154.209ZM77.3857 111.709V112.209H78.9857V111.709V111.209H77.3857V111.709ZM80.5857 111.709V112.209H81.3857V111.709V111.209H80.5857V111.709ZM81.3857 111.709V112.209C82.3158 112.209 83.2315 112.269 84.1292 112.386L84.1938 111.89L84.2585 111.395C83.3181 111.272 82.3592 111.209 81.3857 111.209V111.709ZM89.6157 113.34L89.4242 113.802C91.1311 114.51 92.7247 115.436 94.1699 116.547L94.4746 116.151L94.7793 115.754C93.2656 114.591 91.596 113.62 89.8072 112.878L89.6157 113.34ZM98.4438 120.12L98.0474 120.424C99.158 121.87 100.085 123.463 100.792 125.17L101.254 124.979L101.716 124.787C100.974 122.998 100.004 121.329 98.8403 119.815L98.4438 120.12ZM102.704 130.401L102.208 130.465C102.325 131.363 102.386 132.279 102.386 133.209H102.886H103.386C103.386 132.235 103.322 131.276 103.2 130.336L102.704 130.401ZM102.886 133.209H102.386C102.386 134.182 102.449 135.141 102.572 136.081L103.067 136.017L103.563 135.952C103.446 135.054 103.386 134.139 103.386 133.209H102.886ZM104.517 141.439L104.055 141.63C104.797 143.419 105.768 145.088 106.931 146.602L107.328 146.297L107.724 145.993C106.614 144.548 105.687 142.954 104.979 141.247L104.517 141.439ZM111.297 150.267L110.992 150.663C112.506 151.826 114.175 152.797 115.964 153.539L116.156 153.077L116.347 152.615C114.64 151.907 113.047 150.981 111.602 149.87L111.297 150.267ZM121.578 154.527L121.513 155.023C122.453 155.145 123.412 155.209 124.386 155.209V154.709V154.209C123.456 154.209 122.54 154.148 121.642 154.031L121.578 154.527ZM124.386 154.709V155.209H124.586V154.709V154.209H124.386V154.709ZM124.986 154.709V155.209H125.386V154.709V154.209H124.986V154.709Z" fill="#4268FF"/>
<path d="M180.719 154.709C180.719 156.181 181.913 157.375 183.386 157.375C184.859 157.375 186.052 156.181 186.052 154.709C186.052 153.236 184.859 152.042 183.386 152.042C181.913 152.042 180.719 153.236 180.719 154.709ZM228.739 115.062C228.935 114.867 228.935 114.55 228.739 114.355L225.557 111.173C225.362 110.978 225.045 110.978 224.85 111.173C224.655 111.368 224.655 111.685 224.85 111.88L227.679 114.709L224.85 117.537C224.655 117.732 224.655 118.049 224.85 118.244C225.045 118.439 225.362 118.439 225.557 118.244L228.739 115.062ZM184.986 155.209C185.262 155.209 185.486 154.985 185.486 154.709C185.486 154.432 185.262 154.209 184.986 154.209V154.709V155.209ZM186.586 154.209C186.31 154.209 186.086 154.432 186.086 154.709C186.086 154.985 186.31 155.209 186.586 155.209V154.709V154.209ZM190.063 155.035C190.336 155 190.529 154.749 190.494 154.475C190.458 154.201 190.207 154.008 189.933 154.044L189.998 154.54L190.063 155.035ZM194.85 152.729C194.595 152.835 194.474 153.127 194.58 153.383C194.685 153.638 194.978 153.759 195.233 153.653L195.041 153.191L194.85 152.729ZM199.866 150.973C200.085 150.805 200.126 150.491 199.958 150.272C199.79 150.053 199.476 150.012 199.257 150.18L199.561 150.577L199.866 150.973ZM202.857 146.58C202.689 146.799 202.73 147.112 202.949 147.281C203.168 147.449 203.482 147.408 203.65 147.189L203.254 146.884L202.857 146.58ZM206.33 142.556C206.436 142.301 206.315 142.008 206.06 141.903C205.805 141.797 205.512 141.918 205.406 142.173L205.868 142.364L206.33 142.556ZM206.721 137.256C206.685 137.53 206.878 137.781 207.152 137.817C207.426 137.852 207.677 137.659 207.712 137.385L207.217 137.321L206.721 137.256ZM208.051 132.161C208.086 131.887 207.893 131.636 207.619 131.601C207.346 131.565 207.095 131.758 207.059 132.032L207.555 132.096L208.051 132.161ZM208.441 126.861C208.336 127.116 208.457 127.409 208.712 127.515C208.967 127.621 209.259 127.499 209.365 127.244L208.903 127.053L208.441 126.861ZM211.914 122.838C212.082 122.619 212.041 122.305 211.822 122.136C211.603 121.968 211.29 122.009 211.121 122.228L211.518 122.533L211.914 122.838ZM214.905 118.444C214.686 118.612 214.645 118.926 214.814 119.145C214.982 119.364 215.296 119.405 215.515 119.237L215.21 118.841L214.905 118.444ZM219.922 116.688C220.177 116.582 220.298 116.29 220.192 116.035C220.086 115.78 219.794 115.659 219.538 115.764L219.73 116.226L219.922 116.688ZM224.709 114.382C224.435 114.418 224.242 114.669 224.278 114.942C224.313 115.216 224.564 115.409 224.838 115.373L224.774 114.878L224.709 114.382ZM227.586 115.209C227.862 115.209 228.086 114.985 228.086 114.709C228.086 114.432 227.862 114.209 227.586 114.209V114.709V115.209ZM227.986 114.209C227.71 114.209 227.486 114.432 227.486 114.709C227.486 114.985 227.71 115.209 227.986 115.209V114.709V114.209ZM183.386 154.709V155.209H184.986V154.709V154.209H183.386V154.709ZM186.586 154.709V155.209H187.386V154.709V154.209H186.586V154.709ZM187.386 154.709V155.209C188.293 155.209 189.186 155.15 190.063 155.035L189.998 154.54L189.933 154.044C189.1 154.153 188.249 154.209 187.386 154.209V154.709ZM195.041 153.191L195.233 153.653C196.9 152.962 198.456 152.057 199.866 150.973L199.561 150.577L199.257 150.18C197.915 151.211 196.435 152.072 194.85 152.729L195.041 153.191ZM203.254 146.884L203.65 147.189C204.734 145.778 205.639 144.223 206.33 142.556L205.868 142.364L205.406 142.173C204.749 143.758 203.889 145.238 202.857 146.58L203.254 146.884ZM207.217 137.321L207.712 137.385C207.827 136.509 207.886 135.616 207.886 134.709H207.386H206.886C206.886 135.572 206.83 136.423 206.721 137.256L207.217 137.321ZM207.386 134.709H207.886C207.886 133.845 207.942 132.995 208.051 132.161L207.555 132.096L207.059 132.032C206.945 132.908 206.886 133.802 206.886 134.709H207.386ZM208.903 127.053L209.365 127.244C210.023 125.659 210.883 124.18 211.914 122.838L211.518 122.533L211.121 122.228C210.037 123.639 209.133 125.194 208.441 126.861L208.903 127.053ZM215.21 118.841L215.515 119.237C216.857 118.206 218.336 117.345 219.922 116.688L219.73 116.226L219.538 115.764C217.872 116.456 216.316 117.36 214.905 118.444L215.21 118.841ZM224.774 114.878L224.838 115.373C225.672 115.265 226.522 115.209 227.386 115.209V114.709V114.209C226.479 114.209 225.585 114.268 224.709 114.382L224.774 114.878ZM227.386 114.709V115.209H227.586V114.709V114.209H227.386V114.709ZM227.986 114.709V115.209H228.386V114.709V114.209H227.986V114.709Z" fill="#4268FF"/>
<path d="M292.719 114.709C292.719 116.181 293.913 117.375 295.386 117.375C296.859 117.375 298.052 116.181 298.052 114.709C298.052 113.236 296.859 112.042 295.386 112.042C293.913 112.042 292.719 113.236 292.719 114.709ZM345.739 139.062C345.935 138.867 345.935 138.55 345.739 138.355L342.557 135.173C342.362 134.978 342.045 134.978 341.85 135.173C341.655 135.368 341.655 135.685 341.85 135.88L344.679 138.709L341.85 141.537C341.655 141.732 341.655 142.049 341.85 142.244C342.045 142.439 342.362 142.439 342.557 142.244L345.739 139.062ZM301.186 115.209C301.462 115.209 301.686 114.985 301.686 114.709C301.686 114.432 301.462 114.209 301.186 114.209V114.709V115.209ZM306.986 114.209C306.71 114.209 306.486 114.432 306.486 114.709C306.486 114.985 306.71 115.209 306.986 115.209V114.709V114.209ZM312.131 115.428C312.402 115.481 312.665 115.305 312.718 115.034C312.772 114.763 312.596 114.5 312.325 114.447L312.228 114.937L312.131 115.428ZM316.831 116.314C316.602 116.161 316.291 116.222 316.138 116.452C315.984 116.681 316.046 116.992 316.275 117.145L316.553 116.73L316.831 116.314ZM319.449 120.319C319.603 120.549 319.913 120.61 320.143 120.457C320.372 120.303 320.434 119.993 320.28 119.763L319.865 120.041L319.449 120.319ZM322.148 124.27C322.094 123.999 321.831 123.823 321.56 123.876C321.289 123.93 321.113 124.193 321.167 124.464L321.657 124.367L322.148 124.27ZM321.624 129.148C321.677 129.418 321.94 129.595 322.211 129.541C322.482 129.487 322.658 129.224 322.605 128.954L322.114 129.051L321.624 129.148ZM324.322 133.098C324.169 132.868 323.858 132.807 323.629 132.961C323.399 133.114 323.338 133.425 323.491 133.654L323.907 133.376L324.322 133.098ZM326.94 137.103C327.17 137.257 327.48 137.195 327.634 136.966C327.787 136.736 327.726 136.426 327.497 136.272L327.218 136.687L326.94 137.103ZM331.641 137.99C331.37 137.936 331.107 138.112 331.053 138.383C331 138.654 331.176 138.917 331.447 138.971L331.544 138.48L331.641 137.99ZM336.186 139.209C336.462 139.209 336.686 138.985 336.686 138.709C336.686 138.432 336.462 138.209 336.186 138.209V138.709V139.209ZM340.786 138.209C340.51 138.209 340.286 138.432 340.286 138.709C340.286 138.985 340.51 139.209 340.786 139.209V138.709V138.209ZM295.386 114.709V115.209H301.186V114.709V114.209H295.386V114.709ZM306.986 114.709V115.209H309.886V114.709V114.209H306.986V114.709ZM309.886 114.709V115.209C310.654 115.209 311.405 115.284 312.131 115.428L312.228 114.937L312.325 114.447C311.535 114.29 310.72 114.209 309.886 114.209V114.709ZM316.553 116.73L316.275 117.145C317.529 117.985 318.609 119.065 319.449 120.319L319.865 120.041L320.28 119.763C319.368 118.4 318.194 117.227 316.831 116.314L316.553 116.73ZM321.657 124.367L321.167 124.464C321.31 125.189 321.386 125.94 321.386 126.709H321.886H322.386C322.386 125.874 322.304 125.059 322.148 124.27L321.657 124.367ZM321.886 126.709H321.386C321.386 127.543 321.468 128.358 321.624 129.148L322.114 129.051L322.605 128.954C322.461 128.228 322.386 127.477 322.386 126.709H321.886ZM323.907 133.376L323.491 133.654C324.404 135.017 325.577 136.19 326.94 137.103L327.218 136.687L327.497 136.272C326.242 135.432 325.162 134.352 324.322 133.098L323.907 133.376ZM331.544 138.48L331.447 138.971C332.236 139.127 333.052 139.209 333.886 139.209V138.709V138.209C333.117 138.209 332.366 138.133 331.641 137.99L331.544 138.48ZM333.886 138.709V139.209H336.186V138.709V138.209H333.886V138.709ZM340.786 138.709V139.209H345.386V138.709V138.209H340.786V138.709Z" fill="#4268FF"/>
</g>
<defs>
<filter id="filter0_d_2178_5481" x="-3.05176e-05" y="0" width="463.772" height="238.772" filterUnits="userSpaceOnUse" color-interpolation-filters="sRGB">
<feFlood flood-opacity="0" result="BackgroundImageFix"/>
<feColorMatrix in="SourceAlpha" type="matrix" values="0 0 0 0 0 0 0 0 0 0 0 0 0 0 0 0 0 0 127 0" result="hardAlpha"/>
<feOffset dy="3.67715"/>
<feGaussianBlur stdDeviation="9.19289"/>
<feComposite in2="hardAlpha" operator="out"/>
<feColorMatrix type="matrix" values="0 0 0 0 0.0468057 0 0 0 0 0.0634939 0 0 0 0 0.129808 0 0 0 0.1 0"/>
<feBlend mode="normal" in2="BackgroundImageFix" result="effect1_dropShadow_2178_5481"/>
<feBlend mode="normal" in="SourceGraphic" in2="effect1_dropShadow_2178_5481" result="shape"/>
</filter>
</defs>
</svg>
