<svg width="464" height="239" viewBox="0 0 464 239" fill="none" xmlns="http://www.w3.org/2000/svg">
<g filter="url(#filter0_d_2178_5749)">
<rect x="18.3857" y="14.7086" width="427" height="202" rx="16" fill="white" shape-rendering="crispEdges"/>
<rect x="18.8454" y="15.1683" width="426.081" height="201.081" rx="15.5404" stroke="#0C1021" stroke-opacity="0.05" stroke-width="0.919289" shape-rendering="crispEdges"/>
<path d="M48.5757 60.9686C47.8091 60.9686 47.0724 60.8486 46.3657 60.6086C45.6591 60.3686 45.0424 60.0253 44.5157 59.5786C43.9891 59.1253 43.6124 58.5886 43.3857 57.9686L45.3357 57.2386C45.4491 57.5586 45.6657 57.8453 45.9857 58.0986C46.3124 58.3453 46.6991 58.5386 47.1457 58.6786C47.5991 58.8186 48.0757 58.8886 48.5757 58.8886C49.1091 58.8886 49.6091 58.802 50.0757 58.6286C50.5491 58.4553 50.9291 58.2153 51.2157 57.9086C51.5091 57.602 51.6557 57.242 51.6557 56.8286C51.6557 56.402 51.5024 56.052 51.1957 55.7786C50.8957 55.5053 50.5091 55.2886 50.0357 55.1286C49.5691 54.9686 49.0824 54.8486 48.5757 54.7686C47.5957 54.6086 46.7157 54.3753 45.9357 54.0686C45.1624 53.762 44.5491 53.332 44.0957 52.7786C43.6491 52.2253 43.4257 51.5053 43.4257 50.6186C43.4257 49.7853 43.6624 49.0586 44.1357 48.4386C44.6157 47.8186 45.2457 47.3386 46.0257 46.9986C46.8124 46.652 47.6624 46.4786 48.5757 46.4786C49.3291 46.4786 50.0557 46.5986 50.7557 46.8386C51.4624 47.072 52.0824 47.4153 52.6157 47.8686C53.1557 48.3153 53.5424 48.8586 53.7757 49.4986L51.8057 50.2086C51.6924 49.882 51.4757 49.5986 51.1557 49.3586C50.8357 49.112 50.4491 48.9186 49.9957 48.7786C49.5491 48.6386 49.0757 48.5686 48.5757 48.5686C48.0424 48.562 47.5424 48.6486 47.0757 48.8286C46.6157 49.002 46.2391 49.242 45.9457 49.5486C45.6524 49.8553 45.5057 50.212 45.5057 50.6186C45.5057 51.1186 45.6424 51.4986 45.9157 51.7586C46.1891 52.0186 46.5557 52.212 47.0157 52.3386C47.4824 52.4586 48.0024 52.5686 48.5757 52.6686C49.4957 52.8153 50.3457 53.0586 51.1257 53.3986C51.9124 53.7386 52.5424 54.192 53.0157 54.7586C53.4957 55.3186 53.7357 56.0086 53.7357 56.8286C53.7357 57.6553 53.4957 58.382 53.0157 59.0086C52.5424 59.6286 51.9124 60.112 51.1257 60.4586C50.3457 60.7986 49.4957 60.9686 48.5757 60.9686ZM61.0728 52.7886H58.9728L58.9628 60.7086H56.8828L56.8928 52.7886H55.3028V50.7086H56.8928L56.8828 47.5686H58.9628L58.9728 50.7086H61.0728V52.7886ZM70.4087 50.7086H72.4887V60.7086H70.3987L70.3187 59.2586C70.0254 59.772 69.6287 60.1853 69.1287 60.4986C68.6287 60.812 68.0387 60.9686 67.3587 60.9686C66.6254 60.9686 65.9354 60.832 65.2887 60.5586C64.642 60.2786 64.072 59.892 63.5787 59.3986C63.092 58.9053 62.712 58.3386 62.4387 57.6986C62.1654 57.052 62.0287 56.3586 62.0287 55.6186C62.0287 54.9053 62.162 54.2353 62.4287 53.6086C62.6954 52.9753 63.0654 52.422 63.5387 51.9486C64.012 51.4753 64.5587 51.1053 65.1787 50.8386C65.8054 50.5653 66.4754 50.4286 67.1887 50.4286C67.9154 50.4286 68.5554 50.5953 69.1087 50.9286C69.6687 51.2553 70.132 51.6753 70.4987 52.1886L70.4087 50.7086ZM67.3087 58.9586C67.8954 58.9586 68.4087 58.8153 68.8487 58.5286C69.2887 58.2353 69.6287 57.842 69.8687 57.3486C70.1154 56.8553 70.2387 56.3086 70.2387 55.7086C70.2387 55.102 70.1154 54.552 69.8687 54.0586C69.622 53.5653 69.2787 53.1753 68.8387 52.8886C68.4054 52.5953 67.8954 52.4486 67.3087 52.4486C66.7287 52.4486 66.1987 52.5953 65.7187 52.8886C65.2387 53.182 64.8587 53.5753 64.5787 54.0686C64.2987 54.562 64.1587 55.1086 64.1587 55.7086C64.1587 56.3153 64.302 56.8653 64.5887 57.3586C64.882 57.8453 65.2654 58.2353 65.7387 58.5286C66.2187 58.8153 66.742 58.9586 67.3087 58.9586ZM83.4842 54.4386V60.7086H81.4042V54.9486C81.4042 54.502 81.2942 54.0953 81.0742 53.7286C80.8608 53.362 80.5708 53.072 80.2042 52.8586C79.8442 52.6386 79.4375 52.5286 78.9842 52.5286C78.5442 52.5286 78.1408 52.6386 77.7742 52.8586C77.4075 53.072 77.1142 53.362 76.8942 53.7286C76.6742 54.0953 76.5642 54.502 76.5642 54.9486V60.7086H74.4842V50.7086H76.5642V51.7686C76.9108 51.3553 77.3375 51.0286 77.8442 50.7886C78.3508 50.5486 78.8975 50.4286 79.4842 50.4286C80.2242 50.4286 80.8975 50.6086 81.5042 50.9686C82.1108 51.3286 82.5908 51.812 82.9442 52.4186C83.3042 53.0253 83.4842 53.6986 83.4842 54.4386ZM93.075 45.7086H95.155V60.7086H93.075V59.2386C92.7483 59.7586 92.3216 60.1786 91.795 60.4986C91.2683 60.812 90.6516 60.9686 89.945 60.9686C89.2183 60.9686 88.5383 60.832 87.905 60.5586C87.2716 60.2853 86.7116 59.9086 86.225 59.4286C85.745 58.942 85.3683 58.382 85.095 57.7486C84.8216 57.1153 84.685 56.4353 84.685 55.7086C84.685 54.982 84.8216 54.302 85.095 53.6686C85.3683 53.0286 85.745 52.4686 86.225 51.9886C86.7116 51.502 87.2716 51.122 87.905 50.8486C88.5383 50.5753 89.2183 50.4386 89.945 50.4386C90.6516 50.4386 91.2683 50.5986 91.795 50.9186C92.3216 51.232 92.7483 51.6453 93.075 52.1586V45.7086ZM89.965 58.9586C90.5516 58.9586 91.065 58.8153 91.505 58.5286C91.945 58.2353 92.285 57.842 92.525 57.3486C92.7716 56.8553 92.895 56.3086 92.895 55.7086C92.895 55.102 92.7716 54.552 92.525 54.0586C92.2783 53.5653 91.935 53.1753 91.495 52.8886C91.0616 52.5953 90.5516 52.4486 89.965 52.4486C89.385 52.4486 88.855 52.5953 88.375 52.8886C87.9016 53.182 87.5216 53.5753 87.235 54.0686C86.955 54.562 86.815 55.1086 86.815 55.7086C86.815 56.3153 86.9583 56.8653 87.245 57.3586C87.5383 57.8453 87.9216 58.2353 88.395 58.5286C88.875 58.8153 89.3983 58.9586 89.965 58.9586ZM105.194 50.7086H107.274V60.7086H105.184L105.104 59.2586C104.811 59.772 104.414 60.1853 103.914 60.4986C103.414 60.812 102.824 60.9686 102.144 60.9686C101.411 60.9686 100.721 60.832 100.074 60.5586C99.4272 60.2786 98.8572 59.892 98.3639 59.3986C97.8772 58.9053 97.4972 58.3386 97.2239 57.6986C96.9505 57.052 96.8139 56.3586 96.8139 55.6186C96.8139 54.9053 96.9472 54.2353 97.2139 53.6086C97.4805 52.9753 97.8505 52.422 98.3239 51.9486C98.7972 51.4753 99.3439 51.1053 99.9639 50.8386C100.591 50.5653 101.261 50.4286 101.974 50.4286C102.701 50.4286 103.341 50.5953 103.894 50.9286C104.454 51.2553 104.917 51.6753 105.284 52.1886L105.194 50.7086ZM102.094 58.9586C102.681 58.9586 103.194 58.8153 103.634 58.5286C104.074 58.2353 104.414 57.842 104.654 57.3486C104.901 56.8553 105.024 56.3086 105.024 55.7086C105.024 55.102 104.901 54.552 104.654 54.0586C104.407 53.5653 104.064 53.1753 103.624 52.8886C103.191 52.5953 102.681 52.4486 102.094 52.4486C101.514 52.4486 100.984 52.5953 100.504 52.8886C100.024 53.182 99.6439 53.5753 99.3639 54.0686C99.0839 54.562 98.9439 55.1086 98.9439 55.7086C98.9439 56.3153 99.0872 56.8653 99.3739 57.3586C99.6672 57.8453 100.051 58.2353 100.524 58.5286C101.004 58.8153 101.527 58.9586 102.094 58.9586ZM109.269 60.7086V50.7086H111.349V51.7686C111.696 51.3553 112.123 51.0286 112.629 50.7886C113.136 50.5486 113.683 50.4286 114.269 50.4286C114.643 50.4286 115.013 50.4786 115.379 50.5786L114.549 52.6786C114.289 52.5786 114.029 52.5286 113.769 52.5286C113.329 52.5286 112.926 52.6386 112.559 52.8586C112.193 53.072 111.899 53.362 111.679 53.7286C111.459 54.0953 111.349 54.502 111.349 54.9486V60.7086H109.269ZM123.856 45.7086H125.936V60.7086H123.856V59.2386C123.53 59.7586 123.103 60.1786 122.576 60.4986C122.05 60.812 121.433 60.9686 120.726 60.9686C120 60.9686 119.32 60.832 118.686 60.5586C118.053 60.2853 117.493 59.9086 117.006 59.4286C116.526 58.942 116.15 58.382 115.876 57.7486C115.603 57.1153 115.466 56.4353 115.466 55.7086C115.466 54.982 115.603 54.302 115.876 53.6686C116.15 53.0286 116.526 52.4686 117.006 51.9886C117.493 51.502 118.053 51.122 118.686 50.8486C119.32 50.5753 120 50.4386 120.726 50.4386C121.433 50.4386 122.05 50.5986 122.576 50.9186C123.103 51.232 123.53 51.6453 123.856 52.1586V45.7086ZM120.746 58.9586C121.333 58.9586 121.846 58.8153 122.286 58.5286C122.726 58.2353 123.066 57.842 123.306 57.3486C123.553 56.8553 123.676 56.3086 123.676 55.7086C123.676 55.102 123.553 54.552 123.306 54.0586C123.06 53.5653 122.716 53.1753 122.276 52.8886C121.843 52.5953 121.333 52.4486 120.746 52.4486C120.166 52.4486 119.636 52.5953 119.156 52.8886C118.683 53.182 118.303 53.5753 118.016 54.0686C117.736 54.562 117.596 55.1086 117.596 55.7086C117.596 56.3153 117.74 56.8653 118.026 57.3586C118.32 57.8453 118.703 58.2353 119.176 58.5286C119.656 58.8153 120.18 58.9586 120.746 58.9586ZM128.332 50.7086H130.412V60.7086H128.332V50.7086ZM129.392 49.2586C129.072 49.2586 128.805 49.1553 128.592 48.9486C128.379 48.742 128.272 48.482 128.272 48.1686C128.272 47.862 128.379 47.6053 128.592 47.3986C128.805 47.1853 129.069 47.0786 129.382 47.0786C129.689 47.0786 129.949 47.1853 130.162 47.3986C130.375 47.6053 130.482 47.862 130.482 48.1686C130.482 48.482 130.375 48.742 130.162 48.9486C129.955 49.1553 129.699 49.2586 129.392 49.2586ZM140.944 52.7886L135.384 58.6286H140.944V60.7086H132.404V58.6286L137.964 52.7886H132.404V50.7086H140.944V52.7886ZM147.165 60.9686C146.245 60.9686 145.405 60.732 144.645 60.2586C143.892 59.7853 143.289 59.152 142.835 58.3586C142.389 57.5586 142.165 56.6753 142.165 55.7086C142.165 54.9753 142.295 54.292 142.555 53.6586C142.815 53.0186 143.172 52.4586 143.625 51.9786C144.085 51.492 144.619 51.112 145.225 50.8386C145.832 50.5653 146.479 50.4286 147.165 50.4286C147.932 50.4286 148.635 50.5886 149.275 50.9086C149.915 51.222 150.462 51.6586 150.915 52.2186C151.369 52.772 151.702 53.412 151.915 54.1386C152.129 54.8586 152.192 55.6253 152.105 56.4386H144.395C144.482 56.8986 144.649 57.3153 144.895 57.6886C145.149 58.0553 145.469 58.3453 145.855 58.5586C146.249 58.772 146.685 58.882 147.165 58.8886C147.672 58.8886 148.132 58.762 148.545 58.5086C148.965 58.2553 149.309 57.9053 149.575 57.4586L151.685 57.9486C151.285 58.8353 150.682 59.562 149.875 60.1286C149.069 60.6886 148.165 60.9686 147.165 60.9686ZM144.325 54.8486H150.005C149.939 54.3686 149.769 53.9353 149.495 53.5486C149.229 53.1553 148.892 52.8453 148.485 52.6186C148.085 52.3853 147.645 52.2686 147.165 52.2686C146.692 52.2686 146.252 52.382 145.845 52.6086C145.445 52.8353 145.112 53.1453 144.845 53.5386C144.585 53.9253 144.412 54.362 144.325 54.8486ZM161.532 45.7086H163.612V60.7086H161.532V59.2386C161.205 59.7586 160.779 60.1786 160.252 60.4986C159.725 60.812 159.109 60.9686 158.402 60.9686C157.675 60.9686 156.995 60.832 156.362 60.5586C155.729 60.2853 155.169 59.9086 154.682 59.4286C154.202 58.942 153.825 58.382 153.552 57.7486C153.279 57.1153 153.142 56.4353 153.142 55.7086C153.142 54.982 153.279 54.302 153.552 53.6686C153.825 53.0286 154.202 52.4686 154.682 51.9886C155.169 51.502 155.729 51.122 156.362 50.8486C156.995 50.5753 157.675 50.4386 158.402 50.4386C159.109 50.4386 159.725 50.5986 160.252 50.9186C160.779 51.232 161.205 51.6453 161.532 52.1586V45.7086ZM158.422 58.9586C159.009 58.9586 159.522 58.8153 159.962 58.5286C160.402 58.2353 160.742 57.842 160.982 57.3486C161.229 56.8553 161.352 56.3086 161.352 55.7086C161.352 55.102 161.229 54.552 160.982 54.0586C160.735 53.5653 160.392 53.1753 159.952 52.8886C159.519 52.5953 159.009 52.4486 158.422 52.4486C157.842 52.4486 157.312 52.5953 156.832 52.8886C156.359 53.182 155.979 53.5753 155.692 54.0686C155.412 54.562 155.272 55.1086 155.272 55.7086C155.272 56.3153 155.415 56.8653 155.702 57.3586C155.995 57.8453 156.379 58.2353 156.852 58.5286C157.332 58.8153 157.855 58.9586 158.422 58.9586ZM177.342 57.8686L179.202 58.8786C178.749 59.512 178.172 60.0186 177.472 60.3986C176.779 60.7786 176.026 60.9686 175.212 60.9686C174.292 60.9686 173.452 60.732 172.692 60.2586C171.939 59.7853 171.336 59.152 170.882 58.3586C170.436 57.5586 170.212 56.6753 170.212 55.7086C170.212 54.9753 170.342 54.292 170.602 53.6586C170.862 53.0186 171.219 52.4586 171.672 51.9786C172.132 51.492 172.666 51.112 173.272 50.8386C173.879 50.5653 174.526 50.4286 175.212 50.4286C176.026 50.4286 176.779 50.6186 177.472 50.9986C178.172 51.3786 178.749 51.8886 179.202 52.5286L177.342 53.5386C177.062 53.2053 176.736 52.952 176.362 52.7786C175.989 52.5986 175.606 52.5086 175.212 52.5086C174.666 52.5086 174.169 52.6586 173.722 52.9586C173.282 53.252 172.932 53.642 172.672 54.1286C172.419 54.6086 172.292 55.1353 172.292 55.7086C172.292 56.2753 172.422 56.802 172.682 57.2886C172.942 57.7686 173.292 58.1553 173.732 58.4486C174.179 58.742 174.672 58.8886 175.212 58.8886C175.626 58.8886 176.019 58.7953 176.392 58.6086C176.766 58.422 177.082 58.1753 177.342 57.8686ZM188.534 50.7086H190.614V60.7086H188.524L188.444 59.2586C188.15 59.772 187.754 60.1853 187.254 60.4986C186.754 60.812 186.164 60.9686 185.484 60.9686C184.75 60.9686 184.06 60.832 183.414 60.5586C182.767 60.2786 182.197 59.892 181.704 59.3986C181.217 58.9053 180.837 58.3386 180.564 57.6986C180.29 57.052 180.154 56.3586 180.154 55.6186C180.154 54.9053 180.287 54.2353 180.554 53.6086C180.82 52.9753 181.19 52.422 181.664 51.9486C182.137 51.4753 182.684 51.1053 183.304 50.8386C183.93 50.5653 184.6 50.4286 185.314 50.4286C186.04 50.4286 186.68 50.5953 187.234 50.9286C187.794 51.2553 188.257 51.6753 188.624 52.1886L188.534 50.7086ZM185.434 58.9586C186.02 58.9586 186.534 58.8153 186.974 58.5286C187.414 58.2353 187.754 57.842 187.994 57.3486C188.24 56.8553 188.364 56.3086 188.364 55.7086C188.364 55.102 188.24 54.552 187.994 54.0586C187.747 53.5653 187.404 53.1753 186.964 52.8886C186.53 52.5953 186.02 52.4486 185.434 52.4486C184.854 52.4486 184.324 52.5953 183.844 52.8886C183.364 53.182 182.984 53.5753 182.704 54.0686C182.424 54.562 182.284 55.1086 182.284 55.7086C182.284 56.3153 182.427 56.8653 182.714 57.3586C183.007 57.8453 183.39 58.2353 183.864 58.5286C184.344 58.8153 184.867 58.9586 185.434 58.9586ZM192.687 60.7086V45.7086H194.767V60.7086H192.687ZM197.16 60.7086V45.7086H199.24V60.7086H197.16ZM208.517 65.7086H206.437V50.7086H208.517V52.1786C208.851 51.6653 209.277 51.2486 209.797 50.9286C210.317 50.6086 210.931 50.4486 211.637 50.4486C212.364 50.4486 213.044 50.5853 213.677 50.8586C214.317 51.132 214.877 51.512 215.357 51.9986C215.837 52.4786 216.214 53.0353 216.487 53.6686C216.761 54.302 216.897 54.982 216.897 55.7086C216.897 56.4353 216.761 57.1186 216.487 57.7586C216.214 58.3986 215.837 58.962 215.357 59.4486C214.877 59.9286 214.317 60.3053 213.677 60.5786C213.044 60.852 212.364 60.9886 211.637 60.9886C210.931 60.9886 210.317 60.8286 209.797 60.5086C209.277 60.182 208.851 59.7653 208.517 59.2586V65.7086ZM211.617 52.4586C211.037 52.4586 210.527 52.6053 210.087 52.8986C209.647 53.192 209.304 53.5853 209.057 54.0786C208.811 54.5653 208.687 55.1086 208.687 55.7086C208.687 56.3086 208.811 56.8553 209.057 57.3486C209.304 57.842 209.647 58.2353 210.087 58.5286C210.527 58.822 211.037 58.9686 211.617 58.9686C212.191 58.9686 212.717 58.8253 213.197 58.5386C213.677 58.2453 214.061 57.852 214.347 57.3586C214.634 56.8653 214.777 56.3153 214.777 55.7086C214.777 55.1153 214.634 54.572 214.347 54.0786C214.067 53.5853 213.687 53.192 213.207 52.8986C212.727 52.6053 212.197 52.4586 211.617 52.4586ZM218.527 60.7086V50.7086H220.607V51.7686C220.954 51.3553 221.38 51.0286 221.887 50.7886C222.394 50.5486 222.94 50.4286 223.527 50.4286C223.9 50.4286 224.27 50.4786 224.637 50.5786L223.807 52.6786C223.547 52.5786 223.287 52.5286 223.027 52.5286C222.587 52.5286 222.184 52.6386 221.817 52.8586C221.45 53.072 221.157 53.362 220.937 53.7286C220.717 54.0953 220.607 54.502 220.607 54.9486V60.7086H218.527ZM229.724 60.9686C228.804 60.9686 227.964 60.732 227.204 60.2586C226.451 59.7853 225.847 59.152 225.394 58.3586C224.947 57.5586 224.724 56.6753 224.724 55.7086C224.724 54.9753 224.854 54.292 225.114 53.6586C225.374 53.0186 225.731 52.4586 226.184 51.9786C226.644 51.492 227.177 51.112 227.784 50.8386C228.391 50.5653 229.037 50.4286 229.724 50.4286C230.644 50.4286 231.481 50.6653 232.234 51.1386C232.994 51.612 233.597 52.2486 234.044 53.0486C234.497 53.8486 234.724 54.7353 234.724 55.7086C234.724 56.4353 234.594 57.1153 234.334 57.7486C234.074 58.382 233.714 58.942 233.254 59.4286C232.801 59.9086 232.271 60.2853 231.664 60.5586C231.064 60.832 230.417 60.9686 229.724 60.9686ZM229.724 58.8886C230.277 58.8886 230.774 58.742 231.214 58.4486C231.654 58.1553 232.001 57.7686 232.254 57.2886C232.514 56.802 232.644 56.2753 232.644 55.7086C232.644 55.1286 232.511 54.5953 232.244 54.1086C231.984 53.622 231.634 53.2353 231.194 52.9486C230.754 52.6553 230.264 52.5086 229.724 52.5086C229.177 52.5086 228.681 52.6553 228.234 52.9486C227.794 53.242 227.444 53.632 227.184 54.1186C226.931 54.6053 226.804 55.1353 226.804 55.7086C226.804 56.302 226.937 56.8386 227.204 57.3186C227.471 57.7986 227.824 58.182 228.264 58.4686C228.711 58.7486 229.197 58.8886 229.724 58.8886ZM242.85 57.8686L244.71 58.8786C244.257 59.512 243.68 60.0186 242.98 60.3986C242.287 60.7786 241.533 60.9686 240.72 60.9686C239.8 60.9686 238.96 60.732 238.2 60.2586C237.447 59.7853 236.843 59.152 236.39 58.3586C235.943 57.5586 235.72 56.6753 235.72 55.7086C235.72 54.9753 235.85 54.292 236.11 53.6586C236.37 53.0186 236.727 52.4586 237.18 51.9786C237.64 51.492 238.173 51.112 238.78 50.8386C239.387 50.5653 240.033 50.4286 240.72 50.4286C241.533 50.4286 242.287 50.6186 242.98 50.9986C243.68 51.3786 244.257 51.8886 244.71 52.5286L242.85 53.5386C242.57 53.2053 242.243 52.952 241.87 52.7786C241.497 52.5986 241.113 52.5086 240.72 52.5086C240.173 52.5086 239.677 52.6586 239.23 52.9586C238.79 53.252 238.44 53.642 238.18 54.1286C237.927 54.6086 237.8 55.1353 237.8 55.7086C237.8 56.2753 237.93 56.802 238.19 57.2886C238.45 57.7686 238.8 58.1553 239.24 58.4486C239.687 58.742 240.18 58.8886 240.72 58.8886C241.133 58.8886 241.527 58.7953 241.9 58.6086C242.273 58.422 242.59 58.1753 242.85 57.8686ZM250.662 60.9686C249.742 60.9686 248.902 60.732 248.142 60.2586C247.388 59.7853 246.785 59.152 246.332 58.3586C245.885 57.5586 245.662 56.6753 245.662 55.7086C245.662 54.9753 245.792 54.292 246.052 53.6586C246.312 53.0186 246.668 52.4586 247.122 51.9786C247.582 51.492 248.115 51.112 248.722 50.8386C249.328 50.5653 249.975 50.4286 250.662 50.4286C251.428 50.4286 252.132 50.5886 252.772 50.9086C253.412 51.222 253.958 51.6586 254.412 52.2186C254.865 52.772 255.198 53.412 255.412 54.1386C255.625 54.8586 255.688 55.6253 255.602 56.4386H247.892C247.978 56.8986 248.145 57.3153 248.392 57.6886C248.645 58.0553 248.965 58.3453 249.352 58.5586C249.745 58.772 250.182 58.882 250.662 58.8886C251.168 58.8886 251.628 58.762 252.042 58.5086C252.462 58.2553 252.805 57.9053 253.072 57.4586L255.182 57.9486C254.782 58.8353 254.178 59.562 253.372 60.1286C252.565 60.6886 251.662 60.9686 250.662 60.9686ZM247.822 54.8486H253.502C253.435 54.3686 253.265 53.9353 252.992 53.5486C252.725 53.1553 252.388 52.8453 251.982 52.6186C251.582 52.3853 251.142 52.2686 250.662 52.2686C250.188 52.2686 249.748 52.382 249.342 52.6086C248.942 52.8353 248.608 53.1453 248.342 53.5386C248.082 53.9253 247.908 54.362 247.822 54.8486ZM260.297 60.8986C259.77 60.8653 259.257 60.7586 258.757 60.5786C258.257 60.3986 257.817 60.1553 257.437 59.8486C257.063 59.5353 256.783 59.1686 256.597 58.7486L258.367 57.9886C258.453 58.1686 258.603 58.3453 258.817 58.5186C259.037 58.692 259.293 58.8353 259.587 58.9486C259.88 59.0553 260.187 59.1086 260.507 59.1086C260.82 59.1086 261.11 59.0653 261.377 58.9786C261.65 58.8853 261.873 58.7453 262.047 58.5586C262.22 58.372 262.307 58.1486 262.307 57.8886C262.307 57.5953 262.207 57.3686 262.007 57.2086C261.813 57.042 261.57 56.9153 261.277 56.8286C260.983 56.742 260.69 56.6586 260.397 56.5786C259.743 56.432 259.143 56.232 258.597 55.9786C258.057 55.7186 257.627 55.3886 257.307 54.9886C256.987 54.582 256.827 54.0853 256.827 53.4986C256.827 52.8586 257 52.3053 257.347 51.8386C257.693 51.3653 258.147 51.002 258.707 50.7486C259.273 50.4953 259.877 50.3686 260.517 50.3686C261.317 50.3686 262.05 50.5386 262.717 50.8786C263.383 51.2186 263.893 51.6853 264.247 52.2786L262.597 53.2586C262.497 53.0586 262.347 52.8786 262.147 52.7186C261.947 52.5586 261.72 52.432 261.467 52.3386C261.213 52.2386 260.95 52.182 260.677 52.1686C260.337 52.1553 260.02 52.1953 259.727 52.2886C259.44 52.3753 259.21 52.5153 259.037 52.7086C258.863 52.902 258.777 53.1486 258.777 53.4486C258.777 53.742 258.88 53.962 259.087 54.1086C259.293 54.2486 259.553 54.362 259.867 54.4486C260.187 54.5353 260.513 54.632 260.847 54.7386C261.44 54.9253 261.997 55.1553 262.517 55.4286C263.037 55.6953 263.457 56.0253 263.777 56.4186C264.097 56.812 264.25 57.292 264.237 57.8586C264.237 58.4853 264.047 59.0353 263.667 59.5086C263.293 59.982 262.807 60.342 262.207 60.5886C261.607 60.8353 260.97 60.9386 260.297 60.8986ZM268.949 60.8986C268.422 60.8653 267.909 60.7586 267.409 60.5786C266.909 60.3986 266.469 60.1553 266.089 59.8486C265.716 59.5353 265.436 59.1686 265.249 58.7486L267.019 57.9886C267.106 58.1686 267.256 58.3453 267.469 58.5186C267.689 58.692 267.946 58.8353 268.239 58.9486C268.532 59.0553 268.839 59.1086 269.159 59.1086C269.472 59.1086 269.762 59.0653 270.029 58.9786C270.302 58.8853 270.526 58.7453 270.699 58.5586C270.872 58.372 270.959 58.1486 270.959 57.8886C270.959 57.5953 270.859 57.3686 270.659 57.2086C270.466 57.042 270.222 56.9153 269.929 56.8286C269.636 56.742 269.342 56.6586 269.049 56.5786C268.396 56.432 267.796 56.232 267.249 55.9786C266.709 55.7186 266.279 55.3886 265.959 54.9886C265.639 54.582 265.479 54.0853 265.479 53.4986C265.479 52.8586 265.652 52.3053 265.999 51.8386C266.346 51.3653 266.799 51.002 267.359 50.7486C267.926 50.4953 268.529 50.3686 269.169 50.3686C269.969 50.3686 270.702 50.5386 271.369 50.8786C272.036 51.2186 272.546 51.6853 272.899 52.2786L271.249 53.2586C271.149 53.0586 270.999 52.8786 270.799 52.7186C270.599 52.5586 270.372 52.432 270.119 52.3386C269.866 52.2386 269.602 52.182 269.329 52.1686C268.989 52.1553 268.672 52.1953 268.379 52.2886C268.092 52.3753 267.862 52.5153 267.689 52.7086C267.516 52.902 267.429 53.1486 267.429 53.4486C267.429 53.742 267.532 53.962 267.739 54.1086C267.946 54.2486 268.206 54.362 268.519 54.4486C268.839 54.5353 269.166 54.632 269.499 54.7386C270.092 54.9253 270.649 55.1553 271.169 55.4286C271.689 55.6953 272.109 56.0253 272.429 56.4186C272.749 56.812 272.902 57.292 272.889 57.8586C272.889 58.4853 272.699 59.0353 272.319 59.5086C271.946 59.982 271.459 60.342 270.859 60.5886C270.259 60.8353 269.622 60.9386 268.949 60.8986Z" fill="#0C1021"/>
<rect x="41.3857" y="82.7086" width="102" height="35" rx="17.5" fill="white"/>
<rect x="41.8857" y="83.2086" width="101" height="34" rx="17" stroke="#2D2D2D" stroke-opacity="0.1"/>
<circle cx="57.3857" cy="100.209" r="4" fill="#3DEC82"/>
<path d="M75.5377 105.917C74.7644 105.917 74.0417 105.767 73.3697 105.469C72.7031 105.165 72.1191 104.746 71.6177 104.213C71.1217 103.674 70.7324 103.055 70.4497 102.357C70.1671 101.653 70.0257 100.901 70.0257 100.101C70.0257 99.274 70.1724 98.5086 70.4657 97.8046C70.7644 97.1006 71.1697 96.4873 71.6817 95.9646C72.1991 95.442 72.7884 95.0366 73.4497 94.7486C74.1164 94.4553 74.8204 94.3086 75.5617 94.3086C76.4044 94.3086 77.2071 94.506 77.9697 94.9006C78.7324 95.2953 79.3884 95.866 79.9377 96.6126L78.7377 97.2606C78.3271 96.738 77.8391 96.338 77.2737 96.0606C76.7137 95.7833 76.1377 95.6446 75.5457 95.6446C74.9804 95.6446 74.4444 95.7593 73.9377 95.9886C73.4364 96.218 72.9911 96.538 72.6017 96.9486C72.2177 97.3593 71.9164 97.834 71.6977 98.3726C71.4791 98.9113 71.3697 99.4953 71.3697 100.125C71.3697 100.738 71.4791 101.314 71.6977 101.853C71.9164 102.391 72.2151 102.866 72.5937 103.277C72.9777 103.682 73.4231 103.999 73.9297 104.229C74.4364 104.458 74.9777 104.573 75.5537 104.573C76.0124 104.573 76.4471 104.495 76.8577 104.341C77.2737 104.186 77.6551 103.967 78.0017 103.685C78.3537 103.402 78.6524 103.069 78.8977 102.685C79.1484 102.301 79.3377 101.879 79.4657 101.421H76.7057V100.221H81.0337C81.0284 101.005 80.8791 101.741 80.5857 102.429C80.2977 103.117 79.9004 103.722 79.3937 104.245C78.8924 104.767 78.3111 105.178 77.6497 105.477C76.9937 105.77 76.2897 105.917 75.5377 105.917ZM82.5801 105.709V97.7086H83.9241V98.7086C84.2068 98.3353 84.5641 98.0393 84.9961 97.8206C85.4281 97.5966 85.8975 97.4846 86.4041 97.4846C86.7135 97.4846 87.0121 97.5246 87.3001 97.6046L86.7561 98.9486C86.5375 98.8793 86.3241 98.8446 86.1161 98.8446C85.7161 98.8446 85.3481 98.9433 85.0121 99.1406C84.6815 99.3326 84.4175 99.594 84.2201 99.9246C84.0228 100.255 83.9241 100.623 83.9241 101.029V105.709H82.5801ZM91.397 105.917C90.661 105.917 89.989 105.727 89.381 105.349C88.7783 104.97 88.2957 104.463 87.933 103.829C87.5757 103.189 87.397 102.482 87.397 101.709C87.397 101.122 87.501 100.575 87.709 100.069C87.917 99.5566 88.2023 99.1086 88.565 98.7246C88.933 98.3353 89.3597 98.0313 89.845 97.8126C90.3303 97.594 90.8477 97.4846 91.397 97.4846C91.9997 97.4846 92.5517 97.6073 93.053 97.8526C93.5597 98.0926 93.9917 98.4286 94.349 98.8606C94.7117 99.2926 94.981 99.794 95.157 100.365C95.3383 100.935 95.405 101.546 95.357 102.197H88.829C88.893 102.65 89.0423 103.055 89.277 103.413C89.5117 103.765 89.8103 104.045 90.173 104.253C90.541 104.461 90.949 104.567 91.397 104.573C91.877 104.573 92.3117 104.45 92.701 104.205C93.0903 103.954 93.405 103.613 93.645 103.181L95.013 103.501C94.693 104.21 94.2103 104.791 93.565 105.245C92.9197 105.693 92.197 105.917 91.397 105.917ZM88.789 101.141H94.005C93.9623 100.693 93.8183 100.285 93.573 99.9166C93.3277 99.5433 93.0157 99.2446 92.637 99.0206C92.2583 98.7966 91.845 98.6846 91.397 98.6846C90.949 98.6846 90.5383 98.794 90.165 99.0126C89.7917 99.2313 89.4823 99.5273 89.237 99.9006C88.997 100.269 88.8477 100.682 88.789 101.141ZM100.178 105.917C99.4422 105.917 98.7702 105.727 98.1622 105.349C97.5596 104.97 97.0769 104.463 96.7142 103.829C96.3569 103.189 96.1782 102.482 96.1782 101.709C96.1782 101.122 96.2822 100.575 96.4902 100.069C96.6982 99.5566 96.9836 99.1086 97.3462 98.7246C97.7142 98.3353 98.1409 98.0313 98.6262 97.8126C99.1116 97.594 99.6289 97.4846 100.178 97.4846C100.781 97.4846 101.333 97.6073 101.834 97.8526C102.341 98.0926 102.773 98.4286 103.13 98.8606C103.493 99.2926 103.762 99.794 103.938 100.365C104.12 100.935 104.186 101.546 104.138 102.197H97.6102C97.6742 102.65 97.8236 103.055 98.0582 103.413C98.2929 103.765 98.5916 104.045 98.9542 104.253C99.3222 104.461 99.7302 104.567 100.178 104.573C100.658 104.573 101.093 104.45 101.482 104.205C101.872 103.954 102.186 103.613 102.426 103.181L103.794 103.501C103.474 104.21 102.992 104.791 102.346 105.245C101.701 105.693 100.978 105.917 100.178 105.917ZM97.5702 101.141H102.786C102.744 100.693 102.6 100.285 102.354 99.9166C102.109 99.5433 101.797 99.2446 101.418 99.0206C101.04 98.7966 100.626 98.6846 100.178 98.6846C99.7302 98.6846 99.3196 98.794 98.9462 99.0126C98.5729 99.2313 98.2636 99.5273 98.0182 99.9006C97.7782 100.269 97.6289 100.682 97.5702 101.141ZM109.537 99.0526H107.721L107.713 105.709H106.369L106.377 99.0526H105.001V97.7086H106.377L106.369 95.1966H107.713L107.721 97.7086H109.537V99.0526ZM110.893 97.7086H112.237V105.709H110.893V97.7086ZM111.581 96.4046C111.367 96.4046 111.189 96.3353 111.045 96.1966C110.901 96.058 110.829 95.8846 110.829 95.6766C110.829 95.4686 110.901 95.2953 111.045 95.1566C111.189 95.018 111.365 94.9486 111.573 94.9486C111.781 94.9486 111.957 95.018 112.101 95.1566C112.245 95.2953 112.317 95.4686 112.317 95.6766C112.317 95.8846 112.245 96.058 112.101 96.1966C111.962 96.3353 111.789 96.4046 111.581 96.4046ZM121.183 100.733V105.709H119.839V101.029C119.839 100.623 119.741 100.255 119.543 99.9246C119.346 99.594 119.082 99.3326 118.751 99.1406C118.421 98.9433 118.053 98.8446 117.647 98.8446C117.247 98.8446 116.879 98.9433 116.543 99.1406C116.213 99.3326 115.949 99.594 115.751 99.9246C115.554 100.255 115.455 100.623 115.455 101.029V105.709H114.111V97.7086H115.455V98.7086C115.738 98.3353 116.095 98.0393 116.527 97.8206C116.959 97.5966 117.429 97.4846 117.935 97.4846C118.533 97.4846 119.077 97.6313 119.567 97.9246C120.063 98.2126 120.455 98.602 120.743 99.0926C121.037 99.5833 121.183 100.13 121.183 100.733ZM128.875 97.7086H130.219V105.965C130.219 106.493 130.104 106.983 129.875 107.437C129.651 107.895 129.347 108.293 128.963 108.629C128.579 108.97 128.142 109.234 127.651 109.421C127.16 109.613 126.648 109.709 126.115 109.709C125.56 109.709 125.024 109.583 124.507 109.333C123.99 109.087 123.536 108.757 123.147 108.341C122.763 107.93 122.486 107.469 122.315 106.957L123.547 106.397C123.648 106.765 123.83 107.095 124.091 107.389C124.358 107.687 124.667 107.922 125.019 108.093C125.376 108.269 125.742 108.357 126.115 108.357C126.467 108.357 126.806 108.295 127.131 108.173C127.462 108.05 127.758 107.879 128.019 107.661C128.286 107.447 128.494 107.194 128.643 106.901C128.798 106.613 128.875 106.301 128.875 105.965V104.373C128.603 104.831 128.243 105.205 127.795 105.493C127.352 105.775 126.835 105.917 126.243 105.917C125.678 105.917 125.147 105.807 124.651 105.589C124.155 105.37 123.72 105.069 123.347 104.685C122.974 104.295 122.68 103.847 122.467 103.341C122.254 102.834 122.147 102.29 122.147 101.709C122.147 101.127 122.254 100.583 122.467 100.077C122.68 99.5646 122.974 99.1166 123.347 98.7326C123.72 98.3433 124.155 98.0393 124.651 97.8206C125.147 97.602 125.678 97.4926 126.243 97.4926C126.835 97.4926 127.352 97.634 127.795 97.9166C128.243 98.1993 128.603 98.5726 128.875 99.0366V97.7086ZM126.251 104.613C126.768 104.613 127.216 104.479 127.595 104.213C127.979 103.946 128.275 103.591 128.483 103.149C128.691 102.706 128.795 102.226 128.795 101.709C128.795 101.175 128.688 100.69 128.475 100.253C128.267 99.81 127.971 99.458 127.587 99.1966C127.208 98.93 126.763 98.7966 126.251 98.7966C125.75 98.7966 125.291 98.9273 124.875 99.1886C124.459 99.45 124.128 99.802 123.883 100.245C123.643 100.682 123.523 101.17 123.523 101.709C123.523 102.247 123.646 102.738 123.891 103.181C124.142 103.618 124.472 103.967 124.883 104.229C125.299 104.485 125.755 104.613 126.251 104.613Z" fill="#0C1021"/>
<rect x="201.386" y="82.7086" width="129" height="35" rx="17.5" fill="white"/>
<rect x="201.886" y="83.2086" width="128" height="34" rx="17" stroke="#2D2D2D" stroke-opacity="0.1"/>
<circle cx="217.386" cy="100.209" r="4" fill="#3DEC82"/>
<path d="M240.25 105.941L238.938 104.629C238.479 105.023 237.959 105.333 237.378 105.557C236.802 105.775 236.191 105.885 235.546 105.885C234.783 105.885 234.068 105.735 233.402 105.437C232.735 105.133 232.148 104.717 231.642 104.189C231.135 103.655 230.738 103.037 230.45 102.333C230.167 101.629 230.026 100.877 230.026 100.077C230.026 99.2766 230.167 98.5273 230.45 97.8286C230.738 97.1246 231.135 96.506 231.642 95.9726C232.148 95.4393 232.735 95.0233 233.402 94.7246C234.068 94.4206 234.783 94.2686 235.546 94.2686C236.308 94.2686 237.02 94.4206 237.682 94.7246C238.348 95.0233 238.935 95.4393 239.442 95.9726C239.948 96.506 240.343 97.1246 240.626 97.8286C240.914 98.5273 241.058 99.2766 241.058 100.077C241.058 100.759 240.951 101.405 240.738 102.013C240.53 102.621 240.239 103.173 239.866 103.669L241.202 104.989L240.25 105.941ZM235.546 104.541C235.983 104.541 236.412 104.466 236.834 104.317C237.255 104.162 237.631 103.941 237.962 103.653L236.474 102.173L237.426 101.213L238.866 102.669C239.143 102.301 239.354 101.895 239.498 101.453C239.642 101.005 239.714 100.546 239.714 100.077C239.714 99.4633 239.604 98.8873 239.386 98.3486C239.172 97.81 238.874 97.3353 238.49 96.9246C238.106 96.514 237.66 96.194 237.154 95.9646C236.652 95.73 236.116 95.6126 235.546 95.6126C234.964 95.6126 234.42 95.7326 233.914 95.9726C233.412 96.2073 232.97 96.5326 232.586 96.9486C232.207 97.3593 231.908 97.834 231.69 98.3726C231.476 98.906 231.37 99.474 231.37 100.077C231.37 100.69 231.479 101.266 231.698 101.805C231.916 102.343 232.218 102.821 232.602 103.237C232.986 103.647 233.428 103.967 233.93 104.197C234.436 104.426 234.975 104.541 235.546 104.541ZM242.354 102.669V97.7086H243.698V102.373C243.698 102.778 243.797 103.146 243.994 103.477C244.191 103.807 244.455 104.071 244.786 104.269C245.122 104.461 245.49 104.557 245.89 104.557C246.295 104.557 246.661 104.461 246.986 104.269C247.317 104.071 247.581 103.807 247.778 103.477C247.975 103.146 248.074 102.778 248.074 102.373V97.7086H249.418L249.426 105.709H248.082L248.074 104.693C247.791 105.066 247.434 105.365 247.002 105.589C246.57 105.807 246.103 105.917 245.602 105.917C245.005 105.917 244.458 105.773 243.962 105.485C243.471 105.191 243.079 104.799 242.786 104.309C242.498 103.818 242.354 103.271 242.354 102.669ZM257.387 97.7086H258.731V105.709H257.387L257.331 104.357C257.08 104.821 256.734 105.197 256.291 105.485C255.854 105.773 255.331 105.917 254.723 105.917C254.136 105.917 253.587 105.807 253.075 105.589C252.563 105.365 252.11 105.058 251.715 104.669C251.326 104.274 251.022 103.821 250.803 103.309C250.584 102.797 250.475 102.245 250.475 101.653C250.475 101.082 250.582 100.543 250.795 100.037C251.008 99.53 251.304 99.0873 251.683 98.7086C252.067 98.3246 252.51 98.026 253.011 97.8126C253.512 97.594 254.051 97.4846 254.627 97.4846C255.256 97.4846 255.808 97.634 256.283 97.9326C256.758 98.226 257.142 98.6073 257.435 99.0766L257.387 97.7086ZM254.699 104.613C255.227 104.613 255.683 104.485 256.067 104.229C256.456 103.967 256.755 103.615 256.963 103.173C257.176 102.73 257.283 102.242 257.283 101.709C257.283 101.165 257.176 100.674 256.963 100.237C256.75 99.794 256.448 99.4446 256.059 99.1886C255.675 98.9273 255.222 98.7966 254.699 98.7966C254.171 98.7966 253.691 98.9273 253.259 99.1886C252.827 99.45 252.483 99.802 252.227 100.245C251.976 100.682 251.851 101.17 251.851 101.709C251.851 102.247 251.982 102.738 252.243 103.181C252.504 103.618 252.851 103.967 253.283 104.229C253.715 104.485 254.187 104.613 254.699 104.613ZM260.424 105.709V93.7086H261.768V105.709H260.424ZM263.689 97.7086H265.033V105.709H263.689V97.7086ZM264.377 96.4046C264.164 96.4046 263.985 96.3353 263.841 96.1966C263.697 96.058 263.625 95.8846 263.625 95.6766C263.625 95.4686 263.697 95.2953 263.841 95.1566C263.985 95.018 264.161 94.9486 264.369 94.9486C264.577 94.9486 264.753 95.018 264.897 95.1566C265.041 95.2953 265.113 95.4686 265.113 95.6766C265.113 95.8846 265.041 96.058 264.897 96.1966C264.759 96.3353 264.585 96.4046 264.377 96.4046ZM268.771 95.7326V97.7086H271.115V99.0526H268.771V105.709H267.427V99.0526H266.395V97.7086H267.427V95.7326C267.427 95.322 267.526 94.9513 267.723 94.6206C267.926 94.2846 268.195 94.018 268.531 93.8206C268.872 93.618 269.246 93.5166 269.651 93.5166C269.95 93.5166 270.24 93.578 270.523 93.7006C270.806 93.818 271.056 93.994 271.275 94.2286L270.315 95.1806C270.24 95.0793 270.142 95.002 270.019 94.9486C269.902 94.89 269.779 94.8606 269.651 94.8606C269.411 94.8606 269.203 94.946 269.027 95.1166C268.856 95.2873 268.771 95.4926 268.771 95.7326ZM272.346 97.7086H273.69V105.709H272.346V97.7086ZM273.034 96.4046C272.82 96.4046 272.642 96.3353 272.498 96.1966C272.354 96.058 272.282 95.8846 272.282 95.6766C272.282 95.4686 272.354 95.2953 272.498 95.1566C272.642 95.018 272.818 94.9486 273.026 94.9486C273.234 94.9486 273.41 95.018 273.554 95.1566C273.698 95.2953 273.77 95.4686 273.77 95.6766C273.77 95.8846 273.698 96.058 273.554 96.1966C273.415 96.3353 273.242 96.4046 273.034 96.4046ZM281.014 103.597L282.214 104.245C281.851 104.751 281.39 105.157 280.83 105.461C280.275 105.765 279.673 105.917 279.022 105.917C278.286 105.917 277.614 105.727 277.006 105.349C276.403 104.97 275.921 104.463 275.558 103.829C275.201 103.189 275.022 102.482 275.022 101.709C275.022 101.122 275.126 100.575 275.334 100.069C275.542 99.5566 275.827 99.1086 276.19 98.7246C276.558 98.3353 276.985 98.0313 277.47 97.8126C277.955 97.594 278.473 97.4846 279.022 97.4846C279.673 97.4846 280.275 97.6366 280.83 97.9406C281.39 98.2446 281.851 98.6526 282.214 99.1646L281.014 99.8126C280.758 99.498 280.454 99.2553 280.102 99.0846C279.75 98.914 279.39 98.8286 279.022 98.8286C278.526 98.8286 278.075 98.962 277.67 99.2286C277.27 99.49 276.953 99.8393 276.718 100.277C276.483 100.714 276.366 101.191 276.366 101.709C276.366 102.226 276.483 102.703 276.718 103.141C276.958 103.573 277.278 103.919 277.678 104.181C278.083 104.442 278.531 104.573 279.022 104.573C279.417 104.573 279.787 104.482 280.134 104.301C280.481 104.119 280.774 103.885 281.014 103.597ZM289.95 97.7086H291.294V105.709H289.95L289.894 104.357C289.643 104.821 289.296 105.197 288.854 105.485C288.416 105.773 287.894 105.917 287.286 105.917C286.699 105.917 286.15 105.807 285.638 105.589C285.126 105.365 284.672 105.058 284.278 104.669C283.888 104.274 283.584 103.821 283.366 103.309C283.147 102.797 283.038 102.245 283.038 101.653C283.038 101.082 283.144 100.543 283.358 100.037C283.571 99.53 283.867 99.0873 284.246 98.7086C284.63 98.3246 285.072 98.026 285.574 97.8126C286.075 97.594 286.614 97.4846 287.19 97.4846C287.819 97.4846 288.371 97.634 288.846 97.9326C289.32 98.226 289.704 98.6073 289.998 99.0766L289.95 97.7086ZM287.262 104.613C287.79 104.613 288.246 104.485 288.63 104.229C289.019 103.967 289.318 103.615 289.526 103.173C289.739 102.73 289.846 102.242 289.846 101.709C289.846 101.165 289.739 100.674 289.526 100.237C289.312 99.794 289.011 99.4446 288.622 99.1886C288.238 98.9273 287.784 98.7966 287.262 98.7966C286.734 98.7966 286.254 98.9273 285.822 99.1886C285.39 99.45 285.046 99.802 284.79 100.245C284.539 100.682 284.414 101.17 284.414 101.709C284.414 102.247 284.544 102.738 284.806 103.181C285.067 103.618 285.414 103.967 285.846 104.229C286.278 104.485 286.75 104.613 287.262 104.613ZM297.037 99.0526H295.221L295.213 105.709H293.869L293.877 99.0526H292.501V97.7086H293.877L293.869 95.1966H295.213L295.221 97.7086H297.037V99.0526ZM298.393 97.7086H299.737V105.709H298.393V97.7086ZM299.081 96.4046C298.867 96.4046 298.689 96.3353 298.545 96.1966C298.401 96.058 298.329 95.8846 298.329 95.6766C298.329 95.4686 298.401 95.2953 298.545 95.1566C298.689 95.018 298.865 94.9486 299.073 94.9486C299.281 94.9486 299.457 95.018 299.601 95.1566C299.745 95.2953 299.817 95.4686 299.817 95.6766C299.817 95.8846 299.745 96.058 299.601 96.1966C299.462 96.3353 299.289 96.4046 299.081 96.4046ZM305.069 105.917C304.333 105.917 303.661 105.727 303.053 105.349C302.45 104.97 301.968 104.463 301.605 103.829C301.248 103.189 301.069 102.482 301.069 101.709C301.069 101.122 301.173 100.575 301.381 100.069C301.589 99.5566 301.874 99.1086 302.237 98.7246C302.605 98.3353 303.032 98.0313 303.517 97.8126C304.002 97.594 304.52 97.4846 305.069 97.4846C305.805 97.4846 306.474 97.674 307.077 98.0526C307.685 98.4313 308.168 98.9406 308.525 99.5806C308.888 100.221 309.069 100.93 309.069 101.709C309.069 102.29 308.965 102.834 308.757 103.341C308.549 103.847 308.261 104.295 307.893 104.685C307.53 105.069 307.106 105.37 306.621 105.589C306.141 105.807 305.624 105.917 305.069 105.917ZM305.069 104.573C305.57 104.573 306.021 104.442 306.421 104.181C306.826 103.914 307.144 103.565 307.373 103.133C307.608 102.695 307.725 102.221 307.725 101.709C307.725 101.186 307.605 100.706 307.365 100.269C307.13 99.8313 306.813 99.482 306.413 99.2206C306.013 98.9593 305.565 98.8286 305.069 98.8286C304.568 98.8286 304.117 98.962 303.717 99.2286C303.317 99.49 303 99.8393 302.765 100.277C302.53 100.714 302.413 101.191 302.413 101.709C302.413 102.242 302.533 102.727 302.773 103.165C303.013 103.597 303.336 103.941 303.741 104.197C304.146 104.447 304.589 104.573 305.069 104.573ZM317.465 100.733V105.709H316.121V101.029C316.121 100.623 316.022 100.255 315.825 99.9246C315.627 99.594 315.363 99.3326 315.033 99.1406C314.702 98.9433 314.334 98.8446 313.929 98.8446C313.529 98.8446 313.161 98.9433 312.825 99.1406C312.494 99.3326 312.23 99.594 312.033 99.9246C311.835 100.255 311.737 100.623 311.737 101.029V105.709H310.393V97.7086H311.737V98.7086C312.019 98.3353 312.377 98.0393 312.809 97.8206C313.241 97.5966 313.71 97.4846 314.217 97.4846C314.814 97.4846 315.358 97.6313 315.849 97.9246C316.345 98.2126 316.737 98.602 317.025 99.0926C317.318 99.5833 317.465 100.13 317.465 100.733Z" fill="#0C1021"/>
<rect x="131.386" y="161.709" width="78" height="35" rx="17.5" fill="white"/>
<rect x="131.886" y="162.209" width="77" height="34" rx="17" stroke="#2D2D2D" stroke-opacity="0.1"/>
<circle cx="147.386" cy="179.209" r="4" fill="#3DEC82"/>
<path d="M165.546 184.917C164.788 184.917 164.076 184.767 163.41 184.469C162.743 184.165 162.156 183.746 161.65 183.213C161.143 182.679 160.746 182.063 160.458 181.365C160.17 180.661 160.026 179.909 160.026 179.109C160.026 178.309 160.17 177.559 160.458 176.861C160.746 176.157 161.143 175.538 161.65 175.005C162.156 174.471 162.743 174.055 163.41 173.757C164.076 173.453 164.788 173.301 165.546 173.301C166.308 173.301 167.023 173.453 167.69 173.757C168.356 174.055 168.943 174.471 169.45 175.005C169.956 175.538 170.351 176.157 170.634 176.861C170.922 177.559 171.066 178.309 171.066 179.109C171.066 179.909 170.922 180.661 170.634 181.365C170.351 182.063 169.956 182.679 169.45 183.213C168.943 183.746 168.356 184.165 167.69 184.469C167.023 184.767 166.308 184.917 165.546 184.917ZM165.546 183.573C166.127 183.573 166.668 183.455 167.17 183.221C167.676 182.986 168.119 182.663 168.498 182.253C168.882 181.837 169.18 181.362 169.394 180.829C169.612 180.29 169.722 179.717 169.722 179.109C169.722 178.501 169.612 177.927 169.394 177.389C169.175 176.845 168.874 176.37 168.49 175.965C168.111 175.554 167.668 175.231 167.162 174.997C166.66 174.762 166.122 174.645 165.546 174.645C164.964 174.645 164.42 174.762 163.914 174.997C163.412 175.231 162.97 175.557 162.586 175.973C162.207 176.383 161.908 176.858 161.69 177.397C161.476 177.93 161.37 178.501 161.37 179.109C161.37 179.722 161.479 180.298 161.698 180.837C161.916 181.375 162.215 181.85 162.594 182.261C162.978 182.671 163.42 182.994 163.922 183.229C164.428 183.458 164.97 183.573 165.546 183.573ZM174.474 174.733V176.709H176.818V178.053H174.474V184.709H173.13V178.053H172.098V176.709H173.13V174.733C173.13 174.322 173.229 173.951 173.426 173.621C173.629 173.285 173.898 173.018 174.234 172.821C174.576 172.618 174.949 172.517 175.354 172.517C175.653 172.517 175.944 172.578 176.226 172.701C176.509 172.818 176.76 172.994 176.978 173.229L176.018 174.181C175.944 174.079 175.845 174.002 175.722 173.949C175.605 173.89 175.482 173.861 175.354 173.861C175.114 173.861 174.906 173.946 174.73 174.117C174.56 174.287 174.474 174.493 174.474 174.733ZM180.13 174.733V176.709H182.474V178.053H180.13V184.709H178.786V178.053H177.754V176.709H178.786V174.733C178.786 174.322 178.885 173.951 179.082 173.621C179.285 173.285 179.554 173.018 179.89 172.821C180.232 172.618 180.605 172.517 181.01 172.517C181.309 172.517 181.6 172.578 181.882 172.701C182.165 172.818 182.416 172.994 182.634 173.229L181.674 174.181C181.6 174.079 181.501 174.002 181.378 173.949C181.261 173.89 181.138 173.861 181.01 173.861C180.77 173.861 180.562 173.946 180.386 174.117C180.216 174.287 180.13 174.493 180.13 174.733ZM187.1 184.917C186.364 184.917 185.692 184.727 185.084 184.349C184.481 183.97 183.999 183.463 183.636 182.829C183.279 182.189 183.1 181.482 183.1 180.709C183.1 180.122 183.204 179.575 183.412 179.069C183.62 178.557 183.905 178.109 184.268 177.725C184.636 177.335 185.063 177.031 185.548 176.813C186.033 176.594 186.551 176.485 187.1 176.485C187.703 176.485 188.255 176.607 188.756 176.853C189.263 177.093 189.695 177.429 190.052 177.861C190.415 178.293 190.684 178.794 190.86 179.365C191.041 179.935 191.108 180.546 191.06 181.197H184.532C184.596 181.65 184.745 182.055 184.98 182.413C185.215 182.765 185.513 183.045 185.876 183.253C186.244 183.461 186.652 183.567 187.1 183.573C187.58 183.573 188.015 183.45 188.404 183.205C188.793 182.954 189.108 182.613 189.348 182.181L190.716 182.501C190.396 183.21 189.913 183.791 189.268 184.245C188.623 184.693 187.9 184.917 187.1 184.917ZM184.492 180.141H189.708C189.665 179.693 189.521 179.285 189.276 178.917C189.031 178.543 188.719 178.245 188.34 178.021C187.961 177.797 187.548 177.685 187.1 177.685C186.652 177.685 186.241 177.794 185.868 178.013C185.495 178.231 185.185 178.527 184.94 178.901C184.7 179.269 184.551 179.682 184.492 180.141ZM192.408 184.709V176.709H193.752V177.709C194.035 177.335 194.392 177.039 194.824 176.821C195.256 176.597 195.726 176.485 196.232 176.485C196.542 176.485 196.84 176.525 197.128 176.605L196.584 177.949C196.366 177.879 196.152 177.845 195.944 177.845C195.544 177.845 195.176 177.943 194.84 178.141C194.51 178.333 194.246 178.594 194.048 178.925C193.851 179.255 193.752 179.623 193.752 180.029V184.709H192.408Z" fill="#0C1021"/>
<rect x="300.386" y="161.709" width="96" height="35" rx="17.5" fill="white"/>
<rect x="300.886" y="162.209" width="95" height="34" rx="17" stroke="#2D2D2D" stroke-opacity="0.1"/>
<circle cx="316.386" cy="179.209" r="4" fill="#3DEC82"/>
<path d="M329.346 184.709V173.509H333.21C333.764 173.509 334.268 173.623 334.722 173.853C335.18 174.077 335.543 174.405 335.81 174.837C336.076 175.269 336.21 175.786 336.21 176.389C336.21 176.714 336.154 177.029 336.042 177.333C335.935 177.631 335.786 177.89 335.594 178.109C335.407 178.322 335.194 178.466 334.954 178.541C335.29 178.626 335.575 178.778 335.81 178.997C336.044 179.21 336.234 179.461 336.378 179.749C336.527 180.037 336.634 180.338 336.698 180.653C336.762 180.967 336.794 181.271 336.794 181.565C336.794 182.183 336.652 182.73 336.37 183.205C336.092 183.674 335.719 184.042 335.25 184.309C334.78 184.575 334.263 184.709 333.698 184.709H329.346ZM330.69 183.525H333.578C333.946 183.525 334.279 183.431 334.578 183.245C334.882 183.053 335.124 182.791 335.306 182.461C335.487 182.13 335.578 181.757 335.578 181.341C335.578 180.973 335.487 180.626 335.306 180.301C335.124 179.97 334.882 179.703 334.578 179.501C334.279 179.298 333.946 179.197 333.578 179.197H330.69V183.525ZM330.69 178.037H333.082C333.572 178.037 333.991 177.893 334.338 177.605C334.69 177.311 334.866 176.903 334.866 176.381C334.866 175.815 334.69 175.394 334.338 175.117C333.991 174.834 333.572 174.693 333.082 174.693H330.69V178.037ZM341.569 184.917C340.833 184.917 340.161 184.727 339.553 184.349C338.95 183.97 338.468 183.463 338.105 182.829C337.748 182.189 337.569 181.482 337.569 180.709C337.569 180.122 337.673 179.575 337.881 179.069C338.089 178.557 338.374 178.109 338.737 177.725C339.105 177.335 339.532 177.031 340.017 176.813C340.502 176.594 341.02 176.485 341.569 176.485C342.305 176.485 342.974 176.674 343.577 177.053C344.185 177.431 344.668 177.941 345.025 178.581C345.388 179.221 345.569 179.93 345.569 180.709C345.569 181.29 345.465 181.834 345.257 182.341C345.049 182.847 344.761 183.295 344.393 183.685C344.03 184.069 343.606 184.37 343.121 184.589C342.641 184.807 342.124 184.917 341.569 184.917ZM341.569 183.573C342.07 183.573 342.521 183.442 342.921 183.181C343.326 182.914 343.644 182.565 343.873 182.133C344.108 181.695 344.225 181.221 344.225 180.709C344.225 180.186 344.105 179.706 343.865 179.269C343.63 178.831 343.313 178.482 342.913 178.221C342.513 177.959 342.065 177.829 341.569 177.829C341.068 177.829 340.617 177.962 340.217 178.229C339.817 178.49 339.5 178.839 339.265 179.277C339.03 179.714 338.913 180.191 338.913 180.709C338.913 181.242 339.033 181.727 339.273 182.165C339.513 182.597 339.836 182.941 340.241 183.197C340.646 183.447 341.089 183.573 341.569 183.573ZM350.366 184.917C349.63 184.917 348.958 184.727 348.35 184.349C347.747 183.97 347.264 183.463 346.902 182.829C346.544 182.189 346.366 181.482 346.366 180.709C346.366 180.122 346.47 179.575 346.678 179.069C346.886 178.557 347.171 178.109 347.534 177.725C347.902 177.335 348.328 177.031 348.814 176.813C349.299 176.594 349.816 176.485 350.366 176.485C351.102 176.485 351.771 176.674 352.374 177.053C352.982 177.431 353.464 177.941 353.822 178.581C354.184 179.221 354.366 179.93 354.366 180.709C354.366 181.29 354.262 181.834 354.054 182.341C353.846 182.847 353.558 183.295 353.19 183.685C352.827 184.069 352.403 184.37 351.918 184.589C351.438 184.807 350.92 184.917 350.366 184.917ZM350.366 183.573C350.867 183.573 351.318 183.442 351.718 183.181C352.123 182.914 352.44 182.565 352.67 182.133C352.904 181.695 353.022 181.221 353.022 180.709C353.022 180.186 352.902 179.706 352.662 179.269C352.427 178.831 352.11 178.482 351.71 178.221C351.31 177.959 350.862 177.829 350.366 177.829C349.864 177.829 349.414 177.962 349.014 178.229C348.614 178.49 348.296 178.839 348.062 179.277C347.827 179.714 347.71 180.191 347.71 180.709C347.71 181.242 347.83 181.727 348.07 182.165C348.31 182.597 348.632 182.941 349.038 183.197C349.443 183.447 349.886 183.573 350.366 183.573ZM362.099 184.709H360.555L358.427 181.037L356.955 182.797V184.709H355.611V172.709H356.955V180.709L360.307 176.709H362.059L359.339 179.949L362.099 184.709ZM363.518 176.709H364.862V184.709H363.518V176.709ZM364.206 175.405C363.992 175.405 363.814 175.335 363.67 175.197C363.526 175.058 363.454 174.885 363.454 174.677C363.454 174.469 363.526 174.295 363.67 174.157C363.814 174.018 363.99 173.949 364.198 173.949C364.406 173.949 364.582 174.018 364.726 174.157C364.87 174.295 364.942 174.469 364.942 174.677C364.942 174.885 364.87 175.058 364.726 175.197C364.587 175.335 364.414 175.405 364.206 175.405ZM373.808 179.733V184.709H372.464V180.029C372.464 179.623 372.366 179.255 372.168 178.925C371.971 178.594 371.707 178.333 371.376 178.141C371.046 177.943 370.678 177.845 370.272 177.845C369.872 177.845 369.504 177.943 369.168 178.141C368.838 178.333 368.574 178.594 368.376 178.925C368.179 179.255 368.08 179.623 368.08 180.029V184.709H366.736V176.709H368.08V177.709C368.363 177.335 368.72 177.039 369.152 176.821C369.584 176.597 370.054 176.485 370.56 176.485C371.158 176.485 371.702 176.631 372.192 176.925C372.688 177.213 373.08 177.602 373.368 178.093C373.662 178.583 373.808 179.13 373.808 179.733ZM381.5 176.709H382.844V184.965C382.844 185.493 382.729 185.983 382.5 186.437C382.276 186.895 381.972 187.293 381.588 187.629C381.204 187.97 380.767 188.234 380.276 188.421C379.785 188.613 379.273 188.709 378.74 188.709C378.185 188.709 377.649 188.583 377.132 188.333C376.615 188.087 376.161 187.757 375.772 187.341C375.388 186.93 375.111 186.469 374.94 185.957L376.172 185.397C376.273 185.765 376.455 186.095 376.716 186.389C376.983 186.687 377.292 186.922 377.644 187.093C378.001 187.269 378.367 187.357 378.74 187.357C379.092 187.357 379.431 187.295 379.756 187.173C380.087 187.05 380.383 186.879 380.644 186.661C380.911 186.447 381.119 186.194 381.268 185.901C381.423 185.613 381.5 185.301 381.5 184.965V183.373C381.228 183.831 380.868 184.205 380.42 184.493C379.977 184.775 379.46 184.917 378.868 184.917C378.303 184.917 377.772 184.807 377.276 184.589C376.78 184.37 376.345 184.069 375.972 183.685C375.599 183.295 375.305 182.847 375.092 182.341C374.879 181.834 374.772 181.29 374.772 180.709C374.772 180.127 374.879 179.583 375.092 179.077C375.305 178.565 375.599 178.117 375.972 177.733C376.345 177.343 376.78 177.039 377.276 176.821C377.772 176.602 378.303 176.493 378.868 176.493C379.46 176.493 379.977 176.634 380.42 176.917C380.868 177.199 381.228 177.573 381.5 178.037V176.709ZM378.876 183.613C379.393 183.613 379.841 183.479 380.22 183.213C380.604 182.946 380.9 182.591 381.108 182.149C381.316 181.706 381.42 181.226 381.42 180.709C381.42 180.175 381.313 179.69 381.1 179.253C380.892 178.81 380.596 178.458 380.212 178.197C379.833 177.93 379.388 177.797 378.876 177.797C378.375 177.797 377.916 177.927 377.5 178.189C377.084 178.45 376.753 178.802 376.508 179.245C376.268 179.682 376.148 180.17 376.148 180.709C376.148 181.247 376.271 181.738 376.516 182.181C376.767 182.618 377.097 182.967 377.508 183.229C377.924 183.485 378.38 183.613 378.876 183.613Z" fill="#0C1021"/>
<path d="M140.719 100.209C140.719 101.681 141.913 102.875 143.386 102.875C144.859 102.875 146.052 101.681 146.052 100.209C146.052 98.7359 144.859 97.542 143.386 97.542C141.913 97.542 140.719 98.7359 140.719 100.209ZM198.739 100.562C198.935 100.367 198.935 100.05 198.739 99.8551L195.557 96.6731C195.362 96.4778 195.045 96.4778 194.85 96.6731C194.655 96.8683 194.655 97.1849 194.85 97.3802L197.679 100.209L194.85 103.037C194.655 103.232 194.655 103.549 194.85 103.744C195.045 103.939 195.362 103.939 195.557 103.744L198.739 100.562ZM148.386 100.709C148.662 100.709 148.886 100.485 148.886 100.209C148.886 99.9325 148.662 99.7086 148.386 99.7086V100.209V100.709ZM153.386 99.7086C153.11 99.7086 152.886 99.9325 152.886 100.209C152.886 100.485 153.11 100.709 153.386 100.709V100.209V99.7086ZM158.386 100.709C158.662 100.709 158.886 100.485 158.886 100.209C158.886 99.9325 158.662 99.7086 158.386 99.7086V100.209V100.709ZM163.386 99.7086C163.11 99.7086 162.886 99.9325 162.886 100.209C162.886 100.485 163.11 100.709 163.386 100.709V100.209V99.7086ZM168.386 100.709C168.662 100.709 168.886 100.485 168.886 100.209C168.886 99.9325 168.662 99.7086 168.386 99.7086V100.209V100.709ZM173.386 99.7086C173.11 99.7086 172.886 99.9325 172.886 100.209C172.886 100.485 173.11 100.709 173.386 100.709V100.209V99.7086ZM178.386 100.709C178.662 100.709 178.886 100.485 178.886 100.209C178.886 99.9325 178.662 99.7086 178.386 99.7086V100.209V100.709ZM183.386 99.7086C183.11 99.7086 182.886 99.9325 182.886 100.209C182.886 100.485 183.11 100.709 183.386 100.709V100.209V99.7086ZM188.386 100.709C188.662 100.709 188.886 100.485 188.886 100.209C188.886 99.9325 188.662 99.7086 188.386 99.7086V100.209V100.709ZM193.386 99.7086C193.11 99.7086 192.886 99.9325 192.886 100.209C192.886 100.485 193.11 100.709 193.386 100.709V100.209V99.7086ZM143.386 100.209V100.709H148.386V100.209V99.7086H143.386V100.209ZM153.386 100.209V100.709H158.386V100.209V99.7086H153.386V100.209ZM163.386 100.209V100.709H168.386V100.209V99.7086H163.386V100.209ZM173.386 100.209V100.709H178.386V100.209V99.7086H173.386V100.209ZM183.386 100.209V100.709H188.386V100.209V99.7086H183.386V100.209ZM193.386 100.209V100.709H198.386V100.209V99.7086H193.386V100.209Z" fill="#4268FF"/>
<path d="M327.719 100.209C327.719 101.681 328.913 102.875 330.386 102.875C331.859 102.875 333.052 101.681 333.052 100.209C333.052 98.7359 331.859 97.542 330.386 97.542C328.913 97.542 327.719 98.7359 327.719 100.209ZM128.739 179.562C128.935 179.367 128.935 179.05 128.739 178.855L125.557 175.673C125.362 175.478 125.045 175.478 124.85 175.673C124.655 175.868 124.655 176.185 124.85 176.38L127.679 179.209L124.85 182.037C124.655 182.232 124.655 182.549 124.85 182.744C125.045 182.939 125.362 182.939 125.557 182.744L128.739 179.562ZM124.686 178.709C124.41 178.709 124.186 178.932 124.186 179.209C124.186 179.485 124.41 179.709 124.686 179.709V179.209V178.709ZM120.986 179.709C121.262 179.709 121.486 179.485 121.486 179.209C121.486 178.932 121.262 178.709 120.986 178.709V179.209V179.709ZM116.621 178.546C116.347 178.51 116.096 178.703 116.06 178.977C116.025 179.251 116.218 179.502 116.492 179.537L116.556 179.042L116.621 178.546ZM111.384 178.172C111.639 178.278 111.932 178.157 112.038 177.902C112.143 177.646 112.022 177.354 111.767 177.248L111.576 177.71L111.384 178.172ZM107.417 174.732C107.198 174.564 106.884 174.605 106.716 174.824C106.548 175.043 106.589 175.356 106.808 175.525L107.112 175.128L107.417 174.732ZM103.07 171.787C103.238 172.006 103.552 172.047 103.771 171.879C103.99 171.71 104.031 171.396 103.863 171.177L103.466 171.482L103.07 171.787ZM101.346 166.827C101.24 166.572 100.948 166.451 100.693 166.557C100.438 166.663 100.317 166.955 100.423 167.21L100.884 167.019L101.346 166.827ZM99.0569 162.103C99.0926 162.377 99.3435 162.57 99.6173 162.534C99.8912 162.498 100.084 162.247 100.048 161.973L99.5527 162.038L99.0569 162.103ZM100.048 156.944C100.084 156.67 99.8912 156.419 99.6173 156.383C99.3435 156.348 99.0926 156.541 99.0569 156.814L99.5527 156.879L100.048 156.944ZM100.423 151.707C100.317 151.962 100.438 152.255 100.693 152.36C100.948 152.466 101.24 152.345 101.346 152.09L100.884 151.899L100.423 151.707ZM103.863 147.74C104.031 147.521 103.99 147.207 103.771 147.039C103.552 146.87 103.238 146.912 103.07 147.13L103.466 147.435L103.863 147.74ZM106.808 143.393C106.589 143.561 106.548 143.875 106.716 144.094C106.884 144.313 107.198 144.354 107.417 144.185L107.112 143.789L106.808 143.393ZM111.767 141.669C112.022 141.563 112.143 141.271 112.038 141.016C111.932 140.761 111.639 140.64 111.384 140.745L111.576 141.207L111.767 141.669ZM116.492 139.38C116.218 139.415 116.025 139.666 116.06 139.94C116.096 140.214 116.347 140.407 116.621 140.371L116.556 139.876L116.492 139.38ZM122.077 140.209C122.353 140.209 122.577 139.985 122.577 139.709C122.577 139.432 122.353 139.209 122.077 139.209V139.709V140.209ZM127.958 139.209C127.682 139.209 127.458 139.432 127.458 139.709C127.458 139.985 127.682 140.209 127.958 140.209V139.709V139.209ZM133.84 140.209C134.116 140.209 134.34 139.985 134.34 139.709C134.34 139.432 134.116 139.209 133.84 139.209V139.709V140.209ZM139.721 139.209C139.445 139.209 139.221 139.432 139.221 139.709C139.221 139.985 139.445 140.209 139.721 140.209V139.709V139.209ZM145.603 140.209C145.879 140.209 146.103 139.985 146.103 139.709C146.103 139.432 145.879 139.209 145.603 139.209V139.709V140.209ZM151.484 139.209C151.208 139.209 150.984 139.432 150.984 139.709C150.984 139.985 151.208 140.209 151.484 140.209V139.709V139.209ZM157.366 140.209C157.642 140.209 157.866 139.985 157.866 139.709C157.866 139.432 157.642 139.209 157.366 139.209V139.709V140.209ZM163.248 139.209C162.971 139.209 162.748 139.432 162.748 139.709C162.748 139.985 162.971 140.209 163.248 140.209V139.709V139.209ZM169.129 140.209C169.405 140.209 169.629 139.985 169.629 139.709C169.629 139.432 169.405 139.209 169.129 139.209V139.709V140.209ZM175.011 139.209C174.735 139.209 174.511 139.432 174.511 139.709C174.511 139.985 174.735 140.209 175.011 140.209V139.709V139.209ZM180.892 140.209C181.168 140.209 181.392 139.985 181.392 139.709C181.392 139.432 181.168 139.209 180.892 139.209V139.709V140.209ZM186.774 139.209C186.498 139.209 186.274 139.432 186.274 139.709C186.274 139.985 186.498 140.209 186.774 140.209V139.709V139.209ZM192.655 140.209C192.932 140.209 193.155 139.985 193.155 139.709C193.155 139.432 192.932 139.209 192.655 139.209V139.709V140.209ZM198.537 139.209C198.261 139.209 198.037 139.432 198.037 139.709C198.037 139.985 198.261 140.209 198.537 140.209V139.709V139.209ZM204.419 140.209C204.695 140.209 204.919 139.985 204.919 139.709C204.919 139.432 204.695 139.209 204.419 139.209V139.709V140.209ZM210.3 139.209C210.024 139.209 209.8 139.432 209.8 139.709C209.8 139.985 210.024 140.209 210.3 140.209V139.709V139.209ZM216.182 140.209C216.458 140.209 216.682 139.985 216.682 139.709C216.682 139.432 216.458 139.209 216.182 139.209V139.709V140.209ZM222.063 139.209C221.787 139.209 221.563 139.432 221.563 139.709C221.563 139.985 221.787 140.209 222.063 140.209V139.709V139.209ZM227.945 140.209C228.221 140.209 228.445 139.985 228.445 139.709C228.445 139.432 228.221 139.209 227.945 139.209V139.709V140.209ZM233.827 139.209C233.55 139.209 233.327 139.432 233.327 139.709C233.327 139.985 233.55 140.209 233.827 140.209V139.709V139.209ZM239.708 140.209C239.984 140.209 240.208 139.985 240.208 139.709C240.208 139.432 239.984 139.209 239.708 139.209V139.709V140.209ZM245.59 139.209C245.314 139.209 245.09 139.432 245.09 139.709C245.09 139.985 245.314 140.209 245.59 140.209V139.709V139.209ZM251.471 140.209C251.747 140.209 251.971 139.985 251.971 139.709C251.971 139.432 251.747 139.209 251.471 139.209V139.709V140.209ZM257.353 139.209C257.077 139.209 256.853 139.432 256.853 139.709C256.853 139.985 257.077 140.209 257.353 140.209V139.709V139.209ZM263.234 140.209C263.511 140.209 263.734 139.985 263.734 139.709C263.734 139.432 263.511 139.209 263.234 139.209V139.709V140.209ZM269.116 139.209C268.84 139.209 268.616 139.432 268.616 139.709C268.616 139.985 268.84 140.209 269.116 140.209V139.709V139.209ZM274.998 140.209C275.274 140.209 275.498 139.985 275.498 139.709C275.498 139.432 275.274 139.209 274.998 139.209V139.709V140.209ZM280.879 139.209C280.603 139.209 280.379 139.432 280.379 139.709C280.379 139.985 280.603 140.209 280.879 140.209V139.709V139.209ZM286.761 140.209C287.037 140.209 287.261 139.985 287.261 139.709C287.261 139.432 287.037 139.209 286.761 139.209V139.709V140.209ZM292.642 139.209C292.366 139.209 292.142 139.432 292.142 139.709C292.142 139.985 292.366 140.209 292.642 140.209V139.709V139.209ZM298.524 140.209C298.8 140.209 299.024 139.985 299.024 139.709C299.024 139.432 298.8 139.209 298.524 139.209V139.709V140.209ZM304.405 139.209C304.129 139.209 303.905 139.432 303.905 139.709C303.905 139.985 304.129 140.209 304.405 140.209V139.709V139.209ZM310.287 140.209C310.563 140.209 310.787 139.985 310.787 139.709C310.787 139.432 310.563 139.209 310.287 139.209V139.709V140.209ZM316.169 139.209C315.892 139.209 315.669 139.432 315.669 139.709C315.669 139.985 315.892 140.209 316.169 140.209V139.709V139.209ZM322.05 140.209C322.326 140.209 322.55 139.985 322.55 139.709C322.55 139.432 322.326 139.209 322.05 139.209V139.709V140.209ZM327.932 139.209C327.656 139.209 327.432 139.432 327.432 139.709C327.432 139.985 327.656 140.209 327.932 140.209V139.709V139.209ZM333.813 140.209C334.089 140.209 334.313 139.985 334.313 139.709C334.313 139.432 334.089 139.209 333.813 139.209V139.709V140.209ZM339.695 139.209C339.419 139.209 339.195 139.432 339.195 139.709C339.195 139.985 339.419 140.209 339.695 140.209V139.709V139.209ZM345.28 140.037C345.554 140.002 345.747 139.751 345.711 139.477C345.675 139.203 345.424 139.01 345.151 139.046L345.215 139.542L345.28 140.037ZM350.004 137.748C349.749 137.854 349.628 138.146 349.734 138.402C349.84 138.657 350.132 138.778 350.387 138.672L350.196 138.21L350.004 137.748ZM354.964 136.025C355.183 135.856 355.224 135.543 355.056 135.324C354.887 135.105 354.574 135.064 354.355 135.232L354.659 135.628L354.964 136.025ZM357.909 131.677C357.741 131.896 357.782 132.21 358.001 132.379C358.22 132.547 358.534 132.506 358.702 132.287L358.305 131.982L357.909 131.677ZM361.349 127.71C361.455 127.455 361.334 127.163 361.079 127.057C360.824 126.951 360.531 127.072 360.425 127.327L360.887 127.519L361.349 127.71ZM361.723 122.473C361.687 122.747 361.88 122.998 362.154 123.034C362.428 123.07 362.679 122.877 362.715 122.603L362.219 122.538L361.723 122.473ZM362.715 117.314C362.679 117.041 362.428 116.848 362.154 116.883C361.88 116.919 361.687 117.17 361.723 117.444L362.219 117.379L362.715 117.314ZM360.425 112.59C360.531 112.845 360.824 112.966 361.079 112.86C361.334 112.755 361.455 112.462 361.349 112.207L360.887 112.399L360.425 112.59ZM358.702 107.63C358.534 107.412 358.22 107.37 358.001 107.539C357.782 107.707 357.741 108.021 357.909 108.24L358.305 107.935L358.702 107.63ZM354.355 104.685C354.574 104.854 354.887 104.813 355.056 104.594C355.224 104.375 355.183 104.061 354.964 103.893L354.659 104.289L354.355 104.685ZM350.387 101.245C350.132 101.14 349.84 101.261 349.734 101.516C349.628 101.771 349.749 102.063 350.004 102.169L350.196 101.707L350.387 101.245ZM345.151 100.871C345.424 100.907 345.675 100.714 345.711 100.44C345.747 100.166 345.554 99.9155 345.28 99.8798L345.215 100.376L345.151 100.871ZM340.186 99.7086C339.91 99.7086 339.686 99.9325 339.686 100.209C339.686 100.485 339.91 100.709 340.186 100.709V100.209V99.7086ZM335.286 100.709C335.562 100.709 335.786 100.485 335.786 100.209C335.786 99.9325 335.562 99.7086 335.286 99.7086V100.209V100.709ZM128.386 179.209V178.709H124.686V179.209V179.709H128.386V179.209ZM120.986 179.209V178.709H119.136V179.209V179.709H120.986V179.209ZM119.136 179.209V178.709C118.283 178.709 117.444 178.653 116.621 178.546L116.556 179.042L116.492 179.537C117.357 179.65 118.24 179.709 119.136 179.709V179.209ZM111.576 177.71L111.767 177.248C110.203 176.599 108.742 175.75 107.417 174.732L107.112 175.128L106.808 175.525C108.201 176.595 109.738 177.489 111.384 178.172L111.576 177.71ZM103.466 171.482L103.863 171.177C102.845 169.853 101.995 168.392 101.346 166.827L100.884 167.019L100.423 167.21C101.105 168.857 101.999 170.393 103.07 171.787L103.466 171.482ZM99.5527 162.038L100.048 161.973C99.9411 161.151 99.8857 160.311 99.8857 159.459H99.3857H98.8857C98.8857 160.355 98.944 161.237 99.0569 162.103L99.5527 162.038ZM99.3857 159.459H99.8857C99.8857 158.606 99.9411 157.767 100.048 156.944L99.5527 156.879L99.0569 156.814C98.944 157.68 98.8857 158.563 98.8857 159.459H99.3857ZM100.884 151.899L101.346 152.09C101.995 150.525 102.845 149.065 103.863 147.74L103.466 147.435L103.07 147.13C101.999 148.524 101.105 150.06 100.423 151.707L100.884 151.899ZM107.112 143.789L107.417 144.185C108.742 143.167 110.203 142.318 111.767 141.669L111.576 141.207L111.384 140.745C109.738 141.428 108.201 142.322 106.808 143.393L107.112 143.789ZM116.556 139.876L116.621 140.371C117.444 140.264 118.283 140.209 119.136 140.209V139.709V139.209C118.24 139.209 117.357 139.267 116.492 139.38L116.556 139.876ZM119.136 139.709V140.209H122.077V139.709V139.209H119.136V139.709ZM127.958 139.709V140.209H133.84V139.709V139.209H127.958V139.709ZM139.721 139.709V140.209H145.603V139.709V139.209H139.721V139.709ZM151.484 139.709V140.209H157.366V139.709V139.209H151.484V139.709ZM163.248 139.709V140.209H169.129V139.709V139.209H163.248V139.709ZM175.011 139.709V140.209H180.892V139.709V139.209H175.011V139.709ZM186.774 139.709V140.209H192.655V139.709V139.209H186.774V139.709ZM198.537 139.709V140.209H204.419V139.709V139.209H198.537V139.709ZM210.3 139.709V140.209H216.182V139.709V139.209H210.3V139.709ZM222.063 139.709V140.209H227.945V139.709V139.209H222.063V139.709ZM233.827 139.709V140.209H239.708V139.709V139.209H233.827V139.709ZM245.59 139.709V140.209H251.471V139.709V139.209H245.59V139.709ZM257.353 139.709V140.209H263.234V139.709V139.209H257.353V139.709ZM269.116 139.709V140.209H274.998V139.709V139.209H269.116V139.709ZM280.879 139.709V140.209H286.761V139.709V139.209H280.879V139.709ZM292.642 139.709V140.209H298.524V139.709V139.209H292.642V139.709ZM304.405 139.709V140.209H310.287V139.709V139.209H304.405V139.709ZM316.169 139.709V140.209H322.05V139.709V139.209H316.169V139.709ZM327.932 139.709V140.209H333.813V139.709V139.209H327.932V139.709ZM339.695 139.709V140.209H342.636V139.709V139.209H339.695V139.709ZM342.636 139.709V140.209C343.532 140.209 344.414 140.15 345.28 140.037L345.215 139.542L345.151 139.046C344.328 139.153 343.488 139.209 342.636 139.209V139.709ZM350.196 138.21L350.387 138.672C352.034 137.989 353.571 137.095 354.964 136.025L354.659 135.628L354.355 135.232C353.03 136.25 351.569 137.099 350.004 137.748L350.196 138.21ZM358.305 131.982L358.702 132.287C359.773 130.893 360.666 129.357 361.349 127.71L360.887 127.519L360.425 127.327C359.776 128.892 358.927 130.353 357.909 131.677L358.305 131.982ZM362.219 122.538L362.715 122.603C362.828 121.737 362.886 120.855 362.886 119.959H362.386H361.886C361.886 120.811 361.83 121.651 361.723 122.473L362.219 122.538ZM362.386 119.959H362.886C362.886 119.063 362.828 118.18 362.715 117.314L362.219 117.379L361.723 117.444C361.83 118.267 361.886 119.106 361.886 119.959H362.386ZM360.887 112.399L361.349 112.207C360.666 110.56 359.773 109.024 358.702 107.63L358.305 107.935L357.909 108.24C358.927 109.565 359.776 111.025 360.425 112.59L360.887 112.399ZM354.659 104.289L354.964 103.893C353.571 102.822 352.034 101.928 350.387 101.245L350.196 101.707L350.004 102.169C351.569 102.818 353.03 103.667 354.355 104.685L354.659 104.289ZM345.215 100.376L345.28 99.8798C344.414 99.7668 343.532 99.7086 342.636 99.7086V100.209V100.709C343.488 100.709 344.328 100.764 345.151 100.871L345.215 100.376ZM342.636 100.209V99.7086H340.186V100.209V100.709H342.636V100.209ZM335.286 100.209V99.7086H330.386V100.209V100.709H335.286V100.209Z" fill="#4268FF"/>
<path d="M206.719 179.209C206.719 180.681 207.913 181.875 209.386 181.875C210.859 181.875 212.052 180.681 212.052 179.209C212.052 177.736 210.859 176.542 209.386 176.542C207.913 176.542 206.719 177.736 206.719 179.209ZM297.739 179.562C297.935 179.367 297.935 179.05 297.739 178.855L294.557 175.673C294.362 175.478 294.045 175.478 293.85 175.673C293.655 175.868 293.655 176.185 293.85 176.38L296.679 179.209L293.85 182.037C293.655 182.232 293.655 182.549 293.85 182.744C294.045 182.939 294.362 182.939 294.557 182.744L297.739 179.562ZM215.252 179.709C215.529 179.709 215.752 179.485 215.752 179.209C215.752 178.932 215.529 178.709 215.252 178.709V179.209V179.709ZM221.119 178.709C220.843 178.709 220.619 178.932 220.619 179.209C220.619 179.485 220.843 179.709 221.119 179.709V179.209V178.709ZM226.986 179.709C227.262 179.709 227.486 179.485 227.486 179.209C227.486 178.932 227.262 178.709 226.986 178.709V179.209V179.709ZM232.852 178.709C232.576 178.709 232.352 178.932 232.352 179.209C232.352 179.485 232.576 179.709 232.852 179.709V179.209V178.709ZM238.719 179.709C238.995 179.709 239.219 179.485 239.219 179.209C239.219 178.932 238.995 178.709 238.719 178.709V179.209V179.709ZM244.586 178.709C244.31 178.709 244.086 178.932 244.086 179.209C244.086 179.485 244.31 179.709 244.586 179.709V179.209V178.709ZM250.452 179.709C250.729 179.709 250.952 179.485 250.952 179.209C250.952 178.932 250.729 178.709 250.452 178.709V179.209V179.709ZM256.319 178.709C256.043 178.709 255.819 178.932 255.819 179.209C255.819 179.485 256.043 179.709 256.319 179.709V179.209V178.709ZM262.186 179.709C262.462 179.709 262.686 179.485 262.686 179.209C262.686 178.932 262.462 178.709 262.186 178.709V179.209V179.709ZM268.052 178.709C267.776 178.709 267.552 178.932 267.552 179.209C267.552 179.485 267.776 179.709 268.052 179.709V179.209V178.709ZM273.919 179.709C274.195 179.709 274.419 179.485 274.419 179.209C274.419 178.932 274.195 178.709 273.919 178.709V179.209V179.709ZM279.786 178.709C279.51 178.709 279.286 178.932 279.286 179.209C279.286 179.485 279.51 179.709 279.786 179.709V179.209V178.709ZM285.652 179.709C285.929 179.709 286.152 179.485 286.152 179.209C286.152 178.932 285.929 178.709 285.652 178.709V179.209V179.709ZM291.519 178.709C291.243 178.709 291.019 178.932 291.019 179.209C291.019 179.485 291.243 179.709 291.519 179.709V179.209V178.709ZM209.386 179.209V179.709H215.252V179.209V178.709H209.386V179.209ZM221.119 179.209V179.709H226.986V179.209V178.709H221.119V179.209ZM232.852 179.209V179.709H238.719V179.209V178.709H232.852V179.209ZM244.586 179.209V179.709H250.452V179.209V178.709H244.586V179.209ZM256.319 179.209V179.709H262.186V179.209V178.709H256.319V179.209ZM268.052 179.209V179.709H273.919V179.209V178.709H268.052V179.209ZM279.786 179.209V179.709H285.652V179.209V178.709H279.786V179.209ZM291.519 179.209V179.709H297.386V179.209V178.709H291.519V179.209Z" fill="#4268FF"/>
</g>
<defs>
<filter id="filter0_d_2178_5749" x="-3.05176e-05" y="0" width="463.772" height="238.772" filterUnits="userSpaceOnUse" color-interpolation-filters="sRGB">
<feFlood flood-opacity="0" result="BackgroundImageFix"/>
<feColorMatrix in="SourceAlpha" type="matrix" values="0 0 0 0 0 0 0 0 0 0 0 0 0 0 0 0 0 0 127 0" result="hardAlpha"/>
<feOffset dy="3.67715"/>
<feGaussianBlur stdDeviation="9.19289"/>
<feComposite in2="hardAlpha" operator="out"/>
<feColorMatrix type="matrix" values="0 0 0 0 0.0468057 0 0 0 0 0.0634939 0 0 0 0 0.129808 0 0 0 0.1 0"/>
<feBlend mode="normal" in2="BackgroundImageFix" result="effect1_dropShadow_2178_5749"/>
<feBlend mode="normal" in="SourceGraphic" in2="effect1_dropShadow_2178_5749" result="shape"/>
</filter>
</defs>
</svg>
