<svg width="464" height="239" viewBox="0 0 464 239" fill="none" xmlns="http://www.w3.org/2000/svg">
<g filter="url(#filter0_d_2178_5782)">
<rect x="18.3857" y="14.7086" width="427" height="202" rx="16" fill="white" shape-rendering="crispEdges"/>
<rect x="18.8454" y="15.1683" width="426.081" height="201.081" rx="15.5404" stroke="#0C1021" stroke-opacity="0.05" stroke-width="0.919289" shape-rendering="crispEdges"/>
<path d="M43.8857 60.7086V46.7086H45.9657V60.7086H43.8857ZM57.6639 54.4386V60.7086H55.5839V54.9486C55.5839 54.502 55.4739 54.0953 55.2539 53.7286C55.0405 53.362 54.7505 53.072 54.3839 52.8586C54.0239 52.6386 53.6172 52.5286 53.1639 52.5286C52.7239 52.5286 52.3205 52.6386 51.9539 52.8586C51.5872 53.072 51.2939 53.362 51.0739 53.7286C50.8539 54.0953 50.7439 54.502 50.7439 54.9486V60.7086H48.6639V50.7086H50.7439V51.7686C51.0905 51.3553 51.5172 51.0286 52.0239 50.7886C52.5305 50.5486 53.0772 50.4286 53.6639 50.4286C54.4039 50.4286 55.0772 50.6086 55.6839 50.9686C56.2905 51.3286 56.7705 51.812 57.1239 52.4186C57.4839 53.0253 57.6639 53.6986 57.6639 54.4386ZM62.66 60.8986C62.1333 60.8653 61.62 60.7586 61.12 60.5786C60.62 60.3986 60.18 60.1553 59.8 59.8486C59.4266 59.5353 59.1466 59.1686 58.96 58.7486L60.73 57.9886C60.8166 58.1686 60.9666 58.3453 61.18 58.5186C61.4 58.692 61.6566 58.8353 61.95 58.9486C62.2433 59.0553 62.55 59.1086 62.87 59.1086C63.1833 59.1086 63.4733 59.0653 63.74 58.9786C64.0133 58.8853 64.2366 58.7453 64.41 58.5586C64.5833 58.372 64.67 58.1486 64.67 57.8886C64.67 57.5953 64.57 57.3686 64.37 57.2086C64.1766 57.042 63.9333 56.9153 63.64 56.8286C63.3466 56.742 63.0533 56.6586 62.76 56.5786C62.1066 56.432 61.5066 56.232 60.96 55.9786C60.42 55.7186 59.99 55.3886 59.67 54.9886C59.35 54.582 59.19 54.0853 59.19 53.4986C59.19 52.8586 59.3633 52.3053 59.71 51.8386C60.0566 51.3653 60.51 51.002 61.07 50.7486C61.6366 50.4953 62.24 50.3686 62.88 50.3686C63.68 50.3686 64.4133 50.5386 65.08 50.8786C65.7466 51.2186 66.2566 51.6853 66.61 52.2786L64.96 53.2586C64.86 53.0586 64.71 52.8786 64.51 52.7186C64.31 52.5586 64.0833 52.432 63.83 52.3386C63.5766 52.2386 63.3133 52.182 63.04 52.1686C62.7 52.1553 62.3833 52.1953 62.09 52.2886C61.8033 52.3753 61.5733 52.5153 61.4 52.7086C61.2266 52.902 61.14 53.1486 61.14 53.4486C61.14 53.742 61.2433 53.962 61.45 54.1086C61.6566 54.2486 61.9166 54.362 62.23 54.4486C62.55 54.5353 62.8766 54.632 63.21 54.7386C63.8033 54.9253 64.36 55.1553 64.88 55.4286C65.4 55.6953 65.82 56.0253 66.14 56.4186C66.46 56.812 66.6133 57.292 66.6 57.8586C66.6 58.4853 66.41 59.0353 66.03 59.5086C65.6566 59.982 65.17 60.342 64.57 60.5886C63.97 60.8353 63.3333 60.9386 62.66 60.8986ZM73.5923 52.7886H71.4923L71.4823 60.7086H69.4023L69.4123 52.7886H67.8223V50.7086H69.4123L69.4023 47.5686H71.4823L71.4923 50.7086H73.5923V52.7886ZM82.9282 50.7086H85.0082V60.7086H82.9182L82.8382 59.2586C82.5449 59.772 82.1482 60.1853 81.6482 60.4986C81.1482 60.812 80.5582 60.9686 79.8782 60.9686C79.1449 60.9686 78.4549 60.832 77.8082 60.5586C77.1616 60.2786 76.5916 59.892 76.0982 59.3986C75.6116 58.9053 75.2316 58.3386 74.9582 57.6986C74.6849 57.052 74.5482 56.3586 74.5482 55.6186C74.5482 54.9053 74.6816 54.2353 74.9482 53.6086C75.2149 52.9753 75.5849 52.422 76.0582 51.9486C76.5316 51.4753 77.0782 51.1053 77.6982 50.8386C78.3249 50.5653 78.9949 50.4286 79.7082 50.4286C80.4349 50.4286 81.0749 50.5953 81.6282 50.9286C82.1882 51.2553 82.6516 51.6753 83.0182 52.1886L82.9282 50.7086ZM79.8282 58.9586C80.4149 58.9586 80.9282 58.8153 81.3682 58.5286C81.8082 58.2353 82.1482 57.842 82.3882 57.3486C82.6349 56.8553 82.7582 56.3086 82.7582 55.7086C82.7582 55.102 82.6349 54.552 82.3882 54.0586C82.1416 53.5653 81.7982 53.1753 81.3582 52.8886C80.9249 52.5953 80.4149 52.4486 79.8282 52.4486C79.2482 52.4486 78.7182 52.5953 78.2382 52.8886C77.7582 53.182 77.3782 53.5753 77.0982 54.0686C76.8182 54.562 76.6782 55.1086 76.6782 55.7086C76.6782 56.3153 76.8216 56.8653 77.1082 57.3586C77.4016 57.8453 77.7849 58.2353 78.2582 58.5286C78.7382 58.8153 79.2616 58.9586 79.8282 58.9586ZM96.0037 54.4386V60.7086H93.9237V54.9486C93.9237 54.502 93.8137 54.0953 93.5937 53.7286C93.3804 53.362 93.0904 53.072 92.7237 52.8586C92.3637 52.6386 91.957 52.5286 91.5037 52.5286C91.0637 52.5286 90.6604 52.6386 90.2937 52.8586C89.927 53.072 89.6337 53.362 89.4137 53.7286C89.1937 54.0953 89.0837 54.502 89.0837 54.9486V60.7086H87.0037V50.7086H89.0837V51.7686C89.4304 51.3553 89.857 51.0286 90.3637 50.7886C90.8704 50.5486 91.417 50.4286 92.0037 50.4286C92.7437 50.4286 93.417 50.6086 94.0237 50.9686C94.6304 51.3286 95.1104 51.812 95.4637 52.4186C95.8237 53.0253 96.0037 53.6986 96.0037 54.4386ZM103.28 52.7886H101.18L101.17 60.7086H99.0898L99.0998 52.7886H97.5098V50.7086H99.0998L99.0898 47.5686H101.17L101.18 50.7086H103.28V52.7886ZM109.875 60.7086V50.7086H111.955V51.7686C112.301 51.3553 112.728 51.0286 113.235 50.7886C113.741 50.5486 114.288 50.4286 114.875 50.4286C115.248 50.4286 115.618 50.4786 115.985 50.5786L115.155 52.6786C114.895 52.5786 114.635 52.5286 114.375 52.5286C113.935 52.5286 113.531 52.6386 113.165 52.8586C112.798 53.072 112.505 53.362 112.285 53.7286C112.065 54.0953 111.955 54.502 111.955 54.9486V60.7086H109.875ZM121.072 60.9686C120.152 60.9686 119.312 60.732 118.552 60.2586C117.798 59.7853 117.195 59.152 116.742 58.3586C116.295 57.5586 116.072 56.6753 116.072 55.7086C116.072 54.9753 116.202 54.292 116.462 53.6586C116.722 53.0186 117.078 52.4586 117.532 51.9786C117.992 51.492 118.525 51.112 119.132 50.8386C119.738 50.5653 120.385 50.4286 121.072 50.4286C121.838 50.4286 122.542 50.5886 123.182 50.9086C123.822 51.222 124.368 51.6586 124.822 52.2186C125.275 52.772 125.608 53.412 125.822 54.1386C126.035 54.8586 126.098 55.6253 126.012 56.4386H118.302C118.388 56.8986 118.555 57.3153 118.802 57.6886C119.055 58.0553 119.375 58.3453 119.762 58.5586C120.155 58.772 120.592 58.882 121.072 58.8886C121.578 58.8886 122.038 58.762 122.452 58.5086C122.872 58.2553 123.215 57.9053 123.482 57.4586L125.592 57.9486C125.192 58.8353 124.588 59.562 123.782 60.1286C122.975 60.6886 122.072 60.9686 121.072 60.9686ZM118.232 54.8486H123.912C123.845 54.3686 123.675 53.9353 123.402 53.5486C123.135 53.1553 122.798 52.8453 122.392 52.6186C121.992 52.3853 121.552 52.2686 121.072 52.2686C120.598 52.2686 120.158 52.382 119.752 52.6086C119.352 52.8353 119.018 53.1453 118.752 53.5386C118.492 53.9253 118.318 54.362 118.232 54.8486ZM130.707 60.8986C130.18 60.8653 129.667 60.7586 129.167 60.5786C128.667 60.3986 128.227 60.1553 127.847 59.8486C127.474 59.5353 127.194 59.1686 127.007 58.7486L128.777 57.9886C128.864 58.1686 129.014 58.3453 129.227 58.5186C129.447 58.692 129.704 58.8353 129.997 58.9486C130.29 59.0553 130.597 59.1086 130.917 59.1086C131.23 59.1086 131.52 59.0653 131.787 58.9786C132.06 58.8853 132.284 58.7453 132.457 58.5586C132.63 58.372 132.717 58.1486 132.717 57.8886C132.717 57.5953 132.617 57.3686 132.417 57.2086C132.224 57.042 131.98 56.9153 131.687 56.8286C131.394 56.742 131.1 56.6586 130.807 56.5786C130.154 56.432 129.554 56.232 129.007 55.9786C128.467 55.7186 128.037 55.3886 127.717 54.9886C127.397 54.582 127.237 54.0853 127.237 53.4986C127.237 52.8586 127.41 52.3053 127.757 51.8386C128.104 51.3653 128.557 51.002 129.117 50.7486C129.684 50.4953 130.287 50.3686 130.927 50.3686C131.727 50.3686 132.46 50.5386 133.127 50.8786C133.794 51.2186 134.304 51.6853 134.657 52.2786L133.007 53.2586C132.907 53.0586 132.757 52.8786 132.557 52.7186C132.357 52.5586 132.13 52.432 131.877 52.3386C131.624 52.2386 131.36 52.182 131.087 52.1686C130.747 52.1553 130.43 52.1953 130.137 52.2886C129.85 52.3753 129.62 52.5153 129.447 52.7086C129.274 52.902 129.187 53.1486 129.187 53.4486C129.187 53.742 129.29 53.962 129.497 54.1086C129.704 54.2486 129.964 54.362 130.277 54.4486C130.597 54.5353 130.924 54.632 131.257 54.7386C131.85 54.9253 132.407 55.1553 132.927 55.4286C133.447 55.6953 133.867 56.0253 134.187 56.4186C134.507 56.812 134.66 57.292 134.647 57.8586C134.647 58.4853 134.457 59.0353 134.077 59.5086C133.704 59.982 133.217 60.342 132.617 60.5886C132.017 60.8353 131.38 60.9386 130.707 60.8986ZM138.439 65.7086H136.359V50.7086H138.439V52.1786C138.773 51.6653 139.199 51.2486 139.719 50.9286C140.239 50.6086 140.853 50.4486 141.559 50.4486C142.286 50.4486 142.966 50.5853 143.599 50.8586C144.239 51.132 144.799 51.512 145.279 51.9986C145.759 52.4786 146.136 53.0353 146.409 53.6686C146.683 54.302 146.819 54.982 146.819 55.7086C146.819 56.4353 146.683 57.1186 146.409 57.7586C146.136 58.3986 145.759 58.962 145.279 59.4486C144.799 59.9286 144.239 60.3053 143.599 60.5786C142.966 60.852 142.286 60.9886 141.559 60.9886C140.853 60.9886 140.239 60.8286 139.719 60.5086C139.199 60.182 138.773 59.7653 138.439 59.2586V65.7086ZM141.539 52.4586C140.959 52.4586 140.449 52.6053 140.009 52.8986C139.569 53.192 139.226 53.5853 138.979 54.0786C138.733 54.5653 138.609 55.1086 138.609 55.7086C138.609 56.3086 138.733 56.8553 138.979 57.3486C139.226 57.842 139.569 58.2353 140.009 58.5286C140.449 58.822 140.959 58.9686 141.539 58.9686C142.113 58.9686 142.639 58.8253 143.119 58.5386C143.599 58.2453 143.983 57.852 144.269 57.3586C144.556 56.8653 144.699 56.3153 144.699 55.7086C144.699 55.1153 144.556 54.572 144.269 54.0786C143.989 53.5853 143.609 53.192 143.129 52.8986C142.649 52.6053 142.119 52.4586 141.539 52.4586ZM152.829 60.9686C151.909 60.9686 151.069 60.732 150.309 60.2586C149.556 59.7853 148.953 59.152 148.499 58.3586C148.053 57.5586 147.829 56.6753 147.829 55.7086C147.829 54.9753 147.959 54.292 148.219 53.6586C148.479 53.0186 148.836 52.4586 149.289 51.9786C149.749 51.492 150.283 51.112 150.889 50.8386C151.496 50.5653 152.143 50.4286 152.829 50.4286C153.749 50.4286 154.586 50.6653 155.339 51.1386C156.099 51.612 156.703 52.2486 157.149 53.0486C157.603 53.8486 157.829 54.7353 157.829 55.7086C157.829 56.4353 157.699 57.1153 157.439 57.7486C157.179 58.382 156.819 58.942 156.359 59.4286C155.906 59.9086 155.376 60.2853 154.769 60.5586C154.169 60.832 153.523 60.9686 152.829 60.9686ZM152.829 58.8886C153.383 58.8886 153.879 58.742 154.319 58.4486C154.759 58.1553 155.106 57.7686 155.359 57.2886C155.619 56.802 155.749 56.2753 155.749 55.7086C155.749 55.1286 155.616 54.5953 155.349 54.1086C155.089 53.622 154.739 53.2353 154.299 52.9486C153.859 52.6553 153.369 52.5086 152.829 52.5086C152.283 52.5086 151.786 52.6553 151.339 52.9486C150.899 53.242 150.549 53.632 150.289 54.1186C150.036 54.6053 149.909 55.1353 149.909 55.7086C149.909 56.302 150.043 56.8386 150.309 57.3186C150.576 57.7986 150.929 58.182 151.369 58.4686C151.816 58.7486 152.303 58.8886 152.829 58.8886ZM168.445 54.4386V60.7086H166.365V54.9486C166.365 54.502 166.255 54.0953 166.035 53.7286C165.822 53.362 165.532 53.072 165.165 52.8586C164.805 52.6386 164.398 52.5286 163.945 52.5286C163.505 52.5286 163.102 52.6386 162.735 52.8586C162.368 53.072 162.075 53.362 161.855 53.7286C161.635 54.0953 161.525 54.502 161.525 54.9486V60.7086H159.445V50.7086H161.525V51.7686C161.872 51.3553 162.298 51.0286 162.805 50.7886C163.312 50.5486 163.858 50.4286 164.445 50.4286C165.185 50.4286 165.858 50.6086 166.465 50.9686C167.072 51.3286 167.552 51.812 167.905 52.4186C168.265 53.0253 168.445 53.6986 168.445 54.4386ZM173.441 60.8986C172.915 60.8653 172.401 60.7586 171.901 60.5786C171.401 60.3986 170.961 60.1553 170.581 59.8486C170.208 59.5353 169.928 59.1686 169.741 58.7486L171.511 57.9886C171.598 58.1686 171.748 58.3453 171.961 58.5186C172.181 58.692 172.438 58.8353 172.731 58.9486C173.025 59.0553 173.331 59.1086 173.651 59.1086C173.965 59.1086 174.255 59.0653 174.521 58.9786C174.795 58.8853 175.018 58.7453 175.191 58.5586C175.365 58.372 175.451 58.1486 175.451 57.8886C175.451 57.5953 175.351 57.3686 175.151 57.2086C174.958 57.042 174.715 56.9153 174.421 56.8286C174.128 56.742 173.835 56.6586 173.541 56.5786C172.888 56.432 172.288 56.232 171.741 55.9786C171.201 55.7186 170.771 55.3886 170.451 54.9886C170.131 54.582 169.971 54.0853 169.971 53.4986C169.971 52.8586 170.145 52.3053 170.491 51.8386C170.838 51.3653 171.291 51.002 171.851 50.7486C172.418 50.4953 173.021 50.3686 173.661 50.3686C174.461 50.3686 175.195 50.5386 175.861 50.8786C176.528 51.2186 177.038 51.6853 177.391 52.2786L175.741 53.2586C175.641 53.0586 175.491 52.8786 175.291 52.7186C175.091 52.5586 174.865 52.432 174.611 52.3386C174.358 52.2386 174.095 52.182 173.821 52.1686C173.481 52.1553 173.165 52.1953 172.871 52.2886C172.585 52.3753 172.355 52.5153 172.181 52.7086C172.008 52.902 171.921 53.1486 171.921 53.4486C171.921 53.742 172.025 53.962 172.231 54.1086C172.438 54.2486 172.698 54.362 173.011 54.4486C173.331 54.5353 173.658 54.632 173.991 54.7386C174.585 54.9253 175.141 55.1553 175.661 55.4286C176.181 55.6953 176.601 56.0253 176.921 56.4186C177.241 56.812 177.395 57.292 177.381 57.8586C177.381 58.4853 177.191 59.0353 176.811 59.5086C176.438 59.982 175.951 60.342 175.351 60.5886C174.751 60.8353 174.115 60.9386 173.441 60.8986ZM183.357 60.9686C182.437 60.9686 181.597 60.732 180.837 60.2586C180.084 59.7853 179.48 59.152 179.027 58.3586C178.58 57.5586 178.357 56.6753 178.357 55.7086C178.357 54.9753 178.487 54.292 178.747 53.6586C179.007 53.0186 179.364 52.4586 179.817 51.9786C180.277 51.492 180.81 51.112 181.417 50.8386C182.024 50.5653 182.67 50.4286 183.357 50.4286C184.124 50.4286 184.827 50.5886 185.467 50.9086C186.107 51.222 186.654 51.6586 187.107 52.2186C187.56 52.772 187.894 53.412 188.107 54.1386C188.32 54.8586 188.384 55.6253 188.297 56.4386H180.587C180.674 56.8986 180.84 57.3153 181.087 57.6886C181.34 58.0553 181.66 58.3453 182.047 58.5586C182.44 58.772 182.877 58.882 183.357 58.8886C183.864 58.8886 184.324 58.762 184.737 58.5086C185.157 58.2553 185.5 57.9053 185.767 57.4586L187.877 57.9486C187.477 58.8353 186.874 59.562 186.067 60.1286C185.26 60.6886 184.357 60.9686 183.357 60.9686ZM180.517 54.8486H186.197C186.13 54.3686 185.96 53.9353 185.687 53.5486C185.42 53.1553 185.084 52.8453 184.677 52.6186C184.277 52.3853 183.837 52.2686 183.357 52.2686C182.884 52.2686 182.444 52.382 182.037 52.6086C181.637 52.8353 181.304 53.1453 181.037 53.5386C180.777 53.9253 180.604 54.362 180.517 54.8486Z" fill="#0C1021"/>
<rect x="42.3857" y="88.7086" width="205" height="40" rx="20" fill="white"/>
<rect x="42.8857" y="89.2086" width="204" height="39" rx="19.5" stroke="#2D2D2D" stroke-opacity="0.1"/>
<rect x="50.3857" y="96.7086" width="24" height="24" rx="12" fill="#4268FF"/>
<path d="M62.1432 113.209V104.389H61.0932L61.3732 103.409H63.1232V113.209H62.1432Z" fill="white"/>
<path d="M83.4657 114.709V102.109H84.9777V113.197H90.6207V114.709H83.4657ZM95.6875 114.943C94.8595 114.943 94.1035 114.73 93.4195 114.304C92.7415 113.878 92.1985 113.308 91.7905 112.594C91.3885 111.874 91.1875 111.079 91.1875 110.209C91.1875 109.549 91.3045 108.934 91.5385 108.364C91.7725 107.788 92.0935 107.284 92.5015 106.852C92.9155 106.414 93.3955 106.072 93.9415 105.826C94.4875 105.58 95.0695 105.457 95.6875 105.457C96.3655 105.457 96.9865 105.595 97.5505 105.871C98.1205 106.141 98.6065 106.519 99.0085 107.005C99.4165 107.491 99.7195 108.055 99.9175 108.697C100.121 109.339 100.196 110.026 100.142 110.758H92.7985C92.8705 111.268 93.0385 111.724 93.3025 112.126C93.5665 112.522 93.9025 112.837 94.3105 113.071C94.7245 113.305 95.1835 113.425 95.6875 113.431C96.2275 113.431 96.7165 113.293 97.1545 113.017C97.5925 112.735 97.9465 112.351 98.2165 111.865L99.7555 112.225C99.3955 113.023 98.8525 113.677 98.1265 114.187C97.4005 114.691 96.5875 114.943 95.6875 114.943ZM92.7535 109.57H98.6215C98.5735 109.066 98.4115 108.607 98.1355 108.193C97.8595 107.773 97.5085 107.437 97.0825 107.185C96.6565 106.933 96.1915 106.807 95.6875 106.807C95.1835 106.807 94.7215 106.93 94.3015 107.176C93.8815 107.422 93.5335 107.755 93.2575 108.175C92.9875 108.589 92.8195 109.054 92.7535 109.57ZM108.842 105.709H110.354V114.709H108.842L108.779 113.188C108.497 113.71 108.107 114.133 107.609 114.457C107.117 114.781 106.529 114.943 105.845 114.943C105.185 114.943 104.567 114.82 103.991 114.574C103.415 114.322 102.905 113.977 102.461 113.539C102.023 113.095 101.681 112.585 101.435 112.009C101.189 111.433 101.066 110.812 101.066 110.146C101.066 109.504 101.186 108.898 101.426 108.328C101.666 107.758 101.999 107.26 102.425 106.834C102.857 106.402 103.355 106.066 103.919 105.826C104.483 105.58 105.089 105.457 105.737 105.457C106.445 105.457 107.066 105.625 107.6 105.961C108.134 106.291 108.566 106.72 108.896 107.248L108.842 105.709ZM105.818 113.476C106.412 113.476 106.925 113.332 107.357 113.044C107.795 112.75 108.131 112.354 108.365 111.856C108.605 111.358 108.725 110.809 108.725 110.209C108.725 109.597 108.605 109.045 108.365 108.553C108.125 108.055 107.786 107.662 107.348 107.374C106.916 107.08 106.406 106.933 105.818 106.933C105.224 106.933 104.684 107.08 104.198 107.374C103.712 107.668 103.325 108.064 103.037 108.562C102.755 109.054 102.614 109.603 102.614 110.209C102.614 110.815 102.761 111.367 103.055 111.865C103.349 112.357 103.739 112.75 104.225 113.044C104.711 113.332 105.242 113.476 105.818 113.476ZM119.222 101.209H120.734V114.709H119.222V113.179C118.916 113.707 118.505 114.133 117.989 114.457C117.473 114.781 116.867 114.943 116.171 114.943C115.517 114.943 114.905 114.82 114.335 114.574C113.765 114.328 113.261 113.989 112.823 113.557C112.391 113.119 112.052 112.615 111.806 112.045C111.56 111.475 111.437 110.863 111.437 110.209C111.437 109.555 111.56 108.943 111.806 108.373C112.052 107.797 112.391 107.293 112.823 106.861C113.261 106.423 113.765 106.081 114.335 105.835C114.905 105.589 115.517 105.466 116.171 105.466C116.867 105.466 117.473 105.628 117.989 105.952C118.505 106.276 118.916 106.702 119.222 107.23V101.209ZM116.189 113.476C116.783 113.476 117.296 113.332 117.728 113.044C118.166 112.75 118.502 112.354 118.736 111.856C118.976 111.358 119.096 110.809 119.096 110.209C119.096 109.597 118.976 109.045 118.736 108.553C118.496 108.055 118.157 107.662 117.719 107.374C117.287 107.08 116.777 106.933 116.189 106.933C115.595 106.933 115.055 107.08 114.569 107.374C114.089 107.668 113.705 108.064 113.417 108.562C113.129 109.054 112.985 109.603 112.985 110.209C112.985 110.815 113.132 111.367 113.426 111.865C113.72 112.357 114.11 112.75 114.596 113.044C115.082 113.332 115.613 113.476 116.189 113.476ZM133.419 112.333L134.769 113.062C134.361 113.632 133.842 114.088 133.212 114.43C132.588 114.772 131.91 114.943 131.178 114.943C130.35 114.943 129.594 114.73 128.91 114.304C128.232 113.878 127.689 113.308 127.281 112.594C126.879 111.874 126.678 111.079 126.678 110.209C126.678 109.549 126.795 108.934 127.029 108.364C127.263 107.788 127.584 107.284 127.992 106.852C128.406 106.414 128.886 106.072 129.432 105.826C129.978 105.58 130.56 105.457 131.178 105.457C131.91 105.457 132.588 105.628 133.212 105.97C133.842 106.312 134.361 106.771 134.769 107.347L133.419 108.076C133.131 107.722 132.789 107.449 132.393 107.257C131.997 107.065 131.592 106.969 131.178 106.969C130.62 106.969 130.113 107.119 129.657 107.419C129.207 107.713 128.85 108.106 128.586 108.598C128.322 109.09 128.19 109.627 128.19 110.209C128.19 110.791 128.322 111.328 128.586 111.82C128.856 112.306 129.216 112.696 129.666 112.99C130.122 113.284 130.626 113.431 131.178 113.431C131.622 113.431 132.039 113.329 132.429 113.125C132.819 112.921 133.149 112.657 133.419 112.333ZM143.471 105.709H144.983V114.709H143.471L143.408 113.188C143.126 113.71 142.736 114.133 142.238 114.457C141.746 114.781 141.158 114.943 140.474 114.943C139.814 114.943 139.196 114.82 138.62 114.574C138.044 114.322 137.534 113.977 137.09 113.539C136.652 113.095 136.31 112.585 136.064 112.009C135.818 111.433 135.695 110.812 135.695 110.146C135.695 109.504 135.815 108.898 136.055 108.328C136.295 107.758 136.628 107.26 137.054 106.834C137.486 106.402 137.984 106.066 138.548 105.826C139.112 105.58 139.718 105.457 140.366 105.457C141.074 105.457 141.695 105.625 142.229 105.961C142.763 106.291 143.195 106.72 143.525 107.248L143.471 105.709ZM140.447 113.476C141.041 113.476 141.554 113.332 141.986 113.044C142.424 112.75 142.76 112.354 142.994 111.856C143.234 111.358 143.354 110.809 143.354 110.209C143.354 109.597 143.234 109.045 142.994 108.553C142.754 108.055 142.415 107.662 141.977 107.374C141.545 107.08 141.035 106.933 140.447 106.933C139.853 106.933 139.313 107.08 138.827 107.374C138.341 107.668 137.954 108.064 137.666 108.562C137.384 109.054 137.243 109.603 137.243 110.209C137.243 110.815 137.39 111.367 137.684 111.865C137.978 112.357 138.368 112.75 138.854 113.044C139.34 113.332 139.871 113.476 140.447 113.476ZM148.294 119.209H146.782V105.709H148.294V107.248C148.6 106.72 149.008 106.294 149.518 105.97C150.028 105.64 150.634 105.475 151.336 105.475C151.99 105.475 152.602 105.598 153.172 105.844C153.748 106.09 154.252 106.432 154.684 106.87C155.116 107.302 155.455 107.803 155.701 108.373C155.947 108.943 156.07 109.555 156.07 110.209C156.07 110.863 155.947 111.478 155.701 112.054C155.455 112.63 155.116 113.137 154.684 113.575C154.252 114.007 153.748 114.346 153.172 114.592C152.602 114.838 151.99 114.961 151.336 114.961C150.634 114.961 150.028 114.799 149.518 114.475C149.008 114.145 148.6 113.716 148.294 113.188V119.209ZM151.318 106.942C150.736 106.942 150.226 107.089 149.788 107.383C149.35 107.677 149.011 108.07 148.771 108.562C148.537 109.054 148.42 109.603 148.42 110.209C148.42 110.809 148.537 111.358 148.771 111.856C149.011 112.354 149.347 112.75 149.779 113.044C150.217 113.338 150.73 113.485 151.318 113.485C151.9 113.485 152.434 113.341 152.92 113.053C153.406 112.759 153.796 112.366 154.09 111.874C154.384 111.376 154.531 110.821 154.531 110.209C154.531 109.609 154.387 109.063 154.099 108.571C153.811 108.073 153.424 107.677 152.938 107.383C152.452 107.089 151.912 106.942 151.318 106.942ZM162.132 107.221H160.089L160.08 114.709H158.568L158.577 107.221H157.029V105.709H158.577L158.568 102.883H160.08L160.089 105.709H162.132V107.221ZM163.385 111.289V105.709H164.897V110.956C164.897 111.412 165.008 111.826 165.23 112.198C165.452 112.57 165.749 112.867 166.121 113.089C166.499 113.305 166.913 113.413 167.363 113.413C167.819 113.413 168.23 113.305 168.596 113.089C168.968 112.867 169.265 112.57 169.487 112.198C169.709 111.826 169.82 111.412 169.82 110.956V105.709H171.332L171.341 114.709H169.829L169.82 113.566C169.502 113.986 169.1 114.322 168.614 114.574C168.128 114.82 167.603 114.943 167.039 114.943C166.367 114.943 165.752 114.781 165.194 114.457C164.642 114.127 164.201 113.686 163.871 113.134C163.547 112.582 163.385 111.967 163.385 111.289ZM173.149 114.709V105.709H174.661V106.834C174.979 106.414 175.381 106.081 175.867 105.835C176.353 105.583 176.881 105.457 177.451 105.457C177.799 105.457 178.135 105.502 178.459 105.592L177.847 107.104C177.601 107.026 177.361 106.987 177.127 106.987C176.677 106.987 176.263 107.098 175.885 107.32C175.513 107.536 175.216 107.83 174.994 108.202C174.772 108.574 174.661 108.988 174.661 109.444V114.709H173.149ZM183.068 114.943C182.24 114.943 181.484 114.73 180.8 114.304C180.122 113.878 179.579 113.308 179.171 112.594C178.769 111.874 178.568 111.079 178.568 110.209C178.568 109.549 178.685 108.934 178.919 108.364C179.153 107.788 179.474 107.284 179.882 106.852C180.296 106.414 180.776 106.072 181.322 105.826C181.868 105.58 182.45 105.457 183.068 105.457C183.746 105.457 184.367 105.595 184.931 105.871C185.501 106.141 185.987 106.519 186.389 107.005C186.797 107.491 187.1 108.055 187.298 108.697C187.502 109.339 187.577 110.026 187.523 110.758H180.179C180.251 111.268 180.419 111.724 180.683 112.126C180.947 112.522 181.283 112.837 181.691 113.071C182.105 113.305 182.564 113.425 183.068 113.431C183.608 113.431 184.097 113.293 184.535 113.017C184.973 112.735 185.327 112.351 185.597 111.865L187.136 112.225C186.776 113.023 186.233 113.677 185.507 114.187C184.781 114.691 183.968 114.943 183.068 114.943ZM180.134 109.57H186.002C185.954 109.066 185.792 108.607 185.516 108.193C185.24 107.773 184.889 107.437 184.463 107.185C184.037 106.933 183.572 106.807 183.068 106.807C182.564 106.807 182.102 106.93 181.682 107.176C181.262 107.422 180.914 107.755 180.638 108.175C180.368 108.589 180.2 109.054 180.134 109.57ZM196.232 101.209H197.744V114.709H196.232V113.179C195.926 113.707 195.515 114.133 194.999 114.457C194.483 114.781 193.877 114.943 193.181 114.943C192.527 114.943 191.915 114.82 191.345 114.574C190.775 114.328 190.271 113.989 189.833 113.557C189.401 113.119 189.062 112.615 188.816 112.045C188.57 111.475 188.447 110.863 188.447 110.209C188.447 109.555 188.57 108.943 188.816 108.373C189.062 107.797 189.401 107.293 189.833 106.861C190.271 106.423 190.775 106.081 191.345 105.835C191.915 105.589 192.527 105.466 193.181 105.466C193.877 105.466 194.483 105.628 194.999 105.952C195.515 106.276 195.926 106.702 196.232 107.23V101.209ZM193.199 113.476C193.793 113.476 194.306 113.332 194.738 113.044C195.176 112.75 195.512 112.354 195.746 111.856C195.986 111.358 196.106 110.809 196.106 110.209C196.106 109.597 195.986 109.045 195.746 108.553C195.506 108.055 195.167 107.662 194.729 107.374C194.297 107.08 193.787 106.933 193.199 106.933C192.605 106.933 192.065 107.08 191.579 107.374C191.099 107.668 190.715 108.064 190.427 108.562C190.139 109.054 189.995 109.603 189.995 110.209C189.995 110.815 190.142 111.367 190.436 111.865C190.73 112.357 191.12 112.75 191.606 113.044C192.092 113.332 192.623 113.476 193.199 113.476Z" fill="#0C1021"/>
<path d="M209.045 113.209V104.585H207.946L208.275 103.409H210.221V113.209H209.045ZM215.53 113.391C214.947 113.391 214.424 113.26 213.962 112.999C213.5 112.733 213.103 112.366 212.772 111.9C212.441 111.433 212.189 110.894 212.016 110.283C211.843 109.667 211.757 109.009 211.757 108.309C211.757 107.609 211.843 106.951 212.016 106.335C212.189 105.719 212.441 105.18 212.772 104.718C213.103 104.251 213.5 103.887 213.962 103.626C214.424 103.36 214.947 103.227 215.53 103.227C216.109 103.227 216.629 103.36 217.091 103.626C217.558 103.887 217.952 104.251 218.274 104.718C218.601 105.18 218.85 105.719 219.023 106.335C219.2 106.951 219.289 107.609 219.289 108.309C219.289 109.009 219.2 109.667 219.023 110.283C218.85 110.894 218.601 111.433 218.274 111.9C217.952 112.366 217.558 112.733 217.091 112.999C216.629 113.26 216.109 113.391 215.53 113.391ZM215.53 112.215C216.113 112.215 216.601 112.035 216.993 111.676C217.39 111.312 217.686 110.833 217.882 110.241C218.078 109.648 218.176 109.004 218.176 108.309C218.176 107.576 218.073 106.916 217.868 106.328C217.667 105.735 217.369 105.266 216.972 104.921C216.58 104.575 216.099 104.403 215.53 104.403C215.082 104.403 214.69 104.508 214.354 104.718C214.023 104.928 213.747 105.215 213.528 105.579C213.309 105.943 213.143 106.36 213.031 106.832C212.924 107.298 212.87 107.791 212.87 108.309C212.87 109.004 212.97 109.65 213.171 110.248C213.372 110.84 213.668 111.316 214.06 111.676C214.457 112.035 214.947 112.215 215.53 112.215ZM220.901 107.497C220.724 107.497 220.572 107.434 220.446 107.308C220.325 107.182 220.264 107.028 220.264 106.846C220.264 106.673 220.325 106.524 220.446 106.398C220.572 106.272 220.724 106.209 220.901 106.209C221.083 106.209 221.237 106.272 221.363 106.398C221.489 106.524 221.552 106.673 221.552 106.846C221.552 107.028 221.489 107.182 221.363 107.308C221.237 107.434 221.083 107.497 220.901 107.497ZM220.901 113.391C220.724 113.391 220.572 113.328 220.446 113.202C220.325 113.076 220.264 112.922 220.264 112.74C220.264 112.567 220.325 112.418 220.446 112.292C220.572 112.166 220.724 112.103 220.901 112.103C221.083 112.103 221.237 112.166 221.363 112.292C221.489 112.418 221.552 112.567 221.552 112.74C221.552 112.922 221.489 113.076 221.363 113.202C221.237 113.328 221.083 113.391 220.901 113.391ZM226.59 113.391C226.007 113.391 225.484 113.26 225.022 112.999C224.56 112.733 224.164 112.366 223.832 111.9C223.501 111.433 223.249 110.894 223.076 110.283C222.904 109.667 222.817 109.009 222.817 108.309C222.817 107.609 222.904 106.951 223.076 106.335C223.249 105.719 223.501 105.18 223.832 104.718C224.164 104.251 224.56 103.887 225.022 103.626C225.484 103.36 226.007 103.227 226.59 103.227C227.169 103.227 227.689 103.36 228.151 103.626C228.618 103.887 229.012 104.251 229.334 104.718C229.661 105.18 229.911 105.719 230.083 106.335C230.261 106.951 230.349 107.609 230.349 108.309C230.349 109.009 230.261 109.667 230.083 110.283C229.911 110.894 229.661 111.433 229.334 111.9C229.012 112.366 228.618 112.733 228.151 112.999C227.689 113.26 227.169 113.391 226.59 113.391ZM226.59 112.215C227.174 112.215 227.661 112.035 228.053 111.676C228.45 111.312 228.746 110.833 228.942 110.241C229.138 109.648 229.236 109.004 229.236 108.309C229.236 107.576 229.134 106.916 228.928 106.328C228.728 105.735 228.429 105.266 228.032 104.921C227.64 104.575 227.16 104.403 226.59 104.403C226.142 104.403 225.75 104.508 225.414 104.718C225.083 104.928 224.808 105.215 224.588 105.579C224.369 105.943 224.203 106.36 224.091 106.832C223.984 107.298 223.93 107.791 223.93 108.309C223.93 109.004 224.031 109.65 224.231 110.248C224.432 110.84 224.728 111.316 225.12 111.676C225.517 112.035 226.007 112.215 226.59 112.215ZM232.424 113.209V104.585H231.325L231.654 103.409H233.6V113.209H232.424Z" fill="#535662"/>
<rect x="260.386" y="88.7086" width="142" height="40" rx="20" fill="white"/>
<rect x="260.886" y="89.2086" width="141" height="39" rx="19.5" stroke="#2D2D2D" stroke-opacity="0.1"/>
<rect x="268.386" y="96.7086" width="24" height="24" rx="12" fill="#4268FF"/>
<path d="M277.131 113.209V112.341C277.514 111.986 277.934 111.599 278.391 111.179C278.849 110.754 279.301 110.318 279.749 109.87C280.202 109.417 280.615 108.971 280.988 108.533C281.362 108.089 281.66 107.672 281.884 107.28C282.113 106.883 282.227 106.533 282.227 106.23C282.227 105.861 282.136 105.525 281.954 105.222C281.777 104.914 281.537 104.669 281.233 104.487C280.935 104.3 280.601 104.207 280.232 104.207C279.864 104.207 279.525 104.3 279.217 104.487C278.914 104.669 278.671 104.914 278.489 105.222C278.307 105.525 278.216 105.861 278.216 106.23H277.236C277.236 105.67 277.372 105.163 277.642 104.711C277.918 104.258 278.282 103.899 278.734 103.633C279.187 103.362 279.686 103.227 280.232 103.227C280.778 103.227 281.275 103.362 281.723 103.633C282.176 103.903 282.535 104.265 282.801 104.718C283.072 105.17 283.207 105.674 283.207 106.23C283.207 106.561 283.119 106.925 282.941 107.322C282.769 107.714 282.533 108.122 282.234 108.547C281.936 108.967 281.6 109.391 281.226 109.821C280.853 110.25 280.463 110.67 280.057 111.081C279.651 111.487 279.257 111.869 278.874 112.229H283.354V113.209H277.131Z" fill="white"/>
<path d="M301.466 114.709V102.109H305.633C306.503 102.109 307.319 102.274 308.081 102.604C308.843 102.928 309.512 103.381 310.088 103.963C310.664 104.539 311.114 105.208 311.438 105.97C311.768 106.726 311.933 107.539 311.933 108.409C311.933 109.279 311.768 110.095 311.438 110.857C311.114 111.613 310.664 112.282 310.088 112.864C309.512 113.44 308.843 113.893 308.081 114.223C307.319 114.547 306.503 114.709 305.633 114.709H301.466ZM302.978 113.197H305.633C306.293 113.197 306.911 113.074 307.487 112.828C308.069 112.576 308.579 112.231 309.017 111.793C309.455 111.355 309.797 110.848 310.043 110.272C310.295 109.69 310.421 109.069 310.421 108.409C310.421 107.749 310.295 107.131 310.043 106.555C309.797 105.973 309.452 105.463 309.008 105.025C308.57 104.587 308.063 104.245 307.487 103.999C306.911 103.747 306.293 103.621 305.633 103.621H302.978V113.197ZM313.472 105.709H314.984V114.709H313.472V105.709ZM314.246 104.242C314.006 104.242 313.805 104.164 313.643 104.008C313.481 103.852 313.4 103.657 313.4 103.423C313.4 103.189 313.481 102.994 313.643 102.838C313.805 102.682 314.003 102.604 314.237 102.604C314.471 102.604 314.669 102.682 314.831 102.838C314.993 102.994 315.074 103.189 315.074 103.423C315.074 103.657 314.993 103.852 314.831 104.008C314.675 104.164 314.48 104.242 314.246 104.242ZM324.258 105.709H325.77V114.709H324.258L324.195 113.188C323.913 113.71 323.523 114.133 323.025 114.457C322.533 114.781 321.945 114.943 321.261 114.943C320.601 114.943 319.983 114.82 319.407 114.574C318.831 114.322 318.321 113.977 317.877 113.539C317.439 113.095 317.097 112.585 316.851 112.009C316.605 111.433 316.482 110.812 316.482 110.146C316.482 109.504 316.602 108.898 316.842 108.328C317.082 107.758 317.415 107.26 317.841 106.834C318.273 106.402 318.771 106.066 319.335 105.826C319.899 105.58 320.505 105.457 321.153 105.457C321.861 105.457 322.482 105.625 323.016 105.961C323.55 106.291 323.982 106.72 324.312 107.248L324.258 105.709ZM321.234 113.476C321.828 113.476 322.341 113.332 322.773 113.044C323.211 112.75 323.547 112.354 323.781 111.856C324.021 111.358 324.141 110.809 324.141 110.209C324.141 109.597 324.021 109.045 323.781 108.553C323.541 108.055 323.202 107.662 322.764 107.374C322.332 107.08 321.822 106.933 321.234 106.933C320.64 106.933 320.1 107.08 319.614 107.374C319.128 107.668 318.741 108.064 318.453 108.562C318.171 109.054 318.03 109.603 318.03 110.209C318.03 110.815 318.177 111.367 318.471 111.865C318.765 112.357 319.155 112.75 319.641 113.044C320.127 113.332 320.658 113.476 321.234 113.476ZM327.675 114.709V101.209H329.187V114.709H327.675ZM331.349 105.709H332.861V114.709H331.349V105.709ZM332.123 104.242C331.883 104.242 331.682 104.164 331.52 104.008C331.358 103.852 331.277 103.657 331.277 103.423C331.277 103.189 331.358 102.994 331.52 102.838C331.682 102.682 331.88 102.604 332.114 102.604C332.348 102.604 332.546 102.682 332.708 102.838C332.87 102.994 332.951 103.189 332.951 103.423C332.951 103.657 332.87 103.852 332.708 104.008C332.552 104.164 332.357 104.242 332.123 104.242ZM342.926 109.111V114.709H341.414V109.444C341.414 108.988 341.303 108.574 341.081 108.202C340.859 107.83 340.562 107.536 340.19 107.32C339.818 107.098 339.404 106.987 338.948 106.987C338.498 106.987 338.084 107.098 337.706 107.32C337.334 107.536 337.037 107.83 336.815 108.202C336.593 108.574 336.482 108.988 336.482 109.444V114.709H334.97V105.709H336.482V106.834C336.8 106.414 337.202 106.081 337.688 105.835C338.174 105.583 338.702 105.457 339.272 105.457C339.944 105.457 340.556 105.622 341.108 105.952C341.666 106.276 342.107 106.714 342.431 107.266C342.761 107.818 342.926 108.433 342.926 109.111ZM351.579 105.709H353.091V114.997C353.091 115.591 352.962 116.143 352.704 116.653C352.452 117.169 352.11 117.616 351.678 117.994C351.246 118.378 350.754 118.675 350.202 118.885C349.65 119.101 349.074 119.209 348.474 119.209C347.85 119.209 347.247 119.068 346.665 118.786C346.083 118.51 345.573 118.138 345.135 117.67C344.703 117.208 344.391 116.689 344.199 116.113L345.585 115.483C345.699 115.897 345.903 116.269 346.197 116.599C346.497 116.935 346.845 117.199 347.241 117.391C347.643 117.589 348.054 117.688 348.474 117.688C348.87 117.688 349.251 117.619 349.617 117.481C349.989 117.343 350.322 117.151 350.616 116.905C350.916 116.665 351.15 116.38 351.318 116.05C351.492 115.726 351.579 115.375 351.579 114.997V113.206C351.273 113.722 350.868 114.142 350.364 114.466C349.866 114.784 349.284 114.943 348.618 114.943C347.982 114.943 347.385 114.82 346.827 114.574C346.269 114.328 345.78 113.989 345.36 113.557C344.94 113.119 344.61 112.615 344.37 112.045C344.13 111.475 344.01 110.863 344.01 110.209C344.01 109.555 344.13 108.943 344.37 108.373C344.61 107.797 344.94 107.293 345.36 106.861C345.78 106.423 346.269 106.081 346.827 105.835C347.385 105.589 347.982 105.466 348.618 105.466C349.284 105.466 349.866 105.625 350.364 105.943C350.868 106.261 351.273 106.681 351.579 107.203V105.709ZM348.627 113.476C349.209 113.476 349.713 113.326 350.139 113.026C350.571 112.726 350.904 112.327 351.138 111.829C351.372 111.331 351.489 110.791 351.489 110.209C351.489 109.609 351.369 109.063 351.129 108.571C350.895 108.073 350.562 107.677 350.13 107.383C349.704 107.083 349.203 106.933 348.627 106.933C348.063 106.933 347.547 107.08 347.079 107.374C346.611 107.668 346.239 108.064 345.963 108.562C345.693 109.054 345.558 109.603 345.558 110.209C345.558 110.815 345.696 111.367 345.972 111.865C346.254 112.357 346.626 112.75 347.088 113.044C347.556 113.332 348.069 113.476 348.627 113.476Z" fill="#0C1021"/>
<path d="M364.045 113.209V104.585H362.946L363.275 103.409H365.221V113.209H364.045ZM370.53 113.391C369.947 113.391 369.424 113.26 368.962 112.999C368.5 112.733 368.103 112.366 367.772 111.9C367.441 111.433 367.189 110.894 367.016 110.283C366.843 109.667 366.757 109.009 366.757 108.309C366.757 107.609 366.843 106.951 367.016 106.335C367.189 105.719 367.441 105.18 367.772 104.718C368.103 104.251 368.5 103.887 368.962 103.626C369.424 103.36 369.947 103.227 370.53 103.227C371.109 103.227 371.629 103.36 372.091 103.626C372.558 103.887 372.952 104.251 373.274 104.718C373.601 105.18 373.85 105.719 374.023 106.335C374.2 106.951 374.289 107.609 374.289 108.309C374.289 109.009 374.2 109.667 374.023 110.283C373.85 110.894 373.601 111.433 373.274 111.9C372.952 112.366 372.558 112.733 372.091 112.999C371.629 113.26 371.109 113.391 370.53 113.391ZM370.53 112.215C371.113 112.215 371.601 112.035 371.993 111.676C372.39 111.312 372.686 110.833 372.882 110.241C373.078 109.648 373.176 109.004 373.176 108.309C373.176 107.576 373.073 106.916 372.868 106.328C372.667 105.735 372.369 105.266 371.972 104.921C371.58 104.575 371.099 104.403 370.53 104.403C370.082 104.403 369.69 104.508 369.354 104.718C369.023 104.928 368.747 105.215 368.528 105.579C368.309 105.943 368.143 106.36 368.031 106.832C367.924 107.298 367.87 107.791 367.87 108.309C367.87 109.004 367.97 109.65 368.171 110.248C368.372 110.84 368.668 111.316 369.06 111.676C369.457 112.035 369.947 112.215 370.53 112.215ZM375.901 107.497C375.724 107.497 375.572 107.434 375.446 107.308C375.325 107.182 375.264 107.028 375.264 106.846C375.264 106.673 375.325 106.524 375.446 106.398C375.572 106.272 375.724 106.209 375.901 106.209C376.083 106.209 376.237 106.272 376.363 106.398C376.489 106.524 376.552 106.673 376.552 106.846C376.552 107.028 376.489 107.182 376.363 107.308C376.237 107.434 376.083 107.497 375.901 107.497ZM375.901 113.391C375.724 113.391 375.572 113.328 375.446 113.202C375.325 113.076 375.264 112.922 375.264 112.74C375.264 112.567 375.325 112.418 375.446 112.292C375.572 112.166 375.724 112.103 375.901 112.103C376.083 112.103 376.237 112.166 376.363 112.292C376.489 112.418 376.552 112.567 376.552 112.74C376.552 112.922 376.489 113.076 376.363 113.202C376.237 113.328 376.083 113.391 375.901 113.391ZM381.59 113.391C381.007 113.391 380.484 113.26 380.022 112.999C379.56 112.733 379.164 112.366 378.832 111.9C378.501 111.433 378.249 110.894 378.076 110.283C377.904 109.667 377.817 109.009 377.817 108.309C377.817 107.609 377.904 106.951 378.076 106.335C378.249 105.719 378.501 105.18 378.832 104.718C379.164 104.251 379.56 103.887 380.022 103.626C380.484 103.36 381.007 103.227 381.59 103.227C382.169 103.227 382.689 103.36 383.151 103.626C383.618 103.887 384.012 104.251 384.334 104.718C384.661 105.18 384.911 105.719 385.083 106.335C385.261 106.951 385.349 107.609 385.349 108.309C385.349 109.009 385.261 109.667 385.083 110.283C384.911 110.894 384.661 111.433 384.334 111.9C384.012 112.366 383.618 112.733 383.151 112.999C382.689 113.26 382.169 113.391 381.59 113.391ZM381.59 112.215C382.174 112.215 382.661 112.035 383.053 111.676C383.45 111.312 383.746 110.833 383.942 110.241C384.138 109.648 384.236 109.004 384.236 108.309C384.236 107.576 384.134 106.916 383.928 106.328C383.728 105.735 383.429 105.266 383.032 104.921C382.64 104.575 382.16 104.403 381.59 104.403C381.142 104.403 380.75 104.508 380.414 104.718C380.083 104.928 379.808 105.215 379.588 105.579C379.369 105.943 379.203 106.36 379.091 106.832C378.984 107.298 378.93 107.791 378.93 108.309C378.93 109.004 379.031 109.65 379.231 110.248C379.432 110.84 379.728 111.316 380.12 111.676C380.517 112.035 381.007 112.215 381.59 112.215ZM387.424 113.209V104.585H386.325L386.654 103.409H388.6V113.209H387.424Z" fill="#535662"/>
<rect x="42.3857" y="140.709" width="211" height="40" rx="20" fill="#4268FF"/>
<rect x="42.8857" y="141.209" width="210" height="39" rx="19.5" stroke="#2D2D2D" stroke-opacity="0.1"/>
<rect x="50.3857" y="148.709" width="24" height="24" rx="12" fill="white"/>
<path d="M62.3843 165.391C61.7869 165.391 61.2619 165.26 60.8093 164.999C60.3566 164.733 60.0019 164.378 59.7453 163.935C59.4933 163.491 59.3673 163.001 59.3673 162.465H60.3473C60.3473 162.819 60.4289 163.146 60.5923 163.445C60.7603 163.739 60.9959 163.974 61.2993 164.152C61.6026 164.324 61.9643 164.411 62.3843 164.411C62.7389 164.411 63.0703 164.324 63.3783 164.152C63.6909 163.974 63.9429 163.739 64.1343 163.445C64.3303 163.146 64.4283 162.819 64.4283 162.465C64.4283 162.021 64.3163 161.653 64.0923 161.359C63.8683 161.06 63.5603 160.838 63.1683 160.694C62.7763 160.544 62.3283 160.47 61.8243 160.47V159.658C62.5196 159.658 63.0773 159.511 63.4973 159.217C63.9219 158.918 64.1343 158.482 64.1343 157.908C64.1343 157.595 64.0479 157.31 63.8753 157.054C63.7073 156.797 63.4856 156.592 63.2103 156.438C62.9396 156.279 62.6479 156.2 62.3353 156.2C62.0226 156.2 61.7216 156.279 61.4323 156.438C61.1476 156.592 60.9143 156.797 60.7323 157.054C60.5549 157.31 60.4663 157.595 60.4663 157.908H59.4863C59.4863 157.539 59.5633 157.194 59.7173 156.872C59.8713 156.545 60.0813 156.258 60.3473 156.011C60.6133 155.763 60.9166 155.57 61.2573 155.43C61.5979 155.29 61.9549 155.22 62.3283 155.22C62.8183 155.22 63.2733 155.341 63.6933 155.584C64.1179 155.826 64.4609 156.151 64.7223 156.557C64.9836 156.963 65.1143 157.413 65.1143 157.908C65.1143 158.388 64.9906 158.822 64.7433 159.21C64.4959 159.597 64.1623 159.87 63.7423 160.029C64.1063 160.15 64.4119 160.334 64.6593 160.582C64.9066 160.824 65.0933 161.107 65.2193 161.429C65.3453 161.751 65.4083 162.096 65.4083 162.465C65.4083 163.001 65.2683 163.491 64.9883 163.935C64.7083 164.378 64.3373 164.733 63.8753 164.999C63.4179 165.26 62.9209 165.391 62.3843 165.391Z" fill="#4268FF"/>
<path d="M89.2977 166.943C88.4457 166.943 87.6447 166.775 86.8947 166.439C86.1447 166.097 85.4847 165.629 84.9147 165.035C84.3507 164.435 83.9067 163.739 83.5827 162.947C83.2647 162.155 83.1057 161.309 83.1057 160.409C83.1057 159.509 83.2647 158.663 83.5827 157.871C83.9067 157.079 84.3507 156.386 84.9147 155.792C85.4847 155.192 86.1447 154.724 86.8947 154.388C87.6447 154.046 88.4457 153.875 89.2977 153.875C90.3177 153.875 91.2567 154.112 92.1147 154.586C92.9727 155.06 93.6837 155.69 94.2477 156.476L92.9067 157.196C92.4867 156.644 91.9557 156.206 91.3137 155.882C90.6777 155.552 90.0057 155.387 89.2977 155.387C88.6437 155.387 88.0317 155.519 87.4617 155.783C86.8977 156.047 86.4027 156.41 85.9767 156.872C85.5507 157.334 85.2177 157.868 84.9777 158.474C84.7377 159.08 84.6177 159.725 84.6177 160.409C84.6177 161.099 84.7377 161.747 84.9777 162.353C85.2237 162.959 85.5597 163.493 85.9857 163.955C86.4177 164.417 86.9157 164.78 87.4797 165.044C88.0497 165.302 88.6557 165.431 89.2977 165.431C90.0297 165.431 90.7077 165.266 91.3317 164.936C91.9617 164.6 92.4867 164.162 92.9067 163.622L94.2477 164.351C93.6837 165.137 92.9727 165.767 92.1147 166.241C91.2567 166.709 90.3177 166.943 89.2977 166.943ZM102.795 157.709H104.307V166.709H102.795L102.732 165.188C102.45 165.71 102.06 166.133 101.562 166.457C101.07 166.781 100.482 166.943 99.7985 166.943C99.1385 166.943 98.5205 166.82 97.9445 166.574C97.3685 166.322 96.8585 165.977 96.4145 165.539C95.9765 165.095 95.6345 164.585 95.3885 164.009C95.1425 163.433 95.0195 162.812 95.0195 162.146C95.0195 161.504 95.1395 160.898 95.3795 160.328C95.6195 159.758 95.9525 159.26 96.3785 158.834C96.8105 158.402 97.3085 158.066 97.8725 157.826C98.4365 157.58 99.0425 157.457 99.6905 157.457C100.398 157.457 101.019 157.625 101.553 157.961C102.087 158.291 102.519 158.72 102.849 159.248L102.795 157.709ZM99.7715 165.476C100.365 165.476 100.878 165.332 101.31 165.044C101.748 164.75 102.084 164.354 102.318 163.856C102.558 163.358 102.678 162.809 102.678 162.209C102.678 161.597 102.558 161.045 102.318 160.553C102.078 160.055 101.739 159.662 101.301 159.374C100.869 159.08 100.359 158.933 99.7715 158.933C99.1775 158.933 98.6375 159.08 98.1515 159.374C97.6655 159.668 97.2785 160.064 96.9905 160.562C96.7085 161.054 96.5675 161.603 96.5675 162.209C96.5675 162.815 96.7145 163.367 97.0085 163.865C97.3025 164.357 97.6925 164.75 98.1785 165.044C98.6645 165.332 99.1955 165.476 99.7715 165.476ZM106.212 166.709V153.209H107.724V166.709H106.212ZM109.886 166.709V153.209H111.398V166.709H109.886ZM124.085 164.333L125.435 165.062C125.027 165.632 124.508 166.088 123.878 166.43C123.254 166.772 122.576 166.943 121.844 166.943C121.016 166.943 120.26 166.73 119.576 166.304C118.898 165.878 118.355 165.308 117.947 164.594C117.545 163.874 117.344 163.079 117.344 162.209C117.344 161.549 117.461 160.934 117.695 160.364C117.929 159.788 118.25 159.284 118.658 158.852C119.072 158.414 119.552 158.072 120.098 157.826C120.644 157.58 121.226 157.457 121.844 157.457C122.576 157.457 123.254 157.628 123.878 157.97C124.508 158.312 125.027 158.771 125.435 159.347L124.085 160.076C123.797 159.722 123.455 159.449 123.059 159.257C122.663 159.065 122.258 158.969 121.844 158.969C121.286 158.969 120.779 159.119 120.323 159.419C119.873 159.713 119.516 160.106 119.252 160.598C118.988 161.09 118.856 161.627 118.856 162.209C118.856 162.791 118.988 163.328 119.252 163.82C119.522 164.306 119.882 164.696 120.332 164.99C120.788 165.284 121.292 165.431 121.844 165.431C122.288 165.431 122.705 165.329 123.095 165.125C123.485 164.921 123.815 164.657 124.085 164.333ZM130.861 166.943C130.033 166.943 129.277 166.73 128.593 166.304C127.915 165.878 127.372 165.308 126.964 164.594C126.562 163.874 126.361 163.079 126.361 162.209C126.361 161.549 126.478 160.934 126.712 160.364C126.946 159.788 127.267 159.284 127.675 158.852C128.089 158.414 128.569 158.072 129.115 157.826C129.661 157.58 130.243 157.457 130.861 157.457C131.689 157.457 132.442 157.67 133.12 158.096C133.804 158.522 134.347 159.095 134.749 159.815C135.157 160.535 135.361 161.333 135.361 162.209C135.361 162.863 135.244 163.475 135.01 164.045C134.776 164.615 134.452 165.119 134.038 165.557C133.63 165.989 133.153 166.328 132.607 166.574C132.067 166.82 131.485 166.943 130.861 166.943ZM130.861 165.431C131.425 165.431 131.932 165.284 132.382 164.99C132.838 164.69 133.195 164.297 133.453 163.811C133.717 163.319 133.849 162.785 133.849 162.209C133.849 161.621 133.714 161.081 133.444 160.589C133.18 160.097 132.823 159.704 132.373 159.41C131.923 159.116 131.419 158.969 130.861 158.969C130.297 158.969 129.79 159.119 129.34 159.419C128.89 159.713 128.533 160.106 128.269 160.598C128.005 161.09 127.873 161.627 127.873 162.209C127.873 162.809 128.008 163.355 128.278 163.847C128.548 164.333 128.911 164.72 129.367 165.008C129.823 165.29 130.321 165.431 130.861 165.431ZM144.807 161.111V166.709H143.295V161.444C143.295 160.988 143.184 160.574 142.962 160.202C142.74 159.83 142.443 159.536 142.071 159.32C141.699 159.098 141.285 158.987 140.829 158.987C140.379 158.987 139.965 159.098 139.587 159.32C139.215 159.536 138.918 159.83 138.696 160.202C138.474 160.574 138.363 160.988 138.363 161.444V166.709H136.851V157.709H138.363V158.834C138.681 158.414 139.083 158.081 139.569 157.835C140.055 157.583 140.583 157.457 141.153 157.457C141.825 157.457 142.437 157.622 142.989 157.952C143.547 158.276 143.988 158.714 144.312 159.266C144.642 159.818 144.807 160.433 144.807 161.111ZM154.562 161.111V166.709H153.05V161.444C153.05 160.988 152.939 160.574 152.717 160.202C152.495 159.83 152.198 159.536 151.826 159.32C151.454 159.098 151.04 158.987 150.584 158.987C150.134 158.987 149.72 159.098 149.342 159.32C148.97 159.536 148.673 159.83 148.451 160.202C148.229 160.574 148.118 160.988 148.118 161.444V166.709H146.606V157.709H148.118V158.834C148.436 158.414 148.838 158.081 149.324 157.835C149.81 157.583 150.338 157.457 150.908 157.457C151.58 157.457 152.192 157.622 152.744 157.952C153.302 158.276 153.743 158.714 154.067 159.266C154.397 159.818 154.562 160.433 154.562 161.111ZM160.146 166.943C159.318 166.943 158.562 166.73 157.878 166.304C157.2 165.878 156.657 165.308 156.249 164.594C155.847 163.874 155.646 163.079 155.646 162.209C155.646 161.549 155.763 160.934 155.997 160.364C156.231 159.788 156.552 159.284 156.96 158.852C157.374 158.414 157.854 158.072 158.4 157.826C158.946 157.58 159.528 157.457 160.146 157.457C160.824 157.457 161.445 157.595 162.009 157.871C162.579 158.141 163.065 158.519 163.467 159.005C163.875 159.491 164.178 160.055 164.376 160.697C164.58 161.339 164.655 162.026 164.601 162.758H157.257C157.329 163.268 157.497 163.724 157.761 164.126C158.025 164.522 158.361 164.837 158.769 165.071C159.183 165.305 159.642 165.425 160.146 165.431C160.686 165.431 161.175 165.293 161.613 165.017C162.051 164.735 162.405 164.351 162.675 163.865L164.214 164.225C163.854 165.023 163.311 165.677 162.585 166.187C161.859 166.691 161.046 166.943 160.146 166.943ZM157.212 161.57H163.08C163.032 161.066 162.87 160.607 162.594 160.193C162.318 159.773 161.967 159.437 161.541 159.185C161.115 158.933 160.65 158.807 160.146 158.807C159.642 158.807 159.18 158.93 158.76 159.176C158.34 159.422 157.992 159.755 157.716 160.175C157.446 160.589 157.278 161.054 157.212 161.57ZM172.266 164.333L173.616 165.062C173.208 165.632 172.689 166.088 172.059 166.43C171.435 166.772 170.757 166.943 170.025 166.943C169.197 166.943 168.441 166.73 167.757 166.304C167.079 165.878 166.536 165.308 166.128 164.594C165.726 163.874 165.525 163.079 165.525 162.209C165.525 161.549 165.642 160.934 165.876 160.364C166.11 159.788 166.431 159.284 166.839 158.852C167.253 158.414 167.733 158.072 168.279 157.826C168.825 157.58 169.407 157.457 170.025 157.457C170.757 157.457 171.435 157.628 172.059 157.97C172.689 158.312 173.208 158.771 173.616 159.347L172.266 160.076C171.978 159.722 171.636 159.449 171.24 159.257C170.844 159.065 170.439 158.969 170.025 158.969C169.467 158.969 168.96 159.119 168.504 159.419C168.054 159.713 167.697 160.106 167.433 160.598C167.169 161.09 167.037 161.627 167.037 162.209C167.037 162.791 167.169 163.328 167.433 163.82C167.703 164.306 168.063 164.696 168.513 164.99C168.969 165.284 169.473 165.431 170.025 165.431C170.469 165.431 170.886 165.329 171.276 165.125C171.666 164.921 171.996 164.657 172.266 164.333ZM179.903 159.221H177.86L177.851 166.709H176.339L176.348 159.221H174.8V157.709H176.348L176.339 154.883H177.851L177.86 157.709H179.903V159.221ZM185.248 166.943C184.42 166.943 183.664 166.73 182.98 166.304C182.302 165.878 181.759 165.308 181.351 164.594C180.949 163.874 180.748 163.079 180.748 162.209C180.748 161.549 180.865 160.934 181.099 160.364C181.333 159.788 181.654 159.284 182.062 158.852C182.476 158.414 182.956 158.072 183.502 157.826C184.048 157.58 184.63 157.457 185.248 157.457C185.926 157.457 186.547 157.595 187.111 157.871C187.681 158.141 188.167 158.519 188.569 159.005C188.977 159.491 189.28 160.055 189.478 160.697C189.682 161.339 189.757 162.026 189.703 162.758H182.359C182.431 163.268 182.599 163.724 182.863 164.126C183.127 164.522 183.463 164.837 183.871 165.071C184.285 165.305 184.744 165.425 185.248 165.431C185.788 165.431 186.277 165.293 186.715 165.017C187.153 164.735 187.507 164.351 187.777 163.865L189.316 164.225C188.956 165.023 188.413 165.677 187.687 166.187C186.961 166.691 186.148 166.943 185.248 166.943ZM182.314 161.57H188.182C188.134 161.066 187.972 160.607 187.696 160.193C187.42 159.773 187.069 159.437 186.643 159.185C186.217 158.933 185.752 158.807 185.248 158.807C184.744 158.807 184.282 158.93 183.862 159.176C183.442 159.422 183.094 159.755 182.818 160.175C182.548 160.589 182.38 161.054 182.314 161.57ZM198.412 153.209H199.924V166.709H198.412V165.179C198.106 165.707 197.695 166.133 197.179 166.457C196.663 166.781 196.057 166.943 195.361 166.943C194.707 166.943 194.095 166.82 193.525 166.574C192.955 166.328 192.451 165.989 192.013 165.557C191.581 165.119 191.242 164.615 190.996 164.045C190.75 163.475 190.627 162.863 190.627 162.209C190.627 161.555 190.75 160.943 190.996 160.373C191.242 159.797 191.581 159.293 192.013 158.861C192.451 158.423 192.955 158.081 193.525 157.835C194.095 157.589 194.707 157.466 195.361 157.466C196.057 157.466 196.663 157.628 197.179 157.952C197.695 158.276 198.106 158.702 198.412 159.23V153.209ZM195.379 165.476C195.973 165.476 196.486 165.332 196.918 165.044C197.356 164.75 197.692 164.354 197.926 163.856C198.166 163.358 198.286 162.809 198.286 162.209C198.286 161.597 198.166 161.045 197.926 160.553C197.686 160.055 197.347 159.662 196.909 159.374C196.477 159.08 195.967 158.933 195.379 158.933C194.785 158.933 194.245 159.08 193.759 159.374C193.279 159.668 192.895 160.064 192.607 160.562C192.319 161.054 192.175 161.603 192.175 162.209C192.175 162.815 192.322 163.367 192.616 163.865C192.91 164.357 193.3 164.75 193.786 165.044C194.272 165.332 194.803 165.476 195.379 165.476Z" fill="white"/>
<path d="M211.045 165.209V156.585H209.946L210.275 155.409H212.221V165.209H211.045ZM217.53 165.391C216.947 165.391 216.424 165.26 215.962 164.999C215.5 164.733 215.103 164.366 214.772 163.9C214.441 163.433 214.189 162.894 214.016 162.283C213.843 161.667 213.757 161.009 213.757 160.309C213.757 159.609 213.843 158.951 214.016 158.335C214.189 157.719 214.441 157.18 214.772 156.718C215.103 156.251 215.5 155.887 215.962 155.626C216.424 155.36 216.947 155.227 217.53 155.227C218.109 155.227 218.629 155.36 219.091 155.626C219.558 155.887 219.952 156.251 220.274 156.718C220.601 157.18 220.85 157.719 221.023 158.335C221.2 158.951 221.289 159.609 221.289 160.309C221.289 161.009 221.2 161.667 221.023 162.283C220.85 162.894 220.601 163.433 220.274 163.9C219.952 164.366 219.558 164.733 219.091 164.999C218.629 165.26 218.109 165.391 217.53 165.391ZM217.53 164.215C218.113 164.215 218.601 164.035 218.993 163.676C219.39 163.312 219.686 162.833 219.882 162.241C220.078 161.648 220.176 161.004 220.176 160.309C220.176 159.576 220.073 158.916 219.868 158.328C219.667 157.735 219.369 157.266 218.972 156.921C218.58 156.575 218.099 156.403 217.53 156.403C217.082 156.403 216.69 156.508 216.354 156.718C216.023 156.928 215.747 157.215 215.528 157.579C215.309 157.943 215.143 158.36 215.031 158.832C214.924 159.298 214.87 159.791 214.87 160.309C214.87 161.004 214.97 161.65 215.171 162.248C215.372 162.84 215.668 163.316 216.06 163.676C216.457 164.035 216.947 164.215 217.53 164.215ZM222.901 159.497C222.724 159.497 222.572 159.434 222.446 159.308C222.325 159.182 222.264 159.028 222.264 158.846C222.264 158.673 222.325 158.524 222.446 158.398C222.572 158.272 222.724 158.209 222.901 158.209C223.083 158.209 223.237 158.272 223.363 158.398C223.489 158.524 223.552 158.673 223.552 158.846C223.552 159.028 223.489 159.182 223.363 159.308C223.237 159.434 223.083 159.497 222.901 159.497ZM222.901 165.391C222.724 165.391 222.572 165.328 222.446 165.202C222.325 165.076 222.264 164.922 222.264 164.74C222.264 164.567 222.325 164.418 222.446 164.292C222.572 164.166 222.724 164.103 222.901 164.103C223.083 164.103 223.237 164.166 223.363 164.292C223.489 164.418 223.552 164.567 223.552 164.74C223.552 164.922 223.489 165.076 223.363 165.202C223.237 165.328 223.083 165.391 222.901 165.391ZM228.59 165.391C228.007 165.391 227.484 165.26 227.022 164.999C226.56 164.733 226.164 164.366 225.832 163.9C225.501 163.433 225.249 162.894 225.076 162.283C224.904 161.667 224.817 161.009 224.817 160.309C224.817 159.609 224.904 158.951 225.076 158.335C225.249 157.719 225.501 157.18 225.832 156.718C226.164 156.251 226.56 155.887 227.022 155.626C227.484 155.36 228.007 155.227 228.59 155.227C229.169 155.227 229.689 155.36 230.151 155.626C230.618 155.887 231.012 156.251 231.334 156.718C231.661 157.18 231.911 157.719 232.083 158.335C232.261 158.951 232.349 159.609 232.349 160.309C232.349 161.009 232.261 161.667 232.083 162.283C231.911 162.894 231.661 163.433 231.334 163.9C231.012 164.366 230.618 164.733 230.151 164.999C229.689 165.26 229.169 165.391 228.59 165.391ZM228.59 164.215C229.174 164.215 229.661 164.035 230.053 163.676C230.45 163.312 230.746 162.833 230.942 162.241C231.138 161.648 231.236 161.004 231.236 160.309C231.236 159.576 231.134 158.916 230.928 158.328C230.728 157.735 230.429 157.266 230.032 156.921C229.64 156.575 229.16 156.403 228.59 156.403C228.142 156.403 227.75 156.508 227.414 156.718C227.083 156.928 226.808 157.215 226.588 157.579C226.369 157.943 226.203 158.36 226.091 158.832C225.984 159.298 225.93 159.791 225.93 160.309C225.93 161.004 226.031 161.65 226.231 162.248C226.432 162.84 226.728 163.316 227.12 163.676C227.517 164.035 228.007 164.215 228.59 164.215ZM233.325 165.209V164.166C233.684 163.844 234.088 163.484 234.536 163.088C234.984 162.686 235.429 162.269 235.873 161.835C236.321 161.396 236.731 160.962 237.105 160.533C237.478 160.103 237.779 159.697 238.008 159.315C238.236 158.927 238.351 158.589 238.351 158.3C238.351 157.954 238.267 157.639 238.099 157.355C237.931 157.065 237.704 156.834 237.42 156.662C237.14 156.489 236.827 156.403 236.482 156.403C236.136 156.403 235.819 156.489 235.53 156.662C235.245 156.834 235.016 157.065 234.844 157.355C234.676 157.639 234.592 157.954 234.592 158.3H233.416C233.416 157.726 233.556 157.208 233.836 156.746C234.116 156.279 234.487 155.91 234.949 155.64C235.411 155.364 235.922 155.227 236.482 155.227C237.042 155.227 237.55 155.364 238.008 155.64C238.47 155.915 238.838 156.286 239.114 156.753C239.389 157.215 239.527 157.73 239.527 158.3C239.527 158.626 239.447 158.979 239.289 159.357C239.13 159.73 238.913 160.115 238.638 160.512C238.362 160.908 238.05 161.31 237.7 161.716C237.35 162.117 236.981 162.514 236.594 162.906C236.206 163.298 235.821 163.673 235.439 164.033H239.653V165.209H233.325Z" fill="white" fill-opacity="0.8"/>
</g>
<defs>
<filter id="filter0_d_2178_5782" x="-3.05176e-05" y="0" width="463.772" height="238.772" filterUnits="userSpaceOnUse" color-interpolation-filters="sRGB">
<feFlood flood-opacity="0" result="BackgroundImageFix"/>
<feColorMatrix in="SourceAlpha" type="matrix" values="0 0 0 0 0 0 0 0 0 0 0 0 0 0 0 0 0 0 127 0" result="hardAlpha"/>
<feOffset dy="3.67715"/>
<feGaussianBlur stdDeviation="9.19289"/>
<feComposite in2="hardAlpha" operator="out"/>
<feColorMatrix type="matrix" values="0 0 0 0 0.0468057 0 0 0 0 0.0634939 0 0 0 0 0.129808 0 0 0 0.1 0"/>
<feBlend mode="normal" in2="BackgroundImageFix" result="effect1_dropShadow_2178_5782"/>
<feBlend mode="normal" in="SourceGraphic" in2="effect1_dropShadow_2178_5782" result="shape"/>
</filter>
</defs>
</svg>
