<svg width="464" height="239" viewBox="0 0 464 239" fill="none" xmlns="http://www.w3.org/2000/svg">
<g filter="url(#filter0_d_2178_5703)">
<rect x="18.3857" y="14.7086" width="427" height="202" rx="16" fill="white" shape-rendering="crispEdges"/>
<rect x="18.8454" y="15.1683" width="426.081" height="201.081" rx="15.5404" stroke="#0C1021" stroke-opacity="0.05" stroke-width="0.919289" shape-rendering="crispEdges"/>
<path d="M43.1857 60.7086V58.8586C43.6591 58.4653 44.2024 58.0086 44.8157 57.4886C45.4291 56.962 46.0524 56.4053 46.6857 55.8186C47.3191 55.2253 47.9024 54.6353 48.4357 54.0486C48.9691 53.4553 49.3991 52.8953 49.7257 52.3686C50.0591 51.8353 50.2257 51.372 50.2257 50.9786C50.2257 50.532 50.1157 50.1253 49.8957 49.7586C49.6824 49.3853 49.3924 49.0886 49.0257 48.8686C48.6591 48.642 48.2524 48.5286 47.8057 48.5286C47.3591 48.5286 46.9491 48.642 46.5757 48.8686C46.2091 49.0886 45.9124 49.3853 45.6857 49.7586C45.4657 50.1253 45.3557 50.532 45.3557 50.9786H43.2757C43.2757 50.132 43.4824 49.3686 43.8957 48.6886C44.3157 48.002 44.8657 47.4586 45.5457 47.0586C46.2324 46.652 46.9857 46.4486 47.8057 46.4486C48.6324 46.4486 49.3857 46.652 50.0657 47.0586C50.7457 47.4653 51.2891 48.012 51.6957 48.6986C52.1024 49.3786 52.3057 50.1386 52.3057 50.9786C52.3057 51.4453 52.2091 51.9253 52.0157 52.4186C51.8224 52.912 51.5524 53.4153 51.2057 53.9286C50.8657 54.442 50.4691 54.962 50.0157 55.4886C49.5624 56.0153 49.0757 56.542 48.5557 57.0686C48.0357 57.5953 47.5057 58.1153 46.9657 58.6286H52.4257V60.7086H43.1857ZM59.8007 60.7086V57.1286H53.8107V55.0386L59.3007 46.7086H61.8807V55.0486H63.1607V57.1286H61.8807V60.7086H59.8007ZM56.2307 55.0386L59.8007 55.0486L59.7807 49.5786L56.2307 55.0386ZM71.2884 46.7086L67.2384 61.8286H65.1584L69.2084 46.7086H71.2884ZM73.3028 60.7086L80.1728 48.7886H72.4928V46.7086H82.5828V48.7886L75.6928 60.7086H73.3028ZM93.9859 60.9686C93.2192 60.9686 92.4826 60.8486 91.7759 60.6086C91.0692 60.3686 90.4526 60.0253 89.9259 59.5786C89.3992 59.1253 89.0226 58.5886 88.7959 57.9686L90.7459 57.2386C90.8592 57.5586 91.0759 57.8453 91.3959 58.0986C91.7226 58.3453 92.1092 58.5386 92.5559 58.6786C93.0092 58.8186 93.4859 58.8886 93.9859 58.8886C94.5192 58.8886 95.0192 58.802 95.4859 58.6286C95.9592 58.4553 96.3392 58.2153 96.6259 57.9086C96.9192 57.602 97.0659 57.242 97.0659 56.8286C97.0659 56.402 96.9126 56.052 96.6059 55.7786C96.3059 55.5053 95.9192 55.2886 95.4459 55.1286C94.9792 54.9686 94.4926 54.8486 93.9859 54.7686C93.0059 54.6086 92.1259 54.3753 91.3459 54.0686C90.5726 53.762 89.9592 53.332 89.5059 52.7786C89.0592 52.2253 88.8359 51.5053 88.8359 50.6186C88.8359 49.7853 89.0726 49.0586 89.5459 48.4386C90.0259 47.8186 90.6559 47.3386 91.4359 46.9986C92.2226 46.652 93.0726 46.4786 93.9859 46.4786C94.7392 46.4786 95.4659 46.5986 96.1659 46.8386C96.8726 47.072 97.4926 47.4153 98.0259 47.8686C98.5659 48.3153 98.9526 48.8586 99.1859 49.4986L97.2159 50.2086C97.1026 49.882 96.8859 49.5986 96.5659 49.3586C96.2459 49.112 95.8592 48.9186 95.4059 48.7786C94.9592 48.6386 94.4859 48.5686 93.9859 48.5686C93.4526 48.562 92.9526 48.6486 92.4859 48.8286C92.0259 49.002 91.6492 49.242 91.3559 49.5486C91.0626 49.8553 90.9159 50.212 90.9159 50.6186C90.9159 51.1186 91.0526 51.4986 91.3259 51.7586C91.5992 52.0186 91.9659 52.212 92.4259 52.3386C92.8926 52.4586 93.4126 52.5686 93.9859 52.6686C94.9059 52.8153 95.7559 53.0586 96.5359 53.3986C97.3226 53.7386 97.9526 54.192 98.4259 54.7586C98.9059 55.3186 99.1459 56.0086 99.1459 56.8286C99.1459 57.6553 98.9059 58.382 98.4259 59.0086C97.9526 59.6286 97.3226 60.112 96.5359 60.4586C95.7559 60.7986 94.9059 60.9686 93.9859 60.9686ZM106.483 52.7886H104.383L104.373 60.7086H102.293L102.303 52.7886H100.713V50.7086H102.303L102.293 47.5686H104.373L104.383 50.7086H106.483V52.7886ZM115.819 50.7086H117.899V60.7086H115.809L115.729 59.2586C115.436 59.772 115.039 60.1853 114.539 60.4986C114.039 60.812 113.449 60.9686 112.769 60.9686C112.036 60.9686 111.346 60.832 110.699 60.5586C110.052 60.2786 109.482 59.892 108.989 59.3986C108.502 58.9053 108.122 58.3386 107.849 57.6986C107.576 57.052 107.439 56.3586 107.439 55.6186C107.439 54.9053 107.572 54.2353 107.839 53.6086C108.106 52.9753 108.476 52.422 108.949 51.9486C109.422 51.4753 109.969 51.1053 110.589 50.8386C111.216 50.5653 111.886 50.4286 112.599 50.4286C113.326 50.4286 113.966 50.5953 114.519 50.9286C115.079 51.2553 115.542 51.6753 115.909 52.1886L115.819 50.7086ZM112.719 58.9586C113.306 58.9586 113.819 58.8153 114.259 58.5286C114.699 58.2353 115.039 57.842 115.279 57.3486C115.526 56.8553 115.649 56.3086 115.649 55.7086C115.649 55.102 115.526 54.552 115.279 54.0586C115.032 53.5653 114.689 53.1753 114.249 52.8886C113.816 52.5953 113.306 52.4486 112.719 52.4486C112.139 52.4486 111.609 52.5953 111.129 52.8886C110.649 53.182 110.269 53.5753 109.989 54.0686C109.709 54.562 109.569 55.1086 109.569 55.7086C109.569 56.3153 109.712 56.8653 109.999 57.3586C110.292 57.8453 110.676 58.2353 111.149 58.5286C111.629 58.8153 112.152 58.9586 112.719 58.9586ZM125.174 52.7886H123.074L123.064 60.7086H120.984L120.994 52.7886H119.404V50.7086H120.994L120.984 47.5686H123.064L123.074 50.7086H125.174V52.7886ZM126.565 56.9586V50.7086H128.645V56.4486C128.645 56.8953 128.755 57.302 128.975 57.6686C129.195 58.0353 129.488 58.3286 129.855 58.5486C130.221 58.762 130.625 58.8686 131.065 58.8686C131.511 58.8686 131.915 58.762 132.275 58.5486C132.641 58.3286 132.931 58.0353 133.145 57.6686C133.365 57.302 133.475 56.8953 133.475 56.4486V50.7086H135.555L135.565 60.7086H133.485L133.475 59.6286C133.135 60.042 132.711 60.3686 132.205 60.6086C131.698 60.8486 131.155 60.9686 130.575 60.9686C129.835 60.9686 129.161 60.7886 128.555 60.4286C127.948 60.0686 127.465 59.5853 127.105 58.9786C126.745 58.372 126.565 57.6986 126.565 56.9586ZM140.57 60.8986C140.043 60.8653 139.53 60.7586 139.03 60.5786C138.53 60.3986 138.09 60.1553 137.71 59.8486C137.337 59.5353 137.057 59.1686 136.87 58.7486L138.64 57.9886C138.727 58.1686 138.877 58.3453 139.09 58.5186C139.31 58.692 139.567 58.8353 139.86 58.9486C140.153 59.0553 140.46 59.1086 140.78 59.1086C141.093 59.1086 141.383 59.0653 141.65 58.9786C141.923 58.8853 142.147 58.7453 142.32 58.5586C142.493 58.372 142.58 58.1486 142.58 57.8886C142.58 57.5953 142.48 57.3686 142.28 57.2086C142.087 57.042 141.843 56.9153 141.55 56.8286C141.257 56.742 140.963 56.6586 140.67 56.5786C140.017 56.432 139.417 56.232 138.87 55.9786C138.33 55.7186 137.9 55.3886 137.58 54.9886C137.26 54.582 137.1 54.0853 137.1 53.4986C137.1 52.8586 137.273 52.3053 137.62 51.8386C137.967 51.3653 138.42 51.002 138.98 50.7486C139.547 50.4953 140.15 50.3686 140.79 50.3686C141.59 50.3686 142.323 50.5386 142.99 50.8786C143.657 51.2186 144.167 51.6853 144.52 52.2786L142.87 53.2586C142.77 53.0586 142.62 52.8786 142.42 52.7186C142.22 52.5586 141.993 52.432 141.74 52.3386C141.487 52.2386 141.223 52.182 140.95 52.1686C140.61 52.1553 140.293 52.1953 140 52.2886C139.713 52.3753 139.483 52.5153 139.31 52.7086C139.137 52.902 139.05 53.1486 139.05 53.4486C139.05 53.742 139.153 53.962 139.36 54.1086C139.567 54.2486 139.827 54.362 140.14 54.4486C140.46 54.5353 140.787 54.632 141.12 54.7386C141.713 54.9253 142.27 55.1553 142.79 55.4286C143.31 55.6953 143.73 56.0253 144.05 56.4186C144.37 56.812 144.523 57.292 144.51 57.8586C144.51 58.4853 144.32 59.0353 143.94 59.5086C143.567 59.982 143.08 60.342 142.48 60.5886C141.88 60.8353 141.243 60.9386 140.57 60.8986Z" fill="#0C1021"/>
<rect x="322.386" y="38.7086" width="99" height="30" rx="15" fill="#3DEC82" fill-opacity="0.15"/>
<path d="M338.04 57.8646C337.592 57.8646 337.158 57.7946 336.738 57.6546C336.322 57.5146 335.958 57.3146 335.646 57.0546C335.334 56.7946 335.114 56.4846 334.986 56.1246L335.772 55.8306C335.86 56.0786 336.02 56.2926 336.252 56.4726C336.488 56.6486 336.762 56.7846 337.074 56.8806C337.39 56.9766 337.712 57.0246 338.04 57.0246C338.424 57.0246 338.782 56.9606 339.114 56.8326C339.446 56.7046 339.714 56.5266 339.918 56.2986C340.122 56.0666 340.224 55.7946 340.224 55.4826C340.224 55.1666 340.118 54.9066 339.906 54.7026C339.694 54.4986 339.42 54.3386 339.084 54.2226C338.752 54.1026 338.404 54.0106 338.04 53.9466C337.468 53.8466 336.954 53.7106 336.498 53.5386C336.046 53.3666 335.688 53.1246 335.424 52.8126C335.16 52.4966 335.028 52.0806 335.028 51.5646C335.028 51.0806 335.168 50.6606 335.448 50.3046C335.728 49.9486 336.096 49.6726 336.552 49.4766C337.012 49.2806 337.508 49.1826 338.04 49.1826C338.476 49.1826 338.902 49.2506 339.318 49.3866C339.734 49.5226 340.1 49.7206 340.416 49.9806C340.736 50.2406 340.966 50.5586 341.106 50.9346L340.308 51.2226C340.22 50.9706 340.058 50.7566 339.822 50.5806C339.59 50.4006 339.318 50.2646 339.006 50.1726C338.694 50.0766 338.372 50.0286 338.04 50.0286C337.66 50.0246 337.304 50.0886 336.972 50.2206C336.644 50.3486 336.378 50.5286 336.174 50.7606C335.97 50.9886 335.868 51.2566 335.868 51.5646C335.868 51.9246 335.962 52.2026 336.15 52.3986C336.342 52.5906 336.602 52.7346 336.93 52.8306C337.258 52.9266 337.628 53.0126 338.04 53.0886C338.576 53.1806 339.074 53.3246 339.534 53.5206C339.994 53.7126 340.364 53.9706 340.644 54.2946C340.924 54.6146 341.064 55.0106 341.064 55.4826C341.064 55.9626 340.924 56.3826 340.644 56.7426C340.364 57.0986 339.994 57.3746 339.534 57.5706C339.078 57.7666 338.58 57.8646 338.04 57.8646ZM346.106 51.7086H346.994L343.712 60.7086H342.818L343.91 57.7086L341.756 51.7086H342.674L344.33 56.5506L346.106 51.7086ZM349.886 57.8226C349.558 57.8146 349.238 57.7546 348.926 57.6426C348.614 57.5306 348.342 57.3786 348.11 57.1866C347.878 56.9946 347.712 56.7766 347.612 56.5326L348.338 56.2206C348.402 56.3766 348.52 56.5206 348.692 56.6526C348.868 56.7806 349.068 56.8846 349.292 56.9646C349.516 57.0406 349.738 57.0786 349.958 57.0786C350.202 57.0786 350.43 57.0386 350.642 56.9586C350.854 56.8786 351.026 56.7646 351.158 56.6166C351.294 56.4646 351.362 56.2866 351.362 56.0826C351.362 55.8626 351.29 55.6906 351.146 55.5666C351.002 55.4386 350.82 55.3386 350.6 55.2666C350.38 55.1906 350.154 55.1186 349.922 55.0506C349.498 54.9346 349.124 54.8066 348.8 54.6666C348.476 54.5266 348.222 54.3486 348.038 54.1326C347.858 53.9126 347.768 53.6306 347.768 53.2866C347.768 52.9226 347.87 52.6086 348.074 52.3446C348.282 52.0766 348.552 51.8706 348.884 51.7266C349.22 51.5786 349.578 51.5046 349.958 51.5046C350.446 51.5046 350.89 51.6106 351.29 51.8226C351.694 52.0346 351.986 52.3166 352.166 52.6686L351.488 53.0706C351.416 52.9066 351.302 52.7646 351.146 52.6446C350.99 52.5246 350.812 52.4306 350.612 52.3626C350.416 52.2946 350.216 52.2586 350.012 52.2546C349.756 52.2506 349.518 52.2886 349.298 52.3686C349.078 52.4446 348.9 52.5586 348.764 52.7106C348.632 52.8626 348.566 53.0486 348.566 53.2686C348.566 53.4886 348.632 53.6566 348.764 53.7726C348.896 53.8846 349.074 53.9766 349.298 54.0486C349.526 54.1166 349.782 54.1966 350.066 54.2886C350.43 54.4046 350.772 54.5366 351.092 54.6846C351.412 54.8326 351.67 55.0166 351.866 55.2366C352.062 55.4566 352.158 55.7346 352.154 56.0706C352.154 56.4306 352.046 56.7446 351.83 57.0126C351.614 57.2806 351.334 57.4866 350.99 57.6306C350.646 57.7706 350.278 57.8346 349.886 57.8226ZM356.254 52.5486H354.82L354.814 57.7086H353.974L353.98 52.5486H352.894V51.7086H353.98L353.974 49.8246H354.814L354.82 51.7086H356.254V52.5486ZM359.8 57.8646C359.248 57.8646 358.744 57.7226 358.288 57.4386C357.836 57.1546 357.474 56.7746 357.202 56.2986C356.934 55.8186 356.8 55.2886 356.8 54.7086C356.8 54.2686 356.878 53.8586 357.034 53.4786C357.19 53.0946 357.404 52.7586 357.676 52.4706C357.952 52.1786 358.272 51.9506 358.636 51.7866C359 51.6226 359.388 51.5406 359.8 51.5406C360.244 51.5406 360.652 51.6286 361.024 51.8046C361.4 51.9806 361.722 52.2266 361.99 52.5426C362.262 52.8586 362.466 53.2286 362.602 53.6526C362.742 54.0766 362.8 54.5346 362.776 55.0266H357.688C357.736 55.4066 357.856 55.7466 358.048 56.0466C358.244 56.3466 358.492 56.5846 358.792 56.7606C359.096 56.9326 359.432 57.0206 359.8 57.0246C360.2 57.0246 360.56 56.9206 360.88 56.7126C361.204 56.5046 361.464 56.2186 361.66 55.8546L362.512 56.0526C362.272 56.5846 361.91 57.0206 361.426 57.3606C360.942 57.6966 360.4 57.8646 359.8 57.8646ZM357.664 54.3486H361.93C361.902 53.9766 361.788 53.6366 361.588 53.3286C361.392 53.0166 361.138 52.7686 360.826 52.5846C360.514 52.3966 360.172 52.3026 359.8 52.3026C359.428 52.3026 359.088 52.3946 358.78 52.5786C358.472 52.7586 358.22 53.0046 358.024 53.3166C357.828 53.6246 357.708 53.9686 357.664 54.3486ZM363.805 57.7086V51.7086H364.645V52.5366C364.861 52.2326 365.137 51.9906 365.473 51.8106C365.809 51.6306 366.177 51.5406 366.577 51.5406C367.029 51.5406 367.443 51.6526 367.819 51.8766C368.195 52.0966 368.489 52.3906 368.701 52.7586C368.913 52.3906 369.205 52.0966 369.577 51.8766C369.949 51.6526 370.361 51.5406 370.813 51.5406C371.265 51.5406 371.677 51.6506 372.049 51.8706C372.421 52.0906 372.717 52.3866 372.937 52.7586C373.157 53.1306 373.267 53.5426 373.267 53.9946V57.7086H372.427V54.1806C372.427 53.8606 372.349 53.5646 372.193 53.2926C372.037 53.0206 371.827 52.8026 371.563 52.6386C371.303 52.4706 371.013 52.3866 370.693 52.3866C370.373 52.3866 370.081 52.4646 369.817 52.6206C369.557 52.7726 369.349 52.9846 369.193 53.2566C369.037 53.5246 368.959 53.8326 368.959 54.1806V57.7086H368.119V54.1806C368.119 53.8326 368.041 53.5246 367.885 53.2566C367.729 52.9846 367.519 52.7726 367.255 52.6206C366.991 52.4646 366.699 52.3866 366.379 52.3866C366.063 52.3866 365.773 52.4706 365.509 52.6386C365.245 52.8026 365.035 53.0206 364.879 53.2926C364.723 53.5646 364.645 53.8606 364.645 54.1806V57.7086H363.805ZM380.166 49.3086H381.21L384.27 57.7086H383.376L382.722 55.9086H378.66L378.006 57.7086H377.112L380.166 49.3086ZM378.966 55.0686H382.41L380.688 50.3406L378.966 55.0686ZM389.159 56.2026L389.909 56.6106C389.637 56.9906 389.291 57.2946 388.871 57.5226C388.455 57.7506 388.003 57.8646 387.515 57.8646C386.963 57.8646 386.459 57.7226 386.003 57.4386C385.551 57.1546 385.189 56.7746 384.917 56.2986C384.649 55.8186 384.515 55.2886 384.515 54.7086C384.515 54.2686 384.593 53.8586 384.749 53.4786C384.905 53.0946 385.119 52.7586 385.391 52.4706C385.667 52.1786 385.987 51.9506 386.351 51.7866C386.715 51.6226 387.103 51.5406 387.515 51.5406C388.003 51.5406 388.455 51.6546 388.871 51.8826C389.291 52.1106 389.637 52.4166 389.909 52.8006L389.159 53.2026C388.951 52.9386 388.701 52.7366 388.409 52.5966C388.117 52.4526 387.819 52.3806 387.515 52.3806C387.111 52.3806 386.745 52.4886 386.417 52.7046C386.089 52.9166 385.829 53.1986 385.637 53.5506C385.449 53.9026 385.355 54.2886 385.355 54.7086C385.355 55.1286 385.451 55.5146 385.643 55.8666C385.839 56.2186 386.101 56.5006 386.429 56.7126C386.757 56.9206 387.119 57.0246 387.515 57.0246C387.843 57.0246 388.151 56.9486 388.439 56.7966C388.727 56.6446 388.967 56.4466 389.159 56.2026ZM394.058 52.5486H392.624L392.618 57.7086H391.778L391.784 52.5486H390.698V51.7086H391.784L391.778 49.8246H392.618L392.624 51.7086H394.058V52.5486ZM395.082 51.7086H395.922V57.7086H395.082V51.7086ZM395.508 50.6586C395.372 50.6586 395.256 50.6146 395.16 50.5266C395.068 50.4346 395.022 50.3206 395.022 50.1846C395.022 50.0486 395.068 49.9366 395.16 49.8486C395.256 49.7566 395.372 49.7106 395.508 49.7106C395.64 49.7106 395.752 49.7566 395.844 49.8486C395.94 49.9366 395.988 50.0486 395.988 50.1846C395.988 50.3206 395.942 50.4346 395.85 50.5266C395.758 50.6146 395.644 50.6586 395.508 50.6586ZM400.183 57.7086H399.115L396.925 51.6906H397.819L399.649 56.7246L401.479 51.6906H402.373L400.183 57.7086ZM405.773 57.8646C405.221 57.8646 404.717 57.7226 404.261 57.4386C403.809 57.1546 403.447 56.7746 403.175 56.2986C402.907 55.8186 402.773 55.2886 402.773 54.7086C402.773 54.2686 402.851 53.8586 403.007 53.4786C403.163 53.0946 403.377 52.7586 403.649 52.4706C403.925 52.1786 404.245 51.9506 404.609 51.7866C404.973 51.6226 405.361 51.5406 405.773 51.5406C406.217 51.5406 406.625 51.6286 406.997 51.8046C407.373 51.9806 407.695 52.2266 407.963 52.5426C408.235 52.8586 408.439 53.2286 408.575 53.6526C408.715 54.0766 408.773 54.5346 408.749 55.0266H403.661C403.709 55.4066 403.829 55.7466 404.021 56.0466C404.217 56.3466 404.465 56.5846 404.765 56.7606C405.069 56.9326 405.405 57.0206 405.773 57.0246C406.173 57.0246 406.533 56.9206 406.853 56.7126C407.177 56.5046 407.437 56.2186 407.633 55.8546L408.485 56.0526C408.245 56.5846 407.883 57.0206 407.399 57.3606C406.915 57.6966 406.373 57.8646 405.773 57.8646ZM403.637 54.3486H407.903C407.875 53.9766 407.761 53.6366 407.561 53.3286C407.365 53.0166 407.111 52.7686 406.799 52.5846C406.487 52.3966 406.145 52.3026 405.773 52.3026C405.401 52.3026 405.061 52.3946 404.753 52.5786C404.445 52.7586 404.193 53.0046 403.997 53.3166C403.801 53.6246 403.681 53.9686 403.637 54.3486Z" fill="#28BC62"/>
<rect x="42.3857" y="92.7086" width="106" height="38" rx="19" fill="white"/>
<rect x="42.8857" y="93.2086" width="105" height="37" rx="18.5" stroke="#2D2D2D" stroke-opacity="0.1"/>
<path d="M58.5787 116.391C57.9954 116.391 57.4727 116.26 57.0107 115.999C56.5487 115.733 56.1521 115.366 55.8207 114.9C55.4894 114.433 55.2374 113.894 55.0647 113.283C54.8921 112.667 54.8057 112.009 54.8057 111.309C54.8057 110.609 54.8921 109.951 55.0647 109.335C55.2374 108.719 55.4894 108.18 55.8207 107.718C56.1521 107.251 56.5487 106.887 57.0107 106.626C57.4727 106.36 57.9954 106.227 58.5787 106.227C59.1574 106.227 59.6777 106.36 60.1397 106.626C60.6064 106.887 61.0007 107.251 61.3227 107.718C61.6494 108.18 61.8991 108.719 62.0717 109.335C62.2491 109.951 62.3377 110.609 62.3377 111.309C62.3377 112.009 62.2491 112.667 62.0717 113.283C61.8991 113.894 61.6494 114.433 61.3227 114.9C61.0007 115.366 60.6064 115.733 60.1397 115.999C59.6777 116.26 59.1574 116.391 58.5787 116.391ZM58.5787 115.215C59.1621 115.215 59.6497 115.035 60.0417 114.676C60.4384 114.312 60.7347 113.833 60.9307 113.241C61.1267 112.648 61.2247 112.004 61.2247 111.309C61.2247 110.576 61.1221 109.916 60.9167 109.328C60.7161 108.735 60.4174 108.266 60.0207 107.921C59.6287 107.575 59.1481 107.403 58.5787 107.403C58.1307 107.403 57.7387 107.508 57.4027 107.718C57.0714 107.928 56.7961 108.215 56.5767 108.579C56.3574 108.943 56.1917 109.36 56.0797 109.832C55.9724 110.298 55.9187 110.791 55.9187 111.309C55.9187 112.004 56.0191 112.65 56.2197 113.248C56.4204 113.84 56.7167 114.316 57.1087 114.676C57.5054 115.035 57.9954 115.215 58.5787 115.215ZM66.7545 116.391C66.1712 116.391 65.6485 116.26 65.1865 115.999C64.7245 115.733 64.3279 115.366 63.9965 114.9C63.6652 114.433 63.4132 113.894 63.2405 113.283C63.0679 112.667 62.9815 112.009 62.9815 111.309C62.9815 110.609 63.0679 109.951 63.2405 109.335C63.4132 108.719 63.6652 108.18 63.9965 107.718C64.3279 107.251 64.7245 106.887 65.1865 106.626C65.6485 106.36 66.1712 106.227 66.7545 106.227C67.3332 106.227 67.8535 106.36 68.3155 106.626C68.7822 106.887 69.1765 107.251 69.4985 107.718C69.8252 108.18 70.0749 108.719 70.2475 109.335C70.4249 109.951 70.5135 110.609 70.5135 111.309C70.5135 112.009 70.4249 112.667 70.2475 113.283C70.0749 113.894 69.8252 114.433 69.4985 114.9C69.1765 115.366 68.7822 115.733 68.3155 115.999C67.8535 116.26 67.3332 116.391 66.7545 116.391ZM66.7545 115.215C67.3379 115.215 67.8255 115.035 68.2175 114.676C68.6142 114.312 68.9105 113.833 69.1065 113.241C69.3025 112.648 69.4005 112.004 69.4005 111.309C69.4005 110.576 69.2979 109.916 69.0925 109.328C68.8919 108.735 68.5932 108.266 68.1965 107.921C67.8045 107.575 67.3239 107.403 66.7545 107.403C66.3065 107.403 65.9145 107.508 65.5785 107.718C65.2472 107.928 64.9719 108.215 64.7525 108.579C64.5332 108.943 64.3675 109.36 64.2555 109.832C64.1482 110.298 64.0945 110.791 64.0945 111.309C64.0945 112.004 64.1949 112.65 64.3955 113.248C64.5962 113.84 64.8925 114.316 65.2845 114.676C65.6812 115.035 66.1712 115.215 66.7545 115.215ZM72.1257 110.497C71.9484 110.497 71.7967 110.434 71.6707 110.308C71.5494 110.182 71.4887 110.028 71.4887 109.846C71.4887 109.673 71.5494 109.524 71.6707 109.398C71.7967 109.272 71.9484 109.209 72.1257 109.209C72.3077 109.209 72.4617 109.272 72.5877 109.398C72.7137 109.524 72.7767 109.673 72.7767 109.846C72.7767 110.028 72.7137 110.182 72.5877 110.308C72.4617 110.434 72.3077 110.497 72.1257 110.497ZM72.1257 116.391C71.9484 116.391 71.7967 116.328 71.6707 116.202C71.5494 116.076 71.4887 115.922 71.4887 115.74C71.4887 115.567 71.5494 115.418 71.6707 115.292C71.7967 115.166 71.9484 115.103 72.1257 115.103C72.3077 115.103 72.4617 115.166 72.5877 115.292C72.7137 115.418 72.7767 115.567 72.7767 115.74C72.7767 115.922 72.7137 116.076 72.5877 116.202C72.4617 116.328 72.3077 116.391 72.1257 116.391ZM77.8151 116.391C77.2317 116.391 76.7091 116.26 76.2471 115.999C75.7851 115.733 75.3884 115.366 75.0571 114.9C74.7257 114.433 74.4737 113.894 74.3011 113.283C74.1284 112.667 74.0421 112.009 74.0421 111.309C74.0421 110.609 74.1284 109.951 74.3011 109.335C74.4737 108.719 74.7257 108.18 75.0571 107.718C75.3884 107.251 75.7851 106.887 76.2471 106.626C76.7091 106.36 77.2317 106.227 77.8151 106.227C78.3937 106.227 78.9141 106.36 79.3761 106.626C79.8427 106.887 80.2371 107.251 80.5591 107.718C80.8857 108.18 81.1354 108.719 81.3081 109.335C81.4854 109.951 81.5741 110.609 81.5741 111.309C81.5741 112.009 81.4854 112.667 81.3081 113.283C81.1354 113.894 80.8857 114.433 80.5591 114.9C80.2371 115.366 79.8427 115.733 79.3761 115.999C78.9141 116.26 78.3937 116.391 77.8151 116.391ZM77.8151 115.215C78.3984 115.215 78.8861 115.035 79.2781 114.676C79.6747 114.312 79.9711 113.833 80.1671 113.241C80.3631 112.648 80.4611 112.004 80.4611 111.309C80.4611 110.576 80.3584 109.916 80.1531 109.328C79.9524 108.735 79.6537 108.266 79.2571 107.921C78.8651 107.575 78.3844 107.403 77.8151 107.403C77.3671 107.403 76.9751 107.508 76.6391 107.718C76.3077 107.928 76.0324 108.215 75.8131 108.579C75.5937 108.943 75.4281 109.36 75.3161 109.832C75.2087 110.298 75.1551 110.791 75.1551 111.309C75.1551 112.004 75.2554 112.65 75.4561 113.248C75.6567 113.84 75.9531 114.316 76.3451 114.676C76.7417 115.035 77.2317 115.215 77.8151 115.215ZM85.9909 116.391C85.4075 116.391 84.8849 116.26 84.4229 115.999C83.9609 115.733 83.5642 115.366 83.2329 114.9C82.9015 114.433 82.6495 113.894 82.4769 113.283C82.3042 112.667 82.2179 112.009 82.2179 111.309C82.2179 110.609 82.3042 109.951 82.4769 109.335C82.6495 108.719 82.9015 108.18 83.2329 107.718C83.5642 107.251 83.9609 106.887 84.4229 106.626C84.8849 106.36 85.4075 106.227 85.9909 106.227C86.5695 106.227 87.0899 106.36 87.5519 106.626C88.0185 106.887 88.4129 107.251 88.7349 107.718C89.0615 108.18 89.3112 108.719 89.4839 109.335C89.6612 109.951 89.7499 110.609 89.7499 111.309C89.7499 112.009 89.6612 112.667 89.4839 113.283C89.3112 113.894 89.0615 114.433 88.7349 114.9C88.4129 115.366 88.0185 115.733 87.5519 115.999C87.0899 116.26 86.5695 116.391 85.9909 116.391ZM85.9909 115.215C86.5742 115.215 87.0619 115.035 87.4539 114.676C87.8505 114.312 88.1469 113.833 88.3429 113.241C88.5389 112.648 88.6369 112.004 88.6369 111.309C88.6369 110.576 88.5342 109.916 88.3289 109.328C88.1282 108.735 87.8295 108.266 87.4329 107.921C87.0409 107.575 86.5602 107.403 85.9909 107.403C85.5429 107.403 85.1509 107.508 84.8149 107.718C84.4835 107.928 84.2082 108.215 83.9889 108.579C83.7695 108.943 83.6039 109.36 83.4919 109.832C83.3845 110.298 83.3309 110.791 83.3309 111.309C83.3309 112.004 83.4312 112.65 83.6319 113.248C83.8325 113.84 84.1289 114.316 84.5209 114.676C84.9175 115.035 85.4075 115.215 85.9909 115.215Z" fill="#535662"/>
<path d="M105.298 117.943C104.446 117.943 103.645 117.775 102.895 117.439C102.145 117.097 101.485 116.629 100.915 116.035C100.351 115.435 99.9067 114.739 99.5827 113.947C99.2647 113.155 99.1057 112.309 99.1057 111.409C99.1057 110.509 99.2647 109.663 99.5827 108.871C99.9067 108.079 100.351 107.386 100.915 106.792C101.485 106.192 102.145 105.724 102.895 105.388C103.645 105.046 104.446 104.875 105.298 104.875C106.318 104.875 107.257 105.112 108.115 105.586C108.973 106.06 109.684 106.69 110.248 107.476L108.907 108.196C108.487 107.644 107.956 107.206 107.314 106.882C106.678 106.552 106.006 106.387 105.298 106.387C104.644 106.387 104.032 106.519 103.462 106.783C102.898 107.047 102.403 107.41 101.977 107.872C101.551 108.334 101.218 108.868 100.978 109.474C100.738 110.08 100.618 110.725 100.618 111.409C100.618 112.099 100.738 112.747 100.978 113.353C101.224 113.959 101.56 114.493 101.986 114.955C102.418 115.417 102.916 115.78 103.48 116.044C104.05 116.302 104.656 116.431 105.298 116.431C106.03 116.431 106.708 116.266 107.332 115.936C107.962 115.6 108.487 115.162 108.907 114.622L110.248 115.351C109.684 116.137 108.973 116.767 108.115 117.241C107.257 117.709 106.318 117.943 105.298 117.943ZM118.795 108.709H120.307V117.709H118.795L118.732 116.188C118.45 116.71 118.06 117.133 117.562 117.457C117.07 117.781 116.482 117.943 115.798 117.943C115.138 117.943 114.52 117.82 113.944 117.574C113.368 117.322 112.858 116.977 112.414 116.539C111.976 116.095 111.634 115.585 111.388 115.009C111.142 114.433 111.019 113.812 111.019 113.146C111.019 112.504 111.139 111.898 111.379 111.328C111.619 110.758 111.952 110.26 112.378 109.834C112.81 109.402 113.308 109.066 113.872 108.826C114.436 108.58 115.042 108.457 115.69 108.457C116.398 108.457 117.019 108.625 117.553 108.961C118.087 109.291 118.519 109.72 118.849 110.248L118.795 108.709ZM115.771 116.476C116.365 116.476 116.878 116.332 117.31 116.044C117.748 115.75 118.084 115.354 118.318 114.856C118.558 114.358 118.678 113.809 118.678 113.209C118.678 112.597 118.558 112.045 118.318 111.553C118.078 111.055 117.739 110.662 117.301 110.374C116.869 110.08 116.359 109.933 115.771 109.933C115.177 109.933 114.637 110.08 114.151 110.374C113.665 110.668 113.278 111.064 112.99 111.562C112.708 112.054 112.567 112.603 112.567 113.209C112.567 113.815 112.714 114.367 113.008 114.865C113.302 115.357 113.692 115.75 114.178 116.044C114.664 116.332 115.195 116.476 115.771 116.476ZM122.212 117.709V104.209H123.724V117.709H122.212ZM125.886 117.709V104.209H127.398V117.709H125.886ZM132.304 117.88C131.818 117.862 131.344 117.772 130.882 117.61C130.426 117.442 130.024 117.217 129.676 116.935C129.334 116.647 129.085 116.317 128.929 115.945L130.225 115.387C130.315 115.591 130.477 115.783 130.711 115.963C130.945 116.143 131.215 116.287 131.521 116.395C131.827 116.503 132.136 116.557 132.448 116.557C132.778 116.557 133.087 116.506 133.375 116.404C133.663 116.302 133.897 116.152 134.077 115.954C134.263 115.75 134.356 115.507 134.356 115.225C134.356 114.925 134.254 114.691 134.05 114.523C133.852 114.349 133.6 114.214 133.294 114.118C132.994 114.016 132.688 113.92 132.376 113.83C131.758 113.674 131.206 113.488 130.72 113.272C130.234 113.05 129.85 112.771 129.568 112.435C129.292 112.093 129.154 111.658 129.154 111.13C129.154 110.572 129.307 110.089 129.613 109.681C129.925 109.273 130.333 108.958 130.837 108.736C131.341 108.514 131.881 108.403 132.457 108.403C133.183 108.403 133.846 108.559 134.446 108.871C135.046 109.183 135.493 109.606 135.787 110.14L134.572 110.851C134.47 110.635 134.314 110.446 134.104 110.284C133.894 110.116 133.654 109.984 133.384 109.888C133.114 109.792 132.838 109.741 132.556 109.735C132.208 109.723 131.881 109.768 131.575 109.87C131.275 109.972 131.032 110.128 130.846 110.338C130.666 110.542 130.576 110.797 130.576 111.103C130.576 111.403 130.672 111.631 130.864 111.787C131.062 111.943 131.317 112.069 131.629 112.165C131.947 112.255 132.292 112.36 132.664 112.48C133.21 112.654 133.72 112.855 134.194 113.083C134.668 113.311 135.049 113.596 135.337 113.938C135.631 114.28 135.775 114.703 135.769 115.207C135.769 115.759 135.604 116.242 135.274 116.656C134.944 117.064 134.515 117.376 133.987 117.592C133.465 117.808 132.904 117.904 132.304 117.88Z" fill="#0C1021"/>
<rect x="154.386" y="92.7086" width="106" height="38" rx="19" fill="white"/>
<rect x="154.886" y="93.2086" width="105" height="37" rx="18.5" stroke="#2D2D2D" stroke-opacity="0.1"/>
<path d="M170.579 116.391C169.995 116.391 169.473 116.26 169.011 115.999C168.549 115.733 168.152 115.366 167.821 114.9C167.489 114.433 167.237 113.894 167.065 113.283C166.892 112.667 166.806 112.009 166.806 111.309C166.806 110.609 166.892 109.951 167.065 109.335C167.237 108.719 167.489 108.18 167.821 107.718C168.152 107.251 168.549 106.887 169.011 106.626C169.473 106.36 169.995 106.227 170.579 106.227C171.157 106.227 171.678 106.36 172.14 106.626C172.606 106.887 173.001 107.251 173.323 107.718C173.649 108.18 173.899 108.719 174.072 109.335C174.249 109.951 174.338 110.609 174.338 111.309C174.338 112.009 174.249 112.667 174.072 113.283C173.899 113.894 173.649 114.433 173.323 114.9C173.001 115.366 172.606 115.733 172.14 115.999C171.678 116.26 171.157 116.391 170.579 116.391ZM170.579 115.215C171.162 115.215 171.65 115.035 172.042 114.676C172.438 114.312 172.735 113.833 172.931 113.241C173.127 112.648 173.225 112.004 173.225 111.309C173.225 110.576 173.122 109.916 172.917 109.328C172.716 108.735 172.417 108.266 172.021 107.921C171.629 107.575 171.148 107.403 170.579 107.403C170.131 107.403 169.739 107.508 169.403 107.718C169.071 107.928 168.796 108.215 168.577 108.579C168.357 108.943 168.192 109.36 168.08 109.832C167.972 110.298 167.919 110.791 167.919 111.309C167.919 112.004 168.019 112.65 168.22 113.248C168.42 113.84 168.717 114.316 169.109 114.676C169.505 115.035 169.995 115.215 170.579 115.215ZM178.498 116.391C177.877 116.391 177.31 116.237 176.797 115.929C176.284 115.621 175.873 115.21 175.565 114.697C175.257 114.179 175.103 113.607 175.103 112.982C175.103 112.632 175.143 112.326 175.222 112.065C175.306 111.803 175.43 111.521 175.593 111.218L178.365 106.409H179.73L177.749 109.846C178.15 109.72 178.549 109.675 178.946 109.713C179.343 109.75 179.718 109.857 180.073 110.035C180.432 110.212 180.75 110.445 181.025 110.735C181.3 111.024 181.517 111.36 181.676 111.743C181.835 112.121 181.914 112.534 181.914 112.982C181.914 113.453 181.823 113.894 181.641 114.305C181.464 114.715 181.219 115.077 180.906 115.39C180.598 115.702 180.236 115.947 179.821 116.125C179.406 116.302 178.965 116.391 178.498 116.391ZM178.498 115.215C178.927 115.215 179.31 115.11 179.646 114.9C179.987 114.69 180.253 114.414 180.444 114.074C180.64 113.733 180.738 113.369 180.738 112.982C180.738 112.576 180.638 112.205 180.437 111.869C180.241 111.533 179.973 111.264 179.632 111.064C179.296 110.858 178.923 110.756 178.512 110.756C178.083 110.756 177.7 110.861 177.364 111.071C177.028 111.281 176.762 111.554 176.566 111.89C176.375 112.226 176.279 112.59 176.279 112.982C176.279 113.406 176.382 113.787 176.587 114.123C176.792 114.459 177.063 114.725 177.399 114.921C177.74 115.117 178.106 115.215 178.498 115.215ZM183.524 110.497C183.347 110.497 183.195 110.434 183.069 110.308C182.948 110.182 182.887 110.028 182.887 109.846C182.887 109.673 182.948 109.524 183.069 109.398C183.195 109.272 183.347 109.209 183.524 109.209C183.706 109.209 183.86 109.272 183.986 109.398C184.112 109.524 184.175 109.673 184.175 109.846C184.175 110.028 184.112 110.182 183.986 110.308C183.86 110.434 183.706 110.497 183.524 110.497ZM183.524 116.391C183.347 116.391 183.195 116.328 183.069 116.202C182.948 116.076 182.887 115.922 182.887 115.74C182.887 115.567 182.948 115.418 183.069 115.292C183.195 115.166 183.347 115.103 183.524 115.103C183.706 115.103 183.86 115.166 183.986 115.292C184.112 115.418 184.175 115.567 184.175 115.74C184.175 115.922 184.112 116.076 183.986 116.202C183.86 116.328 183.706 116.391 183.524 116.391ZM189.214 116.391C188.63 116.391 188.108 116.26 187.646 115.999C187.184 115.733 186.787 115.366 186.456 114.9C186.124 114.433 185.872 113.894 185.7 113.283C185.527 112.667 185.441 112.009 185.441 111.309C185.441 110.609 185.527 109.951 185.7 109.335C185.872 108.719 186.124 108.18 186.456 107.718C186.787 107.251 187.184 106.887 187.646 106.626C188.108 106.36 188.63 106.227 189.214 106.227C189.792 106.227 190.313 106.36 190.775 106.626C191.241 106.887 191.636 107.251 191.958 107.718C192.284 108.18 192.534 108.719 192.707 109.335C192.884 109.951 192.973 110.609 192.973 111.309C192.973 112.009 192.884 112.667 192.707 113.283C192.534 113.894 192.284 114.433 191.958 114.9C191.636 115.366 191.241 115.733 190.775 115.999C190.313 116.26 189.792 116.391 189.214 116.391ZM189.214 115.215C189.797 115.215 190.285 115.035 190.677 114.676C191.073 114.312 191.37 113.833 191.566 113.241C191.762 112.648 191.86 112.004 191.86 111.309C191.86 110.576 191.757 109.916 191.552 109.328C191.351 108.735 191.052 108.266 190.656 107.921C190.264 107.575 189.783 107.403 189.214 107.403C188.766 107.403 188.374 107.508 188.038 107.718C187.706 107.928 187.431 108.215 187.212 108.579C186.992 108.943 186.827 109.36 186.715 109.832C186.607 110.298 186.554 110.791 186.554 111.309C186.554 112.004 186.654 112.65 186.855 113.248C187.055 113.84 187.352 114.316 187.744 114.676C188.14 115.035 188.63 115.215 189.214 115.215ZM197.389 116.391C196.806 116.391 196.283 116.26 195.821 115.999C195.359 115.733 194.963 115.366 194.631 114.9C194.3 114.433 194.048 113.894 193.875 113.283C193.703 112.667 193.616 112.009 193.616 111.309C193.616 110.609 193.703 109.951 193.875 109.335C194.048 108.719 194.3 108.18 194.631 107.718C194.963 107.251 195.359 106.887 195.821 106.626C196.283 106.36 196.806 106.227 197.389 106.227C197.968 106.227 198.488 106.36 198.95 106.626C199.417 106.887 199.811 107.251 200.133 107.718C200.46 108.18 200.71 108.719 200.882 109.335C201.06 109.951 201.148 110.609 201.148 111.309C201.148 112.009 201.06 112.667 200.882 113.283C200.71 113.894 200.46 114.433 200.133 114.9C199.811 115.366 199.417 115.733 198.95 115.999C198.488 116.26 197.968 116.391 197.389 116.391ZM197.389 115.215C197.973 115.215 198.46 115.035 198.852 114.676C199.249 114.312 199.545 113.833 199.741 113.241C199.937 112.648 200.035 112.004 200.035 111.309C200.035 110.576 199.933 109.916 199.727 109.328C199.527 108.735 199.228 108.266 198.831 107.921C198.439 107.575 197.959 107.403 197.389 107.403C196.941 107.403 196.549 107.508 196.213 107.718C195.882 107.928 195.607 108.215 195.387 108.579C195.168 108.943 195.002 109.36 194.89 109.832C194.783 110.298 194.729 110.791 194.729 111.309C194.729 112.004 194.83 112.65 195.03 113.248C195.231 113.84 195.527 114.316 195.919 114.676C196.316 115.035 196.806 115.215 197.389 115.215Z" fill="#535662"/>
<path d="M217.298 117.943C216.446 117.943 215.645 117.775 214.895 117.439C214.145 117.097 213.485 116.629 212.915 116.035C212.351 115.435 211.907 114.739 211.583 113.947C211.265 113.155 211.106 112.309 211.106 111.409C211.106 110.509 211.265 109.663 211.583 108.871C211.907 108.079 212.351 107.386 212.915 106.792C213.485 106.192 214.145 105.724 214.895 105.388C215.645 105.046 216.446 104.875 217.298 104.875C218.318 104.875 219.257 105.112 220.115 105.586C220.973 106.06 221.684 106.69 222.248 107.476L220.907 108.196C220.487 107.644 219.956 107.206 219.314 106.882C218.678 106.552 218.006 106.387 217.298 106.387C216.644 106.387 216.032 106.519 215.462 106.783C214.898 107.047 214.403 107.41 213.977 107.872C213.551 108.334 213.218 108.868 212.978 109.474C212.738 110.08 212.618 110.725 212.618 111.409C212.618 112.099 212.738 112.747 212.978 113.353C213.224 113.959 213.56 114.493 213.986 114.955C214.418 115.417 214.916 115.78 215.48 116.044C216.05 116.302 216.656 116.431 217.298 116.431C218.03 116.431 218.708 116.266 219.332 115.936C219.962 115.6 220.487 115.162 220.907 114.622L222.248 115.351C221.684 116.137 220.973 116.767 220.115 117.241C219.257 117.709 218.318 117.943 217.298 117.943ZM230.795 108.709H232.307V117.709H230.795L230.732 116.188C230.45 116.71 230.06 117.133 229.562 117.457C229.07 117.781 228.482 117.943 227.798 117.943C227.138 117.943 226.52 117.82 225.944 117.574C225.368 117.322 224.858 116.977 224.414 116.539C223.976 116.095 223.634 115.585 223.388 115.009C223.142 114.433 223.019 113.812 223.019 113.146C223.019 112.504 223.139 111.898 223.379 111.328C223.619 110.758 223.952 110.26 224.378 109.834C224.81 109.402 225.308 109.066 225.872 108.826C226.436 108.58 227.042 108.457 227.69 108.457C228.398 108.457 229.019 108.625 229.553 108.961C230.087 109.291 230.519 109.72 230.849 110.248L230.795 108.709ZM227.771 116.476C228.365 116.476 228.878 116.332 229.31 116.044C229.748 115.75 230.084 115.354 230.318 114.856C230.558 114.358 230.678 113.809 230.678 113.209C230.678 112.597 230.558 112.045 230.318 111.553C230.078 111.055 229.739 110.662 229.301 110.374C228.869 110.08 228.359 109.933 227.771 109.933C227.177 109.933 226.637 110.08 226.151 110.374C225.665 110.668 225.278 111.064 224.99 111.562C224.708 112.054 224.567 112.603 224.567 113.209C224.567 113.815 224.714 114.367 225.008 114.865C225.302 115.357 225.692 115.75 226.178 116.044C226.664 116.332 227.195 116.476 227.771 116.476ZM234.212 117.709V104.209H235.724V117.709H234.212ZM237.886 117.709V104.209H239.398V117.709H237.886ZM244.304 117.88C243.818 117.862 243.344 117.772 242.882 117.61C242.426 117.442 242.024 117.217 241.676 116.935C241.334 116.647 241.085 116.317 240.929 115.945L242.225 115.387C242.315 115.591 242.477 115.783 242.711 115.963C242.945 116.143 243.215 116.287 243.521 116.395C243.827 116.503 244.136 116.557 244.448 116.557C244.778 116.557 245.087 116.506 245.375 116.404C245.663 116.302 245.897 116.152 246.077 115.954C246.263 115.75 246.356 115.507 246.356 115.225C246.356 114.925 246.254 114.691 246.05 114.523C245.852 114.349 245.6 114.214 245.294 114.118C244.994 114.016 244.688 113.92 244.376 113.83C243.758 113.674 243.206 113.488 242.72 113.272C242.234 113.05 241.85 112.771 241.568 112.435C241.292 112.093 241.154 111.658 241.154 111.13C241.154 110.572 241.307 110.089 241.613 109.681C241.925 109.273 242.333 108.958 242.837 108.736C243.341 108.514 243.881 108.403 244.457 108.403C245.183 108.403 245.846 108.559 246.446 108.871C247.046 109.183 247.493 109.606 247.787 110.14L246.572 110.851C246.47 110.635 246.314 110.446 246.104 110.284C245.894 110.116 245.654 109.984 245.384 109.888C245.114 109.792 244.838 109.741 244.556 109.735C244.208 109.723 243.881 109.768 243.575 109.87C243.275 109.972 243.032 110.128 242.846 110.338C242.666 110.542 242.576 110.797 242.576 111.103C242.576 111.403 242.672 111.631 242.864 111.787C243.062 111.943 243.317 112.069 243.629 112.165C243.947 112.255 244.292 112.36 244.664 112.48C245.21 112.654 245.72 112.855 246.194 113.083C246.668 113.311 247.049 113.596 247.337 113.938C247.631 114.28 247.775 114.703 247.769 115.207C247.769 115.759 247.604 116.242 247.274 116.656C246.944 117.064 246.515 117.376 245.987 117.592C245.465 117.808 244.904 117.904 244.304 117.88Z" fill="#0C1021"/>
<rect x="266.386" y="92.7086" width="101" height="38" rx="19" fill="white"/>
<rect x="266.886" y="93.2086" width="100" height="37" rx="18.5" stroke="#2D2D2D" stroke-opacity="0.1"/>
<path d="M280.045 116.209V107.585H278.946L279.275 106.409H281.221V116.209H280.045ZM282.897 116.209V115.166C283.256 114.844 283.66 114.484 284.108 114.088C284.556 113.686 285.002 113.269 285.445 112.835C285.893 112.396 286.304 111.962 286.677 111.533C287.05 111.103 287.351 110.697 287.58 110.315C287.809 109.927 287.923 109.589 287.923 109.3C287.923 108.954 287.839 108.639 287.671 108.355C287.503 108.065 287.277 107.834 286.992 107.662C286.712 107.489 286.399 107.403 286.054 107.403C285.709 107.403 285.391 107.489 285.102 107.662C284.817 107.834 284.589 108.065 284.416 108.355C284.248 108.639 284.164 108.954 284.164 109.3H282.988C282.988 108.726 283.128 108.208 283.408 107.746C283.688 107.279 284.059 106.91 284.521 106.64C284.983 106.364 285.494 106.227 286.054 106.227C286.614 106.227 287.123 106.364 287.58 106.64C288.042 106.915 288.411 107.286 288.686 107.753C288.961 108.215 289.099 108.73 289.099 109.3C289.099 109.626 289.02 109.979 288.861 110.357C288.702 110.73 288.485 111.115 288.21 111.512C287.935 111.908 287.622 112.31 287.272 112.716C286.922 113.117 286.553 113.514 286.166 113.906C285.779 114.298 285.394 114.673 285.011 115.033H289.225V116.209H282.897ZM291.259 110.497C291.081 110.497 290.93 110.434 290.804 110.308C290.682 110.182 290.622 110.028 290.622 109.846C290.622 109.673 290.682 109.524 290.804 109.398C290.93 109.272 291.081 109.209 291.259 109.209C291.441 109.209 291.595 109.272 291.721 109.398C291.847 109.524 291.91 109.673 291.91 109.846C291.91 110.028 291.847 110.182 291.721 110.308C291.595 110.434 291.441 110.497 291.259 110.497ZM291.259 116.391C291.081 116.391 290.93 116.328 290.804 116.202C290.682 116.076 290.622 115.922 290.622 115.74C290.622 115.567 290.682 115.418 290.804 115.292C290.93 115.166 291.081 115.103 291.259 115.103C291.441 115.103 291.595 115.166 291.721 115.292C291.847 115.418 291.91 115.567 291.91 115.74C291.91 115.922 291.847 116.076 291.721 116.202C291.595 116.328 291.441 116.391 291.259 116.391ZM296.948 116.391C296.365 116.391 295.842 116.26 295.38 115.999C294.918 115.733 294.521 115.366 294.19 114.9C293.859 114.433 293.607 113.894 293.434 113.283C293.261 112.667 293.175 112.009 293.175 111.309C293.175 110.609 293.261 109.951 293.434 109.335C293.607 108.719 293.859 108.18 294.19 107.718C294.521 107.251 294.918 106.887 295.38 106.626C295.842 106.36 296.365 106.227 296.948 106.227C297.527 106.227 298.047 106.36 298.509 106.626C298.976 106.887 299.37 107.251 299.692 107.718C300.019 108.18 300.268 108.719 300.441 109.335C300.618 109.951 300.707 110.609 300.707 111.309C300.707 112.009 300.618 112.667 300.441 113.283C300.268 113.894 300.019 114.433 299.692 114.9C299.37 115.366 298.976 115.733 298.509 115.999C298.047 116.26 297.527 116.391 296.948 116.391ZM296.948 115.215C297.531 115.215 298.019 115.035 298.411 114.676C298.808 114.312 299.104 113.833 299.3 113.241C299.496 112.648 299.594 112.004 299.594 111.309C299.594 110.576 299.491 109.916 299.286 109.328C299.085 108.735 298.787 108.266 298.39 107.921C297.998 107.575 297.517 107.403 296.948 107.403C296.5 107.403 296.108 107.508 295.772 107.718C295.441 107.928 295.165 108.215 294.946 108.579C294.727 108.943 294.561 109.36 294.449 109.832C294.342 110.298 294.288 110.791 294.288 111.309C294.288 112.004 294.388 112.65 294.589 113.248C294.79 113.84 295.086 114.316 295.478 114.676C295.875 115.035 296.365 115.215 296.948 115.215ZM305.124 116.391C304.54 116.391 304.018 116.26 303.556 115.999C303.094 115.733 302.697 115.366 302.366 114.9C302.034 114.433 301.782 113.894 301.61 113.283C301.437 112.667 301.351 112.009 301.351 111.309C301.351 110.609 301.437 109.951 301.61 109.335C301.782 108.719 302.034 108.18 302.366 107.718C302.697 107.251 303.094 106.887 303.556 106.626C304.018 106.36 304.54 106.227 305.124 106.227C305.702 106.227 306.223 106.36 306.685 106.626C307.151 106.887 307.546 107.251 307.868 107.718C308.194 108.18 308.444 108.719 308.617 109.335C308.794 109.951 308.883 110.609 308.883 111.309C308.883 112.009 308.794 112.667 308.617 113.283C308.444 113.894 308.194 114.433 307.868 114.9C307.546 115.366 307.151 115.733 306.685 115.999C306.223 116.26 305.702 116.391 305.124 116.391ZM305.124 115.215C305.707 115.215 306.195 115.035 306.587 114.676C306.983 114.312 307.28 113.833 307.476 113.241C307.672 112.648 307.77 112.004 307.77 111.309C307.77 110.576 307.667 109.916 307.462 109.328C307.261 108.735 306.962 108.266 306.566 107.921C306.174 107.575 305.693 107.403 305.124 107.403C304.676 107.403 304.284 107.508 303.948 107.718C303.616 107.928 303.341 108.215 303.122 108.579C302.902 108.943 302.737 109.36 302.625 109.832C302.517 110.298 302.464 110.791 302.464 111.309C302.464 112.004 302.564 112.65 302.765 113.248C302.965 113.84 303.262 114.316 303.654 114.676C304.05 115.035 304.54 115.215 305.124 115.215Z" fill="#535662"/>
<path d="M324.298 117.943C323.446 117.943 322.645 117.775 321.895 117.439C321.145 117.097 320.485 116.629 319.915 116.035C319.351 115.435 318.907 114.739 318.583 113.947C318.265 113.155 318.106 112.309 318.106 111.409C318.106 110.509 318.265 109.663 318.583 108.871C318.907 108.079 319.351 107.386 319.915 106.792C320.485 106.192 321.145 105.724 321.895 105.388C322.645 105.046 323.446 104.875 324.298 104.875C325.318 104.875 326.257 105.112 327.115 105.586C327.973 106.06 328.684 106.69 329.248 107.476L327.907 108.196C327.487 107.644 326.956 107.206 326.314 106.882C325.678 106.552 325.006 106.387 324.298 106.387C323.644 106.387 323.032 106.519 322.462 106.783C321.898 107.047 321.403 107.41 320.977 107.872C320.551 108.334 320.218 108.868 319.978 109.474C319.738 110.08 319.618 110.725 319.618 111.409C319.618 112.099 319.738 112.747 319.978 113.353C320.224 113.959 320.56 114.493 320.986 114.955C321.418 115.417 321.916 115.78 322.48 116.044C323.05 116.302 323.656 116.431 324.298 116.431C325.03 116.431 325.708 116.266 326.332 115.936C326.962 115.6 327.487 115.162 327.907 114.622L329.248 115.351C328.684 116.137 327.973 116.767 327.115 117.241C326.257 117.709 325.318 117.943 324.298 117.943ZM337.795 108.709H339.307V117.709H337.795L337.732 116.188C337.45 116.71 337.06 117.133 336.562 117.457C336.07 117.781 335.482 117.943 334.798 117.943C334.138 117.943 333.52 117.82 332.944 117.574C332.368 117.322 331.858 116.977 331.414 116.539C330.976 116.095 330.634 115.585 330.388 115.009C330.142 114.433 330.019 113.812 330.019 113.146C330.019 112.504 330.139 111.898 330.379 111.328C330.619 110.758 330.952 110.26 331.378 109.834C331.81 109.402 332.308 109.066 332.872 108.826C333.436 108.58 334.042 108.457 334.69 108.457C335.398 108.457 336.019 108.625 336.553 108.961C337.087 109.291 337.519 109.72 337.849 110.248L337.795 108.709ZM334.771 116.476C335.365 116.476 335.878 116.332 336.31 116.044C336.748 115.75 337.084 115.354 337.318 114.856C337.558 114.358 337.678 113.809 337.678 113.209C337.678 112.597 337.558 112.045 337.318 111.553C337.078 111.055 336.739 110.662 336.301 110.374C335.869 110.08 335.359 109.933 334.771 109.933C334.177 109.933 333.637 110.08 333.151 110.374C332.665 110.668 332.278 111.064 331.99 111.562C331.708 112.054 331.567 112.603 331.567 113.209C331.567 113.815 331.714 114.367 332.008 114.865C332.302 115.357 332.692 115.75 333.178 116.044C333.664 116.332 334.195 116.476 334.771 116.476ZM341.212 117.709V104.209H342.724V117.709H341.212ZM344.886 117.709V104.209H346.398V117.709H344.886ZM351.304 117.88C350.818 117.862 350.344 117.772 349.882 117.61C349.426 117.442 349.024 117.217 348.676 116.935C348.334 116.647 348.085 116.317 347.929 115.945L349.225 115.387C349.315 115.591 349.477 115.783 349.711 115.963C349.945 116.143 350.215 116.287 350.521 116.395C350.827 116.503 351.136 116.557 351.448 116.557C351.778 116.557 352.087 116.506 352.375 116.404C352.663 116.302 352.897 116.152 353.077 115.954C353.263 115.75 353.356 115.507 353.356 115.225C353.356 114.925 353.254 114.691 353.05 114.523C352.852 114.349 352.6 114.214 352.294 114.118C351.994 114.016 351.688 113.92 351.376 113.83C350.758 113.674 350.206 113.488 349.72 113.272C349.234 113.05 348.85 112.771 348.568 112.435C348.292 112.093 348.154 111.658 348.154 111.13C348.154 110.572 348.307 110.089 348.613 109.681C348.925 109.273 349.333 108.958 349.837 108.736C350.341 108.514 350.881 108.403 351.457 108.403C352.183 108.403 352.846 108.559 353.446 108.871C354.046 109.183 354.493 109.606 354.787 110.14L353.572 110.851C353.47 110.635 353.314 110.446 353.104 110.284C352.894 110.116 352.654 109.984 352.384 109.888C352.114 109.792 351.838 109.741 351.556 109.735C351.208 109.723 350.881 109.768 350.575 109.87C350.275 109.972 350.032 110.128 349.846 110.338C349.666 110.542 349.576 110.797 349.576 111.103C349.576 111.403 349.672 111.631 349.864 111.787C350.062 111.943 350.317 112.069 350.629 112.165C350.947 112.255 351.292 112.36 351.664 112.48C352.21 112.654 352.72 112.855 353.194 113.083C353.668 113.311 354.049 113.596 354.337 113.938C354.631 114.28 354.775 114.703 354.769 115.207C354.769 115.759 354.604 116.242 354.274 116.656C353.944 117.064 353.515 117.376 352.987 117.592C352.465 117.808 351.904 117.904 351.304 117.88Z" fill="#0C1021"/>
<rect x="42.3857" y="136.709" width="101" height="38" rx="19" fill="white"/>
<rect x="42.8857" y="137.209" width="100" height="37" rx="18.5" stroke="#2D2D2D" stroke-opacity="0.1"/>
<path d="M56.0447 160.209V151.585H54.9457L55.2747 150.409H57.2207V160.209H56.0447ZM62.0539 160.391C61.4706 160.391 60.9386 160.258 60.4579 159.992C59.9819 159.726 59.6016 159.371 59.3169 158.928C59.0369 158.48 58.8969 157.985 58.8969 157.444C58.8969 156.94 59.0299 156.478 59.2959 156.058C59.5619 155.633 59.9096 155.297 60.3389 155.05C59.9889 154.826 59.6996 154.529 59.4709 154.161C59.2469 153.787 59.1349 153.384 59.1349 152.95C59.1349 152.446 59.2656 151.988 59.5269 151.578C59.7929 151.167 60.1452 150.84 60.5839 150.598C61.0272 150.35 61.5172 150.227 62.0539 150.227C62.5906 150.227 63.0782 150.35 63.5169 150.598C63.9602 150.84 64.3126 151.167 64.5739 151.578C64.8399 151.988 64.9729 152.446 64.9729 152.95C64.9729 153.384 64.8609 153.787 64.6369 154.161C64.4129 154.529 64.1212 154.826 63.7619 155.05C64.2052 155.297 64.5576 155.633 64.8189 156.058C65.0849 156.478 65.2179 156.94 65.2179 157.444C65.2179 157.98 65.0756 158.473 64.7909 158.921C64.5062 159.369 64.1236 159.726 63.6429 159.992C63.1669 160.258 62.6372 160.391 62.0539 160.391ZM62.0539 159.215C62.4086 159.215 62.7282 159.135 63.0129 158.977C63.3022 158.818 63.5332 158.606 63.7059 158.34C63.8786 158.069 63.9649 157.77 63.9649 157.444C63.9649 157.112 63.8786 156.814 63.7059 156.548C63.5332 156.282 63.3022 156.069 63.0129 155.911C62.7282 155.752 62.4086 155.673 62.0539 155.673C61.7039 155.673 61.3842 155.752 61.0949 155.911C60.8056 156.069 60.5746 156.282 60.4019 156.548C60.2292 156.814 60.1429 157.112 60.1429 157.444C60.1429 157.77 60.2292 158.069 60.4019 158.34C60.5746 158.606 60.8056 158.818 61.0949 158.977C61.3842 159.135 61.7039 159.215 62.0539 159.215ZM62.0539 154.497C62.3619 154.497 62.6419 154.427 62.8939 154.287C63.1459 154.147 63.3466 153.96 63.4959 153.727C63.6499 153.493 63.7269 153.234 63.7269 152.95C63.7269 152.66 63.6499 152.401 63.4959 152.173C63.3466 151.939 63.1459 151.753 62.8939 151.613C62.6419 151.473 62.3619 151.403 62.0539 151.403C61.7459 151.403 61.4659 151.473 61.2139 151.613C60.9619 151.753 60.7589 151.939 60.6049 152.173C60.4556 152.401 60.3809 152.66 60.3809 152.95C60.3809 153.234 60.4556 153.493 60.6049 153.727C60.7589 153.96 60.9619 154.147 61.2139 154.287C61.4659 154.427 61.7459 154.497 62.0539 154.497ZM66.9714 154.497C66.7941 154.497 66.6424 154.434 66.5164 154.308C66.3951 154.182 66.3344 154.028 66.3344 153.846C66.3344 153.673 66.3951 153.524 66.5164 153.398C66.6424 153.272 66.7941 153.209 66.9714 153.209C67.1534 153.209 67.3074 153.272 67.4334 153.398C67.5594 153.524 67.6224 153.673 67.6224 153.846C67.6224 154.028 67.5594 154.182 67.4334 154.308C67.3074 154.434 67.1534 154.497 66.9714 154.497ZM66.9714 160.391C66.7941 160.391 66.6424 160.328 66.5164 160.202C66.3951 160.076 66.3344 159.922 66.3344 159.74C66.3344 159.567 66.3951 159.418 66.5164 159.292C66.6424 159.166 66.7941 159.103 66.9714 159.103C67.1534 159.103 67.3074 159.166 67.4334 159.292C67.5594 159.418 67.6224 159.567 67.6224 159.74C67.6224 159.922 67.5594 160.076 67.4334 160.202C67.3074 160.328 67.1534 160.391 66.9714 160.391ZM72.6608 160.391C72.0774 160.391 71.5548 160.26 71.0928 159.999C70.6308 159.733 70.2341 159.366 69.9028 158.9C69.5714 158.433 69.3194 157.894 69.1468 157.283C68.9741 156.667 68.8878 156.009 68.8878 155.309C68.8878 154.609 68.9741 153.951 69.1468 153.335C69.3194 152.719 69.5714 152.18 69.9028 151.718C70.2341 151.251 70.6308 150.887 71.0928 150.626C71.5548 150.36 72.0774 150.227 72.6608 150.227C73.2394 150.227 73.7598 150.36 74.2218 150.626C74.6884 150.887 75.0828 151.251 75.4048 151.718C75.7314 152.18 75.9811 152.719 76.1538 153.335C76.3311 153.951 76.4198 154.609 76.4198 155.309C76.4198 156.009 76.3311 156.667 76.1538 157.283C75.9811 157.894 75.7314 158.433 75.4048 158.9C75.0828 159.366 74.6884 159.733 74.2218 159.999C73.7598 160.26 73.2394 160.391 72.6608 160.391ZM72.6608 159.215C73.2441 159.215 73.7318 159.035 74.1238 158.676C74.5204 158.312 74.8168 157.833 75.0128 157.241C75.2088 156.648 75.3068 156.004 75.3068 155.309C75.3068 154.576 75.2041 153.916 74.9988 153.328C74.7981 152.735 74.4994 152.266 74.1028 151.921C73.7108 151.575 73.2301 151.403 72.6608 151.403C72.2128 151.403 71.8208 151.508 71.4848 151.718C71.1534 151.928 70.8781 152.215 70.6588 152.579C70.4394 152.943 70.2738 153.36 70.1618 153.832C70.0544 154.298 70.0008 154.791 70.0008 155.309C70.0008 156.004 70.1011 156.65 70.3018 157.248C70.5024 157.84 70.7988 158.316 71.1908 158.676C71.5874 159.035 72.0774 159.215 72.6608 159.215ZM80.8366 160.391C80.2532 160.391 79.7306 160.26 79.2686 159.999C78.8066 159.733 78.4099 159.366 78.0786 158.9C77.7472 158.433 77.4952 157.894 77.3226 157.283C77.1499 156.667 77.0636 156.009 77.0636 155.309C77.0636 154.609 77.1499 153.951 77.3226 153.335C77.4952 152.719 77.7472 152.18 78.0786 151.718C78.4099 151.251 78.8066 150.887 79.2686 150.626C79.7306 150.36 80.2532 150.227 80.8366 150.227C81.4152 150.227 81.9356 150.36 82.3976 150.626C82.8642 150.887 83.2586 151.251 83.5806 151.718C83.9072 152.18 84.1569 152.719 84.3296 153.335C84.5069 153.951 84.5956 154.609 84.5956 155.309C84.5956 156.009 84.5069 156.667 84.3296 157.283C84.1569 157.894 83.9072 158.433 83.5806 158.9C83.2586 159.366 82.8642 159.733 82.3976 159.999C81.9356 160.26 81.4152 160.391 80.8366 160.391ZM80.8366 159.215C81.4199 159.215 81.9076 159.035 82.2996 158.676C82.6962 158.312 82.9926 157.833 83.1886 157.241C83.3846 156.648 83.4826 156.004 83.4826 155.309C83.4826 154.576 83.3799 153.916 83.1746 153.328C82.9739 152.735 82.6752 152.266 82.2786 151.921C81.8866 151.575 81.4059 151.403 80.8366 151.403C80.3886 151.403 79.9966 151.508 79.6606 151.718C79.3292 151.928 79.0539 152.215 78.8346 152.579C78.6152 152.943 78.4496 153.36 78.3376 153.832C78.2302 154.298 78.1766 154.791 78.1766 155.309C78.1766 156.004 78.2769 156.65 78.4776 157.248C78.6782 157.84 78.9746 158.316 79.3666 158.676C79.7632 159.035 80.2532 159.215 80.8366 159.215Z" fill="#535662"/>
<path d="M100.298 161.943C99.4457 161.943 98.6447 161.775 97.8947 161.439C97.1447 161.097 96.4847 160.629 95.9147 160.035C95.3507 159.435 94.9067 158.739 94.5827 157.947C94.2647 157.155 94.1057 156.309 94.1057 155.409C94.1057 154.509 94.2647 153.663 94.5827 152.871C94.9067 152.079 95.3507 151.386 95.9147 150.792C96.4847 150.192 97.1447 149.724 97.8947 149.388C98.6447 149.046 99.4457 148.875 100.298 148.875C101.318 148.875 102.257 149.112 103.115 149.586C103.973 150.06 104.684 150.69 105.248 151.476L103.907 152.196C103.487 151.644 102.956 151.206 102.314 150.882C101.678 150.552 101.006 150.387 100.298 150.387C99.6437 150.387 99.0317 150.519 98.4617 150.783C97.8977 151.047 97.4027 151.41 96.9767 151.872C96.5507 152.334 96.2177 152.868 95.9777 153.474C95.7377 154.08 95.6177 154.725 95.6177 155.409C95.6177 156.099 95.7377 156.747 95.9777 157.353C96.2237 157.959 96.5597 158.493 96.9857 158.955C97.4177 159.417 97.9157 159.78 98.4797 160.044C99.0497 160.302 99.6557 160.431 100.298 160.431C101.03 160.431 101.708 160.266 102.332 159.936C102.962 159.6 103.487 159.162 103.907 158.622L105.248 159.351C104.684 160.137 103.973 160.767 103.115 161.241C102.257 161.709 101.318 161.943 100.298 161.943ZM113.795 152.709H115.307V161.709H113.795L113.732 160.188C113.45 160.71 113.06 161.133 112.562 161.457C112.07 161.781 111.482 161.943 110.798 161.943C110.138 161.943 109.52 161.82 108.944 161.574C108.368 161.322 107.858 160.977 107.414 160.539C106.976 160.095 106.634 159.585 106.388 159.009C106.142 158.433 106.019 157.812 106.019 157.146C106.019 156.504 106.139 155.898 106.379 155.328C106.619 154.758 106.952 154.26 107.378 153.834C107.81 153.402 108.308 153.066 108.872 152.826C109.436 152.58 110.042 152.457 110.69 152.457C111.398 152.457 112.019 152.625 112.553 152.961C113.087 153.291 113.519 153.72 113.849 154.248L113.795 152.709ZM110.771 160.476C111.365 160.476 111.878 160.332 112.31 160.044C112.748 159.75 113.084 159.354 113.318 158.856C113.558 158.358 113.678 157.809 113.678 157.209C113.678 156.597 113.558 156.045 113.318 155.553C113.078 155.055 112.739 154.662 112.301 154.374C111.869 154.08 111.359 153.933 110.771 153.933C110.177 153.933 109.637 154.08 109.151 154.374C108.665 154.668 108.278 155.064 107.99 155.562C107.708 156.054 107.567 156.603 107.567 157.209C107.567 157.815 107.714 158.367 108.008 158.865C108.302 159.357 108.692 159.75 109.178 160.044C109.664 160.332 110.195 160.476 110.771 160.476ZM117.212 161.709V148.209H118.724V161.709H117.212ZM120.886 161.709V148.209H122.398V161.709H120.886ZM127.304 161.88C126.818 161.862 126.344 161.772 125.882 161.61C125.426 161.442 125.024 161.217 124.676 160.935C124.334 160.647 124.085 160.317 123.929 159.945L125.225 159.387C125.315 159.591 125.477 159.783 125.711 159.963C125.945 160.143 126.215 160.287 126.521 160.395C126.827 160.503 127.136 160.557 127.448 160.557C127.778 160.557 128.087 160.506 128.375 160.404C128.663 160.302 128.897 160.152 129.077 159.954C129.263 159.75 129.356 159.507 129.356 159.225C129.356 158.925 129.254 158.691 129.05 158.523C128.852 158.349 128.6 158.214 128.294 158.118C127.994 158.016 127.688 157.92 127.376 157.83C126.758 157.674 126.206 157.488 125.72 157.272C125.234 157.05 124.85 156.771 124.568 156.435C124.292 156.093 124.154 155.658 124.154 155.13C124.154 154.572 124.307 154.089 124.613 153.681C124.925 153.273 125.333 152.958 125.837 152.736C126.341 152.514 126.881 152.403 127.457 152.403C128.183 152.403 128.846 152.559 129.446 152.871C130.046 153.183 130.493 153.606 130.787 154.14L129.572 154.851C129.47 154.635 129.314 154.446 129.104 154.284C128.894 154.116 128.654 153.984 128.384 153.888C128.114 153.792 127.838 153.741 127.556 153.735C127.208 153.723 126.881 153.768 126.575 153.87C126.275 153.972 126.032 154.128 125.846 154.338C125.666 154.542 125.576 154.797 125.576 155.103C125.576 155.403 125.672 155.631 125.864 155.787C126.062 155.943 126.317 156.069 126.629 156.165C126.947 156.255 127.292 156.36 127.664 156.48C128.21 156.654 128.72 156.855 129.194 157.083C129.668 157.311 130.049 157.596 130.337 157.938C130.631 158.28 130.775 158.703 130.769 159.207C130.769 159.759 130.604 160.242 130.274 160.656C129.944 161.064 129.515 161.376 128.987 161.592C128.465 161.808 127.904 161.904 127.304 161.88Z" fill="#0C1021"/>
<rect x="149.386" y="136.709" width="101" height="38" rx="19" fill="white"/>
<rect x="149.886" y="137.209" width="100" height="37" rx="18.5" stroke="#2D2D2D" stroke-opacity="0.1"/>
<path d="M161.946 160.209V159.166C162.305 158.844 162.709 158.484 163.157 158.088C163.605 157.686 164.05 157.269 164.494 156.835C164.942 156.396 165.352 155.962 165.726 155.533C166.099 155.103 166.4 154.697 166.629 154.315C166.857 153.927 166.972 153.589 166.972 153.3C166.972 152.954 166.888 152.639 166.72 152.355C166.552 152.065 166.325 151.834 166.041 151.662C165.761 151.489 165.448 151.403 165.103 151.403C164.757 151.403 164.44 151.489 164.151 151.662C163.866 151.834 163.637 152.065 163.465 152.355C163.297 152.639 163.213 152.954 163.213 153.3H162.037C162.037 152.726 162.177 152.208 162.457 151.746C162.737 151.279 163.108 150.91 163.57 150.64C164.032 150.364 164.543 150.227 165.103 150.227C165.663 150.227 166.171 150.364 166.629 150.64C167.091 150.915 167.459 151.286 167.735 151.753C168.01 152.215 168.148 152.73 168.148 153.3C168.148 153.626 168.068 153.979 167.91 154.357C167.751 154.73 167.534 155.115 167.259 155.512C166.983 155.908 166.671 156.31 166.321 156.716C165.971 157.117 165.602 157.514 165.215 157.906C164.827 158.298 164.442 158.673 164.06 159.033H168.274V160.209H161.946ZM170.769 160.209V151.585H169.67L169.999 150.409H171.945V160.209H170.769ZM174.259 154.497C174.081 154.497 173.93 154.434 173.804 154.308C173.682 154.182 173.622 154.028 173.622 153.846C173.622 153.673 173.682 153.524 173.804 153.398C173.93 153.272 174.081 153.209 174.259 153.209C174.441 153.209 174.595 153.272 174.721 153.398C174.847 153.524 174.91 153.673 174.91 153.846C174.91 154.028 174.847 154.182 174.721 154.308C174.595 154.434 174.441 154.497 174.259 154.497ZM174.259 160.391C174.081 160.391 173.93 160.328 173.804 160.202C173.682 160.076 173.622 159.922 173.622 159.74C173.622 159.567 173.682 159.418 173.804 159.292C173.93 159.166 174.081 159.103 174.259 159.103C174.441 159.103 174.595 159.166 174.721 159.292C174.847 159.418 174.91 159.567 174.91 159.74C174.91 159.922 174.847 160.076 174.721 160.202C174.595 160.328 174.441 160.391 174.259 160.391ZM179.948 160.391C179.365 160.391 178.842 160.26 178.38 159.999C177.918 159.733 177.521 159.366 177.19 158.9C176.859 158.433 176.607 157.894 176.434 157.283C176.261 156.667 176.175 156.009 176.175 155.309C176.175 154.609 176.261 153.951 176.434 153.335C176.607 152.719 176.859 152.18 177.19 151.718C177.521 151.251 177.918 150.887 178.38 150.626C178.842 150.36 179.365 150.227 179.948 150.227C180.527 150.227 181.047 150.36 181.509 150.626C181.976 150.887 182.37 151.251 182.692 151.718C183.019 152.18 183.268 152.719 183.441 153.335C183.618 153.951 183.707 154.609 183.707 155.309C183.707 156.009 183.618 156.667 183.441 157.283C183.268 157.894 183.019 158.433 182.692 158.9C182.37 159.366 181.976 159.733 181.509 159.999C181.047 160.26 180.527 160.391 179.948 160.391ZM179.948 159.215C180.531 159.215 181.019 159.035 181.411 158.676C181.808 158.312 182.104 157.833 182.3 157.241C182.496 156.648 182.594 156.004 182.594 155.309C182.594 154.576 182.491 153.916 182.286 153.328C182.085 152.735 181.787 152.266 181.39 151.921C180.998 151.575 180.517 151.403 179.948 151.403C179.5 151.403 179.108 151.508 178.772 151.718C178.441 151.928 178.165 152.215 177.946 152.579C177.727 152.943 177.561 153.36 177.449 153.832C177.342 154.298 177.288 154.791 177.288 155.309C177.288 156.004 177.388 156.65 177.589 157.248C177.79 157.84 178.086 158.316 178.478 158.676C178.875 159.035 179.365 159.215 179.948 159.215ZM188.124 160.391C187.54 160.391 187.018 160.26 186.556 159.999C186.094 159.733 185.697 159.366 185.366 158.9C185.034 158.433 184.782 157.894 184.61 157.283C184.437 156.667 184.351 156.009 184.351 155.309C184.351 154.609 184.437 153.951 184.61 153.335C184.782 152.719 185.034 152.18 185.366 151.718C185.697 151.251 186.094 150.887 186.556 150.626C187.018 150.36 187.54 150.227 188.124 150.227C188.702 150.227 189.223 150.36 189.685 150.626C190.151 150.887 190.546 151.251 190.868 151.718C191.194 152.18 191.444 152.719 191.617 153.335C191.794 153.951 191.883 154.609 191.883 155.309C191.883 156.009 191.794 156.667 191.617 157.283C191.444 157.894 191.194 158.433 190.868 158.9C190.546 159.366 190.151 159.733 189.685 159.999C189.223 160.26 188.702 160.391 188.124 160.391ZM188.124 159.215C188.707 159.215 189.195 159.035 189.587 158.676C189.983 158.312 190.28 157.833 190.476 157.241C190.672 156.648 190.77 156.004 190.77 155.309C190.77 154.576 190.667 153.916 190.462 153.328C190.261 152.735 189.962 152.266 189.566 151.921C189.174 151.575 188.693 151.403 188.124 151.403C187.676 151.403 187.284 151.508 186.948 151.718C186.616 151.928 186.341 152.215 186.122 152.579C185.902 152.943 185.737 153.36 185.625 153.832C185.517 154.298 185.464 154.791 185.464 155.309C185.464 156.004 185.564 156.65 185.765 157.248C185.965 157.84 186.262 158.316 186.654 158.676C187.05 159.035 187.54 159.215 188.124 159.215Z" fill="#535662"/>
<path d="M207.298 161.943C206.446 161.943 205.645 161.775 204.895 161.439C204.145 161.097 203.485 160.629 202.915 160.035C202.351 159.435 201.907 158.739 201.583 157.947C201.265 157.155 201.106 156.309 201.106 155.409C201.106 154.509 201.265 153.663 201.583 152.871C201.907 152.079 202.351 151.386 202.915 150.792C203.485 150.192 204.145 149.724 204.895 149.388C205.645 149.046 206.446 148.875 207.298 148.875C208.318 148.875 209.257 149.112 210.115 149.586C210.973 150.06 211.684 150.69 212.248 151.476L210.907 152.196C210.487 151.644 209.956 151.206 209.314 150.882C208.678 150.552 208.006 150.387 207.298 150.387C206.644 150.387 206.032 150.519 205.462 150.783C204.898 151.047 204.403 151.41 203.977 151.872C203.551 152.334 203.218 152.868 202.978 153.474C202.738 154.08 202.618 154.725 202.618 155.409C202.618 156.099 202.738 156.747 202.978 157.353C203.224 157.959 203.56 158.493 203.986 158.955C204.418 159.417 204.916 159.78 205.48 160.044C206.05 160.302 206.656 160.431 207.298 160.431C208.03 160.431 208.708 160.266 209.332 159.936C209.962 159.6 210.487 159.162 210.907 158.622L212.248 159.351C211.684 160.137 210.973 160.767 210.115 161.241C209.257 161.709 208.318 161.943 207.298 161.943ZM220.795 152.709H222.307V161.709H220.795L220.732 160.188C220.45 160.71 220.06 161.133 219.562 161.457C219.07 161.781 218.482 161.943 217.798 161.943C217.138 161.943 216.52 161.82 215.944 161.574C215.368 161.322 214.858 160.977 214.414 160.539C213.976 160.095 213.634 159.585 213.388 159.009C213.142 158.433 213.019 157.812 213.019 157.146C213.019 156.504 213.139 155.898 213.379 155.328C213.619 154.758 213.952 154.26 214.378 153.834C214.81 153.402 215.308 153.066 215.872 152.826C216.436 152.58 217.042 152.457 217.69 152.457C218.398 152.457 219.019 152.625 219.553 152.961C220.087 153.291 220.519 153.72 220.849 154.248L220.795 152.709ZM217.771 160.476C218.365 160.476 218.878 160.332 219.31 160.044C219.748 159.75 220.084 159.354 220.318 158.856C220.558 158.358 220.678 157.809 220.678 157.209C220.678 156.597 220.558 156.045 220.318 155.553C220.078 155.055 219.739 154.662 219.301 154.374C218.869 154.08 218.359 153.933 217.771 153.933C217.177 153.933 216.637 154.08 216.151 154.374C215.665 154.668 215.278 155.064 214.99 155.562C214.708 156.054 214.567 156.603 214.567 157.209C214.567 157.815 214.714 158.367 215.008 158.865C215.302 159.357 215.692 159.75 216.178 160.044C216.664 160.332 217.195 160.476 217.771 160.476ZM224.212 161.709V148.209H225.724V161.709H224.212ZM227.886 161.709V148.209H229.398V161.709H227.886ZM234.304 161.88C233.818 161.862 233.344 161.772 232.882 161.61C232.426 161.442 232.024 161.217 231.676 160.935C231.334 160.647 231.085 160.317 230.929 159.945L232.225 159.387C232.315 159.591 232.477 159.783 232.711 159.963C232.945 160.143 233.215 160.287 233.521 160.395C233.827 160.503 234.136 160.557 234.448 160.557C234.778 160.557 235.087 160.506 235.375 160.404C235.663 160.302 235.897 160.152 236.077 159.954C236.263 159.75 236.356 159.507 236.356 159.225C236.356 158.925 236.254 158.691 236.05 158.523C235.852 158.349 235.6 158.214 235.294 158.118C234.994 158.016 234.688 157.92 234.376 157.83C233.758 157.674 233.206 157.488 232.72 157.272C232.234 157.05 231.85 156.771 231.568 156.435C231.292 156.093 231.154 155.658 231.154 155.13C231.154 154.572 231.307 154.089 231.613 153.681C231.925 153.273 232.333 152.958 232.837 152.736C233.341 152.514 233.881 152.403 234.457 152.403C235.183 152.403 235.846 152.559 236.446 152.871C237.046 153.183 237.493 153.606 237.787 154.14L236.572 154.851C236.47 154.635 236.314 154.446 236.104 154.284C235.894 154.116 235.654 153.984 235.384 153.888C235.114 153.792 234.838 153.741 234.556 153.735C234.208 153.723 233.881 153.768 233.575 153.87C233.275 153.972 233.032 154.128 232.846 154.338C232.666 154.542 232.576 154.797 232.576 155.103C232.576 155.403 232.672 155.631 232.864 155.787C233.062 155.943 233.317 156.069 233.629 156.165C233.947 156.255 234.292 156.36 234.664 156.48C235.21 156.654 235.72 156.855 236.194 157.083C236.668 157.311 237.049 157.596 237.337 157.938C237.631 158.28 237.775 158.703 237.769 159.207C237.769 159.759 237.604 160.242 237.274 160.656C236.944 161.064 236.515 161.376 235.987 161.592C235.465 161.808 234.904 161.904 234.304 161.88Z" fill="#0C1021"/>
</g>
<defs>
<filter id="filter0_d_2178_5703" x="-3.05176e-05" y="0" width="463.772" height="238.772" filterUnits="userSpaceOnUse" color-interpolation-filters="sRGB">
<feFlood flood-opacity="0" result="BackgroundImageFix"/>
<feColorMatrix in="SourceAlpha" type="matrix" values="0 0 0 0 0 0 0 0 0 0 0 0 0 0 0 0 0 0 127 0" result="hardAlpha"/>
<feOffset dy="3.67715"/>
<feGaussianBlur stdDeviation="9.19289"/>
<feComposite in2="hardAlpha" operator="out"/>
<feColorMatrix type="matrix" values="0 0 0 0 0.0468057 0 0 0 0 0.0634939 0 0 0 0 0.129808 0 0 0 0.1 0"/>
<feBlend mode="normal" in2="BackgroundImageFix" result="effect1_dropShadow_2178_5703"/>
<feBlend mode="normal" in="SourceGraphic" in2="effect1_dropShadow_2178_5703" result="shape"/>
</filter>
</defs>
</svg>
