<svg width="464" height="310" viewBox="0 0 464 310" fill="none" xmlns="http://www.w3.org/2000/svg">
<g filter="url(#filter0_d_2178_65)">
<rect x="18.3857" y="14.7085" width="427" height="273" rx="22.0629" fill="white" shape-rendering="crispEdges"/>
<rect x="18.8454" y="15.1681" width="426.081" height="272.081" rx="21.6033" stroke="#0C1021" stroke-opacity="0.05" stroke-width="0.919289" shape-rendering="crispEdges"/>
<path d="M49.4537 46.9085H52.3697L58.4777 63.7085H55.8377L54.6737 60.5165H47.1497L45.9977 63.7085H43.3457L49.4537 46.9085ZM48.0737 58.0205H53.7497L50.9057 50.2205L48.0737 58.0205ZM60.9436 63.7085V46.9085H63.4396V63.7085H60.9436ZM81.7789 51.7085H84.2749V63.7085H81.7669L81.6709 61.9685C81.3189 62.5845 80.8429 63.0805 80.2429 63.4565C79.6429 63.8325 78.9349 64.0205 78.1189 64.0205C77.2389 64.0205 76.4109 63.8565 75.6349 63.5285C74.8589 63.1925 74.1749 62.7285 73.5829 62.1365C72.9989 61.5445 72.5429 60.8645 72.2149 60.0965C71.8869 59.3205 71.7229 58.4885 71.7229 57.6005C71.7229 56.7445 71.8829 55.9405 72.2029 55.1885C72.5229 54.4285 72.9669 53.7645 73.5349 53.1965C74.1029 52.6285 74.7589 52.1845 75.5029 51.8645C76.2549 51.5365 77.0589 51.3725 77.9149 51.3725C78.7869 51.3725 79.5549 51.5725 80.2189 51.9725C80.8909 52.3645 81.4469 52.8685 81.8869 53.4845L81.7789 51.7085ZM78.0589 61.6085C78.7629 61.6085 79.3789 61.4365 79.9069 61.0925C80.4349 60.7405 80.8429 60.2685 81.1309 59.6765C81.4269 59.0845 81.5749 58.4285 81.5749 57.7085C81.5749 56.9805 81.4269 56.3205 81.1309 55.7285C80.8349 55.1365 80.4229 54.6685 79.8949 54.3245C79.3749 53.9725 78.7629 53.7965 78.0589 53.7965C77.3629 53.7965 76.7269 53.9725 76.1509 54.3245C75.5749 54.6765 75.1189 55.1485 74.7829 55.7405C74.4469 56.3325 74.2789 56.9885 74.2789 57.7085C74.2789 58.4365 74.4509 59.0965 74.7949 59.6885C75.1469 60.2725 75.6069 60.7405 76.1749 61.0925C76.7509 61.4365 77.3789 61.6085 78.0589 61.6085ZM95.5671 51.7085H98.0631V64.0205C98.0631 64.8445 97.8871 65.6045 97.5351 66.3005C97.1911 66.9965 96.7231 67.5965 96.1311 68.1005C95.5391 68.6125 94.8591 69.0085 94.0911 69.2885C93.3311 69.5685 92.5351 69.7085 91.7031 69.7085C90.8631 69.7085 90.0551 69.5285 89.2791 69.1685C88.5031 68.8165 87.8191 68.3365 87.2271 67.7285C86.6431 67.1205 86.2071 66.4325 85.9191 65.6645L88.2111 64.6325C88.3711 65.1285 88.6271 65.5685 88.9791 65.9525C89.3391 66.3365 89.7551 66.6405 90.2271 66.8645C90.7071 67.0885 91.1991 67.2005 91.7031 67.2005C92.1991 67.2005 92.6751 67.1205 93.1311 66.9605C93.5951 66.8085 94.0071 66.5925 94.3671 66.3125C94.7351 66.0325 95.0271 65.6965 95.2431 65.3045C95.4591 64.9125 95.5671 64.4845 95.5671 64.0205V61.9925C95.1751 62.6005 94.6711 63.0925 94.0551 63.4685C93.4391 63.8365 92.7231 64.0205 91.9071 64.0205C91.0591 64.0205 90.2591 63.8565 89.5071 63.5285C88.7551 63.2005 88.0951 62.7485 87.5271 62.1725C86.9591 61.5885 86.5151 60.9165 86.1951 60.1565C85.8751 59.3965 85.7151 58.5805 85.7151 57.7085C85.7151 56.8365 85.8751 56.0205 86.1951 55.2605C86.5151 54.4925 86.9591 53.8205 87.5271 53.2445C88.0951 52.6605 88.7551 52.2045 89.5071 51.8765C90.2591 51.5485 91.0591 51.3845 91.9071 51.3845C92.7231 51.3845 93.4391 51.5725 94.0551 51.9485C94.6711 52.3165 95.1751 52.8085 95.5671 53.4245V51.7085ZM91.9311 61.6085C92.6271 61.6085 93.2351 61.4325 93.7551 61.0805C94.2751 60.7205 94.6791 60.2445 94.9671 59.6525C95.2551 59.0605 95.3991 58.4125 95.3991 57.7085C95.3991 56.9885 95.2511 56.3365 94.9551 55.7525C94.6671 55.1605 94.2631 54.6885 93.7431 54.3365C93.2231 53.9765 92.6191 53.7965 91.9311 53.7965C91.2591 53.7965 90.6431 53.9725 90.0831 54.3245C89.5311 54.6765 89.0911 55.1485 88.7631 55.7405C88.4351 56.3325 88.2711 56.9885 88.2711 57.7085C88.2711 58.4285 88.4351 59.0845 88.7631 59.6765C89.0991 60.2685 89.5431 60.7405 90.0951 61.0925C90.6551 61.4365 91.2671 61.6085 91.9311 61.6085ZM106.012 64.0205C104.908 64.0205 103.9 63.7365 102.988 63.1685C102.084 62.6005 101.36 61.8405 100.816 60.8885C100.28 59.9285 100.012 58.8685 100.012 57.7085C100.012 56.8285 100.168 56.0085 100.48 55.2485C100.792 54.4805 101.22 53.8085 101.764 53.2325C102.316 52.6485 102.956 52.1925 103.684 51.8645C104.412 51.5365 105.188 51.3725 106.012 51.3725C106.932 51.3725 107.776 51.5645 108.544 51.9485C109.312 52.3245 109.968 52.8485 110.512 53.5205C111.056 54.1845 111.456 54.9525 111.712 55.8245C111.968 56.6885 112.044 57.6085 111.94 58.5845H102.688C102.792 59.1365 102.992 59.6365 103.288 60.0845C103.592 60.5245 103.976 60.8725 104.44 61.1285C104.912 61.3845 105.436 61.5165 106.012 61.5245C106.62 61.5245 107.172 61.3725 107.668 61.0685C108.172 60.7645 108.584 60.3445 108.904 59.8085L111.436 60.3965C110.956 61.4605 110.232 62.3325 109.264 63.0125C108.296 63.6845 107.212 64.0205 106.012 64.0205ZM102.604 56.6765H109.42C109.34 56.1005 109.136 55.5805 108.808 55.1165C108.488 54.6445 108.084 54.2725 107.596 54.0005C107.116 53.7205 106.588 53.5805 106.012 53.5805C105.444 53.5805 104.916 53.7165 104.428 53.9885C103.948 54.2605 103.548 54.6325 103.228 55.1045C102.916 55.5685 102.708 56.0925 102.604 56.6765ZM124.727 56.1845V63.7085H122.231V56.7965C122.231 56.2605 122.099 55.7725 121.835 55.3325C121.579 54.8925 121.231 54.5445 120.791 54.2885C120.359 54.0245 119.871 53.8925 119.327 53.8925C118.799 53.8925 118.315 54.0245 117.875 54.2885C117.435 54.5445 117.083 54.8925 116.819 55.3325C116.555 55.7725 116.423 56.2605 116.423 56.7965V63.7085H113.927V51.7085H116.423V52.9805C116.839 52.4845 117.351 52.0925 117.959 51.8045C118.567 51.5165 119.223 51.3725 119.927 51.3725C120.815 51.3725 121.623 51.5885 122.351 52.0205C123.079 52.4525 123.655 53.0325 124.079 53.7605C124.511 54.4885 124.727 55.2965 124.727 56.1845ZM133.459 54.2045H130.939L130.927 63.7085H128.431L128.443 54.2045H126.535V51.7085H128.443L128.431 47.9405H130.927L130.939 51.7085H133.459V54.2045Z" fill="#0C1021"/>
<rect x="300.386" y="38.7085" width="121" height="33" rx="16" fill="#3DEC82" fill-opacity="0.15"/>
<path d="M313.226 59.7085V49.9085H316.362C316.884 49.9085 317.356 50.0368 317.776 50.2935C318.196 50.5455 318.529 50.8885 318.777 51.3225C319.029 51.7518 319.155 52.2348 319.155 52.7715C319.155 53.3128 319.026 53.8005 318.77 54.2345C318.518 54.6685 318.179 55.0115 317.755 55.2635C317.335 55.5155 316.87 55.6415 316.362 55.6415H314.206V59.7085H313.226ZM314.206 54.6615H316.285C316.63 54.6615 316.945 54.5775 317.23 54.4095C317.519 54.2368 317.748 54.0058 317.916 53.7165C318.088 53.4225 318.175 53.0912 318.175 52.7225C318.175 52.3538 318.088 52.0248 317.916 51.7355C317.748 51.4415 317.519 51.2105 317.23 51.0425C316.945 50.8698 316.63 50.7835 316.285 50.7835H314.206V54.6615ZM320.581 59.7085V49.2085H321.561V59.7085H320.581ZM328.947 52.7085H329.927V59.7085H328.947L328.912 58.4065C328.683 58.8498 328.363 59.2092 327.953 59.4845C327.542 59.7552 327.052 59.8905 326.483 59.8905C325.969 59.8905 325.489 59.7948 325.041 59.6035C324.593 59.4075 324.198 59.1392 323.858 58.7985C323.517 58.4578 323.251 58.0635 323.06 57.6155C322.868 57.1675 322.773 56.6868 322.773 56.1735C322.773 55.6695 322.866 55.1958 323.053 54.7525C323.244 54.3092 323.505 53.9195 323.837 53.5835C324.173 53.2475 324.56 52.9862 324.999 52.7995C325.442 52.6082 325.916 52.5125 326.42 52.5125C327.003 52.5125 327.512 52.6525 327.946 52.9325C328.38 53.2078 328.725 53.5695 328.982 54.0175L328.947 52.7085ZM326.462 58.9385C326.961 58.9385 327.39 58.8172 327.75 58.5745C328.109 58.3272 328.384 57.9958 328.576 57.5805C328.772 57.1652 328.87 56.7078 328.87 56.2085C328.87 55.6952 328.772 55.2332 328.576 54.8225C328.38 54.4072 328.102 54.0782 327.743 53.8355C327.383 53.5928 326.956 53.4715 326.462 53.4715C325.967 53.4715 325.514 53.5952 325.104 53.8425C324.698 54.0852 324.373 54.4142 324.131 54.8295C323.893 55.2448 323.774 55.7045 323.774 56.2085C323.774 56.7172 323.897 57.1792 324.145 57.5945C324.392 58.0052 324.719 58.3318 325.125 58.5745C325.535 58.8172 325.981 58.9385 326.462 58.9385ZM335.958 52.7085H336.994L333.165 63.2085H332.122L333.396 59.7085L330.883 52.7085H331.954L333.886 58.3575L335.958 52.7085ZM341.608 52.5125C342.289 52.5125 342.908 52.6782 343.463 53.0095C344.023 53.3408 344.469 53.7865 344.8 54.3465C345.131 54.9018 345.297 55.5202 345.297 56.2015C345.297 56.7102 345.201 57.1885 345.01 57.6365C344.819 58.0798 344.553 58.4718 344.212 58.8125C343.876 59.1485 343.484 59.4122 343.036 59.6035C342.593 59.7948 342.117 59.8905 341.608 59.8905C341.029 59.8905 340.53 59.7528 340.11 59.4775C339.69 59.2022 339.359 58.8428 339.116 58.3995V59.7085H338.136V49.2085H339.116V54.0035C339.359 53.5602 339.69 53.2008 340.11 52.9255C340.53 52.6502 341.029 52.5125 341.608 52.5125ZM341.601 58.9315C342.1 58.9315 342.553 58.8102 342.959 58.5675C343.365 58.3202 343.689 57.9888 343.932 57.5735C344.175 57.1582 344.296 56.7008 344.296 56.2015C344.296 55.6882 344.172 55.2262 343.925 54.8155C343.678 54.4002 343.349 54.0712 342.938 53.8285C342.532 53.5858 342.086 53.4645 341.601 53.4645C341.106 53.4645 340.677 53.5882 340.313 53.8355C339.954 54.0828 339.676 54.4142 339.48 54.8295C339.289 55.2448 339.193 55.7022 339.193 56.2015C339.193 56.7102 339.291 57.1722 339.487 57.5875C339.683 57.9982 339.961 58.3248 340.32 58.5675C340.684 58.8102 341.111 58.9315 341.601 58.9315ZM349.501 59.8905C348.857 59.8905 348.269 59.7248 347.737 59.3935C347.21 59.0622 346.787 58.6188 346.47 58.0635C346.157 57.5035 346.001 56.8852 346.001 56.2085C346.001 55.6952 346.092 55.2168 346.274 54.7735C346.456 54.3255 346.706 53.9335 347.023 53.5975C347.345 53.2568 347.718 52.9908 348.143 52.7995C348.568 52.6082 349.02 52.5125 349.501 52.5125C350.145 52.5125 350.731 52.6782 351.258 53.0095C351.79 53.3408 352.212 53.7865 352.525 54.3465C352.842 54.9065 353.001 55.5272 353.001 56.2085C353.001 56.7172 352.91 57.1932 352.728 57.6365C352.546 58.0798 352.294 58.4718 351.972 58.8125C351.655 59.1485 351.284 59.4122 350.859 59.6035C350.439 59.7948 349.986 59.8905 349.501 59.8905ZM349.501 58.9105C349.977 58.9105 350.404 58.7868 350.782 58.5395C351.165 58.2875 351.466 57.9562 351.685 57.5455C351.909 57.1348 352.021 56.6892 352.021 56.2085C352.021 55.7185 351.909 55.2682 351.685 54.8575C351.461 54.4422 351.158 54.1108 350.775 53.8635C350.397 53.6162 349.972 53.4925 349.501 53.4925C349.025 53.4925 348.596 53.6185 348.213 53.8705C347.835 54.1178 347.534 54.4468 347.31 54.8575C347.091 55.2682 346.981 55.7185 346.981 56.2085C346.981 56.7125 347.095 57.1698 347.324 57.5805C347.553 57.9865 347.858 58.3108 348.241 58.5535C348.624 58.7915 349.044 58.9105 349.501 58.9105ZM357.198 59.8905C356.554 59.8905 355.966 59.7248 355.434 59.3935C354.907 59.0622 354.485 58.6188 354.167 58.0635C353.855 57.5035 353.698 56.8852 353.698 56.2085C353.698 55.6952 353.789 55.2168 353.971 54.7735C354.153 54.3255 354.403 53.9335 354.72 53.5975C355.042 53.2568 355.416 52.9908 355.84 52.7995C356.265 52.6082 356.718 52.5125 357.198 52.5125C357.842 52.5125 358.428 52.6782 358.955 53.0095C359.487 53.3408 359.91 53.7865 360.222 54.3465C360.54 54.9065 360.698 55.5272 360.698 56.2085C360.698 56.7172 360.607 57.1932 360.425 57.6365C360.243 58.0798 359.991 58.4718 359.669 58.8125C359.352 59.1485 358.981 59.4122 358.556 59.6035C358.136 59.7948 357.684 59.8905 357.198 59.8905ZM357.198 58.9105C357.674 58.9105 358.101 58.7868 358.479 58.5395C358.862 58.2875 359.163 57.9562 359.382 57.5455C359.606 57.1348 359.718 56.6892 359.718 56.2085C359.718 55.7185 359.606 55.2682 359.382 54.8575C359.158 54.4422 358.855 54.1108 358.472 53.8635C358.094 53.6162 357.67 53.4925 357.198 53.4925C356.722 53.4925 356.293 53.6185 355.91 53.8705C355.532 54.1178 355.231 54.4468 355.007 54.8575C354.788 55.2682 354.678 55.7185 354.678 56.2085C354.678 56.7125 354.793 57.1698 355.021 57.5805C355.25 57.9865 355.556 58.3108 355.938 58.5535C356.321 58.7915 356.741 58.9105 357.198 58.9105ZM367.296 59.7085H366.169L364.209 56.3275L362.809 58.0005V59.7085H361.829V49.2085H362.809V56.4745L365.966 52.7085H367.247L364.874 55.5295L367.296 59.7085ZM375.352 49.9085H376.57L380.14 59.7085H379.097L378.334 57.6085H373.595L372.832 59.7085H371.789L375.352 49.9085ZM373.952 56.6285H377.97L375.961 51.1125L373.952 56.6285ZM385.845 57.9515L386.72 58.4275C386.403 58.8708 385.999 59.2255 385.509 59.4915C385.024 59.7575 384.496 59.8905 383.927 59.8905C383.283 59.8905 382.695 59.7248 382.163 59.3935C381.636 59.0622 381.213 58.6188 380.896 58.0635C380.583 57.5035 380.427 56.8852 380.427 56.2085C380.427 55.6952 380.518 55.2168 380.7 54.7735C380.882 54.3255 381.132 53.9335 381.449 53.5975C381.771 53.2568 382.144 52.9908 382.569 52.7995C382.994 52.6082 383.446 52.5125 383.927 52.5125C384.496 52.5125 385.024 52.6455 385.509 52.9115C385.999 53.1775 386.403 53.5345 386.72 53.9825L385.845 54.4515C385.602 54.1435 385.311 53.9078 384.97 53.7445C384.629 53.5765 384.282 53.4925 383.927 53.4925C383.456 53.4925 383.029 53.6185 382.646 53.8705C382.263 54.1178 381.96 54.4468 381.736 54.8575C381.517 55.2682 381.407 55.7185 381.407 56.2085C381.407 56.6985 381.519 57.1488 381.743 57.5595C381.972 57.9702 382.277 58.2992 382.66 58.5465C383.043 58.7892 383.465 58.9105 383.927 58.9105C384.31 58.9105 384.669 58.8218 385.005 58.6445C385.341 58.4672 385.621 58.2362 385.845 57.9515ZM391.561 53.6885H389.888L389.881 59.7085H388.901L388.908 53.6885H387.641V52.7085H388.908L388.901 50.5105H389.881L389.888 52.7085H391.561V53.6885ZM392.755 52.7085H393.735V59.7085H392.755V52.7085ZM393.252 51.4835C393.093 51.4835 392.958 51.4322 392.846 51.3295C392.739 51.2222 392.685 51.0892 392.685 50.9305C392.685 50.7718 392.739 50.6412 392.846 50.5385C392.958 50.4312 393.093 50.3775 393.252 50.3775C393.406 50.3775 393.537 50.4312 393.644 50.5385C393.756 50.6412 393.812 50.7718 393.812 50.9305C393.812 51.0892 393.758 51.2222 393.651 51.3295C393.544 51.4322 393.411 51.4835 393.252 51.4835ZM398.706 59.7085H397.46L394.905 52.6875H395.948L398.083 58.5605L400.218 52.6875H401.261L398.706 59.7085ZM405.228 59.8905C404.584 59.8905 403.996 59.7248 403.464 59.3935C402.936 59.0622 402.514 58.6188 402.197 58.0635C401.884 57.5035 401.728 56.8852 401.728 56.2085C401.728 55.6952 401.819 55.2168 402.001 54.7735C402.183 54.3255 402.432 53.9335 402.75 53.5975C403.072 53.2568 403.445 52.9908 403.87 52.7995C404.294 52.6082 404.747 52.5125 405.228 52.5125C405.746 52.5125 406.222 52.6152 406.656 52.8205C407.094 53.0258 407.47 53.3128 407.783 53.6815C408.1 54.0502 408.338 54.4818 408.497 54.9765C408.66 55.4712 408.728 56.0055 408.7 56.5795H402.764C402.82 57.0228 402.96 57.4195 403.184 57.7695C403.412 58.1195 403.702 58.3972 404.052 58.6025C404.406 58.8032 404.798 58.9058 405.228 58.9105C405.694 58.9105 406.114 58.7892 406.488 58.5465C406.866 58.3038 407.169 57.9702 407.398 57.5455L408.392 57.7765C408.112 58.3972 407.689 58.9058 407.125 59.3025C406.56 59.6945 405.928 59.8905 405.228 59.8905ZM402.736 55.7885H407.713C407.68 55.3545 407.547 54.9578 407.314 54.5985C407.085 54.2345 406.789 53.9452 406.425 53.7305C406.061 53.5112 405.662 53.4015 405.228 53.4015C404.794 53.4015 404.397 53.5088 404.038 53.7235C403.678 53.9335 403.384 54.2205 403.156 54.5845C402.927 54.9438 402.787 55.3452 402.736 55.7885Z" fill="#28BC62"/>
<rect x="42.3857" y="95.7085" width="24" height="24" rx="12" fill="#4268FF"/>
<path d="M54.1432 112.208V103.388H53.0932L53.3732 102.408H55.1232V112.208H54.1432Z" fill="white"/>
<rect x="53.8857" y="119.708" width="1" height="12" fill="#4268FF"/>
<path d="M78.5377 112.916C77.7591 112.916 77.0337 112.767 76.3617 112.468C75.6951 112.164 75.1111 111.746 74.6097 111.212C74.1137 110.674 73.7244 110.052 73.4417 109.348C73.1644 108.644 73.0257 107.895 73.0257 107.1C73.0257 106.263 73.1751 105.492 73.4737 104.788C73.7724 104.084 74.1804 103.474 74.6977 102.956C75.2151 102.434 75.8044 102.028 76.4657 101.74C77.1324 101.452 77.8311 101.308 78.5617 101.308C79.3884 101.308 80.1831 101.5 80.9457 101.884C81.7084 102.268 82.3724 102.844 82.9377 103.612L81.4497 104.42C81.0657 103.94 80.6177 103.578 80.1057 103.332C79.5991 103.087 79.0791 102.964 78.5457 102.964C78.0284 102.964 77.5377 103.071 77.0737 103.284C76.6097 103.492 76.1991 103.786 75.8417 104.164C75.4844 104.538 75.2017 104.978 74.9937 105.484C74.7911 105.986 74.6897 106.532 74.6897 107.124C74.6897 107.695 74.7884 108.231 74.9857 108.732C75.1884 109.234 75.4657 109.674 75.8177 110.052C76.1751 110.426 76.5857 110.719 77.0497 110.932C77.5191 111.146 78.0204 111.252 78.5537 111.252C78.9484 111.252 79.3271 111.188 79.6897 111.06C80.0524 110.932 80.3884 110.751 80.6977 110.516C81.0124 110.276 81.2871 109.991 81.5217 109.66C81.7564 109.33 81.9431 108.962 82.0817 108.556H79.7057V107.084H84.0337C84.0444 107.884 83.9057 108.636 83.6177 109.34C83.3351 110.044 82.9404 110.666 82.4337 111.204C81.9324 111.738 81.3484 112.156 80.6817 112.46C80.0151 112.764 79.3004 112.916 78.5377 112.916ZM85.5645 112.708V104.708H87.2285V105.556C87.5058 105.226 87.8472 104.964 88.2525 104.772C88.6578 104.58 89.0952 104.484 89.5645 104.484C89.8632 104.484 90.1592 104.524 90.4525 104.604L89.7885 106.284C89.5805 106.204 89.3725 106.164 89.1645 106.164C88.8125 106.164 88.4898 106.252 88.1965 106.428C87.9032 106.599 87.6685 106.831 87.4925 107.124C87.3165 107.418 87.2285 107.743 87.2285 108.1V112.708H85.5645ZM94.522 112.916C93.786 112.916 93.114 112.727 92.506 112.348C91.9033 111.97 91.4207 111.463 91.058 110.828C90.7007 110.188 90.522 109.482 90.522 108.708C90.522 108.122 90.626 107.575 90.834 107.068C91.042 106.556 91.3273 106.108 91.69 105.724C92.058 105.335 92.4847 105.031 92.97 104.812C93.4553 104.594 93.9727 104.484 94.522 104.484C95.1353 104.484 95.698 104.612 96.21 104.868C96.722 105.119 97.1593 105.468 97.522 105.916C97.8847 106.359 98.1513 106.871 98.322 107.452C98.4927 108.028 98.5433 108.642 98.474 109.292H92.306C92.3753 109.66 92.5087 109.994 92.706 110.292C92.9087 110.586 93.1647 110.818 93.474 110.988C93.7887 111.159 94.138 111.247 94.522 111.252C94.9273 111.252 95.2953 111.151 95.626 110.948C95.962 110.746 96.2367 110.466 96.45 110.108L98.138 110.5C97.818 111.21 97.3353 111.791 96.69 112.244C96.0447 112.692 95.322 112.916 94.522 112.916ZM92.25 108.02H96.794C96.7407 107.636 96.6047 107.29 96.386 106.98C96.1727 106.666 95.9033 106.418 95.578 106.236C95.258 106.05 94.906 105.956 94.522 105.956C94.1433 105.956 93.7913 106.047 93.466 106.228C93.146 106.41 92.8793 106.658 92.666 106.972C92.458 107.282 92.3193 107.631 92.25 108.02ZM103.303 112.916C102.567 112.916 101.895 112.727 101.287 112.348C100.685 111.97 100.202 111.463 99.8392 110.828C99.4819 110.188 99.3032 109.482 99.3032 108.708C99.3032 108.122 99.4072 107.575 99.6152 107.068C99.8232 106.556 100.109 106.108 100.471 105.724C100.839 105.335 101.266 105.031 101.751 104.812C102.237 104.594 102.754 104.484 103.303 104.484C103.917 104.484 104.479 104.612 104.991 104.868C105.503 105.119 105.941 105.468 106.303 105.916C106.666 106.359 106.933 106.871 107.103 107.452C107.274 108.028 107.325 108.642 107.255 109.292H101.087C101.157 109.66 101.29 109.994 101.487 110.292C101.69 110.586 101.946 110.818 102.255 110.988C102.57 111.159 102.919 111.247 103.303 111.252C103.709 111.252 104.077 111.151 104.407 110.948C104.743 110.746 105.018 110.466 105.231 110.108L106.919 110.5C106.599 111.21 106.117 111.791 105.471 112.244C104.826 112.692 104.103 112.916 103.303 112.916ZM101.031 108.02H105.575C105.522 107.636 105.386 107.29 105.167 106.98C104.954 106.666 104.685 106.418 104.359 106.236C104.039 106.05 103.687 105.956 103.303 105.956C102.925 105.956 102.573 106.047 102.247 106.228C101.927 106.41 101.661 106.658 101.447 106.972C101.239 107.282 101.101 107.631 101.031 108.02ZM112.757 106.372H111.077L111.069 112.708H109.405L109.413 106.372H108.141V104.708H109.413L109.405 102.196H111.069L111.077 104.708H112.757V106.372ZM114.08 104.708H115.744V112.708H114.08V104.708ZM114.928 103.548C114.672 103.548 114.459 103.466 114.288 103.3C114.117 103.135 114.032 102.927 114.032 102.676C114.032 102.431 114.117 102.226 114.288 102.06C114.459 101.89 114.669 101.804 114.92 101.804C115.165 101.804 115.373 101.89 115.544 102.06C115.715 102.226 115.8 102.431 115.8 102.676C115.8 102.927 115.715 103.135 115.544 103.3C115.379 103.466 115.173 103.548 114.928 103.548ZM124.796 107.692V112.708H123.132V108.1C123.132 107.743 123.044 107.418 122.868 107.124C122.697 106.831 122.465 106.599 122.172 106.428C121.884 106.252 121.558 106.164 121.196 106.164C120.844 106.164 120.521 106.252 120.228 106.428C119.934 106.599 119.7 106.831 119.524 107.124C119.348 107.418 119.26 107.743 119.26 108.1V112.708H117.596V104.708H119.26V105.556C119.537 105.226 119.878 104.964 120.284 104.772C120.689 104.58 121.126 104.484 121.596 104.484C122.188 104.484 122.726 104.628 123.212 104.916C123.697 105.204 124.081 105.591 124.364 106.076C124.652 106.562 124.796 107.1 124.796 107.692ZM132.324 104.708H133.988V112.916C133.988 113.466 133.871 113.972 133.636 114.436C133.407 114.9 133.095 115.3 132.7 115.636C132.306 115.978 131.852 116.242 131.34 116.428C130.834 116.615 130.303 116.708 129.748 116.708C129.188 116.708 128.65 116.588 128.132 116.348C127.615 116.114 127.159 115.794 126.764 115.388C126.375 114.983 126.084 114.524 125.892 114.012L127.42 113.324C127.527 113.655 127.698 113.948 127.932 114.204C128.172 114.46 128.45 114.663 128.764 114.812C129.084 114.962 129.412 115.036 129.748 115.036C130.079 115.036 130.396 114.983 130.7 114.876C131.01 114.775 131.284 114.631 131.524 114.444C131.77 114.258 131.964 114.034 132.108 113.772C132.252 113.511 132.324 113.226 132.324 112.916V111.564C132.063 111.97 131.727 112.298 131.316 112.548C130.906 112.794 130.428 112.916 129.884 112.916C129.319 112.916 128.786 112.807 128.284 112.588C127.783 112.37 127.343 112.068 126.964 111.684C126.586 111.295 126.29 110.847 126.076 110.34C125.863 109.834 125.756 109.29 125.756 108.708C125.756 108.127 125.863 107.583 126.076 107.076C126.29 106.564 126.586 106.116 126.964 105.732C127.343 105.343 127.783 105.039 128.284 104.82C128.786 104.602 129.319 104.492 129.884 104.492C130.428 104.492 130.906 104.618 131.316 104.868C131.727 105.114 132.063 105.442 132.324 105.852V104.708ZM129.9 111.308C130.364 111.308 130.77 111.191 131.116 110.956C131.463 110.716 131.732 110.399 131.924 110.004C132.116 109.61 132.212 109.178 132.212 108.708C132.212 108.228 132.114 107.794 131.916 107.404C131.724 107.01 131.455 106.695 131.108 106.46C130.762 106.22 130.359 106.1 129.9 106.1C129.452 106.1 129.042 106.218 128.668 106.452C128.3 106.687 128.007 107.002 127.788 107.396C127.57 107.791 127.46 108.228 127.46 108.708C127.46 109.188 127.57 109.626 127.788 110.02C128.012 110.415 128.308 110.73 128.676 110.964C129.05 111.194 129.458 111.308 129.9 111.308Z" fill="#0C1021"/>
<rect x="42.8857" y="132.208" width="23" height="23" rx="11.5" stroke="#4268FF"/>
<path d="M51.1313 148.208V147.34C51.514 146.986 51.934 146.598 52.3913 146.178C52.8486 145.754 53.3013 145.317 53.7493 144.869C54.202 144.417 54.615 143.971 54.9883 143.532C55.3616 143.089 55.6603 142.671 55.8843 142.279C56.113 141.883 56.2273 141.533 56.2273 141.229C56.2273 140.861 56.1363 140.525 55.9543 140.221C55.777 139.913 55.5366 139.668 55.2333 139.486C54.9346 139.3 54.601 139.206 54.2323 139.206C53.8636 139.206 53.5253 139.3 53.2173 139.486C52.914 139.668 52.6713 139.913 52.4893 140.221C52.3073 140.525 52.2163 140.861 52.2163 141.229H51.2363C51.2363 140.669 51.3716 140.163 51.6423 139.71C51.9176 139.258 52.2816 138.898 52.7343 138.632C53.187 138.362 53.6863 138.226 54.2323 138.226C54.7783 138.226 55.2753 138.362 55.7233 138.632C56.176 138.903 56.5353 139.265 56.8013 139.717C57.072 140.17 57.2073 140.674 57.2073 141.229C57.2073 141.561 57.1186 141.925 56.9413 142.321C56.7686 142.713 56.533 143.122 56.2343 143.546C55.9356 143.966 55.5996 144.391 55.2263 144.82C54.853 145.25 54.4633 145.67 54.0573 146.08C53.6513 146.486 53.257 146.869 52.8743 147.228H57.3543V148.208H51.1313Z" fill="#535662"/>
<rect x="53.8857" y="155.708" width="1" height="12" fill="#D9D9D9"/>
<path d="M83.3617 148.9L82.0257 147.564C81.5564 147.98 81.0231 148.306 80.4257 148.54C79.8337 148.775 79.2071 148.892 78.5457 148.892C77.7831 148.892 77.0684 148.743 76.4017 148.444C75.7351 148.14 75.1484 147.724 74.6417 147.196C74.1351 146.663 73.7377 146.044 73.4497 145.34C73.1671 144.636 73.0257 143.884 73.0257 143.084C73.0257 142.284 73.1671 141.535 73.4497 140.836C73.7377 140.132 74.1351 139.514 74.6417 138.98C75.1484 138.447 75.7351 138.031 76.4017 137.732C77.0684 137.428 77.7831 137.276 78.5457 137.276C79.3084 137.276 80.0204 137.428 80.6817 137.732C81.3484 138.031 81.9351 138.447 82.4417 138.98C82.9484 139.514 83.3431 140.132 83.6257 140.836C83.9137 141.535 84.0577 142.284 84.0577 143.084C84.0577 143.788 83.9457 144.452 83.7217 145.076C83.4977 145.7 83.1884 146.263 82.7937 146.764L84.1537 148.108L83.3617 148.9ZM78.5457 147.772C79.0311 147.772 79.5057 147.684 79.9697 147.508C80.4391 147.332 80.8524 147.082 81.2097 146.756L79.5537 145.1L80.3457 144.3L81.9697 145.932C82.2844 145.532 82.5244 145.087 82.6897 144.596C82.8551 144.106 82.9377 143.602 82.9377 143.084C82.9377 142.439 82.8231 141.834 82.5937 141.268C82.3644 140.703 82.0471 140.204 81.6417 139.772C81.2417 139.34 80.7751 139.004 80.2417 138.764C79.7137 138.519 79.1484 138.396 78.5457 138.396C77.9324 138.396 77.3591 138.522 76.8257 138.772C76.2977 139.018 75.8311 139.359 75.4257 139.796C75.0257 140.228 74.7111 140.727 74.4817 141.292C74.2577 141.852 74.1457 142.45 74.1457 143.084C74.1457 143.73 74.2604 144.335 74.4897 144.9C74.7191 145.466 75.0364 145.964 75.4417 146.396C75.8471 146.828 76.3137 147.167 76.8417 147.412C77.3751 147.652 77.9431 147.772 78.5457 147.772ZM85.3382 145.644V140.708H86.4582V145.42C86.4582 145.858 86.5649 146.255 86.7782 146.612C86.9916 146.97 87.2769 147.255 87.6342 147.468C87.9969 147.682 88.3942 147.788 88.8262 147.788C89.2636 147.788 89.6582 147.682 90.0102 147.468C90.3676 147.255 90.6529 146.97 90.8662 146.612C91.0796 146.255 91.1862 145.858 91.1862 145.42V140.708H92.3062L92.3142 148.708H91.1942L91.1862 147.588C90.9036 147.994 90.5356 148.316 90.0822 148.556C89.6342 148.796 89.1436 148.916 88.6102 148.916C88.0076 148.916 87.4582 148.77 86.9622 148.476C86.4662 148.183 86.0716 147.788 85.7782 147.292C85.4849 146.796 85.3382 146.247 85.3382 145.644ZM100.422 140.708H101.542V148.708H100.422L100.382 147.22C100.12 147.727 99.7551 148.138 99.2857 148.452C98.8164 148.762 98.2564 148.916 97.6057 148.916C97.0191 148.916 96.4697 148.807 95.9577 148.588C95.4457 148.364 94.9951 148.058 94.6057 147.668C94.2164 147.279 93.9124 146.828 93.6937 146.316C93.4751 145.804 93.3657 145.255 93.3657 144.668C93.3657 144.092 93.4724 143.551 93.6857 143.044C93.9044 142.538 94.2031 142.092 94.5817 141.708C94.9657 141.324 95.4084 141.026 95.9097 140.812C96.4164 140.594 96.9577 140.484 97.5337 140.484C98.2004 140.484 98.7817 140.644 99.2777 140.964C99.7737 141.279 100.168 141.692 100.462 142.204L100.422 140.708ZM97.5817 147.828C98.1524 147.828 98.6431 147.69 99.0537 147.412C99.4644 147.13 99.7791 146.751 99.9977 146.276C100.222 145.802 100.334 145.279 100.334 144.708C100.334 144.122 100.222 143.594 99.9977 143.124C99.7737 142.65 99.4564 142.274 99.0457 141.996C98.6351 141.719 98.1471 141.58 97.5817 141.58C97.0164 141.58 96.4991 141.722 96.0297 142.004C95.5657 142.282 95.1951 142.658 94.9177 143.132C94.6457 143.607 94.5097 144.132 94.5097 144.708C94.5097 145.29 94.6511 145.818 94.9337 146.292C95.2164 146.762 95.5897 147.135 96.0537 147.412C96.5231 147.69 97.0324 147.828 97.5817 147.828ZM103.252 148.708V136.708H104.372V148.708H103.252ZM106.299 140.708H107.419V148.708H106.299V140.708ZM106.867 139.308C106.686 139.308 106.531 139.25 106.403 139.132C106.28 139.01 106.219 138.858 106.219 138.676C106.219 138.495 106.28 138.346 106.403 138.228C106.531 138.106 106.686 138.044 106.867 138.044C107.043 138.044 107.192 138.106 107.315 138.228C107.443 138.346 107.507 138.495 107.507 138.676C107.507 138.858 107.446 139.01 107.323 139.132C107.2 139.25 107.048 139.308 106.867 139.308ZM111.002 138.62V140.708H113.402V141.828H111.002V148.708H109.882V141.828H108.786V140.708H109.882V138.62C109.882 138.231 109.975 137.879 110.162 137.564C110.354 137.244 110.61 136.991 110.93 136.804C111.25 136.612 111.604 136.516 111.994 136.516C112.276 136.516 112.548 136.572 112.81 136.684C113.076 136.796 113.314 136.962 113.522 137.18L112.722 137.972C112.636 137.866 112.527 137.783 112.394 137.724C112.266 137.666 112.132 137.636 111.994 137.636C111.722 137.636 111.487 137.732 111.29 137.924C111.098 138.116 111.002 138.348 111.002 138.62ZM114.627 140.708H115.747V148.708H114.627V140.708ZM115.195 139.308C115.014 139.308 114.859 139.25 114.731 139.132C114.608 139.01 114.547 138.858 114.547 138.676C114.547 138.495 114.608 138.346 114.731 138.228C114.859 138.106 115.014 138.044 115.195 138.044C115.371 138.044 115.52 138.106 115.643 138.228C115.771 138.346 115.835 138.495 115.835 138.676C115.835 138.858 115.774 139.01 115.651 139.132C115.528 139.25 115.376 139.308 115.195 139.308ZM123.308 146.7L124.308 147.244C123.945 147.751 123.484 148.156 122.924 148.46C122.369 148.764 121.766 148.916 121.116 148.916C120.38 148.916 119.708 148.727 119.1 148.348C118.497 147.97 118.014 147.463 117.652 146.828C117.294 146.188 117.116 145.482 117.116 144.708C117.116 144.122 117.22 143.575 117.428 143.068C117.636 142.556 117.921 142.108 118.284 141.724C118.652 141.335 119.078 141.031 119.564 140.812C120.049 140.594 120.566 140.484 121.116 140.484C121.766 140.484 122.369 140.636 122.924 140.94C123.484 141.244 123.945 141.652 124.308 142.164L123.308 142.7C123.03 142.348 122.697 142.079 122.308 141.892C121.918 141.7 121.521 141.604 121.116 141.604C120.577 141.604 120.089 141.748 119.652 142.036C119.214 142.319 118.868 142.695 118.612 143.164C118.361 143.634 118.236 144.148 118.236 144.708C118.236 145.268 118.364 145.783 118.62 146.252C118.881 146.722 119.23 147.098 119.668 147.38C120.105 147.658 120.588 147.796 121.116 147.796C121.553 147.796 121.964 147.695 122.348 147.492C122.732 147.29 123.052 147.026 123.308 146.7ZM132.219 140.708H133.339V148.708H132.219L132.179 147.22C131.917 147.727 131.552 148.138 131.083 148.452C130.613 148.762 130.053 148.916 129.403 148.916C128.816 148.916 128.267 148.807 127.755 148.588C127.243 148.364 126.792 148.058 126.403 147.668C126.013 147.279 125.709 146.828 125.491 146.316C125.272 145.804 125.163 145.255 125.163 144.668C125.163 144.092 125.269 143.551 125.483 143.044C125.701 142.538 126 142.092 126.379 141.708C126.763 141.324 127.205 141.026 127.707 140.812C128.213 140.594 128.755 140.484 129.331 140.484C129.997 140.484 130.579 140.644 131.075 140.964C131.571 141.279 131.965 141.692 132.259 142.204L132.219 140.708ZM129.379 147.828C129.949 147.828 130.44 147.69 130.851 147.412C131.261 147.13 131.576 146.751 131.795 146.276C132.019 145.802 132.131 145.279 132.131 144.708C132.131 144.122 132.019 143.594 131.795 143.124C131.571 142.65 131.253 142.274 130.843 141.996C130.432 141.719 129.944 141.58 129.379 141.58C128.813 141.58 128.296 141.722 127.827 142.004C127.363 142.282 126.992 142.658 126.715 143.132C126.443 143.607 126.307 144.132 126.307 144.708C126.307 145.29 126.448 145.818 126.731 146.292C127.013 146.762 127.387 147.135 127.851 147.412C128.32 147.69 128.829 147.828 129.379 147.828ZM139.027 141.828H137.115L137.107 148.708H135.987L135.995 141.828H134.547V140.708H135.995L135.987 138.196H137.107L137.115 140.708H139.027V141.828ZM140.393 140.708H141.513V148.708H140.393V140.708ZM140.961 139.308C140.779 139.308 140.625 139.25 140.497 139.132C140.374 139.01 140.313 138.858 140.313 138.676C140.313 138.495 140.374 138.346 140.497 138.228C140.625 138.106 140.779 138.044 140.961 138.044C141.137 138.044 141.286 138.106 141.409 138.228C141.537 138.346 141.601 138.495 141.601 138.676C141.601 138.858 141.539 139.01 141.417 139.132C141.294 139.25 141.142 139.308 140.961 139.308ZM146.881 148.916C146.145 148.916 145.473 148.727 144.865 148.348C144.263 147.97 143.78 147.463 143.417 146.828C143.06 146.188 142.881 145.482 142.881 144.708C142.881 144.122 142.985 143.575 143.193 143.068C143.401 142.556 143.687 142.108 144.049 141.724C144.417 141.335 144.844 141.031 145.329 140.812C145.815 140.594 146.332 140.484 146.881 140.484C147.617 140.484 148.287 140.674 148.889 141.052C149.497 141.431 149.98 141.94 150.337 142.58C150.7 143.22 150.881 143.93 150.881 144.708C150.881 145.29 150.777 145.834 150.569 146.34C150.361 146.847 150.073 147.295 149.705 147.684C149.343 148.068 148.919 148.37 148.433 148.588C147.953 148.807 147.436 148.916 146.881 148.916ZM146.881 147.796C147.425 147.796 147.913 147.655 148.345 147.372C148.783 147.084 149.127 146.706 149.377 146.236C149.633 145.767 149.761 145.258 149.761 144.708C149.761 144.148 149.633 143.634 149.377 143.164C149.121 142.69 148.775 142.311 148.337 142.028C147.905 141.746 147.42 141.604 146.881 141.604C146.337 141.604 145.847 141.748 145.409 142.036C144.977 142.319 144.633 142.695 144.377 143.164C144.127 143.634 144.001 144.148 144.001 144.708C144.001 145.284 144.132 145.807 144.393 146.276C144.655 146.74 145.004 147.111 145.441 147.388C145.879 147.66 146.359 147.796 146.881 147.796ZM159.212 143.756V148.708H158.092V143.98C158.092 143.543 157.986 143.146 157.772 142.788C157.559 142.431 157.274 142.146 156.916 141.932C156.559 141.719 156.162 141.612 155.724 141.612C155.292 141.612 154.895 141.719 154.532 141.932C154.175 142.146 153.89 142.431 153.676 142.788C153.463 143.146 153.356 143.543 153.356 143.98V148.708H152.236V140.708H153.356V141.812C153.639 141.407 154.007 141.084 154.46 140.844C154.914 140.604 155.407 140.484 155.94 140.484C156.543 140.484 157.092 140.631 157.588 140.924C158.084 141.218 158.479 141.612 158.772 142.108C159.066 142.604 159.212 143.154 159.212 143.756Z" fill="#535662"/>
<rect x="42.8857" y="168.208" width="23" height="23" rx="11.5" stroke="#535662" stroke-opacity="0.15"/>
<path d="M54.3843 184.39C53.7869 184.39 53.2619 184.26 52.8093 183.998C52.3566 183.732 52.0019 183.378 51.7453 182.934C51.4933 182.491 51.3673 182.001 51.3673 181.464H52.3473C52.3473 181.819 52.4289 182.146 52.5923 182.444C52.7603 182.738 52.9959 182.974 53.2993 183.151C53.6026 183.324 53.9643 183.41 54.3843 183.41C54.7389 183.41 55.0703 183.324 55.3783 183.151C55.6909 182.974 55.9429 182.738 56.1343 182.444C56.3303 182.146 56.4283 181.819 56.4283 181.464C56.4283 181.021 56.3163 180.652 56.0923 180.358C55.8683 180.06 55.5603 179.838 55.1683 179.693C54.7763 179.544 54.3283 179.469 53.8243 179.469V178.657C54.5196 178.657 55.0773 178.51 55.4973 178.216C55.9219 177.918 56.1343 177.481 56.1343 176.907C56.1343 176.595 56.0479 176.31 55.8753 176.053C55.7073 175.797 55.4856 175.591 55.2103 175.437C54.9396 175.279 54.6479 175.199 54.3353 175.199C54.0226 175.199 53.7216 175.279 53.4323 175.437C53.1476 175.591 52.9143 175.797 52.7323 176.053C52.5549 176.31 52.4663 176.595 52.4663 176.907H51.4863C51.4863 176.539 51.5633 176.193 51.7173 175.871C51.8713 175.545 52.0813 175.258 52.3473 175.01C52.6133 174.763 52.9166 174.569 53.2573 174.429C53.5979 174.289 53.9549 174.219 54.3283 174.219C54.8183 174.219 55.2733 174.341 55.6933 174.583C56.1179 174.826 56.4609 175.15 56.7223 175.556C56.9836 175.962 57.1143 176.413 57.1143 176.907C57.1143 177.388 56.9906 177.822 56.7433 178.209C56.4959 178.597 56.1623 178.87 55.7423 179.028C56.1063 179.15 56.4119 179.334 56.6593 179.581C56.9066 179.824 57.0933 180.106 57.2193 180.428C57.3453 180.75 57.4083 181.096 57.4083 181.464C57.4083 182.001 57.2683 182.491 56.9883 182.934C56.7083 183.378 56.3373 183.732 55.8753 183.998C55.4179 184.26 54.9209 184.39 54.3843 184.39Z" fill="#535662"/>
<rect x="53.8857" y="191.708" width="1" height="12" fill="#D9D9D9"/>
<path d="M78.5457 184.916C77.7884 184.916 77.0764 184.767 76.4097 184.468C75.7431 184.164 75.1564 183.746 74.6497 183.212C74.1431 182.679 73.7457 182.063 73.4577 181.364C73.1697 180.66 73.0257 179.908 73.0257 179.108C73.0257 178.308 73.1697 177.559 73.4577 176.86C73.7457 176.156 74.1431 175.538 74.6497 175.004C75.1564 174.471 75.7431 174.055 76.4097 173.756C77.0764 173.452 77.7884 173.3 78.5457 173.3C79.3084 173.3 80.0231 173.452 80.6897 173.756C81.3564 174.055 81.9431 174.471 82.4497 175.004C82.9564 175.538 83.3511 176.156 83.6337 176.86C83.9217 177.559 84.0657 178.308 84.0657 179.108C84.0657 179.908 83.9217 180.66 83.6337 181.364C83.3511 182.063 82.9564 182.679 82.4497 183.212C81.9431 183.746 81.3564 184.164 80.6897 184.468C80.0231 184.767 79.3084 184.916 78.5457 184.916ZM78.5457 183.796C79.1591 183.796 79.7297 183.674 80.2577 183.428C80.7911 183.178 81.2577 182.836 81.6577 182.404C82.0631 181.972 82.3777 181.474 82.6017 180.908C82.8311 180.343 82.9457 179.743 82.9457 179.108C82.9457 178.468 82.8311 177.866 82.6017 177.3C82.3724 176.73 82.0551 176.231 81.6497 175.804C81.2497 175.372 80.7831 175.034 80.2497 174.788C79.7217 174.543 79.1537 174.42 78.5457 174.42C77.9324 174.42 77.3591 174.546 76.8257 174.796C76.2977 175.042 75.8311 175.38 75.4257 175.812C75.0257 176.244 74.7111 176.743 74.4817 177.308C74.2577 177.874 74.1457 178.474 74.1457 179.108C74.1457 179.754 74.2604 180.359 74.4897 180.924C74.7191 181.49 75.0337 181.988 75.4337 182.42C75.8391 182.852 76.3057 183.191 76.8337 183.436C77.3671 183.676 77.9377 183.796 78.5457 183.796ZM89.6575 176.484C90.4362 176.484 91.1428 176.674 91.7775 177.052C92.4175 177.431 92.9268 177.94 93.3055 178.58C93.6842 179.215 93.8735 179.922 93.8735 180.7C93.8735 181.282 93.7642 181.828 93.5455 182.34C93.3268 182.847 93.0228 183.295 92.6335 183.684C92.2495 184.068 91.8015 184.37 91.2895 184.588C90.7828 184.807 90.2388 184.916 89.6575 184.916C88.9962 184.916 88.4255 184.759 87.9455 184.444C87.4655 184.13 87.0868 183.719 86.8095 183.212V184.708H85.6895V172.708H86.8095V178.188C87.0868 177.682 87.4655 177.271 87.9455 176.956C88.4255 176.642 88.9962 176.484 89.6575 176.484ZM89.6495 183.82C90.2202 183.82 90.7375 183.682 91.2015 183.404C91.6655 183.122 92.0362 182.743 92.3135 182.268C92.5908 181.794 92.7295 181.271 92.7295 180.7C92.7295 180.114 92.5882 179.586 92.3055 179.116C92.0228 178.642 91.6468 178.266 91.1775 177.988C90.7135 177.711 90.2042 177.572 89.6495 177.572C89.0842 177.572 88.5935 177.714 88.1775 177.996C87.7668 178.279 87.4495 178.658 87.2255 179.132C87.0068 179.607 86.8975 180.13 86.8975 180.7C86.8975 181.282 87.0095 181.81 87.2335 182.284C87.4575 182.754 87.7748 183.127 88.1855 183.404C88.6015 183.682 89.0895 183.82 89.6495 183.82ZM93.5582 188.708V187.588C93.9582 187.588 94.3156 187.5 94.6302 187.324C94.9449 187.148 95.1929 186.906 95.3742 186.596C95.5556 186.292 95.6462 185.951 95.6462 185.572V176.708H96.7662V185.572C96.7662 186.148 96.6249 186.674 96.3422 187.148C96.0649 187.623 95.6836 188.002 95.1982 188.284C94.7182 188.567 94.1716 188.708 93.5582 188.708ZM96.2142 175.308C96.0329 175.308 95.8782 175.25 95.7502 175.132C95.6276 175.01 95.5662 174.858 95.5662 174.676C95.5662 174.495 95.6276 174.346 95.7502 174.228C95.8782 174.106 96.0329 174.044 96.2142 174.044C96.3902 174.044 96.5396 174.106 96.6622 174.228C96.7902 174.346 96.8542 174.495 96.8542 174.676C96.8542 174.858 96.7929 175.01 96.6702 175.132C96.5476 175.25 96.3956 175.308 96.2142 175.308ZM102.131 184.916C101.395 184.916 100.723 184.727 100.115 184.348C99.5127 183.97 99.03 183.463 98.6674 182.828C98.31 182.188 98.1314 181.482 98.1314 180.708C98.1314 180.122 98.2354 179.575 98.4434 179.068C98.6514 178.556 98.9367 178.108 99.2994 177.724C99.6674 177.335 100.094 177.031 100.579 176.812C101.065 176.594 101.582 176.484 102.131 176.484C102.723 176.484 103.267 176.602 103.763 176.836C104.265 177.071 104.694 177.399 105.051 177.82C105.414 178.242 105.686 178.735 105.867 179.3C106.054 179.866 106.131 180.476 106.099 181.132H99.3154C99.3794 181.639 99.5394 182.092 99.7954 182.492C100.057 182.892 100.387 183.21 100.787 183.444C101.193 183.674 101.641 183.791 102.131 183.796C102.665 183.796 103.145 183.658 103.571 183.38C104.003 183.103 104.35 182.722 104.611 182.236L105.747 182.5C105.427 183.21 104.945 183.791 104.299 184.244C103.654 184.692 102.931 184.916 102.131 184.916ZM99.2834 180.228H104.971C104.934 179.732 104.782 179.279 104.515 178.868C104.254 178.452 103.915 178.122 103.499 177.876C103.083 177.626 102.627 177.5 102.131 177.5C101.635 177.5 101.182 177.623 100.771 177.868C100.361 178.108 100.025 178.436 99.7634 178.852C99.502 179.263 99.342 179.722 99.2834 180.228ZM113.105 182.7L114.105 183.244C113.742 183.751 113.281 184.156 112.721 184.46C112.166 184.764 111.563 184.916 110.913 184.916C110.177 184.916 109.505 184.727 108.897 184.348C108.294 183.97 107.811 183.463 107.449 182.828C107.091 182.188 106.913 181.482 106.913 180.708C106.913 180.122 107.017 179.575 107.225 179.068C107.433 178.556 107.718 178.108 108.081 177.724C108.449 177.335 108.875 177.031 109.361 176.812C109.846 176.594 110.363 176.484 110.913 176.484C111.563 176.484 112.166 176.636 112.721 176.94C113.281 177.244 113.742 177.652 114.105 178.164L113.105 178.7C112.827 178.348 112.494 178.079 112.105 177.892C111.715 177.7 111.318 177.604 110.913 177.604C110.374 177.604 109.886 177.748 109.449 178.036C109.011 178.319 108.665 178.695 108.409 179.164C108.158 179.634 108.033 180.148 108.033 180.708C108.033 181.268 108.161 181.783 108.417 182.252C108.678 182.722 109.027 183.098 109.465 183.38C109.902 183.658 110.385 183.796 110.913 183.796C111.35 183.796 111.761 183.695 112.145 183.492C112.529 183.29 112.849 183.026 113.105 182.7ZM119.637 177.828H117.725L117.717 184.708H116.597L116.605 177.828H115.157V176.708H116.605L116.597 174.196H117.717L117.725 176.708H119.637V177.828ZM121.002 176.708H122.122V184.708H121.002V176.708ZM121.57 175.308C121.389 175.308 121.234 175.25 121.106 175.132C120.983 175.01 120.922 174.858 120.922 174.676C120.922 174.495 120.983 174.346 121.106 174.228C121.234 174.106 121.389 174.044 121.57 174.044C121.746 174.044 121.895 174.106 122.018 174.228C122.146 174.346 122.21 174.495 122.21 174.676C122.21 174.858 122.149 175.01 122.026 175.132C121.903 175.25 121.751 175.308 121.57 175.308ZM127.491 184.916C126.755 184.916 126.083 184.727 125.475 184.348C124.872 183.97 124.389 183.463 124.027 182.828C123.669 182.188 123.491 181.482 123.491 180.708C123.491 180.122 123.595 179.575 123.803 179.068C124.011 178.556 124.296 178.108 124.659 177.724C125.027 177.335 125.453 177.031 125.939 176.812C126.424 176.594 126.941 176.484 127.491 176.484C128.227 176.484 128.896 176.674 129.499 177.052C130.107 177.431 130.589 177.94 130.947 178.58C131.309 179.22 131.491 179.93 131.491 180.708C131.491 181.29 131.387 181.834 131.179 182.34C130.971 182.847 130.683 183.295 130.315 183.684C129.952 184.068 129.528 184.37 129.043 184.588C128.563 184.807 128.045 184.916 127.491 184.916ZM127.491 183.796C128.035 183.796 128.523 183.655 128.955 183.372C129.392 183.084 129.736 182.706 129.987 182.236C130.243 181.767 130.371 181.258 130.371 180.708C130.371 180.148 130.243 179.634 129.987 179.164C129.731 178.69 129.384 178.311 128.947 178.028C128.515 177.746 128.029 177.604 127.491 177.604C126.947 177.604 126.456 177.748 126.019 178.036C125.587 178.319 125.243 178.695 124.987 179.164C124.736 179.634 124.611 180.148 124.611 180.708C124.611 181.284 124.741 181.807 125.003 182.276C125.264 182.74 125.613 183.111 126.051 183.388C126.488 183.66 126.968 183.796 127.491 183.796ZM139.822 179.756V184.708H138.702V179.98C138.702 179.543 138.595 179.146 138.382 178.788C138.168 178.431 137.883 178.146 137.526 177.932C137.168 177.719 136.771 177.612 136.334 177.612C135.902 177.612 135.504 177.719 135.142 177.932C134.784 178.146 134.499 178.431 134.286 178.788C134.072 179.146 133.966 179.543 133.966 179.98V184.708H132.846V176.708H133.966V177.812C134.248 177.407 134.616 177.084 135.07 176.844C135.523 176.604 136.016 176.484 136.55 176.484C137.152 176.484 137.702 176.631 138.198 176.924C138.694 177.218 139.088 177.612 139.382 178.108C139.675 178.604 139.822 179.154 139.822 179.756ZM152.244 179.756V184.708H151.124V179.98C151.124 179.543 151.017 179.146 150.804 178.788C150.59 178.431 150.305 178.146 149.948 177.932C149.59 177.719 149.193 177.612 148.756 177.612C148.324 177.612 147.926 177.719 147.564 177.932C147.206 178.146 146.921 178.431 146.708 178.788C146.494 179.146 146.388 179.543 146.388 179.98V184.708H145.268V172.708H146.388V177.812C146.67 177.407 147.038 177.084 147.492 176.844C147.945 176.604 148.438 176.484 148.972 176.484C149.574 176.484 150.124 176.631 150.62 176.924C151.116 177.218 151.51 177.612 151.804 178.108C152.097 178.604 152.244 179.154 152.244 179.756ZM160.265 176.708H161.385V184.708H160.265L160.225 183.22C159.964 183.727 159.599 184.138 159.129 184.452C158.66 184.762 158.1 184.916 157.449 184.916C156.863 184.916 156.313 184.807 155.801 184.588C155.289 184.364 154.839 184.058 154.449 183.668C154.06 183.279 153.756 182.828 153.537 182.316C153.319 181.804 153.209 181.255 153.209 180.668C153.209 180.092 153.316 179.551 153.529 179.044C153.748 178.538 154.047 178.092 154.425 177.708C154.809 177.324 155.252 177.026 155.753 176.812C156.26 176.594 156.801 176.484 157.377 176.484C158.044 176.484 158.625 176.644 159.121 176.964C159.617 177.279 160.012 177.692 160.305 178.204L160.265 176.708ZM157.425 183.828C157.996 183.828 158.487 183.69 158.897 183.412C159.308 183.13 159.623 182.751 159.841 182.276C160.065 181.802 160.177 181.279 160.177 180.708C160.177 180.122 160.065 179.594 159.841 179.124C159.617 178.65 159.3 178.274 158.889 177.996C158.479 177.719 157.991 177.58 157.425 177.58C156.86 177.58 156.343 177.722 155.873 178.004C155.409 178.282 155.039 178.658 154.761 179.132C154.489 179.607 154.353 180.132 154.353 180.708C154.353 181.29 154.495 181.818 154.777 182.292C155.06 182.762 155.433 183.135 155.897 183.412C156.367 183.69 156.876 183.828 157.425 183.828ZM169.962 179.756V184.708H168.842V179.98C168.842 179.543 168.736 179.146 168.522 178.788C168.309 178.431 168.024 178.146 167.666 177.932C167.309 177.719 166.912 177.612 166.474 177.612C166.042 177.612 165.645 177.719 165.282 177.932C164.925 178.146 164.64 178.431 164.426 178.788C164.213 179.146 164.106 179.543 164.106 179.98V184.708H162.986V176.708H164.106V177.812C164.389 177.407 164.757 177.084 165.21 176.844C165.664 176.604 166.157 176.484 166.69 176.484C167.293 176.484 167.842 176.631 168.338 176.924C168.834 177.218 169.229 177.612 169.522 178.108C169.816 178.604 169.962 179.154 169.962 179.756ZM177.992 172.708H179.112V184.708H177.992V183.212C177.715 183.724 177.334 184.138 176.848 184.452C176.368 184.762 175.798 184.916 175.136 184.916C174.555 184.916 174.011 184.807 173.504 184.588C172.998 184.37 172.55 184.068 172.16 183.684C171.776 183.295 171.475 182.847 171.256 182.34C171.038 181.834 170.928 181.29 170.928 180.708C170.928 180.127 171.038 179.583 171.256 179.076C171.475 178.564 171.776 178.116 172.16 177.732C172.55 177.343 172.998 177.039 173.504 176.82C174.011 176.602 174.555 176.492 175.136 176.492C175.798 176.492 176.368 176.65 176.848 176.964C177.334 177.274 177.715 177.682 177.992 178.188V172.708ZM175.144 183.828C175.715 183.828 176.206 183.69 176.616 183.412C177.027 183.13 177.342 182.751 177.56 182.276C177.784 181.802 177.896 181.279 177.896 180.708C177.896 180.122 177.784 179.594 177.56 179.124C177.336 178.65 177.019 178.274 176.608 177.996C176.198 177.719 175.71 177.58 175.144 177.58C174.579 177.58 174.064 177.722 173.6 178.004C173.136 178.282 172.766 178.658 172.488 179.132C172.211 179.607 172.072 180.132 172.072 180.708C172.072 181.29 172.214 181.818 172.496 182.292C172.779 182.762 173.152 183.135 173.616 183.412C174.086 183.69 174.595 183.828 175.144 183.828ZM181.033 184.708V172.708H182.153V184.708H181.033ZM184.08 176.708H185.2V184.708H184.08V176.708ZM184.648 175.308C184.467 175.308 184.312 175.25 184.184 175.132C184.061 175.01 184 174.858 184 174.676C184 174.495 184.061 174.346 184.184 174.228C184.312 174.106 184.467 174.044 184.648 174.044C184.824 174.044 184.973 174.106 185.096 174.228C185.224 174.346 185.288 174.495 185.288 174.676C185.288 174.858 185.227 175.01 185.104 175.132C184.981 175.25 184.829 175.308 184.648 175.308ZM194.072 179.756V184.708H192.952V179.98C192.952 179.543 192.845 179.146 192.632 178.788C192.418 178.431 192.133 178.146 191.776 177.932C191.418 177.719 191.021 177.612 190.584 177.612C190.152 177.612 189.754 177.719 189.392 177.932C189.034 178.146 188.749 178.431 188.536 178.788C188.322 179.146 188.216 179.543 188.216 179.98V184.708H187.096V176.708H188.216V177.812C188.498 177.407 188.866 177.084 189.32 176.844C189.773 176.604 190.266 176.484 190.8 176.484C191.402 176.484 191.952 176.631 192.448 176.924C192.944 177.218 193.338 177.612 193.632 178.108C193.925 178.604 194.072 179.154 194.072 179.756ZM201.878 176.708H202.998V185.004C202.998 185.516 202.886 185.996 202.662 186.444C202.443 186.892 202.144 187.284 201.766 187.62C201.392 187.962 200.966 188.228 200.486 188.42C200.006 188.612 199.507 188.708 198.99 188.708C198.435 188.708 197.899 188.58 197.382 188.324C196.864 188.074 196.414 187.738 196.03 187.316C195.651 186.895 195.382 186.428 195.222 185.916L196.254 185.444C196.355 185.844 196.544 186.204 196.822 186.524C197.104 186.85 197.435 187.106 197.814 187.292C198.198 187.484 198.59 187.58 198.99 187.58C199.358 187.58 199.712 187.511 200.054 187.372C200.4 187.239 200.71 187.055 200.982 186.82C201.259 186.586 201.478 186.311 201.638 185.996C201.798 185.687 201.878 185.356 201.878 185.004V183.236C201.6 183.738 201.224 184.143 200.75 184.452C200.28 184.762 199.734 184.916 199.11 184.916C198.55 184.916 198.022 184.807 197.526 184.588C197.035 184.37 196.603 184.068 196.23 183.684C195.856 183.295 195.563 182.847 195.35 182.34C195.142 181.834 195.038 181.29 195.038 180.708C195.038 180.127 195.142 179.583 195.35 179.076C195.563 178.564 195.856 178.116 196.23 177.732C196.603 177.343 197.035 177.039 197.526 176.82C198.022 176.602 198.55 176.492 199.11 176.492C199.734 176.492 200.28 176.647 200.75 176.956C201.224 177.26 201.6 177.666 201.878 178.172V176.708ZM199.118 183.828C199.672 183.828 200.15 183.684 200.55 183.396C200.955 183.108 201.267 182.727 201.486 182.252C201.704 181.778 201.814 181.263 201.814 180.708C201.814 180.138 201.702 179.618 201.478 179.148C201.259 178.674 200.947 178.295 200.542 178.012C200.136 177.724 199.662 177.58 199.118 177.58C198.574 177.58 198.078 177.722 197.63 178.004C197.187 178.282 196.835 178.658 196.574 179.132C196.312 179.607 196.182 180.132 196.182 180.708C196.182 181.284 196.315 181.81 196.582 182.284C196.848 182.754 197.203 183.13 197.646 183.412C198.094 183.69 198.584 183.828 199.118 183.828Z" fill="#535662"/>
<rect x="42.8857" y="204.208" width="23" height="23" rx="11.5" stroke="#535662" stroke-opacity="0.15"/>
<path d="M55.3525 220.208V217.457H51.1245V216.463L55.1005 210.408H56.3325V216.477H57.3615V217.457H56.3325V220.208H55.3525ZM52.2865 216.463L55.3525 216.477L55.3315 211.808L52.2865 216.463Z" fill="#535662"/>
<rect x="53.8857" y="227.708" width="1" height="12" fill="#D9D9D9"/>
<path d="M78.5457 220.916C77.7884 220.916 77.0764 220.767 76.4097 220.468C75.7431 220.164 75.1564 219.746 74.6497 219.212C74.1431 218.679 73.7457 218.063 73.4577 217.364C73.1697 216.66 73.0257 215.908 73.0257 215.108C73.0257 214.308 73.1697 213.559 73.4577 212.86C73.7457 212.156 74.1431 211.538 74.6497 211.004C75.1564 210.471 75.7431 210.055 76.4097 209.756C77.0764 209.452 77.7884 209.3 78.5457 209.3C79.3084 209.3 80.0231 209.452 80.6897 209.756C81.3564 210.055 81.9431 210.471 82.4497 211.004C82.9564 211.538 83.3511 212.156 83.6337 212.86C83.9217 213.559 84.0657 214.308 84.0657 215.108C84.0657 215.908 83.9217 216.66 83.6337 217.364C83.3511 218.063 82.9564 218.679 82.4497 219.212C81.9431 219.746 81.3564 220.164 80.6897 220.468C80.0231 220.767 79.3084 220.916 78.5457 220.916ZM78.5457 219.796C79.1591 219.796 79.7297 219.674 80.2577 219.428C80.7911 219.178 81.2577 218.836 81.6577 218.404C82.0631 217.972 82.3777 217.474 82.6017 216.908C82.8311 216.343 82.9457 215.743 82.9457 215.108C82.9457 214.468 82.8311 213.866 82.6017 213.3C82.3724 212.73 82.0551 212.231 81.6497 211.804C81.2497 211.372 80.7831 211.034 80.2497 210.788C79.7217 210.543 79.1537 210.42 78.5457 210.42C77.9324 210.42 77.3591 210.546 76.8257 210.796C76.2977 211.042 75.8311 211.38 75.4257 211.812C75.0257 212.244 74.7111 212.743 74.4817 213.308C74.2577 213.874 74.1457 214.474 74.1457 215.108C74.1457 215.754 74.2604 216.359 74.4897 216.924C74.7191 217.49 75.0337 217.988 75.4337 218.42C75.8391 218.852 76.3057 219.191 76.8337 219.436C77.3671 219.676 77.9377 219.796 78.5457 219.796ZM87.3142 210.62V212.708H89.7142V213.828H87.3142V220.708H86.1942V213.828H85.0982V212.708H86.1942V210.62C86.1942 210.231 86.2876 209.879 86.4742 209.564C86.6662 209.244 86.9222 208.991 87.2422 208.804C87.5622 208.612 87.9169 208.516 88.3062 208.516C88.5889 208.516 88.8609 208.572 89.1222 208.684C89.3889 208.796 89.6262 208.962 89.8342 209.18L89.0342 209.972C88.9489 209.866 88.8396 209.783 88.7062 209.724C88.5782 209.666 88.4449 209.636 88.3062 209.636C88.0342 209.636 87.7996 209.732 87.6022 209.924C87.4102 210.116 87.3142 210.348 87.3142 210.62ZM92.8767 210.62V212.708H95.2767V213.828H92.8767V220.708H91.7567V213.828H90.6607V212.708H91.7567V210.62C91.7567 210.231 91.8501 209.879 92.0367 209.564C92.2287 209.244 92.4847 208.991 92.8047 208.804C93.1247 208.612 93.4794 208.516 93.8687 208.516C94.1514 208.516 94.4234 208.572 94.6847 208.684C94.9514 208.796 95.1887 208.962 95.3967 209.18L94.5967 209.972C94.5114 209.866 94.4021 209.783 94.2687 209.724C94.1407 209.666 94.0074 209.636 93.8687 209.636C93.5967 209.636 93.3621 209.732 93.1647 209.924C92.9727 210.116 92.8767 210.348 92.8767 210.62ZM99.897 220.916C99.161 220.916 98.489 220.727 97.881 220.348C97.2783 219.97 96.7957 219.463 96.433 218.828C96.0757 218.188 95.897 217.482 95.897 216.708C95.897 216.122 96.001 215.575 96.209 215.068C96.417 214.556 96.7023 214.108 97.065 213.724C97.433 213.335 97.8597 213.031 98.345 212.812C98.8303 212.594 99.3477 212.484 99.897 212.484C100.489 212.484 101.033 212.602 101.529 212.836C102.03 213.071 102.46 213.399 102.817 213.82C103.18 214.242 103.452 214.735 103.633 215.3C103.82 215.866 103.897 216.476 103.865 217.132H97.081C97.145 217.639 97.305 218.092 97.561 218.492C97.8223 218.892 98.153 219.21 98.553 219.444C98.9583 219.674 99.4063 219.791 99.897 219.796C100.43 219.796 100.91 219.658 101.337 219.38C101.769 219.103 102.116 218.722 102.377 218.236L103.513 218.5C103.193 219.21 102.71 219.791 102.065 220.244C101.42 220.692 100.697 220.916 99.897 220.916ZM97.049 216.228H102.737C102.7 215.732 102.548 215.279 102.281 214.868C102.02 214.452 101.681 214.122 101.265 213.876C100.849 213.626 100.393 213.5 99.897 213.5C99.401 213.5 98.9477 213.623 98.537 213.868C98.1263 214.108 97.7903 214.436 97.529 214.852C97.2677 215.263 97.1077 215.722 97.049 216.228ZM105.236 220.708V212.708H106.356V213.812C106.639 213.407 107.007 213.084 107.46 212.844C107.914 212.604 108.407 212.484 108.94 212.484C109.25 212.484 109.548 212.524 109.836 212.604L109.38 213.716C109.156 213.647 108.938 213.612 108.724 213.612C108.292 213.612 107.895 213.719 107.532 213.932C107.175 214.146 106.89 214.431 106.676 214.788C106.463 215.146 106.356 215.543 106.356 215.98V220.708H105.236Z" fill="#535662"/>
<rect x="42.8857" y="240.208" width="23" height="23" rx="11.5" stroke="#535662" stroke-opacity="0.15"/>
<path d="M54.2128 256.39C53.6154 256.39 53.0718 256.246 52.5818 255.956C52.0964 255.667 51.7114 255.28 51.4268 254.794C51.1421 254.304 50.9998 253.768 50.9998 253.184H51.9798C51.9798 253.59 52.0801 253.964 52.2808 254.304C52.4814 254.64 52.7498 254.909 53.0858 255.109C53.4264 255.31 53.8021 255.41 54.2128 255.41C54.6188 255.41 54.9898 255.31 55.3258 255.109C55.6618 254.909 55.9301 254.64 56.1308 254.304C56.3361 253.964 56.4388 253.59 56.4388 253.184C56.4388 252.774 56.3408 252.4 56.1448 252.064C55.9534 251.724 55.6804 251.453 55.3258 251.252C54.9758 251.047 54.5581 250.944 54.0728 250.944H51.6928L52.6168 246.408H57.2018V247.388H53.4078L52.8968 249.964L54.0378 249.971C54.7051 249.981 55.2908 250.123 55.7948 250.398C56.3034 250.674 56.7001 251.052 56.9848 251.532C57.2741 252.008 57.4188 252.559 57.4188 253.184C57.4188 253.623 57.3348 254.036 57.1668 254.423C57.0034 254.811 56.7724 255.154 56.4738 255.452C56.1798 255.746 55.8391 255.977 55.4518 256.145C55.0691 256.309 54.6561 256.39 54.2128 256.39Z" fill="#535662"/>
<path d="M73.3457 257.208V246.008H77.1297C77.6737 246.008 78.1671 246.12 78.6097 246.344C79.0577 246.563 79.4124 246.886 79.6737 247.312C79.9404 247.734 80.0737 248.246 80.0737 248.848C80.0737 249.19 80.0124 249.515 79.8897 249.824C79.7671 250.134 79.6071 250.398 79.4097 250.616C79.2124 250.83 78.9991 250.968 78.7697 251.032C79.1004 251.118 79.3857 251.267 79.6257 251.48C79.8657 251.688 80.0631 251.936 80.2177 252.224C80.3724 252.507 80.4844 252.806 80.5537 253.12C80.6284 253.435 80.6657 253.744 80.6657 254.048C80.6657 254.678 80.5271 255.23 80.2497 255.704C79.9777 256.179 79.6124 256.55 79.1537 256.816C78.6951 257.078 78.1857 257.208 77.6257 257.208H73.3457ZM74.4657 256.208H77.5377C77.9271 256.208 78.2791 256.107 78.5937 255.904C78.9137 255.702 79.1671 255.424 79.3537 255.072C79.5457 254.72 79.6417 254.323 79.6417 253.88C79.6417 253.486 79.5457 253.115 79.3537 252.768C79.1671 252.416 78.9137 252.134 78.5937 251.92C78.2791 251.702 77.9271 251.592 77.5377 251.592H74.4657V256.208ZM74.4657 250.608H77.0337C77.5617 250.608 78.0124 250.456 78.3857 250.152C78.7644 249.843 78.9537 249.406 78.9537 248.84C78.9537 248.222 78.7644 247.763 78.3857 247.464C78.0124 247.16 77.5617 247.008 77.0337 247.008H74.4657V250.608ZM85.4751 257.416C84.7391 257.416 84.0671 257.227 83.4591 256.848C82.8565 256.47 82.3738 255.963 82.0111 255.328C81.6538 254.688 81.4751 253.982 81.4751 253.208C81.4751 252.622 81.5791 252.075 81.7871 251.568C81.9951 251.056 82.2805 250.608 82.6431 250.224C83.0111 249.835 83.4378 249.531 83.9231 249.312C84.4085 249.094 84.9258 248.984 85.4751 248.984C86.2111 248.984 86.8805 249.174 87.4831 249.552C88.0911 249.931 88.5738 250.44 88.9311 251.08C89.2938 251.72 89.4751 252.43 89.4751 253.208C89.4751 253.79 89.3711 254.334 89.1631 254.84C88.9551 255.347 88.6671 255.795 88.2991 256.184C87.9365 256.568 87.5125 256.87 87.0271 257.088C86.5471 257.307 86.0298 257.416 85.4751 257.416ZM85.4751 256.296C86.0191 256.296 86.5071 256.155 86.9391 255.872C87.3765 255.584 87.7205 255.206 87.9711 254.736C88.2271 254.267 88.3551 253.758 88.3551 253.208C88.3551 252.648 88.2271 252.134 87.9711 251.664C87.7151 251.19 87.3685 250.811 86.9311 250.528C86.4991 250.246 86.0138 250.104 85.4751 250.104C84.9311 250.104 84.4405 250.248 84.0031 250.536C83.5711 250.819 83.2271 251.195 82.9711 251.664C82.7205 252.134 82.5951 252.648 82.5951 253.208C82.5951 253.784 82.7258 254.307 82.9871 254.776C83.2485 255.24 83.5978 255.611 84.0351 255.888C84.4725 256.16 84.9525 256.296 85.4751 256.296ZM94.272 257.416C93.536 257.416 92.864 257.227 92.256 256.848C91.6533 256.47 91.1707 255.963 90.808 255.328C90.4507 254.688 90.272 253.982 90.272 253.208C90.272 252.622 90.376 252.075 90.584 251.568C90.792 251.056 91.0773 250.608 91.44 250.224C91.808 249.835 92.2347 249.531 92.72 249.312C93.2053 249.094 93.7227 248.984 94.272 248.984C95.008 248.984 95.6773 249.174 96.28 249.552C96.888 249.931 97.3707 250.44 97.728 251.08C98.0907 251.72 98.272 252.43 98.272 253.208C98.272 253.79 98.168 254.334 97.96 254.84C97.752 255.347 97.464 255.795 97.096 256.184C96.7333 256.568 96.3093 256.87 95.824 257.088C95.344 257.307 94.8267 257.416 94.272 257.416ZM94.272 256.296C94.816 256.296 95.304 256.155 95.736 255.872C96.1733 255.584 96.5173 255.206 96.768 254.736C97.024 254.267 97.152 253.758 97.152 253.208C97.152 252.648 97.024 252.134 96.768 251.664C96.512 251.19 96.1653 250.811 95.728 250.528C95.296 250.246 94.8107 250.104 94.272 250.104C93.728 250.104 93.2373 250.248 92.8 250.536C92.368 250.819 92.024 251.195 91.768 251.664C91.5173 252.134 91.392 252.648 91.392 253.208C91.392 253.784 91.5227 254.307 91.784 254.776C92.0453 255.24 92.3947 255.611 92.832 255.888C93.2693 256.16 93.7493 256.296 94.272 256.296ZM105.812 257.208H104.524L102.284 253.344L100.684 255.256V257.208H99.5645V245.208H100.684V253.512L104.292 249.208H105.756L103.044 252.432L105.812 257.208ZM107.314 249.208H108.434V257.208H107.314V249.208ZM107.882 247.808C107.701 247.808 107.546 247.75 107.418 247.632C107.296 247.51 107.234 247.358 107.234 247.176C107.234 246.995 107.296 246.846 107.418 246.728C107.546 246.606 107.701 246.544 107.882 246.544C108.058 246.544 108.208 246.606 108.33 246.728C108.458 246.846 108.522 246.995 108.522 247.176C108.522 247.358 108.461 247.51 108.338 247.632C108.216 247.75 108.064 247.808 107.882 247.808ZM117.306 252.256V257.208H116.186V252.48C116.186 252.043 116.079 251.646 115.866 251.288C115.653 250.931 115.367 250.646 115.01 250.432C114.653 250.219 114.255 250.112 113.818 250.112C113.386 250.112 112.989 250.219 112.626 250.432C112.269 250.646 111.983 250.931 111.77 251.288C111.557 251.646 111.45 252.043 111.45 252.48V257.208H110.33V249.208H111.45V250.312C111.733 249.907 112.101 249.584 112.554 249.344C113.007 249.104 113.501 248.984 114.034 248.984C114.637 248.984 115.186 249.131 115.682 249.424C116.178 249.718 116.573 250.112 116.866 250.608C117.159 251.104 117.306 251.654 117.306 252.256ZM125.112 249.208H126.232V257.504C126.232 258.016 126.12 258.496 125.896 258.944C125.677 259.392 125.379 259.784 125 260.12C124.627 260.462 124.2 260.728 123.72 260.92C123.24 261.112 122.741 261.208 122.224 261.208C121.669 261.208 121.133 261.08 120.616 260.824C120.099 260.574 119.648 260.238 119.264 259.816C118.885 259.395 118.616 258.928 118.456 258.416L119.488 257.944C119.589 258.344 119.779 258.704 120.056 259.024C120.339 259.35 120.669 259.606 121.048 259.792C121.432 259.984 121.824 260.08 122.224 260.08C122.592 260.08 122.947 260.011 123.288 259.872C123.635 259.739 123.944 259.555 124.216 259.32C124.493 259.086 124.712 258.811 124.872 258.496C125.032 258.187 125.112 257.856 125.112 257.504V255.736C124.835 256.238 124.459 256.643 123.984 256.952C123.515 257.262 122.968 257.416 122.344 257.416C121.784 257.416 121.256 257.307 120.76 257.088C120.269 256.87 119.837 256.568 119.464 256.184C119.091 255.795 118.797 255.347 118.584 254.84C118.376 254.334 118.272 253.79 118.272 253.208C118.272 252.627 118.376 252.083 118.584 251.576C118.797 251.064 119.091 250.616 119.464 250.232C119.837 249.843 120.269 249.539 120.76 249.32C121.256 249.102 121.784 248.992 122.344 248.992C122.968 248.992 123.515 249.147 123.984 249.456C124.459 249.76 124.835 250.166 125.112 250.672V249.208ZM122.352 256.328C122.907 256.328 123.384 256.184 123.784 255.896C124.189 255.608 124.501 255.227 124.72 254.752C124.939 254.278 125.048 253.763 125.048 253.208C125.048 252.638 124.936 252.118 124.712 251.648C124.493 251.174 124.181 250.795 123.776 250.512C123.371 250.224 122.896 250.08 122.352 250.08C121.808 250.08 121.312 250.222 120.864 250.504C120.421 250.782 120.069 251.158 119.808 251.632C119.547 252.107 119.416 252.632 119.416 253.208C119.416 253.784 119.549 254.31 119.816 254.784C120.083 255.254 120.437 255.63 120.88 255.912C121.328 256.19 121.819 256.328 122.352 256.328Z" fill="#535662"/>
</g>
<defs>
<filter id="filter0_d_2178_65" x="-3.05176e-05" y="-0.00012207" width="463.772" height="309.772" filterUnits="userSpaceOnUse" color-interpolation-filters="sRGB">
<feFlood flood-opacity="0" result="BackgroundImageFix"/>
<feColorMatrix in="SourceAlpha" type="matrix" values="0 0 0 0 0 0 0 0 0 0 0 0 0 0 0 0 0 0 127 0" result="hardAlpha"/>
<feOffset dy="3.67715"/>
<feGaussianBlur stdDeviation="9.19289"/>
<feComposite in2="hardAlpha" operator="out"/>
<feColorMatrix type="matrix" values="0 0 0 0 0.0468057 0 0 0 0 0.0634939 0 0 0 0 0.129808 0 0 0 0.1 0"/>
<feBlend mode="normal" in2="BackgroundImageFix" result="effect1_dropShadow_2178_65"/>
<feBlend mode="normal" in="SourceGraphic" in2="effect1_dropShadow_2178_65" result="shape"/>
</filter>
</defs>
</svg>
