<svg width="464" height="357" viewBox="0 0 464 357" fill="none" xmlns="http://www.w3.org/2000/svg">
<g filter="url(#filter0_d_2175_32)">
<rect x="18.3857" y="14.7085" width="427" height="320" rx="22.0629" fill="white" shape-rendering="crispEdges"/>
<rect x="18.8454" y="15.1681" width="426.081" height="319.081" rx="21.6033" stroke="#0C1021" stroke-opacity="0.05" stroke-width="0.919289" shape-rendering="crispEdges"/>
<path d="M49.4537 46.9085H52.3697L58.4777 63.7085H55.8377L54.6737 60.5165H47.1497L45.9977 63.7085H43.3457L49.4537 46.9085ZM48.0737 58.0205H53.7497L50.9057 50.2205L48.0737 58.0205ZM60.9436 63.7085V46.9085H63.4396V63.7085H60.9436ZM81.7789 51.7085H84.2749V63.7085H81.7669L81.6709 61.9685C81.3189 62.5845 80.8429 63.0805 80.2429 63.4565C79.6429 63.8325 78.9349 64.0205 78.1189 64.0205C77.2389 64.0205 76.4109 63.8565 75.6349 63.5285C74.8589 63.1925 74.1749 62.7285 73.5829 62.1365C72.9989 61.5445 72.5429 60.8645 72.2149 60.0965C71.8869 59.3205 71.7229 58.4885 71.7229 57.6005C71.7229 56.7445 71.8829 55.9405 72.2029 55.1885C72.5229 54.4285 72.9669 53.7645 73.5349 53.1965C74.1029 52.6285 74.7589 52.1845 75.5029 51.8645C76.2549 51.5365 77.0589 51.3725 77.9149 51.3725C78.7869 51.3725 79.5549 51.5725 80.2189 51.9725C80.8909 52.3645 81.4469 52.8685 81.8869 53.4845L81.7789 51.7085ZM78.0589 61.6085C78.7629 61.6085 79.3789 61.4365 79.9069 61.0925C80.4349 60.7405 80.8429 60.2685 81.1309 59.6765C81.4269 59.0845 81.5749 58.4285 81.5749 57.7085C81.5749 56.9805 81.4269 56.3205 81.1309 55.7285C80.8349 55.1365 80.4229 54.6685 79.8949 54.3245C79.3749 53.9725 78.7629 53.7965 78.0589 53.7965C77.3629 53.7965 76.7269 53.9725 76.1509 54.3245C75.5749 54.6765 75.1189 55.1485 74.7829 55.7405C74.4469 56.3325 74.2789 56.9885 74.2789 57.7085C74.2789 58.4365 74.4509 59.0965 74.7949 59.6885C75.1469 60.2725 75.6069 60.7405 76.1749 61.0925C76.7509 61.4365 77.3789 61.6085 78.0589 61.6085ZM95.5671 51.7085H98.0631V64.0205C98.0631 64.8445 97.8871 65.6045 97.5351 66.3005C97.1911 66.9965 96.7231 67.5965 96.1311 68.1005C95.5391 68.6125 94.8591 69.0085 94.0911 69.2885C93.3311 69.5685 92.5351 69.7085 91.7031 69.7085C90.8631 69.7085 90.0551 69.5285 89.2791 69.1685C88.5031 68.8165 87.8191 68.3365 87.2271 67.7285C86.6431 67.1205 86.2071 66.4325 85.9191 65.6645L88.2111 64.6325C88.3711 65.1285 88.6271 65.5685 88.9791 65.9525C89.3391 66.3365 89.7551 66.6405 90.2271 66.8645C90.7071 67.0885 91.1991 67.2005 91.7031 67.2005C92.1991 67.2005 92.6751 67.1205 93.1311 66.9605C93.5951 66.8085 94.0071 66.5925 94.3671 66.3125C94.7351 66.0325 95.0271 65.6965 95.2431 65.3045C95.4591 64.9125 95.5671 64.4845 95.5671 64.0205V61.9925C95.1751 62.6005 94.6711 63.0925 94.0551 63.4685C93.4391 63.8365 92.7231 64.0205 91.9071 64.0205C91.0591 64.0205 90.2591 63.8565 89.5071 63.5285C88.7551 63.2005 88.0951 62.7485 87.5271 62.1725C86.9591 61.5885 86.5151 60.9165 86.1951 60.1565C85.8751 59.3965 85.7151 58.5805 85.7151 57.7085C85.7151 56.8365 85.8751 56.0205 86.1951 55.2605C86.5151 54.4925 86.9591 53.8205 87.5271 53.2445C88.0951 52.6605 88.7551 52.2045 89.5071 51.8765C90.2591 51.5485 91.0591 51.3845 91.9071 51.3845C92.7231 51.3845 93.4391 51.5725 94.0551 51.9485C94.6711 52.3165 95.1751 52.8085 95.5671 53.4245V51.7085ZM91.9311 61.6085C92.6271 61.6085 93.2351 61.4325 93.7551 61.0805C94.2751 60.7205 94.6791 60.2445 94.9671 59.6525C95.2551 59.0605 95.3991 58.4125 95.3991 57.7085C95.3991 56.9885 95.2511 56.3365 94.9551 55.7525C94.6671 55.1605 94.2631 54.6885 93.7431 54.3365C93.2231 53.9765 92.6191 53.7965 91.9311 53.7965C91.2591 53.7965 90.6431 53.9725 90.0831 54.3245C89.5311 54.6765 89.0911 55.1485 88.7631 55.7405C88.4351 56.3325 88.2711 56.9885 88.2711 57.7085C88.2711 58.4285 88.4351 59.0845 88.7631 59.6765C89.0991 60.2685 89.5431 60.7405 90.0951 61.0925C90.6551 61.4365 91.2671 61.6085 91.9311 61.6085ZM106.012 64.0205C104.908 64.0205 103.9 63.7365 102.988 63.1685C102.084 62.6005 101.36 61.8405 100.816 60.8885C100.28 59.9285 100.012 58.8685 100.012 57.7085C100.012 56.8285 100.168 56.0085 100.48 55.2485C100.792 54.4805 101.22 53.8085 101.764 53.2325C102.316 52.6485 102.956 52.1925 103.684 51.8645C104.412 51.5365 105.188 51.3725 106.012 51.3725C106.932 51.3725 107.776 51.5645 108.544 51.9485C109.312 52.3245 109.968 52.8485 110.512 53.5205C111.056 54.1845 111.456 54.9525 111.712 55.8245C111.968 56.6885 112.044 57.6085 111.94 58.5845H102.688C102.792 59.1365 102.992 59.6365 103.288 60.0845C103.592 60.5245 103.976 60.8725 104.44 61.1285C104.912 61.3845 105.436 61.5165 106.012 61.5245C106.62 61.5245 107.172 61.3725 107.668 61.0685C108.172 60.7645 108.584 60.3445 108.904 59.8085L111.436 60.3965C110.956 61.4605 110.232 62.3325 109.264 63.0125C108.296 63.6845 107.212 64.0205 106.012 64.0205ZM102.604 56.6765H109.42C109.34 56.1005 109.136 55.5805 108.808 55.1165C108.488 54.6445 108.084 54.2725 107.596 54.0005C107.116 53.7205 106.588 53.5805 106.012 53.5805C105.444 53.5805 104.916 53.7165 104.428 53.9885C103.948 54.2605 103.548 54.6325 103.228 55.1045C102.916 55.5685 102.708 56.0925 102.604 56.6765ZM124.727 56.1845V63.7085H122.231V56.7965C122.231 56.2605 122.099 55.7725 121.835 55.3325C121.579 54.8925 121.231 54.5445 120.791 54.2885C120.359 54.0245 119.871 53.8925 119.327 53.8925C118.799 53.8925 118.315 54.0245 117.875 54.2885C117.435 54.5445 117.083 54.8925 116.819 55.3325C116.555 55.7725 116.423 56.2605 116.423 56.7965V63.7085H113.927V51.7085H116.423V52.9805C116.839 52.4845 117.351 52.0925 117.959 51.8045C118.567 51.5165 119.223 51.3725 119.927 51.3725C120.815 51.3725 121.623 51.5885 122.351 52.0205C123.079 52.4525 123.655 53.0325 124.079 53.7605C124.511 54.4885 124.727 55.2965 124.727 56.1845ZM133.459 54.2045H130.939L130.927 63.7085H128.431L128.443 54.2045H126.535V51.7085H128.443L128.431 47.9405H130.927L130.939 51.7085H133.459V54.2045Z" fill="#0C1021"/>
<rect x="329.386" y="38.7085" width="92" height="33" rx="16" fill="#3DEC82" fill-opacity="0.15"/>
<path d="M346.762 59.8905C346.099 59.8905 345.476 59.7598 344.893 59.4985C344.309 59.2325 343.796 58.8685 343.353 58.4065C342.914 57.9398 342.569 57.3985 342.317 56.7825C342.069 56.1665 341.946 55.5085 341.946 54.8085C341.946 54.1085 342.069 53.4505 342.317 52.8345C342.569 52.2185 342.914 51.6795 343.353 51.2175C343.796 50.7508 344.309 50.3868 344.893 50.1255C345.476 49.8595 346.099 49.7265 346.762 49.7265C347.555 49.7265 348.285 49.9108 348.953 50.2795C349.62 50.6482 350.173 51.1382 350.612 51.7495L349.744 52.2185C349.398 51.7565 348.96 51.3902 348.428 51.1195C347.9 50.8442 347.345 50.7065 346.762 50.7065C346.225 50.7065 345.723 50.8162 345.257 51.0355C344.795 51.2502 344.389 51.5465 344.039 51.9245C343.689 52.3025 343.416 52.7388 343.22 53.2335C343.024 53.7282 342.926 54.2532 342.926 54.8085C342.926 55.3732 343.024 55.9028 343.22 56.3975C343.42 56.8922 343.696 57.3285 344.046 57.7065C344.4 58.0845 344.809 58.3808 345.271 58.5955C345.737 58.8055 346.234 58.9105 346.762 58.9105C347.368 58.9105 347.931 58.7728 348.449 58.4975C348.971 58.2175 349.403 57.8535 349.744 57.4055L350.612 57.8745C350.173 58.4858 349.62 58.9758 348.953 59.3445C348.285 59.7085 347.555 59.8905 346.762 59.8905ZM354.739 59.8905C354.095 59.8905 353.507 59.7248 352.975 59.3935C352.448 59.0622 352.026 58.6188 351.708 58.0635C351.396 57.5035 351.239 56.8852 351.239 56.2085C351.239 55.6952 351.33 55.2168 351.512 54.7735C351.694 54.3255 351.944 53.9335 352.261 53.5975C352.583 53.2568 352.957 52.9908 353.381 52.7995C353.806 52.6082 354.259 52.5125 354.739 52.5125C355.383 52.5125 355.969 52.6782 356.496 53.0095C357.028 53.3408 357.451 53.7865 357.763 54.3465C358.081 54.9065 358.239 55.5272 358.239 56.2085C358.239 56.7172 358.148 57.1932 357.966 57.6365C357.784 58.0798 357.532 58.4718 357.21 58.8125C356.893 59.1485 356.522 59.4122 356.097 59.6035C355.677 59.7948 355.225 59.8905 354.739 59.8905ZM354.739 58.9105C355.215 58.9105 355.642 58.7868 356.02 58.5395C356.403 58.2875 356.704 57.9562 356.923 57.5455C357.147 57.1348 357.259 56.6892 357.259 56.2085C357.259 55.7185 357.147 55.2682 356.923 54.8575C356.699 54.4422 356.396 54.1108 356.013 53.8635C355.635 53.6162 355.211 53.4925 354.739 53.4925C354.263 53.4925 353.834 53.6185 353.451 53.8705C353.073 54.1178 352.772 54.4468 352.548 54.8575C352.329 55.2682 352.219 55.7185 352.219 56.2085C352.219 56.7125 352.334 57.1698 352.562 57.5805C352.791 57.9865 353.097 58.3108 353.479 58.5535C353.862 58.7915 354.282 58.9105 354.739 58.9105ZM365.529 55.3755V59.7085H364.549V55.5715C364.549 55.1888 364.456 54.8412 364.269 54.5285C364.082 54.2158 363.833 53.9662 363.52 53.7795C363.207 53.5928 362.86 53.4995 362.477 53.4995C362.099 53.4995 361.751 53.5928 361.434 53.7795C361.121 53.9662 360.872 54.2158 360.685 54.5285C360.498 54.8412 360.405 55.1888 360.405 55.5715V59.7085H359.425V52.7085H360.405V53.6745C360.652 53.3198 360.974 53.0375 361.371 52.8275C361.768 52.6175 362.199 52.5125 362.666 52.5125C363.193 52.5125 363.674 52.6408 364.108 52.8975C364.542 53.1542 364.887 53.4995 365.144 53.9335C365.401 54.3675 365.529 54.8482 365.529 55.3755ZM373.035 55.3755V59.7085H372.055V55.5715C372.055 55.1888 371.961 54.8412 371.775 54.5285C371.588 54.2158 371.338 53.9662 371.026 53.7795C370.713 53.5928 370.365 53.4995 369.983 53.4995C369.605 53.4995 369.257 53.5928 368.94 53.7795C368.627 53.9662 368.377 54.2158 368.191 54.5285C368.004 54.8412 367.911 55.1888 367.911 55.5715V59.7085H366.931V52.7085H367.911V53.6745C368.158 53.3198 368.48 53.0375 368.877 52.8275C369.273 52.6175 369.705 52.5125 370.172 52.5125C370.699 52.5125 371.18 52.6408 371.614 52.8975C372.048 53.1542 372.393 53.4995 372.65 53.9335C372.906 54.3675 373.035 54.8482 373.035 55.3755ZM377.38 59.8905C376.736 59.8905 376.148 59.7248 375.616 59.3935C375.089 59.0622 374.666 58.6188 374.349 58.0635C374.036 57.5035 373.88 56.8852 373.88 56.2085C373.88 55.6952 373.971 55.2168 374.153 54.7735C374.335 54.3255 374.585 53.9335 374.902 53.5975C375.224 53.2568 375.597 52.9908 376.022 52.7995C376.447 52.6082 376.899 52.5125 377.38 52.5125C377.898 52.5125 378.374 52.6152 378.808 52.8205C379.247 53.0258 379.622 53.3128 379.935 53.6815C380.252 54.0502 380.49 54.4818 380.649 54.9765C380.812 55.4712 380.88 56.0055 380.852 56.5795H374.916C374.972 57.0228 375.112 57.4195 375.336 57.7695C375.565 58.1195 375.854 58.3972 376.204 58.6025C376.559 58.8032 376.951 58.9058 377.38 58.9105C377.847 58.9105 378.267 58.7892 378.64 58.5465C379.018 58.3038 379.321 57.9702 379.55 57.5455L380.544 57.7765C380.264 58.3972 379.842 58.9058 379.277 59.3025C378.712 59.6945 378.08 59.8905 377.38 59.8905ZM374.888 55.7885H379.865C379.832 55.3545 379.699 54.9578 379.466 54.5985C379.237 54.2345 378.941 53.9452 378.577 53.7305C378.213 53.5112 377.814 53.4015 377.38 53.4015C376.946 53.4015 376.549 53.5088 376.19 53.7235C375.831 53.9335 375.537 54.2205 375.308 54.5845C375.079 54.9438 374.939 55.3452 374.888 55.7885ZM386.982 57.9515L387.857 58.4275C387.539 58.8708 387.136 59.2255 386.646 59.4915C386.16 59.7575 385.633 59.8905 385.064 59.8905C384.42 59.8905 383.832 59.7248 383.3 59.3935C382.772 59.0622 382.35 58.6188 382.033 58.0635C381.72 57.5035 381.564 56.8852 381.564 56.2085C381.564 55.6952 381.655 55.2168 381.837 54.7735C382.019 54.3255 382.268 53.9335 382.586 53.5975C382.908 53.2568 383.281 52.9908 383.706 52.7995C384.13 52.6082 384.583 52.5125 385.064 52.5125C385.633 52.5125 386.16 52.6455 386.646 52.9115C387.136 53.1775 387.539 53.5345 387.857 53.9825L386.982 54.4515C386.739 54.1435 386.447 53.9078 386.107 53.7445C385.766 53.5765 385.418 53.4925 385.064 53.4925C384.592 53.4925 384.165 53.6185 383.783 53.8705C383.4 54.1178 383.097 54.4468 382.873 54.8575C382.653 55.2682 382.544 55.7185 382.544 56.2085C382.544 56.6985 382.656 57.1488 382.88 57.5595C383.108 57.9702 383.414 58.2992 383.797 58.5465C384.179 58.7892 384.602 58.9105 385.064 58.9105C385.446 58.9105 385.806 58.8218 386.142 58.6445C386.478 58.4672 386.758 58.2362 386.982 57.9515ZM392.697 53.6885H391.024L391.017 59.7085H390.037L390.044 53.6885H388.777V52.7085H390.044L390.037 50.5105H391.017L391.024 52.7085H392.697V53.6885ZM396.835 59.8905C396.191 59.8905 395.603 59.7248 395.071 59.3935C394.544 59.0622 394.121 58.6188 393.804 58.0635C393.491 57.5035 393.335 56.8852 393.335 56.2085C393.335 55.6952 393.426 55.2168 393.608 54.7735C393.79 54.3255 394.04 53.9335 394.357 53.5975C394.679 53.2568 395.052 52.9908 395.477 52.7995C395.902 52.6082 396.354 52.5125 396.835 52.5125C397.353 52.5125 397.829 52.6152 398.263 52.8205C398.702 53.0258 399.077 53.3128 399.39 53.6815C399.707 54.0502 399.945 54.4818 400.104 54.9765C400.267 55.4712 400.335 56.0055 400.307 56.5795H394.371C394.427 57.0228 394.567 57.4195 394.791 57.7695C395.02 58.1195 395.309 58.3972 395.659 58.6025C396.014 58.8032 396.406 58.9058 396.835 58.9105C397.302 58.9105 397.722 58.7892 398.095 58.5465C398.473 58.3038 398.776 57.9702 399.005 57.5455L399.999 57.7765C399.719 58.3972 399.297 58.9058 398.732 59.3025C398.167 59.6945 397.535 59.8905 396.835 59.8905ZM394.343 55.7885H399.32C399.287 55.3545 399.154 54.9578 398.921 54.5985C398.692 54.2345 398.396 53.9452 398.032 53.7305C397.668 53.5112 397.269 53.4015 396.835 53.4015C396.401 53.4015 396.004 53.5088 395.645 53.7235C395.286 53.9335 394.992 54.2205 394.763 54.5845C394.534 54.9438 394.394 55.3452 394.343 55.7885ZM407.2 49.2085H408.18V59.7085H407.2V58.3995C406.957 58.8475 406.623 59.2092 406.199 59.4845C405.779 59.7552 405.279 59.8905 404.701 59.8905C404.192 59.8905 403.716 59.7948 403.273 59.6035C402.829 59.4122 402.437 59.1485 402.097 58.8125C401.761 58.4718 401.497 58.0798 401.306 57.6365C401.114 57.1932 401.019 56.7172 401.019 56.2085C401.019 55.6998 401.114 55.2238 401.306 54.7805C401.497 54.3325 401.761 53.9405 402.097 53.6045C402.437 53.2638 402.829 52.9978 403.273 52.8065C403.716 52.6152 404.192 52.5195 404.701 52.5195C405.279 52.5195 405.779 52.6572 406.199 52.9325C406.623 53.2032 406.957 53.5602 407.2 54.0035V49.2085ZM404.708 58.9385C405.207 58.9385 405.636 58.8172 405.996 58.5745C406.355 58.3272 406.63 57.9958 406.822 57.5805C407.018 57.1652 407.116 56.7078 407.116 56.2085C407.116 55.6952 407.018 55.2332 406.822 54.8225C406.626 54.4072 406.348 54.0782 405.989 53.8355C405.629 53.5928 405.202 53.4715 404.708 53.4715C404.213 53.4715 403.763 53.5952 403.357 53.8425C402.951 54.0852 402.626 54.4142 402.384 54.8295C402.141 55.2448 402.02 55.7045 402.02 56.2085C402.02 56.7172 402.143 57.1792 402.391 57.5945C402.638 58.0052 402.965 58.3318 403.371 58.5745C403.781 58.8172 404.227 58.9385 404.708 58.9385Z" fill="#28BC62"/>
<path d="M43.2257 109.708V99.9085H44.2057V108.728H48.7067V109.708H43.2257ZM55.2825 102.708H56.2625V109.708H55.2825L55.2475 108.406C55.0188 108.85 54.6991 109.209 54.2885 109.484C53.8778 109.755 53.3878 109.89 52.8185 109.89C52.3051 109.89 51.8245 109.795 51.3765 109.603C50.9285 109.407 50.5341 109.139 50.1935 108.798C49.8528 108.458 49.5868 108.063 49.3955 107.615C49.2041 107.167 49.1085 106.687 49.1085 106.173C49.1085 105.669 49.2018 105.196 49.3885 104.752C49.5798 104.309 49.8411 103.919 50.1725 103.583C50.5085 103.247 50.8958 102.986 51.3345 102.799C51.7778 102.608 52.2515 102.512 52.7555 102.512C53.3388 102.512 53.8475 102.652 54.2815 102.932C54.7155 103.208 55.0608 103.569 55.3175 104.017L55.2825 102.708ZM52.7975 108.938C53.2968 108.938 53.7261 108.817 54.0855 108.574C54.4448 108.327 54.7201 107.996 54.9115 107.58C55.1075 107.165 55.2055 106.708 55.2055 106.208C55.2055 105.695 55.1075 105.233 54.9115 104.822C54.7155 104.407 54.4378 104.078 54.0785 103.835C53.7191 103.593 53.2921 103.471 52.7975 103.471C52.3028 103.471 51.8501 103.595 51.4395 103.842C51.0335 104.085 50.7091 104.414 50.4665 104.829C50.2285 105.245 50.1095 105.704 50.1095 106.208C50.1095 106.717 50.2331 107.179 50.4805 107.594C50.7278 108.005 51.0545 108.332 51.4605 108.574C51.8711 108.817 52.3168 108.938 52.7975 108.938ZM63.7672 105.375V109.708H62.7872V105.571C62.7872 105.189 62.6939 104.841 62.5072 104.528C62.3206 104.216 62.0709 103.966 61.7582 103.779C61.4456 103.593 61.0979 103.499 60.7152 103.499C60.3372 103.499 59.9896 103.593 59.6722 103.779C59.3596 103.966 59.1099 104.216 58.9232 104.528C58.7366 104.841 58.6432 105.189 58.6432 105.571V109.708H57.6632V102.708H58.6432V103.674C58.8906 103.32 59.2126 103.037 59.6092 102.827C60.0059 102.617 60.4376 102.512 60.9042 102.512C61.4316 102.512 61.9122 102.641 62.3462 102.897C62.7802 103.154 63.1256 103.499 63.3822 103.933C63.6389 104.367 63.7672 104.848 63.7672 105.375ZM70.5974 102.708H71.5774V109.967C71.5774 110.415 71.4794 110.835 71.2834 111.227C71.092 111.619 70.8307 111.962 70.4994 112.256C70.1727 112.555 69.7994 112.788 69.3794 112.956C68.9594 113.124 68.523 113.208 68.0704 113.208C67.585 113.208 67.116 113.096 66.6634 112.872C66.2107 112.653 65.8164 112.359 65.4804 111.99C65.149 111.622 64.9134 111.213 64.7734 110.765L65.6764 110.352C65.765 110.702 65.9307 111.017 66.1734 111.297C66.4207 111.582 66.71 111.806 67.0414 111.969C67.3774 112.137 67.7204 112.221 68.0704 112.221C68.3924 112.221 68.7027 112.161 69.0014 112.039C69.3047 111.923 69.5754 111.762 69.8134 111.556C70.056 111.351 70.2474 111.111 70.3874 110.835C70.5274 110.565 70.5974 110.275 70.5974 109.967V108.42C70.3547 108.859 70.0257 109.214 69.6104 109.484C69.1997 109.755 68.7214 109.89 68.1754 109.89C67.6854 109.89 67.2234 109.795 66.7894 109.603C66.36 109.412 65.982 109.148 65.6554 108.812C65.3287 108.472 65.072 108.08 64.8854 107.636C64.7034 107.193 64.6124 106.717 64.6124 106.208C64.6124 105.7 64.7034 105.224 64.8854 104.78C65.072 104.332 65.3287 103.94 65.6554 103.604C65.982 103.264 66.36 102.998 66.7894 102.806C67.2234 102.615 67.6854 102.519 68.1754 102.519C68.7214 102.519 69.1997 102.655 69.6104 102.925C70.0257 103.191 70.3547 103.546 70.5974 103.989V102.708ZM68.1824 108.938C68.6677 108.938 69.0854 108.812 69.4354 108.56C69.79 108.308 70.063 107.975 70.2544 107.559C70.4457 107.144 70.5414 106.694 70.5414 106.208C70.5414 105.709 70.4434 105.254 70.2474 104.843C70.056 104.428 69.783 104.097 69.4284 103.849C69.0737 103.597 68.6584 103.471 68.1824 103.471C67.7064 103.471 67.2724 103.595 66.8804 103.842C66.493 104.085 66.185 104.414 65.9564 104.829C65.7277 105.245 65.6134 105.704 65.6134 106.208C65.6134 106.712 65.73 107.172 65.9634 107.587C66.1967 107.998 66.507 108.327 66.8944 108.574C67.2864 108.817 67.7157 108.938 68.1824 108.938ZM72.8871 107.027V102.708H73.8671V106.831C73.8671 107.214 73.9605 107.562 74.1471 107.874C74.3338 108.187 74.5835 108.437 74.8961 108.623C75.2135 108.81 75.5611 108.903 75.9391 108.903C76.3218 108.903 76.6671 108.81 76.9751 108.623C77.2878 108.437 77.5375 108.187 77.7241 107.874C77.9108 107.562 78.0041 107.214 78.0041 106.831V102.708H78.9841L78.9911 109.708H78.0111L78.0041 108.728C77.7568 109.083 77.4348 109.365 77.0381 109.575C76.6461 109.785 76.2168 109.89 75.7501 109.89C75.2228 109.89 74.7421 109.762 74.3081 109.505C73.8741 109.249 73.5288 108.903 73.2721 108.469C73.0155 108.035 72.8871 107.555 72.8871 107.027ZM86.0852 102.708H87.0652V109.708H86.0852L86.0502 108.406C85.8215 108.85 85.5019 109.209 85.0912 109.484C84.6805 109.755 84.1905 109.89 83.6212 109.89C83.1079 109.89 82.6272 109.795 82.1792 109.603C81.7312 109.407 81.3369 109.139 80.9962 108.798C80.6555 108.458 80.3895 108.063 80.1982 107.615C80.0069 107.167 79.9112 106.687 79.9112 106.173C79.9112 105.669 80.0045 105.196 80.1912 104.752C80.3825 104.309 80.6439 103.919 80.9752 103.583C81.3112 103.247 81.6985 102.986 82.1372 102.799C82.5805 102.608 83.0542 102.512 83.5582 102.512C84.1415 102.512 84.6502 102.652 85.0842 102.932C85.5182 103.208 85.8635 103.569 86.1202 104.017L86.0852 102.708ZM83.6002 108.938C84.0995 108.938 84.5289 108.817 84.8882 108.574C85.2475 108.327 85.5229 107.996 85.7142 107.58C85.9102 107.165 86.0082 106.708 86.0082 106.208C86.0082 105.695 85.9102 105.233 85.7142 104.822C85.5182 104.407 85.2405 104.078 84.8812 103.835C84.5219 103.593 84.0949 103.471 83.6002 103.471C83.1055 103.471 82.6529 103.595 82.2422 103.842C81.8362 104.085 81.5119 104.414 81.2692 104.829C81.0312 105.245 80.9122 105.704 80.9122 106.208C80.9122 106.717 81.0359 107.179 81.2832 107.594C81.5305 108.005 81.8572 108.332 82.2632 108.574C82.6739 108.817 83.1195 108.938 83.6002 108.938ZM93.8943 102.708H94.8743V109.967C94.8743 110.415 94.7763 110.835 94.5803 111.227C94.3889 111.619 94.1276 111.962 93.7963 112.256C93.4696 112.555 93.0963 112.788 92.6763 112.956C92.2563 113.124 91.8199 113.208 91.3673 113.208C90.8819 113.208 90.4129 113.096 89.9603 112.872C89.5076 112.653 89.1133 112.359 88.7773 111.99C88.4459 111.622 88.2103 111.213 88.0703 110.765L88.9733 110.352C89.0619 110.702 89.2276 111.017 89.4703 111.297C89.7176 111.582 90.0069 111.806 90.3383 111.969C90.6743 112.137 91.0173 112.221 91.3673 112.221C91.6893 112.221 91.9996 112.161 92.2983 112.039C92.6016 111.923 92.8723 111.762 93.1103 111.556C93.3529 111.351 93.5443 111.111 93.6843 110.835C93.8243 110.565 93.8943 110.275 93.8943 109.967V108.42C93.6516 108.859 93.3226 109.214 92.9073 109.484C92.4966 109.755 92.0183 109.89 91.4723 109.89C90.9823 109.89 90.5203 109.795 90.0863 109.603C89.6569 109.412 89.2789 109.148 88.9523 108.812C88.6256 108.472 88.3689 108.08 88.1823 107.636C88.0003 107.193 87.9093 106.717 87.9093 106.208C87.9093 105.7 88.0003 105.224 88.1823 104.78C88.3689 104.332 88.6256 103.94 88.9523 103.604C89.2789 103.264 89.6569 102.998 90.0863 102.806C90.5203 102.615 90.9823 102.519 91.4723 102.519C92.0183 102.519 92.4966 102.655 92.9073 102.925C93.3226 103.191 93.6516 103.546 93.8943 103.989V102.708ZM91.4793 108.938C91.9646 108.938 92.3823 108.812 92.7323 108.56C93.0869 108.308 93.3599 107.975 93.5513 107.559C93.7426 107.144 93.8383 106.694 93.8383 106.208C93.8383 105.709 93.7403 105.254 93.5443 104.843C93.3529 104.428 93.0799 104.097 92.7253 103.849C92.3706 103.597 91.9553 103.471 91.4793 103.471C91.0033 103.471 90.5693 103.595 90.1773 103.842C89.7899 104.085 89.4819 104.414 89.2533 104.829C89.0246 105.245 88.9103 105.704 88.9103 106.208C88.9103 106.712 89.0269 107.172 89.2603 107.587C89.4936 107.998 89.8039 108.327 90.1913 108.574C90.5833 108.817 91.0126 108.938 91.4793 108.938ZM99.5714 109.89C98.9274 109.89 98.3394 109.725 97.8074 109.393C97.28 109.062 96.8577 108.619 96.5404 108.063C96.2277 107.503 96.0714 106.885 96.0714 106.208C96.0714 105.695 96.1624 105.217 96.3444 104.773C96.5264 104.325 96.776 103.933 97.0934 103.597C97.4154 103.257 97.7887 102.991 98.2134 102.799C98.638 102.608 99.0907 102.512 99.5714 102.512C100.089 102.512 100.565 102.615 100.999 102.82C101.438 103.026 101.814 103.313 102.126 103.681C102.444 104.05 102.682 104.482 102.84 104.976C103.004 105.471 103.071 106.005 103.043 106.579H97.1074C97.1634 107.023 97.3034 107.419 97.5274 107.769C97.756 108.119 98.0454 108.397 98.3954 108.602C98.75 108.803 99.142 108.906 99.5714 108.91C100.038 108.91 100.458 108.789 100.831 108.546C101.209 108.304 101.513 107.97 101.741 107.545L102.735 107.776C102.455 108.397 102.033 108.906 101.468 109.302C100.904 109.694 100.271 109.89 99.5714 109.89ZM97.0794 105.788H102.056C102.024 105.354 101.891 104.958 101.657 104.598C101.429 104.234 101.132 103.945 100.768 103.73C100.404 103.511 100.005 103.401 99.5714 103.401C99.1374 103.401 98.7407 103.509 98.3814 103.723C98.022 103.933 97.728 104.22 97.4994 104.584C97.2707 104.944 97.1307 105.345 97.0794 105.788Z" fill="#535662"/>
<g clip-path="url(#clip0_2175_32)">
<mask id="mask0_2175_32" style="mask-type:luminance" maskUnits="userSpaceOnUse" x="346" y="95" width="20" height="20">
<path d="M355.886 114.708C361.132 114.708 365.386 110.455 365.386 105.208C365.386 99.9618 361.132 95.7085 355.886 95.7085C350.639 95.7085 346.386 99.9618 346.386 105.208C346.386 110.455 350.639 114.708 355.886 114.708Z" fill="white"/>
</mask>
<g mask="url(#mask0_2175_32)">
<path d="M346.386 95.7085L346.683 96.5249L346.386 97.3784V98.2319L347.573 100.236L346.386 102.24V103.427L347.573 105.208L346.386 106.99V108.177L347.573 110.181L346.386 112.185V114.708L347.202 114.412L348.056 114.708H348.909L350.913 113.521L352.917 114.708H354.104L355.886 113.521L357.667 114.708H358.854L360.858 113.521L362.862 114.708H365.386L365.089 113.892L365.386 113.039V112.185L364.198 110.181L365.386 108.177V106.99L364.198 105.208L365.386 103.427V102.24L364.198 100.236L365.386 98.2319V95.7085L364.569 96.0054L363.716 95.7085H362.862L360.858 96.896L358.854 95.7085H357.667L355.886 96.896L354.104 95.7085H352.917L350.913 96.896L348.909 95.7085H346.386Z" fill="#EEEEEE"/>
<path d="M358.854 95.7085V99.7163L362.862 95.7085H358.854ZM365.386 98.2319L361.378 102.24H365.386V98.2319ZM346.386 102.24H350.394L346.386 98.2319V102.24ZM348.909 95.7085L352.917 99.7163V95.7085H348.909ZM352.917 114.708V110.701L348.909 114.708H352.917ZM346.386 112.185L350.394 108.177H346.386V112.185ZM365.386 108.177H361.378L365.386 112.185V108.177ZM362.862 114.708L358.854 110.701V114.708H362.862Z" fill="#0052B4"/>
<path d="M346.386 95.7085V97.3784L351.247 102.24H352.917L346.386 95.7085ZM354.104 95.7085V103.427H346.386V106.99H354.104V114.708H357.667V106.99H365.386V103.427H357.667V95.7085H354.104ZM363.716 95.7085L358.854 100.57V102.24L365.386 95.7085H363.716ZM352.917 108.177L346.386 114.708H348.056L352.917 109.847V108.177ZM358.854 108.177L365.386 114.708V113.039L360.524 108.177H358.854Z" fill="#D80027"/>
</g>
</g>
<path d="M372.346 110.708V99.5085H379.298V101.172H374.01V103.876H378.266V105.54H374.01V109.044H379.298V110.708H372.346ZM388.264 105.692V110.708H386.6V106.1C386.6 105.743 386.512 105.418 386.336 105.124C386.166 104.831 385.934 104.599 385.64 104.428C385.352 104.252 385.027 104.164 384.664 104.164C384.312 104.164 383.99 104.252 383.696 104.428C383.403 104.599 383.168 104.831 382.992 105.124C382.816 105.418 382.728 105.743 382.728 106.1V110.708H381.064V102.708H382.728V103.556C383.006 103.226 383.347 102.964 383.752 102.772C384.158 102.58 384.595 102.484 385.064 102.484C385.656 102.484 386.195 102.628 386.68 102.916C387.166 103.204 387.55 103.591 387.832 104.076C388.12 104.562 388.264 105.1 388.264 105.692ZM395.793 102.708H397.457V110.916C397.457 111.466 397.34 111.972 397.105 112.436C396.876 112.9 396.564 113.3 396.169 113.636C395.774 113.978 395.321 114.242 394.809 114.428C394.302 114.615 393.772 114.708 393.217 114.708C392.657 114.708 392.118 114.588 391.601 114.348C391.084 114.114 390.628 113.794 390.233 113.388C389.844 112.983 389.553 112.524 389.361 112.012L390.889 111.324C390.996 111.655 391.166 111.948 391.401 112.204C391.641 112.46 391.918 112.663 392.233 112.812C392.553 112.962 392.881 113.036 393.217 113.036C393.548 113.036 393.865 112.983 394.169 112.876C394.478 112.775 394.753 112.631 394.993 112.444C395.238 112.258 395.433 112.034 395.577 111.772C395.721 111.511 395.793 111.226 395.793 110.916V109.564C395.532 109.97 395.196 110.298 394.785 110.548C394.374 110.794 393.897 110.916 393.353 110.916C392.788 110.916 392.254 110.807 391.753 110.588C391.252 110.37 390.812 110.068 390.433 109.684C390.054 109.295 389.758 108.847 389.545 108.34C389.332 107.834 389.225 107.29 389.225 106.708C389.225 106.127 389.332 105.583 389.545 105.076C389.758 104.564 390.054 104.116 390.433 103.732C390.812 103.343 391.252 103.039 391.753 102.82C392.254 102.602 392.788 102.492 393.353 102.492C393.897 102.492 394.374 102.618 394.785 102.868C395.196 103.114 395.532 103.442 395.793 103.852V102.708ZM393.369 109.308C393.833 109.308 394.238 109.191 394.585 108.956C394.932 108.716 395.201 108.399 395.393 108.004C395.585 107.61 395.681 107.178 395.681 106.708C395.681 106.228 395.582 105.794 395.385 105.404C395.193 105.01 394.924 104.695 394.577 104.46C394.23 104.22 393.828 104.1 393.369 104.1C392.921 104.1 392.51 104.218 392.137 104.452C391.769 104.687 391.476 105.002 391.257 105.396C391.038 105.791 390.929 106.228 390.929 106.708C390.929 107.188 391.038 107.626 391.257 108.02C391.481 108.415 391.777 108.73 392.145 108.964C392.518 109.194 392.926 109.308 393.369 109.308ZM399.377 110.708V98.7085H401.041V110.708H399.377ZM402.955 102.708H404.619V110.708H402.955V102.708ZM403.803 101.548C403.547 101.548 403.334 101.466 403.163 101.3C402.992 101.135 402.907 100.927 402.907 100.676C402.907 100.431 402.992 100.226 403.163 100.06C403.334 99.8898 403.544 99.8045 403.795 99.8045C404.04 99.8045 404.248 99.8898 404.419 100.06C404.59 100.226 404.675 100.431 404.675 100.676C404.675 100.927 404.59 101.135 404.419 101.3C404.254 101.466 404.048 101.548 403.803 101.548ZM408.824 110.86C408.403 110.834 407.992 110.748 407.592 110.604C407.192 110.46 406.84 110.266 406.536 110.02C406.237 109.77 406.013 109.476 405.864 109.14L407.28 108.532C407.349 108.676 407.469 108.818 407.64 108.956C407.816 109.095 408.021 109.21 408.256 109.3C408.491 109.386 408.736 109.428 408.992 109.428C409.243 109.428 409.475 109.394 409.688 109.324C409.907 109.25 410.085 109.138 410.224 108.988C410.363 108.839 410.432 108.66 410.432 108.452C410.432 108.218 410.352 108.036 410.192 107.908C410.037 107.775 409.843 107.674 409.608 107.604C409.373 107.535 409.139 107.468 408.904 107.404C408.381 107.287 407.901 107.127 407.464 106.924C407.032 106.716 406.688 106.452 406.432 106.132C406.176 105.807 406.048 105.41 406.048 104.94C406.048 104.428 406.187 103.986 406.464 103.612C406.741 103.234 407.104 102.943 407.552 102.74C408.005 102.538 408.488 102.436 409 102.436C409.64 102.436 410.227 102.572 410.76 102.844C411.293 103.116 411.701 103.49 411.984 103.964L410.664 104.748C410.584 104.588 410.464 104.444 410.304 104.316C410.144 104.188 409.963 104.087 409.76 104.012C409.557 103.932 409.347 103.887 409.128 103.876C408.856 103.866 408.603 103.898 408.368 103.972C408.139 104.042 407.955 104.154 407.816 104.308C407.677 104.463 407.608 104.66 407.608 104.9C407.608 105.135 407.691 105.311 407.856 105.428C408.021 105.54 408.229 105.631 408.48 105.7C408.736 105.77 408.997 105.847 409.264 105.932C409.739 106.082 410.184 106.266 410.6 106.484C411.016 106.698 411.352 106.962 411.608 107.276C411.864 107.591 411.987 107.975 411.976 108.428C411.976 108.93 411.824 109.37 411.52 109.748C411.221 110.127 410.832 110.415 410.352 110.612C409.872 110.81 409.363 110.892 408.824 110.86ZM420.546 105.692V110.708H418.882V106.1C418.882 105.743 418.794 105.418 418.618 105.124C418.447 104.831 418.215 104.599 417.922 104.428C417.634 104.252 417.308 104.164 416.946 104.164C416.594 104.164 416.271 104.252 415.978 104.428C415.684 104.599 415.45 104.831 415.274 105.124C415.098 105.418 415.01 105.743 415.01 106.1V110.708H413.346V98.7085H415.01V103.556C415.287 103.226 415.628 102.964 416.034 102.772C416.439 102.58 416.876 102.484 417.346 102.484C417.938 102.484 418.476 102.628 418.962 102.916C419.447 103.204 419.831 103.591 420.114 104.076C420.402 104.562 420.546 105.1 420.546 105.692Z" fill="#0C1021"/>
<path d="M46.6487 140.89C46.1261 140.89 45.6197 140.809 45.1297 140.645C44.6444 140.482 44.2197 140.249 43.8557 139.945C43.4917 139.642 43.2351 139.28 43.0857 138.86L44.0027 138.517C44.1054 138.807 44.2921 139.056 44.5627 139.266C44.8381 139.472 45.1577 139.63 45.5217 139.742C45.8904 139.854 46.2661 139.91 46.6487 139.91C47.0967 139.91 47.5144 139.836 47.9017 139.686C48.2891 139.537 48.6017 139.329 48.8397 139.063C49.0777 138.793 49.1967 138.475 49.1967 138.111C49.1967 137.743 49.0731 137.439 48.8257 137.201C48.5784 136.963 48.2587 136.777 47.8667 136.641C47.4794 136.501 47.0734 136.394 46.6487 136.319C45.9814 136.203 45.3817 136.044 44.8497 135.843C44.3224 135.643 43.9047 135.36 43.5967 134.996C43.2887 134.628 43.1347 134.142 43.1347 133.54C43.1347 132.976 43.2981 132.486 43.6247 132.07C43.9514 131.655 44.3807 131.333 44.9127 131.104C45.4494 130.876 46.0281 130.761 46.6487 130.761C47.1574 130.761 47.6544 130.841 48.1397 130.999C48.6251 131.158 49.0521 131.389 49.4207 131.692C49.7941 131.996 50.0624 132.367 50.2257 132.805L49.2947 133.141C49.1921 132.847 49.0031 132.598 48.7277 132.392C48.4571 132.182 48.1397 132.024 47.7757 131.916C47.4117 131.804 47.0361 131.748 46.6487 131.748C46.2054 131.744 45.7901 131.818 45.4027 131.972C45.0201 132.122 44.7097 132.332 44.4717 132.602C44.2337 132.868 44.1147 133.181 44.1147 133.54C44.1147 133.96 44.2244 134.285 44.4437 134.513C44.6677 134.737 44.9711 134.905 45.3537 135.017C45.7364 135.129 46.1681 135.23 46.6487 135.318C47.2741 135.426 47.8551 135.594 48.3917 135.822C48.9284 136.046 49.3601 136.347 49.6867 136.725C50.0134 137.099 50.1767 137.561 50.1767 138.111C50.1767 138.671 50.0134 139.161 49.6867 139.581C49.3601 139.997 48.9284 140.319 48.3917 140.547C47.8597 140.776 47.2787 140.89 46.6487 140.89ZM56.673 138.951L57.548 139.427C57.2306 139.871 56.827 140.225 56.337 140.491C55.8516 140.757 55.3243 140.89 54.755 140.89C54.111 140.89 53.523 140.725 52.991 140.393C52.4636 140.062 52.0413 139.619 51.724 139.063C51.4113 138.503 51.255 137.885 51.255 137.208C51.255 136.695 51.346 136.217 51.528 135.773C51.71 135.325 51.9596 134.933 52.277 134.597C52.599 134.257 52.9723 133.991 53.397 133.799C53.8216 133.608 54.2743 133.512 54.755 133.512C55.3243 133.512 55.8516 133.645 56.337 133.911C56.827 134.177 57.2306 134.534 57.548 134.982L56.673 135.451C56.4303 135.143 56.1386 134.908 55.798 134.744C55.4573 134.576 55.1096 134.492 54.755 134.492C54.2836 134.492 53.8566 134.618 53.474 134.87C53.0913 135.118 52.788 135.447 52.564 135.857C52.3446 136.268 52.235 136.718 52.235 137.208C52.235 137.698 52.347 138.149 52.571 138.559C52.7996 138.97 53.1053 139.299 53.488 139.546C53.8706 139.789 54.293 139.91 54.755 139.91C55.1376 139.91 55.497 139.822 55.833 139.644C56.169 139.467 56.449 139.236 56.673 138.951ZM58.8117 140.708V133.708H59.7917V134.674C60.039 134.32 60.361 134.037 60.7577 133.827C61.1543 133.617 61.586 133.512 62.0527 133.512C62.3233 133.512 62.5847 133.547 62.8367 133.617L62.4377 134.59C62.2417 134.53 62.0503 134.499 61.8637 134.499C61.4857 134.499 61.138 134.593 60.8207 134.779C60.508 134.966 60.2583 135.216 60.0717 135.528C59.885 135.841 59.7917 136.189 59.7917 136.571V140.708H58.8117ZM63.7199 133.708H64.6999V140.708H63.7199V133.708ZM64.2169 132.483C64.0582 132.483 63.9229 132.432 63.8109 132.329C63.7035 132.222 63.6499 132.089 63.6499 131.93C63.6499 131.772 63.7035 131.641 63.8109 131.538C63.9229 131.431 64.0582 131.377 64.2169 131.377C64.3709 131.377 64.5015 131.431 64.6089 131.538C64.7209 131.641 64.7769 131.772 64.7769 131.93C64.7769 132.089 64.7232 132.222 64.6159 132.329C64.5085 132.432 64.3755 132.483 64.2169 132.483ZM67.3112 144.208H66.3312V133.708H67.3112V135.017C67.5539 134.574 67.8852 134.215 68.3052 133.939C68.7252 133.664 69.2245 133.526 69.8032 133.526C70.3119 133.526 70.7879 133.622 71.2312 133.813C71.6792 134.005 72.0712 134.271 72.4072 134.611C72.7432 134.947 73.0069 135.337 73.1982 135.78C73.3895 136.224 73.4852 136.7 73.4852 137.208C73.4852 137.717 73.3895 138.195 73.1982 138.643C73.0069 139.091 72.7432 139.486 72.4072 139.826C72.0712 140.162 71.6792 140.426 71.2312 140.617C70.7879 140.809 70.3119 140.904 69.8032 140.904C69.2245 140.904 68.7252 140.767 68.3052 140.491C67.8852 140.216 67.5539 139.857 67.3112 139.413V144.208ZM69.7962 134.478C69.3062 134.478 68.8792 134.602 68.5152 134.849C68.1559 135.092 67.8782 135.419 67.6822 135.829C67.4862 136.24 67.3882 136.7 67.3882 137.208C67.3882 137.708 67.4839 138.165 67.6752 138.58C67.8712 138.996 68.1489 139.327 68.5082 139.574C68.8722 139.822 69.3015 139.945 69.7962 139.945C70.2815 139.945 70.7272 139.824 71.1332 139.581C71.5439 139.339 71.8729 139.012 72.1202 138.601C72.3675 138.186 72.4912 137.722 72.4912 137.208C72.4912 136.709 72.3699 136.254 72.1272 135.843C71.8845 135.428 71.5602 135.097 71.1542 134.849C70.7482 134.602 70.2955 134.478 69.7962 134.478ZM78.125 134.688H76.452L76.445 140.708H75.465L75.472 134.688H74.205V133.708H75.472L75.465 131.51H76.445L76.452 133.708H78.125V134.688ZM84.9005 140.841C84.5178 140.832 84.1445 140.762 83.7805 140.631C83.4165 140.501 83.0991 140.323 82.8285 140.099C82.5578 139.875 82.3641 139.621 82.2475 139.336L83.0945 138.972C83.1691 139.154 83.3068 139.322 83.5075 139.476C83.7128 139.626 83.9461 139.747 84.2075 139.84C84.4688 139.929 84.7278 139.973 84.9845 139.973C85.2691 139.973 85.5351 139.927 85.7825 139.833C86.0298 139.74 86.2305 139.607 86.3845 139.434C86.5431 139.257 86.6225 139.049 86.6225 138.811C86.6225 138.555 86.5385 138.354 86.3705 138.209C86.2025 138.06 85.9901 137.943 85.7335 137.859C85.4768 137.771 85.2131 137.687 84.9425 137.607C84.4478 137.472 84.0115 137.323 83.6335 137.159C83.2555 136.996 82.9591 136.788 82.7445 136.536C82.5345 136.28 82.4295 135.951 82.4295 135.549C82.4295 135.125 82.5485 134.758 82.7865 134.45C83.0291 134.138 83.3441 133.897 83.7315 133.729C84.1235 133.557 84.5411 133.47 84.9845 133.47C85.5538 133.47 86.0718 133.594 86.5385 133.841C87.0098 134.089 87.3505 134.418 87.5605 134.828L86.7695 135.297C86.6855 135.106 86.5525 134.94 86.3705 134.8C86.1885 134.66 85.9808 134.551 85.7475 134.471C85.5188 134.392 85.2855 134.35 85.0475 134.345C84.7488 134.341 84.4711 134.385 84.2145 134.478C83.9578 134.567 83.7501 134.7 83.5915 134.877C83.4375 135.055 83.3605 135.272 83.3605 135.528C83.3605 135.785 83.4375 135.981 83.5915 136.116C83.7455 136.247 83.9531 136.354 84.2145 136.438C84.4805 136.518 84.7791 136.611 85.1105 136.718C85.5351 136.854 85.9341 137.008 86.3075 137.18C86.6808 137.353 86.9818 137.568 87.2105 137.824C87.4391 138.081 87.5511 138.405 87.5465 138.797C87.5465 139.217 87.4205 139.584 87.1685 139.896C86.9165 140.209 86.5898 140.449 86.1885 140.617C85.7871 140.781 85.3578 140.855 84.9005 140.841ZM92.3301 134.688H90.6571L90.6501 140.708H89.6701L89.6771 134.688H88.4101V133.708H89.6771L89.6701 131.51H90.6501L90.6571 133.708H92.3301V134.688ZM96.4679 140.89C95.8239 140.89 95.2359 140.725 94.7039 140.393C94.1765 140.062 93.7542 139.619 93.4369 139.063C93.1242 138.503 92.9679 137.885 92.9679 137.208C92.9679 136.695 93.0589 136.217 93.2409 135.773C93.4229 135.325 93.6725 134.933 93.9899 134.597C94.3119 134.257 94.6852 133.991 95.1099 133.799C95.5345 133.608 95.9872 133.512 96.4679 133.512C96.9859 133.512 97.4619 133.615 97.8959 133.82C98.3345 134.026 98.7102 134.313 99.0229 134.681C99.3402 135.05 99.5782 135.482 99.7369 135.976C99.9002 136.471 99.9679 137.005 99.9399 137.579H94.0039C94.0599 138.023 94.1999 138.419 94.4239 138.769C94.6525 139.119 94.9419 139.397 95.2919 139.602C95.6465 139.803 96.0385 139.906 96.4679 139.91C96.9345 139.91 97.3545 139.789 97.7279 139.546C98.1059 139.304 98.4092 138.97 98.6379 138.545L99.6319 138.776C99.3519 139.397 98.9295 139.906 98.3649 140.302C97.8002 140.694 97.1679 140.89 96.4679 140.89ZM93.9759 136.788H98.9529C98.9202 136.354 98.7872 135.958 98.5539 135.598C98.3252 135.234 98.0289 134.945 97.6649 134.73C97.3009 134.511 96.9019 134.401 96.4679 134.401C96.0339 134.401 95.6372 134.509 95.2779 134.723C94.9185 134.933 94.6245 135.22 94.3959 135.584C94.1672 135.944 94.0272 136.345 93.9759 136.788ZM102.12 144.208H101.14V133.708H102.12V135.017C102.362 134.574 102.694 134.215 103.114 133.939C103.534 133.664 104.033 133.526 104.612 133.526C105.12 133.526 105.596 133.622 106.04 133.813C106.488 134.005 106.88 134.271 107.216 134.611C107.552 134.947 107.815 135.337 108.007 135.78C108.198 136.224 108.294 136.7 108.294 137.208C108.294 137.717 108.198 138.195 108.007 138.643C107.815 139.091 107.552 139.486 107.216 139.826C106.88 140.162 106.488 140.426 106.04 140.617C105.596 140.809 105.12 140.904 104.612 140.904C104.033 140.904 103.534 140.767 103.114 140.491C102.694 140.216 102.362 139.857 102.12 139.413V144.208ZM104.605 134.478C104.115 134.478 103.688 134.602 103.324 134.849C102.964 135.092 102.687 135.419 102.491 135.829C102.295 136.24 102.197 136.7 102.197 137.208C102.197 137.708 102.292 138.165 102.484 138.58C102.68 138.996 102.957 139.327 103.317 139.574C103.681 139.822 104.11 139.945 104.605 139.945C105.09 139.945 105.536 139.824 105.942 139.581C106.352 139.339 106.681 139.012 106.929 138.601C107.176 138.186 107.3 137.722 107.3 137.208C107.3 136.709 107.178 136.254 106.936 135.843C106.693 135.428 106.369 135.097 105.963 134.849C105.557 134.602 105.104 134.478 104.605 134.478Z" fill="#535662"/>
<path d="M341.09 141.996L339.81 140.724C339.362 141.087 338.86 141.37 338.306 141.572C337.751 141.775 337.164 141.876 336.546 141.876C335.783 141.876 335.068 141.727 334.402 141.428C333.735 141.124 333.148 140.708 332.642 140.18C332.135 139.647 331.738 139.028 331.45 138.324C331.167 137.62 331.026 136.868 331.026 136.068C331.026 135.268 331.167 134.519 331.45 133.82C331.738 133.116 332.135 132.498 332.642 131.964C333.148 131.431 333.735 131.015 334.402 130.716C335.068 130.412 335.783 130.26 336.546 130.26C337.308 130.26 338.02 130.412 338.682 130.716C339.348 131.015 339.935 131.431 340.442 131.964C340.948 132.498 341.343 133.116 341.626 133.82C341.914 134.519 342.058 135.268 342.058 136.068C342.058 136.719 341.959 137.338 341.762 137.924C341.57 138.506 341.303 139.039 340.962 139.524L342.266 140.82L341.09 141.996ZM336.546 140.212C336.919 140.212 337.282 140.151 337.634 140.028C337.991 139.906 338.314 139.732 338.602 139.508L337.362 138.276L338.538 137.092L339.722 138.284C339.946 137.964 340.114 137.615 340.226 137.236C340.338 136.858 340.394 136.468 340.394 136.068C340.394 135.498 340.292 134.964 340.09 134.468C339.892 133.967 339.615 133.527 339.258 133.148C338.906 132.764 338.498 132.466 338.034 132.252C337.57 132.034 337.074 131.924 336.546 131.924C336.012 131.924 335.514 132.034 335.05 132.252C334.586 132.471 334.175 132.772 333.818 133.156C333.466 133.535 333.188 133.975 332.986 134.476C332.788 134.972 332.69 135.503 332.69 136.068C332.69 136.639 332.788 137.175 332.986 137.676C333.188 138.178 333.468 138.62 333.826 139.004C334.183 139.383 334.594 139.679 335.058 139.892C335.522 140.106 336.018 140.212 336.546 140.212ZM343.354 138.708V133.708H345.018V138.3C345.018 138.658 345.106 138.983 345.282 139.276C345.458 139.57 345.693 139.804 345.986 139.98C346.279 140.151 346.602 140.236 346.954 140.236C347.311 140.236 347.634 140.151 347.922 139.98C348.215 139.804 348.447 139.57 348.618 139.276C348.794 138.983 348.882 138.658 348.882 138.3V133.708H350.546L350.554 141.708H348.89L348.882 140.844C348.61 141.175 348.271 141.436 347.866 141.628C347.461 141.82 347.026 141.916 346.562 141.916C345.97 141.916 345.431 141.772 344.946 141.484C344.461 141.196 344.074 140.81 343.786 140.324C343.498 139.839 343.354 139.3 343.354 138.708ZM358.273 133.708H359.937V141.708H358.265L358.201 140.548C357.966 140.959 357.649 141.29 357.249 141.54C356.849 141.791 356.377 141.916 355.833 141.916C355.246 141.916 354.694 141.807 354.177 141.588C353.66 141.364 353.204 141.055 352.809 140.66C352.42 140.266 352.116 139.812 351.897 139.3C351.678 138.783 351.569 138.228 351.569 137.636C351.569 137.066 351.676 136.53 351.889 136.028C352.102 135.522 352.398 135.079 352.777 134.7C353.156 134.322 353.593 134.026 354.089 133.812C354.59 133.594 355.126 133.484 355.697 133.484C356.278 133.484 356.79 133.618 357.233 133.884C357.681 134.146 358.052 134.482 358.345 134.892L358.273 133.708ZM355.793 140.308C356.262 140.308 356.673 140.194 357.025 139.964C357.377 139.73 357.649 139.415 357.841 139.02C358.038 138.626 358.137 138.188 358.137 137.708C358.137 137.223 358.038 136.783 357.841 136.388C357.644 135.994 357.369 135.682 357.017 135.452C356.67 135.218 356.262 135.1 355.793 135.1C355.329 135.1 354.905 135.218 354.521 135.452C354.137 135.687 353.833 136.002 353.609 136.396C353.385 136.791 353.273 137.228 353.273 137.708C353.273 138.194 353.388 138.634 353.617 139.028C353.852 139.418 354.158 139.73 354.537 139.964C354.921 140.194 355.34 140.308 355.793 140.308ZM361.596 141.708V129.708H363.26V141.708H361.596ZM365.174 133.708H366.838V141.708H365.174V133.708ZM366.022 132.548C365.766 132.548 365.553 132.466 365.382 132.3C365.211 132.135 365.126 131.927 365.126 131.676C365.126 131.431 365.211 131.226 365.382 131.06C365.553 130.89 365.763 130.804 366.014 130.804C366.259 130.804 366.467 130.89 366.638 131.06C366.809 131.226 366.894 131.431 366.894 131.676C366.894 131.927 366.809 132.135 366.638 132.3C366.473 132.466 366.267 132.548 366.022 132.548ZM370.808 131.892V133.708H373.064V135.372H370.808V141.708H369.144V135.372H368.192V133.708H369.144V131.892C369.144 131.455 369.251 131.058 369.464 130.7C369.677 130.338 369.963 130.05 370.32 129.836C370.683 129.623 371.085 129.516 371.528 129.516C371.848 129.516 372.16 129.58 372.464 129.708C372.768 129.836 373.04 130.034 373.28 130.3L372.088 131.476C372.029 131.38 371.947 131.308 371.84 131.26C371.739 131.207 371.635 131.18 371.528 131.18C371.331 131.18 371.16 131.25 371.016 131.388C370.877 131.527 370.808 131.695 370.808 131.892ZM374.299 133.708H375.963V141.708H374.299V133.708ZM375.147 132.548C374.891 132.548 374.678 132.466 374.507 132.3C374.336 132.135 374.251 131.927 374.251 131.676C374.251 131.431 374.336 131.226 374.507 131.06C374.678 130.89 374.888 130.804 375.139 130.804C375.384 130.804 375.592 130.89 375.763 131.06C375.934 131.226 376.019 131.431 376.019 131.676C376.019 131.927 375.934 132.135 375.763 132.3C375.598 132.466 375.392 132.548 375.147 132.548ZM382.96 139.436L384.448 140.244C384.086 140.751 383.624 141.156 383.064 141.46C382.51 141.764 381.907 141.916 381.256 141.916C380.52 141.916 379.848 141.727 379.24 141.348C378.638 140.97 378.155 140.463 377.792 139.828C377.435 139.188 377.256 138.482 377.256 137.708C377.256 137.122 377.36 136.575 377.568 136.068C377.776 135.556 378.062 135.108 378.424 134.724C378.792 134.335 379.219 134.031 379.704 133.812C380.19 133.594 380.707 133.484 381.256 133.484C381.907 133.484 382.51 133.636 383.064 133.94C383.624 134.244 384.086 134.652 384.448 135.164L382.96 135.972C382.736 135.706 382.475 135.503 382.176 135.364C381.878 135.22 381.571 135.148 381.256 135.148C380.819 135.148 380.422 135.268 380.064 135.508C379.712 135.743 379.432 136.055 379.224 136.444C379.022 136.828 378.92 137.25 378.92 137.708C378.92 138.162 379.024 138.583 379.232 138.972C379.44 139.356 379.72 139.666 380.072 139.9C380.43 140.135 380.824 140.252 381.256 140.252C381.587 140.252 381.902 140.178 382.2 140.028C382.499 139.879 382.752 139.682 382.96 139.436ZM391.913 133.708H393.577V141.708H391.905L391.841 140.548C391.607 140.959 391.289 141.29 390.889 141.54C390.489 141.791 390.017 141.916 389.473 141.916C388.887 141.916 388.335 141.807 387.817 141.588C387.3 141.364 386.844 141.055 386.449 140.66C386.06 140.266 385.756 139.812 385.537 139.3C385.319 138.783 385.209 138.228 385.209 137.636C385.209 137.066 385.316 136.53 385.529 136.028C385.743 135.522 386.039 135.079 386.417 134.7C386.796 134.322 387.233 134.026 387.729 133.812C388.231 133.594 388.767 133.484 389.337 133.484C389.919 133.484 390.431 133.618 390.873 133.884C391.321 134.146 391.692 134.482 391.985 134.892L391.913 133.708ZM389.433 140.308C389.903 140.308 390.313 140.194 390.665 139.964C391.017 139.73 391.289 139.415 391.481 139.02C391.679 138.626 391.777 138.188 391.777 137.708C391.777 137.223 391.679 136.783 391.481 136.388C391.284 135.994 391.009 135.682 390.657 135.452C390.311 135.218 389.903 135.1 389.433 135.1C388.969 135.1 388.545 135.218 388.161 135.452C387.777 135.687 387.473 136.002 387.249 136.396C387.025 136.791 386.913 137.228 386.913 137.708C386.913 138.194 387.028 138.634 387.257 139.028C387.492 139.418 387.799 139.73 388.177 139.964C388.561 140.194 388.98 140.308 389.433 140.308ZM399.398 135.372H397.718L397.71 141.708H396.046L396.054 135.372H394.782V133.708H396.054L396.046 131.196H397.71L397.718 133.708H399.398V135.372ZM400.721 133.708H402.385V141.708H400.721V133.708ZM401.569 132.548C401.313 132.548 401.099 132.466 400.929 132.3C400.758 132.135 400.673 131.927 400.673 131.676C400.673 131.431 400.758 131.226 400.929 131.06C401.099 130.89 401.31 130.804 401.561 130.804C401.806 130.804 402.014 130.89 402.185 131.06C402.355 131.226 402.441 131.431 402.441 131.676C402.441 131.927 402.355 132.135 402.185 132.3C402.019 132.466 401.814 132.548 401.569 132.548ZM407.678 141.916C406.942 141.916 406.27 141.727 405.662 141.348C405.06 140.97 404.577 140.463 404.214 139.828C403.857 139.188 403.678 138.482 403.678 137.708C403.678 137.122 403.782 136.575 403.99 136.068C404.198 135.556 404.484 135.108 404.846 134.724C405.214 134.335 405.641 134.031 406.126 133.812C406.612 133.594 407.129 133.484 407.678 133.484C408.414 133.484 409.084 133.674 409.686 134.052C410.294 134.431 410.777 134.94 411.134 135.58C411.497 136.22 411.678 136.93 411.678 137.708C411.678 138.29 411.574 138.834 411.366 139.34C411.158 139.847 410.87 140.295 410.502 140.684C410.14 141.068 409.716 141.37 409.23 141.588C408.75 141.807 408.233 141.916 407.678 141.916ZM407.678 140.252C408.121 140.252 408.518 140.135 408.87 139.9C409.222 139.666 409.5 139.356 409.702 138.972C409.91 138.583 410.014 138.162 410.014 137.708C410.014 137.244 409.908 136.818 409.694 136.428C409.486 136.039 409.206 135.73 408.854 135.5C408.502 135.266 408.11 135.148 407.678 135.148C407.241 135.148 406.844 135.266 406.486 135.5C406.134 135.735 405.854 136.047 405.646 136.436C405.444 136.826 405.342 137.25 405.342 137.708C405.342 138.183 405.449 138.612 405.662 138.996C405.876 139.38 406.158 139.687 406.51 139.916C406.868 140.14 407.257 140.252 407.678 140.252ZM420.171 136.692V141.708H418.507V137.1C418.507 136.743 418.419 136.418 418.243 136.124C418.072 135.831 417.84 135.599 417.547 135.428C417.259 135.252 416.933 135.164 416.571 135.164C416.219 135.164 415.896 135.252 415.603 135.428C415.309 135.599 415.075 135.831 414.899 136.124C414.723 136.418 414.635 136.743 414.635 137.1V141.708H412.971V133.708H414.635V134.556C414.912 134.226 415.253 133.964 415.659 133.772C416.064 133.58 416.501 133.484 416.971 133.484C417.563 133.484 418.101 133.628 418.587 133.916C419.072 134.204 419.456 134.591 419.739 135.076C420.027 135.562 420.171 136.1 420.171 136.692Z" fill="#0C1021"/>
<rect x="42.3857" y="169.708" width="379" height="68" rx="32" fill="white"/>
<rect x="42.8857" y="170.208" width="378" height="67" rx="31.5" stroke="#535662" stroke-opacity="0.15"/>
<rect x="54.3857" y="181.708" width="44" height="44" rx="22" fill="#4268FF"/>
<path fill-rule="evenodd" clip-rule="evenodd" d="M74.3857 209.708C74.3857 209.974 74.2804 210.228 74.0928 210.416C73.9053 210.603 73.651 210.708 73.3857 210.708H72.3857C72.1205 210.708 71.8662 210.603 71.6786 210.416C71.4911 210.228 71.3857 209.974 71.3857 209.708V197.708C71.3857 197.443 71.4911 197.189 71.6786 197.001C71.8662 196.814 72.1205 196.708 72.3857 196.708H73.3857C73.651 196.708 73.9053 196.814 74.0928 197.001C74.2804 197.189 74.3857 197.443 74.3857 197.708V209.708ZM81.3857 209.708C81.3857 209.974 81.2804 210.228 81.0928 210.416C80.9053 210.603 80.651 210.708 80.3857 210.708H79.3857C79.1205 210.708 78.8662 210.603 78.6786 210.416C78.4911 210.228 78.3857 209.974 78.3857 209.708V197.708C78.3857 197.443 78.4911 197.189 78.6786 197.001C78.8662 196.814 79.1205 196.708 79.3857 196.708H80.3857C80.651 196.708 80.9053 196.814 81.0928 197.001C81.2804 197.189 81.3857 197.443 81.3857 197.708V209.708Z" fill="white"/>
<g clip-path="url(#clip1_2175_32)">
<rect x="110.386" y="189.708" width="1.22425" height="27.2396" rx="0.612126" fill="#4268FF"/>
<rect x="113.752" y="197.972" width="1.22425" height="10.7122" rx="0.612126" fill="#4268FF"/>
<rect x="117.119" y="194.758" width="1.22425" height="17.1395" rx="0.612126" fill="#4268FF"/>
<rect x="120.486" y="197.972" width="1.22425" height="10.7122" rx="0.612126" fill="#4268FF"/>
<rect x="123.853" y="197.972" width="1.22425" height="10.7122" rx="0.612126" fill="#4268FF"/>
<rect x="127.219" y="194.758" width="1.22425" height="17.1395" rx="0.612126" fill="#4268FF"/>
<rect x="130.586" y="194.758" width="1.22425" height="17.1395" rx="0.612126" fill="#4268FF"/>
<rect x="133.953" y="197.972" width="1.22425" height="10.7122" rx="0.612126" fill="#4268FF"/>
<rect x="137.319" y="197.972" width="1.22425" height="10.7122" rx="0.612126" fill="#4268FF"/>
<rect x="140.686" y="189.708" width="1.22425" height="27.2396" rx="0.612126" fill="#4268FF"/>
<rect x="144.053" y="197.666" width="1.22425" height="11.3243" rx="0.612126" fill="#4268FF"/>
<rect x="147.419" y="194.758" width="1.22425" height="17.1395" rx="0.612126" fill="#4268FF"/>
<rect x="150.786" y="197.972" width="1.22425" height="10.7122" rx="0.612126" fill="#4268FF"/>
<rect x="154.153" y="197.972" width="1.22425" height="10.7122" rx="0.612126" fill="#4268FF"/>
<rect x="157.52" y="194.758" width="1.22425" height="17.1395" rx="0.612126" fill="#4268FF"/>
<rect x="160.886" y="197.972" width="1.22425" height="10.7122" rx="0.612126" fill="#4268FF"/>
<rect x="164.253" y="189.708" width="1.22425" height="27.2396" rx="0.612126" fill="#4268FF"/>
<rect x="167.62" y="194.758" width="1.22425" height="17.1395" rx="0.612126" fill="#4268FF"/>
<rect x="170.986" y="194.758" width="1.22425" height="17.1395" rx="0.612126" fill="#4268FF"/>
<rect x="174.353" y="197.972" width="1.22425" height="10.7122" rx="0.612126" fill="#4268FF"/>
<rect x="177.72" y="197.972" width="1.22425" height="10.7122" rx="0.612126" fill="#4268FF"/>
<rect x="178.944" y="189.708" width="1.22425" height="27.2396" rx="0.612126" fill="#4268FF"/>
<rect x="182.311" y="197.972" width="1.22425" height="10.7122" rx="0.612126" fill="#4268FF"/>
<rect x="185.677" y="194.758" width="1.22425" height="17.1395" rx="0.612126" fill="#4268FF"/>
<rect x="189.044" y="197.972" width="1.22425" height="10.7122" rx="0.612126" fill="#4268FF"/>
<rect x="192.411" y="197.972" width="1.22425" height="10.7122" rx="0.612126" fill="#4268FF"/>
<rect x="195.777" y="194.758" width="1.22425" height="17.1395" rx="0.612126" fill="#4268FF"/>
<rect x="199.144" y="194.758" width="1.22425" height="17.1395" rx="0.612126" fill="#4268FF"/>
<rect x="202.511" y="197.972" width="1.22425" height="10.7122" rx="0.612126" fill="#4268FF"/>
<rect x="205.877" y="197.972" width="1.22425" height="10.7122" rx="0.612126" fill="#4268FF"/>
<rect x="209.244" y="189.708" width="1.22425" height="27.2396" rx="0.612126" fill="#4268FF"/>
<rect x="212.611" y="197.666" width="1.22425" height="11.3243" rx="0.612126" fill="#4268FF"/>
<rect x="215.978" y="194.758" width="1.22425" height="17.1395" rx="0.612126" fill="#4268FF"/>
<rect x="219.344" y="197.972" width="1.22425" height="10.7122" rx="0.612126" fill="#4268FF"/>
<rect x="222.711" y="197.972" width="1.22425" height="10.7122" rx="0.612126" fill="#4268FF"/>
<rect x="226.078" y="194.758" width="1.22425" height="17.1395" rx="0.612126" fill="#4268FF"/>
<rect x="229.444" y="197.972" width="1.22425" height="10.7122" rx="0.612126" fill="#4268FF"/>
<rect x="232.811" y="189.708" width="1.22425" height="27.2396" rx="0.612126" fill="#4268FF"/>
<rect x="236.178" y="194.758" width="1.22425" height="17.1395" rx="0.612126" fill="#4268FF"/>
<rect x="239.544" y="194.758" width="1.22425" height="17.1395" rx="0.612126" fill="#4268FF"/>
<rect x="242.911" y="197.972" width="1.22425" height="10.7122" rx="0.612126" fill="#4268FF"/>
<rect x="246.278" y="197.972" width="1.22425" height="10.7122" rx="0.612126" fill="#4268FF"/>
<rect x="247.502" y="189.708" width="1.22425" height="27.2396" rx="0.612126" fill="#4268FF"/>
<rect x="250.869" y="197.972" width="1.22425" height="10.7122" rx="0.612126" fill="#4268FF"/>
<rect x="254.235" y="194.758" width="1.22425" height="17.1395" rx="0.612126" fill="#4268FF"/>
<rect x="257.602" y="197.972" width="1.22425" height="10.7122" rx="0.612126" fill="#4268FF"/>
<rect x="260.969" y="197.972" width="1.22425" height="10.7122" rx="0.612126" fill="#4268FF"/>
<rect x="264.335" y="194.758" width="1.22425" height="17.1395" rx="0.612126" fill="#4268FF"/>
<rect x="267.702" y="194.758" width="1.22425" height="17.1395" rx="0.612126" fill="#4268FF"/>
<rect x="271.069" y="197.972" width="1.22425" height="10.7122" rx="0.612126" fill="#4268FF"/>
<rect x="274.436" y="197.972" width="1.22425" height="10.7122" rx="0.612126" fill="#4268FF"/>
<rect x="277.802" y="189.708" width="1.22425" height="27.2396" rx="0.612126" fill="#4268FF"/>
<rect x="281.169" y="197.666" width="1.22425" height="11.3243" rx="0.612126" fill="#4268FF"/>
<rect x="284.536" y="194.758" width="1.22425" height="17.1395" rx="0.612126" fill="#4268FF"/>
<rect x="287.902" y="197.972" width="1.22425" height="10.7122" rx="0.612126" fill="#4268FF"/>
<rect x="291.269" y="197.972" width="1.22425" height="10.7122" rx="0.612126" fill="#4268FF"/>
<rect x="294.636" y="194.758" width="1.22425" height="17.1395" rx="0.612126" fill="#4268FF"/>
<rect x="298.002" y="197.972" width="1.22425" height="10.7122" rx="0.612126" fill="#4268FF"/>
<rect x="299.227" y="189.708" width="1.22425" height="27.2396" rx="0.612126" fill="#4268FF"/>
<rect x="302.593" y="197.972" width="1.22425" height="10.7122" rx="0.612126" fill="#4268FF"/>
<rect x="305.96" y="194.758" width="1.22425" height="17.1395" rx="0.612126" fill="#4268FF"/>
<rect x="309.327" y="197.972" width="1.22425" height="10.7122" rx="0.612126" fill="#4268FF"/>
<rect x="312.693" y="197.972" width="1.22425" height="10.7122" rx="0.612126" fill="#4268FF"/>
<rect x="316.06" y="194.758" width="1.22425" height="17.1395" rx="0.612126" fill="#4268FF"/>
<rect x="319.427" y="194.758" width="1.22425" height="17.1395" rx="0.612126" fill="#4268FF"/>
<rect x="322.793" y="197.972" width="1.22425" height="10.7122" rx="0.612126" fill="#4268FF"/>
<rect x="326.16" y="197.972" width="1.22425" height="10.7122" rx="0.612126" fill="#4268FF"/>
<rect x="329.527" y="189.708" width="1.22425" height="27.2396" rx="0.612126" fill="#4268FF"/>
<rect x="332.894" y="197.666" width="1.22425" height="11.3243" rx="0.612126" fill="#4268FF"/>
<rect x="336.26" y="194.758" width="1.22425" height="17.1395" rx="0.612126" fill="#4268FF"/>
<rect x="339.627" y="197.972" width="1.22425" height="10.7122" rx="0.612126" fill="#4268FF"/>
<rect x="342.851" y="189.708" width="1.22425" height="27.2396" rx="0.612126" fill="#D9D9D9"/>
<rect x="346.218" y="197.972" width="1.22425" height="10.7122" rx="0.612126" fill="#D9D9D9"/>
<rect x="349.584" y="194.758" width="1.22425" height="17.1395" rx="0.612126" fill="#D9D9D9"/>
<rect x="352.951" y="197.972" width="1.22425" height="10.7122" rx="0.612126" fill="#D9D9D9"/>
<rect x="356.318" y="197.972" width="1.22425" height="10.7122" rx="0.612126" fill="#D9D9D9"/>
<rect x="359.685" y="194.758" width="1.22425" height="17.1395" rx="0.612126" fill="#D9D9D9"/>
<rect x="363.051" y="194.758" width="1.22425" height="17.1395" rx="0.612126" fill="#D9D9D9"/>
<rect x="366.418" y="197.972" width="1.22425" height="10.7122" rx="0.612126" fill="#D9D9D9"/>
<rect x="369.785" y="197.972" width="1.22425" height="10.7122" rx="0.612126" fill="#D9D9D9"/>
</g>
<path d="M381.968 207.864C381.464 207.864 381.014 207.752 380.618 207.528C380.222 207.3 379.884 206.986 379.604 206.586C379.324 206.186 379.11 205.724 378.962 205.2C378.818 204.672 378.746 204.108 378.746 203.508C378.746 202.908 378.818 202.344 378.962 201.816C379.11 201.288 379.324 200.826 379.604 200.43C379.884 200.03 380.222 199.718 380.618 199.494C381.014 199.266 381.464 199.152 381.968 199.152C382.468 199.152 382.916 199.266 383.312 199.494C383.708 199.718 384.044 200.03 384.32 200.43C384.596 200.826 384.806 201.288 384.95 201.816C385.098 202.344 385.172 202.908 385.172 203.508C385.172 204.108 385.098 204.672 384.95 205.2C384.806 205.724 384.596 206.186 384.32 206.586C384.044 206.986 383.708 207.3 383.312 207.528C382.916 207.752 382.468 207.864 381.968 207.864ZM381.968 207.024C382.496 207.024 382.938 206.862 383.294 206.538C383.654 206.214 383.924 205.786 384.104 205.254C384.284 204.718 384.374 204.136 384.374 203.508C384.374 202.844 384.28 202.248 384.092 201.72C383.908 201.188 383.636 200.768 383.276 200.46C382.92 200.148 382.484 199.992 381.968 199.992C381.56 199.992 381.204 200.086 380.9 200.274C380.596 200.462 380.344 200.72 380.144 201.048C379.944 201.376 379.794 201.752 379.694 202.176C379.594 202.596 379.544 203.04 379.544 203.508C379.544 204.14 379.636 204.724 379.82 205.26C380.004 205.792 380.276 206.22 380.636 206.544C380.996 206.864 381.44 207.024 381.968 207.024ZM388.999 207.864C388.495 207.864 388.045 207.752 387.649 207.528C387.253 207.3 386.915 206.986 386.635 206.586C386.355 206.186 386.141 205.724 385.993 205.2C385.849 204.672 385.777 204.108 385.777 203.508C385.777 202.908 385.849 202.344 385.993 201.816C386.141 201.288 386.355 200.826 386.635 200.43C386.915 200.03 387.253 199.718 387.649 199.494C388.045 199.266 388.495 199.152 388.999 199.152C389.499 199.152 389.947 199.266 390.343 199.494C390.739 199.718 391.075 200.03 391.351 200.43C391.627 200.826 391.837 201.288 391.981 201.816C392.129 202.344 392.203 202.908 392.203 203.508C392.203 204.108 392.129 204.672 391.981 205.2C391.837 205.724 391.627 206.186 391.351 206.586C391.075 206.986 390.739 207.3 390.343 207.528C389.947 207.752 389.499 207.864 388.999 207.864ZM388.999 207.024C389.527 207.024 389.969 206.862 390.325 206.538C390.685 206.214 390.955 205.786 391.135 205.254C391.315 204.718 391.405 204.136 391.405 203.508C391.405 202.844 391.311 202.248 391.123 201.72C390.939 201.188 390.667 200.768 390.307 200.46C389.951 200.148 389.515 199.992 388.999 199.992C388.591 199.992 388.235 200.086 387.931 200.274C387.627 200.462 387.375 200.72 387.175 201.048C386.975 201.376 386.825 201.752 386.725 202.176C386.625 202.596 386.575 203.04 386.575 203.508C386.575 204.14 386.667 204.724 386.851 205.26C387.035 205.792 387.307 206.22 387.667 206.544C388.027 206.864 388.471 207.024 388.999 207.024ZM393.519 202.668C393.387 202.668 393.275 202.622 393.183 202.53C393.091 202.434 393.045 202.318 393.045 202.182C393.045 202.054 393.091 201.944 393.183 201.852C393.275 201.756 393.387 201.708 393.519 201.708C393.655 201.708 393.769 201.756 393.861 201.852C393.957 201.944 394.005 202.054 394.005 202.182C394.005 202.318 393.957 202.434 393.861 202.53C393.769 202.622 393.655 202.668 393.519 202.668ZM393.519 207.864C393.387 207.864 393.275 207.816 393.183 207.72C393.091 207.628 393.045 207.514 393.045 207.378C393.045 207.25 393.091 207.14 393.183 207.048C393.275 206.952 393.387 206.904 393.519 206.904C393.655 206.904 393.769 206.952 393.861 207.048C393.957 207.14 394.005 207.25 394.005 207.378C394.005 207.514 393.957 207.628 393.861 207.72C393.769 207.816 393.655 207.864 393.519 207.864ZM398.304 207.864C397.8 207.864 397.35 207.752 396.954 207.528C396.558 207.3 396.22 206.986 395.94 206.586C395.66 206.186 395.446 205.724 395.298 205.2C395.154 204.672 395.082 204.108 395.082 203.508C395.082 202.908 395.154 202.344 395.298 201.816C395.446 201.288 395.66 200.826 395.94 200.43C396.22 200.03 396.558 199.718 396.954 199.494C397.35 199.266 397.8 199.152 398.304 199.152C398.804 199.152 399.252 199.266 399.648 199.494C400.044 199.718 400.38 200.03 400.656 200.43C400.932 200.826 401.142 201.288 401.286 201.816C401.434 202.344 401.508 202.908 401.508 203.508C401.508 204.108 401.434 204.672 401.286 205.2C401.142 205.724 400.932 206.186 400.656 206.586C400.38 206.986 400.044 207.3 399.648 207.528C399.252 207.752 398.804 207.864 398.304 207.864ZM398.304 207.024C398.832 207.024 399.274 206.862 399.63 206.538C399.99 206.214 400.26 205.786 400.44 205.254C400.62 204.718 400.71 204.136 400.71 203.508C400.71 202.844 400.616 202.248 400.428 201.72C400.244 201.188 399.972 200.768 399.612 200.46C399.256 200.148 398.82 199.992 398.304 199.992C397.896 199.992 397.54 200.086 397.236 200.274C396.932 200.462 396.68 200.72 396.48 201.048C396.28 201.376 396.13 201.752 396.03 202.176C395.93 202.596 395.88 203.04 395.88 203.508C395.88 204.14 395.972 204.724 396.156 205.26C396.34 205.792 396.612 206.22 396.972 206.544C397.332 206.864 397.776 207.024 398.304 207.024ZM403.982 207.708L405.836 204.498C405.412 204.658 404.988 204.708 404.564 204.648C404.14 204.584 403.752 204.432 403.4 204.192C403.048 203.948 402.764 203.636 402.548 203.256C402.336 202.872 402.23 202.44 402.23 201.96C402.23 201.576 402.302 201.214 402.446 200.874C402.594 200.534 402.796 200.236 403.052 199.98C403.308 199.72 403.604 199.518 403.94 199.374C404.28 199.226 404.644 199.152 405.032 199.152C405.544 199.152 406.01 199.28 406.43 199.536C406.854 199.788 407.192 200.126 407.444 200.55C407.7 200.974 407.828 201.444 407.828 201.96C407.828 202.252 407.792 202.504 407.72 202.716C407.652 202.924 407.548 203.158 407.408 203.418L404.948 207.708H403.982ZM405.02 203.928C405.4 203.928 405.738 203.838 406.034 203.658C406.334 203.474 406.57 203.232 406.742 202.932C406.914 202.632 407 202.31 407 201.966C407 201.59 406.908 201.254 406.724 200.958C406.544 200.658 406.304 200.422 406.004 200.25C405.704 200.074 405.38 199.986 405.032 199.986C404.648 199.986 404.306 200.078 404.006 200.262C403.71 200.446 403.476 200.69 403.304 200.994C403.136 201.294 403.052 201.618 403.052 201.966C403.052 202.326 403.14 202.656 403.316 202.956C403.492 203.252 403.728 203.488 404.024 203.664C404.324 203.84 404.656 203.928 405.02 203.928Z" fill="#535662"/>
<rect x="42.3857" y="261.708" width="379" height="49" rx="16" fill="#4268FF"/>
<path d="M182.139 280.908V282.364H179.017V290.708H177.561V282.364H174.446V280.908H182.139ZM182.532 290.708V283.708H183.988V284.45C184.231 284.161 184.53 283.932 184.884 283.764C185.239 283.596 185.622 283.512 186.032 283.512C186.294 283.512 186.553 283.547 186.809 283.617L186.228 285.087C186.046 285.017 185.864 284.982 185.682 284.982C185.374 284.982 185.092 285.059 184.835 285.213C184.579 285.363 184.373 285.566 184.219 285.822C184.065 286.079 183.988 286.364 183.988 286.676V290.708H182.532ZM192.736 283.708H194.192V290.708H192.729L192.673 289.693C192.468 290.053 192.19 290.342 191.84 290.561C191.49 290.781 191.077 290.89 190.601 290.89C190.088 290.89 189.605 290.795 189.152 290.603C188.7 290.407 188.301 290.137 187.955 289.791C187.615 289.446 187.349 289.049 187.157 288.601C186.966 288.149 186.87 287.663 186.87 287.145C186.87 286.646 186.964 286.177 187.15 285.738C187.337 285.295 187.596 284.908 187.927 284.576C188.259 284.245 188.641 283.986 189.075 283.799C189.514 283.608 189.983 283.512 190.482 283.512C190.991 283.512 191.439 283.629 191.826 283.862C192.218 284.091 192.543 284.385 192.799 284.744L192.736 283.708ZM190.566 289.483C190.977 289.483 191.336 289.383 191.644 289.182C191.952 288.977 192.19 288.702 192.358 288.356C192.531 288.011 192.617 287.628 192.617 287.208C192.617 286.784 192.531 286.399 192.358 286.053C192.186 285.708 191.945 285.435 191.637 285.234C191.334 285.029 190.977 284.926 190.566 284.926C190.16 284.926 189.789 285.029 189.453 285.234C189.117 285.44 188.851 285.715 188.655 286.06C188.459 286.406 188.361 286.788 188.361 287.208C188.361 287.633 188.462 288.018 188.662 288.363C188.868 288.704 189.136 288.977 189.467 289.182C189.803 289.383 190.17 289.483 190.566 289.483ZM201.889 286.319V290.708H200.433V286.676C200.433 286.364 200.356 286.079 200.202 285.822C200.053 285.566 199.85 285.363 199.593 285.213C199.341 285.059 199.056 284.982 198.739 284.982C198.431 284.982 198.149 285.059 197.892 285.213C197.635 285.363 197.43 285.566 197.276 285.822C197.122 286.079 197.045 286.364 197.045 286.676V290.708H195.589V283.708H197.045V284.45C197.288 284.161 197.586 283.932 197.941 283.764C198.296 283.596 198.678 283.512 199.089 283.512C199.607 283.512 200.078 283.638 200.503 283.89C200.928 284.142 201.264 284.481 201.511 284.905C201.763 285.33 201.889 285.801 201.889 286.319ZM205.386 290.841C205.018 290.818 204.658 290.743 204.308 290.617C203.958 290.491 203.65 290.321 203.384 290.106C203.123 289.887 202.927 289.63 202.796 289.336L204.035 288.804C204.096 288.93 204.201 289.054 204.35 289.175C204.504 289.297 204.684 289.397 204.889 289.476C205.095 289.551 205.309 289.588 205.533 289.588C205.753 289.588 205.956 289.558 206.142 289.497C206.334 289.432 206.49 289.334 206.611 289.203C206.733 289.073 206.793 288.916 206.793 288.734C206.793 288.529 206.723 288.37 206.583 288.258C206.448 288.142 206.278 288.053 206.072 287.992C205.867 287.932 205.662 287.873 205.456 287.817C204.999 287.715 204.579 287.575 204.196 287.397C203.818 287.215 203.517 286.984 203.293 286.704C203.069 286.42 202.957 286.072 202.957 285.661C202.957 285.213 203.079 284.826 203.321 284.499C203.564 284.168 203.881 283.914 204.273 283.736C204.67 283.559 205.092 283.47 205.54 283.47C206.1 283.47 206.614 283.589 207.08 283.827C207.547 284.065 207.904 284.392 208.151 284.807L206.996 285.493C206.926 285.353 206.821 285.227 206.681 285.115C206.541 285.003 206.383 284.915 206.205 284.849C206.028 284.779 205.844 284.74 205.652 284.73C205.414 284.721 205.193 284.749 204.987 284.814C204.787 284.875 204.626 284.973 204.504 285.108C204.383 285.244 204.322 285.416 204.322 285.626C204.322 285.832 204.395 285.986 204.539 286.088C204.684 286.186 204.866 286.266 205.085 286.326C205.309 286.387 205.538 286.455 205.771 286.529C206.187 286.66 206.576 286.821 206.94 287.012C207.304 287.199 207.598 287.43 207.822 287.705C208.046 287.981 208.154 288.317 208.144 288.713C208.144 289.152 208.011 289.537 207.745 289.868C207.484 290.2 207.143 290.452 206.723 290.624C206.303 290.797 205.858 290.869 205.386 290.841ZM211.142 282.119V283.708H213.116V285.164H211.142V290.708H209.686V285.164H208.853V283.708H209.686V282.119C209.686 281.737 209.779 281.389 209.966 281.076C210.153 280.759 210.402 280.507 210.715 280.32C211.032 280.134 211.385 280.04 211.772 280.04C212.052 280.04 212.325 280.096 212.591 280.208C212.857 280.32 213.095 280.493 213.305 280.726L212.262 281.755C212.211 281.671 212.138 281.608 212.045 281.566C211.956 281.52 211.865 281.496 211.772 281.496C211.599 281.496 211.45 281.557 211.324 281.678C211.203 281.8 211.142 281.947 211.142 282.119ZM217.181 290.89C216.537 290.89 215.949 290.725 215.417 290.393C214.889 290.062 214.467 289.619 214.15 289.063C213.837 288.503 213.681 287.885 213.681 287.208C213.681 286.695 213.772 286.217 213.954 285.773C214.136 285.325 214.385 284.933 214.703 284.597C215.025 284.257 215.398 283.991 215.823 283.799C216.247 283.608 216.7 283.512 217.181 283.512C217.717 283.512 218.21 283.624 218.658 283.848C219.106 284.068 219.488 284.373 219.806 284.765C220.123 285.153 220.356 285.601 220.506 286.109C220.655 286.613 220.699 287.15 220.639 287.719H215.242C215.302 288.041 215.419 288.333 215.592 288.594C215.769 288.851 215.993 289.054 216.264 289.203C216.539 289.353 216.845 289.43 217.181 289.434C217.535 289.434 217.857 289.346 218.147 289.168C218.441 288.991 218.681 288.746 218.868 288.433L220.345 288.776C220.065 289.397 219.642 289.906 219.078 290.302C218.513 290.694 217.881 290.89 217.181 290.89ZM215.193 286.606H219.169C219.122 286.27 219.003 285.967 218.812 285.696C218.625 285.421 218.389 285.204 218.105 285.045C217.825 284.882 217.517 284.8 217.181 284.8C216.849 284.8 216.541 284.88 216.257 285.038C215.977 285.197 215.743 285.414 215.557 285.689C215.375 285.96 215.253 286.266 215.193 286.606ZM221.798 290.708V283.708H223.254V284.45C223.497 284.161 223.795 283.932 224.15 283.764C224.505 283.596 224.887 283.512 225.298 283.512C225.559 283.512 225.818 283.547 226.075 283.617L225.494 285.087C225.312 285.017 225.13 284.982 224.948 284.982C224.64 284.982 224.358 285.059 224.101 285.213C223.844 285.363 223.639 285.566 223.485 285.822C223.331 286.079 223.254 286.364 223.254 286.676V290.708H221.798ZM234.121 285.164H232.651L232.644 290.708H231.188L231.195 285.164H230.082V283.708H231.195L231.188 281.51H232.644L232.651 283.708H234.121V285.164ZM238.29 290.89C237.646 290.89 237.058 290.725 236.526 290.393C235.999 290.062 235.576 289.619 235.259 289.063C234.946 288.503 234.79 287.885 234.79 287.208C234.79 286.695 234.881 286.217 235.063 285.773C235.245 285.325 235.495 284.933 235.812 284.597C236.134 284.257 236.507 283.991 236.932 283.799C237.357 283.608 237.809 283.512 238.29 283.512C238.934 283.512 239.52 283.678 240.047 284.009C240.579 284.341 241.001 284.786 241.314 285.346C241.631 285.906 241.79 286.527 241.79 287.208C241.79 287.717 241.699 288.193 241.517 288.636C241.335 289.08 241.083 289.472 240.761 289.812C240.444 290.148 240.073 290.412 239.648 290.603C239.228 290.795 238.775 290.89 238.29 290.89ZM238.29 289.434C238.677 289.434 239.025 289.332 239.333 289.126C239.641 288.921 239.884 288.65 240.061 288.314C240.243 287.974 240.334 287.605 240.334 287.208C240.334 286.802 240.241 286.429 240.054 286.088C239.872 285.748 239.627 285.477 239.319 285.276C239.011 285.071 238.668 284.968 238.29 284.968C237.907 284.968 237.56 285.071 237.247 285.276C236.939 285.482 236.694 285.755 236.512 286.095C236.335 286.436 236.246 286.807 236.246 287.208C236.246 287.624 236.339 287.999 236.526 288.335C236.713 288.671 236.96 288.94 237.268 289.14C237.581 289.336 237.921 289.434 238.29 289.434ZM252.707 286.319V290.708H251.251V286.676C251.251 286.364 251.174 286.079 251.02 285.822C250.871 285.566 250.668 285.363 250.411 285.213C250.159 285.059 249.875 284.982 249.557 284.982C249.249 284.982 248.967 285.059 248.71 285.213C248.454 285.363 248.248 285.566 248.094 285.822C247.94 286.079 247.863 286.364 247.863 286.676V290.708H246.407V280.208H247.863V284.45C248.106 284.161 248.405 283.932 248.759 283.764C249.114 283.596 249.497 283.512 249.907 283.512C250.425 283.512 250.897 283.638 251.321 283.89C251.746 284.142 252.082 284.481 252.329 284.905C252.581 285.33 252.707 285.801 252.707 286.319ZM253.825 288.083V283.708H255.281V287.726C255.281 288.039 255.358 288.324 255.512 288.58C255.666 288.837 255.871 289.042 256.128 289.196C256.384 289.346 256.667 289.42 256.975 289.42C257.287 289.42 257.57 289.346 257.822 289.196C258.078 289.042 258.281 288.837 258.431 288.58C258.585 288.324 258.662 288.039 258.662 287.726V283.708H260.118L260.125 290.708H258.669L258.662 289.952C258.424 290.242 258.127 290.47 257.773 290.638C257.418 290.806 257.038 290.89 256.632 290.89C256.114 290.89 255.642 290.764 255.218 290.512C254.793 290.26 254.455 289.922 254.203 289.497C253.951 289.073 253.825 288.601 253.825 288.083ZM261.528 290.708V283.708H262.984V284.45C263.227 284.161 263.523 283.932 263.873 283.764C264.228 283.596 264.611 283.512 265.021 283.512C265.521 283.512 265.98 283.634 266.4 283.876C266.82 284.114 267.154 284.432 267.401 284.828C267.649 284.432 267.978 284.114 268.388 283.876C268.804 283.634 269.261 283.512 269.76 283.512C270.278 283.512 270.75 283.638 271.174 283.89C271.599 284.142 271.937 284.481 272.189 284.905C272.441 285.33 272.567 285.801 272.567 286.319V290.708H271.111V286.69C271.111 286.382 271.037 286.1 270.887 285.843C270.738 285.587 270.537 285.379 270.285 285.22C270.033 285.062 269.753 284.982 269.445 284.982C269.137 284.982 268.857 285.057 268.605 285.206C268.353 285.356 268.153 285.559 268.003 285.815C267.854 286.072 267.779 286.364 267.779 286.69V290.708H266.323V286.69C266.323 286.364 266.249 286.072 266.099 285.815C265.95 285.559 265.747 285.356 265.49 285.206C265.238 285.057 264.958 284.982 264.65 284.982C264.347 284.982 264.067 285.062 263.81 285.22C263.558 285.379 263.358 285.587 263.208 285.843C263.059 286.1 262.984 286.382 262.984 286.69V290.708H261.528ZM279.279 283.708H280.735V290.708H279.272L279.216 289.693C279.011 290.053 278.733 290.342 278.383 290.561C278.033 290.781 277.62 290.89 277.144 290.89C276.631 290.89 276.148 290.795 275.695 290.603C275.242 290.407 274.843 290.137 274.498 289.791C274.157 289.446 273.891 289.049 273.7 288.601C273.509 288.149 273.413 287.663 273.413 287.145C273.413 286.646 273.506 286.177 273.693 285.738C273.88 285.295 274.139 284.908 274.47 284.576C274.801 284.245 275.184 283.986 275.618 283.799C276.057 283.608 276.526 283.512 277.025 283.512C277.534 283.512 277.982 283.629 278.369 283.862C278.761 284.091 279.085 284.385 279.342 284.744L279.279 283.708ZM277.109 289.483C277.52 289.483 277.879 289.383 278.187 289.182C278.495 288.977 278.733 288.702 278.901 288.356C279.074 288.011 279.16 287.628 279.16 287.208C279.16 286.784 279.074 286.399 278.901 286.053C278.728 285.708 278.488 285.435 278.18 285.234C277.877 285.029 277.52 284.926 277.109 284.926C276.703 284.926 276.332 285.029 275.996 285.234C275.66 285.44 275.394 285.715 275.198 286.06C275.002 286.406 274.904 286.788 274.904 287.208C274.904 287.633 275.004 288.018 275.205 288.363C275.41 288.704 275.679 288.977 276.01 289.182C276.346 289.383 276.712 289.483 277.109 289.483ZM288.432 286.319V290.708H286.976V286.676C286.976 286.364 286.899 286.079 286.745 285.822C286.596 285.566 286.393 285.363 286.136 285.213C285.884 285.059 285.599 284.982 285.282 284.982C284.974 284.982 284.692 285.059 284.435 285.213C284.178 285.363 283.973 285.566 283.819 285.822C283.665 286.079 283.588 286.364 283.588 286.676V290.708H282.132V283.708H283.588V284.45C283.831 284.161 284.129 283.932 284.484 283.764C284.839 283.596 285.221 283.512 285.632 283.512C286.15 283.512 286.621 283.638 287.046 283.89C287.471 284.142 287.807 284.481 288.054 284.905C288.306 285.33 288.432 285.801 288.432 286.319Z" fill="white"/>
</g>
<defs>
<filter id="filter0_d_2175_32" x="-3.05176e-05" y="-0.00012207" width="463.772" height="356.772" filterUnits="userSpaceOnUse" color-interpolation-filters="sRGB">
<feFlood flood-opacity="0" result="BackgroundImageFix"/>
<feColorMatrix in="SourceAlpha" type="matrix" values="0 0 0 0 0 0 0 0 0 0 0 0 0 0 0 0 0 0 127 0" result="hardAlpha"/>
<feOffset dy="3.67715"/>
<feGaussianBlur stdDeviation="9.19289"/>
<feComposite in2="hardAlpha" operator="out"/>
<feColorMatrix type="matrix" values="0 0 0 0 0.0468057 0 0 0 0 0.0634939 0 0 0 0 0.129808 0 0 0 0.1 0"/>
<feBlend mode="normal" in2="BackgroundImageFix" result="effect1_dropShadow_2175_32"/>
<feBlend mode="normal" in="SourceGraphic" in2="effect1_dropShadow_2175_32" result="shape"/>
</filter>
<clipPath id="clip0_2175_32">
<rect width="19" height="19" fill="white" transform="translate(346.386 95.7085)"/>
</clipPath>
<clipPath id="clip1_2175_32">
<rect width="262" height="28" fill="white" transform="translate(110.386 189.708)"/>
</clipPath>
</defs>
</svg>
