<svg width="506" height="426" viewBox="0 0 506 426" fill="none" xmlns="http://www.w3.org/2000/svg">
<g filter="url(#filter0_d_2178_5039)">
<rect x="18.3857" y="14.7085" width="469" height="389" rx="22.0629" fill="white" shape-rendering="crispEdges"/>
<rect x="18.8454" y="15.1681" width="468.081" height="388.081" rx="21.6033" stroke="#0C1021" stroke-opacity="0.05" stroke-width="0.919289" shape-rendering="crispEdges"/>
<path d="M49.4537 63.9085H52.3697L58.4777 80.7085H55.8377L54.6737 77.5165H47.1497L45.9977 80.7085H43.3457L49.4537 63.9085ZM48.0737 75.0205H53.7497L50.9057 67.2205L48.0737 75.0205ZM67.7642 63.9085L62.9042 82.0525H60.4082L65.2682 63.9085H67.7642ZM70.1695 80.7085V63.9085H76.1335C76.9975 63.9085 77.7775 64.0845 78.4735 64.4365C79.1775 64.7885 79.7335 65.2965 80.1415 65.9605C80.5575 66.6165 80.7655 67.4045 80.7655 68.3245C80.7655 68.7725 80.6935 69.2125 80.5495 69.6445C80.4055 70.0765 80.2015 70.4565 79.9375 70.7845C79.6735 71.1125 79.3535 71.3445 78.9775 71.4805C79.4895 71.6085 79.9135 71.8405 80.2495 72.1765C80.5935 72.5045 80.8655 72.8885 81.0655 73.3285C81.2655 73.7685 81.4055 74.2245 81.4855 74.6965C81.5735 75.1685 81.6175 75.6165 81.6175 76.0405C81.6175 76.9365 81.4015 77.7365 80.9695 78.4405C80.5375 79.1445 79.9575 79.7005 79.2295 80.1085C78.5095 80.5085 77.7135 80.7085 76.8415 80.7085H70.1695ZM72.6655 78.5485H76.6015C77.1135 78.5485 77.5775 78.4205 77.9935 78.1645C78.4175 77.9085 78.7535 77.5565 79.0015 77.1085C79.2495 76.6525 79.3735 76.1405 79.3735 75.5725C79.3735 75.0765 79.2495 74.6085 79.0015 74.1685C78.7535 73.7205 78.4175 73.3605 77.9935 73.0885C77.5775 72.8165 77.1135 72.6805 76.6015 72.6805H72.6655V78.5485ZM72.6655 70.5565H75.8695C76.5255 70.5565 77.0895 70.3565 77.5615 69.9565C78.0335 69.5565 78.2695 69.0085 78.2695 68.3125C78.2695 67.5685 78.0335 67.0125 77.5615 66.6445C77.0895 66.2685 76.5255 66.0805 75.8695 66.0805H72.6655V70.5565ZM95.7747 81.0205C94.8547 81.0205 93.9707 80.8765 93.1227 80.5885C92.2747 80.3005 91.5347 79.8885 90.9027 79.3525C90.2707 78.8085 89.8187 78.1645 89.5467 77.4205L91.8867 76.5445C92.0227 76.9285 92.2827 77.2725 92.6667 77.5765C93.0587 77.8725 93.5227 78.1045 94.0587 78.2725C94.6027 78.4405 95.1747 78.5245 95.7747 78.5245C96.4147 78.5245 97.0147 78.4205 97.5747 78.2125C98.1427 78.0045 98.5987 77.7165 98.9427 77.3485C99.2947 76.9805 99.4707 76.5485 99.4707 76.0525C99.4707 75.5405 99.2867 75.1205 98.9187 74.7925C98.5587 74.4645 98.0947 74.2045 97.5267 74.0125C96.9667 73.8205 96.3827 73.6765 95.7747 73.5805C94.5987 73.3885 93.5427 73.1085 92.6067 72.7405C91.6787 72.3725 90.9427 71.8565 90.3987 71.1925C89.8627 70.5285 89.5947 69.6645 89.5947 68.6005C89.5947 67.6005 89.8787 66.7285 90.4467 65.9845C91.0227 65.2405 91.7787 64.6645 92.7147 64.2565C93.6587 63.8405 94.6787 63.6325 95.7747 63.6325C96.6787 63.6325 97.5507 63.7765 98.3907 64.0645C99.2387 64.3445 99.9827 64.7565 100.623 65.3005C101.271 65.8365 101.735 66.4885 102.015 67.2565L99.6507 68.1085C99.5147 67.7165 99.2547 67.3765 98.8707 67.0885C98.4867 66.7925 98.0227 66.5605 97.4787 66.3925C96.9427 66.2245 96.3747 66.1405 95.7747 66.1405C95.1347 66.1325 94.5347 66.2365 93.9747 66.4525C93.4227 66.6605 92.9707 66.9485 92.6187 67.3165C92.2667 67.6845 92.0907 68.1125 92.0907 68.6005C92.0907 69.2005 92.2547 69.6565 92.5827 69.9685C92.9107 70.2805 93.3507 70.5125 93.9027 70.6645C94.4627 70.8085 95.0867 70.9405 95.7747 71.0605C96.8787 71.2365 97.8987 71.5285 98.8347 71.9365C99.7787 72.3445 100.535 72.8885 101.103 73.5685C101.679 74.2405 101.967 75.0685 101.967 76.0525C101.967 77.0445 101.679 77.9165 101.103 78.6685C100.535 79.4125 99.7787 79.9925 98.8347 80.4085C97.8987 80.8165 96.8787 81.0205 95.7747 81.0205ZM112.177 77.3005L114.409 78.5125C113.865 79.2725 113.173 79.8805 112.333 80.3365C111.501 80.7925 110.597 81.0205 109.621 81.0205C108.517 81.0205 107.509 80.7365 106.597 80.1685C105.693 79.6005 104.969 78.8405 104.425 77.8885C103.889 76.9285 103.621 75.8685 103.621 74.7085C103.621 73.8285 103.777 73.0085 104.089 72.2485C104.401 71.4805 104.829 70.8085 105.373 70.2325C105.925 69.6485 106.565 69.1925 107.293 68.8645C108.021 68.5365 108.797 68.3725 109.621 68.3725C110.597 68.3725 111.501 68.6005 112.333 69.0565C113.173 69.5125 113.865 70.1245 114.409 70.8925L112.177 72.1045C111.841 71.7045 111.449 71.4005 111.001 71.1925C110.553 70.9765 110.093 70.8685 109.621 70.8685C108.965 70.8685 108.369 71.0485 107.833 71.4085C107.305 71.7605 106.885 72.2285 106.573 72.8125C106.269 73.3885 106.117 74.0205 106.117 74.7085C106.117 75.3885 106.273 76.0205 106.585 76.6045C106.897 77.1805 107.317 77.6445 107.845 77.9965C108.381 78.3485 108.973 78.5245 109.621 78.5245C110.117 78.5245 110.589 78.4125 111.037 78.1885C111.485 77.9645 111.865 77.6685 112.177 77.3005ZM116.576 80.7085V68.7085H119.072V69.9805C119.488 69.4845 120 69.0925 120.608 68.8045C121.216 68.5165 121.872 68.3725 122.576 68.3725C123.024 68.3725 123.468 68.4325 123.908 68.5525L122.912 71.0725C122.6 70.9525 122.288 70.8925 121.976 70.8925C121.448 70.8925 120.964 71.0245 120.524 71.2885C120.084 71.5445 119.732 71.8925 119.468 72.3325C119.204 72.7725 119.072 73.2605 119.072 73.7965V80.7085H116.576ZM125.294 68.7085H127.79V80.7085H125.294V68.7085ZM126.566 66.9685C126.182 66.9685 125.862 66.8445 125.606 66.5965C125.35 66.3485 125.222 66.0365 125.222 65.6605C125.222 65.2925 125.35 64.9845 125.606 64.7365C125.862 64.4805 126.178 64.3525 126.554 64.3525C126.922 64.3525 127.234 64.4805 127.49 64.7365C127.746 64.9845 127.874 65.2925 127.874 65.6605C127.874 66.0365 127.746 66.3485 127.49 66.5965C127.242 66.8445 126.934 66.9685 126.566 66.9685ZM132.994 86.7085H130.498V68.7085H132.994V70.4725C133.394 69.8565 133.906 69.3565 134.53 68.9725C135.154 68.5885 135.89 68.3965 136.738 68.3965C137.61 68.3965 138.426 68.5605 139.186 68.8885C139.954 69.2165 140.626 69.6725 141.202 70.2565C141.778 70.8325 142.23 71.5005 142.558 72.2605C142.886 73.0205 143.05 73.8365 143.05 74.7085C143.05 75.5805 142.886 76.4005 142.558 77.1685C142.23 77.9365 141.778 78.6125 141.202 79.1965C140.626 79.7725 139.954 80.2245 139.186 80.5525C138.426 80.8805 137.61 81.0445 136.738 81.0445C135.89 81.0445 135.154 80.8525 134.53 80.4685C133.906 80.0765 133.394 79.5765 132.994 78.9685V86.7085ZM136.714 70.8085C136.018 70.8085 135.406 70.9845 134.878 71.3365C134.35 71.6885 133.938 72.1605 133.642 72.7525C133.346 73.3365 133.198 73.9885 133.198 74.7085C133.198 75.4285 133.346 76.0845 133.642 76.6765C133.938 77.2685 134.35 77.7405 134.878 78.0925C135.406 78.4445 136.018 78.6205 136.714 78.6205C137.402 78.6205 138.034 78.4485 138.61 78.1045C139.186 77.7525 139.646 77.2805 139.99 76.6885C140.334 76.0965 140.506 75.4365 140.506 74.7085C140.506 73.9965 140.334 73.3445 139.99 72.7525C139.654 72.1605 139.198 71.6885 138.622 71.3365C138.046 70.9845 137.41 70.8085 136.714 70.8085ZM151.271 71.2045H148.751L148.739 80.7085H146.243L146.255 71.2045H144.347V68.7085H146.255L146.243 64.9405H148.739L148.751 68.7085H151.271V71.2045ZM171.893 63.9085V66.4045H166.541V80.7085H164.045V66.4045H158.705V63.9085H171.893ZM177.754 81.0205C176.65 81.0205 175.642 80.7365 174.73 80.1685C173.826 79.6005 173.102 78.8405 172.558 77.8885C172.022 76.9285 171.754 75.8685 171.754 74.7085C171.754 73.8285 171.91 73.0085 172.222 72.2485C172.534 71.4805 172.962 70.8085 173.506 70.2325C174.058 69.6485 174.698 69.1925 175.426 68.8645C176.154 68.5365 176.93 68.3725 177.754 68.3725C178.674 68.3725 179.518 68.5645 180.286 68.9485C181.054 69.3245 181.71 69.8485 182.254 70.5205C182.798 71.1845 183.198 71.9525 183.454 72.8245C183.71 73.6885 183.786 74.6085 183.682 75.5845H174.43C174.534 76.1365 174.734 76.6365 175.03 77.0845C175.334 77.5245 175.718 77.8725 176.182 78.1285C176.654 78.3845 177.178 78.5165 177.754 78.5245C178.362 78.5245 178.914 78.3725 179.41 78.0685C179.914 77.7645 180.326 77.3445 180.646 76.8085L183.178 77.3965C182.698 78.4605 181.974 79.3325 181.006 80.0125C180.038 80.6845 178.954 81.0205 177.754 81.0205ZM174.346 73.6765H181.162C181.082 73.1005 180.878 72.5805 180.55 72.1165C180.23 71.6445 179.826 71.2725 179.338 71.0005C178.858 70.7205 178.33 70.5805 177.754 70.5805C177.186 70.5805 176.658 70.7165 176.17 70.9885C175.69 71.2605 175.29 71.6325 174.97 72.1045C174.658 72.5685 174.45 73.0925 174.346 73.6765ZM189.316 80.9365C188.684 80.8965 188.068 80.7685 187.468 80.5525C186.868 80.3365 186.34 80.0445 185.884 79.6765C185.436 79.3005 185.1 78.8605 184.876 78.3565L187 77.4445C187.104 77.6605 187.284 77.8725 187.54 78.0805C187.804 78.2885 188.112 78.4605 188.464 78.5965C188.816 78.7245 189.184 78.7885 189.568 78.7885C189.944 78.7885 190.292 78.7365 190.612 78.6325C190.94 78.5205 191.208 78.3525 191.416 78.1285C191.624 77.9045 191.728 77.6365 191.728 77.3245C191.728 76.9725 191.608 76.7005 191.368 76.5085C191.136 76.3085 190.844 76.1565 190.492 76.0525C190.14 75.9485 189.788 75.8485 189.436 75.7525C188.652 75.5765 187.932 75.3365 187.276 75.0325C186.628 74.7205 186.112 74.3245 185.728 73.8445C185.344 73.3565 185.152 72.7605 185.152 72.0565C185.152 71.2885 185.36 70.6245 185.776 70.0645C186.192 69.4965 186.736 69.0605 187.408 68.7565C188.088 68.4525 188.812 68.3005 189.58 68.3005C190.54 68.3005 191.42 68.5045 192.22 68.9125C193.02 69.3205 193.632 69.8805 194.056 70.5925L192.076 71.7685C191.956 71.5285 191.776 71.3125 191.536 71.1205C191.296 70.9285 191.024 70.7765 190.72 70.6645C190.416 70.5445 190.1 70.4765 189.772 70.4605C189.364 70.4445 188.984 70.4925 188.632 70.6045C188.288 70.7085 188.012 70.8765 187.804 71.1085C187.596 71.3405 187.492 71.6365 187.492 71.9965C187.492 72.3485 187.616 72.6125 187.864 72.7885C188.112 72.9565 188.424 73.0925 188.8 73.1965C189.184 73.3005 189.576 73.4165 189.976 73.5445C190.688 73.7685 191.356 74.0445 191.98 74.3725C192.604 74.6925 193.108 75.0885 193.492 75.5605C193.876 76.0325 194.06 76.6085 194.044 77.2885C194.044 78.0405 193.816 78.7005 193.36 79.2685C192.912 79.8365 192.328 80.2685 191.608 80.5645C190.888 80.8605 190.124 80.9845 189.316 80.9365ZM202.435 71.2045H199.915L199.903 80.7085H197.407L197.419 71.2045H195.511V68.7085H197.419L197.407 64.9405H199.903L199.915 68.7085H202.435V71.2045ZM204.419 68.7085H206.915V80.7085H204.419V68.7085ZM205.691 66.9685C205.307 66.9685 204.987 66.8445 204.731 66.5965C204.475 66.3485 204.347 66.0365 204.347 65.6605C204.347 65.2925 204.475 64.9845 204.731 64.7365C204.987 64.4805 205.303 64.3525 205.679 64.3525C206.047 64.3525 206.359 64.4805 206.615 64.7365C206.871 64.9845 206.999 65.2925 206.999 65.6605C206.999 66.0365 206.871 66.3485 206.615 66.5965C206.367 66.8445 206.059 66.9685 205.691 66.9685ZM220.493 73.1845V80.7085H217.997V73.7965C217.997 73.2605 217.865 72.7725 217.601 72.3325C217.345 71.8925 216.997 71.5445 216.557 71.2885C216.125 71.0245 215.637 70.8925 215.093 70.8925C214.565 70.8925 214.081 71.0245 213.641 71.2885C213.201 71.5445 212.849 71.8925 212.585 72.3325C212.321 72.7725 212.189 73.2605 212.189 73.7965V80.7085H209.693V68.7085H212.189V69.9805C212.605 69.4845 213.117 69.0925 213.725 68.8045C214.333 68.5165 214.989 68.3725 215.693 68.3725C216.581 68.3725 217.389 68.5885 218.117 69.0205C218.845 69.4525 219.421 70.0325 219.845 70.7605C220.277 71.4885 220.493 72.2965 220.493 73.1845ZM231.786 68.7085H234.282V81.0205C234.282 81.8445 234.106 82.6045 233.754 83.3005C233.41 83.9965 232.942 84.5965 232.35 85.1005C231.758 85.6125 231.078 86.0085 230.31 86.2885C229.55 86.5685 228.754 86.7085 227.922 86.7085C227.082 86.7085 226.274 86.5285 225.498 86.1685C224.722 85.8165 224.038 85.3365 223.446 84.7285C222.862 84.1205 222.426 83.4325 222.138 82.6645L224.43 81.6325C224.59 82.1285 224.846 82.5685 225.198 82.9525C225.558 83.3365 225.974 83.6405 226.446 83.8645C226.926 84.0885 227.418 84.2005 227.922 84.2005C228.418 84.2005 228.894 84.1205 229.35 83.9605C229.814 83.8085 230.226 83.5925 230.586 83.3125C230.954 83.0325 231.246 82.6965 231.462 82.3045C231.678 81.9125 231.786 81.4845 231.786 81.0205V78.9925C231.394 79.6005 230.89 80.0925 230.274 80.4685C229.658 80.8365 228.942 81.0205 228.126 81.0205C227.278 81.0205 226.478 80.8565 225.726 80.5285C224.974 80.2005 224.314 79.7485 223.746 79.1725C223.178 78.5885 222.734 77.9165 222.414 77.1565C222.094 76.3965 221.934 75.5805 221.934 74.7085C221.934 73.8365 222.094 73.0205 222.414 72.2605C222.734 71.4925 223.178 70.8205 223.746 70.2445C224.314 69.6605 224.974 69.2045 225.726 68.8765C226.478 68.5485 227.278 68.3845 228.126 68.3845C228.942 68.3845 229.658 68.5725 230.274 68.9485C230.89 69.3165 231.394 69.8085 231.786 70.4245V68.7085ZM228.15 78.6085C228.846 78.6085 229.454 78.4325 229.974 78.0805C230.494 77.7205 230.898 77.2445 231.186 76.6525C231.474 76.0605 231.618 75.4125 231.618 74.7085C231.618 73.9885 231.47 73.3365 231.174 72.7525C230.886 72.1605 230.482 71.6885 229.962 71.3365C229.442 70.9765 228.838 70.7965 228.15 70.7965C227.478 70.7965 226.862 70.9725 226.302 71.3245C225.75 71.6765 225.31 72.1485 224.982 72.7405C224.654 73.3325 224.49 73.9885 224.49 74.7085C224.49 75.4285 224.654 76.0845 224.982 76.6765C225.318 77.2685 225.762 77.7405 226.314 78.0925C226.874 78.4365 227.486 78.6085 228.15 78.6085Z" fill="#0C1021"/>
<rect x="355.386" y="55.2085" width="108" height="34" rx="10" fill="white"/>
<rect x="355.886" y="55.7085" width="107" height="33" rx="9.5" stroke="#002852" stroke-opacity="0.1"/>
<path d="M376.908 77.3477C376.225 77.3477 375.615 77.23 375.078 76.9947C374.545 76.7594 374.122 76.4329 373.811 76.0153C373.502 75.5944 373.337 75.1072 373.313 74.5537H374.875C374.894 74.8553 374.996 75.1171 375.178 75.3392C375.363 75.5579 375.605 75.727 375.904 75.8463C376.202 75.9656 376.533 76.0253 376.898 76.0253C377.299 76.0253 377.654 75.9557 377.962 75.8165C378.273 75.6772 378.517 75.4834 378.693 75.2348C378.868 74.9829 378.956 74.6929 378.956 74.3647C378.956 74.0234 378.868 73.7234 378.693 73.4649C378.52 73.2031 378.267 72.9976 377.932 72.8484C377.601 72.6993 377.2 72.6247 376.729 72.6247H375.869V71.3718H376.729C377.107 71.3718 377.438 71.3039 377.723 71.168C378.012 71.0321 378.237 70.8432 378.399 70.6013C378.562 70.356 378.643 70.0693 378.643 69.7412C378.643 69.4263 378.572 69.1529 378.429 68.9209C378.29 68.6855 378.091 68.5016 377.833 68.369C377.577 68.2364 377.276 68.1701 376.928 68.1701C376.596 68.1701 376.286 68.2315 375.998 68.3541C375.713 68.4734 375.481 68.6458 375.302 68.8711C375.123 69.0932 375.027 69.36 375.014 69.6716H373.527C373.544 69.1214 373.706 68.6375 374.014 68.2199C374.326 67.8022 374.737 67.4758 375.247 67.2405C375.758 67.0051 376.325 66.8875 376.948 66.8875C377.601 66.8875 378.164 67.0151 378.638 67.2703C379.115 67.5222 379.483 67.8586 379.742 68.2795C380.004 68.7004 380.133 69.1611 380.13 69.6616C380.133 70.2317 379.974 70.7156 379.652 71.1133C379.334 71.5111 378.91 71.7779 378.38 71.9138V71.9933C379.056 72.096 379.579 72.3645 379.951 72.7987C380.325 73.2329 380.511 73.7715 380.507 74.4145C380.511 74.9746 380.355 75.4767 380.04 75.9209C379.728 76.365 379.303 76.7147 378.762 76.9699C378.222 77.2218 377.604 77.3477 376.908 77.3477ZM385.931 77.3775C385.146 77.3742 384.475 77.1671 383.918 76.7561C383.361 76.3451 382.935 75.7468 382.64 74.9613C382.345 74.1758 382.198 73.2296 382.198 72.1226C382.198 71.0189 382.345 70.0759 382.64 69.2937C382.938 68.5115 383.366 67.9149 383.923 67.504C384.483 67.093 385.152 66.8875 385.931 66.8875C386.71 66.8875 387.378 67.0946 387.935 67.5089C388.492 67.9199 388.918 68.5165 389.213 69.2987C389.511 70.0776 389.66 71.0189 389.66 72.1226C389.66 73.2329 389.513 74.1808 389.218 74.9663C388.923 75.7485 388.497 76.3468 387.94 76.7611C387.383 77.172 386.714 77.3775 385.931 77.3775ZM385.931 76.0501C386.621 76.0501 387.159 75.7137 387.547 75.0409C387.938 74.3681 388.134 73.3953 388.134 72.1226C388.134 71.2774 388.044 70.5631 387.865 69.9798C387.69 69.3932 387.436 68.949 387.105 68.6474C386.777 68.3425 386.385 68.19 385.931 68.19C385.245 68.19 384.707 68.5281 384.316 69.2042C383.925 69.8804 383.727 70.8531 383.724 72.1226C383.724 72.971 383.812 73.6886 383.987 74.2753C384.166 74.8586 384.42 75.3011 384.748 75.6027C385.076 75.901 385.471 76.0501 385.931 76.0501ZM398.564 77.2085H395.268V67.0267H398.669C399.666 67.0267 400.523 67.2305 401.239 67.6382C401.955 68.0425 402.503 68.6242 402.884 69.3832C403.269 70.1389 403.461 71.0454 403.461 72.1027C403.461 73.1633 403.267 74.0747 402.88 74.837C402.495 75.5994 401.938 76.186 401.209 76.597C400.48 77.0047 399.598 77.2085 398.564 77.2085ZM396.804 75.8662H398.48C399.255 75.8662 399.9 75.7203 400.414 75.4287C400.927 75.1337 401.312 74.7078 401.567 74.151C401.822 73.5908 401.95 72.9081 401.95 72.1027C401.95 71.3039 401.822 70.6261 401.567 70.0693C401.315 69.5125 400.939 69.0899 400.438 68.8015C399.938 68.5132 399.317 68.369 398.574 68.369H396.804V75.8662ZM407.475 77.3775C406.991 77.3775 406.553 77.288 406.162 77.1091C405.771 76.9268 405.461 76.6633 405.232 76.3186C405.007 75.9739 404.894 75.5513 404.894 75.0508C404.894 74.62 404.977 74.2653 405.143 73.9869C405.309 73.7085 405.532 73.4881 405.814 73.3257C406.096 73.1633 406.411 73.0406 406.759 72.9578C407.107 72.8749 407.461 72.812 407.823 72.7689C408.28 72.7158 408.651 72.6727 408.936 72.6396C409.221 72.6031 409.428 72.5451 409.558 72.4656C409.687 72.3861 409.752 72.2568 409.752 72.0778V72.043C409.752 71.6088 409.629 71.2724 409.384 71.0338C409.142 70.7951 408.78 70.6758 408.3 70.6758C407.799 70.6758 407.405 70.7869 407.117 71.0089C406.832 71.2277 406.634 71.4713 406.525 71.7397L405.128 71.4216C405.294 70.9575 405.536 70.583 405.854 70.298C406.175 70.0096 406.545 69.8008 406.962 69.6716C407.38 69.539 407.819 69.4727 408.28 69.4727C408.585 69.4727 408.908 69.5092 409.249 69.5821C409.594 69.6517 409.916 69.7809 410.214 69.9699C410.515 70.1588 410.762 70.4289 410.955 70.7802C411.147 71.1282 411.243 71.5807 411.243 72.1375V77.2085H409.791V76.1645H409.732C409.636 76.3567 409.491 76.5456 409.299 76.7312C409.107 76.9168 408.86 77.0709 408.558 77.1936C408.257 77.3162 407.895 77.3775 407.475 77.3775ZM407.798 76.1843C408.209 76.1843 408.56 76.1031 408.852 75.9407C409.147 75.7783 409.37 75.5662 409.523 75.3044C409.679 75.0392 409.756 74.7558 409.756 74.4542V73.4699C409.703 73.5229 409.601 73.5726 409.448 73.619C409.299 73.6621 409.128 73.7002 408.936 73.7334C408.744 73.7632 408.557 73.7914 408.374 73.8179C408.192 73.8411 408.04 73.861 407.917 73.8775C407.629 73.914 407.365 73.9753 407.127 74.0615C406.891 74.1477 406.702 74.2719 406.56 74.4343C406.421 74.5934 406.351 74.8056 406.351 75.0707C406.351 75.4386 406.487 75.717 406.759 75.9059C407.03 76.0915 407.377 76.1843 407.798 76.1843ZM413.889 80.0721C413.667 80.0721 413.465 80.0539 413.283 80.0174C413.1 79.9843 412.964 79.9478 412.875 79.9081L413.233 78.69C413.505 78.7629 413.747 78.7944 413.959 78.7845C414.171 78.7745 414.358 78.695 414.521 78.5459C414.686 78.3967 414.832 78.1531 414.958 77.815L415.142 77.3079L412.348 69.5721H413.939L415.873 75.4983H415.952L417.886 69.5721H419.482L416.335 78.2277C416.189 78.6254 416.004 78.9618 415.778 79.2369C415.553 79.5153 415.284 79.7241 414.973 79.8633C414.661 80.0025 414.3 80.0721 413.889 80.0721ZM426.601 71.4365L425.254 71.6751C425.198 71.5028 425.108 71.3387 424.986 71.1829C424.866 71.0272 424.704 70.8995 424.498 70.8001C424.293 70.7007 424.036 70.651 423.728 70.651C423.307 70.651 422.956 70.7454 422.674 70.9343C422.392 71.12 422.251 71.3602 422.251 71.6552C422.251 71.9104 422.346 72.1159 422.535 72.2717C422.724 72.4275 423.029 72.5551 423.449 72.6545L424.663 72.9329C425.365 73.0953 425.889 73.3456 426.234 73.6836C426.578 74.0217 426.751 74.4609 426.751 75.0011C426.751 75.4585 426.618 75.8662 426.353 76.2241C426.091 76.5788 425.725 76.8572 425.254 77.0593C424.787 77.2615 424.245 77.3626 423.628 77.3626C422.773 77.3626 422.076 77.1803 421.535 76.8157C420.995 76.4478 420.664 75.9258 420.541 75.2497L421.978 75.0309C422.067 75.4055 422.251 75.6888 422.53 75.8811C422.808 76.07 423.171 76.1645 423.619 76.1645C424.106 76.1645 424.495 76.0634 424.787 75.8612C425.079 75.6557 425.224 75.4055 425.224 75.1105C425.224 74.8718 425.135 74.6713 424.956 74.5089C424.78 74.3465 424.51 74.2239 424.146 74.141L422.853 73.8576C422.14 73.6952 421.613 73.4367 421.272 73.0821C420.934 72.7274 420.765 72.2783 420.765 71.7348C420.765 71.284 420.891 70.8896 421.143 70.5515C421.395 70.2135 421.743 69.95 422.187 69.7611C422.631 69.5688 423.14 69.4727 423.713 69.4727C424.538 69.4727 425.188 69.6517 425.662 70.0096C426.136 70.3643 426.449 70.8399 426.601 71.4365Z" fill="#002852"/>
<g clip-path="url(#clip0_2178_5039)">
<path d="M436.052 69.8752L439.386 73.2086L442.719 69.8752H436.052Z" fill="#002852"/>
</g>
<path d="M63.4727 118.828C62.9046 118.828 62.396 118.721 61.9472 118.508C61.4983 118.292 61.1418 117.997 60.8776 117.622C60.6162 117.247 60.477 116.818 60.46 116.335H61.9941C62.0225 116.693 62.1773 116.985 62.4585 117.213C62.7398 117.437 63.0779 117.549 63.4727 117.549C63.7824 117.549 64.058 117.478 64.2994 117.336C64.5409 117.194 64.7313 116.997 64.8705 116.744C65.0097 116.491 65.0779 116.203 65.075 115.879C65.0779 115.549 65.0083 115.257 64.8662 115.001C64.7242 114.745 64.5296 114.545 64.2824 114.4C64.0352 114.253 63.7512 114.179 63.4301 114.179C63.1688 114.176 62.9117 114.224 62.6588 114.324C62.406 114.423 62.2057 114.554 62.058 114.716L60.6304 114.481L61.0864 109.981H66.1489V111.302H62.3946L62.1432 113.616H62.1943C62.3563 113.426 62.585 113.268 62.8804 113.143C63.1759 113.015 63.4997 112.951 63.852 112.951C64.3804 112.951 64.852 113.076 65.2668 113.326C65.6816 113.574 66.0083 113.914 66.2469 114.349C66.4855 114.784 66.6048 115.281 66.6048 115.841C66.6048 116.417 66.4713 116.932 66.2043 117.383C65.9401 117.832 65.5722 118.186 65.1006 118.444C64.6318 118.7 64.0892 118.828 63.4727 118.828ZM71.2583 118.875C70.5566 118.875 69.9543 118.697 69.4514 118.342C68.9514 117.984 68.5665 117.468 68.2966 116.795C68.0296 116.119 67.896 115.305 67.896 114.353C67.8989 113.402 68.0338 112.592 68.3009 111.924C68.5708 111.254 68.9557 110.743 69.4557 110.39C69.9585 110.038 70.5594 109.862 71.2583 109.862C71.9571 109.862 72.558 110.038 73.0608 110.39C73.5637 110.743 73.9486 111.254 74.2156 111.924C74.4855 112.595 74.6205 113.405 74.6205 114.353C74.6205 115.308 74.4855 116.123 74.2156 116.799C73.9486 117.473 73.5637 117.987 73.0608 118.342C72.5608 118.697 71.96 118.875 71.2583 118.875ZM71.2583 117.541C71.8037 117.541 72.2341 117.272 72.5494 116.735C72.8676 116.196 73.0267 115.402 73.0267 114.353C73.0267 113.66 72.9543 113.078 72.8094 112.606C72.6645 112.135 72.46 111.78 72.1958 111.541C71.9316 111.299 71.6191 111.179 71.2583 111.179C70.7156 111.179 70.2867 111.449 69.9713 111.988C69.656 112.525 69.4969 113.314 69.4941 114.353C69.4912 115.049 69.5608 115.635 69.7029 116.109C69.8477 116.583 70.0523 116.941 70.3165 117.183C70.5807 117.422 70.8946 117.541 71.2583 117.541ZM80.7025 117.072V116.612C80.7025 116.274 80.7735 115.963 80.9156 115.679C81.0605 115.395 81.2707 115.166 81.5463 114.993C81.8218 114.819 82.1556 114.733 82.5477 114.733C82.9511 114.733 83.2892 114.819 83.5619 114.993C83.8346 115.163 84.0406 115.39 84.1798 115.674C84.3218 115.958 84.3928 116.271 84.3928 116.612V117.072C84.3928 117.41 84.3218 117.721 84.1798 118.005C84.0377 118.289 83.8289 118.518 83.5534 118.691C83.2806 118.865 82.9454 118.951 82.5477 118.951C82.1499 118.951 81.8133 118.865 81.5377 118.691C81.2622 118.518 81.0534 118.289 80.9113 118.005C80.7721 117.721 80.7025 117.41 80.7025 117.072ZM81.8147 116.612V117.072C81.8147 117.297 81.8687 117.503 81.9767 117.69C82.0846 117.878 82.2749 117.971 82.5477 117.971C82.8232 117.971 83.0122 117.879 83.1144 117.694C83.2195 117.507 83.2721 117.299 83.2721 117.072V116.612C83.2721 116.385 83.2224 116.177 83.123 115.99C83.0235 115.799 82.8318 115.704 82.5477 115.704C82.2806 115.704 82.0917 115.799 81.9809 115.99C81.8701 116.177 81.8147 116.385 81.8147 116.612ZM76.2664 112.078V111.618C76.2664 111.277 76.3389 110.964 76.4838 110.68C76.6286 110.396 76.8389 110.169 77.1144 109.998C77.39 109.825 77.7238 109.738 78.1159 109.738C78.5164 109.738 78.8531 109.825 79.1258 109.998C79.4014 110.169 79.6088 110.396 79.748 110.68C79.8872 110.964 79.9568 111.277 79.9568 111.618V112.078C79.9568 112.419 79.8857 112.731 79.7437 113.015C79.6045 113.297 79.3971 113.522 79.1215 113.693C78.846 113.863 78.5107 113.949 78.1159 113.949C77.7153 113.949 77.3772 113.863 77.1017 113.693C76.8289 113.522 76.6215 113.295 76.4795 113.011C76.3374 112.727 76.2664 112.416 76.2664 112.078ZM77.3872 111.618V112.078C77.3872 112.305 77.4397 112.512 77.5448 112.7C77.6528 112.885 77.8431 112.977 78.1159 112.977C78.3886 112.977 78.5761 112.885 78.6784 112.7C78.7835 112.512 78.836 112.305 78.836 112.078V111.618C78.836 111.39 78.7863 111.183 78.6869 110.995C78.5874 110.805 78.3971 110.71 78.1159 110.71C77.846 110.71 77.657 110.805 77.5491 110.995C77.4411 111.186 77.3872 111.393 77.3872 111.618ZM76.7522 118.708L82.7522 109.981H83.8176L77.8176 118.708H76.7522Z" fill="#002852" fill-opacity="0.8"/>
<path d="M59.8825 166.889V165.632L63.5857 159.781H64.634V161.571H63.9948L61.5019 165.521V165.59H66.6709V166.889H59.8825ZM64.0459 168.509V166.506L64.0629 165.943V159.781H65.5544V168.509H64.0459ZM71.2583 168.675C70.5566 168.675 69.9543 168.497 69.4514 168.142C68.9514 167.784 68.5665 167.268 68.2966 166.595C68.0296 165.919 67.896 165.105 67.896 164.153C67.8989 163.202 68.0338 162.392 68.3009 161.724C68.5708 161.054 68.9557 160.543 69.4557 160.19C69.9585 159.838 70.5594 159.662 71.2583 159.662C71.9571 159.662 72.558 159.838 73.0608 160.19C73.5637 160.543 73.9486 161.054 74.2156 161.724C74.4855 162.395 74.6205 163.205 74.6205 164.153C74.6205 165.108 74.4855 165.923 74.2156 166.599C73.9486 167.273 73.5637 167.787 73.0608 168.142C72.5608 168.497 71.96 168.675 71.2583 168.675ZM71.2583 167.341C71.8037 167.341 72.2341 167.072 72.5494 166.536C72.8676 165.996 73.0267 165.202 73.0267 164.153C73.0267 163.46 72.9543 162.878 72.8094 162.406C72.6645 161.935 72.46 161.58 72.1958 161.341C71.9316 161.099 71.6191 160.979 71.2583 160.979C70.7156 160.979 70.2867 161.249 69.9713 161.788C69.656 162.325 69.4969 163.114 69.4941 164.153C69.4912 164.849 69.5608 165.435 69.7029 165.909C69.8477 166.384 70.0523 166.741 70.3165 166.983C70.5807 167.222 70.8946 167.341 71.2583 167.341ZM80.7025 166.872V166.412C80.7025 166.074 80.7735 165.763 80.9156 165.479C81.0605 165.195 81.2707 164.966 81.5463 164.793C81.8218 164.619 82.1556 164.533 82.5477 164.533C82.9511 164.533 83.2892 164.619 83.5619 164.793C83.8346 164.963 84.0406 165.19 84.1798 165.474C84.3218 165.759 84.3928 166.071 84.3928 166.412V166.872C84.3928 167.21 84.3218 167.521 84.1798 167.805C84.0377 168.09 83.8289 168.318 83.5534 168.491C83.2806 168.665 82.9454 168.751 82.5477 168.751C82.1499 168.751 81.8133 168.665 81.5377 168.491C81.2622 168.318 81.0534 168.09 80.9113 167.805C80.7721 167.521 80.7025 167.21 80.7025 166.872ZM81.8147 166.412V166.872C81.8147 167.097 81.8687 167.303 81.9767 167.49C82.0846 167.678 82.2749 167.771 82.5477 167.771C82.8232 167.771 83.0122 167.679 83.1144 167.494C83.2195 167.307 83.2721 167.099 83.2721 166.872V166.412C83.2721 166.185 83.2224 165.977 83.123 165.79C83.0235 165.599 82.8318 165.504 82.5477 165.504C82.2806 165.504 82.0917 165.599 81.9809 165.79C81.8701 165.977 81.8147 166.185 81.8147 166.412ZM76.2664 161.878V161.418C76.2664 161.077 76.3389 160.764 76.4838 160.48C76.6286 160.196 76.8389 159.969 77.1144 159.798C77.39 159.625 77.7238 159.538 78.1159 159.538C78.5164 159.538 78.8531 159.625 79.1258 159.798C79.4014 159.969 79.6088 160.196 79.748 160.48C79.8872 160.764 79.9568 161.077 79.9568 161.418V161.878C79.9568 162.219 79.8857 162.531 79.7437 162.815C79.6045 163.097 79.3971 163.322 79.1215 163.493C78.846 163.663 78.5107 163.749 78.1159 163.749C77.7153 163.749 77.3772 163.663 77.1017 163.493C76.8289 163.322 76.6215 163.095 76.4795 162.811C76.3374 162.527 76.2664 162.216 76.2664 161.878ZM77.3872 161.418V161.878C77.3872 162.105 77.4397 162.313 77.5448 162.5C77.6528 162.685 77.8431 162.777 78.1159 162.777C78.3886 162.777 78.5761 162.685 78.6784 162.5C78.7835 162.313 78.836 162.105 78.836 161.878V161.418C78.836 161.19 78.7863 160.983 78.6869 160.795C78.5874 160.605 78.3971 160.51 78.1159 160.51C77.846 160.51 77.657 160.605 77.5491 160.795C77.4411 160.986 77.3872 161.193 77.3872 161.418ZM76.7522 168.509L82.7522 159.781H83.8176L77.8176 168.509H76.7522Z" fill="#002852" fill-opacity="0.8"/>
<rect x="97.3857" y="163.509" width="363" height="1" rx="0.5" fill="#002852" fill-opacity="0.05"/>
<path d="M63.3481 218.428C62.7345 218.428 62.189 218.323 61.7117 218.113C61.2373 217.902 60.8623 217.61 60.5867 217.235C60.3112 216.86 60.1649 216.426 60.1478 215.935H61.7501C61.7643 216.171 61.8424 216.377 61.9845 216.553C62.1265 216.726 62.3154 216.861 62.5512 216.958C62.787 217.054 63.0512 217.103 63.3438 217.103C63.6563 217.103 63.9333 217.049 64.1748 216.941C64.4163 216.83 64.6052 216.676 64.7416 216.48C64.8779 216.284 64.9447 216.059 64.9419 215.803C64.9447 215.539 64.8765 215.306 64.7373 215.104C64.5981 214.902 64.3964 214.745 64.1322 214.631C63.8708 214.517 63.5555 214.461 63.1862 214.461H62.4149V213.242H63.1862C63.4901 213.242 63.7558 213.189 63.983 213.084C64.2132 212.979 64.3936 212.831 64.5242 212.641C64.6549 212.448 64.7188 212.225 64.716 211.972C64.7188 211.725 64.6634 211.51 64.5498 211.328C64.439 211.144 64.2813 211 64.0768 210.898C63.8751 210.796 63.6379 210.745 63.3651 210.745C63.0981 210.745 62.8509 210.793 62.6237 210.89C62.3964 210.986 62.2132 211.124 62.074 211.303C61.9347 211.479 61.8609 211.689 61.8524 211.934H60.3311C60.3424 211.445 60.483 211.016 60.7529 210.647C61.0257 210.275 61.3893 209.985 61.8438 209.777C62.2984 209.567 62.8083 209.462 63.3737 209.462C63.9561 209.462 64.4617 209.571 64.8907 209.79C65.3225 210.006 65.6563 210.297 65.8921 210.664C66.1279 211.03 66.2458 211.435 66.2458 211.878C66.2487 212.37 66.1038 212.782 65.8112 213.114C65.5214 213.446 65.1407 213.664 64.6691 213.766V213.834C65.2828 213.919 65.7529 214.147 66.0796 214.516C66.4092 214.882 66.5725 215.338 66.5697 215.884C66.5697 216.373 66.4305 216.81 66.1521 217.196C65.8765 217.58 65.4958 217.881 65.01 218.1C64.5271 218.319 63.9731 218.428 63.3481 218.428ZM71.2583 218.475C70.5566 218.475 69.9543 218.297 69.4514 217.942C68.9514 217.584 68.5665 217.069 68.2966 216.395C68.0296 215.719 67.896 214.905 67.896 213.953C67.8989 213.002 68.0338 212.192 68.3009 211.525C68.5708 210.854 68.9557 210.343 69.4557 209.99C69.9585 209.638 70.5594 209.462 71.2583 209.462C71.9571 209.462 72.558 209.638 73.0608 209.99C73.5637 210.343 73.9486 210.854 74.2156 211.525C74.4855 212.195 74.6205 213.005 74.6205 213.953C74.6205 214.908 74.4855 215.723 74.2156 216.4C73.9486 217.073 73.5637 217.587 73.0608 217.942C72.5608 218.297 71.96 218.475 71.2583 218.475ZM71.2583 217.141C71.8037 217.141 72.2341 216.873 72.5494 216.336C72.8676 215.796 73.0267 215.002 73.0267 213.953C73.0267 213.26 72.9543 212.678 72.8094 212.206C72.6645 211.735 72.46 211.38 72.1958 211.141C71.9316 210.9 71.6191 210.779 71.2583 210.779C70.7156 210.779 70.2867 211.049 69.9713 211.588C69.656 212.125 69.4969 212.914 69.4941 213.953C69.4912 214.65 69.5608 215.235 69.7029 215.709C69.8477 216.184 70.0523 216.542 70.3165 216.783C70.5807 217.022 70.8946 217.141 71.2583 217.141ZM80.7025 216.672V216.212C80.7025 215.874 80.7735 215.563 80.9156 215.279C81.0605 214.995 81.2707 214.766 81.5463 214.593C81.8218 214.419 82.1556 214.333 82.5477 214.333C82.9511 214.333 83.2892 214.419 83.5619 214.593C83.8346 214.763 84.0406 214.99 84.1798 215.275C84.3218 215.559 84.3928 215.871 84.3928 216.212V216.672C84.3928 217.01 84.3218 217.321 84.1798 217.605C84.0377 217.89 83.8289 218.118 83.5534 218.292C83.2806 218.465 82.9454 218.551 82.5477 218.551C82.1499 218.551 81.8133 218.465 81.5377 218.292C81.2622 218.118 81.0534 217.89 80.9113 217.605C80.7721 217.321 80.7025 217.01 80.7025 216.672ZM81.8147 216.212V216.672C81.8147 216.897 81.8687 217.103 81.9767 217.29C82.0846 217.478 82.2749 217.571 82.5477 217.571C82.8232 217.571 83.0122 217.479 83.1144 217.294C83.2195 217.107 83.2721 216.9 83.2721 216.672V216.212C83.2721 215.985 83.2224 215.777 83.123 215.59C83.0235 215.4 82.8318 215.304 82.5477 215.304C82.2806 215.304 82.0917 215.4 81.9809 215.59C81.8701 215.777 81.8147 215.985 81.8147 216.212ZM76.2664 211.678V211.218C76.2664 210.877 76.3389 210.564 76.4838 210.28C76.6286 209.996 76.8389 209.769 77.1144 209.598C77.39 209.425 77.7238 209.338 78.1159 209.338C78.5164 209.338 78.8531 209.425 79.1258 209.598C79.4014 209.769 79.6088 209.996 79.748 210.28C79.8872 210.564 79.9568 210.877 79.9568 211.218V211.678C79.9568 212.019 79.8857 212.331 79.7437 212.615C79.6045 212.897 79.3971 213.123 79.1215 213.293C78.846 213.463 78.5107 213.549 78.1159 213.549C77.7153 213.549 77.3772 213.463 77.1017 213.293C76.8289 213.123 76.6215 212.895 76.4795 212.611C76.3374 212.327 76.2664 212.016 76.2664 211.678ZM77.3872 211.218V211.678C77.3872 211.905 77.4397 212.113 77.5448 212.3C77.6528 212.485 77.8431 212.577 78.1159 212.577C78.3886 212.577 78.5761 212.485 78.6784 212.3C78.7835 212.113 78.836 211.905 78.836 211.678V211.218C78.836 210.99 78.7863 210.783 78.6869 210.596C78.5874 210.405 78.3971 210.31 78.1159 210.31C77.846 210.31 77.657 210.405 77.5491 210.596C77.4411 210.786 77.3872 210.993 77.3872 211.218ZM76.7522 218.309L82.7522 209.581H83.8176L77.8176 218.309H76.7522Z" fill="#002852" fill-opacity="0.8"/>
<rect x="97.3857" y="213.309" width="363" height="1" rx="0.5" fill="#002852" fill-opacity="0.05"/>
<path d="M60.5793 268.108V266.966L63.6091 263.996C63.8989 263.704 64.1404 263.444 64.3335 263.216C64.5267 262.989 64.6716 262.769 64.7682 262.556C64.8648 262.343 64.9131 262.116 64.9131 261.874C64.9131 261.598 64.8506 261.363 64.7256 261.167C64.6006 260.968 64.4287 260.814 64.21 260.706C63.9912 260.598 63.7426 260.544 63.4642 260.544C63.1773 260.544 62.9259 260.604 62.71 260.723C62.4941 260.84 62.3264 261.006 62.2071 261.222C62.0906 261.438 62.0324 261.695 62.0324 261.993H60.5281C60.5281 261.439 60.6546 260.958 60.9074 260.549C61.1602 260.14 61.5083 259.823 61.9514 259.598C62.3975 259.374 62.9088 259.262 63.4855 259.262C64.0708 259.262 64.585 259.371 65.0281 259.59C65.4713 259.809 65.8151 260.108 66.0594 260.489C66.3066 260.87 66.4301 261.304 66.4301 261.793C66.4301 262.12 66.3676 262.441 66.2426 262.756C66.1176 263.071 65.8975 263.421 65.5821 263.804C65.2696 264.188 64.8307 264.652 64.2654 265.198L62.7611 266.728V266.787H66.5622V268.108H60.5793ZM71.2583 268.275C70.5566 268.275 69.9543 268.097 69.4514 267.742C68.9514 267.384 68.5665 266.868 68.2966 266.195C68.0296 265.519 67.896 264.705 67.896 263.753C67.8989 262.802 68.0338 261.992 68.3009 261.324C68.5708 260.654 68.9557 260.142 69.4557 259.79C69.9585 259.438 70.5594 259.262 71.2583 259.262C71.9571 259.262 72.558 259.438 73.0608 259.79C73.5637 260.142 73.9486 260.654 74.2156 261.324C74.4855 261.995 74.6205 262.804 74.6205 263.753C74.6205 264.708 74.4855 265.523 74.2156 266.199C73.9486 266.873 73.5637 267.387 73.0608 267.742C72.5608 268.097 71.96 268.275 71.2583 268.275ZM71.2583 266.941C71.8037 266.941 72.2341 266.672 72.5494 266.135C72.8676 265.596 73.0267 264.802 73.0267 263.753C73.0267 263.06 72.9543 262.478 72.8094 262.006C72.6645 261.535 72.46 261.179 72.1958 260.941C71.9316 260.699 71.6191 260.579 71.2583 260.579C70.7156 260.579 70.2867 260.848 69.9713 261.388C69.656 261.925 69.4969 262.714 69.4941 263.753C69.4912 264.449 69.5608 265.035 69.7029 265.509C69.8477 265.983 70.0523 266.341 70.3165 266.583C70.5807 266.821 70.8946 266.941 71.2583 266.941ZM80.7025 266.472V266.012C80.7025 265.674 80.7735 265.363 80.9156 265.079C81.0605 264.794 81.2707 264.566 81.5463 264.392C81.8218 264.219 82.1556 264.133 82.5477 264.133C82.9511 264.133 83.2892 264.219 83.5619 264.392C83.8346 264.563 84.0406 264.79 84.1798 265.074C84.3218 265.358 84.3928 265.671 84.3928 266.012V266.472C84.3928 266.81 84.3218 267.121 84.1798 267.405C84.0377 267.689 83.8289 267.918 83.5534 268.091C83.2806 268.265 82.9454 268.351 82.5477 268.351C82.1499 268.351 81.8133 268.265 81.5377 268.091C81.2622 267.918 81.0534 267.689 80.9113 267.405C80.7721 267.121 80.7025 266.81 80.7025 266.472ZM81.8147 266.012V266.472C81.8147 266.696 81.8687 266.902 81.9767 267.09C82.0846 267.277 82.2749 267.371 82.5477 267.371C82.8232 267.371 83.0122 267.279 83.1144 267.094C83.2195 266.907 83.2721 266.699 83.2721 266.472V266.012C83.2721 265.785 83.2224 265.577 83.123 265.39C83.0235 265.199 82.8318 265.104 82.5477 265.104C82.2806 265.104 82.0917 265.199 81.9809 265.39C81.8701 265.577 81.8147 265.785 81.8147 266.012ZM76.2664 261.478V261.017C76.2664 260.677 76.3389 260.364 76.4838 260.08C76.6286 259.796 76.8389 259.569 77.1144 259.398C77.39 259.225 77.7238 259.138 78.1159 259.138C78.5164 259.138 78.8531 259.225 79.1258 259.398C79.4014 259.569 79.6088 259.796 79.748 260.08C79.8872 260.364 79.9568 260.677 79.9568 261.017V261.478C79.9568 261.819 79.8857 262.131 79.7437 262.415C79.6045 262.696 79.3971 262.922 79.1215 263.093C78.846 263.263 78.5107 263.348 78.1159 263.348C77.7153 263.348 77.3772 263.263 77.1017 263.093C76.8289 262.922 76.6215 262.695 76.4795 262.411C76.3374 262.127 76.2664 261.816 76.2664 261.478ZM77.3872 261.017V261.478C77.3872 261.705 77.4397 261.912 77.5448 262.1C77.6528 262.285 77.8431 262.377 78.1159 262.377C78.3886 262.377 78.5761 262.285 78.6784 262.1C78.7835 261.912 78.836 261.705 78.836 261.478V261.017C78.836 260.79 78.7863 260.583 78.6869 260.395C78.5874 260.205 78.3971 260.11 78.1159 260.11C77.846 260.11 77.657 260.205 77.5491 260.395C77.4411 260.586 77.3872 260.793 77.3872 261.017ZM76.7522 268.108L82.7522 259.381H83.8176L77.8176 268.108H76.7522Z" fill="#002852" fill-opacity="0.8"/>
<rect x="97.3857" y="263.108" width="363" height="1" rx="0.5" fill="#002852" fill-opacity="0.05"/>
<path d="M65.8165 309.181V317.908H64.2355V310.72H64.1844L62.1432 312.024V310.575L64.3122 309.181H65.8165ZM71.2583 318.075C70.5566 318.075 69.9543 317.897 69.4514 317.542C68.9514 317.184 68.5665 316.668 68.2966 315.995C68.0296 315.319 67.896 314.505 67.896 313.553C67.8989 312.602 68.0338 311.792 68.3009 311.124C68.5708 310.454 68.9557 309.943 69.4557 309.59C69.9585 309.238 70.5594 309.062 71.2583 309.062C71.9571 309.062 72.558 309.238 73.0608 309.59C73.5637 309.943 73.9486 310.454 74.2156 311.124C74.4855 311.795 74.6205 312.604 74.6205 313.553C74.6205 314.508 74.4855 315.323 74.2156 315.999C73.9486 316.673 73.5637 317.187 73.0608 317.542C72.5608 317.897 71.96 318.075 71.2583 318.075ZM71.2583 316.741C71.8037 316.741 72.2341 316.472 72.5494 315.935C72.8676 315.396 73.0267 314.602 73.0267 313.553C73.0267 312.86 72.9543 312.278 72.8094 311.806C72.6645 311.335 72.46 310.979 72.1958 310.741C71.9316 310.499 71.6191 310.379 71.2583 310.379C70.7156 310.379 70.2867 310.649 69.9713 311.188C69.656 311.725 69.4969 312.514 69.4941 313.553C69.4912 314.249 69.5608 314.835 69.7029 315.309C69.8477 315.783 70.0523 316.141 70.3165 316.383C70.5807 316.622 70.8946 316.741 71.2583 316.741ZM80.7025 316.272V315.812C80.7025 315.474 80.7735 315.163 80.9156 314.879C81.0605 314.595 81.2707 314.366 81.5463 314.193C81.8218 314.019 82.1556 313.933 82.5477 313.933C82.9511 313.933 83.2892 314.019 83.5619 314.193C83.8346 314.363 84.0406 314.59 84.1798 314.874C84.3218 315.158 84.3928 315.471 84.3928 315.812V316.272C84.3928 316.61 84.3218 316.921 84.1798 317.205C84.0377 317.489 83.8289 317.718 83.5534 317.891C83.2806 318.065 82.9454 318.151 82.5477 318.151C82.1499 318.151 81.8133 318.065 81.5377 317.891C81.2622 317.718 81.0534 317.489 80.9113 317.205C80.7721 316.921 80.7025 316.61 80.7025 316.272ZM81.8147 315.812V316.272C81.8147 316.497 81.8687 316.702 81.9767 316.89C82.0846 317.077 82.2749 317.171 82.5477 317.171C82.8232 317.171 83.0122 317.079 83.1144 316.894C83.2195 316.707 83.2721 316.499 83.2721 316.272V315.812C83.2721 315.585 83.2224 315.377 83.123 315.19C83.0235 314.999 82.8318 314.904 82.5477 314.904C82.2806 314.904 82.0917 314.999 81.9809 315.19C81.8701 315.377 81.8147 315.585 81.8147 315.812ZM76.2664 311.278V310.818C76.2664 310.477 76.3389 310.164 76.4838 309.88C76.6286 309.596 76.8389 309.369 77.1144 309.198C77.39 309.025 77.7238 308.938 78.1159 308.938C78.5164 308.938 78.8531 309.025 79.1258 309.198C79.4014 309.369 79.6088 309.596 79.748 309.88C79.8872 310.164 79.9568 310.477 79.9568 310.818V311.278C79.9568 311.619 79.8857 311.931 79.7437 312.215C79.6045 312.497 79.3971 312.722 79.1215 312.893C78.846 313.063 78.5107 313.149 78.1159 313.149C77.7153 313.149 77.3772 313.063 77.1017 312.893C76.8289 312.722 76.6215 312.495 76.4795 312.211C76.3374 311.927 76.2664 311.616 76.2664 311.278ZM77.3872 310.818V311.278C77.3872 311.505 77.4397 311.712 77.5448 311.9C77.6528 312.085 77.8431 312.177 78.1159 312.177C78.3886 312.177 78.5761 312.085 78.6784 311.9C78.7835 311.712 78.836 311.505 78.836 311.278V310.818C78.836 310.59 78.7863 310.383 78.6869 310.195C78.5874 310.005 78.3971 309.91 78.1159 309.91C77.846 309.91 77.657 310.005 77.5491 310.195C77.4411 310.386 77.3872 310.593 77.3872 310.818ZM76.7522 317.908L82.7522 309.181H83.8176L77.8176 317.908H76.7522Z" fill="#002852" fill-opacity="0.8"/>
<rect x="97.3857" y="312.908" width="363" height="1" rx="0.5" fill="#002852" fill-opacity="0.05"/>
<path d="M81.3833 367.875C80.6816 367.875 80.0793 367.697 79.5764 367.342C79.0764 366.984 78.6915 366.468 78.4216 365.795C78.1546 365.119 78.021 364.305 78.021 363.353C78.0239 362.402 78.1588 361.592 78.4259 360.924C78.6958 360.254 79.0807 359.743 79.5807 359.39C80.0835 359.038 80.6844 358.862 81.3833 358.862C82.0821 358.862 82.683 359.038 83.1858 359.39C83.6887 359.743 84.0736 360.254 84.3406 360.924C84.6105 361.595 84.7455 362.405 84.7455 363.353C84.7455 364.308 84.6105 365.123 84.3406 365.799C84.0736 366.473 83.6887 366.987 83.1858 367.342C82.6858 367.697 82.085 367.875 81.3833 367.875ZM81.3833 366.541C81.9287 366.541 82.3591 366.272 82.6744 365.735C82.9926 365.196 83.1517 364.402 83.1517 363.353C83.1517 362.66 83.0793 362.078 82.9344 361.606C82.7895 361.135 82.585 360.78 82.3208 360.541C82.0566 360.299 81.7441 360.179 81.3833 360.179C80.8406 360.179 80.4117 360.449 80.0963 360.988C79.781 361.525 79.6219 362.314 79.6191 363.353C79.6162 364.049 79.6858 364.635 79.8279 365.109C79.9727 365.583 80.1773 365.941 80.4415 366.183C80.7057 366.422 81.0196 366.541 81.3833 366.541Z" fill="#002852" fill-opacity="0.8"/>
<rect x="162.886" y="201.708" width="100" height="162" rx="5" fill="#0056F0"/>
<path d="M195.827 381.38C195.788 381.008 195.62 380.718 195.324 380.511C195.032 380.304 194.651 380.2 194.182 380.2C193.853 380.2 193.57 380.25 193.334 380.349C193.099 380.449 192.918 380.583 192.793 380.754C192.668 380.924 192.604 381.119 192.601 381.338C192.601 381.52 192.643 381.677 192.725 381.811C192.81 381.944 192.925 382.058 193.07 382.152C193.215 382.243 193.376 382.319 193.552 382.382C193.728 382.444 193.905 382.497 194.084 382.539L194.903 382.744C195.232 382.821 195.549 382.924 195.853 383.055C196.16 383.186 196.434 383.351 196.675 383.549C196.92 383.748 197.113 383.988 197.255 384.27C197.397 384.551 197.468 384.88 197.468 385.258C197.468 385.77 197.337 386.22 197.076 386.609C196.815 386.995 196.437 387.298 195.942 387.517C195.451 387.733 194.856 387.841 194.157 387.841C193.478 387.841 192.888 387.735 192.388 387.525C191.891 387.315 191.502 387.008 191.221 386.605C190.942 386.201 190.792 385.71 190.769 385.13H192.324C192.347 385.434 192.441 385.687 192.606 385.889C192.771 386.091 192.985 386.241 193.249 386.341C193.516 386.44 193.815 386.49 194.144 386.49C194.488 386.49 194.789 386.439 195.047 386.336C195.309 386.231 195.513 386.086 195.661 385.902C195.809 385.714 195.884 385.495 195.887 385.245C195.884 385.018 195.817 384.831 195.687 384.683C195.556 384.532 195.373 384.407 195.137 384.308C194.904 384.206 194.631 384.115 194.319 384.035L193.326 383.78C192.607 383.595 192.039 383.315 191.621 382.94C191.207 382.562 190.999 382.061 190.999 381.436C190.999 380.922 191.138 380.471 191.417 380.085C191.698 379.699 192.08 379.399 192.563 379.186C193.046 378.97 193.593 378.862 194.204 378.862C194.823 378.862 195.366 378.97 195.832 379.186C196.3 379.399 196.668 379.696 196.935 380.076C197.202 380.454 197.34 380.889 197.349 381.38H195.827ZM201.664 387.836C201.011 387.836 200.45 387.693 199.981 387.406C199.515 387.119 199.156 386.723 198.903 386.217C198.653 385.708 198.528 385.123 198.528 384.461C198.528 383.797 198.656 383.21 198.911 382.701C199.167 382.19 199.528 381.792 199.994 381.508C200.463 381.221 201.017 381.078 201.656 381.078C202.187 381.078 202.657 381.176 203.066 381.372C203.478 381.565 203.806 381.839 204.051 382.194C204.295 382.547 204.434 382.958 204.468 383.43H202.994C202.934 383.115 202.792 382.852 202.568 382.642C202.346 382.429 202.049 382.322 201.677 382.322C201.362 382.322 201.085 382.407 200.846 382.578C200.608 382.745 200.421 382.987 200.288 383.302C200.157 383.618 200.092 383.995 200.092 384.436C200.092 384.882 200.157 385.265 200.288 385.586C200.419 385.905 200.602 386.15 200.838 386.324C201.076 386.494 201.356 386.579 201.677 386.579C201.904 386.579 202.108 386.537 202.286 386.451C202.468 386.363 202.62 386.237 202.742 386.072C202.865 385.907 202.948 385.707 202.994 385.471H204.468C204.431 385.934 204.295 386.345 204.059 386.703C203.823 387.058 203.502 387.336 203.096 387.538C202.69 387.737 202.213 387.836 201.664 387.836ZM205.735 387.708V381.163H207.231V382.254H207.299C207.418 381.876 207.623 381.585 207.913 381.38C208.205 381.173 208.539 381.069 208.914 381.069C208.999 381.069 209.094 381.074 209.199 381.082C209.307 381.088 209.397 381.098 209.468 381.112V382.531C209.403 382.508 209.299 382.488 209.157 382.471C209.018 382.451 208.883 382.441 208.752 382.441C208.471 382.441 208.218 382.503 207.994 382.625C207.772 382.744 207.597 382.91 207.469 383.123C207.342 383.336 207.278 383.582 207.278 383.86V387.708H205.735ZM210.493 387.708V381.163H212.035V387.708H210.493ZM211.268 380.234C211.024 380.234 210.814 380.153 210.638 379.991C210.462 379.826 210.373 379.629 210.373 379.399C210.373 379.166 210.462 378.968 210.638 378.807C210.814 378.642 211.024 378.559 211.268 378.559C211.516 378.559 211.726 378.642 211.899 378.807C212.075 378.968 212.163 379.166 212.163 379.399C212.163 379.629 212.075 379.826 211.899 379.991C211.726 380.153 211.516 380.234 211.268 380.234ZM213.622 390.163V381.163H215.139V382.245H215.228C215.308 382.086 215.42 381.917 215.565 381.738C215.71 381.557 215.906 381.402 216.153 381.274C216.4 381.143 216.715 381.078 217.099 381.078C217.605 381.078 218.061 381.207 218.467 381.466C218.876 381.721 219.2 382.101 219.438 382.603C219.68 383.103 219.801 383.717 219.801 384.444C219.801 385.163 219.683 385.774 219.447 386.277C219.211 386.78 218.89 387.163 218.484 387.427C218.078 387.691 217.617 387.824 217.103 387.824C216.728 387.824 216.417 387.761 216.17 387.636C215.923 387.511 215.724 387.36 215.573 387.184C215.426 387.005 215.311 386.836 215.228 386.677H215.164V390.163H213.622ZM215.134 384.436C215.134 384.859 215.194 385.23 215.313 385.548C215.436 385.866 215.61 386.115 215.838 386.294C216.068 386.47 216.346 386.558 216.673 386.558C217.014 386.558 217.299 386.467 217.529 386.285C217.759 386.101 217.933 385.849 218.049 385.531C218.169 385.21 218.228 384.845 218.228 384.436C218.228 384.03 218.17 383.669 218.054 383.353C217.937 383.038 217.764 382.791 217.534 382.612C217.304 382.433 217.017 382.343 216.673 382.343C216.343 382.343 216.063 382.43 215.833 382.603C215.603 382.777 215.429 383.02 215.309 383.332C215.193 383.645 215.134 384.012 215.134 384.436ZM224.39 381.163V382.356H220.627V381.163H224.39ZM221.556 379.595H223.099V385.74C223.099 385.947 223.13 386.106 223.193 386.217C223.258 386.325 223.343 386.399 223.448 386.439C223.554 386.478 223.67 386.498 223.798 386.498C223.894 386.498 223.983 386.491 224.062 386.477C224.144 386.463 224.207 386.45 224.25 386.439L224.509 387.645C224.427 387.673 224.309 387.704 224.156 387.738C224.005 387.772 223.821 387.792 223.602 387.798C223.215 387.809 222.867 387.751 222.558 387.623C222.248 387.493 222.002 387.291 221.821 387.018C221.642 386.745 221.554 386.405 221.556 385.995V379.595ZM229.846 387.708H228.158L231.231 378.981H233.182L236.259 387.708H234.572L232.241 380.771H232.172L229.846 387.708ZM229.901 384.287H234.503V385.557H229.901V384.287Z" fill="#002852" fill-opacity="0.8"/>
<path d="M205.561 193.808C205.05 193.808 204.595 193.72 204.197 193.545C203.802 193.37 203.49 193.126 203.26 192.814C203.03 192.501 202.908 192.14 202.894 191.731H204.229C204.241 191.927 204.306 192.099 204.425 192.245C204.543 192.39 204.701 192.502 204.897 192.583C205.094 192.663 205.314 192.704 205.558 192.704C205.818 192.704 206.049 192.659 206.25 192.569C206.451 192.476 206.609 192.348 206.722 192.185C206.836 192.022 206.892 191.833 206.889 191.62C206.892 191.4 206.835 191.206 206.719 191.038C206.603 190.87 206.435 190.739 206.214 190.644C205.997 190.549 205.734 190.502 205.426 190.502H204.783V189.486H205.426C205.679 189.486 205.901 189.442 206.09 189.355C206.282 189.267 206.432 189.144 206.541 188.985C206.65 188.824 206.703 188.639 206.701 188.428C206.703 188.222 206.657 188.043 206.562 187.892C206.47 187.738 206.339 187.618 206.168 187.533C206 187.448 205.803 187.405 205.575 187.405C205.353 187.405 205.147 187.445 204.957 187.526C204.768 187.606 204.615 187.721 204.499 187.87C204.383 188.017 204.322 188.192 204.315 188.396H203.047C203.056 187.989 203.174 187.631 203.398 187.324C203.626 187.013 203.929 186.772 204.308 186.599C204.686 186.424 205.111 186.336 205.582 186.336C206.068 186.336 206.489 186.427 206.847 186.61C207.206 186.79 207.485 187.032 207.681 187.338C207.878 187.643 207.976 187.981 207.976 188.35C207.978 188.759 207.857 189.103 207.614 189.38C207.372 189.657 207.055 189.838 206.662 189.923V189.98C207.173 190.051 207.565 190.24 207.837 190.548C208.112 190.853 208.248 191.233 208.246 191.688C208.246 192.095 208.13 192.46 207.898 192.782C207.668 193.101 207.351 193.352 206.946 193.534C206.544 193.717 206.082 193.808 205.561 193.808ZM209.465 193.708V192.757L211.99 190.282C212.231 190.038 212.432 189.821 212.593 189.632C212.754 189.442 212.875 189.259 212.955 189.081C213.036 188.904 213.076 188.714 213.076 188.513C213.076 188.284 213.024 188.087 212.92 187.924C212.816 187.758 212.673 187.63 212.49 187.54C212.308 187.45 212.101 187.405 211.869 187.405C211.63 187.405 211.42 187.455 211.24 187.554C211.06 187.651 210.921 187.79 210.821 187.97C210.724 188.15 210.676 188.364 210.676 188.613H209.422C209.422 188.151 209.527 187.75 209.738 187.409C209.949 187.068 210.239 186.804 210.608 186.617C210.98 186.43 211.406 186.336 211.887 186.336C212.374 186.336 212.803 186.427 213.172 186.61C213.541 186.792 213.828 187.042 214.031 187.359C214.237 187.676 214.34 188.039 214.34 188.446C214.34 188.718 214.288 188.985 214.184 189.248C214.08 189.511 213.896 189.802 213.634 190.122C213.373 190.441 213.008 190.829 212.536 191.283L211.283 192.558V192.608H214.45V193.708H209.465ZM219.564 192.345V191.961C219.564 191.68 219.623 191.42 219.742 191.184C219.862 190.947 220.038 190.756 220.267 190.612C220.497 190.467 220.775 190.395 221.102 190.395C221.438 190.395 221.72 190.467 221.947 190.612C222.174 190.754 222.346 190.943 222.462 191.18C222.58 191.417 222.639 191.677 222.639 191.961V192.345C222.639 192.627 222.58 192.886 222.462 193.123C222.343 193.359 222.169 193.55 221.94 193.694C221.713 193.839 221.433 193.911 221.102 193.911C220.77 193.911 220.49 193.839 220.26 193.694C220.03 193.55 219.856 193.359 219.738 193.123C219.622 192.886 219.564 192.627 219.564 192.345ZM220.491 191.961V192.345C220.491 192.532 220.536 192.704 220.626 192.86C220.716 193.016 220.874 193.094 221.102 193.094C221.331 193.094 221.489 193.017 221.574 192.863C221.662 192.707 221.705 192.534 221.705 192.345V191.961C221.705 191.772 221.664 191.599 221.581 191.443C221.498 191.284 221.338 191.205 221.102 191.205C220.879 191.205 220.722 191.284 220.629 191.443C220.537 191.599 220.491 191.772 220.491 191.961ZM215.867 188.183V187.799C215.867 187.515 215.928 187.255 216.048 187.018C216.169 186.781 216.344 186.592 216.574 186.45C216.804 186.306 217.082 186.233 217.409 186.233C217.742 186.233 218.023 186.306 218.25 186.45C218.48 186.592 218.653 186.781 218.769 187.018C218.885 187.255 218.943 187.515 218.943 187.799V188.183C218.943 188.467 218.883 188.727 218.765 188.964C218.649 189.199 218.476 189.387 218.247 189.529C218.017 189.671 217.738 189.742 217.409 189.742C217.075 189.742 216.793 189.671 216.563 189.529C216.336 189.387 216.163 189.197 216.045 188.961C215.927 188.724 215.867 188.465 215.867 188.183ZM216.801 187.799V188.183C216.801 188.372 216.845 188.545 216.933 188.701C217.023 188.855 217.181 188.932 217.409 188.932C217.636 188.932 217.792 188.855 217.877 188.701C217.965 188.545 218.009 188.372 218.009 188.183V187.799C218.009 187.61 217.967 187.437 217.884 187.281C217.802 187.122 217.643 187.043 217.409 187.043C217.184 187.043 217.026 187.122 216.936 187.281C216.846 187.44 216.801 187.612 216.801 187.799ZM216.272 193.708L221.272 186.436H222.16L217.16 193.708H216.272Z" fill="#002852" fill-opacity="0.8"/>
<rect x="294.886" y="250.708" width="100" height="113" rx="5" fill="#A42DE5"/>
<path d="M327.726 381.38C327.686 381.008 327.518 380.718 327.223 380.511C326.93 380.304 326.55 380.2 326.081 380.2C325.751 380.2 325.469 380.25 325.233 380.349C324.997 380.449 324.817 380.583 324.692 380.754C324.567 380.924 324.503 381.119 324.5 381.338C324.5 381.52 324.541 381.677 324.623 381.811C324.709 381.944 324.824 382.058 324.969 382.152C325.114 382.243 325.274 382.319 325.45 382.382C325.626 382.444 325.804 382.497 325.983 382.539L326.801 382.744C327.131 382.821 327.447 382.924 327.751 383.055C328.058 383.186 328.332 383.351 328.574 383.549C328.818 383.748 329.011 383.988 329.153 384.27C329.295 384.551 329.366 384.88 329.366 385.258C329.366 385.77 329.236 386.22 328.974 386.609C328.713 386.995 328.335 387.298 327.841 387.517C327.349 387.733 326.754 387.841 326.055 387.841C325.376 387.841 324.787 387.735 324.287 387.525C323.79 387.315 323.4 387.008 323.119 386.605C322.841 386.201 322.69 385.71 322.668 385.13H324.223C324.246 385.434 324.339 385.687 324.504 385.889C324.669 386.091 324.883 386.241 325.148 386.341C325.415 386.44 325.713 386.49 326.043 386.49C326.386 386.49 326.687 386.439 326.946 386.336C327.207 386.231 327.412 386.086 327.56 385.902C327.707 385.714 327.783 385.495 327.785 385.245C327.783 385.018 327.716 384.831 327.585 384.683C327.454 384.532 327.271 384.407 327.035 384.308C326.802 384.206 326.53 384.115 326.217 384.035L325.224 383.78C324.506 383.595 323.937 383.315 323.52 382.94C323.105 382.562 322.898 382.061 322.898 381.436C322.898 380.922 323.037 380.471 323.315 380.085C323.597 379.699 323.979 379.399 324.462 379.186C324.945 378.97 325.491 378.862 326.102 378.862C326.722 378.862 327.264 378.97 327.73 379.186C328.199 379.399 328.567 379.696 328.834 380.076C329.101 380.454 329.239 380.889 329.247 381.38H327.726ZM333.563 387.836C332.909 387.836 332.348 387.693 331.88 387.406C331.414 387.119 331.054 386.723 330.801 386.217C330.551 385.708 330.426 385.123 330.426 384.461C330.426 383.797 330.554 383.21 330.81 382.701C331.066 382.19 331.426 381.792 331.892 381.508C332.361 381.221 332.915 381.078 333.554 381.078C334.085 381.078 334.556 381.176 334.965 381.372C335.377 381.565 335.705 381.839 335.949 382.194C336.193 382.547 336.333 382.958 336.367 383.43H334.892C334.833 383.115 334.691 382.852 334.466 382.642C334.245 382.429 333.948 382.322 333.576 382.322C333.26 382.322 332.983 382.407 332.745 382.578C332.506 382.745 332.32 382.987 332.186 383.302C332.056 383.618 331.99 383.995 331.99 384.436C331.99 384.882 332.056 385.265 332.186 385.586C332.317 385.905 332.5 386.15 332.736 386.324C332.975 386.494 333.255 386.579 333.576 386.579C333.803 386.579 334.006 386.537 334.185 386.451C334.367 386.363 334.519 386.237 334.641 386.072C334.763 385.907 334.847 385.707 334.892 385.471H336.367C336.33 385.934 336.193 386.345 335.958 386.703C335.722 387.058 335.401 387.336 334.995 387.538C334.588 387.737 334.111 387.836 333.563 387.836ZM337.633 387.708V381.163H339.129V382.254H339.197C339.317 381.876 339.521 381.585 339.811 381.38C340.104 381.173 340.437 381.069 340.812 381.069C340.898 381.069 340.993 381.074 341.098 381.082C341.206 381.088 341.295 381.098 341.366 381.112V382.531C341.301 382.508 341.197 382.488 341.055 382.471C340.916 382.451 340.781 382.441 340.65 382.441C340.369 382.441 340.116 382.503 339.892 382.625C339.67 382.744 339.496 382.91 339.368 383.123C339.24 383.336 339.176 383.582 339.176 383.86V387.708H337.633ZM342.391 387.708V381.163H343.934V387.708H342.391ZM343.167 380.234C342.922 380.234 342.712 380.153 342.536 379.991C342.36 379.826 342.272 379.629 342.272 379.399C342.272 379.166 342.36 378.968 342.536 378.807C342.712 378.642 342.922 378.559 343.167 378.559C343.414 378.559 343.624 378.642 343.797 378.807C343.974 378.968 344.062 379.166 344.062 379.399C344.062 379.629 343.974 379.826 343.797 379.991C343.624 380.153 343.414 380.234 343.167 380.234ZM345.52 390.163V381.163H347.037V382.245H347.127C347.206 382.086 347.318 381.917 347.463 381.738C347.608 381.557 347.804 381.402 348.051 381.274C348.299 381.143 348.614 381.078 348.997 381.078C349.503 381.078 349.959 381.207 350.365 381.466C350.774 381.721 351.098 382.101 351.337 382.603C351.578 383.103 351.699 383.717 351.699 384.444C351.699 385.163 351.581 385.774 351.345 386.277C351.11 386.78 350.789 387.163 350.382 387.427C349.976 387.691 349.516 387.824 349.002 387.824C348.627 387.824 348.316 387.761 348.068 387.636C347.821 387.511 347.622 387.36 347.472 387.184C347.324 387.005 347.209 386.836 347.127 386.677H347.063V390.163H345.52ZM347.033 384.436C347.033 384.859 347.093 385.23 347.212 385.548C347.334 385.866 347.509 386.115 347.736 386.294C347.966 386.47 348.245 386.558 348.571 386.558C348.912 386.558 349.198 386.467 349.428 386.285C349.658 386.101 349.831 385.849 349.948 385.531C350.067 385.21 350.127 384.845 350.127 384.436C350.127 384.03 350.068 383.669 349.952 383.353C349.835 383.038 349.662 382.791 349.432 382.612C349.202 382.433 348.915 382.343 348.571 382.343C348.242 382.343 347.962 382.43 347.732 382.603C347.502 382.777 347.327 383.02 347.208 383.332C347.091 383.645 347.033 384.012 347.033 384.436ZM356.289 381.163V382.356H352.526V381.163H356.289ZM353.455 379.595H354.997V385.74C354.997 385.947 355.029 386.106 355.091 386.217C355.157 386.325 355.242 386.399 355.347 386.439C355.452 386.478 355.568 386.498 355.696 386.498C355.793 386.498 355.881 386.491 355.96 386.477C356.043 386.463 356.105 386.45 356.148 386.439L356.408 387.645C356.326 387.673 356.208 387.704 356.054 387.738C355.904 387.772 355.719 387.792 355.5 387.798C355.114 387.809 354.766 387.751 354.456 387.623C354.147 387.493 353.901 387.291 353.719 387.018C353.54 386.745 353.452 386.405 353.455 385.995V379.595ZM360.623 387.708V378.981H363.964C364.595 378.981 365.119 379.081 365.537 379.28C365.957 379.476 366.271 379.744 366.479 380.085C366.689 380.426 366.794 380.812 366.794 381.244C366.794 381.599 366.726 381.903 366.589 382.156C366.453 382.406 366.27 382.609 366.04 382.765C365.81 382.922 365.552 383.034 365.268 383.102V383.187C365.578 383.204 365.875 383.299 366.159 383.473C366.446 383.643 366.68 383.885 366.862 384.197C367.044 384.51 367.135 384.887 367.135 385.331C367.135 385.782 367.025 386.189 366.807 386.549C366.588 386.907 366.258 387.19 365.818 387.397C365.378 387.605 364.824 387.708 364.156 387.708H360.623ZM362.204 386.387H363.905C364.479 386.387 364.892 386.278 365.145 386.059C365.4 385.838 365.528 385.554 365.528 385.207C365.528 384.949 365.464 384.716 365.337 384.508C365.209 384.298 365.027 384.133 364.791 384.014C364.555 383.892 364.274 383.831 363.947 383.831H362.204V386.387ZM362.204 382.693H363.768C364.041 382.693 364.287 382.643 364.506 382.544C364.724 382.441 364.896 382.298 365.021 382.113C365.149 381.926 365.213 381.704 365.213 381.449C365.213 381.11 365.094 380.832 364.855 380.613C364.619 380.395 364.268 380.285 363.802 380.285H362.204V382.693Z" fill="#002852" fill-opacity="0.8"/>
<path d="M334.956 242.708V241.757L337.481 239.282C337.722 239.038 337.923 238.821 338.084 238.632C338.245 238.442 338.366 238.259 338.447 238.081C338.527 237.904 338.567 237.714 338.567 237.513C338.567 237.284 338.515 237.087 338.411 236.924C338.307 236.758 338.164 236.63 337.981 236.54C337.799 236.45 337.592 236.405 337.36 236.405C337.121 236.405 336.911 236.455 336.731 236.554C336.552 236.651 336.412 236.79 336.312 236.97C336.215 237.15 336.167 237.364 336.167 237.613H334.913C334.913 237.151 335.019 236.75 335.229 236.409C335.44 236.068 335.73 235.804 336.099 235.617C336.471 235.43 336.897 235.336 337.378 235.336C337.865 235.336 338.294 235.427 338.663 235.61C339.033 235.792 339.319 236.042 339.523 236.359C339.729 236.676 339.832 237.039 339.832 237.446C339.832 237.718 339.78 237.985 339.675 238.248C339.571 238.511 339.388 238.802 339.125 239.122C338.864 239.441 338.499 239.829 338.028 240.283L336.774 241.558V241.608H339.942V242.708H334.956ZM340.879 241.359V240.311L343.965 235.436H344.839V236.927H344.306L342.229 240.219V240.276H346.536V241.359H340.879ZM344.349 242.708V241.039L344.363 240.571V235.436H345.606V242.708H344.349ZM351.559 241.345V240.961C351.559 240.68 351.618 240.42 351.737 240.184C351.858 239.947 352.033 239.756 352.262 239.612C352.492 239.467 352.77 239.395 353.097 239.395C353.433 239.395 353.715 239.467 353.942 239.612C354.169 239.754 354.341 239.943 354.457 240.18C354.575 240.417 354.634 240.677 354.634 240.961V241.345C354.634 241.627 354.575 241.886 354.457 242.123C354.339 242.359 354.165 242.55 353.935 242.694C353.708 242.839 353.428 242.911 353.097 242.911C352.765 242.911 352.485 242.839 352.255 242.694C352.026 242.55 351.852 242.359 351.733 242.123C351.617 241.886 351.559 241.627 351.559 241.345ZM352.486 240.961V241.345C352.486 241.532 352.531 241.704 352.621 241.86C352.711 242.016 352.87 242.094 353.097 242.094C353.326 242.094 353.484 242.017 353.569 241.863C353.657 241.707 353.701 241.534 353.701 241.345V240.961C353.701 240.772 353.659 240.599 353.576 240.443C353.493 240.284 353.334 240.205 353.097 240.205C352.874 240.205 352.717 240.284 352.625 240.443C352.532 240.599 352.486 240.772 352.486 240.961ZM347.862 237.183V236.799C347.862 236.515 347.923 236.255 348.044 236.018C348.164 235.781 348.34 235.592 348.569 235.45C348.799 235.306 349.077 235.233 349.404 235.233C349.737 235.233 350.018 235.306 350.245 235.45C350.475 235.592 350.648 235.781 350.764 236.018C350.88 236.255 350.938 236.515 350.938 236.799V237.183C350.938 237.467 350.879 237.727 350.76 237.964C350.644 238.199 350.471 238.387 350.242 238.529C350.012 238.671 349.733 238.742 349.404 238.742C349.07 238.742 348.788 238.671 348.559 238.529C348.331 238.387 348.158 238.197 348.04 237.961C347.922 237.724 347.862 237.465 347.862 237.183ZM348.796 236.799V237.183C348.796 237.372 348.84 237.545 348.928 237.701C349.018 237.855 349.176 237.932 349.404 237.932C349.631 237.932 349.787 237.855 349.872 237.701C349.96 237.545 350.004 237.372 350.004 237.183V236.799C350.004 236.61 349.962 236.437 349.88 236.281C349.797 236.122 349.638 236.043 349.404 236.043C349.179 236.043 349.021 236.122 348.931 236.281C348.841 236.44 348.796 236.612 348.796 236.799ZM348.267 242.708L353.267 235.436H354.155L349.155 242.708H348.267Z" fill="#002852" fill-opacity="0.8"/>
<rect x="95.8857" y="114.208" width="366" height="249" rx="31.5" stroke="#002852" stroke-opacity="0.05"/>
</g>
<defs>
<filter id="filter0_d_2178_5039" x="-3.05176e-05" y="-0.00012207" width="505.772" height="425.772" filterUnits="userSpaceOnUse" color-interpolation-filters="sRGB">
<feFlood flood-opacity="0" result="BackgroundImageFix"/>
<feColorMatrix in="SourceAlpha" type="matrix" values="0 0 0 0 0 0 0 0 0 0 0 0 0 0 0 0 0 0 127 0" result="hardAlpha"/>
<feOffset dy="3.67715"/>
<feGaussianBlur stdDeviation="9.19289"/>
<feComposite in2="hardAlpha" operator="out"/>
<feColorMatrix type="matrix" values="0 0 0 0 0.0468057 0 0 0 0 0.0634939 0 0 0 0 0.129808 0 0 0 0.1 0"/>
<feBlend mode="normal" in2="BackgroundImageFix" result="effect1_dropShadow_2178_5039"/>
<feBlend mode="normal" in="SourceGraphic" in2="effect1_dropShadow_2178_5039" result="shape"/>
</filter>
<clipPath id="clip0_2178_5039">
<rect width="16" height="16" fill="white" transform="translate(431.386 63.2085)"/>
</clipPath>
</defs>
</svg>
