<svg width="364" height="465" viewBox="0 0 364 465" fill="none" xmlns="http://www.w3.org/2000/svg">
<g filter="url(#filter0_d_4007_143)">
<circle cx="78" cy="56" r="8" fill="#4268FF"/>
<circle cx="78" cy="56" r="7" stroke="white" stroke-width="2"/>
</g>
<g filter="url(#filter1_d_4007_143)">
<circle cx="244" cy="190" r="8" fill="#4268FF"/>
<circle cx="244" cy="190" r="7" stroke="white" stroke-width="2"/>
</g>
<g filter="url(#filter2_d_4007_143)">
<circle cx="63" cy="323" r="8" fill="#4268FF"/>
<circle cx="63" cy="323" r="7" stroke="white" stroke-width="2"/>
</g>
<g filter="url(#filter3_d_4007_143)">
<circle cx="316" cy="400" r="8" fill="#4268FF"/>
<circle cx="316" cy="400" r="7" stroke="white" stroke-width="2"/>
</g>
<g clip-path="url(#clip0_4007_143)">
<path d="M352.632 350.368H327.369V375.631H352.632V350.368Z" fill="white"/>
<path d="M352.632 387L364 375.632L358.316 374.662L352.632 375.632L351.594 380.831L352.632 387Z" fill="#EA4335"/>
<path d="M316 375.632V383.211C316 385.304 317.696 387 319.789 387H327.368L328.536 381.316L327.368 375.632L321.175 374.662L316 375.632Z" fill="#188038"/>
<path d="M364 350.368V342.789C364 340.696 362.304 339 360.211 339H352.632C351.94 341.819 351.594 343.894 351.594 345.224C351.594 346.554 351.94 348.269 352.632 350.368C355.146 351.088 357.041 351.448 358.316 351.448C359.591 351.448 361.486 351.089 364 350.368Z" fill="#1967D2"/>
<path d="M364 350.368H352.631V375.631H364V350.368Z" fill="#FBBC04"/>
<path d="M352.632 375.632H327.369V387H352.632V375.632Z" fill="#34A853"/>
<path d="M352.631 339H319.79C317.696 339 316 340.696 316 342.789V375.631H327.368V350.368H352.631V339Z" fill="#4285F4"/>
<path d="M332.551 369.966C331.606 369.328 330.953 368.397 330.596 367.165L332.787 366.262C332.986 367.02 333.334 367.607 333.83 368.024C334.322 368.441 334.922 368.646 335.623 368.646C336.34 368.646 336.956 368.428 337.47 367.992C337.985 367.557 338.244 367.001 338.244 366.328C338.244 365.64 337.973 365.078 337.43 364.642C336.886 364.206 336.204 363.988 335.39 363.988H334.123V361.819H335.26C335.961 361.819 336.551 361.629 337.031 361.25C337.511 360.872 337.751 360.354 337.751 359.694C337.751 359.106 337.537 358.639 337.107 358.288C336.678 357.938 336.135 357.761 335.475 357.761C334.83 357.761 334.319 357.932 333.94 358.276C333.561 358.621 333.276 359.057 333.113 359.542L330.943 358.639C331.23 357.824 331.758 357.104 332.531 356.482C333.305 355.86 334.294 355.547 335.494 355.547C336.381 355.547 337.18 355.718 337.887 356.062C338.595 356.406 339.15 356.883 339.551 357.489C339.953 358.099 340.151 358.781 340.151 359.539C340.151 360.312 339.965 360.966 339.593 361.503C339.22 362.04 338.762 362.45 338.219 362.738V362.867C338.92 363.156 339.529 363.631 339.981 364.241C340.439 364.857 340.67 365.592 340.67 366.452C340.67 367.31 340.451 368.078 340.016 368.75C339.58 369.423 338.977 369.954 338.213 370.339C337.445 370.724 336.583 370.92 335.626 370.92C334.518 370.923 333.495 370.604 332.551 369.966ZM346.012 359.09L343.606 360.83L342.403 359.005L346.72 355.891H348.374V370.579H346.012V359.09Z" fill="#4285F4"/>
</g>
<g clip-path="url(#clip1_4007_143)">
<path d="M0.0195312 8.91675H5.77051V21.6938H17.8997V8.91675H23.6581V40.2804H17.8997V27.235H5.77051V40.2804H0.0195312V8.91675ZM41.8771 30.0648C41.8771 32.6903 39.7381 34.8268 37.1132 34.8268C34.4874 34.8268 32.3496 32.6903 32.3496 30.0648V16.5616H26.8957V30.0648C26.8957 35.6982 31.4795 40.2804 37.1132 40.2804C42.7457 40.2804 47.3292 35.6982 47.3292 30.0648V16.5616H41.8771V30.0648ZM62.5545 16.7198C59.8491 16.7198 57.9607 17.5049 56.137 19.2951V8.91675H50.6653V28.1506C50.6653 35.3499 55.8706 40.2804 61.7185 40.2804C68.2198 40.2804 73.916 35.262 73.916 28.5004C73.916 21.8246 68.6634 16.7198 62.5545 16.7198ZM62.6905 35.2185C58.9829 35.2185 56.1476 32.122 56.1476 28.5004C56.1476 24.8782 58.9829 21.7807 62.6905 21.7807C65.832 21.7807 68.6689 24.8782 68.6689 28.5004C68.6689 32.122 65.832 35.2185 62.6905 35.2185ZM83.1059 18.0983C83.1059 15.3478 84.9386 14.4757 86.9449 14.4757C88.5602 14.4757 90.6976 15.6973 92.0925 17.1811L95.6694 12.9929C93.8818 10.5935 90.2611 8.93511 87.2942 8.93511C81.3599 8.93511 77.084 12.3821 77.084 18.0983C77.084 28.7002 90.13 25.3395 90.13 31.2748C90.13 33.1052 88.3418 34.7211 86.2923 34.7211C83.0624 34.7211 82.0148 33.1503 80.532 31.4919L76.5608 35.5925C79.0929 38.6906 82.2332 40.262 85.9859 40.262C91.6138 40.262 96.1516 36.7716 96.1516 31.317C96.1516 19.5373 83.1059 23.2027 83.1059 18.0983ZM110.556 16.4125C104.709 16.4125 99.5029 21.34 99.5029 28.541V47.8245H104.974V37.3969C106.798 39.1857 108.686 39.9721 111.392 39.9721C117.501 39.9721 122.754 34.868 122.754 28.1921C122.754 21.4296 117.056 16.4125 110.556 16.4125ZM111.528 34.9118C107.821 34.9118 104.986 31.8111 104.986 28.1921C104.986 24.5699 107.821 21.4725 111.528 21.4725C114.669 21.4725 117.506 24.5699 117.506 28.1921C117.506 31.8111 114.669 34.9118 111.528 34.9118ZM163.029 35.2185C159.802 35.2185 158.886 33.8229 158.886 31.6842V22.2169H163.902V17.4182H158.886V11.0912L153.346 13.5776V32.8623C153.346 37.7931 156.748 40.2804 161.415 40.2804C162.113 40.2804 163.074 40.2353 163.598 40.1061L164.95 35.1328C164.34 35.175 163.642 35.2185 163.029 35.2185Z" fill="#45535E"/>
<path d="M148.6 22.496C147.551 20.6913 146.076 19.2445 144.231 18.1554C142.853 17.3529 141.423 16.8436 139.812 16.6248V10.8906C141.423 10.2067 142.423 8.69292 142.423 6.92691C142.423 4.51982 140.493 2.56922 138.087 2.56922C135.68 2.56922 133.716 4.51982 133.716 6.92691C133.716 8.69292 134.658 10.2067 136.269 10.8906V16.6274C134.98 16.8136 133.644 17.2153 132.424 17.8326C129.931 15.9396 121.758 9.72959 116.977 6.10253C117.091 5.69373 117.178 5.27236 117.178 4.82779C117.178 2.1617 115.019 0.000732422 112.352 0.000732422C109.685 0.000732422 107.527 2.1617 107.527 4.82779C107.527 7.49389 109.687 9.65517 112.354 9.65517C113.264 9.65517 114.105 9.38908 114.832 8.9516L115.841 9.71703L129.704 19.7062C128.972 20.3791 128.289 21.1446 127.743 22.0034C126.636 23.7543 125.96 25.6807 125.96 27.7821V28.2205C125.96 29.6957 126.24 31.0883 126.718 32.3965C127.138 33.5389 127.753 34.5775 128.514 35.5165L123.913 40.1291C123.246 39.8808 122.522 39.8299 121.827 39.9823C121.132 40.1347 120.495 40.484 119.994 40.9885C119.646 41.3343 119.371 41.7455 119.184 42.1984C118.996 42.6513 118.901 43.1368 118.902 43.6269C118.903 44.6233 119.291 45.5598 119.996 46.2644C120.341 46.612 120.752 46.8877 121.205 47.0754C121.658 47.2631 122.143 47.359 122.633 47.3577C123.124 47.3592 123.609 47.2632 124.062 47.0756C124.515 46.8879 124.926 46.6121 125.272 46.2644C125.619 45.9188 125.895 45.5078 126.082 45.0551C126.27 44.6023 126.366 44.1169 126.364 43.6269C126.364 43.2413 126.305 42.8651 126.192 42.5075L130.948 37.751C131.6 38.2013 132.305 38.5805 133.062 38.9075C134.555 39.5531 136.203 39.9464 138.007 39.9464H138.337C140.331 39.9464 142.212 39.478 143.98 38.5199C145.844 37.5074 147.302 36.1228 148.404 34.3552C149.511 32.5827 150.121 30.6244 150.121 28.4699V28.3623C150.121 26.2429 149.631 24.2874 148.6 22.496ZM142.789 32.4739C141.498 33.9084 140.014 34.792 138.337 34.792H138.061C137.103 34.792 136.165 34.5272 135.248 34.0456C134.214 33.5154 133.428 32.759 132.785 31.8012C132.12 30.8612 131.759 29.8348 131.759 28.7466V28.4161C131.759 27.3462 131.964 26.3318 132.481 25.3737C133.035 24.3264 133.782 23.512 134.775 22.8645C135.751 22.2215 136.792 21.9061 137.953 21.9061H138.061C139.113 21.9061 140.109 22.1136 141.049 22.5946C142.007 23.1074 142.789 23.8081 143.396 24.7298C143.985 25.6517 144.335 26.6462 144.448 27.7296C144.466 27.9548 144.475 28.1854 144.475 28.4058C144.475 29.8761 143.913 31.2378 142.789 32.4739Z" fill="#F8761F"/>
</g>
<path d="M271.212 152.471C278.355 152.471 282.406 157.927 282.042 165.5H265.193C265.679 168.708 268.596 170.97 271.824 170.642C272.917 170.668 274.005 170.477 275.024 170.08C276.043 169.682 276.973 169.087 277.76 168.327L280.703 171.519C279.561 172.696 278.182 173.618 276.657 174.222C275.132 174.826 273.496 175.1 271.857 175.024C264.664 175.024 260.018 170.229 260.018 163.747C259.984 162.264 260.25 160.79 260.8 159.412C261.35 158.034 262.172 156.781 263.217 155.728C264.262 154.675 265.509 153.844 266.882 153.285C268.256 152.725 269.729 152.448 271.212 152.471ZM194.111 152.471C201.254 152.471 205.305 157.927 204.941 165.5H188.109C188.595 168.701 191.501 170.96 194.723 170.642C195.816 170.668 196.904 170.477 197.923 170.08C198.942 169.682 199.872 169.087 200.659 168.327L203.602 171.519C202.46 172.696 201.081 173.618 199.556 174.222C198.031 174.826 196.395 175.1 194.756 175.024C187.563 175.024 182.917 170.229 182.917 163.747C182.884 162.264 183.15 160.79 183.699 159.412C184.249 158.034 185.071 156.781 186.116 155.729C187.161 154.676 188.408 153.845 189.781 153.285C191.155 152.725 192.628 152.448 194.111 152.471ZM302.893 156.522L299.04 158.771C298.509 157.982 297.785 157.341 296.937 156.91C296.09 156.479 295.146 156.271 294.195 156.307C291.732 156.307 290.475 157.514 290.475 158.903C290.475 160.292 292.459 160.887 295.584 161.582L295.798 161.629L296.013 161.677C296.12 161.701 296.228 161.726 296.336 161.752L296.552 161.803C296.624 161.821 296.696 161.839 296.768 161.857L296.984 161.911L297.2 161.968C300.254 162.786 303.157 164.207 303.157 168.03C303.157 171.023 300.561 175.041 294.41 175.008C292.518 175.147 290.624 174.751 288.946 173.865C287.267 172.979 285.872 171.639 284.919 169.998L289.069 167.766C289.617 168.747 290.423 169.56 291.399 170.116C292.375 170.673 293.485 170.952 294.609 170.924C297.205 170.924 298.544 169.585 298.544 168.063C298.544 166.542 296.031 165.947 293.302 165.385L293.081 165.337L292.86 165.289L292.749 165.264L292.528 165.214C289.101 164.423 285.812 163.088 285.812 158.936C285.812 155.513 289.119 152.322 294.179 152.322C295.869 152.221 297.557 152.553 299.082 153.288C300.607 154.023 301.919 155.137 302.893 156.522ZM255.669 142.963V174.578H251.073V171.601C250.203 172.678 249.102 173.545 247.851 174.137C246.6 174.73 245.232 175.033 243.847 175.024C242.392 175.012 240.954 174.708 239.619 174.131C238.283 173.554 237.076 172.715 236.07 171.664C235.063 170.613 234.278 169.371 233.759 168.011C233.24 166.651 232.999 165.202 233.05 163.747C232.988 162.288 233.222 160.832 233.738 159.466C234.255 158.099 235.043 156.852 236.056 155.8C237.068 154.747 238.284 153.911 239.628 153.342C240.973 152.772 242.42 152.482 243.88 152.488C245.248 152.477 246.602 152.769 247.845 153.34C249.088 153.912 250.19 154.75 251.073 155.795V142.963H255.669ZM179.015 153V157.233L166.019 170.461H179.246V174.627H160V170.411L172.996 157.183H160.297V153L179.015 153ZM311.474 142.963V163.665L321.213 152.884H326.802L318.353 162.16L327 174.578H321.825L315.112 164.971L311.474 168.956V174.594H306.877V142.963H311.474ZM219.393 152.488C224.849 152.488 229.446 156.042 229.446 161.929V174.578H224.717V162.508C224.717 158.969 222.997 156.836 219.525 156.836C218.775 156.781 218.022 156.891 217.319 157.159C216.616 157.428 215.981 157.847 215.459 158.389C214.936 158.93 214.539 159.579 214.296 160.291C214.053 161.003 213.97 161.76 214.052 162.508V174.578H209.373V161.929C209.373 156.043 213.936 152.488 219.393 152.488ZM244.476 156.902C240.696 156.902 237.631 159.967 237.631 163.747C237.631 167.528 240.695 170.593 244.476 170.593C248.257 170.593 251.321 167.528 251.321 163.747C251.321 159.967 248.257 156.902 244.476 156.902ZM265.177 161.879L276.967 161.895C276.806 158.914 274.26 156.627 271.278 156.786C268.219 156.607 265.548 158.837 265.177 161.879ZM188.109 161.879L199.865 161.895C199.696 158.921 197.153 156.643 194.178 156.803C191.136 156.64 188.487 158.857 188.109 161.879Z" fill="#03363D"/>
<path d="M42.8179 273.685C45.0567 271.356 48.1673 269.911 51.6154 269.911C56.1942 269.911 60.1879 272.464 62.3142 276.256C64.2166 275.405 66.2772 274.966 68.3611 274.967C76.6186 274.967 83.3123 281.723 83.3123 290.048C83.3123 298.379 76.6186 305.134 68.3611 305.134C67.3542 305.134 66.3698 305.033 65.4136 304.842C63.5404 308.183 59.9686 310.439 55.8736 310.439C54.1579 310.439 52.5379 310.045 51.0923 309.336C49.1911 313.802 44.7698 316.936 39.6117 316.936C34.2398 316.936 29.6667 313.538 27.9117 308.774C27.1467 308.937 26.3479 309.021 25.5323 309.021C19.1367 309.021 13.9561 303.784 13.9561 297.327C13.9561 292.996 16.2848 289.216 19.7442 287.196C19.0095 285.509 18.6322 283.687 18.6361 281.847C18.6361 274.416 24.6661 268.392 32.1079 268.392C36.4729 268.386 40.3598 270.467 42.8179 273.685Z" fill="#00A1E0"/>
<path d="M24.0025 293.564C23.9575 293.676 24.0194 293.699 24.0306 293.721C24.16 293.817 24.295 293.884 24.4244 293.963C25.1331 294.34 25.7969 294.447 26.5 294.447C27.9231 294.447 28.8063 293.688 28.8063 292.473V292.45C28.8063 291.325 27.8106 290.914 26.8713 290.622L26.7475 290.583C26.0444 290.352 25.4313 290.155 25.4313 289.694V289.671C25.4313 289.272 25.7856 288.979 26.3369 288.979C26.95 288.979 27.6756 289.182 28.1425 289.441C28.1425 289.441 28.2775 289.531 28.3281 289.396C28.3563 289.323 28.5925 288.687 28.615 288.619C28.6431 288.546 28.5925 288.49 28.5475 288.462C28.0131 288.136 27.2763 287.916 26.5113 287.916H26.3706C25.0713 287.916 24.16 288.704 24.16 289.829V289.851C24.16 291.038 25.1613 291.426 26.1006 291.696L26.2525 291.741C26.9388 291.949 27.5294 292.135 27.5294 292.613V292.636C27.5294 293.074 27.1469 293.406 26.5281 293.406C26.2863 293.406 25.5213 293.401 24.6944 292.878C24.5931 292.821 24.5369 292.776 24.4581 292.731C24.4188 292.703 24.3175 292.664 24.2725 292.793L24.0025 293.564ZM44.8319 293.564C44.7869 293.676 44.8488 293.699 44.86 293.721C44.9894 293.817 45.1244 293.884 45.2538 293.963C45.9625 294.34 46.6263 294.447 47.3294 294.447C48.7525 294.447 49.6356 293.688 49.6356 292.473V292.45C49.6356 291.325 48.64 290.914 47.7006 290.622L47.5769 290.583C46.8738 290.352 46.2606 290.155 46.2606 289.694V289.671C46.2606 289.272 46.615 288.979 47.1663 288.979C47.7794 288.979 48.505 289.182 48.9719 289.441C48.9719 289.441 49.1069 289.531 49.1575 289.396C49.1856 289.323 49.4219 288.687 49.4444 288.619C49.4725 288.546 49.4219 288.49 49.3769 288.462C48.8425 288.136 48.1056 287.916 47.3406 287.916H47.2C45.9006 287.916 44.9894 288.704 44.9894 289.829V289.851C44.9894 291.038 45.9906 291.426 46.93 291.696L47.0819 291.741C47.7681 291.949 48.3588 292.135 48.3588 292.613V292.636C48.3588 293.074 47.9763 293.406 47.3575 293.406C47.1156 293.406 46.3506 293.401 45.5238 292.878C45.4225 292.821 45.3663 292.776 45.2875 292.731C45.2594 292.714 45.1413 292.669 45.1019 292.793L44.8319 293.564ZM59.0463 291.179C59.0463 291.865 58.9169 292.411 58.6638 292.793C58.4163 293.17 58.0338 293.356 57.5106 293.356C56.9819 293.356 56.605 293.17 56.3575 292.793C56.11 292.411 55.9806 291.865 55.9806 291.179C55.9806 290.493 56.1044 289.953 56.3575 289.57C56.605 289.193 56.9819 289.013 57.5106 289.013C58.0394 289.013 58.4163 289.193 58.6694 289.57C58.9169 289.947 59.0463 290.487 59.0463 291.179ZM60.2331 289.902C60.115 289.508 59.935 289.159 59.6931 288.873C59.4462 288.575 59.1345 288.339 58.7819 288.181C58.4219 288.012 57.9888 287.928 57.5106 287.928C57.0269 287.928 56.5994 288.012 56.2394 288.181C55.8738 288.349 55.57 288.586 55.3281 288.873C55.0863 289.165 54.9063 289.508 54.7881 289.902C54.67 290.296 54.6138 290.723 54.6138 291.179C54.6138 291.634 54.67 292.062 54.7881 292.456C54.9063 292.849 55.0863 293.198 55.3281 293.485C55.57 293.778 55.8794 294.008 56.2394 294.171C56.605 294.334 57.0325 294.419 57.5106 294.419C57.9944 294.419 58.4219 294.334 58.7819 294.171C59.1419 294.008 59.4513 293.772 59.6931 293.485C59.935 293.198 60.115 292.849 60.2331 292.456C60.3513 292.062 60.4075 291.634 60.4075 291.179C60.4075 290.723 60.3513 290.29 60.2331 289.902ZM69.9869 293.17C69.9475 293.052 69.835 293.097 69.835 293.097C69.6606 293.164 69.4806 293.226 69.2838 293.254C69.0869 293.283 68.8675 293.299 68.6313 293.299C68.0575 293.299 67.6019 293.131 67.27 292.793C66.9438 292.456 66.7581 291.91 66.7581 291.168C66.7581 290.493 66.9213 289.986 67.2138 289.604C67.5006 289.221 67.945 289.024 68.53 289.024C69.0194 289.024 69.3963 289.081 69.7844 289.204C69.7844 289.204 69.88 289.244 69.925 289.12C70.0263 288.833 70.105 288.625 70.2175 288.31C70.2513 288.22 70.1725 288.181 70.1444 288.169C69.9925 288.108 69.6269 288.012 69.3513 287.973C69.0925 287.933 68.7944 287.911 68.4625 287.911C67.9619 287.911 67.5175 287.995 67.1406 288.164C66.7638 288.333 66.4375 288.563 66.1844 288.856C65.9245 289.157 65.7276 289.507 65.605 289.885C65.4756 290.279 65.4138 290.706 65.4138 291.162C65.4138 292.146 65.6781 292.945 66.2069 293.524C66.73 294.109 67.5231 294.408 68.5525 294.408C69.16 294.408 69.7844 294.284 70.2344 294.109C70.2344 294.109 70.3188 294.07 70.285 293.969L69.9869 293.17ZM72.0681 290.515C72.1244 290.133 72.2313 289.812 72.3944 289.564C72.6419 289.188 73.0131 288.979 73.5419 288.979C74.0706 288.979 74.4194 289.188 74.6669 289.564C74.8356 289.812 74.9031 290.144 74.9313 290.515H72.0681ZM76.0619 289.677C75.9606 289.294 75.7131 288.912 75.5444 288.738C75.2856 288.456 75.0325 288.265 74.7794 288.158C74.4146 288.004 74.0223 287.926 73.6263 287.928C73.1256 287.928 72.67 288.012 72.2988 288.186C71.9275 288.361 71.6181 288.597 71.3706 288.895C71.1288 289.188 70.9431 289.542 70.825 289.936C70.7069 290.329 70.6506 290.763 70.6506 291.218C70.6506 291.679 70.7125 292.113 70.8306 292.501C70.9544 292.894 71.1513 293.238 71.4156 293.524C71.68 293.811 72.0175 294.036 72.4281 294.194C72.8331 294.351 73.3225 294.43 73.885 294.43C75.0438 294.424 75.6569 294.166 75.91 294.031C75.955 294.008 75.9944 293.963 75.9438 293.839L75.6794 293.103C75.64 292.996 75.5275 293.035 75.5275 293.035C75.2406 293.142 74.83 293.333 73.8794 293.333C73.255 293.333 72.7938 293.148 72.5069 292.861C72.2088 292.568 72.0625 292.135 72.04 291.522L76.0619 291.528C76.0619 291.528 76.1688 291.528 76.18 291.421C76.1856 291.364 76.3206 290.583 76.0619 289.677ZM39.8706 290.515C39.9269 290.133 40.0338 289.812 40.1969 289.564C40.4444 289.188 40.8156 288.979 41.3444 288.979C41.8731 288.979 42.2219 289.188 42.4694 289.564C42.6325 289.812 42.7056 290.144 42.7338 290.515H39.8706ZM43.87 289.677C43.7688 289.294 43.5213 288.912 43.3581 288.738C43.0994 288.456 42.8463 288.265 42.5931 288.158C42.2283 288.004 41.836 287.926 41.44 287.928C40.9394 287.928 40.4838 288.012 40.1125 288.186C39.7413 288.361 39.4319 288.597 39.1844 288.895C38.9425 289.188 38.7569 289.542 38.6388 289.936C38.5206 290.329 38.4644 290.763 38.4644 291.218C38.4644 291.679 38.5263 292.113 38.6444 292.501C38.7681 292.894 38.965 293.238 39.2294 293.524C39.4938 293.811 39.8313 294.036 40.2419 294.194C40.6469 294.351 41.1363 294.43 41.6988 294.43C42.8575 294.424 43.4706 294.166 43.7238 294.031C43.7688 294.008 43.8081 293.963 43.7575 293.839L43.4931 293.103C43.4538 292.996 43.3413 293.035 43.3413 293.035C43.0544 293.142 42.6438 293.333 41.6931 293.333C41.0688 293.333 40.6075 293.148 40.3206 292.861C40.0225 292.568 39.8763 292.135 39.8538 291.522L43.8756 291.528C43.8756 291.528 43.9825 291.528 43.9938 291.421C43.9938 291.364 44.1288 290.583 43.87 289.677ZM31.18 293.148C31.0225 293.024 31 292.99 30.9494 292.911C30.8706 292.788 30.8313 292.613 30.8313 292.388C30.8313 292.034 30.9494 291.781 31.1913 291.612C31.1856 291.612 31.5344 291.308 32.3556 291.319C32.9294 291.325 33.4469 291.415 33.4469 291.415V293.243C33.4469 293.243 32.935 293.35 32.3613 293.389C31.54 293.434 31.18 293.148 31.18 293.148ZM32.7831 290.324C32.62 290.313 32.4063 290.307 32.1531 290.307C31.81 290.307 31.4781 290.352 31.1631 290.436C30.8481 290.521 30.5669 290.65 30.325 290.824C30.0831 290.999 29.8863 291.224 29.74 291.488C29.5994 291.753 29.5263 292.068 29.5263 292.416C29.5263 292.771 29.5881 293.08 29.7119 293.333C29.8356 293.586 30.01 293.8 30.235 293.963C30.46 294.126 30.7356 294.244 31.0563 294.318C31.3713 294.391 31.7313 294.424 32.1194 294.424C32.53 294.424 32.9406 294.391 33.34 294.323C33.7338 294.256 34.2175 294.16 34.3525 294.126C34.4875 294.093 34.6338 294.053 34.6338 294.053C34.735 294.031 34.7238 293.924 34.7238 293.924V290.245C34.7238 289.441 34.51 288.839 34.0825 288.473C33.6606 288.102 33.0419 287.916 32.2375 287.916C31.9338 287.916 31.45 287.956 31.1631 288.018C31.1631 288.018 30.2856 288.186 29.9256 288.468C29.9256 288.468 29.8469 288.518 29.8919 288.625L30.1788 289.39C30.2125 289.491 30.3081 289.458 30.3081 289.458C30.3081 289.458 30.3363 289.446 30.3756 289.424C31.1519 289.002 32.125 289.013 32.125 289.013C32.5581 289.013 32.8956 289.098 33.1206 289.272C33.34 289.441 33.4525 289.694 33.4525 290.228V290.397C33.0981 290.352 32.7831 290.324 32.7831 290.324ZM65.2056 288.254C65.2168 288.226 65.2165 288.195 65.2049 288.168C65.1933 288.14 65.1713 288.119 65.1438 288.108C65.0763 288.079 64.7331 288.006 64.4688 287.989C63.9625 287.961 63.6813 288.046 63.4338 288.158C63.1863 288.271 62.9106 288.451 62.7531 288.659V288.169C62.7531 288.102 62.7025 288.046 62.635 288.046H61.6056C61.5381 288.046 61.4875 288.102 61.4875 288.169V294.166C61.4875 294.233 61.5438 294.289 61.6113 294.289H62.6688C62.7363 294.289 62.7925 294.233 62.7925 294.166V291.168C62.7925 290.768 62.8375 290.363 62.9275 290.11C63.0119 289.863 63.1356 289.66 63.2819 289.519C63.4281 289.379 63.5969 289.278 63.7769 289.221C63.9625 289.165 64.1706 289.143 64.3169 289.143C64.525 289.143 64.7613 289.199 64.7613 289.199C64.84 289.21 64.8794 289.159 64.9075 289.092C64.9694 288.912 65.1663 288.361 65.2056 288.254Z" fill="white"/>
<path d="M55.2886 285.475C55.1592 285.436 55.0411 285.408 54.8892 285.379C54.7373 285.351 54.5517 285.34 54.3436 285.34C53.6179 285.34 53.0442 285.548 52.6392 285.953C52.2398 286.358 51.9698 286.971 51.8292 287.776L51.7786 288.046H50.8673C50.8673 288.046 50.7548 288.04 50.7323 288.164L50.5804 289.002C50.5692 289.081 50.6029 289.131 50.7098 289.131H51.5986L50.6986 294.16C50.6311 294.565 50.5467 294.897 50.4567 295.15C50.3667 295.398 50.2823 295.583 50.1754 295.724C50.0742 295.853 49.9786 295.949 49.8098 296.005C49.6692 296.05 49.5117 296.073 49.3373 296.073C49.2417 296.073 49.1123 296.056 49.0167 296.039C48.9211 296.022 48.8704 295.999 48.7973 295.971C48.7973 295.971 48.6961 295.932 48.6511 296.033C48.6173 296.118 48.3811 296.77 48.3529 296.849C48.3248 296.928 48.3642 296.989 48.4148 297.012C48.5329 297.051 48.6229 297.079 48.7804 297.119C49.0054 297.169 49.1911 297.175 49.3711 297.175C49.7423 297.175 50.0798 297.124 50.3554 297.023C50.6367 296.922 50.8786 296.742 51.0979 296.506C51.3342 296.247 51.4804 295.977 51.6211 295.606C51.7617 295.24 51.8798 294.784 51.9754 294.256L52.8811 289.131H54.2029C54.2029 289.131 54.3154 289.137 54.3379 289.013L54.4898 288.175C54.5011 288.096 54.4673 288.046 54.3604 288.046H53.0723C53.0779 288.018 53.1398 287.562 53.2861 287.14C53.3479 286.96 53.4661 286.814 53.5673 286.713C53.6686 286.611 53.7811 286.544 53.9048 286.504C54.0342 286.465 54.1748 286.443 54.3379 286.443C54.4561 286.443 54.5798 286.454 54.6698 286.476C54.7936 286.504 54.8442 286.516 54.8779 286.527C55.0073 286.566 55.0298 286.527 55.0523 286.465L55.3617 285.621C55.3954 285.526 55.3167 285.486 55.2886 285.475ZM37.3336 294.166C37.3336 294.233 37.2829 294.289 37.2154 294.289H36.1467C36.0792 294.289 36.0342 294.233 36.0342 294.166V285.588C36.0342 285.52 36.0792 285.464 36.1467 285.464H37.2154C37.2829 285.464 37.3336 285.52 37.3336 285.588V294.166Z" fill="white"/>
<g opacity="0.25" filter="url(#filter4_f_4007_143)">
<ellipse cx="65.9521" cy="325.462" rx="30" ry="11" transform="rotate(-19.6843 65.9521 325.462)" fill="#4268FF"/>
</g>
<g opacity="0.25" filter="url(#filter5_f_4007_143)">
<ellipse cx="243.952" cy="190.462" rx="30" ry="11" transform="rotate(13.2794 243.952 190.462)" fill="#4268FF"/>
</g>
<g opacity="0.25" filter="url(#filter6_f_4007_143)">
<ellipse cx="78.3736" cy="56.6585" rx="30" ry="11" transform="rotate(-9.20754 78.3736 56.6585)" fill="#4268FF"/>
</g>
<g opacity="0.25" filter="url(#filter7_f_4007_143)">
<ellipse cx="314.376" cy="400.659" rx="30" ry="11" transform="rotate(57.1208 314.376 400.659)" fill="#4268FF"/>
</g>
<path d="M67.89 446H69.63L74.73 460H73.24L72.15 457H65.38L64.29 460H62.8L67.89 446ZM65.89 455.6H71.63L68.76 447.72L65.89 455.6ZM85.2598 453.81V460H83.8598V454.09C83.8598 453.543 83.7265 453.047 83.4598 452.6C83.1932 452.153 82.8365 451.797 82.3898 451.53C81.9432 451.263 81.4465 451.13 80.8998 451.13C80.3598 451.13 79.8632 451.263 79.4098 451.53C78.9632 451.797 78.6065 452.153 78.3398 452.6C78.0732 453.047 77.9398 453.543 77.9398 454.09V460H76.5398V450H77.9398V451.38C78.2932 450.873 78.7532 450.47 79.3198 450.17C79.8865 449.87 80.5032 449.72 81.1698 449.72C81.9232 449.72 82.6098 449.903 83.2298 450.27C83.8498 450.637 84.3432 451.13 84.7098 451.75C85.0765 452.37 85.2598 453.057 85.2598 453.81ZM95.2972 445H96.6972V460H95.2972V458.13C94.9505 458.77 94.4739 459.287 93.8672 459.68C93.2672 460.067 92.5539 460.26 91.7272 460.26C91.0005 460.26 90.3205 460.123 89.6872 459.85C89.0539 459.577 88.4939 459.2 88.0072 458.72C87.5272 458.233 87.1505 457.673 86.8772 457.04C86.6039 456.407 86.4672 455.727 86.4672 455C86.4672 454.273 86.6039 453.593 86.8772 452.96C87.1505 452.32 87.5272 451.76 88.0072 451.28C88.4939 450.793 89.0539 450.413 89.6872 450.14C90.3205 449.867 91.0005 449.73 91.7272 449.73C92.5539 449.73 93.2672 449.927 93.8672 450.32C94.4739 450.707 94.9505 451.217 95.2972 451.85V445ZM91.7372 458.9C92.4505 458.9 93.0639 458.727 93.5772 458.38C94.0905 458.027 94.4839 457.553 94.7572 456.96C95.0372 456.367 95.1772 455.713 95.1772 455C95.1772 454.267 95.0372 453.607 94.7572 453.02C94.4772 452.427 94.0805 451.957 93.5672 451.61C93.0539 451.263 92.4439 451.09 91.7372 451.09C91.0305 451.09 90.3872 451.267 89.8072 451.62C89.2272 451.967 88.7639 452.437 88.4172 453.03C88.0705 453.623 87.8972 454.28 87.8972 455C87.8972 455.727 88.0739 456.387 88.4272 456.98C88.7805 457.567 89.2472 458.033 89.8272 458.38C90.4139 458.727 91.0505 458.9 91.7372 458.9ZM103.903 460V450H105.303V451.38C105.663 450.873 106.123 450.47 106.683 450.17C107.243 449.87 107.856 449.72 108.523 449.72C109.276 449.72 109.966 449.907 110.593 450.28C111.22 450.647 111.71 451.137 112.063 451.75C112.416 451.137 112.903 450.647 113.523 450.28C114.143 449.907 114.83 449.72 115.583 449.72C116.336 449.72 117.023 449.903 117.643 450.27C118.263 450.637 118.756 451.13 119.123 451.75C119.49 452.37 119.673 453.057 119.673 453.81V460H118.273V454.12C118.273 453.587 118.143 453.093 117.883 452.64C117.623 452.187 117.273 451.823 116.833 451.55C116.4 451.27 115.916 451.13 115.383 451.13C114.85 451.13 114.363 451.26 113.923 451.52C113.49 451.773 113.143 452.127 112.883 452.58C112.623 453.027 112.493 453.54 112.493 454.12V460H111.093V454.12C111.093 453.54 110.963 453.027 110.703 452.58C110.443 452.127 110.093 451.773 109.653 451.52C109.213 451.26 108.726 451.13 108.193 451.13C107.666 451.13 107.183 451.27 106.743 451.55C106.303 451.823 105.953 452.187 105.693 452.64C105.433 453.093 105.303 453.587 105.303 454.12V460H103.903ZM121.277 456.17V450H122.677V455.89C122.677 456.437 122.81 456.933 123.077 457.38C123.343 457.827 123.7 458.183 124.147 458.45C124.6 458.717 125.097 458.85 125.637 458.85C126.183 458.85 126.677 458.717 127.117 458.45C127.563 458.183 127.92 457.827 128.187 457.38C128.453 456.933 128.587 456.437 128.587 455.89V450H129.987L129.997 460H128.597L128.587 458.6C128.233 459.107 127.773 459.51 127.207 459.81C126.647 460.11 126.033 460.26 125.367 460.26C124.613 460.26 123.927 460.077 123.307 459.71C122.687 459.343 122.193 458.85 121.827 458.23C121.46 457.61 121.277 456.923 121.277 456.17ZM139.051 457.49L140.301 458.17C139.848 458.803 139.271 459.31 138.571 459.69C137.878 460.07 137.124 460.26 136.311 460.26C135.391 460.26 134.551 460.023 133.791 459.55C133.038 459.077 132.434 458.443 131.981 457.65C131.534 456.85 131.311 455.967 131.311 455C131.311 454.267 131.441 453.583 131.701 452.95C131.961 452.31 132.318 451.75 132.771 451.27C133.231 450.783 133.764 450.403 134.371 450.13C134.978 449.857 135.624 449.72 136.311 449.72C137.124 449.72 137.878 449.91 138.571 450.29C139.271 450.67 139.848 451.18 140.301 451.82L139.051 452.49C138.704 452.05 138.288 451.713 137.801 451.48C137.314 451.24 136.818 451.12 136.311 451.12C135.638 451.12 135.028 451.3 134.481 451.66C133.934 452.013 133.501 452.483 133.181 453.07C132.868 453.657 132.711 454.3 132.711 455C132.711 455.7 132.871 456.343 133.191 456.93C133.518 457.517 133.954 457.987 134.501 458.34C135.048 458.687 135.651 458.86 136.311 458.86C136.858 458.86 137.371 458.733 137.851 458.48C138.331 458.227 138.731 457.897 139.051 457.49ZM150.69 453.81V460H149.29V454.09C149.29 453.543 149.156 453.047 148.89 452.6C148.623 452.153 148.266 451.797 147.82 451.53C147.373 451.263 146.876 451.13 146.33 451.13C145.79 451.13 145.293 451.263 144.84 451.53C144.393 451.797 144.036 452.153 143.77 452.6C143.503 453.047 143.37 453.543 143.37 454.09V460H141.97V445H143.37V451.38C143.723 450.873 144.183 450.47 144.75 450.17C145.316 449.87 145.933 449.72 146.6 449.72C147.353 449.72 148.04 449.903 148.66 450.27C149.28 450.637 149.773 451.13 150.14 451.75C150.506 452.37 150.69 453.057 150.69 453.81ZM157.497 460V450H158.897V451.38C159.257 450.873 159.717 450.47 160.277 450.17C160.837 449.87 161.45 449.72 162.117 449.72C162.87 449.72 163.56 449.907 164.187 450.28C164.814 450.647 165.304 451.137 165.657 451.75C166.01 451.137 166.497 450.647 167.117 450.28C167.737 449.907 168.424 449.72 169.177 449.72C169.93 449.72 170.617 449.903 171.237 450.27C171.857 450.637 172.35 451.13 172.717 451.75C173.084 452.37 173.267 453.057 173.267 453.81V460H171.867V454.12C171.867 453.587 171.737 453.093 171.477 452.64C171.217 452.187 170.867 451.823 170.427 451.55C169.994 451.27 169.51 451.13 168.977 451.13C168.444 451.13 167.957 451.26 167.517 451.52C167.084 451.773 166.737 452.127 166.477 452.58C166.217 453.027 166.087 453.54 166.087 454.12V460H164.687V454.12C164.687 453.54 164.557 453.027 164.297 452.58C164.037 452.127 163.687 451.773 163.247 451.52C162.807 451.26 162.32 451.13 161.787 451.13C161.26 451.13 160.777 451.27 160.337 451.55C159.897 451.823 159.547 452.187 159.287 452.64C159.027 453.093 158.897 453.587 158.897 454.12V460H157.497ZM179.475 460.26C178.555 460.26 177.715 460.023 176.955 459.55C176.202 459.077 175.598 458.443 175.145 457.65C174.698 456.85 174.475 455.967 174.475 455C174.475 454.267 174.605 453.583 174.865 452.95C175.125 452.31 175.482 451.75 175.935 451.27C176.395 450.783 176.928 450.403 177.535 450.13C178.142 449.857 178.788 449.72 179.475 449.72C180.395 449.72 181.232 449.957 181.985 450.43C182.745 450.903 183.348 451.54 183.795 452.34C184.248 453.14 184.475 454.027 184.475 455C184.475 455.727 184.345 456.407 184.085 457.04C183.825 457.673 183.465 458.233 183.005 458.72C182.552 459.2 182.022 459.577 181.415 459.85C180.815 460.123 180.168 460.26 179.475 460.26ZM179.475 458.86C180.155 458.86 180.765 458.683 181.305 458.33C181.852 457.97 182.282 457.497 182.595 456.91C182.915 456.323 183.075 455.687 183.075 455C183.075 454.3 182.915 453.657 182.595 453.07C182.275 452.477 181.842 452.003 181.295 451.65C180.755 451.297 180.148 451.12 179.475 451.12C178.795 451.12 178.182 451.3 177.635 451.66C177.095 452.013 176.665 452.483 176.345 453.07C176.032 453.657 175.875 454.3 175.875 455C175.875 455.72 176.038 456.373 176.365 456.96C176.692 457.54 177.128 458.003 177.675 458.35C178.222 458.69 178.822 458.86 179.475 458.86ZM186.169 460V450H187.569V451.38C187.922 450.873 188.382 450.47 188.949 450.17C189.515 449.87 190.132 449.72 190.799 449.72C191.185 449.72 191.559 449.77 191.919 449.87L191.349 451.26C191.069 451.173 190.795 451.13 190.529 451.13C189.989 451.13 189.492 451.263 189.039 451.53C188.592 451.797 188.235 452.153 187.969 452.6C187.702 453.047 187.569 453.543 187.569 454.09V460H186.169ZM197.053 460.26C196.133 460.26 195.293 460.023 194.533 459.55C193.78 459.077 193.176 458.443 192.723 457.65C192.276 456.85 192.053 455.967 192.053 455C192.053 454.267 192.183 453.583 192.443 452.95C192.703 452.31 193.06 451.75 193.513 451.27C193.973 450.783 194.506 450.403 195.113 450.13C195.72 449.857 196.366 449.72 197.053 449.72C197.793 449.72 198.473 449.867 199.093 450.16C199.72 450.453 200.256 450.863 200.703 451.39C201.156 451.917 201.496 452.533 201.723 453.24C201.956 453.947 202.053 454.71 202.013 455.53H193.533C193.613 456.163 193.813 456.73 194.133 457.23C194.46 457.73 194.873 458.127 195.373 458.42C195.88 458.707 196.44 458.853 197.053 458.86C197.72 458.86 198.32 458.687 198.853 458.34C199.393 457.993 199.826 457.517 200.153 456.91L201.573 457.24C201.173 458.127 200.57 458.853 199.763 459.42C198.956 459.98 198.053 460.26 197.053 460.26ZM193.493 454.4H200.603C200.556 453.78 200.366 453.213 200.033 452.7C199.706 452.18 199.283 451.767 198.763 451.46C198.243 451.147 197.673 450.99 197.053 450.99C196.433 450.99 195.866 451.143 195.353 451.45C194.84 451.75 194.42 452.16 194.093 452.68C193.766 453.193 193.566 453.767 193.493 454.4ZM204.02 460.26C203.8 460.26 203.613 460.18 203.46 460.02C203.306 459.867 203.23 459.677 203.23 459.45C203.23 459.237 203.306 459.053 203.46 458.9C203.613 458.74 203.8 458.66 204.02 458.66C204.246 458.66 204.436 458.74 204.59 458.9C204.75 459.053 204.83 459.237 204.83 459.45C204.83 459.677 204.75 459.867 204.59 460.02C204.436 460.18 204.246 460.26 204.02 460.26ZM207.613 460.26C207.393 460.26 207.207 460.18 207.053 460.02C206.9 459.867 206.823 459.677 206.823 459.45C206.823 459.237 206.9 459.053 207.053 458.9C207.207 458.74 207.393 458.66 207.613 458.66C207.84 458.66 208.03 458.74 208.183 458.9C208.343 459.053 208.423 459.237 208.423 459.45C208.423 459.677 208.343 459.867 208.183 460.02C208.03 460.18 207.84 460.26 207.613 460.26ZM211.207 460.26C210.987 460.26 210.801 460.18 210.647 460.02C210.494 459.867 210.417 459.677 210.417 459.45C210.417 459.237 210.494 459.053 210.647 458.9C210.801 458.74 210.987 458.66 211.207 458.66C211.434 458.66 211.624 458.74 211.777 458.9C211.937 459.053 212.017 459.237 212.017 459.45C212.017 459.677 211.937 459.867 211.777 460.02C211.624 460.18 211.434 460.26 211.207 460.26Z" fill="#4268FF"/>
<defs>
<filter id="filter0_d_4007_143" x="66" y="48" width="24" height="24" filterUnits="userSpaceOnUse" color-interpolation-filters="sRGB">
<feFlood flood-opacity="0" result="BackgroundImageFix"/>
<feColorMatrix in="SourceAlpha" type="matrix" values="0 0 0 0 0 0 0 0 0 0 0 0 0 0 0 0 0 0 127 0" result="hardAlpha"/>
<feOffset dy="4"/>
<feGaussianBlur stdDeviation="2"/>
<feComposite in2="hardAlpha" operator="out"/>
<feColorMatrix type="matrix" values="0 0 0 0 0.259615 0 0 0 0 0.407692 0 0 0 0 1 0 0 0 0.25 0"/>
<feBlend mode="normal" in2="BackgroundImageFix" result="effect1_dropShadow_4007_143"/>
<feBlend mode="normal" in="SourceGraphic" in2="effect1_dropShadow_4007_143" result="shape"/>
</filter>
<filter id="filter1_d_4007_143" x="232" y="182" width="24" height="24" filterUnits="userSpaceOnUse" color-interpolation-filters="sRGB">
<feFlood flood-opacity="0" result="BackgroundImageFix"/>
<feColorMatrix in="SourceAlpha" type="matrix" values="0 0 0 0 0 0 0 0 0 0 0 0 0 0 0 0 0 0 127 0" result="hardAlpha"/>
<feOffset dy="4"/>
<feGaussianBlur stdDeviation="2"/>
<feComposite in2="hardAlpha" operator="out"/>
<feColorMatrix type="matrix" values="0 0 0 0 0.259615 0 0 0 0 0.407692 0 0 0 0 1 0 0 0 0.25 0"/>
<feBlend mode="normal" in2="BackgroundImageFix" result="effect1_dropShadow_4007_143"/>
<feBlend mode="normal" in="SourceGraphic" in2="effect1_dropShadow_4007_143" result="shape"/>
</filter>
<filter id="filter2_d_4007_143" x="51" y="315" width="24" height="24" filterUnits="userSpaceOnUse" color-interpolation-filters="sRGB">
<feFlood flood-opacity="0" result="BackgroundImageFix"/>
<feColorMatrix in="SourceAlpha" type="matrix" values="0 0 0 0 0 0 0 0 0 0 0 0 0 0 0 0 0 0 127 0" result="hardAlpha"/>
<feOffset dy="4"/>
<feGaussianBlur stdDeviation="2"/>
<feComposite in2="hardAlpha" operator="out"/>
<feColorMatrix type="matrix" values="0 0 0 0 0.259615 0 0 0 0 0.407692 0 0 0 0 1 0 0 0 0.25 0"/>
<feBlend mode="normal" in2="BackgroundImageFix" result="effect1_dropShadow_4007_143"/>
<feBlend mode="normal" in="SourceGraphic" in2="effect1_dropShadow_4007_143" result="shape"/>
</filter>
<filter id="filter3_d_4007_143" x="304" y="392" width="24" height="24" filterUnits="userSpaceOnUse" color-interpolation-filters="sRGB">
<feFlood flood-opacity="0" result="BackgroundImageFix"/>
<feColorMatrix in="SourceAlpha" type="matrix" values="0 0 0 0 0 0 0 0 0 0 0 0 0 0 0 0 0 0 127 0" result="hardAlpha"/>
<feOffset dy="4"/>
<feGaussianBlur stdDeviation="2"/>
<feComposite in2="hardAlpha" operator="out"/>
<feColorMatrix type="matrix" values="0 0 0 0 0.259615 0 0 0 0 0.407692 0 0 0 0 1 0 0 0 0.25 0"/>
<feBlend mode="normal" in2="BackgroundImageFix" result="effect1_dropShadow_4007_143"/>
<feBlend mode="normal" in="SourceGraphic" in2="effect1_dropShadow_4007_143" result="shape"/>
</filter>
<filter id="filter4_f_4007_143" x="12.46" y="285.992" width="106.984" height="78.9402" filterUnits="userSpaceOnUse" color-interpolation-filters="sRGB">
<feFlood flood-opacity="0" result="BackgroundImageFix"/>
<feBlend mode="normal" in="SourceGraphic" in2="BackgroundImageFix" result="shape"/>
<feGaussianBlur stdDeviation="12.5" result="effect1_foregroundBlur_4007_143"/>
</filter>
<filter id="filter5_f_4007_143" x="189.644" y="152.729" width="108.618" height="75.4668" filterUnits="userSpaceOnUse" color-interpolation-filters="sRGB">
<feFlood flood-opacity="0" result="BackgroundImageFix"/>
<feBlend mode="normal" in="SourceGraphic" in2="BackgroundImageFix" result="shape"/>
<feGaussianBlur stdDeviation="12.5" result="effect1_foregroundBlur_4007_143"/>
</filter>
<filter id="filter6_f_4007_143" x="23.707" y="19.7834" width="109.333" height="73.75" filterUnits="userSpaceOnUse" color-interpolation-filters="sRGB">
<feFlood flood-opacity="0" result="BackgroundImageFix"/>
<feBlend mode="normal" in="SourceGraphic" in2="BackgroundImageFix" result="shape"/>
<feGaussianBlur stdDeviation="12.5" result="effect1_foregroundBlur_4007_143"/>
</filter>
<filter id="filter7_f_4007_143" x="270.649" y="349.76" width="87.4536" height="101.797" filterUnits="userSpaceOnUse" color-interpolation-filters="sRGB">
<feFlood flood-opacity="0" result="BackgroundImageFix"/>
<feBlend mode="normal" in="SourceGraphic" in2="BackgroundImageFix" result="shape"/>
<feGaussianBlur stdDeviation="12.5" result="effect1_foregroundBlur_4007_143"/>
</filter>
<clipPath id="clip0_4007_143">
<rect width="48" height="48" fill="white" transform="translate(316 339)"/>
</clipPath>
<clipPath id="clip1_4007_143">
<rect width="164.94" height="48" fill="white"/>
</clipPath>
</defs>
</svg>
