<svg width="564" height="564" viewBox="0 0 564 564" fill="none" xmlns="http://www.w3.org/2000/svg">
<g clip-path="url(#clip0_2152_8453)">
<rect width="564" height="564" rx="24" fill="#FAFAFA"/>
<path d="M737 572C737 512.249 725.244 453.082 702.403 397.879C679.562 342.676 646.084 292.517 603.88 250.266C561.676 208.016 511.572 174.501 456.43 151.635C401.287 128.769 342.186 117 282.5 117C222.814 117 163.713 128.769 108.57 151.635C53.4279 174.501 3.32417 208.016 -38.8801 250.266C-81.0843 292.517 -114.563 342.676 -137.403 397.879C-160.244 453.082 -172 512.249 -172 572L737 572Z" fill="url(#paint0_linear_2152_8453)" fill-opacity="0.2"/>
<path d="M730.309 494.216C731.58 501.549 732.67 508.915 733.581 516.306H733.582L733.086 516.367C733.995 523.744 734.723 531.145 735.27 538.566L735.769 538.529C736.315 545.947 736.68 553.384 736.862 560.834L736.363 560.847C736.45 564.395 736.494 567.947 736.498 571.5H727.119V572H707.358V571.5H687.598V572H667.837V571.5H648.076V572H628.315V571.5H608.555V572H588.794V571.5H569.032V572H549.271V571.5H529.511V572H509.75V571.5H489.989V572H470.229V571.5H450.468V572H430.706V571.5H410.945V572H391.185V571.5H371.424V572H351.663V571.5H331.902V572H312.142V571.5H292.381V572H272.619V571.5H252.858V572H233.098V571.5H213.337V572H193.576V571.5H173.815V572H154.055V571.5H134.294V572H114.532V571.5H94.7715V572H75.0107V571.5H55.25V572H35.4893V571.5H15.7285V572H-4.03223V571.5H-23.793V572H-43.5547V571.5H-63.3154V572H-83.0762V571.5H-102.837V572H-122.598V571.5H-142.358V572H-162.119V571.5H-171.498C-171.494 567.947 -171.45 564.395 -171.363 560.847L-171.863 560.834C-171.681 553.385 -171.316 545.947 -170.77 538.529L-170.271 538.566C-169.724 531.145 -168.995 523.744 -168.086 516.367L-168.582 516.306C-167.784 509.83 -166.848 503.375 -165.773 496.943L-165.31 494.216L-164.816 494.301C-163.546 486.973 -162.097 479.678 -160.47 472.422L-160.957 472.312L-160.958 472.312C-159.329 465.049 -157.522 457.826 -155.538 450.648L-155.056 450.782C-153.075 443.619 -150.919 436.5 -148.587 429.434L-149.062 429.277L-149.062 429.276C-146.735 422.222 -144.231 415.22 -141.556 408.275L-141.546 408.249L-141.079 408.429C-140.077 405.828 -139.051 403.235 -138 400.651L-136.941 398.07C-135.519 394.634 -134.056 391.216 -132.552 387.819L-133.01 387.616C-129.994 380.804 -126.814 374.074 -123.474 367.431L-123.026 367.656C-119.685 361.01 -116.182 354.451 -112.523 347.984L-112.958 347.737C-109.745 342.059 -106.411 336.452 -102.959 330.921L-101.49 328.583L-101.068 328.851C-97.094 322.567 -92.966 316.382 -88.6885 310.302L-89.0977 310.015L-89.0986 310.014C-84.8175 303.928 -80.3865 297.947 -75.8096 292.075L-75.8086 292.076L-75.4141 292.383C-70.846 286.523 -66.132 280.772 -61.2764 275.137L-61.6553 274.811C-56.8071 269.184 -51.8175 263.672 -46.6904 258.28L-46.6719 258.261L-46.3096 258.605C-44.3893 256.586 -42.4499 254.584 -40.4912 252.599L-38.5264 250.62C-35.8989 247.99 -33.2408 245.393 -30.5527 242.831L-30.8975 242.469C-25.5072 237.331 -19.9974 232.331 -14.3721 227.473L-14.0449 227.852C-8.41697 222.991 -2.67365 218.274 3.17871 213.701L2.87109 213.307C8.73547 208.725 14.7098 204.29 20.7881 200.004L21.0762 200.412C27.1498 196.13 33.3283 191.997 39.6045 188.019L39.3359 187.597L39.335 187.596C45.6168 183.613 51.9974 179.785 58.4707 176.113L58.7178 176.549C65.1783 172.885 71.7318 169.378 78.3721 166.032L78.1475 165.585C84.7854 162.24 91.5102 159.055 98.3164 156.035L98.5186 156.492C101.913 154.986 105.328 153.521 108.762 152.097C112.195 150.673 115.643 149.292 119.106 147.955L118.927 147.488C125.871 144.807 132.873 142.298 139.928 139.965L139.929 139.966L140.086 140.44C147.144 138.106 154.254 135.947 161.409 133.965L161.275 133.482C168.445 131.496 175.66 129.686 182.914 128.056L183.024 128.544C190.273 126.914 197.56 125.463 204.88 124.191L204.794 123.699C212.12 122.427 219.478 121.334 226.861 120.422L226.923 120.918C234.292 120.008 241.686 119.279 249.1 118.731L249.063 118.233C256.474 117.686 263.904 117.32 271.346 117.137L271.357 117.637C275.069 117.546 278.783 117.5 282.5 117.5C286.217 117.5 289.931 117.546 293.643 117.637L293.653 117.137C301.095 117.32 308.525 117.686 315.936 118.233L315.9 118.731C323.314 119.279 330.708 120.008 338.077 120.918L338.138 120.422C345.521 121.334 352.879 122.427 360.204 123.699L360.12 124.191C367.44 125.463 374.727 126.914 381.976 128.544L382.085 128.056C389.339 129.686 396.554 131.496 403.724 133.482L403.591 133.965C410.746 135.947 417.856 138.106 424.914 140.44L425.071 139.966V139.965C432.126 142.298 439.128 144.807 446.072 147.488L445.894 147.955C449.357 149.292 452.805 150.673 456.238 152.097C459.672 153.521 463.087 154.986 466.481 156.492L466.683 156.035C473.489 159.055 480.214 162.24 486.852 165.585L486.628 166.032C493.268 169.378 499.822 172.885 506.282 176.549L506.528 176.113C513.002 179.785 519.382 183.613 525.664 187.596V187.597L525.396 188.019C531.672 191.997 537.85 196.13 543.924 200.412L544.211 200.004C550.289 204.29 556.264 208.725 562.128 213.307L561.821 213.701C567.673 218.273 573.416 222.992 579.044 227.852L579.371 227.473C584.996 232.331 590.506 237.331 595.896 242.469H595.897L595.553 242.831C598.241 245.393 600.899 247.99 603.526 250.62C606.155 253.251 608.749 255.914 611.31 258.605L611.671 258.261C616.805 263.659 621.8 269.177 626.654 274.811L626.276 275.137C631.132 280.772 635.846 286.523 640.414 292.383L640.808 292.075C645.385 297.947 649.816 303.928 654.098 310.014V310.015L653.688 310.302C657.966 316.382 662.094 322.567 666.068 328.851L666.489 328.583C670.467 334.871 674.29 341.258 677.957 347.737L677.523 347.984C681.182 354.451 684.685 361.01 688.026 367.656L688.473 367.431C691.813 374.074 694.993 380.804 698.009 387.616L697.552 387.819C699.056 391.216 700.519 394.634 701.941 398.07C703.364 401.508 704.743 404.961 706.079 408.429L706.545 408.249C709.224 415.202 711.73 422.214 714.061 429.277L713.587 429.434C715.919 436.5 718.075 443.619 720.056 450.782L720.537 450.648C722.521 457.826 724.327 465.05 725.956 472.312H725.957L725.47 472.422C727.097 479.678 728.546 486.973 729.816 494.301L730.309 494.216Z" stroke="black" stroke-opacity="0.08" stroke-dasharray="20 20"/>
<path d="M609 568C609 525.058 600.555 482.536 584.147 442.863C567.739 403.189 543.689 367.141 513.37 336.776C483.052 306.411 447.059 282.325 407.446 265.891C367.833 249.458 325.377 241 282.5 241C239.623 241 197.167 249.458 157.554 265.891C117.941 282.325 81.948 306.411 51.6296 336.776C21.3113 367.141 -2.73852 403.189 -19.1467 442.863C-35.5548 482.536 -44 525.058 -44 568L609 568Z" fill="url(#paint1_linear_2152_8453)" fill-opacity="0.2"/>
<path d="M607.427 535.95C608.124 543.043 608.59 550.164 608.823 557.302L608.325 557.317C608.436 560.708 608.493 564.103 608.498 567.5H598.797V568H578.391V567.5H557.984V568H537.578V567.5H517.172V568H496.766V567.5H476.359V568H455.953V567.5H435.547V568H415.141V567.5H394.734V568H374.328V567.5H353.922V568H333.516V567.5H313.109V568H292.703V567.5H272.297V568H251.891V567.5H231.484V568H211.078V567.5H190.672V568H170.266V567.5H149.859V568H129.453V567.5H109.047V568H88.6406V567.5H68.2344V568H47.8281V567.5H27.4219V568H7.01562V567.5H-13.3906V568H-33.7969V567.5H-43.498C-43.4929 564.103 -43.436 560.708 -43.3252 557.317L-43.8242 557.302C-43.6124 550.82 -43.209 544.352 -42.6143 537.907L-42.4277 535.95L-41.9307 536C-41.2332 528.907 -40.3044 521.842 -39.1465 514.817L-39.6387 514.736C-38.4783 507.697 -37.0882 500.698 -35.4707 493.75L-34.9844 493.863C-33.3701 486.929 -31.5297 480.045 -29.4639 473.225L-29.9424 473.08C-27.8765 466.259 -25.5855 459.501 -23.0732 452.815L-22.6055 452.991C-21.6666 450.493 -20.6972 448.005 -19.6963 445.527L-18.6846 443.054C-17.323 439.761 -15.9086 436.494 -14.4424 433.253L-14.8975 433.047C-11.9549 426.542 -8.80492 420.143 -5.45117 413.858L-5.00879 414.095C-1.65447 407.809 1.90267 401.639 5.65625 395.593L5.23145 395.329C8.99313 389.27 12.9523 383.337 17.1016 377.537L17.5068 377.828C21.6478 372.04 25.9793 366.386 30.4941 360.876L30.1074 360.559C34.6225 355.048 39.3215 349.682 44.1973 344.468L44.5625 344.809C46.9923 342.21 49.4663 339.65 51.9834 337.129C54.4992 334.609 57.0546 332.133 59.6475 329.701L59.3066 329.337C64.5104 324.455 69.8656 319.75 75.3652 315.229L75.6826 315.616C81.1833 311.095 86.8275 306.757 92.6055 302.61L92.3145 302.204C98.1049 298.048 104.03 294.083 110.079 290.315L110.343 290.74C116.38 286.98 122.543 283.416 128.819 280.056L128.583 279.615L128.582 279.614C134.859 276.254 141.252 273.098 147.749 270.149L147.955 270.604C150.383 269.502 152.826 268.43 155.283 267.387L157.745 266.354C161.033 264.99 164.341 263.68 167.666 262.427L167.489 261.96C174.163 259.444 180.91 257.15 187.719 255.081L187.864 255.56C194.674 253.491 201.547 251.647 208.47 250.03L208.356 249.544C215.294 247.924 222.283 246.531 229.312 245.369L229.393 245.861C236.407 244.701 243.461 243.771 250.544 243.072L250.494 242.574C257.577 241.875 264.688 241.41 271.816 241.176L271.833 241.675C275.385 241.558 278.941 241.5 282.5 241.5C286.059 241.5 289.615 241.558 293.167 241.675L293.183 241.176C300.311 241.409 307.422 241.876 314.505 242.574V242.575L314.456 243.072C321.539 243.771 328.593 244.701 335.607 245.861L335.688 245.369C342.716 246.531 349.705 247.924 356.643 249.544L356.53 250.03C363.453 251.647 370.326 253.491 377.136 255.56L377.28 255.081C384.089 257.15 390.836 259.444 397.51 261.96L397.334 262.427C400.659 263.68 403.967 264.99 407.255 266.354C410.544 267.718 413.807 269.134 417.045 270.604L417.25 270.149C423.747 273.098 430.139 276.254 436.416 279.614L436.181 280.056C442.457 283.416 448.62 286.98 454.657 290.74L454.92 290.315C460.969 294.083 466.894 298.048 472.685 302.204L472.395 302.61C478.172 306.757 483.817 311.095 489.317 315.616L489.634 315.229C495.133 319.75 500.489 324.455 505.692 329.337L505.353 329.701C507.945 332.133 510.501 334.609 513.017 337.129C515.534 339.65 518.008 342.21 520.438 344.809L520.802 344.468C525.678 349.682 530.376 355.048 534.892 360.559L534.506 360.876C539.021 366.386 543.352 372.04 547.493 377.828L547.897 377.537C552.047 383.337 556.006 389.27 559.768 395.329L559.344 395.593C563.097 401.639 566.654 407.809 570.009 414.095L570.45 413.858V413.857C573.804 420.142 576.954 426.542 579.896 433.047L579.442 433.253C580.909 436.494 582.323 439.761 583.685 443.054C585.047 446.347 586.354 449.66 587.605 452.991L588.072 452.815C590.585 459.501 592.876 466.259 594.941 473.08H594.942L594.464 473.225C596.53 480.045 598.37 486.929 599.984 493.863L600.47 493.75C602.087 500.698 603.477 507.697 604.638 514.736L604.146 514.817C605.304 521.842 606.233 528.907 606.931 536L607.427 535.95Z" stroke="black" stroke-opacity="0.08" stroke-dasharray="20 20"/>
<path d="M480 568C480 541.998 474.892 516.251 464.966 492.229C455.041 468.206 440.493 446.379 422.154 427.993C403.814 409.607 382.042 395.022 358.08 385.072C334.118 375.121 308.436 370 282.5 370C256.564 370 230.882 375.121 206.92 385.072C182.958 395.022 161.186 409.607 142.846 427.993C124.507 446.379 109.959 468.206 100.034 492.229C90.1085 516.251 85 541.998 85 568H480Z" fill="url(#paint2_linear_2152_8453)" fill-opacity="0.2"/>
<path d="M477.862 538.95C478.81 545.353 479.443 551.806 479.761 558.286H479.762L479.263 558.311C479.413 561.368 479.489 564.432 479.497 567.5H470.125V568H450.375V567.5H430.625V568H410.875V567.5H391.125V568H371.375V567.5H351.625V568H331.875V567.5H312.125V568H292.375V567.5H272.625V568H252.875V567.5H233.125V568H213.375V567.5H193.625V568H173.875V567.5H154.125V568H134.375V567.5H114.625V568H94.875V567.5H85.5029C85.5107 564.432 85.5875 561.368 85.7373 558.311L85.2383 558.286C85.5558 551.806 86.1895 545.353 87.1367 538.95L87.6318 539.023C88.5779 532.629 89.8367 526.285 91.4033 520.015L90.917 519.893C92.4858 513.613 94.3635 507.407 96.5439 501.298L97.0156 501.466C97.8294 499.186 98.6857 496.919 99.584 494.667L100.496 492.42C101.731 489.432 103.037 486.478 104.413 483.561L103.96 483.347C106.384 478.209 109.025 473.184 111.874 468.284L113.095 466.215L113.523 466.471C116.838 460.926 120.423 455.548 124.264 450.355L123.861 450.059L123.86 450.058C127.707 444.857 131.812 439.843 136.159 435.034L136.53 435.369C138.694 432.976 140.917 430.634 143.2 428.346C145.481 426.059 147.815 423.831 150.2 421.664L149.864 421.294C154.065 417.477 158.424 413.848 162.926 410.414L164.843 408.97L165.141 409.371C170.32 405.52 175.684 401.926 181.215 398.603L180.958 398.174L180.957 398.173C186.496 394.844 192.202 391.786 198.054 389.011L198.269 389.464C201.181 388.083 204.129 386.772 207.111 385.533C210.092 384.295 213.1 383.133 216.131 382.046L215.962 381.575C222.055 379.389 228.245 377.507 234.508 375.935L234.63 376.42C240.885 374.849 247.213 373.586 253.591 372.638L253.518 372.144C259.905 371.194 266.343 370.557 272.808 370.238L272.832 370.738C276.049 370.58 279.273 370.5 282.5 370.5C285.727 370.5 288.95 370.58 292.167 370.738L292.191 370.238C298.656 370.557 305.094 371.194 311.481 372.144L311.409 372.638C317.787 373.586 324.115 374.849 330.37 376.42L330.491 375.935C336.754 377.507 342.944 379.388 349.037 381.574L348.869 382.046C351.9 383.133 354.908 384.295 357.889 385.533C360.871 386.772 363.819 388.083 366.731 389.464L366.945 389.011C372.797 391.786 378.503 394.844 384.042 398.173V398.174L383.785 398.603C389.316 401.926 394.68 405.52 399.859 409.371L400.156 408.97C405.341 412.825 410.34 416.937 415.135 421.294L414.8 421.664C417.185 423.831 419.519 426.059 421.8 428.346C424.083 430.634 426.306 432.976 428.47 435.369L428.84 435.034C433.187 439.843 437.292 444.857 441.139 450.058V450.059L440.736 450.355C444.577 455.548 448.162 460.926 451.477 466.471L451.904 466.215C455.223 471.766 458.273 477.482 461.039 483.347L460.587 483.561C461.963 486.478 463.269 489.432 464.504 492.42C465.739 495.409 466.899 498.426 467.984 501.466L468.455 501.298C470.636 507.407 472.513 513.613 474.082 519.893L473.597 520.015C475.163 526.285 476.422 532.629 477.368 539.023L477.862 538.95Z" stroke="black" stroke-opacity="0.08" stroke-dasharray="20 20"/>
<g clip-path="url(#clip1_2152_8453)">
<path d="M488.632 416.368H463.369V441.631H488.632V416.368Z" fill="white"/>
<path d="M488.632 453L500 441.632L494.316 440.662L488.632 441.632L487.594 446.831L488.632 453Z" fill="#EA4335"/>
<path d="M452 441.632V449.211C452 451.304 453.696 453 455.789 453H463.368L464.536 447.316L463.368 441.632L457.175 440.662L452 441.632Z" fill="#188038"/>
<path d="M500 416.368V408.789C500 406.696 498.304 405 496.211 405H488.632C487.94 407.819 487.594 409.894 487.594 411.224C487.594 412.554 487.94 414.269 488.632 416.368C491.146 417.089 493.041 417.448 494.316 417.448C495.591 417.448 497.486 417.089 500 416.368Z" fill="#1967D2"/>
<path d="M500 416.368H488.631V441.631H500V416.368Z" fill="#FBBC04"/>
<path d="M488.632 441.632H463.369V453H488.632V441.632Z" fill="#34A853"/>
<path d="M488.632 405H455.79C453.696 405 452 406.696 452 408.789V441.632H463.368V416.368H488.632V405Z" fill="#4285F4"/>
<path d="M468.551 435.966C467.606 435.328 466.953 434.397 466.596 433.165L468.787 432.262C468.986 433.02 469.334 433.607 469.83 434.024C470.322 434.441 470.922 434.646 471.623 434.646C472.34 434.646 472.956 434.428 473.47 433.992C473.985 433.557 474.244 433.001 474.244 432.328C474.244 431.64 473.973 431.078 473.43 430.642C472.886 430.206 472.204 429.988 471.39 429.988H470.123V427.819H471.26C471.961 427.819 472.551 427.629 473.031 427.25C473.511 426.872 473.751 426.354 473.751 425.694C473.751 425.106 473.537 424.639 473.107 424.288C472.678 423.938 472.135 423.761 471.475 423.761C470.83 423.761 470.319 423.932 469.94 424.276C469.561 424.621 469.276 425.057 469.113 425.542L466.943 424.639C467.23 423.824 467.758 423.104 468.531 422.482C469.305 421.86 470.294 421.547 471.494 421.547C472.381 421.547 473.18 421.718 473.887 422.062C474.595 422.406 475.15 422.883 475.551 423.489C475.953 424.099 476.151 424.781 476.151 425.539C476.151 426.312 475.965 426.966 475.593 427.503C475.22 428.04 474.762 428.45 474.219 428.738V428.867C474.92 429.156 475.529 429.631 475.981 430.241C476.439 430.857 476.67 431.592 476.67 432.452C476.67 433.31 476.451 434.078 476.016 434.75C475.58 435.423 474.977 435.954 474.213 436.339C473.445 436.724 472.583 436.92 471.626 436.92C470.518 436.923 469.495 436.604 468.551 435.966ZM482.012 425.09L479.606 426.83L478.403 425.005L482.72 421.891H484.374V436.579H482.012V425.09Z" fill="#4285F4"/>
</g>
<g clip-path="url(#clip2_2152_8453)">
<path d="M136.02 74.9167H141.771V87.6938H153.9V74.9167H159.658V106.28H153.9V93.235H141.771V106.28H136.02V74.9167ZM177.877 96.0648C177.877 98.6903 175.738 100.827 173.113 100.827C170.487 100.827 168.35 98.6903 168.35 96.0648V82.5616H162.896V96.0648C162.896 101.698 167.48 106.28 173.113 106.28C178.746 106.28 183.329 101.698 183.329 96.0648V82.5616H177.877V96.0648ZM198.555 82.7198C195.849 82.7198 193.961 83.5049 192.137 85.2951V74.9167H186.665V94.1506C186.665 101.35 191.871 106.28 197.719 106.28C204.22 106.28 209.916 101.262 209.916 94.5004C209.916 87.8246 204.663 82.7198 198.555 82.7198ZM198.69 101.218C194.983 101.218 192.148 98.122 192.148 94.5004C192.148 90.8782 194.983 87.7807 198.69 87.7807C201.832 87.7807 204.669 90.8782 204.669 94.5004C204.669 98.122 201.832 101.218 198.69 101.218ZM219.106 84.0983C219.106 81.3478 220.939 80.4757 222.945 80.4757C224.56 80.4757 226.698 81.6973 228.093 83.1811L231.669 78.9929C229.882 76.5935 226.261 74.9351 223.294 74.9351C217.36 74.9351 213.084 78.3821 213.084 84.0983C213.084 94.7002 226.13 91.3395 226.13 97.2748C226.13 99.1052 224.342 100.721 222.292 100.721C219.062 100.721 218.015 99.1503 216.532 97.4919L212.561 101.593C215.093 104.691 218.233 106.262 221.986 106.262C227.614 106.262 232.152 102.772 232.152 97.317C232.152 85.5373 219.106 89.2027 219.106 84.0983ZM246.556 82.4125C240.709 82.4125 235.503 87.34 235.503 94.541V113.824H240.974V103.397C242.798 105.186 244.686 105.972 247.392 105.972C253.501 105.972 258.754 100.868 258.754 94.1921C258.754 87.4296 253.056 82.4125 246.556 82.4125ZM247.528 100.912C243.821 100.912 240.986 97.8111 240.986 94.1921C240.986 90.5699 243.821 87.4725 247.528 87.4725C250.669 87.4725 253.506 90.5699 253.506 94.1921C253.506 97.8111 250.669 100.912 247.528 100.912ZM299.029 101.218C295.802 101.218 294.886 99.8229 294.886 97.6842V88.2169H299.902V83.4182H294.886V77.0912L289.346 79.5776V98.8623C289.346 103.793 292.748 106.28 297.415 106.28C298.113 106.28 299.074 106.235 299.598 106.106L300.95 101.133C300.34 101.175 299.642 101.218 299.029 101.218Z" fill="#45535E"/>
<path d="M284.6 88.496C283.551 86.6913 282.076 85.2445 280.231 84.1554C278.853 83.3529 277.423 82.8436 275.812 82.6248V76.8906C277.423 76.2067 278.423 74.6929 278.423 72.9269C278.423 70.5198 276.493 68.5692 274.087 68.5692C271.68 68.5692 269.716 70.5198 269.716 72.9269C269.716 74.6929 270.658 76.2067 272.269 76.8906V82.6274C270.98 82.8136 269.644 83.2153 268.424 83.8326C265.931 81.9396 257.758 75.7296 252.977 72.1025C253.091 71.6937 253.178 71.2724 253.178 70.8278C253.178 68.1617 251.019 66.0007 248.352 66.0007C245.685 66.0007 243.527 68.1617 243.527 70.8278C243.527 73.4939 245.687 75.6552 248.354 75.6552C249.264 75.6552 250.105 75.3891 250.832 74.9516L251.841 75.717L265.704 85.7062C264.972 86.3791 264.289 87.1446 263.743 88.0034C262.636 89.7543 261.96 91.6807 261.96 93.7821V94.2205C261.96 95.6957 262.24 97.0883 262.718 98.3965C263.138 99.5389 263.753 100.577 264.514 101.517L259.913 106.129C259.246 105.881 258.522 105.83 257.827 105.982C257.132 106.135 256.495 106.484 255.994 106.989C255.646 107.334 255.371 107.745 255.184 108.198C254.996 108.651 254.901 109.137 254.902 109.627C254.903 110.623 255.291 111.56 255.996 112.264C256.341 112.612 256.752 112.888 257.205 113.075C257.658 113.263 258.143 113.359 258.633 113.358C259.124 113.359 259.609 113.263 260.062 113.076C260.515 112.888 260.926 112.612 261.272 112.264C261.619 111.919 261.895 111.508 262.082 111.055C262.27 110.602 262.366 110.117 262.364 109.627C262.364 109.241 262.305 108.865 262.192 108.507L266.948 103.751C267.6 104.201 268.305 104.58 269.062 104.907C270.555 105.553 272.203 105.946 274.007 105.946H274.337C276.331 105.946 278.212 105.478 279.98 104.52C281.844 103.507 283.302 102.123 284.404 100.355C285.511 98.5827 286.121 96.6244 286.121 94.4699V94.3623C286.121 92.2429 285.631 90.2874 284.6 88.496ZM278.789 98.4739C277.498 99.9084 276.014 100.792 274.337 100.792H274.061C273.103 100.792 272.165 100.527 271.248 100.046C270.214 99.5154 269.428 98.759 268.785 97.8012C268.12 96.8612 267.759 95.8348 267.759 94.7466V94.4161C267.759 93.3462 267.964 92.3318 268.481 91.3737C269.035 90.3264 269.782 89.512 270.775 88.8645C271.751 88.2215 272.792 87.9061 273.953 87.9061H274.061C275.113 87.9061 276.109 88.1136 277.049 88.5946C278.007 89.1074 278.789 89.8081 279.396 90.7298C279.985 91.6517 280.335 92.6462 280.448 93.7296C280.466 93.9548 280.475 94.1854 280.475 94.4058C280.475 95.8761 279.913 97.2378 278.789 98.4739Z" fill="#F8761F"/>
</g>
<path d="M407.212 218.471C414.355 218.471 418.406 223.927 418.042 231.5H401.193C401.679 234.708 404.596 236.97 407.824 236.642C408.917 236.668 410.005 236.477 411.024 236.08C412.043 235.682 412.973 235.087 413.76 234.327L416.703 237.519C415.561 238.696 414.182 239.618 412.657 240.222C411.132 240.826 409.496 241.1 407.857 241.024C400.664 241.024 396.018 236.229 396.018 229.747C395.984 228.264 396.25 226.79 396.8 225.412C397.35 224.034 398.172 222.781 399.217 221.728C400.262 220.675 401.509 219.844 402.882 219.285C404.256 218.725 405.729 218.448 407.212 218.471ZM330.111 218.471C337.254 218.471 341.305 223.927 340.941 231.5H324.109C324.595 234.701 327.501 236.96 330.723 236.642C331.816 236.668 332.904 236.477 333.923 236.08C334.942 235.682 335.872 235.087 336.659 234.327L339.602 237.519C338.46 238.696 337.081 239.618 335.556 240.222C334.031 240.826 332.395 241.1 330.756 241.024C323.563 241.024 318.917 236.229 318.917 229.747C318.884 228.264 319.15 226.79 319.699 225.412C320.249 224.034 321.071 222.781 322.116 221.729C323.161 220.676 324.408 219.845 325.781 219.285C327.155 218.725 328.628 218.448 330.111 218.471ZM438.893 222.522L435.04 224.771C434.509 223.982 433.785 223.341 432.937 222.91C432.09 222.479 431.146 222.271 430.195 222.307C427.732 222.307 426.475 223.514 426.475 224.903C426.475 226.292 428.459 226.887 431.584 227.582L431.798 227.629L432.013 227.677C432.12 227.701 432.228 227.726 432.336 227.752L432.552 227.803C432.624 227.821 432.696 227.839 432.768 227.857L432.984 227.911L433.2 227.968C436.254 228.786 439.157 230.207 439.157 234.03C439.157 237.023 436.561 241.041 430.41 241.008C428.518 241.147 426.624 240.751 424.946 239.865C423.267 238.979 421.872 237.639 420.919 235.998L425.069 233.766C425.617 234.747 426.423 235.56 427.399 236.116C428.375 236.673 429.485 236.952 430.609 236.924C433.205 236.924 434.544 235.585 434.544 234.063C434.544 232.542 432.031 231.947 429.302 231.385L429.081 231.337L428.86 231.289L428.749 231.264L428.528 231.214C425.101 230.423 421.812 229.088 421.812 224.936C421.812 221.513 425.119 218.322 430.179 218.322C431.869 218.221 433.557 218.553 435.082 219.288C436.607 220.023 437.919 221.137 438.893 222.522ZM391.669 208.963V240.578H387.073V237.601C386.203 238.678 385.102 239.545 383.851 240.137C382.6 240.73 381.232 241.033 379.847 241.024C378.392 241.012 376.954 240.708 375.619 240.131C374.283 239.554 373.076 238.715 372.07 237.664C371.063 236.613 370.278 235.371 369.759 234.011C369.24 232.651 368.999 231.202 369.05 229.747C368.988 228.288 369.222 226.832 369.738 225.466C370.255 224.099 371.043 222.852 372.056 221.8C373.068 220.747 374.284 219.911 375.628 219.342C376.973 218.772 378.42 218.482 379.88 218.488C381.248 218.477 382.602 218.769 383.845 219.34C385.088 219.912 386.19 220.75 387.073 221.795V208.963H391.669ZM315.015 219V223.233L302.019 236.461H315.246V240.627H296V236.411L308.996 223.183H296.297V219L315.015 219ZM447.474 208.963V229.665L457.213 218.884H462.802L454.353 228.16L463 240.578H457.825L451.112 230.971L447.474 234.956V240.594H442.877V208.963H447.474ZM355.393 218.488C360.849 218.488 365.446 222.042 365.446 227.929V240.578H360.717V228.508C360.717 224.969 358.997 222.836 355.525 222.836C354.775 222.781 354.022 222.891 353.319 223.159C352.616 223.428 351.981 223.847 351.459 224.389C350.936 224.93 350.539 225.579 350.296 226.291C350.053 227.003 349.97 227.76 350.052 228.508V240.578H345.373V227.929C345.373 222.043 349.936 218.488 355.393 218.488ZM380.476 222.902C376.696 222.902 373.631 225.967 373.631 229.747C373.631 233.528 376.695 236.593 380.476 236.593C384.257 236.593 387.321 233.528 387.321 229.747C387.321 225.967 384.257 222.902 380.476 222.902ZM401.177 227.879L412.967 227.895C412.806 224.914 410.26 222.627 407.278 222.786C404.219 222.607 401.548 224.837 401.177 227.879ZM324.109 227.879L335.865 227.895C335.696 224.921 333.153 222.643 330.178 222.803C327.136 222.64 324.487 224.857 324.109 227.879Z" fill="#03363D"/>
<path d="M178.818 339.685C181.057 337.356 184.167 335.911 187.615 335.911C192.194 335.911 196.188 338.464 198.314 342.256C200.217 341.405 202.277 340.966 204.361 340.967C212.619 340.967 219.312 347.723 219.312 356.048C219.312 364.379 212.619 371.134 204.361 371.134C203.354 371.134 202.37 371.033 201.414 370.842C199.54 374.183 195.969 376.439 191.874 376.439C190.158 376.439 188.538 376.045 187.092 375.336C185.191 379.802 180.77 382.936 175.612 382.936C170.24 382.936 165.667 379.538 163.912 374.774C163.147 374.937 162.348 375.021 161.532 375.021C155.137 375.021 149.956 369.784 149.956 363.327C149.956 358.996 152.285 355.216 155.744 353.196C155.009 351.509 154.632 349.687 154.636 347.847C154.636 340.416 160.666 334.392 168.108 334.392C172.473 334.386 176.36 336.467 178.818 339.685Z" fill="#00A1E0"/>
<path d="M160.003 359.564C159.958 359.676 160.019 359.699 160.031 359.721C160.16 359.817 160.295 359.884 160.424 359.963C161.133 360.34 161.797 360.447 162.5 360.447C163.923 360.447 164.806 359.688 164.806 358.473V358.45C164.806 357.325 163.811 356.914 162.871 356.622L162.748 356.583C162.044 356.352 161.431 356.155 161.431 355.694V355.671C161.431 355.272 161.786 354.979 162.337 354.979C162.95 354.979 163.676 355.182 164.143 355.441C164.143 355.441 164.278 355.531 164.328 355.396C164.356 355.323 164.593 354.687 164.615 354.619C164.643 354.546 164.593 354.49 164.548 354.462C164.013 354.136 163.276 353.916 162.511 353.916H162.371C161.071 353.916 160.16 354.704 160.16 355.829V355.851C160.16 357.038 161.161 357.426 162.101 357.696L162.253 357.741C162.939 357.949 163.529 358.135 163.529 358.613V358.636C163.529 359.074 163.147 359.406 162.528 359.406C162.286 359.406 161.521 359.401 160.694 358.878C160.593 358.821 160.537 358.776 160.458 358.731C160.419 358.703 160.318 358.664 160.273 358.793L160.003 359.564ZM180.832 359.564C180.787 359.676 180.849 359.699 180.86 359.721C180.989 359.817 181.124 359.884 181.254 359.963C181.963 360.34 182.626 360.447 183.329 360.447C184.753 360.447 185.636 359.688 185.636 358.473V358.45C185.636 357.325 184.64 356.914 183.701 356.622L183.577 356.583C182.874 356.352 182.261 356.155 182.261 355.694V355.671C182.261 355.272 182.615 354.979 183.166 354.979C183.779 354.979 184.505 355.182 184.972 355.441C184.972 355.441 185.107 355.531 185.158 355.396C185.186 355.323 185.422 354.687 185.444 354.619C185.473 354.546 185.422 354.49 185.377 354.462C184.843 354.136 184.106 353.916 183.341 353.916H183.2C181.901 353.916 180.989 354.704 180.989 355.829V355.851C180.989 357.038 181.991 357.426 182.93 357.696L183.082 357.741C183.768 357.949 184.359 358.135 184.359 358.613V358.636C184.359 359.074 183.976 359.406 183.358 359.406C183.116 359.406 182.351 359.401 181.524 358.878C181.423 358.821 181.366 358.776 181.288 358.731C181.259 358.714 181.141 358.669 181.102 358.793L180.832 359.564ZM195.046 357.179C195.046 357.865 194.917 358.411 194.664 358.793C194.416 359.17 194.034 359.356 193.511 359.356C192.982 359.356 192.605 359.17 192.358 358.793C192.11 358.411 191.981 357.865 191.981 357.179C191.981 356.493 192.104 355.953 192.358 355.57C192.605 355.193 192.982 355.013 193.511 355.013C194.039 355.013 194.416 355.193 194.669 355.57C194.917 355.947 195.046 356.487 195.046 357.179ZM196.233 355.902C196.115 355.508 195.935 355.159 195.693 354.873C195.446 354.575 195.134 354.339 194.782 354.181C194.422 354.012 193.989 353.928 193.511 353.928C193.027 353.928 192.599 354.012 192.239 354.181C191.874 354.349 191.57 354.586 191.328 354.873C191.086 355.165 190.906 355.508 190.788 355.902C190.67 356.296 190.614 356.723 190.614 357.179C190.614 357.634 190.67 358.062 190.788 358.456C190.906 358.849 191.086 359.198 191.328 359.485C191.57 359.778 191.879 360.008 192.239 360.171C192.605 360.334 193.033 360.419 193.511 360.419C193.994 360.419 194.422 360.334 194.782 360.171C195.142 360.008 195.451 359.772 195.693 359.485C195.935 359.198 196.115 358.849 196.233 358.456C196.351 358.062 196.408 357.634 196.408 357.179C196.408 356.723 196.351 356.29 196.233 355.902ZM205.987 359.17C205.948 359.052 205.835 359.097 205.835 359.097C205.661 359.164 205.481 359.226 205.284 359.254C205.087 359.283 204.868 359.299 204.631 359.299C204.058 359.299 203.602 359.131 203.27 358.793C202.944 358.456 202.758 357.91 202.758 357.168C202.758 356.493 202.921 355.986 203.214 355.604C203.501 355.221 203.945 355.024 204.53 355.024C205.019 355.024 205.396 355.081 205.784 355.204C205.784 355.204 205.88 355.244 205.925 355.12C206.026 354.833 206.105 354.625 206.218 354.31C206.251 354.22 206.173 354.181 206.144 354.169C205.993 354.108 205.627 354.012 205.351 353.973C205.093 353.933 204.794 353.911 204.463 353.911C203.962 353.911 203.518 353.995 203.141 354.164C202.764 354.333 202.438 354.563 202.184 354.856C201.925 355.157 201.728 355.507 201.605 355.885C201.476 356.279 201.414 356.706 201.414 357.162C201.414 358.146 201.678 358.945 202.207 359.524C202.73 360.109 203.523 360.408 204.553 360.408C205.16 360.408 205.784 360.284 206.234 360.109C206.234 360.109 206.319 360.07 206.285 359.969L205.987 359.17ZM208.068 356.515C208.124 356.133 208.231 355.812 208.394 355.564C208.642 355.188 209.013 354.979 209.542 354.979C210.071 354.979 210.419 355.188 210.667 355.564C210.836 355.812 210.903 356.144 210.931 356.515H208.068ZM212.062 355.677C211.961 355.294 211.713 354.912 211.544 354.738C211.286 354.456 211.033 354.265 210.779 354.158C210.415 354.004 210.022 353.926 209.626 353.928C209.126 353.928 208.67 354.012 208.299 354.186C207.928 354.361 207.618 354.597 207.371 354.895C207.129 355.188 206.943 355.542 206.825 355.936C206.707 356.329 206.651 356.763 206.651 357.218C206.651 357.679 206.713 358.113 206.831 358.501C206.954 358.894 207.151 359.238 207.416 359.524C207.68 359.811 208.018 360.036 208.428 360.194C208.833 360.351 209.323 360.43 209.885 360.43C211.044 360.424 211.657 360.166 211.91 360.031C211.955 360.008 211.994 359.963 211.944 359.839L211.679 359.103C211.64 358.996 211.528 359.035 211.528 359.035C211.241 359.142 210.83 359.333 209.879 359.333C209.255 359.333 208.794 359.148 208.507 358.861C208.209 358.568 208.063 358.135 208.04 357.522L212.062 357.528C212.062 357.528 212.169 357.528 212.18 357.421C212.186 357.364 212.321 356.583 212.062 355.677ZM175.871 356.515C175.927 356.133 176.034 355.812 176.197 355.564C176.444 355.188 176.816 354.979 177.344 354.979C177.873 354.979 178.222 355.188 178.469 355.564C178.633 355.812 178.706 356.144 178.734 356.515H175.871ZM179.87 355.677C179.769 355.294 179.521 354.912 179.358 354.738C179.099 354.456 178.846 354.265 178.593 354.158C178.228 354.004 177.836 353.926 177.44 353.928C176.939 353.928 176.484 354.012 176.113 354.186C175.741 354.361 175.432 354.597 175.184 354.895C174.943 355.188 174.757 355.542 174.639 355.936C174.521 356.329 174.464 356.763 174.464 357.218C174.464 357.679 174.526 358.113 174.644 358.501C174.768 358.894 174.965 359.238 175.229 359.524C175.494 359.811 175.831 360.036 176.242 360.194C176.647 360.351 177.136 360.43 177.699 360.43C178.858 360.424 179.471 360.166 179.724 360.031C179.769 360.008 179.808 359.963 179.758 359.839L179.493 359.103C179.454 358.996 179.341 359.035 179.341 359.035C179.054 359.142 178.644 359.333 177.693 359.333C177.069 359.333 176.608 359.148 176.321 358.861C176.023 358.568 175.876 358.135 175.854 357.522L179.876 357.528C179.876 357.528 179.983 357.528 179.994 357.421C179.994 357.364 180.129 356.583 179.87 355.677ZM167.18 359.148C167.023 359.024 167 358.99 166.949 358.911C166.871 358.788 166.831 358.613 166.831 358.388C166.831 358.034 166.949 357.781 167.191 357.612C167.186 357.612 167.534 357.308 168.356 357.319C168.929 357.325 169.447 357.415 169.447 357.415V359.243C169.447 359.243 168.935 359.35 168.361 359.389C167.54 359.434 167.18 359.148 167.18 359.148ZM168.783 356.324C168.62 356.313 168.406 356.307 168.153 356.307C167.81 356.307 167.478 356.352 167.163 356.436C166.848 356.521 166.567 356.65 166.325 356.824C166.083 356.999 165.886 357.224 165.74 357.488C165.599 357.753 165.526 358.068 165.526 358.416C165.526 358.771 165.588 359.08 165.712 359.333C165.836 359.586 166.01 359.8 166.235 359.963C166.46 360.126 166.736 360.244 167.056 360.318C167.371 360.391 167.731 360.424 168.119 360.424C168.53 360.424 168.941 360.391 169.34 360.323C169.734 360.256 170.218 360.16 170.353 360.126C170.488 360.093 170.634 360.053 170.634 360.053C170.735 360.031 170.724 359.924 170.724 359.924V356.245C170.724 355.441 170.51 354.839 170.083 354.473C169.661 354.102 169.042 353.916 168.238 353.916C167.934 353.916 167.45 353.956 167.163 354.018C167.163 354.018 166.286 354.186 165.926 354.468C165.926 354.468 165.847 354.518 165.892 354.625L166.179 355.39C166.213 355.491 166.308 355.458 166.308 355.458C166.308 355.458 166.336 355.446 166.376 355.424C167.152 355.002 168.125 355.013 168.125 355.013C168.558 355.013 168.896 355.098 169.121 355.272C169.34 355.441 169.453 355.694 169.453 356.228V356.397C169.098 356.352 168.783 356.324 168.783 356.324ZM201.206 354.254C201.217 354.226 201.217 354.195 201.205 354.168C201.193 354.14 201.171 354.119 201.144 354.108C201.076 354.079 200.733 354.006 200.469 353.989C199.963 353.961 199.681 354.046 199.434 354.158C199.186 354.271 198.911 354.451 198.753 354.659V354.169C198.753 354.102 198.703 354.046 198.635 354.046H197.606C197.538 354.046 197.488 354.102 197.488 354.169V360.166C197.488 360.233 197.544 360.289 197.611 360.289H198.669C198.736 360.289 198.793 360.233 198.793 360.166V357.168C198.793 356.768 198.838 356.363 198.928 356.11C199.012 355.863 199.136 355.66 199.282 355.519C199.428 355.379 199.597 355.278 199.777 355.221C199.963 355.165 200.171 355.143 200.317 355.143C200.525 355.143 200.761 355.199 200.761 355.199C200.84 355.21 200.879 355.159 200.908 355.092C200.969 354.912 201.166 354.361 201.206 354.254Z" fill="white"/>
<path d="M191.289 351.475C191.159 351.436 191.041 351.408 190.889 351.379C190.737 351.351 190.552 351.34 190.344 351.34C189.618 351.34 189.044 351.548 188.639 351.953C188.24 352.358 187.97 352.971 187.829 353.776L187.779 354.046H186.867C186.867 354.046 186.755 354.04 186.732 354.164L186.58 355.002C186.569 355.081 186.603 355.131 186.71 355.131H187.599L186.699 360.16C186.631 360.565 186.547 360.897 186.457 361.15C186.367 361.398 186.282 361.583 186.175 361.724C186.074 361.853 185.979 361.949 185.81 362.005C185.669 362.05 185.512 362.073 185.337 362.073C185.242 362.073 185.112 362.056 185.017 362.039C184.921 362.022 184.87 361.999 184.797 361.971C184.797 361.971 184.696 361.932 184.651 362.033C184.617 362.118 184.381 362.77 184.353 362.849C184.325 362.928 184.364 362.989 184.415 363.012C184.533 363.051 184.623 363.079 184.78 363.119C185.005 363.169 185.191 363.175 185.371 363.175C185.742 363.175 186.08 363.124 186.355 363.023C186.637 362.922 186.879 362.742 187.098 362.506C187.334 362.247 187.48 361.977 187.621 361.606C187.762 361.24 187.88 360.784 187.975 360.256L188.881 355.131H190.203C190.203 355.131 190.315 355.137 190.338 355.013L190.49 354.175C190.501 354.096 190.467 354.046 190.36 354.046H189.072C189.078 354.018 189.14 353.562 189.286 353.14C189.348 352.96 189.466 352.814 189.567 352.713C189.669 352.611 189.781 352.544 189.905 352.504C190.034 352.465 190.175 352.443 190.338 352.443C190.456 352.443 190.58 352.454 190.67 352.476C190.794 352.504 190.844 352.516 190.878 352.527C191.007 352.566 191.03 352.527 191.052 352.465L191.362 351.621C191.395 351.526 191.317 351.486 191.289 351.475ZM173.334 360.166C173.334 360.233 173.283 360.289 173.215 360.289H172.147C172.079 360.289 172.034 360.233 172.034 360.166V351.588C172.034 351.52 172.079 351.464 172.147 351.464H173.215C173.283 351.464 173.334 351.52 173.334 351.588V360.166Z" fill="white"/>
<g filter="url(#filter0_d_2152_8453)">
<circle cx="214" cy="122" r="8" fill="#4268FF"/>
<circle cx="214" cy="122" r="7" stroke="white" stroke-width="2"/>
</g>
<g filter="url(#filter1_d_2152_8453)">
<circle cx="380" cy="256" r="8" fill="#4268FF"/>
<circle cx="380" cy="256" r="7" stroke="white" stroke-width="2"/>
</g>
<g filter="url(#filter2_d_2152_8453)">
<circle cx="199" cy="389" r="8" fill="#4268FF"/>
<circle cx="199" cy="389" r="7" stroke="white" stroke-width="2"/>
</g>
<g filter="url(#filter3_d_2152_8453)">
<circle cx="452" cy="466" r="8" fill="#4268FF"/>
<circle cx="452" cy="466" r="7" stroke="white" stroke-width="2"/>
</g>
<g opacity="0.25" filter="url(#filter4_f_2152_8453)">
<ellipse cx="201.952" cy="391.462" rx="30" ry="11" transform="rotate(-19.6843 201.952 391.462)" fill="#4268FF"/>
</g>
<g opacity="0.25" filter="url(#filter5_f_2152_8453)">
<ellipse cx="379.952" cy="256.462" rx="30" ry="11" transform="rotate(13.2794 379.952 256.462)" fill="#4268FF"/>
</g>
<g opacity="0.25" filter="url(#filter6_f_2152_8453)">
<ellipse cx="214.374" cy="122.659" rx="30" ry="11" transform="rotate(-9.20754 214.374 122.659)" fill="#4268FF"/>
</g>
<g opacity="0.25" filter="url(#filter7_f_2152_8453)">
<ellipse cx="450.376" cy="466.659" rx="30" ry="11" transform="rotate(57.1208 450.376 466.659)" fill="#4268FF"/>
</g>
<path d="M203.89 512H205.63L210.73 526H209.24L208.15 523H201.38L200.29 526H198.8L203.89 512ZM201.89 521.6H207.63L204.76 513.72L201.89 521.6ZM221.26 519.81V526H219.86V520.09C219.86 519.543 219.727 519.047 219.46 518.6C219.193 518.153 218.837 517.797 218.39 517.53C217.943 517.263 217.447 517.13 216.9 517.13C216.36 517.13 215.863 517.263 215.41 517.53C214.963 517.797 214.607 518.153 214.34 518.6C214.073 519.047 213.94 519.543 213.94 520.09V526H212.54V516H213.94V517.38C214.293 516.873 214.753 516.47 215.32 516.17C215.887 515.87 216.503 515.72 217.17 515.72C217.923 515.72 218.61 515.903 219.23 516.27C219.85 516.637 220.343 517.13 220.71 517.75C221.077 518.37 221.26 519.057 221.26 519.81ZM231.297 511H232.697V526H231.297V524.13C230.951 524.77 230.474 525.287 229.867 525.68C229.267 526.067 228.554 526.26 227.727 526.26C227.001 526.26 226.321 526.123 225.687 525.85C225.054 525.577 224.494 525.2 224.007 524.72C223.527 524.233 223.151 523.673 222.877 523.04C222.604 522.407 222.467 521.727 222.467 521C222.467 520.273 222.604 519.593 222.877 518.96C223.151 518.32 223.527 517.76 224.007 517.28C224.494 516.793 225.054 516.413 225.687 516.14C226.321 515.867 227.001 515.73 227.727 515.73C228.554 515.73 229.267 515.927 229.867 516.32C230.474 516.707 230.951 517.217 231.297 517.85V511ZM227.737 524.9C228.451 524.9 229.064 524.727 229.577 524.38C230.091 524.027 230.484 523.553 230.757 522.96C231.037 522.367 231.177 521.713 231.177 521C231.177 520.267 231.037 519.607 230.757 519.02C230.477 518.427 230.081 517.957 229.567 517.61C229.054 517.263 228.444 517.09 227.737 517.09C227.031 517.09 226.387 517.267 225.807 517.62C225.227 517.967 224.764 518.437 224.417 519.03C224.071 519.623 223.897 520.28 223.897 521C223.897 521.727 224.074 522.387 224.427 522.98C224.781 523.567 225.247 524.033 225.827 524.38C226.414 524.727 227.051 524.9 227.737 524.9ZM239.903 526V516H241.303V517.38C241.663 516.873 242.123 516.47 242.683 516.17C243.243 515.87 243.856 515.72 244.523 515.72C245.276 515.72 245.966 515.907 246.593 516.28C247.22 516.647 247.71 517.137 248.063 517.75C248.416 517.137 248.903 516.647 249.523 516.28C250.143 515.907 250.83 515.72 251.583 515.72C252.336 515.72 253.023 515.903 253.643 516.27C254.263 516.637 254.756 517.13 255.123 517.75C255.49 518.37 255.673 519.057 255.673 519.81V526H254.273V520.12C254.273 519.587 254.143 519.093 253.883 518.64C253.623 518.187 253.273 517.823 252.833 517.55C252.4 517.27 251.916 517.13 251.383 517.13C250.85 517.13 250.363 517.26 249.923 517.52C249.49 517.773 249.143 518.127 248.883 518.58C248.623 519.027 248.493 519.54 248.493 520.12V526H247.093V520.12C247.093 519.54 246.963 519.027 246.703 518.58C246.443 518.127 246.093 517.773 245.653 517.52C245.213 517.26 244.726 517.13 244.193 517.13C243.666 517.13 243.183 517.27 242.743 517.55C242.303 517.823 241.953 518.187 241.693 518.64C241.433 519.093 241.303 519.587 241.303 520.12V526H239.903ZM257.277 522.17V516H258.677V521.89C258.677 522.437 258.81 522.933 259.077 523.38C259.343 523.827 259.7 524.183 260.147 524.45C260.6 524.717 261.097 524.85 261.637 524.85C262.183 524.85 262.677 524.717 263.117 524.45C263.563 524.183 263.92 523.827 264.187 523.38C264.453 522.933 264.587 522.437 264.587 521.89V516H265.987L265.997 526H264.597L264.587 524.6C264.233 525.107 263.773 525.51 263.207 525.81C262.647 526.11 262.033 526.26 261.367 526.26C260.613 526.26 259.927 526.077 259.307 525.71C258.687 525.343 258.193 524.85 257.827 524.23C257.46 523.61 257.277 522.923 257.277 522.17ZM275.051 523.49L276.301 524.17C275.848 524.803 275.271 525.31 274.571 525.69C273.878 526.07 273.124 526.26 272.311 526.26C271.391 526.26 270.551 526.023 269.791 525.55C269.038 525.077 268.434 524.443 267.981 523.65C267.534 522.85 267.311 521.967 267.311 521C267.311 520.267 267.441 519.583 267.701 518.95C267.961 518.31 268.318 517.75 268.771 517.27C269.231 516.783 269.764 516.403 270.371 516.13C270.978 515.857 271.624 515.72 272.311 515.72C273.124 515.72 273.878 515.91 274.571 516.29C275.271 516.67 275.848 517.18 276.301 517.82L275.051 518.49C274.704 518.05 274.288 517.713 273.801 517.48C273.314 517.24 272.818 517.12 272.311 517.12C271.638 517.12 271.028 517.3 270.481 517.66C269.934 518.013 269.501 518.483 269.181 519.07C268.868 519.657 268.711 520.3 268.711 521C268.711 521.7 268.871 522.343 269.191 522.93C269.518 523.517 269.954 523.987 270.501 524.34C271.048 524.687 271.651 524.86 272.311 524.86C272.858 524.86 273.371 524.733 273.851 524.48C274.331 524.227 274.731 523.897 275.051 523.49ZM286.69 519.81V526H285.29V520.09C285.29 519.543 285.156 519.047 284.89 518.6C284.623 518.153 284.266 517.797 283.82 517.53C283.373 517.263 282.876 517.13 282.33 517.13C281.79 517.13 281.293 517.263 280.84 517.53C280.393 517.797 280.036 518.153 279.77 518.6C279.503 519.047 279.37 519.543 279.37 520.09V526H277.97V511H279.37V517.38C279.723 516.873 280.183 516.47 280.75 516.17C281.316 515.87 281.933 515.72 282.6 515.72C283.353 515.72 284.04 515.903 284.66 516.27C285.28 516.637 285.773 517.13 286.14 517.75C286.506 518.37 286.69 519.057 286.69 519.81ZM293.497 526V516H294.897V517.38C295.257 516.873 295.717 516.47 296.277 516.17C296.837 515.87 297.45 515.72 298.117 515.72C298.87 515.72 299.56 515.907 300.187 516.28C300.814 516.647 301.304 517.137 301.657 517.75C302.01 517.137 302.497 516.647 303.117 516.28C303.737 515.907 304.424 515.72 305.177 515.72C305.93 515.72 306.617 515.903 307.237 516.27C307.857 516.637 308.35 517.13 308.717 517.75C309.084 518.37 309.267 519.057 309.267 519.81V526H307.867V520.12C307.867 519.587 307.737 519.093 307.477 518.64C307.217 518.187 306.867 517.823 306.427 517.55C305.994 517.27 305.51 517.13 304.977 517.13C304.444 517.13 303.957 517.26 303.517 517.52C303.084 517.773 302.737 518.127 302.477 518.58C302.217 519.027 302.087 519.54 302.087 520.12V526H300.687V520.12C300.687 519.54 300.557 519.027 300.297 518.58C300.037 518.127 299.687 517.773 299.247 517.52C298.807 517.26 298.32 517.13 297.787 517.13C297.26 517.13 296.777 517.27 296.337 517.55C295.897 517.823 295.547 518.187 295.287 518.64C295.027 519.093 294.897 519.587 294.897 520.12V526H293.497ZM315.475 526.26C314.555 526.26 313.715 526.023 312.955 525.55C312.202 525.077 311.598 524.443 311.145 523.65C310.698 522.85 310.475 521.967 310.475 521C310.475 520.267 310.605 519.583 310.865 518.95C311.125 518.31 311.482 517.75 311.935 517.27C312.395 516.783 312.928 516.403 313.535 516.13C314.142 515.857 314.788 515.72 315.475 515.72C316.395 515.72 317.232 515.957 317.985 516.43C318.745 516.903 319.348 517.54 319.795 518.34C320.248 519.14 320.475 520.027 320.475 521C320.475 521.727 320.345 522.407 320.085 523.04C319.825 523.673 319.465 524.233 319.005 524.72C318.552 525.2 318.022 525.577 317.415 525.85C316.815 526.123 316.168 526.26 315.475 526.26ZM315.475 524.86C316.155 524.86 316.765 524.683 317.305 524.33C317.852 523.97 318.282 523.497 318.595 522.91C318.915 522.323 319.075 521.687 319.075 521C319.075 520.3 318.915 519.657 318.595 519.07C318.275 518.477 317.842 518.003 317.295 517.65C316.755 517.297 316.148 517.12 315.475 517.12C314.795 517.12 314.182 517.3 313.635 517.66C313.095 518.013 312.665 518.483 312.345 519.07C312.032 519.657 311.875 520.3 311.875 521C311.875 521.72 312.038 522.373 312.365 522.96C312.692 523.54 313.128 524.003 313.675 524.35C314.222 524.69 314.822 524.86 315.475 524.86ZM322.169 526V516H323.569V517.38C323.922 516.873 324.382 516.47 324.949 516.17C325.515 515.87 326.132 515.72 326.799 515.72C327.185 515.72 327.559 515.77 327.919 515.87L327.349 517.26C327.069 517.173 326.795 517.13 326.529 517.13C325.989 517.13 325.492 517.263 325.039 517.53C324.592 517.797 324.235 518.153 323.969 518.6C323.702 519.047 323.569 519.543 323.569 520.09V526H322.169ZM333.053 526.26C332.133 526.26 331.293 526.023 330.533 525.55C329.78 525.077 329.176 524.443 328.723 523.65C328.276 522.85 328.053 521.967 328.053 521C328.053 520.267 328.183 519.583 328.443 518.95C328.703 518.31 329.06 517.75 329.513 517.27C329.973 516.783 330.506 516.403 331.113 516.13C331.72 515.857 332.366 515.72 333.053 515.72C333.793 515.72 334.473 515.867 335.093 516.16C335.72 516.453 336.256 516.863 336.703 517.39C337.156 517.917 337.496 518.533 337.723 519.24C337.956 519.947 338.053 520.71 338.013 521.53H329.533C329.613 522.163 329.813 522.73 330.133 523.23C330.46 523.73 330.873 524.127 331.373 524.42C331.88 524.707 332.44 524.853 333.053 524.86C333.72 524.86 334.32 524.687 334.853 524.34C335.393 523.993 335.826 523.517 336.153 522.91L337.573 523.24C337.173 524.127 336.57 524.853 335.763 525.42C334.956 525.98 334.053 526.26 333.053 526.26ZM329.493 520.4H336.603C336.556 519.78 336.366 519.213 336.033 518.7C335.706 518.18 335.283 517.767 334.763 517.46C334.243 517.147 333.673 516.99 333.053 516.99C332.433 516.99 331.866 517.143 331.353 517.45C330.84 517.75 330.42 518.16 330.093 518.68C329.766 519.193 329.566 519.767 329.493 520.4ZM340.02 526.26C339.8 526.26 339.613 526.18 339.46 526.02C339.306 525.867 339.23 525.677 339.23 525.45C339.23 525.237 339.306 525.053 339.46 524.9C339.613 524.74 339.8 524.66 340.02 524.66C340.246 524.66 340.436 524.74 340.59 524.9C340.75 525.053 340.83 525.237 340.83 525.45C340.83 525.677 340.75 525.867 340.59 526.02C340.436 526.18 340.246 526.26 340.02 526.26ZM343.613 526.26C343.393 526.26 343.207 526.18 343.053 526.02C342.9 525.867 342.823 525.677 342.823 525.45C342.823 525.237 342.9 525.053 343.053 524.9C343.207 524.74 343.393 524.66 343.613 524.66C343.84 524.66 344.03 524.74 344.183 524.9C344.343 525.053 344.423 525.237 344.423 525.45C344.423 525.677 344.343 525.867 344.183 526.02C344.03 526.18 343.84 526.26 343.613 526.26ZM347.207 526.26C346.987 526.26 346.801 526.18 346.647 526.02C346.494 525.867 346.417 525.677 346.417 525.45C346.417 525.237 346.494 525.053 346.647 524.9C346.801 524.74 346.987 524.66 347.207 524.66C347.434 524.66 347.624 524.74 347.777 524.9C347.937 525.053 348.017 525.237 348.017 525.45C348.017 525.677 347.937 525.867 347.777 526.02C347.624 526.18 347.434 526.26 347.207 526.26Z" fill="#4268FF"/>
</g>
<defs>
<filter id="filter0_d_2152_8453" x="202" y="114" width="24" height="24" filterUnits="userSpaceOnUse" color-interpolation-filters="sRGB">
<feFlood flood-opacity="0" result="BackgroundImageFix"/>
<feColorMatrix in="SourceAlpha" type="matrix" values="0 0 0 0 0 0 0 0 0 0 0 0 0 0 0 0 0 0 127 0" result="hardAlpha"/>
<feOffset dy="4"/>
<feGaussianBlur stdDeviation="2"/>
<feComposite in2="hardAlpha" operator="out"/>
<feColorMatrix type="matrix" values="0 0 0 0 0.259615 0 0 0 0 0.407692 0 0 0 0 1 0 0 0 0.25 0"/>
<feBlend mode="normal" in2="BackgroundImageFix" result="effect1_dropShadow_2152_8453"/>
<feBlend mode="normal" in="SourceGraphic" in2="effect1_dropShadow_2152_8453" result="shape"/>
</filter>
<filter id="filter1_d_2152_8453" x="368" y="248" width="24" height="24" filterUnits="userSpaceOnUse" color-interpolation-filters="sRGB">
<feFlood flood-opacity="0" result="BackgroundImageFix"/>
<feColorMatrix in="SourceAlpha" type="matrix" values="0 0 0 0 0 0 0 0 0 0 0 0 0 0 0 0 0 0 127 0" result="hardAlpha"/>
<feOffset dy="4"/>
<feGaussianBlur stdDeviation="2"/>
<feComposite in2="hardAlpha" operator="out"/>
<feColorMatrix type="matrix" values="0 0 0 0 0.259615 0 0 0 0 0.407692 0 0 0 0 1 0 0 0 0.25 0"/>
<feBlend mode="normal" in2="BackgroundImageFix" result="effect1_dropShadow_2152_8453"/>
<feBlend mode="normal" in="SourceGraphic" in2="effect1_dropShadow_2152_8453" result="shape"/>
</filter>
<filter id="filter2_d_2152_8453" x="187" y="381" width="24" height="24" filterUnits="userSpaceOnUse" color-interpolation-filters="sRGB">
<feFlood flood-opacity="0" result="BackgroundImageFix"/>
<feColorMatrix in="SourceAlpha" type="matrix" values="0 0 0 0 0 0 0 0 0 0 0 0 0 0 0 0 0 0 127 0" result="hardAlpha"/>
<feOffset dy="4"/>
<feGaussianBlur stdDeviation="2"/>
<feComposite in2="hardAlpha" operator="out"/>
<feColorMatrix type="matrix" values="0 0 0 0 0.259615 0 0 0 0 0.407692 0 0 0 0 1 0 0 0 0.25 0"/>
<feBlend mode="normal" in2="BackgroundImageFix" result="effect1_dropShadow_2152_8453"/>
<feBlend mode="normal" in="SourceGraphic" in2="effect1_dropShadow_2152_8453" result="shape"/>
</filter>
<filter id="filter3_d_2152_8453" x="440" y="458" width="24" height="24" filterUnits="userSpaceOnUse" color-interpolation-filters="sRGB">
<feFlood flood-opacity="0" result="BackgroundImageFix"/>
<feColorMatrix in="SourceAlpha" type="matrix" values="0 0 0 0 0 0 0 0 0 0 0 0 0 0 0 0 0 0 127 0" result="hardAlpha"/>
<feOffset dy="4"/>
<feGaussianBlur stdDeviation="2"/>
<feComposite in2="hardAlpha" operator="out"/>
<feColorMatrix type="matrix" values="0 0 0 0 0.259615 0 0 0 0 0.407692 0 0 0 0 1 0 0 0 0.25 0"/>
<feBlend mode="normal" in2="BackgroundImageFix" result="effect1_dropShadow_2152_8453"/>
<feBlend mode="normal" in="SourceGraphic" in2="effect1_dropShadow_2152_8453" result="shape"/>
</filter>
<filter id="filter4_f_2152_8453" x="148.46" y="351.992" width="106.984" height="78.9402" filterUnits="userSpaceOnUse" color-interpolation-filters="sRGB">
<feFlood flood-opacity="0" result="BackgroundImageFix"/>
<feBlend mode="normal" in="SourceGraphic" in2="BackgroundImageFix" result="shape"/>
<feGaussianBlur stdDeviation="12.5" result="effect1_foregroundBlur_2152_8453"/>
</filter>
<filter id="filter5_f_2152_8453" x="325.644" y="218.729" width="108.618" height="75.4668" filterUnits="userSpaceOnUse" color-interpolation-filters="sRGB">
<feFlood flood-opacity="0" result="BackgroundImageFix"/>
<feBlend mode="normal" in="SourceGraphic" in2="BackgroundImageFix" result="shape"/>
<feGaussianBlur stdDeviation="12.5" result="effect1_foregroundBlur_2152_8453"/>
</filter>
<filter id="filter6_f_2152_8453" x="159.707" y="85.7834" width="109.333" height="73.75" filterUnits="userSpaceOnUse" color-interpolation-filters="sRGB">
<feFlood flood-opacity="0" result="BackgroundImageFix"/>
<feBlend mode="normal" in="SourceGraphic" in2="BackgroundImageFix" result="shape"/>
<feGaussianBlur stdDeviation="12.5" result="effect1_foregroundBlur_2152_8453"/>
</filter>
<filter id="filter7_f_2152_8453" x="406.649" y="415.76" width="87.4536" height="101.797" filterUnits="userSpaceOnUse" color-interpolation-filters="sRGB">
<feFlood flood-opacity="0" result="BackgroundImageFix"/>
<feBlend mode="normal" in="SourceGraphic" in2="BackgroundImageFix" result="shape"/>
<feGaussianBlur stdDeviation="12.5" result="effect1_foregroundBlur_2152_8453"/>
</filter>
<linearGradient id="paint0_linear_2152_8453" x1="282.5" y1="117" x2="282.5" y2="572" gradientUnits="userSpaceOnUse">
<stop stop-color="#D7D7D7"/>
<stop offset="1" stop-color="white"/>
</linearGradient>
<linearGradient id="paint1_linear_2152_8453" x1="282.5" y1="241" x2="282.5" y2="568" gradientUnits="userSpaceOnUse">
<stop stop-color="#D7D7D7"/>
<stop offset="1" stop-color="white"/>
</linearGradient>
<linearGradient id="paint2_linear_2152_8453" x1="282.5" y1="370" x2="282.5" y2="568" gradientUnits="userSpaceOnUse">
<stop stop-color="#D7D7D7"/>
<stop offset="1" stop-color="white"/>
</linearGradient>
<clipPath id="clip0_2152_8453">
<rect width="564" height="564" rx="24" fill="white"/>
</clipPath>
<clipPath id="clip1_2152_8453">
<rect width="48" height="48" fill="white" transform="translate(452 405)"/>
</clipPath>
<clipPath id="clip2_2152_8453">
<rect width="164.94" height="48" fill="white" transform="translate(136 66)"/>
</clipPath>
</defs>
</svg>
