<svg width="330" height="50" viewBox="0 0 330 50" fill="none" xmlns="http://www.w3.org/2000/svg">
<path d="M41.269 11.8044C41.2654 11.8066 41.2619 11.8087 41.2584 11.8109C40.5787 12.2285 39.954 12.6232 39.3174 12.9975C39.0992 13.1255 38.9926 13.2629 38.9926 13.5335C38.9961 17.2263 38.99 20.9199 38.9763 24.6127C38.9746 24.9572 39.1309 25.0748 39.4367 25.0774C39.703 25.0791 40.9747 12.1422 41.2584 11.8109C41.2621 11.8066 41.2656 11.8044 41.269 11.8044C41.2947 11.8405 40.2931 25.1367 40.2931 25.159C40.2862 26.5033 40.3791 27.8579 40.245 29.1902C40.0449 31.1771 38.9548 32.7361 37.5023 34.0495C37.3047 34.2282 37.2369 34.4043 37.2111 34.6671C37.1415 35.3912 37.0797 36.1248 36.9019 36.8266C36.5832 38.0824 35.8282 39.0582 34.7441 39.7695C34.2657 40.083 33.7605 40.3562 33.289 40.6791C33.1541 40.7719 33.0287 40.9703 33.0141 41.1301C32.893 42.4263 32.3286 43.4648 31.2171 44.146C30.0102 44.8856 28.7656 45.5642 27.5424 46.278C26.8715 46.6688 26.2221 46.6757 25.5633 46.2479C25.2162 46.022 24.8546 45.8141 24.4861 45.6243C23.725 45.2326 23.5026 44.5738 23.5945 43.7895C23.7456 42.4993 24.3976 41.5115 25.5169 40.8492C26.5872 40.2153 27.6824 39.6209 28.7407 38.9672C29.5086 38.493 30.2559 38.4381 30.9817 38.9698C31.4688 39.3262 31.8622 39.3125 32.3381 38.9517C32.8028 38.5987 33.3388 38.341 33.8241 38.0137C34.6204 37.476 34.9992 36.6857 35.1341 35.8328C34.5663 35.9178 33.9959 36.1085 33.4427 36.0673C31.6492 35.9333 30.6768 34.8363 30.6708 33.0462C30.6648 30.9417 30.6201 28.8363 30.6828 26.7344C30.7404 24.8103 31.6208 23.2701 33.2288 22.2032C34.3601 21.4525 35.5584 21.4053 36.755 22.1019C36.816 22.1371 36.8804 22.1646 36.9852 22.217C37.0007 22.0882 37.023 21.9842 37.0239 21.8811C37.029 19.4476 37.0341 17.0141 37.0281 14.5806C37.0281 14.4415 36.9774 14.2508 36.8795 14.17C34.3094 12.0466 31.6234 10.0882 28.4297 9.00927C22.7879 7.10318 17.3497 7.73368 12.1287 10.5116C9.84814 11.7254 7.72132 13.1736 5.72847 14.8168C5.59447 14.9277 5.46044 15.1338 5.45958 15.2962C5.45528 18.13 5.47249 20.9646 5.48537 23.7984C5.48537 23.868 5.50084 23.9367 5.51373 24.0423C6.82196 23.7503 7.92658 24.1686 8.89552 24.9932C10.0852 26.006 10.7767 27.3176 11.0765 28.838C11.1504 29.2143 11.177 29.6051 11.1796 29.9891C11.1908 31.3489 11.1933 32.7086 11.1779 34.0684C11.1487 36.6453 8.94536 38.1142 6.60377 37.0491C3.98731 35.8585 2.15592 33.9353 1.61562 31.0233C1.45843 30.1755 1.5289 29.2838 1.52117 28.412C1.51859 28.1577 1.47218 27.9928 1.23596 27.8579C0.818492 27.6191 0.670775 27.3711 0.461183 27C0.258462 26.6401 0.0110672 26.1348 0.0110672 25.6624C0.0110672 21.2249 0.01707 16.7874 0.00074932 12.3498C-0.000968649 11.9607 0.136476 11.7812 0.458595 11.5957C7.06419 7.78864 13.6638 3.97047 20.2582 0.142843C20.5666 -0.0358253 20.7822 -0.0547347 21.1026 0.130806C27.6626 3.93353 34.2313 7.72164 40.7974 11.5141C40.9331 11.5922 41.0645 11.6781 41.269 11.8044Z" fill="#4268FF"/>
<path d="M41.2584 11.8109C40.5787 12.2285 39.954 12.6232 39.3174 12.9975C39.0992 13.1255 38.9926 13.2629 38.9926 13.5335C38.9961 17.2263 38.99 20.9199 38.9763 24.6127C38.9746 24.9572 39.1309 25.0748 39.4367 25.0774C39.703 25.0791 40.9747 12.1422 41.2584 11.8109Z" fill="#4268FF"/>
<path d="M0.0128098 33.4233C0.658766 34.3725 1.23857 35.3612 1.95152 36.2425C3.3259 37.9407 4.99833 39.2627 7.13978 39.8846C8.10442 40.1646 9.0871 40.2248 10.0655 39.9645C11.9845 39.4534 12.9594 38.0782 13.3967 36.2417C13.5023 35.7984 13.5848 35.3371 13.583 34.8845C13.5762 33.0832 13.7188 31.2552 13.4619 29.4875C12.9654 26.073 11.1598 23.4411 8.11989 21.7085C7.98675 21.6329 7.86306 21.4104 7.86048 21.255C7.84072 19.7234 7.84329 18.1918 7.8536 16.6603C7.85446 16.522 7.91028 16.3321 8.00992 16.254C10.9734 13.9278 14.0838 11.8293 17.7328 10.7419C21.6524 9.57365 25.4628 9.99025 29.0989 11.8714C31.023 12.867 32.8234 14.0601 34.5285 15.3967C34.6041 15.456 34.6746 15.523 34.7785 15.614C34.3018 15.9061 33.8576 16.187 33.405 16.4532C29.2844 18.8739 25.1647 21.2962 21.0365 23.7031C20.7478 23.8714 20.704 24.0673 20.704 24.3585C20.71 32.7473 20.7092 41.1361 20.71 49.525C20.71 49.6676 20.71 49.8093 20.71 50C20.5958 49.9553 20.5073 49.933 20.4308 49.8892C13.8055 46.0298 7.18275 42.1652 0.549675 38.3195C0.134786 38.079 -0.0121125 37.8248 0.000772312 37.3523C0.0351317 36.0381 0.0128098 34.7213 0.0128098 33.4233Z" fill="#2544BD"/>
<path d="M64.5393 24.6355C63.02 24.6355 61.5916 24.3359 60.2542 23.7367C58.9167 23.1268 57.7398 22.2869 56.7233 21.217C55.7176 20.147 54.9258 18.9112 54.348 17.5096C53.781 16.0973 53.4974 14.5886 53.4974 12.9837C53.4974 11.3681 53.781 9.85946 54.348 8.45783C54.9258 7.0455 55.7176 5.80971 56.7233 4.75046C57.7398 3.68051 58.9167 2.84595 60.2542 2.24678C61.5916 1.63691 63.02 1.33197 64.5393 1.33197C66.3582 1.33197 68.0327 1.7546 69.5627 2.59986C71.0927 3.43442 72.3606 4.55252 73.3664 5.95415L69.8676 7.83191C69.2364 7.05085 68.45 6.42493 67.5084 5.95415C66.5775 5.48337 65.5878 5.24798 64.5393 5.24798C63.5549 5.24798 62.6294 5.45127 61.7628 5.85785C60.8961 6.25374 60.1365 6.81011 59.4838 7.52697C58.8311 8.23314 58.3229 9.057 57.9591 9.99856C57.5953 10.9294 57.4134 11.9245 57.4134 12.9837C57.4134 14.0537 57.5953 15.0541 57.9591 15.9849C58.3336 16.9158 58.8472 17.7396 59.4998 18.4565C60.1525 19.1627 60.9068 19.719 61.7628 20.1256C62.6294 20.5215 63.5549 20.7194 64.5393 20.7194C65.6092 20.7194 66.6043 20.4841 67.5245 20.0133C68.4553 19.5318 69.2364 18.9005 69.8676 18.1195L73.3664 20.0133C72.3606 21.4042 71.0927 22.5223 69.5627 23.3676C68.0327 24.2128 66.3582 24.6355 64.5393 24.6355Z" fill="#0C1021"/>
<path d="M82.6105 24.6355C81.1339 24.6355 79.7858 24.2556 78.5661 23.496C77.357 22.7363 76.3887 21.7198 75.6612 20.4466C74.9443 19.1627 74.5859 17.745 74.5859 16.1936C74.5859 15.0166 74.7945 13.9199 75.2118 12.9035C75.6291 11.8763 76.2015 10.9776 76.929 10.2072C77.6673 9.42613 78.5233 8.81626 79.4969 8.37758C80.4706 7.9389 81.5084 7.71957 82.6105 7.71957C84.087 7.71957 85.4298 8.0994 86.6388 8.85906C87.8586 9.61872 88.8269 10.6405 89.5437 11.9245C90.2713 13.2084 90.6351 14.6314 90.6351 16.1936C90.6351 17.3598 90.4264 18.4511 90.0092 19.4676C89.5919 20.484 89.0141 21.3828 88.2758 22.1639C87.5483 22.9342 86.6977 23.5388 85.724 23.9774C84.7611 24.4161 83.7232 24.6355 82.6105 24.6355ZM82.6105 20.7194C83.3915 20.7194 84.0923 20.5108 84.7129 20.0935C85.3335 19.6762 85.8203 19.1252 86.1734 18.4404C86.5372 17.7557 86.7191 17.0067 86.7191 16.1936C86.7191 15.359 86.5318 14.5993 86.1573 13.9146C85.7936 13.2191 85.296 12.6681 84.6648 12.2615C84.0442 11.8442 83.3594 11.6356 82.6105 11.6356C81.8401 11.6356 81.1446 11.8442 80.5241 12.2615C79.9035 12.6788 79.4113 13.2351 79.0475 13.9306C78.6838 14.6261 78.5019 15.3804 78.5019 16.1936C78.5019 17.0388 78.6891 17.8038 79.0636 18.4886C79.4381 19.1734 79.9356 19.719 80.5562 20.1256C81.1874 20.5215 81.8722 20.7194 82.6105 20.7194Z" fill="#0C1021"/>
<path d="M92.8832 24.2182V0.144329H96.7992V24.2182H92.8832Z" fill="#0C1021"/>
<path d="M112.54 0.144329H116.456V24.2182H112.54V22.212C112.026 22.9289 111.379 23.512 110.598 23.9614C109.817 24.4108 108.912 24.6355 107.885 24.6355C106.719 24.6355 105.628 24.4161 104.611 23.9774C103.595 23.5388 102.696 22.9342 101.915 22.1639C101.145 21.3828 100.54 20.484 100.101 19.4676C99.6627 18.4511 99.4434 17.3598 99.4434 16.1936C99.4434 15.0273 99.6627 13.936 100.101 12.9195C100.54 11.9031 101.145 11.0097 101.915 10.2393C102.696 9.45823 103.595 8.84836 104.611 8.40968C105.628 7.971 106.719 7.75166 107.885 7.75166C108.912 7.75166 109.817 7.97635 110.598 8.42573C111.379 8.86441 112.026 9.44753 112.54 10.1751V0.144329ZM107.933 20.8639C108.768 20.8639 109.506 20.6552 110.148 20.238C110.79 19.8207 111.293 19.259 111.657 18.5528C112.021 17.8359 112.202 17.0495 112.202 16.1936C112.202 15.3269 112.021 14.5405 111.657 13.8343C111.293 13.1175 110.785 12.5504 110.132 12.1331C109.49 11.7158 108.757 11.5072 107.933 11.5072C107.11 11.5072 106.355 11.7212 105.67 12.1492C104.996 12.5664 104.456 13.1282 104.049 13.8343C103.654 14.5405 103.456 15.3269 103.456 16.1936C103.456 17.0602 103.659 17.8466 104.066 18.5528C104.472 19.259 105.012 19.8207 105.687 20.238C106.371 20.6552 107.12 20.8639 107.933 20.8639Z" fill="#0C1021"/>
<path d="M120.311 8.16894H124.227V24.2182H120.311V8.16894ZM122.301 6.09859C121.723 6.09859 121.237 5.91135 120.841 5.53687C120.445 5.15169 120.247 4.67021 120.247 4.09244C120.247 3.52537 120.445 3.04924 120.841 2.66406C121.237 2.27888 121.718 2.08629 122.285 2.08629C122.852 2.08629 123.328 2.27888 123.714 2.66406C124.109 3.04924 124.307 3.52537 124.307 4.09244C124.307 4.67021 124.115 5.15169 123.73 5.53687C123.344 5.91135 122.868 6.09859 122.301 6.09859Z" fill="#0C1021"/>
<path d="M54.4145 46.0344V35.3349H58.0294C58.5491 35.3349 59.0204 35.4419 59.4433 35.6559C59.8713 35.8648 60.2101 36.1731 60.4597 36.5807C60.7145 36.9832 60.8419 37.4723 60.8419 38.048C60.8419 38.3741 60.7833 38.6849 60.6661 38.9804C60.5489 39.2759 60.396 39.5281 60.2075 39.737C60.019 39.9408 59.8152 40.0733 59.5961 40.1344C59.912 40.2159 60.1846 40.3586 60.4139 40.5624C60.6432 40.7611 60.8317 40.998 60.9794 41.2731C61.1272 41.5432 61.2342 41.8285 61.3004 42.1291C61.3717 42.4297 61.4074 42.7252 61.4074 43.0156C61.4074 43.6168 61.2749 44.1442 61.01 44.5976C60.7501 45.0511 60.4011 45.4052 59.963 45.6599C59.5248 45.9096 59.0382 46.0344 58.5033 46.0344H54.4145ZM55.4845 45.0791H58.4192C58.7911 45.0791 59.1274 44.9823 59.428 44.7887C59.7337 44.5951 59.9757 44.3301 60.154 43.9939C60.3375 43.6576 60.4292 43.278 60.4292 42.8551C60.4292 42.4781 60.3375 42.124 60.154 41.7928C59.9757 41.4566 59.7337 41.1865 59.428 40.9827C59.1274 40.7738 58.7911 40.6694 58.4192 40.6694H55.4845V45.0791ZM55.4845 39.7294H57.9377C58.4421 39.7294 58.8726 39.5842 59.2293 39.2937C59.591 38.9982 59.7719 38.5804 59.7719 38.0404C59.7719 37.4494 59.591 37.0112 59.2293 36.7259C58.8726 36.4355 58.4421 36.2902 57.9377 36.2902H55.4845V39.7294Z" fill="#0C1021"/>
<path d="M62.9377 46.0344V38.3919H64.0076V39.4466C64.2777 39.0594 64.6292 38.7511 65.0623 38.5219C65.4954 38.2926 65.9667 38.1779 66.4762 38.1779C66.7717 38.1779 67.057 38.2162 67.3321 38.2926L66.8965 39.3549C66.6825 39.2886 66.4736 39.2555 66.2698 39.2555C65.8571 39.2555 65.4775 39.3574 65.1311 39.5612C64.7897 39.765 64.5171 40.0376 64.3133 40.379C64.1095 40.7203 64.0076 41.0999 64.0076 41.5177V46.0344H62.9377Z" fill="#0C1021"/>
<path d="M74.1755 38.3919H75.2454V46.0344H74.1755L74.1373 44.6129C73.8876 45.0969 73.5386 45.4893 73.0903 45.7899C72.6419 46.0854 72.1069 46.2331 71.4853 46.2331C70.9249 46.2331 70.4001 46.1287 69.911 45.9198C69.4219 45.7058 68.9913 45.4128 68.6194 45.0409C68.2475 44.669 67.9571 44.2384 67.7482 43.7493C67.5393 43.2602 67.4348 42.7354 67.4348 42.175C67.4348 41.6247 67.5367 41.1076 67.7405 40.6235C67.9494 40.1395 68.2347 39.7141 68.5965 39.3472C68.9633 38.9804 69.3862 38.6951 69.8651 38.4913C70.3492 38.2824 70.8663 38.1779 71.4165 38.1779C72.0534 38.1779 72.6088 38.3308 73.0826 38.6365C73.5564 38.9371 73.9335 39.332 74.2137 39.8211L74.1755 38.3919ZM71.4624 45.1937C72.0076 45.1937 72.4763 45.0613 72.8686 44.7963C73.2609 44.5263 73.5615 44.1646 73.7704 43.7111C73.9844 43.2576 74.0914 42.7583 74.0914 42.2132C74.0914 41.6527 73.9844 41.1483 73.7704 40.7C73.5564 40.2465 73.2533 39.8873 72.861 39.6224C72.4687 39.3574 72.0025 39.225 71.4624 39.225C70.9223 39.225 70.4281 39.36 69.9798 39.63C69.5365 39.895 69.1824 40.2542 68.9175 40.7076C68.6576 41.1611 68.5277 41.6629 68.5277 42.2132C68.5277 42.7685 68.6627 43.2729 68.9327 43.7264C69.2028 44.1747 69.5594 44.5314 70.0027 44.7963C70.451 45.0613 70.9376 45.1937 71.4624 45.1937Z" fill="#0C1021"/>
<path d="M83.439 41.3037V46.0344H82.3691V41.5177C82.3691 41.0999 82.2672 40.7203 82.0634 40.379C81.8596 40.0376 81.587 39.765 81.2456 39.5612C80.9043 39.3574 80.5247 39.2555 80.1069 39.2555C79.6942 39.2555 79.3146 39.3574 78.9682 39.5612C78.6268 39.765 78.3542 40.0376 78.1504 40.379C77.9466 40.7203 77.8447 41.0999 77.8447 41.5177V46.0344H76.7748V38.3919H77.8447V39.4466C78.1148 39.0594 78.4663 38.7511 78.8994 38.5219C79.3325 38.2926 79.8037 38.1779 80.3132 38.1779C80.889 38.1779 81.4138 38.3181 81.8876 38.5983C82.3614 38.8785 82.7385 39.2555 83.0187 39.7294C83.2989 40.2032 83.439 40.728 83.439 41.3037Z" fill="#0C1021"/>
<path d="M91.1101 34.5707H92.18V46.0344H91.1101V44.6053C90.8451 45.0944 90.4808 45.4893 90.0172 45.7899C89.5586 46.0854 89.0135 46.2331 88.3817 46.2331C87.8263 46.2331 87.3066 46.1287 86.8226 45.9198C86.3386 45.7109 85.9106 45.423 85.5387 45.0562C85.1718 44.6842 84.884 44.2563 84.6751 43.7722C84.4662 43.2882 84.3617 42.7685 84.3617 42.2132C84.3617 41.6578 84.4662 41.1381 84.6751 40.6541C84.884 40.165 85.1718 39.737 85.5387 39.3702C85.9106 38.9982 86.3386 38.7078 86.8226 38.4989C87.3066 38.29 87.8263 38.1856 88.3817 38.1856C89.0135 38.1856 89.5586 38.3359 90.0172 38.6365C90.4808 38.932 90.8451 39.3218 91.1101 39.8058V34.5707ZM88.3893 45.1937C88.9345 45.1937 89.4032 45.0613 89.7955 44.7963C90.1879 44.5263 90.4885 44.1646 90.6974 43.7111C90.9113 43.2576 91.0183 42.7583 91.0183 42.2132C91.0183 41.6527 90.9113 41.1483 90.6974 40.7C90.4834 40.2465 90.1802 39.8873 89.7879 39.6224C89.3956 39.3574 88.9294 39.225 88.3893 39.225C87.8493 39.225 87.3576 39.36 86.9143 39.63C86.4711 39.895 86.117 40.2542 85.852 40.7076C85.5871 41.1611 85.4546 41.6629 85.4546 42.2132C85.4546 42.7685 85.5896 43.2729 85.8597 43.7264C86.1297 44.1747 86.4863 44.5314 86.9296 44.7963C87.378 45.0613 87.8645 45.1937 88.3893 45.1937Z" fill="#0C1021"/>
<path d="M94.0152 40.914H98.9063V41.9839H94.0152V40.914Z" fill="#0C1021"/>
<path d="M108.84 35.3349V36.4049H105.172V46.0344H104.102V36.4049H100.441V35.3349H108.84Z" fill="#0C1021"/>
<path d="M108.98 43.1073V38.3919H110.049V42.8934C110.049 43.3111 110.151 43.6907 110.355 44.0321C110.559 44.3735 110.832 44.646 111.173 44.8498C111.519 45.0536 111.899 45.1555 112.312 45.1555C112.729 45.1555 113.106 45.0536 113.443 44.8498C113.784 44.646 114.057 44.3735 114.26 44.0321C114.464 43.6907 114.566 43.3111 114.566 42.8934V38.3919H115.636L115.644 46.0344H114.574L114.566 44.9645C114.296 45.3517 113.945 45.6599 113.511 45.8892C113.084 46.1185 112.615 46.2331 112.105 46.2331C111.53 46.2331 111.005 46.093 110.531 45.8128C110.057 45.5326 109.68 45.1555 109.4 44.6817C109.12 44.2079 108.98 43.6831 108.98 43.1073Z" fill="#0C1021"/>
<path d="M123.831 41.3037V46.0344H122.761V41.5177C122.761 41.0999 122.659 40.7203 122.455 40.379C122.251 40.0376 121.979 39.765 121.637 39.5612C121.296 39.3574 120.916 39.2555 120.499 39.2555C120.086 39.2555 119.706 39.3574 119.36 39.5612C119.019 39.765 118.746 40.0376 118.542 40.379C118.338 40.7203 118.236 41.0999 118.236 41.5177V46.0344H117.167V38.3919H118.236V39.4466C118.507 39.0594 118.858 38.7511 119.291 38.5219C119.724 38.2926 120.195 38.1779 120.705 38.1779C121.281 38.1779 121.806 38.3181 122.279 38.5983C122.753 38.8785 123.13 39.2555 123.41 39.7294C123.691 40.2032 123.831 40.728 123.831 41.3037Z" fill="#0C1021"/>
<path d="M128.575 46.2331C127.872 46.2331 127.23 46.0522 126.649 45.6905C126.073 45.3288 125.612 44.8447 125.266 44.2384C124.924 43.627 124.753 42.952 124.753 42.2132C124.753 41.6527 124.853 41.1305 125.052 40.6465C125.25 40.1573 125.523 39.7294 125.869 39.3625C126.221 38.9906 126.628 38.7002 127.092 38.4913C127.556 38.2824 128.05 38.1779 128.575 38.1779C129.14 38.1779 129.66 38.29 130.134 38.5142C130.613 38.7384 131.023 39.0517 131.364 39.4542C131.711 39.8567 131.971 40.328 132.144 40.8681C132.322 41.4082 132.396 41.9915 132.365 42.6182H125.885C125.946 43.1022 126.099 43.5353 126.343 43.9174C126.593 44.2996 126.909 44.6027 127.291 44.8269C127.678 45.046 128.106 45.1581 128.575 45.1632C129.084 45.1632 129.543 45.0307 129.95 44.7658C130.363 44.5008 130.694 44.1365 130.944 43.6729L132.029 43.9251C131.723 44.6027 131.262 45.1581 130.646 45.5912C130.029 46.0191 129.339 46.2331 128.575 46.2331ZM125.854 41.7546H131.288C131.252 41.2808 131.107 40.8477 130.852 40.4554C130.603 40.058 130.279 39.7421 129.882 39.5077C129.484 39.2683 129.049 39.1485 128.575 39.1485C128.101 39.1485 127.668 39.2657 127.275 39.5001C126.883 39.7294 126.562 40.0427 126.313 40.4401C126.063 40.8324 125.91 41.2706 125.854 41.7546Z" fill="#0C1021"/>
<path d="M139.891 34.5707H140.961V46.0344H139.891V44.6053C139.626 45.0944 139.261 45.4893 138.798 45.7899C138.339 46.0854 137.794 46.2331 137.162 46.2331C136.607 46.2331 136.087 46.1287 135.603 45.9198C135.119 45.7109 134.691 45.423 134.319 45.0562C133.952 44.6842 133.665 44.2563 133.456 43.7722C133.247 43.2882 133.142 42.7685 133.142 42.2132C133.142 41.6578 133.247 41.1381 133.456 40.6541C133.665 40.165 133.952 39.737 134.319 39.3702C134.691 38.9982 135.119 38.7078 135.603 38.4989C136.087 38.29 136.607 38.1856 137.162 38.1856C137.794 38.1856 138.339 38.3359 138.798 38.6365C139.261 38.932 139.626 39.3218 139.891 39.8058V34.5707ZM137.17 45.1937C137.715 45.1937 138.184 45.0613 138.576 44.7963C138.968 44.5263 139.269 44.1646 139.478 43.7111C139.692 43.2576 139.799 42.7583 139.799 42.2132C139.799 41.6527 139.692 41.1483 139.478 40.7C139.264 40.2465 138.961 39.8873 138.568 39.6224C138.176 39.3574 137.71 39.225 137.17 39.225C136.63 39.225 136.138 39.36 135.695 39.63C135.252 39.895 134.898 40.2542 134.633 40.7076C134.368 41.1611 134.235 41.6629 134.235 42.2132C134.235 42.7685 134.37 43.2729 134.64 43.7264C134.91 44.1747 135.267 44.5314 135.71 44.7963C136.159 45.0613 136.645 45.1937 137.17 45.1937Z" fill="#0C1021"/>
<path d="M150.052 35.3349H151.382L155.279 46.0344H154.141L153.308 43.7417H148.134L147.301 46.0344H146.162L150.052 35.3349ZM148.524 42.6717H152.91L150.717 36.6494L148.524 42.6717Z" fill="#0C1021"/>
<path d="M156.937 46.0344V35.3349H158.007V46.0344H156.937Z" fill="#0C1021"/>
<path d="M167.062 46.0344L163.18 35.3349H164.311L167.704 44.6893L171.113 35.3349H172.244L168.354 46.0344H167.062Z" fill="#0C1021"/>
<path d="M176.131 46.2331C175.428 46.2331 174.786 46.0522 174.205 45.6905C173.63 45.3288 173.169 44.8447 172.822 44.2384C172.481 43.627 172.31 42.952 172.31 42.2132C172.31 41.6527 172.409 41.1305 172.608 40.6465C172.807 40.1573 173.079 39.7294 173.426 39.3625C173.777 38.9906 174.185 38.7002 174.649 38.4913C175.112 38.2824 175.607 38.1779 176.131 38.1779C176.834 38.1779 177.474 38.3588 178.05 38.7206C178.63 39.0823 179.092 39.5689 179.433 40.1803C179.779 40.7917 179.953 41.4693 179.953 42.2132C179.953 42.7685 179.853 43.2882 179.655 43.7722C179.456 44.2563 179.181 44.6842 178.829 45.0562C178.483 45.423 178.078 45.7109 177.614 45.9198C177.155 46.1287 176.661 46.2331 176.131 46.2331ZM176.131 45.1632C176.651 45.1632 177.117 45.0282 177.53 44.7581C177.948 44.483 178.276 44.1213 178.516 43.6729C178.76 43.2245 178.883 42.738 178.883 42.2132C178.883 41.6782 178.76 41.1865 178.516 40.7382C178.271 40.2847 177.94 39.923 177.522 39.6529C177.11 39.3829 176.646 39.2479 176.131 39.2479C175.612 39.2479 175.143 39.3855 174.725 39.6606C174.312 39.9306 173.984 40.2898 173.739 40.7382C173.5 41.1865 173.38 41.6782 173.38 42.2132C173.38 42.7634 173.505 43.2627 173.755 43.7111C174.004 44.1544 174.338 44.5085 174.756 44.7734C175.173 45.0333 175.632 45.1632 176.131 45.1632Z" fill="#0C1021"/>
<path d="M181.172 38.3919H182.242V46.0344H181.172V38.3919ZM181.715 37.0545C181.542 37.0545 181.394 36.9984 181.272 36.8864C181.155 36.7692 181.096 36.624 181.096 36.4507C181.096 36.2775 181.155 36.1348 181.272 36.0228C181.394 35.9056 181.542 35.847 181.715 35.847C181.883 35.847 182.026 35.9056 182.143 36.0228C182.265 36.1348 182.326 36.2775 182.326 36.4507C182.326 36.624 182.268 36.7692 182.151 36.8864C182.033 36.9984 181.888 37.0545 181.715 37.0545Z" fill="#0C1021"/>
<path d="M189.465 44.1162L190.42 44.6358C190.074 45.1199 189.633 45.5071 189.098 45.7975C188.568 46.0879 187.993 46.2331 187.371 46.2331C186.668 46.2331 186.026 46.0522 185.445 45.6905C184.87 45.3288 184.408 44.8447 184.062 44.2384C183.721 43.627 183.55 42.952 183.55 42.2132C183.55 41.6527 183.649 41.1305 183.848 40.6465C184.047 40.1573 184.319 39.7294 184.666 39.3625C185.017 38.9906 185.425 38.7002 185.889 38.4913C186.352 38.2824 186.846 38.1779 187.371 38.1779C187.993 38.1779 188.568 38.3232 189.098 38.6136C189.633 38.904 190.074 39.2937 190.42 39.7829L189.465 40.2949C189.2 39.9586 188.882 39.7013 188.51 39.523C188.138 39.3396 187.758 39.2479 187.371 39.2479C186.857 39.2479 186.39 39.3855 185.973 39.6606C185.555 39.9306 185.224 40.2898 184.979 40.7382C184.74 41.1865 184.62 41.6782 184.62 42.2132C184.62 42.7481 184.742 43.2398 184.987 43.6882C185.236 44.1365 185.57 44.4957 185.988 44.7658C186.406 45.0307 186.867 45.1632 187.371 45.1632C187.789 45.1632 188.181 45.0664 188.548 44.8728C188.915 44.6791 189.221 44.427 189.465 44.1162Z" fill="#0C1021"/>
<path d="M195.058 46.2331C194.355 46.2331 193.713 46.0522 193.133 45.6905C192.557 45.3288 192.096 44.8447 191.749 44.2384C191.408 43.627 191.237 42.952 191.237 42.2132C191.237 41.6527 191.337 41.1305 191.535 40.6465C191.734 40.1573 192.007 39.7294 192.353 39.3625C192.705 38.9906 193.112 38.7002 193.576 38.4913C194.039 38.2824 194.534 38.1779 195.058 38.1779C195.624 38.1779 196.144 38.29 196.617 38.5142C197.096 38.7384 197.507 39.0517 197.848 39.4542C198.194 39.8567 198.454 40.328 198.627 40.8681C198.806 41.4082 198.88 41.9915 198.849 42.6182H192.368C192.429 43.1022 192.582 43.5353 192.827 43.9174C193.076 44.2996 193.392 44.6027 193.774 44.8269C194.162 45.046 194.59 45.1581 195.058 45.1632C195.568 45.1632 196.026 45.0307 196.434 44.7658C196.847 44.5008 197.178 44.1365 197.428 43.6729L198.513 43.9251C198.207 44.6027 197.746 45.1581 197.13 45.5912C196.513 46.0191 195.823 46.2331 195.058 46.2331ZM192.338 41.7546H197.771C197.736 41.2808 197.591 40.8477 197.336 40.4554C197.086 40.058 196.763 39.7421 196.365 39.5077C195.968 39.2683 195.532 39.1485 195.058 39.1485C194.585 39.1485 194.152 39.2657 193.759 39.5001C193.367 39.7294 193.046 40.0427 192.796 40.4401C192.547 40.8324 192.394 41.2706 192.338 41.7546Z" fill="#0C1021"/>
<path d="M207.49 35.3349H208.82L212.718 46.0344H211.579L210.746 43.7417H205.572L204.739 46.0344H203.6L207.49 35.3349ZM205.962 42.6717H210.348L208.155 36.6494L205.962 42.6717Z" fill="#0C1021"/>
<path d="M219.565 38.3919H220.634V46.3172C220.634 46.8063 220.527 47.2649 220.313 47.6928C220.105 48.1208 219.819 48.4953 219.458 48.8163C219.101 49.1424 218.693 49.3971 218.235 49.5805C217.776 49.764 217.3 49.8557 216.806 49.8557C216.276 49.8557 215.764 49.7334 215.269 49.4888C214.775 49.2494 214.345 48.9284 213.978 48.5259C213.616 48.1234 213.359 47.6776 213.206 47.1884L214.192 46.7375C214.289 47.1197 214.47 47.4636 214.734 47.7693C215.005 48.0801 215.32 48.3246 215.682 48.5029C216.049 48.6864 216.423 48.7781 216.806 48.7781C217.157 48.7781 217.496 48.7118 217.822 48.5794C218.153 48.452 218.449 48.2762 218.709 48.052C218.974 47.8279 219.182 47.5655 219.335 47.2649C219.488 46.9694 219.565 46.6535 219.565 46.3172V44.6282C219.3 45.1071 218.94 45.4944 218.487 45.7899C218.039 46.0854 217.516 46.2331 216.92 46.2331C216.385 46.2331 215.881 46.1287 215.407 45.9198C214.938 45.7109 214.526 45.423 214.169 45.0562C213.812 44.6842 213.532 44.2563 213.328 43.7722C213.13 43.2882 213.03 42.7685 213.03 42.2132C213.03 41.6578 213.13 41.1381 213.328 40.6541C213.532 40.165 213.812 39.737 214.169 39.3702C214.526 38.9982 214.938 38.7078 215.407 38.4989C215.881 38.29 216.385 38.1856 216.92 38.1856C217.516 38.1856 218.039 38.3333 218.487 38.6288C218.94 38.9193 219.3 39.3065 219.565 39.7905V38.3919ZM216.928 45.1937C217.458 45.1937 217.914 45.0562 218.296 44.7811C218.683 44.5059 218.981 44.1416 219.19 43.6882C219.399 43.2347 219.503 42.7431 219.503 42.2132C219.503 41.668 219.396 41.1712 219.182 40.7229C218.974 40.2694 218.675 39.9077 218.288 39.6377C217.901 39.3625 217.448 39.225 216.928 39.225C216.408 39.225 215.934 39.36 215.506 39.63C215.083 39.895 214.747 40.2542 214.498 40.7076C214.248 41.1611 214.123 41.6629 214.123 42.2132C214.123 42.7634 214.25 43.2653 214.505 43.7187C214.76 44.1671 215.099 44.5263 215.522 44.7963C215.95 45.0613 216.418 45.1937 216.928 45.1937Z" fill="#0C1021"/>
<path d="M225.763 46.2331C225.06 46.2331 224.418 46.0522 223.837 45.6905C223.261 45.3288 222.8 44.8447 222.454 44.2384C222.112 43.627 221.941 42.952 221.941 42.2132C221.941 41.6527 222.041 41.1305 222.24 40.6465C222.438 40.1573 222.711 39.7294 223.057 39.3625C223.409 38.9906 223.816 38.7002 224.28 38.4913C224.744 38.2824 225.238 38.1779 225.763 38.1779C226.328 38.1779 226.848 38.29 227.322 38.5142C227.801 38.7384 228.211 39.0517 228.552 39.4542C228.899 39.8567 229.159 40.328 229.332 40.8681C229.51 41.4082 229.584 41.9915 229.553 42.6182H223.073C223.134 43.1022 223.287 43.5353 223.531 43.9174C223.781 44.2996 224.097 44.6027 224.479 44.8269C224.866 45.046 225.294 45.1581 225.763 45.1632C226.272 45.1632 226.731 45.0307 227.138 44.7658C227.551 44.5008 227.882 44.1365 228.132 43.6729L229.217 43.9251C228.911 44.6027 228.45 45.1581 227.834 45.5912C227.217 46.0191 226.527 46.2331 225.763 46.2331ZM223.042 41.7546H228.476C228.44 41.2808 228.295 40.8477 228.04 40.4554C227.791 40.058 227.467 39.7421 227.07 39.5077C226.672 39.2683 226.237 39.1485 225.763 39.1485C225.289 39.1485 224.856 39.2657 224.463 39.5001C224.071 39.7294 223.75 40.0427 223.501 40.4401C223.251 40.8324 223.098 41.2706 223.042 41.7546Z" fill="#0C1021"/>
<path d="M237.528 41.3037V46.0344H236.458V41.5177C236.458 41.0999 236.356 40.7203 236.152 40.379C235.948 40.0376 235.676 39.765 235.334 39.5612C234.993 39.3574 234.613 39.2555 234.196 39.2555C233.783 39.2555 233.403 39.3574 233.057 39.5612C232.716 39.765 232.443 40.0376 232.239 40.379C232.035 40.7203 231.933 41.0999 231.933 41.5177V46.0344H230.863V38.3919H231.933V39.4466C232.203 39.0594 232.555 38.7511 232.988 38.5219C233.421 38.2926 233.892 38.1779 234.402 38.1779C234.978 38.1779 235.502 38.3181 235.976 38.5983C236.45 38.8785 236.827 39.2555 237.107 39.7294C237.388 40.2032 237.528 40.728 237.528 41.3037Z" fill="#0C1021"/>
<path d="M242.964 39.4619H241.137L241.129 46.0344H240.059L240.067 39.4619H238.684V38.3919H240.067L240.059 35.9922H241.129L241.137 38.3919H242.964V39.4619Z" fill="#0C1021"/>
<path d="M246.629 46.1796C246.211 46.1694 245.804 46.093 245.406 45.9504C245.009 45.8077 244.663 45.6141 244.367 45.3695C244.072 45.125 243.86 44.8473 243.733 44.5365L244.657 44.1391C244.739 44.3378 244.889 44.5212 245.108 44.6893C245.333 44.8524 245.587 44.9848 245.873 45.0868C246.158 45.1836 246.441 45.232 246.721 45.232C247.032 45.232 247.322 45.181 247.592 45.0791C247.862 44.9772 248.081 44.832 248.249 44.6435C248.423 44.4499 248.509 44.2232 248.509 43.9633C248.509 43.6831 248.418 43.464 248.234 43.3061C248.051 43.143 247.819 43.0156 247.539 42.9239C247.258 42.8271 246.971 42.7354 246.675 42.6488C246.135 42.501 245.659 42.338 245.246 42.1597C244.833 41.9814 244.51 41.7546 244.275 41.4795C244.046 41.1993 243.931 40.8401 243.931 40.4019C243.931 39.9383 244.061 39.5383 244.321 39.202C244.586 38.8607 244.93 38.5983 245.353 38.4149C245.781 38.2263 246.237 38.1321 246.721 38.1321C247.343 38.1321 247.908 38.2671 248.418 38.5371C248.932 38.8072 249.304 39.1664 249.533 39.6147L248.67 40.1268C248.578 39.9179 248.433 39.737 248.234 39.5842C248.035 39.4313 247.809 39.3116 247.554 39.225C247.304 39.1383 247.05 39.0925 246.79 39.0874C246.464 39.0823 246.16 39.1307 245.88 39.2326C245.6 39.3294 245.373 39.4746 245.2 39.6682C245.032 39.8618 244.948 40.0988 244.948 40.379C244.948 40.6592 245.032 40.8732 245.2 41.0209C245.368 41.1636 245.595 41.2808 245.88 41.3725C246.171 41.4591 246.497 41.561 246.858 41.6782C247.322 41.826 247.758 41.9941 248.165 42.1826C248.573 42.3711 248.902 42.6055 249.151 42.8857C249.401 43.1659 249.523 43.52 249.518 43.948C249.518 44.4066 249.381 44.8065 249.105 45.1479C248.83 45.4893 248.474 45.7516 248.035 45.9351C247.597 46.1134 247.129 46.1949 246.629 46.1796Z" fill="#0C1021"/>
<path d="M251.104 46.2331C250.936 46.2331 250.793 46.172 250.676 46.0497C250.558 45.9325 250.5 45.7873 250.5 45.6141C250.5 45.451 250.558 45.3109 250.676 45.1937C250.793 45.0715 250.936 45.0103 251.104 45.0103C251.277 45.0103 251.422 45.0715 251.539 45.1937C251.662 45.3109 251.723 45.451 251.723 45.6141C251.723 45.7873 251.662 45.9325 251.539 46.0497C251.422 46.172 251.277 46.2331 251.104 46.2331Z" fill="#0C1021"/>
<path d="M260.808 35.3349H262.138L266.036 46.0344H264.897L264.064 43.7417H258.89L258.057 46.0344H256.918L260.808 35.3349ZM259.28 42.6717H263.667L261.473 36.6494L259.28 42.6717Z" fill="#0C1021"/>
<path d="M267.464 46.0344V34.5707H268.534V46.0344H267.464Z" fill="#0C1021"/>
<path d="M273.502 46.0344H272.402L269.841 38.3919H270.888L272.967 44.5518L275.031 38.3919H276.162L278.225 44.5518L280.289 38.3919H281.343L278.783 46.0344H277.675L275.581 39.8134L273.502 46.0344Z" fill="#0C1021"/>
<path d="M288.598 38.3919H289.668V46.0344H288.598L288.56 44.6129C288.31 45.0969 287.961 45.4893 287.513 45.7899C287.064 46.0854 286.529 46.2331 285.908 46.2331C285.347 46.2331 284.823 46.1287 284.334 45.9198C283.844 45.7058 283.414 45.4128 283.042 45.0409C282.67 44.669 282.38 44.2384 282.171 43.7493C281.962 43.2602 281.857 42.7354 281.857 42.175C281.857 41.6247 281.959 41.1076 282.163 40.6235C282.372 40.1395 282.657 39.7141 283.019 39.3472C283.386 38.9804 283.809 38.6951 284.288 38.4913C284.772 38.2824 285.289 38.1779 285.839 38.1779C286.476 38.1779 287.031 38.3308 287.505 38.6365C287.979 38.9371 288.356 39.332 288.636 39.8211L288.598 38.3919ZM285.885 45.1937C286.43 45.1937 286.899 45.0613 287.291 44.7963C287.684 44.5263 287.984 44.1646 288.193 43.7111C288.407 43.2576 288.514 42.7583 288.514 42.2132C288.514 41.6527 288.407 41.1483 288.193 40.7C287.979 40.2465 287.676 39.8873 287.284 39.6224C286.891 39.3574 286.425 39.225 285.885 39.225C285.345 39.225 284.851 39.36 284.402 39.63C283.959 39.895 283.605 40.2542 283.34 40.7076C283.08 41.1611 282.95 41.6629 282.95 42.2132C282.95 42.7685 283.085 43.2729 283.355 43.7264C283.625 44.1747 283.982 44.5314 284.425 44.7963C284.874 45.0613 285.36 45.1937 285.885 45.1937Z" fill="#0C1021"/>
<path d="M296.253 38.3919H297.384L293.204 49.8557H292.065L293.456 46.0344L290.713 38.3919H291.882L293.991 44.5594L296.253 38.3919Z" fill="#0C1021"/>
<path d="M301.067 46.1796C300.649 46.1694 300.242 46.093 299.844 45.9504C299.447 45.8077 299.1 45.6141 298.805 45.3695C298.509 45.125 298.298 44.8473 298.171 44.5365L299.095 44.1391C299.177 44.3378 299.327 44.5212 299.546 44.6893C299.77 44.8524 300.025 44.9848 300.31 45.0868C300.596 45.1836 300.879 45.232 301.159 45.232C301.47 45.232 301.76 45.181 302.03 45.0791C302.3 44.9772 302.519 44.832 302.687 44.6435C302.86 44.4499 302.947 44.2232 302.947 43.9633C302.947 43.6831 302.855 43.464 302.672 43.3061C302.489 43.143 302.257 43.0156 301.976 42.9239C301.696 42.8271 301.408 42.7354 301.113 42.6488C300.573 42.501 300.096 42.338 299.684 42.1597C299.271 41.9814 298.948 41.7546 298.713 41.4795C298.484 41.1993 298.369 40.8401 298.369 40.4019C298.369 39.9383 298.499 39.5383 298.759 39.202C299.024 38.8607 299.368 38.5983 299.791 38.4149C300.219 38.2263 300.675 38.1321 301.159 38.1321C301.78 38.1321 302.346 38.2671 302.855 38.5371C303.37 38.8072 303.742 39.1664 303.971 39.6147L303.108 40.1268C303.016 39.9179 302.871 39.737 302.672 39.5842C302.473 39.4313 302.247 39.3116 301.992 39.225C301.742 39.1383 301.487 39.0925 301.228 39.0874C300.901 39.0823 300.598 39.1307 300.318 39.2326C300.038 39.3294 299.811 39.4746 299.638 39.6682C299.47 39.8618 299.386 40.0988 299.386 40.379C299.386 40.6592 299.47 40.8732 299.638 41.0209C299.806 41.1636 300.033 41.2808 300.318 41.3725C300.608 41.4591 300.935 41.561 301.296 41.6782C301.76 41.826 302.196 41.9941 302.603 42.1826C303.011 42.3711 303.339 42.6055 303.589 42.8857C303.839 43.1659 303.961 43.52 303.956 43.948C303.956 44.4066 303.818 44.8065 303.543 45.1479C303.268 45.4893 302.911 45.7516 302.473 45.9351C302.035 46.1134 301.566 46.1949 301.067 46.1796Z" fill="#0C1021"/>
<path d="M313.913 46.2331C313.189 46.2331 312.509 46.0905 311.872 45.8051C311.235 45.5147 310.675 45.1148 310.191 44.6053C309.707 44.0958 309.327 43.5073 309.052 42.8399C308.777 42.1673 308.64 41.4489 308.64 40.6847C308.64 39.9204 308.777 39.2046 309.052 38.5371C309.327 37.8646 309.707 37.2736 310.191 36.7641C310.675 36.2546 311.235 35.8572 311.872 35.5718C312.509 35.2814 313.189 35.1362 313.913 35.1362C314.641 35.1362 315.324 35.2814 315.961 35.5718C316.598 35.8572 317.158 36.2546 317.642 36.7641C318.126 37.2736 318.503 37.8646 318.773 38.5371C319.049 39.2046 319.186 39.9204 319.186 40.6847C319.186 41.4489 319.049 42.1673 318.773 42.8399C318.503 43.5073 318.126 44.0958 317.642 44.6053C317.158 45.1148 316.598 45.5147 315.961 45.8051C315.324 46.0905 314.641 46.2331 313.913 46.2331ZM313.913 45.1632C314.499 45.1632 315.044 45.046 315.548 44.8116C316.058 44.5722 316.504 44.2461 316.886 43.8334C317.273 43.4207 317.574 42.9443 317.788 42.4042C318.007 41.8642 318.116 41.291 318.116 40.6847C318.116 40.0733 318.007 39.4975 317.788 38.9575C317.569 38.4123 317.265 37.9359 316.878 37.5283C316.496 37.1156 316.05 36.7921 315.541 36.5577C315.036 36.3234 314.494 36.2062 313.913 36.2062C313.327 36.2062 312.779 36.3259 312.27 36.5654C311.765 36.7997 311.319 37.1233 310.932 37.536C310.55 37.9487 310.25 38.425 310.03 38.9651C309.816 39.5052 309.71 40.0784 309.71 40.6847C309.71 41.3012 309.819 41.8795 310.038 42.4195C310.257 42.9596 310.558 43.436 310.94 43.8487C311.327 44.2614 311.773 44.5849 312.277 44.8193C312.787 45.0485 313.332 45.1632 313.913 45.1632Z" fill="#0C1021"/>
<path d="M327.342 41.3037V46.0344H326.272V41.5177C326.272 41.0999 326.17 40.7203 325.966 40.379C325.762 40.0376 325.49 39.765 325.148 39.5612C324.807 39.3574 324.428 39.2555 324.01 39.2555C323.597 39.2555 323.217 39.3574 322.871 39.5612C322.53 39.765 322.257 40.0376 322.053 40.379C321.849 40.7203 321.748 41.0999 321.748 41.5177V46.0344H320.678V38.3919H321.748V39.4466C322.018 39.0594 322.369 38.7511 322.802 38.5219C323.235 38.2926 323.707 38.1779 324.216 38.1779C324.792 38.1779 325.317 38.3181 325.79 38.5983C326.264 38.8785 326.641 39.2555 326.922 39.7294C327.202 40.2032 327.342 40.728 327.342 41.3037Z" fill="#0C1021"/>
<path d="M329.17 46.2331C329.002 46.2331 328.86 46.172 328.742 46.0497C328.625 45.9325 328.567 45.7873 328.567 45.6141C328.567 45.451 328.625 45.3109 328.742 45.1937C328.86 45.0715 329.002 45.0103 329.17 45.0103C329.344 45.0103 329.489 45.0715 329.606 45.1937C329.728 45.3109 329.79 45.451 329.79 45.6141C329.79 45.7873 329.728 45.9325 329.606 46.0497C329.489 46.172 329.344 46.2331 329.17 46.2331Z" fill="#0C1021"/>
</svg>
