<svg width="96" height="96" viewBox="0 0 96 96" fill="none" xmlns="http://www.w3.org/2000/svg">
<rect width="96" height="96" rx="48" fill="#4268FF"/>
<path d="M58.0002 37.9998C54.7426 37.9986 51.5623 38.9919 48.8844 40.8468C46.2064 42.7016 44.1585 45.3297 43.0142 48.3798L46.7622 49.7858C47.7522 47.1566 49.633 44.9579 52.0771 43.5726C54.5212 42.1873 57.3738 41.7031 60.1381 42.2044C62.9024 42.7057 65.4034 44.1607 67.2054 46.316C69.0075 48.4713 69.9965 51.1904 70.0002 53.9998C70.0002 57.1824 68.736 60.2346 66.4855 62.485C64.2351 64.7355 61.1828 65.9998 58.0002 65.9998H38.0002C35.1667 66.0015 32.4239 65.0006 30.2576 63.1741C28.0913 61.3476 26.6412 58.8135 26.164 56.0204C25.6869 53.2273 26.2136 50.3555 27.6507 47.9135C29.0879 45.4714 31.3428 43.6167 34.0162 42.6778C33.8449 39.223 34.9586 35.8271 37.1427 33.1448C39.3267 30.4625 42.4264 28.6837 45.8442 28.1512C49.262 27.6188 52.7559 28.3705 55.6523 30.2615C58.5487 32.1524 60.6426 35.0486 61.5302 38.3918C60.3718 38.1305 59.1878 37.999 58.0002 37.9998Z" fill="white"/>
</svg>
