<svg width="96" height="96" viewBox="0 0 96 96" fill="none" xmlns="http://www.w3.org/2000/svg">
<rect width="96" height="96" rx="48" fill="#4268FF"/>
<path d="M57 32.5C59.2543 32.5 61.4163 33.3955 63.0104 34.9896C64.6045 36.5837 65.5 38.7457 65.5 41C65.5 43.2543 64.6045 45.4164 63.0104 47.0104C61.4163 48.6045 59.2543 49.5 57 49.5H39C37.5413 49.5 36.1424 50.0795 35.1109 51.1109C34.0795 52.1424 33.5 53.5413 33.5 55C33.5 56.4587 34.0795 57.8576 35.1109 58.8891C36.1424 59.9205 37.5413 60.5 39 60.5H60.38L58.94 59.06C58.7926 58.9227 58.6744 58.7571 58.5924 58.5731C58.5105 58.3891 58.4664 58.1905 58.4628 57.9891C58.4593 57.7876 58.4963 57.5876 58.5718 57.4008C58.6472 57.214 58.7595 57.0444 58.9019 56.9019C59.0444 56.7595 59.214 56.6472 59.4008 56.5718C59.5876 56.4963 59.7876 56.4593 59.989 56.4628C60.1905 56.4664 60.3891 56.5105 60.5731 56.5924C60.7571 56.6744 60.9227 56.7926 61.06 56.94L65.06 60.94C65.3409 61.2213 65.4987 61.6025 65.4987 62C65.4987 62.3975 65.3409 62.7788 65.06 63.06L61.06 67.06C60.9227 67.2074 60.7571 67.3256 60.5731 67.4076C60.3891 67.4896 60.1905 67.5336 59.989 67.5372C59.7876 67.5407 59.5876 67.5037 59.4008 67.4283C59.214 67.3528 59.0444 67.2405 58.9019 67.0981C58.7595 66.9556 58.6472 66.786 58.5718 66.5992C58.4963 66.4124 58.4593 66.2124 58.4628 66.011C58.4664 65.8096 58.5105 65.6109 58.5924 65.4269C58.6744 65.2429 58.7926 65.0773 58.94 64.94L60.38 63.5H39C36.7457 63.5 34.5837 62.6045 32.9896 61.0104C31.3955 59.4164 30.5 57.2543 30.5 55C30.5 52.7457 31.3955 50.5837 32.9896 48.9896C34.5837 47.3955 36.7457 46.5 39 46.5H57C58.4587 46.5 59.8576 45.9205 60.8891 44.8891C61.9205 43.8576 62.5 42.4587 62.5 41C62.5 39.5413 61.9205 38.1424 60.8891 37.1109C59.8576 36.0795 58.4587 35.5 57 35.5H39.71C39.3619 36.3605 38.7253 37.0732 37.9094 37.5159C37.0935 37.9586 36.149 38.1037 35.2378 37.9264C34.3267 37.749 33.5055 37.2603 32.9151 36.544C32.3248 35.8277 32.0019 34.9283 32.0019 34C32.0019 33.0717 32.3248 32.1724 32.9151 31.456C33.5055 30.7397 34.3267 30.251 35.2378 30.0737C36.149 29.8963 37.0935 30.0415 37.9094 30.4841C38.7253 30.9268 39.3619 31.6395 39.71 32.5H57Z" fill="white"/>
</svg>
