<svg width="96" height="96" viewBox="0 0 96 96" fill="none" xmlns="http://www.w3.org/2000/svg">
<rect width="96" height="96" rx="48" fill="#4268FF"/>
<path d="M48 28C44.95 28 42.025 29.2116 39.8683 31.3683C37.7116 33.5249 36.5 36.45 36.5 39.5V45.5C36.4956 48.4229 37.6044 51.2377 39.6009 53.3725C41.5974 55.5072 44.3318 56.8017 47.2485 56.9927C50.1651 57.1837 53.045 56.257 55.3029 54.4008C57.5608 52.5447 59.0272 49.8985 59.404 47H50C49.6022 47 49.2207 46.842 48.9394 46.5607C48.658 46.2794 48.5 45.8978 48.5 45.5C48.5 45.1022 48.658 44.7206 48.9394 44.4393C49.2207 44.158 49.6022 44 50 44H59.5V41H50C49.6022 41 49.2207 40.842 48.9394 40.5607C48.658 40.2794 48.5 39.8978 48.5 39.5C48.5 39.1022 48.658 38.7206 48.9394 38.4393C49.2207 38.158 49.6022 38 50 38H59.402C59.0381 35.2336 57.6808 32.6939 55.583 30.8541C53.4853 29.0143 50.7902 27.9999 48 28Z" fill="white"/>
<path fill-rule="evenodd" clip-rule="evenodd" d="M32 42C32.3978 42 32.7794 42.158 33.0607 42.4393C33.342 42.7206 33.5 43.1022 33.5 43.5V45.5C33.5 47.4042 33.8751 49.2897 34.6037 51.0489C35.3324 52.8081 36.4005 54.4066 37.747 55.753C39.0934 57.0995 40.6919 58.1676 42.4511 58.8963C44.2103 59.6249 46.0958 60 48 60C49.9042 60 51.7897 59.6249 53.5489 58.8963C55.3081 58.1676 56.9066 57.0995 58.253 55.753C59.5995 54.4066 60.6676 52.8081 61.3963 51.0489C62.1249 49.2897 62.5 47.4042 62.5 45.5V43.5C62.5 43.1022 62.658 42.7206 62.9393 42.4393C63.2206 42.158 63.6022 42 64 42C64.3978 42 64.7794 42.158 65.0607 42.4393C65.342 42.7206 65.5 43.1022 65.5 43.5V45.5C65.5001 49.8817 63.8565 54.104 60.8939 57.3324C57.9314 60.5608 53.8656 62.5604 49.5 62.936V67.5C49.5 67.8978 49.342 68.2794 49.0607 68.5607C48.7794 68.842 48.3978 69 48 69C47.6022 69 47.2206 68.842 46.9393 68.5607C46.658 68.2794 46.5 67.8978 46.5 67.5V62.936C42.1344 62.5604 38.0686 60.5608 35.1061 57.3324C32.1435 54.104 30.4999 49.8817 30.5 45.5V43.5C30.5 43.1022 30.658 42.7206 30.9393 42.4393C31.2206 42.158 31.6022 42 32 42Z" fill="white"/>
</svg>
