<svg width="96" height="96" viewBox="0 0 96 96" fill="none" xmlns="http://www.w3.org/2000/svg">
<rect width="96" height="96" rx="48" fill="#4268FF"/>
<g clip-path="url(#clip0_2449_376)">
<path fill-rule="evenodd" clip-rule="evenodd" d="M42.9086 24C39.4896 24.0006 36.1347 24.9281 33.201 26.6839C30.2673 28.4397 27.8646 30.9581 26.2485 33.9711C24.6325 36.984 23.8636 40.3788 24.0237 43.794C24.1838 47.2093 25.2669 50.5172 27.1577 53.3657L24.6308 60.1269C24.5673 60.2972 24.55 60.4813 24.5808 60.6605C24.6115 60.8397 24.6892 61.0075 24.806 61.1469C24.9227 61.2863 25.0743 61.3922 25.2453 61.454C25.4163 61.5157 25.6006 61.531 25.7794 61.4983L34.6354 59.904C35.5154 60.3337 36.4206 60.6926 37.3508 60.9806C36.6027 57.7235 36.6948 54.3296 37.6186 51.1178C38.5423 47.9061 40.2674 44.9819 42.6317 42.62C44.9961 40.2581 47.922 38.536 51.1347 37.6155C54.3474 36.6949 57.7413 36.6063 60.9977 37.3577C59.8118 33.4868 57.4138 30.0993 54.157 27.6944C50.9002 25.2894 46.957 23.9944 42.9086 24ZM67.4811 45.6617C65.9446 44.1238 64.1004 42.9279 62.0693 42.1525C60.0383 41.3771 57.8663 41.0397 55.6958 41.1624C53.5253 41.2851 51.4052 41.8651 49.4744 42.8645C47.5437 43.8638 45.846 45.2598 44.4926 46.9612C42.3112 49.6998 41.1262 53.0989 41.1322 56.6001C41.1382 60.1013 42.3348 63.4963 44.5256 66.2275C46.7163 68.9586 49.7708 70.8634 53.1873 71.6289C56.6038 72.3944 60.179 71.9752 63.3257 70.44L70.224 71.6812C70.4026 71.7131 70.5864 71.6973 70.7569 71.6353C70.9274 71.5732 71.0785 71.4672 71.1948 71.3279C71.311 71.1887 71.3884 71.0211 71.419 70.8423C71.4497 70.6635 71.4324 70.4798 71.3691 70.3097L69.4217 65.1017C71.3913 62.1352 72.274 58.5787 71.9203 55.0355C71.5667 51.4922 69.9982 48.1804 67.4811 45.6617Z" fill="white"/>
</g>
<defs>
<clipPath id="clip0_2449_376">
<rect width="48" height="48" fill="white" transform="translate(24 24)"/>
</clipPath>
</defs>
</svg>
