<svg width="96" height="96" viewBox="0 0 96 96" fill="none" xmlns="http://www.w3.org/2000/svg">
<rect width="96" height="96" rx="48" fill="#4268FF"/>
<path d="M64.5001 48.4051C64.5076 48.1351 64.5076 47.8651 64.5001 47.5951L67.2976 44.1001C67.4443 43.9166 67.5458 43.7012 67.594 43.4713C67.6422 43.2413 67.6357 43.0033 67.5751 42.7763C67.1157 41.0527 66.4297 39.3977 65.5351 37.8545C65.4179 37.6526 65.2551 37.4808 65.0598 37.3529C64.8645 37.225 64.642 37.1444 64.4101 37.1176L59.9626 36.6226C59.7776 36.4276 59.5901 36.2401 59.4001 36.0601L58.8751 31.6013C58.8481 31.3692 58.7672 31.1467 58.639 30.9513C58.5107 30.756 58.3386 30.5934 58.1363 30.4763C56.5932 29.5824 54.9381 28.8977 53.2145 28.4401C52.9875 28.3794 52.7495 28.373 52.5195 28.4212C52.2896 28.4694 52.0742 28.5709 51.8907 28.7176L48.4051 31.5001H47.5951L44.1001 28.7082C43.9166 28.5615 43.7012 28.46 43.4713 28.4118C43.2413 28.3636 43.0033 28.3701 42.7763 28.4307C41.0527 28.8901 39.3977 29.5761 37.8545 30.4707C37.6526 30.5879 37.4808 30.7507 37.3529 30.946C37.225 31.1413 37.1444 31.3638 37.1176 31.5957L36.6226 36.0507C36.4276 36.237 36.2401 36.4245 36.0601 36.6132L31.6013 37.1251C31.3692 37.1521 31.1467 37.2329 30.9513 37.3612C30.756 37.4895 30.5934 37.6616 30.4763 37.8638C29.5826 39.4073 28.8973 41.0623 28.4382 42.7857C28.3778 43.0128 28.3717 43.2509 28.4202 43.4809C28.4687 43.7108 28.5706 43.9261 28.7176 44.1095L31.5001 47.5951V48.4051L28.7082 51.9001C28.5615 52.0836 28.46 52.299 28.4118 52.5289C28.3636 52.7588 28.3701 52.9969 28.4307 53.2238C28.8901 54.9474 29.5761 56.6025 30.4707 58.1457C30.5879 58.3476 30.7507 58.5194 30.946 58.6473C31.1413 58.7752 31.3638 58.8558 31.5957 58.8826L36.0432 59.3776C36.2295 59.5726 36.417 59.7601 36.6057 59.9401L37.1251 64.3988C37.1521 64.6309 37.2329 64.8535 37.3612 65.0488C37.4895 65.2442 37.6616 65.4068 37.8638 65.5238C39.4073 66.4176 41.0623 67.1029 42.7857 67.562C43.0128 67.6223 43.2509 67.6285 43.4809 67.58C43.7108 67.5315 43.9261 67.4296 44.1095 67.2826L47.5951 64.5001C47.8651 64.5076 48.1351 64.5076 48.4051 64.5001L51.9001 67.2976C52.0836 67.4443 52.299 67.5458 52.5289 67.594C52.7588 67.6422 52.9969 67.6357 53.2238 67.5751C54.9477 67.1165 56.6029 66.4305 58.1457 65.5351C58.3476 65.4179 58.5194 65.2551 58.6473 65.0598C58.7752 64.8645 58.8558 64.642 58.8826 64.4101L59.3776 59.9626C59.5726 59.7776 59.7601 59.5901 59.9401 59.4001L64.3988 58.8751C64.6309 58.8481 64.8535 58.7672 65.0488 58.639C65.2442 58.5107 65.4068 58.3386 65.5238 58.1363C66.4176 56.5929 67.1029 54.9379 67.562 53.2145C67.6223 52.9874 67.6285 52.7492 67.58 52.5193C67.5315 52.2894 67.4296 52.0741 67.2826 51.8907L64.5001 48.4051ZM48.0001 55.5001C46.5167 55.5001 45.0667 55.0602 43.8333 54.2361C42.5999 53.412 41.6386 52.2407 41.071 50.8702C40.5033 49.4998 40.3548 47.9918 40.6442 46.5369C40.9336 45.0821 41.6479 43.7457 42.6968 42.6968C43.7457 41.6479 45.0821 40.9336 46.5369 40.6442C47.9918 40.3548 49.4998 40.5033 50.8702 41.071C52.2407 41.6386 53.412 42.5999 54.2361 43.8333C55.0602 45.0667 55.5001 46.5167 55.5001 48.0001C55.5001 49.9892 54.7099 51.8969 53.3034 53.3034C51.8969 54.7099 49.9892 55.5001 48.0001 55.5001Z" fill="white"/>
</svg>
