<svg width="427" height="427" viewBox="0 0 427 427" fill="none" xmlns="http://www.w3.org/2000/svg">
<rect width="427" height="427" rx="22" fill="white"/>
<rect x="0.46" y="0.46" width="426.08" height="426.08" rx="21.54" stroke="#0C1021" stroke-opacity="0.05" stroke-width="0.92"/>
<!-- Header -->
<text x="50" y="52" font-family="Urbanist, sans-serif" font-weight="600" font-size="24" fill="#0C1021">Calls Handled</text>
<text x="377" y="52" text-anchor="end" font-family="Urbanist, sans-serif" font-weight="600" font-size="14" fill="#4268FF">12,400 / day</text>
<!-- Y-axis labels -->
<text x="42" y="105" text-anchor="end" font-family="Urbanist, sans-serif" font-size="12" fill="#535662">5800</text>
<text x="42" y="140" text-anchor="end" font-family="Urbanist, sans-serif" font-size="12" fill="#535662">4800</text>
<text x="42" y="175" text-anchor="end" font-family="Urbanist, sans-serif" font-size="12" fill="#535662">3800</text>
<text x="42" y="210" text-anchor="end" font-family="Urbanist, sans-serif" font-size="12" fill="#535662">2800</text>
<text x="42" y="245" text-anchor="end" font-family="Urbanist, sans-serif" font-size="12" fill="#535662">2000</text>
<text x="42" y="280" text-anchor="end" font-family="Urbanist, sans-serif" font-size="12" fill="#535662">1200</text>
<text x="42" y="315" text-anchor="end" font-family="Urbanist, sans-serif" font-size="12" fill="#535662">1000</text>
<text x="42" y="350" text-anchor="end" font-family="Urbanist, sans-serif" font-size="12" fill="#535662">600</text>
<!-- Grid lines -->
<line x1="50" y1="100" x2="390" y2="100" stroke="#535662" stroke-opacity="0.08" stroke-width="0.65"/>
<line x1="50" y1="135" x2="390" y2="135" stroke="#535662" stroke-opacity="0.08" stroke-width="0.65"/>
<line x1="50" y1="170" x2="390" y2="170" stroke="#535662" stroke-opacity="0.08" stroke-width="0.65"/>
<line x1="50" y1="205" x2="390" y2="205" stroke="#535662" stroke-opacity="0.08" stroke-width="0.65"/>
<line x1="50" y1="240" x2="390" y2="240" stroke="#535662" stroke-opacity="0.08" stroke-width="0.65"/>
<line x1="50" y1="275" x2="390" y2="275" stroke="#535662" stroke-opacity="0.08" stroke-width="0.65"/>
<line x1="50" y1="310" x2="390" y2="310" stroke="#535662" stroke-opacity="0.08" stroke-width="0.65"/>
<!-- Bar charts with gradient -->
<defs>
<linearGradient id="barGrad" x1="0" y1="0" x2="0" y2="1">
<stop offset="0%" stop-color="#4268FF"/>
<stop offset="100%" stop-color="#4268FF" stop-opacity="0.3"/>
</linearGradient>
</defs>
<!-- Bar 1 -->
<rect x="85" y="140" width="55" height="230" rx="7" fill="url(#barGrad)" stroke="#4268FF" stroke-width="0.6"/>
<!-- Bar 2 -->
<rect x="155" y="195" width="55" height="175" rx="7" fill="url(#barGrad)" stroke="#4268FF" stroke-width="0.6"/>
<!-- Bar 3 -->
<rect x="225" y="115" width="55" height="255" rx="7" fill="url(#barGrad)" stroke="#4268FF" stroke-width="0.6"/>
<!-- Bar 4 -->
<rect x="295" y="240" width="55" height="130" rx="7" fill="url(#barGrad)" stroke="#4268FF" stroke-width="0.6"/>
<!-- Bottom fade -->
<rect x="50" y="320" width="350" height="60" fill="url(#fadeBottom)"/>
<defs>
<linearGradient id="fadeBottom" x1="0" y1="0" x2="0" y2="1">
<stop offset="0%" stop-color="white" stop-opacity="0"/>
<stop offset="100%" stop-color="white"/>
</linearGradient>
</defs>
</svg>