<svg width="427" height="427" viewBox="0 0 427 427" fill="none" xmlns="http://www.w3.org/2000/svg">
<rect width="427" height="427" rx="22.0629" fill="white"/>
<rect x="0.459644" y="0.459644" width="426.081" height="426.081" rx="21.6033" stroke="#0C1021" stroke-opacity="0.05" stroke-width="0.919289"/>
<rect x="39" y="132" width="184.318" height="51.1743" rx="25.5871" fill="white"/>
<rect x="39.4569" y="132.457" width="183.405" height="50.2605" rx="25.1302" stroke="#2D2D2D" stroke-opacity="0.1" stroke-width="0.913826"/>
<path d="M66.98 162.777C66.2879 162.777 65.6373 162.641 65.0281 162.368C64.4189 162.09 63.8827 161.71 63.4197 161.227C62.9616 160.74 62.601 160.174 62.3378 159.531C62.0795 158.888 61.9503 158.201 61.9503 157.469C61.9503 156.738 62.0795 156.051 62.3378 155.408C62.601 154.765 62.9616 154.202 63.4197 153.719C63.8827 153.232 64.4189 152.852 65.0281 152.579C65.6373 152.301 66.2879 152.162 66.98 152.162C67.8085 152.162 68.5713 152.354 69.2682 152.74C69.9652 153.125 70.5427 153.636 71.0008 154.275L69.9116 154.86C69.5704 154.411 69.1391 154.055 68.6176 153.792C68.101 153.524 67.5551 153.39 66.98 153.39C66.4488 153.39 65.9516 153.497 65.4886 153.712C65.0305 153.926 64.6284 154.221 64.2824 154.596C63.9364 154.972 63.6659 155.405 63.4709 155.898C63.276 156.39 63.1785 156.914 63.1785 157.469C63.1785 158.03 63.276 158.556 63.4709 159.049C63.6707 159.541 63.9437 159.975 64.2897 160.35C64.6406 160.725 65.0451 161.02 65.5033 161.234C65.9663 161.444 66.4585 161.549 66.98 161.549C67.5746 161.549 68.1253 161.415 68.6322 161.147C69.1439 160.874 69.5704 160.518 69.9116 160.079L71.0008 160.672C70.5427 161.31 69.9652 161.822 69.2682 162.207C68.5713 162.587 67.8085 162.777 66.98 162.777ZM72.4804 162.587V152.352H76.0773C76.6231 152.352 77.1154 152.486 77.554 152.754C77.9975 153.022 78.3484 153.385 78.6067 153.843C78.8699 154.297 79.0015 154.804 79.0015 155.364C79.0015 155.856 78.904 156.305 78.7091 156.709C78.5141 157.114 78.2461 157.452 77.9049 157.725C77.5686 157.993 77.186 158.179 76.7572 158.281L79.2428 162.587H77.8245L75.3828 158.383H73.7086V162.587H72.4804ZM73.7086 157.155H75.953C76.2844 157.155 76.589 157.075 76.8668 156.914C77.1446 156.748 77.3639 156.526 77.5248 156.249C77.6905 155.966 77.7733 155.649 77.7733 155.298C77.7733 154.942 77.6905 154.626 77.5248 154.348C77.3639 154.065 77.1446 153.843 76.8668 153.683C76.589 153.517 76.2844 153.434 75.953 153.434H73.7086V157.155ZM80.8191 162.587L82.8003 152.352H83.7434L86.5068 159.619L89.2629 152.352H90.2059L92.1944 162.587H90.9443L89.5041 155.159L86.9088 162.031H86.0974L83.5021 155.159L82.0692 162.587H80.8191ZM102.205 162.777C101.513 162.777 100.862 162.641 100.253 162.368C99.644 162.09 99.1079 161.71 98.6449 161.227C98.1868 160.74 97.8261 160.174 97.5629 159.531C97.3046 158.888 97.1755 158.201 97.1755 157.469C97.1755 156.738 97.3046 156.051 97.5629 155.408C97.8261 154.765 98.1868 154.202 98.6449 153.719C99.1079 153.232 99.644 152.852 100.253 152.579C100.862 152.301 101.513 152.162 102.205 152.162C103.034 152.162 103.796 152.354 104.493 152.74C105.19 153.125 105.768 153.636 106.226 154.275L105.137 154.86C104.796 154.411 104.364 154.055 103.843 153.792C103.326 153.524 102.78 153.39 102.205 153.39C101.674 153.39 101.177 153.497 100.714 153.712C100.256 153.926 99.8536 154.221 99.5075 154.596C99.1615 154.972 98.891 155.405 98.6961 155.898C98.5011 156.39 98.4036 156.914 98.4036 157.469C98.4036 158.03 98.5011 158.556 98.6961 159.049C98.8959 159.541 99.1688 159.975 99.5149 160.35C99.8658 160.725 100.27 161.02 100.728 161.234C101.191 161.444 101.684 161.549 102.205 161.549C102.8 161.549 103.35 161.415 103.857 161.147C104.369 160.874 104.796 160.518 105.137 160.079L106.226 160.672C105.768 161.31 105.19 161.822 104.493 162.207C103.796 162.587 103.034 162.777 102.205 162.777ZM110.522 162.777C109.85 162.777 109.236 162.604 108.68 162.258C108.129 161.912 107.688 161.449 107.357 160.869C107.03 160.284 106.867 159.638 106.867 158.932C106.867 158.395 106.962 157.896 107.152 157.433C107.342 156.965 107.603 156.556 107.935 156.205C108.271 155.849 108.661 155.571 109.104 155.371C109.548 155.172 110.02 155.072 110.522 155.072C111.195 155.072 111.807 155.245 112.357 155.591C112.913 155.937 113.354 156.402 113.681 156.987C114.012 157.572 114.178 158.22 114.178 158.932C114.178 159.463 114.083 159.96 113.893 160.423C113.703 160.886 113.439 161.295 113.103 161.651C112.772 162.002 112.384 162.277 111.941 162.477C111.502 162.677 111.029 162.777 110.522 162.777ZM110.522 161.549C110.981 161.549 111.392 161.429 111.758 161.191C112.128 160.947 112.418 160.628 112.628 160.233C112.842 159.833 112.95 159.399 112.95 158.932C112.95 158.454 112.84 158.015 112.621 157.616C112.406 157.216 112.116 156.897 111.751 156.658C111.385 156.419 110.976 156.3 110.522 156.3C110.064 156.3 109.652 156.422 109.287 156.665C108.921 156.904 108.631 157.223 108.417 157.623C108.203 158.023 108.095 158.459 108.095 158.932C108.095 159.419 108.205 159.862 108.424 160.262C108.644 160.657 108.938 160.971 109.309 161.205C109.679 161.434 110.084 161.549 110.522 161.549ZM121.85 158.04V162.587H120.622V158.31C120.622 157.94 120.532 157.604 120.351 157.301C120.171 156.999 119.93 156.76 119.628 156.585C119.325 156.405 118.989 156.314 118.619 156.314C118.253 156.314 117.917 156.405 117.61 156.585C117.308 156.76 117.066 156.999 116.886 157.301C116.706 157.604 116.616 157.94 116.616 158.31V162.587H115.387V155.276H116.616V156.19C116.874 155.849 117.2 155.578 117.595 155.379C117.99 155.174 118.419 155.072 118.882 155.072C119.428 155.072 119.925 155.206 120.373 155.474C120.827 155.737 121.185 156.093 121.448 156.541C121.716 156.989 121.85 157.489 121.85 158.04ZM129.775 158.04V162.587H128.546V158.31C128.546 157.94 128.456 157.604 128.276 157.301C128.096 156.999 127.854 156.76 127.552 156.585C127.25 156.405 126.914 156.314 126.543 156.314C126.178 156.314 125.842 156.405 125.534 156.585C125.232 156.76 124.991 156.999 124.811 157.301C124.63 157.604 124.54 157.94 124.54 158.31V162.587H123.312V155.276H124.54V156.19C124.799 155.849 125.125 155.578 125.52 155.379C125.915 155.174 126.344 155.072 126.807 155.072C127.352 155.072 127.849 155.206 128.298 155.474C128.751 155.737 129.109 156.093 129.373 156.541C129.641 156.989 129.775 157.489 129.775 158.04ZM134.311 162.777C133.638 162.777 133.024 162.604 132.468 162.258C131.918 161.912 131.476 161.449 131.145 160.869C130.818 160.284 130.655 159.638 130.655 158.932C130.655 158.395 130.75 157.896 130.94 157.433C131.13 156.965 131.391 156.556 131.723 156.205C132.059 155.849 132.449 155.571 132.892 155.371C133.336 155.172 133.809 155.072 134.311 155.072C134.861 155.072 135.366 155.184 135.824 155.408C136.287 155.627 136.682 155.934 137.008 156.329C137.34 156.724 137.586 157.182 137.746 157.703C137.912 158.225 137.973 158.783 137.929 159.378H131.964C132.022 159.792 132.159 160.162 132.373 160.489C132.588 160.81 132.861 161.066 133.192 161.256C133.528 161.446 133.901 161.544 134.311 161.549C134.749 161.549 135.146 161.437 135.502 161.213C135.858 160.983 136.145 160.672 136.365 160.277L137.615 160.569C137.322 161.217 136.881 161.749 136.292 162.163C135.702 162.572 135.042 162.777 134.311 162.777ZM131.927 158.413H136.694C136.655 158.003 136.523 157.63 136.299 157.294C136.075 156.953 135.79 156.68 135.444 156.475C135.098 156.271 134.72 156.168 134.311 156.168C133.901 156.168 133.526 156.268 133.185 156.468C132.844 156.668 132.561 156.938 132.337 157.279C132.117 157.616 131.981 157.993 131.927 158.413ZM144.155 160.657L145.252 161.249C144.921 161.712 144.499 162.082 143.987 162.36C143.48 162.638 142.93 162.777 142.335 162.777C141.662 162.777 141.048 162.604 140.493 162.258C139.942 161.912 139.501 161.449 139.17 160.869C138.843 160.284 138.68 159.638 138.68 158.932C138.68 158.395 138.775 157.896 138.965 157.433C139.155 156.965 139.416 156.556 139.747 156.205C140.083 155.849 140.473 155.571 140.917 155.371C141.36 155.172 141.833 155.072 142.335 155.072C142.93 155.072 143.48 155.211 143.987 155.488C144.499 155.766 144.921 156.139 145.252 156.607L144.155 157.199C143.921 156.911 143.644 156.69 143.322 156.534C143 156.378 142.671 156.3 142.335 156.3C141.882 156.3 141.47 156.422 141.1 156.665C140.734 156.904 140.444 157.223 140.23 157.623C140.015 158.023 139.908 158.459 139.908 158.932C139.908 159.404 140.015 159.841 140.23 160.24C140.449 160.635 140.741 160.952 141.107 161.191C141.477 161.429 141.887 161.549 142.335 161.549C142.696 161.549 143.034 161.466 143.351 161.3C143.668 161.135 143.936 160.92 144.155 160.657ZM150.359 156.504H148.699L148.692 162.587H147.464L147.471 156.504H146.214V155.276H147.471L147.464 152.981H148.692L148.699 155.276H150.359V156.504ZM154.7 162.777C154.028 162.777 153.414 162.604 152.858 162.258C152.307 161.912 151.866 161.449 151.535 160.869C151.208 160.284 151.045 159.638 151.045 158.932C151.045 158.395 151.14 157.896 151.33 157.433C151.52 156.965 151.781 156.556 152.112 156.205C152.449 155.849 152.838 155.571 153.282 155.371C153.726 155.172 154.198 155.072 154.7 155.072C155.251 155.072 155.755 155.184 156.214 155.408C156.677 155.627 157.071 155.934 157.398 156.329C157.729 156.724 157.975 157.182 158.136 157.703C158.302 158.225 158.363 158.783 158.319 159.378H152.354C152.412 159.792 152.548 160.162 152.763 160.489C152.977 160.81 153.25 161.066 153.582 161.256C153.918 161.446 154.291 161.544 154.7 161.549C155.139 161.549 155.536 161.437 155.892 161.213C156.248 160.983 156.535 160.672 156.755 160.277L158.005 160.569C157.712 161.217 157.271 161.749 156.681 162.163C156.092 162.572 155.431 162.777 154.7 162.777ZM152.317 158.413H157.084C157.045 158.003 156.913 157.63 156.689 157.294C156.465 156.953 156.179 156.68 155.833 156.475C155.487 156.271 155.11 156.168 154.7 156.168C154.291 156.168 153.916 156.268 153.574 156.468C153.233 156.668 152.951 156.938 152.726 157.279C152.507 157.616 152.371 157.993 152.317 158.413ZM165.393 151.621H166.621V162.587H165.393V161.344C165.145 161.773 164.811 162.119 164.392 162.382C163.972 162.645 163.48 162.777 162.915 162.777C162.384 162.777 161.887 162.677 161.423 162.477C160.96 162.277 160.551 162.002 160.195 161.651C159.844 161.295 159.569 160.886 159.369 160.423C159.169 159.96 159.069 159.463 159.069 158.932C159.069 158.4 159.169 157.903 159.369 157.44C159.569 156.972 159.844 156.563 160.195 156.212C160.551 155.856 160.96 155.578 161.423 155.379C161.887 155.179 162.384 155.079 162.915 155.079C163.48 155.079 163.972 155.211 164.392 155.474C164.811 155.737 165.145 156.083 165.393 156.512V151.621ZM162.929 161.585C163.412 161.585 163.829 161.468 164.18 161.234C164.535 160.996 164.808 160.674 164.998 160.269C165.193 159.865 165.291 159.419 165.291 158.932C165.291 158.434 165.193 157.986 164.998 157.586C164.803 157.182 164.528 156.863 164.172 156.629C163.821 156.39 163.407 156.271 162.929 156.271C162.447 156.271 162.008 156.39 161.614 156.629C161.224 156.868 160.912 157.189 160.678 157.594C160.444 157.993 160.327 158.439 160.327 158.932C160.327 159.424 160.446 159.872 160.685 160.277C160.924 160.676 161.241 160.996 161.636 161.234C162.03 161.468 162.462 161.585 162.929 161.585Z" fill="#0C1021"/>
<rect x="179.449" y="139.311" width="36.5588" height="36.5531" rx="18.2765" fill="#3DEC82" fill-opacity="0.15"/>
<rect x="179.906" y="139.767" width="35.6449" height="35.6392" rx="17.8196" stroke="#28BC62" stroke-opacity="0.1" stroke-width="0.913826"/>
<path d="M188.59 157.587C188.59 155.163 189.553 152.839 191.267 151.125C192.981 149.412 195.305 148.449 197.729 148.449C200.152 148.449 202.477 149.412 204.19 151.125C205.904 152.839 206.867 155.163 206.867 157.587C206.867 160.011 205.904 162.335 204.19 164.049C202.477 165.762 200.152 166.725 197.729 166.725C195.305 166.725 192.981 165.762 191.267 164.049C189.553 162.335 188.59 160.011 188.59 157.587ZM202.031 155.949C202.116 155.864 202.183 155.764 202.229 155.653C202.275 155.542 202.299 155.423 202.299 155.302C202.299 155.182 202.275 155.063 202.229 154.952C202.183 154.841 202.116 154.74 202.031 154.655C201.946 154.57 201.845 154.503 201.734 154.457C201.623 154.411 201.504 154.387 201.384 154.387C201.264 154.387 201.145 154.411 201.034 154.457C200.923 154.503 200.822 154.57 200.737 154.655L196.815 158.579L194.72 156.483C194.635 156.398 194.534 156.331 194.423 156.285C194.312 156.239 194.193 156.215 194.073 156.215C193.953 156.215 193.834 156.239 193.723 156.285C193.612 156.331 193.511 156.398 193.426 156.483C193.341 156.568 193.274 156.669 193.228 156.78C193.182 156.891 193.158 157.01 193.158 157.13C193.158 157.25 193.182 157.369 193.228 157.48C193.274 157.591 193.341 157.692 193.426 157.777L196.168 160.519C196.253 160.604 196.354 160.671 196.465 160.717C196.576 160.763 196.695 160.787 196.815 160.787C196.935 160.787 197.054 160.763 197.165 160.717C197.276 160.671 197.377 160.604 197.462 160.519L202.031 155.949Z" fill="#28BC62"/>
<rect x="207" y="230" width="188.318" height="51.1743" rx="25.5871" fill="white"/>
<rect x="207.457" y="230.457" width="187.405" height="50.2605" rx="25.1302" stroke="#2D2D2D" stroke-opacity="0.1" stroke-width="0.913826"/>
<path d="M237.65 250.352V251.58H234.243V260.587H233.015V251.58H229.616V250.352H237.65ZM241.192 260.777C240.52 260.777 239.906 260.604 239.35 260.258C238.799 259.912 238.358 259.449 238.027 258.869C237.7 258.284 237.537 257.638 237.537 256.932C237.537 256.395 237.632 255.896 237.822 255.433C238.012 254.965 238.273 254.556 238.604 254.205C238.941 253.849 239.33 253.571 239.774 253.371C240.217 253.172 240.69 253.072 241.192 253.072C241.743 253.072 242.247 253.184 242.706 253.408C243.169 253.627 243.563 253.934 243.89 254.329C244.221 254.724 244.467 255.182 244.628 255.703C244.794 256.225 244.855 256.783 244.811 257.378H238.846C238.904 257.792 239.04 258.162 239.255 258.489C239.469 258.81 239.742 259.066 240.074 259.256C240.41 259.446 240.783 259.544 241.192 259.549C241.631 259.549 242.028 259.437 242.384 259.213C242.74 258.983 243.027 258.672 243.247 258.277L244.497 258.569C244.204 259.217 243.763 259.749 243.173 260.163C242.584 260.572 241.923 260.777 241.192 260.777ZM238.809 256.413H243.575C243.537 256.003 243.405 255.63 243.181 255.294C242.957 254.953 242.671 254.68 242.325 254.475C241.979 254.271 241.602 254.168 241.192 254.168C240.783 254.168 240.408 254.268 240.066 254.468C239.725 254.668 239.443 254.938 239.218 255.279C238.999 255.616 238.863 255.993 238.809 256.413ZM245.972 260.587V249.621H247.2V260.587H245.972ZM252.101 260.777C251.428 260.777 250.814 260.604 250.259 260.258C249.708 259.912 249.267 259.449 248.936 258.869C248.609 258.284 248.446 257.638 248.446 256.932C248.446 256.395 248.541 255.896 248.731 255.433C248.921 254.965 249.182 254.556 249.513 254.205C249.849 253.849 250.239 253.571 250.683 253.371C251.126 253.172 251.599 253.072 252.101 253.072C252.652 253.072 253.156 253.184 253.614 253.408C254.077 253.627 254.472 253.934 254.799 254.329C255.13 254.724 255.376 255.182 255.537 255.703C255.703 256.225 255.764 256.783 255.72 257.378H249.754C249.813 257.792 249.949 258.162 250.164 258.489C250.378 258.81 250.651 259.066 250.983 259.256C251.319 259.446 251.692 259.544 252.101 259.549C252.54 259.549 252.937 259.437 253.293 259.213C253.648 258.983 253.936 258.672 254.155 258.277L255.405 258.569C255.113 259.217 254.672 259.749 254.082 260.163C253.492 260.572 252.832 260.777 252.101 260.777ZM249.718 256.413H254.484C254.445 256.003 254.314 255.63 254.09 255.294C253.865 254.953 253.58 254.68 253.234 254.475C252.888 254.271 252.51 254.168 252.101 254.168C251.692 254.168 251.316 254.268 250.975 254.468C250.634 254.668 250.351 254.938 250.127 255.279C249.908 255.616 249.771 255.993 249.718 256.413ZM258.18 264.242H256.952V253.276H258.18V254.526C258.428 254.098 258.76 253.751 259.174 253.488C259.588 253.22 260.081 253.086 260.651 253.086C261.182 253.086 261.679 253.186 262.142 253.386C262.61 253.586 263.02 253.864 263.37 254.219C263.721 254.57 263.997 254.977 264.197 255.44C264.396 255.903 264.496 256.4 264.496 256.932C264.496 257.463 264.396 257.962 264.197 258.43C263.997 258.898 263.721 259.31 263.37 259.666C263.02 260.017 262.61 260.292 262.142 260.492C261.679 260.692 261.182 260.792 260.651 260.792C260.081 260.792 259.588 260.66 259.174 260.397C258.76 260.129 258.428 259.78 258.18 259.351V264.242ZM260.636 254.278C260.164 254.278 259.749 254.397 259.393 254.636C259.038 254.875 258.762 255.194 258.567 255.594C258.377 255.993 258.282 256.439 258.282 256.932C258.282 257.419 258.377 257.865 258.567 258.269C258.762 258.674 259.035 258.996 259.386 259.234C259.742 259.473 260.159 259.593 260.636 259.593C261.109 259.593 261.543 259.476 261.938 259.242C262.332 259.003 262.649 258.684 262.888 258.284C263.127 257.88 263.246 257.429 263.246 256.932C263.246 256.444 263.129 256.001 262.895 255.601C262.661 255.197 262.347 254.875 261.952 254.636C261.557 254.397 261.119 254.278 260.636 254.278ZM272.11 256.04V260.587H270.882V256.31C270.882 255.94 270.792 255.604 270.611 255.301C270.431 254.999 270.19 254.76 269.888 254.585C269.585 254.405 269.249 254.314 268.879 254.314C268.513 254.314 268.177 254.405 267.87 254.585C267.568 254.76 267.326 254.999 267.146 255.301C266.966 255.604 266.876 255.94 266.876 256.31V260.587H265.647V249.621H266.876V254.19C267.134 253.849 267.46 253.578 267.855 253.379C268.25 253.174 268.679 253.072 269.142 253.072C269.688 253.072 270.185 253.206 270.633 253.474C271.086 253.737 271.445 254.093 271.708 254.541C271.976 254.989 272.11 255.489 272.11 256.04ZM276.646 260.777C275.973 260.777 275.359 260.604 274.804 260.258C274.253 259.912 273.812 259.449 273.48 258.869C273.154 258.284 272.991 257.638 272.991 256.932C272.991 256.395 273.086 255.896 273.276 255.433C273.466 254.965 273.726 254.556 274.058 254.205C274.394 253.849 274.784 253.571 275.228 253.371C275.671 253.172 276.144 253.072 276.646 253.072C277.318 253.072 277.93 253.245 278.481 253.591C279.036 253.937 279.477 254.402 279.804 254.987C280.135 255.572 280.301 256.22 280.301 256.932C280.301 257.463 280.206 257.96 280.016 258.423C279.826 258.886 279.563 259.295 279.226 259.651C278.895 260.002 278.508 260.277 278.064 260.477C277.625 260.677 277.153 260.777 276.646 260.777ZM276.646 259.549C277.104 259.549 277.516 259.429 277.881 259.191C278.252 258.947 278.542 258.628 278.751 258.233C278.966 257.833 279.073 257.399 279.073 256.932C279.073 256.454 278.963 256.015 278.744 255.616C278.53 255.216 278.24 254.897 277.874 254.658C277.508 254.419 277.099 254.3 276.646 254.3C276.188 254.3 275.776 254.422 275.41 254.665C275.045 254.904 274.755 255.223 274.54 255.623C274.326 256.023 274.219 256.459 274.219 256.932C274.219 257.419 274.328 257.862 274.548 258.262C274.767 258.657 275.062 258.971 275.432 259.205C275.803 259.434 276.207 259.549 276.646 259.549ZM287.973 256.04V260.587H286.745V256.31C286.745 255.94 286.655 255.604 286.475 255.301C286.294 254.999 286.053 254.76 285.751 254.585C285.449 254.405 285.113 254.314 284.742 254.314C284.377 254.314 284.04 254.405 283.733 254.585C283.431 254.76 283.19 254.999 283.009 255.301C282.829 255.604 282.739 255.94 282.739 256.31V260.587H281.511V253.276H282.739V254.19C282.997 253.849 283.324 253.578 283.719 253.379C284.113 253.174 284.542 253.072 285.005 253.072C285.551 253.072 286.048 253.206 286.497 253.474C286.95 253.737 287.308 254.093 287.571 254.541C287.839 254.989 287.973 255.489 287.973 256.04ZM294.215 253.276H295.516L291.517 264.242H290.216L291.539 260.587L288.915 253.276H290.26L292.153 258.898L294.215 253.276ZM303.916 250.352H305.4L309.121 260.587H307.82L307.059 258.496H302.256L301.503 260.587H300.195L303.916 250.352ZM302.709 257.268H306.606L304.654 251.924L302.709 257.268ZM314.891 258.657L315.987 259.249C315.656 259.712 315.234 260.082 314.723 260.36C314.216 260.638 313.665 260.777 313.07 260.777C312.398 260.777 311.784 260.604 311.228 260.258C310.677 259.912 310.236 259.449 309.905 258.869C309.578 258.284 309.415 257.638 309.415 256.932C309.415 256.395 309.51 255.896 309.7 255.433C309.89 254.965 310.151 254.556 310.482 254.205C310.819 253.849 311.209 253.571 311.652 253.371C312.096 253.172 312.568 253.072 313.07 253.072C313.665 253.072 314.216 253.211 314.723 253.488C315.234 253.766 315.656 254.139 315.987 254.607L314.891 255.199C314.657 254.911 314.379 254.69 314.057 254.534C313.736 254.378 313.407 254.3 313.07 254.3C312.617 254.3 312.205 254.422 311.835 254.665C311.469 254.904 311.179 255.223 310.965 255.623C310.75 256.023 310.643 256.459 310.643 256.932C310.643 257.404 310.75 257.841 310.965 258.24C311.184 258.635 311.477 258.952 311.842 259.191C312.213 259.429 312.622 259.549 313.07 259.549C313.431 259.549 313.77 259.466 314.087 259.3C314.403 259.135 314.671 258.92 314.891 258.657ZM321.094 254.504H319.435L319.427 260.587H318.199L318.206 254.504H316.949V253.276H318.206L318.199 250.981H319.427L319.435 253.276H321.094V254.504ZM322.333 253.276H323.561V260.587H322.333V253.276ZM322.962 252.085C322.767 252.085 322.604 252.021 322.472 251.895C322.34 251.768 322.275 251.609 322.275 251.419C322.275 251.229 322.34 251.071 322.472 250.944C322.604 250.818 322.764 250.754 322.955 250.754C323.145 250.754 323.305 250.818 323.437 250.944C323.569 251.071 323.634 251.229 323.634 251.419C323.634 251.609 323.569 251.768 323.437 251.895C323.31 252.021 323.152 252.085 322.962 252.085ZM328.99 260.587H327.419L324.75 253.262H326.059L328.201 259.161L330.343 253.262H331.651L328.99 260.587ZM335.759 260.777C335.086 260.777 334.472 260.604 333.917 260.258C333.366 259.912 332.925 259.449 332.593 258.869C332.267 258.284 332.104 257.638 332.104 256.932C332.104 256.395 332.199 255.896 332.389 255.433C332.579 254.965 332.84 254.556 333.171 254.205C333.507 253.849 333.897 253.571 334.341 253.371C334.784 253.172 335.257 253.072 335.759 253.072C336.31 253.072 336.814 253.184 337.272 253.408C337.735 253.627 338.13 253.934 338.457 254.329C338.788 254.724 339.034 255.182 339.195 255.703C339.361 256.225 339.422 256.783 339.378 257.378H333.412C333.471 257.792 333.607 258.162 333.822 258.489C334.036 258.81 334.309 259.066 334.64 259.256C334.977 259.446 335.35 259.544 335.759 259.549C336.198 259.549 336.595 259.437 336.951 259.213C337.306 258.983 337.594 258.672 337.813 258.277L339.063 258.569C338.771 259.217 338.33 259.749 337.74 260.163C337.15 260.572 336.49 260.777 335.759 260.777ZM333.376 256.413H338.142C338.103 256.003 337.972 255.63 337.747 255.294C337.523 254.953 337.238 254.68 336.892 254.475C336.546 254.271 336.168 254.168 335.759 254.168C335.35 254.168 334.974 254.268 334.633 254.468C334.292 254.668 334.009 254.938 333.785 255.279C333.566 255.616 333.429 255.993 333.376 256.413Z" fill="#0C1021"/>
<rect x="351.449" y="237.311" width="36.5588" height="36.5531" rx="18.2765" fill="#3DEC82" fill-opacity="0.15"/>
<rect x="351.906" y="237.767" width="35.6449" height="35.6392" rx="17.8196" stroke="#28BC62" stroke-opacity="0.1" stroke-width="0.913826"/>
<path d="M360.59 255.587C360.59 253.163 361.553 250.839 363.267 249.125C364.981 247.412 367.305 246.449 369.729 246.449C372.152 246.449 374.477 247.412 376.19 249.125C377.904 250.839 378.867 253.163 378.867 255.587C378.867 258.011 377.904 260.335 376.19 262.049C374.477 263.762 372.152 264.725 369.729 264.725C367.305 264.725 364.981 263.762 363.267 262.049C361.553 260.335 360.59 258.011 360.59 255.587ZM374.031 253.949C374.116 253.864 374.183 253.764 374.229 253.653C374.275 253.542 374.299 253.423 374.299 253.302C374.299 253.182 374.275 253.063 374.229 252.952C374.183 252.841 374.116 252.74 374.031 252.655C373.946 252.57 373.845 252.503 373.734 252.457C373.623 252.411 373.504 252.387 373.384 252.387C373.264 252.387 373.145 252.411 373.034 252.457C372.923 252.503 372.822 252.57 372.737 252.655L368.815 256.579L366.72 254.483C366.635 254.398 366.534 254.331 366.423 254.285C366.312 254.239 366.193 254.215 366.073 254.215C365.953 254.215 365.834 254.239 365.723 254.285C365.612 254.331 365.511 254.398 365.426 254.483C365.341 254.568 365.274 254.669 365.228 254.78C365.182 254.891 365.158 255.01 365.158 255.13C365.158 255.25 365.182 255.369 365.228 255.48C365.274 255.591 365.341 255.692 365.426 255.777L368.168 258.519C368.253 258.604 368.354 258.671 368.465 258.717C368.576 258.763 368.695 258.787 368.815 258.787C368.935 258.787 369.054 258.763 369.165 258.717C369.276 258.671 369.377 258.604 369.462 258.519L374.031 253.949Z" fill="#28BC62"/>
<rect x="39" y="329" width="239.318" height="51.1743" rx="25.5871" fill="white"/>
<rect x="39.4569" y="329.457" width="238.405" height="50.2605" rx="25.1302" stroke="#2D2D2D" stroke-opacity="0.1" stroke-width="0.913826"/>
<path d="M64.2274 359.587L61.6102 349.352H62.8749L64.9365 357.43L66.9908 349.352H68.0947L70.1563 357.43L72.2106 349.352H73.4753L70.8727 359.587H69.4398L67.5464 352.174L65.653 359.587H64.2274ZM77.1316 359.777C76.4591 359.777 75.845 359.604 75.2894 359.258C74.7386 358.912 74.2976 358.449 73.9661 357.869C73.6396 357.284 73.4763 356.638 73.4763 355.932C73.4763 355.395 73.5714 354.896 73.7614 354.433C73.9515 353.965 74.2123 353.556 74.5437 353.205C74.88 352.849 75.2699 352.571 75.7134 352.371C76.1569 352.172 76.6296 352.072 77.1316 352.072C77.8042 352.072 78.4159 352.245 78.9666 352.591C79.5222 352.937 79.9633 353.402 80.2898 353.987C80.6212 354.572 80.7869 355.22 80.7869 355.932C80.7869 356.463 80.6919 356.96 80.5018 357.423C80.3118 357.886 80.0486 358.295 79.7123 358.651C79.3809 359.002 78.9934 359.277 78.5499 359.477C78.1113 359.677 77.6385 359.777 77.1316 359.777ZM77.1316 358.549C77.5898 358.549 78.0016 358.429 78.3671 358.191C78.7375 357.947 79.0275 357.628 79.2371 357.233C79.4515 356.833 79.5588 356.399 79.5588 355.932C79.5588 355.454 79.4491 355.015 79.2298 354.616C79.0153 354.216 78.7254 353.897 78.3598 353.658C77.9943 353.419 77.5849 353.3 77.1316 353.3C76.6735 353.3 76.2617 353.422 75.8961 353.665C75.5306 353.904 75.2406 354.223 75.0262 354.623C74.8117 355.023 74.7045 355.459 74.7045 355.932C74.7045 356.419 74.8142 356.862 75.0335 357.262C75.2528 357.657 75.5477 357.971 75.9181 358.205C76.2885 358.434 76.693 358.549 77.1316 358.549ZM81.9966 359.587V352.276H83.2248V353.19C83.4831 352.849 83.8097 352.578 84.2044 352.379C84.5992 352.174 85.0281 352.072 85.4911 352.072C85.7738 352.072 86.0467 352.108 86.3099 352.181L85.8128 353.409C85.6129 353.346 85.418 353.314 85.2279 353.314C84.8624 353.314 84.5261 353.405 84.219 353.585C83.9169 353.76 83.6756 353.999 83.4953 354.301C83.315 354.604 83.2248 354.94 83.2248 355.31V359.587H81.9966ZM93.0944 359.587H91.6834L89.7388 356.231L88.3936 357.84V359.587H87.1655V348.621H88.3936V355.932L91.4568 352.276H93.0578L90.5722 355.237L93.0944 359.587ZM96.1784 350.471V352.276H98.3204V353.504H96.1784V359.587H94.9502V353.504H94.0072V352.276H94.9502V350.471C94.9502 350.095 95.0404 349.757 95.2207 349.454C95.4059 349.147 95.652 348.904 95.9591 348.723C96.271 348.538 96.6122 348.446 96.9826 348.446C97.2555 348.446 97.5211 348.502 97.7794 348.614C98.0377 348.721 98.2668 348.882 98.4666 349.096L97.5894 349.966C97.5211 349.874 97.431 349.803 97.3189 349.754C97.2116 349.701 97.0995 349.674 96.9826 349.674C96.7633 349.674 96.5732 349.752 96.4123 349.908C96.2564 350.064 96.1784 350.251 96.1784 350.471ZM99.5878 359.587V348.621H100.816V359.587H99.5878ZM105.717 359.777C105.045 359.777 104.431 359.604 103.875 359.258C103.324 358.912 102.883 358.449 102.552 357.869C102.225 357.284 102.062 356.638 102.062 355.932C102.062 355.395 102.157 354.896 102.347 354.433C102.537 353.965 102.798 353.556 103.129 353.205C103.466 352.849 103.856 352.571 104.299 352.371C104.743 352.172 105.215 352.072 105.717 352.072C106.39 352.072 107.002 352.245 107.552 352.591C108.108 352.937 108.549 353.402 108.875 353.987C109.207 354.572 109.373 355.22 109.373 355.932C109.373 356.463 109.278 356.96 109.087 357.423C108.897 357.886 108.634 358.295 108.298 358.651C107.967 359.002 107.579 359.277 107.136 359.477C106.697 359.677 106.224 359.777 105.717 359.777ZM105.717 358.549C106.175 358.549 106.587 358.429 106.953 358.191C107.323 357.947 107.613 357.628 107.823 357.233C108.037 356.833 108.144 356.399 108.144 355.932C108.144 355.454 108.035 355.015 107.815 354.616C107.601 354.216 107.311 353.897 106.945 353.658C106.58 353.419 106.171 353.3 105.717 353.3C105.259 353.3 104.847 353.422 104.482 353.665C104.116 353.904 103.826 354.223 103.612 354.623C103.397 355.023 103.29 355.459 103.29 355.932C103.29 356.419 103.4 356.862 103.619 357.262C103.838 357.657 104.133 357.971 104.504 358.205C104.874 358.434 105.279 358.549 105.717 358.549ZM113.507 359.587H112.264L109.815 352.276H111.014L112.9 357.854L114.764 352.276H116.029L117.901 357.854L119.765 352.276H120.979L118.529 359.587H117.279L115.386 353.958L113.507 359.587ZM125.803 359.587V349.352H132.083V350.58H127.031V353.49H131.169V354.718H127.031V358.359H132.083V359.587H125.803ZM140.148 355.04V359.587H138.919V355.31C138.919 354.94 138.829 354.604 138.649 354.301C138.468 353.999 138.227 353.76 137.925 353.585C137.623 353.405 137.287 353.314 136.916 353.314C136.551 353.314 136.214 353.405 135.907 353.585C135.605 353.76 135.364 353.999 135.184 354.301C135.003 354.604 134.913 354.94 134.913 355.31V359.587H133.685V352.276H134.913V353.19C135.171 352.849 135.498 352.578 135.893 352.379C136.287 352.174 136.716 352.072 137.179 352.072C137.725 352.072 138.222 352.206 138.671 352.474C139.124 352.737 139.482 353.093 139.745 353.541C140.013 353.989 140.148 354.489 140.148 355.04ZM147.176 352.276H148.404V359.821C148.404 360.303 148.3 360.752 148.09 361.166C147.885 361.585 147.608 361.948 147.257 362.255C146.906 362.567 146.506 362.808 146.058 362.979C145.609 363.154 145.142 363.242 144.654 363.242C144.147 363.242 143.657 363.128 143.185 362.899C142.712 362.674 142.298 362.372 141.942 361.992C141.591 361.617 141.338 361.195 141.182 360.727L142.307 360.216C142.4 360.552 142.566 360.854 142.805 361.122C143.048 361.395 143.331 361.61 143.653 361.765C143.979 361.926 144.313 362.007 144.654 362.007C144.976 362.007 145.285 361.951 145.583 361.839C145.885 361.726 146.155 361.571 146.394 361.371C146.638 361.176 146.828 360.944 146.964 360.676C147.106 360.413 147.176 360.128 147.176 359.821V358.366C146.928 358.785 146.599 359.126 146.189 359.39C145.785 359.648 145.312 359.777 144.771 359.777C144.255 359.777 143.77 359.677 143.316 359.477C142.863 359.277 142.466 359.002 142.125 358.651C141.784 358.295 141.515 357.886 141.321 357.423C141.126 356.96 141.028 356.463 141.028 355.932C141.028 355.4 141.126 354.903 141.321 354.44C141.515 353.972 141.784 353.563 142.125 353.212C142.466 352.856 142.863 352.578 143.316 352.379C143.77 352.179 144.255 352.079 144.771 352.079C145.312 352.079 145.785 352.208 146.189 352.466C146.599 352.725 146.928 353.066 147.176 353.49V352.276ZM144.778 358.585C145.251 358.585 145.661 358.464 146.007 358.22C146.358 357.976 146.628 357.652 146.818 357.248C147.008 356.843 147.103 356.404 147.103 355.932C147.103 355.444 147.006 355.001 146.811 354.601C146.621 354.197 146.35 353.875 145.999 353.636C145.653 353.392 145.246 353.271 144.778 353.271C144.32 353.271 143.901 353.39 143.521 353.629C143.141 353.868 142.839 354.189 142.614 354.594C142.395 354.993 142.286 355.439 142.286 355.932C142.286 356.424 142.398 356.872 142.622 357.277C142.851 357.676 143.153 357.996 143.528 358.234C143.908 358.468 144.325 358.585 144.778 358.585ZM150.062 352.276H151.291V359.587H150.062V352.276ZM150.691 351.085C150.496 351.085 150.333 351.021 150.201 350.895C150.07 350.768 150.004 350.609 150.004 350.419C150.004 350.229 150.07 350.071 150.201 349.944C150.333 349.818 150.494 349.754 150.684 349.754C150.874 349.754 151.035 349.818 151.166 349.944C151.298 350.071 151.364 350.229 151.364 350.419C151.364 350.609 151.298 350.768 151.166 350.895C151.04 351.021 150.881 351.085 150.691 351.085ZM159.481 355.04V359.587H158.252V355.31C158.252 354.94 158.162 354.604 157.982 354.301C157.802 353.999 157.56 353.76 157.258 353.585C156.956 353.405 156.62 353.314 156.249 353.314C155.884 353.314 155.548 353.405 155.24 353.585C154.938 353.76 154.697 353.999 154.517 354.301C154.336 354.604 154.246 354.94 154.246 355.31V359.587H153.018V352.276H154.246V353.19C154.505 352.849 154.831 352.578 155.226 352.379C155.621 352.174 156.05 352.072 156.513 352.072C157.058 352.072 157.556 352.206 158.004 352.474C158.457 352.737 158.815 353.093 159.079 353.541C159.347 353.989 159.481 354.489 159.481 355.04ZM164.017 359.777C163.344 359.777 162.73 359.604 162.174 359.258C161.624 358.912 161.182 358.449 160.851 357.869C160.524 357.284 160.361 356.638 160.361 355.932C160.361 355.395 160.456 354.896 160.646 354.433C160.836 353.965 161.097 353.556 161.429 353.205C161.765 352.849 162.155 352.571 162.598 352.371C163.042 352.172 163.515 352.072 164.017 352.072C164.567 352.072 165.072 352.184 165.53 352.408C165.993 352.627 166.388 352.934 166.714 353.329C167.046 353.724 167.292 354.182 167.453 354.703C167.618 355.225 167.679 355.783 167.635 356.378H161.67C161.728 356.792 161.865 357.162 162.079 357.489C162.294 357.81 162.567 358.066 162.898 358.256C163.234 358.446 163.607 358.544 164.017 358.549C164.455 358.549 164.852 358.437 165.208 358.213C165.564 357.983 165.851 357.672 166.071 357.277L167.321 357.569C167.029 358.217 166.587 358.749 165.998 359.163C165.408 359.572 164.748 359.777 164.017 359.777ZM161.633 355.413H166.4C166.361 355.003 166.229 354.63 166.005 354.294C165.781 353.953 165.496 353.68 165.15 353.475C164.804 353.271 164.426 353.168 164.017 353.168C163.607 353.168 163.232 353.268 162.891 353.468C162.55 353.668 162.267 353.938 162.043 354.279C161.823 354.616 161.687 354.993 161.633 355.413ZM172.48 359.587V349.352H176.077C176.622 349.352 177.115 349.486 177.553 349.754C177.997 350.022 178.348 350.385 178.606 350.843C178.869 351.297 179.001 351.804 179.001 352.364C179.001 352.856 178.903 353.305 178.708 353.709C178.513 354.114 178.245 354.452 177.904 354.725C177.568 354.993 177.185 355.179 176.756 355.281L179.242 359.587H177.824L175.382 355.383H173.708V359.587H172.48ZM173.708 354.155H175.952C176.284 354.155 176.588 354.075 176.866 353.914C177.144 353.748 177.363 353.526 177.524 353.249C177.69 352.966 177.773 352.649 177.773 352.298C177.773 351.942 177.69 351.626 177.524 351.348C177.363 351.065 177.144 350.843 176.866 350.683C176.588 350.517 176.284 350.434 175.952 350.434H173.708V354.155ZM180.326 356.809V352.276H181.554V356.538C181.554 356.909 181.644 357.245 181.825 357.547C182.005 357.849 182.246 358.091 182.548 358.271C182.856 358.446 183.192 358.534 183.557 358.534C183.928 358.534 184.262 358.446 184.559 358.271C184.861 358.091 185.102 357.849 185.283 357.547C185.463 357.245 185.553 356.909 185.553 356.538V352.276H186.781L186.789 359.587H185.56L185.553 358.658C185.295 359 184.968 359.273 184.574 359.477C184.179 359.677 183.752 359.777 183.294 359.777C182.748 359.777 182.249 359.645 181.795 359.382C181.347 359.114 180.989 358.756 180.721 358.308C180.458 357.859 180.326 357.36 180.326 356.809ZM194.72 355.04V359.587H193.492V355.31C193.492 354.94 193.402 354.604 193.221 354.301C193.041 353.999 192.8 353.76 192.498 353.585C192.195 353.405 191.859 353.314 191.489 353.314C191.123 353.314 190.787 353.405 190.48 353.585C190.178 353.76 189.936 353.999 189.756 354.301C189.576 354.604 189.486 354.94 189.486 355.31V359.587H188.257V352.276H189.486V353.19C189.744 352.849 190.071 352.578 190.465 352.379C190.86 352.174 191.289 352.072 191.752 352.072C192.298 352.072 192.795 352.206 193.243 352.474C193.697 352.737 194.055 353.093 194.318 353.541C194.586 353.989 194.72 354.489 194.72 355.04ZM202.645 355.04V359.587H201.416V355.31C201.416 354.94 201.326 354.604 201.146 354.301C200.966 353.999 200.724 353.76 200.422 353.585C200.12 353.405 199.784 353.314 199.413 353.314C199.048 353.314 198.712 353.405 198.405 353.585C198.102 353.76 197.861 353.999 197.681 354.301C197.5 354.604 197.41 354.94 197.41 355.31V359.587H196.182V352.276H197.41V353.19C197.669 352.849 197.995 352.578 198.39 352.379C198.785 352.174 199.214 352.072 199.677 352.072C200.222 352.072 200.72 352.206 201.168 352.474C201.621 352.737 201.979 353.093 202.243 353.541C202.511 353.989 202.645 354.489 202.645 355.04ZM204.107 352.276H205.335V359.587H204.107V352.276ZM204.735 351.085C204.54 351.085 204.377 351.021 204.246 350.895C204.114 350.768 204.048 350.609 204.048 350.419C204.048 350.229 204.114 350.071 204.246 349.944C204.377 349.818 204.538 349.754 204.728 349.754C204.918 349.754 205.079 349.818 205.211 349.944C205.342 350.071 205.408 350.229 205.408 350.419C205.408 350.609 205.342 350.768 205.211 350.895C205.084 351.021 204.925 351.085 204.735 351.085ZM213.525 355.04V359.587H212.297V355.31C212.297 354.94 212.207 354.604 212.026 354.301C211.846 353.999 211.605 353.76 211.302 353.585C211 353.405 210.664 353.314 210.294 353.314C209.928 353.314 209.592 353.405 209.285 353.585C208.983 353.76 208.741 353.999 208.561 354.301C208.381 354.604 208.291 354.94 208.291 355.31V359.587H207.062V352.276H208.291V353.19C208.549 352.849 208.875 352.578 209.27 352.379C209.665 352.174 210.094 352.072 210.557 352.072C211.103 352.072 211.6 352.206 212.048 352.474C212.501 352.737 212.86 353.093 213.123 353.541C213.391 353.989 213.525 354.489 213.525 355.04ZM220.554 352.276H221.782V359.821C221.782 360.303 221.677 360.752 221.468 361.166C221.263 361.585 220.985 361.948 220.634 362.255C220.283 362.567 219.884 362.808 219.435 362.979C218.987 363.154 218.519 363.242 218.032 363.242C217.525 363.242 217.035 363.128 216.562 362.899C216.089 362.674 215.675 362.372 215.319 361.992C214.968 361.617 214.715 361.195 214.559 360.727L215.685 360.216C215.777 360.552 215.943 360.854 216.182 361.122C216.426 361.395 216.708 361.61 217.03 361.765C217.357 361.926 217.69 362.007 218.032 362.007C218.353 362.007 218.663 361.951 218.96 361.839C219.262 361.726 219.533 361.571 219.771 361.371C220.015 361.176 220.205 360.944 220.342 360.676C220.483 360.413 220.554 360.128 220.554 359.821V358.366C220.305 358.785 219.976 359.126 219.567 359.39C219.162 359.648 218.69 359.777 218.149 359.777C217.632 359.777 217.147 359.677 216.694 359.477C216.24 359.277 215.843 359.002 215.502 358.651C215.161 358.295 214.893 357.886 214.698 357.423C214.503 356.96 214.405 356.463 214.405 355.932C214.405 355.4 214.503 354.903 214.698 354.44C214.893 353.972 215.161 353.563 215.502 353.212C215.843 352.856 216.24 352.578 216.694 352.379C217.147 352.179 217.632 352.079 218.149 352.079C218.69 352.079 219.162 352.208 219.567 352.466C219.976 352.725 220.305 353.066 220.554 353.49V352.276ZM218.156 358.585C218.629 358.585 219.038 358.464 219.384 358.22C219.735 357.976 220.005 357.652 220.195 357.248C220.386 356.843 220.481 356.404 220.481 355.932C220.481 355.444 220.383 355.001 220.188 354.601C219.998 354.197 219.728 353.875 219.377 353.636C219.031 353.392 218.624 353.271 218.156 353.271C217.698 353.271 217.279 353.39 216.898 353.629C216.518 353.868 216.216 354.189 215.992 354.594C215.773 354.993 215.663 355.439 215.663 355.932C215.663 356.424 215.775 356.872 215.999 357.277C216.228 357.676 216.53 357.996 216.906 358.234C217.286 358.468 217.703 358.585 218.156 358.585Z" fill="#0C1021"/>
<rect x="234.449" y="336.311" width="36.5588" height="36.5531" rx="18.2765" fill="#3DEC82" fill-opacity="0.15"/>
<rect x="234.906" y="336.767" width="35.6449" height="35.6392" rx="17.8196" stroke="#28BC62" stroke-opacity="0.1" stroke-width="0.913826"/>
<path d="M243.59 354.587C243.59 352.163 244.553 349.839 246.267 348.125C247.981 346.412 250.305 345.449 252.729 345.449C255.152 345.449 257.477 346.412 259.19 348.125C260.904 349.839 261.867 352.163 261.867 354.587C261.867 357.011 260.904 359.335 259.19 361.049C257.477 362.762 255.152 363.725 252.729 363.725C250.305 363.725 247.981 362.762 246.267 361.049C244.553 359.335 243.59 357.011 243.59 354.587ZM257.031 352.949C257.116 352.864 257.183 352.764 257.229 352.653C257.275 352.542 257.299 352.423 257.299 352.302C257.299 352.182 257.275 352.063 257.229 351.952C257.183 351.841 257.116 351.74 257.031 351.655C256.946 351.57 256.845 351.503 256.734 351.457C256.623 351.411 256.504 351.387 256.384 351.387C256.264 351.387 256.145 351.411 256.034 351.457C255.923 351.503 255.822 351.57 255.737 351.655L251.815 355.579L249.72 353.483C249.635 353.398 249.534 353.331 249.423 353.285C249.312 353.239 249.193 353.215 249.073 353.215C248.953 353.215 248.834 353.239 248.723 353.285C248.612 353.331 248.511 353.398 248.426 353.483C248.341 353.568 248.274 353.669 248.228 353.78C248.182 353.891 248.158 354.01 248.158 354.13C248.158 354.25 248.182 354.369 248.228 354.48C248.274 354.591 248.341 354.692 248.426 354.777L251.168 357.519C251.253 357.604 251.354 357.671 251.465 357.717C251.576 357.763 251.695 357.787 251.815 357.787C251.935 357.787 252.054 357.763 252.165 357.717C252.276 357.671 252.377 357.604 252.462 357.519L257.031 352.949Z" fill="#28BC62"/>
<path d="M92.983 47L96.235 30.2H98.251L102.559 41.516L106.843 30.2H108.859L112.123 47H109.579L107.407 35.756L103.387 46.364H101.707L97.699 35.756L95.527 47H92.983ZM123.178 35H125.674V47H123.166L123.07 45.26C122.718 45.876 122.242 46.372 121.642 46.748C121.042 47.124 120.334 47.312 119.518 47.312C118.638 47.312 117.81 47.148 117.034 46.82C116.258 46.484 115.574 46.02 114.982 45.428C114.398 44.836 113.942 44.156 113.614 43.388C113.286 42.612 113.122 41.78 113.122 40.892C113.122 40.036 113.282 39.232 113.602 38.48C113.922 37.72 114.366 37.056 114.934 36.488C115.502 35.92 116.158 35.476 116.902 35.156C117.654 34.828 118.458 34.664 119.314 34.664C120.186 34.664 120.954 34.864 121.618 35.264C122.29 35.656 122.846 36.16 123.286 36.776L123.178 35ZM119.458 44.9C120.162 44.9 120.778 44.728 121.306 44.384C121.834 44.032 122.242 43.56 122.53 42.968C122.826 42.376 122.974 41.72 122.974 41C122.974 40.272 122.826 39.612 122.53 39.02C122.234 38.428 121.822 37.96 121.294 37.616C120.774 37.264 120.162 37.088 119.458 37.088C118.762 37.088 118.126 37.264 117.55 37.616C116.974 37.968 116.518 38.44 116.182 39.032C115.846 39.624 115.678 40.28 115.678 41C115.678 41.728 115.85 42.388 116.194 42.98C116.546 43.564 117.006 44.032 117.574 44.384C118.15 44.728 118.778 44.9 119.458 44.9ZM138.869 39.476V47H136.373V40.088C136.373 39.552 136.241 39.064 135.977 38.624C135.721 38.184 135.373 37.836 134.933 37.58C134.501 37.316 134.013 37.184 133.469 37.184C132.941 37.184 132.457 37.316 132.017 37.58C131.577 37.836 131.225 38.184 130.961 38.624C130.697 39.064 130.565 39.552 130.565 40.088V47H128.069V35H130.565V36.272C130.981 35.776 131.493 35.384 132.101 35.096C132.709 34.808 133.365 34.664 134.069 34.664C134.957 34.664 135.765 34.88 136.493 35.312C137.221 35.744 137.797 36.324 138.221 37.052C138.653 37.78 138.869 38.588 138.869 39.476ZM140.784 42.5V35H143.28V41.888C143.28 42.424 143.412 42.912 143.676 43.352C143.94 43.792 144.292 44.144 144.732 44.408C145.172 44.664 145.656 44.792 146.184 44.792C146.72 44.792 147.204 44.664 147.636 44.408C148.076 44.144 148.424 43.792 148.68 43.352C148.944 42.912 149.076 42.424 149.076 41.888V35H151.572L151.584 47H149.088L149.076 45.704C148.668 46.2 148.16 46.592 147.552 46.88C146.944 47.168 146.292 47.312 145.596 47.312C144.708 47.312 143.9 47.096 143.172 46.664C142.444 46.232 141.864 45.652 141.432 44.924C141 44.196 140.784 43.388 140.784 42.5ZM163.163 35H165.659V47H163.151L163.055 45.26C162.703 45.876 162.227 46.372 161.627 46.748C161.027 47.124 160.319 47.312 159.503 47.312C158.623 47.312 157.795 47.148 157.019 46.82C156.243 46.484 155.559 46.02 154.967 45.428C154.383 44.836 153.927 44.156 153.599 43.388C153.271 42.612 153.107 41.78 153.107 40.892C153.107 40.036 153.267 39.232 153.587 38.48C153.907 37.72 154.351 37.056 154.919 36.488C155.487 35.92 156.143 35.476 156.887 35.156C157.639 34.828 158.443 34.664 159.299 34.664C160.171 34.664 160.939 34.864 161.603 35.264C162.275 35.656 162.831 36.16 163.271 36.776L163.163 35ZM159.443 44.9C160.147 44.9 160.763 44.728 161.291 44.384C161.819 44.032 162.227 43.56 162.515 42.968C162.811 42.376 162.959 41.72 162.959 41C162.959 40.272 162.811 39.612 162.515 39.02C162.219 38.428 161.807 37.96 161.279 37.616C160.759 37.264 160.147 37.088 159.443 37.088C158.747 37.088 158.111 37.264 157.535 37.616C156.959 37.968 156.503 38.44 156.167 39.032C155.831 39.624 155.663 40.28 155.663 41C155.663 41.728 155.835 42.388 156.179 42.98C156.531 43.564 156.991 44.032 157.559 44.384C158.135 44.728 158.763 44.9 159.443 44.9ZM168.147 47V29H170.643V47H168.147ZM179.64 47V30.2H182.136V47H179.64ZM198.082 30.2V32.696H192.73V47H190.234V32.696H184.894V30.2H198.082ZM206.256 35H208.752V47H206.256V35ZM207.528 33.26C207.144 33.26 206.824 33.136 206.568 32.888C206.312 32.64 206.184 32.328 206.184 31.952C206.184 31.584 206.312 31.276 206.568 31.028C206.824 30.772 207.14 30.644 207.516 30.644C207.884 30.644 208.196 30.772 208.452 31.028C208.708 31.276 208.836 31.584 208.836 31.952C208.836 32.328 208.708 32.64 208.452 32.888C208.204 33.136 207.896 33.26 207.528 33.26ZM222.353 39.476V47H219.857V40.088C219.857 39.552 219.725 39.064 219.461 38.624C219.205 38.184 218.857 37.836 218.417 37.58C217.985 37.316 217.497 37.184 216.953 37.184C216.425 37.184 215.941 37.316 215.501 37.58C215.061 37.836 214.709 38.184 214.445 38.624C214.181 39.064 214.049 39.552 214.049 40.088V47H211.553V35H214.049V36.272C214.465 35.776 214.977 35.384 215.585 35.096C216.193 34.808 216.849 34.664 217.553 34.664C218.441 34.664 219.249 34.88 219.977 35.312C220.705 35.744 221.281 36.324 221.705 37.052C222.137 37.78 222.353 38.588 222.353 39.476ZM231.167 47H227.963L223.583 34.976H226.247L229.559 44.12L232.883 34.976H235.535L231.167 47ZM242.193 47.312C241.089 47.312 240.081 47.028 239.169 46.46C238.265 45.892 237.541 45.132 236.997 44.18C236.461 43.22 236.193 42.16 236.193 41C236.193 40.12 236.349 39.3 236.661 38.54C236.973 37.772 237.401 37.1 237.945 36.524C238.497 35.94 239.137 35.484 239.865 35.156C240.593 34.828 241.369 34.664 242.193 34.664C243.297 34.664 244.301 34.948 245.205 35.516C246.117 36.084 246.841 36.848 247.377 37.808C247.921 38.768 248.193 39.832 248.193 41C248.193 41.872 248.037 42.688 247.725 43.448C247.413 44.208 246.981 44.88 246.429 45.464C245.885 46.04 245.249 46.492 244.521 46.82C243.801 47.148 243.025 47.312 242.193 47.312ZM242.193 44.816C242.857 44.816 243.453 44.64 243.981 44.288C244.509 43.936 244.925 43.472 245.229 42.896C245.541 42.312 245.697 41.68 245.697 41C245.697 40.304 245.537 39.664 245.217 39.08C244.905 38.496 244.485 38.032 243.957 37.688C243.429 37.336 242.841 37.16 242.193 37.16C241.537 37.16 240.941 37.336 240.405 37.688C239.877 38.04 239.457 38.508 239.145 39.092C238.841 39.676 238.689 40.312 238.689 41C238.689 41.712 238.849 42.356 239.169 42.932C239.489 43.508 239.913 43.968 240.441 44.312C240.977 44.648 241.561 44.816 242.193 44.816ZM249.967 47V29H252.463V47H249.967ZM261.988 47H258.784L254.404 34.976H257.068L260.38 44.12L263.704 34.976H266.356L261.988 47ZM273.013 47.312C271.909 47.312 270.901 47.028 269.989 46.46C269.085 45.892 268.361 45.132 267.817 44.18C267.281 43.22 267.013 42.16 267.013 41C267.013 40.12 267.169 39.3 267.481 38.54C267.793 37.772 268.221 37.1 268.765 36.524C269.317 35.94 269.957 35.484 270.685 35.156C271.413 34.828 272.189 34.664 273.013 34.664C273.933 34.664 274.777 34.856 275.545 35.24C276.313 35.616 276.969 36.14 277.513 36.812C278.057 37.476 278.457 38.244 278.713 39.116C278.969 39.98 279.045 40.9 278.941 41.876H269.689C269.793 42.428 269.993 42.928 270.289 43.376C270.593 43.816 270.977 44.164 271.441 44.42C271.913 44.676 272.437 44.808 273.013 44.816C273.621 44.816 274.173 44.664 274.669 44.36C275.173 44.056 275.585 43.636 275.905 43.1L278.437 43.688C277.957 44.752 277.233 45.624 276.265 46.304C275.297 46.976 274.213 47.312 273.013 47.312ZM269.605 39.968H276.421C276.341 39.392 276.137 38.872 275.809 38.408C275.489 37.936 275.085 37.564 274.597 37.292C274.117 37.012 273.589 36.872 273.013 36.872C272.445 36.872 271.917 37.008 271.429 37.28C270.949 37.552 270.549 37.924 270.229 38.396C269.917 38.86 269.709 39.384 269.605 39.968ZM280.928 47V35H283.424V36.272C283.84 35.776 284.348 35.384 284.948 35.096C285.556 34.808 286.212 34.664 286.916 34.664C287.772 34.664 288.56 34.872 289.28 35.288C290 35.696 290.572 36.24 290.996 36.92C291.42 36.24 291.984 35.696 292.688 35.288C293.4 34.872 294.184 34.664 295.04 34.664C295.928 34.664 296.736 34.88 297.464 35.312C298.192 35.744 298.772 36.324 299.204 37.052C299.636 37.78 299.852 38.588 299.852 39.476V47H297.356V40.112C297.356 39.584 297.228 39.1 296.972 38.66C296.716 38.22 296.372 37.864 295.94 37.592C295.508 37.32 295.028 37.184 294.5 37.184C293.972 37.184 293.492 37.312 293.06 37.568C292.628 37.824 292.284 38.172 292.028 38.612C291.772 39.052 291.644 39.552 291.644 40.112V47H289.148V40.112C289.148 39.552 289.02 39.052 288.764 38.612C288.508 38.172 288.16 37.824 287.72 37.568C287.288 37.312 286.808 37.184 286.28 37.184C285.76 37.184 285.28 37.32 284.84 37.592C284.408 37.864 284.064 38.22 283.808 38.66C283.552 39.1 283.424 39.584 283.424 40.112V47H280.928ZM307.302 47.312C306.198 47.312 305.19 47.028 304.278 46.46C303.374 45.892 302.65 45.132 302.106 44.18C301.57 43.22 301.302 42.16 301.302 41C301.302 40.12 301.458 39.3 301.77 38.54C302.082 37.772 302.51 37.1 303.054 36.524C303.606 35.94 304.246 35.484 304.974 35.156C305.702 34.828 306.478 34.664 307.302 34.664C308.222 34.664 309.066 34.856 309.834 35.24C310.602 35.616 311.258 36.14 311.802 36.812C312.346 37.476 312.746 38.244 313.002 39.116C313.258 39.98 313.334 40.9 313.23 41.876H303.978C304.082 42.428 304.282 42.928 304.578 43.376C304.882 43.816 305.266 44.164 305.73 44.42C306.202 44.676 306.726 44.808 307.302 44.816C307.91 44.816 308.462 44.664 308.958 44.36C309.462 44.056 309.874 43.636 310.194 43.1L312.726 43.688C312.246 44.752 311.522 45.624 310.554 46.304C309.586 46.976 308.502 47.312 307.302 47.312ZM303.894 39.968H310.71C310.63 39.392 310.426 38.872 310.098 38.408C309.778 37.936 309.374 37.564 308.886 37.292C308.406 37.012 307.878 36.872 307.302 36.872C306.734 36.872 306.206 37.008 305.718 37.28C305.238 37.552 304.838 37.924 304.518 38.396C304.206 38.86 303.998 39.384 303.894 39.968ZM326.017 39.476V47H323.521V40.088C323.521 39.552 323.389 39.064 323.125 38.624C322.869 38.184 322.521 37.836 322.081 37.58C321.649 37.316 321.161 37.184 320.617 37.184C320.089 37.184 319.605 37.316 319.165 37.58C318.725 37.836 318.373 38.184 318.109 38.624C317.845 39.064 317.713 39.552 317.713 40.088V47H315.217V35H317.713V36.272C318.129 35.776 318.641 35.384 319.249 35.096C319.857 34.808 320.513 34.664 321.217 34.664C322.105 34.664 322.913 34.88 323.641 35.312C324.369 35.744 324.945 36.324 325.369 37.052C325.801 37.78 326.017 38.588 326.017 39.476ZM334.749 37.496H332.229L332.217 47H329.721L329.733 37.496H327.825V35H329.733L329.721 31.232H332.217L332.229 35H334.749V37.496Z" fill="#0C1021"/>
<path d="M157.15 76.312C156.158 76.312 155.262 76.088 154.462 75.64C153.67 75.184 152.986 74.556 152.41 73.756C151.834 72.956 151.394 72.032 151.09 70.984C150.786 69.928 150.634 68.8 150.634 67.6C150.634 66.4 150.786 65.272 151.09 64.216C151.394 63.16 151.834 62.236 152.41 61.444C152.986 60.644 153.67 60.02 154.462 59.572C155.262 59.116 156.158 58.888 157.15 58.888C158.126 58.888 159.014 59.116 159.814 59.572C160.614 60.02 161.294 60.644 161.854 61.444C162.422 62.236 162.858 63.16 163.162 64.216C163.466 65.272 163.618 66.4 163.618 67.6C163.618 68.8 163.466 69.928 163.162 70.984C162.858 72.032 162.422 72.956 161.854 73.756C161.294 74.556 160.614 75.184 159.814 75.64C159.014 76.088 158.126 76.312 157.15 76.312ZM157.15 73.816C158.07 73.816 158.834 73.528 159.442 72.952C160.058 72.368 160.518 71.604 160.822 70.66C161.126 69.716 161.278 68.696 161.278 67.6C161.278 66.448 161.118 65.404 160.798 64.468C160.486 63.524 160.022 62.776 159.406 62.224C158.798 61.664 158.046 61.384 157.15 61.384C156.438 61.384 155.818 61.552 155.29 61.888C154.77 62.224 154.338 62.684 153.994 63.268C153.658 63.852 153.402 64.516 153.226 65.26C153.058 66.004 152.974 66.784 152.974 67.6C152.974 68.696 153.13 69.716 153.442 70.66C153.754 71.604 154.218 72.368 154.834 72.952C155.458 73.528 156.23 73.816 157.15 73.816ZM166.608 76L176.304 59.2H179.184L169.488 76H166.608ZM168.636 66.244C168.028 66.244 167.468 66.096 166.956 65.8C166.452 65.496 166.048 65.092 165.744 64.588C165.44 64.076 165.288 63.512 165.288 62.896C165.288 62.256 165.44 61.684 165.744 61.18C166.056 60.676 166.464 60.28 166.968 59.992C167.48 59.696 168.036 59.548 168.636 59.548C169.252 59.548 169.812 59.7 170.316 60.004C170.82 60.3 171.224 60.7 171.528 61.204C171.832 61.708 171.984 62.272 171.984 62.896C171.984 63.528 171.828 64.096 171.516 64.6C171.212 65.104 170.804 65.504 170.292 65.8C169.788 66.096 169.236 66.244 168.636 66.244ZM168.636 64.48C169.084 64.48 169.46 64.328 169.764 64.024C170.068 63.712 170.22 63.336 170.22 62.896C170.22 62.448 170.068 62.072 169.764 61.768C169.46 61.456 169.084 61.3 168.636 61.3C168.196 61.3 167.82 61.456 167.508 61.768C167.204 62.072 167.052 62.448 167.052 62.896C167.052 63.336 167.204 63.712 167.508 64.024C167.82 64.328 168.196 64.48 168.636 64.48ZM177.18 75.676C176.556 75.676 175.988 75.52 175.476 75.208C174.972 74.888 174.568 74.476 174.264 73.972C173.968 73.46 173.82 72.908 173.82 72.316C173.82 71.692 173.976 71.128 174.288 70.624C174.6 70.112 175.008 69.708 175.512 69.412C176.024 69.108 176.58 68.956 177.18 68.956C177.812 68.956 178.38 69.112 178.884 69.424C179.388 69.736 179.788 70.148 180.084 70.66C180.38 71.172 180.528 71.724 180.528 72.316C180.528 72.932 180.376 73.496 180.072 74.008C179.776 74.512 179.372 74.916 178.86 75.22C178.356 75.524 177.796 75.676 177.18 75.676ZM177.18 73.912C177.612 73.912 177.984 73.756 178.296 73.444C178.608 73.132 178.764 72.756 178.764 72.316C178.764 71.876 178.608 71.5 178.296 71.188C177.984 70.876 177.612 70.72 177.18 70.72C176.74 70.72 176.36 70.876 176.04 71.188C175.728 71.5 175.572 71.876 175.572 72.316C175.572 72.756 175.728 73.132 176.04 73.444C176.36 73.756 176.74 73.912 177.18 73.912ZM188.69 76V64H191.186V65.272C191.602 64.776 192.114 64.384 192.722 64.096C193.33 63.808 193.986 63.664 194.69 63.664C195.138 63.664 195.582 63.724 196.022 63.844L195.026 66.364C194.714 66.244 194.402 66.184 194.09 66.184C193.562 66.184 193.078 66.316 192.638 66.58C192.198 66.836 191.846 67.184 191.582 67.624C191.318 68.064 191.186 68.552 191.186 69.088V76H188.69ZM202.126 76.312C201.022 76.312 200.014 76.028 199.102 75.46C198.198 74.892 197.474 74.132 196.93 73.18C196.394 72.22 196.126 71.16 196.126 70C196.126 69.12 196.282 68.3 196.594 67.54C196.906 66.772 197.334 66.1 197.878 65.524C198.43 64.94 199.07 64.484 199.798 64.156C200.526 63.828 201.302 63.664 202.126 63.664C203.046 63.664 203.89 63.856 204.658 64.24C205.426 64.616 206.082 65.14 206.626 65.812C207.17 66.476 207.57 67.244 207.826 68.116C208.082 68.98 208.158 69.9 208.054 70.876H198.802C198.906 71.428 199.106 71.928 199.402 72.376C199.706 72.816 200.09 73.164 200.554 73.42C201.026 73.676 201.55 73.808 202.126 73.816C202.734 73.816 203.286 73.664 203.782 73.36C204.286 73.056 204.698 72.636 205.018 72.1L207.55 72.688C207.07 73.752 206.346 74.624 205.378 75.304C204.41 75.976 203.326 76.312 202.126 76.312ZM198.718 68.968H205.534C205.454 68.392 205.25 67.872 204.922 67.408C204.602 66.936 204.198 66.564 203.71 66.292C203.23 66.012 202.702 65.872 202.126 65.872C201.558 65.872 201.03 66.008 200.542 66.28C200.062 66.552 199.662 66.924 199.342 67.396C199.03 67.86 198.822 68.384 198.718 68.968ZM215.61 76.336C214.45 76.336 213.39 76.052 212.43 75.484C211.478 74.916 210.718 74.152 210.15 73.192C209.582 72.232 209.298 71.168 209.298 70C209.298 69.128 209.462 68.312 209.79 67.552C210.118 66.792 210.57 66.124 211.146 65.548C211.73 64.964 212.402 64.508 213.162 64.18C213.922 63.852 214.738 63.688 215.61 63.688C216.458 63.688 217.194 63.88 217.818 64.264C218.442 64.648 218.954 65.148 219.354 65.764V64H221.85V82H219.354V74.26C218.954 74.868 218.442 75.368 217.818 75.76C217.194 76.144 216.458 76.336 215.61 76.336ZM215.634 66.1C214.938 66.1 214.302 66.276 213.726 66.628C213.15 66.98 212.694 67.452 212.358 68.044C212.022 68.636 211.854 69.288 211.854 70C211.854 70.728 212.026 71.388 212.37 71.98C212.714 72.572 213.17 73.044 213.738 73.396C214.314 73.74 214.946 73.912 215.634 73.912C216.338 73.912 216.954 73.736 217.482 73.384C218.01 73.032 218.418 72.56 218.706 71.968C218.994 71.376 219.138 70.72 219.138 70C219.138 69.28 218.99 68.628 218.694 68.044C218.406 67.452 217.998 66.98 217.47 66.628C216.95 66.276 216.338 66.1 215.634 66.1ZM223.976 71.5V64H226.472V70.888C226.472 71.424 226.604 71.912 226.868 72.352C227.132 72.792 227.484 73.144 227.924 73.408C228.364 73.664 228.848 73.792 229.376 73.792C229.912 73.792 230.396 73.664 230.828 73.408C231.268 73.144 231.616 72.792 231.872 72.352C232.136 71.912 232.268 71.424 232.268 70.888V64H234.764L234.776 76H232.28L232.268 74.704C231.86 75.2 231.352 75.592 230.744 75.88C230.136 76.168 229.484 76.312 228.788 76.312C227.9 76.312 227.092 76.096 226.364 75.664C225.636 75.232 225.056 74.652 224.624 73.924C224.192 73.196 223.976 72.388 223.976 71.5ZM237.182 64H239.678V76H237.182V64ZM238.454 62.26C238.07 62.26 237.75 62.136 237.494 61.888C237.238 61.64 237.11 61.328 237.11 60.952C237.11 60.584 237.238 60.276 237.494 60.028C237.75 59.772 238.066 59.644 238.442 59.644C238.81 59.644 239.122 59.772 239.378 60.028C239.634 60.276 239.762 60.584 239.762 60.952C239.762 61.328 239.634 61.64 239.378 61.888C239.13 62.136 238.822 62.26 238.454 62.26ZM242.479 76V64H244.975V65.272C245.391 64.776 245.903 64.384 246.511 64.096C247.119 63.808 247.775 63.664 248.479 63.664C248.927 63.664 249.371 63.724 249.811 63.844L248.815 66.364C248.503 66.244 248.191 66.184 247.879 66.184C247.351 66.184 246.867 66.316 246.427 66.58C245.987 66.836 245.635 67.184 245.371 67.624C245.107 68.064 244.975 68.552 244.975 69.088V76H242.479ZM255.915 76.312C254.811 76.312 253.803 76.028 252.891 75.46C251.987 74.892 251.263 74.132 250.719 73.18C250.183 72.22 249.915 71.16 249.915 70C249.915 69.12 250.071 68.3 250.383 67.54C250.695 66.772 251.123 66.1 251.667 65.524C252.219 64.94 252.859 64.484 253.587 64.156C254.315 63.828 255.091 63.664 255.915 63.664C256.835 63.664 257.679 63.856 258.447 64.24C259.215 64.616 259.871 65.14 260.415 65.812C260.959 66.476 261.359 67.244 261.615 68.116C261.871 68.98 261.947 69.9 261.843 70.876H252.591C252.695 71.428 252.895 71.928 253.191 72.376C253.495 72.816 253.879 73.164 254.343 73.42C254.815 73.676 255.339 73.808 255.915 73.816C256.523 73.816 257.075 73.664 257.571 73.36C258.075 73.056 258.487 72.636 258.807 72.1L261.339 72.688C260.859 73.752 260.135 74.624 259.167 75.304C258.199 75.976 257.115 76.312 255.915 76.312ZM252.507 68.968H259.323C259.243 68.392 259.039 67.872 258.711 67.408C258.391 66.936 257.987 66.564 257.499 66.292C257.019 66.012 256.491 65.872 255.915 65.872C255.347 65.872 254.819 66.008 254.331 66.28C253.851 66.552 253.451 66.924 253.131 67.396C252.819 67.86 252.611 68.384 252.507 68.968ZM273.155 58H275.651V76H273.155V74.236C272.763 74.86 272.251 75.364 271.619 75.748C270.987 76.124 270.247 76.312 269.399 76.312C268.527 76.312 267.711 76.148 266.951 75.82C266.191 75.492 265.519 75.04 264.935 74.464C264.359 73.88 263.907 73.208 263.579 72.448C263.251 71.688 263.087 70.872 263.087 70C263.087 69.128 263.251 68.312 263.579 67.552C263.907 66.784 264.359 66.112 264.935 65.536C265.519 64.952 266.191 64.496 266.951 64.168C267.711 63.84 268.527 63.676 269.399 63.676C270.247 63.676 270.987 63.868 271.619 64.252C272.251 64.628 272.763 65.124 273.155 65.74V58ZM269.423 73.9C270.127 73.9 270.743 73.728 271.271 73.384C271.799 73.032 272.207 72.56 272.495 71.968C272.791 71.376 272.939 70.72 272.939 70C272.939 69.272 272.791 68.612 272.495 68.02C272.199 67.428 271.787 66.96 271.259 66.616C270.739 66.264 270.127 66.088 269.423 66.088C268.727 66.088 268.091 66.264 267.515 66.616C266.947 66.968 266.491 67.44 266.147 68.032C265.811 68.624 265.643 69.28 265.643 70C265.643 70.728 265.815 71.388 266.159 71.98C266.511 72.564 266.971 73.032 267.539 73.384C268.115 73.728 268.743 73.9 269.423 73.9Z" fill="#4268FF"/>
<path d="M131.159 186.174C131.159 197.448 140.298 206.587 151.572 206.587H280.746C292.02 206.587 301.159 215.726 301.159 227" stroke="#4268FF" stroke-linecap="round" stroke-linejoin="bevel" stroke-dasharray="6 6"/>
<path d="M301.159 284.174C301.159 295.724 291.796 305.087 280.246 305.087H179.572C168.022 305.087 158.659 314.45 158.659 326" stroke="#4268FF" stroke-linecap="round" stroke-linejoin="bevel" stroke-dasharray="6 6"/>
</svg>
