<svg preserveAspectRatio="none" width="100%" height="100%" overflow="visible" style="display: block;" viewBox="0 0 20 20" fill="none" xmlns="http://www.w3.org/2000/svg">
<g id="solar:phone-calling-bold">
<path id="Vector" d="M12.9633 12.1233L12.5842 12.5233C12.5842 12.5233 11.6817 13.4725 9.21917 10.88C6.75667 8.2875 7.65917 7.33833 7.65917 7.33833L7.89833 7.08583C8.48667 6.46583 8.5425 5.47083 8.02833 4.74417L6.97833 3.25833C6.34167 2.35833 5.1125 2.24 4.38333 3.0075L3.07583 4.38333C2.715 4.76417 2.47333 5.25667 2.5025 5.80417C2.5775 7.20417 3.17583 10.215 6.5125 13.7292C10.0517 17.4542 13.3725 17.6025 14.73 17.4683C15.16 17.4267 15.5333 17.1942 15.8342 16.8775L17.0175 15.6308C17.8175 14.7892 17.5925 13.3475 16.5692 12.7592L14.9775 11.8425C14.3058 11.4567 13.4883 11.57 12.9633 12.1225M11.05 1.56667C11.0632 1.48562 11.0922 1.40796 11.1354 1.33812C11.1785 1.26829 11.2351 1.20765 11.3017 1.15967C11.3683 1.11169 11.4438 1.0773 11.5237 1.05849C11.6036 1.03967 11.6865 1.03679 11.7675 1.05C11.7883 1.05417 11.8567 1.06667 11.8925 1.075C11.9642 1.09 12.0619 1.115 12.1858 1.15C12.4333 1.2225 12.7792 1.34167 13.1942 1.53167C14.0242 1.9125 15.1283 2.57833 16.275 3.72417C17.4217 4.87083 18.0875 5.97583 18.4683 6.80583C18.6583 7.22083 18.7767 7.56583 18.8492 7.81417C18.8855 7.93901 18.9169 8.06521 18.9433 8.1925L18.9475 8.21833C18.9749 8.38336 18.9364 8.55256 18.8402 8.68944C18.744 8.82632 18.5979 8.9199 18.4333 8.95C18.2702 8.97649 18.1031 8.93727 17.9688 8.8409C17.8345 8.74454 17.7438 8.59889 17.7167 8.43583C17.6993 8.34381 17.6768 8.25283 17.6492 8.16333C17.564 7.87715 17.4582 7.59752 17.3325 7.32667C17.0075 6.61833 16.4225 5.64 15.3908 4.60833C14.3592 3.57667 13.3817 2.9925 12.6725 2.6675C12.4019 2.54187 12.1226 2.43603 11.8367 2.35083C11.749 2.3262 11.6606 2.30397 11.5717 2.28417C11.4081 2.25671 11.2618 2.16617 11.1642 2.032C11.0667 1.89784 11.0257 1.73075 11.05 1.56667Z" fill="var(--fill-0, #989AA1)"/>
<path id="Vector_2" fill-rule="evenodd" clip-rule="evenodd" d="M11.2383 4.44167C11.2608 4.3627 11.2986 4.28893 11.3496 4.22458C11.4006 4.16023 11.4638 4.10655 11.5355 4.06662C11.6072 4.02669 11.6861 4.00128 11.7677 3.99185C11.8493 3.98242 11.9319 3.98916 12.0108 4.01167L12.0133 4.0125L12.0158 4.01333L12.0225 4.015L12.0392 4.02L12.0858 4.03667C12.1231 4.04944 12.1722 4.06889 12.2333 4.095C12.355 4.14667 12.5208 4.22667 12.725 4.3475C13.1325 4.58917 13.6892 4.98917 14.3433 5.64417C14.9975 6.29833 15.3983 6.855 15.64 7.2625C15.7608 7.46667 15.8408 7.6325 15.8925 7.75417C15.9202 7.81782 15.9452 7.8826 15.9675 7.94833L15.9717 7.965L15.9742 7.97167V7.97417L15.975 7.975C15.975 7.975 15.975 7.97667 15.375 8.14833L15.975 7.97667C16.0173 8.13435 15.9963 8.30234 15.9163 8.44469C15.8364 8.58705 15.7039 8.69248 15.5472 8.73842C15.3906 8.78437 15.2221 8.76718 15.078 8.69054C14.9338 8.61391 14.8254 8.4839 14.7758 8.32833L14.7733 8.32L14.7442 8.24667C14.691 8.12741 14.6309 8.01138 14.5642 7.89917C14.3783 7.58583 14.0425 7.11083 13.4592 6.5275C12.8758 5.94417 12.4017 5.60917 12.0875 5.42333C11.9526 5.34412 11.8122 5.2745 11.6675 5.215L11.6592 5.21167C11.5017 5.16434 11.3693 5.0569 11.2905 4.91262C11.2118 4.76834 11.193 4.59968 11.2383 4.44167Z" fill="var(--fill-0, #989AA1)"/>
</g>
</svg>
