<svg width="20" height="20" viewBox="0 0 20 20" fill="none" xmlns="http://www.w3.org/2000/svg">
<path fill-rule="evenodd" clip-rule="evenodd" d="M3.36625 13.8054C4.72042 13.8796 6.89042 13.9583 10 13.9583C13.1096 13.9583 15.2792 13.8796 16.6338 13.8054C17.9621 13.7329 19.0713 12.7679 19.2062 11.3987C19.2967 10.4821 19.375 9.19707 19.375 7.49999C19.375 5.80291 19.2967 4.51791 19.2062 3.60124C19.0713 2.23166 17.9621 1.26707 16.6338 1.19457C15.2796 1.12041 13.1096 1.04166 10 1.04166C6.89042 1.04166 4.72083 1.12041 3.36625 1.19457C2.03792 1.26707 0.92875 2.23207 0.79375 3.60124C0.703333 4.51791 0.625 5.80291 0.625 7.49999C0.625 9.19707 0.703333 10.4821 0.79375 11.3987C0.92875 12.7683 2.03792 13.7329 3.36625 13.8054ZM10 3.52291C10.1658 3.52291 10.3247 3.58875 10.4419 3.70596C10.5592 3.82317 10.625 3.98215 10.625 4.14791V4.52999C10.9118 4.58148 11.1916 4.66622 11.4587 4.78249C11.6646 4.87249 11.8667 4.97707 12.0458 5.11332C12.3142 5.31832 12.3683 5.72166 12.1629 5.98999C12.0627 6.12092 11.9148 6.20695 11.7515 6.22935C11.5882 6.25174 11.4226 6.20869 11.2908 6.10957C10.9254 5.84374 10.4492 5.72541 10 5.72541C9.70042 5.72541 9.40875 5.81874 9.20583 5.95707C8.99792 6.09832 8.95833 6.22624 8.95833 6.29041C8.95833 6.44082 9.02333 6.52166 9.15292 6.59207C9.40958 6.73166 9.71167 6.78957 10.0017 6.84499L10.1696 6.87791C10.5529 6.95582 11.0487 7.05666 11.4446 7.27207C11.9704 7.55832 12.2917 8.06791 12.2917 8.67166C12.2917 9.28749 11.9146 9.75499 11.4975 10.0383C11.232 10.2158 10.9363 10.3433 10.625 10.4146V10.8146C10.625 10.9803 10.5592 11.1393 10.4419 11.2565C10.3247 11.3737 10.1658 11.4396 10 11.4396C9.83424 11.4396 9.67527 11.3737 9.55806 11.2565C9.44085 11.1393 9.375 10.9803 9.375 10.8146V10.4321C8.87917 10.3442 8.3575 10.1571 7.95333 9.84832C7.82128 9.74809 7.73445 9.59951 7.71194 9.43526C7.68944 9.27101 7.7331 9.10454 7.83333 8.97249C7.93356 8.84043 8.08215 8.7536 8.2464 8.7311C8.41065 8.70859 8.57711 8.75226 8.70917 8.85249C9.07083 9.11541 9.56083 9.23707 10 9.23707C10.2983 9.23707 10.5912 9.14332 10.7942 9.00499C11.0021 8.86374 11.0417 8.73582 11.0417 8.67166C11.0417 8.52124 10.9767 8.44041 10.8471 8.36999C10.5904 8.23041 10.2887 8.17249 9.99875 8.11707L9.83042 8.08416C9.4475 8.00624 8.95125 7.90541 8.55542 7.68999C8.02958 7.40374 7.70833 6.89416 7.70833 6.29041C7.70833 5.67457 8.08542 5.20707 8.5025 4.92374C8.76802 4.74629 9.0637 4.61879 9.375 4.54749V4.14791C9.375 3.98215 9.44085 3.82317 9.55806 3.70596C9.67527 3.58875 9.83424 3.52291 10 3.52291ZM15.4167 6.64791C15.1957 6.64791 14.9837 6.7357 14.8274 6.89198C14.6711 7.04826 14.5833 7.26023 14.5833 7.48124C14.5833 7.70225 14.6711 7.91421 14.8274 8.07049C14.9837 8.22677 15.1957 8.31457 15.4167 8.31457H15.8333C16.0543 8.31457 16.2663 8.22677 16.4226 8.07049C16.5789 7.91421 16.6667 7.70225 16.6667 7.48124C16.6667 7.26023 16.5789 7.04826 16.4226 6.89198C16.2663 6.7357 16.0543 6.64791 15.8333 6.64791H15.4167ZM3.33333 7.48124C3.33333 7.26023 3.42113 7.04826 3.57741 6.89198C3.73369 6.7357 3.94565 6.64791 4.16667 6.64791H4.58333C4.80435 6.64791 5.01631 6.7357 5.17259 6.89198C5.32887 7.04826 5.41667 7.26023 5.41667 7.48124C5.41667 7.70225 5.32887 7.91421 5.17259 8.07049C5.01631 8.22677 4.80435 8.31457 4.58333 8.31457H4.16667C3.94565 8.31457 3.73369 8.22677 3.57741 8.07049C3.42113 7.91421 3.33333 7.70225 3.33333 7.48124ZM4.84792 17.7812C4.88195 17.7065 4.93036 17.6393 4.99039 17.5833C5.05041 17.5273 5.12088 17.4837 5.19776 17.455C5.27464 17.4262 5.35642 17.4129 5.43845 17.4158C5.52048 17.4186 5.60114 17.4376 5.67583 17.4717C5.84333 17.5479 6.03292 17.5958 6.23833 17.6062C7.11958 17.6508 8.35917 17.69 10 17.69C11.6408 17.69 12.8808 17.6508 13.7621 17.6062C13.9675 17.5958 14.1567 17.5479 14.3246 17.4717C14.475 17.4059 14.6452 17.402 14.7984 17.4606C14.9517 17.5193 15.0758 17.636 15.1438 17.7853C15.2118 17.9347 15.2183 18.1048 15.1619 18.259C15.1056 18.4131 14.9908 18.5389 14.8425 18.6092C14.522 18.7545 14.1769 18.8379 13.8254 18.855C12.9212 18.9008 11.6608 18.94 10.0004 18.94C8.33958 18.94 7.07875 18.9004 6.17542 18.8546C5.82381 18.8376 5.47858 18.7544 5.15792 18.6092C5.08319 18.5752 5.01589 18.5268 4.95987 18.4668C4.90384 18.4068 4.86019 18.3363 4.8314 18.2594C4.80262 18.1825 4.78926 18.1007 4.79209 18.0187C4.79492 17.9366 4.81389 17.856 4.84792 17.7812ZM3.0175 15.0075C3.10771 14.8685 3.24941 14.7711 3.41146 14.7365C3.57351 14.702 3.74263 14.7332 3.88167 14.8233C4.10902 14.9686 4.3705 15.0516 4.64 15.0642C5.78958 15.1271 7.54792 15.1892 10 15.1892C12.4521 15.1892 14.2104 15.1271 15.36 15.0642C15.6295 15.0516 15.891 14.9686 16.1183 14.8233C16.2574 14.7355 16.4255 14.706 16.5861 14.7413C16.7467 14.7766 16.887 14.8737 16.9765 15.0117C17.066 15.1497 17.0974 15.3174 17.0641 15.4785C17.0307 15.6395 16.9353 15.781 16.7983 15.8721C16.388 16.1361 15.9156 16.2879 15.4283 16.3125C14.2546 16.3767 12.4733 16.4396 10 16.4396C7.52667 16.4396 5.74583 16.3767 4.57167 16.3125C4.08436 16.2879 3.612 16.1361 3.20167 15.8721C3.1328 15.8274 3.0734 15.7696 3.02687 15.702C2.98035 15.6343 2.9476 15.5582 2.93049 15.4779C2.91339 15.3976 2.91227 15.3148 2.9272 15.2341C2.94213 15.1533 2.97281 15.0763 3.0175 15.0075Z" fill="#0C1021"/>
</svg>
