<svg preserveAspectRatio="none" width="100%" height="100%" overflow="visible" style="display: block;" viewBox="0 0 20 20" fill="none" xmlns="http://www.w3.org/2000/svg">
<g id="streamline-ultimate:trading-pattern-up-bold">
<g id="Vector">
<path fill-rule="evenodd" clip-rule="evenodd" d="M5.83333 0.833333C5.83333 0.667573 5.76749 0.508602 5.65028 0.391392C5.53306 0.274181 5.37409 0.208333 5.20833 0.208333C5.04257 0.208333 4.8836 0.274181 4.76639 0.391392C4.64918 0.508602 4.58333 0.667573 4.58333 0.833333V3.875C4.23833 3.875 3.91917 3.99167 3.68417 4.22583C3.45083 4.46083 3.33333 4.78 3.33333 5.125V7.625C3.33333 7.97 3.45 8.28917 3.68417 8.52333C3.91917 8.75833 4.23833 8.875 4.58333 8.875V10.9583C4.58333 11.1241 4.64918 11.2831 4.76639 11.4003C4.8836 11.5175 5.04257 11.5833 5.20833 11.5833C5.37409 11.5833 5.53306 11.5175 5.65028 11.4003C5.76749 11.2831 5.83333 11.1241 5.83333 10.9583V8.875C6.17833 8.875 6.4975 8.75833 6.7325 8.52333C6.96583 8.29 7.08333 7.97 7.08333 7.625V5.125C7.08333 4.78 6.96667 4.46083 6.7325 4.22583C6.4975 3.99167 6.17833 3.875 5.83333 3.875V0.833333ZM9.16667 16.4583C8.82167 16.4583 8.5025 16.3417 8.2675 16.1075C8.15234 15.9884 8.06203 15.8475 8.0018 15.6931C7.94157 15.5388 7.91263 15.374 7.91667 15.2083V11.4583C7.91667 11.1133 8.03333 10.7942 8.2675 10.5592C8.50167 10.3242 8.82167 10.2083 9.16667 10.2083V8.125C9.16667 7.95924 9.23251 7.80027 9.34972 7.68306C9.46693 7.56585 9.62591 7.5 9.79167 7.5C9.95743 7.5 10.1164 7.56585 10.2336 7.68306C10.3508 7.80027 10.4167 7.95924 10.4167 8.125V10.2083C10.7617 10.2083 11.0808 10.325 11.3158 10.5592C11.55 10.7942 11.6667 11.1133 11.6667 11.4583V15.2083C11.6667 15.5533 11.55 15.8725 11.3158 16.1075C11.0808 16.3408 10.7617 16.4583 10.4167 16.4583V19.1667C10.4167 19.3324 10.3508 19.4914 10.2336 19.6086C10.1164 19.7258 9.95743 19.7917 9.79167 19.7917C9.62591 19.7917 9.46693 19.7258 9.34972 19.6086C9.23251 19.4914 9.16667 19.3324 9.16667 19.1667V16.4583Z" fill="var(--fill-0, #0C1021)"/>
<path d="M15.6503 2.63654C15.7675 2.75375 15.8333 2.91273 15.8333 3.07849V6.12015C16.1783 6.12015 16.4975 6.23682 16.7325 6.47099C16.9667 6.70599 17.0833 7.02515 17.0833 7.37015V9.87015C17.0833 10.2152 16.9658 10.5352 16.7325 10.7685C16.4975 11.0035 16.1783 11.1202 15.8333 11.1202V13.2035C15.8333 13.3692 15.7675 13.5282 15.6503 13.6454C15.5331 13.7626 15.3741 13.8285 15.2083 13.8285C15.0426 13.8285 14.8836 13.7626 14.7664 13.6454C14.6492 13.5282 14.5833 13.3692 14.5833 13.2035V11.1202C14.2383 11.1202 13.9192 11.0035 13.6842 10.7685C13.45 10.5343 13.3333 10.2152 13.3333 9.87015V7.37015C13.3333 7.02515 13.4508 6.70599 13.6842 6.47099C13.9192 6.23682 14.2383 6.12015 14.5833 6.12015V3.07849C14.5833 2.91273 14.6492 2.75375 14.7664 2.63654C14.8836 2.51933 15.0426 2.45349 15.2083 2.45349C15.3741 2.45349 15.5331 2.51933 15.6503 2.63654Z" fill="var(--fill-0, #0C1021)"/>
</g>
</g>
</svg>
