<svg preserveAspectRatio="none" width="100%" height="100%" overflow="visible" style="display: block;" viewBox="0 0 20 20" fill="none" xmlns="http://www.w3.org/2000/svg">
<g id="si:ai-shield-fill">
<path id="Vector" d="M10 8.9975C10.048 9.06173 10.1049 9.11871 10.1692 9.16667C10.1049 9.21463 10.048 9.2716 10 9.33583C9.95204 9.2716 9.89507 9.21463 9.83083 9.16667C9.89507 9.11871 9.95204 9.06173 10 8.9975Z" fill="var(--fill-0, #0C1021)"/>
<path id="Vector_2" fill-rule="evenodd" clip-rule="evenodd" d="M10.0808 1.67667L16.4142 3.2625C16.4864 3.28056 16.5505 3.3223 16.5963 3.38105C16.6421 3.4398 16.6668 3.51219 16.6667 3.58667V9.3775C16.6667 15.8475 10.9033 18.0417 10.0933 18.3175C10.033 18.3393 9.96699 18.3393 9.90667 18.3175C9.09833 18.0333 3.33333 15.7817 3.33333 9.37667V3.585C3.33334 3.51067 3.3582 3.43847 3.40395 3.37989C3.4497 3.3213 3.51372 3.27969 3.58583 3.26167L9.91917 1.67583C9.97224 1.66257 10.0278 1.66257 10.0808 1.67583M10.7683 7.16167C10.575 6.38667 9.50167 6.36167 9.25333 7.08917L9.2325 7.16167L8.985 8.15083L7.99583 8.39833C7.19583 8.59833 7.19583 9.73417 7.99583 9.93417L8.985 10.1817L9.2325 11.1708C9.4325 11.97 10.5683 11.97 10.7683 11.1708L11.0158 10.1817L12.005 9.93417C12.805 9.73417 12.8042 8.59833 12.005 8.39833L11.0158 8.15083L10.7683 7.16167Z" fill="var(--fill-0, #0C1021)"/>
</g>
</svg>
