<svg preserveAspectRatio="none" width="100%" height="100%" overflow="visible" style="display: block;" viewBox="0 0 20 20" fill="none" xmlns="http://www.w3.org/2000/svg">
<g id="material-symbols:home-work-rounded">
<path id="Vector" d="M0.833333 10.0208C0.833333 9.74306 0.895833 9.48611 1.02083 9.25C1.14583 9.01389 1.31944 8.81944 1.54167 8.66667L5.70833 5.6875C5.86111 5.57639 6.0175 5.49639 6.1775 5.4475C6.3375 5.39861 6.50056 5.37444 6.66667 5.375C6.83278 5.37556 6.99611 5.4 7.15667 5.44833C7.31722 5.49667 7.47333 5.57639 7.625 5.6875L11.7917 8.66667C12.0139 8.81944 12.1875 9.01389 12.3125 9.25C12.4375 9.48611 12.5 9.74306 12.5 10.0208V15.8333C12.5 16.2917 12.3369 16.6842 12.0108 17.0108C11.6847 17.3375 11.2922 17.5006 10.8333 17.5H10C9.54167 17.5 9.14945 17.3369 8.82333 17.0108C8.49722 16.6847 8.33389 16.2922 8.33333 15.8333V13.75C8.33333 13.4028 8.21194 13.1078 7.96917 12.865C7.72639 12.6222 7.43111 12.5006 7.08333 12.5H6.25C5.90278 12.5 5.60778 12.6217 5.365 12.865C5.12222 13.1083 5.00056 13.4033 5 13.75V15.8333C5 16.2917 4.83694 16.6842 4.51083 17.0108C4.18472 17.3375 3.79222 17.5006 3.33333 17.5H2.5C2.04167 17.5 1.64944 17.3369 1.32333 17.0108C0.997222 16.6847 0.833889 16.2922 0.833333 15.8333V10.0208ZM19.1667 4.16667V15.8333C19.1667 16.2917 19.0036 16.6842 18.6775 17.0108C18.3514 17.3375 17.9589 17.5006 17.5 17.5H15C14.7639 17.5 14.5661 17.42 14.4067 17.26C14.2472 17.1 14.1672 16.9022 14.1667 16.6667V9.1875C14.1667 8.90972 14.1075 8.65278 13.9892 8.41667C13.8708 8.18056 13.7008 7.98611 13.4792 7.83333L9.125 4.70833C8.94444 4.56944 8.79861 4.40278 8.6875 4.20833C8.57639 4.01389 8.52083 3.81944 8.52083 3.625C8.52083 3.27778 8.63194 3.00361 8.85417 2.8025C9.07639 2.60139 9.375 2.50056 9.75 2.5H17.5C17.9583 2.5 18.3508 2.66333 18.6775 2.99C19.0042 3.31667 19.1672 3.70889 19.1667 4.16667ZM14.5833 7.5H15.4167C15.5278 7.5 15.625 7.45833 15.7083 7.375C15.7917 7.29167 15.8333 7.19444 15.8333 7.08333V6.25C15.8333 6.13889 15.7917 6.04167 15.7083 5.95833C15.625 5.875 15.5278 5.83333 15.4167 5.83333H14.5833C14.4722 5.83333 14.375 5.875 14.2917 5.95833C14.2083 6.04167 14.1667 6.13889 14.1667 6.25V7.08333C14.1667 7.19444 14.2083 7.29167 14.2917 7.375C14.375 7.45833 14.4722 7.5 14.5833 7.5ZM14.5833 10.8333H15.4167C15.5278 10.8333 15.625 10.7917 15.7083 10.7083C15.7917 10.625 15.8333 10.5278 15.8333 10.4167V9.58333C15.8333 9.47222 15.7917 9.375 15.7083 9.29167C15.625 9.20833 15.5278 9.16667 15.4167 9.16667H14.5833C14.4722 9.16667 14.375 9.20833 14.2917 9.29167C14.2083 9.375 14.1667 9.47222 14.1667 9.58333V10.4167C14.1667 10.5278 14.2083 10.625 14.2917 10.7083C14.375 10.7917 14.4722 10.8333 14.5833 10.8333ZM14.5833 14.1667H15.4167C15.5278 14.1667 15.625 14.125 15.7083 14.0417C15.7917 13.9583 15.8333 13.8611 15.8333 13.75V12.9167C15.8333 12.8056 15.7917 12.7083 15.7083 12.625C15.625 12.5417 15.5278 12.5 15.4167 12.5H14.5833C14.4722 12.5 14.375 12.5417 14.2917 12.625C14.2083 12.7083 14.1667 12.8056 14.1667 12.9167V13.75C14.1667 13.8611 14.2083 13.9583 14.2917 14.0417C14.375 14.125 14.4722 14.1667 14.5833 14.1667Z" fill="var(--fill-0, #989AA1)"/>
</g>
</svg>
