<svg width="1672" height="500" viewBox="0 0 1672 500" fill="none" xmlns="http://www.w3.org/2000/svg">
<g clip-path="url(#clip0_1110_1841)">
<g clip-path="url(#clip1_1110_1841)">
<mask id="mask0_1110_1841" style="mask-type:luminance" maskUnits="userSpaceOnUse" x="0" y="0" width="1672" height="562">
<path d="M1672 0H0V561.074H1672V0Z" fill="white"/>
</mask>
<g mask="url(#mask0_1110_1841)">
<path d="M292.039 -103.799H1672V809.349H608.947C600.573 795.07 589.899 781.197 582.801 766.329C576.307 757.337 570.766 747.519 565.015 738.023C552.083 716.702 539.781 695.002 526.918 673.653C525.656 670.624 524.155 667.678 522.724 664.732C508.838 631.895 493.829 599.549 477.712 567.737C468.651 550.273 459.099 533.062 449.097 516.132C431.634 484.81 412.067 454.736 392.331 424.817C384.897 414.409 376.803 405.418 367.896 396.301C347.22 379.033 321.706 367.041 296.836 357.025C289.416 354.038 280.817 352.116 273.874 348.413C272.71 346.295 273.103 345.481 273.467 343.181C272.177 342.62 270.914 342.55 269.54 342.423C268.698 342.886 267.829 343.405 266.917 343.756C261.727 345.776 227.095 329.126 220.025 325.956C213.559 322.575 207.359 319.041 201.257 315.057C187.385 305.94 174.087 295.995 161.421 285.25C157.956 282.739 154.758 279.681 151.504 276.904C159.527 261.895 168.729 247.462 176.766 232.425C191.985 203.782 205.956 174.494 218.636 144.645C250.87 64.3412 275.459 -18.838 292.053 -103.771L292.039 -103.799Z" fill="#FBFCFD"/>
<path d="M790.946 501.446C800.05 500.464 875.598 461.469 892.094 454.287C897.901 451.763 904.83 450.472 910.96 448.677L913.176 433.065C916.781 408.728 922.167 384.504 926.488 360.265L954.766 200.682L972.608 100.881C975.778 83.4878 978.134 64.6076 983.156 47.6772C984.348 43.6656 986.733 40.734 990.127 38.2793C995.051 34.7305 999.511 34.8567 1005.39 35.2915C1025.07 36.7503 1045.07 40.9864 1064.65 43.89L1181.19 61.0729L1391.65 92.3527C1433.12 98.4544 1474.78 103.939 1516.18 110.602C1523.55 111.794 1531.23 113.505 1535.86 119.901C1541.2 126.298 1542.81 132.021 1542.07 140.296C1540.22 160.593 1533.15 188.493 1529.18 209.056L1502.92 347.711C1499.02 368.345 1494.43 388.964 1490.82 409.626C1490.63 410.706 1490.79 411.295 1491.14 412.305L1492.19 412.894C1551.89 427.594 1612.57 439.166 1671.97 454.905V809.349H609.495C601.121 795.098 590.46 781.253 583.363 766.399C576.882 757.422 571.342 747.617 565.577 738.149C552.644 716.856 540.343 695.198 527.494 673.878C526.231 670.848 524.731 667.916 523.3 664.971C509.427 632.19 494.419 599.886 478.302 568.129C504.714 565.689 529.949 557.693 555.954 552.756C576.406 568.718 625.373 568.606 649.92 565.927C669.81 559.713 691.818 547.973 711.035 539.178C736.887 527.339 766.273 515.136 790.946 501.46V501.446Z" fill="#DEDEDC"/>
<path d="M913.147 436.88C913.428 434.987 913.709 433.093 914.017 431.199C918.085 405.937 923.373 380.745 927.932 355.538L957.009 193.36L973.659 100.783C976.689 84.1331 979.003 66.333 983.618 50.0759C984.684 46.3447 986.999 43.0905 990.183 40.8602C994.251 38.0268 998.711 37.606 1003.54 38.0128C1026.19 39.9064 1049.25 44.6054 1071.78 47.9438L1210.08 68.437L1405.08 97.3884C1441.75 102.803 1478.89 107.207 1515.33 113.926C1523.3 115.399 1530.03 116.409 1534.86 123.605C1537.5 127.532 1539.07 132.61 1538.72 137.351C1538 146.721 1535.5 156.273 1533.64 165.475C1530.43 180.904 1527.37 196.362 1524.47 211.847L1484.69 418.224L1452.65 583.895C1450.64 589.675 1449.11 593.883 1444.32 597.992C1443.94 598.315 1443.57 598.638 1443.21 598.96C1441.47 596.856 1439.6 594.836 1437.16 593.532C1425.18 587.108 1394.32 580.697 1379.62 576.167C1381.2 573.123 1383.79 570.079 1384.51 566.713C1384.66 566.025 1384 565.422 1383.65 564.861C1374.06 560.008 1356.13 556.585 1345.1 553.541C1312.6 544.62 1280.05 535.882 1247.44 527.339L980.729 454.568C971.289 451.987 920.582 436.726 915.462 436.992C914.171 437.063 915.308 437.161 913.849 436.992C913.624 436.964 913.386 436.922 913.162 436.894L913.147 436.88Z" fill="#222223"/>
<path d="M996.075 69.6994C996.552 67.0624 996.453 65.0846 998.319 63.1208C1017.31 64.4815 1036.81 68.97 1055.65 72.07L1149.39 86.714L1514.9 144.659L1510.75 165.839C1508.7 176.247 1506.4 186.711 1504.8 197.189L1454.53 459.071C1447.88 493.507 1442.09 528.195 1434.72 562.491C1371.12 544.326 1306.83 528.209 1242.92 511.166L931.383 427.861C934.034 416.892 935.507 405.348 937.484 394.21L949.197 328.439L988.809 108.961L993.83 82.1693L994.56 78.4802L996.047 69.6994H996.075Z" fill="#DAE3EA"/>
<path d="M996.144 69.6574C996.621 67.0484 996.523 65.0706 998.388 63.1208C1017.38 64.4674 1036.88 68.942 1055.72 72.0139L1149.44 86.5737L1514.91 144.168L1510.76 165.222C1508.71 175.574 1506.43 185.968 1504.81 196.39C1491.18 193.122 1476.68 191.621 1462.8 189.236L1360.93 172.208L1051.13 120.042C1041.9 118.443 992.862 111.233 988.906 108.694L993.928 82.0711L994.657 78.4101L996.144 69.6854V69.6574Z" fill="#FBFCFD"/>
<path d="M996.733 69.6854C997.21 67.0624 997.112 65.0846 998.977 63.1208C1017.94 64.4815 1037.43 68.956 1056.24 72.0419L1149.85 86.6439L1514.9 144.406L1510.75 165.517C1501.83 162.543 1488.6 161.659 1479.09 160.074L1399.54 147.142L1117.93 101.737L1054.13 91.7917C1045.74 90.4451 1035.59 89.856 1027.61 87.0506L1015.87 85.3955C1009.29 84.1892 1001.12 81.7064 994.503 82.1132L995.232 78.4382L996.719 69.6854H996.733Z" fill="#DAE3EA"/>
<path d="M1002.77 70.3868C1004.94 69.6715 1007.39 70.5551 1008.25 72.3646C1009.09 74.1741 1008.01 76.222 1005.82 76.9093C1003.66 77.5966 1001.24 76.6989 1000.41 74.9035C999.568 73.108 1000.62 71.0882 1002.77 70.3728V70.3868Z" fill="#EA4335"/>
<path d="M1015.39 73.1922C1017.56 72.4769 1020.02 73.3606 1020.87 75.17C1021.72 76.9795 1020.64 79.0274 1018.45 79.7147C1016.29 80.402 1013.86 79.5043 1013.03 77.7089C1012.19 75.9135 1013.24 73.8936 1015.39 73.1782V73.1922Z" fill="#F8761F"/>
<path d="M1029.42 75.9974C1031.59 75.282 1034.04 76.1657 1034.9 77.9752C1035.74 79.7847 1034.66 81.8326 1032.47 82.5199C1030.31 83.2072 1027.89 82.3095 1027.06 80.5141C1026.22 78.7186 1027.27 76.6988 1029.42 75.9834V75.9974Z" fill="#16B46B"/>
<path d="M1032.5 95.4107C1044.03 94.8216 1079.74 102.466 1093.87 104.781C1140.14 112.341 1186.9 118.948 1232.97 127.602C1232.52 131.46 1232.09 135.654 1231.12 139.399C1230.53 141.685 1230.25 141.91 1228.33 143.074C1191.57 138.459 1154.84 131.081 1118.29 124.965C1091.3 120.449 1063.56 117.349 1036.82 111.654C1034.09 111.079 1031.34 110.672 1029.23 108.694C1027.7 107.249 1026.65 105.664 1026.78 103.49C1026.98 99.759 1029.85 97.5848 1032.5 95.4107Z" fill="#DAE3EA"/>
<path d="M1083.22 451.019C1072.23 446.11 1026.96 439.461 1021.74 432.77C1020.82 428.618 1021.13 424.48 1021.74 420.3C1024.9 398.966 1029.29 377.659 1033.12 356.422L1056.25 228.792C1058.14 218.314 1066.55 163.834 1068.96 158.994C1070.14 156.652 1072.34 155.375 1074.78 154.66C1076.53 154.155 1078.15 154.211 1079.93 154.45C1096.53 156.764 1113.18 160.313 1129.71 163.216L1233.79 181.535L1330.71 198.676C1342.8 200.85 1373.61 204.596 1383.23 209.757C1385.08 211.665 1385.4 213.18 1385.87 215.663L1351.91 401.07C1345.93 433.85 1340.8 469.436 1333.42 501.67C1332.58 505.317 1331.5 510.563 1328.88 513.326C1317.47 513.958 1262.37 497.827 1248.25 494.152L1083.24 450.977L1083.22 451.019Z" fill="#FBFCFD"/>
<path d="M1137.8 399.765C1147.83 401.042 1220.76 418.561 1225.15 421.914C1225.79 422.419 1225.85 423.737 1225.92 424.509C1226.37 430.105 1223.14 448.873 1219.49 453.067C1209.35 451.917 1137.14 434.257 1131.03 429.979C1130.76 429.165 1130.62 428.408 1130.59 427.552C1130.37 421.591 1133.75 404.113 1137.82 399.765H1137.8Z" fill="#4268FF"/>
<path d="M1210.14 199.237C1215.86 198.915 1221.32 199.883 1226.24 202.856C1232.96 206.896 1237.27 213.783 1239.03 221.203C1241.24 230.559 1239.54 240.378 1234.33 248.514C1229.37 256.158 1222.59 260.254 1213.71 262.274C1208.15 262.541 1202.94 261.559 1198.1 258.809C1191.29 254.938 1186.81 248.275 1184.93 240.869C1182.6 231.611 1184.12 221.821 1189.11 213.629C1194.06 205.704 1201.06 201.398 1210.14 199.237Z" fill="#4268FF"/>
<path d="M1225.32 220.221C1226.79 221.358 1226.98 221.273 1227.35 223.237C1222.96 230.545 1212.33 237.306 1205.69 242.664C1203.7 239.817 1202 236.633 1200.22 233.631C1198.79 231.148 1197.72 229.479 1197.92 226.562L1199.32 226.491C1203 228.862 1204.7 232.369 1206.8 236.142C1213.27 231.289 1219.24 225.58 1225.32 220.221Z" fill="#FBFCFD"/>
<path d="M1441.23 617.251C1441.29 613.618 1440.59 609.901 1440.88 606.282C1441.17 602.635 1443.25 604.543 1446.36 602.116C1451.15 598.385 1453.53 593.546 1455.5 587.865C1461.3 571.145 1463.44 551.858 1466.68 534.465L1484 442.743C1485.5 434.888 1486.61 421.843 1489.4 414.9C1490.13 413.091 1490.34 413.133 1492.06 412.375C1551.8 427.089 1612.54 438.676 1672 454.442V520.073L1543.58 578.102L1486.61 603.575C1478.74 607.11 1470.98 611.374 1462.96 614.53C1460.21 615.61 1456.76 615.049 1454.28 616.045C1452.34 616.817 1450.52 622.89 1449.02 624.7C1446.59 627.617 1441.54 630.142 1438.31 632.302C1419.73 644.744 1401.82 658.224 1383.61 671.199L1273.65 750.198L1226.48 784.241C1217.4 790.735 1208.33 797.861 1198.65 803.416C1193.85 806.179 1187.72 808.073 1182.31 809.307H1036.42C1037.68 807.511 1039.02 805.45 1039.85 803.402C1044.96 790.876 1034.52 769.162 1029.56 757.562C1032.25 757.478 1032.85 757.352 1035.15 755.977C1049.92 762.71 1066.67 767.311 1082.03 772.711C1101.99 779.71 1151.81 799.699 1169.64 800.807C1177.72 801.312 1187.2 798.17 1194.11 794.312C1206.98 787.131 1219.12 777.466 1231.08 768.882L1296.25 721.878C1331.06 697.499 1365.57 672.714 1399.81 647.521C1413.5 637.506 1428.38 628.22 1441.22 617.223L1441.23 617.251Z" fill="#B7B7B6"/>
<path d="M960.137 460.529C953.474 458.215 916.177 448.396 914.227 447.007C912.39 443.501 913.259 439.896 914.157 436.235C914.382 436.263 914.62 436.305 914.844 436.333C916.303 436.515 915.167 436.403 916.457 436.333C921.563 436.067 972.158 451.328 981.584 453.909L1247.69 526.68C1280.23 535.222 1312.7 543.947 1345.13 552.882C1356.13 555.926 1374.01 559.349 1383.58 564.202C1383.93 564.777 1384.58 565.38 1384.44 566.067C1383.72 569.42 1381.14 572.478 1379.57 575.521C1377.49 578.523 1372.53 581.286 1369.54 583.517C1268.17 554.004 1166.08 526.638 1064.44 498.009C1027.42 487.573 990.183 477.614 953.39 466.379L960.151 460.529H960.137Z" fill="#28201B"/>
<path d="M1535.17 119.228C1540.51 125.624 1542.13 131.333 1541.38 139.609C1539.53 159.892 1532.46 187.749 1528.49 208.299L1502.25 346.8C1498.33 367.419 1493.76 387.997 1490.14 408.658C1489.96 409.738 1490.11 410.327 1490.46 411.337L1491.52 411.926C1489.81 412.684 1489.58 412.642 1488.87 414.437C1486.07 421.366 1484.97 434.383 1483.48 442.21L1466.17 533.707C1462.93 551.073 1460.8 570.318 1455.01 586.995C1453.03 592.662 1450.66 597.488 1445.87 601.205C1442.77 603.631 1440.7 601.724 1440.39 605.357C1440.11 608.976 1440.81 612.665 1440.75 616.298C1427.93 627.281 1413.06 636.538 1399.39 646.525C1365.21 671.661 1330.73 696.391 1295.95 720.713L1230.87 767.605C1218.92 776.175 1206.8 785.826 1193.94 792.98C1187.04 796.823 1177.58 799.965 1169.52 799.446C1151.7 798.338 1101.94 778.392 1082 771.42C1066.66 766.034 1049.94 761.447 1035.18 754.728C1038.35 752.344 1041.31 749.679 1044.33 747.084C1052 749.679 1060.19 753.284 1068.14 754.728C1076.06 758.824 1086.86 761.293 1095.36 764.239C1115.26 771.14 1135.81 779.794 1156.21 784.774C1162.32 786.261 1169.98 787.579 1176.19 786.696C1182.73 785.756 1189.77 782.361 1195.42 779.009C1205.94 772.753 1215.97 764.982 1226 757.941C1244.83 744.811 1263.54 731.486 1282.11 717.992C1310.63 697.232 1339.87 677.384 1368.08 656.246C1377.32 649.331 1386.89 643.089 1396.18 636.342C1404.48 630.31 1414.03 620.155 1423.91 617.307C1426.08 616.368 1428.27 614.334 1430.18 612.875C1430.49 610.547 1439.86 603.477 1441.9 598.259C1442.28 597.936 1442.65 597.614 1443.03 597.291C1447.8 593.195 1449.32 588.973 1451.32 583.194C1451.61 583.839 1451.85 583.98 1452.4 584.4C1453.78 582.353 1485.72 425.743 1485.19 420.539C1488.75 396.609 1494.59 372.693 1499.16 348.904L1526.22 205.998C1528.93 192.056 1531.7 178.127 1534.55 164.212C1536.39 155.291 1539.07 145.711 1539.39 136.608C1539.62 130.366 1535.98 125.568 1535.18 119.677C1535.17 119.523 1535.15 119.369 1535.14 119.2L1535.17 119.228Z" fill="#C8C7C3"/>
<path d="M881.769 521.799C869.37 518.516 842.41 511.419 832.1 505.738L831.806 504.602C837.15 500.408 845.285 497.532 851.696 495.148C867.434 499.987 883.621 506.103 899.71 509.399L901.94 511.335C896.497 515.907 888.222 518.825 881.783 521.799H881.769Z" fill="#28201B"/>
<path d="M965.973 483.028C967.698 482.481 969.199 482.397 970.98 482.706C978.807 484.109 1016.68 494.685 1022.81 497.546C1023.3 497.771 1023.4 497.883 1023.76 498.192L1021.8 498.963C1027.55 501.277 1030.17 496.494 1037.37 501.249C1036.56 502.329 1036.01 502.652 1034.83 503.213C1039.35 504.476 1044.75 505.415 1048.7 507.996L1049.21 509.16C1047.82 510.844 1046.91 511.657 1044.61 511.896C1036.15 512.765 1027.12 507.477 1018.9 505.892L1018.76 506.846C1014.58 506.131 1010.34 504.602 1006.26 503.424L1007.41 502.498C1000.32 500.422 993.199 498.43 986.256 495.877L985.835 497.448L975.623 494.418L976.773 493.619C969.55 491.15 962.284 489.355 955.242 486.297C958.861 484.445 961.807 482.636 965.987 483.028H965.973Z" fill="#DAE3EA"/>
<path d="M986.087 495.863C987.49 493.254 990.239 492.23 992.806 490.94C1001.77 493.535 1011.03 495.863 1019.75 499.258C1017.25 501.291 1014.7 503.943 1011.31 503.522C1009.92 503.353 1008.57 503.059 1007.23 502.75C1000.14 500.59 993.03 498.528 986.087 495.863Z" fill="#222223"/>
<path d="M955.229 486.199C958.763 484.151 961.653 482.159 965.749 482.594C971.275 484.852 982.763 486.437 986.088 491.627C985.246 493.324 984.236 494.488 982.455 494.965C980.463 495.484 978.247 494.867 976.311 494.292C969.241 491.557 962.13 489.593 955.229 486.199Z" fill="#222223"/>
<path d="M876.286 483.926C886.89 487.138 897.522 490.224 908.197 493.212C911.1 494.068 913.821 494.39 915.953 496.522C915.449 498.472 914.901 499.145 912.952 500.183C908.603 502.484 903.554 504.251 899.023 506.341C892.627 507.014 862.511 496.396 854.235 493.815C861.277 490 868.893 487.068 876.286 483.94V483.926Z" fill="#222223"/>
<path d="M921.971 497.953C931.79 500.197 941.496 502.933 951.02 506.159C944.736 509.637 933.781 517.184 926.333 516.09C919.544 513.102 911.843 511.503 904.662 509.75L903.329 507.926C906.611 503.634 916.949 500.422 921.971 497.967V497.953Z" fill="#222223"/>
<path d="M929.909 481.121C929.909 481.121 930.05 481.149 930.106 481.163C935.927 482.748 952.24 485.343 955.228 490.21C953.559 494.783 943.109 498.655 938.929 500.745C930.246 500.169 918.842 494.937 910.342 492.216C916.345 487.854 923.541 484.978 929.909 481.107V481.121Z" fill="#222223"/>
<path d="M962.452 490.94L974.305 494.25L984.39 497.196C986.017 497.757 986.382 497.785 987.476 499.187C985.582 503.325 973.379 507.267 968.904 509.189C960.25 506.271 951.371 503.9 942.59 501.362C948.916 497.378 955.733 494.222 962.438 490.954L962.452 490.94Z" fill="#222223"/>
<path d="M888.797 477.193L899.205 472.705C905.531 474.528 917.972 476.45 922.826 480.391L922.966 481.878C919.067 486.381 911.744 488.611 906.372 490.925C899.625 491.262 884.56 485.287 878.08 482.509C881.685 480.784 885.29 479.087 888.797 477.193Z" fill="#28201B"/>
<path d="M932.014 480.209C927.497 479.494 907.06 474.626 904.731 471.498C905.882 469.941 906.611 469.605 908.406 468.988C914.452 466.856 929.573 472.354 935.408 475.061C935.128 475.636 934.847 476.183 934.524 476.744C934.44 476.899 934.342 477.053 934.244 477.207C941.51 477.221 946.377 477.572 953.236 480.209L956.182 481.093L956.617 482.495C955.368 484.038 954.148 485.062 952.072 485.287C946.419 485.876 937.554 481.92 932.014 480.223V480.209Z" fill="#222223"/>
<path d="M931.383 479.466C936.348 475.931 946.532 481.892 953.153 479.466L956.182 480.476L956.631 482.075C955.355 483.842 954.106 485.02 951.96 485.259C946.167 485.932 937.064 481.401 931.383 479.466Z" fill="#28201B"/>
<path d="M411.8 168.406C412.81 168.799 413.82 169.164 414.844 169.5C461.483 185.14 556.108 181.718 600.335 159.892C599.283 172.558 597.965 185.295 597.361 198.003C597.053 204.469 597.488 211.034 596.969 217.486C596.127 227.81 592.368 240.07 593.883 250.365C593.139 261.994 592.2 273.65 591.947 285.306C591.653 287.48 591.063 289.668 592.017 291.744C590.32 295.518 588.623 316.46 590.082 319.924C590.586 321.145 591.568 321.159 592.747 321.622L590.292 322.421C587.991 327.499 588.651 334.919 588.328 340.432C587.837 348.946 586.364 383.676 582.072 388.726C578.327 393.13 570.388 395.305 565.128 397.282C562.926 398.11 560.723 398.924 558.507 399.723C550.666 404.212 526.68 405.684 516.932 406.021C496.494 406.737 461.792 406.498 445.759 391.63C435.127 397.044 425.743 404.745 415.938 411.492C408.602 416.541 400.887 420.862 393.018 425.028C385.57 414.648 377.463 405.685 368.527 396.581C347.796 379.356 322.239 367.391 297.313 357.39C289.879 354.402 281.266 352.495 274.309 348.792C273.131 346.688 273.538 345.874 273.888 343.574C276.525 343.111 328.495 299.151 334.695 293.652C340.362 288.616 345.958 283.314 351.078 277.704C364.838 262.625 376.088 242.875 391.279 229.704C398.769 223.209 408.714 219.212 417.607 214.976C420.16 209.968 414.157 185.898 413.105 179.361L411.8 168.406Z" fill="#DAE3EA"/>
<path d="M417.439 214.611C420.441 218.103 423.667 240.659 423.962 246.227L426.921 263.873C433.205 263.13 440.99 257.154 447.19 254.84C462.928 248.962 481.149 246.466 497.841 245.624C501.558 245.287 505.682 245.975 508.642 248.401C511.419 250.674 513.102 254.882 513.327 258.388C513.453 260.324 513.242 262.302 513.06 264.238L513.285 264.939C507.211 278.152 496.214 285.25 482.987 290.145C471.653 294.339 459.632 296.275 448.284 300.385C443.305 303.541 436.979 306.192 432.784 310.302C436.993 337.36 442.168 364.305 446.082 391.391L445.535 391.559C434.917 396.974 425.533 404.688 415.756 411.449C408.42 416.513 400.719 420.833 392.864 424.999C385.416 414.605 377.322 405.614 368.415 396.497C347.712 379.244 322.183 367.251 297.285 357.236C289.851 354.248 281.252 352.326 274.309 348.623C273.131 346.519 273.538 345.706 273.888 343.391C276.525 342.928 328.425 298.898 334.625 293.385C340.291 288.35 345.874 283.034 350.98 277.423C364.726 262.316 375.962 242.524 391.139 229.353C398.615 222.858 408.56 218.847 417.439 214.597V214.611Z" fill="#D79A7B"/>
<path d="M418.715 320.387C422.432 317.035 427.931 311.382 432.742 309.993C436.95 337.121 442.126 364.137 446.054 391.307L445.507 391.475C434.888 396.904 425.49 404.647 415.7 411.422C408.363 416.499 400.649 420.834 392.78 425.014C385.331 414.592 377.224 405.572 368.303 396.441L367.489 393.088C368.219 390.718 369.439 389.175 370.954 387.281L370.715 385.472C374.054 381.502 381.628 378.795 385.864 375.316C399.246 364.361 416.864 337.724 418.701 320.387H418.715Z" fill="#BA7A5B"/>
<path d="M498.107 245.554C501.768 245.217 505.822 245.905 508.726 248.275C511.461 250.505 513.102 254.629 513.34 258.066C513.467 259.959 513.256 261.909 513.074 263.803L511.25 263.424C509.006 265.626 506.692 267.758 504.321 269.834C499.384 272.415 494.292 274.281 488.653 273.243C484.585 272.499 480.405 270.55 478.161 266.917C476.871 264.813 476.548 262.26 477.263 259.903C480.391 249.804 489.775 249.93 497.644 245.806C497.799 245.736 497.939 245.652 498.079 245.568L498.107 245.554Z" fill="#F4DDD2"/>
<path d="M357.685 389.946C380.001 378.402 396.974 360.911 408.027 337.963C410.86 332.071 412.866 324.02 418 319.812C416.191 337.219 398.769 363.954 385.556 374.952C381.362 378.444 373.886 381.151 370.589 385.149C366.423 387.267 362.145 388.586 357.699 389.946H357.685Z" fill="#B0684D"/>
<path d="M410.973 268.937C409.654 261.867 407.284 255.106 406.035 247.995L406.624 248.163C409.57 254.012 411.127 260.282 412.866 266.58C415.714 259.777 418.589 251.01 423.457 245.47L426.388 263.564C425.729 264.644 425.112 265.149 424.018 265.781C414.339 271.321 395.01 277.381 384.308 273.916C385.879 272.682 393.271 273.004 395.683 272.626C400.873 271.812 405.909 270.367 410.945 268.937H410.973Z" fill="#B0684D"/>
<path d="M410.986 168.406C411.996 168.799 413.02 169.164 414.044 169.5C460.88 185.14 555.926 181.718 600.349 159.892C599.283 172.572 597.964 185.309 597.361 198.003C597.052 204.469 597.487 211.034 596.954 217.486C596.113 227.81 592.339 240.084 593.854 250.365C593.111 261.994 592.171 273.65 591.919 285.306C591.624 287.48 591.035 289.682 591.989 291.744C590.277 295.518 588.58 316.46 590.039 319.924C590.558 321.145 591.54 321.159 592.718 321.622L590.249 322.435C587.935 327.513 588.608 334.933 588.286 340.446C587.795 348.96 586.322 383.704 582.002 388.754C578.242 393.159 570.261 395.333 564.987 397.31C562.771 398.152 560.555 398.952 558.338 399.751L557.932 398.531C561.466 387.688 560.527 353.827 560.891 340.698L564.173 202.997C522.037 203.782 449.322 198.564 412.305 179.347L411 168.392L410.986 168.406Z" fill="#C8C7C3"/>
<path d="M513.173 265.107C517.816 269.834 519.064 275.585 518.98 282.038C518.868 291.408 514.673 299.038 507.885 305.379C495.19 317.231 474.795 319.027 466.688 330.178C457.402 342.97 452.843 361.191 449.743 376.396C449 380.015 448.733 386.468 447.331 389.708C447.162 390.087 445.816 391.026 445.437 391.349C441.481 364.305 436.263 337.402 432.027 310.4C436.263 306.304 442.646 303.653 447.653 300.497C459.085 296.401 471.204 294.466 482.636 290.272C495.962 285.376 507.057 278.293 513.173 265.107Z" fill="#C8C7C3"/>
<path d="M605.343 477.853C617.21 466.996 635.781 462.984 651.155 460.473C687.975 454.456 753.663 455.199 784.522 477.951C788.87 481.149 792.98 485.034 793.766 490.659C794.369 495.007 793.106 497.546 790.637 500.969C765.922 514.743 736.494 527.031 710.6 538.953C691.355 547.818 669.319 559.629 649.387 565.885C624.812 568.578 575.76 568.69 555.281 552.63C529.233 557.595 503.957 565.647 477.502 568.101C468.427 550.554 458.875 533.245 448.859 516.23C469.268 511.082 489.635 504.952 509.68 498.528C541.24 488.401 571.454 475.328 605.343 477.881V477.853Z" fill="#B7B7B6"/>
<path d="M292.67 -103.799H345.747C349.324 -84.4976 348.37 -64.6356 342.956 -45.7555C337.415 -26.0618 327.19 -8.85087 317.539 9.00531C308.478 25.7674 299.557 42.81 292.207 60.3997C289.486 66.9222 286.933 73.5288 284.997 80.3318C280.621 95.6772 278.25 114.01 269.245 127.364C262.933 136.72 253.787 142.892 242.65 144.925C234.837 146.342 226.701 145.893 218.818 145.43C251.248 64.8602 275.978 -18.5855 292.67 -103.799Z" fill="#D79A7B"/>
<path d="M589.815 106.604C591.077 111.724 592.508 116.872 593.574 122.034C597.376 123.689 601.471 125.695 603.141 129.762C603.617 130.899 603.87 132.161 604.122 133.353C605.343 139.132 607.727 143.775 610.168 149.105C606.942 153.229 603.646 156.301 599.129 158.994C554.93 180.666 460.375 184.074 413.764 168.533C412.74 168.196 411.73 167.831 410.72 167.439C407.228 166.078 401.982 164.03 399.892 160.818C396.623 155.824 399.499 147.661 400.565 142.274C400.733 139.525 401.743 136.86 402.543 134.237C404.997 131.895 407.676 130.085 410.51 128.219C411.029 123.128 411.899 118.078 412.656 113.014C415.027 113.8 417.243 115.932 419.529 117.068C423.723 119.144 428.548 120.715 433.079 121.964C463.966 130.492 512.794 128.823 544.578 124.054C558.872 121.907 580.641 118.906 589.815 106.59V106.604Z" fill="#222223"/>
<path d="M604.122 133.255C605.343 139.048 607.727 143.705 610.168 149.035C606.942 153.173 603.646 156.259 599.129 158.952C554.93 180.68 460.375 184.088 413.764 168.519C412.74 168.182 411.73 167.817 410.72 167.425C407.228 166.064 401.982 164.002 399.892 160.79C396.623 155.782 399.499 147.605 400.565 142.204C402.515 142.246 406.652 145.683 408.574 146.665C414.956 149.933 422.25 152.318 429.222 154.015C455.522 160.411 492.553 159.948 519.765 158.111C543.695 156.498 587.781 151.897 604.122 133.255Z" fill="#222223"/>
<path d="M594.023 122.034C597.825 123.717 601.92 125.751 603.59 129.875C604.053 131.039 604.319 132.301 604.572 133.522C588.244 152.388 544.186 157.059 520.284 158.686C493.086 160.537 456.083 161 429.811 154.534C422.854 152.823 415.56 150.41 409.192 147.1C407.27 146.104 403.132 142.611 401.196 142.583C401.365 139.806 402.361 137.084 403.16 134.433C405.615 132.063 408.294 130.225 411.127 128.332C410.524 131.165 409.472 134.447 410.159 137.295C410.664 139.371 414.199 141.769 415.896 142.821C445.451 160.944 530.44 155.137 566.18 146.511C574.891 144.407 590.306 140.297 594.823 131.881C596.52 128.696 595.005 125.218 594.037 122.034H594.023Z" fill="#565758"/>
<path d="M412.39 113.786C412.418 112.72 412.726 111.682 413.091 110.686C414.592 106.646 419.389 104.205 423.078 102.55C454.905 88.3551 547.552 84.8203 579.66 97.8653C584.681 99.9132 588.413 102.087 590.531 107.235C581.301 119.789 559.405 122.847 545.042 125.021C513.088 129.875 463.98 131.586 432.925 122.889C428.38 121.613 423.527 120.014 419.305 117.896C417.004 116.745 414.774 114.571 412.39 113.772V113.786Z" fill="#565758"/>
<path d="M493.408 93.2366C509.932 91.7357 556.557 92.3389 569.083 100.166C571.846 101.891 574.385 104.149 575.115 107.418L574.287 108.372C569.602 108.554 561.34 102.971 556.305 101.625C546.458 99.0156 536.064 98.5948 525.95 97.9215C506.341 98.4546 486.465 99.198 467.262 103.602C461.679 104.879 452.618 111.808 447.723 110.658C446.18 109.325 444.917 107.839 444.693 105.72C444.567 104.556 444.763 103.308 445.478 102.396C450.921 95.4248 483.996 93.7556 493.408 93.2085V93.2366Z" fill="#222223"/>
<path d="M453.74 116.423C466.098 117.84 478.484 120.042 490.869 121.571L490.94 122.328L488.19 123.142C478.484 123.689 467.403 123.633 457.892 121.529C455.213 120.939 453.137 120.294 451.65 118.064L453.726 116.437L453.74 116.423Z" fill="#222223"/>
<path d="M429.642 105.23C433.569 105.089 436.768 105.3 440.176 107.207L440.443 108.498C438.801 110.027 436.753 110.223 434.551 110.686C431.017 110.896 427.65 110.966 424.466 109.395C423.694 109.017 423.835 108.708 423.61 107.965C425.237 106.155 427.285 105.847 429.642 105.23Z" fill="#222223"/>
<path d="M592.48 249.678C599.269 253.746 606.156 258.304 608.26 266.44C609.228 270.185 608.877 274.028 606.787 277.339C604.585 280.831 599.886 283.384 595.889 284.156C594.135 284.492 592.312 284.619 590.53 284.731C590.783 273.033 591.723 261.334 592.48 249.664V249.678Z" fill="#BA7A5B"/>
<path d="M590.235 291.759C595.594 294.873 601.106 298.548 602.775 304.775C603.589 307.819 603.042 310.947 601.387 313.64C598.988 317.554 595.061 319.391 590.965 321.215C589.772 320.766 588.791 320.752 588.272 319.546C586.813 316.123 588.524 295.476 590.235 291.759Z" fill="#BA7A5B"/>
<path d="M151.672 277.732C154.912 280.509 158.111 283.567 161.575 286.064C174.227 296.78 187.525 306.711 201.369 315.815C207.471 319.798 213.671 323.333 220.123 326.699C227.179 329.869 261.797 346.491 266.973 344.471C267.871 344.121 268.74 343.602 269.582 343.139C270.957 343.265 272.219 343.349 273.509 343.896C273.145 346.197 272.752 347.01 273.916 349.128C280.86 352.817 289.444 354.739 296.864 357.727C321.72 367.728 347.207 379.707 367.868 396.946C376.761 406.049 384.855 415.026 392.275 425.42C411.997 455.283 431.55 485.315 448.999 516.595C459 533.511 468.539 550.68 477.6 568.115C493.703 599.872 508.698 632.162 522.584 664.957C524.015 667.902 525.516 670.848 526.778 673.864C539.627 695.185 551.914 716.842 564.847 738.135C570.598 747.617 576.139 757.408 582.619 766.385C589.717 781.239 600.377 795.098 608.751 809.335H0V716.253C3.85738 709.183 6.39624 700.627 9.18758 693.067C16.6919 673.036 23.3547 652.711 29.1618 632.12C38.9666 596.814 46.6954 561.284 54.0174 525.39C63.0366 481.149 71.4668 436.109 87.7379 393.818C97.8513 367.532 111.051 343.377 125.512 319.251C133.802 305.421 141.868 290.482 151.686 277.704L151.672 277.732Z" fill="#4268FF"/>
<path d="M151.644 277.732C154.884 280.509 158.083 283.567 161.547 286.063C174.199 296.78 187.483 306.711 201.341 315.814C199.869 316.123 198.536 316.333 197.021 316.347L196.712 317.385C240.574 351.288 285.026 383.69 326.826 420.258C264.238 445.871 208.748 506.93 183.022 568.382C152.093 642.275 150.059 731.233 163.665 809.349H0V716.267C3.85738 709.197 6.39624 700.641 9.18758 693.08C16.6919 673.05 23.3547 652.725 29.1618 632.134C38.9666 596.828 46.6954 561.298 54.0034 525.404C63.0226 481.163 71.4528 436.123 87.7099 393.832C97.8232 367.545 111.022 343.391 125.484 319.265C133.774 305.435 141.825 290.496 151.658 277.718L151.644 277.732Z" fill="#4268FF"/>
<path d="M151.42 277.732C154.66 280.509 157.858 283.567 161.309 286.064C140.254 314.973 120.715 345.004 106.253 377.827C83.4317 429.67 74.9735 485.68 64.9864 541.03C58.8847 574.484 52.1238 607.797 44.7036 640.985C33.9029 689.083 16.9865 735.161 0 781.309V715.902C3.85738 708.847 6.38221 700.29 9.17356 692.744C16.6639 672.728 23.3126 652.417 29.1057 631.839C38.8964 596.562 46.6112 561.06 53.9192 525.207C62.9244 480.995 71.3405 435.997 87.5836 393.748C97.683 367.475 110.868 343.349 125.302 319.237C133.578 305.421 141.629 290.482 151.434 277.732H151.42Z" fill="#2544BD"/>
<path d="M201.215 315.604C207.303 319.588 213.46 323.122 219.899 326.489C220.46 329.238 221.428 330.29 223.56 332.1C242.608 348.174 263.354 362.468 282.739 378.164C293.273 386.678 303.723 395.291 314.075 404.029C319.84 408.911 325.521 414.479 331.679 418.785C340.852 414.746 357.53 410.117 367.489 411.954C361.247 414.816 353.561 415.601 346.926 417.551C337.71 420.272 328.607 424.452 319.994 428.66C258.038 458.888 206.026 519.218 182.068 583.545C159.373 644.463 155.109 716.183 161.926 780.51C169.935 790.567 179.179 799.909 187.903 809.349H163.679C150.115 731.205 152.149 642.205 182.966 568.284C208.607 506.804 263.887 445.717 326.25 420.104C284.605 383.536 240.308 351.106 196.6 317.189L196.909 316.151C198.424 316.123 199.742 315.927 201.215 315.618V315.604Z" fill="#2544BD"/>
<path d="M0 -103.799H291.758C275.193 -18.9362 250.66 64.1589 218.482 144.392C205.816 174.213 191.873 203.473 176.696 232.102C168.673 247.139 159.499 261.545 151.49 276.553C141.671 289.332 133.62 304.284 125.344 318.129C110.91 342.269 97.711 366.437 87.6117 392.752C71.3686 435.071 62.9525 480.125 53.9332 524.408C46.6252 560.316 38.9105 595.874 29.1197 631.208C23.3266 651.814 16.6639 672.152 9.17356 692.197C6.39624 699.757 3.85738 708.328 0 715.397L0 -103.799Z" fill="url(#paint0_linear_1110_1841)"/>
<path d="M0 -103.799H144.477C141.236 -80.7525 133.648 -56.977 127.364 -34.534C95.9717 74.5948 53.288 180.189 0 280.537V-103.799Z" fill="#38251F"/>
<path d="M0 -103.799H92.5772C90.3189 -83.9225 84.5819 -62.9384 79.5322 -43.5954C61.3113 26.3565 36.3155 93.1103 0 155.698V-103.799Z" fill="#28201B"/>
<path d="M144.238 -103.799H168.322C165.713 -78.5783 159.682 -52.4884 154.52 -27.6188C138.838 47.9438 119.284 122.819 90.2207 194.468C68.6754 247.56 42.9221 298.786 21.6294 351.976C17.0146 363.492 12.4699 375.176 8.69664 387.015C5.72295 396.315 3.40852 406.077 0 415.209V281.645C53.2038 181.002 95.8174 75.0998 127.153 -34.3376C133.423 -56.8367 141.012 -80.6823 144.238 -103.799Z" fill="#28201B"/>
</g>
<path d="M1110.11 301.872L1113.84 283.356L1121.66 284.983L1121.19 287.228L1114.9 285.895L1113.83 291.169L1118.96 292.277L1118.51 294.508L1113.38 293.385L1112.05 299.964L1118.3 301.381L1117.86 303.611L1110.1 301.83L1110.11 301.872Z" fill="black"/>
<path d="M1124.32 305.126L1122.34 304.677L1121.71 290.552L1123.35 290.903L1123.86 302.292L1128.78 292.067L1130.45 292.432L1124.32 305.126Z" fill="black"/>
<path d="M1132.89 307.454C1132.02 307.258 1131.31 306.753 1130.73 305.953C1130.16 305.154 1129.76 304.172 1129.57 303.022C1129.37 301.858 1129.41 300.623 1129.68 299.319C1129.88 298.337 1130.2 297.439 1130.61 296.64C1131.03 295.826 1131.52 295.153 1132.08 294.592C1132.64 294.031 1133.26 293.624 1133.9 293.371C1134.55 293.119 1135.19 293.077 1135.85 293.203C1136.57 293.357 1137.17 293.708 1137.68 294.241C1138.19 294.774 1138.59 295.461 1138.85 296.289C1139.13 297.116 1139.27 298.042 1139.29 299.052C1139.3 300.062 1139.16 301.128 1138.88 302.208L1131.18 300.497C1131.1 301.282 1131.14 301.998 1131.28 302.657C1131.43 303.316 1131.69 303.863 1132.04 304.312C1132.4 304.761 1132.84 305.042 1133.37 305.182C1133.93 305.308 1134.49 305.224 1135.04 304.915C1135.59 304.593 1136.08 304.102 1136.51 303.429L1138.03 304.34C1137.39 305.462 1136.62 306.304 1135.7 306.907C1134.79 307.496 1133.85 307.679 1132.91 307.454H1132.89ZM1131.49 298.716L1137.63 300.076C1137.75 299.305 1137.72 298.575 1137.55 297.888C1137.39 297.187 1137.13 296.611 1136.75 296.135C1136.38 295.658 1135.94 295.363 1135.4 295.251C1134.87 295.139 1134.35 295.223 1133.83 295.489C1133.31 295.77 1132.85 296.191 1132.43 296.752C1132.02 297.313 1131.7 297.972 1131.48 298.73L1131.49 298.716Z" fill="black"/>
<path d="M1139.25 308.534L1142.07 294.942L1143.68 295.293L1143.33 297.004C1143.8 296.443 1144.34 296.022 1144.93 295.77C1145.53 295.503 1146.13 295.433 1146.74 295.56C1147.12 295.644 1147.45 295.784 1147.77 295.994L1146.64 298.155C1146.4 297.972 1146.15 297.86 1145.91 297.804C1145.43 297.706 1144.95 297.776 1144.48 298.028C1144.02 298.267 1143.61 298.645 1143.24 299.164C1142.89 299.669 1142.64 300.273 1142.5 300.974L1140.85 308.927L1139.25 308.562V308.534Z" fill="black"/>
<path d="M1155.61 297.86L1157.37 298.239L1147.7 317.652L1145.98 317.245L1149.16 310.821L1148.55 296.345L1150.33 296.724L1150.64 307.833L1155.61 297.86Z" fill="black"/>
<path d="M1163.82 302.054L1161.56 301.563L1159.12 313.079L1157.47 312.7L1159.89 301.198L1158.2 300.834L1158.69 298.505L1160.38 298.87L1161.3 294.508L1162.97 294.858L1162.05 299.221L1164.31 299.712L1163.82 302.054Z" fill="black"/>
<path d="M1173.92 307.328L1172.07 316.039L1170.37 315.646L1172.11 307.468C1172.27 306.753 1172.28 306.08 1172.15 305.449C1172.03 304.817 1171.79 304.284 1171.44 303.864C1171.09 303.429 1170.67 303.148 1170.15 303.036C1169.63 302.924 1169.14 302.994 1168.65 303.246C1168.16 303.485 1167.73 303.878 1167.36 304.397C1166.99 304.916 1166.72 305.533 1166.57 306.234L1164.85 314.37L1163.16 313.991L1167.58 293.105L1169.28 293.456L1167.43 302.194C1167.92 301.619 1168.48 301.198 1169.11 300.932C1169.74 300.651 1170.37 300.595 1171.02 300.722C1171.77 300.89 1172.41 301.283 1172.92 301.942C1173.44 302.587 1173.81 303.373 1173.99 304.312C1174.19 305.252 1174.16 306.248 1173.93 307.314L1173.92 307.328Z" fill="black"/>
<path d="M1177.1 302.461L1178.83 302.826L1175.83 316.894L1174.12 316.502L1177.12 302.447L1177.1 302.461ZM1178.47 300.357C1178.19 300.301 1177.99 300.132 1177.86 299.838C1177.74 299.557 1177.71 299.235 1177.78 298.856C1177.85 298.477 1178.02 298.197 1178.26 298C1178.49 297.79 1178.75 297.72 1179.01 297.776C1179.28 297.832 1179.48 298 1179.62 298.281C1179.74 298.561 1179.77 298.884 1179.7 299.263C1179.63 299.641 1179.46 299.922 1179.22 300.118C1179 300.329 1178.75 300.399 1178.48 300.343L1178.47 300.357Z" fill="black"/>
<path d="M1189.29 310.708L1187.39 319.545L1185.63 319.139L1187.41 310.835C1187.57 310.119 1187.58 309.432 1187.46 308.787C1187.33 308.142 1187.08 307.609 1186.73 307.174C1186.38 306.725 1185.93 306.444 1185.39 306.332C1184.86 306.22 1184.36 306.29 1183.85 306.542C1183.35 306.795 1182.91 307.174 1182.53 307.707C1182.15 308.24 1181.89 308.857 1181.73 309.572L1179.97 317.834L1178.24 317.441L1181.26 303.33L1183 303.709L1182.62 305.476C1183.12 304.901 1183.7 304.466 1184.34 304.2C1184.99 303.919 1185.65 303.849 1186.31 304.004C1187.09 304.172 1187.74 304.579 1188.27 305.238C1188.8 305.883 1189.17 306.697 1189.36 307.651C1189.56 308.604 1189.55 309.628 1189.31 310.694L1189.29 310.708Z" fill="black"/>
<path d="M1200.66 307.51L1202.47 307.903L1199.22 322.743C1199.01 323.683 1198.68 324.539 1198.19 325.268C1197.71 326.026 1197.15 326.643 1196.5 327.12C1195.86 327.611 1195.17 327.947 1194.46 328.13C1193.73 328.312 1193.01 328.326 1192.31 328.158C1191.61 327.99 1190.92 327.597 1190.33 326.994C1189.74 326.404 1189.28 325.675 1188.93 324.819C1188.58 323.978 1188.4 323.066 1188.37 322.112L1190.21 321.495C1190.21 322.182 1190.3 322.828 1190.54 323.431C1190.78 324.048 1191.09 324.553 1191.5 324.974C1191.9 325.395 1192.35 325.661 1192.84 325.787C1193.31 325.9 1193.78 325.886 1194.26 325.773C1194.75 325.661 1195.2 325.437 1195.63 325.128C1196.07 324.833 1196.45 324.441 1196.76 323.964C1197.08 323.501 1197.3 322.968 1197.43 322.365L1198.05 319.517C1197.5 320.261 1196.88 320.822 1196.17 321.201C1195.47 321.565 1194.72 321.663 1193.94 321.481C1193.15 321.299 1192.53 320.948 1191.96 320.415C1191.38 319.882 1190.94 319.209 1190.58 318.409C1190.25 317.61 1190.02 316.726 1189.94 315.758C1189.86 314.79 1189.93 313.794 1190.15 312.756C1190.37 311.718 1190.72 310.779 1191.2 309.937C1191.68 309.081 1192.24 308.366 1192.88 307.791C1193.53 307.202 1194.22 306.781 1194.96 306.528C1195.7 306.276 1196.45 306.234 1197.21 306.388C1197.96 306.542 1198.64 306.963 1199.11 307.594C1199.6 308.226 1199.94 309.011 1200.12 309.923L1200.64 307.538L1200.66 307.51ZM1194.47 319.125C1195.16 319.279 1195.8 319.181 1196.41 318.816C1197.02 318.451 1197.56 317.904 1198 317.175C1198.45 316.445 1198.78 315.618 1198.99 314.678C1199.2 313.738 1199.24 312.812 1199.13 311.971C1199.03 311.115 1198.76 310.4 1198.36 309.811C1197.95 309.222 1197.42 308.857 1196.73 308.703C1196.04 308.548 1195.4 308.661 1194.75 309.011C1194.09 309.362 1193.53 309.895 1193.03 310.61C1192.53 311.326 1192.2 312.153 1191.99 313.121C1191.78 314.089 1191.75 314.987 1191.9 315.856C1192.07 316.712 1192.37 317.427 1192.8 318.016C1193.25 318.592 1193.81 318.956 1194.46 319.111L1194.47 319.125Z" fill="black"/>
<path d="M1203.81 310.035L1206.13 302.629L1207.95 303.008L1205.02 310.288L1203.81 310.021V310.035Z" fill="black"/>
<path d="M1208.72 324.721C1208.15 324.553 1207.6 324.287 1207.09 323.894C1206.6 323.501 1206.2 323.024 1205.87 322.477C1205.56 321.916 1205.38 321.327 1205.33 320.682L1207.08 320.135C1207.12 320.485 1207.25 320.836 1207.46 321.187C1207.68 321.537 1207.95 321.846 1208.29 322.098C1208.62 322.351 1208.97 322.533 1209.35 322.617C1209.76 322.702 1210.15 322.716 1210.53 322.617C1210.92 322.533 1211.26 322.351 1211.54 322.084C1211.83 321.804 1212.05 321.439 1212.14 320.99C1212.26 320.499 1212.21 320.107 1212.02 319.77C1211.83 319.433 1211.58 319.153 1211.25 318.914C1210.92 318.662 1210.59 318.437 1210.24 318.199C1209.55 317.778 1208.95 317.329 1208.43 316.852C1207.92 316.361 1207.56 315.814 1207.33 315.197C1207.12 314.58 1207.11 313.837 1207.29 312.995C1207.49 312.097 1207.84 311.354 1208.36 310.779C1208.88 310.204 1209.48 309.797 1210.17 309.572C1210.85 309.348 1211.55 309.306 1212.26 309.46C1213.14 309.657 1213.9 310.077 1214.51 310.737C1215.13 311.396 1215.54 312.209 1215.71 313.149L1213.97 313.977C1213.92 313.598 1213.8 313.247 1213.6 312.939C1213.41 312.616 1213.15 312.336 1212.86 312.111C1212.56 311.887 1212.24 311.733 1211.9 311.648C1211.48 311.536 1211.08 311.522 1210.67 311.606C1210.26 311.69 1209.93 311.873 1209.62 312.167C1209.32 312.448 1209.13 312.841 1209.02 313.332C1208.9 313.823 1208.95 314.201 1209.13 314.51C1209.31 314.818 1209.58 315.085 1209.93 315.323C1210.28 315.548 1210.66 315.814 1211.08 316.109C1211.68 316.53 1212.23 316.993 1212.72 317.498C1213.21 317.989 1213.57 318.564 1213.81 319.195C1214.05 319.826 1214.08 320.555 1213.88 321.369C1213.69 322.267 1213.31 322.996 1212.76 323.571C1212.21 324.132 1211.58 324.525 1210.87 324.721C1210.15 324.918 1209.44 324.918 1208.72 324.721Z" fill="black"/>
<path d="M1220.2 327.064L1224.75 306.529L1230.29 307.693C1231.14 307.875 1231.85 308.296 1232.41 308.983C1232.99 309.671 1233.37 310.526 1233.56 311.536C1233.77 312.546 1233.75 313.612 1233.49 314.748C1233.27 315.744 1232.92 316.628 1232.43 317.371C1231.94 318.129 1231.37 318.718 1230.72 319.153C1230.07 319.574 1229.4 319.826 1228.68 319.882L1230.59 329.434L1228.39 328.929L1226.51 319.616L1223.94 319.055L1222.07 327.485L1220.2 327.05V327.064ZM1224.49 316.586L1227.94 317.343C1228.44 317.455 1228.96 317.399 1229.45 317.161C1229.96 316.922 1230.39 316.544 1230.77 316.039C1231.15 315.52 1231.43 314.903 1231.59 314.201C1231.74 313.5 1231.75 312.813 1231.63 312.195C1231.5 311.564 1231.26 311.045 1230.91 310.638C1230.56 310.218 1230.13 309.951 1229.61 309.839L1226.14 309.109L1224.47 316.6L1224.49 316.586Z" fill="black"/>
<path d="M1237.41 331.398C1236.35 331.16 1235.47 330.585 1234.75 329.687C1234.05 328.789 1233.58 327.695 1233.32 326.405C1233.09 325.1 1233.11 323.739 1233.44 322.309C1233.67 321.229 1234.05 320.247 1234.56 319.363C1235.06 318.479 1235.67 317.736 1236.34 317.133C1237.03 316.53 1237.77 316.095 1238.56 315.828C1239.34 315.576 1240.14 315.534 1240.93 315.702C1241.8 315.884 1242.54 316.291 1243.17 316.908C1243.8 317.512 1244.29 318.283 1244.63 319.195C1244.98 320.121 1245.15 321.144 1245.18 322.267C1245.2 323.389 1245.04 324.553 1244.7 325.759L1235.29 323.669C1235.19 324.525 1235.23 325.324 1235.43 326.068C1235.62 326.797 1235.93 327.414 1236.37 327.919C1236.8 328.424 1237.35 328.761 1237.99 328.915C1238.68 329.07 1239.37 328.985 1240.03 328.663C1240.7 328.326 1241.29 327.793 1241.82 327.064L1243.68 328.102C1242.92 329.322 1241.96 330.248 1240.84 330.879C1239.72 331.496 1238.58 331.679 1237.43 331.412L1237.41 331.398ZM1235.67 321.706L1243.18 323.361C1243.31 322.505 1243.27 321.706 1243.07 320.934C1242.88 320.163 1242.55 319.503 1242.09 318.97C1241.64 318.437 1241.08 318.101 1240.44 317.96C1239.79 317.82 1239.14 317.89 1238.53 318.185C1237.9 318.479 1237.34 318.928 1236.83 319.545C1236.34 320.149 1235.95 320.878 1235.67 321.706Z" fill="black"/>
<path d="M1258 319.812L1260 320.247L1256.55 335.382L1254.56 334.919L1255.05 332.352C1254.48 333.137 1253.8 333.727 1253.03 334.119C1252.26 334.512 1251.43 334.61 1250.53 334.4C1249.64 334.189 1248.91 333.811 1248.26 333.236C1247.6 332.647 1247.07 331.917 1246.66 331.062C1246.26 330.192 1246 329.252 1245.91 328.214C1245.81 327.19 1245.88 326.11 1246.13 325.016C1246.38 323.922 1246.76 322.968 1247.28 322.098C1247.81 321.215 1248.43 320.485 1249.15 319.896C1249.88 319.293 1250.65 318.872 1251.47 318.634C1252.3 318.381 1253.14 318.339 1254 318.522C1254.93 318.718 1255.68 319.181 1256.26 319.896C1256.83 320.597 1257.24 321.453 1257.48 322.435L1258 319.826V319.812ZM1251.05 331.959C1251.83 332.142 1252.55 332.043 1253.24 331.693C1253.93 331.328 1254.52 330.767 1255.02 329.995C1255.53 329.238 1255.89 328.34 1256.13 327.344C1256.37 326.348 1256.41 325.353 1256.29 324.455C1256.16 323.543 1255.86 322.786 1255.39 322.183C1254.93 321.565 1254.32 321.173 1253.54 321.004C1252.75 320.836 1251.99 320.934 1251.25 321.285C1250.51 321.635 1249.85 322.182 1249.29 322.94C1248.74 323.683 1248.35 324.553 1248.11 325.563C1247.87 326.573 1247.86 327.541 1248.05 328.453C1248.25 329.364 1248.61 330.122 1249.13 330.767C1249.65 331.384 1250.3 331.791 1251.05 331.959Z" fill="black"/>
<path d="M1273.68 315.127L1275.74 315.548L1270.44 338.552L1268.39 338.089L1268.99 335.494C1268.38 336.294 1267.65 336.897 1266.83 337.275C1266.02 337.668 1265.14 337.752 1264.2 337.542C1263.33 337.346 1262.56 336.953 1261.88 336.364C1261.22 335.775 1260.68 335.045 1260.26 334.19C1259.85 333.32 1259.6 332.366 1259.48 331.342C1259.37 330.304 1259.44 329.238 1259.69 328.144C1259.95 327.05 1260.34 326.054 1260.89 325.156C1261.43 324.259 1262.08 323.501 1262.82 322.898C1263.58 322.281 1264.38 321.846 1265.25 321.593C1266.11 321.341 1266.97 321.313 1267.86 321.495C1268.8 321.692 1269.56 322.14 1270.13 322.842C1270.71 323.543 1271.1 324.385 1271.3 325.381L1273.67 315.113L1273.68 315.127ZM1264.79 335.073C1265.59 335.256 1266.33 335.171 1267.02 334.807C1267.72 334.442 1268.34 333.867 1268.84 333.095C1269.36 332.324 1269.74 331.426 1269.98 330.402C1270.21 329.378 1270.27 328.382 1270.13 327.485C1270 326.573 1269.7 325.802 1269.22 325.184C1268.76 324.553 1268.12 324.16 1267.33 323.992C1266.53 323.824 1265.74 323.908 1264.98 324.273C1264.23 324.623 1263.55 325.184 1262.98 325.942C1262.4 326.685 1262 327.569 1261.77 328.593C1261.55 329.617 1261.52 330.585 1261.71 331.51C1261.91 332.422 1262.29 333.208 1262.82 333.853C1263.36 334.484 1264.02 334.891 1264.79 335.059V335.073Z" fill="black"/>
<path d="M1284.93 325.591L1287.16 326.068L1274.98 347.669L1272.8 347.15L1276.79 340.011L1275.92 323.669L1278.2 324.16L1278.66 336.7L1284.93 325.591Z" fill="black"/>
<path d="M1086.27 327.835L1086.77 309.095L1088.26 309.46L1087.85 324.272L1093.11 310.638L1094.42 310.961L1094.01 325.872L1099.33 312.153L1100.84 312.518L1094.09 329.897L1092.4 329.448L1092.78 315.786L1087.95 328.27L1086.28 327.835H1086.27Z" fill="black"/>
<path d="M1101.51 332.184C1100.7 331.973 1100.03 331.468 1099.48 330.683C1098.95 329.897 1098.58 328.929 1098.39 327.807C1098.2 326.671 1098.23 325.465 1098.48 324.216C1098.68 323.262 1098.96 322.407 1099.35 321.635C1099.75 320.864 1100.21 320.205 1100.73 319.686C1101.26 319.153 1101.84 318.774 1102.44 318.549C1103.04 318.325 1103.66 318.283 1104.26 318.437C1104.94 318.606 1105.5 318.956 1105.97 319.489C1106.47 320.022 1106.83 320.696 1107.08 321.495C1107.35 322.309 1107.48 323.206 1107.49 324.188C1107.49 325.17 1107.38 326.194 1107.11 327.246L1099.89 325.395C1099.8 326.152 1099.84 326.853 1099.99 327.499C1100.13 328.144 1100.36 328.677 1100.7 329.112C1101.04 329.561 1101.46 329.841 1101.95 329.981C1102.48 330.122 1103 330.037 1103.51 329.757C1104.02 329.462 1104.47 328.999 1104.89 328.354L1106.31 329.266C1105.72 330.332 1104.99 331.146 1104.12 331.693C1103.27 332.24 1102.38 332.394 1101.5 332.156L1101.51 332.184ZM1100.21 323.683L1105.97 325.142C1106.07 324.399 1106.04 323.683 1105.9 323.024C1105.75 322.351 1105.51 321.776 1105.16 321.299C1104.81 320.822 1104.39 320.527 1103.9 320.401C1103.41 320.275 1102.92 320.345 1102.43 320.597C1101.95 320.85 1101.5 321.243 1101.11 321.79C1100.73 322.323 1100.42 322.954 1100.21 323.683Z" fill="black"/>
<path d="M1109.21 321.734L1111.16 315.001L1112.68 315.365L1110.22 321.972L1109.21 321.72V321.734Z" fill="black"/>
<path d="M1115.25 335.438L1113.3 334.933L1112.68 320.892L1114.29 321.299L1114.78 332.619L1119.64 322.617L1121.28 323.024L1115.25 335.438Z" fill="black"/>
<path d="M1123.66 338.005C1122.82 337.78 1122.11 337.261 1121.53 336.448C1120.97 335.634 1120.59 334.652 1120.38 333.488C1120.18 332.324 1120.23 331.104 1120.49 329.813C1120.69 328.845 1121 327.962 1121.4 327.176C1121.81 326.391 1122.3 325.717 1122.85 325.184C1123.41 324.637 1124 324.258 1124.63 324.034C1125.26 323.81 1125.91 323.768 1126.54 323.936C1127.24 324.104 1127.84 324.469 1128.33 325.03C1128.84 325.577 1129.23 326.264 1129.5 327.092C1129.78 327.92 1129.92 328.845 1129.92 329.841C1129.93 330.851 1129.81 331.889 1129.53 332.969L1121.97 331.033C1121.88 331.805 1121.92 332.52 1122.06 333.18C1122.22 333.839 1122.46 334.386 1122.81 334.835C1123.16 335.284 1123.59 335.592 1124.11 335.732C1124.67 335.873 1125.21 335.803 1125.75 335.508C1126.29 335.213 1126.78 334.737 1127.2 334.077L1128.68 335.017C1128.07 336.111 1127.31 336.925 1126.4 337.486C1125.5 338.033 1124.59 338.187 1123.66 337.949V338.005ZM1122.29 329.294L1128.32 330.823C1128.42 330.066 1128.4 329.336 1128.24 328.649C1128.08 327.948 1127.81 327.358 1127.45 326.882C1127.08 326.391 1126.65 326.096 1126.13 325.956C1125.61 325.815 1125.09 325.886 1124.59 326.152C1124.08 326.419 1123.62 326.811 1123.21 327.358C1122.81 327.905 1122.5 328.551 1122.27 329.294H1122.29Z" fill="black"/>
<path d="M1134.55 340.488L1138.46 321.607L1142.88 322.673C1143.8 322.898 1144.63 323.361 1145.33 324.062C1146.05 324.749 1146.62 325.605 1147.06 326.643C1147.49 327.667 1147.77 328.803 1147.87 330.038C1147.98 331.272 1147.9 332.548 1147.63 333.867C1147.35 335.185 1146.92 336.378 1146.33 337.43C1145.74 338.482 1145.05 339.365 1144.25 340.081C1143.45 340.782 1142.6 341.287 1141.69 341.568C1140.77 341.848 1139.86 341.862 1138.94 341.624L1134.55 340.474V340.488ZM1136.61 338.65L1139.41 339.379C1140.12 339.562 1140.8 339.548 1141.49 339.337C1142.19 339.113 1142.84 338.734 1143.44 338.201C1144.04 337.668 1144.58 336.995 1145.01 336.181C1145.46 335.368 1145.8 334.47 1146.01 333.474C1146.22 332.478 1146.27 331.51 1146.19 330.571C1146.1 329.631 1145.89 328.761 1145.56 327.976C1145.22 327.204 1144.79 326.545 1144.25 326.026C1143.72 325.493 1143.1 325.142 1142.4 324.974L1139.58 324.287L1136.59 338.65H1136.61Z" fill="black"/>
<path d="M1151.42 345.285C1150.52 345.046 1149.78 344.513 1149.18 343.672C1148.57 342.83 1148.18 341.82 1147.96 340.628C1147.75 339.421 1147.79 338.173 1148.07 336.855C1148.28 335.859 1148.6 334.961 1149.04 334.161C1149.47 333.348 1149.98 332.675 1150.57 332.127C1151.15 331.58 1151.79 331.188 1152.46 330.949C1153.13 330.725 1153.81 330.697 1154.48 330.851C1155.38 331.075 1156.13 331.608 1156.74 332.436C1157.35 333.278 1157.76 334.302 1157.97 335.508C1158.18 336.728 1158.15 338.005 1157.87 339.337C1157.66 340.333 1157.34 341.245 1156.89 342.044C1156.46 342.844 1155.94 343.531 1155.33 344.078C1154.75 344.625 1154.11 345.004 1153.44 345.215C1152.77 345.439 1152.11 345.453 1151.42 345.271V345.285ZM1151.91 342.998C1152.53 343.153 1153.12 343.082 1153.71 342.76C1154.3 342.437 1154.82 341.932 1155.25 341.273C1155.7 340.6 1156.01 339.814 1156.2 338.945C1156.4 338.075 1156.41 337.191 1156.29 336.364C1156.16 335.536 1155.9 334.835 1155.5 334.274C1155.11 333.698 1154.61 333.334 1153.99 333.194C1153.37 333.053 1152.77 333.137 1152.19 333.46C1151.6 333.783 1151.1 334.288 1150.65 334.961C1150.2 335.634 1149.89 336.42 1149.71 337.303C1149.53 338.187 1149.49 339.085 1149.63 339.898C1149.77 340.712 1150.03 341.399 1150.44 341.96C1150.85 342.521 1151.34 342.872 1151.93 343.026L1151.91 342.998Z" fill="black"/>
<path d="M1168.7 340.333L1166.86 348.96L1165.18 348.511L1166.91 340.403C1167.06 339.702 1167.07 339.029 1166.95 338.397C1166.82 337.766 1166.58 337.219 1166.25 336.784C1165.91 336.335 1165.48 336.055 1164.97 335.929C1164.47 335.802 1163.97 335.859 1163.48 336.097C1163.01 336.321 1162.57 336.7 1162.21 337.205C1161.84 337.71 1161.58 338.313 1161.44 339.015L1159.72 347.08L1158.06 346.645L1160.97 332.871L1162.64 333.292L1162.28 335.017C1162.77 334.456 1163.32 334.063 1163.95 333.811C1164.56 333.558 1165.2 333.502 1165.84 333.67C1166.58 333.853 1167.22 334.274 1167.73 334.947C1168.25 335.606 1168.6 336.406 1168.79 337.345C1168.97 338.285 1168.95 339.281 1168.73 340.333H1168.7Z" fill="black"/>
<path d="M1173.07 350.966C1172.13 350.713 1171.34 350.166 1170.72 349.31C1170.11 348.455 1169.68 347.417 1169.46 346.196C1169.25 344.962 1169.28 343.686 1169.57 342.339C1169.8 341.315 1170.12 340.403 1170.58 339.59C1171.03 338.762 1171.56 338.075 1172.17 337.514C1172.78 336.953 1173.44 336.56 1174.13 336.322C1174.83 336.097 1175.53 336.069 1176.24 336.237C1177.01 336.434 1177.67 336.812 1178.23 337.416C1178.79 338.005 1179.22 338.72 1179.52 339.604C1179.83 340.473 1179.98 341.441 1179.99 342.507C1180.01 343.573 1179.87 344.667 1179.56 345.79L1171.21 343.658C1171.13 344.471 1171.16 345.215 1171.33 345.916C1171.49 346.603 1171.76 347.192 1172.15 347.669C1172.55 348.146 1173.02 348.469 1173.6 348.637C1174.22 348.791 1174.8 348.721 1175.41 348.427C1176 348.118 1176.53 347.627 1177.01 346.954L1178.65 347.964C1177.97 349.1 1177.13 349.956 1176.14 350.531C1175.14 351.092 1174.13 351.246 1173.12 350.98L1173.07 350.966ZM1171.52 341.792L1178.18 343.489C1178.3 342.69 1178.27 341.932 1178.09 341.203C1177.92 340.473 1177.62 339.842 1177.22 339.337C1176.81 338.818 1176.33 338.496 1175.76 338.355C1175.18 338.215 1174.62 338.271 1174.06 338.538C1173.5 338.804 1172.99 339.225 1172.55 339.786C1172.1 340.347 1171.76 341.02 1171.51 341.806L1171.52 341.792Z" fill="black"/>
<path d="M1185.38 353.813L1189.67 334.007L1191.44 334.442L1187.13 354.276L1185.38 353.813Z" fill="black"/>
<path d="M1198.05 344.597L1195.63 343.994L1193.04 355.833L1191.26 355.37L1193.84 343.559L1192.02 343.11L1192.53 340.726L1194.36 341.175L1195.33 336.7L1197.11 337.135L1196.14 341.624L1198.57 342.227L1198.05 344.625V344.597Z" fill="black"/>
<path d="M1212.06 339.436L1214.29 339.983L1215.4 361.696L1213.43 361.177L1213.21 356.745L1206.03 354.893L1204.01 358.708L1202.07 358.203L1212.05 339.436H1212.06ZM1207.25 352.649L1213.07 354.136L1212.48 342.816L1207.25 352.649Z" fill="black"/>
<path d="M1217.42 362.215L1222.29 340.361L1224.16 340.81L1219.28 362.692L1217.42 362.201V362.215Z" fill="black"/>
<path d="M1221.96 363.407L1226.86 341.469L1228.75 341.932L1223.84 363.912L1221.96 363.421V363.407Z" fill="black"/>
<path d="M1238.74 348.286L1237.91 351.947L1241.29 352.789L1240.73 355.286L1237.35 354.444L1234.57 366.732L1232.65 366.227L1235.41 353.967L1233.94 353.603L1234.5 351.12L1235.97 351.485L1236.8 347.838C1236.97 347.08 1237.27 346.421 1237.69 345.888C1238.12 345.341 1238.61 344.934 1239.19 344.682C1239.76 344.429 1240.35 344.359 1240.93 344.513C1241.36 344.611 1241.75 344.836 1242.1 345.158C1242.47 345.481 1242.75 345.888 1242.97 346.407L1241.18 347.838C1241.11 347.627 1241 347.445 1240.84 347.305C1240.7 347.15 1240.53 347.052 1240.35 347.01C1240 346.926 1239.66 347.01 1239.34 347.263C1239.02 347.515 1238.81 347.866 1238.71 348.315L1238.74 348.286Z" fill="black"/>
<path d="M1244.56 369.733C1243.49 369.453 1242.6 368.85 1241.87 367.91C1241.15 366.984 1240.67 365.862 1240.41 364.544C1240.16 363.225 1240.2 361.85 1240.52 360.42C1240.77 359.326 1241.15 358.358 1241.66 357.488C1242.17 356.618 1242.78 355.889 1243.47 355.3C1244.17 354.711 1244.91 354.304 1245.71 354.065C1246.51 353.827 1247.31 353.813 1248.12 354.009C1249.2 354.276 1250.1 354.879 1250.83 355.805C1251.56 356.731 1252.06 357.867 1252.32 359.199C1252.58 360.532 1252.54 361.935 1252.2 363.393C1251.95 364.487 1251.57 365.455 1251.04 366.325C1250.52 367.195 1249.9 367.924 1249.2 368.499C1248.5 369.074 1247.76 369.481 1246.96 369.691C1246.16 369.916 1245.36 369.916 1244.56 369.705V369.733ZM1245.12 367.237C1245.85 367.433 1246.57 367.349 1247.27 367.026C1247.97 366.69 1248.59 366.157 1249.1 365.427C1249.64 364.698 1250.02 363.856 1250.23 362.902C1250.44 361.949 1250.48 360.981 1250.31 360.083C1250.16 359.185 1249.83 358.414 1249.36 357.769C1248.88 357.137 1248.28 356.731 1247.55 356.548C1246.82 356.366 1246.1 356.45 1245.4 356.801C1244.71 357.137 1244.1 357.67 1243.58 358.4C1243.06 359.129 1242.68 359.971 1242.47 360.925C1242.26 361.878 1242.22 362.86 1242.39 363.758C1242.55 364.656 1242.88 365.413 1243.35 366.03C1243.83 366.648 1244.43 367.054 1245.12 367.237Z" fill="black"/>
<path d="M1252.46 371.403L1255.89 356.408L1257.9 356.899L1257.46 358.778C1258.05 358.175 1258.71 357.755 1259.44 357.502C1260.19 357.236 1260.94 357.207 1261.7 357.39C1262.16 357.502 1262.6 357.698 1262.99 357.951L1261.59 360.293C1261.29 360.083 1260.99 359.929 1260.68 359.859C1260.07 359.704 1259.48 359.76 1258.9 359.999C1258.32 360.237 1257.82 360.63 1257.38 361.177C1256.95 361.724 1256.64 362.383 1256.47 363.141L1254.45 371.922L1252.46 371.403Z" fill="black"/>
<path d="M1282.47 356.478L1284.94 357.081L1276.3 367.405L1274.06 377.069L1272 376.522L1274.24 366.872L1271.15 353.729L1273.58 354.318L1275.94 364.319L1282.49 356.478H1282.47Z" fill="black"/>
<path d="M1285.39 380.464C1284.24 380.156 1283.27 379.524 1282.5 378.542C1281.73 377.575 1281.21 376.41 1280.93 375.036C1280.66 373.661 1280.71 372.244 1281.06 370.758C1281.32 369.635 1281.73 368.626 1282.28 367.728C1282.84 366.83 1283.48 366.073 1284.21 365.483C1284.97 364.88 1285.77 364.46 1286.63 364.221C1287.48 363.983 1288.35 363.983 1289.22 364.193C1290.39 364.474 1291.35 365.105 1292.14 366.073C1292.92 367.04 1293.46 368.219 1293.74 369.607C1294.02 370.996 1293.99 372.441 1293.63 373.956C1293.36 375.078 1292.95 376.088 1292.39 376.986C1291.83 377.883 1291.17 378.627 1290.41 379.23C1289.67 379.819 1288.86 380.226 1288 380.45C1287.15 380.675 1286.29 380.675 1285.42 380.45L1285.39 380.464ZM1286 377.869C1286.78 378.08 1287.55 378.009 1288.3 377.659C1289.05 377.308 1289.71 376.761 1290.27 376.018C1290.85 375.274 1291.24 374.405 1291.48 373.409C1291.72 372.413 1291.75 371.417 1291.56 370.477C1291.4 369.537 1291.04 368.738 1290.54 368.064C1290.02 367.405 1289.38 366.97 1288.6 366.774C1287.83 366.578 1287.05 366.662 1286.3 367.012C1285.56 367.363 1284.9 367.91 1284.34 368.654C1283.78 369.397 1283.39 370.281 1283.15 371.263C1282.91 372.244 1282.88 373.268 1283.05 374.208C1283.23 375.134 1283.58 375.919 1284.1 376.579C1284.62 377.224 1285.27 377.645 1286.01 377.841L1286 377.869Z" fill="black"/>
<path d="M1294.59 376.186L1296.87 366.549L1299.01 367.082L1296.87 376.158C1296.68 376.943 1296.67 377.701 1296.82 378.43C1296.99 379.159 1297.29 379.777 1297.72 380.296C1298.17 380.815 1298.72 381.151 1299.36 381.32C1300.01 381.488 1300.64 381.46 1301.26 381.221C1301.87 380.969 1302.42 380.576 1302.9 380.001C1303.37 379.44 1303.7 378.767 1303.89 377.967L1306.07 368.836L1308.26 369.383L1304.54 385.051L1302.36 384.476L1302.83 382.484C1302.2 383.087 1301.48 383.522 1300.68 383.774C1299.88 384.013 1299.08 384.041 1298.28 383.816C1297.33 383.564 1296.52 383.059 1295.86 382.287C1295.21 381.516 1294.76 380.59 1294.52 379.524C1294.29 378.458 1294.31 377.336 1294.59 376.172V376.186Z" fill="black"/>
<path d="M1143.5 424.438C1142.98 424.312 1142.51 424.088 1142.09 423.765C1141.67 423.428 1141.35 423.022 1141.1 422.545C1140.86 422.068 1140.73 421.521 1140.73 420.932L1141.94 420.637C1141.94 421.002 1142.02 421.338 1142.21 421.647C1142.39 421.956 1142.63 422.222 1142.92 422.432C1143.22 422.657 1143.55 422.797 1143.9 422.895C1144.31 422.994 1144.72 422.994 1145.12 422.895C1145.53 422.797 1145.9 422.615 1146.19 422.334C1146.5 422.068 1146.71 421.703 1146.84 421.268C1146.96 420.833 1146.93 420.427 1146.79 420.104C1146.64 419.767 1146.41 419.473 1146.09 419.22C1145.78 418.968 1145.45 418.757 1145.08 418.575C1144.46 418.281 1143.92 417.93 1143.47 417.551C1143.02 417.158 1142.71 416.681 1142.54 416.134C1142.37 415.587 1142.4 414.914 1142.61 414.115C1142.81 413.371 1143.15 412.768 1143.61 412.291C1144.09 411.814 1144.62 411.478 1145.24 411.295C1145.85 411.113 1146.46 411.085 1147.07 411.211C1147.58 411.323 1148.04 411.534 1148.46 411.856C1148.88 412.165 1149.23 412.572 1149.49 413.049C1149.75 413.539 1149.88 414.087 1149.88 414.704L1148.63 414.984C1148.63 414.62 1148.55 414.283 1148.35 413.974C1148.17 413.666 1147.93 413.399 1147.62 413.189C1147.33 412.978 1146.99 412.824 1146.62 412.74C1146.22 412.642 1145.81 412.642 1145.42 412.74C1145.01 412.838 1144.66 413.034 1144.35 413.301C1144.04 413.568 1143.83 413.918 1143.72 414.353C1143.58 414.858 1143.58 415.279 1143.71 415.601C1143.83 415.91 1144.06 416.177 1144.38 416.387C1144.69 416.597 1145.05 416.808 1145.47 417.018C1146.06 417.299 1146.57 417.649 1147.03 418.084C1147.48 418.505 1147.8 419.01 1147.99 419.585C1148.18 420.16 1148.17 420.819 1147.99 421.549C1147.8 422.278 1147.44 422.909 1146.96 423.386C1146.48 423.863 1145.94 424.2 1145.33 424.382C1144.72 424.565 1144.1 424.579 1143.48 424.424L1143.5 424.438ZM1154.21 418.547L1152.63 418.182L1150.54 425.855L1149.37 425.574L1151.46 417.916L1150.27 417.649L1150.69 416.106L1151.88 416.373L1152.66 413.483L1153.83 413.736L1153.06 416.625L1154.65 416.976L1154.23 418.533L1154.21 418.547ZM1161.42 418.519L1162.63 418.786L1160.1 428.127L1158.91 427.847L1159.29 426.262C1158.93 426.753 1158.49 427.117 1158.01 427.356C1157.54 427.594 1157.03 427.65 1156.49 427.524C1155.94 427.398 1155.52 427.16 1155.14 426.795C1154.76 426.43 1154.45 425.981 1154.23 425.448C1154 424.915 1153.89 424.326 1153.85 423.681C1153.82 423.05 1153.89 422.376 1154.07 421.703C1154.26 421.03 1154.51 420.441 1154.86 419.894C1155.21 419.347 1155.6 418.898 1156.05 418.533C1156.51 418.168 1156.99 417.902 1157.51 417.762C1158.01 417.607 1158.53 417.593 1159.04 417.705C1159.6 417.832 1160.03 418.112 1160.37 418.561C1160.71 418.996 1160.92 419.515 1161.04 420.118L1161.44 418.519H1161.42ZM1156.86 425.995C1157.33 426.108 1157.78 426.051 1158.2 425.841C1158.63 425.617 1159 425.266 1159.32 424.803C1159.64 424.326 1159.89 423.779 1160.06 423.162C1160.23 422.545 1160.29 421.928 1160.24 421.38C1160.19 420.819 1160.03 420.357 1159.77 419.978C1159.52 419.599 1159.15 419.347 1158.69 419.248C1158.22 419.15 1157.75 419.192 1157.29 419.417C1156.82 419.627 1156.4 419.978 1156.04 420.427C1155.67 420.89 1155.42 421.423 1155.25 422.04C1155.08 422.657 1155.04 423.26 1155.14 423.821C1155.24 424.382 1155.43 424.859 1155.73 425.252C1156.02 425.645 1156.4 425.883 1156.86 425.995ZM1161.54 428.464L1164.06 419.108L1165.27 419.375L1164.96 420.539C1165.34 420.16 1165.74 419.88 1166.21 419.711C1166.67 419.543 1167.13 419.501 1167.58 419.599C1167.86 419.655 1168.11 419.767 1168.35 419.922L1167.43 421.395C1167.24 421.268 1167.06 421.184 1166.88 421.142C1166.51 421.058 1166.15 421.1 1165.79 421.268C1165.42 421.423 1165.11 421.675 1164.82 422.026C1164.54 422.376 1164.33 422.783 1164.2 423.26L1162.73 428.745L1161.52 428.464H1161.54ZM1172.71 422.741L1171.05 422.362L1168.93 430.217L1167.71 429.923L1169.83 422.068L1168.58 421.787L1169 420.202L1170.25 420.483L1171.03 417.523L1172.27 417.79L1171.48 420.749L1173.15 421.128L1172.73 422.713L1172.71 422.741ZM1179.49 432.995C1178.65 432.798 1177.99 432.364 1177.51 431.69C1177.03 431.017 1176.75 430.217 1176.66 429.25C1176.57 428.296 1176.66 427.272 1176.95 426.206L1179.04 418.435L1180.29 418.715L1178.2 426.5C1177.99 427.258 1177.92 427.987 1177.96 428.688C1178.02 429.39 1178.2 429.979 1178.51 430.456C1178.83 430.933 1179.29 431.255 1179.91 431.396C1180.53 431.536 1181.1 431.48 1181.64 431.185C1182.17 430.891 1182.62 430.456 1183.01 429.867C1183.4 429.278 1183.71 428.59 1183.91 427.819L1186 419.978L1187.27 420.258L1185.17 428.113C1184.95 428.927 1184.65 429.67 1184.27 430.344C1183.89 431.003 1183.45 431.564 1182.94 432.013C1182.44 432.462 1181.89 432.784 1181.3 432.967C1180.71 433.149 1180.11 433.163 1179.48 433.009L1179.49 432.995ZM1187.81 434.902C1187.4 434.79 1187.02 434.594 1186.67 434.327C1186.33 434.061 1186.05 433.738 1185.84 433.359C1185.63 432.981 1185.52 432.574 1185.49 432.153L1186.76 431.816C1186.77 432.055 1186.85 432.293 1187.01 432.532C1187.15 432.77 1187.34 432.981 1187.57 433.163C1187.79 433.345 1188.05 433.458 1188.31 433.528C1188.59 433.598 1188.87 433.598 1189.15 433.556C1189.43 433.5 1189.67 433.387 1189.88 433.205C1190.11 433.023 1190.25 432.784 1190.33 432.476C1190.42 432.153 1190.4 431.873 1190.28 431.662C1190.15 431.438 1189.98 431.241 1189.74 431.073C1189.52 430.905 1189.28 430.736 1189.04 430.582C1188.56 430.288 1188.14 429.979 1187.79 429.656C1187.44 429.32 1187.2 428.941 1187.05 428.534C1186.91 428.113 1186.92 427.622 1187.08 427.061C1187.23 426.458 1187.51 425.981 1187.88 425.603C1188.26 425.224 1188.69 424.971 1189.2 424.817C1189.69 424.677 1190.18 424.663 1190.67 424.775C1191.29 424.915 1191.82 425.21 1192.24 425.659C1192.66 426.108 1192.93 426.655 1193.03 427.286L1191.78 427.819C1191.75 427.566 1191.68 427.328 1191.54 427.117C1191.41 426.893 1191.24 426.711 1191.03 426.556C1190.82 426.402 1190.61 426.29 1190.37 426.234C1190.08 426.15 1189.79 426.136 1189.5 426.192C1189.22 426.248 1188.97 426.36 1188.75 426.556C1188.54 426.739 1188.38 426.991 1188.3 427.328C1188.21 427.664 1188.23 427.917 1188.34 428.113C1188.47 428.324 1188.65 428.506 1188.89 428.674C1189.13 428.829 1189.39 429.011 1189.69 429.221C1190.11 429.516 1190.49 429.839 1190.82 430.175C1191.16 430.512 1191.41 430.905 1191.55 431.326C1191.71 431.76 1191.71 432.237 1191.55 432.784C1191.4 433.387 1191.12 433.864 1190.71 434.243C1190.3 434.622 1189.86 434.86 1189.34 434.986C1188.83 435.113 1188.33 435.099 1187.82 434.958L1187.81 434.902ZM1194.64 425.981L1195.94 426.276L1193.35 436.025L1192.04 435.716L1194.64 425.981ZM1195.73 424.537C1195.52 424.494 1195.37 424.368 1195.28 424.172C1195.19 423.975 1195.17 423.751 1195.24 423.499C1195.31 423.246 1195.44 423.05 1195.62 422.909C1195.8 422.769 1196 422.727 1196.2 422.769C1196.39 422.811 1196.55 422.937 1196.64 423.134C1196.74 423.33 1196.76 423.555 1196.69 423.807C1196.62 424.06 1196.49 424.256 1196.31 424.396C1196.13 424.537 1195.94 424.579 1195.73 424.537ZM1203.77 431.971L1202.14 438.1L1200.81 437.778L1202.34 432.013C1202.47 431.508 1202.49 431.045 1202.41 430.582C1202.33 430.133 1202.14 429.755 1201.88 429.446C1201.61 429.123 1201.29 428.927 1200.88 428.829C1200.47 428.731 1200.09 428.773 1199.7 428.941C1199.31 429.095 1198.97 429.362 1198.66 429.726C1198.37 430.091 1198.15 430.512 1198.02 431.017L1196.49 436.74L1195.17 436.431L1197.77 426.655L1199.09 426.949L1198.76 428.169C1199.16 427.777 1199.6 427.496 1200.11 427.314C1200.61 427.131 1201.1 427.103 1201.61 427.216C1202.2 427.342 1202.69 427.65 1203.08 428.113C1203.48 428.576 1203.74 429.151 1203.87 429.811C1203.99 430.484 1203.97 431.185 1203.77 431.929V431.971ZM1212.49 429.979L1213.86 430.288L1211.13 440.583C1210.97 441.242 1210.69 441.832 1210.29 442.337C1209.91 442.856 1209.48 443.276 1208.97 443.599C1208.47 443.936 1207.95 444.146 1207.39 444.258C1206.83 444.37 1206.28 444.37 1205.75 444.244C1205.21 444.118 1204.7 443.823 1204.26 443.389C1203.83 442.954 1203.48 442.435 1203.22 441.832C1202.97 441.228 1202.84 440.597 1202.84 439.924L1204.26 439.531C1204.25 440.008 1204.32 440.457 1204.49 440.892C1204.65 441.327 1204.89 441.691 1205.19 441.986C1205.48 442.295 1205.83 442.491 1206.2 442.575C1206.55 442.659 1206.91 442.673 1207.28 442.589C1207.66 442.519 1208.01 442.379 1208.34 442.168C1208.68 441.972 1208.97 441.705 1209.23 441.369C1209.48 441.046 1209.66 440.681 1209.77 440.261L1210.29 438.283C1209.87 438.788 1209.38 439.166 1208.83 439.419C1208.3 439.671 1207.73 439.714 1207.14 439.573C1206.55 439.433 1206.07 439.181 1205.65 438.788C1205.23 438.395 1204.89 437.918 1204.64 437.357C1204.4 436.782 1204.25 436.165 1204.2 435.491C1204.16 434.818 1204.23 434.117 1204.42 433.401C1204.6 432.686 1204.89 432.041 1205.27 431.466C1205.65 430.877 1206.08 430.4 1206.59 430.007C1207.09 429.614 1207.63 429.334 1208.2 429.179C1208.78 429.025 1209.34 429.011 1209.91 429.137C1210.52 429.278 1210.99 429.558 1211.34 430.021C1211.71 430.47 1211.95 431.017 1212.07 431.662L1212.51 430.007L1212.49 429.979ZM1207.57 437.946C1208.09 438.072 1208.58 438.016 1209.06 437.764C1209.54 437.525 1209.96 437.147 1210.31 436.656C1210.66 436.165 1210.92 435.576 1211.09 434.93C1211.26 434.285 1211.32 433.64 1211.25 433.051C1211.18 432.448 1210.99 431.943 1210.7 431.536C1210.4 431.115 1210 430.849 1209.48 430.736C1208.96 430.624 1208.47 430.68 1207.96 430.905C1207.46 431.129 1207.01 431.494 1206.62 431.985C1206.24 432.476 1205.96 433.051 1205.78 433.71C1205.59 434.369 1205.57 435.015 1205.66 435.618C1205.78 436.221 1205.99 436.726 1206.31 437.147C1206.65 437.567 1207.05 437.834 1207.56 437.946H1207.57Z" fill="white"/>
</g>
</g>
<defs>
<linearGradient id="paint0_linear_1110_1841" x1="154.8" y1="309.25" x2="27.8714" y2="260.072" gradientUnits="userSpaceOnUse">
<stop stop-color="#21170F"/>
<stop offset="1" stop-color="#3F2924"/>
</linearGradient>
<clipPath id="clip0_1110_1841">
<rect width="1672" height="500" rx="24" fill="white"/>
</clipPath>
<clipPath id="clip1_1110_1841">
<rect width="1672" height="561.074" fill="white"/>
</clipPath>
</defs>
</svg>
