<svg width="358" height="250" viewBox="0 0 358 250" fill="none" xmlns="http://www.w3.org/2000/svg">
<g clip-path="url(#clip0_1110_2136)">
<mask id="mask0_1110_2136" style="mask-type:luminance" maskUnits="userSpaceOnUse" x="-323" y="0" width="734" height="250">
<path d="M410.607 0H-323V250H410.607V0Z" fill="white"/>
</mask>
<g mask="url(#mask0_1110_2136)">
<path d="M-194.864 -46.2495H410.607V360.625H-55.8175C-59.4917 354.263 -64.1752 348.082 -67.2894 341.457C-70.1389 337.45 -72.5699 333.076 -75.0932 328.844C-80.7675 319.344 -86.165 309.675 -91.8086 300.163C-92.3625 298.813 -93.021 297.501 -93.6487 296.188C-99.7416 281.557 -106.327 267.144 -113.398 252.969C-117.374 245.188 -121.565 237.519 -125.953 229.975C-133.616 216.019 -142.201 202.619 -150.86 189.288C-154.122 184.65 -157.673 180.644 -161.581 176.582C-170.653 168.888 -181.848 163.544 -192.759 159.082C-196.015 157.75 -199.788 156.894 -202.834 155.244C-203.345 154.3 -203.173 153.938 -203.013 152.913C-203.579 152.663 -204.133 152.632 -204.736 152.575C-205.105 152.782 -205.487 153.013 -205.887 153.169C-208.164 154.069 -223.359 146.65 -226.461 145.238C-229.298 143.732 -232.019 142.157 -234.696 140.382C-240.782 136.319 -246.617 131.888 -252.174 127.1C-253.694 125.982 -255.098 124.619 -256.525 123.382C-253.005 116.694 -248.968 110.263 -245.441 103.563C-238.764 90.8005 -232.634 77.7505 -227.07 64.4505C-212.928 28.6692 -202.139 -8.39326 -194.858 -46.237L-194.864 -46.2495Z" fill="#FBFCFD"/>
<path d="M24.0352 223.432C28.0294 222.994 61.1771 205.619 68.4147 202.419C70.9626 201.294 74.0029 200.719 76.6924 199.919L77.6648 192.963C79.2465 182.119 81.6098 171.325 83.5053 160.525L95.9126 89.4192L103.741 44.9504C105.132 37.2004 106.166 28.7879 108.369 21.2442C108.892 19.4567 109.939 18.1504 111.428 17.0567C113.588 15.4754 115.545 15.5317 118.124 15.7254C126.759 16.3754 135.535 18.2629 144.126 19.5567L195.257 27.2129L287.598 41.1504C305.797 43.8692 324.075 46.3129 342.237 49.2817C345.474 49.8129 348.841 50.5754 350.872 53.4254C353.216 56.2754 353.924 58.8254 353.598 62.5129C352.786 71.5567 349.684 83.9879 347.942 93.1504L336.421 154.932C334.71 164.125 332.698 173.313 331.11 182.519C331.03 183 331.098 183.263 331.251 183.713L331.713 183.975C357.906 190.525 384.53 195.682 410.594 202.694V360.625H-55.5784C-59.2525 354.275 -63.9299 348.107 -67.044 341.488C-69.8874 337.488 -72.3184 333.119 -74.8478 328.9C-80.5222 319.413 -85.9196 309.763 -91.5571 300.263C-92.111 298.913 -92.7695 297.607 -93.3972 296.294C-99.484 281.688 -106.069 267.294 -113.141 253.144C-101.552 252.057 -90.4801 248.494 -79.0698 246.294C-70.0966 253.407 -48.6116 253.357 -37.8413 252.163C-29.1144 249.394 -19.4581 244.163 -11.0265 240.244C0.316068 234.969 13.2096 229.532 24.0352 223.438V223.432Z" fill="#DEDEDC"/>
<path d="M77.6533 194.663C77.7764 193.819 77.8995 192.975 78.0349 192.132C79.8197 180.875 82.1399 169.65 84.1401 158.419L96.8982 86.1566L104.203 44.9066C105.533 37.4878 106.548 29.5566 108.573 22.3128C109.041 20.6503 110.056 19.2003 111.453 18.2065C113.238 16.944 115.195 16.7566 117.312 16.9378C127.252 17.7816 137.37 19.8753 147.254 21.3628L207.936 30.4941L293.495 43.3941C309.583 45.8066 325.879 47.7691 341.869 50.7628C345.364 51.4191 348.318 51.8691 350.435 55.0753C351.593 56.8253 352.282 59.0878 352.128 61.2003C351.814 65.3753 350.719 69.6316 349.9 73.7316C348.491 80.6066 347.149 87.4941 345.875 94.3941L328.421 186.35L314.364 260.169C313.484 262.744 312.814 264.619 310.709 266.45C310.543 266.594 310.383 266.738 310.223 266.882C309.459 265.944 308.641 265.044 307.57 264.463C302.314 261.6 288.774 258.744 282.325 256.725C283.014 255.369 284.152 254.013 284.466 252.513C284.534 252.207 284.245 251.938 284.091 251.688C279.881 249.525 272.016 248 267.179 246.644C252.919 242.669 238.634 238.775 224.325 234.969L107.305 202.544C103.163 201.394 80.9152 194.594 78.6688 194.713C78.1026 194.744 78.6011 194.788 77.961 194.713C77.8626 194.7 77.758 194.682 77.6595 194.669L77.6533 194.663Z" fill="#222223"/>
<path d="M114.038 31.0562C114.248 29.8812 114.205 29 115.023 28.125C123.356 28.7313 131.911 30.7313 140.176 32.1125L181.306 38.6375L341.678 64.4562L339.856 73.8938C338.958 78.5313 337.949 83.1938 337.247 87.8625L315.189 204.55C312.272 219.894 309.73 235.35 306.499 250.631C278.595 242.538 250.383 235.356 222.344 227.763L85.6543 190.644C86.8175 185.756 87.4637 180.613 88.3315 175.65L93.4704 146.344L110.85 48.55L113.054 36.6125L113.374 34.9688L114.026 31.0562H114.038Z" fill="#DAE3EA"/>
<path d="M114.068 31.0375C114.277 29.875 114.234 28.9937 115.053 28.125C123.386 28.725 131.941 30.7188 140.206 32.0875L181.33 38.575L341.683 64.2375L339.862 73.6188C338.963 78.2313 337.96 82.8625 337.252 87.5062C331.27 86.05 324.906 85.3813 318.82 84.3188L274.12 76.7312L138.194 53.4875C134.144 52.775 112.628 49.5625 110.893 48.4312L113.096 36.5687L113.416 34.9375L114.068 31.05V31.0375Z" fill="#FBFCFD"/>
<path d="M114.326 31.05C114.535 29.8813 114.492 29 115.311 28.125C123.632 28.7313 132.18 30.725 140.433 32.1L181.508 38.6063L341.677 64.3437L339.855 73.75C335.941 72.425 330.137 72.0313 325.964 71.325L291.063 65.5625L167.5 45.3312L139.51 40.9C135.83 40.3 131.374 40.0375 127.872 38.7875L122.721 38.05C119.834 37.5125 116.253 36.4063 113.348 36.5875L113.668 34.95L114.32 31.05H114.326Z" fill="#DAE3EA"/>
<path d="M116.975 31.3625C117.929 31.0438 119.006 31.4375 119.381 32.2438C119.75 33.05 119.276 33.9625 118.316 34.2688C117.369 34.575 116.304 34.175 115.941 33.375C115.571 32.575 116.033 31.675 116.975 31.3563V31.3625Z" fill="#EA4335"/>
<path d="M122.514 32.6135C123.468 32.2947 124.545 32.6885 124.92 33.4947C125.289 34.301 124.815 35.2135 123.855 35.5197C122.908 35.826 121.843 35.426 121.48 34.626C121.111 33.826 121.572 32.926 122.514 32.6072V32.6135Z" fill="#F8761F"/>
<path d="M128.667 33.863C129.621 33.5443 130.698 33.938 131.073 34.7443C131.443 35.5505 130.969 36.463 130.009 36.7693C129.061 37.0755 127.996 36.6755 127.633 35.8755C127.264 35.0755 127.725 34.1755 128.667 33.8568V33.863Z" fill="#16B46B"/>
<path d="M130.021 42.5129C135.08 42.2504 150.749 45.6567 156.947 46.6879C177.25 50.0567 197.763 53.0004 217.98 56.8567C217.783 58.5754 217.593 60.4442 217.168 62.1129C216.909 63.1317 216.786 63.2317 215.943 63.7504C199.812 61.6942 183.7 58.4067 167.662 55.6817C155.821 53.6692 143.647 52.2879 131.917 49.7504C130.717 49.4942 129.511 49.3129 128.587 48.4317C127.917 47.7879 127.455 47.0817 127.51 46.1129C127.597 44.4504 128.858 43.4817 130.021 42.5129Z" fill="#DAE3EA"/>
<path d="M152.276 200.963C147.451 198.776 127.591 195.813 125.301 192.832C124.895 190.982 125.03 189.138 125.301 187.276C126.686 177.769 128.612 168.276 130.293 158.813L140.441 101.944C141.272 97.2757 144.959 73.0007 146.017 70.8444C146.534 69.8007 147.5 69.2319 148.571 68.9132C149.34 68.6882 150.048 68.7132 150.83 68.8194C158.117 69.8507 165.422 71.4319 172.672 72.7257L218.338 80.8882L260.865 88.5257C266.17 89.4944 279.685 91.1632 283.907 93.4632C284.719 94.3132 284.861 94.9882 285.064 96.0944L270.164 178.707C267.542 193.313 265.29 209.169 262.052 223.532C261.683 225.157 261.209 227.494 260.058 228.726C255.055 229.007 230.88 221.819 224.683 220.182L152.282 200.944L152.276 200.963Z" fill="#FBFCFD"/>
<path d="M176.222 178.125C180.622 178.694 212.619 186.5 214.545 187.994C214.828 188.219 214.853 188.807 214.884 189.15C215.081 191.644 213.665 200.007 212.065 201.875C207.615 201.363 175.932 193.494 173.249 191.588C173.132 191.225 173.071 190.888 173.058 190.507C172.96 187.85 174.443 180.063 176.228 178.125H176.222Z" fill="#4268FF"/>
<path d="M207.96 88.7754C210.471 88.6316 212.865 89.0629 215.025 90.3879C217.973 92.1879 219.863 95.2566 220.638 98.5629C221.604 102.732 220.86 107.107 218.576 110.732C216.398 114.138 213.425 115.963 209.529 116.863C207.086 116.982 204.803 116.544 202.679 115.319C199.688 113.594 197.725 110.625 196.9 107.325C195.879 103.2 196.543 98.8379 198.734 95.1879C200.907 91.6566 203.978 89.7379 207.96 88.7754Z" fill="#4268FF"/>
<path d="M214.619 98.1255C215.265 98.6317 215.351 98.5942 215.511 99.4692C213.585 102.725 208.92 105.738 206.009 108.125C205.135 106.857 204.39 105.438 203.608 104.1C202.981 102.994 202.513 102.25 202.599 100.95L203.215 100.919C204.827 101.975 205.572 103.538 206.495 105.219C209.332 103.057 211.954 100.513 214.619 98.1255Z" fill="#FBFCFD"/>
<path d="M195.818 360.625C198.187 360.075 200.877 359.231 202.981 357.988C207.222 355.5 211.204 352.312 215.186 349.406L235.877 334.181L284.103 298.85C292.091 293.044 299.944 287.013 308.093 281.45C309.514 280.481 311.73 279.35 312.789 278.05C313.447 277.238 314.247 274.519 315.096 274.175C316.192 273.731 317.7 273.981 318.906 273.5C322.426 272.088 325.83 270.181 329.282 268.6L354.275 257.206L410.601 231.25V360.625H195.812H195.818Z" fill="#FBFCFD"/>
<path d="M-79.0701 246.25C-70.0969 253.363 -48.618 253.319 -37.8478 252.119C-38.3278 253.119 -39.3248 253.407 -40.2849 253.9C-46.6486 257.182 -55.8556 258.1 -53.88 267.557C-53.1107 269.4 -51.369 270.232 -51.4121 272.3C-50.3966 273.7 -49.5227 274.7 -47.9349 275.425C-43.9591 277.244 -39.5526 278.513 -35.4229 279.982L-11.2115 288.494C7.38718 294.95 25.9366 301.563 44.4245 308.332C52.4006 311.232 60.5183 313.882 68.4144 316.994L51.2313 339.875L50.9851 340.388C45.0214 347.032 39.5071 354.088 33.4204 360.619H-55.591C-59.2652 354.269 -63.9425 348.094 -67.0566 341.469C-69.9 337.469 -72.331 333.1 -74.8543 328.875C-80.5287 319.388 -85.9199 309.732 -91.5574 300.225C-92.1113 298.875 -92.7698 297.569 -93.3975 296.25C-99.4843 281.638 -106.069 267.238 -113.135 253.088C-101.546 252 -90.4742 248.438 -79.0701 246.238V246.25Z" fill="#FBFCFD"/>
<path d="M132.453 245.625C136.73 246.657 141.315 247.794 145.402 249.457L146.066 249.913L146.983 249.419C148.787 248.607 152.781 246.2 154.676 246.932C154.756 246.963 154.836 247 154.91 247.038L154.627 247.094C154.707 247.119 154.787 247.138 154.861 247.163C156.584 247.719 159.68 249.775 160.855 251.15L161.686 251.532C163.416 252.794 165.176 254.025 166.874 255.325C169.053 255.532 173.041 256.594 175.017 256.157L176.075 256.575L176.549 256.357C179.331 256.857 182.008 257.4 184.704 258.257C184.642 259.307 184.944 259.775 185.609 260.582C187.122 262.413 190.243 262.025 191.474 263.8C191.092 264.888 189.664 265.813 188.698 266.369C186.735 267.7 184.525 268.607 182.599 269.919C184.285 270.375 189.633 271.357 190.495 272.763C190.551 272.857 190.594 272.95 190.643 273.05C190.218 274 189.467 274.4 188.495 274.763C188.446 274.782 188.39 274.794 188.341 274.813L187.381 275.457C188.064 275.8 188.286 276.063 189.037 275.8C192.188 274.7 194.022 272.425 197.622 273.969C201.77 275.75 201.37 279.807 206.884 279.519C205.1 281.85 203.37 282.775 201.191 284.544L203.783 285.35C202.502 286.944 200.158 287.938 198.465 289.069C196.803 288.469 195.062 288.007 193.369 287.482C192.557 287.819 191.289 288.675 190.489 288.807C189.566 289.463 189.061 289.644 188.766 290.819C188.753 290.869 188.747 290.919 188.741 290.969C187.603 292.725 180.279 295.144 178.137 295.625C177.7 295.725 177.239 295.663 176.808 295.575C170.106 298.919 164.468 306.419 159.274 311.832C153.876 317.457 148.497 323.244 142.651 328.382C140.472 330.294 137.912 331.782 135.512 333.388C134.188 334.544 132.884 335.738 131.493 336.807C130.483 337.425 130.213 337.476 129.037 337.513C131.222 342.694 135.801 352.388 133.561 357.982C133.198 358.894 132.607 359.813 132.053 360.619H33.3359C39.435 354.069 44.9555 346.994 50.9314 340.332L51.1776 339.819L68.3915 316.869C69.167 315.8 70.0409 314.8 70.8779 313.788L71.5857 313.157L73.992 311.863L74.0413 306.175C73.9305 300.957 72.7673 292.75 74.3305 287.919C74.7305 286.669 75.3398 285.469 76.0353 284.363C77.6416 281.8 79.728 279.557 81.4389 277.069C83.3344 274.313 84.6761 270.944 86.9717 268.525C88.3687 267.05 90.055 266.232 91.8337 265.332C93.6 264.238 95.6063 262.894 96.4125 260.85C96.7941 259.888 96.9234 259.088 96.5172 258.1C98.8743 258.319 99.8098 259.032 101.428 260.725C102.025 261.769 102.616 262.775 103.022 263.913C104.789 261.357 106.937 259.044 108.955 256.694L109.731 256.225C110.685 255.157 113.073 252.8 114.463 252.55C115.153 252.432 115.719 252.163 116.359 251.882L119.005 250.438L119.51 250.4L119.756 249.944C122.329 248.863 124.661 247.994 127.388 247.407C127.923 247.425 128.594 247.55 129.086 247.344C130.219 246.794 131.357 246.263 132.447 245.625H132.453Z" fill="#D79A7B"/>
<path d="M132.156 245.626C136.52 246.645 141.191 247.77 145.351 249.413C144.151 251.332 139.462 253.07 137.369 254.376C137.024 253.476 136.575 252.657 136.12 251.807C135.153 251.026 134.63 249.895 133.701 249.163C132.581 248.295 130.162 248.038 128.734 247.32C129.885 246.776 131.048 246.251 132.156 245.62V245.626Z" fill="#222223"/>
<path d="M309.355 275.031C309.379 273.412 309.071 271.756 309.201 270.144C309.33 268.519 310.241 269.369 311.607 268.287C313.706 266.625 314.752 264.469 315.614 261.937C318.162 254.487 319.097 245.894 320.519 238.144L328.119 197.275C328.778 193.775 329.264 187.962 330.489 184.869C330.809 184.062 330.901 184.081 331.658 183.744C357.87 190.3 384.518 195.462 410.607 202.487V231.731L354.263 257.587L329.264 268.937C325.811 270.512 322.408 272.412 318.888 273.819C317.681 274.3 316.167 274.05 315.078 274.494C314.229 274.837 313.429 277.544 312.77 278.35C311.706 279.65 309.49 280.775 308.074 281.737C299.92 287.281 292.061 293.287 284.072 299.069L235.828 334.269L215.13 349.437C211.148 352.331 207.167 355.506 202.92 357.981C200.815 359.212 198.126 360.056 195.75 360.606H131.738C132.292 359.806 132.883 358.887 133.246 357.975C135.486 352.394 130.907 342.719 128.729 337.55C129.91 337.512 130.175 337.456 131.184 336.844C137.665 339.844 145.013 341.894 151.752 344.3C160.51 347.419 182.37 356.325 190.193 356.819C193.738 357.044 197.898 355.644 200.926 353.925C206.576 350.725 211.899 346.419 217.149 342.594L245.742 321.65C261.018 310.787 276.158 299.744 291.181 288.519C297.187 284.056 303.717 279.919 309.348 275.019L309.355 275.031Z" fill="#B7B7B6"/>
<path d="M98.2714 205.2C95.348 204.169 78.9834 199.794 78.128 199.175C77.3217 197.612 77.7033 196.006 78.0972 194.375C78.1956 194.387 78.3003 194.406 78.3988 194.419C79.0388 194.5 78.5403 194.45 79.1065 194.419C81.3467 194.3 103.546 201.1 107.681 202.25L224.437 234.675C238.715 238.481 252.963 242.369 267.192 246.35C272.017 247.706 279.864 249.231 284.061 251.394C284.215 251.65 284.498 251.919 284.436 252.225C284.122 253.719 282.99 255.081 282.301 256.437C281.39 257.775 279.211 259.006 277.9 260C233.422 246.85 188.631 234.656 144.036 221.9C127.794 217.25 111.454 212.812 95.3111 207.806L98.2775 205.2H98.2714Z" fill="#28201B"/>
<path d="M350.57 53.1253C352.915 55.9753 353.623 58.519 353.297 62.2065C352.485 71.244 349.383 83.6565 347.641 92.8128L336.126 154.525C334.409 163.713 332.403 172.882 330.815 182.088C330.735 182.569 330.802 182.832 330.956 183.282L331.418 183.544C330.667 183.882 330.569 183.863 330.255 184.663C329.03 187.75 328.544 193.55 327.891 197.038L320.297 237.807C318.875 245.544 317.94 254.119 315.398 261.55C314.53 264.075 313.49 266.225 311.392 267.882C310.031 268.963 309.12 268.113 308.985 269.732C308.862 271.344 309.17 272.988 309.145 274.607C303.52 279.5 296.996 283.625 290.996 288.075C275.997 299.275 260.87 310.294 245.613 321.132L217.057 342.025C211.813 345.844 206.496 350.144 200.852 353.332C197.824 355.044 193.676 356.444 190.137 356.213C182.321 355.719 160.485 346.832 151.74 343.725C145.007 341.325 137.671 339.282 131.196 336.288C132.587 335.225 133.886 334.038 135.209 332.882C138.575 334.038 142.17 335.644 145.659 336.288C149.13 338.113 153.869 339.213 157.599 340.525C166.332 343.6 175.348 347.457 184.297 349.675C186.98 350.338 190.34 350.925 193.067 350.532C195.935 350.113 199.024 348.6 201.504 347.107C206.12 344.319 210.521 340.857 214.921 337.719C223.18 331.869 231.39 325.932 239.539 319.919C252.051 310.669 264.883 301.825 277.259 292.407C281.315 289.325 285.512 286.544 289.586 283.538C293.23 280.85 297.421 276.325 301.754 275.057C302.708 274.638 303.668 273.732 304.505 273.082C304.64 272.044 308.751 268.894 309.65 266.569C309.816 266.425 309.976 266.282 310.142 266.138C312.235 264.313 312.905 262.432 313.779 259.857C313.909 260.144 314.013 260.207 314.253 260.394C314.863 259.482 328.876 189.7 328.642 187.382C330.205 176.719 332.766 166.063 334.772 155.463L346.644 91.7878C347.832 85.5753 349.05 79.369 350.3 73.169C351.106 69.194 352.281 64.9253 352.423 60.869C352.521 58.0878 350.927 55.9503 350.577 53.3253C350.57 53.2565 350.564 53.1878 350.558 53.1128L350.57 53.1253Z" fill="#C8C7C3"/>
<path d="M197.024 246.875L204.028 248.962L203.597 249.237C205.936 250.012 208.275 250.688 210.663 251.313L211.026 250.819L217.574 252.625L217.125 253C220.762 254.137 224.43 255.206 228.11 256.194L229.052 256.806C229.021 257.675 228.775 257.894 228.147 258.469C226.775 259.725 222.811 262.137 220.953 262.206L220.06 262.612C222.861 263.4 225.679 264.156 228.387 265.225C225.889 267.487 222.756 269.137 219.87 270.875L218.571 271.225C219.814 271.556 221.507 271.788 222.338 272.819C222.399 273.644 222.356 273.825 221.777 274.456C220.202 276.175 216.94 277.45 214.897 278.706L213.758 279.069C211.906 278.481 209.647 277.256 207.745 277.675C207.302 278.075 207.21 278.306 207.007 278.856C206.921 279.094 206.828 279.206 206.638 279.363C201.093 279.65 201.493 275.663 197.326 273.913C193.701 272.394 191.855 274.625 188.691 275.706C187.934 275.969 187.713 275.706 187.024 275.369L187.99 274.737C188.039 274.719 188.094 274.706 188.144 274.688C189.122 274.331 189.873 273.937 190.304 273.006C190.255 272.912 190.211 272.812 190.15 272.725C189.282 271.344 183.903 270.381 182.211 269.931C184.143 268.644 186.365 267.756 188.341 266.444C189.313 265.9 190.753 264.994 191.135 263.925C189.898 262.181 186.759 262.563 185.239 260.763C184.568 259.969 184.266 259.513 184.328 258.481C181.614 257.638 178.918 257.106 176.124 256.612C178.235 254.894 181.195 253.381 183.7 252.294L188.31 253.675L188.87 253.319C189.325 253.325 189.811 253.35 190.261 253.237C192.396 252.687 196.994 250.494 198.077 248.512C197.757 247.675 197.437 247.694 196.643 247.313L197.024 246.875Z" fill="#F4DDD2"/>
<path d="M205.524 257.5C202.914 256.769 194.255 255.025 192.741 253.282C193.806 251.688 197.259 250.419 199 249.488C200.693 248.575 201.622 248.588 203.462 249.1C205.795 249.857 208.14 250.513 210.521 251.119C211.783 251.363 213.082 251.969 214.282 252.425C211.728 254.544 208.521 256.063 205.524 257.5Z" fill="#222223"/>
<path d="M93.4337 261.057C90.8796 260.263 77.3891 256.532 76.4229 255.382C77.106 253.394 84.4175 250.5 86.5161 249.375C93.6368 252.444 101.613 254.369 109.041 256.644C107.023 258.957 104.869 261.238 103.102 263.75C102.696 262.632 102.105 261.638 101.502 260.613C99.8835 258.95 98.948 258.244 96.5847 258.032C95.1077 258.875 94.4122 259.669 93.4337 261.057Z" fill="#222223"/>
<path d="M151.191 230.106L151.733 229.375C155.284 229.862 158.817 230.331 162.202 231.619C163.943 232.281 165.697 233.394 167.47 233.881C170.11 234.606 173.083 234.494 175.655 235.406C176.88 235.844 177.896 236.812 179.089 237.337C180.148 237.8 181.305 237.656 182.179 238.494L182.284 239.231C181.385 239.75 180.234 240.2 179.785 241.2L180.271 241.95L179.976 242.488C178.536 242.05 177.132 241.569 175.735 241.006L176.394 240.844C173.144 239.788 169.907 238.731 166.608 237.85L166.301 238.344C164.067 237.725 161.851 237.038 159.654 236.275L160.035 236.019L153.247 233.775L153.025 234.244C151.075 234.019 149.081 233.219 147.197 232.65L147.616 232.444L147.345 232.113C148.102 231.206 148.484 230.525 148.84 229.375L151.198 230.106H151.191Z" fill="#DAE3EA"/>
<path d="M167.97 235C170.752 235.707 177.989 236.788 179.817 238.932C179.633 239.675 179.343 239.788 178.697 240.175C178.094 240.538 177.355 240.663 176.654 240.613C173.343 239.607 170.044 238.6 166.69 237.757L165.693 237.207L165.662 236.632C166.407 236.032 167.158 235.507 167.97 234.994V235Z" fill="#222223"/>
<path d="M153.358 233.844L151.764 233.319L151.512 232.769C152.146 232.037 152.958 231.681 153.826 231.25C156.805 231.956 162.934 232.731 165.039 234.744L165.051 235.294C164.35 235.875 163.704 236.306 162.719 236.244C161.876 236.187 160.99 236.013 160.177 235.825L153.37 233.85L153.358 233.844Z" fill="#222223"/>
<path d="M148.625 229.375L150.878 230.119C150.878 230.769 150.976 230.931 150.539 231.419C149.721 232.344 148.576 232.519 147.456 232.5L147.197 232.162C147.923 231.244 148.287 230.55 148.625 229.375Z" fill="#222223"/>
<path d="M195.306 242.469L195.435 241.875C196.549 241.963 197.977 241.875 198.894 242.563C198.451 242.95 198.162 242.944 197.596 243.057C196.623 243.7 195.614 244.119 195.115 245.194C195.663 246 196.482 246.119 197.368 246.382L196.974 246.838C197.786 247.238 198.125 247.219 198.451 248.094C197.337 250.163 192.604 252.45 190.401 253.032C189.94 253.15 189.441 253.125 188.967 253.119C185.114 251.407 180.726 250.507 176.738 249.038C179.483 246.944 182.831 245.357 185.859 243.7L189.718 244.707L190.438 244.438C191.053 244.607 191.7 244.75 192.346 244.669C193.651 244.507 194.5 243.407 195.3 242.475L195.306 242.469Z" fill="#222223"/>
<path d="M195.283 242.475L195.412 241.875C196.532 241.963 197.973 241.875 198.896 242.569C198.446 242.957 198.157 242.95 197.585 243.063C196.606 243.713 195.591 244.132 195.092 245.213C195.646 246.025 196.471 246.144 197.357 246.413L196.963 246.869C194.489 246.413 192.046 245.525 189.664 244.719L190.39 244.45C191.012 244.619 191.664 244.763 192.31 244.682C193.621 244.513 194.477 243.413 195.283 242.469V242.475Z" fill="#DAE3EA"/>
<path d="M170.917 239.376C172.529 239.876 174.16 240.345 175.791 240.782C177.213 241.345 178.628 241.826 180.087 242.263C181.231 242.538 182.198 242.713 182.887 243.701C182.85 243.826 182.813 243.957 182.77 244.082C182.075 245.863 176.905 247.87 175.126 248.751C170.689 247.588 166.325 246.176 161.962 244.751C164.627 242.588 167.919 241.02 170.91 239.376H170.917Z" fill="#222223"/>
<path d="M141.58 231.25C143.407 231.681 145.211 232.25 147.02 232.769C148.965 233.325 151.039 234.1 153.051 234.319C153.624 234.663 153.667 234.737 153.968 235.325C152.928 237.375 147.845 239.044 145.672 240L131.812 236.206L141.58 231.25Z" fill="#222223"/>
<path d="M168.936 247.5C173.416 248.588 177.989 249.963 182.279 251.625C179.94 253.188 177.269 254.488 175.041 256.144C173.01 256.582 168.923 255.513 166.683 255.313C164.935 254.007 163.132 252.775 161.354 251.513C163.828 250.175 166.345 248.594 168.936 247.507V247.5Z" fill="#222223"/>
<path d="M118.113 241.25L125.516 243.381C126.889 243.788 128.6 244.181 129.344 245.556C128.938 246.656 128.206 246.856 127.252 247.456C124.569 248.05 122.279 248.912 119.75 250C117.097 249.162 112.463 248.344 110.303 246.556L110.266 245.85C112.063 243.75 115.688 242.45 118.106 241.25H118.113Z" fill="#222223"/>
<path d="M147.198 240.545C149.653 238.807 152.644 236.926 155.512 235.963L155.783 235.876C157.192 235.407 158.146 235.676 159.513 236.12C161.814 236.882 164.135 237.57 166.473 238.188C167.31 238.482 167.673 238.445 168.116 239.232C167.138 241.432 162.344 243.257 160.165 244.376C155.82 243.432 151.456 241.845 147.191 240.545H147.198Z" fill="#222223"/>
<path d="M153.218 243.125C155.735 243.738 164.364 245.694 165.662 247.594C164.677 249.35 161.92 249.887 160.443 251.25C159.268 249.862 156.178 247.788 154.455 247.231C154.381 247.206 154.301 247.187 154.221 247.162L154.504 247.106C154.424 247.069 154.344 247.031 154.27 247C152.381 246.263 148.393 248.694 146.59 249.506L145.353 248.512C145.537 247.575 145.999 247.188 146.756 246.644C148.657 245.263 151.144 244.237 153.224 243.125H153.218Z" fill="#222223"/>
<path d="M197.572 243.125C200.145 243.831 202.884 244.831 205.511 245.238L205.702 244.806C208.823 244.931 211.426 245.912 214.282 247.1L213.703 247.119C212.404 247.406 211.5 247.781 210.392 248.5L210.01 249.231C210.41 249.769 210.527 249.85 211.137 250.138L210.78 250.625C208.435 250.012 206.127 249.35 203.831 248.581L204.256 248.312L197.363 246.262C196.52 246.012 195.738 245.9 195.209 245.138C195.683 244.125 196.649 243.731 197.578 243.125H197.572Z" fill="#28201B"/>
<path d="M205.504 245.419L205.695 245C208.815 245.125 211.419 246.069 214.281 247.219L213.702 247.237C212.403 247.519 211.499 247.875 210.385 248.575L210.003 249.281C210.403 249.8 210.52 249.881 211.136 250.156L210.779 250.631C208.428 250.038 206.126 249.4 203.824 248.656L204.249 248.394C206.064 248.862 207.449 248.863 209.302 248.619L209.751 247.512C208.662 246.187 207.123 245.888 205.511 245.419H205.504Z" fill="#DAE3EA"/>
<path d="M213.685 247.5C213.722 247.538 213.765 247.575 213.802 247.613C216.3 249.769 222.867 248.907 224.744 251.588C224.535 252.294 224.264 252.575 223.526 252.913C222.012 253.6 219.045 252.45 217.568 252.019L211.106 250.344C210.491 250.075 210.374 250 209.974 249.494L210.355 248.807C211.469 248.125 212.38 247.775 213.679 247.507L213.685 247.5Z" fill="#28201B"/>
<path d="M182.727 238.807L192.931 241.945L195.196 242.663C194.408 243.651 193.577 244.801 192.297 244.976C191.669 245.063 191.036 244.913 190.426 244.732C187.066 243.657 183.693 242.632 180.308 241.657L179.804 240.851C180.271 239.782 181.459 239.301 182.382 238.745L182.715 238.801L182.727 238.807Z" fill="#222223"/>
<path d="M146.952 232.501C144.491 231.757 141.77 231.145 139.444 229.92C138.527 229.438 137.733 228.97 137.352 227.82C137.468 227.688 137.585 227.545 137.727 227.451C140.349 225.745 145.74 228.301 148.43 229.326C148.079 230.663 147.703 231.457 146.952 232.501Z" fill="#222223"/>
<path d="M182.894 239.207C185.842 238.238 189.737 238.951 192.538 240.157C193.079 240.388 193.535 240.713 193.972 241.088C193.787 241.444 193.658 241.632 193.313 241.876L182.894 239.207Z" fill="#DAE3EA"/>
<path d="M112.733 249.888C115.084 248.813 116.598 249.644 118.888 250.469L116.321 251.876C116.1 251.751 115.884 251.626 115.688 251.469C114.697 250.688 113.934 250.251 112.733 249.888Z" fill="#28201B"/>
<path d="M39.7899 225.625C43.1256 226.694 67.5094 233.925 68.5987 234.806C68.7895 234.963 68.888 235.213 69.0295 235.419C67.694 237.163 62.192 239.544 60.0379 240L59.2501 239.762L56.7453 239.188C52.7573 237.663 48.5784 236.544 44.5473 235.119C43.1441 234.881 41.6547 234.275 40.2823 233.856C37.8943 233.119 33.2908 232.287 31.4999 230.525C31.4999 230.206 31.4137 229.988 31.6476 229.75C33.4878 227.9 37.4081 226.687 39.7837 225.625H39.7899Z" fill="#222223"/>
<path d="M44.4199 235.381C45.5585 234.725 46.254 235.05 47.5095 235.381C50.8882 236.288 56.0887 237.213 59.0182 238.969V239.131L59.806 239.731L59.3875 239.994L56.8395 239.419C52.7776 237.9 48.5249 236.794 44.4199 235.375V235.381Z" fill="#28201B"/>
<path d="M63.8849 232.5C58.4444 231.037 46.6156 227.875 42.0921 225.344L41.9629 224.837C44.3077 222.969 47.8773 221.687 50.6898 220.625C57.5951 222.781 64.6973 225.506 71.7564 226.975L72.735 227.838C70.3471 229.875 66.716 231.175 63.8911 232.5H63.8849Z" fill="#28201B"/>
<path d="M100.83 215.226C101.587 214.982 102.246 214.945 103.027 215.082C106.461 215.707 123.078 220.42 125.768 221.695C125.983 221.795 126.026 221.845 126.186 221.982L125.325 222.326C127.848 223.357 128.999 221.226 132.156 223.345C131.799 223.826 131.559 223.97 131.042 224.22C133.024 224.782 135.393 225.201 137.129 226.351L137.351 226.87C136.741 227.62 136.341 227.982 135.332 228.088C131.621 228.476 127.657 226.12 124.051 225.413L123.989 225.838C122.155 225.52 120.297 224.838 118.506 224.313L119.01 223.901C115.902 222.976 112.776 222.088 109.729 220.951L109.545 221.651L105.064 220.301L105.569 219.945C102.4 218.845 99.2116 218.045 96.1221 216.682C97.7099 215.857 99.0023 215.051 100.836 215.226H100.83Z" fill="#DAE3EA"/>
<path d="M109.655 220.944C110.271 219.781 111.477 219.325 112.603 218.75C116.536 219.906 120.598 220.944 124.426 222.456C123.33 223.362 122.21 224.544 120.721 224.356C120.112 224.281 119.521 224.15 118.93 224.013C115.822 223.05 112.702 222.131 109.655 220.944Z" fill="#222223"/>
<path d="M125.792 223.125C127.522 223.475 129.233 223.982 130.944 224.425C132.956 224.957 135.363 225.35 137.123 226.444L137.35 226.932C136.729 227.644 136.329 227.982 135.301 228.088C131.535 228.457 127.51 226.219 123.848 225.557L123.195 224.882C123.7 223.988 124.869 223.619 125.792 223.132V223.125Z" fill="#222223"/>
<path d="M96.1162 216.638C97.6671 215.725 98.9349 214.838 100.732 215.032C103.157 216.038 108.197 216.744 109.656 219.057C109.287 219.813 108.844 220.332 108.062 220.544C107.188 220.775 106.216 220.501 105.366 220.244C102.264 219.026 99.1442 218.15 96.1162 216.638Z" fill="#222223"/>
<path d="M61.4794 215.625C66.1322 217.056 70.7972 218.431 75.4807 219.762C76.7547 220.144 77.9487 220.288 78.8841 221.238C78.6626 222.106 78.4225 222.406 77.5671 222.869C75.6592 223.894 73.4436 224.681 71.4557 225.613C68.6493 225.913 55.4358 221.181 51.8047 220.031C54.8942 218.331 58.236 217.025 61.4794 215.631V215.625Z" fill="#222223"/>
<path d="M62.1126 251.107C61.0663 250.745 60.4694 250.72 59.8047 249.77C59.8355 249.645 59.8601 249.52 59.897 249.401C60.2417 248.345 62.0695 247.37 62.9742 246.889C65.9407 245.301 69.0486 243.614 72.3289 244.745C74.9753 245.576 81.5236 246.832 83.1915 249.051C83.1115 250.001 82.9268 250.195 82.2375 250.776C80.0835 252.601 76.557 253.814 73.9968 255.001L62.1126 251.107Z" fill="#222223"/>
<path d="M56.7471 249.375C53.2145 248.256 48.8817 247.431 45.6753 245.606L45.6445 245.112C45.8907 244.837 46.1431 244.581 46.4323 244.362C48.174 243.012 54.4084 239.775 56.5255 240.012C60.2243 241.325 64.2063 242.225 67.8066 243.762C64.5017 245.887 60.5136 248.212 56.7471 249.375Z" fill="#28201B"/>
<path d="M41.6938 235.626C43.9094 235.951 50.47 237.701 51.8055 239.37L51.547 240.226C49.3868 242.401 45.3802 243.707 42.5984 245.001C39.8659 244.476 35.8655 243.532 33.3976 242.301C32.6406 241.92 32.3821 241.77 32.1113 240.938C33.4407 238.682 39.2628 236.757 41.6938 235.632V235.626Z" fill="#28201B"/>
<path d="M28.3442 231.25C32.0861 232.281 35.7849 233.475 39.496 234.625C38.3205 236.662 31.6984 239.156 29.3412 239.875C28.6273 240.094 27.9872 240.012 27.2979 239.781C24.9285 238.962 20.2142 238.294 18.5771 236.4L18.7433 235.725C21.3528 233.775 25.3101 232.563 28.3504 231.256L28.3442 231.25Z" fill="#222223"/>
<path d="M99.7357 244.376C104.087 245.757 108.457 247.095 112.734 248.726C109.626 250.82 106.253 252.551 102.985 254.376C100.363 253.457 92.5843 251.995 91.1934 249.845C91.9934 247.595 97.6432 245.438 99.7357 244.376Z" fill="#222223"/>
<path d="M138.114 238.75C142.244 238.894 147.537 241.413 151.506 242.732C148.712 244.838 145.574 246.438 142.539 248.125C139.216 247.963 132.526 245.457 129.351 244.063C132.034 242.025 135.228 240.45 138.114 238.75Z" fill="#222223"/>
<path d="M75.1852 228.125C77.8193 228.894 80.4534 229.682 83.0752 230.488C84.2753 230.788 86.1278 231.025 86.8786 232.057C86.8725 232.863 86.8786 232.944 86.3186 233.519C84.5584 235.319 81.0073 236.119 78.8286 237.494C77.0315 236.882 75.056 236.369 73.3205 235.607L69.9232 234.707L67.0306 233.757L66.5752 233.357C67.5907 231.3 73.025 229.219 75.1852 228.119V228.125Z" fill="#222223"/>
<path d="M67.1914 233.545C69.13 233.126 71.1364 232.713 72.9396 233.957L73.3458 234.851L73.0812 235.632L69.8994 234.613L67.1914 233.545Z" fill="#28201B"/>
<path d="M85.4514 240C89.5256 240.456 94.0737 242.637 97.9633 244.094C95.1384 246.25 91.852 247.775 88.7317 249.369C86.3376 249.537 78.9831 246.25 76.4229 245.175C79.1616 243.119 82.4849 241.675 85.4514 240Z" fill="#222223"/>
<path d="M123.916 234.375C127.03 234.875 130.36 236.075 133.345 237.162C134.249 237.494 135.056 237.856 135.505 238.8C134.686 241.125 130.021 242.706 127.886 243.75C123.879 243.225 119.066 241.175 115.195 239.788C117.823 237.631 120.999 236.056 123.916 234.375Z" fill="#222223"/>
<path d="M89.8267 232.5C89.8759 232.5 89.9251 232.5 89.9744 232.506C92.3315 232.738 99.6368 234.756 101.046 236.588C100.381 238.219 94.7009 240.406 92.9839 241.25C92.8792 241.225 92.7808 241.206 92.6823 241.181C90.2328 240.544 83.1245 239.231 81.9736 237.281C82.9029 235.219 87.7711 233.494 89.839 232.506L89.8267 232.5Z" fill="#222223"/>
<path d="M71.2459 236.25C74.557 236.394 78.6804 238.3 81.8746 239.3C82.2684 239.144 82.7177 239.256 82.9885 239.575C83.2532 239.894 83.2655 240.344 83.0193 240.675C82.7731 241.006 82.33 241.144 81.93 241.012C79.6775 242.4 75.7879 244.794 73.0922 244.319C73.0307 244.306 72.963 244.3 72.8953 244.287C69.6458 242.756 65.6823 242.025 62.2666 240.763C65.1838 239.125 68.3472 237.931 71.2459 236.25Z" fill="#222223"/>
<path d="M81.9182 238.844C82.2937 238.631 82.7368 238.781 82.9953 239.219C83.2476 239.656 83.2599 240.269 83.026 240.719C82.7922 241.175 82.3614 241.363 81.9736 241.181C81.6105 241.013 81.3643 240.556 81.352 240.038C81.3397 239.519 81.5674 239.044 81.9244 238.844H81.9182Z" fill="#222223"/>
<path d="M103.71 236.875C106.578 237.344 109.742 238.432 112.56 239.282C113.545 239.582 114.099 239.857 114.579 240.794C114.542 240.907 114.517 241.025 114.474 241.138C113.822 242.844 108.966 244.757 107.304 245.588C104.479 246.019 97.6543 242.988 94.8848 241.782C97.6789 239.938 100.762 238.444 103.71 236.882V236.875Z" fill="#222223"/>
<path d="M109.835 230C112.223 230.613 119.436 231.919 120.735 233.807C120.698 233.919 120.673 234.032 120.636 234.144C120.021 235.8 114.9 237.907 113.257 238.75C110.266 238.175 107.078 237.082 104.136 236.213C103.287 235.963 102.702 235.738 102.271 234.938C102.302 234.844 102.327 234.75 102.358 234.657C102.905 233.138 108.266 230.832 109.835 230Z" fill="#222223"/>
<path d="M95.531 225.651C98.522 225.326 105.446 228.307 108.425 229.563C105.809 231.482 102.873 232.907 100.011 234.363C97.3897 234.582 90.5829 231.957 88.1519 230.582L88.1211 230.044C89.8443 228.176 93.297 226.857 95.5372 225.651H95.531Z" fill="#222223"/>
<path d="M126.66 226.881C128.888 226.731 136.876 229.206 138.581 230.737C137.658 232.669 132.322 234.65 130.353 235.625C126.371 235.25 121.515 232.962 117.656 231.7C120.377 229.762 123.688 228.356 126.66 226.881Z" fill="#222223"/>
<path d="M81.5239 221.876C85.832 222.876 90.0909 224.095 94.2697 225.532C91.5126 227.082 86.706 230.445 83.438 229.957C80.4592 228.626 77.0805 227.913 73.9294 227.132L73.3447 226.32C74.7849 224.407 79.3207 222.976 81.5239 221.882V221.876Z" fill="#222223"/>
<path d="M85.0083 214.376C85.0083 214.376 85.0698 214.388 85.0944 214.395C87.6485 215.101 94.8061 216.257 96.117 218.426C95.3846 220.463 90.7996 222.188 88.9656 223.12C85.156 222.863 80.1524 220.532 76.4229 219.32C79.0569 217.376 82.2142 216.095 85.0083 214.37V214.376Z" fill="#222223"/>
<path d="M113.096 223.126C114.782 223.538 116.431 224.038 118.093 224.551C119.884 225.057 121.742 225.713 123.57 226.02C124.112 226.282 124.149 226.295 124.426 226.813C123.226 228.782 118.204 230.307 115.976 231.245C112.006 230.082 108.055 228.876 104.116 227.626C107.015 225.988 110.111 224.62 113.096 223.12V223.126Z" fill="#222223"/>
<path d="M99.285 218.75L104.485 220.225L108.91 221.537C109.624 221.787 109.784 221.8 110.264 222.425C109.434 224.269 104.079 226.025 102.116 226.881C98.3187 225.581 94.423 224.525 90.5703 223.394C93.346 221.619 96.337 220.213 99.2788 218.756L99.285 218.75Z" fill="#222223"/>
<path d="M66.9686 212.625L71.5352 210.625C74.3108 211.438 79.7698 212.294 81.8992 214.05L81.9607 214.713C80.2498 216.719 77.0372 217.713 74.6801 218.744C71.7198 218.894 65.1099 216.232 62.2666 214.994C63.8483 214.225 65.43 213.469 66.9686 212.625Z" fill="#28201B"/>
<path d="M85.9313 213.969C83.9496 213.651 74.9826 211.482 73.9609 210.088C74.4656 209.394 74.7856 209.244 75.5734 208.969C78.2259 208.019 84.8604 210.469 87.4206 211.676C87.2976 211.932 87.1745 212.176 87.0329 212.426C86.996 212.494 86.9529 212.563 86.9098 212.632C90.0978 212.638 92.2334 212.794 95.2429 213.969L96.5353 214.363L96.7261 214.988C96.1784 215.676 95.6429 216.132 94.7321 216.232C92.2519 216.494 88.3623 214.732 85.9313 213.976V213.969Z" fill="#222223"/>
<path d="M85.6543 213.638C87.833 212.063 92.3011 214.719 95.206 213.638L96.5353 214.088L96.7322 214.8C96.1722 215.588 95.6244 216.113 94.6828 216.219C92.141 216.519 88.1468 214.501 85.6543 213.638Z" fill="#28201B"/>
<path d="M-57.3999 212.92C-52.1933 208.082 -44.0448 206.295 -37.2996 205.176C-21.1442 202.495 7.6769 202.826 21.2166 212.963C23.1245 214.388 24.9278 216.12 25.2724 218.626C25.537 220.563 24.9831 221.695 23.8999 223.22C13.0559 229.357 0.143905 234.832 -11.2172 240.145C-19.661 244.095 -29.3296 249.357 -38.075 252.145C-48.8576 253.345 -70.3796 253.395 -79.365 246.238C-90.7938 248.451 -101.884 252.038 -113.491 253.132C-117.473 245.313 -121.664 237.601 -126.059 230.02C-117.104 227.726 -108.168 224.995 -99.373 222.132C-85.5256 217.62 -72.269 211.795 -57.3999 212.932V212.92Z" fill="#B7B7B6"/>
</g>
<path d="M164.074 134.507L165.711 126.257L169.139 126.982L168.936 127.982L166.172 127.388L165.704 129.738L167.957 130.232L167.76 131.226L165.508 130.726L164.923 133.657L167.668 134.288L167.471 135.282L164.067 134.488L164.074 134.507Z" fill="black"/>
<path d="M170.309 135.956L169.441 135.756L169.164 129.462L169.884 129.619L170.106 134.694L172.266 130.137L172.998 130.3L170.309 135.956Z" fill="black"/>
<path d="M174.068 136.994C173.686 136.907 173.372 136.681 173.12 136.325C172.868 135.969 172.695 135.531 172.609 135.019C172.523 134.5 172.542 133.95 172.659 133.369C172.745 132.931 172.886 132.531 173.065 132.175C173.249 131.813 173.465 131.513 173.711 131.263C173.957 131.013 174.228 130.831 174.511 130.719C174.794 130.606 175.077 130.588 175.367 130.644C175.68 130.713 175.945 130.869 176.167 131.107C176.394 131.344 176.567 131.65 176.684 132.019C176.807 132.388 176.868 132.8 176.874 133.25C176.88 133.7 176.819 134.175 176.696 134.656L173.317 133.894C173.28 134.244 173.299 134.563 173.36 134.857C173.428 135.15 173.539 135.394 173.692 135.594C173.853 135.794 174.043 135.919 174.277 135.982C174.523 136.038 174.77 136 175.01 135.863C175.25 135.719 175.465 135.5 175.656 135.2L176.32 135.606C176.043 136.106 175.705 136.482 175.299 136.75C174.899 137.013 174.486 137.094 174.074 136.994H174.068ZM173.452 133.1L176.148 133.706C176.197 133.363 176.185 133.038 176.111 132.731C176.043 132.419 175.927 132.163 175.76 131.95C175.6 131.738 175.403 131.607 175.17 131.557C174.936 131.507 174.708 131.544 174.48 131.663C174.253 131.788 174.049 131.975 173.865 132.225C173.686 132.475 173.545 132.769 173.446 133.106L173.452 133.1Z" fill="black"/>
<path d="M176.856 137.476L178.093 131.42L178.801 131.576L178.647 132.339C178.857 132.089 179.09 131.901 179.349 131.789C179.614 131.67 179.878 131.639 180.143 131.695C180.309 131.732 180.457 131.795 180.598 131.889L180.1 132.851C179.995 132.77 179.884 132.72 179.78 132.695C179.571 132.651 179.361 132.682 179.152 132.795C178.949 132.901 178.77 133.07 178.61 133.301C178.457 133.526 178.346 133.795 178.284 134.107L177.558 137.651L176.856 137.489V137.476Z" fill="black"/>
<path d="M184.038 132.719L184.807 132.888L180.567 141.538L179.81 141.356L181.207 138.494L180.936 132.044L181.717 132.213L181.853 137.163L184.038 132.719Z" fill="black"/>
<path d="M187.639 134.588L186.648 134.369L185.577 139.501L184.851 139.332L185.915 134.207L185.171 134.044L185.386 133.007L186.131 133.169L186.531 131.226L187.263 131.382L186.863 133.326L187.854 133.544L187.639 134.588Z" fill="black"/>
<path d="M192.071 136.938L191.259 140.819L190.514 140.644L191.277 137C191.345 136.681 191.351 136.381 191.296 136.1C191.24 135.819 191.136 135.581 190.982 135.394C190.828 135.2 190.643 135.075 190.415 135.025C190.188 134.975 189.972 135.006 189.757 135.119C189.542 135.225 189.357 135.4 189.191 135.631C189.031 135.863 188.914 136.138 188.846 136.45L188.089 140.075L187.351 139.906L189.289 130.6L190.034 130.756L189.222 134.65C189.437 134.394 189.683 134.206 189.96 134.088C190.237 133.963 190.514 133.938 190.797 133.994C191.129 134.069 191.406 134.244 191.634 134.538C191.862 134.825 192.022 135.175 192.102 135.594C192.188 136.013 192.176 136.456 192.077 136.931L192.071 136.938Z" fill="black"/>
<path d="M193.466 134.769L194.223 134.932L192.906 141.2L192.155 141.025L193.472 134.763L193.466 134.769ZM194.063 133.832C193.94 133.807 193.854 133.732 193.798 133.6C193.743 133.475 193.731 133.332 193.762 133.163C193.792 132.994 193.866 132.869 193.971 132.782C194.075 132.688 194.186 132.657 194.303 132.682C194.42 132.707 194.506 132.782 194.568 132.907C194.623 133.032 194.636 133.175 194.605 133.344C194.574 133.513 194.5 133.638 194.395 133.725C194.297 133.819 194.186 133.85 194.069 133.825L194.063 133.832Z" fill="black"/>
<path d="M198.816 138.444L197.979 142.382L197.209 142.2L197.991 138.5C198.059 138.182 198.065 137.875 198.009 137.588C197.954 137.3 197.843 137.063 197.689 136.869C197.535 136.669 197.338 136.544 197.105 136.494C196.871 136.444 196.649 136.475 196.428 136.588C196.206 136.7 196.015 136.869 195.849 137.107C195.683 137.344 195.566 137.619 195.498 137.938L194.723 141.619L193.966 141.444L195.289 135.157L196.052 135.325L195.886 136.113C196.108 135.857 196.36 135.663 196.643 135.544C196.926 135.419 197.215 135.388 197.505 135.457C197.849 135.532 198.132 135.713 198.366 136.007C198.6 136.294 198.76 136.657 198.846 137.082C198.932 137.507 198.926 137.963 198.822 138.438L198.816 138.444Z" fill="black"/>
<path d="M203.8 137.019L204.594 137.194L203.173 143.806C203.08 144.225 202.933 144.606 202.717 144.931C202.508 145.269 202.262 145.544 201.979 145.756C201.696 145.975 201.394 146.125 201.08 146.206C200.76 146.287 200.446 146.294 200.139 146.219C199.831 146.144 199.529 145.969 199.271 145.7C199.012 145.437 198.809 145.112 198.655 144.731C198.501 144.356 198.421 143.95 198.409 143.525L199.215 143.25C199.215 143.556 199.258 143.844 199.363 144.112C199.468 144.387 199.603 144.612 199.782 144.8C199.96 144.987 200.157 145.106 200.372 145.162C200.576 145.212 200.785 145.206 200.994 145.156C201.209 145.106 201.406 145.006 201.597 144.869C201.788 144.737 201.954 144.562 202.09 144.35C202.231 144.144 202.33 143.906 202.385 143.637L202.656 142.369C202.416 142.7 202.145 142.95 201.831 143.119C201.523 143.281 201.197 143.325 200.852 143.244C200.508 143.162 200.237 143.006 199.985 142.769C199.732 142.531 199.535 142.231 199.382 141.875C199.234 141.519 199.135 141.125 199.098 140.694C199.062 140.262 199.092 139.819 199.191 139.356C199.289 138.894 199.443 138.475 199.652 138.1C199.862 137.719 200.108 137.4 200.391 137.144C200.674 136.881 200.976 136.694 201.302 136.581C201.628 136.469 201.954 136.45 202.286 136.519C202.619 136.587 202.914 136.775 203.123 137.056C203.339 137.337 203.487 137.687 203.567 138.094L203.794 137.031L203.8 137.019ZM201.086 142.194C201.388 142.262 201.671 142.219 201.936 142.056C202.206 141.894 202.44 141.65 202.637 141.325C202.834 141 202.976 140.631 203.068 140.212C203.16 139.794 203.179 139.381 203.13 139.006C203.087 138.625 202.97 138.306 202.791 138.044C202.613 137.781 202.379 137.619 202.077 137.55C201.776 137.481 201.493 137.531 201.209 137.687C200.92 137.844 200.674 138.081 200.452 138.4C200.237 138.719 200.089 139.087 199.997 139.519C199.905 139.95 199.892 140.35 199.96 140.737C200.034 141.119 200.163 141.437 200.354 141.7C200.551 141.956 200.797 142.119 201.08 142.187L201.086 142.194Z" fill="black"/>
<path d="M205.185 138.145L206.2 134.845L207 135.013L205.714 138.257L205.185 138.138V138.145Z" fill="black"/>
<path d="M207.338 144.688C207.086 144.613 206.846 144.494 206.624 144.319C206.409 144.144 206.23 143.932 206.089 143.688C205.953 143.438 205.873 143.176 205.849 142.888L206.618 142.644C206.636 142.801 206.692 142.957 206.784 143.113C206.883 143.269 206.999 143.407 207.147 143.519C207.295 143.632 207.449 143.713 207.615 143.751C207.793 143.788 207.966 143.794 208.132 143.751C208.304 143.713 208.452 143.632 208.575 143.513C208.704 143.388 208.797 143.226 208.84 143.026C208.889 142.807 208.87 142.632 208.784 142.482C208.704 142.332 208.594 142.207 208.446 142.101C208.304 141.988 208.157 141.888 208.003 141.782C207.701 141.594 207.436 141.394 207.209 141.182C206.987 140.963 206.827 140.719 206.729 140.444C206.636 140.169 206.63 139.838 206.71 139.463C206.796 139.063 206.95 138.732 207.178 138.476C207.406 138.219 207.67 138.038 207.972 137.938C208.273 137.838 208.581 137.819 208.889 137.888C209.277 137.976 209.609 138.163 209.88 138.457C210.151 138.751 210.329 139.113 210.403 139.532L209.64 139.901C209.621 139.732 209.566 139.576 209.48 139.438C209.394 139.294 209.283 139.169 209.154 139.069C209.024 138.969 208.883 138.901 208.735 138.863C208.55 138.813 208.372 138.807 208.193 138.844C208.015 138.882 207.867 138.963 207.732 139.094C207.603 139.219 207.516 139.394 207.467 139.613C207.418 139.832 207.436 140.001 207.516 140.138C207.597 140.276 207.713 140.394 207.867 140.501C208.021 140.601 208.187 140.719 208.372 140.851C208.637 141.038 208.877 141.244 209.092 141.469C209.307 141.688 209.467 141.944 209.572 142.226C209.677 142.507 209.689 142.832 209.603 143.194C209.517 143.594 209.35 143.919 209.11 144.176C208.87 144.426 208.594 144.601 208.28 144.688C207.966 144.776 207.652 144.776 207.338 144.688Z" fill="black"/>
<path d="M212.373 145.732L214.373 136.582L216.804 137.1C217.173 137.182 217.487 137.369 217.734 137.675C217.986 137.982 218.152 138.363 218.238 138.813C218.331 139.263 218.318 139.738 218.207 140.244C218.109 140.688 217.955 141.082 217.74 141.413C217.524 141.75 217.278 142.013 216.989 142.207C216.706 142.394 216.41 142.507 216.096 142.532L216.933 146.788L215.967 146.563L215.143 142.413L214.016 142.163L213.198 145.919L212.373 145.725V145.732ZM214.256 141.063L215.77 141.4C215.992 141.45 216.22 141.425 216.435 141.319C216.657 141.213 216.847 141.044 217.013 140.819C217.18 140.588 217.303 140.313 217.37 140C217.438 139.688 217.444 139.382 217.389 139.107C217.333 138.825 217.229 138.594 217.075 138.413C216.921 138.225 216.73 138.107 216.503 138.057L214.983 137.732L214.25 141.069L214.256 141.063Z" fill="black"/>
<path d="M219.925 147.663C219.463 147.557 219.075 147.3 218.761 146.9C218.454 146.5 218.244 146.013 218.134 145.438C218.029 144.857 218.041 144.25 218.183 143.613C218.287 143.132 218.454 142.694 218.675 142.3C218.897 141.907 219.161 141.575 219.457 141.307C219.758 141.038 220.085 140.844 220.429 140.725C220.774 140.613 221.125 140.594 221.469 140.669C221.851 140.75 222.177 140.932 222.454 141.207C222.731 141.475 222.946 141.819 223.094 142.225C223.248 142.638 223.322 143.094 223.334 143.594C223.346 144.094 223.273 144.613 223.125 145.15L218.995 144.219C218.952 144.6 218.971 144.957 219.057 145.288C219.143 145.613 219.278 145.888 219.469 146.113C219.66 146.338 219.9 146.488 220.183 146.557C220.485 146.625 220.786 146.588 221.075 146.444C221.371 146.294 221.629 146.057 221.863 145.732L222.676 146.194C222.343 146.738 221.925 147.15 221.432 147.432C220.94 147.707 220.441 147.788 219.937 147.669L219.925 147.663ZM219.161 143.344L222.46 144.082C222.516 143.7 222.497 143.344 222.411 143C222.325 142.657 222.183 142.363 221.98 142.125C221.783 141.888 221.537 141.738 221.254 141.675C220.971 141.613 220.688 141.644 220.417 141.775C220.14 141.907 219.894 142.107 219.672 142.382C219.457 142.65 219.284 142.975 219.161 143.344Z" fill="black"/>
<path d="M228.96 142.5L229.84 142.694L228.326 149.438L227.452 149.232L227.667 148.088C227.415 148.438 227.119 148.7 226.781 148.875C226.442 149.05 226.079 149.094 225.685 149C225.292 148.907 224.971 148.738 224.688 148.482C224.399 148.219 224.165 147.894 223.987 147.513C223.808 147.125 223.698 146.707 223.654 146.244C223.611 145.788 223.642 145.307 223.753 144.819C223.864 144.332 224.03 143.907 224.258 143.519C224.491 143.125 224.762 142.8 225.076 142.538C225.396 142.269 225.735 142.082 226.098 141.975C226.461 141.863 226.83 141.844 227.206 141.925C227.612 142.013 227.944 142.219 228.196 142.538C228.449 142.85 228.627 143.232 228.732 143.669L228.96 142.507V142.5ZM225.913 147.913C226.252 147.994 226.572 147.95 226.873 147.794C227.175 147.632 227.433 147.382 227.655 147.038C227.876 146.7 228.036 146.3 228.141 145.857C228.246 145.413 228.264 144.969 228.209 144.569C228.153 144.163 228.024 143.825 227.815 143.557C227.612 143.282 227.347 143.107 227.002 143.032C226.658 142.957 226.325 143 225.999 143.157C225.673 143.313 225.384 143.557 225.138 143.894C224.898 144.225 224.725 144.613 224.621 145.063C224.516 145.513 224.51 145.944 224.596 146.35C224.682 146.757 224.842 147.094 225.07 147.382C225.298 147.657 225.581 147.838 225.913 147.913Z" fill="black"/>
<path d="M235.84 140.413L236.745 140.6L234.418 150.85L233.52 150.644L233.784 149.488C233.514 149.844 233.193 150.113 232.837 150.282C232.48 150.457 232.092 150.494 231.68 150.4C231.298 150.313 230.959 150.138 230.664 149.875C230.375 149.613 230.135 149.288 229.95 148.907C229.772 148.519 229.661 148.094 229.612 147.638C229.562 147.175 229.593 146.7 229.704 146.213C229.815 145.725 229.987 145.282 230.227 144.882C230.467 144.482 230.75 144.144 231.076 143.875C231.409 143.6 231.76 143.407 232.141 143.294C232.517 143.182 232.898 143.169 233.286 143.25C233.698 143.338 234.03 143.538 234.283 143.85C234.535 144.163 234.707 144.538 234.794 144.982L235.834 140.407L235.84 140.413ZM231.938 149.3C232.289 149.382 232.615 149.344 232.917 149.182C233.224 149.019 233.495 148.763 233.717 148.419C233.944 148.075 234.11 147.675 234.215 147.219C234.32 146.763 234.344 146.319 234.283 145.919C234.227 145.513 234.092 145.169 233.883 144.894C233.68 144.613 233.403 144.438 233.052 144.363C232.701 144.288 232.356 144.325 232.024 144.488C231.692 144.644 231.396 144.894 231.144 145.232C230.892 145.563 230.713 145.957 230.615 146.413C230.516 146.869 230.504 147.3 230.59 147.713C230.676 148.119 230.842 148.469 231.076 148.757C231.31 149.038 231.599 149.219 231.938 149.294V149.3Z" fill="black"/>
<path d="M240.776 145.075L241.754 145.288L236.412 154.913L235.452 154.682L237.206 151.5L236.825 144.219L237.822 144.438L238.025 150.025L240.776 145.075Z" fill="black"/>
<path d="M153.611 146.075L153.833 137.725L154.485 137.888L154.307 144.488L156.615 138.413L157.187 138.556L157.009 145.2L159.341 139.088L160.006 139.25L157.046 146.994L156.301 146.794L156.467 140.706L154.35 146.269L153.617 146.075H153.611Z" fill="black"/>
<path d="M160.3 148.013C159.943 147.919 159.648 147.694 159.408 147.344C159.174 146.994 159.014 146.563 158.927 146.063C158.847 145.556 158.86 145.019 158.971 144.463C159.057 144.038 159.18 143.656 159.352 143.313C159.524 142.969 159.728 142.675 159.955 142.444C160.189 142.206 160.441 142.038 160.706 141.938C160.971 141.838 161.242 141.819 161.506 141.888C161.802 141.963 162.048 142.119 162.257 142.356C162.472 142.594 162.632 142.894 162.743 143.25C162.86 143.613 162.916 144.013 162.922 144.45C162.922 144.888 162.872 145.344 162.756 145.813L159.586 144.988C159.549 145.325 159.568 145.638 159.629 145.925C159.691 146.213 159.795 146.45 159.943 146.644C160.091 146.844 160.275 146.969 160.491 147.031C160.725 147.094 160.952 147.056 161.174 146.931C161.402 146.8 161.599 146.594 161.783 146.306L162.405 146.713C162.146 147.188 161.826 147.55 161.445 147.794C161.069 148.038 160.682 148.106 160.294 148L160.3 148.013ZM159.728 144.225L162.257 144.875C162.3 144.544 162.288 144.225 162.226 143.931C162.159 143.631 162.054 143.375 161.9 143.163C161.746 142.95 161.562 142.819 161.346 142.763C161.131 142.706 160.915 142.738 160.7 142.85C160.491 142.963 160.294 143.138 160.121 143.381C159.955 143.619 159.82 143.9 159.728 144.225Z" fill="black"/>
<path d="M163.679 143.357L164.534 140.357L165.199 140.519L164.122 143.463L163.679 143.351V143.357Z" fill="black"/>
<path d="M166.325 149.463L165.47 149.238L165.199 142.981L165.907 143.163L166.122 148.206L168.252 143.75L168.972 143.931L166.325 149.463Z" fill="black"/>
<path d="M170.019 150.607C169.65 150.507 169.336 150.275 169.084 149.913C168.838 149.55 168.671 149.113 168.579 148.594C168.493 148.075 168.511 147.532 168.628 146.957C168.714 146.525 168.85 146.132 169.028 145.782C169.207 145.432 169.422 145.132 169.662 144.894C169.908 144.65 170.167 144.482 170.444 144.382C170.721 144.282 171.004 144.263 171.281 144.338C171.589 144.413 171.853 144.575 172.069 144.825C172.29 145.069 172.462 145.375 172.579 145.744C172.703 146.113 172.764 146.525 172.764 146.969C172.77 147.419 172.715 147.882 172.592 148.363L169.274 147.5C169.238 147.844 169.256 148.163 169.318 148.457C169.385 148.75 169.49 148.994 169.644 149.194C169.798 149.394 169.988 149.532 170.216 149.594C170.462 149.657 170.696 149.625 170.936 149.494C171.17 149.363 171.385 149.15 171.57 148.857L172.222 149.275C171.952 149.763 171.619 150.125 171.219 150.375C170.825 150.619 170.425 150.688 170.019 150.582V150.607ZM169.416 146.725L172.062 147.407C172.106 147.069 172.099 146.744 172.026 146.438C171.958 146.125 171.841 145.863 171.681 145.65C171.521 145.432 171.33 145.3 171.102 145.238C170.875 145.175 170.647 145.207 170.425 145.325C170.204 145.444 170.001 145.619 169.822 145.863C169.644 146.107 169.508 146.394 169.41 146.725H169.416Z" fill="black"/>
<path d="M174.795 151.713L176.512 143.301L178.451 143.776C178.857 143.876 179.22 144.082 179.528 144.395C179.842 144.701 180.094 145.082 180.285 145.545C180.475 146.001 180.599 146.507 180.642 147.057C180.691 147.607 180.654 148.176 180.537 148.763C180.414 149.351 180.223 149.882 179.965 150.351C179.706 150.82 179.405 151.213 179.054 151.532C178.703 151.845 178.328 152.07 177.927 152.195C177.527 152.32 177.127 152.326 176.721 152.22L174.795 151.707V151.713ZM175.7 150.895L176.93 151.22C177.238 151.301 177.54 151.295 177.841 151.201C178.149 151.101 178.432 150.932 178.697 150.695C178.961 150.457 179.195 150.157 179.386 149.795C179.583 149.432 179.731 149.032 179.823 148.588C179.915 148.145 179.94 147.713 179.903 147.295C179.866 146.876 179.774 146.488 179.626 146.138C179.478 145.795 179.288 145.501 179.054 145.27C178.82 145.032 178.549 144.876 178.241 144.801L177.004 144.495L175.693 150.895H175.7Z" fill="black"/>
<path d="M182.198 153.85C181.805 153.744 181.478 153.507 181.214 153.132C180.949 152.757 180.777 152.307 180.678 151.775C180.586 151.238 180.604 150.682 180.727 150.094C180.82 149.65 180.961 149.25 181.152 148.894C181.343 148.532 181.565 148.232 181.823 147.988C182.081 147.744 182.358 147.569 182.654 147.463C182.949 147.363 183.245 147.35 183.54 147.419C183.934 147.519 184.266 147.757 184.531 148.125C184.802 148.5 184.98 148.957 185.073 149.494C185.165 150.038 185.153 150.607 185.029 151.2C184.937 151.644 184.796 152.05 184.599 152.407C184.408 152.763 184.18 153.069 183.915 153.313C183.657 153.557 183.38 153.725 183.085 153.819C182.789 153.919 182.5 153.925 182.198 153.844V153.85ZM182.414 152.832C182.685 152.9 182.943 152.869 183.202 152.725C183.46 152.582 183.688 152.357 183.879 152.063C184.075 151.763 184.211 151.413 184.297 151.025C184.383 150.638 184.389 150.244 184.334 149.875C184.279 149.507 184.162 149.194 183.989 148.944C183.817 148.688 183.595 148.525 183.325 148.463C183.054 148.4 182.789 148.438 182.537 148.582C182.278 148.725 182.057 148.95 181.86 149.25C181.663 149.55 181.528 149.9 181.448 150.294C181.368 150.688 181.349 151.088 181.411 151.45C181.472 151.813 181.589 152.119 181.768 152.369C181.946 152.619 182.161 152.775 182.42 152.844L182.414 152.832Z" fill="black"/>
<path d="M189.781 151.644L188.974 155.488L188.236 155.288L188.993 151.676C189.061 151.363 189.067 151.063 189.011 150.782C188.956 150.501 188.851 150.257 188.704 150.063C188.556 149.863 188.365 149.738 188.144 149.682C187.922 149.626 187.707 149.651 187.491 149.757C187.282 149.857 187.091 150.026 186.931 150.251C186.771 150.476 186.654 150.744 186.593 151.057L185.842 154.651L185.109 154.457L186.39 148.319L187.122 148.507L186.962 149.276C187.177 149.026 187.417 148.851 187.694 148.738C187.965 148.626 188.242 148.601 188.525 148.676C188.851 148.757 189.128 148.944 189.356 149.244C189.584 149.538 189.738 149.894 189.818 150.313C189.898 150.732 189.891 151.176 189.793 151.644H189.781Z" fill="black"/>
<path d="M191.694 156.382C191.281 156.27 190.937 156.026 190.666 155.645C190.395 155.263 190.21 154.801 190.112 154.257C190.02 153.707 190.032 153.138 190.161 152.538C190.26 152.082 190.401 151.676 190.604 151.313C190.801 150.945 191.035 150.638 191.3 150.388C191.57 150.138 191.86 149.963 192.161 149.857C192.469 149.757 192.777 149.745 193.084 149.82C193.423 149.907 193.712 150.076 193.958 150.345C194.205 150.607 194.395 150.926 194.525 151.32C194.66 151.707 194.728 152.138 194.734 152.613C194.74 153.088 194.678 153.576 194.543 154.076L190.881 153.126C190.844 153.488 190.857 153.82 190.93 154.132C191.004 154.438 191.121 154.701 191.294 154.913C191.466 155.126 191.675 155.27 191.927 155.345C192.198 155.413 192.457 155.382 192.721 155.251C192.98 155.113 193.214 154.895 193.423 154.595L194.143 155.045C193.848 155.551 193.478 155.932 193.041 156.188C192.604 156.438 192.161 156.507 191.718 156.388L191.694 156.382ZM191.017 152.295L193.94 153.051C193.989 152.695 193.977 152.357 193.897 152.032C193.823 151.707 193.694 151.426 193.515 151.201C193.337 150.97 193.127 150.826 192.875 150.763C192.623 150.701 192.377 150.726 192.13 150.845C191.884 150.963 191.663 151.151 191.466 151.401C191.269 151.651 191.121 151.951 191.01 152.301L191.017 152.295Z" fill="black"/>
<path d="M197.098 157.651L198.981 148.826L199.756 149.019L197.867 157.857L197.098 157.651Z" fill="black"/>
<path d="M202.656 153.544L201.598 153.275L200.459 158.55L199.678 158.344L200.81 153.082L200.01 152.882L200.238 151.819L201.038 152.019L201.462 150.025L202.244 150.219L201.819 152.219L202.884 152.488L202.656 153.557V153.544Z" fill="black"/>
<path d="M208.804 151.244L209.782 151.488L210.269 161.163L209.407 160.932L209.308 158.957L206.157 158.132L205.271 159.832L204.422 159.607L208.798 151.244H208.804ZM206.693 157.132L209.247 157.794L208.988 152.75L206.693 157.132Z" fill="black"/>
<path d="M211.154 161.394L213.29 151.656L214.115 151.856L211.973 161.606L211.154 161.388V161.394Z" fill="black"/>
<path d="M213.149 161.926L215.297 152.151L216.128 152.357L213.974 162.151L213.149 161.932V161.926Z" fill="black"/>
<path d="M220.509 155.188L220.146 156.819L221.629 157.194L221.383 158.306L219.9 157.931L218.681 163.406L217.838 163.181L219.05 157.719L218.404 157.556L218.65 156.45L219.296 156.613L219.66 154.988C219.733 154.65 219.863 154.356 220.047 154.119C220.238 153.875 220.454 153.694 220.706 153.581C220.958 153.469 221.217 153.438 221.469 153.506C221.66 153.55 221.832 153.65 221.986 153.794C222.146 153.938 222.269 154.119 222.368 154.35L221.58 154.988C221.549 154.894 221.5 154.813 221.432 154.75C221.371 154.681 221.297 154.638 221.217 154.619C221.063 154.581 220.915 154.619 220.774 154.731C220.632 154.844 220.54 155 220.497 155.2L220.509 155.188Z" fill="black"/>
<path d="M223.063 164.745C222.596 164.62 222.202 164.351 221.882 163.932C221.568 163.52 221.359 163.02 221.242 162.432C221.131 161.845 221.149 161.232 221.291 160.595C221.402 160.107 221.568 159.676 221.789 159.288C222.017 158.901 222.282 158.576 222.583 158.313C222.891 158.051 223.217 157.87 223.568 157.763C223.919 157.657 224.27 157.651 224.627 157.738C225.1 157.857 225.494 158.126 225.814 158.538C226.134 158.951 226.356 159.457 226.467 160.051C226.584 160.645 226.565 161.27 226.417 161.92C226.307 162.407 226.141 162.838 225.907 163.226C225.679 163.613 225.408 163.938 225.1 164.195C224.793 164.451 224.467 164.632 224.116 164.726C223.765 164.826 223.414 164.826 223.063 164.732V164.745ZM223.31 163.632C223.63 163.72 223.943 163.682 224.251 163.538C224.559 163.388 224.83 163.151 225.057 162.826C225.291 162.501 225.457 162.126 225.55 161.701C225.642 161.276 225.66 160.845 225.587 160.445C225.519 160.045 225.377 159.701 225.168 159.413C224.959 159.132 224.694 158.951 224.374 158.87C224.054 158.788 223.74 158.826 223.433 158.982C223.131 159.132 222.86 159.37 222.633 159.695C222.405 160.02 222.239 160.395 222.146 160.82C222.054 161.245 222.036 161.682 222.109 162.082C222.183 162.482 222.325 162.82 222.534 163.095C222.743 163.37 223.008 163.551 223.31 163.632Z" fill="black"/>
<path d="M226.529 165.488L228.037 158.807L228.917 159.025L228.726 159.863C228.985 159.594 229.274 159.407 229.594 159.294C229.92 159.175 230.253 159.163 230.585 159.244C230.788 159.294 230.979 159.382 231.151 159.494L230.536 160.538C230.407 160.444 230.271 160.375 230.136 160.344C229.871 160.275 229.613 160.3 229.354 160.407C229.102 160.513 228.88 160.688 228.689 160.932C228.499 161.175 228.363 161.469 228.289 161.807L227.403 165.719L226.529 165.488Z" fill="black"/>
<path d="M239.698 158.838L240.781 159.107L236.99 163.707L236.005 168.013L235.101 167.769L236.085 163.469L234.731 157.613L235.796 157.875L236.83 162.332L239.704 158.838H239.698Z" fill="black"/>
<path d="M240.979 169.525C240.474 169.388 240.05 169.107 239.711 168.669C239.373 168.238 239.145 167.719 239.022 167.107C238.905 166.494 238.924 165.863 239.077 165.2C239.194 164.7 239.373 164.25 239.613 163.85C239.859 163.45 240.142 163.113 240.462 162.85C240.794 162.582 241.145 162.394 241.521 162.288C241.896 162.182 242.278 162.182 242.659 162.275C243.17 162.4 243.595 162.682 243.939 163.113C244.284 163.544 244.518 164.069 244.641 164.688C244.764 165.307 244.752 165.95 244.592 166.625C244.475 167.125 244.296 167.575 244.05 167.975C243.804 168.375 243.515 168.707 243.182 168.975C242.856 169.238 242.499 169.419 242.124 169.519C241.748 169.619 241.373 169.619 240.991 169.519L240.979 169.525ZM241.244 168.369C241.588 168.463 241.927 168.432 242.253 168.275C242.585 168.119 242.875 167.875 243.121 167.544C243.373 167.213 243.546 166.825 243.65 166.382C243.755 165.938 243.767 165.494 243.687 165.075C243.613 164.657 243.459 164.3 243.238 164C243.01 163.707 242.727 163.513 242.388 163.425C242.05 163.338 241.705 163.375 241.379 163.532C241.053 163.688 240.764 163.932 240.518 164.263C240.271 164.594 240.099 164.988 239.994 165.425C239.89 165.863 239.878 166.319 239.951 166.738C240.031 167.15 240.185 167.5 240.413 167.794C240.641 168.082 240.924 168.269 241.25 168.357L241.244 168.369Z" fill="black"/>
<path d="M245.018 167.619L246.015 163.325L246.956 163.563L246.015 167.606C245.935 167.956 245.928 168.294 245.996 168.619C246.07 168.944 246.199 169.219 246.39 169.45C246.587 169.681 246.827 169.831 247.11 169.906C247.393 169.981 247.67 169.969 247.941 169.863C248.212 169.75 248.452 169.575 248.661 169.319C248.87 169.069 249.012 168.769 249.098 168.413L250.052 164.344L251.012 164.588L249.381 171.569L248.427 171.313L248.63 170.425C248.353 170.694 248.039 170.888 247.689 171C247.338 171.106 246.987 171.119 246.636 171.019C246.218 170.906 245.861 170.681 245.571 170.338C245.288 169.994 245.091 169.581 244.987 169.106C244.882 168.631 244.894 168.131 245.018 167.613V167.619Z" fill="black"/>
<path d="M178.721 189.119C178.493 189.062 178.29 188.962 178.106 188.819C177.921 188.669 177.78 188.487 177.669 188.275C177.564 188.062 177.509 187.819 177.509 187.556L178.038 187.425C178.038 187.587 178.075 187.737 178.155 187.875C178.235 188.012 178.34 188.131 178.469 188.225C178.598 188.325 178.746 188.387 178.9 188.431C179.078 188.475 179.257 188.475 179.435 188.431C179.614 188.387 179.774 188.306 179.903 188.181C180.038 188.062 180.131 187.9 180.186 187.706C180.241 187.512 180.229 187.331 180.168 187.187C180.1 187.037 180.001 186.906 179.86 186.794C179.724 186.681 179.577 186.587 179.417 186.506C179.146 186.375 178.906 186.219 178.709 186.05C178.512 185.875 178.377 185.662 178.303 185.419C178.229 185.175 178.241 184.875 178.333 184.519C178.42 184.187 178.567 183.919 178.77 183.706C178.98 183.494 179.214 183.344 179.484 183.262C179.755 183.181 180.02 183.169 180.291 183.225C180.512 183.275 180.715 183.369 180.9 183.512C181.085 183.65 181.238 183.831 181.349 184.044C181.466 184.262 181.521 184.506 181.521 184.781L180.974 184.906C180.974 184.744 180.937 184.594 180.851 184.456C180.771 184.319 180.666 184.2 180.531 184.106C180.401 184.012 180.254 183.944 180.094 183.906C179.915 183.862 179.737 183.862 179.564 183.906C179.386 183.95 179.232 184.037 179.097 184.156C178.961 184.275 178.869 184.431 178.82 184.625C178.758 184.85 178.758 185.037 178.814 185.181C178.869 185.319 178.967 185.437 179.109 185.531C179.244 185.625 179.404 185.719 179.589 185.812C179.847 185.937 180.069 186.094 180.272 186.287C180.469 186.475 180.611 186.7 180.691 186.956C180.777 187.212 180.771 187.506 180.691 187.831C180.611 188.156 180.451 188.437 180.241 188.65C180.032 188.862 179.792 189.012 179.527 189.094C179.257 189.175 178.986 189.181 178.715 189.112L178.721 189.119ZM183.423 186.494L182.728 186.331L181.811 189.75L181.3 189.625L182.217 186.212L181.694 186.094L181.878 185.406L182.402 185.525L182.74 184.237L183.257 184.35L182.919 185.637L183.614 185.794L183.429 186.487L183.423 186.494ZM186.587 186.481L187.116 186.6L186.008 190.762L185.485 190.637L185.651 189.931C185.491 190.15 185.3 190.312 185.091 190.419C184.882 190.525 184.66 190.55 184.42 190.494C184.18 190.437 183.996 190.331 183.829 190.169C183.663 190.006 183.528 189.806 183.429 189.569C183.331 189.331 183.282 189.069 183.263 188.781C183.251 188.5 183.282 188.2 183.362 187.9C183.442 187.6 183.552 187.337 183.706 187.094C183.86 186.85 184.032 186.65 184.229 186.487C184.432 186.325 184.642 186.206 184.869 186.144C185.091 186.075 185.319 186.069 185.54 186.119C185.786 186.175 185.977 186.3 186.125 186.5C186.273 186.694 186.365 186.925 186.42 187.194L186.593 186.481H186.587ZM184.586 189.812C184.789 189.862 184.986 189.837 185.171 189.744C185.362 189.644 185.522 189.487 185.663 189.281C185.805 189.069 185.916 188.825 185.99 188.55C186.063 188.275 186.088 188 186.07 187.756C186.045 187.506 185.977 187.3 185.86 187.131C185.75 186.962 185.59 186.85 185.386 186.806C185.183 186.762 184.974 186.781 184.771 186.881C184.568 186.975 184.383 187.131 184.223 187.331C184.063 187.537 183.952 187.775 183.879 188.05C183.805 188.325 183.786 188.594 183.829 188.844C183.872 189.094 183.959 189.306 184.088 189.481C184.217 189.656 184.383 189.762 184.586 189.812ZM186.636 190.912L187.744 186.744L188.273 186.862L188.137 187.381C188.304 187.212 188.482 187.087 188.685 187.012C188.888 186.937 189.091 186.919 189.288 186.962C189.411 186.987 189.522 187.037 189.627 187.106L189.221 187.762C189.141 187.706 189.061 187.669 188.981 187.65C188.821 187.612 188.661 187.631 188.501 187.706C188.341 187.775 188.205 187.887 188.076 188.044C187.953 188.2 187.861 188.381 187.805 188.594L187.159 191.037L186.63 190.912H186.636ZM191.541 188.362L190.808 188.194L189.879 191.694L189.344 191.562L190.273 188.062L189.725 187.937L189.91 187.231L190.458 187.356L190.802 186.037L191.344 186.156L190.999 187.475L191.732 187.644L191.547 188.35L191.541 188.362ZM194.513 192.931C194.144 192.844 193.855 192.65 193.646 192.35C193.436 192.05 193.313 191.694 193.27 191.262C193.233 190.837 193.27 190.381 193.399 189.906L194.317 186.444L194.864 186.569L193.947 190.037C193.855 190.375 193.824 190.7 193.843 191.012C193.867 191.325 193.947 191.587 194.083 191.8C194.224 192.012 194.427 192.156 194.698 192.219C194.969 192.281 195.221 192.256 195.455 192.125C195.689 191.994 195.886 191.8 196.058 191.537C196.231 191.275 196.366 190.969 196.452 190.625L197.369 187.131L197.929 187.256L197.006 190.756C196.908 191.119 196.778 191.45 196.612 191.75C196.446 192.044 196.249 192.294 196.027 192.494C195.806 192.694 195.566 192.837 195.307 192.919C195.049 193 194.784 193.006 194.507 192.937L194.513 192.931ZM198.163 193.781C197.985 193.731 197.818 193.644 197.665 193.525C197.517 193.406 197.394 193.262 197.301 193.094C197.209 192.925 197.16 192.744 197.148 192.556L197.701 192.406C197.708 192.512 197.745 192.619 197.812 192.725C197.874 192.831 197.96 192.925 198.058 193.006C198.157 193.087 198.268 193.137 198.385 193.169C198.508 193.2 198.631 193.2 198.754 193.181C198.877 193.156 198.982 193.106 199.074 193.025C199.172 192.944 199.234 192.837 199.271 192.7C199.308 192.556 199.302 192.431 199.246 192.337C199.191 192.237 199.117 192.15 199.012 192.075C198.914 192 198.809 191.925 198.705 191.856C198.495 191.725 198.311 191.587 198.157 191.444C198.003 191.294 197.898 191.125 197.831 190.944C197.769 190.756 197.775 190.537 197.843 190.287C197.911 190.019 198.034 189.806 198.194 189.637C198.36 189.469 198.551 189.356 198.772 189.287C198.988 189.225 199.203 189.219 199.418 189.269C199.689 189.331 199.923 189.462 200.108 189.662C200.292 189.862 200.409 190.106 200.452 190.387L199.905 190.625C199.892 190.512 199.862 190.406 199.8 190.312C199.745 190.212 199.671 190.131 199.579 190.062C199.486 189.994 199.394 189.944 199.289 189.919C199.16 189.881 199.031 189.875 198.908 189.9C198.785 189.925 198.674 189.975 198.575 190.062C198.483 190.144 198.415 190.256 198.378 190.406C198.341 190.556 198.348 190.669 198.397 190.756C198.452 190.85 198.532 190.931 198.637 191.006C198.742 191.075 198.858 191.156 198.988 191.25C199.172 191.381 199.339 191.525 199.486 191.675C199.634 191.825 199.745 192 199.806 192.187C199.874 192.381 199.874 192.594 199.806 192.837C199.739 193.106 199.615 193.319 199.437 193.487C199.259 193.656 199.062 193.762 198.834 193.819C198.612 193.875 198.391 193.869 198.169 193.806L198.163 193.781ZM201.16 189.806L201.733 189.937L200.594 194.281L200.022 194.144L201.16 189.806ZM201.64 189.162C201.548 189.144 201.48 189.087 201.443 189C201.4 188.912 201.394 188.812 201.425 188.7C201.456 188.587 201.511 188.5 201.591 188.437C201.671 188.375 201.757 188.356 201.843 188.375C201.93 188.394 201.997 188.45 202.04 188.537C202.083 188.625 202.09 188.725 202.059 188.837C202.028 188.95 201.973 189.037 201.893 189.1C201.813 189.162 201.733 189.181 201.64 189.162ZM205.167 192.475L204.453 195.206L203.868 195.062L204.539 192.494C204.594 192.269 204.607 192.062 204.57 191.856C204.533 191.656 204.453 191.487 204.336 191.35C204.219 191.206 204.077 191.119 203.899 191.075C203.72 191.031 203.554 191.05 203.382 191.125C203.21 191.194 203.062 191.312 202.927 191.475C202.797 191.637 202.699 191.825 202.643 192.05L201.973 194.6L201.394 194.462L202.533 190.106L203.111 190.237L202.97 190.781C203.142 190.606 203.339 190.481 203.56 190.4C203.782 190.319 203.997 190.306 204.219 190.356C204.477 190.412 204.693 190.55 204.865 190.756C205.038 190.962 205.154 191.219 205.21 191.512C205.265 191.812 205.253 192.125 205.167 192.456V192.475ZM208.995 191.587L209.592 191.725L208.398 196.312C208.324 196.606 208.201 196.869 208.029 197.094C207.862 197.325 207.672 197.512 207.45 197.656C207.228 197.806 207.001 197.9 206.755 197.95C206.508 198 206.268 198 206.034 197.944C205.801 197.887 205.573 197.756 205.382 197.562C205.191 197.369 205.037 197.137 204.927 196.869C204.816 196.6 204.761 196.319 204.761 196.019L205.382 195.844C205.376 196.056 205.407 196.256 205.481 196.45C205.554 196.644 205.659 196.806 205.788 196.937C205.918 197.075 206.071 197.162 206.231 197.2C206.385 197.237 206.545 197.244 206.705 197.206C206.872 197.175 207.025 197.112 207.173 197.019C207.321 196.931 207.45 196.812 207.561 196.662C207.672 196.519 207.752 196.356 207.801 196.169L208.029 195.287C207.844 195.512 207.629 195.681 207.388 195.794C207.155 195.906 206.902 195.925 206.644 195.862C206.385 195.8 206.176 195.687 205.991 195.512C205.807 195.337 205.659 195.125 205.548 194.875C205.444 194.619 205.376 194.344 205.358 194.044C205.339 193.744 205.37 193.431 205.45 193.112C205.53 192.794 205.659 192.506 205.825 192.25C205.991 191.987 206.182 191.775 206.404 191.6C206.625 191.425 206.859 191.3 207.112 191.231C207.364 191.162 207.61 191.156 207.862 191.212C208.127 191.275 208.336 191.4 208.49 191.606C208.65 191.806 208.755 192.05 208.81 192.337L209.001 191.6L208.995 191.587ZM206.835 195.137C207.062 195.194 207.278 195.169 207.487 195.056C207.696 194.95 207.881 194.781 208.035 194.562C208.189 194.344 208.305 194.081 208.379 193.794C208.453 193.506 208.478 193.219 208.447 192.956C208.416 192.687 208.336 192.462 208.207 192.281C208.078 192.094 207.899 191.975 207.672 191.925C207.444 191.875 207.228 191.9 207.007 192C206.785 192.1 206.588 192.262 206.416 192.481C206.25 192.7 206.127 192.956 206.047 193.25C205.967 193.544 205.954 193.831 205.998 194.1C206.047 194.369 206.139 194.594 206.281 194.781C206.428 194.969 206.607 195.087 206.828 195.137H206.835Z" fill="white"/>
</g>
<defs>
<clipPath id="clip0_1110_2136">
<rect width="358" height="250" rx="24" fill="white"/>
</clipPath>
</defs>
</svg>
