<svg width="48" height="48" viewBox="0 0 48 48" fill="none" xmlns="http://www.w3.org/2000/svg">
<g clip-path="url(#clip0_2888_5411)">
<path d="M38.5312 8.5065C38.5312 6.23438 37.6464 4.09819 36.0398 2.4915C34.4331 0.884812 32.2969 0 30.0247 0C27.7526 0 25.6165 0.884812 24.0098 2.4915L24 2.50125L23.9902 2.4915C22.3836 0.884812 20.2475 0 17.9752 0C15.703 0 13.5669 0.884812 11.9602 2.4915C10.3536 4.09819 9.46875 6.23438 9.46875 8.5065C9.46875 10.7786 10.3536 12.9148 11.9602 14.5215L23.0056 25.5669C23.2692 25.8307 23.627 25.9789 23.9999 25.9789C24.3728 25.9789 24.7306 25.8307 24.9942 25.5669L36.0396 14.5216C37.6464 12.9148 38.5312 10.7786 38.5312 8.5065ZM26.8125 14.0624H25.4062V15.4688C25.4062 16.2454 24.7766 16.875 24 16.875C23.2234 16.875 22.5938 16.2454 22.5938 15.4688V14.0624H21.1875C20.4109 14.0624 19.7812 13.4328 19.7812 12.6562C19.7812 11.8795 20.4109 11.2499 21.1875 11.2499H22.5938V9.84375C22.5938 9.06713 23.2234 8.4375 24 8.4375C24.7766 8.4375 25.4062 9.06713 25.4062 9.84375V11.2499H26.8125C27.5891 11.2499 28.2188 11.8795 28.2188 12.6562C28.2188 13.4328 27.5891 14.0624 26.8125 14.0624Z" fill="white"/>
<path d="M45.6562 9.5625C43.0674 9.5625 40.9688 11.6612 40.9688 14.25V21.2353C42.0275 21.8794 42.9291 22.7836 43.5669 23.8884C44.9885 26.3509 44.1419 29.5105 41.6797 30.9321L37.2357 33.4977C36.582 33.8752 35.747 33.6692 35.3438 33.031C34.9171 32.3558 35.1378 31.4613 35.8295 31.062L40.2734 28.4963C41.3944 27.8491 41.7785 26.4158 41.1313 25.2947C39.8369 23.0527 36.9701 22.2846 34.7281 23.579L29.9531 26.3359C27.2063 27.9218 25.5 30.8772 25.5 34.0489V46.5938C25.5 47.3704 26.1296 48 26.9062 48H38.1562C38.9329 48 39.5625 47.3704 39.5625 46.5938V42.7618C39.5625 40.8677 40.4199 39.1146 41.9151 37.9517L43.2383 36.9224C46.2644 34.5689 48 31.0204 48 27.1867V11.9062C48 10.6118 46.9507 9.5625 45.6562 9.5625Z" fill="white"/>
<path d="M18.0468 26.3359L13.2719 23.5791C11.0299 22.2847 8.16309 23.0528 6.86869 25.2948C6.22144 26.4158 6.60553 27.8492 7.72659 28.4964L12.1705 31.0621C12.8622 31.4615 13.0828 32.3559 12.6562 33.0311C12.253 33.6692 11.418 33.8752 10.7643 33.4978L6.32034 30.9322C3.85809 29.5106 3.01153 26.3509 4.43306 23.8885C5.07094 22.7837 5.97253 21.8795 7.03125 21.2354V14.25C7.03125 11.6612 4.93256 9.5625 2.34375 9.5625C1.04934 9.5625 0 10.6118 0 11.9062V27.1867C0 31.0204 1.73559 34.5689 4.76166 36.9225L6.08494 37.9518C7.57997 39.1146 8.43741 40.8678 8.43741 42.7618V46.5938C8.43741 47.3704 9.06703 48 9.84366 48H21.0937C21.8703 48 22.4999 47.3704 22.4999 46.5938V34.0489C22.4999 30.8772 20.7936 27.9217 18.0468 26.3359Z" fill="white"/>
</g>
<defs>
<clipPath id="clip0_2888_5411">
<rect width="48" height="48" fill="white"/>
</clipPath>
</defs>
</svg>
