<svg width="48" height="48" viewBox="0 0 48 48" fill="none" xmlns="http://www.w3.org/2000/svg">
<g clip-path="url(#clip0_2888_5408)">
<path fill-rule="evenodd" clip-rule="evenodd" d="M4.60388 45.2453H2.63644C1.18434 45.2453 0 44.0609 0 42.6088V12.194C0 11.419 0.297094 10.752 0.873281 10.2338L10.1815 1.86075C11.3763 0.786 12.6077 0 14.2146 0C15.7322 0 16.9149 0.701437 18.0481 1.6845C17.0408 2.08106 16.1443 2.72475 15.2823 3.50016L5.97403 11.8733C5.08172 12.6758 4.60397 13.7484 4.60397 14.9486L4.60388 45.2453ZM18.2753 32.045L19.7648 30.9628V44.4854C19.7648 46.4185 21.3464 48.0002 23.2794 48.0002H27.7807V36.3151C27.7807 35.4058 28.5247 34.6618 29.4339 34.6618H32.941C33.8503 34.6618 34.5943 35.4058 34.5943 36.3151V48.0002H39.0955C41.0286 48.0002 42.6102 46.4185 42.6102 44.4854V30.9629L44.0996 32.0451C45.1988 32.8417 46.7357 32.5962 47.5323 31.497C48.3288 30.3978 48.0834 28.8609 46.9842 28.0643L32.6723 17.6662C31.8325 17.0292 30.6429 16.9847 29.7452 17.6352L15.3907 28.0643C14.2915 28.8608 14.0462 30.3978 14.8427 31.497C15.6393 32.5962 17.1761 32.8416 18.2753 32.045ZM34.5329 14.9485C34.5329 14.1736 34.2357 13.5066 33.6596 12.9884L24.3513 4.61531C23.1566 3.54084 21.9252 2.75456 20.3183 2.75456C18.7115 2.75456 17.4801 3.54056 16.2853 4.61531L6.97706 12.9884C6.40097 13.5066 6.10378 14.1736 6.10378 14.9485V45.3635C6.10378 46.8156 7.28812 48 8.74022 48H19.7092C18.8168 47.0937 18.2647 45.8518 18.2647 44.4854V33.7462C16.6285 34.3823 14.7061 33.8648 13.628 32.377C12.3458 30.6077 12.7418 28.1347 14.509 26.8508L28.8635 16.4216C30.2703 15.3995 32.1796 15.4193 33.5649 16.4605L34.5329 17.1637V14.9485ZM18.1872 8.42559C18.1872 7.24866 19.1415 6.29437 20.3184 6.29437C21.4953 6.29437 22.4497 7.24866 22.4497 8.42559C22.4497 9.60253 21.4954 10.5568 20.3184 10.5568C19.1415 10.5568 18.1872 9.60244 18.1872 8.42559Z" fill="white"/>
</g>
<defs>
<clipPath id="clip0_2888_5408">
<rect width="48" height="48" fill="white"/>
</clipPath>
</defs>
</svg>
