<svg width="48" height="48" viewBox="0 0 48 48" fill="none" xmlns="http://www.w3.org/2000/svg">
<g clip-path="url(#clip0_2888_5422)">
<path d="M42.3274 16.4585C42.17 16.4684 42.0132 16.4868 41.8578 16.5137C40.6439 12.7316 38.2606 9.43249 35.0512 7.09194C31.8418 4.75139 27.9722 3.49023 24.0001 3.49023C20.0279 3.49023 16.1583 4.75139 12.9489 7.09194C9.73956 9.43249 7.35618 12.7316 6.14229 16.5137C5.9869 16.4868 5.83016 16.4684 5.67276 16.4585C2.49205 16.4585 0 19.7705 0 23.9995C0 28.2276 2.49205 31.5396 5.67276 31.5396C6.88452 31.5265 8.04479 31.0477 8.91313 30.2024C9.10848 30.0168 9.24179 29.7754 9.29487 29.5112C9.34795 29.247 9.31821 28.9729 9.20971 28.7262C8.06097 26.1236 7.63084 23.2606 7.9641 20.4353C7.98286 20.2689 8.01568 20.1071 8.03954 19.9422C8.106 19.4871 8.18399 19.035 8.28968 18.5914C9.11315 15.0419 11.1143 11.8759 13.9672 9.60911C16.82 7.34235 20.3564 6.10846 24.0001 6.10846C27.6439 6.10846 31.1802 7.34235 34.0331 9.60911C36.8859 11.8759 38.8871 15.0419 39.7106 18.5914C39.8163 19.035 39.8943 19.4871 39.9607 19.9422C39.9846 20.1071 40.0174 20.2689 40.0362 20.4353C40.1069 21.039 40.1434 21.6462 40.1455 22.254C40.1454 22.8071 40.1171 23.3598 40.0607 23.91C40.0403 24.1094 39.9985 24.3021 39.9708 24.4994C39.9227 24.8441 39.8805 25.1901 39.8102 25.5302C39.7706 25.7207 39.7118 25.9035 39.6658 26.0914C39.5814 26.4332 39.5021 26.7762 39.3956 27.1125C39.3406 27.2868 39.2686 27.453 39.2081 27.6247C39.0871 27.9648 38.9678 28.3057 38.8233 28.6394C37.5738 31.5348 35.5047 34.0015 32.8709 35.7357C30.2371 37.4699 27.1535 38.3959 24 38.3996H23.1273C22.3171 38.3996 21.5402 38.7214 20.9674 39.2942C20.3945 39.8671 20.0727 40.644 20.0727 41.4541C20.0727 42.2643 20.3945 43.0412 20.9674 43.614C21.5402 44.1869 22.3171 44.5087 23.1273 44.5087H26.6182C27.1274 44.5104 27.6288 44.3844 28.0767 44.1422C28.5246 43.8999 28.9045 43.5492 29.1818 43.1222C29.4591 42.6951 29.6248 42.2053 29.6638 41.6977C29.7028 41.19 29.6139 40.6806 29.4051 40.2162C34.1596 38.7759 38.153 35.5165 40.5168 31.1471C41.0866 31.4018 41.7032 31.5354 42.3274 31.5396C45.5081 31.5396 48.0001 28.2276 48.0001 23.9995C48.0001 19.7705 45.5081 16.4585 42.3274 16.4585Z" fill="white"/>
<path d="M12.8729 35.3452H23.6243C27.0078 35.3816 30.2788 34.1309 32.7749 31.8464C35.2709 29.5618 36.8056 26.4141 37.0682 23.0406C37.205 20.824 36.7757 18.609 35.8207 16.604C34.8657 14.599 33.4163 12.8698 31.609 11.5792C29.8016 10.2886 27.6957 9.47902 25.4892 9.22651C23.2828 8.974 21.0484 9.28691 18.9962 10.1358C16.944 10.9847 15.1414 12.3417 13.7581 14.0791C12.3748 15.8165 11.4562 17.8773 11.0887 20.0675C10.7212 22.2577 10.9169 24.5054 11.6573 26.5992C12.3978 28.693 13.6587 30.564 15.3214 32.0362L12.4799 34.167C12.3701 34.2495 12.289 34.3644 12.2481 34.4955C12.2072 34.6266 12.2086 34.7673 12.2521 34.8976C12.2955 35.0279 12.3788 35.1412 12.4902 35.2215C12.6017 35.3018 12.7355 35.3451 12.8729 35.3452ZM29.2366 20.5087C29.5818 20.5087 29.9193 20.6111 30.2063 20.8029C30.4933 20.9947 30.7171 21.2673 30.8492 21.5862C30.9813 21.9052 31.0159 22.2561 30.9485 22.5947C30.8812 22.9333 30.7149 23.2443 30.4708 23.4884C30.2267 23.7325 29.9157 23.8988 29.5771 23.9661C29.2385 24.0335 28.8876 23.9989 28.5686 23.8668C28.2497 23.7347 27.9771 23.511 27.7853 23.2239C27.5935 22.9369 27.4911 22.5994 27.4911 22.2542C27.4911 21.7913 27.675 21.3473 28.0023 21.02C28.3297 20.6926 28.7737 20.5087 29.2366 20.5087ZM24.0002 20.5087C24.3454 20.5087 24.6829 20.6111 24.9699 20.8029C25.257 20.9947 25.4807 21.2673 25.6128 21.5862C25.7449 21.9052 25.7795 22.2561 25.7121 22.5947C25.6448 22.9333 25.4785 23.2443 25.2344 23.4884C24.9903 23.7325 24.6793 23.8988 24.3407 23.9661C24.0021 24.0335 23.6512 23.9989 23.3322 23.8668C23.0133 23.7347 22.7407 23.511 22.5489 23.2239C22.3571 22.9369 22.2547 22.5994 22.2547 22.2542C22.2547 21.7913 22.4386 21.3473 22.766 21.02C23.0933 20.6926 23.5373 20.5087 24.0002 20.5087ZM18.7638 20.5087C19.109 20.5087 19.4465 20.6111 19.7335 20.8029C20.0206 20.9947 20.2443 21.2673 20.3764 21.5862C20.5085 21.9052 20.5431 22.2561 20.4757 22.5947C20.4084 22.9333 20.2421 23.2443 19.998 23.4884C19.7539 23.7325 19.4429 23.8988 19.1043 23.9661C18.7657 24.0335 18.4148 23.9989 18.0958 23.8668C17.7769 23.7347 17.5043 23.511 17.3125 23.2239C17.1207 22.9369 17.0183 22.5994 17.0183 22.2542C17.0183 21.7913 17.2022 21.3473 17.5296 21.02C17.8569 20.6926 18.3009 20.5087 18.7638 20.5087Z" fill="white"/>
</g>
<defs>
<clipPath id="clip0_2888_5422">
<rect width="48" height="48" fill="white"/>
</clipPath>
</defs>
</svg>
