<svg width="48" height="48" viewBox="0 0 48 48" fill="none" xmlns="http://www.w3.org/2000/svg">
<path d="M42.633 5.79497C39.3051 5.79497 36.2537 3.84113 34.8591 0.817219C34.6293 0.319031 34.1308 0 33.5822 0H14.4171C13.8684 0 13.3699 0.319031 13.1401 0.817313C11.7454 3.84113 8.69396 5.79497 5.36621 5.79497C4.58959 5.79497 3.95996 6.42459 3.95996 7.20122V22.7741C3.95996 28.6076 9.02584 35.0748 13.2755 39.4728C15.9878 42.2797 18.5045 44.3904 19.7633 45.3988C23.0105 48 23.6056 48 23.9994 48H24.0039C24.3978 48 25.0009 47.9902 28.2358 45.3989C29.4946 44.3906 32.0113 42.2798 34.7236 39.473C38.9733 35.0749 44.0392 28.6077 44.0392 22.7742V7.20122C44.0392 6.42459 43.4096 5.79497 42.633 5.79497ZM20.8276 38.026C19.9595 37.3307 18.224 35.8753 16.3545 33.9403C13.3947 30.8773 9.86659 26.3585 9.86659 22.2252V11.5888C9.86659 10.8122 10.4962 10.1826 11.2728 10.1826C13.3725 10.1826 15.2977 8.94975 16.1776 7.04175C16.4074 6.54356 16.906 6.22444 17.4546 6.22444H30.5446C31.0933 6.22444 31.5917 6.54347 31.8215 7.04175C32.7015 8.94975 34.6267 10.1826 36.7263 10.1826C37.503 10.1826 38.1326 10.8122 38.1326 11.5888V22.2252C38.1326 26.3585 34.6044 30.8773 31.6447 33.9404C29.7751 35.8754 28.0397 37.3308 27.1715 38.0261C24.8437 39.8908 24.394 39.9005 24.0054 39.9005C24.0034 39.9005 24.0014 39.9005 23.9994 39.9005C23.6096 39.9005 23.1676 39.9005 20.8276 38.026Z" fill="white"/>
<path d="M30.0087 31.5806C33.4336 27.9406 35.3198 24.6181 35.3198 22.2254V12.873C32.9955 12.4659 30.934 11.0664 29.7019 9.03711H18.2965C17.0644 11.0664 15.003 12.4659 12.6787 12.873V22.2254C12.6787 24.6181 14.5649 27.9406 17.9898 31.5806C20.455 34.2005 22.946 36.1714 23.9992 36.8936C25.0523 36.1714 27.5435 34.2006 30.0087 31.5806ZM22.4469 29.4186V29.0327C21.6173 28.9217 20.9077 28.649 19.9639 28.0315C19.314 27.6064 19.1318 26.7348 19.557 26.0848C19.9821 25.4348 20.8536 25.2526 21.5037 25.6778C22.369 26.244 22.6991 26.2964 23.8438 26.288C24.9331 26.2808 25.5653 25.469 25.6916 24.7176C25.767 24.2697 25.7357 23.4625 24.6805 23.0896C23.3141 22.6067 21.9146 22.0538 20.9361 21.2864C19.9417 20.5065 19.4857 19.1624 19.7465 17.7787C20.0268 16.2914 21.0605 15.1059 22.4471 14.6769V14.2448C22.4471 13.4682 23.0767 12.8386 23.8533 12.8386C24.63 12.8386 25.2596 13.4682 25.2596 14.2448V14.59C26.1331 14.8116 26.7436 15.2123 26.9952 15.4005C27.6171 15.8656 27.7442 16.7468 27.2791 17.3689C26.8141 17.9907 25.9327 18.1179 25.3108 17.6528C25.0521 17.4594 24.337 17.0438 23.2855 17.3605C22.6971 17.5378 22.5435 18.1241 22.5104 18.2995C22.4477 18.6315 22.5142 18.9498 22.6719 19.0734C23.333 19.592 24.5321 20.0541 25.6179 20.438C27.6759 21.1655 28.8202 23.0727 28.4653 25.184C28.2031 26.7439 27.0548 28.3244 25.2596 28.8861V29.4187C25.2596 30.1954 24.63 30.825 23.8533 30.825C23.0767 30.825 22.4469 30.1953 22.4469 29.4186Z" fill="white"/>
</svg>
