<svg width="48" height="48" viewBox="0 0 48 48" fill="none" xmlns="http://www.w3.org/2000/svg">
<path d="M45 15.6751V16.7851H3V15.6751C3 11.7601 6.18 8.58008 10.095 8.58008H37.905C41.82 8.58008 45 11.7601 45 15.6751Z" fill="white"/>
<path d="M3 19.0352V32.3252C3 36.2402 6.18 39.4202 10.095 39.4202H37.905C41.82 39.4202 45 36.2402 45 32.3252V19.0352H3ZM9.546 25.0187H13.5645C14.31 25.0187 14.9145 25.6232 14.9145 26.3687C14.9145 27.1142 14.31 27.7187 13.5645 27.7187H9.546C8.8005 27.7187 8.196 27.1142 8.196 26.3687C8.196 25.6232 8.8005 25.0187 9.546 25.0187ZM17.778 33.4232H9.546C8.8005 33.4232 8.196 32.8187 8.196 32.0732C8.196 31.3277 8.8005 30.7232 9.546 30.7232H17.7765C18.522 30.7232 19.1265 31.3277 19.1265 32.0732C19.1265 32.8187 18.5235 33.4232 17.778 33.4232Z" fill="white"/>
</svg>
