<svg preserveAspectRatio="none" width="100%" height="100%" overflow="visible" style="display: block;" viewBox="0 0 47.9999 48" fill="none" xmlns="http://www.w3.org/2000/svg">
<g id="Group">
<path id="Vector" d="M38.5312 8.5065C38.5312 6.23438 37.6463 4.09819 36.0397 2.4915C34.433 0.884812 32.2968 0 30.0247 0C27.7525 0 25.6164 0.884812 24.0098 2.4915L23.9999 2.50125L23.9902 2.4915C22.3835 0.884812 20.2474 0 17.9752 0C15.7029 0 13.5668 0.884812 11.9602 2.4915C10.3535 4.09819 9.46866 6.23438 9.46866 8.5065C9.46866 10.7786 10.3535 12.9148 11.9602 14.5215L23.0055 25.5669C23.2691 25.8307 23.6269 25.9789 23.9998 25.9789C24.3727 25.9789 24.7305 25.8307 24.9941 25.5669L36.0395 14.5216C37.6463 12.9148 38.5312 10.7786 38.5312 8.5065ZM26.8124 14.0624H25.4062V15.4688C25.4062 16.2454 24.7765 16.875 23.9999 16.875C23.2233 16.875 22.5937 16.2454 22.5937 15.4688V14.0624H21.1874C20.4108 14.0624 19.7812 13.4328 19.7812 12.6562C19.7812 11.8795 20.4108 11.2499 21.1874 11.2499H22.5937V9.84375C22.5937 9.06712 23.2233 8.4375 23.9999 8.4375C24.7765 8.4375 25.4062 9.06712 25.4062 9.84375V11.2499H26.8124C27.589 11.2499 28.2187 11.8795 28.2187 12.6562C28.2187 13.4328 27.589 14.0624 26.8124 14.0624Z" fill="var(--fill-0, white)"/>
<path id="Vector_2" d="M45.6562 9.5625C43.0673 9.5625 40.9687 11.6612 40.9687 14.25V21.2353C42.0274 21.8794 42.929 22.7836 43.5668 23.8884C44.9884 26.3509 44.1418 29.5105 41.6796 30.9321L37.2356 33.4977C36.5819 33.8752 35.7469 33.6692 35.3437 33.031C34.917 32.3558 35.1377 31.4613 35.8294 31.062L40.2733 28.4963C41.3943 27.8491 41.7784 26.4157 41.1312 25.2947C39.8368 23.0527 36.97 22.2846 34.728 23.579L29.953 26.3359C27.2062 27.9218 25.4999 30.8772 25.4999 34.0489V46.5938C25.4999 47.3704 26.1295 48 26.9062 48H38.1562C38.9328 48 39.5624 47.3704 39.5624 46.5938V42.7618C39.5624 40.8677 40.4198 39.1146 41.915 37.9517L43.2383 36.9224C46.2643 34.5689 47.9999 31.0204 47.9999 27.1867V11.9062C47.9999 10.6118 46.9506 9.5625 45.6562 9.5625Z" fill="var(--fill-0, white)"/>
<path id="Vector_3" d="M18.0468 26.3359L13.2719 23.5791C11.0299 22.2847 8.16309 23.0528 6.86869 25.2948C6.22144 26.4158 6.60553 27.8492 7.72659 28.4964L12.1705 31.0621C12.8622 31.4615 13.0828 32.3559 12.6562 33.0311C12.253 33.6692 11.418 33.8752 10.7643 33.4978L6.32034 30.9322C3.85809 29.5106 3.01153 26.3509 4.43306 23.8885C5.07094 22.7837 5.97253 21.8795 7.03125 21.2354V14.25C7.03125 11.6612 4.93256 9.5625 2.34375 9.5625C1.04934 9.5625 0 10.6118 0 11.9062V27.1867C0 31.0204 1.73559 34.5689 4.76166 36.9225L6.08494 37.9518C7.57997 39.1146 8.43741 40.8678 8.43741 42.7618V46.5938C8.43741 47.3704 9.06703 48 9.84366 48H21.0937C21.8703 48 22.4999 47.3704 22.4999 46.5938V34.0489C22.4999 30.8772 20.7936 27.9217 18.0468 26.3359Z" fill="var(--fill-0, white)"/>
</g>
</svg>
