<svg width="48" height="48" viewBox="0 0 48 48" fill="none" xmlns="http://www.w3.org/2000/svg">
<path d="M30.2 16.422L19 27.622V21.7H17V31H26.3V29H20.426L31.576 17.85L30.2 16.422ZM23.994 6C26.482 6 28.822 6.472 31.014 7.416C33.2047 8.36133 35.1107 9.644 36.732 11.264C38.3533 12.884 39.6367 14.788 40.582 16.976C41.5273 19.164 42 21.5033 42 23.994C42 26.4847 41.5273 28.8247 40.582 31.014C39.638 33.2047 38.3573 35.1107 36.74 36.732C35.1227 38.3533 33.218 39.6367 31.026 40.582C28.834 41.5273 26.494 42 24.006 42C21.518 42 19.178 41.5273 16.986 40.582C14.7953 39.638 12.8893 38.3567 11.268 36.738C9.64667 35.1193 8.36333 33.2147 7.418 31.024C6.47267 28.8333 6 26.494 6 24.006C6 21.518 6.472 19.178 7.416 16.986C8.36 14.794 9.64267 12.888 11.264 11.268C12.8853 9.648 14.7893 8.36467 16.976 7.418C19.1627 6.47133 21.502 5.99866 23.994 6Z" fill="white"/>
</svg>
