<svg preserveAspectRatio="none" width="100%" height="100%" overflow="visible" style="display: block;" viewBox="0 0 48 48" fill="none" xmlns="http://www.w3.org/2000/svg">
<g id="bi:phone-fill">
<path id="Vector" d="M9 6C9 4.4087 9.63214 2.88258 10.7574 1.75736C11.8826 0.632141 13.4087 0 15 0L33 0C34.5913 0 36.1174 0.632141 37.2426 1.75736C38.3679 2.88258 39 4.4087 39 6V42C39 43.5913 38.3679 45.1174 37.2426 46.2426C36.1174 47.3679 34.5913 48 33 48H15C13.4087 48 11.8826 47.3679 10.7574 46.2426C9.63214 45.1174 9 43.5913 9 42V6ZM27 39C27 38.2044 26.6839 37.4413 26.1213 36.8787C25.5587 36.3161 24.7956 36 24 36C23.2044 36 22.4413 36.3161 21.8787 36.8787C21.3161 37.4413 21 38.2044 21 39C21 39.7956 21.3161 40.5587 21.8787 41.1213C22.4413 41.6839 23.2044 42 24 42C24.7956 42 25.5587 41.6839 26.1213 41.1213C26.6839 40.5587 27 39.7956 27 39Z" fill="var(--fill-0, white)"/>
</g>
</svg>
