<svg preserveAspectRatio="none" width="100%" height="100%" overflow="visible" style="display: block;" viewBox="0 0 48 48" fill="none" xmlns="http://www.w3.org/2000/svg">
<g id="material-symbols-light:outbound">
<path id="Vector" d="M17.8 31.578L29 20.378V26.3H31V17H21.7V19H27.574L16.424 30.15L17.8 31.578ZM24.006 42C21.518 42 19.178 41.528 16.986 40.584C14.7953 39.6387 12.8893 38.356 11.268 36.736C9.64667 35.116 8.36333 33.212 7.418 31.024C6.47267 28.836 6 26.4967 6 24.006C6 21.5153 6.47267 19.1753 7.418 16.986C8.362 14.7953 9.64267 12.8893 11.26 11.268C12.8773 9.64667 14.782 8.36333 16.974 7.418C19.166 6.47267 21.506 6 23.994 6C26.482 6 28.822 6.47267 31.014 7.418C33.2047 8.362 35.1107 9.64333 36.732 11.262C38.3533 12.8807 39.6367 14.7853 40.582 16.976C41.5273 19.1667 42 21.506 42 23.994C42 26.482 41.528 28.822 40.584 31.014C39.64 33.206 38.3573 35.112 36.736 36.732C35.1147 38.352 33.2107 39.6353 31.024 40.582C28.8373 41.5287 26.498 42.0013 24.006 42Z" fill="var(--fill-0, white)"/>
</g>
</svg>
