<svg preserveAspectRatio="none" width="100%" height="100%" overflow="visible" style="display: block;" viewBox="0 0 21.9318 21.9318" fill="none" xmlns="http://www.w3.org/2000/svg">
<g id="fluent:checkmark-circle-12-filled">
<path id="Vector" d="M1.82782 10.9659C1.82782 8.54226 2.7906 6.21791 4.50435 4.50415C6.21811 2.79039 8.54246 1.82762 10.9661 1.82762C13.3897 1.82762 15.7141 2.79039 17.4278 4.50415C19.1416 6.21791 20.1043 8.54226 20.1043 10.9659C20.1043 13.3895 19.1416 15.7139 17.4278 17.4276C15.7141 19.1414 13.3897 20.1041 10.9661 20.1041C8.54246 20.1041 6.21811 19.1414 4.50435 17.4276C2.7906 15.7139 1.82782 13.3895 1.82782 10.9659ZM15.2684 9.3283C15.3533 9.24334 15.4207 9.14247 15.4667 9.03146C15.5127 8.92045 15.5364 8.80147 15.5364 8.68131C15.5364 8.56116 15.5127 8.44218 15.4667 8.33117C15.4207 8.22016 15.3533 8.11929 15.2684 8.03432C15.1834 7.94936 15.0825 7.88196 14.9715 7.83598C14.8605 7.79 14.7415 7.76633 14.6214 7.76633C14.5012 7.76633 14.3822 7.79 14.2712 7.83598C14.1602 7.88196 14.0594 7.94936 13.9744 8.03432L10.0523 11.9583L7.95777 9.86198C7.8728 9.77701 7.77194 9.70962 7.66093 9.66363C7.54991 9.61765 7.43093 9.59399 7.31078 9.59399C7.19062 9.59399 7.07164 9.61765 6.96063 9.66363C6.84962 9.70962 6.74875 9.77701 6.66379 9.86198C6.57882 9.94694 6.51143 10.0478 6.46545 10.1588C6.41946 10.2698 6.3958 10.3888 6.3958 10.509C6.3958 10.6291 6.41946 10.7481 6.46545 10.8591C6.51143 10.9701 6.57882 11.071 6.66379 11.156L9.40527 13.8974C9.49015 13.9825 9.591 14.0501 9.70202 14.0961C9.81304 14.1422 9.93206 14.1659 10.0523 14.1659C10.1725 14.1659 10.2915 14.1422 10.4025 14.0961C10.5135 14.0501 10.6144 13.9825 10.6992 13.8974L15.2684 9.3283Z" fill="var(--fill-0, #28BC62)"/>
</g>
</svg>
