<svg preserveAspectRatio="none" width="100%" height="100%" overflow="visible" style="display: block;" viewBox="0 0 21.9318 21.9318" fill="none" xmlns="http://www.w3.org/2000/svg">
<g id="fluent:checkmark-circle-12-filled">
<path id="Vector" d="M1.82772 10.9659C1.82772 8.54228 2.7905 6.21793 4.50425 4.50417C6.21801 2.79041 8.54236 1.82763 10.966 1.82763C13.3896 1.82763 15.714 2.79041 17.4277 4.50417C19.1415 6.21793 20.1042 8.54228 20.1042 10.9659C20.1042 13.3895 19.1415 15.7139 17.4277 17.4276C15.714 19.1414 13.3896 20.1042 10.966 20.1042C8.54236 20.1042 6.21801 19.1414 4.50425 17.4276C2.7905 15.7139 1.82772 13.3895 1.82772 10.9659ZM15.2683 9.32832C15.3532 9.24336 15.4206 9.14249 15.4666 9.03148C15.5126 8.92047 15.5363 8.80149 15.5363 8.68133C15.5363 8.56117 15.5126 8.44219 15.4666 8.33118C15.4206 8.22017 15.3532 8.11931 15.2683 8.03434C15.1833 7.94938 15.0824 7.88198 14.9714 7.836C14.8604 7.79002 14.7414 7.76635 14.6213 7.76635C14.5011 7.76635 14.3821 7.79002 14.2711 7.836C14.1601 7.88198 14.0593 7.94938 13.9743 8.03434L10.0522 11.9583L7.95767 9.86199C7.8727 9.77703 7.77184 9.70963 7.66082 9.66365C7.54981 9.61767 7.43083 9.594 7.31068 9.594C7.19052 9.594 7.07154 9.61767 6.96053 9.66365C6.84952 9.70963 6.74865 9.77703 6.66369 9.86199C6.57872 9.94696 6.51133 10.0478 6.46534 10.1588C6.41936 10.2698 6.3957 10.3888 6.3957 10.509C6.3957 10.6291 6.41936 10.7481 6.46534 10.8591C6.51133 10.9701 6.57872 11.071 6.66369 11.156L9.40517 13.8975C9.49005 13.9826 9.59089 14.0501 9.70192 14.0961C9.81294 14.1422 9.93196 14.1659 10.0522 14.1659C10.1724 14.1659 10.2914 14.1422 10.4024 14.0961C10.5134 14.0501 10.6143 13.9826 10.6991 13.8975L15.2683 9.32832Z" fill="var(--fill-0, #28BC62)"/>
</g>
</svg>
