<svg width="80" height="80" viewBox="0 0 80 80" fill="none" xmlns="http://www.w3.org/2000/svg">
<rect width="80" height="80" rx="40" fill="#4268FF"/>
<g clip-path="url(#clip0_2328_8341)">
<path d="M42 24H30.32C28.06 24 25.86 25.12 24.76 27.08C24.0941 28.2637 23.854 29.6398 24.0796 30.9791C24.3053 32.3183 24.983 33.5398 26 34.44V40.58C26 41.48 27.08 41.92 27.7 41.28L33 36H41.76C44.66 36 47.32 34.04 47.88 31.2C48.62 27.36 45.7 24 42 24ZM50 38H38.24C35.34 38 32.66 39.96 32.12 42.8C31.9435 43.6717 31.9628 44.5717 32.1764 45.435C32.39 46.2983 32.7926 47.1034 33.3551 47.7923C33.9177 48.4811 34.6261 49.0365 35.4294 49.4182C36.2326 49.8 37.1106 49.9987 38 50H47L52.3 55.3C52.4397 55.437 52.6167 55.53 52.8088 55.5675C53.0009 55.6049 53.1998 55.5852 53.3808 55.5106C53.5618 55.4361 53.717 55.3101 53.827 55.1482C53.9371 54.9863 53.9972 54.7957 54 54.6V48.46C55.26 47.34 56 45.72 56 44.02C56 42.4269 55.3685 40.8987 54.2438 39.7703C53.1192 38.6419 51.5931 38.0053 50 38Z" fill="white"/>
</g>
<defs>
<clipPath id="clip0_2328_8341">
<rect width="32" height="32" fill="white" transform="translate(24 24)"/>
</clipPath>
</defs>
</svg>
