<svg width="80" height="80" viewBox="0 0 80 80" fill="none" xmlns="http://www.w3.org/2000/svg">
<rect width="80" height="80" rx="40" fill="#4268FF"/>
<path d="M35 40C35 38.607 35.078 37.266 35.222 36H44.778C44.922 37.266 45 38.607 45 40C45 41.393 44.922 42.734 44.778 44H35.222C35.0738 42.6718 34.9997 41.3364 35 40ZM33.21 44C33.0697 42.6713 32.9996 41.3361 33 40C33 38.621 33.073 37.28 33.21 36H26.58C26.1942 37.2983 25.9988 38.6456 26 40C26 41.39 26.203 42.733 26.58 44H33.21ZM27.347 46H33.485C33.799 47.86 34.256 49.547 34.829 50.978C35.198 51.9 35.622 52.736 36.101 53.45C34.1988 52.8961 32.4354 51.946 30.9266 50.6619C29.4179 49.3779 28.1979 47.7891 27.347 46ZM35.515 46H44.485C44.195 47.6 43.795 49.032 43.315 50.235C42.799 51.523 42.211 52.497 41.609 53.135C41.009 53.769 40.465 54 40 54C39.535 54 38.991 53.769 38.391 53.134C37.789 52.497 37.201 51.523 36.686 50.235C36.205 49.032 35.805 47.599 35.515 46ZM46.515 46C46.201 47.86 45.744 49.547 45.171 50.978C44.802 51.9 44.378 52.736 43.899 53.45C45.8012 52.8961 47.5646 51.946 49.0734 50.6619C50.5822 49.3779 51.8021 47.7891 52.653 46H46.515ZM53.42 44C53.797 42.733 54 41.39 54 40C54 38.61 53.797 37.267 53.42 36H46.79C46.927 37.28 47 38.621 47 40C47 41.379 46.927 42.72 46.79 44H53.42ZM43.314 29.765C43.795 30.968 44.195 32.401 44.485 34H35.515C35.805 32.4 36.205 30.968 36.685 29.765C37.201 28.477 37.789 27.502 38.391 26.865C38.989 26.234 39.531 26.002 39.995 26H40.003C40.467 26 41.01 26.233 41.609 26.866C42.211 27.502 42.799 28.477 43.314 29.765ZM46.515 34H52.653C51.8021 32.2109 50.5822 30.6221 49.0734 29.338C47.5646 28.054 45.8012 27.1039 43.899 26.55C44.378 27.264 44.802 28.1 45.171 29.022C45.744 30.453 46.201 32.14 46.515 34ZM27.347 34H33.485C33.799 32.14 34.256 30.453 34.829 29.022C35.198 28.1 35.622 27.264 36.101 26.55C34.1988 27.1039 32.4354 28.054 30.9266 29.338C29.4179 30.6221 28.1979 32.2109 27.347 34Z" fill="white"/>
</svg>
