<svg width="80" height="80" viewBox="0 0 80 80" fill="none" xmlns="http://www.w3.org/2000/svg">
<rect width="80" height="80" rx="40" fill="#4268FF"/>
<path d="M40.0002 45.3333C37.7868 45.3333 36.0002 43.5467 36.0002 41.3333C36.0002 39.84 36.8135 38.5333 38.0002 37.8533L50.9468 30.36L43.5735 43.1333C42.9068 44.44 41.5602 45.3333 40.0002 45.3333ZM40.0002 28C42.4135 28 44.6668 28.6667 46.6268 29.76L43.8268 31.3733C42.6668 30.92 41.3335 30.6667 40.0002 30.6667C34.1068 30.6667 29.3335 35.44 29.3335 41.3333C29.3335 44.28 30.5202 46.9467 32.4535 48.8667H32.4668C32.5904 48.99 32.6885 49.1365 32.7554 49.2978C32.8223 49.4591 32.8568 49.632 32.8568 49.8067C32.8568 49.9813 32.8223 50.1542 32.7554 50.3155C32.6885 50.4768 32.5904 50.6233 32.4668 50.7467C31.9468 51.2667 31.0935 51.2667 30.5735 50.76C29.3335 49.5235 28.3501 48.0542 27.6796 46.4364C27.0092 44.8187 26.665 43.0845 26.6668 41.3333C26.6668 34 32.6668 28 40.0002 28ZM53.3335 41.3333C53.3335 45.0133 51.8402 48.3467 49.4268 50.76C48.9068 51.2667 48.0668 51.2667 47.5468 50.7467C47.4232 50.6233 47.3252 50.4768 47.2583 50.3155C47.1913 50.1542 47.1569 49.9813 47.1569 49.8067C47.1569 49.632 47.1913 49.4591 47.2583 49.2978C47.3252 49.1365 47.4232 48.99 47.5468 48.8667C48.5384 47.8791 49.3247 46.705 49.8602 45.412C50.3957 44.119 50.6698 42.7328 50.6668 41.3333C50.6668 40 50.4135 38.6667 49.9468 37.4667L51.5602 34.6667C52.6668 36.6667 53.3335 38.9067 53.3335 41.3333Z" fill="white"/>
</svg>
