<svg width="80" height="80" viewBox="0 0 80 80" fill="none" xmlns="http://www.w3.org/2000/svg">
<rect width="80" height="80" rx="40" fill="#4268FF"/>
<path d="M52.8 32.8C52.8 34.7095 52.0414 36.5409 50.6912 37.8911C49.3409 39.2414 47.5096 40 45.6 40C43.6904 40 41.8591 39.2414 40.5088 37.8911C39.1586 36.5409 38.4 34.7095 38.4 32.8C38.4 30.8904 39.1586 29.0591 40.5088 27.7088C41.8591 26.3585 43.6904 25.6 45.6 25.6C47.5096 25.6 49.3409 26.3585 50.6912 27.7088C52.0414 29.0591 52.8 30.8904 52.8 32.8ZM49.3664 29.8336C49.2921 29.7591 49.2038 29.7 49.1066 29.6596C49.0094 29.6193 48.9052 29.5985 48.8 29.5985C48.6948 29.5985 48.5906 29.6193 48.4934 29.6596C48.3962 29.7 48.3079 29.7591 48.2336 29.8336L44 34.0688L42.9664 33.0336C42.892 32.9592 42.8037 32.9002 42.7065 32.8599C42.6094 32.8197 42.5052 32.799 42.4 32.799C42.2948 32.799 42.1906 32.8197 42.0935 32.8599C41.9963 32.9002 41.908 32.9592 41.8336 33.0336C41.7592 33.108 41.7002 33.1963 41.66 33.2934C41.6197 33.3906 41.599 33.4948 41.599 33.6C41.599 33.7052 41.6197 33.8093 41.66 33.9065C41.7002 34.0037 41.7592 34.092 41.8336 34.1664L43.4336 35.7664C43.5079 35.8409 43.5962 35.9 43.6934 35.9403C43.7906 35.9806 43.8948 36.0014 44 36.0014C44.1052 36.0014 44.2094 35.9806 44.3066 35.9403C44.4038 35.9 44.4921 35.8409 44.5664 35.7664L49.3664 30.9664C49.4409 30.8921 49.5 30.8038 49.5403 30.7066C49.5807 30.6094 49.6014 30.5052 49.6014 30.4C49.6014 30.2947 49.5807 30.1906 49.5403 30.0934C49.5 29.9962 49.4409 29.9079 49.3664 29.8336ZM34.4 27.2H38.8112C37.6162 28.6471 36.9151 30.4383 36.8104 32.3121C36.7056 34.1859 37.2027 36.0442 38.2289 37.6154C39.2552 39.1867 40.7569 40.3887 42.5148 41.046C44.2727 41.7033 46.1946 41.7813 48 41.2688V50.4C48 51.0365 47.7471 51.6469 47.2971 52.097C46.847 52.5471 46.2365 52.8 45.6 52.8H34.4C33.7635 52.8 33.153 52.5471 32.7029 52.097C32.2529 51.6469 32 51.0365 32 50.4V29.6C32 28.9635 32.2529 28.353 32.7029 27.9029C33.153 27.4528 33.7635 27.2 34.4 27.2ZM36.8 47.2C36.8 47.4122 36.8843 47.6156 37.0343 47.7657C37.1843 47.9157 37.3878 48 37.6 48H42.4C42.6122 48 42.8157 47.9157 42.9657 47.7657C43.1157 47.6156 43.2 47.4122 43.2 47.2C43.2 46.9878 43.1157 46.7843 42.9657 46.6343C42.8157 46.4843 42.6122 46.4 42.4 46.4H37.6C37.3878 46.4 37.1843 46.4843 37.0343 46.6343C36.8843 46.7843 36.8 46.9878 36.8 47.2Z" fill="white"/>
</svg>
