<svg width="80" height="80" viewBox="0 0 80 80" fill="none" xmlns="http://www.w3.org/2000/svg">
<rect width="80" height="80" rx="40" fill="#4268FF"/>
<path d="M49.9998 30.3773V34.228L53.3332 36.152V43.8493L49.9985 45.7747L49.9998 49.624L43.3332 53.4733L39.9998 51.5467L36.6665 53.472L29.9998 49.6227V45.7733L26.6665 43.8507L26.6678 36.1507L29.9998 34.2267V30.3787L36.6665 26.5293L39.9985 28.4547L43.3345 26.528L49.9998 30.3773ZM43.6465 41.5467C43.6215 41.484 43.5783 41.4303 43.5224 41.3924C43.4666 41.3546 43.4006 41.3343 43.3332 41.3343C43.2657 41.3343 43.1998 41.3546 43.1439 41.3924C43.0881 41.4303 43.0448 41.484 43.0198 41.5467L42.8505 41.9533C42.568 42.6435 42.0309 43.1987 41.3505 43.504L40.8718 43.7174C40.811 43.7458 40.7596 43.7911 40.7235 43.8477C40.6875 43.9044 40.6683 43.9702 40.6683 44.0373C40.6683 44.1045 40.6875 44.1703 40.7235 44.227C40.7596 44.2836 40.811 44.3289 40.8718 44.3573L41.3785 44.584C42.0372 44.8773 42.5652 45.4107 42.8585 46.0827L43.0225 46.46C43.1425 46.736 43.5238 46.736 43.6438 46.46L43.8078 46.084C44.0962 45.4165 44.6242 44.8813 45.2878 44.584L45.7945 44.3573C45.8553 44.3289 45.9068 44.2836 45.9428 44.227C45.9789 44.1703 45.998 44.1045 45.998 44.0373C45.998 43.9702 45.9789 43.9044 45.9428 43.8477C45.9068 43.7911 45.8553 43.7458 45.7945 43.7174L45.3158 43.504C44.6349 43.199 44.0974 42.6438 43.8145 41.9533L43.6465 41.5467ZM37.8825 34.3733C37.8385 34.2637 37.7626 34.1697 37.6647 34.1036C37.5668 34.0374 37.4513 34.002 37.3332 34.002C37.215 34.002 37.0995 34.0374 37.0016 34.1036C36.9037 34.1697 36.8279 34.2637 36.7838 34.3733L36.4878 35.0853C35.9932 36.2937 35.0534 37.266 33.8625 37.8013L33.0265 38.1733C32.919 38.2228 32.828 38.302 32.7642 38.4016C32.7004 38.5012 32.6665 38.6171 32.6665 38.7353C32.6665 38.8536 32.7004 38.9695 32.7642 39.0691C32.828 39.1687 32.919 39.2479 33.0265 39.2973L33.9132 39.6907C35.0736 40.2123 35.9968 41.1493 36.5012 42.3173L36.7892 42.976C36.8339 43.0834 36.9095 43.1752 37.0063 43.2397C37.1031 43.3042 37.2168 43.3387 37.3332 43.3387C37.4495 43.3387 37.5633 43.3042 37.6601 43.2397C37.7569 43.1752 37.8324 43.0834 37.8772 42.976L38.1652 42.316C38.6695 41.148 39.5927 40.2109 40.7532 39.6893L41.6398 39.2973C41.7473 39.2479 41.8383 39.1687 41.9021 39.0691C41.9659 38.9695 41.9998 38.8536 41.9998 38.7353C41.9998 38.6171 41.9659 38.5012 41.9021 38.4016C41.8383 38.302 41.7473 38.2228 41.6398 38.1733L40.8025 37.8C39.6114 37.2653 38.6711 36.2935 38.1758 35.0853L37.8825 34.3733Z" fill="white"/>
</svg>
