<svg width="427" height="201" viewBox="0 0 427 201" fill="none" xmlns="http://www.w3.org/2000/svg">
<rect width="427" height="201" rx="22.0629" fill="white"/>
<rect x="0.459644" y="0.459644" width="426.081" height="200.081" rx="21.6033" stroke="#0C1021" stroke-opacity="0.05" stroke-width="0.919289"/>
<path d="M30.936 49L24.84 32.2H27.48L32.496 46.036L37.536 32.2H40.176L34.08 49H30.936ZM46.0013 49.312C44.8973 49.312 43.8893 49.028 42.9773 48.46C42.0733 47.892 41.3493 47.132 40.8053 46.18C40.2693 45.22 40.0013 44.16 40.0013 43C40.0013 42.12 40.1573 41.3 40.4693 40.54C40.7813 39.772 41.2093 39.1 41.7533 38.524C42.3053 37.94 42.9453 37.484 43.6733 37.156C44.4013 36.828 45.1773 36.664 46.0013 36.664C46.9213 36.664 47.7653 36.856 48.5333 37.24C49.3013 37.616 49.9573 38.14 50.5013 38.812C51.0453 39.476 51.4453 40.244 51.7013 41.116C51.9573 41.98 52.0333 42.9 51.9293 43.876H42.6773C42.7813 44.428 42.9813 44.928 43.2773 45.376C43.5813 45.816 43.9653 46.164 44.4293 46.42C44.9013 46.676 45.4253 46.808 46.0013 46.816C46.6093 46.816 47.1613 46.664 47.6573 46.36C48.1613 46.056 48.5733 45.636 48.8933 45.1L51.4253 45.688C50.9453 46.752 50.2213 47.624 49.2533 48.304C48.2853 48.976 47.2013 49.312 46.0013 49.312ZM42.5933 41.968H49.4093C49.3293 41.392 49.1253 40.872 48.7973 40.408C48.4773 39.936 48.0733 39.564 47.5853 39.292C47.1053 39.012 46.5773 38.872 46.0013 38.872C45.4333 38.872 44.9053 39.008 44.4173 39.28C43.9373 39.552 43.5373 39.924 43.2173 40.396C42.9053 40.86 42.6973 41.384 42.5933 41.968ZM53.9166 49V37H56.4126V38.272C56.8286 37.776 57.3406 37.384 57.9486 37.096C58.5566 36.808 59.2126 36.664 59.9166 36.664C60.3646 36.664 60.8086 36.724 61.2486 36.844L60.2526 39.364C59.9406 39.244 59.6286 39.184 59.3166 39.184C58.7886 39.184 58.3046 39.316 57.8646 39.58C57.4246 39.836 57.0726 40.184 56.8086 40.624C56.5446 41.064 56.4126 41.552 56.4126 42.088V49H53.9166ZM62.6588 37H65.1548V49H62.6588V37ZM63.9308 35.26C63.5468 35.26 63.2268 35.136 62.9708 34.888C62.7148 34.64 62.5868 34.328 62.5868 33.952C62.5868 33.584 62.7148 33.276 62.9708 33.028C63.2268 32.772 63.5428 32.644 63.9188 32.644C64.2868 32.644 64.5988 32.772 64.8548 33.028C65.1108 33.276 65.2388 33.584 65.2388 33.952C65.2388 34.328 65.1108 34.64 64.8548 34.888C64.6068 35.136 64.2988 35.26 63.9308 35.26ZM71.1099 34.276V37H74.4939V39.496H71.1099V49H68.6139V39.496H67.1859V37H68.6139V34.276C68.6139 33.62 68.7739 33.024 69.0939 32.488C69.4139 31.944 69.8419 31.512 70.3779 31.192C70.9219 30.872 71.5259 30.712 72.1899 30.712C72.6699 30.712 73.1379 30.808 73.5939 31C74.0499 31.192 74.4579 31.488 74.8179 31.888L73.0299 33.652C72.9419 33.508 72.8179 33.4 72.6579 33.328C72.5059 33.248 72.3499 33.208 72.1899 33.208C71.8939 33.208 71.6379 33.312 71.4219 33.52C71.2139 33.728 71.1099 33.98 71.1099 34.276ZM76.3463 37H78.8423V49H76.3463V37ZM77.6183 35.26C77.2343 35.26 76.9143 35.136 76.6583 34.888C76.4023 34.64 76.2743 34.328 76.2743 33.952C76.2743 33.584 76.4023 33.276 76.6583 33.028C76.9143 32.772 77.2303 32.644 77.6063 32.644C77.9743 32.644 78.2863 32.772 78.5423 33.028C78.7983 33.276 78.9263 33.584 78.9263 33.952C78.9263 34.328 78.7983 34.64 78.5423 34.888C78.2943 35.136 77.9863 35.26 77.6183 35.26ZM89.3385 45.592L91.5705 46.804C91.0265 47.564 90.3345 48.172 89.4945 48.628C88.6625 49.084 87.7585 49.312 86.7825 49.312C85.6785 49.312 84.6705 49.028 83.7585 48.46C82.8545 47.892 82.1305 47.132 81.5865 46.18C81.0505 45.22 80.7825 44.16 80.7825 43C80.7825 42.12 80.9385 41.3 81.2505 40.54C81.5625 39.772 81.9905 39.1 82.5345 38.524C83.0865 37.94 83.7265 37.484 84.4545 37.156C85.1825 36.828 85.9585 36.664 86.7825 36.664C87.7585 36.664 88.6625 36.892 89.4945 37.348C90.3345 37.804 91.0265 38.416 91.5705 39.184L89.3385 40.396C89.0025 39.996 88.6105 39.692 88.1625 39.484C87.7145 39.268 87.2545 39.16 86.7825 39.16C86.1265 39.16 85.5305 39.34 84.9945 39.7C84.4665 40.052 84.0465 40.52 83.7345 41.104C83.4305 41.68 83.2785 42.312 83.2785 43C83.2785 43.68 83.4345 44.312 83.7465 44.896C84.0585 45.472 84.4785 45.936 85.0065 46.288C85.5425 46.64 86.1345 46.816 86.7825 46.816C87.2785 46.816 87.7505 46.704 88.1985 46.48C88.6465 46.256 89.0265 45.96 89.3385 45.592ZM102.792 37H105.288V49H102.78L102.684 47.26C102.332 47.876 101.856 48.372 101.256 48.748C100.656 49.124 99.9476 49.312 99.1316 49.312C98.2516 49.312 97.4236 49.148 96.6476 48.82C95.8716 48.484 95.1876 48.02 94.5956 47.428C94.0116 46.836 93.5556 46.156 93.2276 45.388C92.8996 44.612 92.7356 43.78 92.7356 42.892C92.7356 42.036 92.8956 41.232 93.2156 40.48C93.5356 39.72 93.9796 39.056 94.5476 38.488C95.1156 37.92 95.7716 37.476 96.5156 37.156C97.2676 36.828 98.0716 36.664 98.9276 36.664C99.7996 36.664 100.568 36.864 101.232 37.264C101.904 37.656 102.46 38.16 102.9 38.776L102.792 37ZM99.0716 46.9C99.7756 46.9 100.392 46.728 100.92 46.384C101.448 46.032 101.856 45.56 102.144 44.968C102.44 44.376 102.588 43.72 102.588 43C102.588 42.272 102.44 41.612 102.144 41.02C101.848 40.428 101.436 39.96 100.908 39.616C100.388 39.264 99.7756 39.088 99.0716 39.088C98.3756 39.088 97.7396 39.264 97.1636 39.616C96.5876 39.968 96.1316 40.44 95.7956 41.032C95.4596 41.624 95.2916 42.28 95.2916 43C95.2916 43.728 95.4636 44.388 95.8076 44.98C96.1596 45.564 96.6196 46.032 97.1876 46.384C97.7636 46.728 98.3916 46.9 99.0716 46.9ZM114.018 39.496H111.498L111.486 49H108.99L109.002 39.496H107.094V37H109.002L108.99 33.232H111.486L111.498 37H114.018V39.496ZM116.003 37H118.499V49H116.003V37ZM117.275 35.26C116.891 35.26 116.571 35.136 116.315 34.888C116.059 34.64 115.931 34.328 115.931 33.952C115.931 33.584 116.059 33.276 116.315 33.028C116.571 32.772 116.887 32.644 117.263 32.644C117.631 32.644 117.943 32.772 118.199 33.028C118.455 33.276 118.583 33.584 118.583 33.952C118.583 34.328 118.455 34.64 118.199 34.888C117.951 35.136 117.643 35.26 117.275 35.26ZM126.439 49.312C125.335 49.312 124.327 49.028 123.415 48.46C122.511 47.892 121.787 47.132 121.243 46.18C120.707 45.22 120.439 44.16 120.439 43C120.439 42.12 120.595 41.3 120.907 40.54C121.219 39.772 121.647 39.1 122.191 38.524C122.743 37.94 123.383 37.484 124.111 37.156C124.839 36.828 125.615 36.664 126.439 36.664C127.543 36.664 128.547 36.948 129.451 37.516C130.363 38.084 131.087 38.848 131.623 39.808C132.167 40.768 132.439 41.832 132.439 43C132.439 43.872 132.283 44.688 131.971 45.448C131.659 46.208 131.227 46.88 130.675 47.464C130.131 48.04 129.495 48.492 128.767 48.82C128.047 49.148 127.271 49.312 126.439 49.312ZM126.439 46.816C127.103 46.816 127.699 46.64 128.227 46.288C128.755 45.936 129.171 45.472 129.475 44.896C129.787 44.312 129.943 43.68 129.943 43C129.943 42.304 129.783 41.664 129.463 41.08C129.151 40.496 128.731 40.032 128.203 39.688C127.675 39.336 127.087 39.16 126.439 39.16C125.783 39.16 125.187 39.336 124.651 39.688C124.123 40.04 123.703 40.508 123.391 41.092C123.087 41.676 122.935 42.312 122.935 43C122.935 43.712 123.095 44.356 123.415 44.932C123.735 45.508 124.159 45.968 124.687 46.312C125.223 46.648 125.807 46.816 126.439 46.816ZM145.178 41.476V49H142.682V42.088C142.682 41.552 142.55 41.064 142.286 40.624C142.03 40.184 141.682 39.836 141.242 39.58C140.81 39.316 140.322 39.184 139.778 39.184C139.25 39.184 138.766 39.316 138.326 39.58C137.886 39.836 137.534 40.184 137.27 40.624C137.006 41.064 136.874 41.552 136.874 42.088V49H134.378V37H136.874V38.272C137.29 37.776 137.802 37.384 138.41 37.096C139.018 36.808 139.674 36.664 140.378 36.664C141.266 36.664 142.074 36.88 142.802 37.312C143.53 37.744 144.106 38.324 144.53 39.052C144.962 39.78 145.178 40.588 145.178 41.476ZM156.938 49.228C156.306 49.188 155.69 49.06 155.09 48.844C154.49 48.628 153.962 48.336 153.506 47.968C153.058 47.592 152.722 47.152 152.498 46.648L154.622 45.736C154.726 45.952 154.906 46.164 155.162 46.372C155.426 46.58 155.734 46.752 156.086 46.888C156.438 47.016 156.806 47.08 157.19 47.08C157.566 47.08 157.914 47.028 158.234 46.924C158.562 46.812 158.83 46.644 159.038 46.42C159.246 46.196 159.35 45.928 159.35 45.616C159.35 45.264 159.23 44.992 158.99 44.8C158.758 44.6 158.466 44.448 158.114 44.344C157.762 44.24 157.41 44.14 157.058 44.044C156.274 43.868 155.554 43.628 154.898 43.324C154.25 43.012 153.734 42.616 153.35 42.136C152.966 41.648 152.774 41.052 152.774 40.348C152.774 39.58 152.982 38.916 153.398 38.356C153.814 37.788 154.358 37.352 155.03 37.048C155.71 36.744 156.434 36.592 157.202 36.592C158.162 36.592 159.042 36.796 159.842 37.204C160.642 37.612 161.254 38.172 161.678 38.884L159.698 40.06C159.578 39.82 159.398 39.604 159.158 39.412C158.918 39.22 158.646 39.068 158.342 38.956C158.038 38.836 157.722 38.768 157.394 38.752C156.986 38.736 156.606 38.784 156.254 38.896C155.91 39 155.634 39.168 155.426 39.4C155.218 39.632 155.114 39.928 155.114 40.288C155.114 40.64 155.238 40.904 155.486 41.08C155.734 41.248 156.046 41.384 156.422 41.488C156.806 41.592 157.198 41.708 157.598 41.836C158.31 42.06 158.978 42.336 159.602 42.664C160.226 42.984 160.73 43.38 161.114 43.852C161.498 44.324 161.682 44.9 161.666 45.58C161.666 46.332 161.438 46.992 160.982 47.56C160.534 48.128 159.95 48.56 159.23 48.856C158.51 49.152 157.746 49.276 156.938 49.228ZM170.057 39.496H167.537L167.525 49H165.029L165.041 39.496H163.133V37H165.041L165.029 33.232H167.525L167.537 37H170.057V39.496ZM177.204 49.312C176.1 49.312 175.092 49.028 174.18 48.46C173.276 47.892 172.552 47.132 172.008 46.18C171.472 45.22 171.204 44.16 171.204 43C171.204 42.12 171.36 41.3 171.672 40.54C171.984 39.772 172.412 39.1 172.956 38.524C173.508 37.94 174.148 37.484 174.876 37.156C175.604 36.828 176.38 36.664 177.204 36.664C178.124 36.664 178.968 36.856 179.736 37.24C180.504 37.616 181.16 38.14 181.704 38.812C182.248 39.476 182.648 40.244 182.904 41.116C183.16 41.98 183.236 42.9 183.132 43.876H173.88C173.984 44.428 174.184 44.928 174.48 45.376C174.784 45.816 175.168 46.164 175.632 46.42C176.104 46.676 176.628 46.808 177.204 46.816C177.812 46.816 178.364 46.664 178.86 46.36C179.364 46.056 179.776 45.636 180.096 45.1L182.628 45.688C182.148 46.752 181.424 47.624 180.456 48.304C179.488 48.976 178.404 49.312 177.204 49.312ZM173.796 41.968H180.612C180.532 41.392 180.328 40.872 180 40.408C179.68 39.936 179.276 39.564 178.788 39.292C178.308 39.012 177.78 38.872 177.204 38.872C176.636 38.872 176.108 39.008 175.62 39.28C175.14 39.552 174.74 39.924 174.42 40.396C174.108 40.86 173.9 41.384 173.796 41.968ZM187.616 55H185.12V37H187.616V38.764C188.016 38.148 188.528 37.648 189.152 37.264C189.776 36.88 190.512 36.688 191.36 36.688C192.232 36.688 193.048 36.852 193.808 37.18C194.576 37.508 195.248 37.964 195.824 38.548C196.4 39.124 196.852 39.792 197.18 40.552C197.508 41.312 197.672 42.128 197.672 43C197.672 43.872 197.508 44.692 197.18 45.46C196.852 46.228 196.4 46.904 195.824 47.488C195.248 48.064 194.576 48.516 193.808 48.844C193.048 49.172 192.232 49.336 191.36 49.336C190.512 49.336 189.776 49.144 189.152 48.76C188.528 48.368 188.016 47.868 187.616 47.26V55ZM191.336 39.1C190.64 39.1 190.028 39.276 189.5 39.628C188.972 39.98 188.56 40.452 188.264 41.044C187.968 41.628 187.82 42.28 187.82 43C187.82 43.72 187.968 44.376 188.264 44.968C188.56 45.56 188.972 46.032 189.5 46.384C190.028 46.736 190.64 46.912 191.336 46.912C192.024 46.912 192.656 46.74 193.232 46.396C193.808 46.044 194.268 45.572 194.612 44.98C194.956 44.388 195.128 43.728 195.128 43C195.128 42.288 194.956 41.636 194.612 41.044C194.276 40.452 193.82 39.98 193.244 39.628C192.668 39.276 192.032 39.1 191.336 39.1ZM203.274 49.228C202.642 49.188 202.026 49.06 201.426 48.844C200.826 48.628 200.298 48.336 199.842 47.968C199.394 47.592 199.058 47.152 198.834 46.648L200.958 45.736C201.062 45.952 201.242 46.164 201.498 46.372C201.762 46.58 202.07 46.752 202.422 46.888C202.774 47.016 203.142 47.08 203.526 47.08C203.902 47.08 204.25 47.028 204.57 46.924C204.898 46.812 205.166 46.644 205.374 46.42C205.582 46.196 205.686 45.928 205.686 45.616C205.686 45.264 205.566 44.992 205.326 44.8C205.094 44.6 204.802 44.448 204.45 44.344C204.098 44.24 203.746 44.14 203.394 44.044C202.61 43.868 201.89 43.628 201.234 43.324C200.586 43.012 200.07 42.616 199.686 42.136C199.302 41.648 199.11 41.052 199.11 40.348C199.11 39.58 199.318 38.916 199.734 38.356C200.15 37.788 200.694 37.352 201.366 37.048C202.046 36.744 202.77 36.592 203.538 36.592C204.498 36.592 205.378 36.796 206.178 37.204C206.978 37.612 207.59 38.172 208.014 38.884L206.034 40.06C205.914 39.82 205.734 39.604 205.494 39.412C205.254 39.22 204.982 39.068 204.678 38.956C204.374 38.836 204.058 38.768 203.73 38.752C203.322 38.736 202.942 38.784 202.59 38.896C202.246 39 201.97 39.168 201.762 39.4C201.554 39.632 201.45 39.928 201.45 40.288C201.45 40.64 201.574 40.904 201.822 41.08C202.07 41.248 202.382 41.384 202.758 41.488C203.142 41.592 203.534 41.708 203.934 41.836C204.646 42.06 205.314 42.336 205.938 42.664C206.562 42.984 207.066 43.38 207.45 43.852C207.834 44.324 208.018 44.9 208.002 45.58C208.002 46.332 207.774 46.992 207.318 47.56C206.87 48.128 206.286 48.56 205.566 48.856C204.846 49.152 204.082 49.276 203.274 49.228Z" fill="#0C1021"/>
<rect x="248" y="24" width="155" height="33" rx="16" fill="#3DEC82" fill-opacity="0.15"/>
<path d="M260.84 45V35.2H264.165C264.688 35.2 265.159 35.3283 265.579 35.585C265.999 35.837 266.333 36.18 266.58 36.614C266.827 37.0433 266.951 37.5263 266.951 38.063C266.951 38.5437 266.853 38.98 266.657 39.372C266.461 39.764 266.193 40.0883 265.852 40.345C265.516 40.6017 265.136 40.772 264.711 40.856L267.105 45H265.971L263.612 40.933H261.82V45H260.84ZM261.82 39.953H264.081C264.426 39.953 264.741 39.869 265.026 39.701C265.315 39.5283 265.544 39.2973 265.712 39.008C265.885 38.714 265.971 38.3827 265.971 38.014C265.971 37.6453 265.885 37.3163 265.712 37.027C265.544 36.733 265.315 36.502 265.026 36.334C264.741 36.1613 264.426 36.075 264.081 36.075H261.82V39.953ZM271.467 45.182C270.823 45.182 270.235 45.0163 269.703 44.685C269.176 44.3537 268.753 43.9103 268.436 43.355C268.123 42.795 267.967 42.1767 267.967 41.5C267.967 40.9867 268.058 40.5083 268.24 40.065C268.422 39.617 268.672 39.225 268.989 38.889C269.311 38.5483 269.684 38.2823 270.109 38.091C270.534 37.8997 270.986 37.804 271.467 37.804C271.985 37.804 272.461 37.9067 272.895 38.112C273.334 38.3173 273.709 38.6043 274.022 38.973C274.339 39.3417 274.577 39.7733 274.736 40.268C274.899 40.7627 274.967 41.297 274.939 41.871H269.003C269.059 42.3143 269.199 42.711 269.423 43.061C269.652 43.411 269.941 43.6887 270.291 43.894C270.646 44.0947 271.038 44.1973 271.467 44.202C271.934 44.202 272.354 44.0807 272.727 43.838C273.105 43.5953 273.408 43.2617 273.637 42.837L274.631 43.068C274.351 43.6887 273.929 44.1973 273.364 44.594C272.799 44.986 272.167 45.182 271.467 45.182ZM268.975 41.08H273.952C273.919 40.646 273.786 40.2493 273.553 39.89C273.324 39.526 273.028 39.2367 272.664 39.022C272.3 38.8027 271.901 38.693 271.467 38.693C271.033 38.693 270.636 38.8003 270.277 39.015C269.918 39.225 269.624 39.512 269.395 39.876C269.166 40.2353 269.026 40.6367 268.975 41.08ZM281.635 38H282.615V45.259C282.615 45.707 282.517 46.127 282.321 46.519C282.13 46.911 281.869 47.254 281.537 47.548C281.211 47.8467 280.837 48.08 280.417 48.248C279.997 48.416 279.561 48.5 279.108 48.5C278.623 48.5 278.154 48.388 277.701 48.164C277.249 47.9447 276.854 47.6507 276.518 47.282C276.187 46.9133 275.951 46.505 275.811 46.057L276.714 45.644C276.803 45.994 276.969 46.309 277.211 46.589C277.459 46.8737 277.748 47.0977 278.079 47.261C278.415 47.429 278.758 47.513 279.108 47.513C279.43 47.513 279.741 47.4523 280.039 47.331C280.343 47.2143 280.613 47.0533 280.851 46.848C281.094 46.6427 281.285 46.4023 281.425 46.127C281.565 45.8563 281.635 45.567 281.635 45.259V43.712C281.393 44.1507 281.064 44.5053 280.648 44.776C280.238 45.0467 279.759 45.182 279.213 45.182C278.723 45.182 278.261 45.0863 277.827 44.895C277.398 44.7037 277.02 44.44 276.693 44.104C276.367 43.7633 276.11 43.3713 275.923 42.928C275.741 42.4847 275.65 42.0087 275.65 41.5C275.65 40.9913 275.741 40.5153 275.923 40.072C276.11 39.624 276.367 39.232 276.693 38.896C277.02 38.5553 277.398 38.2893 277.827 38.098C278.261 37.9067 278.723 37.811 279.213 37.811C279.759 37.811 280.238 37.9463 280.648 38.217C281.064 38.483 281.393 38.8377 281.635 39.281V38ZM279.22 44.23C279.706 44.23 280.123 44.104 280.473 43.852C280.828 43.6 281.101 43.2663 281.292 42.851C281.484 42.4357 281.579 41.9853 281.579 41.5C281.579 41.0007 281.481 40.5457 281.285 40.135C281.094 39.7197 280.821 39.3883 280.466 39.141C280.112 38.889 279.696 38.763 279.22 38.763C278.744 38.763 278.31 38.8867 277.918 39.134C277.531 39.3767 277.223 39.7057 276.994 40.121C276.766 40.5363 276.651 40.996 276.651 41.5C276.651 42.004 276.768 42.4637 277.001 42.879C277.235 43.2897 277.545 43.6187 277.932 43.866C278.324 44.1087 278.754 44.23 279.22 44.23ZM283.925 42.319V38H284.905V42.123C284.905 42.5057 284.999 42.8533 285.185 43.166C285.372 43.4787 285.622 43.7283 285.934 43.915C286.252 44.1017 286.599 44.195 286.977 44.195C287.36 44.195 287.705 44.1017 288.013 43.915C288.326 43.7283 288.576 43.4787 288.762 43.166C288.949 42.8533 289.042 42.5057 289.042 42.123V38H290.022L290.029 45H289.049L289.042 44.02C288.795 44.3747 288.473 44.657 288.076 44.867C287.684 45.077 287.255 45.182 286.788 45.182C286.261 45.182 285.78 45.0537 285.346 44.797C284.912 44.5403 284.567 44.195 284.31 43.761C284.054 43.327 283.925 42.8463 283.925 42.319ZM291.52 45V34.5H292.5V45H291.52ZM299.885 38H300.865V45H299.885L299.85 43.698C299.621 44.1413 299.302 44.5007 298.891 44.776C298.48 45.0467 297.99 45.182 297.421 45.182C296.908 45.182 296.427 45.0863 295.979 44.895C295.531 44.699 295.137 44.4307 294.796 44.09C294.455 43.7493 294.189 43.355 293.998 42.907C293.807 42.459 293.711 41.9783 293.711 41.465C293.711 40.961 293.804 40.4873 293.991 40.044C294.182 39.6007 294.444 39.211 294.775 38.875C295.111 38.539 295.498 38.2777 295.937 38.091C296.38 37.8997 296.854 37.804 297.358 37.804C297.941 37.804 298.45 37.944 298.884 38.224C299.318 38.4993 299.663 38.861 299.92 39.309L299.885 38ZM297.4 44.23C297.899 44.23 298.329 44.1087 298.688 43.866C299.047 43.6187 299.323 43.2873 299.514 42.872C299.71 42.4567 299.808 41.9993 299.808 41.5C299.808 40.9867 299.71 40.5247 299.514 40.114C299.318 39.6987 299.04 39.3697 298.681 39.127C298.322 38.8843 297.895 38.763 297.4 38.763C296.905 38.763 296.453 38.8867 296.042 39.134C295.636 39.3767 295.312 39.7057 295.069 40.121C294.831 40.5363 294.712 40.996 294.712 41.5C294.712 42.0087 294.836 42.4707 295.083 42.886C295.33 43.2967 295.657 43.6233 296.063 43.866C296.474 44.1087 296.919 44.23 297.4 44.23ZM305.843 38.98H304.17L304.163 45H303.183L303.19 38.98H301.923V38H303.19L303.183 35.802H304.163L304.17 38H305.843V38.98ZM309.981 45.182C309.337 45.182 308.749 45.0163 308.217 44.685C307.689 44.3537 307.267 43.9103 306.95 43.355C306.637 42.795 306.481 42.1767 306.481 41.5C306.481 40.9867 306.572 40.5083 306.754 40.065C306.936 39.617 307.185 39.225 307.503 38.889C307.825 38.5483 308.198 38.2823 308.623 38.091C309.047 37.8997 309.5 37.804 309.981 37.804C310.625 37.804 311.21 37.9697 311.738 38.301C312.27 38.6323 312.692 39.078 313.005 39.638C313.322 40.198 313.481 40.8187 313.481 41.5C313.481 42.0087 313.39 42.4847 313.208 42.928C313.026 43.3713 312.774 43.7633 312.452 44.104C312.134 44.44 311.763 44.7037 311.339 44.895C310.919 45.0863 310.466 45.182 309.981 45.182ZM309.981 44.202C310.457 44.202 310.884 44.0783 311.262 43.831C311.644 43.579 311.945 43.2477 312.165 42.837C312.389 42.4263 312.501 41.9807 312.501 41.5C312.501 41.01 312.389 40.5597 312.165 40.149C311.941 39.7337 311.637 39.4023 311.255 39.155C310.877 38.9077 310.452 38.784 309.981 38.784C309.505 38.784 309.075 38.91 308.693 39.162C308.315 39.4093 308.014 39.7383 307.79 40.149C307.57 40.5597 307.461 41.01 307.461 41.5C307.461 42.004 307.575 42.4613 307.804 42.872C308.032 43.278 308.338 43.6023 308.721 43.845C309.103 44.083 309.523 44.202 309.981 44.202ZM314.666 45V38H315.646V38.966C315.894 38.6113 316.216 38.329 316.612 38.119C317.009 37.909 317.441 37.804 317.907 37.804C318.178 37.804 318.439 37.839 318.691 37.909L318.292 38.882C318.096 38.8213 317.905 38.791 317.718 38.791C317.34 38.791 316.993 38.8843 316.675 39.071C316.363 39.2577 316.113 39.5073 315.926 39.82C315.74 40.1327 315.646 40.4803 315.646 40.863V45H314.666ZM324.369 38H325.405L321.576 48.5H320.533L321.807 45L319.294 38H320.365L322.297 43.649L324.369 38ZM335.168 43.243L336.043 43.719C335.726 44.1623 335.322 44.517 334.832 44.783C334.347 45.049 333.819 45.182 333.25 45.182C332.606 45.182 332.018 45.0163 331.486 44.685C330.959 44.3537 330.536 43.9103 330.219 43.355C329.906 42.795 329.75 42.1767 329.75 41.5C329.75 40.9867 329.841 40.5083 330.023 40.065C330.205 39.617 330.455 39.225 330.772 38.889C331.094 38.5483 331.467 38.2823 331.892 38.091C332.317 37.8997 332.769 37.804 333.25 37.804C333.819 37.804 334.347 37.937 334.832 38.203C335.322 38.469 335.726 38.826 336.043 39.274L335.168 39.743C334.925 39.435 334.634 39.1993 334.293 39.036C333.952 38.868 333.605 38.784 333.25 38.784C332.779 38.784 332.352 38.91 331.969 39.162C331.586 39.4093 331.283 39.7383 331.059 40.149C330.84 40.5597 330.73 41.01 330.73 41.5C330.73 41.99 330.842 42.4403 331.066 42.851C331.295 43.2617 331.6 43.5907 331.983 43.838C332.366 44.0807 332.788 44.202 333.25 44.202C333.633 44.202 333.992 44.1133 334.328 43.936C334.664 43.7587 334.944 43.5277 335.168 43.243ZM340.291 45.182C339.647 45.182 339.059 45.0163 338.527 44.685C338 44.3537 337.577 43.9103 337.26 43.355C336.947 42.795 336.791 42.1767 336.791 41.5C336.791 40.9867 336.882 40.5083 337.064 40.065C337.246 39.617 337.496 39.225 337.813 38.889C338.135 38.5483 338.508 38.2823 338.933 38.091C339.358 37.8997 339.81 37.804 340.291 37.804C340.935 37.804 341.521 37.9697 342.048 38.301C342.58 38.6323 343.002 39.078 343.315 39.638C343.632 40.198 343.791 40.8187 343.791 41.5C343.791 42.0087 343.7 42.4847 343.518 42.928C343.336 43.3713 343.084 43.7633 342.762 44.104C342.445 44.44 342.074 44.7037 341.649 44.895C341.229 45.0863 340.776 45.182 340.291 45.182ZM340.291 44.202C340.767 44.202 341.194 44.0783 341.572 43.831C341.955 43.579 342.256 43.2477 342.475 42.837C342.699 42.4263 342.811 41.9807 342.811 41.5C342.811 41.01 342.699 40.5597 342.475 40.149C342.251 39.7337 341.948 39.4023 341.565 39.155C341.187 38.9077 340.762 38.784 340.291 38.784C339.815 38.784 339.386 38.91 339.003 39.162C338.625 39.4093 338.324 39.7383 338.1 40.149C337.881 40.5597 337.771 41.01 337.771 41.5C337.771 42.004 337.885 42.4613 338.114 42.872C338.343 43.278 338.648 43.6023 339.031 43.845C339.414 44.083 339.834 44.202 340.291 44.202ZM344.977 45V38H345.957V38.966C346.209 38.6113 346.531 38.329 346.923 38.119C347.315 37.909 347.744 37.804 348.211 37.804C348.738 37.804 349.221 37.9347 349.66 38.196C350.098 38.4527 350.441 38.7957 350.689 39.225C350.936 38.7957 351.277 38.4527 351.711 38.196C352.145 37.9347 352.625 37.804 353.153 37.804C353.68 37.804 354.161 37.9323 354.595 38.189C355.029 38.4457 355.374 38.791 355.631 39.225C355.887 39.659 356.016 40.1397 356.016 40.667V45H355.036V40.884C355.036 40.5107 354.945 40.1653 354.763 39.848C354.581 39.5307 354.336 39.2763 354.028 39.085C353.724 38.889 353.386 38.791 353.013 38.791C352.639 38.791 352.299 38.882 351.991 39.064C351.687 39.2413 351.445 39.4887 351.263 39.806C351.081 40.1187 350.99 40.478 350.99 40.884V45H350.01V40.884C350.01 40.478 349.919 40.1187 349.737 39.806C349.555 39.4887 349.31 39.2413 349.002 39.064C348.694 38.882 348.353 38.791 347.98 38.791C347.611 38.791 347.273 38.889 346.965 39.085C346.657 39.2763 346.412 39.5307 346.23 39.848C346.048 40.1653 345.957 40.5107 345.957 40.884V45H344.977ZM358.398 48.5H357.418V38H358.398V39.309C358.641 38.8657 358.972 38.5063 359.392 38.231C359.812 37.9557 360.311 37.818 360.89 37.818C361.399 37.818 361.875 37.9137 362.318 38.105C362.766 38.2963 363.158 38.5623 363.494 38.903C363.83 39.239 364.094 39.6287 364.285 40.072C364.476 40.5153 364.572 40.9913 364.572 41.5C364.572 42.0087 364.476 42.487 364.285 42.935C364.094 43.383 363.83 43.7773 363.494 44.118C363.158 44.454 362.766 44.7177 362.318 44.909C361.875 45.1003 361.399 45.196 360.89 45.196C360.311 45.196 359.812 45.0583 359.392 44.783C358.972 44.5077 358.641 44.1483 358.398 43.705V48.5ZM360.883 38.77C360.393 38.77 359.966 38.8937 359.602 39.141C359.243 39.3837 358.965 39.7103 358.769 40.121C358.573 40.5317 358.475 40.9913 358.475 41.5C358.475 41.9993 358.571 42.4567 358.762 42.872C358.958 43.2873 359.236 43.6187 359.595 43.866C359.959 44.1133 360.388 44.237 360.883 44.237C361.368 44.237 361.814 44.1157 362.22 43.873C362.631 43.6303 362.96 43.3037 363.207 42.893C363.454 42.4777 363.578 42.0133 363.578 41.5C363.578 41.0007 363.457 40.5457 363.214 40.135C362.971 39.7197 362.647 39.3883 362.241 39.141C361.835 38.8937 361.382 38.77 360.883 38.77ZM365.703 45V34.5H366.683V45H365.703ZM368.369 38H369.349V45H368.369V38ZM368.866 36.775C368.708 36.775 368.572 36.7237 368.46 36.621C368.353 36.5137 368.299 36.3807 368.299 36.222C368.299 36.0633 368.353 35.9327 368.46 35.83C368.572 35.7227 368.708 35.669 368.866 35.669C369.02 35.669 369.151 35.7227 369.258 35.83C369.37 35.9327 369.426 36.0633 369.426 36.222C369.426 36.3807 369.373 36.5137 369.265 36.621C369.158 36.7237 369.025 36.775 368.866 36.775ZM376.721 38H377.701V45H376.721L376.686 43.698C376.457 44.1413 376.138 44.5007 375.727 44.776C375.316 45.0467 374.826 45.182 374.257 45.182C373.744 45.182 373.263 45.0863 372.815 44.895C372.367 44.699 371.973 44.4307 371.632 44.09C371.291 43.7493 371.025 43.355 370.834 42.907C370.643 42.459 370.547 41.9783 370.547 41.465C370.547 40.961 370.64 40.4873 370.827 40.044C371.018 39.6007 371.28 39.211 371.611 38.875C371.947 38.539 372.334 38.2777 372.773 38.091C373.216 37.8997 373.69 37.804 374.194 37.804C374.777 37.804 375.286 37.944 375.72 38.224C376.154 38.4993 376.499 38.861 376.756 39.309L376.721 38ZM374.236 44.23C374.735 44.23 375.165 44.1087 375.524 43.866C375.883 43.6187 376.159 43.2873 376.35 42.872C376.546 42.4567 376.644 41.9993 376.644 41.5C376.644 40.9867 376.546 40.5247 376.35 40.114C376.154 39.6987 375.876 39.3697 375.517 39.127C375.158 38.8843 374.731 38.763 374.236 38.763C373.741 38.763 373.289 38.8867 372.878 39.134C372.472 39.3767 372.148 39.7057 371.905 40.121C371.667 40.5363 371.548 40.996 371.548 41.5C371.548 42.0087 371.672 42.4707 371.919 42.886C372.166 43.2967 372.493 43.6233 372.899 43.866C373.31 44.1087 373.755 44.23 374.236 44.23ZM385.206 40.667V45H384.226V40.863C384.226 40.4803 384.132 40.1327 383.946 39.82C383.759 39.5073 383.509 39.2577 383.197 39.071C382.884 38.8843 382.536 38.791 382.154 38.791C381.776 38.791 381.428 38.8843 381.111 39.071C380.798 39.2577 380.548 39.5073 380.362 39.82C380.175 40.1327 380.082 40.4803 380.082 40.863V45H379.102V38H380.082V38.966C380.329 38.6113 380.651 38.329 381.048 38.119C381.444 37.909 381.876 37.804 382.343 37.804C382.87 37.804 383.351 37.9323 383.785 38.189C384.219 38.4457 384.564 38.791 384.821 39.225C385.077 39.659 385.206 40.1397 385.206 40.667ZM390.185 38.98H388.512L388.505 45H387.525L387.532 38.98H386.265V38H387.532L387.525 35.802H388.505L388.512 38H390.185V38.98Z" fill="#28BC62"/>
<rect x="24" y="81" width="24" height="24" rx="12" fill="#4268FF"/>
<path d="M41.1382 89.1946C41.2003 89.2566 41.2495 89.3301 41.2832 89.4111C41.3168 89.4921 41.3341 89.5789 41.3341 89.6666C41.3341 89.7543 41.3168 89.8412 41.2832 89.9221C41.2495 90.0031 41.2003 90.0767 41.1382 90.1386L35.1382 96.1386C35.0763 96.2007 35.0027 96.25 34.9217 96.2836C34.8407 96.3172 34.7539 96.3345 34.6662 96.3345C34.5785 96.3345 34.4917 96.3172 34.4107 96.2836C34.3297 96.25 34.2561 96.2007 34.1942 96.1386L31.5275 93.472C31.4024 93.3468 31.332 93.177 31.332 93C31.332 92.8229 31.4024 92.6532 31.5275 92.528C31.6527 92.4028 31.8225 92.3325 31.9995 92.3325C32.1766 92.3325 32.3464 92.4028 32.4715 92.528L34.6662 94.724L40.1942 89.1946C40.2561 89.1326 40.3297 89.0833 40.4107 89.0497C40.4917 89.0161 40.5785 88.9988 40.6662 88.9988C40.7539 88.9988 40.8407 89.0161 40.9217 89.0497C41.0027 89.0833 41.0763 89.1326 41.1382 89.1946Z" fill="white"/>
<rect x="35.5" y="105" width="1" height="12" fill="#4268FF"/>
<path d="M55.2 98V86.8H56.864V98H55.2ZM65.1451 86H66.8091V98H65.1451V96.824C64.8838 97.24 64.5425 97.576 64.1211 97.832C63.6998 98.0827 63.2065 98.208 62.6411 98.208C62.0598 98.208 61.5158 98.0987 61.0091 97.88C60.5025 97.6613 60.0545 97.36 59.6651 96.976C59.2811 96.5867 58.9798 96.1387 58.7611 95.632C58.5425 95.1253 58.4331 94.5813 58.4331 94C58.4331 93.4187 58.5425 92.8747 58.7611 92.368C58.9798 91.856 59.2811 91.408 59.6651 91.024C60.0545 90.6347 60.5025 90.3307 61.0091 90.112C61.5158 89.8933 62.0598 89.784 62.6411 89.784C63.2065 89.784 63.6998 89.912 64.1211 90.168C64.5425 90.4187 64.8838 90.7493 65.1451 91.16V86ZM62.6571 96.6C63.1265 96.6 63.5371 96.4853 63.8891 96.256C64.2411 96.0213 64.5131 95.7067 64.7051 95.312C64.9025 94.9173 65.0011 94.48 65.0011 94C65.0011 93.5147 64.9025 93.0747 64.7051 92.68C64.5078 92.2853 64.2331 91.9733 63.8811 91.744C63.5345 91.5093 63.1265 91.392 62.6571 91.392C62.1931 91.392 61.7691 91.5093 61.3851 91.744C61.0065 91.9787 60.7025 92.2933 60.4731 92.688C60.2491 93.0827 60.1371 93.52 60.1371 94C60.1371 94.4853 60.2518 94.9253 60.4811 95.32C60.7158 95.7093 61.0225 96.0213 61.4011 96.256C61.7851 96.4853 62.2038 96.6 62.6571 96.6ZM72.1363 98.208C71.4003 98.208 70.7283 98.0187 70.1203 97.64C69.5176 97.2613 69.0349 96.7547 68.6723 96.12C68.3149 95.48 68.1363 94.7733 68.1363 94C68.1363 93.4133 68.2403 92.8667 68.4483 92.36C68.6563 91.848 68.9416 91.4 69.3043 91.016C69.6723 90.6267 70.0989 90.3227 70.5843 90.104C71.0696 89.8853 71.5869 89.776 72.1363 89.776C72.7496 89.776 73.3123 89.904 73.8243 90.16C74.3363 90.4107 74.7736 90.76 75.1363 91.208C75.4989 91.6507 75.7656 92.1627 75.9363 92.744C76.1069 93.32 76.1576 93.9333 76.0883 94.584H69.9203C69.9896 94.952 70.1229 95.2853 70.3203 95.584C70.5229 95.8773 70.7789 96.1093 71.0883 96.28C71.4029 96.4507 71.7523 96.5387 72.1363 96.544C72.5416 96.544 72.9096 96.4427 73.2403 96.24C73.5763 96.0373 73.8509 95.7573 74.0643 95.4L75.7523 95.792C75.4323 96.5013 74.9496 97.0827 74.3043 97.536C73.6589 97.984 72.9363 98.208 72.1363 98.208ZM69.8643 93.312H74.4083C74.3549 92.928 74.2189 92.5813 74.0003 92.272C73.7869 91.9573 73.5176 91.7093 73.1923 91.528C72.8723 91.3413 72.5203 91.248 72.1363 91.248C71.7576 91.248 71.4056 91.3387 71.0803 91.52C70.7603 91.7013 70.4936 91.9493 70.2803 92.264C70.0723 92.5733 69.9336 92.9227 69.8643 93.312ZM84.6131 92.984V98H82.9491V93.392C82.9491 93.0347 82.8611 92.7093 82.6851 92.416C82.5145 92.1227 82.2825 91.8907 81.9891 91.72C81.7011 91.544 81.3758 91.456 81.0131 91.456C80.6611 91.456 80.3385 91.544 80.0451 91.72C79.7518 91.8907 79.5171 92.1227 79.3411 92.416C79.1651 92.7093 79.0771 93.0347 79.0771 93.392V98H77.4131V90H79.0771V90.848C79.3545 90.5173 79.6958 90.256 80.1011 90.064C80.5065 89.872 80.9438 89.776 81.4131 89.776C82.0051 89.776 82.5438 89.92 83.0291 90.208C83.5145 90.496 83.8985 90.8827 84.1811 91.368C84.4691 91.8533 84.6131 92.392 84.6131 92.984ZM90.434 91.664H88.754L88.746 98H87.082L87.09 91.664H85.818V90H87.09L87.082 87.488H88.746L88.754 90H90.434V91.664ZM91.7569 90H93.4209V98H91.7569V90ZM92.6049 88.84C92.3489 88.84 92.1355 88.7573 91.9649 88.592C91.7942 88.4267 91.7089 88.2187 91.7089 87.968C91.7089 87.7227 91.7942 87.5173 91.9649 87.352C92.1355 87.1813 92.3462 87.096 92.5969 87.096C92.8422 87.096 93.0502 87.1813 93.2209 87.352C93.3915 87.5173 93.4769 87.7227 93.4769 87.968C93.4769 88.2187 93.3915 88.4267 93.2209 88.592C93.0555 88.7573 92.8502 88.84 92.6049 88.84ZM99.559 91.664H97.879L97.871 98H96.207L96.215 91.664H94.943V90H96.215L96.207 87.488H97.871L97.879 90H99.559V91.664ZM106.221 90H107.997L103.613 102H101.845L103.293 98L100.421 90H102.237L104.125 95.72L106.221 90ZM118.668 95.728L120.156 96.536C119.794 97.0427 119.332 97.448 118.772 97.752C118.218 98.056 117.615 98.208 116.964 98.208C116.228 98.208 115.556 98.0187 114.948 97.64C114.346 97.2613 113.863 96.7547 113.5 96.12C113.143 95.48 112.964 94.7733 112.964 94C112.964 93.4133 113.068 92.8667 113.276 92.36C113.484 91.848 113.77 91.4 114.132 91.016C114.5 90.6267 114.927 90.3227 115.412 90.104C115.898 89.8853 116.415 89.776 116.964 89.776C117.615 89.776 118.218 89.928 118.772 90.232C119.332 90.536 119.794 90.944 120.156 91.456L118.668 92.264C118.444 91.9973 118.183 91.7947 117.884 91.656C117.586 91.512 117.279 91.44 116.964 91.44C116.527 91.44 116.13 91.56 115.772 91.8C115.42 92.0347 115.14 92.3467 114.932 92.736C114.73 93.12 114.628 93.5413 114.628 94C114.628 94.4533 114.732 94.8747 114.94 95.264C115.148 95.648 115.428 95.9573 115.78 96.192C116.138 96.4267 116.532 96.544 116.964 96.544C117.295 96.544 117.61 96.4693 117.908 96.32C118.207 96.1707 118.46 95.9733 118.668 95.728ZM124.933 98.208C124.197 98.208 123.525 98.0187 122.917 97.64C122.314 97.2613 121.832 96.7547 121.469 96.12C121.112 95.48 120.933 94.7733 120.933 94C120.933 93.4133 121.037 92.8667 121.245 92.36C121.453 91.848 121.738 91.4 122.101 91.016C122.469 90.6267 122.896 90.3227 123.381 90.104C123.866 89.8853 124.384 89.776 124.933 89.776C125.669 89.776 126.338 89.9653 126.941 90.344C127.549 90.7227 128.032 91.232 128.389 91.872C128.752 92.512 128.933 93.2213 128.933 94C128.933 94.5813 128.829 95.1253 128.621 95.632C128.413 96.1387 128.125 96.5867 127.757 96.976C127.394 97.36 126.97 97.6613 126.485 97.88C126.005 98.0987 125.488 98.208 124.933 98.208ZM124.933 96.544C125.376 96.544 125.773 96.4267 126.125 96.192C126.477 95.9573 126.754 95.648 126.957 95.264C127.165 94.8747 127.269 94.4533 127.269 94C127.269 93.536 127.162 93.1093 126.949 92.72C126.741 92.3307 126.461 92.0213 126.109 91.792C125.757 91.5573 125.365 91.44 124.933 91.44C124.496 91.44 124.098 91.5573 123.741 91.792C123.389 92.0267 123.109 92.3387 122.901 92.728C122.698 93.1173 122.597 93.5413 122.597 94C122.597 94.4747 122.704 94.904 122.917 95.288C123.13 95.672 123.413 95.9787 123.765 96.208C124.122 96.432 124.512 96.544 124.933 96.544ZM137.426 92.984V98H135.762V93.392C135.762 93.0347 135.674 92.7093 135.498 92.416C135.327 92.1227 135.095 91.8907 134.802 91.72C134.514 91.544 134.188 91.456 133.826 91.456C133.474 91.456 133.151 91.544 132.858 91.72C132.564 91.8907 132.33 92.1227 132.154 92.416C131.978 92.7093 131.89 93.0347 131.89 93.392V98H130.226V90H131.89V90.848C132.167 90.5173 132.508 90.256 132.914 90.064C133.319 89.872 133.756 89.776 134.226 89.776C134.818 89.776 135.356 89.92 135.842 90.208C136.327 90.496 136.711 90.8827 136.994 91.368C137.282 91.8533 137.426 92.392 137.426 92.984ZM141.079 88.184V90H143.335V91.664H141.079V98H139.415V91.664H138.463V90H139.415V88.184C139.415 87.7467 139.521 87.3493 139.735 86.992C139.948 86.6293 140.233 86.3413 140.591 86.128C140.953 85.9147 141.356 85.808 141.799 85.808C142.119 85.808 142.431 85.872 142.735 86C143.039 86.128 143.311 86.3253 143.551 86.592L142.359 87.768C142.3 87.672 142.217 87.6 142.111 87.552C142.009 87.4987 141.905 87.472 141.799 87.472C141.601 87.472 141.431 87.5413 141.287 87.68C141.148 87.8187 141.079 87.9867 141.079 88.184ZM144.569 90H146.233V98H144.569V90ZM145.417 88.84C145.161 88.84 144.948 88.7573 144.777 88.592C144.607 88.4267 144.521 88.2187 144.521 87.968C144.521 87.7227 144.607 87.5173 144.777 87.352C144.948 87.1813 145.159 87.096 145.409 87.096C145.655 87.096 145.863 87.1813 146.033 87.352C146.204 87.5173 146.289 87.7227 146.289 87.968C146.289 88.2187 146.204 88.4267 146.033 88.592C145.868 88.7573 145.663 88.84 145.417 88.84ZM148.101 98V90H149.765V90.848C150.042 90.5173 150.383 90.256 150.789 90.064C151.194 89.872 151.631 89.776 152.101 89.776C152.399 89.776 152.695 89.816 152.989 89.896L152.325 91.576C152.117 91.496 151.909 91.456 151.701 91.456C151.349 91.456 151.026 91.544 150.733 91.72C150.439 91.8907 150.205 92.1227 150.029 92.416C149.853 92.7093 149.765 93.0347 149.765 93.392V98H148.101ZM153.976 98V90H155.64V90.848C155.917 90.5173 156.256 90.256 156.656 90.064C157.061 89.872 157.498 89.776 157.968 89.776C158.538 89.776 159.064 89.9147 159.544 90.192C160.024 90.464 160.405 90.8267 160.688 91.28C160.97 90.8267 161.346 90.464 161.816 90.192C162.29 89.9147 162.813 89.776 163.384 89.776C163.976 89.776 164.514 89.92 165 90.208C165.485 90.496 165.872 90.8827 166.16 91.368C166.448 91.8533 166.592 92.392 166.592 92.984V98H164.928V93.408C164.928 93.056 164.842 92.7333 164.672 92.44C164.501 92.1467 164.272 91.9093 163.984 91.728C163.696 91.5467 163.376 91.456 163.024 91.456C162.672 91.456 162.352 91.5413 162.064 91.712C161.776 91.8827 161.546 92.1147 161.376 92.408C161.205 92.7013 161.12 93.0347 161.12 93.408V98H159.456V93.408C159.456 93.0347 159.37 92.7013 159.2 92.408C159.029 92.1147 158.797 91.8827 158.504 91.712C158.216 91.5413 157.896 91.456 157.544 91.456C157.197 91.456 156.877 91.5467 156.584 91.728C156.296 91.9093 156.066 92.1467 155.896 92.44C155.725 92.7333 155.64 93.056 155.64 93.408V98H153.976ZM171.558 98.208C170.822 98.208 170.15 98.0187 169.542 97.64C168.939 97.2613 168.457 96.7547 168.094 96.12C167.737 95.48 167.558 94.7733 167.558 94C167.558 93.4133 167.662 92.8667 167.87 92.36C168.078 91.848 168.363 91.4 168.726 91.016C169.094 90.6267 169.521 90.3227 170.006 90.104C170.491 89.8853 171.009 89.776 171.558 89.776C172.171 89.776 172.734 89.904 173.246 90.16C173.758 90.4107 174.195 90.76 174.558 91.208C174.921 91.6507 175.187 92.1627 175.358 92.744C175.529 93.32 175.579 93.9333 175.51 94.584H169.342C169.411 94.952 169.545 95.2853 169.742 95.584C169.945 95.8773 170.201 96.1093 170.51 96.28C170.825 96.4507 171.174 96.5387 171.558 96.544C171.963 96.544 172.331 96.4427 172.662 96.24C172.998 96.0373 173.273 95.7573 173.486 95.4L175.174 95.792C174.854 96.5013 174.371 97.0827 173.726 97.536C173.081 97.984 172.358 98.208 171.558 98.208ZM169.286 93.312H173.83C173.777 92.928 173.641 92.5813 173.422 92.272C173.209 91.9573 172.939 91.7093 172.614 91.528C172.294 91.3413 171.942 91.248 171.558 91.248C171.179 91.248 170.827 91.3387 170.502 91.52C170.182 91.7013 169.915 91.9493 169.702 92.264C169.494 92.5733 169.355 92.9227 169.286 93.312ZM183.051 86H184.715V98H183.051V96.824C182.79 97.24 182.449 97.576 182.027 97.832C181.606 98.0827 181.113 98.208 180.547 98.208C179.966 98.208 179.422 98.0987 178.915 97.88C178.409 97.6613 177.961 97.36 177.571 96.976C177.187 96.5867 176.886 96.1387 176.667 95.632C176.449 95.1253 176.339 94.5813 176.339 94C176.339 93.4187 176.449 92.8747 176.667 92.368C176.886 91.856 177.187 91.408 177.571 91.024C177.961 90.6347 178.409 90.3307 178.915 90.112C179.422 89.8933 179.966 89.784 180.547 89.784C181.113 89.784 181.606 89.912 182.027 90.168C182.449 90.4187 182.79 90.7493 183.051 91.16V86ZM180.563 96.6C181.033 96.6 181.443 96.4853 181.795 96.256C182.147 96.0213 182.419 95.7067 182.611 95.312C182.809 94.9173 182.907 94.48 182.907 94C182.907 93.5147 182.809 93.0747 182.611 92.68C182.414 92.2853 182.139 91.9733 181.787 91.744C181.441 91.5093 181.033 91.392 180.563 91.392C180.099 91.392 179.675 91.5093 179.291 91.744C178.913 91.9787 178.609 92.2933 178.379 92.688C178.155 93.0827 178.043 93.52 178.043 94C178.043 94.4853 178.158 94.9253 178.387 95.32C178.622 95.7093 178.929 96.0213 179.307 96.256C179.691 96.4853 180.11 96.6 180.563 96.6Z" fill="#0C1021"/>
<rect x="24.5" y="117.5" width="23" height="23" rx="11.5" stroke="#4268FF"/>
<path d="M41.1382 125.195C41.2003 125.257 41.2495 125.33 41.2832 125.411C41.3168 125.492 41.3341 125.579 41.3341 125.667C41.3341 125.754 41.3168 125.841 41.2832 125.922C41.2495 126.003 41.2003 126.077 41.1382 126.139L35.1382 132.139C35.0763 132.201 35.0027 132.25 34.9217 132.284C34.8407 132.317 34.7539 132.334 34.6662 132.334C34.5785 132.334 34.4917 132.317 34.4107 132.284C34.3297 132.25 34.2561 132.201 34.1942 132.139L31.5275 129.472C31.4024 129.347 31.332 129.177 31.332 129C31.332 128.823 31.4024 128.653 31.5275 128.528C31.6527 128.403 31.8225 128.332 31.9995 128.332C32.1766 128.332 32.3464 128.403 32.4715 128.528L34.6662 130.724L40.1942 125.195C40.2561 125.133 40.3297 125.083 40.4107 125.05C40.4917 125.016 40.5785 124.999 40.6662 124.999C40.7539 124.999 40.8407 125.016 40.9217 125.05C41.0027 125.083 41.0763 125.133 41.1382 125.195Z" fill="#4268FF"/>
<rect x="35.5" y="141" width="1" height="12" fill="#D9D9D9"/>
<path d="M60.144 134.208C59.3867 134.208 58.6747 134.059 58.008 133.76C57.3413 133.456 56.7547 133.04 56.248 132.512C55.7467 131.979 55.352 131.36 55.064 130.656C54.7813 129.952 54.64 129.2 54.64 128.4C54.64 127.6 54.7813 126.848 55.064 126.144C55.352 125.44 55.7467 124.824 56.248 124.296C56.7547 123.763 57.3413 123.347 58.008 123.048C58.6747 122.744 59.3867 122.592 60.144 122.592C61.0507 122.592 61.8853 122.803 62.648 123.224C63.4107 123.645 64.0427 124.205 64.544 124.904L63.552 125.44C63.1573 124.912 62.656 124.493 62.048 124.184C61.4453 123.869 60.8107 123.712 60.144 123.712C59.5307 123.712 58.9573 123.837 58.424 124.088C57.896 124.333 57.432 124.672 57.032 125.104C56.632 125.536 56.32 126.035 56.096 126.6C55.872 127.165 55.76 127.765 55.76 128.4C55.76 129.045 55.872 129.651 56.096 130.216C56.3253 130.781 56.64 131.28 57.04 131.712C57.4453 132.144 57.912 132.483 58.44 132.728C58.9733 132.968 59.5413 133.088 60.144 133.088C60.8373 133.088 61.48 132.931 62.072 132.616C62.6693 132.296 63.1627 131.88 63.552 131.368L64.544 131.904C64.0427 132.603 63.4107 133.163 62.648 133.584C61.8853 134 61.0507 134.208 60.144 134.208ZM69.2613 134.208C68.5253 134.208 67.8533 134.019 67.2453 133.64C66.6426 133.261 66.1599 132.755 65.7973 132.12C65.4399 131.48 65.2613 130.773 65.2613 130C65.2613 129.413 65.3653 128.867 65.5733 128.36C65.7813 127.848 66.0666 127.4 66.4293 127.016C66.7973 126.627 67.2239 126.323 67.7093 126.104C68.1946 125.885 68.7119 125.776 69.2613 125.776C69.9973 125.776 70.6666 125.965 71.2693 126.344C71.8773 126.723 72.3599 127.232 72.7173 127.872C73.0799 128.512 73.2613 129.221 73.2613 130C73.2613 130.581 73.1573 131.125 72.9493 131.632C72.7413 132.139 72.4533 132.587 72.0853 132.976C71.7226 133.36 71.2986 133.661 70.8133 133.88C70.3333 134.099 69.8159 134.208 69.2613 134.208ZM69.2613 133.088C69.8053 133.088 70.2933 132.947 70.7253 132.664C71.1626 132.376 71.5066 131.997 71.7573 131.528C72.0133 131.059 72.1413 130.549 72.1413 130C72.1413 129.44 72.0133 128.925 71.7573 128.456C71.5013 127.981 71.1546 127.603 70.7173 127.32C70.2853 127.037 69.7999 126.896 69.2613 126.896C68.7173 126.896 68.2266 127.04 67.7893 127.328C67.3573 127.611 67.0133 127.987 66.7573 128.456C66.5066 128.925 66.3813 129.44 66.3813 130C66.3813 130.576 66.5119 131.099 66.7733 131.568C67.0346 132.032 67.3839 132.403 67.8213 132.68C68.2586 132.952 68.7386 133.088 69.2613 133.088ZM74.6163 134V126H75.7363V127.104C76.0243 126.699 76.3923 126.376 76.8403 126.136C77.2883 125.896 77.7789 125.776 78.3123 125.776C78.9149 125.776 79.4669 125.925 79.9683 126.224C80.4696 126.517 80.8616 126.909 81.1443 127.4C81.4269 126.909 81.8163 126.517 82.3123 126.224C82.8083 125.925 83.3576 125.776 83.9603 125.776C84.5629 125.776 85.1123 125.923 85.6083 126.216C86.1043 126.509 86.4989 126.904 86.7923 127.4C87.0856 127.896 87.2323 128.445 87.2323 129.048V134H86.1123V129.296C86.1123 128.869 86.0083 128.475 85.8003 128.112C85.5923 127.749 85.3123 127.459 84.9603 127.24C84.6136 127.016 84.2269 126.904 83.8003 126.904C83.3736 126.904 82.9843 127.008 82.6323 127.216C82.2856 127.419 82.0083 127.701 81.8003 128.064C81.5923 128.421 81.4883 128.832 81.4883 129.296V134H80.3683V129.296C80.3683 128.832 80.2643 128.421 80.0563 128.064C79.8483 127.701 79.5683 127.419 79.2163 127.216C78.8643 127.008 78.4749 126.904 78.0483 126.904C77.6269 126.904 77.2403 127.016 76.8883 127.24C76.5363 127.459 76.2563 127.749 76.0483 128.112C75.8403 128.475 75.7363 128.869 75.7363 129.296V134H74.6163ZM89.955 138H88.835V126H89.955V127.496C90.2323 126.989 90.611 126.579 91.091 126.264C91.571 125.949 92.1417 125.792 92.803 125.792C93.3843 125.792 93.9283 125.901 94.435 126.12C94.947 126.339 95.395 126.643 95.779 127.032C96.163 127.416 96.4643 127.861 96.683 128.368C96.9017 128.875 97.011 129.419 97.011 130C97.011 130.581 96.9017 131.128 96.683 131.64C96.4643 132.152 96.163 132.603 95.779 132.992C95.395 133.376 94.947 133.677 94.435 133.896C93.9283 134.115 93.3843 134.224 92.803 134.224C92.1417 134.224 91.571 134.067 91.091 133.752C90.611 133.437 90.2323 133.027 89.955 132.52V138ZM92.795 126.88C92.235 126.88 91.747 127.021 91.331 127.304C90.9203 127.581 90.603 127.955 90.379 128.424C90.155 128.893 90.043 129.419 90.043 130C90.043 130.571 90.1523 131.093 90.371 131.568C90.595 132.043 90.9123 132.421 91.323 132.704C91.739 132.987 92.2297 133.128 92.795 133.128C93.3497 133.128 93.859 132.989 94.323 132.712C94.7923 132.435 95.1683 132.061 95.451 131.592C95.7337 131.117 95.875 130.587 95.875 130C95.875 129.429 95.7363 128.909 95.459 128.44C95.1817 127.965 94.811 127.587 94.347 127.304C93.883 127.021 93.3657 126.88 92.795 126.88ZM98.3038 134V122H99.4238V134H98.3038ZM101.351 126H102.471V134H101.351V126ZM101.919 124.6C101.737 124.6 101.583 124.541 101.455 124.424C101.332 124.301 101.271 124.149 101.271 123.968C101.271 123.787 101.332 123.637 101.455 123.52C101.583 123.397 101.737 123.336 101.919 123.336C102.095 123.336 102.244 123.397 102.367 123.52C102.495 123.637 102.559 123.787 102.559 123.968C102.559 124.149 102.497 124.301 102.375 124.424C102.252 124.541 102.1 124.6 101.919 124.6ZM110.895 126H112.015V134H110.895L110.855 132.512C110.594 133.019 110.229 133.429 109.759 133.744C109.29 134.053 108.73 134.208 108.079 134.208C107.493 134.208 106.943 134.099 106.431 133.88C105.919 133.656 105.469 133.349 105.079 132.96C104.69 132.571 104.386 132.12 104.167 131.608C103.949 131.096 103.839 130.547 103.839 129.96C103.839 129.384 103.946 128.843 104.159 128.336C104.378 127.829 104.677 127.384 105.055 127C105.439 126.616 105.882 126.317 106.383 126.104C106.89 125.885 107.431 125.776 108.007 125.776C108.674 125.776 109.255 125.936 109.751 126.256C110.247 126.571 110.642 126.984 110.935 127.496L110.895 126ZM108.055 133.12C108.626 133.12 109.117 132.981 109.527 132.704C109.938 132.421 110.253 132.043 110.471 131.568C110.695 131.093 110.807 130.571 110.807 130C110.807 129.413 110.695 128.885 110.471 128.416C110.247 127.941 109.93 127.565 109.519 127.288C109.109 127.011 108.621 126.872 108.055 126.872C107.49 126.872 106.973 127.013 106.503 127.296C106.039 127.573 105.669 127.949 105.391 128.424C105.119 128.899 104.983 129.424 104.983 130C104.983 130.581 105.125 131.109 105.407 131.584C105.69 132.053 106.063 132.427 106.527 132.704C106.997 132.981 107.506 133.12 108.055 133.12ZM120.592 129.048V134H119.472V129.272C119.472 128.835 119.366 128.437 119.152 128.08C118.939 127.723 118.654 127.437 118.296 127.224C117.939 127.011 117.542 126.904 117.104 126.904C116.672 126.904 116.275 127.011 115.912 127.224C115.555 127.437 115.27 127.723 115.056 128.08C114.843 128.437 114.736 128.835 114.736 129.272V134H113.616V126H114.736V127.104C115.019 126.699 115.387 126.376 115.84 126.136C116.294 125.896 116.787 125.776 117.32 125.776C117.923 125.776 118.472 125.923 118.968 126.216C119.464 126.509 119.859 126.904 120.152 127.4C120.446 127.896 120.592 128.445 120.592 129.048ZM127.75 131.992L128.75 132.536C128.387 133.043 127.926 133.448 127.366 133.752C126.811 134.056 126.209 134.208 125.558 134.208C124.822 134.208 124.15 134.019 123.542 133.64C122.939 133.261 122.457 132.755 122.094 132.12C121.737 131.48 121.558 130.773 121.558 130C121.558 129.413 121.662 128.867 121.87 128.36C122.078 127.848 122.363 127.4 122.726 127.016C123.094 126.627 123.521 126.323 124.006 126.104C124.491 125.885 125.009 125.776 125.558 125.776C126.209 125.776 126.811 125.928 127.366 126.232C127.926 126.536 128.387 126.944 128.75 127.456L127.75 127.992C127.473 127.64 127.139 127.371 126.75 127.184C126.361 126.992 125.963 126.896 125.558 126.896C125.019 126.896 124.531 127.04 124.094 127.328C123.657 127.611 123.31 127.987 123.054 128.456C122.803 128.925 122.678 129.44 122.678 130C122.678 130.56 122.806 131.075 123.062 131.544C123.323 132.013 123.673 132.389 124.11 132.672C124.547 132.949 125.03 133.088 125.558 133.088C125.995 133.088 126.406 132.987 126.79 132.784C127.174 132.581 127.494 132.317 127.75 131.992ZM133.605 134.208C132.869 134.208 132.197 134.019 131.589 133.64C130.986 133.261 130.504 132.755 130.141 132.12C129.784 131.48 129.605 130.773 129.605 130C129.605 129.413 129.709 128.867 129.917 128.36C130.125 127.848 130.41 127.4 130.773 127.016C131.141 126.627 131.568 126.323 132.053 126.104C132.538 125.885 133.056 125.776 133.605 125.776C134.197 125.776 134.741 125.893 135.237 126.128C135.738 126.363 136.168 126.691 136.525 127.112C136.888 127.533 137.16 128.027 137.341 128.592C137.528 129.157 137.605 129.768 137.573 130.424H130.789C130.853 130.931 131.013 131.384 131.269 131.784C131.53 132.184 131.861 132.501 132.261 132.736C132.666 132.965 133.114 133.083 133.605 133.088C134.138 133.088 134.618 132.949 135.045 132.672C135.477 132.395 135.824 132.013 136.085 131.528L137.221 131.792C136.901 132.501 136.418 133.083 135.773 133.536C135.128 133.984 134.405 134.208 133.605 134.208ZM130.757 129.52H136.445C136.408 129.024 136.256 128.571 135.989 128.16C135.728 127.744 135.389 127.413 134.973 127.168C134.557 126.917 134.101 126.792 133.605 126.792C133.109 126.792 132.656 126.915 132.245 127.16C131.834 127.4 131.498 127.728 131.237 128.144C130.976 128.555 130.816 129.013 130.757 129.52ZM145.338 134.152C144.901 134.141 144.474 134.061 144.058 133.912C143.642 133.763 143.28 133.56 142.97 133.304C142.661 133.048 142.44 132.757 142.306 132.432L143.274 132.016C143.36 132.224 143.517 132.416 143.746 132.592C143.981 132.763 144.248 132.901 144.546 133.008C144.845 133.109 145.141 133.16 145.434 133.16C145.76 133.16 146.064 133.107 146.346 133C146.629 132.893 146.858 132.741 147.034 132.544C147.216 132.341 147.306 132.104 147.306 131.832C147.306 131.539 147.21 131.309 147.018 131.144C146.826 130.973 146.584 130.84 146.29 130.744C145.997 130.643 145.696 130.547 145.386 130.456C144.821 130.301 144.322 130.131 143.89 129.944C143.458 129.757 143.12 129.52 142.874 129.232C142.634 128.939 142.514 128.563 142.514 128.104C142.514 127.619 142.65 127.2 142.922 126.848C143.2 126.491 143.56 126.216 144.002 126.024C144.45 125.827 144.928 125.728 145.434 125.728C146.085 125.728 146.677 125.869 147.21 126.152C147.749 126.435 148.138 126.811 148.378 127.28L147.474 127.816C147.378 127.597 147.226 127.408 147.018 127.248C146.81 127.088 146.573 126.963 146.306 126.872C146.045 126.781 145.778 126.733 145.506 126.728C145.165 126.723 144.848 126.773 144.554 126.88C144.261 126.981 144.024 127.133 143.842 127.336C143.666 127.539 143.578 127.787 143.578 128.08C143.578 128.373 143.666 128.597 143.842 128.752C144.018 128.901 144.256 129.024 144.554 129.12C144.858 129.211 145.2 129.317 145.578 129.44C146.064 129.595 146.52 129.771 146.946 129.968C147.373 130.165 147.717 130.411 147.978 130.704C148.24 130.997 148.368 131.368 148.362 131.816C148.362 132.296 148.218 132.715 147.93 133.072C147.642 133.429 147.269 133.704 146.81 133.896C146.352 134.083 145.861 134.168 145.338 134.152ZM155.391 131.992L156.391 132.536C156.028 133.043 155.567 133.448 155.007 133.752C154.452 134.056 153.849 134.208 153.199 134.208C152.463 134.208 151.791 134.019 151.183 133.64C150.58 133.261 150.097 132.755 149.735 132.12C149.377 131.48 149.199 130.773 149.199 130C149.199 129.413 149.303 128.867 149.511 128.36C149.719 127.848 150.004 127.4 150.367 127.016C150.735 126.627 151.161 126.323 151.647 126.104C152.132 125.885 152.649 125.776 153.199 125.776C153.849 125.776 154.452 125.928 155.007 126.232C155.567 126.536 156.028 126.944 156.391 127.456L155.391 127.992C155.113 127.64 154.78 127.371 154.391 127.184C154.001 126.992 153.604 126.896 153.199 126.896C152.66 126.896 152.172 127.04 151.735 127.328C151.297 127.611 150.951 127.987 150.695 128.456C150.444 128.925 150.319 129.44 150.319 130C150.319 130.56 150.447 131.075 150.703 131.544C150.964 132.013 151.313 132.389 151.751 132.672C152.188 132.949 152.671 133.088 153.199 133.088C153.636 133.088 154.047 132.987 154.431 132.784C154.815 132.581 155.135 132.317 155.391 131.992ZM157.835 134V126H158.955V127.104C159.238 126.699 159.606 126.376 160.059 126.136C160.512 125.896 161.006 125.776 161.539 125.776C161.848 125.776 162.147 125.816 162.435 125.896L161.979 127.008C161.755 126.939 161.536 126.904 161.323 126.904C160.891 126.904 160.494 127.011 160.131 127.224C159.774 127.437 159.488 127.723 159.275 128.08C159.062 128.437 158.955 128.835 158.955 129.272V134H157.835ZM163.444 126H164.564V134H163.444V126ZM164.012 124.6C163.831 124.6 163.676 124.541 163.548 124.424C163.426 124.301 163.364 124.149 163.364 123.968C163.364 123.787 163.426 123.637 163.548 123.52C163.676 123.397 163.831 123.336 164.012 123.336C164.188 123.336 164.338 123.397 164.46 123.52C164.588 123.637 164.652 123.787 164.652 123.968C164.652 124.149 164.591 124.301 164.468 124.424C164.346 124.541 164.194 124.6 164.012 124.6ZM167.549 138H166.429V126H167.549V127.496C167.826 126.989 168.205 126.579 168.685 126.264C169.165 125.949 169.735 125.792 170.397 125.792C170.978 125.792 171.522 125.901 172.029 126.12C172.541 126.339 172.989 126.643 173.373 127.032C173.757 127.416 174.058 127.861 174.277 128.368C174.495 128.875 174.605 129.419 174.605 130C174.605 130.581 174.495 131.128 174.277 131.64C174.058 132.152 173.757 132.603 173.373 132.992C172.989 133.376 172.541 133.677 172.029 133.896C171.522 134.115 170.978 134.224 170.397 134.224C169.735 134.224 169.165 134.067 168.685 133.752C168.205 133.437 167.826 133.027 167.549 132.52V138ZM170.389 126.88C169.829 126.88 169.341 127.021 168.925 127.304C168.514 127.581 168.197 127.955 167.973 128.424C167.749 128.893 167.637 129.419 167.637 130C167.637 130.571 167.746 131.093 167.965 131.568C168.189 132.043 168.506 132.421 168.917 132.704C169.333 132.987 169.823 133.128 170.389 133.128C170.943 133.128 171.453 132.989 171.917 132.712C172.386 132.435 172.762 132.061 173.045 131.592C173.327 131.117 173.469 130.587 173.469 130C173.469 129.429 173.33 128.909 173.053 128.44C172.775 127.965 172.405 127.587 171.941 127.304C171.477 127.021 170.959 126.88 170.389 126.88ZM179.907 127.12H177.995L177.987 134H176.867L176.875 127.12H175.427V126H176.875L176.867 123.488H177.987L177.995 126H179.907V127.12ZM184.859 130.936V126H185.979V130.712C185.979 131.149 186.085 131.547 186.299 131.904C186.512 132.261 186.797 132.547 187.155 132.76C187.517 132.973 187.915 133.08 188.347 133.08C188.784 133.08 189.179 132.973 189.531 132.76C189.888 132.547 190.173 132.261 190.387 131.904C190.6 131.547 190.707 131.149 190.707 130.712V126H191.827L191.835 134H190.715L190.707 132.88C190.424 133.285 190.056 133.608 189.603 133.848C189.155 134.088 188.664 134.208 188.131 134.208C187.528 134.208 186.979 134.061 186.483 133.768C185.987 133.475 185.592 133.08 185.299 132.584C185.005 132.088 184.859 131.539 184.859 130.936ZM195.901 134.152C195.463 134.141 195.037 134.061 194.621 133.912C194.205 133.763 193.842 133.56 193.533 133.304C193.223 133.048 193.002 132.757 192.869 132.432L193.837 132.016C193.922 132.224 194.079 132.416 194.309 132.592C194.543 132.763 194.81 132.901 195.109 133.008C195.407 133.109 195.703 133.16 195.997 133.16C196.322 133.16 196.626 133.107 196.909 133C197.191 132.893 197.421 132.741 197.597 132.544C197.778 132.341 197.869 132.104 197.869 131.832C197.869 131.539 197.773 131.309 197.581 131.144C197.389 130.973 197.146 130.84 196.853 130.744C196.559 130.643 196.258 130.547 195.949 130.456C195.383 130.301 194.885 130.131 194.453 129.944C194.021 129.757 193.682 129.52 193.437 129.232C193.197 128.939 193.077 128.563 193.077 128.104C193.077 127.619 193.213 127.2 193.485 126.848C193.762 126.491 194.122 126.216 194.565 126.024C195.013 125.827 195.49 125.728 195.997 125.728C196.647 125.728 197.239 125.869 197.773 126.152C198.311 126.435 198.701 126.811 198.941 127.28L198.037 127.816C197.941 127.597 197.789 127.408 197.581 127.248C197.373 127.088 197.135 126.963 196.869 126.872C196.607 126.781 196.341 126.733 196.069 126.728C195.727 126.723 195.41 126.773 195.117 126.88C194.823 126.981 194.586 127.133 194.405 127.336C194.229 127.539 194.141 127.787 194.141 128.08C194.141 128.373 194.229 128.597 194.405 128.752C194.581 128.901 194.818 129.024 195.117 129.12C195.421 129.211 195.762 129.317 196.141 129.44C196.626 129.595 197.082 129.771 197.509 129.968C197.935 130.165 198.279 130.411 198.541 130.704C198.802 130.997 198.93 131.368 198.925 131.816C198.925 132.296 198.781 132.715 198.493 133.072C198.205 133.429 197.831 133.704 197.373 133.896C196.914 134.083 196.423 134.168 195.901 134.152ZM203.761 134.208C203.025 134.208 202.353 134.019 201.745 133.64C201.143 133.261 200.66 132.755 200.297 132.12C199.94 131.48 199.761 130.773 199.761 130C199.761 129.413 199.865 128.867 200.073 128.36C200.281 127.848 200.567 127.4 200.929 127.016C201.297 126.627 201.724 126.323 202.209 126.104C202.695 125.885 203.212 125.776 203.761 125.776C204.353 125.776 204.897 125.893 205.393 126.128C205.895 126.363 206.324 126.691 206.681 127.112C207.044 127.533 207.316 128.027 207.497 128.592C207.684 129.157 207.761 129.768 207.729 130.424H200.945C201.009 130.931 201.169 131.384 201.425 131.784C201.687 132.184 202.017 132.501 202.417 132.736C202.823 132.965 203.271 133.083 203.761 133.088C204.295 133.088 204.775 132.949 205.201 132.672C205.633 132.395 205.98 132.013 206.241 131.528L207.377 131.792C207.057 132.501 206.575 133.083 205.929 133.536C205.284 133.984 204.561 134.208 203.761 134.208ZM200.913 129.52H206.601C206.564 129.024 206.412 128.571 206.145 128.16C205.884 127.744 205.545 127.413 205.129 127.168C204.713 126.917 204.257 126.792 203.761 126.792C203.265 126.792 202.812 126.915 202.401 127.16C201.991 127.4 201.655 127.728 201.393 128.144C201.132 128.555 200.972 129.013 200.913 129.52ZM215.607 122H216.727V134H215.607V132.504C215.329 133.016 214.948 133.429 214.463 133.744C213.983 134.053 213.412 134.208 212.751 134.208C212.169 134.208 211.625 134.099 211.119 133.88C210.612 133.661 210.164 133.36 209.775 132.976C209.391 132.587 209.089 132.139 208.871 131.632C208.652 131.125 208.543 130.581 208.543 130C208.543 129.419 208.652 128.875 208.871 128.368C209.089 127.856 209.391 127.408 209.775 127.024C210.164 126.635 210.612 126.331 211.119 126.112C211.625 125.893 212.169 125.784 212.751 125.784C213.412 125.784 213.983 125.941 214.463 126.256C214.948 126.565 215.329 126.973 215.607 127.48V122ZM212.759 133.12C213.329 133.12 213.82 132.981 214.231 132.704C214.641 132.421 214.956 132.043 215.175 131.568C215.399 131.093 215.511 130.571 215.511 130C215.511 129.413 215.399 128.885 215.175 128.416C214.951 127.941 214.633 127.565 214.223 127.288C213.812 127.011 213.324 126.872 212.759 126.872C212.193 126.872 211.679 127.013 211.215 127.296C210.751 127.573 210.38 127.949 210.103 128.424C209.825 128.899 209.687 129.424 209.687 130C209.687 130.581 209.828 131.109 210.111 131.584C210.393 132.053 210.767 132.427 211.231 132.704C211.7 132.981 212.209 133.12 212.759 133.12Z" fill="#535662"/>
<rect x="24.5" y="153.5" width="23" height="23" rx="11.5" stroke="#535662" stroke-opacity="0.15"/>
<path d="M60.144 170.208C59.3867 170.208 58.6747 170.059 58.008 169.76C57.3413 169.456 56.7547 169.04 56.248 168.512C55.7467 167.979 55.352 167.36 55.064 166.656C54.7813 165.952 54.64 165.2 54.64 164.4C54.64 163.6 54.7813 162.848 55.064 162.144C55.352 161.44 55.7467 160.824 56.248 160.296C56.7547 159.763 57.3413 159.347 58.008 159.048C58.6747 158.744 59.3867 158.592 60.144 158.592C61.0507 158.592 61.8853 158.803 62.648 159.224C63.4107 159.645 64.0427 160.205 64.544 160.904L63.552 161.44C63.1573 160.912 62.656 160.493 62.048 160.184C61.4453 159.869 60.8107 159.712 60.144 159.712C59.5307 159.712 58.9573 159.837 58.424 160.088C57.896 160.333 57.432 160.672 57.032 161.104C56.632 161.536 56.32 162.035 56.096 162.6C55.872 163.165 55.76 163.765 55.76 164.4C55.76 165.045 55.872 165.651 56.096 166.216C56.3253 166.781 56.64 167.28 57.04 167.712C57.4453 168.144 57.912 168.483 58.44 168.728C58.9733 168.968 59.5413 169.088 60.144 169.088C60.8373 169.088 61.48 168.931 62.072 168.616C62.6693 168.296 63.1627 167.88 63.552 167.368L64.544 167.904C64.0427 168.603 63.4107 169.163 62.648 169.584C61.8853 170 61.0507 170.208 60.144 170.208ZM72.3173 162H73.4373V170H72.3173L72.2773 168.512C72.0159 169.019 71.6506 169.429 71.1813 169.744C70.7119 170.053 70.1519 170.208 69.5013 170.208C68.9146 170.208 68.3653 170.099 67.8533 169.88C67.3413 169.656 66.8906 169.349 66.5013 168.96C66.1119 168.571 65.8079 168.12 65.5893 167.608C65.3706 167.096 65.2613 166.547 65.2613 165.96C65.2613 165.384 65.3679 164.843 65.5813 164.336C65.7999 163.829 66.0986 163.384 66.4773 163C66.8613 162.616 67.3039 162.317 67.8053 162.104C68.3119 161.885 68.8533 161.776 69.4293 161.776C70.0959 161.776 70.6773 161.936 71.1733 162.256C71.6693 162.571 72.0639 162.984 72.3573 163.496L72.3173 162ZM69.4773 169.12C70.0479 169.12 70.5386 168.981 70.9493 168.704C71.3599 168.421 71.6746 168.043 71.8933 167.568C72.1173 167.093 72.2293 166.571 72.2293 166C72.2293 165.413 72.1173 164.885 71.8933 164.416C71.6693 163.941 71.3519 163.565 70.9413 163.288C70.5306 163.011 70.0426 162.872 69.4773 162.872C68.9119 162.872 68.3946 163.013 67.9253 163.296C67.4613 163.573 67.0906 163.949 66.8133 164.424C66.5413 164.899 66.4053 165.424 66.4053 166C66.4053 166.581 66.5466 167.109 66.8293 167.584C67.1119 168.053 67.4853 168.427 67.9493 168.704C68.4186 168.981 68.9279 169.12 69.4773 169.12ZM75.1475 170V158H76.2675V170H75.1475ZM78.1944 170V158H79.3144V170H78.1944ZM85.085 170V162H86.205V163.104C86.4877 162.699 86.8557 162.376 87.309 162.136C87.7623 161.896 88.2557 161.776 88.789 161.776C89.0983 161.776 89.397 161.816 89.685 161.896L89.229 163.008C89.005 162.939 88.7863 162.904 88.573 162.904C88.141 162.904 87.7437 163.011 87.381 163.224C87.0237 163.437 86.7383 163.723 86.525 164.08C86.3117 164.437 86.205 164.835 86.205 165.272V170H85.085ZM93.7925 170.208C93.0565 170.208 92.3845 170.019 91.7765 169.64C91.1738 169.261 90.6912 168.755 90.3285 168.12C89.9712 167.48 89.7925 166.773 89.7925 166C89.7925 165.413 89.8965 164.867 90.1045 164.36C90.3125 163.848 90.5978 163.4 90.9605 163.016C91.3285 162.627 91.7552 162.323 92.2405 162.104C92.7258 161.885 93.2432 161.776 93.7925 161.776C94.3845 161.776 94.9285 161.893 95.4245 162.128C95.9258 162.363 96.3552 162.691 96.7125 163.112C97.0752 163.533 97.3472 164.027 97.5285 164.592C97.7152 165.157 97.7925 165.768 97.7605 166.424H90.9765C91.0405 166.931 91.2005 167.384 91.4565 167.784C91.7178 168.184 92.0485 168.501 92.4485 168.736C92.8538 168.965 93.3018 169.083 93.7925 169.088C94.3258 169.088 94.8058 168.949 95.2325 168.672C95.6645 168.395 96.0112 168.013 96.2725 167.528L97.4085 167.792C97.0885 168.501 96.6058 169.083 95.9605 169.536C95.3152 169.984 94.5925 170.208 93.7925 170.208ZM90.9445 165.52H96.6325C96.5952 165.024 96.4432 164.571 96.1765 164.16C95.9152 163.744 95.5765 163.413 95.1605 163.168C94.7445 162.917 94.2885 162.792 93.7925 162.792C93.2965 162.792 92.8432 162.915 92.4325 163.16C92.0218 163.4 91.6858 163.728 91.4245 164.144C91.1632 164.555 91.0032 165.013 90.9445 165.52ZM104.766 167.992L105.766 168.536C105.403 169.043 104.942 169.448 104.382 169.752C103.827 170.056 103.224 170.208 102.574 170.208C101.838 170.208 101.166 170.019 100.558 169.64C99.9551 169.261 99.4724 168.755 99.1098 168.12C98.7524 167.48 98.5738 166.773 98.5738 166C98.5738 165.413 98.6778 164.867 98.8858 164.36C99.0938 163.848 99.3791 163.4 99.7418 163.016C100.11 162.627 100.536 162.323 101.022 162.104C101.507 161.885 102.024 161.776 102.574 161.776C103.224 161.776 103.827 161.928 104.382 162.232C104.942 162.536 105.403 162.944 105.766 163.456L104.766 163.992C104.488 163.64 104.155 163.371 103.766 163.184C103.376 162.992 102.979 162.896 102.574 162.896C102.035 162.896 101.547 163.04 101.11 163.328C100.672 163.611 100.326 163.987 100.07 164.456C99.8191 164.925 99.6938 165.44 99.6938 166C99.6938 166.56 99.8218 167.075 100.078 167.544C100.339 168.013 100.688 168.389 101.126 168.672C101.563 168.949 102.046 169.088 102.574 169.088C103.011 169.088 103.422 168.987 103.806 168.784C104.19 168.581 104.51 168.317 104.766 167.992ZM110.621 170.208C109.885 170.208 109.213 170.019 108.605 169.64C108.002 169.261 107.519 168.755 107.157 168.12C106.799 167.48 106.621 166.773 106.621 166C106.621 165.413 106.725 164.867 106.933 164.36C107.141 163.848 107.426 163.4 107.789 163.016C108.157 162.627 108.583 162.323 109.069 162.104C109.554 161.885 110.071 161.776 110.621 161.776C111.357 161.776 112.026 161.965 112.629 162.344C113.237 162.723 113.719 163.232 114.077 163.872C114.439 164.512 114.621 165.221 114.621 166C114.621 166.581 114.517 167.125 114.309 167.632C114.101 168.139 113.813 168.587 113.445 168.976C113.082 169.36 112.658 169.661 112.173 169.88C111.693 170.099 111.175 170.208 110.621 170.208ZM110.621 169.088C111.165 169.088 111.653 168.947 112.085 168.664C112.522 168.376 112.866 167.997 113.117 167.528C113.373 167.059 113.501 166.549 113.501 166C113.501 165.44 113.373 164.925 113.117 164.456C112.861 163.981 112.514 163.603 112.077 163.32C111.645 163.037 111.159 162.896 110.621 162.896C110.077 162.896 109.586 163.04 109.149 163.328C108.717 163.611 108.373 163.987 108.117 164.456C107.866 164.925 107.741 165.44 107.741 166C107.741 166.576 107.871 167.099 108.133 167.568C108.394 168.032 108.743 168.403 109.181 168.68C109.618 168.952 110.098 169.088 110.621 169.088ZM115.976 170V162H117.096V163.104C117.378 162.699 117.746 162.376 118.2 162.136C118.653 161.896 119.146 161.776 119.68 161.776C119.989 161.776 120.288 161.816 120.576 161.896L120.12 163.008C119.896 162.939 119.677 162.904 119.464 162.904C119.032 162.904 118.634 163.011 118.272 163.224C117.914 163.437 117.629 163.723 117.416 164.08C117.202 164.437 117.096 164.835 117.096 165.272V170H115.976ZM127.747 158H128.867V170H127.747V168.504C127.47 169.016 127.088 169.429 126.603 169.744C126.123 170.053 125.552 170.208 124.891 170.208C124.31 170.208 123.766 170.099 123.259 169.88C122.752 169.661 122.304 169.36 121.915 168.976C121.531 168.587 121.23 168.139 121.011 167.632C120.792 167.125 120.683 166.581 120.683 166C120.683 165.419 120.792 164.875 121.011 164.368C121.23 163.856 121.531 163.408 121.915 163.024C122.304 162.635 122.752 162.331 123.259 162.112C123.766 161.893 124.31 161.784 124.891 161.784C125.552 161.784 126.123 161.941 126.603 162.256C127.088 162.565 127.47 162.973 127.747 163.48V158ZM124.899 169.12C125.47 169.12 125.96 168.981 126.371 168.704C126.782 168.421 127.096 168.043 127.315 167.568C127.539 167.093 127.651 166.571 127.651 166C127.651 165.413 127.539 164.885 127.315 164.416C127.091 163.941 126.774 163.565 126.363 163.288C125.952 163.011 125.464 162.872 124.899 162.872C124.334 162.872 123.819 163.013 123.355 163.296C122.891 163.573 122.52 163.949 122.243 164.424C121.966 164.899 121.827 165.424 121.827 166C121.827 166.581 121.968 167.109 122.251 167.584C122.534 168.053 122.907 168.427 123.371 168.704C123.84 168.981 124.35 169.12 124.899 169.12ZM134.246 170.208C133.51 170.208 132.838 170.019 132.23 169.64C131.627 169.261 131.144 168.755 130.782 168.12C130.424 167.48 130.246 166.773 130.246 166C130.246 165.413 130.35 164.867 130.558 164.36C130.766 163.848 131.051 163.4 131.414 163.016C131.782 162.627 132.208 162.323 132.694 162.104C133.179 161.885 133.696 161.776 134.246 161.776C134.838 161.776 135.382 161.893 135.878 162.128C136.379 162.363 136.808 162.691 137.166 163.112C137.528 163.533 137.8 164.027 137.982 164.592C138.168 165.157 138.246 165.768 138.214 166.424H131.43C131.494 166.931 131.654 167.384 131.91 167.784C132.171 168.184 132.502 168.501 132.902 168.736C133.307 168.965 133.755 169.083 134.246 169.088C134.779 169.088 135.259 168.949 135.686 168.672C136.118 168.395 136.464 168.013 136.726 167.528L137.862 167.792C137.542 168.501 137.059 169.083 136.414 169.536C135.768 169.984 135.046 170.208 134.246 170.208ZM131.398 165.52H137.086C137.048 165.024 136.896 164.571 136.63 164.16C136.368 163.744 136.03 163.413 135.614 163.168C135.198 162.917 134.742 162.792 134.246 162.792C133.75 162.792 133.296 162.915 132.886 163.16C132.475 163.4 132.139 163.728 131.878 164.144C131.616 164.555 131.456 165.013 131.398 165.52ZM146.091 158H147.211V170H146.091V168.504C145.814 169.016 145.432 169.429 144.947 169.744C144.467 170.053 143.896 170.208 143.235 170.208C142.654 170.208 142.11 170.099 141.603 169.88C141.096 169.661 140.648 169.36 140.259 168.976C139.875 168.587 139.574 168.139 139.355 167.632C139.136 167.125 139.027 166.581 139.027 166C139.027 165.419 139.136 164.875 139.355 164.368C139.574 163.856 139.875 163.408 140.259 163.024C140.648 162.635 141.096 162.331 141.603 162.112C142.11 161.893 142.654 161.784 143.235 161.784C143.896 161.784 144.467 161.941 144.947 162.256C145.432 162.565 145.814 162.973 146.091 163.48V158ZM143.243 169.12C143.814 169.12 144.304 168.981 144.715 168.704C145.126 168.421 145.44 168.043 145.659 167.568C145.883 167.093 145.995 166.571 145.995 166C145.995 165.413 145.883 164.885 145.659 164.416C145.435 163.941 145.118 163.565 144.707 163.288C144.296 163.011 143.808 162.872 143.243 162.872C142.678 162.872 142.163 163.013 141.699 163.296C141.235 163.573 140.864 163.949 140.587 164.424C140.31 164.899 140.171 165.424 140.171 166C140.171 166.581 140.312 167.109 140.595 167.584C140.878 168.053 141.251 168.427 141.715 168.704C142.184 168.981 142.694 169.12 143.243 169.12Z" fill="#535662"/>
</svg>
