<svg width="398" height="236" viewBox="0 0 398 236" fill="none" xmlns="http://www.w3.org/2000/svg">
<rect width="398" height="236" rx="22.0629" fill="white"/>
<rect x="0.459644" y="0.459644" width="397.081" height="235.081" rx="21.6033" stroke="#0C1021" stroke-opacity="0.05" stroke-width="0.919289"/>
<rect x="314" y="104.5" width="1.00001" height="290" transform="rotate(90 314 104.5)" fill="#535662" fill-opacity="0.08"/>
<rect x="314" y="135.5" width="1.00001" height="290" transform="rotate(90 314 135.5)" fill="#535662" fill-opacity="0.08"/>
<rect x="314" y="166.5" width="1.00001" height="290" transform="rotate(90 314 166.5)" fill="#535662" fill-opacity="0.08"/>
<path d="M25.2423 94.5V86.0143H24.2321L24.5015 85.0714H26.1852V94.5H25.2423ZM31.2786 94.6751C30.7129 94.6751 30.2078 94.5494 29.7633 94.298C29.3188 94.042 28.9394 93.6896 28.6252 93.2406C28.3109 92.7916 28.0707 92.2731 27.9045 91.6849C27.7429 91.0922 27.6621 90.4592 27.6621 89.7857C27.6621 89.1122 27.7429 88.4792 27.9045 87.8865C28.0707 87.2939 28.3109 86.7753 28.6252 86.3308C28.9394 85.8818 29.3188 85.5316 29.7633 85.2802C30.2078 85.0243 30.7129 84.8963 31.2786 84.8963C31.8398 84.8963 32.3427 85.0243 32.7872 85.2802C33.2317 85.5316 33.6088 85.8818 33.9186 86.3308C34.2284 86.7753 34.4641 87.2939 34.6258 87.8865C34.7919 88.4792 34.875 89.1122 34.875 89.7857C34.875 90.4592 34.7919 91.0922 34.6258 91.6849C34.4641 92.2731 34.2284 92.7916 33.9186 93.2406C33.6088 93.6896 33.2317 94.042 32.7872 94.298C32.3427 94.5494 31.8398 94.6751 31.2786 94.6751ZM31.2786 93.7322C31.8713 93.7322 32.3674 93.5504 32.767 93.1867C33.1711 92.8231 33.4741 92.3427 33.6762 91.7455C33.8782 91.1439 33.9792 90.4906 33.9792 89.7857C33.9792 89.0404 33.8737 88.3714 33.6627 87.7788C33.4562 87.1816 33.1509 86.7102 32.7468 86.3645C32.3472 86.0143 31.8578 85.8392 31.2786 85.8392C30.8207 85.8392 30.4211 85.9447 30.0798 86.1557C29.7386 86.3667 29.4558 86.6563 29.2313 87.0245C29.0068 87.3927 28.8384 87.8147 28.7262 88.2906C28.6139 88.762 28.5578 89.2604 28.5578 89.7857C28.5578 90.4951 28.6611 91.1506 28.8676 91.7522C29.0741 92.3494 29.3794 92.8298 29.7835 93.1935C30.1876 93.5527 30.686 93.7322 31.2786 93.7322ZM36.3526 88.8429C36.2044 88.8429 36.0787 88.7912 35.9754 88.688C35.8722 88.5802 35.8205 88.45 35.8205 88.2973C35.8205 88.1537 35.8722 88.0302 35.9754 87.9269C36.0787 87.8192 36.2044 87.7653 36.3526 87.7653C36.5052 87.7653 36.6332 87.8192 36.7365 87.9269C36.8442 88.0302 36.8981 88.1537 36.8981 88.2973C36.8981 88.45 36.8442 88.5802 36.7365 88.688C36.6332 88.7912 36.5052 88.8429 36.3526 88.8429ZM36.3526 94.6751C36.2044 94.6751 36.0787 94.6212 35.9754 94.5135C35.8722 94.4102 35.8205 94.2822 35.8205 94.1296C35.8205 93.9859 35.8722 93.8624 35.9754 93.7592C36.0787 93.6514 36.2044 93.5976 36.3526 93.5976C36.5052 93.5976 36.6332 93.6514 36.7365 93.7592C36.8442 93.8624 36.8981 93.9859 36.8981 94.1296C36.8981 94.2822 36.8442 94.4102 36.7365 94.5135C36.6332 94.6212 36.5052 94.6751 36.3526 94.6751ZM41.7227 94.6751C41.1569 94.6751 40.6518 94.5494 40.2074 94.298C39.7629 94.042 39.3835 93.6896 39.0692 93.2406C38.7549 92.7916 38.5147 92.2731 38.3486 91.6849C38.1869 91.0922 38.1061 90.4592 38.1061 89.7857C38.1061 89.1122 38.1869 88.4792 38.3486 87.8865C38.5147 87.2939 38.7549 86.7753 39.0692 86.3308C39.3835 85.8818 39.7629 85.5316 40.2074 85.2802C40.6518 85.0243 41.1569 84.8963 41.7227 84.8963C42.2839 84.8963 42.7867 85.0243 43.2312 85.2802C43.6757 85.5316 44.0529 85.8818 44.3627 86.3308C44.6725 86.7753 44.9082 87.2939 45.0698 87.8865C45.2359 88.4792 45.319 89.1122 45.319 89.7857C45.319 90.4592 45.2359 91.0922 45.0698 91.6849C44.9082 92.2731 44.6725 92.7916 44.3627 93.2406C44.0529 93.6896 43.6757 94.042 43.2312 94.298C42.7867 94.5494 42.2839 94.6751 41.7227 94.6751ZM41.7227 93.7322C42.3153 93.7322 42.8114 93.5504 43.211 93.1867C43.6151 92.8231 43.9182 92.3427 44.1202 91.7455C44.3223 91.1439 44.4233 90.4906 44.4233 89.7857C44.4233 89.0404 44.3178 88.3714 44.1067 87.7788C43.9002 87.1816 43.5949 86.7102 43.1908 86.3645C42.7912 86.0143 42.3018 85.8392 41.7227 85.8392C41.2647 85.8392 40.8651 85.9447 40.5239 86.1557C40.1827 86.3667 39.8998 86.6563 39.6753 87.0245C39.4508 87.3927 39.2825 87.8147 39.1702 88.2906C39.058 88.762 39.0018 89.2604 39.0018 89.7857C39.0018 90.4951 39.1051 91.1506 39.3116 91.7522C39.5182 92.3494 39.8235 92.8298 40.2276 93.1935C40.6316 93.5527 41.13 93.7322 41.7227 93.7322ZM46.2646 94.5V93.6649C46.6327 93.3237 47.0368 92.951 47.4768 92.5469C47.9168 92.1384 48.3523 91.7186 48.7834 91.2876C49.2189 90.852 49.6162 90.4233 49.9754 90.0012C50.3346 89.5747 50.6219 89.1729 50.8374 88.7957C51.0574 88.4141 51.1674 88.0773 51.1674 87.7855C51.1674 87.4308 51.0799 87.1075 50.9048 86.8157C50.7342 86.5194 50.503 86.2837 50.2111 86.1086C49.9238 85.929 49.6027 85.8392 49.2481 85.8392C48.8934 85.8392 48.5678 85.929 48.2715 86.1086C47.9797 86.2837 47.7462 86.5194 47.5711 86.8157C47.396 87.1075 47.3085 87.4308 47.3085 87.7855H46.3656C46.3656 87.2467 46.4958 86.7596 46.7562 86.3241C47.0211 85.8886 47.3713 85.5429 47.8068 85.2869C48.2423 85.0265 48.7227 84.8963 49.2481 84.8963C49.7734 84.8963 50.2515 85.0265 50.6825 85.2869C51.1181 85.5473 51.4638 85.8953 51.7197 86.3308C51.9801 86.7663 52.1103 87.2512 52.1103 87.7855C52.1103 88.1043 52.025 88.4545 51.8544 88.8361C51.6883 89.2133 51.4615 89.6061 51.1742 90.0147C50.8868 90.4188 50.5636 90.8273 50.2044 91.2404C49.8452 91.6535 49.4703 92.0576 49.0797 92.4527C48.6891 92.8433 48.3097 93.2114 47.9415 93.5571H52.2517V94.5H46.2646Z" fill="#0C1021" fill-opacity="0.5"/>
<path d="M74.1722 94.6751C73.5347 94.6751 72.9353 94.5494 72.3741 94.298C71.8129 94.042 71.319 93.6918 70.8924 93.2473C70.4704 92.7984 70.1382 92.2776 69.8957 91.6849C69.6578 91.0922 69.5388 90.4592 69.5388 89.7857C69.5388 89.1122 69.6578 88.4792 69.8957 87.8865C70.1382 87.2939 70.4704 86.7753 70.8924 86.3308C71.319 85.8818 71.8129 85.5316 72.3741 85.2802C72.9353 85.0243 73.5347 84.8963 74.1722 84.8963C74.9355 84.8963 75.6382 85.0737 76.2802 85.4284C76.9222 85.7831 77.4543 86.2545 77.8763 86.8427L77.0412 87.2939C76.709 86.8494 76.2869 86.4969 75.7751 86.2365C75.2678 85.9716 74.7335 85.8392 74.1722 85.8392C73.6559 85.8392 73.1733 85.9447 72.7243 86.1557C72.2798 86.3622 71.8892 86.6473 71.5524 87.011C71.2157 87.3747 70.9531 87.7945 70.7645 88.2704C70.5759 88.7463 70.4816 89.2514 70.4816 89.7857C70.4816 90.329 70.5759 90.8386 70.7645 91.3145C70.9576 91.7904 71.2224 92.2102 71.5592 92.5739C71.9004 92.9376 72.2933 93.2227 72.7378 93.4292C73.1867 93.6312 73.6649 93.7322 74.1722 93.7322C74.7559 93.7322 75.2969 93.5998 75.7953 93.3349C76.2982 93.0655 76.7135 92.7153 77.0412 92.2843L77.8763 92.7355C77.4543 93.3237 76.9222 93.7951 76.2802 94.1498C75.6382 94.5 74.9355 94.6751 74.1722 94.6751ZM84.4201 87.7653H85.363V94.5H84.4201L84.3865 93.2473C84.1665 93.6739 83.8589 94.0196 83.4638 94.2845C83.0687 94.5449 82.5973 94.6751 82.0495 94.6751C81.5556 94.6751 81.0932 94.5831 80.6622 94.399C80.2312 94.2104 79.8518 93.9522 79.524 93.6245C79.1963 93.2967 78.9403 92.9173 78.7563 92.4863C78.5722 92.0553 78.4801 91.5929 78.4801 91.099C78.4801 90.6141 78.5699 90.1584 78.7495 89.7318C78.9336 89.3053 79.185 88.9304 79.5038 88.6071C79.8271 88.2839 80.1997 88.0324 80.6218 87.8529C81.0483 87.6688 81.504 87.5767 81.9889 87.5767C82.5501 87.5767 83.0395 87.7114 83.4571 87.9808C83.8746 88.2457 84.2069 88.5937 84.4538 89.0247L84.4201 87.7653ZM82.0293 93.7592C82.5097 93.7592 82.9228 93.6424 83.2685 93.409C83.6142 93.171 83.8791 92.8522 84.0632 92.4527C84.2518 92.0531 84.3461 91.6131 84.3461 91.1327C84.3461 90.6388 84.2518 90.1943 84.0632 89.7992C83.8746 89.3996 83.6075 89.0831 83.2618 88.8496C82.9161 88.6161 82.5052 88.4994 82.0293 88.4994C81.5534 88.4994 81.1179 88.6184 80.7228 88.8563C80.3322 89.0898 80.0201 89.4063 79.7867 89.8059C79.5577 90.2055 79.4432 90.6478 79.4432 91.1327C79.4432 91.622 79.5622 92.0665 79.8001 92.4661C80.0381 92.8612 80.3524 93.1755 80.743 93.409C81.1381 93.6424 81.5669 93.7592 82.0293 93.7592ZM86.8027 94.5V84.398H87.7456V94.5H86.8027ZM89.3677 94.5V84.398H90.3106V94.5H89.3677ZM97.2495 94.628C96.8814 94.619 96.5222 94.5516 96.172 94.4259C95.8218 94.3002 95.5165 94.1296 95.256 93.9141C94.9956 93.6986 94.8093 93.4539 94.6971 93.18L95.512 92.8298C95.5838 93.0049 95.7163 93.1665 95.9093 93.3147C96.1069 93.4584 96.3314 93.5751 96.5828 93.6649C96.8342 93.7502 97.0834 93.7929 97.3303 93.7929C97.6042 93.7929 97.8601 93.748 98.0981 93.6582C98.336 93.5684 98.5291 93.4404 98.6773 93.2743C98.8299 93.1037 98.9063 92.9039 98.9063 92.6749C98.9063 92.428 98.8254 92.2349 98.6638 92.0957C98.5022 91.952 98.2979 91.8398 98.0509 91.759C97.804 91.6737 97.5503 91.5929 97.2899 91.5165C96.814 91.3863 96.3942 91.2427 96.0305 91.0855C95.6669 90.9284 95.3818 90.7286 95.1752 90.4861C94.9732 90.2392 94.8722 89.9227 94.8722 89.5365C94.8722 89.128 94.9867 88.7755 95.2156 88.4792C95.4491 88.1784 95.7522 87.9471 96.1248 87.7855C96.502 87.6194 96.9038 87.5363 97.3303 87.5363C97.8781 87.5363 98.3765 87.6553 98.8254 87.8933C99.2789 88.1312 99.6067 88.4478 99.8087 88.8429L99.0477 89.2941C98.9669 89.11 98.8389 88.9506 98.6638 88.8159C98.4887 88.6812 98.2889 88.5757 98.0644 88.4994C97.8444 88.4231 97.6199 88.3827 97.3909 88.3782C97.1036 88.3737 96.8365 88.4163 96.5895 88.5061C96.3426 88.5914 96.1428 88.7194 95.9901 88.89C95.842 89.0606 95.7679 89.2694 95.7679 89.5163C95.7679 89.7633 95.842 89.9518 95.9901 90.082C96.1383 90.2078 96.3381 90.311 96.5895 90.3918C96.8454 90.4682 97.1328 90.558 97.4516 90.6612C97.8601 90.7914 98.244 90.9396 98.6032 91.1057C98.9624 91.2718 99.252 91.4784 99.472 91.7253C99.692 91.9722 99.7997 92.2843 99.7952 92.6614C99.7952 93.0655 99.674 93.418 99.4316 93.7188C99.1891 94.0196 98.8748 94.2508 98.4887 94.4124C98.1026 94.5696 97.6895 94.6414 97.2495 94.628ZM104.398 88.7082H102.788L102.781 94.5H101.838L101.845 88.7082H100.626V87.7653H101.845L101.838 85.6506H102.781L102.788 87.7653H104.398V88.7082ZM110.951 87.7653H111.894V94.5H110.951L110.917 93.2473C110.697 93.6739 110.39 94.0196 109.995 94.2845C109.6 94.5449 109.128 94.6751 108.581 94.6751C108.087 94.6751 107.624 94.5831 107.193 94.399C106.762 94.2104 106.383 93.9522 106.055 93.6245C105.727 93.2967 105.471 92.9173 105.287 92.4863C105.103 92.0553 105.011 91.5929 105.011 91.099C105.011 90.6141 105.101 90.1584 105.281 89.7318C105.465 89.3053 105.716 88.9304 106.035 88.6071C106.358 88.2839 106.731 88.0324 107.153 87.8529C107.579 87.6688 108.035 87.5767 108.52 87.5767C109.081 87.5767 109.571 87.7114 109.988 87.9808C110.406 88.2457 110.738 88.5937 110.985 89.0247L110.951 87.7653ZM108.56 93.7592C109.041 93.7592 109.454 93.6424 109.8 93.409C110.145 93.171 110.41 92.8522 110.594 92.4527C110.783 92.0531 110.877 91.6131 110.877 91.1327C110.877 90.6388 110.783 90.1943 110.594 89.7992C110.406 89.3996 110.138 89.0831 109.793 88.8496C109.447 88.6161 109.036 88.4994 108.56 88.4994C108.084 88.4994 107.649 88.6184 107.254 88.8563C106.863 89.0898 106.551 89.4063 106.318 89.8059C106.089 90.2055 105.974 90.6478 105.974 91.1327C105.974 91.622 106.093 92.0665 106.331 92.4661C106.569 92.8612 106.883 93.1755 107.274 93.409C107.669 93.6424 108.098 93.7592 108.56 93.7592ZM113.242 94.5V87.7653H114.185V88.6947C114.422 88.3535 114.732 88.0818 115.114 87.8798C115.496 87.6778 115.911 87.5767 116.36 87.5767C116.62 87.5767 116.872 87.6104 117.114 87.6778L116.73 88.6139C116.542 88.5555 116.358 88.5263 116.178 88.5263C115.814 88.5263 115.48 88.6161 115.175 88.7957C114.874 88.9753 114.634 89.2155 114.454 89.5163C114.274 89.8171 114.185 90.1516 114.185 90.5198V94.5H113.242ZM121.497 88.7082H119.888L119.881 94.5H118.938L118.945 88.7082H117.726V87.7653H118.945L118.938 85.6506H119.881L119.888 87.7653H121.497V88.7082ZM125.478 94.6751C124.859 94.6751 124.293 94.5157 123.781 94.1969C123.274 93.8782 122.867 93.4516 122.562 92.9173C122.261 92.3786 122.111 91.7837 122.111 91.1327C122.111 90.6388 122.199 90.1786 122.374 89.752C122.549 89.321 122.789 88.9439 123.094 88.6206C123.404 88.2929 123.763 88.0369 124.172 87.8529C124.58 87.6688 125.016 87.5767 125.478 87.5767C125.977 87.5767 126.435 87.6755 126.852 87.8731C127.274 88.0706 127.636 88.3467 127.936 88.7014C128.242 89.0561 128.471 89.4714 128.623 89.9473C128.781 90.4233 128.846 90.9373 128.819 91.4896H123.108C123.162 91.9161 123.296 92.2978 123.512 92.6345C123.732 92.9712 124.01 93.2384 124.347 93.4359C124.688 93.629 125.065 93.7278 125.478 93.7322C125.927 93.7322 126.331 93.6155 126.691 93.382C127.054 93.1486 127.346 92.8276 127.566 92.419L128.522 92.6412C128.253 93.2384 127.847 93.7278 127.303 94.1094C126.76 94.4865 126.152 94.6751 125.478 94.6751ZM123.081 90.7286H127.869C127.838 90.311 127.71 89.9294 127.485 89.5837C127.265 89.2335 126.98 88.9551 126.63 88.7486C126.28 88.5376 125.896 88.432 125.478 88.432C125.061 88.432 124.679 88.5353 124.333 88.7418C123.988 88.9439 123.705 89.22 123.485 89.5702C123.265 89.9159 123.13 90.302 123.081 90.7286ZM135.45 84.398H136.393V94.5H135.45V93.2406C135.217 93.6716 134.896 94.0196 134.487 94.2845C134.083 94.5449 133.603 94.6751 133.046 94.6751C132.556 94.6751 132.098 94.5831 131.672 94.399C131.245 94.2149 130.868 93.9612 130.54 93.638C130.217 93.3102 129.964 92.9331 129.779 92.5065C129.595 92.08 129.503 91.622 129.503 91.1327C129.503 90.6433 129.595 90.1853 129.779 89.7588C129.964 89.3278 130.217 88.9506 130.54 88.6273C130.868 88.2996 131.245 88.0437 131.672 87.8596C132.098 87.6755 132.556 87.5835 133.046 87.5835C133.603 87.5835 134.083 87.7159 134.487 87.9808C134.896 88.2412 135.217 88.5847 135.45 89.0112V84.398ZM133.053 93.7592C133.533 93.7592 133.946 93.6424 134.292 93.409C134.637 93.171 134.902 92.8522 135.086 92.4527C135.275 92.0531 135.369 91.6131 135.369 91.1327C135.369 90.6388 135.275 90.1943 135.086 89.7992C134.898 89.3996 134.631 89.0831 134.285 88.8496C133.939 88.6161 133.528 88.4994 133.053 88.4994C132.577 88.4994 132.143 88.6184 131.753 88.8563C131.362 89.0898 131.05 89.4063 130.817 89.8059C130.583 90.2055 130.466 90.6478 130.466 91.1327C130.466 91.622 130.585 92.0665 130.823 92.4661C131.061 92.8612 131.376 93.1755 131.766 93.409C132.161 93.6424 132.59 93.7592 133.053 93.7592Z" fill="#0C1021"/>
<path d="M25.2423 125.5V117.014H24.2321L24.5015 116.071H26.1852V125.5H25.2423ZM31.2786 125.675C30.7129 125.675 30.2078 125.549 29.7633 125.298C29.3188 125.042 28.9394 124.69 28.6252 124.241C28.3109 123.792 28.0707 123.273 27.9045 122.685C27.7429 122.092 27.6621 121.459 27.6621 120.786C27.6621 120.112 27.7429 119.479 27.9045 118.887C28.0707 118.294 28.3109 117.775 28.6252 117.331C28.9394 116.882 29.3188 116.532 29.7633 116.28C30.2078 116.024 30.7129 115.896 31.2786 115.896C31.8398 115.896 32.3427 116.024 32.7872 116.28C33.2317 116.532 33.6088 116.882 33.9186 117.331C34.2284 117.775 34.4641 118.294 34.6258 118.887C34.7919 119.479 34.875 120.112 34.875 120.786C34.875 121.459 34.7919 122.092 34.6258 122.685C34.4641 123.273 34.2284 123.792 33.9186 124.241C33.6088 124.69 33.2317 125.042 32.7872 125.298C32.3427 125.549 31.8398 125.675 31.2786 125.675ZM31.2786 124.732C31.8713 124.732 32.3674 124.55 32.767 124.187C33.1711 123.823 33.4741 123.343 33.6762 122.746C33.8782 122.144 33.9792 121.491 33.9792 120.786C33.9792 120.04 33.8737 119.371 33.6627 118.779C33.4562 118.182 33.1509 117.71 32.7468 117.364C32.3472 117.014 31.8578 116.839 31.2786 116.839C30.8207 116.839 30.4211 116.945 30.0798 117.156C29.7386 117.367 29.4558 117.656 29.2313 118.024C29.0068 118.393 28.8384 118.815 28.7262 119.291C28.6139 119.762 28.5578 120.26 28.5578 120.786C28.5578 121.495 28.6611 122.151 28.8676 122.752C29.0741 123.349 29.3794 123.83 29.7835 124.193C30.1876 124.553 30.686 124.732 31.2786 124.732ZM36.3526 119.843C36.2044 119.843 36.0787 119.791 35.9754 119.688C35.8722 119.58 35.8205 119.45 35.8205 119.297C35.8205 119.154 35.8722 119.03 35.9754 118.927C36.0787 118.819 36.2044 118.765 36.3526 118.765C36.5052 118.765 36.6332 118.819 36.7365 118.927C36.8442 119.03 36.8981 119.154 36.8981 119.297C36.8981 119.45 36.8442 119.58 36.7365 119.688C36.6332 119.791 36.5052 119.843 36.3526 119.843ZM36.3526 125.675C36.2044 125.675 36.0787 125.621 35.9754 125.513C35.8722 125.41 35.8205 125.282 35.8205 125.13C35.8205 124.986 35.8722 124.862 35.9754 124.759C36.0787 124.651 36.2044 124.598 36.3526 124.598C36.5052 124.598 36.6332 124.651 36.7365 124.759C36.8442 124.862 36.8981 124.986 36.8981 125.13C36.8981 125.282 36.8442 125.41 36.7365 125.513C36.6332 125.621 36.5052 125.675 36.3526 125.675ZM41.7227 125.675C41.1569 125.675 40.6518 125.549 40.2074 125.298C39.7629 125.042 39.3835 124.69 39.0692 124.241C38.7549 123.792 38.5147 123.273 38.3486 122.685C38.1869 122.092 38.1061 121.459 38.1061 120.786C38.1061 120.112 38.1869 119.479 38.3486 118.887C38.5147 118.294 38.7549 117.775 39.0692 117.331C39.3835 116.882 39.7629 116.532 40.2074 116.28C40.6518 116.024 41.1569 115.896 41.7227 115.896C42.2839 115.896 42.7867 116.024 43.2312 116.28C43.6757 116.532 44.0529 116.882 44.3627 117.331C44.6725 117.775 44.9082 118.294 45.0698 118.887C45.2359 119.479 45.319 120.112 45.319 120.786C45.319 121.459 45.2359 122.092 45.0698 122.685C44.9082 123.273 44.6725 123.792 44.3627 124.241C44.0529 124.69 43.6757 125.042 43.2312 125.298C42.7867 125.549 42.2839 125.675 41.7227 125.675ZM41.7227 124.732C42.3153 124.732 42.8114 124.55 43.211 124.187C43.6151 123.823 43.9182 123.343 44.1202 122.746C44.3223 122.144 44.4233 121.491 44.4233 120.786C44.4233 120.04 44.3178 119.371 44.1067 118.779C43.9002 118.182 43.5949 117.71 43.1908 117.364C42.7912 117.014 42.3018 116.839 41.7227 116.839C41.2647 116.839 40.8651 116.945 40.5239 117.156C40.1827 117.367 39.8998 117.656 39.6753 118.024C39.4508 118.393 39.2825 118.815 39.1702 119.291C39.058 119.762 39.0018 120.26 39.0018 120.786C39.0018 121.495 39.1051 122.151 39.3116 122.752C39.5182 123.349 39.8235 123.83 40.2276 124.193C40.6316 124.553 41.13 124.732 41.7227 124.732ZM49.2885 125.675C48.7138 125.675 48.1907 125.536 47.7193 125.258C47.2523 124.979 46.8819 124.607 46.6081 124.14C46.3342 123.668 46.1972 123.152 46.1972 122.591H47.1401C47.1401 122.981 47.2366 123.34 47.4297 123.668C47.6227 123.991 47.8809 124.25 48.2042 124.443C48.5319 124.636 48.8934 124.732 49.2885 124.732C49.6791 124.732 50.036 124.636 50.3593 124.443C50.6825 124.25 50.9407 123.991 51.1338 123.668C51.3313 123.34 51.4301 122.981 51.4301 122.591C51.4301 122.196 51.3358 121.836 51.1472 121.513C50.9632 121.185 50.7005 120.925 50.3593 120.732C50.0225 120.534 49.6207 120.436 49.1538 120.436H46.864L47.753 116.071H52.1642V117.014H48.514L48.0223 119.493L49.1201 119.499C49.7621 119.508 50.3256 119.645 50.8105 119.91C51.2999 120.175 51.6815 120.539 51.9554 121.001C52.2338 121.459 52.373 121.989 52.373 122.591C52.373 123.013 52.2921 123.41 52.1305 123.783C51.9734 124.155 51.7511 124.485 51.4638 124.773C51.1809 125.056 50.8532 125.278 50.4805 125.439C50.1123 125.597 49.715 125.675 49.2885 125.675Z" fill="#0C1021" fill-opacity="0.5"/>
<path d="M69.8082 125.5V116.071H72.8253C73.3282 116.071 73.7816 116.195 74.1857 116.442C74.5898 116.684 74.9108 117.014 75.1488 117.432C75.3912 117.845 75.5125 118.31 75.5125 118.826C75.5125 119.347 75.389 119.816 75.142 120.233C74.8996 120.651 74.5741 120.981 74.1655 121.223C73.7614 121.466 73.3147 121.587 72.8253 121.587H70.751V125.5H69.8082ZM70.751 120.644H72.7512C73.0835 120.644 73.3865 120.563 73.6604 120.402C73.9388 120.236 74.1588 120.013 74.3204 119.735C74.4865 119.452 74.5696 119.133 74.5696 118.779C74.5696 118.424 74.4865 118.108 74.3204 117.829C74.1588 117.546 73.9388 117.324 73.6604 117.162C73.3865 116.996 73.0835 116.913 72.7512 116.913H70.751V120.644ZM81.842 118.765H82.7849V125.5H81.842L81.8083 124.247C81.5883 124.674 81.2808 125.02 80.8857 125.284C80.4906 125.545 80.0192 125.675 79.4714 125.675C78.9775 125.675 78.5151 125.583 78.0841 125.399C77.653 125.21 77.2736 124.952 76.9459 124.624C76.6181 124.297 76.3622 123.917 76.1781 123.486C75.9941 123.055 75.902 122.593 75.902 122.099C75.902 121.614 75.9918 121.158 76.1714 120.732C76.3555 120.305 76.6069 119.93 76.9257 119.607C77.2489 119.284 77.6216 119.032 78.0436 118.853C78.4702 118.669 78.9259 118.577 79.4108 118.577C79.972 118.577 80.4614 118.711 80.8789 118.981C81.2965 119.246 81.6287 119.594 81.8757 120.025L81.842 118.765ZM79.4512 124.759C79.9316 124.759 80.3447 124.642 80.6904 124.409C81.0361 124.171 81.301 123.852 81.4851 123.453C81.6736 123.053 81.7679 122.613 81.7679 122.133C81.7679 121.639 81.6736 121.194 81.4851 120.799C81.2965 120.4 81.0294 120.083 80.6836 119.85C80.3379 119.616 79.9271 119.499 79.4512 119.499C78.9753 119.499 78.5398 119.618 78.1447 119.856C77.7541 120.09 77.442 120.406 77.2085 120.806C76.9796 121.206 76.8651 121.648 76.8651 122.133C76.8651 122.622 76.9841 123.067 77.222 123.466C77.46 123.861 77.7743 124.176 78.1649 124.409C78.56 124.642 78.9887 124.759 79.4512 124.759ZM88.588 118.765H89.5847L85.9008 128.867H84.8974L86.1231 125.5L83.7053 118.765H84.7357L86.5945 124.2L88.588 118.765ZM90.8146 125.5V118.765H91.7575V119.695C91.9999 119.353 92.3097 119.082 92.6869 118.88C93.064 118.678 93.4771 118.577 93.9261 118.577C94.4334 118.577 94.8981 118.702 95.3201 118.954C95.7422 119.201 96.0722 119.531 96.3101 119.944C96.5481 119.531 96.8758 119.201 97.2934 118.954C97.7109 118.702 98.1734 118.577 98.6807 118.577C99.1881 118.577 99.6505 118.7 100.068 118.947C100.486 119.194 100.818 119.526 101.065 119.944C101.312 120.361 101.435 120.824 101.435 121.331V125.5H100.492V121.54C100.492 121.181 100.405 120.849 100.23 120.543C100.055 120.238 99.8189 119.993 99.5226 119.809C99.2307 119.621 98.9052 119.526 98.5461 119.526C98.1869 119.526 97.8591 119.614 97.5628 119.789C97.2709 119.96 97.0375 120.198 96.8624 120.503C96.6873 120.804 96.5997 121.149 96.5997 121.54V125.5H95.6569V121.54C95.6569 121.149 95.5693 120.804 95.3942 120.503C95.2191 120.198 94.9834 119.96 94.6871 119.789C94.3907 119.614 94.063 119.526 93.7038 119.526C93.3491 119.526 93.0236 119.621 92.7273 119.809C92.4309 119.993 92.1952 120.238 92.0201 120.543C91.845 120.849 91.7575 121.181 91.7575 121.54V125.5H90.8146ZM105.616 125.675C104.997 125.675 104.431 125.516 103.919 125.197C103.412 124.878 103.005 124.452 102.7 123.917C102.399 123.379 102.249 122.784 102.249 122.133C102.249 121.639 102.336 121.179 102.512 120.752C102.687 120.321 102.927 119.944 103.232 119.621C103.542 119.293 103.901 119.037 104.31 118.853C104.718 118.669 105.154 118.577 105.616 118.577C106.115 118.577 106.573 118.676 106.99 118.873C107.412 119.071 107.774 119.347 108.074 119.701C108.38 120.056 108.609 120.471 108.761 120.947C108.918 121.423 108.984 121.937 108.957 122.49H103.246C103.299 122.916 103.434 123.298 103.65 123.634C103.87 123.971 104.148 124.238 104.485 124.436C104.826 124.629 105.203 124.728 105.616 124.732C106.065 124.732 106.469 124.616 106.828 124.382C107.192 124.149 107.484 123.828 107.704 123.419L108.66 123.641C108.391 124.238 107.985 124.728 107.441 125.109C106.898 125.487 106.29 125.675 105.616 125.675ZM103.219 121.729H108.007C107.976 121.311 107.848 120.929 107.623 120.584C107.403 120.233 107.118 119.955 106.768 119.749C106.418 119.538 106.034 119.432 105.616 119.432C105.199 119.432 104.817 119.535 104.471 119.742C104.126 119.944 103.843 120.22 103.623 120.57C103.403 120.916 103.268 121.302 103.219 121.729ZM115.984 121.331V125.5H115.041V121.52C115.041 121.152 114.951 120.817 114.772 120.516C114.592 120.216 114.352 119.975 114.051 119.796C113.75 119.616 113.416 119.526 113.047 119.526C112.684 119.526 112.349 119.616 112.044 119.796C111.743 119.975 111.503 120.216 111.323 120.516C111.144 120.817 111.054 121.152 111.054 121.52V125.5H110.111V118.765H111.054V119.695C111.292 119.353 111.602 119.082 111.983 118.88C112.365 118.678 112.78 118.577 113.229 118.577C113.737 118.577 114.199 118.7 114.617 118.947C115.034 119.194 115.366 119.526 115.613 119.944C115.86 120.361 115.984 120.824 115.984 121.331ZM120.774 119.708H119.164L119.158 125.5H118.215L118.221 119.708H117.002V118.765H118.221L118.215 116.651H119.158L119.164 118.765H120.774V119.708ZM126.154 128.867H125.212V118.765H126.154V120.025C126.388 119.598 126.707 119.252 127.111 118.988C127.515 118.723 127.995 118.59 128.552 118.59C129.041 118.59 129.499 118.682 129.926 118.866C130.357 119.05 130.734 119.306 131.057 119.634C131.381 119.957 131.634 120.332 131.818 120.759C132.002 121.185 132.094 121.643 132.094 122.133C132.094 122.622 132.002 123.082 131.818 123.513C131.634 123.944 131.381 124.324 131.057 124.651C130.734 124.975 130.357 125.228 129.926 125.412C129.499 125.597 129.041 125.689 128.552 125.689C127.995 125.689 127.515 125.556 127.111 125.291C126.707 125.026 126.388 124.681 126.154 124.254V128.867ZM128.545 119.506C128.074 119.506 127.663 119.625 127.313 119.863C126.967 120.097 126.7 120.411 126.511 120.806C126.323 121.201 126.228 121.643 126.228 122.133C126.228 122.613 126.321 123.053 126.505 123.453C126.693 123.852 126.96 124.171 127.306 124.409C127.656 124.647 128.069 124.766 128.545 124.766C129.012 124.766 129.441 124.649 129.832 124.416C130.227 124.182 130.543 123.868 130.781 123.473C131.019 123.073 131.138 122.627 131.138 122.133C131.138 121.652 131.021 121.214 130.788 120.819C130.554 120.42 130.242 120.101 129.852 119.863C129.461 119.625 129.026 119.506 128.545 119.506ZM133.183 125.5V115.398H134.126V125.5H133.183ZM141.231 118.765H142.174V125.5H141.231L141.197 124.247C140.977 124.674 140.67 125.02 140.275 125.284C139.88 125.545 139.408 125.675 138.86 125.675C138.366 125.675 137.904 125.583 137.473 125.399C137.042 125.21 136.663 124.952 136.335 124.624C136.007 124.297 135.751 123.917 135.567 123.486C135.383 123.055 135.291 122.593 135.291 122.099C135.291 121.614 135.381 121.158 135.56 120.732C135.744 120.305 135.996 119.93 136.315 119.607C136.638 119.284 137.011 119.032 137.433 118.853C137.859 118.669 138.315 118.577 138.8 118.577C139.361 118.577 139.85 118.711 140.268 118.981C140.685 119.246 141.018 119.594 141.265 120.025L141.231 118.765ZM138.84 124.759C139.321 124.759 139.734 124.642 140.079 124.409C140.425 124.171 140.69 123.852 140.874 123.453C141.063 123.053 141.157 122.613 141.157 122.133C141.157 121.639 141.063 121.194 140.874 120.799C140.685 120.4 140.418 120.083 140.073 119.85C139.727 119.616 139.316 119.499 138.84 119.499C138.364 119.499 137.929 119.618 137.534 119.856C137.143 120.09 136.831 120.406 136.597 120.806C136.369 121.206 136.254 121.648 136.254 122.133C136.254 122.622 136.373 123.067 136.611 123.466C136.849 123.861 137.163 124.176 137.554 124.409C137.949 124.642 138.378 124.759 138.84 124.759ZM149.394 121.331V125.5H148.451V121.52C148.451 121.152 148.361 120.817 148.182 120.516C148.002 120.216 147.762 119.975 147.461 119.796C147.16 119.616 146.826 119.526 146.458 119.526C146.094 119.526 145.76 119.616 145.454 119.796C145.154 119.975 144.913 120.216 144.734 120.516C144.554 120.817 144.464 121.152 144.464 121.52V125.5H143.521V118.765H144.464V119.695C144.702 119.353 145.012 119.082 145.394 118.88C145.775 118.678 146.191 118.577 146.64 118.577C147.147 118.577 147.609 118.7 148.027 118.947C148.445 119.194 148.777 119.526 149.024 119.944C149.271 120.361 149.394 120.824 149.394 121.331ZM159.521 115.398H160.464V125.5H159.521V124.241C159.288 124.672 158.967 125.02 158.558 125.284C158.154 125.545 157.674 125.675 157.117 125.675C156.628 125.675 156.17 125.583 155.743 125.399C155.317 125.215 154.94 124.961 154.612 124.638C154.288 124.31 154.035 123.933 153.851 123.507C153.667 123.08 153.575 122.622 153.575 122.133C153.575 121.643 153.667 121.185 153.851 120.759C154.035 120.328 154.288 119.951 154.612 119.627C154.94 119.3 155.317 119.044 155.743 118.86C156.17 118.676 156.628 118.583 157.117 118.583C157.674 118.583 158.154 118.716 158.558 118.981C158.967 119.241 159.288 119.585 159.521 120.011V115.398ZM157.124 124.759C157.604 124.759 158.017 124.642 158.363 124.409C158.709 124.171 158.974 123.852 159.158 123.453C159.346 123.053 159.441 122.613 159.441 122.133C159.441 121.639 159.346 121.194 159.158 120.799C158.969 120.4 158.702 120.083 158.356 119.85C158.011 119.616 157.6 119.499 157.124 119.499C156.648 119.499 156.215 119.618 155.824 119.856C155.433 120.09 155.121 120.406 154.888 120.806C154.654 121.206 154.538 121.648 154.538 122.133C154.538 122.622 154.657 123.067 154.895 123.466C155.133 123.861 155.447 124.176 155.837 124.409C156.233 124.642 156.661 124.759 157.124 124.759ZM162.081 118.765H163.024V125.5H162.081V118.765ZM162.56 117.587C162.407 117.587 162.277 117.537 162.169 117.439C162.066 117.335 162.014 117.207 162.014 117.055C162.014 116.902 162.066 116.776 162.169 116.678C162.277 116.574 162.407 116.523 162.56 116.523C162.708 116.523 162.833 116.574 162.937 116.678C163.044 116.776 163.098 116.902 163.098 117.055C163.098 117.207 163.047 117.335 162.943 117.439C162.84 117.537 162.712 117.587 162.56 117.587ZM166.675 125.628C166.307 125.619 165.947 125.552 165.597 125.426C165.247 125.3 164.942 125.13 164.681 124.914C164.421 124.699 164.235 124.454 164.122 124.18L164.937 123.83C165.009 124.005 165.141 124.167 165.335 124.315C165.532 124.458 165.757 124.575 166.008 124.665C166.259 124.75 166.509 124.793 166.756 124.793C167.029 124.793 167.285 124.748 167.523 124.658C167.761 124.568 167.954 124.44 168.102 124.274C168.255 124.104 168.331 123.904 168.331 123.675C168.331 123.428 168.251 123.235 168.089 123.096C167.927 122.952 167.723 122.84 167.476 122.759C167.229 122.674 166.976 122.593 166.715 122.517C166.239 122.386 165.819 122.243 165.456 122.086C165.092 121.928 164.807 121.729 164.6 121.486C164.398 121.239 164.297 120.923 164.297 120.537C164.297 120.128 164.412 119.776 164.641 119.479C164.874 119.178 165.177 118.947 165.55 118.786C165.927 118.619 166.329 118.536 166.756 118.536C167.303 118.536 167.802 118.655 168.251 118.893C168.704 119.131 169.032 119.448 169.234 119.843L168.473 120.294C168.392 120.11 168.264 119.951 168.089 119.816C167.914 119.681 167.714 119.576 167.49 119.499C167.27 119.423 167.045 119.383 166.816 119.378C166.529 119.374 166.262 119.416 166.015 119.506C165.768 119.591 165.568 119.719 165.415 119.89C165.267 120.061 165.193 120.269 165.193 120.516C165.193 120.763 165.267 120.952 165.415 121.082C165.564 121.208 165.763 121.311 166.015 121.392C166.271 121.468 166.558 121.558 166.877 121.661C167.285 121.791 167.669 121.94 168.028 122.106C168.388 122.272 168.677 122.478 168.897 122.725C169.117 122.972 169.225 123.284 169.22 123.661C169.22 124.066 169.099 124.418 168.857 124.719C168.614 125.02 168.3 125.251 167.914 125.412C167.528 125.57 167.115 125.641 166.675 125.628ZM175.137 123.81L175.979 124.268C175.674 124.694 175.285 125.035 174.814 125.291C174.347 125.547 173.84 125.675 173.292 125.675C172.672 125.675 172.107 125.516 171.595 125.197C171.088 124.878 170.681 124.452 170.376 123.917C170.075 123.379 169.925 122.784 169.925 122.133C169.925 121.639 170.012 121.179 170.187 120.752C170.362 120.321 170.603 119.944 170.908 119.621C171.218 119.293 171.577 119.037 171.985 118.853C172.394 118.669 172.83 118.577 173.292 118.577C173.84 118.577 174.347 118.705 174.814 118.961C175.285 119.217 175.674 119.56 175.979 119.991L175.137 120.442C174.904 120.146 174.623 119.919 174.295 119.762C173.968 119.6 173.633 119.52 173.292 119.52C172.839 119.52 172.428 119.641 172.06 119.883C171.691 120.121 171.4 120.438 171.184 120.833C170.973 121.228 170.868 121.661 170.868 122.133C170.868 122.604 170.975 123.037 171.191 123.432C171.411 123.828 171.705 124.144 172.073 124.382C172.441 124.616 172.848 124.732 173.292 124.732C173.66 124.732 174.006 124.647 174.329 124.476C174.652 124.306 174.922 124.083 175.137 123.81ZM176.86 122.921V118.765H177.803V122.732C177.803 123.1 177.892 123.435 178.072 123.736C178.252 124.036 178.492 124.277 178.793 124.456C179.098 124.636 179.432 124.726 179.796 124.726C180.164 124.726 180.497 124.636 180.793 124.456C181.094 124.277 181.334 124.036 181.513 123.736C181.693 123.435 181.783 123.1 181.783 122.732V118.765H182.726L182.732 125.5H181.79L181.783 124.557C181.545 124.898 181.235 125.17 180.853 125.372C180.476 125.574 180.063 125.675 179.614 125.675C179.107 125.675 178.645 125.552 178.227 125.305C177.809 125.058 177.477 124.726 177.23 124.308C176.983 123.89 176.86 123.428 176.86 122.921ZM186.155 125.628C185.787 125.619 185.428 125.552 185.078 125.426C184.728 125.3 184.422 125.13 184.162 124.914C183.901 124.699 183.715 124.454 183.603 124.18L184.418 123.83C184.49 124.005 184.622 124.167 184.815 124.315C185.013 124.458 185.237 124.575 185.489 124.665C185.74 124.75 185.989 124.793 186.236 124.793C186.51 124.793 186.766 124.748 187.004 124.658C187.242 124.568 187.435 124.44 187.583 124.274C187.736 124.104 187.812 123.904 187.812 123.675C187.812 123.428 187.731 123.235 187.57 123.096C187.408 122.952 187.204 122.84 186.957 122.759C186.71 122.674 186.456 122.593 186.196 122.517C185.72 122.386 185.3 122.243 184.936 122.086C184.573 121.928 184.288 121.729 184.081 121.486C183.879 121.239 183.778 120.923 183.778 120.537C183.778 120.128 183.893 119.776 184.121 119.479C184.355 119.178 184.658 118.947 185.031 118.786C185.408 118.619 185.81 118.536 186.236 118.536C186.784 118.536 187.282 118.655 187.731 118.893C188.185 119.131 188.513 119.448 188.715 119.843L187.954 120.294C187.873 120.11 187.745 119.951 187.57 119.816C187.395 119.681 187.195 119.576 186.97 119.499C186.75 119.423 186.526 119.383 186.297 119.378C186.009 119.374 185.742 119.416 185.495 119.506C185.248 119.591 185.049 119.719 184.896 119.89C184.748 120.061 184.674 120.269 184.674 120.516C184.674 120.763 184.748 120.952 184.896 121.082C185.044 121.208 185.244 121.311 185.495 121.392C185.751 121.468 186.039 121.558 186.357 121.661C186.766 121.791 187.15 121.94 187.509 122.106C187.868 122.272 188.158 122.478 188.378 122.725C188.598 122.972 188.706 123.284 188.701 123.661C188.701 124.066 188.58 124.418 188.337 124.719C188.095 125.02 187.781 125.251 187.395 125.412C187.008 125.57 186.595 125.641 186.155 125.628ZM191.943 125.628C191.575 125.619 191.216 125.552 190.865 125.426C190.515 125.3 190.21 125.13 189.95 124.914C189.689 124.699 189.503 124.454 189.391 124.18L190.205 123.83C190.277 124.005 190.41 124.167 190.603 124.315C190.8 124.458 191.025 124.575 191.276 124.665C191.528 124.75 191.777 124.793 192.024 124.793C192.298 124.793 192.554 124.748 192.792 124.658C193.03 124.568 193.223 124.44 193.371 124.274C193.523 124.104 193.6 123.904 193.6 123.675C193.6 123.428 193.519 123.235 193.357 123.096C193.196 122.952 192.991 122.84 192.744 122.759C192.497 122.674 192.244 122.593 191.983 122.517C191.507 122.386 191.088 122.243 190.724 122.086C190.36 121.928 190.075 121.729 189.869 121.486C189.667 121.239 189.566 120.923 189.566 120.537C189.566 120.128 189.68 119.776 189.909 119.479C190.143 119.178 190.446 118.947 190.818 118.786C191.195 118.619 191.597 118.536 192.024 118.536C192.572 118.536 193.07 118.655 193.519 118.893C193.972 119.131 194.3 119.448 194.502 119.843L193.741 120.294C193.66 120.11 193.532 119.951 193.357 119.816C193.182 119.681 192.982 119.576 192.758 119.499C192.538 119.423 192.313 119.383 192.084 119.378C191.797 119.374 191.53 119.416 191.283 119.506C191.036 119.591 190.836 119.719 190.684 119.89C190.535 120.061 190.461 120.269 190.461 120.516C190.461 120.763 190.535 120.952 190.684 121.082C190.832 121.208 191.032 121.311 191.283 121.392C191.539 121.468 191.826 121.558 192.145 121.661C192.554 121.791 192.937 121.94 193.297 122.106C193.656 122.272 193.945 122.478 194.165 122.725C194.385 122.972 194.493 123.284 194.489 123.661C194.489 124.066 194.367 124.418 194.125 124.719C193.883 125.02 193.568 125.251 193.182 125.412C192.796 125.57 192.383 125.641 191.943 125.628ZM198.56 125.675C197.941 125.675 197.375 125.516 196.863 125.197C196.356 124.878 195.949 124.452 195.644 123.917C195.343 123.379 195.193 122.784 195.193 122.133C195.193 121.639 195.28 121.179 195.456 120.752C195.631 120.321 195.871 119.944 196.176 119.621C196.486 119.293 196.845 119.037 197.254 118.853C197.662 118.669 198.098 118.577 198.56 118.577C199.059 118.577 199.517 118.676 199.934 118.873C200.356 119.071 200.718 119.347 201.018 119.701C201.324 120.056 201.553 120.471 201.705 120.947C201.863 121.423 201.928 121.937 201.901 122.49H196.19C196.244 122.916 196.378 123.298 196.594 123.634C196.814 123.971 197.092 124.238 197.429 124.436C197.77 124.629 198.147 124.728 198.56 124.732C199.009 124.732 199.413 124.616 199.773 124.382C200.136 124.149 200.428 123.828 200.648 123.419L201.604 123.641C201.335 124.238 200.929 124.728 200.385 125.109C199.842 125.487 199.234 125.675 198.56 125.675ZM196.163 121.729H200.951C200.92 121.311 200.792 120.929 200.567 120.584C200.347 120.233 200.062 119.955 199.712 119.749C199.362 119.538 198.978 119.432 198.56 119.432C198.143 119.432 197.761 119.535 197.415 119.742C197.07 119.944 196.787 120.22 196.567 120.57C196.347 120.916 196.212 121.302 196.163 121.729ZM208.532 115.398H209.475V125.5H208.532V124.241C208.299 124.672 207.978 125.02 207.569 125.284C207.165 125.545 206.684 125.675 206.128 125.675C205.638 125.675 205.18 125.583 204.754 125.399C204.327 125.215 203.95 124.961 203.622 124.638C203.299 124.31 203.045 123.933 202.861 123.507C202.677 123.08 202.585 122.622 202.585 122.133C202.585 121.643 202.677 121.185 202.861 120.759C203.045 120.328 203.299 119.951 203.622 119.627C203.95 119.3 204.327 119.044 204.754 118.86C205.18 118.676 205.638 118.583 206.128 118.583C206.684 118.583 207.165 118.716 207.569 118.981C207.978 119.241 208.299 119.585 208.532 120.011V115.398ZM206.134 124.759C206.615 124.759 207.028 124.642 207.374 124.409C207.719 124.171 207.984 123.852 208.168 123.453C208.357 123.053 208.451 122.613 208.451 122.133C208.451 121.639 208.357 121.194 208.168 120.799C207.98 120.4 207.713 120.083 207.367 119.85C207.021 119.616 206.61 119.499 206.134 119.499C205.659 119.499 205.225 119.618 204.835 119.856C204.444 120.09 204.132 120.406 203.899 120.806C203.665 121.206 203.548 121.648 203.548 122.133C203.548 122.622 203.667 123.067 203.905 123.466C204.143 123.861 204.458 124.176 204.848 124.409C205.243 124.642 205.672 124.759 206.134 124.759Z" fill="#0C1021"/>
<path d="M25.2423 156.5V148.014H24.2321L24.5015 147.071H26.1852V156.5H25.2423ZM31.2786 156.675C30.7129 156.675 30.2078 156.549 29.7633 156.298C29.3188 156.042 28.9394 155.69 28.6252 155.241C28.3109 154.792 28.0707 154.273 27.9045 153.685C27.7429 153.092 27.6621 152.459 27.6621 151.786C27.6621 151.112 27.7429 150.479 27.9045 149.887C28.0707 149.294 28.3109 148.775 28.6252 148.331C28.9394 147.882 29.3188 147.532 29.7633 147.28C30.2078 147.024 30.7129 146.896 31.2786 146.896C31.8398 146.896 32.3427 147.024 32.7872 147.28C33.2317 147.532 33.6088 147.882 33.9186 148.331C34.2284 148.775 34.4641 149.294 34.6258 149.887C34.7919 150.479 34.875 151.112 34.875 151.786C34.875 152.459 34.7919 153.092 34.6258 153.685C34.4641 154.273 34.2284 154.792 33.9186 155.241C33.6088 155.69 33.2317 156.042 32.7872 156.298C32.3427 156.549 31.8398 156.675 31.2786 156.675ZM31.2786 155.732C31.8713 155.732 32.3674 155.55 32.767 155.187C33.1711 154.823 33.4741 154.343 33.6762 153.746C33.8782 153.144 33.9792 152.491 33.9792 151.786C33.9792 151.04 33.8737 150.371 33.6627 149.779C33.4562 149.182 33.1509 148.71 32.7468 148.364C32.3472 148.014 31.8578 147.839 31.2786 147.839C30.8207 147.839 30.4211 147.945 30.0798 148.156C29.7386 148.367 29.4558 148.656 29.2313 149.024C29.0068 149.393 28.8384 149.815 28.7262 150.291C28.6139 150.762 28.5578 151.26 28.5578 151.786C28.5578 152.495 28.6611 153.151 28.8676 153.752C29.0741 154.349 29.3794 154.83 29.7835 155.193C30.1876 155.553 30.686 155.732 31.2786 155.732ZM36.3526 150.843C36.2044 150.843 36.0787 150.791 35.9754 150.688C35.8722 150.58 35.8205 150.45 35.8205 150.297C35.8205 150.154 35.8722 150.03 35.9754 149.927C36.0787 149.819 36.2044 149.765 36.3526 149.765C36.5052 149.765 36.6332 149.819 36.7365 149.927C36.8442 150.03 36.8981 150.154 36.8981 150.297C36.8981 150.45 36.8442 150.58 36.7365 150.688C36.6332 150.791 36.5052 150.843 36.3526 150.843ZM36.3526 156.675C36.2044 156.675 36.0787 156.621 35.9754 156.513C35.8722 156.41 35.8205 156.282 35.8205 156.13C35.8205 155.986 35.8722 155.862 35.9754 155.759C36.0787 155.651 36.2044 155.598 36.3526 155.598C36.5052 155.598 36.6332 155.651 36.7365 155.759C36.8442 155.862 36.8981 155.986 36.8981 156.13C36.8981 156.282 36.8442 156.41 36.7365 156.513C36.6332 156.621 36.5052 156.675 36.3526 156.675ZM41.7227 156.675C41.1569 156.675 40.6518 156.549 40.2074 156.298C39.7629 156.042 39.3835 155.69 39.0692 155.241C38.7549 154.792 38.5147 154.273 38.3486 153.685C38.1869 153.092 38.1061 152.459 38.1061 151.786C38.1061 151.112 38.1869 150.479 38.3486 149.887C38.5147 149.294 38.7549 148.775 39.0692 148.331C39.3835 147.882 39.7629 147.532 40.2074 147.28C40.6518 147.024 41.1569 146.896 41.7227 146.896C42.2839 146.896 42.7867 147.024 43.2312 147.28C43.6757 147.532 44.0529 147.882 44.3627 148.331C44.6725 148.775 44.9082 149.294 45.0698 149.887C45.2359 150.479 45.319 151.112 45.319 151.786C45.319 152.459 45.2359 153.092 45.0698 153.685C44.9082 154.273 44.6725 154.792 44.3627 155.241C44.0529 155.69 43.6757 156.042 43.2312 156.298C42.7867 156.549 42.2839 156.675 41.7227 156.675ZM41.7227 155.732C42.3153 155.732 42.8114 155.55 43.211 155.187C43.6151 154.823 43.9182 154.343 44.1202 153.746C44.3223 153.144 44.4233 152.491 44.4233 151.786C44.4233 151.04 44.3178 150.371 44.1067 149.779C43.9002 149.182 43.5949 148.71 43.1908 148.364C42.7912 148.014 42.3018 147.839 41.7227 147.839C41.2647 147.839 40.8651 147.945 40.5239 148.156C40.1827 148.367 39.8998 148.656 39.6753 149.024C39.4508 149.393 39.2825 149.815 39.1702 150.291C39.058 150.762 39.0018 151.26 39.0018 151.786C39.0018 152.495 39.1051 153.151 39.3116 153.752C39.5182 154.349 39.8235 154.83 40.2276 155.193C40.6316 155.553 41.13 155.732 41.7227 155.732ZM49.2885 156.675C48.7138 156.675 48.1907 156.536 47.7193 156.258C47.2523 155.979 46.8819 155.607 46.6081 155.14C46.3342 154.668 46.1972 154.152 46.1972 153.591H47.1401C47.1401 153.981 47.2366 154.34 47.4297 154.668C47.6227 154.991 47.8809 155.25 48.2042 155.443C48.5319 155.636 48.8934 155.732 49.2885 155.732C49.6791 155.732 50.036 155.636 50.3593 155.443C50.6825 155.25 50.9407 154.991 51.1338 154.668C51.3313 154.34 51.4301 153.981 51.4301 153.591C51.4301 153.196 51.3358 152.836 51.1472 152.513C50.9632 152.185 50.7005 151.925 50.3593 151.732C50.0225 151.534 49.6207 151.436 49.1538 151.436H46.864L47.753 147.071H52.1642V148.014H48.514L48.0223 150.493L49.1201 150.499C49.7621 150.508 50.3256 150.645 50.8105 150.91C51.2999 151.175 51.6815 151.539 51.9554 152.001C52.2338 152.459 52.373 152.989 52.373 153.591C52.373 154.013 52.2921 154.41 52.1305 154.783C51.9734 155.155 51.7511 155.485 51.4638 155.773C51.1809 156.056 50.8532 156.278 50.4805 156.439C50.1123 156.597 49.715 156.675 49.2885 156.675Z" fill="#0C1021" fill-opacity="0.5"/>
<path d="M69.8082 156.5V147.071H70.8318L75.8088 154.796V147.071H76.7516V156.5H75.7347L70.751 148.775V156.5H69.8082ZM81.2819 156.675C80.6623 156.675 80.0966 156.516 79.5847 156.197C79.0774 155.878 78.6711 155.452 78.3657 154.917C78.0649 154.379 77.9145 153.784 77.9145 153.133C77.9145 152.639 78.0021 152.179 78.1772 151.752C78.3523 151.321 78.5925 150.944 78.8978 150.621C79.2076 150.293 79.5668 150.037 79.9753 149.853C80.3839 149.669 80.8194 149.577 81.2819 149.577C81.9015 149.577 82.4649 149.736 82.9723 150.055C83.4841 150.374 83.8904 150.802 84.1913 151.341C84.4966 151.88 84.6492 152.477 84.6492 153.133C84.6492 153.622 84.5617 154.08 84.3866 154.507C84.2115 154.933 83.969 155.31 83.6592 155.638C83.3539 155.961 82.997 156.215 82.5884 156.399C82.1843 156.583 81.7488 156.675 81.2819 156.675ZM81.2819 155.732C81.7398 155.732 82.1506 155.613 82.5143 155.375C82.8825 155.133 83.1721 154.814 83.3831 154.419C83.5986 154.024 83.7064 153.595 83.7064 153.133C83.7064 152.661 83.5986 152.228 83.3831 151.833C83.1676 151.433 82.8758 151.114 82.5076 150.877C82.1439 150.639 81.7353 150.52 81.2819 150.52C80.8239 150.52 80.4109 150.641 80.0427 150.883C79.679 151.121 79.3894 151.438 79.1739 151.833C78.9629 152.228 78.8574 152.661 78.8574 153.133C78.8574 153.618 78.9674 154.058 79.1874 154.453C79.4074 154.843 79.7015 155.155 80.0696 155.389C80.4378 155.618 80.8419 155.732 81.2819 155.732ZM89.113 150.708H87.5034L87.4966 156.5H86.5538L86.5605 150.708H85.3415V149.765H86.5605L86.5538 147.651H87.4966L87.5034 149.765H89.113V150.708ZM93.0939 156.675C92.4743 156.675 91.9086 156.516 91.3968 156.197C90.8894 155.878 90.4831 155.452 90.1778 154.917C89.877 154.379 89.7265 153.784 89.7265 153.133C89.7265 152.639 89.8141 152.179 89.9892 151.752C90.1643 151.321 90.4045 150.944 90.7098 150.621C91.0196 150.293 91.3788 150.037 91.7874 149.853C92.1959 149.669 92.6314 149.577 93.0939 149.577C93.5923 149.577 94.0502 149.676 94.4678 149.873C94.8898 150.071 95.2512 150.347 95.5521 150.701C95.8574 151.056 96.0863 151.471 96.239 151.947C96.3961 152.423 96.4612 152.937 96.4343 153.49H90.7233C90.7772 153.916 90.9119 154.298 91.1274 154.634C91.3474 154.971 91.6257 155.238 91.9625 155.436C92.3037 155.629 92.6808 155.728 93.0939 155.732C93.5429 155.732 93.947 155.616 94.3061 155.382C94.6698 155.149 94.9617 154.828 95.1817 154.419L96.138 154.641C95.8686 155.238 95.4623 155.728 94.919 156.109C94.3757 156.487 93.7674 156.675 93.0939 156.675ZM90.6963 152.729H95.4847C95.4533 152.311 95.3253 151.929 95.1008 151.584C94.8808 151.233 94.5957 150.955 94.2455 150.749C93.8953 150.538 93.5114 150.432 93.0939 150.432C92.6763 150.432 92.2947 150.535 91.949 150.742C91.6033 150.944 91.3204 151.22 91.1004 151.57C90.8804 151.916 90.7457 152.302 90.6963 152.729ZM99.683 156.628C99.3148 156.619 98.9556 156.552 98.6054 156.426C98.2552 156.3 97.9499 156.13 97.6895 155.914C97.4291 155.699 97.2427 155.454 97.1305 155.18L97.9454 154.83C98.0172 155.005 98.1497 155.167 98.3427 155.315C98.5403 155.458 98.7648 155.575 99.0162 155.665C99.2676 155.75 99.5168 155.793 99.7638 155.793C100.038 155.793 100.294 155.748 100.532 155.658C100.769 155.568 100.963 155.44 101.111 155.274C101.263 155.104 101.34 154.904 101.34 154.675C101.34 154.428 101.259 154.235 101.097 154.096C100.936 153.952 100.731 153.84 100.484 153.759C100.237 153.674 99.9838 153.593 99.7234 153.517C99.2474 153.386 98.8276 153.243 98.464 153.086C98.1003 152.928 97.8152 152.729 97.6087 152.486C97.4066 152.239 97.3056 151.923 97.3056 151.537C97.3056 151.128 97.4201 150.776 97.6491 150.479C97.8825 150.178 98.1856 149.947 98.5583 149.786C98.9354 149.619 99.3372 149.536 99.7638 149.536C100.312 149.536 100.81 149.655 101.259 149.893C101.712 150.131 102.04 150.448 102.242 150.843L101.481 151.294C101.4 151.11 101.272 150.951 101.097 150.816C100.922 150.681 100.722 150.576 100.498 150.499C100.278 150.423 100.053 150.383 99.8244 150.378C99.537 150.374 99.2699 150.416 99.023 150.506C98.776 150.591 98.5762 150.719 98.4236 150.89C98.2754 151.061 98.2013 151.269 98.2013 151.516C98.2013 151.763 98.2754 151.952 98.4236 152.082C98.5717 152.208 98.7715 152.311 99.023 152.392C99.2789 152.468 99.5662 152.558 99.885 152.661C100.294 152.791 100.677 152.94 101.037 153.106C101.396 153.272 101.685 153.478 101.905 153.725C102.125 153.972 102.233 154.284 102.229 154.661C102.229 155.066 102.107 155.418 101.865 155.719C101.623 156.02 101.308 156.251 100.922 156.412C100.536 156.57 100.123 156.641 99.683 156.628ZM108.706 156.628C108.338 156.619 107.979 156.552 107.629 156.426C107.279 156.3 106.973 156.13 106.713 155.914C106.453 155.699 106.266 155.454 106.154 155.18L106.969 154.83C107.041 155.005 107.173 155.167 107.366 155.315C107.564 155.458 107.788 155.575 108.04 155.665C108.291 155.75 108.54 155.793 108.787 155.793C109.061 155.793 109.317 155.748 109.555 155.658C109.793 155.568 109.986 155.44 110.134 155.274C110.287 155.104 110.363 154.904 110.363 154.675C110.363 154.428 110.282 154.235 110.121 154.096C109.959 153.952 109.755 153.84 109.508 153.759C109.261 153.674 109.007 153.593 108.747 153.517C108.271 153.386 107.851 153.243 107.487 153.086C107.124 152.928 106.839 152.729 106.632 152.486C106.43 152.239 106.329 151.923 106.329 151.537C106.329 151.128 106.444 150.776 106.673 150.479C106.906 150.178 107.209 149.947 107.582 149.786C107.959 149.619 108.361 149.536 108.787 149.536C109.335 149.536 109.833 149.655 110.282 149.893C110.736 150.131 111.064 150.448 111.266 150.843L110.505 151.294C110.424 151.11 110.296 150.951 110.121 150.816C109.946 150.681 109.746 150.576 109.521 150.499C109.301 150.423 109.077 150.383 108.848 150.378C108.56 150.374 108.293 150.416 108.046 150.506C107.799 150.591 107.6 150.719 107.447 150.89C107.299 151.061 107.225 151.269 107.225 151.516C107.225 151.763 107.299 151.952 107.447 152.082C107.595 152.208 107.795 152.311 108.046 152.392C108.302 152.468 108.59 152.558 108.908 152.661C109.317 152.791 109.701 152.94 110.06 153.106C110.419 153.272 110.709 153.478 110.929 153.725C111.149 153.972 111.257 154.284 111.252 154.661C111.252 155.066 111.131 155.418 110.888 155.719C110.646 156.02 110.332 156.251 109.946 156.412C109.559 156.57 109.146 156.641 108.706 156.628ZM117.896 149.765H118.839V156.5H117.896L117.863 155.247C117.643 155.674 117.335 156.02 116.94 156.284C116.545 156.545 116.073 156.675 115.526 156.675C115.032 156.675 114.569 156.583 114.138 156.399C113.707 156.21 113.328 155.952 113 155.624C112.672 155.297 112.417 154.917 112.232 154.486C112.048 154.055 111.956 153.593 111.956 153.099C111.956 152.614 112.046 152.158 112.226 151.732C112.41 151.305 112.661 150.93 112.98 150.607C113.303 150.284 113.676 150.032 114.098 149.853C114.524 149.669 114.98 149.577 115.465 149.577C116.026 149.577 116.516 149.711 116.933 149.981C117.351 150.246 117.683 150.594 117.93 151.025L117.896 149.765ZM115.505 155.759C115.986 155.759 116.399 155.642 116.745 155.409C117.09 155.171 117.355 154.852 117.539 154.453C117.728 154.053 117.822 153.613 117.822 153.133C117.822 152.639 117.728 152.194 117.539 151.799C117.351 151.4 117.084 151.083 116.738 150.85C116.392 150.616 115.981 150.499 115.505 150.499C115.03 150.499 114.594 150.618 114.199 150.856C113.808 151.09 113.496 151.406 113.263 151.806C113.034 152.206 112.919 152.648 112.919 153.133C112.919 153.622 113.038 154.067 113.276 154.466C113.514 154.861 113.829 155.176 114.219 155.409C114.614 155.642 115.043 155.759 115.505 155.759ZM123.308 156.5H122.109L119.651 149.745H120.655L122.709 155.396L124.763 149.745H125.766L123.308 156.5ZM129.582 156.675C128.963 156.675 128.397 156.516 127.885 156.197C127.378 155.878 126.971 155.452 126.666 154.917C126.365 154.379 126.215 153.784 126.215 153.133C126.215 152.639 126.302 152.179 126.478 151.752C126.653 151.321 126.893 150.944 127.198 150.621C127.508 150.293 127.867 150.037 128.276 149.853C128.684 149.669 129.12 149.577 129.582 149.577C130.081 149.577 130.539 149.676 130.956 149.873C131.378 150.071 131.74 150.347 132.04 150.701C132.346 151.056 132.575 151.471 132.727 151.947C132.885 152.423 132.95 152.937 132.923 153.49H127.212C127.266 153.916 127.4 154.298 127.616 154.634C127.836 154.971 128.114 155.238 128.451 155.436C128.792 155.629 129.169 155.728 129.582 155.732C130.031 155.732 130.435 155.616 130.795 155.382C131.158 155.149 131.45 154.828 131.67 154.419L132.626 154.641C132.357 155.238 131.951 155.728 131.407 156.109C130.864 156.487 130.256 156.675 129.582 156.675ZM127.185 152.729H131.973C131.942 152.311 131.814 151.929 131.589 151.584C131.369 151.233 131.084 150.955 130.734 150.749C130.384 150.538 130 150.432 129.582 150.432C129.165 150.432 128.783 150.535 128.437 150.742C128.092 150.944 127.809 151.22 127.589 151.57C127.369 151.916 127.234 152.302 127.185 152.729ZM139.554 146.398H140.497V156.5H139.554V155.241C139.321 155.672 139 156.02 138.591 156.284C138.187 156.545 137.706 156.675 137.15 156.675C136.66 156.675 136.202 156.583 135.776 156.399C135.349 156.215 134.972 155.961 134.644 155.638C134.321 155.31 134.067 154.933 133.883 154.507C133.699 154.08 133.607 153.622 133.607 153.133C133.607 152.643 133.699 152.185 133.883 151.759C134.067 151.328 134.321 150.951 134.644 150.627C134.972 150.3 135.349 150.044 135.776 149.86C136.202 149.676 136.66 149.583 137.15 149.583C137.706 149.583 138.187 149.716 138.591 149.981C139 150.241 139.321 150.585 139.554 151.011V146.398ZM137.156 155.759C137.637 155.759 138.05 155.642 138.396 155.409C138.741 155.171 139.006 154.852 139.19 154.453C139.379 154.053 139.473 153.613 139.473 153.133C139.473 152.639 139.379 152.194 139.19 151.799C139.002 151.4 138.735 151.083 138.389 150.85C138.043 150.616 137.632 150.499 137.156 150.499C136.681 150.499 136.247 150.618 135.857 150.856C135.466 151.09 135.154 151.406 134.921 151.806C134.687 152.206 134.57 152.648 134.57 153.133C134.57 153.622 134.689 154.067 134.927 154.466C135.165 154.861 135.48 155.176 135.87 155.409C136.265 155.642 136.694 155.759 137.156 155.759Z" fill="#0C1021"/>
<path d="M25.2423 187.5V179.014H24.2321L24.5015 178.071H26.1852V187.5H25.2423ZM31.2786 187.675C30.7129 187.675 30.2078 187.549 29.7633 187.298C29.3188 187.042 28.9394 186.69 28.6252 186.241C28.3109 185.792 28.0707 185.273 27.9045 184.685C27.7429 184.092 27.6621 183.459 27.6621 182.786C27.6621 182.112 27.7429 181.479 27.9045 180.887C28.0707 180.294 28.3109 179.775 28.6252 179.331C28.9394 178.882 29.3188 178.532 29.7633 178.28C30.2078 178.024 30.7129 177.896 31.2786 177.896C31.8398 177.896 32.3427 178.024 32.7872 178.28C33.2317 178.532 33.6088 178.882 33.9186 179.331C34.2284 179.775 34.4641 180.294 34.6258 180.887C34.7919 181.479 34.875 182.112 34.875 182.786C34.875 183.459 34.7919 184.092 34.6258 184.685C34.4641 185.273 34.2284 185.792 33.9186 186.241C33.6088 186.69 33.2317 187.042 32.7872 187.298C32.3427 187.549 31.8398 187.675 31.2786 187.675ZM31.2786 186.732C31.8713 186.732 32.3674 186.55 32.767 186.187C33.1711 185.823 33.4741 185.343 33.6762 184.746C33.8782 184.144 33.9792 183.491 33.9792 182.786C33.9792 182.04 33.8737 181.371 33.6627 180.779C33.4562 180.182 33.1509 179.71 32.7468 179.364C32.3472 179.014 31.8578 178.839 31.2786 178.839C30.8207 178.839 30.4211 178.945 30.0798 179.156C29.7386 179.367 29.4558 179.656 29.2313 180.024C29.0068 180.393 28.8384 180.815 28.7262 181.291C28.6139 181.762 28.5578 182.26 28.5578 182.786C28.5578 183.495 28.6611 184.151 28.8676 184.752C29.0741 185.349 29.3794 185.83 29.7835 186.193C30.1876 186.553 30.686 186.732 31.2786 186.732ZM36.3526 181.843C36.2044 181.843 36.0787 181.791 35.9754 181.688C35.8722 181.58 35.8205 181.45 35.8205 181.297C35.8205 181.154 35.8722 181.03 35.9754 180.927C36.0787 180.819 36.2044 180.765 36.3526 180.765C36.5052 180.765 36.6332 180.819 36.7365 180.927C36.8442 181.03 36.8981 181.154 36.8981 181.297C36.8981 181.45 36.8442 181.58 36.7365 181.688C36.6332 181.791 36.5052 181.843 36.3526 181.843ZM36.3526 187.675C36.2044 187.675 36.0787 187.621 35.9754 187.513C35.8722 187.41 35.8205 187.282 35.8205 187.13C35.8205 186.986 35.8722 186.862 35.9754 186.759C36.0787 186.651 36.2044 186.598 36.3526 186.598C36.5052 186.598 36.6332 186.651 36.7365 186.759C36.8442 186.862 36.8981 186.986 36.8981 187.13C36.8981 187.282 36.8442 187.41 36.7365 187.513C36.6332 187.621 36.5052 187.675 36.3526 187.675ZM41.7227 187.675C41.1569 187.675 40.6518 187.549 40.2074 187.298C39.7629 187.042 39.3835 186.69 39.0692 186.241C38.7549 185.792 38.5147 185.273 38.3486 184.685C38.1869 184.092 38.1061 183.459 38.1061 182.786C38.1061 182.112 38.1869 181.479 38.3486 180.887C38.5147 180.294 38.7549 179.775 39.0692 179.331C39.3835 178.882 39.7629 178.532 40.2074 178.28C40.6518 178.024 41.1569 177.896 41.7227 177.896C42.2839 177.896 42.7867 178.024 43.2312 178.28C43.6757 178.532 44.0529 178.882 44.3627 179.331C44.6725 179.775 44.9082 180.294 45.0698 180.887C45.2359 181.479 45.319 182.112 45.319 182.786C45.319 183.459 45.2359 184.092 45.0698 184.685C44.9082 185.273 44.6725 185.792 44.3627 186.241C44.0529 186.69 43.6757 187.042 43.2312 187.298C42.7867 187.549 42.2839 187.675 41.7227 187.675ZM41.7227 186.732C42.3153 186.732 42.8114 186.55 43.211 186.187C43.6151 185.823 43.9182 185.343 44.1202 184.746C44.3223 184.144 44.4233 183.491 44.4233 182.786C44.4233 182.04 44.3178 181.371 44.1067 180.779C43.9002 180.182 43.5949 179.71 43.1908 179.364C42.7912 179.014 42.3018 178.839 41.7227 178.839C41.2647 178.839 40.8651 178.945 40.5239 179.156C40.1827 179.367 39.8998 179.656 39.6753 180.024C39.4508 180.393 39.2825 180.815 39.1702 181.291C39.058 181.762 39.0018 182.26 39.0018 182.786C39.0018 183.495 39.1051 184.151 39.3116 184.752C39.5182 185.349 39.8235 185.83 40.2276 186.193C40.6316 186.553 41.13 186.732 41.7227 186.732ZM49.2885 187.675C48.7138 187.675 48.1907 187.536 47.7193 187.258C47.2523 186.979 46.8819 186.607 46.6081 186.14C46.3342 185.668 46.1972 185.152 46.1972 184.591H47.1401C47.1401 184.981 47.2366 185.34 47.4297 185.668C47.6227 185.991 47.8809 186.25 48.2042 186.443C48.5319 186.636 48.8934 186.732 49.2885 186.732C49.6791 186.732 50.036 186.636 50.3593 186.443C50.6825 186.25 50.9407 185.991 51.1338 185.668C51.3313 185.34 51.4301 184.981 51.4301 184.591C51.4301 184.196 51.3358 183.836 51.1472 183.513C50.9632 183.185 50.7005 182.925 50.3593 182.732C50.0225 182.534 49.6207 182.436 49.1538 182.436H46.864L47.753 178.071H52.1642V179.014H48.514L48.0223 181.493L49.1201 181.499C49.7621 181.508 50.3256 181.645 50.8105 181.91C51.2999 182.175 51.6815 182.539 51.9554 183.001C52.2338 183.459 52.373 183.989 52.373 184.591C52.373 185.013 52.2921 185.41 52.1305 185.783C51.9734 186.155 51.7511 186.485 51.4638 186.773C51.1809 187.056 50.8532 187.278 50.4805 187.439C50.1123 187.597 49.715 187.675 49.2885 187.675Z" fill="#0C1021" fill-opacity="0.5"/>
<path d="M74.1722 187.675C73.5347 187.675 72.9353 187.549 72.3741 187.298C71.8129 187.042 71.319 186.692 70.8924 186.247C70.4704 185.798 70.1382 185.278 69.8957 184.685C69.6578 184.092 69.5388 183.459 69.5388 182.786C69.5388 182.112 69.6578 181.479 69.8957 180.887C70.1382 180.294 70.4704 179.775 70.8924 179.331C71.319 178.882 71.8129 178.532 72.3741 178.28C72.9353 178.024 73.5347 177.896 74.1722 177.896C74.9355 177.896 75.6382 178.074 76.2802 178.428C76.9222 178.783 77.4543 179.254 77.8763 179.843L77.0412 180.294C76.709 179.849 76.2869 179.497 75.7751 179.237C75.2678 178.972 74.7335 178.839 74.1722 178.839C73.6559 178.839 73.1733 178.945 72.7243 179.156C72.2798 179.362 71.8892 179.647 71.5524 180.011C71.2157 180.375 70.9531 180.794 70.7645 181.27C70.5759 181.746 70.4816 182.251 70.4816 182.786C70.4816 183.329 70.5759 183.839 70.7645 184.314C70.9576 184.79 71.2224 185.21 71.5592 185.574C71.9004 185.938 72.2933 186.223 72.7378 186.429C73.1867 186.631 73.6649 186.732 74.1722 186.732C74.7559 186.732 75.2969 186.6 75.7953 186.335C76.2982 186.066 76.7135 185.715 77.0412 185.284L77.8763 185.736C77.4543 186.324 76.9222 186.795 76.2802 187.15C75.6382 187.5 74.9355 187.675 74.1722 187.675ZM79.2657 187.5V178.071H82.4647C82.9675 178.071 83.421 178.195 83.8251 178.442C84.2291 178.684 84.5502 179.014 84.7881 179.432C85.0261 179.845 85.1451 180.31 85.1451 180.826C85.1451 181.288 85.0508 181.708 84.8622 182.085C84.6736 182.462 84.4155 182.774 84.0877 183.021C83.7644 183.268 83.3985 183.432 82.99 183.513L85.2932 187.5H84.2022L81.9326 183.587H80.2085V187.5H79.2657ZM80.2085 182.644H82.3838C82.7161 182.644 83.0191 182.563 83.293 182.402C83.5714 182.236 83.7914 182.013 83.953 181.735C84.1191 181.452 84.2022 181.133 84.2022 180.779C84.2022 180.424 84.1191 180.108 83.953 179.829C83.7914 179.546 83.5714 179.324 83.293 179.162C83.0191 178.996 82.7161 178.913 82.3838 178.913H80.2085V182.644ZM86.7764 187.5L88.6015 178.071H89.2885L91.9285 185.008L94.555 178.071H95.2419L97.0738 187.5H96.1107L94.7166 180.287L92.2248 186.88H91.6187L89.1268 180.287L87.7328 187.5H86.7764ZM101.66 184.921V180.765H102.603V184.732C102.603 185.1 102.693 185.435 102.872 185.736C103.052 186.036 103.292 186.277 103.593 186.456C103.898 186.636 104.233 186.726 104.596 186.726C104.965 186.726 105.297 186.636 105.593 186.456C105.894 186.277 106.134 186.036 106.314 185.736C106.493 185.435 106.583 185.1 106.583 184.732V180.765H107.526L107.533 187.5H106.59L106.583 186.557C106.345 186.898 106.035 187.17 105.654 187.372C105.277 187.574 104.864 187.675 104.415 187.675C103.907 187.675 103.445 187.552 103.027 187.305C102.61 187.058 102.277 186.726 102.031 186.308C101.784 185.89 101.66 185.428 101.66 184.921ZM109.686 190.867H108.743V180.765H109.686V182.025C109.919 181.598 110.238 181.252 110.642 180.988C111.046 180.723 111.527 180.59 112.084 180.59C112.573 180.59 113.031 180.682 113.457 180.866C113.888 181.05 114.266 181.306 114.589 181.634C114.912 181.957 115.166 182.332 115.35 182.759C115.534 183.185 115.626 183.643 115.626 184.133C115.626 184.622 115.534 185.082 115.35 185.513C115.166 185.944 114.912 186.324 114.589 186.651C114.266 186.975 113.888 187.228 113.457 187.412C113.031 187.597 112.573 187.689 112.084 187.689C111.527 187.689 111.046 187.556 110.642 187.291C110.238 187.026 109.919 186.681 109.686 186.254V190.867ZM112.077 181.506C111.605 181.506 111.195 181.625 110.844 181.863C110.499 182.097 110.231 182.411 110.043 182.806C109.854 183.201 109.76 183.643 109.76 184.133C109.76 184.613 109.852 185.053 110.036 185.453C110.225 185.852 110.492 186.171 110.838 186.409C111.188 186.647 111.601 186.766 112.077 186.766C112.544 186.766 112.973 186.649 113.363 186.416C113.758 186.182 114.075 185.868 114.313 185.473C114.551 185.073 114.67 184.627 114.67 184.133C114.67 183.652 114.553 183.214 114.319 182.819C114.086 182.42 113.774 182.101 113.383 181.863C112.993 181.625 112.557 181.506 112.077 181.506ZM122.244 177.398H123.187V187.5H122.244V186.241C122.01 186.672 121.689 187.02 121.281 187.284C120.877 187.545 120.396 187.675 119.839 187.675C119.35 187.675 118.892 187.583 118.466 187.399C118.039 187.215 117.662 186.961 117.334 186.638C117.011 186.31 116.757 185.933 116.573 185.507C116.389 185.08 116.297 184.622 116.297 184.133C116.297 183.643 116.389 183.185 116.573 182.759C116.757 182.328 117.011 181.951 117.334 181.627C117.662 181.3 118.039 181.044 118.466 180.86C118.892 180.676 119.35 180.583 119.839 180.583C120.396 180.583 120.877 180.716 121.281 180.981C121.689 181.241 122.01 181.585 122.244 182.011V177.398ZM119.846 186.759C120.327 186.759 120.74 186.642 121.085 186.409C121.431 186.171 121.696 185.852 121.88 185.453C122.069 185.053 122.163 184.613 122.163 184.133C122.163 183.639 122.069 183.194 121.88 182.799C121.692 182.4 121.424 182.083 121.079 181.85C120.733 181.616 120.322 181.499 119.846 181.499C119.37 181.499 118.937 181.618 118.546 181.856C118.156 182.09 117.844 182.406 117.61 182.806C117.377 183.206 117.26 183.648 117.26 184.133C117.26 184.622 117.379 185.067 117.617 185.466C117.855 185.861 118.169 186.176 118.56 186.409C118.955 186.642 119.384 186.759 119.846 186.759ZM130.287 180.765H131.23V187.5H130.287L130.253 186.247C130.033 186.674 129.726 187.02 129.331 187.284C128.936 187.545 128.464 187.675 127.916 187.675C127.423 187.675 126.96 187.583 126.529 187.399C126.098 187.21 125.719 186.952 125.391 186.624C125.063 186.297 124.807 185.917 124.623 185.486C124.439 185.055 124.347 184.593 124.347 184.099C124.347 183.614 124.437 183.158 124.616 182.732C124.801 182.305 125.052 181.93 125.371 181.607C125.694 181.284 126.067 181.032 126.489 180.853C126.915 180.669 127.371 180.577 127.856 180.577C128.417 180.577 128.906 180.711 129.324 180.981C129.742 181.246 130.074 181.594 130.321 182.025L130.287 180.765ZM127.896 186.759C128.377 186.759 128.79 186.642 129.135 186.409C129.481 186.171 129.746 185.852 129.93 185.453C130.119 185.053 130.213 184.613 130.213 184.133C130.213 183.639 130.119 183.194 129.93 182.799C129.742 182.4 129.474 182.083 129.129 181.85C128.783 181.616 128.372 181.499 127.896 181.499C127.42 181.499 126.985 181.618 126.59 181.856C126.199 182.09 125.887 182.406 125.654 182.806C125.425 183.206 125.31 183.648 125.31 184.133C125.31 184.622 125.429 185.067 125.667 185.466C125.905 185.861 126.219 186.176 126.61 186.409C127.005 186.642 127.434 186.759 127.896 186.759ZM136.019 181.708H134.409L134.403 187.5H133.46L133.467 181.708H132.248V180.765H133.467L133.46 178.651H134.403L134.409 180.765H136.019V181.708ZM140 187.675C139.38 187.675 138.815 187.516 138.303 187.197C137.796 186.878 137.389 186.452 137.084 185.917C136.783 185.379 136.633 184.784 136.633 184.133C136.633 183.639 136.72 183.179 136.895 182.752C137.07 182.321 137.311 181.944 137.616 181.621C137.926 181.293 138.285 181.037 138.693 180.853C139.102 180.669 139.538 180.577 140 180.577C140.498 180.577 140.956 180.676 141.374 180.873C141.796 181.071 142.157 181.347 142.458 181.701C142.763 182.056 142.992 182.471 143.145 182.947C143.302 183.423 143.367 183.937 143.34 184.49H137.629C137.683 184.916 137.818 185.298 138.033 185.634C138.253 185.971 138.532 186.238 138.869 186.436C139.21 186.629 139.587 186.728 140 186.732C140.449 186.732 140.853 186.616 141.212 186.382C141.576 186.149 141.868 185.828 142.088 185.419L143.044 185.641C142.775 186.238 142.368 186.728 141.825 187.109C141.282 187.487 140.673 187.675 140 187.675ZM137.602 183.729H142.391C142.359 183.311 142.231 182.929 142.007 182.584C141.787 182.233 141.502 181.955 141.152 181.749C140.801 181.538 140.418 181.432 140 181.432C139.582 181.432 139.201 181.535 138.855 181.742C138.509 181.944 138.227 182.22 138.007 182.57C137.787 182.916 137.652 183.302 137.602 183.729ZM149.972 177.398H150.915V187.5H149.972V186.241C149.738 186.672 149.417 187.02 149.009 187.284C148.605 187.545 148.124 187.675 147.567 187.675C147.078 187.675 146.62 187.583 146.194 187.399C145.767 187.215 145.39 186.961 145.062 186.638C144.739 186.31 144.485 185.933 144.301 185.507C144.117 185.08 144.025 184.622 144.025 184.133C144.025 183.643 144.117 183.185 144.301 182.759C144.485 182.328 144.739 181.951 145.062 181.627C145.39 181.3 145.767 181.044 146.194 180.86C146.62 180.676 147.078 180.583 147.567 180.583C148.124 180.583 148.605 180.716 149.009 180.981C149.417 181.241 149.738 181.585 149.972 182.011V177.398ZM147.574 186.759C148.055 186.759 148.468 186.642 148.813 186.409C149.159 186.171 149.424 185.852 149.608 185.453C149.797 185.053 149.891 184.613 149.891 184.133C149.891 183.639 149.797 183.194 149.608 182.799C149.42 182.4 149.152 182.083 148.807 181.85C148.461 181.616 148.05 181.499 147.574 181.499C147.098 181.499 146.665 181.618 146.274 181.856C145.884 182.09 145.572 182.406 145.338 182.806C145.105 183.206 144.988 183.648 144.988 184.133C144.988 184.622 145.107 185.067 145.345 185.466C145.583 185.861 145.897 186.176 146.288 186.409C146.683 186.642 147.112 186.759 147.574 186.759Z" fill="#0C1021"/>
<g filter="url(#filter0_d_4002_7140)">
<rect x="24" y="23.5" width="118" height="35" rx="16" fill="white" shape-rendering="crispEdges"/>
<rect x="24.5" y="24" width="117" height="34" rx="15.5" stroke="#0C1021" stroke-opacity="0.1" shape-rendering="crispEdges"/>
<circle cx="39.5" cy="41" r="3.5" fill="#35E493"/>
<path d="M56.9869 46.7027C56.249 46.7027 55.5552 46.5572 54.9055 46.2661C54.2559 45.9699 53.6842 45.5645 53.1905 45.05C52.702 44.5303 52.3174 43.9275 52.0368 43.2415C51.7614 42.5555 51.6236 41.8227 51.6236 41.0432C51.6236 40.2636 51.7614 39.5308 52.0368 38.8448C52.3174 38.1588 52.702 37.5586 53.1905 37.0441C53.6842 36.5244 54.2559 36.119 54.9055 35.828C55.5552 35.5318 56.249 35.3837 56.9869 35.3837C57.8704 35.3837 58.6837 35.5889 59.4269 35.9995C60.1701 36.4101 60.7859 36.9557 61.2744 37.6365L60.3078 38.1588C59.9232 37.6443 59.4347 37.2364 58.8422 36.935C58.255 36.6283 57.6365 36.475 56.9869 36.475C56.3893 36.475 55.8306 36.5972 55.3109 36.8414C54.7964 37.0805 54.3443 37.4105 53.9545 37.8314C53.5647 38.2524 53.2607 38.7383 53.0424 39.2892C52.8241 39.8401 52.715 40.4247 52.715 41.0432C52.715 41.672 52.8241 42.2619 53.0424 42.8127C53.2659 43.3636 53.5725 43.8495 53.9623 44.2705C54.3572 44.6915 54.812 45.0215 55.3265 45.2605C55.8462 45.4944 56.3997 45.6113 56.9869 45.6113C57.6625 45.6113 58.2888 45.458 58.8656 45.1514C59.4477 44.8396 59.9284 44.4342 60.3078 43.9353L61.2744 44.4576C60.7859 45.1384 60.1701 45.6841 59.4269 46.0946C58.6837 46.5 57.8704 46.7027 56.9869 46.7027ZM68.8489 38.7045H69.9403V46.5H68.8489L68.81 45.05C68.5553 45.5438 68.1993 45.9439 67.742 46.2505C67.2847 46.552 66.739 46.7027 66.1049 46.7027C65.5333 46.7027 64.998 46.5961 64.4991 46.3831C64.0002 46.1648 63.561 45.866 63.1816 45.4866C62.8023 45.1072 62.506 44.6681 62.293 44.1692C62.0799 43.6702 61.9733 43.135 61.9733 42.5633C61.9733 42.002 62.0773 41.4745 62.2852 40.9808C62.4982 40.4871 62.7893 40.0531 63.1583 39.679C63.5324 39.3048 63.9638 39.0137 64.4523 38.8059C64.946 38.5928 65.4735 38.4863 66.0348 38.4863C66.6844 38.4863 67.2509 38.6422 67.7342 38.954C68.2175 39.2606 68.6021 39.6634 68.8879 40.1623L68.8489 38.7045ZM66.0816 45.6425C66.6376 45.6425 67.1158 45.5074 67.5159 45.2371C67.9161 44.9617 68.2227 44.5927 68.4358 44.1302C68.6541 43.6676 68.7632 43.1583 68.7632 42.6023C68.7632 42.0306 68.6541 41.5161 68.4358 41.0588C68.2175 40.5962 67.9083 40.2298 67.5081 39.9596C67.108 39.6894 66.6324 39.5542 66.0816 39.5542C65.5307 39.5542 65.0266 39.692 64.5692 39.9674C64.1171 40.2376 63.7559 40.604 63.4857 41.0666C63.2206 41.5291 63.0881 42.041 63.0881 42.6023C63.0881 43.1687 63.2258 43.6832 63.5013 44.1458C63.7767 44.6031 64.1405 44.9669 64.5926 45.2371C65.05 45.5074 65.5463 45.6425 66.0816 45.6425ZM71.6068 46.5V34.8068H72.6982V46.5H71.6068ZM74.5758 46.5V34.8068H75.6672V46.5H74.5758ZM87.6982 38.7045H88.7895V46.5H87.6982L87.6592 45.05C87.4045 45.5438 87.0485 45.9439 86.5912 46.2505C86.1339 46.552 85.5882 46.7027 84.9541 46.7027C84.3825 46.7027 83.8472 46.5961 83.3483 46.3831C82.8494 46.1648 82.4102 45.866 82.0308 45.4866C81.6515 45.1072 81.3552 44.6681 81.1422 44.1692C80.9291 43.6702 80.8225 43.135 80.8225 42.5633C80.8225 42.002 80.9265 41.4745 81.1344 40.9808C81.3474 40.4871 81.6385 40.0531 82.0075 39.679C82.3816 39.3048 82.813 39.0137 83.3015 38.8059C83.7952 38.5928 84.3227 38.4863 84.884 38.4863C85.5336 38.4863 86.1001 38.6422 86.5834 38.954C87.0667 39.2606 87.4513 39.6634 87.7371 40.1623L87.6982 38.7045ZM84.9308 45.6425C85.4868 45.6425 85.965 45.5074 86.3651 45.2371C86.7653 44.9617 87.0719 44.5927 87.285 44.1302C87.5033 43.6676 87.6124 43.1583 87.6124 42.6023C87.6124 42.0306 87.5033 41.5161 87.285 41.0588C87.0667 40.5962 86.7575 40.2298 86.3573 39.9596C85.9572 39.6894 85.4816 39.5542 84.9308 39.5542C84.3799 39.5542 83.8758 39.692 83.4184 39.9674C82.9663 40.2376 82.6051 40.604 82.3349 41.0666C82.0698 41.5291 81.9373 42.041 81.9373 42.6023C81.9373 43.1687 82.075 43.6832 82.3505 44.1458C82.6259 44.6031 82.9897 44.9669 83.4418 45.2371C83.8992 45.5074 84.3955 45.6425 84.9308 45.6425ZM95.7632 44.5433L96.7376 45.0734C96.3842 45.5671 95.9347 45.9621 95.389 46.2583C94.8485 46.5546 94.2612 46.7027 93.6272 46.7027C92.91 46.7027 92.2552 46.5182 91.6628 46.1492C91.0755 45.7802 90.6052 45.2865 90.2518 44.6681C89.9036 44.0444 89.7295 43.3558 89.7295 42.6023C89.7295 42.0306 89.8308 41.4979 90.0335 41.0042C90.2362 40.5053 90.5142 40.0687 90.8676 39.6946C91.2262 39.3152 91.642 39.0189 92.1149 38.8059C92.5878 38.5928 93.0919 38.4863 93.6272 38.4863C94.2612 38.4863 94.8485 38.6344 95.389 38.9306C95.9347 39.2268 96.3842 39.6244 96.7376 40.1233L95.7632 40.6456C95.4929 40.3026 95.1681 40.0402 94.7887 39.8583C94.4094 39.6712 94.0222 39.5776 93.6272 39.5776C93.1023 39.5776 92.6268 39.7179 92.2006 39.9986C91.7745 40.274 91.4367 40.6404 91.1872 41.0977C90.943 41.5551 90.8208 42.0566 90.8208 42.6023C90.8208 43.1479 90.9456 43.6495 91.195 44.1068C91.4497 44.5641 91.7901 44.9305 92.2162 45.206C92.6424 45.4762 93.1127 45.6113 93.6272 45.6113C94.0534 45.6113 94.4535 45.5126 94.8277 45.3151C95.2019 45.1176 95.5137 44.8604 95.7632 44.5433ZM102.128 39.7959H100.265L100.258 46.5H99.1661L99.1739 39.7959H97.763V38.7045H99.1739L99.1661 36.2568H100.258L100.265 38.7045H102.128V39.7959ZM103.459 38.7045H104.55V46.5H103.459V38.7045ZM104.012 37.3403C103.835 37.3403 103.685 37.2832 103.56 37.1688C103.44 37.0493 103.381 36.9012 103.381 36.7245C103.381 36.5478 103.44 36.4023 103.56 36.2879C103.685 36.1684 103.835 36.1086 104.012 36.1086C104.184 36.1086 104.329 36.1684 104.449 36.2879C104.573 36.4023 104.636 36.5478 104.636 36.7245C104.636 36.9012 104.576 37.0493 104.456 37.1688C104.337 37.2832 104.189 37.3403 104.012 37.3403ZM110.086 46.5H108.699L105.853 38.6811H107.015L109.392 45.2215L111.77 38.6811H112.932L110.086 46.5ZM114.223 38.7045H115.314V46.5H114.223V38.7045ZM114.777 37.3403C114.6 37.3403 114.449 37.2832 114.324 37.1688C114.205 37.0493 114.145 36.9012 114.145 36.7245C114.145 36.5478 114.205 36.4023 114.324 36.2879C114.449 36.1684 114.6 36.1086 114.777 36.1086C114.948 36.1086 115.094 36.1684 115.213 36.2879C115.338 36.4023 115.4 36.5478 115.4 36.7245C115.4 36.9012 115.34 37.0493 115.221 37.1688C115.101 37.2832 114.953 37.3403 114.777 37.3403ZM121.176 39.7959H119.312L119.305 46.5H118.213L118.221 39.7959H116.81V38.7045H118.221L118.213 36.2568H119.305L119.312 38.7045H121.176V39.7959ZM127.77 38.7045H128.923L124.659 50.3977H123.498L124.916 46.5L122.118 38.7045H123.311L125.462 44.9955L127.77 38.7045Z" fill="#0C1021"/>
</g>
<g filter="url(#filter1_d_4002_7140)">
<rect x="248" y="176.893" width="123" height="35" rx="16" transform="rotate(-6.48545 248 176.893)" fill="white" shape-rendering="crispEdges"/>
<rect x="248.553" y="177.333" width="122" height="34" rx="15.5" transform="rotate(-6.48545 248.553 177.333)" stroke="#0C1021" stroke-opacity="0.1" shape-rendering="crispEdges"/>
<circle cx="265.378" cy="192.53" r="3.5" transform="rotate(-6.48545 265.378 192.53)" fill="#4268FF"/>
<path d="M280.754 185.334L282.102 185.181L287.285 195.575L286.131 195.707L285.022 193.479L279.779 194.075L279.198 196.495L278.044 196.626L280.754 185.334ZM280.05 192.946L284.496 192.44L281.579 186.589L280.05 192.946ZM287.677 192.526L287.133 187.747L288.218 187.624L288.736 192.186C288.784 192.609 288.931 192.982 289.177 193.305C289.423 193.627 289.731 193.872 290.1 194.039C290.475 194.206 290.871 194.265 291.29 194.218C291.713 194.17 292.083 194.023 292.401 193.778C292.723 193.532 292.968 193.224 293.135 192.855C293.303 192.485 293.362 192.089 293.314 191.665L292.795 187.103L293.88 186.98L294.768 194.725L293.684 194.848L293.553 193.764C293.323 194.188 293.003 194.541 292.59 194.823C292.183 195.105 291.721 195.275 291.205 195.334C290.621 195.4 290.073 195.319 289.561 195.089C289.048 194.86 288.623 194.521 288.284 194.073C287.945 193.625 287.743 193.109 287.677 192.526ZM299.512 187.438L297.661 187.649L298.41 194.311L297.326 194.434L296.576 187.772L295.174 187.931L295.051 186.847L296.453 186.687L296.169 184.256L297.253 184.133L297.538 186.564L299.389 186.354L299.512 187.438ZM304.871 193.78C304.158 193.861 303.487 193.752 302.856 193.452C302.231 193.152 301.708 192.714 301.287 192.14C300.871 191.56 300.62 190.895 300.535 190.146C300.47 189.578 300.511 189.038 300.656 188.524C300.801 188.006 301.028 187.54 301.337 187.129C301.651 186.711 302.03 186.37 302.476 186.105C302.922 185.84 303.411 185.677 303.943 185.616C304.655 185.535 305.324 185.645 305.949 185.945C306.58 186.245 307.103 186.685 307.519 187.265C307.941 187.845 308.195 188.512 308.28 189.266C308.344 189.829 308.303 190.367 308.158 190.88C308.012 191.394 307.783 191.859 307.469 192.277C307.16 192.688 306.783 193.027 306.337 193.292C305.896 193.556 305.408 193.719 304.871 193.78ZM304.747 192.696C305.274 192.636 305.731 192.445 306.118 192.124C306.51 191.797 306.801 191.393 306.992 190.911C307.188 190.428 307.256 189.921 307.196 189.389C307.134 188.847 306.954 188.363 306.654 187.936C306.354 187.505 305.977 187.177 305.522 186.951C305.073 186.725 304.587 186.641 304.066 186.701C303.539 186.761 303.08 186.954 302.688 187.281C302.301 187.602 302.009 188.004 301.813 188.487C301.622 188.969 301.557 189.481 301.619 190.023C301.682 190.581 301.867 191.072 302.171 191.498C302.475 191.919 302.854 192.239 303.308 192.459C303.762 192.675 304.241 192.753 304.747 192.696ZM313.83 192.558L312.509 180.939L313.593 180.816L314.914 192.435L313.83 192.558ZM320.15 192.043C319.437 192.124 318.766 192.015 318.136 191.715C317.51 191.415 316.987 190.978 316.566 190.403C316.15 189.823 315.899 189.158 315.814 188.409C315.749 187.841 315.79 187.301 315.936 186.787C316.081 186.269 316.308 185.803 316.616 185.392C316.93 184.974 317.31 184.633 317.755 184.368C318.201 184.103 318.69 183.94 319.222 183.879C319.935 183.798 320.603 183.908 321.229 184.208C321.859 184.508 322.382 184.948 322.799 185.528C323.22 186.108 323.474 186.775 323.56 187.529C323.624 188.092 323.583 188.63 323.437 189.143C323.292 189.657 323.062 190.122 322.749 190.54C322.44 190.951 322.062 191.29 321.617 191.555C321.176 191.819 320.687 191.982 320.15 192.043ZM320.027 190.959C320.553 190.899 321.01 190.708 321.398 190.387C321.789 190.06 322.081 189.656 322.272 189.174C322.468 188.691 322.536 188.184 322.475 187.652C322.414 187.11 322.233 186.626 321.934 186.2C321.633 185.768 321.256 185.44 320.802 185.214C320.352 184.988 319.867 184.905 319.345 184.964C318.819 185.024 318.359 185.217 317.968 185.544C317.58 185.865 317.289 186.267 317.093 186.75C316.902 187.232 316.837 187.744 316.898 188.286C316.962 188.844 317.146 189.335 317.451 189.761C317.755 190.182 318.134 190.502 318.588 190.722C319.041 190.938 319.521 191.016 320.027 190.959ZM330.513 182.816L331.598 182.692L332.511 190.724C332.567 191.22 332.512 191.697 332.344 192.156C332.182 192.613 331.936 193.026 331.606 193.393C331.282 193.764 330.898 194.07 330.455 194.308C330.011 194.547 329.539 194.695 329.038 194.752C328.501 194.813 327.968 194.748 327.439 194.557C326.91 194.371 326.437 194.096 326.019 193.73C325.606 193.364 325.294 192.941 325.083 192.463L326.03 191.893C326.172 192.269 326.395 192.597 326.699 192.876C327.008 193.16 327.356 193.371 327.744 193.51C328.136 193.654 328.527 193.704 328.914 193.66C329.27 193.619 329.606 193.513 329.921 193.341C330.242 193.174 330.521 192.962 330.759 192.705C331.002 192.447 331.183 192.157 331.303 191.835C331.424 191.517 331.465 191.189 331.426 190.848L331.232 189.136C331.019 189.652 330.699 190.086 330.274 190.437C329.853 190.789 329.341 190.998 328.737 191.067C328.195 191.129 327.671 191.081 327.167 190.924C326.668 190.766 326.217 190.522 325.813 190.191C325.409 189.855 325.075 189.454 324.813 188.987C324.556 188.519 324.395 188.004 324.331 187.441C324.267 186.878 324.308 186.34 324.454 185.827C324.604 185.308 324.839 184.841 325.158 184.429C325.476 184.011 325.861 183.669 326.312 183.403C326.768 183.137 327.267 182.973 327.81 182.911C328.414 182.842 328.96 182.932 329.449 183.18C329.942 183.422 330.35 183.773 330.675 184.233L330.513 182.816ZM328.625 190.013C329.162 189.952 329.608 189.76 329.964 189.437C330.324 189.114 330.585 188.71 330.744 188.226C330.904 187.743 330.953 187.232 330.892 186.695C330.829 186.143 330.663 185.652 330.395 185.222C330.131 184.786 329.787 184.454 329.363 184.225C328.939 183.991 328.464 183.904 327.937 183.964C327.41 184.023 326.946 184.215 326.543 184.538C326.145 184.855 325.846 185.258 325.645 185.746C325.444 186.235 325.375 186.758 325.439 187.315C325.502 187.873 325.689 188.367 326 188.797C326.309 189.222 326.694 189.547 327.154 189.772C327.618 189.991 328.108 190.072 328.625 190.013ZM339.545 181.789L340.629 181.666L341.542 189.698C341.599 190.193 341.543 190.671 341.376 191.129C341.213 191.587 340.967 191.999 340.637 192.366C340.314 192.738 339.93 193.043 339.486 193.282C339.043 193.52 338.57 193.668 338.069 193.725C337.532 193.786 336.999 193.721 336.47 193.53C335.942 193.345 335.469 193.069 335.05 192.703C334.637 192.337 334.325 191.915 334.114 191.437L335.061 190.866C335.203 191.242 335.426 191.57 335.73 191.849C336.04 192.133 336.388 192.345 336.775 192.484C337.168 192.627 337.558 192.677 337.945 192.633C338.302 192.592 338.637 192.486 338.953 192.314C339.274 192.147 339.553 191.935 339.79 191.678C340.033 191.42 340.214 191.13 340.335 190.808C340.456 190.491 340.497 190.162 340.458 189.821L340.263 188.109C340.05 188.625 339.731 189.059 339.305 189.411C338.885 189.762 338.372 189.972 337.768 190.04C337.226 190.102 336.703 190.054 336.199 189.897C335.699 189.74 335.248 189.495 334.844 189.165C334.44 188.829 334.107 188.427 333.844 187.96C333.587 187.493 333.427 186.977 333.363 186.414C333.299 185.852 333.339 185.313 333.485 184.8C333.635 184.281 333.87 183.815 334.189 183.402C334.508 182.984 334.893 182.642 335.344 182.376C335.8 182.11 336.299 181.946 336.841 181.884C337.445 181.816 337.992 181.905 338.48 182.153C338.973 182.395 339.382 182.746 339.706 183.206L339.545 181.789ZM337.656 188.986C338.193 188.925 338.64 188.733 338.995 188.41C339.356 188.087 339.616 187.683 339.776 187.2C339.935 186.716 339.984 186.206 339.923 185.669C339.86 185.116 339.695 184.625 339.426 184.195C339.162 183.76 338.818 183.427 338.395 183.198C337.971 182.964 337.495 182.877 336.969 182.937C336.442 182.997 335.977 183.188 335.575 183.511C335.177 183.828 334.877 184.231 334.676 184.72C334.476 185.208 334.407 185.731 334.47 186.289C334.534 186.846 334.721 187.34 335.031 187.77C335.341 188.195 335.726 188.52 336.185 188.745C336.65 188.965 337.14 189.045 337.656 188.986ZM346.73 189.022C346.017 189.103 345.346 188.993 344.716 188.694C344.09 188.393 343.567 187.956 343.146 187.381C342.73 186.801 342.479 186.137 342.394 185.388C342.33 184.82 342.37 184.279 342.516 183.766C342.661 183.247 342.888 182.782 343.197 182.37C343.51 181.953 343.89 181.611 344.335 181.346C344.781 181.081 345.27 180.918 345.802 180.858C346.375 180.793 346.915 180.846 347.421 181.019C347.932 181.191 348.384 181.461 348.776 181.83C349.174 182.198 349.491 182.646 349.729 183.173C349.972 183.7 350.114 184.283 350.155 184.921L343.587 185.668C343.705 186.152 343.91 186.573 344.202 186.932C344.499 187.29 344.854 187.561 345.267 187.744C345.684 187.922 346.131 187.986 346.607 187.937C347.123 187.879 347.573 187.692 347.955 187.376C348.343 187.06 348.637 186.653 348.836 186.154L349.965 186.285C349.733 187.007 349.33 187.623 348.755 188.132C348.18 188.637 347.505 188.934 346.73 189.022ZM343.457 184.796L348.964 184.17C348.873 183.694 348.676 183.272 348.373 182.904C348.074 182.53 347.709 182.247 347.28 182.055C346.849 181.858 346.394 181.787 345.914 181.842C345.434 181.896 345.008 182.065 344.638 182.348C344.266 182.625 343.977 182.98 343.77 183.411C343.562 183.838 343.458 184.299 343.457 184.796ZM356.855 175.898L357.939 175.775L359.26 187.393L358.176 187.517L358.011 186.068C357.799 186.594 357.475 187.037 357.04 187.395C356.609 187.747 356.074 187.96 355.433 188.032C354.871 188.096 354.332 188.05 353.817 187.894C353.303 187.738 352.836 187.496 352.416 187.167C352.002 186.832 351.661 186.432 351.393 185.965C351.126 185.499 350.96 184.984 350.896 184.421C350.832 183.858 350.878 183.32 351.034 182.805C351.189 182.285 351.432 181.818 351.761 181.404C352.095 180.985 352.496 180.641 352.962 180.373C353.429 180.106 353.943 179.94 354.506 179.876C355.147 179.803 355.716 179.893 356.216 180.145C356.72 180.391 357.134 180.744 357.458 181.204L356.855 175.898ZM355.321 186.978C355.874 186.915 356.334 186.727 356.701 186.413C357.067 186.094 357.33 185.693 357.49 185.21C357.654 184.725 357.705 184.207 357.643 183.654C357.578 183.086 357.411 182.587 357.143 182.158C356.874 181.723 356.525 181.394 356.097 181.17C355.669 180.947 355.181 180.867 354.634 180.929C354.086 180.991 353.604 181.184 353.186 181.509C352.767 181.829 352.449 182.234 352.233 182.724C352.017 183.214 351.94 183.738 352.004 184.295C352.068 184.858 352.263 185.354 352.589 185.782C352.914 186.206 353.316 186.526 353.796 186.743C354.281 186.96 354.79 187.039 355.321 186.978Z" fill="#0C1021"/>
</g>
<defs>
<filter id="filter0_d_4002_7140" x="14" y="17.5" width="138" height="55" filterUnits="userSpaceOnUse" color-interpolation-filters="sRGB">
<feFlood flood-opacity="0" result="BackgroundImageFix"/>
<feColorMatrix in="SourceAlpha" type="matrix" values="0 0 0 0 0 0 0 0 0 0 0 0 0 0 0 0 0 0 127 0" result="hardAlpha"/>
<feOffset dy="4"/>
<feGaussianBlur stdDeviation="5"/>
<feComposite in2="hardAlpha" operator="out"/>
<feColorMatrix type="matrix" values="0 0 0 0 0 0 0 0 0 0 0 0 0 0 0 0 0 0 0.05 0"/>
<feBlend mode="normal" in2="BackgroundImageFix" result="effect1_dropShadow_4002_7140"/>
<feBlend mode="normal" in="SourceGraphic" in2="effect1_dropShadow_4002_7140" result="shape"/>
</filter>
<filter id="filter1_d_4002_7140" x="238" y="157" width="146.166" height="68.6692" filterUnits="userSpaceOnUse" color-interpolation-filters="sRGB">
<feFlood flood-opacity="0" result="BackgroundImageFix"/>
<feColorMatrix in="SourceAlpha" type="matrix" values="0 0 0 0 0 0 0 0 0 0 0 0 0 0 0 0 0 0 127 0" result="hardAlpha"/>
<feOffset dy="4"/>
<feGaussianBlur stdDeviation="5"/>
<feComposite in2="hardAlpha" operator="out"/>
<feColorMatrix type="matrix" values="0 0 0 0 0 0 0 0 0 0 0 0 0 0 0 0 0 0 0.05 0"/>
<feBlend mode="normal" in2="BackgroundImageFix" result="effect1_dropShadow_4002_7140"/>
<feBlend mode="normal" in="SourceGraphic" in2="effect1_dropShadow_4002_7140" result="shape"/>
</filter>
</defs>
</svg>
