<svg width="427" height="349" viewBox="0 0 427 349" fill="none" xmlns="http://www.w3.org/2000/svg">
<rect width="427" height="349" rx="22.0629" fill="white"/>
<rect x="0.459644" y="0.459644" width="426.081" height="348.081" rx="21.6033" stroke="#0C1021" stroke-opacity="0.05" stroke-width="0.919289"/>
<path d="M119.94 47V30.2H126.12C127.032 30.2 127.852 30.424 128.58 30.872C129.308 31.32 129.884 31.924 130.308 32.684C130.74 33.436 130.956 34.276 130.956 35.204C130.956 35.988 130.808 36.704 130.512 37.352C130.224 38 129.816 38.552 129.288 39.008C128.768 39.464 128.172 39.792 127.5 39.992L131.556 47H128.664L124.728 40.22H122.436V47H119.94ZM122.436 37.724H125.856C126.336 37.724 126.772 37.604 127.164 37.364C127.564 37.124 127.88 36.804 128.112 36.404C128.344 36.004 128.46 35.552 128.46 35.048C128.46 34.544 128.344 34.092 128.112 33.692C127.88 33.284 127.564 32.964 127.164 32.732C126.772 32.492 126.336 32.372 125.856 32.372H122.436V37.724ZM138.556 47.312C137.452 47.312 136.444 47.028 135.532 46.46C134.628 45.892 133.904 45.132 133.36 44.18C132.824 43.22 132.556 42.16 132.556 41C132.556 40.12 132.712 39.3 133.024 38.54C133.336 37.772 133.764 37.1 134.308 36.524C134.86 35.94 135.5 35.484 136.228 35.156C136.956 34.828 137.732 34.664 138.556 34.664C139.476 34.664 140.32 34.856 141.088 35.24C141.856 35.616 142.512 36.14 143.056 36.812C143.6 37.476 144 38.244 144.256 39.116C144.512 39.98 144.588 40.9 144.484 41.876H135.232C135.336 42.428 135.536 42.928 135.832 43.376C136.136 43.816 136.52 44.164 136.984 44.42C137.456 44.676 137.98 44.808 138.556 44.816C139.164 44.816 139.716 44.664 140.212 44.36C140.716 44.056 141.128 43.636 141.448 43.1L143.98 43.688C143.5 44.752 142.776 45.624 141.808 46.304C140.84 46.976 139.756 47.312 138.556 47.312ZM135.148 39.968H141.964C141.884 39.392 141.68 38.872 141.352 38.408C141.032 37.936 140.628 37.564 140.14 37.292C139.66 37.012 139.132 36.872 138.556 36.872C137.988 36.872 137.46 37.008 136.972 37.28C136.492 37.552 136.092 37.924 135.772 38.396C135.46 38.86 135.252 39.384 135.148 39.968ZM152.04 47.336C150.88 47.336 149.82 47.052 148.86 46.484C147.908 45.916 147.148 45.152 146.58 44.192C146.012 43.232 145.728 42.168 145.728 41C145.728 40.128 145.892 39.312 146.22 38.552C146.548 37.792 147 37.124 147.576 36.548C148.16 35.964 148.832 35.508 149.592 35.18C150.352 34.852 151.168 34.688 152.04 34.688C152.888 34.688 153.624 34.88 154.248 35.264C154.872 35.648 155.384 36.148 155.784 36.764V35H158.28V53H155.784V45.26C155.384 45.868 154.872 46.368 154.248 46.76C153.624 47.144 152.888 47.336 152.04 47.336ZM152.064 37.1C151.368 37.1 150.732 37.276 150.156 37.628C149.58 37.98 149.124 38.452 148.788 39.044C148.452 39.636 148.284 40.288 148.284 41C148.284 41.728 148.456 42.388 148.8 42.98C149.144 43.572 149.6 44.044 150.168 44.396C150.744 44.74 151.376 44.912 152.064 44.912C152.768 44.912 153.384 44.736 153.912 44.384C154.44 44.032 154.848 43.56 155.136 42.968C155.424 42.376 155.568 41.72 155.568 41C155.568 40.28 155.42 39.628 155.124 39.044C154.836 38.452 154.428 37.98 153.9 37.628C153.38 37.276 152.768 37.1 152.064 37.1ZM160.405 42.5V35H162.901V41.888C162.901 42.424 163.033 42.912 163.297 43.352C163.561 43.792 163.913 44.144 164.353 44.408C164.793 44.664 165.277 44.792 165.805 44.792C166.341 44.792 166.825 44.664 167.257 44.408C167.697 44.144 168.045 43.792 168.301 43.352C168.565 42.912 168.697 42.424 168.697 41.888V35H171.193L171.205 47H168.709L168.697 45.704C168.289 46.2 167.781 46.592 167.173 46.88C166.565 47.168 165.913 47.312 165.217 47.312C164.329 47.312 163.521 47.096 162.793 46.664C162.065 46.232 161.485 45.652 161.053 44.924C160.621 44.196 160.405 43.388 160.405 42.5ZM178.728 47.312C177.624 47.312 176.616 47.028 175.704 46.46C174.8 45.892 174.076 45.132 173.532 44.18C172.996 43.22 172.728 42.16 172.728 41C172.728 40.12 172.884 39.3 173.196 38.54C173.508 37.772 173.936 37.1 174.48 36.524C175.032 35.94 175.672 35.484 176.4 35.156C177.128 34.828 177.904 34.664 178.728 34.664C179.648 34.664 180.492 34.856 181.26 35.24C182.028 35.616 182.684 36.14 183.228 36.812C183.772 37.476 184.172 38.244 184.428 39.116C184.684 39.98 184.76 40.9 184.656 41.876H175.404C175.508 42.428 175.708 42.928 176.004 43.376C176.308 43.816 176.692 44.164 177.156 44.42C177.628 44.676 178.152 44.808 178.728 44.816C179.336 44.816 179.888 44.664 180.384 44.36C180.888 44.056 181.3 43.636 181.62 43.1L184.152 43.688C183.672 44.752 182.948 45.624 181.98 46.304C181.012 46.976 179.928 47.312 178.728 47.312ZM175.32 39.968H182.136C182.056 39.392 181.852 38.872 181.524 38.408C181.204 37.936 180.8 37.564 180.312 37.292C179.832 37.012 179.304 36.872 178.728 36.872C178.16 36.872 177.632 37.008 177.144 37.28C176.664 37.552 176.264 37.924 175.944 38.396C175.632 38.86 175.424 39.384 175.32 39.968ZM190.29 47.228C189.658 47.188 189.042 47.06 188.442 46.844C187.842 46.628 187.314 46.336 186.858 45.968C186.41 45.592 186.074 45.152 185.85 44.648L187.974 43.736C188.078 43.952 188.258 44.164 188.514 44.372C188.778 44.58 189.086 44.752 189.438 44.888C189.79 45.016 190.158 45.08 190.542 45.08C190.918 45.08 191.266 45.028 191.586 44.924C191.914 44.812 192.182 44.644 192.39 44.42C192.598 44.196 192.702 43.928 192.702 43.616C192.702 43.264 192.582 42.992 192.342 42.8C192.11 42.6 191.818 42.448 191.466 42.344C191.114 42.24 190.762 42.14 190.41 42.044C189.626 41.868 188.906 41.628 188.25 41.324C187.602 41.012 187.086 40.616 186.702 40.136C186.318 39.648 186.126 39.052 186.126 38.348C186.126 37.58 186.334 36.916 186.75 36.356C187.166 35.788 187.71 35.352 188.382 35.048C189.062 34.744 189.786 34.592 190.554 34.592C191.514 34.592 192.394 34.796 193.194 35.204C193.994 35.612 194.606 36.172 195.03 36.884L193.05 38.06C192.93 37.82 192.75 37.604 192.51 37.412C192.27 37.22 191.998 37.068 191.694 36.956C191.39 36.836 191.074 36.768 190.746 36.752C190.338 36.736 189.958 36.784 189.606 36.896C189.262 37 188.986 37.168 188.778 37.4C188.57 37.632 188.466 37.928 188.466 38.288C188.466 38.64 188.59 38.904 188.838 39.08C189.086 39.248 189.398 39.384 189.774 39.488C190.158 39.592 190.55 39.708 190.95 39.836C191.662 40.06 192.33 40.336 192.954 40.664C193.578 40.984 194.082 41.38 194.466 41.852C194.85 42.324 195.034 42.9 195.018 43.58C195.018 44.332 194.79 44.992 194.334 45.56C193.886 46.128 193.302 46.56 192.582 46.856C191.862 47.152 191.098 47.276 190.29 47.228ZM203.409 37.496H200.889L200.877 47H198.381L198.393 37.496H196.485V35H198.393L198.381 31.232H200.877L200.889 35H203.409V37.496ZM208.993 47.228C208.361 47.188 207.745 47.06 207.145 46.844C206.545 46.628 206.017 46.336 205.561 45.968C205.113 45.592 204.777 45.152 204.553 44.648L206.677 43.736C206.781 43.952 206.961 44.164 207.217 44.372C207.481 44.58 207.789 44.752 208.141 44.888C208.493 45.016 208.861 45.08 209.245 45.08C209.621 45.08 209.969 45.028 210.289 44.924C210.617 44.812 210.885 44.644 211.093 44.42C211.301 44.196 211.405 43.928 211.405 43.616C211.405 43.264 211.285 42.992 211.045 42.8C210.813 42.6 210.521 42.448 210.169 42.344C209.817 42.24 209.465 42.14 209.113 42.044C208.329 41.868 207.609 41.628 206.953 41.324C206.305 41.012 205.789 40.616 205.405 40.136C205.021 39.648 204.829 39.052 204.829 38.348C204.829 37.58 205.037 36.916 205.453 36.356C205.869 35.788 206.413 35.352 207.085 35.048C207.765 34.744 208.489 34.592 209.257 34.592C210.217 34.592 211.097 34.796 211.897 35.204C212.697 35.612 213.309 36.172 213.733 36.884L211.753 38.06C211.633 37.82 211.453 37.604 211.213 37.412C210.973 37.22 210.701 37.068 210.397 36.956C210.093 36.836 209.777 36.768 209.449 36.752C209.041 36.736 208.661 36.784 208.309 36.896C207.965 37 207.689 37.168 207.481 37.4C207.273 37.632 207.169 37.928 207.169 38.288C207.169 38.64 207.293 38.904 207.541 39.08C207.789 39.248 208.101 39.384 208.477 39.488C208.861 39.592 209.253 39.708 209.653 39.836C210.365 40.06 211.033 40.336 211.657 40.664C212.281 40.984 212.785 41.38 213.169 41.852C213.553 42.324 213.737 42.9 213.721 43.58C213.721 44.332 213.493 44.992 213.037 45.56C212.589 46.128 212.005 46.56 211.285 46.856C210.565 47.152 209.801 47.276 208.993 47.228ZM232.342 39.476V47H229.846V40.088C229.846 39.552 229.714 39.064 229.45 38.624C229.194 38.184 228.846 37.836 228.406 37.58C227.974 37.316 227.486 37.184 226.942 37.184C226.414 37.184 225.93 37.316 225.49 37.58C225.05 37.836 224.698 38.184 224.434 38.624C224.17 39.064 224.038 39.552 224.038 40.088V47H221.542V29H224.038V36.272C224.454 35.776 224.966 35.384 225.574 35.096C226.182 34.808 226.838 34.664 227.542 34.664C228.43 34.664 229.238 34.88 229.966 35.312C230.694 35.744 231.27 36.324 231.694 37.052C232.126 37.78 232.342 38.588 232.342 39.476ZM243.839 35H246.335V47H243.827L243.731 45.26C243.379 45.876 242.903 46.372 242.303 46.748C241.703 47.124 240.995 47.312 240.179 47.312C239.299 47.312 238.471 47.148 237.695 46.82C236.919 46.484 236.235 46.02 235.643 45.428C235.059 44.836 234.603 44.156 234.275 43.388C233.947 42.612 233.783 41.78 233.783 40.892C233.783 40.036 233.943 39.232 234.263 38.48C234.583 37.72 235.027 37.056 235.595 36.488C236.163 35.92 236.819 35.476 237.563 35.156C238.315 34.828 239.119 34.664 239.975 34.664C240.847 34.664 241.615 34.864 242.279 35.264C242.951 35.656 243.507 36.16 243.947 36.776L243.839 35ZM240.118 44.9C240.823 44.9 241.439 44.728 241.967 44.384C242.495 44.032 242.903 43.56 243.191 42.968C243.487 42.376 243.635 41.72 243.635 41C243.635 40.272 243.487 39.612 243.191 39.02C242.895 38.428 242.483 37.96 241.955 37.616C241.435 37.264 240.823 37.088 240.118 37.088C239.423 37.088 238.787 37.264 238.211 37.616C237.635 37.968 237.179 38.44 236.843 39.032C236.507 39.624 236.339 40.28 236.339 41C236.339 41.728 236.511 42.388 236.855 42.98C237.207 43.564 237.667 44.032 238.235 44.384C238.811 44.728 239.439 44.9 240.118 44.9ZM259.529 39.476V47H257.033V40.088C257.033 39.552 256.901 39.064 256.637 38.624C256.381 38.184 256.033 37.836 255.593 37.58C255.161 37.316 254.673 37.184 254.129 37.184C253.601 37.184 253.117 37.316 252.677 37.58C252.237 37.836 251.885 38.184 251.621 38.624C251.357 39.064 251.225 39.552 251.225 40.088V47H248.729V35H251.225V36.272C251.641 35.776 252.153 35.384 252.761 35.096C253.369 34.808 254.025 34.664 254.729 34.664C255.617 34.664 256.425 34.88 257.153 35.312C257.881 35.744 258.457 36.324 258.881 37.052C259.313 37.78 259.529 38.588 259.529 39.476ZM271.038 29H273.534V47H271.038V45.236C270.646 45.86 270.134 46.364 269.502 46.748C268.87 47.124 268.13 47.312 267.282 47.312C266.41 47.312 265.594 47.148 264.834 46.82C264.074 46.492 263.402 46.04 262.818 45.464C262.242 44.88 261.79 44.208 261.462 43.448C261.134 42.688 260.97 41.872 260.97 41C260.97 40.128 261.134 39.312 261.462 38.552C261.79 37.784 262.242 37.112 262.818 36.536C263.402 35.952 264.074 35.496 264.834 35.168C265.594 34.84 266.41 34.676 267.282 34.676C268.13 34.676 268.87 34.868 269.502 35.252C270.134 35.628 270.646 36.124 271.038 36.74V29ZM267.306 44.9C268.01 44.9 268.626 44.728 269.154 44.384C269.682 44.032 270.09 43.56 270.378 42.968C270.674 42.376 270.822 41.72 270.822 41C270.822 40.272 270.674 39.612 270.378 39.02C270.082 38.428 269.67 37.96 269.142 37.616C268.622 37.264 268.01 37.088 267.306 37.088C266.61 37.088 265.974 37.264 265.398 37.616C264.83 37.968 264.374 38.44 264.03 39.032C263.694 39.624 263.526 40.28 263.526 41C263.526 41.728 263.698 42.388 264.042 42.98C264.394 43.564 264.854 44.032 265.422 44.384C265.998 44.728 266.626 44.9 267.306 44.9ZM276.409 47V29H278.905V47H276.409ZM286.892 47.312C285.788 47.312 284.78 47.028 283.868 46.46C282.964 45.892 282.24 45.132 281.696 44.18C281.16 43.22 280.892 42.16 280.892 41C280.892 40.12 281.048 39.3 281.36 38.54C281.672 37.772 282.1 37.1 282.644 36.524C283.196 35.94 283.836 35.484 284.564 35.156C285.292 34.828 286.068 34.664 286.892 34.664C287.812 34.664 288.656 34.856 289.424 35.24C290.192 35.616 290.848 36.14 291.392 36.812C291.936 37.476 292.336 38.244 292.592 39.116C292.848 39.98 292.924 40.9 292.82 41.876H283.568C283.672 42.428 283.872 42.928 284.168 43.376C284.472 43.816 284.856 44.164 285.32 44.42C285.792 44.676 286.316 44.808 286.892 44.816C287.5 44.816 288.052 44.664 288.548 44.36C289.052 44.056 289.464 43.636 289.784 43.1L292.316 43.688C291.836 44.752 291.112 45.624 290.144 46.304C289.176 46.976 288.092 47.312 286.892 47.312ZM283.484 39.968H290.3C290.22 39.392 290.016 38.872 289.688 38.408C289.368 37.936 288.964 37.564 288.476 37.292C287.996 37.012 287.468 36.872 286.892 36.872C286.324 36.872 285.796 37.008 285.308 37.28C284.828 37.552 284.428 37.924 284.108 38.396C283.796 38.86 283.588 39.384 283.484 39.968ZM304.132 29H306.628V47H304.132V45.236C303.74 45.86 303.228 46.364 302.596 46.748C301.964 47.124 301.224 47.312 300.376 47.312C299.504 47.312 298.688 47.148 297.928 46.82C297.168 46.492 296.496 46.04 295.912 45.464C295.336 44.88 294.884 44.208 294.556 43.448C294.228 42.688 294.064 41.872 294.064 41C294.064 40.128 294.228 39.312 294.556 38.552C294.884 37.784 295.336 37.112 295.912 36.536C296.496 35.952 297.168 35.496 297.928 35.168C298.688 34.84 299.504 34.676 300.376 34.676C301.224 34.676 301.964 34.868 302.596 35.252C303.228 35.628 303.74 36.124 304.132 36.74V29ZM300.4 44.9C301.104 44.9 301.72 44.728 302.248 44.384C302.776 44.032 303.184 43.56 303.472 42.968C303.768 42.376 303.916 41.72 303.916 41C303.916 40.272 303.768 39.612 303.472 39.02C303.176 38.428 302.764 37.96 302.236 37.616C301.716 37.264 301.104 37.088 300.4 37.088C299.704 37.088 299.068 37.264 298.492 37.616C297.924 37.968 297.468 38.44 297.124 39.032C296.788 39.624 296.62 40.28 296.62 41C296.62 41.728 296.792 42.388 297.136 42.98C297.488 43.564 297.948 44.032 298.516 44.384C299.092 44.728 299.72 44.9 300.4 44.9Z" fill="#0C1021"/>
<g clip-path="url(#clip0_4002_7048)">
<path d="M24.8257 122.411L29.0771 115.032H24.2342V114.212H30.0257V115.032L25.7626 122.411H24.8257ZM33.7522 122.563C33.2603 122.563 32.8211 122.454 32.4346 122.235C32.0481 122.012 31.7182 121.706 31.4449 121.316C31.1717 120.925 30.9628 120.474 30.8184 119.963C30.6778 119.448 30.6076 118.897 30.6076 118.312C30.6076 117.726 30.6778 117.175 30.8184 116.66C30.9628 116.145 31.1717 115.694 31.4449 115.307C31.7182 114.917 32.0481 114.613 32.4346 114.394C32.8211 114.171 33.2603 114.06 33.7522 114.06C34.2402 114.06 34.6774 114.171 35.0639 114.394C35.4504 114.613 35.7783 114.917 36.0477 115.307C36.3171 115.694 36.522 116.145 36.6626 116.66C36.807 117.175 36.8792 117.726 36.8792 118.312C36.8792 118.897 36.807 119.448 36.6626 119.963C36.522 120.474 36.3171 120.925 36.0477 121.316C35.7783 121.706 35.4504 122.012 35.0639 122.235C34.6774 122.454 34.2402 122.563 33.7522 122.563ZM33.7522 121.743C34.2675 121.743 34.6989 121.585 35.0463 121.269C35.3977 120.953 35.6612 120.535 35.8369 120.016C36.0125 119.492 36.1004 118.924 36.1004 118.312C36.1004 117.663 36.0086 117.082 35.8252 116.566C35.6456 116.047 35.3801 115.637 35.0288 115.337C34.6813 115.032 34.2558 114.88 33.7522 114.88C33.354 114.88 33.0065 114.972 32.7098 115.155C32.4131 115.339 32.1672 115.59 31.972 115.911C31.7768 116.231 31.6304 116.598 31.5328 117.012C31.4352 117.421 31.3864 117.855 31.3864 118.312C31.3864 118.928 31.4762 119.498 31.6558 120.021C31.8353 120.541 32.1008 120.958 32.4522 121.275C32.8035 121.587 33.2369 121.743 33.7522 121.743Z" fill="#535662"/>
<path d="M27.1153 149.24C26.6 149.24 26.1276 149.113 25.6982 148.859C25.2727 148.601 24.9311 148.258 24.6734 147.828C24.4197 147.399 24.2928 146.925 24.2928 146.405C24.2928 146.105 24.3279 145.849 24.3982 145.638C24.4685 145.424 24.5719 145.185 24.7086 144.924L27.0334 140.889H27.9879L26.2838 143.841C26.6273 143.708 26.9728 143.649 27.3203 143.665C27.6677 143.677 27.9996 143.753 28.3158 143.893C28.632 144.034 28.9131 144.227 29.159 144.473C29.405 144.715 29.5982 145 29.7388 145.328C29.8832 145.656 29.9554 146.015 29.9554 146.405C29.9554 146.796 29.8813 147.163 29.7329 147.506C29.5846 147.846 29.3796 148.147 29.1181 148.408C28.8604 148.666 28.5598 148.869 28.2162 149.017C27.8727 149.165 27.5057 149.24 27.1153 149.24ZM27.1153 148.42C27.5057 148.42 27.8532 148.326 28.1577 148.139C28.4622 147.947 28.7003 147.698 28.8721 147.389C29.0478 147.081 29.1356 146.751 29.1356 146.4C29.1356 146.033 29.0458 145.699 28.8662 145.398C28.6867 145.094 28.4446 144.852 28.1401 144.672C27.8356 144.489 27.4979 144.397 27.127 144.397C26.7445 144.397 26.4009 144.491 26.0964 144.678C25.7919 144.865 25.5518 145.111 25.3761 145.416C25.2005 145.716 25.1126 146.044 25.1126 146.4C25.1126 146.782 25.2044 147.126 25.3878 147.43C25.5752 147.735 25.8212 147.977 26.1257 148.156C26.4302 148.332 26.7601 148.42 27.1153 148.42ZM33.7979 149.24C33.306 149.24 32.8668 149.13 32.4803 148.912C32.0939 148.689 31.764 148.383 31.4907 147.992C31.2174 147.602 31.0086 147.151 30.8641 146.64C30.7236 146.124 30.6533 145.574 30.6533 144.988C30.6533 144.403 30.7236 143.852 30.8641 143.337C31.0086 142.822 31.2174 142.371 31.4907 141.984C31.764 141.594 32.0939 141.289 32.4803 141.071C32.8668 140.848 33.306 140.737 33.7979 140.737C34.2859 140.737 34.7232 140.848 35.1096 141.071C35.4961 141.289 35.8241 141.594 36.0934 141.984C36.3628 142.371 36.5678 142.822 36.7083 143.337C36.8527 143.852 36.925 144.403 36.925 144.988C36.925 145.574 36.8527 146.124 36.7083 146.64C36.5678 147.151 36.3628 147.602 36.0934 147.992C35.8241 148.383 35.4961 148.689 35.1096 148.912C34.7232 149.13 34.2859 149.24 33.7979 149.24ZM33.7979 148.42C34.3132 148.42 34.7446 148.262 35.0921 147.946C35.4434 147.629 35.7069 147.212 35.8826 146.692C36.0583 146.169 36.1461 145.601 36.1461 144.988C36.1461 144.34 36.0544 143.759 35.8709 143.243C35.6913 142.724 35.4259 142.314 35.0745 142.013C34.7271 141.709 34.3015 141.557 33.7979 141.557C33.3997 141.557 33.0523 141.648 32.7556 141.832C32.4589 142.015 32.2129 142.267 32.0177 142.587C31.8225 142.907 31.6761 143.274 31.5785 143.688C31.4809 144.098 31.4321 144.532 31.4321 144.988C31.4321 145.605 31.5219 146.175 31.7015 146.698C31.8811 147.217 32.1466 147.635 32.4979 147.951C32.8493 148.264 33.2826 148.42 33.7979 148.42Z" fill="#535662"/>
<path d="M27.0978 175.916C26.5981 175.916 26.1433 175.795 25.7333 175.553C25.3273 175.311 25.0053 174.987 24.7671 174.581C24.529 174.171 24.4099 173.722 24.4099 173.234H25.2297C25.2297 173.574 25.3137 173.886 25.4815 174.171C25.6494 174.452 25.8739 174.677 26.155 174.845C26.44 175.013 26.7542 175.097 27.0978 175.097C27.4374 175.097 27.7478 175.013 28.0289 174.845C28.3099 174.677 28.5344 174.452 28.7023 174.171C28.8741 173.886 28.9599 173.574 28.9599 173.234C28.9599 172.891 28.878 172.579 28.714 172.297C28.5539 172.012 28.3256 171.786 28.0289 171.618C27.7361 171.446 27.3867 171.361 26.9807 171.361H24.9896L25.7626 167.566H29.5982V168.386H26.4243L25.9969 170.541L26.9514 170.547C27.5096 170.554 27.9996 170.673 28.4212 170.904C28.8467 171.134 29.1786 171.45 29.4167 171.852C29.6587 172.251 29.7798 172.711 29.7798 173.234C29.7798 173.601 29.7095 173.947 29.569 174.271C29.4323 174.595 29.2391 174.882 28.9892 175.132C28.7433 175.378 28.4583 175.571 28.1343 175.711C27.8141 175.848 27.4686 175.916 27.0978 175.916ZM33.6264 175.916C33.1345 175.916 32.6953 175.807 32.3088 175.588C31.9223 175.366 31.5924 175.06 31.3191 174.669C31.0459 174.279 30.837 173.828 30.6926 173.316C30.552 172.801 30.4817 172.251 30.4817 171.665C30.4817 171.079 30.552 170.529 30.6926 170.014C30.837 169.498 31.0459 169.047 31.3191 168.661C31.5924 168.271 31.9223 167.966 32.3088 167.747C32.6953 167.525 33.1345 167.414 33.6264 167.414C34.1144 167.414 34.5516 167.525 34.9381 167.747C35.3246 167.966 35.6525 168.271 35.9219 168.661C36.1912 169.047 36.3962 169.498 36.5367 170.014C36.6812 170.529 36.7534 171.079 36.7534 171.665C36.7534 172.251 36.6812 172.801 36.5367 173.316C36.3962 173.828 36.1912 174.279 35.9219 174.669C35.6525 175.06 35.3246 175.366 34.9381 175.588C34.5516 175.807 34.1144 175.916 33.6264 175.916ZM33.6264 175.097C34.1417 175.097 34.5731 174.938 34.9205 174.622C35.2719 174.306 35.5354 173.888 35.7111 173.369C35.8867 172.846 35.9746 172.278 35.9746 171.665C35.9746 171.017 35.8828 170.435 35.6993 169.92C35.5198 169.401 35.2543 168.991 34.9029 168.69C34.5555 168.386 34.13 168.233 33.6264 168.233C33.2282 168.233 32.8807 168.325 32.584 168.509C32.2873 168.692 32.0414 168.944 31.8462 169.264C31.651 169.584 31.5046 169.951 31.407 170.365C31.3094 170.775 31.2606 171.208 31.2606 171.665C31.2606 172.282 31.3504 172.852 31.5299 173.375C31.7095 173.894 31.975 174.312 32.3264 174.628C32.6777 174.94 33.111 175.097 33.6264 175.097Z" fill="#535662"/>
<path d="M28.0054 201.791V199.489H24.4685V198.658L27.7946 193.592H28.8253V198.669H29.6861V199.489H28.8253V201.791H28.0054ZM25.4406 198.658L28.0054 198.669L27.9879 194.763L25.4406 198.658ZM33.5349 201.943C33.043 201.943 32.6038 201.833 32.2173 201.615C31.8308 201.392 31.5009 201.086 31.2276 200.695C30.9544 200.305 30.7455 199.854 30.6011 199.343C30.4605 198.827 30.3902 198.277 30.3902 197.691C30.3902 197.106 30.4605 196.555 30.6011 196.04C30.7455 195.525 30.9544 195.074 31.2276 194.687C31.5009 194.297 31.8308 193.992 32.2173 193.774C32.6038 193.551 33.043 193.44 33.5349 193.44C34.0229 193.44 34.4601 193.551 34.8466 193.774C35.2331 193.992 35.561 194.297 35.8304 194.687C36.0997 195.074 36.3047 195.525 36.4452 196.04C36.5897 196.555 36.6619 197.106 36.6619 197.691C36.6619 198.277 36.5897 198.827 36.4452 199.343C36.3047 199.854 36.0997 200.305 35.8304 200.695C35.561 201.086 35.2331 201.392 34.8466 201.615C34.4601 201.833 34.0229 201.943 33.5349 201.943ZM33.5349 201.123C34.0502 201.123 34.4816 200.965 34.829 200.649C35.1804 200.332 35.4439 199.915 35.6196 199.395C35.7952 198.872 35.8831 198.304 35.8831 197.691C35.8831 197.043 35.7913 196.462 35.6078 195.946C35.4283 195.427 35.1628 195.017 34.8114 194.717C34.464 194.412 34.0385 194.26 33.5349 194.26C33.1367 194.26 32.7892 194.352 32.4925 194.535C32.1958 194.719 31.9499 194.97 31.7547 195.29C31.5595 195.611 31.4131 195.978 31.3155 196.391C31.2179 196.801 31.1691 197.235 31.1691 197.691C31.1691 198.308 31.2589 198.878 31.4385 199.401C31.618 199.921 31.8835 200.338 32.2349 200.654C32.5862 200.967 33.0195 201.123 33.5349 201.123Z" fill="#535662"/>
<path d="M26.8752 228.62C26.3755 228.62 25.9363 228.51 25.5577 228.292C25.179 228.069 24.8823 227.772 24.6676 227.402C24.4568 227.031 24.3514 226.621 24.3514 226.172H25.1712C25.1712 226.468 25.2395 226.742 25.3761 226.992C25.5167 227.238 25.7138 227.435 25.9676 227.583C26.2213 227.727 26.5239 227.8 26.8752 227.8C27.1719 227.8 27.4491 227.727 27.7068 227.583C27.9683 227.435 28.1792 227.238 28.3392 226.992C28.5032 226.742 28.5852 226.468 28.5852 226.172C28.5852 225.801 28.4915 225.492 28.3041 225.247C28.1167 224.997 27.859 224.811 27.5311 224.69C27.2032 224.565 26.8284 224.503 26.4068 224.503V223.824C26.9885 223.824 27.455 223.701 27.8063 223.455C28.1616 223.205 28.3392 222.84 28.3392 222.36C28.3392 222.098 28.267 221.86 28.1226 221.645C27.982 221.43 27.7966 221.259 27.5662 221.13C27.3398 220.997 27.0958 220.931 26.8343 220.931C26.5727 220.931 26.3209 220.997 26.0788 221.13C25.8407 221.259 25.6455 221.43 25.4933 221.645C25.3449 221.86 25.2707 222.098 25.2707 222.36H24.4509C24.4509 222.051 24.5153 221.762 24.6441 221.493C24.773 221.22 24.9487 220.98 25.1712 220.773C25.3937 220.566 25.6475 220.404 25.9324 220.287C26.2174 220.169 26.5161 220.111 26.8284 220.111C27.2383 220.111 27.6189 220.212 27.9703 220.415C28.3256 220.618 28.6125 220.89 28.8311 221.229C29.0497 221.569 29.159 221.946 29.159 222.36C29.159 222.762 29.0556 223.125 28.8487 223.449C28.6418 223.773 28.3626 224.001 28.0113 224.134C28.3158 224.235 28.5715 224.39 28.7784 224.597C28.9853 224.8 29.1415 225.036 29.2469 225.305C29.3523 225.574 29.405 225.863 29.405 226.172C29.405 226.621 29.2879 227.031 29.0536 227.402C28.8194 227.772 28.509 228.069 28.1226 228.292C27.74 228.51 27.3242 228.62 26.8752 228.62ZM33.2489 228.62C32.757 228.62 32.3178 228.51 31.9314 228.292C31.5449 228.069 31.215 227.763 30.9417 227.372C30.6684 226.982 30.4596 226.531 30.3151 226.02C30.1746 225.504 30.1043 224.954 30.1043 224.368C30.1043 223.783 30.1746 223.232 30.3151 222.717C30.4596 222.201 30.6684 221.751 30.9417 221.364C31.215 220.974 31.5449 220.669 31.9314 220.451C32.3178 220.228 32.757 220.117 33.2489 220.117C33.7369 220.117 34.1742 220.228 34.5606 220.451C34.9471 220.669 35.2751 220.974 35.5444 221.364C35.8138 221.751 36.0188 222.201 36.1593 222.717C36.3038 223.232 36.376 223.783 36.376 224.368C36.376 224.954 36.3038 225.504 36.1593 226.02C36.0188 226.531 35.8138 226.982 35.5444 227.372C35.2751 227.763 34.9471 228.069 34.5606 228.292C34.1742 228.51 33.7369 228.62 33.2489 228.62ZM33.2489 227.8C33.7642 227.8 34.1956 227.642 34.5431 227.325C34.8944 227.009 35.158 226.591 35.3336 226.072C35.5093 225.549 35.5971 224.981 35.5971 224.368C35.5971 223.72 35.5054 223.138 35.3219 222.623C35.1423 222.104 34.8769 221.694 34.5255 221.393C34.1781 221.089 33.7525 220.937 33.2489 220.937C32.8507 220.937 32.5033 221.028 32.2066 221.212C31.9099 221.395 31.6639 221.647 31.4687 221.967C31.2735 222.287 31.1271 222.654 31.0295 223.068C30.9319 223.478 30.8831 223.911 30.8831 224.368C30.8831 224.985 30.9729 225.555 31.1525 226.078C31.3321 226.597 31.5976 227.015 31.9489 227.331C32.3003 227.644 32.7336 227.8 33.2489 227.8Z" fill="#535662"/>
<path d="M24.4685 255.795V255.069C24.7886 254.772 25.1399 254.448 25.5225 254.097C25.9051 253.741 26.2838 253.376 26.6586 253.002C27.0373 252.623 27.3828 252.25 27.6951 251.883C28.0074 251.512 28.2572 251.163 28.4446 250.835C28.6359 250.503 28.7316 250.21 28.7316 249.957C28.7316 249.648 28.6554 249.367 28.5032 249.113C28.3548 248.856 28.1538 248.651 27.9 248.498C27.6502 248.342 27.371 248.264 27.0626 248.264C26.7542 248.264 26.4712 248.342 26.2135 248.498C25.9598 248.651 25.7568 248.856 25.6045 249.113C25.4523 249.367 25.3761 249.648 25.3761 249.957H24.5563C24.5563 249.488 24.6695 249.065 24.896 248.686C25.1263 248.307 25.4308 248.007 25.8095 247.784C26.1882 247.558 26.6059 247.444 27.0626 247.444C27.5194 247.444 27.9352 247.558 28.3099 247.784C28.6886 248.01 28.9892 248.313 29.2117 248.692C29.4382 249.07 29.5514 249.492 29.5514 249.957C29.5514 250.234 29.4772 250.538 29.3289 250.87C29.1844 251.198 28.9873 251.54 28.7374 251.895C28.4876 252.246 28.2065 252.602 27.8942 252.961C27.5819 253.32 27.2559 253.671 26.9162 254.015C26.5766 254.354 26.2467 254.674 25.9266 254.975H29.6744V255.795H24.4685ZM33.5806 255.947C33.0887 255.947 32.6495 255.838 32.263 255.619C31.8765 255.397 31.5467 255.09 31.2734 254.7C31.0001 254.309 30.7913 253.859 30.6468 253.347C30.5063 252.832 30.436 252.281 30.436 251.696C30.436 251.11 30.5063 250.56 30.6468 250.044C30.7913 249.529 31.0001 249.078 31.2734 248.692C31.5467 248.301 31.8765 247.997 32.263 247.778C32.6495 247.556 33.0887 247.444 33.5806 247.444C34.0686 247.444 34.5058 247.556 34.8923 247.778C35.2788 247.997 35.6068 248.301 35.8761 248.692C36.1455 249.078 36.3504 249.529 36.491 250.044C36.6354 250.56 36.7077 251.11 36.7077 251.696C36.7077 252.281 36.6354 252.832 36.491 253.347C36.3504 253.859 36.1455 254.309 35.8761 254.7C35.6068 255.09 35.2788 255.397 34.8923 255.619C34.5058 255.838 34.0686 255.947 33.5806 255.947ZM33.5806 255.127C34.0959 255.127 34.5273 254.969 34.8748 254.653C35.2261 254.337 35.4896 253.919 35.6653 253.4C35.841 252.877 35.9288 252.309 35.9288 251.696C35.9288 251.048 35.8371 250.466 35.6536 249.951C35.474 249.432 35.2085 249.022 34.8572 248.721C34.5097 248.416 34.0842 248.264 33.5806 248.264C33.1824 248.264 32.835 248.356 32.5383 248.539C32.2416 248.723 31.9956 248.975 31.8004 249.295C31.6052 249.615 31.4588 249.982 31.3612 250.396C31.2636 250.806 31.2148 251.239 31.2148 251.696C31.2148 252.313 31.3046 252.883 31.4842 253.406C31.6638 253.925 31.9292 254.343 32.2806 254.659C32.632 254.971 33.0653 255.127 33.5806 255.127Z" fill="#535662"/>
<path d="M25.3469 281.821V274.442H24.4685L24.7027 273.623H26.1667V281.821H25.3469ZM30.5955 281.973C30.1036 281.973 29.6644 281.864 29.2779 281.645C28.8914 281.423 28.5615 281.116 28.2883 280.726C28.015 280.335 27.8061 279.884 27.6617 279.373C27.5211 278.858 27.4509 278.307 27.4509 277.722C27.4509 277.136 27.5211 276.586 27.6617 276.07C27.8061 275.555 28.015 275.104 28.2883 274.718C28.5615 274.327 28.8914 274.023 29.2779 273.804C29.6644 273.582 30.1036 273.47 30.5955 273.47C31.0835 273.47 31.5207 273.582 31.9072 273.804C32.2937 274.023 32.6216 274.327 32.891 274.718C33.1604 275.104 33.3653 275.555 33.5059 276.07C33.6503 276.586 33.7225 277.136 33.7225 277.722C33.7225 278.307 33.6503 278.858 33.5059 279.373C33.3653 279.884 33.1604 280.335 32.891 280.726C32.6216 281.116 32.2937 281.423 31.9072 281.645C31.5207 281.864 31.0835 281.973 30.5955 281.973ZM30.5955 281.153C31.1108 281.153 31.5422 280.995 31.8896 280.679C32.241 280.363 32.5045 279.945 32.6802 279.426C32.8559 278.903 32.9437 278.335 32.9437 277.722C32.9437 277.074 32.8519 276.492 32.6685 275.977C32.4889 275.457 32.2234 275.047 31.8721 274.747C31.5246 274.442 31.0991 274.29 30.5955 274.29C30.1973 274.29 29.8498 274.382 29.5531 274.565C29.2564 274.749 29.0105 275.001 28.8153 275.321C28.6201 275.641 28.4737 276.008 28.3761 276.422C28.2785 276.832 28.2297 277.265 28.2297 277.722C28.2297 278.338 28.3195 278.908 28.4991 279.432C28.6786 279.951 28.9441 280.369 29.2955 280.685C29.6468 280.997 30.0802 281.153 30.5955 281.153Z" fill="#535662"/>
<path d="M27.496 304.746C27.0041 304.746 26.5649 304.637 26.1784 304.418C25.7919 304.196 25.462 303.889 25.1887 303.499C24.9155 303.108 24.7066 302.657 24.5622 302.146C24.4216 301.631 24.3514 301.08 24.3514 300.495C24.3514 299.909 24.4216 299.359 24.5622 298.843C24.7066 298.328 24.9155 297.877 25.1887 297.491C25.462 297.1 25.7919 296.796 26.1784 296.577C26.5649 296.355 27.0041 296.243 27.496 296.243C27.984 296.243 28.4212 296.355 28.8077 296.577C29.1942 296.796 29.5221 297.1 29.7915 297.491C30.0609 297.877 30.2658 298.328 30.4063 298.843C30.5508 299.359 30.623 299.909 30.623 300.495C30.623 301.08 30.5508 301.631 30.4063 302.146C30.2658 302.657 30.0609 303.108 29.7915 303.499C29.5221 303.889 29.1942 304.196 28.8077 304.418C28.4212 304.637 27.984 304.746 27.496 304.746ZM27.496 303.926C28.0113 303.926 28.4427 303.768 28.7901 303.452C29.1415 303.136 29.405 302.718 29.5807 302.199C29.7563 301.676 29.8442 301.108 29.8442 300.495C29.8442 299.847 29.7524 299.265 29.569 298.75C29.3894 298.23 29.1239 297.82 28.7726 297.52C28.4251 297.215 27.9996 297.063 27.496 297.063C27.0978 297.063 26.7503 297.155 26.4536 297.338C26.1569 297.522 25.911 297.774 25.7158 298.094C25.5206 298.414 25.3742 298.781 25.2766 299.195C25.179 299.605 25.1302 300.038 25.1302 300.495C25.1302 301.111 25.22 301.681 25.3996 302.205C25.5791 302.724 25.8446 303.141 26.196 303.458C26.5473 303.77 26.9807 303.926 27.496 303.926Z" fill="#535662"/>
<rect x="403" y="144.594" width="0.650664" height="352.326" transform="rotate(90 403 144.594)" fill="#535662" fill-opacity="0.08"/>
<rect x="403" y="117.917" width="0.650664" height="352.326" transform="rotate(90 403 117.917)" fill="#535662" fill-opacity="0.08"/>
<rect x="403" y="171.271" width="0.650664" height="352.326" transform="rotate(90 403 171.271)" fill="#535662" fill-opacity="0.08"/>
<rect x="403" y="197.948" width="0.650664" height="352.326" transform="rotate(90 403 197.948)" fill="#535662" fill-opacity="0.08"/>
<rect x="403" y="224.625" width="0.650664" height="352.326" transform="rotate(90 403 224.625)" fill="#535662" fill-opacity="0.08"/>
<rect x="403" y="251.301" width="0.650664" height="352.326" transform="rotate(90 403 251.301)" fill="#535662" fill-opacity="0.08"/>
<rect x="403" y="277.978" width="0.650664" height="352.326" transform="rotate(90 403 277.978)" fill="#535662" fill-opacity="0.08"/>
<path d="M68 174.952C68 171.113 71.1127 168 74.9525 168H147.048C150.887 168 154 171.113 154 174.952V299H68V174.952Z" fill="#B0C0FC"/>
<path d="M74.9521 168.29H147.048C150.727 168.29 153.71 171.273 153.71 174.952V298.71H68.29V174.952C68.2902 171.273 71.2726 168.29 74.9521 168.29Z" stroke="#0C1021" stroke-opacity="0.25" stroke-width="0.579372"/>
<path d="M295 158.952C295 155.113 298.113 152 301.952 152H384.048C387.887 152 391 155.113 391 158.952V299H295V158.952Z" fill="#B0C0FC"/>
<path d="M301.952 152.29H384.048C387.727 152.29 390.71 155.273 390.71 158.952V298.71H295.29V158.952C295.29 155.273 298.273 152.29 301.952 152.29Z" stroke="#0C1021" stroke-opacity="0.25" stroke-width="0.579372"/>
<rect x="24" y="250" width="508" height="170" fill="url(#paint0_linear_4002_7048)"/>
<path d="M179.952 144.29H265.048C268.727 144.29 271.71 147.273 271.71 150.952V298.71H173.29V150.952C173.29 147.273 176.273 144.29 179.952 144.29Z" fill="#7994FD" stroke="#4268FF" stroke-width="0.579372"/>
<rect x="65" y="222" width="338" height="77" fill="url(#paint1_linear_4002_7048)"/>
<path d="M69.7027 316V307.802H72.4725C72.8707 307.802 73.2319 307.884 73.5559 308.048C73.8838 308.208 74.1434 308.444 74.3347 308.756C74.5299 309.065 74.6275 309.439 74.6275 309.881C74.6275 310.13 74.5826 310.369 74.4928 310.595C74.403 310.821 74.2859 311.015 74.1415 311.175C73.997 311.331 73.8409 311.432 73.673 311.479C73.915 311.542 74.1239 311.651 74.2996 311.807C74.4753 311.959 74.6197 312.141 74.7329 312.352C74.8461 312.559 74.9281 312.777 74.9789 313.008C75.0335 313.238 75.0609 313.464 75.0609 313.687C75.0609 314.148 74.9593 314.552 74.7563 314.899C74.5572 315.247 74.2898 315.518 73.9541 315.713C73.6183 315.904 73.2455 316 72.8356 316H69.7027ZM70.5225 315.268H72.7712C73.0562 315.268 73.3138 315.194 73.5442 315.045C73.7784 314.897 73.9638 314.694 74.1005 314.436C74.241 314.179 74.3113 313.888 74.3113 313.564C74.3113 313.275 74.241 313.004 74.1005 312.75C73.9638 312.492 73.7784 312.285 73.5442 312.129C73.3138 311.969 73.0562 311.889 72.7712 311.889H70.5225V315.268ZM70.5225 311.169H72.4023C72.7888 311.169 73.1186 311.058 73.3919 310.835C73.6691 310.609 73.8077 310.289 73.8077 309.875C73.8077 309.422 73.6691 309.086 73.3919 308.868C73.1186 308.645 72.7888 308.534 72.4023 308.534H70.5225V311.169ZM80.8182 310.144H81.638V316H80.8182L80.7889 314.911C80.5976 315.282 80.3302 315.582 79.9867 315.813C79.6431 316.039 79.2332 316.152 78.7569 316.152C78.3275 316.152 77.9254 316.072 77.5506 315.912C77.1758 315.748 76.846 315.524 76.561 315.239C76.276 314.954 76.0535 314.624 75.8934 314.249C75.7333 313.874 75.6533 313.472 75.6533 313.043C75.6533 312.621 75.7314 312.225 75.8875 311.854C76.0476 311.483 76.2662 311.157 76.5434 310.876C76.8245 310.595 77.1485 310.376 77.5155 310.22C77.8864 310.06 78.2826 309.98 78.7042 309.98C79.1922 309.98 79.6177 310.097 79.9808 310.331C80.3439 310.562 80.6328 310.864 80.8475 311.239L80.8182 310.144ZM78.7394 315.356C79.1571 315.356 79.5162 315.254 79.8168 315.051C80.1174 314.844 80.3478 314.567 80.5078 314.22C80.6718 313.872 80.7538 313.49 80.7538 313.072C80.7538 312.643 80.6718 312.256 80.5078 311.913C80.3439 311.565 80.1116 311.29 79.811 311.087C79.5104 310.884 79.1532 310.782 78.7394 310.782C78.3255 310.782 77.9469 310.886 77.6033 311.093C77.2637 311.296 76.9924 311.571 76.7893 311.918C76.5902 312.266 76.4907 312.65 76.4907 313.072C76.4907 313.498 76.5942 313.884 76.8011 314.232C77.008 314.575 77.2812 314.848 77.6209 315.051C77.9644 315.254 78.3373 315.356 78.7394 315.356ZM82.8899 316V307.216H83.7097V316H82.8899ZM89.888 310.144H90.7078V316H89.888L89.8587 314.911C89.6674 315.282 89.4 315.582 89.0564 315.813C88.7129 316.039 88.303 316.152 87.8267 316.152C87.3973 316.152 86.9952 316.072 86.6204 315.912C86.2456 315.748 85.9157 315.524 85.6307 315.239C85.3458 314.954 85.1232 314.624 84.9632 314.249C84.8031 313.874 84.7231 313.472 84.7231 313.043C84.7231 312.621 84.8012 312.225 84.9573 311.854C85.1174 311.483 85.336 311.157 85.6132 310.876C85.8943 310.595 86.2183 310.376 86.5853 310.22C86.9561 310.06 87.3524 309.98 87.774 309.98C88.262 309.98 88.6875 310.097 89.0506 310.331C89.4136 310.562 89.7025 310.864 89.9173 311.239L89.888 310.144ZM87.8091 315.356C88.2269 315.356 88.586 315.254 88.8866 315.051C89.1872 314.844 89.4176 314.567 89.5776 314.22C89.7416 313.872 89.8236 313.49 89.8236 313.072C89.8236 312.643 89.7416 312.256 89.5776 311.913C89.4137 311.565 89.1814 311.29 88.8808 311.087C88.5802 310.884 88.223 310.782 87.8091 310.782C87.3953 310.782 87.0166 310.886 86.6731 311.093C86.3334 311.296 86.0621 311.571 85.8591 311.918C85.66 312.266 85.5605 312.65 85.5605 313.072C85.5605 313.498 85.6639 313.884 85.8708 314.232C86.0777 314.575 86.351 314.848 86.6907 315.051C87.0342 315.254 87.407 315.356 87.8091 315.356ZM96.986 312.375V316H96.1661V312.539C96.1661 312.219 96.0881 311.928 95.9319 311.667C95.7757 311.405 95.5669 311.196 95.3053 311.04C95.0438 310.884 94.7529 310.806 94.4328 310.806C94.1166 310.806 93.8257 310.884 93.5603 311.04C93.2987 311.196 93.0898 311.405 92.9337 311.667C92.7775 311.928 92.6994 312.219 92.6994 312.539V316H91.8796V310.144H92.6994V310.952C92.9064 310.656 93.1757 310.419 93.5076 310.244C93.8394 310.068 94.2005 309.98 94.5909 309.98C95.032 309.98 95.4342 310.087 95.7972 310.302C96.1603 310.517 96.4492 310.806 96.6639 311.169C96.8786 311.532 96.986 311.934 96.986 312.375ZM102.225 314.53L102.957 314.928C102.692 315.299 102.354 315.596 101.944 315.818C101.538 316.041 101.097 316.152 100.621 316.152C100.082 316.152 99.5903 316.014 99.1452 315.736C98.7041 315.459 98.3508 315.088 98.0853 314.624C97.8238 314.155 97.693 313.638 97.693 313.072C97.693 312.643 97.7691 312.242 97.9214 311.872C98.0736 311.497 98.2825 311.169 98.5479 310.888C98.8173 310.603 99.1296 310.38 99.4849 310.22C99.8401 310.06 100.219 309.98 100.621 309.98C101.097 309.98 101.538 310.091 101.944 310.314C102.354 310.536 102.692 310.835 102.957 311.21L102.225 311.602C102.022 311.345 101.778 311.147 101.493 311.011C101.208 310.87 100.918 310.8 100.621 310.8C100.227 310.8 99.8694 310.905 99.5493 311.116C99.2292 311.323 98.9754 311.598 98.788 311.942C98.6045 312.285 98.5128 312.662 98.5128 313.072C98.5128 313.482 98.6065 313.859 98.7939 314.202C98.9852 314.546 99.2409 314.821 99.561 315.028C99.8811 315.231 100.234 315.332 100.621 315.332C100.941 315.332 101.242 315.258 101.523 315.11C101.804 314.962 102.038 314.768 102.225 314.53ZM106.511 316.152C105.972 316.152 105.48 316.014 105.035 315.736C104.594 315.459 104.241 315.088 103.976 314.624C103.714 314.155 103.583 313.638 103.583 313.072C103.583 312.643 103.659 312.242 103.812 311.872C103.964 311.497 104.173 311.169 104.438 310.888C104.708 310.603 105.02 310.38 105.375 310.22C105.73 310.06 106.109 309.98 106.511 309.98C106.944 309.98 107.343 310.066 107.706 310.238C108.073 310.41 108.387 310.65 108.649 310.958C108.914 311.266 109.113 311.628 109.246 312.041C109.382 312.455 109.439 312.902 109.416 313.382H104.45C104.497 313.753 104.614 314.085 104.801 314.378C104.992 314.671 105.235 314.903 105.527 315.075C105.824 315.243 106.152 315.329 106.511 315.332C106.902 315.332 107.253 315.231 107.565 315.028C107.881 314.825 108.135 314.546 108.326 314.191L109.158 314.384C108.924 314.903 108.57 315.329 108.098 315.66C107.626 315.988 107.097 316.152 106.511 316.152ZM104.426 312.721H108.59C108.563 312.358 108.451 312.026 108.256 311.725C108.065 311.421 107.817 311.179 107.512 310.999C107.208 310.816 106.874 310.724 106.511 310.724C106.148 310.724 105.816 310.814 105.516 310.993C105.215 311.169 104.969 311.409 104.778 311.713C104.586 312.014 104.469 312.35 104.426 312.721ZM113.29 310.144H114.11V316H113.29V310.144ZM113.706 309.119C113.573 309.119 113.46 309.076 113.366 308.99C113.277 308.901 113.232 308.789 113.232 308.657C113.232 308.524 113.277 308.415 113.366 308.329C113.46 308.239 113.573 308.194 113.706 308.194C113.835 308.194 113.944 308.239 114.034 308.329C114.128 308.415 114.174 308.524 114.174 308.657C114.174 308.789 114.13 308.901 114.04 308.99C113.95 309.076 113.839 309.119 113.706 309.119ZM120.604 312.375V316H119.784V312.539C119.784 312.219 119.706 311.928 119.55 311.667C119.394 311.405 119.185 311.196 118.923 311.04C118.662 310.884 118.371 310.806 118.051 310.806C117.735 310.806 117.444 310.884 117.178 311.04C116.917 311.196 116.708 311.405 116.552 311.667C116.396 311.928 116.317 312.219 116.317 312.539V316H115.498V310.144H116.317V310.952C116.524 310.656 116.794 310.419 117.126 310.244C117.457 310.068 117.819 309.98 118.209 309.98C118.65 309.98 119.052 310.087 119.415 310.302C119.778 310.517 120.067 310.806 120.282 311.169C120.497 311.532 120.604 311.934 120.604 312.375ZM124.391 316.164C123.825 316.164 123.308 316.025 122.839 315.748C122.375 315.471 122.004 315.098 121.727 314.63C121.45 314.161 121.311 313.642 121.311 313.072C121.311 312.647 121.391 312.248 121.551 311.877C121.711 311.507 121.932 311.181 122.213 310.9C122.498 310.615 122.826 310.392 123.197 310.232C123.567 310.072 123.966 309.992 124.391 309.992C124.875 309.992 125.293 310.107 125.644 310.337C125.996 310.568 126.273 310.868 126.476 311.239V310.144H127.296V318.928H126.476V314.917C126.273 315.288 125.996 315.588 125.644 315.818C125.293 316.049 124.875 316.164 124.391 316.164ZM124.397 310.788C123.983 310.788 123.605 310.892 123.261 311.099C122.921 311.306 122.65 311.583 122.447 311.93C122.248 312.274 122.148 312.654 122.148 313.072C122.148 313.501 122.25 313.89 122.453 314.237C122.66 314.581 122.933 314.854 123.273 315.057C123.616 315.26 123.991 315.362 124.397 315.362C124.815 315.362 125.174 315.258 125.475 315.051C125.775 314.844 126.005 314.567 126.166 314.22C126.329 313.872 126.411 313.49 126.411 313.072C126.411 312.647 126.329 312.262 126.166 311.918C126.002 311.575 125.769 311.302 125.469 311.099C125.168 310.892 124.811 310.788 124.397 310.788ZM128.382 313.757V310.144H129.202V313.593C129.202 313.913 129.28 314.204 129.436 314.466C129.592 314.727 129.801 314.936 130.063 315.092C130.328 315.248 130.619 315.327 130.935 315.327C131.255 315.327 131.544 315.248 131.802 315.092C132.063 314.936 132.272 314.727 132.428 314.466C132.585 314.204 132.663 313.913 132.663 313.593V310.144H133.482L133.488 316H132.668L132.663 315.18C132.456 315.477 132.186 315.713 131.855 315.889C131.527 316.064 131.167 316.152 130.777 316.152C130.336 316.152 129.934 316.045 129.571 315.83C129.208 315.615 128.919 315.327 128.704 314.964C128.489 314.6 128.382 314.198 128.382 313.757ZM134.655 310.144H135.475V316H134.655V310.144ZM135.071 309.119C134.938 309.119 134.825 309.076 134.731 308.99C134.641 308.901 134.597 308.789 134.597 308.657C134.597 308.524 134.641 308.415 134.731 308.329C134.825 308.239 134.938 308.194 135.071 308.194C135.2 308.194 135.309 308.239 135.399 308.329C135.493 308.415 135.539 308.524 135.539 308.657C135.539 308.789 135.494 308.901 135.405 308.99C135.315 309.076 135.204 309.119 135.071 309.119ZM136.863 316V310.144H137.682V310.952C137.889 310.656 138.159 310.419 138.49 310.244C138.822 310.068 139.183 309.98 139.574 309.98C139.8 309.98 140.019 310.009 140.23 310.068L139.896 310.882C139.732 310.831 139.572 310.806 139.416 310.806C139.099 310.806 138.809 310.884 138.543 311.04C138.282 311.196 138.073 311.405 137.917 311.667C137.76 311.928 137.682 312.219 137.682 312.539V316H136.863ZM140.968 310.144H141.788V316H140.968V310.144ZM141.384 309.119C141.252 309.119 141.138 309.076 141.045 308.99C140.955 308.901 140.91 308.789 140.91 308.657C140.91 308.524 140.955 308.415 141.045 308.329C141.138 308.239 141.252 308.194 141.384 308.194C141.513 308.194 141.622 308.239 141.712 308.329C141.806 308.415 141.853 308.524 141.853 308.657C141.853 308.789 141.808 308.901 141.718 308.99C141.628 309.076 141.517 309.119 141.384 309.119ZM145.718 316.152C145.179 316.152 144.688 316.014 144.242 315.736C143.801 315.459 143.448 315.088 143.183 314.624C142.921 314.155 142.79 313.638 142.79 313.072C142.79 312.643 142.866 312.242 143.019 311.872C143.171 311.497 143.38 311.169 143.645 310.888C143.915 310.603 144.227 310.38 144.582 310.22C144.937 310.06 145.316 309.98 145.718 309.98C146.152 309.98 146.55 310.066 146.913 310.238C147.28 310.41 147.594 310.65 147.856 310.958C148.121 311.266 148.32 311.628 148.453 312.041C148.59 312.455 148.646 312.902 148.623 313.382H143.657C143.704 313.753 143.821 314.085 144.008 314.378C144.2 314.671 144.442 314.903 144.734 315.075C145.031 315.243 145.359 315.329 145.718 315.332C146.109 315.332 146.46 315.231 146.772 315.028C147.088 314.825 147.342 314.546 147.534 314.191L148.365 314.384C148.131 314.903 147.777 315.329 147.305 315.66C146.833 315.988 146.304 316.152 145.718 316.152ZM143.633 312.721H147.797C147.77 312.358 147.658 312.026 147.463 311.725C147.272 311.421 147.024 311.179 146.72 310.999C146.415 310.816 146.081 310.724 145.718 310.724C145.355 310.724 145.023 310.814 144.723 310.993C144.422 311.169 144.176 311.409 143.985 311.713C143.794 312.014 143.676 312.35 143.633 312.721ZM151.447 316.111C151.127 316.103 150.815 316.045 150.51 315.936C150.206 315.826 149.941 315.678 149.714 315.491C149.488 315.303 149.326 315.09 149.228 314.852L149.937 314.548C149.999 314.7 150.114 314.841 150.282 314.969C150.454 315.094 150.649 315.196 150.868 315.274C151.086 315.348 151.303 315.385 151.518 315.385C151.756 315.385 151.978 315.346 152.185 315.268C152.392 315.19 152.56 315.079 152.689 314.934C152.822 314.786 152.888 314.612 152.888 314.413C152.888 314.198 152.818 314.03 152.677 313.909C152.537 313.785 152.359 313.687 152.144 313.617C151.93 313.542 151.709 313.472 151.483 313.406C151.069 313.293 150.704 313.168 150.388 313.031C150.071 312.894 149.823 312.721 149.644 312.51C149.468 312.295 149.38 312.02 149.38 311.684C149.38 311.329 149.48 311.022 149.679 310.765C149.882 310.503 150.145 310.302 150.47 310.162C150.797 310.017 151.147 309.945 151.518 309.945C151.994 309.945 152.427 310.048 152.818 310.255C153.212 310.462 153.497 310.738 153.673 311.081L153.011 311.473C152.941 311.313 152.829 311.175 152.677 311.058C152.525 310.941 152.351 310.849 152.156 310.782C151.965 310.716 151.77 310.681 151.57 310.677C151.321 310.673 151.088 310.71 150.874 310.788C150.659 310.862 150.485 310.974 150.352 311.122C150.224 311.27 150.159 311.452 150.159 311.667C150.159 311.881 150.224 312.045 150.352 312.159C150.481 312.268 150.655 312.358 150.874 312.428C151.096 312.494 151.346 312.572 151.623 312.662C151.978 312.775 152.312 312.904 152.624 313.049C152.937 313.193 153.189 313.373 153.38 313.587C153.571 313.802 153.665 314.073 153.661 314.401C153.661 314.753 153.556 315.059 153.345 315.321C153.134 315.582 152.861 315.783 152.525 315.924C152.189 316.061 151.83 316.123 151.447 316.111Z" fill="#535662"/>
<path d="M176.703 315.5V307.302H179.326C179.763 307.302 180.158 307.409 180.509 307.624C180.86 307.835 181.14 308.122 181.346 308.485C181.557 308.844 181.663 309.248 181.663 309.697C181.663 310.15 181.555 310.558 181.341 310.921C181.13 311.284 180.847 311.571 180.491 311.782C180.14 311.992 179.752 312.098 179.326 312.098H177.523V315.5H176.703ZM177.523 311.278H179.262C179.551 311.278 179.814 311.208 180.052 311.067C180.294 310.923 180.486 310.729 180.626 310.487C180.771 310.241 180.843 309.964 180.843 309.656C180.843 309.347 180.771 309.072 180.626 308.83C180.486 308.584 180.294 308.391 180.052 308.25C179.814 308.106 179.551 308.034 179.262 308.034H177.523V311.278ZM187.166 309.644H187.986V315.5H187.166L187.137 314.411C186.946 314.782 186.678 315.082 186.335 315.313C185.991 315.539 185.581 315.652 185.105 315.652C184.676 315.652 184.273 315.572 183.899 315.412C183.524 315.248 183.194 315.024 182.909 314.739C182.624 314.454 182.402 314.124 182.241 313.749C182.081 313.374 182.001 312.972 182.001 312.543C182.001 312.121 182.079 311.725 182.236 311.354C182.396 310.983 182.614 310.657 182.891 310.376C183.173 310.095 183.497 309.876 183.864 309.72C184.234 309.56 184.631 309.48 185.052 309.48C185.54 309.48 185.966 309.597 186.329 309.831C186.692 310.062 186.981 310.364 187.196 310.739L187.166 309.644ZM185.087 314.856C185.505 314.856 185.864 314.754 186.165 314.551C186.466 314.344 186.696 314.067 186.856 313.72C187.02 313.372 187.102 312.99 187.102 312.572C187.102 312.143 187.02 311.756 186.856 311.413C186.692 311.065 186.46 310.79 186.159 310.587C185.858 310.384 185.501 310.282 185.087 310.282C184.674 310.282 184.295 310.386 183.951 310.593C183.612 310.796 183.34 311.071 183.137 311.418C182.938 311.766 182.839 312.15 182.839 312.572C182.839 312.998 182.942 313.384 183.149 313.732C183.356 314.075 183.629 314.348 183.969 314.551C184.313 314.754 184.685 314.856 185.087 314.856ZM193.032 309.644H193.899L190.695 318.428H189.823L190.889 315.5L188.786 309.644H189.682L191.299 314.37L193.032 309.644ZM194.968 315.5V309.644H195.788V310.452C195.999 310.156 196.268 309.919 196.596 309.744C196.924 309.568 197.283 309.48 197.673 309.48C198.115 309.48 198.519 309.589 198.886 309.808C199.253 310.023 199.54 310.31 199.746 310.669C199.953 310.31 200.238 310.023 200.601 309.808C200.965 309.589 201.367 309.48 201.808 309.48C202.249 309.48 202.651 309.587 203.014 309.802C203.377 310.017 203.666 310.306 203.881 310.669C204.095 311.032 204.203 311.434 204.203 311.875V315.5H203.383V312.057C203.383 311.744 203.307 311.456 203.155 311.19C203.002 310.925 202.797 310.712 202.54 310.552C202.286 310.388 202.003 310.306 201.691 310.306C201.378 310.306 201.093 310.382 200.836 310.534C200.582 310.683 200.379 310.889 200.227 311.155C200.074 311.416 199.998 311.717 199.998 312.057V315.5H199.178V312.057C199.178 311.717 199.102 311.416 198.95 311.155C198.798 310.889 198.593 310.683 198.335 310.534C198.078 310.382 197.793 310.306 197.48 310.306C197.172 310.306 196.889 310.388 196.631 310.552C196.373 310.712 196.169 310.925 196.016 311.19C195.864 311.456 195.788 311.744 195.788 312.057V315.5H194.968ZM207.838 315.652C207.299 315.652 206.808 315.514 206.363 315.236C205.921 314.959 205.568 314.588 205.303 314.124C205.041 313.655 204.91 313.138 204.91 312.572C204.91 312.143 204.986 311.742 205.139 311.372C205.291 310.997 205.5 310.669 205.765 310.388C206.035 310.103 206.347 309.88 206.702 309.72C207.057 309.56 207.436 309.48 207.838 309.48C208.272 309.48 208.67 309.566 209.033 309.738C209.4 309.91 209.714 310.15 209.976 310.458C210.241 310.766 210.44 311.128 210.573 311.541C210.71 311.955 210.766 312.402 210.743 312.882H205.777C205.824 313.253 205.941 313.585 206.128 313.878C206.32 314.171 206.562 314.403 206.854 314.575C207.151 314.743 207.479 314.829 207.838 314.832C208.229 314.832 208.58 314.731 208.892 314.528C209.209 314.325 209.462 314.046 209.654 313.691L210.485 313.884C210.251 314.403 209.898 314.829 209.425 315.16C208.953 315.488 208.424 315.652 207.838 315.652ZM205.754 312.221H209.917C209.89 311.858 209.778 311.526 209.583 311.225C209.392 310.921 209.144 310.679 208.84 310.499C208.535 310.316 208.201 310.224 207.838 310.224C207.475 310.224 207.143 310.314 206.843 310.493C206.542 310.669 206.296 310.909 206.105 311.213C205.914 311.514 205.796 311.85 205.754 312.221ZM216.853 311.875V315.5H216.033V312.039C216.033 311.719 215.955 311.428 215.799 311.167C215.643 310.905 215.434 310.696 215.172 310.54C214.911 310.384 214.62 310.306 214.3 310.306C213.984 310.306 213.693 310.384 213.427 310.54C213.166 310.696 212.957 310.905 212.801 311.167C212.644 311.428 212.566 311.719 212.566 312.039V315.5H211.747V309.644H212.566V310.452C212.773 310.156 213.043 309.919 213.375 309.744C213.706 309.568 214.067 309.48 214.458 309.48C214.899 309.48 215.301 309.587 215.664 309.802C216.027 310.017 216.316 310.306 216.531 310.669C216.746 311.032 216.853 311.434 216.853 311.875ZM221.018 310.464H219.618L219.613 315.5H218.793L218.799 310.464H217.739V309.644H218.799L218.793 307.805H219.613L219.618 309.644H221.018V310.464ZM225.696 318.428H224.877V309.644H225.696V310.739C225.899 310.368 226.177 310.068 226.528 309.837C226.879 309.607 227.297 309.492 227.781 309.492C228.207 309.492 228.605 309.572 228.976 309.732C229.35 309.892 229.678 310.115 229.96 310.4C230.241 310.681 230.461 311.007 230.621 311.377C230.781 311.748 230.861 312.147 230.861 312.572C230.861 312.998 230.781 313.398 230.621 313.773C230.461 314.147 230.241 314.477 229.96 314.762C229.678 315.043 229.35 315.264 228.976 315.424C228.605 315.584 228.207 315.664 227.781 315.664C227.297 315.664 226.879 315.549 226.528 315.318C226.177 315.088 225.899 314.788 225.696 314.417V318.428ZM227.775 310.288C227.365 310.288 227.008 310.392 226.704 310.599C226.403 310.802 226.171 311.075 226.007 311.418C225.843 311.762 225.761 312.147 225.761 312.572C225.761 312.99 225.841 313.372 226.001 313.72C226.165 314.067 226.397 314.344 226.698 314.551C227.002 314.758 227.361 314.862 227.775 314.862C228.181 314.862 228.554 314.76 228.894 314.557C229.237 314.354 229.513 314.081 229.719 313.737C229.926 313.39 230.03 313.001 230.03 312.572C230.03 312.154 229.928 311.774 229.725 311.43C229.522 311.083 229.251 310.806 228.911 310.599C228.572 310.392 228.193 310.288 227.775 310.288ZM231.808 315.5V306.716H232.627V315.5H231.808ZM238.806 309.644H239.625V315.5H238.806L238.776 314.411C238.585 314.782 238.318 315.082 237.974 315.313C237.631 315.539 237.221 315.652 236.744 315.652C236.315 315.652 235.913 315.572 235.538 315.412C235.163 315.248 234.833 315.024 234.548 314.739C234.263 314.454 234.041 314.124 233.881 313.749C233.721 313.374 233.641 312.972 233.641 312.543C233.641 312.121 233.719 311.725 233.875 311.354C234.035 310.983 234.254 310.657 234.531 310.376C234.812 310.095 235.136 309.876 235.503 309.72C235.874 309.56 236.27 309.48 236.692 309.48C237.18 309.48 237.605 309.597 237.968 309.831C238.331 310.062 238.62 310.364 238.835 310.739L238.806 309.644ZM236.727 314.856C237.145 314.856 237.504 314.754 237.804 314.551C238.105 314.344 238.335 314.067 238.495 313.72C238.659 313.372 238.741 312.99 238.741 312.572C238.741 312.143 238.659 311.756 238.495 311.413C238.331 311.065 238.099 310.79 237.798 310.587C237.498 310.384 237.141 310.282 236.727 310.282C236.313 310.282 235.934 310.386 235.591 310.593C235.251 310.796 234.98 311.071 234.777 311.418C234.578 311.766 234.478 312.15 234.478 312.572C234.478 312.998 234.582 313.384 234.789 313.732C234.995 314.075 235.269 314.348 235.608 314.551C235.952 314.754 236.325 314.856 236.727 314.856ZM245.904 311.875V315.5H245.084V312.039C245.084 311.719 245.006 311.428 244.85 311.167C244.693 310.905 244.485 310.696 244.223 310.54C243.961 310.384 243.671 310.306 243.35 310.306C243.034 310.306 242.743 310.384 242.478 310.54C242.216 310.696 242.008 310.905 241.851 311.167C241.695 311.428 241.617 311.719 241.617 312.039V315.5H240.797V309.644H241.617V310.452C241.824 310.156 242.093 309.919 242.425 309.744C242.757 309.568 243.118 309.48 243.509 309.48C243.95 309.48 244.352 309.587 244.715 309.802C245.078 310.017 245.367 310.306 245.582 310.669C245.796 311.032 245.904 311.434 245.904 311.875ZM251.699 315.611C251.379 315.603 251.067 315.545 250.762 315.436C250.458 315.326 250.193 315.178 249.966 314.991C249.74 314.803 249.578 314.59 249.48 314.352L250.189 314.048C250.251 314.2 250.366 314.341 250.534 314.469C250.706 314.594 250.901 314.696 251.12 314.774C251.338 314.848 251.555 314.885 251.77 314.885C252.008 314.885 252.23 314.846 252.437 314.768C252.644 314.69 252.812 314.579 252.941 314.434C253.074 314.286 253.14 314.112 253.14 313.913C253.14 313.698 253.07 313.53 252.929 313.409C252.789 313.285 252.611 313.187 252.396 313.117C252.182 313.042 251.961 312.972 251.735 312.906C251.321 312.793 250.956 312.668 250.64 312.531C250.323 312.394 250.075 312.221 249.896 312.01C249.72 311.795 249.632 311.52 249.632 311.184C249.632 310.829 249.732 310.522 249.931 310.265C250.134 310.003 250.397 309.802 250.721 309.662C251.049 309.517 251.399 309.445 251.77 309.445C252.246 309.445 252.679 309.548 253.07 309.755C253.464 309.962 253.749 310.238 253.925 310.581L253.263 310.973C253.193 310.813 253.081 310.675 252.929 310.558C252.777 310.441 252.603 310.349 252.408 310.282C252.217 310.216 252.022 310.181 251.822 310.177C251.573 310.173 251.34 310.21 251.126 310.288C250.911 310.362 250.737 310.474 250.604 310.622C250.476 310.77 250.411 310.952 250.411 311.167C250.411 311.381 250.476 311.545 250.604 311.659C250.733 311.768 250.907 311.858 251.126 311.928C251.348 311.994 251.598 312.072 251.875 312.162C252.23 312.275 252.564 312.404 252.876 312.549C253.189 312.693 253.441 312.873 253.632 313.087C253.823 313.302 253.917 313.573 253.913 313.901C253.913 314.253 253.808 314.559 253.597 314.821C253.386 315.082 253.113 315.283 252.777 315.424C252.441 315.561 252.082 315.623 251.699 315.611ZM257.453 315.652C256.914 315.652 256.423 315.514 255.978 315.236C255.536 314.959 255.183 314.588 254.918 314.124C254.656 313.655 254.525 313.138 254.525 312.572C254.525 312.143 254.601 311.742 254.754 311.372C254.906 310.997 255.115 310.669 255.38 310.388C255.65 310.103 255.962 309.88 256.317 309.72C256.672 309.56 257.051 309.48 257.453 309.48C257.887 309.48 258.285 309.566 258.648 309.738C259.015 309.91 259.329 310.15 259.591 310.458C259.856 310.766 260.055 311.128 260.188 311.541C260.325 311.955 260.381 312.402 260.358 312.882H255.392C255.439 313.253 255.556 313.585 255.743 313.878C255.935 314.171 256.177 314.403 256.469 314.575C256.766 314.743 257.094 314.829 257.453 314.832C257.844 314.832 258.195 314.731 258.507 314.528C258.823 314.325 259.077 314.046 259.269 313.691L260.1 313.884C259.866 314.403 259.513 314.829 259.04 315.16C258.568 315.488 258.039 315.652 257.453 315.652ZM255.369 312.221H259.532C259.505 311.858 259.393 311.526 259.198 311.225C259.007 310.921 258.759 310.679 258.455 310.499C258.15 310.316 257.816 310.224 257.453 310.224C257.09 310.224 256.758 310.314 256.458 310.493C256.157 310.669 255.911 310.909 255.72 311.213C255.529 311.514 255.411 311.85 255.369 312.221ZM264.251 310.464H262.851L262.846 315.5H262.026L262.032 310.464H260.972V309.644H262.032L262.026 307.805H262.846L262.851 309.644H264.251V310.464ZM265.062 313.257V309.644H265.882V313.093C265.882 313.413 265.96 313.704 266.116 313.966C266.272 314.227 266.481 314.436 266.742 314.592C267.008 314.748 267.299 314.827 267.615 314.827C267.935 314.827 268.224 314.748 268.482 314.592C268.743 314.436 268.952 314.227 269.108 313.966C269.264 313.704 269.342 313.413 269.342 313.093V309.644H270.162L270.168 315.5H269.348L269.342 314.68C269.136 314.977 268.866 315.213 268.534 315.389C268.206 315.564 267.847 315.652 267.457 315.652C267.016 315.652 266.614 315.545 266.251 315.33C265.887 315.115 265.599 314.827 265.384 314.464C265.169 314.1 265.062 313.698 265.062 313.257ZM272.04 318.428H271.221V309.644H272.04V310.739C272.243 310.368 272.521 310.068 272.872 309.837C273.223 309.607 273.641 309.492 274.125 309.492C274.551 309.492 274.949 309.572 275.32 309.732C275.694 309.892 276.022 310.115 276.303 310.4C276.585 310.681 276.805 311.007 276.965 311.377C277.125 311.748 277.205 312.147 277.205 312.572C277.205 312.998 277.125 313.398 276.965 313.773C276.805 314.147 276.585 314.477 276.303 314.762C276.022 315.043 275.694 315.264 275.32 315.424C274.949 315.584 274.551 315.664 274.125 315.664C273.641 315.664 273.223 315.549 272.872 315.318C272.521 315.088 272.243 314.788 272.04 314.417V318.428ZM274.119 310.288C273.709 310.288 273.352 310.392 273.048 310.599C272.747 310.802 272.515 311.075 272.351 311.418C272.187 311.762 272.105 312.147 272.105 312.572C272.105 312.99 272.185 313.372 272.345 313.72C272.509 314.067 272.741 314.344 273.042 314.551C273.346 314.758 273.705 314.862 274.119 314.862C274.525 314.862 274.898 314.76 275.238 314.557C275.581 314.354 275.856 314.081 276.063 313.737C276.27 313.39 276.374 313.001 276.374 312.572C276.374 312.154 276.272 311.774 276.069 311.43C275.866 311.083 275.595 310.806 275.255 310.599C274.916 310.392 274.537 310.288 274.119 310.288Z" fill="#535662"/>
<path d="M289.703 315.5V307.302H292.326C292.763 307.302 293.158 307.409 293.509 307.624C293.86 307.835 294.14 308.122 294.346 308.485C294.557 308.844 294.663 309.248 294.663 309.697C294.663 310.15 294.555 310.558 294.341 310.921C294.13 311.284 293.847 311.571 293.491 311.782C293.14 311.992 292.752 312.098 292.326 312.098H290.523V315.5H289.703ZM290.523 311.278H292.262C292.551 311.278 292.814 311.208 293.052 311.067C293.294 310.923 293.486 310.729 293.626 310.487C293.771 310.241 293.843 309.964 293.843 309.656C293.843 309.347 293.771 309.072 293.626 308.83C293.486 308.584 293.294 308.391 293.052 308.25C292.814 308.106 292.551 308.034 292.262 308.034H290.523V311.278ZM300.166 309.644H300.986V315.5H300.166L300.137 314.411C299.946 314.782 299.678 315.082 299.335 315.313C298.991 315.539 298.581 315.652 298.105 315.652C297.676 315.652 297.273 315.572 296.899 315.412C296.524 315.248 296.194 315.024 295.909 314.739C295.624 314.454 295.402 314.124 295.241 313.749C295.081 313.374 295.001 312.972 295.001 312.543C295.001 312.121 295.079 311.725 295.236 311.354C295.396 310.983 295.614 310.657 295.891 310.376C296.173 310.095 296.497 309.876 296.864 309.72C297.234 309.56 297.631 309.48 298.052 309.48C298.54 309.48 298.966 309.597 299.329 309.831C299.692 310.062 299.981 310.364 300.196 310.739L300.166 309.644ZM298.087 314.856C298.505 314.856 298.864 314.754 299.165 314.551C299.466 314.344 299.696 314.067 299.856 313.72C300.02 313.372 300.102 312.99 300.102 312.572C300.102 312.143 300.02 311.756 299.856 311.413C299.692 311.065 299.46 310.79 299.159 310.587C298.858 310.384 298.501 310.282 298.087 310.282C297.674 310.282 297.295 310.386 296.951 310.593C296.612 310.796 296.34 311.071 296.137 311.418C295.938 311.766 295.839 312.15 295.839 312.572C295.839 312.998 295.942 313.384 296.149 313.732C296.356 314.075 296.629 314.348 296.969 314.551C297.313 314.754 297.685 314.856 298.087 314.856ZM306.032 309.644H306.899L303.695 318.428H302.823L303.889 315.5L301.786 309.644H302.682L304.299 314.37L306.032 309.644ZM307.968 315.5V309.644H308.788V310.452C308.999 310.156 309.268 309.919 309.596 309.744C309.924 309.568 310.283 309.48 310.673 309.48C311.115 309.48 311.519 309.589 311.886 309.808C312.253 310.023 312.54 310.31 312.746 310.669C312.953 310.31 313.238 310.023 313.601 309.808C313.965 309.589 314.367 309.48 314.808 309.48C315.249 309.48 315.651 309.587 316.014 309.802C316.377 310.017 316.666 310.306 316.881 310.669C317.095 311.032 317.203 311.434 317.203 311.875V315.5H316.383V312.057C316.383 311.744 316.307 311.456 316.155 311.19C316.002 310.925 315.797 310.712 315.54 310.552C315.286 310.388 315.003 310.306 314.691 310.306C314.378 310.306 314.093 310.382 313.836 310.534C313.582 310.683 313.379 310.889 313.227 311.155C313.074 311.416 312.998 311.717 312.998 312.057V315.5H312.178V312.057C312.178 311.717 312.102 311.416 311.95 311.155C311.798 310.889 311.593 310.683 311.335 310.534C311.078 310.382 310.793 310.306 310.48 310.306C310.172 310.306 309.889 310.388 309.631 310.552C309.373 310.712 309.169 310.925 309.016 311.19C308.864 311.456 308.788 311.744 308.788 312.057V315.5H307.968ZM320.838 315.652C320.299 315.652 319.808 315.514 319.363 315.236C318.921 314.959 318.568 314.588 318.303 314.124C318.041 313.655 317.91 313.138 317.91 312.572C317.91 312.143 317.986 311.742 318.139 311.372C318.291 310.997 318.5 310.669 318.765 310.388C319.035 310.103 319.347 309.88 319.702 309.72C320.057 309.56 320.436 309.48 320.838 309.48C321.272 309.48 321.67 309.566 322.033 309.738C322.4 309.91 322.714 310.15 322.976 310.458C323.241 310.766 323.44 311.128 323.573 311.541C323.71 311.955 323.766 312.402 323.743 312.882H318.777C318.824 313.253 318.941 313.585 319.128 313.878C319.32 314.171 319.562 314.403 319.854 314.575C320.151 314.743 320.479 314.829 320.838 314.832C321.229 314.832 321.58 314.731 321.892 314.528C322.209 314.325 322.462 314.046 322.654 313.691L323.485 313.884C323.251 314.403 322.898 314.829 322.425 315.16C321.953 315.488 321.424 315.652 320.838 315.652ZM318.754 312.221H322.917C322.89 311.858 322.778 311.526 322.583 311.225C322.392 310.921 322.144 310.679 321.84 310.499C321.535 310.316 321.201 310.224 320.838 310.224C320.475 310.224 320.143 310.314 319.843 310.493C319.542 310.669 319.296 310.909 319.105 311.213C318.914 311.514 318.796 311.85 318.754 312.221ZM329.853 311.875V315.5H329.033V312.039C329.033 311.719 328.955 311.428 328.799 311.167C328.643 310.905 328.434 310.696 328.172 310.54C327.911 310.384 327.62 310.306 327.3 310.306C326.984 310.306 326.693 310.384 326.427 310.54C326.166 310.696 325.957 310.905 325.801 311.167C325.644 311.428 325.566 311.719 325.566 312.039V315.5H324.747V309.644H325.566V310.452C325.773 310.156 326.043 309.919 326.375 309.744C326.706 309.568 327.067 309.48 327.458 309.48C327.899 309.48 328.301 309.587 328.664 309.802C329.027 310.017 329.316 310.306 329.531 310.669C329.746 311.032 329.853 311.434 329.853 311.875ZM334.018 310.464H332.618L332.613 315.5H331.793L331.799 310.464H330.739V309.644H331.799L331.793 307.805H332.613L332.618 309.644H334.018V310.464ZM342.058 314.03L342.79 314.428C342.524 314.799 342.187 315.096 341.777 315.318C341.371 315.541 340.929 315.652 340.453 315.652C339.914 315.652 339.423 315.514 338.978 315.236C338.536 314.959 338.183 314.588 337.918 314.124C337.656 313.655 337.525 313.138 337.525 312.572C337.525 312.143 337.601 311.742 337.754 311.372C337.906 310.997 338.115 310.669 338.38 310.388C338.65 310.103 338.962 309.88 339.317 309.72C339.672 309.56 340.051 309.48 340.453 309.48C340.929 309.48 341.371 309.591 341.777 309.814C342.187 310.036 342.524 310.335 342.79 310.71L342.058 311.102C341.855 310.845 341.611 310.647 341.326 310.511C341.041 310.37 340.75 310.3 340.453 310.3C340.059 310.3 339.702 310.405 339.382 310.616C339.061 310.823 338.808 311.098 338.62 311.442C338.437 311.785 338.345 312.162 338.345 312.572C338.345 312.982 338.439 313.359 338.626 313.702C338.817 314.046 339.073 314.321 339.393 314.528C339.713 314.731 340.067 314.832 340.453 314.832C340.773 314.832 341.074 314.758 341.355 314.61C341.636 314.462 341.87 314.268 342.058 314.03ZM346.343 315.652C345.805 315.652 345.313 315.514 344.868 315.236C344.427 314.959 344.073 314.588 343.808 314.124C343.546 313.655 343.415 313.138 343.415 312.572C343.415 312.143 343.492 311.742 343.644 311.372C343.796 310.997 344.005 310.669 344.27 310.388C344.54 310.103 344.852 309.88 345.207 309.72C345.563 309.56 345.941 309.48 346.343 309.48C346.882 309.48 347.372 309.619 347.813 309.896C348.258 310.173 348.612 310.546 348.873 311.014C349.139 311.483 349.271 312.002 349.271 312.572C349.271 312.998 349.195 313.396 349.043 313.767C348.891 314.138 348.68 314.465 348.411 314.75C348.145 315.032 347.835 315.252 347.479 315.412C347.128 315.572 346.749 315.652 346.343 315.652ZM346.343 314.832C346.742 314.832 347.099 314.729 347.415 314.522C347.735 314.311 347.987 314.034 348.17 313.691C348.358 313.347 348.452 312.974 348.452 312.572C348.452 312.162 348.358 311.785 348.17 311.442C347.983 311.094 347.729 310.817 347.409 310.61C347.093 310.403 346.738 310.3 346.343 310.3C345.945 310.3 345.586 310.405 345.266 310.616C344.95 310.823 344.698 311.098 344.511 311.442C344.327 311.785 344.235 312.162 344.235 312.572C344.235 312.994 344.331 313.376 344.522 313.72C344.714 314.059 344.969 314.331 345.289 314.534C345.609 314.733 345.961 314.832 346.343 314.832ZM355.37 311.875V315.5H354.55V312.039C354.55 311.719 354.472 311.428 354.315 311.167C354.159 310.905 353.95 310.696 353.689 310.54C353.427 310.384 353.136 310.306 352.816 310.306C352.5 310.306 352.209 310.384 351.944 310.54C351.682 310.696 351.473 310.905 351.317 311.167C351.161 311.428 351.083 311.719 351.083 312.039V315.5H350.263V309.644H351.083V310.452C351.29 310.156 351.559 309.919 351.891 309.744C352.223 309.568 352.584 309.48 352.974 309.48C353.416 309.48 353.818 309.587 354.181 309.802C354.544 310.017 354.833 310.306 355.047 310.669C355.262 311.032 355.37 311.434 355.37 311.875ZM357.754 308.116V309.644H359.511V310.464H357.754V315.5H356.935V310.464H356.132V309.644H356.935V308.116C356.935 307.831 357.003 307.573 357.14 307.343C357.28 307.109 357.467 306.923 357.702 306.786C357.936 306.646 358.196 306.576 358.481 306.576C358.687 306.576 358.887 306.617 359.078 306.699C359.273 306.781 359.447 306.902 359.599 307.062L359.013 307.641C358.951 307.563 358.871 307.503 358.773 307.46C358.68 307.417 358.582 307.395 358.481 307.395C358.281 307.395 358.11 307.466 357.965 307.606C357.825 307.747 357.754 307.917 357.754 308.116ZM360.408 309.644H361.228V315.5H360.408V309.644ZM360.824 308.619C360.691 308.619 360.578 308.576 360.484 308.49C360.394 308.401 360.35 308.289 360.35 308.157C360.35 308.024 360.394 307.915 360.484 307.829C360.578 307.739 360.691 307.694 360.824 307.694C360.953 307.694 361.062 307.739 361.152 307.829C361.245 307.915 361.292 308.024 361.292 308.157C361.292 308.289 361.247 308.401 361.158 308.49C361.068 308.576 360.957 308.619 360.824 308.619ZM362.615 315.5V309.644H363.435V310.452C363.642 310.156 363.912 309.919 364.243 309.744C364.575 309.568 364.936 309.48 365.327 309.48C365.553 309.48 365.772 309.509 365.983 309.568L365.649 310.382C365.485 310.331 365.325 310.306 365.169 310.306C364.852 310.306 364.562 310.384 364.296 310.54C364.035 310.696 363.826 310.905 363.67 311.167C363.513 311.428 363.435 311.719 363.435 312.039V315.5H362.615ZM366.744 315.5V309.644H367.564V310.452C367.775 310.156 368.044 309.919 368.372 309.744C368.7 309.568 369.059 309.48 369.45 309.48C369.891 309.48 370.295 309.589 370.662 309.808C371.029 310.023 371.316 310.31 371.523 310.669C371.73 310.31 372.015 310.023 372.378 309.808C372.741 309.589 373.143 309.48 373.584 309.48C374.025 309.48 374.427 309.587 374.79 309.802C375.153 310.017 375.442 310.306 375.657 310.669C375.872 311.032 375.979 311.434 375.979 311.875V315.5H375.159V312.057C375.159 311.744 375.083 311.456 374.931 311.19C374.779 310.925 374.574 310.712 374.316 310.552C374.062 310.388 373.779 310.306 373.467 310.306C373.155 310.306 372.87 310.382 372.612 310.534C372.358 310.683 372.155 310.889 372.003 311.155C371.851 311.416 371.775 311.717 371.775 312.057V315.5H370.955V312.057C370.955 311.717 370.879 311.416 370.726 311.155C370.574 310.889 370.369 310.683 370.111 310.534C369.854 310.382 369.569 310.306 369.257 310.306C368.948 310.306 368.665 310.388 368.407 310.552C368.15 310.712 367.945 310.925 367.793 311.19C367.64 311.456 367.564 311.744 367.564 312.057V315.5H366.744ZM381.851 309.644H382.671V315.5H381.851L381.822 314.411C381.631 314.782 381.363 315.082 381.02 315.313C380.676 315.539 380.266 315.652 379.79 315.652C379.361 315.652 378.959 315.572 378.584 315.412C378.209 315.248 377.879 315.024 377.594 314.739C377.309 314.454 377.087 314.124 376.927 313.749C376.767 313.374 376.687 312.972 376.687 312.543C376.687 312.121 376.765 311.725 376.921 311.354C377.081 310.983 377.299 310.657 377.577 310.376C377.858 310.095 378.182 309.876 378.549 309.72C378.92 309.56 379.316 309.48 379.737 309.48C380.225 309.48 380.651 309.597 381.014 309.831C381.377 310.062 381.666 310.364 381.881 310.739L381.851 309.644ZM379.773 314.856C380.19 314.856 380.549 314.754 380.85 314.551C381.151 314.344 381.381 314.067 381.541 313.72C381.705 313.372 381.787 312.99 381.787 312.572C381.787 312.143 381.705 311.756 381.541 311.413C381.377 311.065 381.145 310.79 380.844 310.587C380.544 310.384 380.186 310.282 379.773 310.282C379.359 310.282 378.98 310.386 378.637 310.593C378.297 310.796 378.026 311.071 377.823 311.418C377.623 311.766 377.524 312.15 377.524 312.572C377.524 312.998 377.627 313.384 377.834 313.732C378.041 314.075 378.314 314.348 378.654 314.551C378.998 314.754 379.37 314.856 379.773 314.856ZM386.835 310.464H385.436L385.43 315.5H384.61L384.616 310.464H383.556V309.644H384.616L384.61 307.805H385.43L385.436 309.644H386.835V310.464ZM387.835 309.644H388.655V315.5H387.835V309.644ZM388.25 308.619C388.118 308.619 388.005 308.576 387.911 308.49C387.821 308.401 387.776 308.289 387.776 308.157C387.776 308.024 387.821 307.915 387.911 307.829C388.005 307.739 388.118 307.694 388.25 307.694C388.379 307.694 388.489 307.739 388.578 307.829C388.672 307.915 388.719 308.024 388.719 308.157C388.719 308.289 388.674 308.401 388.584 308.49C388.494 308.576 388.383 308.619 388.25 308.619ZM392.584 315.652C392.046 315.652 391.554 315.514 391.109 315.236C390.668 314.959 390.314 314.588 390.049 314.124C389.787 313.655 389.656 313.138 389.656 312.572C389.656 312.143 389.733 311.742 389.885 311.372C390.037 310.997 390.246 310.669 390.511 310.388C390.781 310.103 391.093 309.88 391.448 309.72C391.804 309.56 392.182 309.48 392.584 309.48C393.123 309.48 393.613 309.619 394.054 309.896C394.499 310.173 394.853 310.546 395.114 311.014C395.38 311.483 395.512 312.002 395.512 312.572C395.512 312.998 395.436 313.396 395.284 313.767C395.132 314.138 394.921 314.465 394.652 314.75C394.386 315.032 394.076 315.252 393.72 315.412C393.369 315.572 392.99 315.652 392.584 315.652ZM392.584 314.832C392.983 314.832 393.34 314.729 393.656 314.522C393.976 314.311 394.228 314.034 394.411 313.691C394.599 313.347 394.693 312.974 394.693 312.572C394.693 312.162 394.599 311.785 394.411 311.442C394.224 311.094 393.97 310.817 393.65 310.61C393.334 310.403 392.979 310.3 392.584 310.3C392.186 310.3 391.827 310.405 391.507 310.616C391.191 310.823 390.939 311.098 390.751 311.442C390.568 311.785 390.476 312.162 390.476 312.572C390.476 312.994 390.572 313.376 390.763 313.72C390.954 314.059 391.21 314.331 391.53 314.534C391.85 314.733 392.202 314.832 392.584 314.832ZM401.611 311.875V315.5H400.791V312.039C400.791 311.719 400.713 311.428 400.556 311.167C400.4 310.905 400.191 310.696 399.93 310.54C399.668 310.384 399.377 310.306 399.057 310.306C398.741 310.306 398.45 310.384 398.185 310.54C397.923 310.696 397.714 310.905 397.558 311.167C397.402 311.428 397.324 311.719 397.324 312.039V315.5H396.504V309.644H397.324V310.452C397.531 310.156 397.8 309.919 398.132 309.744C398.464 309.568 398.825 309.48 399.215 309.48C399.657 309.48 400.059 309.587 400.422 309.802C400.785 310.017 401.074 310.306 401.288 310.669C401.503 311.032 401.611 311.434 401.611 311.875Z" fill="#535662"/>
</g>
<defs>
<linearGradient id="paint0_linear_4002_7048" x1="278" y1="250" x2="278" y2="420" gradientUnits="userSpaceOnUse">
<stop stop-color="white" stop-opacity="0"/>
<stop offset="1" stop-color="white"/>
</linearGradient>
<linearGradient id="paint1_linear_4002_7048" x1="234" y1="222" x2="234" y2="299" gradientUnits="userSpaceOnUse">
<stop stop-color="white" stop-opacity="0"/>
<stop offset="1" stop-color="white"/>
</linearGradient>
<clipPath id="clip0_4002_7048">
<rect width="379" height="224" fill="white" transform="translate(24 101)"/>
</clipPath>
</defs>
</svg>
