<svg width="427" height="427" viewBox="0 0 427 427" fill="none" xmlns="http://www.w3.org/2000/svg">
<rect width="427" height="427" rx="16" fill="white"/>
<rect x="0.459644" y="0.459644" width="426.081" height="426.081" rx="15.5404" stroke="#0C1021" stroke-opacity="0.05" stroke-width="0.919289"/>
<path d="M155.5 46V32H157.58V46H155.5ZM169.278 39.73V46H167.198V40.24C167.198 39.7933 167.088 39.3867 166.868 39.02C166.655 38.6533 166.365 38.3633 165.998 38.15C165.638 37.93 165.231 37.82 164.778 37.82C164.338 37.82 163.935 37.93 163.568 38.15C163.201 38.3633 162.908 38.6533 162.688 39.02C162.468 39.3867 162.358 39.7933 162.358 40.24V46H160.278V36H162.358V37.06C162.705 36.6467 163.131 36.32 163.638 36.08C164.145 35.84 164.691 35.72 165.278 35.72C166.018 35.72 166.691 35.9 167.298 36.26C167.905 36.62 168.385 37.1033 168.738 37.71C169.098 38.3167 169.278 38.99 169.278 39.73ZM177.609 43.16L179.469 44.17C179.016 44.8033 178.439 45.31 177.739 45.69C177.046 46.07 176.292 46.26 175.479 46.26C174.559 46.26 173.719 46.0233 172.959 45.55C172.206 45.0767 171.602 44.4433 171.149 43.65C170.702 42.85 170.479 41.9667 170.479 41C170.479 40.2667 170.609 39.5833 170.869 38.95C171.129 38.31 171.486 37.75 171.939 37.27C172.399 36.7833 172.932 36.4033 173.539 36.13C174.146 35.8567 174.792 35.72 175.479 35.72C176.292 35.72 177.046 35.91 177.739 36.29C178.439 36.67 179.016 37.18 179.469 37.82L177.609 38.83C177.329 38.4967 177.002 38.2433 176.629 38.07C176.256 37.89 175.872 37.8 175.479 37.8C174.932 37.8 174.436 37.95 173.989 38.25C173.549 38.5433 173.199 38.9333 172.939 39.42C172.686 39.9 172.559 40.4267 172.559 41C172.559 41.5667 172.689 42.0933 172.949 42.58C173.209 43.06 173.559 43.4467 173.999 43.74C174.446 44.0333 174.939 44.18 175.479 44.18C175.892 44.18 176.286 44.0867 176.659 43.9C177.032 43.7133 177.349 43.4667 177.609 43.16ZM185.44 46.26C184.52 46.26 183.68 46.0233 182.92 45.55C182.167 45.0767 181.563 44.4433 181.11 43.65C180.663 42.85 180.44 41.9667 180.44 41C180.44 40.2667 180.57 39.5833 180.83 38.95C181.09 38.31 181.447 37.75 181.9 37.27C182.36 36.7833 182.893 36.4033 183.5 36.13C184.107 35.8567 184.753 35.72 185.44 35.72C186.36 35.72 187.197 35.9567 187.95 36.43C188.71 36.9033 189.313 37.54 189.76 38.34C190.213 39.14 190.44 40.0267 190.44 41C190.44 41.7267 190.31 42.4067 190.05 43.04C189.79 43.6733 189.43 44.2333 188.97 44.72C188.517 45.2 187.987 45.5767 187.38 45.85C186.78 46.1233 186.133 46.26 185.44 46.26ZM185.44 44.18C185.993 44.18 186.49 44.0333 186.93 43.74C187.37 43.4467 187.717 43.06 187.97 42.58C188.23 42.0933 188.36 41.5667 188.36 41C188.36 40.42 188.227 39.8867 187.96 39.4C187.7 38.9133 187.35 38.5267 186.91 38.24C186.47 37.9467 185.98 37.8 185.44 37.8C184.893 37.8 184.397 37.9467 183.95 38.24C183.51 38.5333 183.16 38.9233 182.9 39.41C182.647 39.8967 182.52 40.4267 182.52 41C182.52 41.5933 182.653 42.13 182.92 42.61C183.187 43.09 183.54 43.4733 183.98 43.76C184.427 44.04 184.913 44.18 185.44 44.18ZM192.055 46V36H194.135V37.06C194.482 36.6467 194.905 36.32 195.405 36.08C195.912 35.84 196.459 35.72 197.045 35.72C197.759 35.72 198.415 35.8933 199.015 36.24C199.615 36.58 200.092 37.0333 200.445 37.6C200.799 37.0333 201.269 36.58 201.855 36.24C202.449 35.8933 203.102 35.72 203.815 35.72C204.555 35.72 205.229 35.9 205.835 36.26C206.442 36.62 206.925 37.1033 207.285 37.71C207.645 38.3167 207.825 38.99 207.825 39.73V46H205.745V40.26C205.745 39.82 205.639 39.4167 205.425 39.05C205.212 38.6833 204.925 38.3867 204.565 38.16C204.205 37.9333 203.805 37.82 203.365 37.82C202.925 37.82 202.525 37.9267 202.165 38.14C201.805 38.3533 201.519 38.6433 201.305 39.01C201.092 39.3767 200.985 39.7933 200.985 40.26V46H198.905V40.26C198.905 39.7933 198.799 39.3767 198.585 39.01C198.372 38.6433 198.082 38.3533 197.715 38.14C197.355 37.9267 196.955 37.82 196.515 37.82C196.082 37.82 195.682 37.9333 195.315 38.16C194.955 38.3867 194.669 38.6833 194.455 39.05C194.242 39.4167 194.135 39.82 194.135 40.26V46H192.055ZM209.829 36H211.909V46H209.829V36ZM210.889 34.55C210.569 34.55 210.302 34.4467 210.089 34.24C209.876 34.0333 209.769 33.7733 209.769 33.46C209.769 33.1533 209.876 32.8967 210.089 32.69C210.302 32.4767 210.566 32.37 210.879 32.37C211.186 32.37 211.446 32.4767 211.659 32.69C211.872 32.8967 211.979 33.1533 211.979 33.46C211.979 33.7733 211.872 34.0333 211.659 34.24C211.452 34.4467 211.196 34.55 210.889 34.55ZM223.243 39.73V46H221.163V40.24C221.163 39.7933 221.053 39.3867 220.833 39.02C220.62 38.6533 220.33 38.3633 219.963 38.15C219.603 37.93 219.196 37.82 218.743 37.82C218.303 37.82 217.9 37.93 217.533 38.15C217.166 38.3633 216.873 38.6533 216.653 39.02C216.433 39.3867 216.323 39.7933 216.323 40.24V46H214.243V36H216.323V37.06C216.67 36.6467 217.096 36.32 217.603 36.08C218.11 35.84 218.656 35.72 219.243 35.72C219.983 35.72 220.656 35.9 221.263 36.26C221.87 36.62 222.35 37.1033 222.703 37.71C223.063 38.3167 223.243 38.99 223.243 39.73ZM232.654 36H234.734V46.26C234.734 46.9467 234.587 47.58 234.294 48.16C234.007 48.74 233.617 49.24 233.124 49.66C232.63 50.0867 232.064 50.4167 231.424 50.65C230.79 50.8833 230.127 51 229.434 51C228.734 51 228.06 50.85 227.414 50.55C226.767 50.2567 226.197 49.8567 225.704 49.35C225.217 48.8433 224.854 48.27 224.614 47.63L226.524 46.77C226.657 47.1833 226.87 47.55 227.164 47.87C227.464 48.19 227.81 48.4433 228.204 48.63C228.604 48.8167 229.014 48.91 229.434 48.91C229.847 48.91 230.244 48.8433 230.624 48.71C231.01 48.5833 231.354 48.4033 231.654 48.17C231.96 47.9367 232.204 47.6567 232.384 47.33C232.564 47.0033 232.654 46.6467 232.654 46.26V44.57C232.327 45.0767 231.907 45.4867 231.394 45.8C230.88 46.1067 230.284 46.26 229.604 46.26C228.897 46.26 228.23 46.1233 227.604 45.85C226.977 45.5767 226.427 45.2 225.954 44.72C225.48 44.2333 225.11 43.6733 224.844 43.04C224.577 42.4067 224.444 41.7267 224.444 41C224.444 40.2733 224.577 39.5933 224.844 38.96C225.11 38.32 225.48 37.76 225.954 37.28C226.427 36.7933 226.977 36.4133 227.604 36.14C228.23 35.8667 228.897 35.73 229.604 35.73C230.284 35.73 230.88 35.8867 231.394 36.2C231.907 36.5067 232.327 36.9167 232.654 37.43V36ZM229.624 44.25C230.204 44.25 230.71 44.1033 231.144 43.81C231.577 43.51 231.914 43.1133 232.154 42.62C232.394 42.1267 232.514 41.5867 232.514 41C232.514 40.4 232.39 39.8567 232.144 39.37C231.904 38.8767 231.567 38.4833 231.134 38.19C230.7 37.89 230.197 37.74 229.624 37.74C229.064 37.74 228.55 37.8867 228.084 38.18C227.624 38.4733 227.257 38.8667 226.984 39.36C226.71 39.8533 226.574 40.4 226.574 41C226.574 41.6 226.71 42.1467 226.984 42.64C227.264 43.1333 227.634 43.5267 228.094 43.82C228.56 44.1067 229.07 44.25 229.624 44.25ZM248.468 43.16L250.328 44.17C249.875 44.8033 249.298 45.31 248.598 45.69C247.905 46.07 247.152 46.26 246.338 46.26C245.418 46.26 244.578 46.0233 243.818 45.55C243.065 45.0767 242.462 44.4433 242.008 43.65C241.562 42.85 241.338 41.9667 241.338 41C241.338 40.2667 241.468 39.5833 241.728 38.95C241.988 38.31 242.345 37.75 242.798 37.27C243.258 36.7833 243.792 36.4033 244.398 36.13C245.005 35.8567 245.652 35.72 246.338 35.72C247.152 35.72 247.905 35.91 248.598 36.29C249.298 36.67 249.875 37.18 250.328 37.82L248.468 38.83C248.188 38.4967 247.862 38.2433 247.488 38.07C247.115 37.89 246.732 37.8 246.338 37.8C245.792 37.8 245.295 37.95 244.848 38.25C244.408 38.5433 244.058 38.9333 243.798 39.42C243.545 39.9 243.418 40.4267 243.418 41C243.418 41.5667 243.548 42.0933 243.808 42.58C244.068 43.06 244.418 43.4467 244.858 43.74C245.305 44.0333 245.798 44.18 246.338 44.18C246.752 44.18 247.145 44.0867 247.518 43.9C247.892 43.7133 248.208 43.4667 248.468 43.16ZM259.679 36H261.759V46H259.669L259.589 44.55C259.296 45.0633 258.899 45.4767 258.399 45.79C257.899 46.1033 257.309 46.26 256.629 46.26C255.896 46.26 255.206 46.1233 254.559 45.85C253.913 45.57 253.343 45.1833 252.849 44.69C252.363 44.1967 251.983 43.63 251.709 42.99C251.436 42.3433 251.299 41.65 251.299 40.91C251.299 40.1967 251.433 39.5267 251.699 38.9C251.966 38.2667 252.336 37.7133 252.809 37.24C253.283 36.7667 253.829 36.3967 254.449 36.13C255.076 35.8567 255.746 35.72 256.459 35.72C257.186 35.72 257.826 35.8867 258.379 36.22C258.939 36.5467 259.403 36.9667 259.769 37.48L259.679 36ZM256.579 44.25C257.166 44.25 257.679 44.1067 258.119 43.82C258.559 43.5267 258.899 43.1333 259.139 42.64C259.386 42.1467 259.509 41.6 259.509 41C259.509 40.3933 259.386 39.8433 259.139 39.35C258.893 38.8567 258.549 38.4667 258.109 38.18C257.676 37.8867 257.166 37.74 256.579 37.74C255.999 37.74 255.469 37.8867 254.989 38.18C254.509 38.4733 254.129 38.8667 253.849 39.36C253.569 39.8533 253.429 40.4 253.429 41C253.429 41.6067 253.573 42.1567 253.859 42.65C254.153 43.1367 254.536 43.5267 255.009 43.82C255.489 44.1067 256.013 44.25 256.579 44.25ZM263.833 46V31H265.913V46H263.833ZM268.305 46V31H270.385V46H268.305Z" fill="#0C1021"/>
<rect x="30" y="174" width="143" height="40" rx="20" fill="white"/>
<rect x="30.5" y="174.5" width="142" height="39" rx="19.5" stroke="#2D2D2D" stroke-opacity="0.1"/>
<path d="M44 194C44 191.348 45.0536 188.804 46.9289 186.929C48.8043 185.054 51.3478 184 54 184C56.6522 184 59.1957 185.054 61.0711 186.929C62.9464 188.804 64 191.348 64 194C64 196.652 62.9464 199.196 61.0711 201.071C59.1957 202.946 56.6522 204 54 204C51.3478 204 48.8043 202.946 46.9289 201.071C45.0536 199.196 44 196.652 44 194ZM58.708 192.208C58.801 192.115 58.8747 192.005 58.925 191.883C58.9754 191.762 59.0013 191.631 59.0013 191.5C59.0013 191.369 58.9754 191.238 58.925 191.117C58.8747 190.995 58.801 190.885 58.708 190.792C58.615 190.699 58.5046 190.625 58.3832 190.575C58.2617 190.525 58.1315 190.499 58 190.499C57.8685 190.499 57.7383 190.525 57.6168 190.575C57.4954 190.625 57.385 190.699 57.292 190.792L53 195.086L50.708 192.792C50.615 192.699 50.5046 192.625 50.3832 192.575C50.2617 192.525 50.1315 192.499 50 192.499C49.8685 192.499 49.7383 192.525 49.6168 192.575C49.4954 192.625 49.385 192.699 49.292 192.792C49.199 192.885 49.1253 192.995 49.075 193.117C49.0246 193.238 48.9987 193.369 48.9987 193.5C48.9987 193.631 49.0246 193.762 49.075 193.883C49.1253 194.005 49.199 194.115 49.292 194.208L52.292 197.208C52.3849 197.301 52.4952 197.375 52.6167 197.425C52.7382 197.476 52.8685 197.502 53 197.502C53.1315 197.502 53.2618 197.476 53.3833 197.425C53.5048 197.375 53.6151 197.301 53.708 197.208L58.708 192.208Z" fill="#28BC62"/>
<path d="M74.96 199.5V188.3H78.896C79.4933 188.3 80.032 188.447 80.512 188.74C80.9973 189.033 81.3813 189.431 81.664 189.932C81.952 190.428 82.096 190.983 82.096 191.596C82.096 192.135 81.9893 192.625 81.776 193.068C81.5627 193.511 81.2693 193.881 80.896 194.18C80.528 194.473 80.1093 194.676 79.64 194.788L82.36 199.5H80.808L78.136 194.9H76.304V199.5H74.96ZM76.304 193.556H78.76C79.1227 193.556 79.456 193.468 79.76 193.292C80.064 193.111 80.304 192.868 80.48 192.564C80.6613 192.255 80.752 191.908 80.752 191.524C80.752 191.135 80.6613 190.788 80.48 190.484C80.304 190.175 80.064 189.932 79.76 189.756C79.456 189.575 79.1227 189.484 78.76 189.484H76.304V193.556ZM83.8663 191.5H85.2103V199.5H83.8663V191.5ZM84.5543 190.196C84.3409 190.196 84.1623 190.127 84.0183 189.988C83.8743 189.849 83.8023 189.676 83.8023 189.468C83.8023 189.26 83.8743 189.087 84.0183 188.948C84.1623 188.809 84.3383 188.74 84.5463 188.74C84.7543 188.74 84.9303 188.809 85.0743 188.948C85.2183 189.087 85.2903 189.26 85.2903 189.468C85.2903 189.676 85.2183 189.849 85.0743 189.988C84.9356 190.127 84.7623 190.196 84.5543 190.196ZM89.4938 199.652C89.0618 199.636 88.6404 199.556 88.2298 199.412C87.8244 199.263 87.4671 199.063 87.1578 198.812C86.8538 198.556 86.6324 198.263 86.4938 197.932L87.6458 197.436C87.7258 197.617 87.8698 197.788 88.0778 197.948C88.2858 198.108 88.5258 198.236 88.7978 198.332C89.0698 198.428 89.3444 198.476 89.6218 198.476C89.9151 198.476 90.1898 198.431 90.4458 198.34C90.7018 198.249 90.9098 198.116 91.0698 197.94C91.2351 197.759 91.3178 197.543 91.3178 197.292C91.3178 197.025 91.2271 196.817 91.0458 196.668C90.8698 196.513 90.6458 196.393 90.3738 196.308C90.1071 196.217 89.8351 196.132 89.5578 196.052C89.0084 195.913 88.5178 195.748 88.0858 195.556C87.6538 195.359 87.3124 195.111 87.0618 194.812C86.8164 194.508 86.6938 194.121 86.6938 193.652C86.6938 193.156 86.8298 192.727 87.1018 192.364C87.3791 192.001 87.7418 191.721 88.1898 191.524C88.6378 191.327 89.1178 191.228 89.6298 191.228C90.2751 191.228 90.8644 191.367 91.3978 191.644C91.9311 191.921 92.3284 192.297 92.5898 192.772L91.5098 193.404C91.4191 193.212 91.2804 193.044 91.0938 192.9C90.9071 192.751 90.6938 192.633 90.4538 192.548C90.2138 192.463 89.9684 192.417 89.7178 192.412C89.4084 192.401 89.1178 192.441 88.8458 192.532C88.5791 192.623 88.3631 192.761 88.1978 192.948C88.0378 193.129 87.9578 193.356 87.9578 193.628C87.9578 193.895 88.0431 194.097 88.2138 194.236C88.3898 194.375 88.6164 194.487 88.8938 194.572C89.1764 194.652 89.4831 194.745 89.8138 194.852C90.2991 195.007 90.7524 195.185 91.1738 195.388C91.5951 195.591 91.9338 195.844 92.1898 196.148C92.4511 196.452 92.5791 196.828 92.5738 197.276C92.5738 197.767 92.4271 198.196 92.1338 198.564C91.8404 198.927 91.4591 199.204 90.9898 199.396C90.5258 199.588 90.0271 199.673 89.4938 199.652ZM100.432 199.5H98.8884L96.7604 195.828L95.2884 197.588V199.5H93.9444V187.5H95.2884V195.5L98.6404 191.5H100.392L97.6724 194.74L100.432 199.5ZM112.267 191.5H113.611V199.5H112.267L112.211 198.148C111.96 198.612 111.614 198.988 111.171 199.276C110.734 199.564 110.211 199.708 109.603 199.708C109.016 199.708 108.467 199.599 107.955 199.38C107.443 199.156 106.99 198.849 106.595 198.46C106.206 198.065 105.902 197.612 105.683 197.1C105.464 196.588 105.355 196.036 105.355 195.444C105.355 194.873 105.462 194.335 105.675 193.828C105.888 193.321 106.184 192.879 106.563 192.5C106.947 192.116 107.39 191.817 107.891 191.604C108.392 191.385 108.931 191.276 109.507 191.276C110.136 191.276 110.688 191.425 111.163 191.724C111.638 192.017 112.022 192.399 112.315 192.868L112.267 191.5ZM109.579 198.404C110.107 198.404 110.563 198.276 110.947 198.02C111.336 197.759 111.635 197.407 111.843 196.964C112.056 196.521 112.163 196.033 112.163 195.5C112.163 194.956 112.056 194.465 111.843 194.028C111.63 193.585 111.328 193.236 110.939 192.98C110.555 192.719 110.102 192.588 109.579 192.588C109.051 192.588 108.571 192.719 108.139 192.98C107.707 193.241 107.363 193.593 107.107 194.036C106.856 194.473 106.731 194.961 106.731 195.5C106.731 196.039 106.862 196.529 107.123 196.972C107.384 197.409 107.731 197.759 108.163 198.02C108.595 198.276 109.067 198.404 109.579 198.404ZM122.282 194.524V199.5H120.938V194.82C120.938 194.415 120.839 194.047 120.642 193.716C120.445 193.385 120.181 193.124 119.85 192.932C119.519 192.735 119.151 192.636 118.746 192.636C118.346 192.636 117.978 192.735 117.642 192.932C117.311 193.124 117.047 193.385 116.85 193.716C116.653 194.047 116.554 194.415 116.554 194.82V199.5H115.21V191.5H116.554V192.5C116.837 192.127 117.194 191.831 117.626 191.612C118.058 191.388 118.527 191.276 119.034 191.276C119.631 191.276 120.175 191.423 120.666 191.716C121.162 192.004 121.554 192.393 121.842 192.884C122.135 193.375 122.282 193.921 122.282 194.524ZM130.158 191.5H131.502V199.5H130.158L130.102 198.148C129.851 198.612 129.504 198.988 129.062 199.276C128.624 199.564 128.102 199.708 127.494 199.708C126.907 199.708 126.358 199.599 125.846 199.38C125.334 199.156 124.88 198.849 124.486 198.46C124.096 198.065 123.792 197.612 123.574 197.1C123.355 196.588 123.246 196.036 123.246 195.444C123.246 194.873 123.352 194.335 123.566 193.828C123.779 193.321 124.075 192.879 124.454 192.5C124.838 192.116 125.28 191.817 125.782 191.604C126.283 191.385 126.822 191.276 127.398 191.276C128.027 191.276 128.579 191.425 129.054 191.724C129.528 192.017 129.912 192.399 130.206 192.868L130.158 191.5ZM127.47 198.404C127.998 198.404 128.454 198.276 128.838 198.02C129.227 197.759 129.526 197.407 129.734 196.964C129.947 196.521 130.054 196.033 130.054 195.5C130.054 194.956 129.947 194.465 129.734 194.028C129.52 193.585 129.219 193.236 128.83 192.98C128.446 192.719 127.992 192.588 127.47 192.588C126.942 192.588 126.462 192.719 126.03 192.98C125.598 193.241 125.254 193.593 124.998 194.036C124.747 194.473 124.622 194.961 124.622 195.5C124.622 196.039 124.752 196.529 125.014 196.972C125.275 197.409 125.622 197.759 126.054 198.02C126.486 198.276 126.958 198.404 127.47 198.404ZM133.194 199.5V187.5H134.538V199.5H133.194ZM141.628 191.5H143.052L138.676 203.5H137.252L138.7 199.5L135.828 191.5H137.299L139.372 197.652L141.628 191.5ZM146.806 199.652C146.374 199.636 145.953 199.556 145.542 199.412C145.137 199.263 144.78 199.063 144.47 198.812C144.166 198.556 143.945 198.263 143.806 197.932L144.958 197.436C145.038 197.617 145.182 197.788 145.39 197.948C145.598 198.108 145.838 198.236 146.11 198.332C146.382 198.428 146.657 198.476 146.934 198.476C147.228 198.476 147.502 198.431 147.758 198.34C148.014 198.249 148.222 198.116 148.382 197.94C148.548 197.759 148.63 197.543 148.63 197.292C148.63 197.025 148.54 196.817 148.358 196.668C148.182 196.513 147.958 196.393 147.686 196.308C147.42 196.217 147.148 196.132 146.87 196.052C146.321 195.913 145.83 195.748 145.398 195.556C144.966 195.359 144.625 195.111 144.374 194.812C144.129 194.508 144.006 194.121 144.006 193.652C144.006 193.156 144.142 192.727 144.414 192.364C144.692 192.001 145.054 191.721 145.502 191.524C145.95 191.327 146.43 191.228 146.942 191.228C147.588 191.228 148.177 191.367 148.71 191.644C149.244 191.921 149.641 192.297 149.902 192.772L148.822 193.404C148.732 193.212 148.593 193.044 148.406 192.9C148.22 192.751 148.006 192.633 147.766 192.548C147.526 192.463 147.281 192.417 147.03 192.412C146.721 192.401 146.43 192.441 146.158 192.532C145.892 192.623 145.676 192.761 145.51 192.948C145.35 193.129 145.27 193.356 145.27 193.628C145.27 193.895 145.356 194.097 145.526 194.236C145.702 194.375 145.929 194.487 146.206 194.572C146.489 194.652 146.796 194.745 147.126 194.852C147.612 195.007 148.065 195.185 148.486 195.388C148.908 195.591 149.246 195.844 149.502 196.148C149.764 196.452 149.892 196.828 149.886 197.276C149.886 197.767 149.74 198.196 149.446 198.564C149.153 198.927 148.772 199.204 148.302 199.396C147.838 199.588 147.34 199.673 146.806 199.652ZM151.148 191.5H152.492V199.5H151.148V191.5ZM151.836 190.196C151.622 190.196 151.444 190.127 151.3 189.988C151.156 189.849 151.084 189.676 151.084 189.468C151.084 189.26 151.156 189.087 151.3 188.948C151.444 188.809 151.62 188.74 151.828 188.74C152.036 188.74 152.212 188.809 152.356 188.948C152.5 189.087 152.572 189.26 152.572 189.468C152.572 189.676 152.5 189.849 152.356 189.988C152.217 190.127 152.044 190.196 151.836 190.196ZM156.775 199.652C156.343 199.636 155.922 199.556 155.511 199.412C155.106 199.263 154.748 199.063 154.439 198.812C154.135 198.556 153.914 198.263 153.775 197.932L154.927 197.436C155.007 197.617 155.151 197.788 155.359 197.948C155.567 198.108 155.807 198.236 156.079 198.332C156.351 198.428 156.626 198.476 156.903 198.476C157.196 198.476 157.471 198.431 157.727 198.34C157.983 198.249 158.191 198.116 158.351 197.94C158.516 197.759 158.599 197.543 158.599 197.292C158.599 197.025 158.508 196.817 158.327 196.668C158.151 196.513 157.927 196.393 157.655 196.308C157.388 196.217 157.116 196.132 156.839 196.052C156.29 195.913 155.799 195.748 155.367 195.556C154.935 195.359 154.594 195.111 154.343 194.812C154.098 194.508 153.975 194.121 153.975 193.652C153.975 193.156 154.111 192.727 154.383 192.364C154.66 192.001 155.023 191.721 155.471 191.524C155.919 191.327 156.399 191.228 156.911 191.228C157.556 191.228 158.146 191.367 158.679 191.644C159.212 191.921 159.61 192.297 159.871 192.772L158.791 193.404C158.7 193.212 158.562 193.044 158.375 192.9C158.188 192.751 157.975 192.633 157.735 192.548C157.495 192.463 157.25 192.417 156.999 192.412C156.69 192.401 156.399 192.441 156.127 192.532C155.86 192.623 155.644 192.761 155.479 192.948C155.319 193.129 155.239 193.356 155.239 193.628C155.239 193.895 155.324 194.097 155.495 194.236C155.671 194.375 155.898 194.487 156.175 194.572C156.458 194.652 156.764 194.745 157.095 194.852C157.58 195.007 158.034 195.185 158.455 195.388C158.876 195.591 159.215 195.844 159.471 196.148C159.732 196.452 159.86 196.828 159.855 197.276C159.855 197.767 159.708 198.196 159.415 198.564C159.122 198.927 158.74 199.204 158.271 199.396C157.807 199.588 157.308 199.673 156.775 199.652Z" fill="#0C1021"/>
<rect x="113" y="108" width="200" height="40" rx="20" fill="white"/>
<rect x="113.5" y="108.5" width="199" height="39" rx="19.5" stroke="#2D2D2D" stroke-opacity="0.1"/>
<path d="M127 128C127 125.348 128.054 122.804 129.929 120.929C131.804 119.054 134.348 118 137 118C139.652 118 142.196 119.054 144.071 120.929C145.946 122.804 147 125.348 147 128C147 130.652 145.946 133.196 144.071 135.071C142.196 136.946 139.652 138 137 138C134.348 138 131.804 136.946 129.929 135.071C128.054 133.196 127 130.652 127 128ZM141.708 126.208C141.801 126.115 141.875 126.005 141.925 125.883C141.975 125.762 142.001 125.631 142.001 125.5C142.001 125.369 141.975 125.238 141.925 125.117C141.875 124.995 141.801 124.885 141.708 124.792C141.615 124.699 141.505 124.625 141.383 124.575C141.262 124.525 141.131 124.499 141 124.499C140.869 124.499 140.738 124.525 140.617 124.575C140.495 124.625 140.385 124.699 140.292 124.792L136 129.086L133.708 126.792C133.615 126.699 133.505 126.625 133.383 126.575C133.262 126.525 133.131 126.499 133 126.499C132.869 126.499 132.738 126.525 132.617 126.575C132.495 126.625 132.385 126.699 132.292 126.792C132.199 126.885 132.125 126.995 132.075 127.117C132.025 127.238 131.999 127.369 131.999 127.5C131.999 127.631 132.025 127.762 132.075 127.883C132.125 128.005 132.199 128.115 132.292 128.208L135.292 131.208C135.385 131.301 135.495 131.375 135.617 131.425C135.738 131.476 135.868 131.502 136 131.502C136.132 131.502 136.262 131.476 136.383 131.425C136.505 131.375 136.615 131.301 136.708 131.208L141.708 126.208Z" fill="#28BC62"/>
<path d="M161.904 133.708C161.301 133.708 160.72 133.615 160.16 133.428C159.6 133.236 159.109 132.964 158.688 132.612C158.272 132.26 157.976 131.841 157.8 131.356L159.056 130.884C159.163 131.183 159.36 131.444 159.648 131.668C159.941 131.887 160.285 132.057 160.68 132.18C161.075 132.303 161.483 132.364 161.904 132.364C162.384 132.364 162.829 132.287 163.24 132.132C163.656 131.972 163.992 131.751 164.248 131.468C164.504 131.185 164.632 130.855 164.632 130.476C164.632 130.087 164.499 129.769 164.232 129.524C163.965 129.273 163.624 129.076 163.208 128.932C162.792 128.783 162.357 128.668 161.904 128.588C161.131 128.46 160.437 128.279 159.824 128.044C159.216 127.804 158.733 127.471 158.376 127.044C158.024 126.617 157.848 126.055 157.848 125.356C157.848 124.705 158.035 124.137 158.408 123.652C158.787 123.167 159.285 122.791 159.904 122.524C160.523 122.257 161.189 122.124 161.904 122.124C162.496 122.124 163.069 122.217 163.624 122.404C164.184 122.585 164.677 122.852 165.104 123.204C165.531 123.556 165.837 123.985 166.024 124.492L164.752 124.956C164.645 124.652 164.445 124.391 164.152 124.172C163.864 123.948 163.523 123.777 163.128 123.66C162.739 123.537 162.331 123.476 161.904 123.476C161.429 123.471 160.987 123.548 160.576 123.708C160.165 123.868 159.832 124.089 159.576 124.372C159.32 124.655 159.192 124.983 159.192 125.356C159.192 125.804 159.309 126.148 159.544 126.388C159.784 126.623 160.109 126.799 160.52 126.916C160.931 127.033 161.392 127.137 161.904 127.228C162.629 127.351 163.301 127.545 163.92 127.812C164.539 128.073 165.035 128.423 165.408 128.86C165.787 129.297 165.976 129.836 165.976 130.476C165.976 131.127 165.787 131.695 165.408 132.18C165.035 132.665 164.539 133.041 163.92 133.308C163.301 133.575 162.629 133.708 161.904 133.708ZM171.168 133.708C170.432 133.708 169.76 133.519 169.152 133.14C168.549 132.761 168.066 132.255 167.704 131.62C167.346 130.98 167.168 130.273 167.168 129.5C167.168 128.913 167.272 128.367 167.48 127.86C167.688 127.348 167.973 126.9 168.336 126.516C168.704 126.127 169.13 125.823 169.616 125.604C170.101 125.385 170.618 125.276 171.168 125.276C171.77 125.276 172.322 125.399 172.824 125.644C173.33 125.884 173.762 126.22 174.12 126.652C174.482 127.084 174.752 127.585 174.928 128.156C175.109 128.727 175.176 129.337 175.128 129.988H168.6C168.664 130.441 168.813 130.847 169.048 131.204C169.282 131.556 169.581 131.836 169.944 132.044C170.312 132.252 170.72 132.359 171.168 132.364C171.648 132.364 172.082 132.241 172.472 131.996C172.861 131.745 173.176 131.404 173.416 130.972L174.784 131.292C174.464 132.001 173.981 132.583 173.336 133.036C172.69 133.484 171.968 133.708 171.168 133.708ZM168.56 128.932H173.776C173.733 128.484 173.589 128.076 173.344 127.708C173.098 127.335 172.786 127.036 172.408 126.812C172.029 126.588 171.616 126.476 171.168 126.476C170.72 126.476 170.309 126.585 169.936 126.804C169.562 127.023 169.253 127.319 169.008 127.692C168.768 128.06 168.618 128.473 168.56 128.932ZM183.548 128.524V133.5H182.204V128.82C182.204 128.415 182.105 128.047 181.908 127.716C181.71 127.385 181.446 127.124 181.116 126.932C180.785 126.735 180.417 126.636 180.012 126.636C179.612 126.636 179.244 126.735 178.908 126.932C178.577 127.124 178.313 127.385 178.116 127.716C177.918 128.047 177.82 128.415 177.82 128.82V133.5H176.476V125.5H177.82V126.5C178.102 126.127 178.46 125.831 178.892 125.612C179.324 125.388 179.793 125.276 180.3 125.276C180.897 125.276 181.441 125.423 181.932 125.716C182.428 126.004 182.82 126.393 183.108 126.884C183.401 127.375 183.548 127.921 183.548 128.524ZM189.292 126.844H187.476L187.468 133.5H186.124L186.132 126.844H184.756V125.5H186.132L186.124 122.988H187.468L187.476 125.5H189.292V126.844ZM190.648 125.5H191.992V133.5H190.648V125.5ZM191.336 124.196C191.122 124.196 190.944 124.127 190.8 123.988C190.656 123.849 190.584 123.676 190.584 123.468C190.584 123.26 190.656 123.087 190.8 122.948C190.944 122.809 191.12 122.74 191.328 122.74C191.536 122.74 191.712 122.809 191.856 122.948C192 123.087 192.072 123.26 192.072 123.468C192.072 123.676 192 123.849 191.856 123.988C191.717 124.127 191.544 124.196 191.336 124.196ZM193.882 133.5V125.5H195.226V126.5C195.509 126.127 195.863 125.831 196.29 125.612C196.722 125.388 197.191 125.276 197.698 125.276C198.29 125.276 198.831 125.42 199.322 125.708C199.813 125.996 200.199 126.377 200.482 126.852C200.765 126.377 201.149 125.996 201.634 125.708C202.125 125.42 202.663 125.276 203.25 125.276C203.853 125.276 204.399 125.423 204.89 125.716C205.381 126.004 205.77 126.393 206.058 126.884C206.351 127.375 206.498 127.921 206.498 128.524V133.5H205.154V128.844C205.154 128.449 205.058 128.084 204.866 127.748C204.674 127.412 204.415 127.143 204.09 126.94C203.765 126.737 203.405 126.636 203.01 126.636C202.615 126.636 202.255 126.732 201.93 126.924C201.605 127.111 201.346 127.372 201.154 127.708C200.962 128.039 200.866 128.417 200.866 128.844V133.5H199.522V128.844C199.522 128.417 199.426 128.039 199.234 127.708C199.042 127.372 198.781 127.111 198.45 126.924C198.125 126.732 197.765 126.636 197.37 126.636C196.981 126.636 196.621 126.737 196.29 126.94C195.965 127.143 195.706 127.412 195.514 127.748C195.322 128.084 195.226 128.449 195.226 128.844V133.5H193.882ZM211.464 133.708C210.728 133.708 210.056 133.519 209.448 133.14C208.846 132.761 208.363 132.255 208 131.62C207.643 130.98 207.464 130.273 207.464 129.5C207.464 128.913 207.568 128.367 207.776 127.86C207.984 127.348 208.27 126.9 208.632 126.516C209 126.127 209.427 125.823 209.912 125.604C210.398 125.385 210.915 125.276 211.464 125.276C212.067 125.276 212.619 125.399 213.12 125.644C213.627 125.884 214.059 126.22 214.416 126.652C214.779 127.084 215.048 127.585 215.224 128.156C215.406 128.727 215.472 129.337 215.424 129.988H208.896C208.96 130.441 209.11 130.847 209.344 131.204C209.579 131.556 209.878 131.836 210.24 132.044C210.608 132.252 211.016 132.359 211.464 132.364C211.944 132.364 212.379 132.241 212.768 131.996C213.158 131.745 213.472 131.404 213.712 130.972L215.08 131.292C214.76 132.001 214.278 132.583 213.632 133.036C212.987 133.484 212.264 133.708 211.464 133.708ZM208.856 128.932H214.072C214.03 128.484 213.886 128.076 213.64 127.708C213.395 127.335 213.083 127.036 212.704 126.812C212.326 126.588 211.912 126.476 211.464 126.476C211.016 126.476 210.606 126.585 210.232 126.804C209.859 127.023 209.55 127.319 209.304 127.692C209.064 128.06 208.915 128.473 208.856 128.932ZM223.845 128.524V133.5H222.501V128.82C222.501 128.415 222.402 128.047 222.205 127.716C222.007 127.385 221.743 127.124 221.413 126.932C221.082 126.735 220.714 126.636 220.309 126.636C219.909 126.636 219.541 126.735 219.205 126.932C218.874 127.124 218.61 127.385 218.413 127.716C218.215 128.047 218.117 128.415 218.117 128.82V133.5H216.773V125.5H218.117V126.5C218.399 126.127 218.757 125.831 219.189 125.612C219.621 125.388 220.09 125.276 220.597 125.276C221.194 125.276 221.738 125.423 222.229 125.716C222.725 126.004 223.117 126.393 223.405 126.884C223.698 127.375 223.845 127.921 223.845 128.524ZM229.588 126.844H227.772L227.764 133.5H226.42L226.428 126.844H225.052V125.5H226.428L226.42 122.988H227.764L227.772 125.5H229.588V126.844ZM241.306 121.5H242.65V133.5H241.306V132.14C241.034 132.609 240.669 132.988 240.21 133.276C239.752 133.564 239.213 133.708 238.594 133.708C238.013 133.708 237.469 133.599 236.962 133.38C236.456 133.161 236.008 132.86 235.618 132.476C235.234 132.087 234.933 131.639 234.714 131.132C234.496 130.625 234.386 130.081 234.386 129.5C234.386 128.919 234.496 128.375 234.714 127.868C234.933 127.356 235.234 126.908 235.618 126.524C236.008 126.135 236.456 125.831 236.962 125.612C237.469 125.393 238.013 125.284 238.594 125.284C239.213 125.284 239.752 125.428 240.21 125.716C240.669 126.004 241.034 126.383 241.306 126.852V121.5ZM238.61 132.404C239.138 132.404 239.594 132.276 239.978 132.02C240.368 131.759 240.666 131.407 240.874 130.964C241.088 130.521 241.194 130.033 241.194 129.5C241.194 128.956 241.088 128.465 240.874 128.028C240.661 127.585 240.36 127.236 239.97 126.98C239.586 126.719 239.133 126.588 238.61 126.588C238.082 126.588 237.602 126.719 237.17 126.98C236.744 127.241 236.402 127.593 236.146 128.036C235.89 128.473 235.762 128.961 235.762 129.5C235.762 130.039 235.893 130.529 236.154 130.972C236.416 131.409 236.762 131.759 237.194 132.02C237.626 132.276 238.098 132.404 238.61 132.404ZM248.011 133.708C247.275 133.708 246.603 133.519 245.995 133.14C245.393 132.761 244.91 132.255 244.547 131.62C244.19 130.98 244.011 130.273 244.011 129.5C244.011 128.913 244.115 128.367 244.323 127.86C244.531 127.348 244.817 126.9 245.179 126.516C245.547 126.127 245.974 125.823 246.459 125.604C246.945 125.385 247.462 125.276 248.011 125.276C248.614 125.276 249.166 125.399 249.667 125.644C250.174 125.884 250.606 126.22 250.963 126.652C251.326 127.084 251.595 127.585 251.771 128.156C251.953 128.727 252.019 129.337 251.971 129.988H245.443C245.507 130.441 245.657 130.847 245.891 131.204C246.126 131.556 246.425 131.836 246.787 132.044C247.155 132.252 247.563 132.359 248.011 132.364C248.491 132.364 248.926 132.241 249.315 131.996C249.705 131.745 250.019 131.404 250.259 130.972L251.627 131.292C251.307 132.001 250.825 132.583 250.179 133.036C249.534 133.484 248.811 133.708 248.011 133.708ZM245.403 128.932H250.619C250.577 128.484 250.433 128.076 250.187 127.708C249.942 127.335 249.63 127.036 249.251 126.812C248.873 126.588 248.459 126.476 248.011 126.476C247.563 126.476 247.153 126.585 246.779 126.804C246.406 127.023 246.097 127.319 245.851 127.692C245.611 128.06 245.462 128.473 245.403 128.932ZM257.37 126.844H255.554L255.546 133.5H254.202L254.21 126.844H252.834V125.5H254.21L254.202 122.988H255.546L255.554 125.5H257.37V126.844ZM262.121 133.708C261.385 133.708 260.713 133.519 260.105 133.14C259.502 132.761 259.019 132.255 258.657 131.62C258.299 130.98 258.121 130.273 258.121 129.5C258.121 128.913 258.225 128.367 258.433 127.86C258.641 127.348 258.926 126.9 259.289 126.516C259.657 126.127 260.083 125.823 260.569 125.604C261.054 125.385 261.571 125.276 262.121 125.276C262.723 125.276 263.275 125.399 263.777 125.644C264.283 125.884 264.715 126.22 265.073 126.652C265.435 127.084 265.705 127.585 265.881 128.156C266.062 128.727 266.129 129.337 266.081 129.988H259.553C259.617 130.441 259.766 130.847 260.001 131.204C260.235 131.556 260.534 131.836 260.897 132.044C261.265 132.252 261.673 132.359 262.121 132.364C262.601 132.364 263.035 132.241 263.425 131.996C263.814 131.745 264.129 131.404 264.369 130.972L265.737 131.292C265.417 132.001 264.934 132.583 264.289 133.036C263.643 133.484 262.921 133.708 262.121 133.708ZM259.513 128.932H264.729C264.686 128.484 264.542 128.076 264.297 127.708C264.051 127.335 263.739 127.036 263.361 126.812C262.982 126.588 262.569 126.476 262.121 126.476C261.673 126.476 261.262 126.585 260.889 126.804C260.515 127.023 260.206 127.319 259.961 127.692C259.721 128.06 259.571 128.473 259.513 128.932ZM272.894 131.388L274.094 132.036C273.731 132.543 273.27 132.948 272.71 133.252C272.155 133.556 271.553 133.708 270.902 133.708C270.166 133.708 269.494 133.519 268.886 133.14C268.283 132.761 267.801 132.255 267.438 131.62C267.081 130.98 266.902 130.273 266.902 129.5C266.902 128.913 267.006 128.367 267.214 127.86C267.422 127.348 267.707 126.9 268.07 126.516C268.438 126.127 268.865 125.823 269.35 125.604C269.835 125.385 270.353 125.276 270.902 125.276C271.553 125.276 272.155 125.428 272.71 125.732C273.27 126.036 273.731 126.444 274.094 126.956L272.894 127.604C272.638 127.289 272.334 127.047 271.982 126.876C271.63 126.705 271.27 126.62 270.902 126.62C270.406 126.62 269.955 126.753 269.55 127.02C269.15 127.281 268.833 127.631 268.598 128.068C268.363 128.505 268.246 128.983 268.246 129.5C268.246 130.017 268.363 130.495 268.598 130.932C268.838 131.364 269.158 131.711 269.558 131.972C269.963 132.233 270.411 132.364 270.902 132.364C271.297 132.364 271.667 132.273 272.014 132.092C272.361 131.911 272.654 131.676 272.894 131.388ZM279.682 126.844H277.866L277.858 133.5H276.514L276.522 126.844H275.146V125.5H276.522L276.514 122.988H277.858L277.866 125.5H279.682V126.844ZM281.038 125.5H282.382V133.5H281.038V125.5ZM281.726 124.196C281.513 124.196 281.334 124.127 281.19 123.988C281.046 123.849 280.974 123.676 280.974 123.468C280.974 123.26 281.046 123.087 281.19 122.948C281.334 122.809 281.51 122.74 281.718 122.74C281.926 122.74 282.102 122.809 282.246 122.948C282.39 123.087 282.462 123.26 282.462 123.468C282.462 123.676 282.39 123.849 282.246 123.988C282.107 124.127 281.934 124.196 281.726 124.196ZM287.714 133.708C286.978 133.708 286.306 133.519 285.698 133.14C285.096 132.761 284.613 132.255 284.25 131.62C283.893 130.98 283.714 130.273 283.714 129.5C283.714 128.913 283.818 128.367 284.026 127.86C284.234 127.348 284.52 126.9 284.882 126.516C285.25 126.127 285.677 125.823 286.162 125.604C286.648 125.385 287.165 125.276 287.714 125.276C288.45 125.276 289.12 125.465 289.722 125.844C290.33 126.223 290.813 126.732 291.17 127.372C291.533 128.012 291.714 128.721 291.714 129.5C291.714 130.081 291.61 130.625 291.402 131.132C291.194 131.639 290.906 132.087 290.538 132.476C290.176 132.86 289.752 133.161 289.266 133.38C288.786 133.599 288.269 133.708 287.714 133.708ZM287.714 132.364C288.216 132.364 288.666 132.233 289.066 131.972C289.472 131.705 289.789 131.356 290.018 130.924C290.253 130.487 290.37 130.012 290.37 129.5C290.37 128.977 290.25 128.497 290.01 128.06C289.776 127.623 289.458 127.273 289.058 127.012C288.658 126.751 288.21 126.62 287.714 126.62C287.213 126.62 286.762 126.753 286.362 127.02C285.962 127.281 285.645 127.631 285.41 128.068C285.176 128.505 285.058 128.983 285.058 129.5C285.058 130.033 285.178 130.519 285.418 130.956C285.658 131.388 285.981 131.732 286.386 131.988C286.792 132.239 287.234 132.364 287.714 132.364ZM300.11 128.524V133.5H298.766V128.82C298.766 128.415 298.667 128.047 298.47 127.716C298.273 127.385 298.009 127.124 297.678 126.932C297.347 126.735 296.979 126.636 296.574 126.636C296.174 126.636 295.806 126.735 295.47 126.932C295.139 127.124 294.875 127.385 294.678 127.716C294.481 128.047 294.382 128.415 294.382 128.82V133.5H293.038V125.5H294.382V126.5C294.665 126.127 295.022 125.831 295.454 125.612C295.886 125.388 296.355 125.276 296.862 125.276C297.459 125.276 298.003 125.423 298.494 125.716C298.99 126.004 299.382 126.393 299.67 126.884C299.963 127.375 300.11 127.921 300.11 128.524Z" fill="#0C1021"/>
<rect x="227" y="174" width="170" height="40" rx="20" fill="white"/>
<rect x="227.5" y="174.5" width="169" height="39" rx="19.5" stroke="#2D2D2D" stroke-opacity="0.1"/>
<path d="M241 194C241 191.348 242.054 188.804 243.929 186.929C245.804 185.054 248.348 184 251 184C253.652 184 256.196 185.054 258.071 186.929C259.946 188.804 261 191.348 261 194C261 196.652 259.946 199.196 258.071 201.071C256.196 202.946 253.652 204 251 204C248.348 204 245.804 202.946 243.929 201.071C242.054 199.196 241 196.652 241 194ZM255.708 192.208C255.801 192.115 255.875 192.005 255.925 191.883C255.975 191.762 256.001 191.631 256.001 191.5C256.001 191.369 255.975 191.238 255.925 191.117C255.875 190.995 255.801 190.885 255.708 190.792C255.615 190.699 255.505 190.625 255.383 190.575C255.262 190.525 255.131 190.499 255 190.499C254.869 190.499 254.738 190.525 254.617 190.575C254.495 190.625 254.385 190.699 254.292 190.792L250 195.086L247.708 192.792C247.615 192.699 247.505 192.625 247.383 192.575C247.262 192.525 247.131 192.499 247 192.499C246.869 192.499 246.738 192.525 246.617 192.575C246.495 192.625 246.385 192.699 246.292 192.792C246.199 192.885 246.125 192.995 246.075 193.117C246.025 193.238 245.999 193.369 245.999 193.5C245.999 193.631 246.025 193.762 246.075 193.883C246.125 194.005 246.199 194.115 246.292 194.208L249.292 197.208C249.385 197.301 249.495 197.375 249.617 197.425C249.738 197.476 249.868 197.502 250 197.502C250.132 197.502 250.262 197.476 250.383 197.425C250.505 197.375 250.615 197.301 250.708 197.208L255.708 192.208Z" fill="#28BC62"/>
<path d="M271.96 199.5V188.3H275.896C276.493 188.3 277.032 188.447 277.512 188.74C277.997 189.033 278.381 189.431 278.664 189.932C278.952 190.428 279.096 190.983 279.096 191.596C279.096 192.135 278.989 192.625 278.776 193.068C278.563 193.511 278.269 193.881 277.896 194.18C277.528 194.473 277.109 194.676 276.64 194.788L279.36 199.5H277.808L275.136 194.9H273.304V199.5H271.96ZM273.304 193.556H275.76C276.123 193.556 276.456 193.468 276.76 193.292C277.064 193.111 277.304 192.868 277.48 192.564C277.661 192.255 277.752 191.908 277.752 191.524C277.752 191.135 277.661 190.788 277.48 190.484C277.304 190.175 277.064 189.932 276.76 189.756C276.456 189.575 276.123 189.484 275.76 189.484H273.304V193.556ZM284.199 199.708C283.463 199.708 282.791 199.519 282.183 199.14C281.58 198.761 281.097 198.255 280.735 197.62C280.377 196.98 280.199 196.273 280.199 195.5C280.199 194.913 280.303 194.367 280.511 193.86C280.719 193.348 281.004 192.9 281.367 192.516C281.735 192.127 282.161 191.823 282.647 191.604C283.132 191.385 283.649 191.276 284.199 191.276C284.935 191.276 285.604 191.465 286.207 191.844C286.815 192.223 287.297 192.732 287.655 193.372C288.017 194.012 288.199 194.721 288.199 195.5C288.199 196.081 288.095 196.625 287.887 197.132C287.679 197.639 287.391 198.087 287.023 198.476C286.66 198.86 286.236 199.161 285.751 199.38C285.271 199.599 284.753 199.708 284.199 199.708ZM284.199 198.364C284.7 198.364 285.151 198.233 285.551 197.972C285.956 197.705 286.273 197.356 286.503 196.924C286.737 196.487 286.855 196.012 286.855 195.5C286.855 194.977 286.735 194.497 286.495 194.06C286.26 193.623 285.943 193.273 285.543 193.012C285.143 192.751 284.695 192.62 284.199 192.62C283.697 192.62 283.247 192.753 282.847 193.02C282.447 193.281 282.129 193.631 281.895 194.068C281.66 194.505 281.543 194.983 281.543 195.5C281.543 196.033 281.663 196.519 281.903 196.956C282.143 197.388 282.465 197.732 282.871 197.988C283.276 198.239 283.719 198.364 284.199 198.364ZM289.093 196.46V191.5H290.437V196.164C290.437 196.569 290.536 196.937 290.733 197.268C290.93 197.599 291.194 197.863 291.525 198.06C291.861 198.252 292.229 198.348 292.629 198.348C293.034 198.348 293.4 198.252 293.725 198.06C294.056 197.863 294.32 197.599 294.517 197.268C294.714 196.937 294.813 196.569 294.813 196.164V191.5H296.157L296.165 199.5H294.821L294.813 198.484C294.53 198.857 294.173 199.156 293.741 199.38C293.309 199.599 292.842 199.708 292.341 199.708C291.744 199.708 291.197 199.564 290.701 199.276C290.21 198.983 289.818 198.591 289.525 198.1C289.237 197.609 289.093 197.063 289.093 196.46ZM301.917 192.844H300.101L300.093 199.5H298.749L298.757 192.844H297.381V191.5H298.757L298.749 188.988H300.093L300.101 191.5H301.917V192.844ZM303.273 191.5H304.617V199.5H303.273V191.5ZM303.961 190.196C303.747 190.196 303.569 190.127 303.425 189.988C303.281 189.849 303.209 189.676 303.209 189.468C303.209 189.26 303.281 189.087 303.425 188.948C303.569 188.809 303.745 188.74 303.953 188.74C304.161 188.74 304.337 188.809 304.481 188.948C304.625 189.087 304.697 189.26 304.697 189.468C304.697 189.676 304.625 189.849 304.481 189.988C304.342 190.127 304.169 190.196 303.961 190.196ZM313.579 194.524V199.5H312.235V194.82C312.235 194.415 312.136 194.047 311.939 193.716C311.742 193.385 311.478 193.124 311.147 192.932C310.816 192.735 310.448 192.636 310.043 192.636C309.643 192.636 309.275 192.735 308.939 192.932C308.608 193.124 308.344 193.385 308.147 193.716C307.95 194.047 307.851 194.415 307.851 194.82V199.5H306.507V191.5H307.851V192.5C308.134 192.127 308.491 191.831 308.923 191.612C309.355 191.388 309.824 191.276 310.331 191.276C310.928 191.276 311.472 191.423 311.963 191.716C312.459 192.004 312.851 192.393 313.139 192.884C313.432 193.375 313.579 193.921 313.579 194.524ZM321.271 191.5H322.615V199.756C322.615 200.284 322.5 200.775 322.271 201.228C322.047 201.687 321.743 202.084 321.359 202.42C320.975 202.761 320.537 203.025 320.047 203.212C319.556 203.404 319.044 203.5 318.511 203.5C317.956 203.5 317.42 203.375 316.903 203.124C316.385 202.879 315.932 202.548 315.543 202.132C315.159 201.721 314.881 201.26 314.711 200.748L315.943 200.188C316.044 200.556 316.225 200.887 316.487 201.18C316.753 201.479 317.063 201.713 317.415 201.884C317.772 202.06 318.137 202.148 318.511 202.148C318.863 202.148 319.201 202.087 319.527 201.964C319.857 201.841 320.153 201.671 320.415 201.452C320.681 201.239 320.889 200.985 321.039 200.692C321.193 200.404 321.271 200.092 321.271 199.756V198.164C320.999 198.623 320.639 198.996 320.191 199.284C319.748 199.567 319.231 199.708 318.639 199.708C318.073 199.708 317.543 199.599 317.047 199.38C316.551 199.161 316.116 198.86 315.743 198.476C315.369 198.087 315.076 197.639 314.863 197.132C314.649 196.625 314.543 196.081 314.543 195.5C314.543 194.919 314.649 194.375 314.863 193.868C315.076 193.356 315.369 192.908 315.743 192.524C316.116 192.135 316.551 191.831 317.047 191.612C317.543 191.393 318.073 191.284 318.639 191.284C319.231 191.284 319.748 191.425 320.191 191.708C320.639 191.991 320.999 192.364 321.271 192.828V191.5ZM318.647 198.404C319.164 198.404 319.612 198.271 319.991 198.004C320.375 197.737 320.671 197.383 320.879 196.94C321.087 196.497 321.191 196.017 321.191 195.5C321.191 194.967 321.084 194.481 320.871 194.044C320.663 193.601 320.367 193.249 319.983 192.988C319.604 192.721 319.159 192.588 318.647 192.588C318.145 192.588 317.687 192.719 317.271 192.98C316.855 193.241 316.524 193.593 316.279 194.036C316.039 194.473 315.919 194.961 315.919 195.5C315.919 196.039 316.041 196.529 316.287 196.972C316.537 197.409 316.868 197.759 317.279 198.02C317.695 198.276 318.151 198.404 318.647 198.404ZM334.822 187.5H336.166V199.5H334.822V198.14C334.55 198.609 334.185 198.988 333.726 199.276C333.267 199.564 332.729 199.708 332.11 199.708C331.529 199.708 330.985 199.599 330.478 199.38C329.971 199.161 329.523 198.86 329.134 198.476C328.75 198.087 328.449 197.639 328.23 197.132C328.011 196.625 327.902 196.081 327.902 195.5C327.902 194.919 328.011 194.375 328.23 193.868C328.449 193.356 328.75 192.908 329.134 192.524C329.523 192.135 329.971 191.831 330.478 191.612C330.985 191.393 331.529 191.284 332.11 191.284C332.729 191.284 333.267 191.428 333.726 191.716C334.185 192.004 334.55 192.383 334.822 192.852V187.5ZM332.126 198.404C332.654 198.404 333.11 198.276 333.494 198.02C333.883 197.759 334.182 197.407 334.39 196.964C334.603 196.521 334.71 196.033 334.71 195.5C334.71 194.956 334.603 194.465 334.39 194.028C334.177 193.585 333.875 193.236 333.486 192.98C333.102 192.719 332.649 192.588 332.126 192.588C331.598 192.588 331.118 192.719 330.686 192.98C330.259 193.241 329.918 193.593 329.662 194.036C329.406 194.473 329.278 194.961 329.278 195.5C329.278 196.039 329.409 196.529 329.67 196.972C329.931 197.409 330.278 197.759 330.71 198.02C331.142 198.276 331.614 198.404 332.126 198.404ZM341.527 199.708C340.791 199.708 340.119 199.519 339.511 199.14C338.908 198.761 338.426 198.255 338.063 197.62C337.706 196.98 337.527 196.273 337.527 195.5C337.527 194.913 337.631 194.367 337.839 193.86C338.047 193.348 338.332 192.9 338.695 192.516C339.063 192.127 339.49 191.823 339.975 191.604C340.46 191.385 340.978 191.276 341.527 191.276C342.13 191.276 342.682 191.399 343.183 191.644C343.69 191.884 344.122 192.22 344.479 192.652C344.842 193.084 345.111 193.585 345.287 194.156C345.468 194.727 345.535 195.337 345.487 195.988H338.959C339.023 196.441 339.172 196.847 339.407 197.204C339.642 197.556 339.94 197.836 340.303 198.044C340.671 198.252 341.079 198.359 341.527 198.364C342.007 198.364 342.442 198.241 342.831 197.996C343.22 197.745 343.535 197.404 343.775 196.972L345.143 197.292C344.823 198.001 344.34 198.583 343.695 199.036C343.05 199.484 342.327 199.708 341.527 199.708ZM338.919 194.932H344.135C344.092 194.484 343.948 194.076 343.703 193.708C343.458 193.335 343.146 193.036 342.767 192.812C342.388 192.588 341.975 192.476 341.527 192.476C341.079 192.476 340.668 192.585 340.295 192.804C339.922 193.023 339.612 193.319 339.367 193.692C339.127 194.06 338.978 194.473 338.919 194.932ZM352.3 197.388L353.5 198.036C353.137 198.543 352.676 198.948 352.116 199.252C351.561 199.556 350.959 199.708 350.308 199.708C349.572 199.708 348.9 199.519 348.292 199.14C347.689 198.761 347.207 198.255 346.844 197.62C346.487 196.98 346.308 196.273 346.308 195.5C346.308 194.913 346.412 194.367 346.62 193.86C346.828 193.348 347.113 192.9 347.476 192.516C347.844 192.127 348.271 191.823 348.756 191.604C349.241 191.385 349.759 191.276 350.308 191.276C350.959 191.276 351.561 191.428 352.116 191.732C352.676 192.036 353.137 192.444 353.5 192.956L352.3 193.604C352.044 193.289 351.74 193.047 351.388 192.876C351.036 192.705 350.676 192.62 350.308 192.62C349.812 192.62 349.361 192.753 348.956 193.02C348.556 193.281 348.239 193.631 348.004 194.068C347.769 194.505 347.652 194.983 347.652 195.5C347.652 196.017 347.769 196.495 348.004 196.932C348.244 197.364 348.564 197.711 348.964 197.972C349.369 198.233 349.817 198.364 350.308 198.364C350.703 198.364 351.073 198.273 351.42 198.092C351.767 197.911 352.06 197.676 352.3 197.388ZM354.757 191.5H356.101V199.5H354.757V191.5ZM355.445 190.196C355.232 190.196 355.053 190.127 354.909 189.988C354.765 189.849 354.693 189.676 354.693 189.468C354.693 189.26 354.765 189.087 354.909 188.948C355.053 188.809 355.229 188.74 355.437 188.74C355.645 188.74 355.821 188.809 355.965 188.948C356.109 189.087 356.181 189.26 356.181 189.468C356.181 189.676 356.109 189.849 355.965 189.988C355.826 190.127 355.653 190.196 355.445 190.196ZM360.384 199.652C359.952 199.636 359.531 199.556 359.12 199.412C358.715 199.263 358.358 199.063 358.048 198.812C357.744 198.556 357.523 198.263 357.384 197.932L358.536 197.436C358.616 197.617 358.76 197.788 358.968 197.948C359.176 198.108 359.416 198.236 359.688 198.332C359.96 198.428 360.235 198.476 360.512 198.476C360.806 198.476 361.08 198.431 361.336 198.34C361.592 198.249 361.8 198.116 361.96 197.94C362.126 197.759 362.208 197.543 362.208 197.292C362.208 197.025 362.118 196.817 361.936 196.668C361.76 196.513 361.536 196.393 361.264 196.308C360.998 196.217 360.726 196.132 360.448 196.052C359.899 195.913 359.408 195.748 358.976 195.556C358.544 195.359 358.203 195.111 357.952 194.812C357.707 194.508 357.584 194.121 357.584 193.652C357.584 193.156 357.72 192.727 357.992 192.364C358.27 192.001 358.632 191.721 359.08 191.524C359.528 191.327 360.008 191.228 360.52 191.228C361.166 191.228 361.755 191.367 362.288 191.644C362.822 191.921 363.219 192.297 363.48 192.772L362.4 193.404C362.31 193.212 362.171 193.044 361.984 192.9C361.798 192.751 361.584 192.633 361.344 192.548C361.104 192.463 360.859 192.417 360.608 192.412C360.299 192.401 360.008 192.441 359.736 192.532C359.47 192.623 359.254 192.761 359.088 192.948C358.928 193.129 358.848 193.356 358.848 193.628C358.848 193.895 358.934 194.097 359.104 194.236C359.28 194.375 359.507 194.487 359.784 194.572C360.067 194.652 360.374 194.745 360.704 194.852C361.19 195.007 361.643 195.185 362.064 195.388C362.486 195.591 362.824 195.844 363.08 196.148C363.342 196.452 363.47 196.828 363.464 197.276C363.464 197.767 363.318 198.196 363.024 198.564C362.731 198.927 362.35 199.204 361.88 199.396C361.416 199.588 360.918 199.673 360.384 199.652ZM364.726 191.5H366.07V199.5H364.726V191.5ZM365.414 190.196C365.2 190.196 365.022 190.127 364.878 189.988C364.734 189.849 364.662 189.676 364.662 189.468C364.662 189.26 364.734 189.087 364.878 188.948C365.022 188.809 365.198 188.74 365.406 188.74C365.614 188.74 365.79 188.809 365.934 188.948C366.078 189.087 366.15 189.26 366.15 189.468C366.15 189.676 366.078 189.849 365.934 189.988C365.795 190.127 365.622 190.196 365.414 190.196ZM371.402 199.708C370.666 199.708 369.994 199.519 369.386 199.14C368.783 198.761 368.301 198.255 367.938 197.62C367.581 196.98 367.402 196.273 367.402 195.5C367.402 194.913 367.506 194.367 367.714 193.86C367.922 193.348 368.207 192.9 368.57 192.516C368.938 192.127 369.365 191.823 369.85 191.604C370.335 191.385 370.853 191.276 371.402 191.276C372.138 191.276 372.807 191.465 373.41 191.844C374.018 192.223 374.501 192.732 374.858 193.372C375.221 194.012 375.402 194.721 375.402 195.5C375.402 196.081 375.298 196.625 375.09 197.132C374.882 197.639 374.594 198.087 374.226 198.476C373.863 198.86 373.439 199.161 372.954 199.38C372.474 199.599 371.957 199.708 371.402 199.708ZM371.402 198.364C371.903 198.364 372.354 198.233 372.754 197.972C373.159 197.705 373.477 197.356 373.706 196.924C373.941 196.487 374.058 196.012 374.058 195.5C374.058 194.977 373.938 194.497 373.698 194.06C373.463 193.623 373.146 193.273 372.746 193.012C372.346 192.751 371.898 192.62 371.402 192.62C370.901 192.62 370.45 192.753 370.05 193.02C369.65 193.281 369.333 193.631 369.098 194.068C368.863 194.505 368.746 194.983 368.746 195.5C368.746 196.033 368.866 196.519 369.106 196.956C369.346 197.388 369.669 197.732 370.074 197.988C370.479 198.239 370.922 198.364 371.402 198.364ZM383.798 194.524V199.5H382.454V194.82C382.454 194.415 382.355 194.047 382.158 193.716C381.96 193.385 381.696 193.124 381.366 192.932C381.035 192.735 380.667 192.636 380.262 192.636C379.862 192.636 379.494 192.735 379.158 192.932C378.827 193.124 378.563 193.385 378.366 193.716C378.168 194.047 378.07 194.415 378.07 194.82V199.5H376.726V191.5H378.07V192.5C378.352 192.127 378.71 191.831 379.142 191.612C379.574 191.388 380.043 191.276 380.55 191.276C381.147 191.276 381.691 191.423 382.182 191.716C382.678 192.004 383.07 192.393 383.358 192.884C383.651 193.375 383.798 193.921 383.798 194.524Z" fill="#0C1021"/>
<rect x="129.5" y="319" width="168" height="40" rx="20" fill="#3DEC82" fill-opacity="0.15"/>
<rect x="130" y="319.5" width="167" height="39" rx="19.5" stroke="#28BC62" stroke-opacity="0.1"/>
<path d="M143.5 339C143.5 336.348 144.554 333.804 146.429 331.929C148.304 330.054 150.848 329 153.5 329C156.152 329 158.696 330.054 160.571 331.929C162.446 333.804 163.5 336.348 163.5 339C163.5 341.652 162.446 344.196 160.571 346.071C158.696 347.946 156.152 349 153.5 349C150.848 349 148.304 347.946 146.429 346.071C144.554 344.196 143.5 341.652 143.5 339ZM158.208 337.208C158.301 337.115 158.375 337.005 158.425 336.883C158.475 336.762 158.501 336.631 158.501 336.5C158.501 336.369 158.475 336.238 158.425 336.117C158.375 335.995 158.301 335.885 158.208 335.792C158.115 335.699 158.005 335.625 157.883 335.575C157.762 335.525 157.631 335.499 157.5 335.499C157.369 335.499 157.238 335.525 157.117 335.575C156.995 335.625 156.885 335.699 156.792 335.792L152.5 340.086L150.208 337.792C150.115 337.699 150.005 337.625 149.883 337.575C149.762 337.525 149.631 337.499 149.5 337.499C149.369 337.499 149.238 337.525 149.117 337.575C148.995 337.625 148.885 337.699 148.792 337.792C148.699 337.885 148.625 337.995 148.575 338.117C148.525 338.238 148.499 338.369 148.499 338.5C148.499 338.631 148.525 338.762 148.575 338.883C148.625 339.005 148.699 339.115 148.792 339.208L151.792 342.208C151.885 342.301 151.995 342.375 152.117 342.425C152.238 342.476 152.368 342.502 152.5 342.502C152.632 342.502 152.762 342.476 152.883 342.425C153.005 342.375 153.115 342.301 153.208 342.208L158.208 337.208Z" fill="#28BC62"/>
<path d="M178.212 333.3H179.836L183.908 344.5H182.484L181.652 342.212H176.396L175.572 344.5H174.14L178.212 333.3ZM176.892 340.868H181.156L179.02 335.02L176.892 340.868ZM185.606 344.5V333.3H186.95V344.5H185.606ZM197.104 337.844H195.288L195.28 344.5H193.936L193.944 337.844H192.568V336.5H193.944L193.936 333.988H195.28L195.288 336.5H197.104V337.844ZM198.538 344.5V336.5H199.882V337.5C200.165 337.127 200.522 336.831 200.954 336.612C201.386 336.388 201.855 336.276 202.362 336.276C202.671 336.276 202.97 336.316 203.258 336.396L202.714 337.74C202.495 337.671 202.282 337.636 202.074 337.636C201.674 337.636 201.306 337.735 200.97 337.932C200.639 338.124 200.375 338.385 200.178 338.716C199.981 339.047 199.882 339.415 199.882 339.82V344.5H198.538ZM204.241 336.5H205.585V344.5H204.241V336.5ZM204.929 335.196C204.716 335.196 204.537 335.127 204.393 334.988C204.249 334.849 204.177 334.676 204.177 334.468C204.177 334.26 204.249 334.087 204.393 333.948C204.537 333.809 204.713 333.74 204.921 333.74C205.129 333.74 205.305 333.809 205.449 333.948C205.593 334.087 205.665 334.26 205.665 334.468C205.665 334.676 205.593 334.849 205.449 334.988C205.311 335.127 205.137 335.196 204.929 335.196ZM213.83 336.5H215.174V344.5H213.83L213.774 343.148C213.523 343.612 213.176 343.988 212.734 344.276C212.296 344.564 211.774 344.708 211.166 344.708C210.579 344.708 210.03 344.599 209.518 344.38C209.006 344.156 208.552 343.849 208.158 343.46C207.768 343.065 207.464 342.612 207.246 342.1C207.027 341.588 206.918 341.036 206.918 340.444C206.918 339.873 207.024 339.335 207.238 338.828C207.451 338.321 207.747 337.879 208.126 337.5C208.51 337.116 208.952 336.817 209.454 336.604C209.955 336.385 210.494 336.276 211.07 336.276C211.699 336.276 212.251 336.425 212.726 336.724C213.2 337.017 213.584 337.399 213.878 337.868L213.83 336.5ZM211.141 343.404C211.67 343.404 212.126 343.276 212.51 343.02C212.899 342.759 213.198 342.407 213.406 341.964C213.619 341.521 213.726 341.033 213.726 340.5C213.726 339.956 213.619 339.465 213.406 339.028C213.192 338.585 212.891 338.236 212.502 337.98C212.118 337.719 211.664 337.588 211.141 337.588C210.614 337.588 210.134 337.719 209.702 337.98C209.27 338.241 208.926 338.593 208.67 339.036C208.419 339.473 208.294 339.961 208.294 340.5C208.294 341.039 208.424 341.529 208.686 341.972C208.947 342.409 209.294 342.759 209.726 343.02C210.158 343.276 210.63 343.404 211.141 343.404ZM222.864 336.5H224.208V344.756C224.208 345.284 224.094 345.775 223.864 346.228C223.64 346.687 223.336 347.084 222.952 347.42C222.568 347.761 222.131 348.025 221.64 348.212C221.15 348.404 220.638 348.5 220.104 348.5C219.55 348.5 219.014 348.375 218.496 348.124C217.979 347.879 217.526 347.548 217.136 347.132C216.752 346.721 216.475 346.26 216.304 345.748L217.536 345.188C217.638 345.556 217.819 345.887 218.08 346.18C218.347 346.479 218.656 346.713 219.008 346.884C219.366 347.06 219.731 347.148 220.104 347.148C220.456 347.148 220.795 347.087 221.12 346.964C221.451 346.841 221.747 346.671 222.008 346.452C222.275 346.239 222.483 345.985 222.632 345.692C222.787 345.404 222.864 345.092 222.864 344.756V343.164C222.592 343.623 222.232 343.996 221.784 344.284C221.342 344.567 220.824 344.708 220.232 344.708C219.667 344.708 219.136 344.599 218.64 344.38C218.144 344.161 217.71 343.86 217.336 343.476C216.963 343.087 216.67 342.639 216.456 342.132C216.243 341.625 216.136 341.081 216.136 340.5C216.136 339.919 216.243 339.375 216.456 338.868C216.67 338.356 216.963 337.908 217.336 337.524C217.71 337.135 218.144 336.831 218.64 336.612C219.136 336.393 219.667 336.284 220.232 336.284C220.824 336.284 221.342 336.425 221.784 336.708C222.232 336.991 222.592 337.364 222.864 337.828V336.5ZM220.24 343.404C220.758 343.404 221.206 343.271 221.584 343.004C221.968 342.737 222.264 342.383 222.472 341.94C222.68 341.497 222.784 341.017 222.784 340.5C222.784 339.967 222.678 339.481 222.464 339.044C222.256 338.601 221.96 338.249 221.576 337.988C221.198 337.721 220.752 337.588 220.24 337.588C219.739 337.588 219.28 337.719 218.864 337.98C218.448 338.241 218.118 338.593 217.872 339.036C217.632 339.473 217.512 339.961 217.512 340.5C217.512 341.039 217.635 341.529 217.88 341.972C218.131 342.409 218.462 342.759 218.872 343.02C219.288 343.276 219.744 343.404 220.24 343.404ZM229.543 344.708C228.807 344.708 228.135 344.519 227.527 344.14C226.924 343.761 226.441 343.255 226.079 342.62C225.721 341.98 225.543 341.273 225.543 340.5C225.543 339.913 225.647 339.367 225.855 338.86C226.063 338.348 226.348 337.9 226.711 337.516C227.079 337.127 227.505 336.823 227.991 336.604C228.476 336.385 228.993 336.276 229.543 336.276C230.145 336.276 230.697 336.399 231.199 336.644C231.705 336.884 232.137 337.22 232.495 337.652C232.857 338.084 233.127 338.585 233.303 339.156C233.484 339.727 233.551 340.337 233.503 340.988H226.975C227.039 341.441 227.188 341.847 227.423 342.204C227.657 342.556 227.956 342.836 228.319 343.044C228.687 343.252 229.095 343.359 229.543 343.364C230.023 343.364 230.457 343.241 230.847 342.996C231.236 342.745 231.551 342.404 231.791 341.972L233.159 342.292C232.839 343.001 232.356 343.583 231.711 344.036C231.065 344.484 230.343 344.708 229.543 344.708ZM226.935 339.932H232.151C232.108 339.484 231.964 339.076 231.719 338.708C231.473 338.335 231.161 338.036 230.783 337.812C230.404 337.588 229.991 337.476 229.543 337.476C229.095 337.476 228.684 337.585 228.311 337.804C227.937 338.023 227.628 338.319 227.383 338.692C227.143 339.06 226.993 339.473 226.935 339.932ZM242.324 344.708C241.588 344.708 240.916 344.519 240.308 344.14C239.705 343.761 239.222 343.255 238.86 342.62C238.502 341.98 238.324 341.273 238.324 340.5C238.324 339.913 238.428 339.367 238.636 338.86C238.844 338.348 239.129 337.9 239.492 337.516C239.86 337.127 240.286 336.823 240.772 336.604C241.257 336.385 241.774 336.276 242.324 336.276C242.926 336.276 243.478 336.399 243.98 336.644C244.486 336.884 244.918 337.22 245.276 337.652C245.638 338.084 245.908 338.585 246.084 339.156C246.265 339.727 246.332 340.337 246.284 340.988H239.756C239.82 341.441 239.969 341.847 240.204 342.204C240.438 342.556 240.737 342.836 241.1 343.044C241.468 343.252 241.876 343.359 242.324 343.364C242.804 343.364 243.238 343.241 243.628 342.996C244.017 342.745 244.332 342.404 244.572 341.972L245.94 342.292C245.62 343.001 245.137 343.583 244.492 344.036C243.846 344.484 243.124 344.708 242.324 344.708ZM239.716 339.932H244.932C244.889 339.484 244.745 339.076 244.5 338.708C244.254 338.335 243.942 338.036 243.564 337.812C243.185 337.588 242.772 337.476 242.324 337.476C241.876 337.476 241.465 337.585 241.092 337.804C240.718 338.023 240.409 338.319 240.164 338.692C239.924 339.06 239.774 339.473 239.716 339.932ZM254.704 339.524V344.5H253.36V339.82C253.36 339.415 253.261 339.047 253.064 338.716C252.867 338.385 252.603 338.124 252.272 337.932C251.941 337.735 251.573 337.636 251.168 337.636C250.768 337.636 250.4 337.735 250.064 337.932C249.733 338.124 249.469 338.385 249.272 338.716C249.075 339.047 248.976 339.415 248.976 339.82V344.5H247.632V336.5H248.976V337.5C249.259 337.127 249.616 336.831 250.048 336.612C250.48 336.388 250.949 336.276 251.456 336.276C252.053 336.276 252.597 336.423 253.088 336.716C253.584 337.004 253.976 337.393 254.264 337.884C254.557 338.375 254.704 338.921 254.704 339.524ZM262.396 336.5H263.74V344.756C263.74 345.284 263.625 345.775 263.396 346.228C263.172 346.687 262.868 347.084 262.484 347.42C262.1 347.761 261.662 348.025 261.172 348.212C260.681 348.404 260.169 348.5 259.636 348.5C259.081 348.5 258.545 348.375 258.028 348.124C257.51 347.879 257.057 347.548 256.668 347.132C256.284 346.721 256.006 346.26 255.836 345.748L257.068 345.188C257.169 345.556 257.35 345.887 257.612 346.18C257.878 346.479 258.188 346.713 258.54 346.884C258.897 347.06 259.262 347.148 259.636 347.148C259.988 347.148 260.326 347.087 260.652 346.964C260.982 346.841 261.278 346.671 261.54 346.452C261.806 346.239 262.014 345.985 262.164 345.692C262.318 345.404 262.396 345.092 262.396 344.756V343.164C262.124 343.623 261.764 343.996 261.316 344.284C260.873 344.567 260.356 344.708 259.764 344.708C259.198 344.708 258.668 344.599 258.172 344.38C257.676 344.161 257.241 343.86 256.868 343.476C256.494 343.087 256.201 342.639 255.988 342.132C255.774 341.625 255.668 341.081 255.668 340.5C255.668 339.919 255.774 339.375 255.988 338.868C256.201 338.356 256.494 337.908 256.868 337.524C257.241 337.135 257.676 336.831 258.172 336.612C258.668 336.393 259.198 336.284 259.764 336.284C260.356 336.284 260.873 336.425 261.316 336.708C261.764 336.991 262.124 337.364 262.396 337.828V336.5ZM259.772 343.404C260.289 343.404 260.737 343.271 261.116 343.004C261.5 342.737 261.796 342.383 262.004 341.94C262.212 341.497 262.316 341.017 262.316 340.5C262.316 339.967 262.209 339.481 261.996 339.044C261.788 338.601 261.492 338.249 261.108 337.988C260.729 337.721 260.284 337.588 259.772 337.588C259.27 337.588 258.812 337.719 258.396 337.98C257.98 338.241 257.649 338.593 257.404 339.036C257.164 339.473 257.044 339.961 257.044 340.5C257.044 341.039 257.166 341.529 257.412 341.972C257.662 342.409 257.993 342.759 258.404 343.02C258.82 343.276 259.276 343.404 259.772 343.404ZM265.554 336.5H266.898V344.5H265.554V336.5ZM266.242 335.196C266.028 335.196 265.85 335.127 265.706 334.988C265.562 334.849 265.49 334.676 265.49 334.468C265.49 334.26 265.562 334.087 265.706 333.948C265.85 333.809 266.026 333.74 266.234 333.74C266.442 333.74 266.618 333.809 266.762 333.948C266.906 334.087 266.978 334.26 266.978 334.468C266.978 334.676 266.906 334.849 266.762 334.988C266.623 335.127 266.45 335.196 266.242 335.196ZM275.86 339.524V344.5H274.516V339.82C274.516 339.415 274.417 339.047 274.22 338.716C274.023 338.385 273.759 338.124 273.428 337.932C273.097 337.735 272.729 337.636 272.324 337.636C271.924 337.636 271.556 337.735 271.22 337.932C270.889 338.124 270.625 338.385 270.428 338.716C270.231 339.047 270.132 339.415 270.132 339.82V344.5H268.788V336.5H270.132V337.5C270.415 337.127 270.772 336.831 271.204 336.612C271.636 336.388 272.105 336.276 272.612 336.276C273.209 336.276 273.753 336.423 274.244 336.716C274.74 337.004 275.132 337.393 275.42 337.884C275.713 338.375 275.86 338.921 275.86 339.524ZM280.824 344.708C280.088 344.708 279.416 344.519 278.808 344.14C278.205 343.761 277.722 343.255 277.36 342.62C277.002 341.98 276.824 341.273 276.824 340.5C276.824 339.913 276.928 339.367 277.136 338.86C277.344 338.348 277.629 337.9 277.992 337.516C278.36 337.127 278.786 336.823 279.272 336.604C279.757 336.385 280.274 336.276 280.824 336.276C281.426 336.276 281.978 336.399 282.48 336.644C282.986 336.884 283.418 337.22 283.776 337.652C284.138 338.084 284.408 338.585 284.584 339.156C284.765 339.727 284.832 340.337 284.784 340.988H278.256C278.32 341.441 278.469 341.847 278.704 342.204C278.938 342.556 279.237 342.836 279.6 343.044C279.968 343.252 280.376 343.359 280.824 343.364C281.304 343.364 281.738 343.241 282.128 342.996C282.517 342.745 282.832 342.404 283.072 341.972L284.44 342.292C284.12 343.001 283.637 343.583 282.992 344.036C282.346 344.484 281.624 344.708 280.824 344.708ZM278.216 339.932H283.432C283.389 339.484 283.245 339.076 283 338.708C282.754 338.335 282.442 338.036 282.064 337.812C281.685 337.588 281.272 337.476 280.824 337.476C280.376 337.476 279.965 337.585 279.592 337.804C279.218 338.023 278.909 338.319 278.664 338.692C278.424 339.06 278.274 339.473 278.216 339.932Z" fill="#28BC62"/>
<path d="M98.8333 214C98.8333 215.473 100.027 216.667 101.5 216.667C102.973 216.667 104.167 215.473 104.167 214C104.167 212.527 102.973 211.333 101.5 211.333C100.027 211.333 98.8333 212.527 98.8333 214ZM213.146 316.354C213.342 316.549 213.658 316.549 213.854 316.354L217.036 313.172C217.231 312.976 217.231 312.66 217.036 312.464C216.84 312.269 216.524 312.269 216.328 312.464L213.5 315.293L210.672 312.464C210.476 312.269 210.16 312.269 209.964 312.464C209.769 312.66 209.769 312.976 209.964 313.172L213.146 316.354ZM101 220.333C101 220.609 101.224 220.833 101.5 220.833C101.776 220.833 102 220.609 102 220.333H101.5H101ZM102 226.667C102 226.391 101.776 226.167 101.5 226.167C101.224 226.167 101 226.391 101 226.667H101.5H102ZM101 233C101 233.276 101.224 233.5 101.5 233.5C101.776 233.5 102 233.276 102 233H101.5H101ZM102 239.333C102 239.057 101.776 238.833 101.5 238.833C101.224 238.833 101 239.057 101 239.333H101.5H102ZM101.207 245.699C101.243 245.973 101.494 246.166 101.768 246.13C102.041 246.095 102.234 245.844 102.199 245.57L101.703 245.635L101.207 245.699ZM103.783 251.495C103.677 251.24 103.385 251.119 103.13 251.225C102.875 251.331 102.753 251.623 102.859 251.878L103.321 251.687L103.783 251.495ZM106.062 257.415C106.23 257.634 106.544 257.676 106.763 257.507C106.982 257.339 107.023 257.025 106.855 256.806L106.458 257.111L106.062 257.415ZM111.194 261.145C110.975 260.977 110.661 261.018 110.493 261.237C110.324 261.456 110.366 261.77 110.585 261.938L110.889 261.542L111.194 261.145ZM116.122 265.141C116.377 265.247 116.669 265.125 116.775 264.87C116.881 264.615 116.76 264.323 116.505 264.217L116.313 264.679L116.122 265.141ZM122.43 265.801C122.156 265.766 121.905 265.959 121.87 266.232C121.834 266.506 122.027 266.757 122.301 266.793L122.365 266.297L122.43 265.801ZM128.7 267C128.976 267 129.2 266.776 129.2 266.5C129.2 266.224 128.976 266 128.7 266V266.5V267ZM135.1 266C134.824 266 134.6 266.224 134.6 266.5C134.6 266.776 134.824 267 135.1 267V266.5V266ZM141.5 267C141.776 267 142 266.776 142 266.5C142 266.224 141.776 266 141.5 266V266.5V267ZM147.9 266C147.624 266 147.4 266.224 147.4 266.5C147.4 266.776 147.624 267 147.9 267V266.5V266ZM154.3 267C154.576 267 154.8 266.776 154.8 266.5C154.8 266.224 154.576 266 154.3 266V266.5V267ZM160.7 266C160.424 266 160.2 266.224 160.2 266.5C160.2 266.776 160.424 267 160.7 267V266.5V266ZM167.1 267C167.376 267 167.6 266.776 167.6 266.5C167.6 266.224 167.376 266 167.1 266V266.5V267ZM173.5 266C173.224 266 173 266.224 173 266.5C173 266.776 173.224 267 173.5 267V266.5V266ZM179.9 267C180.176 267 180.4 266.776 180.4 266.5C180.4 266.224 180.176 266 179.9 266V266.5V267ZM186.3 266C186.024 266 185.8 266.224 185.8 266.5C185.8 266.776 186.024 267 186.3 267V266.5V266ZM192.57 267.199C192.844 267.234 193.095 267.041 193.13 266.768C193.166 266.494 192.973 266.243 192.699 266.207L192.635 266.703L192.57 267.199ZM198.878 267.859C198.623 267.753 198.331 267.875 198.225 268.13C198.119 268.385 198.24 268.677 198.495 268.783L198.687 268.321L198.878 267.859ZM203.806 271.855C204.025 272.023 204.339 271.982 204.507 271.763C204.676 271.544 204.634 271.23 204.415 271.062L204.111 271.458L203.806 271.855ZM208.938 275.585C208.77 275.366 208.456 275.324 208.237 275.493C208.018 275.661 207.977 275.975 208.145 276.194L208.542 275.889L208.938 275.585ZM211.217 281.505C211.323 281.76 211.615 281.881 211.87 281.775C212.125 281.669 212.247 281.377 212.141 281.122L211.679 281.313L211.217 281.505ZM213.793 287.301C213.757 287.027 213.506 286.834 213.232 286.87C212.959 286.905 212.766 287.156 212.801 287.43L213.297 287.365L213.793 287.301ZM213 293.333C213 293.609 213.224 293.833 213.5 293.833C213.776 293.833 214 293.609 214 293.333H213.5H213ZM214 299C214 298.724 213.776 298.5 213.5 298.5C213.224 298.5 213 298.724 213 299H213.5H214ZM213 304.667C213 304.943 213.224 305.167 213.5 305.167C213.776 305.167 214 304.943 214 304.667H213.5H213ZM214 310.333C214 310.057 213.776 309.833 213.5 309.833C213.224 309.833 213 310.057 213 310.333H213.5H214ZM101.5 214H101V220.333H101.5H102V214H101.5ZM101.5 226.667H101V233H101.5H102V226.667H101.5ZM101.5 239.333H101V242.5H101.5H102V239.333H101.5ZM101.5 242.5H101C101 243.584 101.07 244.652 101.207 245.699L101.703 245.635L102.199 245.57C102.068 244.565 102 243.541 102 242.5H101.5ZM103.321 251.687L102.859 251.878C103.685 253.87 104.767 255.73 106.062 257.415L106.458 257.111L106.855 256.806C105.612 255.189 104.575 253.406 103.783 251.495L103.321 251.687ZM110.889 261.542L110.585 261.938C112.27 263.233 114.13 264.315 116.122 265.141L116.313 264.679L116.505 264.217C114.594 263.425 112.811 262.388 111.194 261.145L110.889 261.542ZM122.365 266.297L122.301 266.793C123.348 266.93 124.416 267 125.5 267V266.5V266C124.459 266 123.435 265.932 122.43 265.801L122.365 266.297ZM125.5 266.5V267H128.7V266.5V266H125.5V266.5ZM135.1 266.5V267H141.5V266.5V266H135.1V266.5ZM147.9 266.5V267H154.3V266.5V266H147.9V266.5ZM160.7 266.5V267H167.1V266.5V266H160.7V266.5ZM173.5 266.5V267H179.9V266.5V266H173.5V266.5ZM186.3 266.5V267H189.5V266.5V266H186.3V266.5ZM189.5 266.5V267C190.541 267 191.565 267.068 192.57 267.199L192.635 266.703L192.699 266.207C191.652 266.07 190.584 266 189.5 266V266.5ZM198.687 268.321L198.495 268.783C200.406 269.575 202.189 270.612 203.806 271.855L204.111 271.458L204.415 271.062C202.73 269.767 200.87 268.685 198.878 267.859L198.687 268.321ZM208.542 275.889L208.145 276.194C209.388 277.811 210.425 279.594 211.217 281.505L211.679 281.313L212.141 281.122C211.315 279.13 210.233 277.27 208.938 275.585L208.542 275.889ZM213.297 287.365L212.801 287.43C212.932 288.435 213 289.459 213 290.5H213.5H214C214 289.416 213.93 288.348 213.793 287.301L213.297 287.365ZM213.5 290.5H213V293.333H213.5H214V290.5H213.5ZM213.5 299H213V304.667H213.5H214V299H213.5ZM213.5 310.333H213V316H213.5H214V310.333H213.5Z" fill="#4268FF"/>
<path d="M210.833 148C210.833 149.473 212.027 150.667 213.5 150.667C214.973 150.667 216.167 149.473 216.167 148C216.167 146.527 214.973 145.333 213.5 145.333C212.027 145.333 210.833 146.527 210.833 148ZM213.146 316.354C213.342 316.549 213.658 316.549 213.854 316.354L217.036 313.172C217.231 312.976 217.231 312.66 217.036 312.464C216.84 312.269 216.524 312.269 216.328 312.464L213.5 315.293L210.672 312.464C210.476 312.269 210.16 312.269 209.964 312.464C209.769 312.66 209.769 312.976 209.964 313.172L213.146 316.354ZM213 153.7C213 153.976 213.224 154.2 213.5 154.2C213.776 154.2 214 153.976 214 153.7H213.5H213ZM214 159.4C214 159.124 213.776 158.9 213.5 158.9C213.224 158.9 213 159.124 213 159.4H213.5H214ZM213 165.1C213 165.376 213.224 165.6 213.5 165.6C213.776 165.6 214 165.376 214 165.1H213.5H213ZM214 170.8C214 170.524 213.776 170.3 213.5 170.3C213.224 170.3 213 170.524 213 170.8H213.5H214ZM213 176.5C213 176.776 213.224 177 213.5 177C213.776 177 214 176.776 214 176.5H213.5H213ZM214 182.2C214 181.924 213.776 181.7 213.5 181.7C213.224 181.7 213 181.924 213 182.2H213.5H214ZM213 187.9C213 188.176 213.224 188.4 213.5 188.4C213.776 188.4 214 188.176 214 187.9H213.5H213ZM214 193.6C214 193.324 213.776 193.1 213.5 193.1C213.224 193.1 213 193.324 213 193.6H213.5H214ZM213 199.3C213 199.576 213.224 199.8 213.5 199.8C213.776 199.8 214 199.576 214 199.3H213.5H213ZM214 205C214 204.724 213.776 204.5 213.5 204.5C213.224 204.5 213 204.724 213 205H213.5H214ZM213 210.7C213 210.976 213.224 211.2 213.5 211.2C213.776 211.2 214 210.976 214 210.7H213.5H213ZM214 216.4C214 216.124 213.776 215.9 213.5 215.9C213.224 215.9 213 216.124 213 216.4H213.5H214ZM213 222.1C213 222.376 213.224 222.6 213.5 222.6C213.776 222.6 214 222.376 214 222.1H213.5H213ZM214 227.8C214 227.524 213.776 227.3 213.5 227.3C213.224 227.3 213 227.524 213 227.8H213.5H214ZM213 233.5C213 233.776 213.224 234 213.5 234C213.776 234 214 233.776 214 233.5H213.5H213ZM214 239.2C214 238.924 213.776 238.7 213.5 238.7C213.224 238.7 213 238.924 213 239.2H213.5H214ZM213 244.9C213 245.176 213.224 245.4 213.5 245.4C213.776 245.4 214 245.176 214 244.9H213.5H213ZM214 250.6C214 250.324 213.776 250.1 213.5 250.1C213.224 250.1 213 250.324 213 250.6H213.5H214ZM213 256.3C213 256.576 213.224 256.8 213.5 256.8C213.776 256.8 214 256.576 214 256.3H213.5H213ZM214 262C214 261.724 213.776 261.5 213.5 261.5C213.224 261.5 213 261.724 213 262H213.5H214ZM213 267.7C213 267.976 213.224 268.2 213.5 268.2C213.776 268.2 214 267.976 214 267.7H213.5H213ZM214 273.4C214 273.124 213.776 272.9 213.5 272.9C213.224 272.9 213 273.124 213 273.4H213.5H214ZM213 279.1C213 279.376 213.224 279.6 213.5 279.6C213.776 279.6 214 279.376 214 279.1H213.5H213ZM214 284.8C214 284.524 213.776 284.3 213.5 284.3C213.224 284.3 213 284.524 213 284.8H213.5H214ZM213 295.6C213 295.876 213.224 296.1 213.5 296.1C213.776 296.1 214 295.876 214 295.6H213.5H213ZM214 300.7C214 300.424 213.776 300.2 213.5 300.2C213.224 300.2 213 300.424 213 300.7H213.5H214ZM213 305.8C213 306.076 213.224 306.3 213.5 306.3C213.776 306.3 214 306.076 214 305.8H213.5H213ZM214 310.9C214 310.624 213.776 310.4 213.5 310.4C213.224 310.4 213 310.624 213 310.9H213.5H214ZM213.5 148H213V153.7H213.5H214V148H213.5ZM213.5 159.4H213V165.1H213.5H214V159.4H213.5ZM213.5 170.8H213V176.5H213.5H214V170.8H213.5ZM213.5 182.2H213V187.9H213.5H214V182.2H213.5ZM213.5 193.6H213V199.3H213.5H214V193.6H213.5ZM213.5 205H213V210.7H213.5H214V205H213.5ZM213.5 216.4H213V222.1H213.5H214V216.4H213.5ZM213.5 227.8H213V233.5H213.5H214V227.8H213.5ZM213.5 239.2H213V244.9H213.5H214V239.2H213.5ZM213.5 250.6H213V256.3H213.5H214V250.6H213.5ZM213.5 262H213V267.7H213.5H214V262H213.5ZM213.5 273.4H213V279.1H213.5H214V273.4H213.5ZM213.5 284.8H213V290.5H213.5H214V284.8H213.5ZM213.5 290.5H213V295.6H213.5H214V290.5H213.5ZM213.5 300.7H213V305.8H213.5H214V300.7H213.5ZM213.5 310.9H213V316H213.5H214V310.9H213.5Z" fill="#4268FF"/>
<path d="M309.333 214C309.333 215.473 310.527 216.667 312 216.667C313.473 216.667 314.667 215.473 314.667 214C314.667 212.527 313.473 211.333 312 211.333C310.527 211.333 309.333 212.527 309.333 214ZM213.146 316.354C213.342 316.549 213.658 316.549 213.854 316.354L217.036 313.172C217.231 312.976 217.231 312.66 217.036 312.464C216.84 312.269 216.524 312.269 216.328 312.464L213.5 315.293L210.672 312.464C210.476 312.269 210.16 312.269 209.964 312.464C209.769 312.66 209.769 312.976 209.964 313.172L213.146 316.354ZM214 310.333C214 310.057 213.776 309.833 213.5 309.833C213.224 309.833 213 310.057 213 310.333H213.5H214ZM213 304.667C213 304.943 213.224 305.167 213.5 305.167C213.776 305.167 214 304.943 214 304.667H213.5H213ZM214 299C214 298.724 213.776 298.5 213.5 298.5C213.224 298.5 213 298.724 213 299H213.5H214ZM213 293.333C213 293.609 213.224 293.833 213.5 293.833C213.776 293.833 214 293.609 214 293.333H213.5H213ZM214.199 287.43C214.234 287.156 214.041 286.905 213.768 286.87C213.494 286.834 213.243 287.027 213.207 287.301L213.703 287.365L214.199 287.43ZM214.859 281.122C214.753 281.377 214.875 281.669 215.13 281.775C215.385 281.881 215.677 281.76 215.783 281.505L215.321 281.313L214.859 281.122ZM218.855 276.194C219.023 275.975 218.982 275.661 218.763 275.493C218.544 275.324 218.23 275.366 218.062 275.585L218.458 275.889L218.855 276.194ZM222.585 271.062C222.366 271.23 222.324 271.544 222.493 271.763C222.661 271.982 222.975 272.023 223.194 271.855L222.889 271.458L222.585 271.062ZM228.505 268.783C228.76 268.677 228.881 268.385 228.775 268.13C228.669 267.875 228.377 267.753 228.122 267.859L228.313 268.321L228.505 268.783ZM234.301 266.207C234.027 266.243 233.834 266.494 233.87 266.768C233.905 267.041 234.156 267.234 234.43 267.199L234.365 266.703L234.301 266.207ZM240.656 267C240.932 267 241.156 266.776 241.156 266.5C241.156 266.224 240.932 266 240.656 266V266.5V267ZM246.969 266C246.693 266 246.469 266.224 246.469 266.5C246.469 266.776 246.693 267 246.969 267V266.5V266ZM253.281 267C253.557 267 253.781 266.776 253.781 266.5C253.781 266.224 253.557 266 253.281 266V266.5V267ZM259.594 266C259.318 266 259.094 266.224 259.094 266.5C259.094 266.776 259.318 267 259.594 267V266.5V266ZM265.906 267C266.182 267 266.406 266.776 266.406 266.5C266.406 266.224 266.182 266 265.906 266V266.5V267ZM272.219 266C271.943 266 271.719 266.224 271.719 266.5C271.719 266.776 271.943 267 272.219 267V266.5V266ZM278.531 267C278.807 267 279.031 266.776 279.031 266.5C279.031 266.224 278.807 266 278.531 266V266.5V267ZM284.844 266C284.568 266 284.344 266.224 284.344 266.5C284.344 266.776 284.568 267 284.844 267V266.5V266ZM291.199 266.793C291.473 266.757 291.666 266.506 291.63 266.232C291.595 265.959 291.344 265.766 291.07 265.801L291.135 266.297L291.199 266.793ZM296.995 264.217C296.74 264.323 296.619 264.615 296.725 264.87C296.831 265.125 297.123 265.247 297.378 265.141L297.187 264.679L296.995 264.217ZM302.915 261.938C303.134 261.77 303.176 261.456 303.007 261.237C302.839 261.018 302.525 260.977 302.306 261.145L302.611 261.542L302.915 261.938ZM306.645 256.806C306.477 257.025 306.518 257.339 306.737 257.507C306.956 257.676 307.27 257.634 307.438 257.415L307.042 257.111L306.645 256.806ZM310.641 251.878C310.747 251.623 310.625 251.331 310.37 251.225C310.115 251.119 309.823 251.24 309.717 251.495L310.179 251.687L310.641 251.878ZM311.301 245.57C311.266 245.844 311.459 246.095 311.732 246.13C312.006 246.166 312.257 245.973 312.293 245.699L311.797 245.635L311.301 245.57ZM312.5 239.333C312.5 239.057 312.276 238.833 312 238.833C311.724 238.833 311.5 239.057 311.5 239.333H312H312.5ZM311.5 233C311.5 233.276 311.724 233.5 312 233.5C312.276 233.5 312.5 233.276 312.5 233H312H311.5ZM312.5 226.667C312.5 226.391 312.276 226.167 312 226.167C311.724 226.167 311.5 226.391 311.5 226.667H312H312.5ZM311.5 220.333C311.5 220.609 311.724 220.833 312 220.833C312.276 220.833 312.5 220.609 312.5 220.333H312H311.5ZM213.5 316H214V310.333H213.5H213V316H213.5ZM213.5 304.667H214V299H213.5H213V304.667H213.5ZM213.5 293.333H214V290.5H213.5H213V293.333H213.5ZM213.5 290.5H214C214 289.459 214.068 288.435 214.199 287.43L213.703 287.365L213.207 287.301C213.07 288.348 213 289.416 213 290.5H213.5ZM215.321 281.313L215.783 281.505C216.575 279.594 217.612 277.811 218.855 276.194L218.458 275.889L218.062 275.585C216.767 277.27 215.685 279.13 214.859 281.122L215.321 281.313ZM222.889 271.458L223.194 271.855C224.811 270.612 226.594 269.575 228.505 268.783L228.313 268.321L228.122 267.859C226.13 268.685 224.27 269.767 222.585 271.062L222.889 271.458ZM234.365 266.703L234.43 267.199C235.435 267.068 236.459 267 237.5 267V266.5V266C236.416 266 235.348 266.07 234.301 266.207L234.365 266.703ZM237.5 266.5V267H240.656V266.5V266H237.5V266.5ZM246.969 266.5V267H253.281V266.5V266H246.969V266.5ZM259.594 266.5V267H265.906V266.5V266H259.594V266.5ZM272.219 266.5V267H278.531V266.5V266H272.219V266.5ZM284.844 266.5V267H288V266.5V266H284.844V266.5ZM288 266.5V267C289.084 267 290.152 266.93 291.199 266.793L291.135 266.297L291.07 265.801C290.065 265.932 289.041 266 288 266V266.5ZM297.187 264.679L297.378 265.141C299.37 264.315 301.23 263.233 302.915 261.938L302.611 261.542L302.306 261.145C300.689 262.388 298.906 263.425 296.995 264.217L297.187 264.679ZM307.042 257.111L307.438 257.415C308.733 255.73 309.815 253.87 310.641 251.878L310.179 251.687L309.717 251.495C308.925 253.406 307.888 255.189 306.645 256.806L307.042 257.111ZM311.797 245.635L312.293 245.699C312.43 244.652 312.5 243.584 312.5 242.5H312H311.5C311.5 243.541 311.432 244.565 311.301 245.57L311.797 245.635ZM312 242.5H312.5V239.333H312H311.5V242.5H312ZM312 233H312.5V226.667H312H311.5V233H312ZM312 220.333H312.5V214H312H311.5V220.333H312Z" fill="#4268FF"/>
</svg>
