<svg width="1014" height="294" viewBox="0 0 1014 294" fill="none" xmlns="http://www.w3.org/2000/svg" xmlns:xlink="http://www.w3.org/1999/xlink">
<rect width="1014" height="294" rx="24" fill="#FAFAFA"/>
<rect width="1014" height="294" rx="24" fill="url(#pattern0_3063_6955)" fill-opacity="0.02"/>
<g filter="url(#filter0_d_3063_6955)">
<rect x="293" y="29" width="427" height="236" rx="22.0629" fill="white" shape-rendering="crispEdges"/>
<rect x="293.46" y="29.4596" width="426.081" height="235.081" rx="21.6033" stroke="#0C1021" stroke-opacity="0.05" stroke-width="0.919289" shape-rendering="crispEdges"/>
<path d="M358.572 59.2H361.488L367.596 76H364.956L363.792 72.808H356.268L355.116 76H352.464L358.572 59.2ZM357.192 70.312H362.868L360.024 62.512L357.192 70.312ZM370.085 76V59.2H372.581V76H370.085ZM387.573 76.312C386.653 76.312 385.769 76.168 384.921 75.88C384.073 75.592 383.333 75.18 382.701 74.644C382.069 74.1 381.617 73.456 381.345 72.712L383.685 71.836C383.821 72.22 384.081 72.564 384.465 72.868C384.857 73.164 385.321 73.396 385.857 73.564C386.401 73.732 386.973 73.816 387.573 73.816C388.213 73.816 388.813 73.712 389.373 73.504C389.941 73.296 390.397 73.008 390.741 72.64C391.093 72.272 391.269 71.84 391.269 71.344C391.269 70.832 391.085 70.412 390.717 70.084C390.357 69.756 389.893 69.496 389.325 69.304C388.765 69.112 388.181 68.968 387.573 68.872C386.397 68.68 385.341 68.4 384.405 68.032C383.477 67.664 382.741 67.148 382.197 66.484C381.661 65.82 381.393 64.956 381.393 63.892C381.393 62.892 381.677 62.02 382.245 61.276C382.821 60.532 383.577 59.956 384.513 59.548C385.457 59.132 386.477 58.924 387.573 58.924C388.477 58.924 389.349 59.068 390.189 59.356C391.037 59.636 391.781 60.048 392.421 60.592C393.069 61.128 393.533 61.78 393.813 62.548L391.449 63.4C391.313 63.008 391.053 62.668 390.669 62.38C390.285 62.084 389.821 61.852 389.277 61.684C388.741 61.516 388.173 61.432 387.573 61.432C386.933 61.424 386.333 61.528 385.773 61.744C385.221 61.952 384.769 62.24 384.417 62.608C384.065 62.976 383.889 63.404 383.889 63.892C383.889 64.492 384.053 64.948 384.381 65.26C384.709 65.572 385.149 65.804 385.701 65.956C386.261 66.1 386.885 66.232 387.573 66.352C388.677 66.528 389.697 66.82 390.633 67.228C391.577 67.636 392.333 68.18 392.901 68.86C393.477 69.532 393.765 70.36 393.765 71.344C393.765 72.336 393.477 73.208 392.901 73.96C392.333 74.704 391.577 75.284 390.633 75.7C389.697 76.108 388.677 76.312 387.573 76.312ZM403.867 64H406.531L399.955 82H397.303L399.475 76L395.167 64H397.891L400.723 72.58L403.867 64ZM411.927 76.228C411.295 76.188 410.679 76.06 410.079 75.844C409.479 75.628 408.951 75.336 408.495 74.968C408.047 74.592 407.711 74.152 407.487 73.648L409.611 72.736C409.715 72.952 409.895 73.164 410.151 73.372C410.415 73.58 410.723 73.752 411.075 73.888C411.427 74.016 411.795 74.08 412.179 74.08C412.555 74.08 412.903 74.028 413.223 73.924C413.551 73.812 413.819 73.644 414.027 73.42C414.235 73.196 414.339 72.928 414.339 72.616C414.339 72.264 414.219 71.992 413.979 71.8C413.747 71.6 413.455 71.448 413.103 71.344C412.751 71.24 412.399 71.14 412.047 71.044C411.263 70.868 410.543 70.628 409.887 70.324C409.239 70.012 408.723 69.616 408.339 69.136C407.955 68.648 407.763 68.052 407.763 67.348C407.763 66.58 407.971 65.916 408.387 65.356C408.803 64.788 409.347 64.352 410.019 64.048C410.699 63.744 411.423 63.592 412.191 63.592C413.151 63.592 414.031 63.796 414.831 64.204C415.631 64.612 416.243 65.172 416.667 65.884L414.687 67.06C414.567 66.82 414.387 66.604 414.147 66.412C413.907 66.22 413.635 66.068 413.331 65.956C413.027 65.836 412.711 65.768 412.383 65.752C411.975 65.736 411.595 65.784 411.243 65.896C410.899 66 410.623 66.168 410.415 66.4C410.207 66.632 410.103 66.928 410.103 67.288C410.103 67.64 410.227 67.904 410.475 68.08C410.723 68.248 411.035 68.384 411.411 68.488C411.795 68.592 412.187 68.708 412.587 68.836C413.299 69.06 413.967 69.336 414.591 69.664C415.215 69.984 415.719 70.38 416.103 70.852C416.487 71.324 416.671 71.9 416.655 72.58C416.655 73.332 416.427 73.992 415.971 74.56C415.523 75.128 414.939 75.56 414.219 75.856C413.499 76.152 412.735 76.276 411.927 76.228ZM425.046 66.496H422.526L422.514 76H420.018L420.03 66.496H418.122V64H420.03L420.018 60.232H422.514L422.526 64H425.046V66.496ZM432.193 76.312C431.089 76.312 430.081 76.028 429.169 75.46C428.265 74.892 427.541 74.132 426.997 73.18C426.461 72.22 426.193 71.16 426.193 70C426.193 69.12 426.349 68.3 426.661 67.54C426.973 66.772 427.401 66.1 427.945 65.524C428.497 64.94 429.137 64.484 429.865 64.156C430.593 63.828 431.369 63.664 432.193 63.664C433.113 63.664 433.957 63.856 434.725 64.24C435.493 64.616 436.149 65.14 436.693 65.812C437.237 66.476 437.637 67.244 437.893 68.116C438.149 68.98 438.225 69.9 438.121 70.876H428.869C428.973 71.428 429.173 71.928 429.469 72.376C429.773 72.816 430.157 73.164 430.621 73.42C431.093 73.676 431.617 73.808 432.193 73.816C432.801 73.816 433.353 73.664 433.849 73.36C434.353 73.056 434.765 72.636 435.085 72.1L437.617 72.688C437.137 73.752 436.413 74.624 435.445 75.304C434.477 75.976 433.393 76.312 432.193 76.312ZM428.785 68.968H435.601C435.521 68.392 435.317 67.872 434.989 67.408C434.669 66.936 434.265 66.564 433.777 66.292C433.297 66.012 432.769 65.872 432.193 65.872C431.625 65.872 431.097 66.008 430.609 66.28C430.129 66.552 429.729 66.924 429.409 67.396C429.097 67.86 428.889 68.384 428.785 68.968ZM440.108 76V64H442.604V65.272C443.02 64.776 443.528 64.384 444.128 64.096C444.736 63.808 445.392 63.664 446.096 63.664C446.952 63.664 447.74 63.872 448.46 64.288C449.18 64.696 449.752 65.24 450.176 65.92C450.6 65.24 451.164 64.696 451.868 64.288C452.58 63.872 453.364 63.664 454.22 63.664C455.108 63.664 455.916 63.88 456.644 64.312C457.372 64.744 457.952 65.324 458.384 66.052C458.816 66.78 459.032 67.588 459.032 68.476V76H456.536V69.112C456.536 68.584 456.408 68.1 456.152 67.66C455.896 67.22 455.552 66.864 455.12 66.592C454.688 66.32 454.208 66.184 453.68 66.184C453.152 66.184 452.672 66.312 452.24 66.568C451.808 66.824 451.464 67.172 451.208 67.612C450.952 68.052 450.824 68.552 450.824 69.112V76H448.328V69.112C448.328 68.552 448.2 68.052 447.944 67.612C447.688 67.172 447.34 66.824 446.9 66.568C446.468 66.312 445.988 66.184 445.46 66.184C444.94 66.184 444.46 66.32 444.02 66.592C443.588 66.864 443.244 67.22 442.988 67.66C442.732 68.1 442.604 68.584 442.604 69.112V76H440.108Z" fill="#0C1021"/>
<rect x="317.5" y="106.5" width="176.5" height="40" rx="20" stroke="#0C1021" stroke-opacity="0.1"/>
<path d="M396.62 131.182C395.957 131.182 395.334 131.051 394.751 130.79C394.168 130.524 393.654 130.16 393.211 129.698C392.772 129.231 392.427 128.69 392.175 128.074C391.928 127.458 391.804 126.8 391.804 126.1C391.804 125.4 391.928 124.742 392.175 124.126C392.427 123.51 392.772 122.971 393.211 122.509C393.654 122.042 394.168 121.678 394.751 121.417C395.334 121.151 395.957 121.018 396.62 121.018C397.413 121.018 398.144 121.202 398.811 121.571C399.478 121.94 400.031 122.43 400.47 123.041L399.602 123.51C399.257 123.048 398.818 122.682 398.286 122.411C397.759 122.136 397.203 121.998 396.62 121.998C396.083 121.998 395.582 122.108 395.115 122.327C394.653 122.542 394.247 122.838 393.897 123.216C393.547 123.594 393.274 124.03 393.078 124.525C392.882 125.02 392.784 125.545 392.784 126.1C392.784 126.665 392.882 127.194 393.078 127.689C393.279 128.184 393.554 128.62 393.904 128.998C394.259 129.376 394.667 129.672 395.129 129.887C395.596 130.097 396.093 130.202 396.62 130.202C397.227 130.202 397.789 130.064 398.307 129.789C398.83 129.509 399.261 129.145 399.602 128.697L400.47 129.166C400.031 129.777 399.478 130.267 398.811 130.636C398.144 131 397.413 131.182 396.62 131.182ZM407.272 124H408.252V131H407.272L407.237 129.698C407.008 130.141 406.688 130.501 406.278 130.776C405.867 131.047 405.377 131.182 404.808 131.182C404.294 131.182 403.814 131.086 403.366 130.895C402.918 130.699 402.523 130.431 402.183 130.09C401.842 129.749 401.576 129.355 401.385 128.907C401.193 128.459 401.098 127.978 401.098 127.465C401.098 126.961 401.191 126.487 401.378 126.044C401.569 125.601 401.83 125.211 402.162 124.875C402.498 124.539 402.885 124.278 403.324 124.091C403.767 123.9 404.241 123.804 404.745 123.804C405.328 123.804 405.837 123.944 406.271 124.224C406.705 124.499 407.05 124.861 407.307 125.309L407.272 124ZM404.787 130.23C405.286 130.23 405.715 130.109 406.075 129.866C406.434 129.619 406.709 129.287 406.901 128.872C407.097 128.457 407.195 127.999 407.195 127.5C407.195 126.987 407.097 126.525 406.901 126.114C406.705 125.699 406.427 125.37 406.068 125.127C405.708 124.884 405.281 124.763 404.787 124.763C404.292 124.763 403.839 124.887 403.429 125.134C403.023 125.377 402.698 125.706 402.456 126.121C402.218 126.536 402.099 126.996 402.099 127.5C402.099 128.009 402.222 128.471 402.47 128.886C402.717 129.297 403.044 129.623 403.45 129.866C403.86 130.109 404.306 130.23 404.787 130.23ZM409.748 131V120.5H410.728V131H409.748ZM412.414 131V120.5H413.394V131H412.414ZM417.243 131.133C416.861 131.124 416.487 131.054 416.123 130.923C415.759 130.792 415.442 130.615 415.171 130.391C414.901 130.167 414.707 129.913 414.59 129.628L415.437 129.264C415.512 129.446 415.65 129.614 415.85 129.768C416.056 129.917 416.289 130.039 416.55 130.132C416.812 130.221 417.071 130.265 417.327 130.265C417.612 130.265 417.878 130.218 418.125 130.125C418.373 130.032 418.573 129.899 418.727 129.726C418.886 129.549 418.965 129.341 418.965 129.103C418.965 128.846 418.881 128.646 418.713 128.501C418.545 128.352 418.333 128.235 418.076 128.151C417.82 128.062 417.556 127.978 417.285 127.899C416.791 127.764 416.354 127.614 415.976 127.451C415.598 127.288 415.302 127.08 415.087 126.828C414.877 126.571 414.772 126.242 414.772 125.841C414.772 125.416 414.891 125.05 415.129 124.742C415.372 124.429 415.687 124.189 416.074 124.021C416.466 123.848 416.884 123.762 417.327 123.762C417.897 123.762 418.415 123.886 418.881 124.133C419.353 124.38 419.693 124.709 419.903 125.12L419.112 125.589C419.028 125.398 418.895 125.232 418.713 125.092C418.531 124.952 418.324 124.842 418.09 124.763C417.862 124.684 417.628 124.642 417.39 124.637C417.092 124.632 416.814 124.677 416.557 124.77C416.301 124.859 416.093 124.992 415.934 125.169C415.78 125.346 415.703 125.563 415.703 125.82C415.703 126.077 415.78 126.273 415.934 126.408C416.088 126.539 416.296 126.646 416.557 126.73C416.823 126.809 417.122 126.903 417.453 127.01C417.878 127.145 418.277 127.299 418.65 127.472C419.024 127.645 419.325 127.859 419.553 128.116C419.782 128.373 419.894 128.697 419.889 129.089C419.889 129.509 419.763 129.875 419.511 130.188C419.259 130.501 418.933 130.741 418.531 130.909C418.13 131.072 417.701 131.147 417.243 131.133Z" fill="#0C1021"/>
<rect x="317.5" y="153.5" width="176.5" height="40" rx="20" stroke="#0C1021" stroke-opacity="0.1"/>
<path d="M377.086 178.168L375.917 176.999C375.507 177.363 375.04 177.648 374.517 177.853C373.999 178.058 373.451 178.161 372.872 178.161C372.205 178.161 371.58 178.03 370.996 177.769C370.413 177.503 369.9 177.139 369.456 176.677C369.013 176.21 368.665 175.669 368.413 175.053C368.166 174.437 368.042 173.779 368.042 173.079C368.042 172.379 368.166 171.723 368.413 171.112C368.665 170.496 369.013 169.955 369.456 169.488C369.9 169.021 370.413 168.657 370.996 168.396C371.58 168.13 372.205 167.997 372.872 167.997C373.54 167.997 374.163 168.13 374.741 168.396C375.325 168.657 375.838 169.021 376.281 169.488C376.725 169.955 377.07 170.496 377.317 171.112C377.569 171.723 377.695 172.379 377.695 173.079C377.695 173.695 377.597 174.276 377.401 174.822C377.205 175.368 376.935 175.86 376.589 176.299L377.779 177.475L377.086 178.168ZM372.872 177.181C373.297 177.181 373.712 177.104 374.118 176.95C374.529 176.796 374.891 176.577 375.203 176.292L373.754 174.843L374.447 174.143L375.868 175.571C376.144 175.221 376.354 174.831 376.498 174.402C376.643 173.973 376.715 173.532 376.715 173.079C376.715 172.514 376.615 171.985 376.414 171.49C376.214 170.995 375.936 170.559 375.581 170.181C375.231 169.803 374.823 169.509 374.356 169.299C373.894 169.084 373.4 168.977 372.872 168.977C372.336 168.977 371.834 169.087 371.367 169.306C370.905 169.521 370.497 169.819 370.142 170.202C369.792 170.58 369.517 171.016 369.316 171.511C369.12 172.001 369.022 172.524 369.022 173.079C369.022 173.644 369.123 174.173 369.323 174.668C369.524 175.163 369.802 175.599 370.156 175.977C370.511 176.355 370.919 176.651 371.381 176.866C371.848 177.076 372.345 177.181 372.872 177.181ZM378.816 175.319V171H379.796V175.123C379.796 175.506 379.889 175.853 380.076 176.166C380.263 176.479 380.512 176.728 380.825 176.915C381.142 177.102 381.49 177.195 381.868 177.195C382.251 177.195 382.596 177.102 382.904 176.915C383.217 176.728 383.466 176.479 383.653 176.166C383.84 175.853 383.933 175.506 383.933 175.123V171H384.913L384.92 178H383.94L383.933 177.02C383.686 177.375 383.364 177.657 382.967 177.867C382.575 178.077 382.146 178.182 381.679 178.182C381.152 178.182 380.671 178.054 380.237 177.797C379.803 177.54 379.458 177.195 379.201 176.761C378.944 176.327 378.816 175.846 378.816 175.319ZM392.014 171H392.994V178H392.014L391.979 176.698C391.75 177.141 391.431 177.501 391.02 177.776C390.609 178.047 390.119 178.182 389.55 178.182C389.037 178.182 388.556 178.086 388.108 177.895C387.66 177.699 387.266 177.431 386.925 177.09C386.584 176.749 386.318 176.355 386.127 175.907C385.936 175.459 385.84 174.978 385.84 174.465C385.84 173.961 385.933 173.487 386.12 173.044C386.311 172.601 386.573 172.211 386.904 171.875C387.24 171.539 387.627 171.278 388.066 171.091C388.509 170.9 388.983 170.804 389.487 170.804C390.07 170.804 390.579 170.944 391.013 171.224C391.447 171.499 391.792 171.861 392.049 172.309L392.014 171ZM389.529 177.23C390.028 177.23 390.458 177.109 390.817 176.866C391.176 176.619 391.452 176.287 391.643 175.872C391.839 175.457 391.937 174.999 391.937 174.5C391.937 173.987 391.839 173.525 391.643 173.114C391.447 172.699 391.169 172.37 390.81 172.127C390.451 171.884 390.024 171.763 389.529 171.763C389.034 171.763 388.582 171.887 388.171 172.134C387.765 172.377 387.441 172.706 387.198 173.121C386.96 173.536 386.841 173.996 386.841 174.5C386.841 175.009 386.965 175.471 387.212 175.886C387.459 176.297 387.786 176.623 388.192 176.866C388.603 177.109 389.048 177.23 389.529 177.23ZM394.49 178V167.5H395.47V178H394.49ZM397.156 171H398.136V178H397.156V171ZM397.653 169.775C397.495 169.775 397.359 169.724 397.247 169.621C397.14 169.514 397.086 169.381 397.086 169.222C397.086 169.063 397.14 168.933 397.247 168.83C397.359 168.723 397.495 168.669 397.653 168.669C397.807 168.669 397.938 168.723 398.045 168.83C398.157 168.933 398.213 169.063 398.213 169.222C398.213 169.381 398.16 169.514 398.052 169.621C397.945 169.724 397.812 169.775 397.653 169.775ZM401.271 169.173V171H403.371V171.98H401.271V178H400.291V171.98H399.332V171H400.291V169.173C400.291 168.832 400.373 168.524 400.536 168.249C400.704 167.969 400.928 167.747 401.208 167.584C401.488 167.416 401.799 167.332 402.139 167.332C402.387 167.332 402.625 167.381 402.853 167.479C403.087 167.577 403.294 167.722 403.476 167.913L402.776 168.606C402.702 168.513 402.606 168.44 402.489 168.389C402.377 168.338 402.261 168.312 402.139 168.312C401.901 168.312 401.696 168.396 401.523 168.564C401.355 168.732 401.271 168.935 401.271 169.173ZM404.444 171H405.424V178H404.444V171ZM404.941 169.775C404.782 169.775 404.647 169.724 404.535 169.621C404.427 169.514 404.374 169.381 404.374 169.222C404.374 169.063 404.427 168.933 404.535 168.83C404.647 168.723 404.782 168.669 404.941 168.669C405.095 168.669 405.225 168.723 405.333 168.83C405.445 168.933 405.501 169.063 405.501 169.222C405.501 169.381 405.447 169.514 405.34 169.621C405.232 169.724 405.099 169.775 404.941 169.775ZM412.039 176.243L412.914 176.719C412.597 177.162 412.193 177.517 411.703 177.783C411.218 178.049 410.691 178.182 410.121 178.182C409.477 178.182 408.889 178.016 408.357 177.685C407.83 177.354 407.408 176.91 407.09 176.355C406.778 175.795 406.621 175.177 406.621 174.5C406.621 173.987 406.712 173.508 406.894 173.065C407.076 172.617 407.326 172.225 407.643 171.889C407.965 171.548 408.339 171.282 408.763 171.091C409.188 170.9 409.641 170.804 410.121 170.804C410.691 170.804 411.218 170.937 411.703 171.203C412.193 171.469 412.597 171.826 412.914 172.274L412.039 172.743C411.797 172.435 411.505 172.199 411.164 172.036C410.824 171.868 410.476 171.784 410.121 171.784C409.65 171.784 409.223 171.91 408.84 172.162C408.458 172.409 408.154 172.738 407.93 173.149C407.711 173.56 407.601 174.01 407.601 174.5C407.601 174.99 407.713 175.44 407.937 175.851C408.166 176.262 408.472 176.591 408.854 176.838C409.237 177.081 409.659 177.202 410.121 177.202C410.504 177.202 410.863 177.113 411.199 176.936C411.535 176.759 411.815 176.528 412.039 176.243ZM419.836 171H420.816V178H419.836L419.801 176.698C419.573 177.141 419.253 177.501 418.842 177.776C418.432 178.047 417.942 178.182 417.372 178.182C416.859 178.182 416.378 178.086 415.93 177.895C415.482 177.699 415.088 177.431 414.747 177.09C414.407 176.749 414.141 176.355 413.949 175.907C413.758 175.459 413.662 174.978 413.662 174.465C413.662 173.961 413.756 173.487 413.942 173.044C414.134 172.601 414.395 172.211 414.726 171.875C415.062 171.539 415.45 171.278 415.888 171.091C416.332 170.9 416.805 170.804 417.309 170.804C417.893 170.804 418.401 170.944 418.835 171.224C419.269 171.499 419.615 171.861 419.871 172.309L419.836 171ZM417.351 177.23C417.851 177.23 418.28 177.109 418.639 176.866C418.999 176.619 419.274 176.287 419.465 175.872C419.661 175.457 419.759 174.999 419.759 174.5C419.759 173.987 419.661 173.525 419.465 173.114C419.269 172.699 418.992 172.37 418.632 172.127C418.273 171.884 417.846 171.763 417.351 171.763C416.857 171.763 416.404 171.887 415.993 172.134C415.587 172.377 415.263 172.706 415.02 173.121C414.782 173.536 414.663 173.996 414.663 174.5C414.663 175.009 414.787 175.471 415.034 175.886C415.282 176.297 415.608 176.623 416.014 176.866C416.425 177.109 416.871 177.23 417.351 177.23ZM425.794 171.98H424.121L424.114 178H423.134L423.141 171.98H421.874V171H423.141L423.134 168.802H424.114L424.121 171H425.794V171.98ZM426.988 171H427.968V178H426.988V171ZM427.485 169.775C427.327 169.775 427.191 169.724 427.079 169.621C426.972 169.514 426.918 169.381 426.918 169.222C426.918 169.063 426.972 168.933 427.079 168.83C427.191 168.723 427.327 168.669 427.485 168.669C427.639 168.669 427.77 168.723 427.877 168.83C427.989 168.933 428.045 169.063 428.045 169.222C428.045 169.381 427.992 169.514 427.884 169.621C427.777 169.724 427.644 169.775 427.485 169.775ZM432.666 178.182C432.022 178.182 431.434 178.016 430.902 177.685C430.375 177.354 429.952 176.91 429.635 176.355C429.322 175.795 429.166 175.177 429.166 174.5C429.166 173.987 429.257 173.508 429.439 173.065C429.621 172.617 429.871 172.225 430.188 171.889C430.51 171.548 430.883 171.282 431.308 171.091C431.733 170.9 432.185 170.804 432.666 170.804C433.31 170.804 433.896 170.97 434.423 171.301C434.955 171.632 435.377 172.078 435.69 172.638C436.007 173.198 436.166 173.819 436.166 174.5C436.166 175.009 436.075 175.485 435.893 175.928C435.711 176.371 435.459 176.763 435.137 177.104C434.82 177.44 434.449 177.704 434.024 177.895C433.604 178.086 433.151 178.182 432.666 178.182ZM432.666 177.202C433.142 177.202 433.569 177.078 433.947 176.831C434.33 176.579 434.631 176.248 434.85 175.837C435.074 175.426 435.186 174.981 435.186 174.5C435.186 174.01 435.074 173.56 434.85 173.149C434.626 172.734 434.323 172.402 433.94 172.155C433.562 171.908 433.137 171.784 432.666 171.784C432.19 171.784 431.761 171.91 431.378 172.162C431 172.409 430.699 172.738 430.475 173.149C430.256 173.56 430.146 174.01 430.146 174.5C430.146 175.004 430.26 175.461 430.489 175.872C430.718 176.278 431.023 176.602 431.406 176.845C431.789 177.083 432.209 177.202 432.666 177.202ZM443.456 173.667V178H442.476V173.863C442.476 173.48 442.382 173.133 442.196 172.82C442.009 172.507 441.759 172.258 441.447 172.071C441.134 171.884 440.786 171.791 440.404 171.791C440.026 171.791 439.678 171.884 439.361 172.071C439.048 172.258 438.798 172.507 438.612 172.82C438.425 173.133 438.332 173.48 438.332 173.863V178H437.352V171H438.332V171.966C438.579 171.611 438.901 171.329 439.298 171.119C439.694 170.909 440.126 170.804 440.593 170.804C441.12 170.804 441.601 170.932 442.035 171.189C442.469 171.446 442.814 171.791 443.071 172.225C443.327 172.659 443.456 173.14 443.456 173.667Z" fill="#0C1021"/>
<rect x="317.5" y="200.5" width="176.5" height="40" rx="20" stroke="#0C1021" stroke-opacity="0.1"/>
<path d="M376.421 225.182C375.899 225.182 375.392 225.1 374.902 224.937C374.417 224.774 373.992 224.54 373.628 224.237C373.264 223.934 373.008 223.572 372.858 223.152L373.775 222.809C373.878 223.098 374.065 223.348 374.335 223.558C374.611 223.763 374.93 223.922 375.294 224.034C375.663 224.146 376.039 224.202 376.421 224.202C376.869 224.202 377.287 224.127 377.674 223.978C378.062 223.829 378.374 223.621 378.612 223.355C378.85 223.084 378.969 222.767 378.969 222.403C378.969 222.034 378.846 221.731 378.598 221.493C378.351 221.255 378.031 221.068 377.639 220.933C377.252 220.793 376.846 220.686 376.421 220.611C375.754 220.494 375.154 220.336 374.622 220.135C374.095 219.934 373.677 219.652 373.369 219.288C373.061 218.919 372.907 218.434 372.907 217.832C372.907 217.267 373.071 216.777 373.397 216.362C373.724 215.947 374.153 215.625 374.685 215.396C375.222 215.167 375.801 215.053 376.421 215.053C376.93 215.053 377.427 215.132 377.912 215.291C378.398 215.45 378.825 215.681 379.193 215.984C379.567 216.287 379.835 216.658 379.998 217.097L379.067 217.433C378.965 217.139 378.776 216.889 378.5 216.684C378.23 216.474 377.912 216.315 377.548 216.208C377.184 216.096 376.809 216.04 376.421 216.04C375.978 216.035 375.563 216.11 375.175 216.264C374.793 216.413 374.482 216.623 374.244 216.894C374.006 217.16 373.887 217.473 373.887 217.832C373.887 218.252 373.997 218.576 374.216 218.805C374.44 219.029 374.744 219.197 375.126 219.309C375.509 219.421 375.941 219.521 376.421 219.61C377.047 219.717 377.628 219.885 378.164 220.114C378.701 220.338 379.133 220.639 379.459 221.017C379.786 221.39 379.949 221.852 379.949 222.403C379.949 222.963 379.786 223.453 379.459 223.873C379.133 224.288 378.701 224.61 378.164 224.839C377.632 225.068 377.051 225.182 376.421 225.182ZM386.445 223.243L387.32 223.719C387.003 224.162 386.599 224.517 386.109 224.783C385.624 225.049 385.097 225.182 384.527 225.182C383.883 225.182 383.295 225.016 382.763 224.685C382.236 224.354 381.814 223.91 381.496 223.355C381.184 222.795 381.027 222.177 381.027 221.5C381.027 220.987 381.118 220.508 381.3 220.065C381.482 219.617 381.732 219.225 382.049 218.889C382.371 218.548 382.745 218.282 383.169 218.091C383.594 217.9 384.047 217.804 384.527 217.804C385.097 217.804 385.624 217.937 386.109 218.203C386.599 218.469 387.003 218.826 387.32 219.274L386.445 219.743C386.203 219.435 385.911 219.199 385.57 219.036C385.23 218.868 384.882 218.784 384.527 218.784C384.056 218.784 383.629 218.91 383.246 219.162C382.864 219.409 382.56 219.738 382.336 220.149C382.117 220.56 382.007 221.01 382.007 221.5C382.007 221.99 382.119 222.44 382.343 222.851C382.572 223.262 382.878 223.591 383.26 223.838C383.643 224.081 384.065 224.202 384.527 224.202C384.91 224.202 385.269 224.113 385.605 223.936C385.941 223.759 386.221 223.528 386.445 223.243ZM394.592 220.667V225H393.612V220.863C393.612 220.48 393.519 220.133 393.332 219.82C393.146 219.507 392.896 219.258 392.583 219.071C392.271 218.884 391.923 218.791 391.54 218.791C391.162 218.791 390.815 218.884 390.497 219.071C390.185 219.258 389.935 219.507 389.748 219.82C389.562 220.133 389.468 220.48 389.468 220.863V225H388.488V214.5H389.468V218.966C389.716 218.611 390.038 218.329 390.434 218.119C390.831 217.909 391.263 217.804 391.729 217.804C392.257 217.804 392.737 217.932 393.171 218.189C393.605 218.446 393.951 218.791 394.207 219.225C394.464 219.659 394.592 220.14 394.592 220.667ZM398.938 225.182C398.294 225.182 397.706 225.016 397.174 224.685C396.646 224.354 396.224 223.91 395.907 223.355C395.594 222.795 395.438 222.177 395.438 221.5C395.438 220.987 395.529 220.508 395.711 220.065C395.893 219.617 396.142 219.225 396.46 218.889C396.782 218.548 397.155 218.282 397.58 218.091C398.004 217.9 398.457 217.804 398.938 217.804C399.456 217.804 399.932 217.907 400.366 218.112C400.804 218.317 401.18 218.604 401.493 218.973C401.81 219.342 402.048 219.773 402.207 220.268C402.37 220.763 402.438 221.297 402.41 221.871H396.474C396.53 222.314 396.67 222.711 396.894 223.061C397.122 223.411 397.412 223.689 397.762 223.894C398.116 224.095 398.508 224.197 398.938 224.202C399.404 224.202 399.824 224.081 400.198 223.838C400.576 223.595 400.879 223.262 401.108 222.837L402.102 223.068C401.822 223.689 401.399 224.197 400.835 224.594C400.27 224.986 399.638 225.182 398.938 225.182ZM396.446 221.08H401.423C401.39 220.646 401.257 220.249 401.024 219.89C400.795 219.526 400.499 219.237 400.135 219.022C399.771 218.803 399.372 218.693 398.938 218.693C398.504 218.693 398.107 218.8 397.748 219.015C397.388 219.225 397.094 219.512 396.866 219.876C396.637 220.235 396.497 220.637 396.446 221.08ZM409.302 214.5H410.282V225H409.302V223.691C409.06 224.139 408.726 224.501 408.301 224.776C407.881 225.047 407.382 225.182 406.803 225.182C406.295 225.182 405.819 225.086 405.375 224.895C404.932 224.704 404.54 224.44 404.199 224.104C403.863 223.763 403.6 223.371 403.408 222.928C403.217 222.485 403.121 222.009 403.121 221.5C403.121 220.991 403.217 220.515 403.408 220.072C403.6 219.624 403.863 219.232 404.199 218.896C404.54 218.555 404.932 218.289 405.375 218.098C405.819 217.907 406.295 217.811 406.803 217.811C407.382 217.811 407.881 217.949 408.301 218.224C408.726 218.495 409.06 218.852 409.302 219.295V214.5ZM406.81 224.23C407.31 224.23 407.739 224.109 408.098 223.866C408.458 223.619 408.733 223.287 408.924 222.872C409.12 222.457 409.218 221.999 409.218 221.5C409.218 220.987 409.12 220.525 408.924 220.114C408.728 219.699 408.451 219.37 408.091 219.127C407.732 218.884 407.305 218.763 406.81 218.763C406.316 218.763 405.865 218.887 405.459 219.134C405.053 219.377 404.729 219.706 404.486 220.121C404.244 220.536 404.122 220.996 404.122 221.5C404.122 222.009 404.246 222.471 404.493 222.886C404.741 223.297 405.067 223.623 405.473 223.866C405.884 224.109 406.33 224.23 406.81 224.23ZM411.683 222.319V218H412.663V222.123C412.663 222.506 412.756 222.853 412.943 223.166C413.13 223.479 413.379 223.728 413.692 223.915C414.009 224.102 414.357 224.195 414.735 224.195C415.118 224.195 415.463 224.102 415.771 223.915C416.084 223.728 416.333 223.479 416.52 223.166C416.707 222.853 416.8 222.506 416.8 222.123V218H417.78L417.787 225H416.807L416.8 224.02C416.553 224.375 416.231 224.657 415.834 224.867C415.442 225.077 415.013 225.182 414.546 225.182C414.019 225.182 413.538 225.054 413.104 224.797C412.67 224.54 412.325 224.195 412.068 223.761C411.811 223.327 411.683 222.846 411.683 222.319ZM419.278 225V214.5H420.258V225H419.278ZM421.944 218H422.924V225H421.944V218ZM422.441 216.775C422.282 216.775 422.147 216.724 422.035 216.621C421.927 216.514 421.874 216.381 421.874 216.222C421.874 216.063 421.927 215.933 422.035 215.83C422.147 215.723 422.282 215.669 422.441 215.669C422.595 215.669 422.725 215.723 422.833 215.83C422.945 215.933 423.001 216.063 423.001 216.222C423.001 216.381 422.947 216.514 422.84 216.621C422.732 216.724 422.599 216.775 422.441 216.775ZM430.686 220.667V225H429.706V220.863C429.706 220.48 429.613 220.133 429.426 219.82C429.24 219.507 428.99 219.258 428.677 219.071C428.365 218.884 428.017 218.791 427.634 218.791C427.256 218.791 426.909 218.884 426.591 219.071C426.279 219.258 426.029 219.507 425.842 219.82C425.656 220.133 425.562 220.48 425.562 220.863V225H424.582V218H425.562V218.966C425.81 218.611 426.132 218.329 426.528 218.119C426.925 217.909 427.357 217.804 427.823 217.804C428.351 217.804 428.831 217.932 429.265 218.189C429.699 218.446 430.045 218.791 430.301 219.225C430.558 219.659 430.686 220.14 430.686 220.667ZM437.516 218H438.496V225.259C438.496 225.707 438.398 226.127 438.202 226.519C438.011 226.911 437.75 227.254 437.418 227.548C437.092 227.847 436.718 228.08 436.298 228.248C435.878 228.416 435.442 228.5 434.989 228.5C434.504 228.5 434.035 228.388 433.582 228.164C433.13 227.945 432.735 227.651 432.399 227.282C432.068 226.913 431.832 226.505 431.692 226.057L432.595 225.644C432.684 225.994 432.85 226.309 433.092 226.589C433.34 226.874 433.629 227.098 433.96 227.261C434.296 227.429 434.639 227.513 434.989 227.513C435.311 227.513 435.622 227.452 435.92 227.331C436.224 227.214 436.494 227.053 436.732 226.848C436.975 226.643 437.166 226.402 437.306 226.127C437.446 225.856 437.516 225.567 437.516 225.259V223.712C437.274 224.151 436.945 224.505 436.529 224.776C436.119 225.047 435.64 225.182 435.094 225.182C434.604 225.182 434.142 225.086 433.708 224.895C433.279 224.704 432.901 224.44 432.574 224.104C432.248 223.763 431.991 223.371 431.804 222.928C431.622 222.485 431.531 222.009 431.531 221.5C431.531 220.991 431.622 220.515 431.804 220.072C431.991 219.624 432.248 219.232 432.574 218.896C432.901 218.555 433.279 218.289 433.708 218.098C434.142 217.907 434.604 217.811 435.094 217.811C435.64 217.811 436.119 217.946 436.529 218.217C436.945 218.483 437.274 218.838 437.516 219.281V218ZM435.101 224.23C435.587 224.23 436.004 224.104 436.354 223.852C436.709 223.6 436.982 223.266 437.173 222.851C437.365 222.436 437.46 221.985 437.46 221.5C437.46 221.001 437.362 220.546 437.166 220.135C436.975 219.72 436.702 219.388 436.347 219.141C435.993 218.889 435.577 218.763 435.101 218.763C434.625 218.763 434.191 218.887 433.799 219.134C433.412 219.377 433.104 219.706 432.875 220.121C432.647 220.536 432.532 220.996 432.532 221.5C432.532 222.004 432.649 222.464 432.882 222.879C433.116 223.29 433.426 223.619 433.813 223.866C434.205 224.109 434.635 224.23 435.101 224.23Z" fill="#0C1021"/>
<path d="M551.936 76.312C551.016 76.312 550.132 76.168 549.284 75.88C548.436 75.592 547.696 75.18 547.064 74.644C546.432 74.1 545.98 73.456 545.708 72.712L548.048 71.836C548.184 72.22 548.444 72.564 548.828 72.868C549.22 73.164 549.684 73.396 550.22 73.564C550.764 73.732 551.336 73.816 551.936 73.816C552.576 73.816 553.176 73.712 553.736 73.504C554.304 73.296 554.76 73.008 555.104 72.64C555.456 72.272 555.632 71.84 555.632 71.344C555.632 70.832 555.448 70.412 555.08 70.084C554.72 69.756 554.256 69.496 553.688 69.304C553.128 69.112 552.544 68.968 551.936 68.872C550.76 68.68 549.704 68.4 548.768 68.032C547.84 67.664 547.104 67.148 546.56 66.484C546.024 65.82 545.756 64.956 545.756 63.892C545.756 62.892 546.04 62.02 546.608 61.276C547.184 60.532 547.94 59.956 548.876 59.548C549.82 59.132 550.84 58.924 551.936 58.924C552.84 58.924 553.712 59.068 554.552 59.356C555.4 59.636 556.144 60.048 556.784 60.592C557.432 61.128 557.896 61.78 558.176 62.548L555.812 63.4C555.676 63.008 555.416 62.668 555.032 62.38C554.648 62.084 554.184 61.852 553.64 61.684C553.104 61.516 552.536 61.432 551.936 61.432C551.296 61.424 550.696 61.528 550.136 61.744C549.584 61.952 549.132 62.24 548.78 62.608C548.428 62.976 548.252 63.404 548.252 63.892C548.252 64.492 548.416 64.948 548.744 65.26C549.072 65.572 549.512 65.804 550.064 65.956C550.624 66.1 551.248 66.232 551.936 66.352C553.04 66.528 554.06 66.82 554.996 67.228C555.94 67.636 556.696 68.18 557.264 68.86C557.84 69.532 558.128 70.36 558.128 71.344C558.128 72.336 557.84 73.208 557.264 73.96C556.696 74.704 555.94 75.284 554.996 75.7C554.06 76.108 553.04 76.312 551.936 76.312ZM569.862 64H572.358V76H569.85L569.754 74.26C569.402 74.876 568.926 75.372 568.326 75.748C567.726 76.124 567.018 76.312 566.202 76.312C565.322 76.312 564.494 76.148 563.718 75.82C562.942 75.484 562.258 75.02 561.666 74.428C561.082 73.836 560.626 73.156 560.298 72.388C559.97 71.612 559.806 70.78 559.806 69.892C559.806 69.036 559.966 68.232 560.286 67.48C560.606 66.72 561.05 66.056 561.618 65.488C562.186 64.92 562.842 64.476 563.586 64.156C564.338 63.828 565.142 63.664 565.998 63.664C566.87 63.664 567.638 63.864 568.302 64.264C568.974 64.656 569.53 65.16 569.97 65.776L569.862 64ZM566.142 73.9C566.846 73.9 567.462 73.728 567.99 73.384C568.518 73.032 568.926 72.56 569.214 71.968C569.51 71.376 569.658 70.72 569.658 70C569.658 69.272 569.51 68.612 569.214 68.02C568.918 67.428 568.506 66.96 567.978 66.616C567.458 66.264 566.846 66.088 566.142 66.088C565.446 66.088 564.81 66.264 564.234 66.616C563.658 66.968 563.202 67.44 562.866 68.032C562.53 68.624 562.362 69.28 562.362 70C562.362 70.728 562.534 71.388 562.878 71.98C563.23 72.564 563.69 73.032 564.258 73.384C564.834 73.728 565.462 73.9 566.142 73.9ZM574.846 76V58H577.342V76H574.846ZM585.329 76.312C584.225 76.312 583.217 76.028 582.305 75.46C581.401 74.892 580.677 74.132 580.133 73.18C579.597 72.22 579.329 71.16 579.329 70C579.329 69.12 579.485 68.3 579.797 67.54C580.109 66.772 580.537 66.1 581.081 65.524C581.633 64.94 582.273 64.484 583.001 64.156C583.729 63.828 584.505 63.664 585.329 63.664C586.249 63.664 587.093 63.856 587.861 64.24C588.629 64.616 589.285 65.14 589.829 65.812C590.373 66.476 590.773 67.244 591.029 68.116C591.285 68.98 591.361 69.9 591.257 70.876H582.005C582.109 71.428 582.309 71.928 582.605 72.376C582.909 72.816 583.293 73.164 583.757 73.42C584.229 73.676 584.753 73.808 585.329 73.816C585.937 73.816 586.489 73.664 586.985 73.36C587.489 73.056 587.901 72.636 588.221 72.1L590.753 72.688C590.273 73.752 589.549 74.624 588.581 75.304C587.613 75.976 586.529 76.312 585.329 76.312ZM581.921 68.968H588.737C588.657 68.392 588.453 67.872 588.125 67.408C587.805 66.936 587.401 66.564 586.913 66.292C586.433 66.012 585.905 65.872 585.329 65.872C584.761 65.872 584.233 66.008 583.745 66.28C583.265 66.552 582.865 66.924 582.545 67.396C582.233 67.86 582.025 68.384 581.921 68.968ZM596.892 76.228C596.26 76.188 595.644 76.06 595.044 75.844C594.444 75.628 593.916 75.336 593.46 74.968C593.012 74.592 592.676 74.152 592.452 73.648L594.576 72.736C594.68 72.952 594.86 73.164 595.116 73.372C595.38 73.58 595.688 73.752 596.04 73.888C596.392 74.016 596.76 74.08 597.144 74.08C597.52 74.08 597.868 74.028 598.188 73.924C598.516 73.812 598.784 73.644 598.992 73.42C599.2 73.196 599.304 72.928 599.304 72.616C599.304 72.264 599.184 71.992 598.944 71.8C598.712 71.6 598.42 71.448 598.068 71.344C597.716 71.24 597.364 71.14 597.012 71.044C596.228 70.868 595.508 70.628 594.852 70.324C594.204 70.012 593.688 69.616 593.304 69.136C592.92 68.648 592.728 68.052 592.728 67.348C592.728 66.58 592.936 65.916 593.352 65.356C593.768 64.788 594.312 64.352 594.984 64.048C595.664 63.744 596.388 63.592 597.156 63.592C598.116 63.592 598.996 63.796 599.796 64.204C600.596 64.612 601.208 65.172 601.632 65.884L599.652 67.06C599.532 66.82 599.352 66.604 599.112 66.412C598.872 66.22 598.6 66.068 598.296 65.956C597.992 65.836 597.676 65.768 597.348 65.752C596.94 65.736 596.56 65.784 596.208 65.896C595.864 66 595.588 66.168 595.38 66.4C595.172 66.632 595.068 66.928 595.068 67.288C595.068 67.64 595.192 67.904 595.44 68.08C595.688 68.248 596 68.384 596.376 68.488C596.76 68.592 597.152 68.708 597.552 68.836C598.264 69.06 598.932 69.336 599.556 69.664C600.18 69.984 600.684 70.38 601.068 70.852C601.452 71.324 601.636 71.9 601.62 72.58C601.62 73.332 601.392 73.992 600.936 74.56C600.488 75.128 599.904 75.56 599.184 75.856C598.464 76.152 597.7 76.276 596.892 76.228ZM622.148 59.2V61.696H616.796V76H614.3V61.696H608.96V59.2H622.148ZM627.986 76.312C626.882 76.312 625.874 76.028 624.962 75.46C624.058 74.892 623.334 74.132 622.79 73.18C622.254 72.22 621.986 71.16 621.986 70C621.986 69.12 622.142 68.3 622.454 67.54C622.766 66.772 623.194 66.1 623.738 65.524C624.29 64.94 624.93 64.484 625.658 64.156C626.386 63.828 627.162 63.664 627.986 63.664C628.906 63.664 629.75 63.856 630.518 64.24C631.286 64.616 631.942 65.14 632.486 65.812C633.03 66.476 633.43 67.244 633.686 68.116C633.942 68.98 634.018 69.9 633.914 70.876H624.662C624.766 71.428 624.966 71.928 625.262 72.376C625.566 72.816 625.95 73.164 626.414 73.42C626.886 73.676 627.41 73.808 627.986 73.816C628.594 73.816 629.146 73.664 629.642 73.36C630.146 73.056 630.558 72.636 630.878 72.1L633.41 72.688C632.93 73.752 632.206 74.624 631.238 75.304C630.27 75.976 629.186 76.312 627.986 76.312ZM624.578 68.968H631.394C631.314 68.392 631.11 67.872 630.782 67.408C630.462 66.936 630.058 66.564 629.57 66.292C629.09 66.012 628.562 65.872 627.986 65.872C627.418 65.872 626.89 66.008 626.402 66.28C625.922 66.552 625.522 66.924 625.202 67.396C624.89 67.86 624.682 68.384 624.578 68.968ZM645.214 64H647.71V76H645.202L645.106 74.26C644.754 74.876 644.278 75.372 643.678 75.748C643.078 76.124 642.37 76.312 641.554 76.312C640.674 76.312 639.846 76.148 639.07 75.82C638.294 75.484 637.61 75.02 637.018 74.428C636.434 73.836 635.978 73.156 635.65 72.388C635.322 71.612 635.158 70.78 635.158 69.892C635.158 69.036 635.318 68.232 635.638 67.48C635.958 66.72 636.402 66.056 636.97 65.488C637.538 64.92 638.194 64.476 638.938 64.156C639.69 63.828 640.494 63.664 641.35 63.664C642.222 63.664 642.99 63.864 643.654 64.264C644.326 64.656 644.882 65.16 645.322 65.776L645.214 64ZM641.493 73.9C642.198 73.9 642.814 73.728 643.342 73.384C643.87 73.032 644.278 72.56 644.566 71.968C644.862 71.376 645.01 70.72 645.01 70C645.01 69.272 644.862 68.612 644.566 68.02C644.27 67.428 643.858 66.96 643.33 66.616C642.81 66.264 642.198 66.088 641.493 66.088C640.798 66.088 640.162 66.264 639.586 66.616C639.01 66.968 638.554 67.44 638.218 68.032C637.882 68.624 637.714 69.28 637.714 70C637.714 70.728 637.886 71.388 638.23 71.98C638.582 72.564 639.042 73.032 639.61 73.384C640.186 73.728 640.814 73.9 641.493 73.9ZM650.104 76V64H652.6V65.272C653.016 64.776 653.524 64.384 654.124 64.096C654.732 63.808 655.388 63.664 656.092 63.664C656.948 63.664 657.736 63.872 658.456 64.288C659.176 64.696 659.748 65.24 660.172 65.92C660.596 65.24 661.16 64.696 661.864 64.288C662.576 63.872 663.36 63.664 664.216 63.664C665.104 63.664 665.912 63.88 666.64 64.312C667.368 64.744 667.948 65.324 668.38 66.052C668.812 66.78 669.028 67.588 669.028 68.476V76H666.532V69.112C666.532 68.584 666.404 68.1 666.148 67.66C665.892 67.22 665.548 66.864 665.116 66.592C664.684 66.32 664.204 66.184 663.676 66.184C663.148 66.184 662.668 66.312 662.236 66.568C661.804 66.824 661.46 67.172 661.204 67.612C660.948 68.052 660.82 68.552 660.82 69.112V76H658.324V69.112C658.324 68.552 658.196 68.052 657.94 67.612C657.684 67.172 657.336 66.824 656.896 66.568C656.464 66.312 655.984 66.184 655.456 66.184C654.936 66.184 654.456 66.32 654.016 66.592C653.584 66.864 653.24 67.22 652.984 67.66C652.728 68.1 652.6 68.584 652.6 69.112V76H650.104Z" fill="#0C1021"/>
<rect x="519" y="106.5" width="176.5" height="40" rx="20" stroke="#0C1021" stroke-opacity="0.1"/>
<path d="M600.953 126.31H613.553V127.29H600.953V126.31Z" fill="#0C1021"/>
<rect x="519" y="153.5" width="176.5" height="40" rx="20" stroke="#0C1021" stroke-opacity="0.1"/>
<path d="M600.953 173.31H613.553V174.29H600.953V173.31Z" fill="#0C1021"/>
<rect x="519" y="200.5" width="176.5" height="40" rx="20" stroke="#0C1021" stroke-opacity="0.1"/>
<path d="M571.788 225.182C571.125 225.182 570.502 225.051 569.919 224.79C569.336 224.524 568.822 224.16 568.379 223.698C567.94 223.231 567.595 222.69 567.343 222.074C567.096 221.458 566.972 220.8 566.972 220.1C566.972 219.4 567.096 218.742 567.343 218.126C567.595 217.51 567.94 216.971 568.379 216.509C568.822 216.042 569.336 215.678 569.919 215.417C570.502 215.151 571.125 215.018 571.788 215.018C572.581 215.018 573.312 215.202 573.979 215.571C574.646 215.94 575.199 216.43 575.638 217.041L574.77 217.51C574.425 217.048 573.986 216.682 573.454 216.411C572.927 216.136 572.371 215.998 571.788 215.998C571.251 215.998 570.75 216.108 570.283 216.327C569.821 216.542 569.415 216.838 569.065 217.216C568.715 217.594 568.442 218.03 568.246 218.525C568.05 219.02 567.952 219.545 567.952 220.1C567.952 220.665 568.05 221.194 568.246 221.689C568.447 222.184 568.722 222.62 569.072 222.998C569.427 223.376 569.835 223.672 570.297 223.887C570.764 224.097 571.261 224.202 571.788 224.202C572.395 224.202 572.957 224.064 573.475 223.789C573.998 223.509 574.429 223.145 574.77 222.697L575.638 223.166C575.199 223.777 574.646 224.267 573.979 224.636C573.312 225 572.581 225.182 571.788 225.182ZM577.082 225V214.5H578.062V225H577.082ZM582.774 225.182C582.13 225.182 581.542 225.016 581.01 224.685C580.482 224.354 580.06 223.91 579.743 223.355C579.43 222.795 579.274 222.177 579.274 221.5C579.274 220.987 579.365 220.508 579.547 220.065C579.729 219.617 579.978 219.225 580.296 218.889C580.618 218.548 580.991 218.282 581.416 218.091C581.84 217.9 582.293 217.804 582.774 217.804C583.418 217.804 584.003 217.97 584.531 218.301C585.063 218.632 585.485 219.078 585.798 219.638C586.115 220.198 586.274 220.819 586.274 221.5C586.274 222.009 586.183 222.485 586.001 222.928C585.819 223.371 585.567 223.763 585.245 224.104C584.927 224.44 584.556 224.704 584.132 224.895C583.712 225.086 583.259 225.182 582.774 225.182ZM582.774 224.202C583.25 224.202 583.677 224.078 584.055 223.831C584.437 223.579 584.738 223.248 584.958 222.837C585.182 222.426 585.294 221.981 585.294 221.5C585.294 221.01 585.182 220.56 584.958 220.149C584.734 219.734 584.43 219.402 584.048 219.155C583.67 218.908 583.245 218.784 582.774 218.784C582.298 218.784 581.868 218.91 581.486 219.162C581.108 219.409 580.807 219.738 580.583 220.149C580.363 220.56 580.254 221.01 580.254 221.5C580.254 222.004 580.368 222.461 580.597 222.872C580.825 223.278 581.131 223.602 581.514 223.845C581.896 224.083 582.316 224.202 582.774 224.202ZM589.636 225.133C589.253 225.124 588.88 225.054 588.516 224.923C588.152 224.792 587.834 224.615 587.564 224.391C587.293 224.167 587.099 223.913 586.983 223.628L587.83 223.264C587.904 223.446 588.042 223.614 588.243 223.768C588.448 223.917 588.681 224.039 588.943 224.132C589.204 224.221 589.463 224.265 589.72 224.265C590.004 224.265 590.27 224.218 590.518 224.125C590.765 224.032 590.966 223.899 591.12 223.726C591.278 223.549 591.358 223.341 591.358 223.103C591.358 222.846 591.274 222.646 591.106 222.501C590.938 222.352 590.725 222.235 590.469 222.151C590.212 222.062 589.948 221.978 589.678 221.899C589.183 221.764 588.747 221.614 588.369 221.451C587.991 221.288 587.694 221.08 587.48 220.828C587.27 220.571 587.165 220.242 587.165 219.841C587.165 219.416 587.284 219.05 587.522 218.742C587.764 218.429 588.079 218.189 588.467 218.021C588.859 217.848 589.276 217.762 589.72 217.762C590.289 217.762 590.807 217.886 591.274 218.133C591.745 218.38 592.086 218.709 592.296 219.12L591.505 219.589C591.421 219.398 591.288 219.232 591.106 219.092C590.924 218.952 590.716 218.842 590.483 218.763C590.254 218.684 590.021 218.642 589.783 218.637C589.484 218.632 589.206 218.677 588.95 218.77C588.693 218.859 588.485 218.992 588.327 219.169C588.173 219.346 588.096 219.563 588.096 219.82C588.096 220.077 588.173 220.273 588.327 220.408C588.481 220.539 588.688 220.646 588.95 220.73C589.216 220.809 589.514 220.903 589.846 221.01C590.27 221.145 590.669 221.299 591.043 221.472C591.416 221.645 591.717 221.859 591.946 222.116C592.174 222.373 592.286 222.697 592.282 223.089C592.282 223.509 592.156 223.875 591.904 224.188C591.652 224.501 591.325 224.741 590.924 224.909C590.522 225.072 590.093 225.147 589.636 225.133ZM593.42 218H594.4V225H593.42V218ZM593.917 216.775C593.758 216.775 593.623 216.724 593.511 216.621C593.404 216.514 593.35 216.381 593.35 216.222C593.35 216.063 593.404 215.933 593.511 215.83C593.623 215.723 593.758 215.669 593.917 215.669C594.071 215.669 594.202 215.723 594.309 215.83C594.421 215.933 594.477 216.063 594.477 216.222C594.477 216.381 594.423 216.514 594.316 216.621C594.209 216.724 594.076 216.775 593.917 216.775ZM602.163 220.667V225H601.183V220.863C601.183 220.48 601.089 220.133 600.903 219.82C600.716 219.507 600.466 219.258 600.154 219.071C599.841 218.884 599.493 218.791 599.111 218.791C598.733 218.791 598.385 218.884 598.068 219.071C597.755 219.258 597.505 219.507 597.319 219.82C597.132 220.133 597.039 220.48 597.039 220.863V225H596.059V218H597.039V218.966C597.286 218.611 597.608 218.329 598.005 218.119C598.401 217.909 598.833 217.804 599.3 217.804C599.827 217.804 600.308 217.932 600.742 218.189C601.176 218.446 601.521 218.791 601.778 219.225C602.034 219.659 602.163 220.14 602.163 220.667ZM608.993 218H609.973V225.259C609.973 225.707 609.875 226.127 609.679 226.519C609.488 226.911 609.226 227.254 608.895 227.548C608.568 227.847 608.195 228.08 607.775 228.248C607.355 228.416 606.919 228.5 606.466 228.5C605.981 228.5 605.512 228.388 605.059 228.164C604.606 227.945 604.212 227.651 603.876 227.282C603.545 226.913 603.309 226.505 603.169 226.057L604.072 225.644C604.161 225.994 604.326 226.309 604.569 226.589C604.816 226.874 605.106 227.098 605.437 227.261C605.773 227.429 606.116 227.513 606.466 227.513C606.788 227.513 607.098 227.452 607.397 227.331C607.7 227.214 607.971 227.053 608.209 226.848C608.452 226.643 608.643 226.402 608.783 226.127C608.923 225.856 608.993 225.567 608.993 225.259V223.712C608.75 224.151 608.421 224.505 608.006 224.776C607.595 225.047 607.117 225.182 606.571 225.182C606.081 225.182 605.619 225.086 605.185 224.895C604.756 224.704 604.378 224.44 604.051 224.104C603.724 223.763 603.468 223.371 603.281 222.928C603.099 222.485 603.008 222.009 603.008 221.5C603.008 220.991 603.099 220.515 603.281 220.072C603.468 219.624 603.724 219.232 604.051 218.896C604.378 218.555 604.756 218.289 605.185 218.098C605.619 217.907 606.081 217.811 606.571 217.811C607.117 217.811 607.595 217.946 608.006 218.217C608.421 218.483 608.75 218.838 608.993 219.281V218ZM606.578 224.23C607.063 224.23 607.481 224.104 607.831 223.852C608.186 223.6 608.459 223.266 608.65 222.851C608.841 222.436 608.937 221.985 608.937 221.5C608.937 221.001 608.839 220.546 608.643 220.135C608.452 219.72 608.179 219.388 607.824 219.141C607.469 218.889 607.054 218.763 606.578 218.763C606.102 218.763 605.668 218.887 605.276 219.134C604.889 219.377 604.581 219.706 604.352 220.121C604.123 220.536 604.009 220.996 604.009 221.5C604.009 222.004 604.126 222.464 604.359 222.879C604.592 223.29 604.903 223.619 605.29 223.866C605.682 224.109 606.111 224.23 606.578 224.23ZM615.022 225V215.2H618.263C618.939 215.2 619.574 215.328 620.167 215.585C620.759 215.837 621.28 216.189 621.728 216.642C622.176 217.09 622.526 217.61 622.778 218.203C623.034 218.791 623.163 219.423 623.163 220.1C623.163 220.777 623.034 221.411 622.778 222.004C622.526 222.592 622.176 223.112 621.728 223.565C621.28 224.013 620.759 224.365 620.167 224.622C619.574 224.874 618.939 225 618.263 225H615.022ZM616.002 224.02H618.263C618.804 224.02 619.31 223.92 619.782 223.719C620.258 223.514 620.675 223.231 621.035 222.872C621.394 222.513 621.674 222.097 621.875 221.626C622.08 221.15 622.183 220.641 622.183 220.1C622.183 219.559 622.08 219.052 621.875 218.581C621.674 218.105 621.392 217.687 621.028 217.328C620.668 216.969 620.253 216.689 619.782 216.488C619.31 216.283 618.804 216.18 618.263 216.18H616.002V224.02ZM627.412 225.182C626.768 225.182 626.18 225.016 625.648 224.685C625.121 224.354 624.699 223.91 624.381 223.355C624.069 222.795 623.912 222.177 623.912 221.5C623.912 220.987 624.003 220.508 624.185 220.065C624.367 219.617 624.617 219.225 624.934 218.889C625.256 218.548 625.63 218.282 626.054 218.091C626.479 217.9 626.932 217.804 627.412 217.804C627.93 217.804 628.406 217.907 628.84 218.112C629.279 218.317 629.655 218.604 629.967 218.973C630.285 219.342 630.523 219.773 630.681 220.268C630.845 220.763 630.912 221.297 630.884 221.871H624.948C625.004 222.314 625.144 222.711 625.368 223.061C625.597 223.411 625.886 223.689 626.236 223.894C626.591 224.095 626.983 224.197 627.412 224.202C627.879 224.202 628.299 224.081 628.672 223.838C629.05 223.595 629.354 223.262 629.582 222.837L630.576 223.068C630.296 223.689 629.874 224.197 629.309 224.594C628.745 224.986 628.112 225.182 627.412 225.182ZM624.92 221.08H629.897C629.865 220.646 629.732 220.249 629.498 219.89C629.27 219.526 628.973 219.237 628.609 219.022C628.245 218.803 627.846 218.693 627.412 218.693C626.978 218.693 626.582 218.8 626.222 219.015C625.863 219.225 625.569 219.512 625.34 219.876C625.112 220.235 624.972 220.637 624.92 221.08ZM637.77 218H638.75V225H637.77L637.735 223.698C637.506 224.141 637.186 224.501 636.776 224.776C636.365 225.047 635.875 225.182 635.306 225.182C634.792 225.182 634.312 225.086 633.864 224.895C633.416 224.699 633.021 224.431 632.681 224.09C632.34 223.749 632.074 223.355 631.883 222.907C631.691 222.459 631.596 221.978 631.596 221.465C631.596 220.961 631.689 220.487 631.876 220.044C632.067 219.601 632.328 219.211 632.66 218.875C632.996 218.539 633.383 218.278 633.822 218.091C634.265 217.9 634.739 217.804 635.243 217.804C635.826 217.804 636.335 217.944 636.769 218.224C637.203 218.499 637.548 218.861 637.805 219.309L637.77 218ZM635.285 224.23C635.784 224.23 636.213 224.109 636.573 223.866C636.932 223.619 637.207 223.287 637.399 222.872C637.595 222.457 637.693 221.999 637.693 221.5C637.693 220.987 637.595 220.525 637.399 220.114C637.203 219.699 636.925 219.37 636.566 219.127C636.206 218.884 635.779 218.763 635.285 218.763C634.79 218.763 634.337 218.887 633.927 219.134C633.521 219.377 633.196 219.706 632.954 220.121C632.716 220.536 632.597 220.996 632.597 221.5C632.597 222.009 632.72 222.471 632.968 222.886C633.215 223.297 633.542 223.623 633.948 223.866C634.358 224.109 634.804 224.23 635.285 224.23ZM640.246 225V214.5H641.226V225H640.246ZM645.075 225.133C644.693 225.124 644.319 225.054 643.955 224.923C643.591 224.792 643.274 224.615 643.003 224.391C642.733 224.167 642.539 223.913 642.422 223.628L643.269 223.264C643.344 223.446 643.482 223.614 643.682 223.768C643.888 223.917 644.121 224.039 644.382 224.132C644.644 224.221 644.903 224.265 645.159 224.265C645.444 224.265 645.71 224.218 645.957 224.125C646.205 224.032 646.405 223.899 646.559 223.726C646.718 223.549 646.797 223.341 646.797 223.103C646.797 222.846 646.713 222.646 646.545 222.501C646.377 222.352 646.165 222.235 645.908 222.151C645.652 222.062 645.388 221.978 645.117 221.899C644.623 221.764 644.186 221.614 643.808 221.451C643.43 221.288 643.134 221.08 642.919 220.828C642.709 220.571 642.604 220.242 642.604 219.841C642.604 219.416 642.723 219.05 642.961 218.742C643.204 218.429 643.519 218.189 643.906 218.021C644.298 217.848 644.716 217.762 645.159 217.762C645.729 217.762 646.247 217.886 646.713 218.133C647.185 218.38 647.525 218.709 647.735 219.12L646.944 219.589C646.86 219.398 646.727 219.232 646.545 219.092C646.363 218.952 646.156 218.842 645.922 218.763C645.694 218.684 645.46 218.642 645.222 218.637C644.924 218.632 644.646 218.677 644.389 218.77C644.133 218.859 643.925 218.992 643.766 219.169C643.612 219.346 643.535 219.563 643.535 219.82C643.535 220.077 643.612 220.273 643.766 220.408C643.92 220.539 644.128 220.646 644.389 220.73C644.655 220.809 644.954 220.903 645.285 221.01C645.71 221.145 646.109 221.299 646.482 221.472C646.856 221.645 647.157 221.859 647.385 222.116C647.614 222.373 647.726 222.697 647.721 223.089C647.721 223.509 647.595 223.875 647.343 224.188C647.091 224.501 646.765 224.741 646.363 224.909C645.962 225.072 645.533 225.147 645.075 225.133Z" fill="#0C1021"/>
</g>
<defs>
<filter id="filter0_d_3063_6955" x="274.614" y="14.2914" width="463.772" height="272.772" filterUnits="userSpaceOnUse" color-interpolation-filters="sRGB">
<feFlood flood-opacity="0" result="BackgroundImageFix"/>
<feColorMatrix in="SourceAlpha" type="matrix" values="0 0 0 0 0 0 0 0 0 0 0 0 0 0 0 0 0 0 127 0" result="hardAlpha"/>
<feOffset dy="3.67715"/>
<feGaussianBlur stdDeviation="9.19289"/>
<feComposite in2="hardAlpha" operator="out"/>
<feColorMatrix type="matrix" values="0 0 0 0 0.0468057 0 0 0 0 0.0634939 0 0 0 0 0.129808 0 0 0 0.1 0"/>
<feBlend mode="normal" in2="BackgroundImageFix" result="effect1_dropShadow_3063_6955"/>
<feBlend mode="normal" in="SourceGraphic" in2="effect1_dropShadow_3063_6955" result="shape"/>
</filter>
<pattern id="pattern0_3063_6955" patternUnits="userSpaceOnUse" patternTransform="matrix(12.5 0 0 12.5 0 0)" preserveAspectRatio="none" viewBox="0 0 12.5 12.5" width="1" height="1">
<g id="pattern0_3063_6955_inner">
<circle cx="2.5" cy="2.5" r="2.5" fill="#0C1021"/>
</g>
</pattern></defs>
</svg>
