<svg width="1014" height="294" viewBox="0 0 1014 294" fill="none" xmlns="http://www.w3.org/2000/svg" xmlns:xlink="http://www.w3.org/1999/xlink">
<rect width="1014" height="294" rx="24" fill="#FAFAFA"/>
<rect width="1014" height="294" rx="24" fill="url(#pattern0_3063_278)" fill-opacity="0.02"/>
<g filter="url(#filter0_d_3063_278)">
<rect x="238" y="126" width="101" height="41" rx="16" fill="white" shape-rendering="crispEdges"/>
<rect x="238.46" y="126.46" width="100.081" height="40.0807" rx="15.5404" stroke="#0C1021" stroke-opacity="0.05" stroke-width="0.919289" shape-rendering="crispEdges"/>
<path d="M253.801 151.182C253.18 151.182 252.618 151.033 252.114 150.734C251.615 150.431 251.218 150.029 250.924 149.53C250.635 149.026 250.49 148.475 250.49 147.878H251.946C251.946 148.219 252.03 148.529 252.198 148.809C252.366 149.089 252.59 149.313 252.87 149.481C253.15 149.644 253.46 149.726 253.801 149.726C254.137 149.726 254.445 149.644 254.725 149.481C255.005 149.313 255.229 149.089 255.397 148.809C255.565 148.529 255.649 148.219 255.649 147.878C255.649 147.537 255.572 147.227 255.418 146.947C255.264 146.662 255.033 146.436 254.725 146.268C254.417 146.095 254.025 146.009 253.549 146.009H251.078L252.072 141.2H256.811V142.656H253.255L252.87 144.553L253.717 144.567C254.384 144.581 254.97 144.735 255.474 145.029C255.983 145.318 256.382 145.71 256.671 146.205C256.96 146.695 257.105 147.253 257.105 147.878C257.105 148.331 257.019 148.758 256.846 149.159C256.673 149.556 256.435 149.906 256.132 150.209C255.833 150.512 255.483 150.75 255.082 150.923C254.685 151.096 254.258 151.182 253.801 151.182ZM258.503 151.784L258.937 149.418H260.393L259.469 151.784H258.503ZM265.459 151.182C264.881 151.182 264.358 151.051 263.891 150.79C263.429 150.524 263.03 150.158 262.694 149.691C262.358 149.224 262.102 148.685 261.924 148.074C261.747 147.458 261.658 146.8 261.658 146.1C261.658 145.4 261.747 144.742 261.924 144.126C262.102 143.51 262.358 142.971 262.694 142.509C263.03 142.042 263.429 141.678 263.891 141.417C264.358 141.151 264.881 141.018 265.459 141.018C266.029 141.018 266.547 141.151 267.013 141.417C267.48 141.678 267.877 142.042 268.203 142.509C268.535 142.971 268.789 143.51 268.966 144.126C269.144 144.742 269.232 145.4 269.232 146.1C269.232 146.8 269.144 147.458 268.966 148.074C268.789 148.685 268.535 149.224 268.203 149.691C267.877 150.158 267.48 150.524 267.013 150.79C266.547 151.051 266.029 151.182 265.459 151.182ZM265.459 149.726C265.996 149.726 266.442 149.558 266.796 149.222C267.156 148.881 267.424 148.436 267.601 147.885C267.779 147.334 267.867 146.739 267.867 146.1C267.867 145.428 267.774 144.819 267.587 144.273C267.405 143.722 267.135 143.286 266.775 142.964C266.421 142.637 265.982 142.474 265.459 142.474C265.044 142.474 264.682 142.572 264.374 142.768C264.071 142.964 263.819 143.232 263.618 143.573C263.422 143.914 263.273 144.301 263.17 144.735C263.072 145.169 263.023 145.624 263.023 146.1C263.023 146.739 263.114 147.334 263.296 147.885C263.478 148.436 263.749 148.881 264.108 149.222C264.472 149.558 264.923 149.726 265.459 149.726ZM273.608 151.182C273.029 151.182 272.506 151.051 272.04 150.79C271.578 150.524 271.179 150.158 270.843 149.691C270.507 149.224 270.25 148.685 270.073 148.074C269.895 147.458 269.807 146.8 269.807 146.1C269.807 145.4 269.895 144.742 270.073 144.126C270.25 143.51 270.507 142.971 270.843 142.509C271.179 142.042 271.578 141.678 272.04 141.417C272.506 141.151 273.029 141.018 273.608 141.018C274.177 141.018 274.695 141.151 275.162 141.417C275.628 141.678 276.025 142.042 276.352 142.509C276.683 142.971 276.937 143.51 277.115 144.126C277.292 144.742 277.381 145.4 277.381 146.1C277.381 146.8 277.292 147.458 277.115 148.074C276.937 148.685 276.683 149.224 276.352 149.691C276.025 150.158 275.628 150.524 275.162 150.79C274.695 151.051 274.177 151.182 273.608 151.182ZM273.608 149.726C274.144 149.726 274.59 149.558 274.945 149.222C275.304 148.881 275.572 148.436 275.75 147.885C275.927 147.334 276.016 146.739 276.016 146.1C276.016 145.428 275.922 144.819 275.736 144.273C275.554 143.722 275.283 143.286 274.924 142.964C274.569 142.637 274.13 142.474 273.608 142.474C273.192 142.474 272.831 142.572 272.523 142.768C272.219 142.964 271.967 143.232 271.767 143.573C271.571 143.914 271.421 144.301 271.319 144.735C271.221 145.169 271.172 145.624 271.172 146.1C271.172 146.739 271.263 147.334 271.445 147.885C271.627 148.436 271.897 148.881 272.257 149.222C272.621 149.558 273.071 149.726 273.608 149.726ZM281.756 151.182C281.177 151.182 280.655 151.051 280.188 150.79C279.726 150.524 279.327 150.158 278.991 149.691C278.655 149.224 278.398 148.685 278.221 148.074C278.044 147.458 277.955 146.8 277.955 146.1C277.955 145.4 278.044 144.742 278.221 144.126C278.398 143.51 278.655 142.971 278.991 142.509C279.327 142.042 279.726 141.678 280.188 141.417C280.655 141.151 281.177 141.018 281.756 141.018C282.325 141.018 282.843 141.151 283.31 141.417C283.777 141.678 284.173 142.042 284.5 142.509C284.831 142.971 285.086 143.51 285.263 144.126C285.44 144.742 285.529 145.4 285.529 146.1C285.529 146.8 285.44 147.458 285.263 148.074C285.086 148.685 284.831 149.224 284.5 149.691C284.173 150.158 283.777 150.524 283.31 150.79C282.843 151.051 282.325 151.182 281.756 151.182ZM281.756 149.726C282.293 149.726 282.738 149.558 283.093 149.222C283.452 148.881 283.721 148.436 283.898 147.885C284.075 147.334 284.164 146.739 284.164 146.1C284.164 145.428 284.071 144.819 283.884 144.273C283.702 143.722 283.431 143.286 283.072 142.964C282.717 142.637 282.279 142.474 281.756 142.474C281.341 142.474 280.979 142.572 280.671 142.768C280.368 142.964 280.116 143.232 279.915 143.573C279.719 143.914 279.57 144.301 279.467 144.735C279.369 145.169 279.32 145.624 279.32 146.1C279.32 146.739 279.411 147.334 279.593 147.885C279.775 148.436 280.046 148.881 280.405 149.222C280.769 149.558 281.219 149.726 281.756 149.726ZM290.147 151V141.2H291.603V149.544H295.824V151H290.147ZM299.816 151.182C299.172 151.182 298.584 151.016 298.052 150.685C297.525 150.354 297.103 149.91 296.785 149.355C296.473 148.795 296.316 148.177 296.316 147.5C296.316 146.987 296.407 146.508 296.589 146.065C296.771 145.617 297.021 145.225 297.338 144.889C297.66 144.548 298.034 144.282 298.458 144.091C298.883 143.9 299.336 143.804 299.816 143.804C300.353 143.804 300.845 143.916 301.293 144.14C301.741 144.359 302.124 144.665 302.441 145.057C302.759 145.444 302.992 145.892 303.141 146.401C303.291 146.905 303.335 147.442 303.274 148.011H297.877C297.938 148.333 298.055 148.625 298.227 148.886C298.405 149.143 298.629 149.346 298.899 149.495C299.175 149.644 299.48 149.721 299.816 149.726C300.171 149.726 300.493 149.637 300.782 149.46C301.076 149.283 301.317 149.038 301.503 148.725L302.98 149.068C302.7 149.689 302.278 150.197 301.713 150.594C301.149 150.986 300.516 151.182 299.816 151.182ZM297.828 146.898H301.804C301.758 146.562 301.639 146.259 301.447 145.988C301.261 145.713 301.025 145.496 300.74 145.337C300.46 145.174 300.152 145.092 299.816 145.092C299.485 145.092 299.177 145.171 298.892 145.33C298.612 145.489 298.379 145.706 298.192 145.981C298.01 146.252 297.889 146.557 297.828 146.898ZM309.866 144H311.322V151H309.859L309.803 149.985C309.598 150.344 309.32 150.634 308.97 150.853C308.62 151.072 308.207 151.182 307.731 151.182C307.218 151.182 306.735 151.086 306.282 150.895C305.829 150.699 305.43 150.428 305.085 150.083C304.744 149.738 304.478 149.341 304.287 148.893C304.096 148.44 304 147.955 304 147.437C304 146.938 304.093 146.469 304.28 146.03C304.467 145.587 304.726 145.199 305.057 144.868C305.388 144.537 305.771 144.278 306.205 144.091C306.644 143.9 307.113 143.804 307.612 143.804C308.121 143.804 308.569 143.921 308.956 144.154C309.348 144.383 309.672 144.677 309.929 145.036L309.866 144ZM307.696 149.775C308.107 149.775 308.466 149.675 308.774 149.474C309.082 149.269 309.32 148.993 309.488 148.648C309.661 148.303 309.747 147.92 309.747 147.5C309.747 147.075 309.661 146.69 309.488 146.345C309.315 146 309.075 145.727 308.767 145.526C308.464 145.321 308.107 145.218 307.696 145.218C307.29 145.218 306.919 145.321 306.583 145.526C306.247 145.731 305.981 146.007 305.785 146.352C305.589 146.697 305.491 147.08 305.491 147.5C305.491 147.925 305.591 148.31 305.792 148.655C305.997 148.996 306.266 149.269 306.597 149.474C306.933 149.675 307.299 149.775 307.696 149.775ZM318.035 140.5H319.491V151H318.035V149.971C317.807 150.335 317.508 150.629 317.139 150.853C316.771 151.072 316.339 151.182 315.844 151.182C315.336 151.182 314.86 151.086 314.416 150.895C313.973 150.704 313.581 150.44 313.24 150.104C312.904 149.763 312.641 149.371 312.449 148.928C312.258 148.485 312.162 148.009 312.162 147.5C312.162 146.991 312.258 146.515 312.449 146.072C312.641 145.624 312.904 145.232 313.24 144.896C313.581 144.555 313.973 144.289 314.416 144.098C314.86 143.907 315.336 143.811 315.844 143.811C316.339 143.811 316.771 143.923 317.139 144.147C317.508 144.366 317.807 144.656 318.035 145.015V140.5ZM315.858 149.775C316.269 149.775 316.628 149.675 316.936 149.474C317.244 149.269 317.482 148.993 317.65 148.648C317.823 148.303 317.909 147.92 317.909 147.5C317.909 147.075 317.823 146.69 317.65 146.345C317.478 146 317.237 145.727 316.929 145.526C316.626 145.321 316.269 145.218 315.858 145.218C315.452 145.218 315.081 145.321 314.745 145.526C314.414 145.731 314.148 146.007 313.947 146.352C313.751 146.697 313.653 147.08 313.653 147.5C313.653 147.925 313.754 148.31 313.954 148.655C314.16 148.996 314.428 149.269 314.759 149.474C315.095 149.675 315.462 149.775 315.858 149.775ZM323.268 151.133C322.899 151.11 322.54 151.035 322.19 150.909C321.84 150.783 321.532 150.613 321.266 150.398C321.005 150.179 320.809 149.922 320.678 149.628L321.917 149.096C321.978 149.222 322.083 149.346 322.232 149.467C322.386 149.588 322.566 149.689 322.771 149.768C322.976 149.843 323.191 149.88 323.415 149.88C323.634 149.88 323.837 149.85 324.024 149.789C324.215 149.724 324.372 149.626 324.493 149.495C324.614 149.364 324.675 149.208 324.675 149.026C324.675 148.821 324.605 148.662 324.465 148.55C324.33 148.433 324.159 148.345 323.954 148.284C323.749 148.223 323.543 148.165 323.338 148.109C322.881 148.006 322.461 147.866 322.078 147.689C321.7 147.507 321.399 147.276 321.175 146.996C320.951 146.711 320.839 146.364 320.839 145.953C320.839 145.505 320.96 145.118 321.203 144.791C321.446 144.46 321.763 144.205 322.155 144.028C322.552 143.851 322.974 143.762 323.422 143.762C323.982 143.762 324.495 143.881 324.962 144.119C325.429 144.357 325.786 144.684 326.033 145.099L324.878 145.785C324.808 145.645 324.703 145.519 324.563 145.407C324.423 145.295 324.264 145.206 324.087 145.141C323.91 145.071 323.725 145.031 323.534 145.022C323.296 145.013 323.074 145.041 322.869 145.106C322.668 145.167 322.507 145.265 322.386 145.4C322.265 145.535 322.204 145.708 322.204 145.918C322.204 146.123 322.276 146.277 322.421 146.38C322.566 146.478 322.748 146.557 322.967 146.618C323.191 146.679 323.42 146.746 323.653 146.821C324.068 146.952 324.458 147.113 324.822 147.304C325.186 147.491 325.48 147.722 325.704 147.997C325.928 148.272 326.035 148.608 326.026 149.005C326.026 149.444 325.893 149.829 325.627 150.16C325.366 150.491 325.025 150.743 324.605 150.916C324.185 151.089 323.739 151.161 323.268 151.133Z" fill="#0C1021"/>
</g>
<g filter="url(#filter1_d_3063_278)">
<rect x="618" y="126" width="111" height="41" rx="16" fill="#4268FF" shape-rendering="crispEdges"/>
<rect x="618.46" y="126.46" width="110.081" height="40.0807" rx="15.5404" stroke="#0C1021" stroke-opacity="0.05" stroke-width="0.919289" shape-rendering="crispEdges"/>
<path d="M639.366 151.252L638.246 150.139C637.854 150.456 637.415 150.704 636.93 150.881C636.445 151.058 635.931 151.147 635.39 151.147C634.723 151.147 634.097 151.016 633.514 150.755C632.931 150.489 632.417 150.125 631.974 149.663C631.531 149.196 631.183 148.655 630.931 148.039C630.684 147.423 630.56 146.765 630.56 146.065C630.56 145.365 630.684 144.709 630.931 144.098C631.183 143.482 631.531 142.941 631.974 142.474C632.417 142.007 632.931 141.643 633.514 141.382C634.097 141.116 634.723 140.983 635.39 140.983C636.057 140.983 636.68 141.116 637.259 141.382C637.842 141.643 638.356 142.007 638.799 142.474C639.242 142.941 639.588 143.482 639.835 144.098C640.087 144.709 640.213 145.365 640.213 146.065C640.213 146.634 640.127 147.176 639.954 147.689C639.786 148.198 639.553 148.664 639.254 149.089L640.395 150.223L639.366 151.252ZM635.39 149.691C635.717 149.691 636.034 149.637 636.342 149.53C636.655 149.423 636.937 149.271 637.189 149.075L636.104 147.997L637.133 146.961L638.169 148.004C638.365 147.724 638.512 147.418 638.61 147.087C638.708 146.756 638.757 146.415 638.757 146.065C638.757 145.566 638.668 145.099 638.491 144.665C638.318 144.226 638.076 143.841 637.763 143.51C637.455 143.174 637.098 142.913 636.692 142.726C636.286 142.535 635.852 142.439 635.39 142.439C634.923 142.439 634.487 142.535 634.081 142.726C633.675 142.917 633.316 143.181 633.003 143.517C632.695 143.848 632.452 144.233 632.275 144.672C632.102 145.106 632.016 145.57 632.016 146.065C632.016 146.564 632.102 147.033 632.275 147.472C632.452 147.911 632.697 148.298 633.01 148.634C633.323 148.965 633.682 149.224 634.088 149.411C634.494 149.598 634.928 149.691 635.39 149.691ZM641.361 148.375V144H642.817V148.018C642.817 148.331 642.894 148.615 643.048 148.872C643.202 149.129 643.407 149.334 643.664 149.488C643.92 149.637 644.203 149.712 644.511 149.712C644.823 149.712 645.106 149.637 645.358 149.488C645.614 149.334 645.817 149.129 645.967 148.872C646.121 148.615 646.198 148.331 646.198 148.018V144H647.654L647.661 151H646.205L646.198 150.244C645.96 150.533 645.663 150.762 645.309 150.93C644.954 151.098 644.574 151.182 644.168 151.182C643.65 151.182 643.178 151.056 642.754 150.804C642.329 150.552 641.991 150.214 641.739 149.789C641.487 149.364 641.361 148.893 641.361 148.375ZM654.415 144H655.871V151H654.408L654.352 149.985C654.147 150.344 653.869 150.634 653.519 150.853C653.169 151.072 652.756 151.182 652.28 151.182C651.767 151.182 651.284 151.086 650.831 150.895C650.378 150.699 649.979 150.428 649.634 150.083C649.293 149.738 649.027 149.341 648.836 148.893C648.645 148.44 648.549 147.955 648.549 147.437C648.549 146.938 648.642 146.469 648.829 146.03C649.016 145.587 649.275 145.199 649.606 144.868C649.937 144.537 650.32 144.278 650.754 144.091C651.193 143.9 651.662 143.804 652.161 143.804C652.67 143.804 653.118 143.921 653.505 144.154C653.897 144.383 654.221 144.677 654.478 145.036L654.415 144ZM652.245 149.775C652.656 149.775 653.015 149.675 653.323 149.474C653.631 149.269 653.869 148.993 654.037 148.648C654.21 148.303 654.296 147.92 654.296 147.5C654.296 147.075 654.21 146.69 654.037 146.345C653.864 146 653.624 145.727 653.316 145.526C653.013 145.321 652.656 145.218 652.245 145.218C651.839 145.218 651.468 145.321 651.132 145.526C650.796 145.731 650.53 146.007 650.334 146.352C650.138 146.697 650.04 147.08 650.04 147.5C650.04 147.925 650.14 148.31 650.341 148.655C650.546 148.996 650.815 149.269 651.146 149.474C651.482 149.675 651.848 149.775 652.245 149.775ZM657.322 151V140.5H658.778V151H657.322ZM660.453 144H661.909V151H660.453V144ZM661.195 142.985C660.971 142.985 660.785 142.913 660.635 142.768C660.486 142.623 660.411 142.441 660.411 142.222C660.411 142.007 660.486 141.828 660.635 141.683C660.785 141.534 660.969 141.459 661.188 141.459C661.403 141.459 661.585 141.534 661.734 141.683C661.884 141.828 661.958 142.007 661.958 142.222C661.958 142.441 661.884 142.623 661.734 142.768C661.59 142.913 661.41 142.985 661.195 142.985ZM665.383 142.411V144H667.357V145.456H665.383V151H663.927V145.456H663.094V144H663.927V142.411C663.927 142.028 664.02 141.681 664.207 141.368C664.394 141.051 664.643 140.799 664.956 140.612C665.273 140.425 665.626 140.332 666.013 140.332C666.293 140.332 666.566 140.388 666.832 140.5C667.098 140.612 667.336 140.785 667.546 141.018L666.503 142.047C666.452 141.963 666.379 141.9 666.286 141.858C666.197 141.811 666.106 141.788 666.013 141.788C665.84 141.788 665.691 141.849 665.565 141.97C665.444 142.091 665.383 142.238 665.383 142.411ZM668.438 144H669.894V151H668.438V144ZM669.18 142.985C668.956 142.985 668.769 142.913 668.62 142.768C668.47 142.623 668.396 142.441 668.396 142.222C668.396 142.007 668.47 141.828 668.62 141.683C668.769 141.534 668.953 141.459 669.173 141.459C669.387 141.459 669.569 141.534 669.719 141.683C669.868 141.828 669.943 142.007 669.943 142.222C669.943 142.441 669.868 142.623 669.719 142.768C669.574 142.913 669.394 142.985 669.18 142.985ZM674.525 151.182C673.881 151.182 673.293 151.016 672.761 150.685C672.234 150.354 671.812 149.91 671.494 149.355C671.182 148.795 671.025 148.177 671.025 147.5C671.025 146.987 671.116 146.508 671.298 146.065C671.48 145.617 671.73 145.225 672.047 144.889C672.369 144.548 672.743 144.282 673.167 144.091C673.592 143.9 674.045 143.804 674.525 143.804C675.062 143.804 675.554 143.916 676.002 144.14C676.45 144.359 676.833 144.665 677.15 145.057C677.468 145.444 677.701 145.892 677.85 146.401C678 146.905 678.044 147.442 677.983 148.011H672.586C672.647 148.333 672.764 148.625 672.936 148.886C673.114 149.143 673.338 149.346 673.608 149.495C673.884 149.644 674.189 149.721 674.525 149.726C674.88 149.726 675.202 149.637 675.491 149.46C675.785 149.283 676.026 149.038 676.212 148.725L677.689 149.068C677.409 149.689 676.987 150.197 676.422 150.594C675.858 150.986 675.225 151.182 674.525 151.182ZM672.537 146.898H676.513C676.467 146.562 676.348 146.259 676.156 145.988C675.97 145.713 675.734 145.496 675.449 145.337C675.169 145.174 674.861 145.092 674.525 145.092C674.194 145.092 673.886 145.171 673.601 145.33C673.321 145.489 673.088 145.706 672.901 145.981C672.719 146.252 672.598 146.557 672.537 146.898ZM684.582 140.5H686.038V151H684.582V149.971C684.353 150.335 684.055 150.629 683.686 150.853C683.317 151.072 682.886 151.182 682.391 151.182C681.882 151.182 681.406 151.086 680.963 150.895C680.52 150.704 680.128 150.44 679.787 150.104C679.451 149.763 679.187 149.371 678.996 148.928C678.805 148.485 678.709 148.009 678.709 147.5C678.709 146.991 678.805 146.515 678.996 146.072C679.187 145.624 679.451 145.232 679.787 144.896C680.128 144.555 680.52 144.289 680.963 144.098C681.406 143.907 681.882 143.811 682.391 143.811C682.886 143.811 683.317 143.923 683.686 144.147C684.055 144.366 684.353 144.656 684.582 145.015V140.5ZM682.405 149.775C682.816 149.775 683.175 149.675 683.483 149.474C683.791 149.269 684.029 148.993 684.197 148.648C684.37 148.303 684.456 147.92 684.456 147.5C684.456 147.075 684.37 146.69 684.197 146.345C684.024 146 683.784 145.727 683.476 145.526C683.173 145.321 682.816 145.218 682.405 145.218C681.999 145.218 681.628 145.321 681.292 145.526C680.961 145.731 680.695 146.007 680.494 146.352C680.298 146.697 680.2 147.08 680.2 147.5C680.2 147.925 680.3 148.31 680.501 148.655C680.706 148.996 680.975 149.269 681.306 149.474C681.642 149.675 682.008 149.775 682.405 149.775ZM688.198 145.533C687.983 145.533 687.801 145.458 687.652 145.309C687.507 145.16 687.435 144.978 687.435 144.763C687.435 144.553 687.507 144.373 687.652 144.224C687.801 144.075 687.983 144 688.198 144C688.413 144 688.595 144.075 688.744 144.224C688.893 144.373 688.968 144.553 688.968 144.763C688.968 144.978 688.893 145.16 688.744 145.309C688.595 145.458 688.413 145.533 688.198 145.533ZM688.198 151.182C687.983 151.182 687.801 151.107 687.652 150.958C687.507 150.809 687.435 150.627 687.435 150.412C687.435 150.202 687.507 150.022 687.652 149.873C687.801 149.724 687.983 149.649 688.198 149.649C688.413 149.649 688.595 149.724 688.744 149.873C688.893 150.022 688.968 150.202 688.968 150.412C688.968 150.627 688.893 150.809 688.744 150.958C688.595 151.107 688.413 151.182 688.198 151.182ZM696.706 151.182C696.113 151.182 695.581 151.044 695.11 150.769C694.643 150.494 694.274 150.125 694.004 149.663C693.733 149.201 693.598 148.688 693.598 148.123H695.054C695.054 148.417 695.124 148.685 695.264 148.928C695.404 149.171 695.597 149.364 695.845 149.509C696.092 149.654 696.379 149.726 696.706 149.726C697 149.726 697.273 149.654 697.525 149.509C697.777 149.364 697.98 149.171 698.134 148.928C698.288 148.685 698.365 148.417 698.365 148.123C698.365 147.75 698.267 147.437 698.071 147.185C697.875 146.933 697.602 146.746 697.252 146.625C696.906 146.499 696.507 146.436 696.055 146.436V145.288C696.671 145.288 697.163 145.167 697.532 144.924C697.9 144.681 698.085 144.32 698.085 143.839C698.085 143.587 698.017 143.358 697.882 143.153C697.751 142.943 697.576 142.777 697.357 142.656C697.142 142.53 696.911 142.467 696.664 142.467C696.407 142.467 696.16 142.53 695.922 142.656C695.688 142.777 695.497 142.943 695.348 143.153C695.198 143.358 695.124 143.587 695.124 143.839H693.668C693.668 143.452 693.747 143.088 693.906 142.747C694.069 142.402 694.288 142.101 694.564 141.844C694.844 141.583 695.161 141.38 695.516 141.235C695.875 141.086 696.251 141.011 696.643 141.011C697.156 141.011 697.632 141.139 698.071 141.396C698.514 141.648 698.869 141.989 699.135 142.418C699.405 142.843 699.541 143.316 699.541 143.839C699.541 144.254 699.438 144.649 699.233 145.022C699.032 145.391 698.752 145.652 698.393 145.806C698.705 145.918 698.967 146.095 699.177 146.338C699.391 146.576 699.552 146.851 699.66 147.164C699.767 147.472 699.821 147.792 699.821 148.123C699.821 148.683 699.678 149.196 699.394 149.663C699.109 150.125 698.729 150.494 698.253 150.769C697.781 151.044 697.266 151.182 696.706 151.182ZM700.806 151V149.705C701.137 149.43 701.518 149.11 701.947 148.746C702.376 148.377 702.813 147.988 703.256 147.577C703.699 147.162 704.108 146.749 704.481 146.338C704.854 145.923 705.155 145.531 705.384 145.162C705.617 144.789 705.734 144.464 705.734 144.189C705.734 143.876 705.657 143.592 705.503 143.335C705.354 143.074 705.151 142.866 704.894 142.712C704.637 142.553 704.353 142.474 704.04 142.474C703.727 142.474 703.44 142.553 703.179 142.712C702.922 142.866 702.715 143.074 702.556 143.335C702.402 143.592 702.325 143.876 702.325 144.189H700.869C700.869 143.596 701.014 143.062 701.303 142.586C701.597 142.105 701.982 141.725 702.458 141.445C702.939 141.16 703.466 141.018 704.04 141.018C704.619 141.018 705.146 141.16 705.622 141.445C706.098 141.73 706.478 142.112 706.763 142.593C707.048 143.069 707.19 143.601 707.19 144.189C707.19 144.516 707.122 144.852 706.987 145.197C706.852 145.542 706.663 145.895 706.42 146.254C706.182 146.613 705.904 146.977 705.587 147.346C705.27 147.715 704.929 148.083 704.565 148.452C704.201 148.821 703.83 149.185 703.452 149.544H707.274V151H700.806ZM711.973 151.182C711.394 151.182 710.872 151.051 710.405 150.79C709.943 150.524 709.544 150.158 709.208 149.691C708.872 149.224 708.615 148.685 708.438 148.074C708.261 147.458 708.172 146.8 708.172 146.1C708.172 145.4 708.261 144.742 708.438 144.126C708.615 143.51 708.872 142.971 709.208 142.509C709.544 142.042 709.943 141.678 710.405 141.417C710.872 141.151 711.394 141.018 711.973 141.018C712.542 141.018 713.06 141.151 713.527 141.417C713.994 141.678 714.39 142.042 714.717 142.509C715.048 142.971 715.303 143.51 715.48 144.126C715.657 144.742 715.746 145.4 715.746 146.1C715.746 146.8 715.657 147.458 715.48 148.074C715.303 148.685 715.048 149.224 714.717 149.691C714.39 150.158 713.994 150.524 713.527 150.79C713.06 151.051 712.542 151.182 711.973 151.182ZM711.973 149.726C712.51 149.726 712.955 149.558 713.31 149.222C713.669 148.881 713.938 148.436 714.115 147.885C714.292 147.334 714.381 146.739 714.381 146.1C714.381 145.428 714.288 144.819 714.101 144.273C713.919 143.722 713.648 143.286 713.289 142.964C712.934 142.637 712.496 142.474 711.973 142.474C711.558 142.474 711.196 142.572 710.888 142.768C710.585 142.964 710.333 143.232 710.132 143.573C709.936 143.914 709.787 144.301 709.684 144.735C709.586 145.169 709.537 145.624 709.537 146.1C709.537 146.739 709.628 147.334 709.81 147.885C709.992 148.436 710.263 148.881 710.622 149.222C710.986 149.558 711.436 149.726 711.973 149.726Z" fill="white"/>
</g>
<g filter="url(#filter2_d_3063_278)">
<rect x="443" y="126" width="71" height="41" rx="16" fill="white" shape-rendering="crispEdges"/>
<rect x="443.46" y="126.46" width="70.0807" height="40.0807" rx="15.5404" stroke="#0C1021" stroke-opacity="0.05" stroke-width="0.919289" shape-rendering="crispEdges"/>
<path d="M459.123 141.2H460.824L464.387 151H462.847L462.168 149.138H457.779L457.107 151H455.56L459.123 141.2ZM458.318 147.682H461.629L459.97 143.132L458.318 147.682ZM465.839 151V141.2H467.295V151H465.839ZM477.083 151.182C476.42 151.182 475.797 151.051 475.214 150.79C474.631 150.524 474.117 150.16 473.674 149.698C473.235 149.231 472.89 148.69 472.638 148.074C472.391 147.458 472.267 146.8 472.267 146.1C472.267 145.4 472.391 144.742 472.638 144.126C472.89 143.51 473.235 142.971 473.674 142.509C474.117 142.042 474.631 141.678 475.214 141.417C475.797 141.151 476.42 141.018 477.083 141.018C477.876 141.018 478.607 141.202 479.274 141.571C479.941 141.94 480.494 142.43 480.933 143.041L479.638 143.734C479.335 143.351 478.959 143.046 478.511 142.817C478.063 142.588 477.587 142.474 477.083 142.474C476.616 142.474 476.18 142.57 475.774 142.761C475.368 142.952 475.011 143.214 474.703 143.545C474.395 143.876 474.155 144.261 473.982 144.7C473.809 145.139 473.723 145.605 473.723 146.1C473.723 146.599 473.809 147.068 473.982 147.507C474.155 147.941 474.395 148.326 474.703 148.662C475.016 148.993 475.375 149.255 475.781 149.446C476.187 149.633 476.621 149.726 477.083 149.726C477.596 149.726 478.075 149.612 478.518 149.383C478.966 149.15 479.339 148.842 479.638 148.459L480.933 149.166C480.494 149.777 479.941 150.267 479.274 150.636C478.607 151 477.876 151.182 477.083 151.182ZM487.372 144H488.828V151H487.365L487.309 149.985C487.104 150.344 486.826 150.634 486.476 150.853C486.126 151.072 485.713 151.182 485.237 151.182C484.724 151.182 484.241 151.086 483.788 150.895C483.335 150.699 482.936 150.428 482.591 150.083C482.25 149.738 481.984 149.341 481.793 148.893C481.602 148.44 481.506 147.955 481.506 147.437C481.506 146.938 481.599 146.469 481.786 146.03C481.973 145.587 482.232 145.199 482.563 144.868C482.894 144.537 483.277 144.278 483.711 144.091C484.15 143.9 484.619 143.804 485.118 143.804C485.627 143.804 486.075 143.921 486.462 144.154C486.854 144.383 487.178 144.677 487.435 145.036L487.372 144ZM485.202 149.775C485.613 149.775 485.972 149.675 486.28 149.474C486.588 149.269 486.826 148.993 486.994 148.648C487.167 148.303 487.253 147.92 487.253 147.5C487.253 147.075 487.167 146.69 486.994 146.345C486.821 146 486.581 145.727 486.273 145.526C485.97 145.321 485.613 145.218 485.202 145.218C484.796 145.218 484.425 145.321 484.089 145.526C483.753 145.731 483.487 146.007 483.291 146.352C483.095 146.697 482.997 147.08 482.997 147.5C482.997 147.925 483.097 148.31 483.298 148.655C483.503 148.996 483.772 149.269 484.103 149.474C484.439 149.675 484.805 149.775 485.202 149.775ZM490.279 151V140.5H491.735V151H490.279ZM493.41 151V140.5H494.866V151H493.41ZM498.641 151.133C498.273 151.11 497.913 151.035 497.563 150.909C497.213 150.783 496.905 150.613 496.639 150.398C496.378 150.179 496.182 149.922 496.051 149.628L497.29 149.096C497.351 149.222 497.456 149.346 497.605 149.467C497.759 149.588 497.939 149.689 498.144 149.768C498.35 149.843 498.564 149.88 498.788 149.88C499.008 149.88 499.211 149.85 499.397 149.789C499.589 149.724 499.745 149.626 499.866 149.495C499.988 149.364 500.048 149.208 500.048 149.026C500.048 148.821 499.978 148.662 499.838 148.55C499.703 148.433 499.533 148.345 499.327 148.284C499.122 148.223 498.917 148.165 498.711 148.109C498.254 148.006 497.834 147.866 497.451 147.689C497.073 147.507 496.772 147.276 496.548 146.996C496.324 146.711 496.212 146.364 496.212 145.953C496.212 145.505 496.334 145.118 496.576 144.791C496.819 144.46 497.136 144.205 497.528 144.028C497.925 143.851 498.347 143.762 498.795 143.762C499.355 143.762 499.869 143.881 500.335 144.119C500.802 144.357 501.159 144.684 501.406 145.099L500.251 145.785C500.181 145.645 500.076 145.519 499.936 145.407C499.796 145.295 499.638 145.206 499.46 145.141C499.283 145.071 499.099 145.031 498.907 145.022C498.669 145.013 498.448 145.041 498.242 145.106C498.042 145.167 497.881 145.265 497.759 145.4C497.638 145.535 497.577 145.708 497.577 145.918C497.577 146.123 497.65 146.277 497.794 146.38C497.939 146.478 498.121 146.557 498.34 146.618C498.564 146.679 498.793 146.746 499.026 146.821C499.442 146.952 499.831 147.113 500.195 147.304C500.559 147.491 500.853 147.722 501.077 147.997C501.301 148.272 501.409 148.608 501.399 149.005C501.399 149.444 501.266 149.829 501 150.16C500.739 150.491 500.398 150.743 499.978 150.916C499.558 151.089 499.113 151.161 498.641 151.133Z" fill="#0C1021"/>
</g>
<path d="M440 146.5H342" stroke="#4268FF" stroke-linecap="round" stroke-linejoin="bevel" stroke-dasharray="6 6"/>
<path d="M517 146.5H615" stroke="#4268FF" stroke-linecap="round" stroke-linejoin="bevel" stroke-dasharray="6 6"/>
<defs>
<filter id="filter0_d_3063_278" x="219.614" y="111.291" width="137.772" height="77.7715" filterUnits="userSpaceOnUse" color-interpolation-filters="sRGB">
<feFlood flood-opacity="0" result="BackgroundImageFix"/>
<feColorMatrix in="SourceAlpha" type="matrix" values="0 0 0 0 0 0 0 0 0 0 0 0 0 0 0 0 0 0 127 0" result="hardAlpha"/>
<feOffset dy="3.67715"/>
<feGaussianBlur stdDeviation="9.19289"/>
<feComposite in2="hardAlpha" operator="out"/>
<feColorMatrix type="matrix" values="0 0 0 0 0.0468057 0 0 0 0 0.0634939 0 0 0 0 0.129808 0 0 0 0.1 0"/>
<feBlend mode="normal" in2="BackgroundImageFix" result="effect1_dropShadow_3063_278"/>
<feBlend mode="normal" in="SourceGraphic" in2="effect1_dropShadow_3063_278" result="shape"/>
</filter>
<filter id="filter1_d_3063_278" x="599.614" y="111.291" width="147.772" height="77.7715" filterUnits="userSpaceOnUse" color-interpolation-filters="sRGB">
<feFlood flood-opacity="0" result="BackgroundImageFix"/>
<feColorMatrix in="SourceAlpha" type="matrix" values="0 0 0 0 0 0 0 0 0 0 0 0 0 0 0 0 0 0 127 0" result="hardAlpha"/>
<feOffset dy="3.67715"/>
<feGaussianBlur stdDeviation="9.19289"/>
<feComposite in2="hardAlpha" operator="out"/>
<feColorMatrix type="matrix" values="0 0 0 0 0.0468057 0 0 0 0 0.0634939 0 0 0 0 0.129808 0 0 0 0.1 0"/>
<feBlend mode="normal" in2="BackgroundImageFix" result="effect1_dropShadow_3063_278"/>
<feBlend mode="normal" in="SourceGraphic" in2="effect1_dropShadow_3063_278" result="shape"/>
</filter>
<filter id="filter2_d_3063_278" x="424.614" y="111.291" width="107.772" height="77.7715" filterUnits="userSpaceOnUse" color-interpolation-filters="sRGB">
<feFlood flood-opacity="0" result="BackgroundImageFix"/>
<feColorMatrix in="SourceAlpha" type="matrix" values="0 0 0 0 0 0 0 0 0 0 0 0 0 0 0 0 0 0 127 0" result="hardAlpha"/>
<feOffset dy="3.67715"/>
<feGaussianBlur stdDeviation="9.19289"/>
<feComposite in2="hardAlpha" operator="out"/>
<feColorMatrix type="matrix" values="0 0 0 0 0.0468057 0 0 0 0 0.0634939 0 0 0 0 0.129808 0 0 0 0.1 0"/>
<feBlend mode="normal" in2="BackgroundImageFix" result="effect1_dropShadow_3063_278"/>
<feBlend mode="normal" in="SourceGraphic" in2="effect1_dropShadow_3063_278" result="shape"/>
</filter>
<pattern id="pattern0_3063_278" patternUnits="userSpaceOnUse" patternTransform="matrix(12.5 0 0 12.5 0 0)" preserveAspectRatio="none" viewBox="0 0 12.5 12.5" width="1" height="1">
<g id="pattern0_3063_278_inner">
<circle cx="2.5" cy="2.5" r="2.5" fill="#0C1021"/>
</g>
</pattern></defs>
</svg>
