<svg width="32" height="32" viewBox="0 0 32 32" fill="none" xmlns="http://www.w3.org/2000/svg">
<rect width="32" height="32" rx="16" transform="matrix(-1 -8.74228e-08 -8.74228e-08 1 32 2.79753e-06)" fill="#4268FF"/>
<g clip-path="url(#clip0_1957_6871)">
<path d="M12.3867 13.6347L11.68 14.342L15.5313 18.1947C15.593 18.2568 15.6664 18.306 15.7473 18.3397C15.8281 18.3733 15.9148 18.3906 16.0023 18.3906C16.0899 18.3906 16.1766 18.3733 16.2574 18.3397C16.3382 18.306 16.4116 18.2568 16.4733 18.1947L20.3267 14.342L19.62 13.6353L16.0033 17.2513L12.3867 13.6347Z" fill="white"/>
</g>
<defs>
<clipPath id="clip0_1957_6871">
<rect width="8" height="16" fill="white" transform="matrix(-4.37114e-08 1 1 4.37114e-08 8 12)"/>
</clipPath>
</defs>
</svg>
