<svg width="96" height="96" viewBox="0 0 96 96" fill="none" xmlns="http://www.w3.org/2000/svg">
<rect width="96" height="96" rx="48" fill="#4268FF"/>
<path d="M65.1602 39.8H65.1499C64.7686 39.7981 64.3973 39.6778 64.0873 39.4556C63.7774 39.2335 63.5442 38.9205 63.4199 38.56C63.2739 38.1517 63.1071 37.7512 62.9199 37.36C62.7563 37.0145 62.7022 36.6273 62.7648 36.2502C62.8273 35.8731 63.0036 35.5241 63.27 35.25C63.4412 35.0796 63.5771 34.877 63.6697 34.6539C63.7624 34.4308 63.8101 34.1916 63.81 33.95C63.8103 33.4591 63.6162 32.9881 63.27 32.64L61.3599 30.73C61.0136 30.3842 60.5443 30.19 60.0549 30.19C59.5656 30.19 59.0963 30.3842 58.75 30.73C58.4033 31.0709 57.9362 31.2613 57.45 31.26C57.1701 31.26 56.8937 31.1986 56.6402 31.08C56.249 30.8928 55.8484 30.7259 55.44 30.58C55.0795 30.4557 54.7665 30.2225 54.5443 29.9126C54.3222 29.6026 54.2019 29.2313 54.2 28.85V28.84C54.1979 28.3526 54.0034 27.8858 53.6587 27.5412C53.3141 27.1966 52.8472 27.0021 52.3599 27H49.6401C49.1528 27.0021 48.6859 27.1966 48.3413 27.5412C47.9967 27.8858 47.8021 28.3526 47.8001 28.84V28.85C47.7982 29.2313 47.6778 29.6026 47.4557 29.9126C47.2335 30.2225 46.9206 30.4557 46.56 30.58C46.1517 30.7259 45.7511 30.8928 45.3598 31.08C45.0144 31.2436 44.6272 31.2978 44.2501 31.2352C43.8731 31.1727 43.5241 30.9964 43.25 30.73C43.0796 30.5587 42.877 30.4229 42.6539 30.3302C42.4308 30.2375 42.1916 30.1899 41.95 30.19C41.4591 30.1896 40.9881 30.3838 40.6402 30.73L38.73 32.64C38.3842 32.9863 38.19 33.4556 38.19 33.945C38.19 34.4344 38.3842 34.9037 38.73 35.25C39.0709 35.5967 39.2613 36.0638 39.26 36.55C39.26 36.8299 39.1986 37.1064 39.0801 37.36C38.8929 37.7512 38.726 38.1517 38.5801 38.56C38.4558 38.9205 38.2226 39.2335 37.9126 39.4556C37.6027 39.6778 37.2314 39.7981 36.8501 39.8H36.8401C36.3527 39.8021 35.8859 39.9966 35.5413 40.3412C35.1967 40.6859 35.0021 41.1526 35 41.64V44.36C35.0021 44.8474 35.1967 45.3141 35.5413 45.6588C35.8859 46.0034 36.3527 46.1979 36.8401 46.2H36.8501C37.2314 46.2019 37.6027 46.3222 37.9126 46.5444C38.2226 46.7665 38.4558 47.0795 38.5801 47.44C38.726 47.8483 38.8929 48.2488 39.0801 48.64C39.2337 48.9654 39.2899 49.3283 39.242 49.6849C39.1941 50.0415 39.0441 50.3767 38.8101 50.65L39.98 49.87C40.8812 49.2628 41.9433 48.9389 43.03 48.94H44.9258C43.6967 47.6852 42.8866 46.0805 42.6066 44.3465C42.3267 42.6125 42.5908 40.8344 43.3625 39.2566C44.1342 37.6788 45.3757 36.3787 46.9163 35.5352C48.4569 34.6917 50.221 34.346 51.966 34.5458C53.7111 34.7456 55.3513 35.4811 56.6614 36.651C57.9715 37.8209 58.887 39.368 59.2821 41.0794C59.6772 42.7908 59.5325 44.5826 58.8679 46.2084C58.2033 47.8342 57.0514 49.2143 55.5705 50.1588C56.0015 50.6584 56.2767 51.2733 56.3619 51.9276C56.4471 52.5818 56.3387 53.2467 56.05 53.84L62.8701 48.77C62.8805 48.7245 62.8972 48.6808 62.9199 48.64C63.1071 48.2488 63.274 47.8483 63.4199 47.44C63.5442 47.0795 63.7774 46.7665 64.0874 46.5444C64.3973 46.3222 64.7686 46.2019 65.1499 46.2H65.1602C65.6475 46.1978 66.1142 46.0033 66.4588 45.6587C66.8034 45.3141 66.9979 44.8473 67 44.36V41.64C66.9979 41.1527 66.8034 40.6859 66.4588 40.3413C66.1142 39.9967 65.6475 39.8021 65.1602 39.8Z" fill="white"/>
<path d="M42.0846 65.7322L38.6661 68.467C38.4804 68.6157 38.2477 68.6932 38.0099 68.6857C37.7721 68.6782 37.5448 68.5861 37.3688 68.4261L27.8674 59.7885C27.7604 59.6912 27.6757 59.5718 27.6193 59.4386C27.5629 59.3054 27.536 59.1616 27.5406 59.017C27.5451 58.8724 27.581 58.7305 27.6457 58.6012C27.7104 58.4718 27.8024 58.358 27.9154 58.2677L31.3339 55.5329C31.5197 55.3842 31.7523 55.3067 31.9901 55.3142C32.2279 55.3217 32.4552 55.4137 32.6313 55.5738L42.1326 64.2114C42.2397 64.3087 42.3243 64.4281 42.3807 64.5613C42.4372 64.6945 42.464 64.8383 42.4595 64.9829C42.4549 65.1275 42.419 65.2693 42.3543 65.3987C42.2896 65.5281 42.1976 65.6419 42.0846 65.7322Z" fill="white"/>
<path d="M69.3729 51.0261C69.3097 50.5709 69.1356 50.1382 68.8659 49.7662C68.5961 49.3941 68.239 49.0941 67.826 48.8926C67.4012 48.6797 66.9301 48.5761 66.4552 48.5909C65.9803 48.6057 65.5165 48.7386 65.1058 48.9775L55.6642 55.9985C55.1716 56.2774 54.6152 56.4238 54.0492 56.4235H50.0288C49.8863 56.4246 49.745 56.3975 49.613 56.3438C49.4811 56.2901 49.361 56.2108 49.2599 56.1104C49.1587 56.0101 49.0784 55.8907 49.0236 55.7592C48.9688 55.6276 48.9406 55.4865 48.9406 55.3441C48.9406 55.2016 48.9688 55.0605 49.0236 54.929C49.0784 54.7974 49.1587 54.6781 49.2599 54.5777C49.361 54.4774 49.4811 54.398 49.613 54.3443C49.745 54.2906 49.8863 54.2635 50.0288 54.2646H53.0036C53.2514 54.2646 53.4968 54.2158 53.7258 54.121C53.9547 54.0262 54.1628 53.8871 54.338 53.7119C54.5132 53.5367 54.6523 53.3286 54.7471 53.0997C54.8419 52.8707 54.8908 52.6253 54.8908 52.3775V52.3522C54.8907 51.8449 54.6893 51.3585 54.3306 50.9998C53.9719 50.6411 53.4855 50.4397 52.9783 50.4397H43.9386C43.2074 50.4397 42.4902 50.6401 41.8649 51.0192L32 57.0001L40.7868 63.7165H55.025C56.5081 63.7173 57.9384 63.1658 59.037 62.1695L68.2594 53.7716C68.6631 53.4464 68.9773 53.0236 69.1721 52.5432C69.3669 52.0628 69.436 51.5407 69.3729 51.0261Z" fill="white"/>
</svg>
