<svg width="96" height="96" viewBox="0 0 96 96" fill="none" xmlns="http://www.w3.org/2000/svg">
<rect width="96" height="96" rx="48" fill="#4268FF"/>
<g clip-path="url(#clip0_1957_6179)">
<path d="M66.3274 40.459C66.17 40.4689 66.0132 40.4873 65.8578 40.5142C64.6439 36.7321 62.2606 33.433 59.0512 31.0924C55.8418 28.7519 51.9722 27.4907 48.0001 27.4907C44.0279 27.4907 40.1583 28.7519 36.9489 31.0924C33.7396 33.433 31.3562 36.7321 30.1423 40.5142C29.9869 40.4873 29.8302 40.4689 29.6728 40.459C26.4921 40.459 24 43.771 24 48C24 52.2281 26.4921 55.5401 29.6728 55.5401C30.8845 55.527 32.0448 55.0482 32.9131 54.2029C33.1085 54.0172 33.2418 53.7759 33.2949 53.5117C33.348 53.2475 33.3182 52.9734 33.2097 52.7267C32.061 50.1241 31.6308 47.2611 31.9641 44.4358C31.9829 44.2693 32.0157 44.1076 32.0395 43.9427C32.106 43.4876 32.184 43.0355 32.2897 42.5919C33.1132 39.0424 35.1143 35.8764 37.9672 33.6096C40.82 31.3428 44.3564 30.1089 48.0001 30.1089C51.6439 30.1089 55.1802 31.3428 58.0331 33.6096C60.8859 35.8764 62.8871 39.0424 63.7106 42.5919C63.8163 43.0355 63.8943 43.4876 63.9607 43.9427C63.9846 44.1076 64.0174 44.2693 64.0362 44.4358C64.1069 45.0395 64.1434 45.6467 64.1455 46.2545C64.1454 46.8076 64.1171 47.3603 64.0607 47.9105C64.0403 48.1099 63.9985 48.3025 63.9708 48.4998C63.9227 48.8446 63.8805 49.1906 63.8102 49.5307C63.7706 49.7211 63.7118 49.904 63.6658 50.0919C63.5814 50.4337 63.5021 50.7767 63.3956 51.113C63.3406 51.2873 63.2686 51.4535 63.2081 51.6252C63.0871 51.9653 62.9678 52.3062 62.8233 52.6398C61.5738 55.5353 59.5047 58.002 56.8709 59.7362C54.2371 61.4704 51.1535 62.3964 48 62.4001H47.1273C46.3171 62.4001 45.5402 62.7219 44.9674 63.2947C44.3945 63.8676 44.0727 64.6445 44.0727 65.4546C44.0727 66.2647 44.3945 67.0417 44.9674 67.6145C45.5402 68.1874 46.3171 68.5092 47.1273 68.5092H50.6182C51.1274 68.5109 51.6288 68.3849 52.0767 68.1426C52.5246 67.9004 52.9045 67.5497 53.1818 67.1227C53.4591 66.6956 53.6248 66.2058 53.6638 65.6981C53.7028 65.1905 53.6139 64.6811 53.4051 64.2167C58.1596 62.7764 62.153 59.517 64.5168 55.1476C65.0866 55.4023 65.7032 55.5359 66.3274 55.5401C69.5081 55.5401 72.0001 52.2281 72.0001 48C72.0001 43.771 69.5081 40.459 66.3274 40.459Z" fill="white"/>
<path d="M36.8727 59.3455H47.6242C51.0077 59.382 54.2786 58.1313 56.7747 55.8467C59.2707 53.5622 60.8054 50.4145 61.068 47.041C61.2048 44.8244 60.7755 42.6094 59.8205 40.6043C58.8655 38.5993 57.4161 36.8702 55.6088 35.5796C53.8014 34.289 51.6955 33.4794 49.489 33.2269C47.2826 32.9744 45.0482 33.2873 42.996 34.1362C40.9438 34.9851 39.1413 36.342 37.7579 38.0795C36.3746 39.8169 35.456 41.8776 35.0885 44.0678C34.721 46.2581 34.9167 48.5058 35.6572 50.5996C36.3976 52.6933 37.6585 54.5643 39.3212 56.0366L36.4798 58.1673C36.3699 58.2498 36.2889 58.3648 36.248 58.4959C36.2071 58.627 36.2084 58.7677 36.2519 58.8979C36.2953 59.0282 36.3787 59.1416 36.4901 59.2219C36.6015 59.3022 36.7353 59.3455 36.8727 59.3455ZM53.2364 44.5091C53.5816 44.5091 53.9191 44.6115 54.2061 44.8033C54.4932 44.995 54.7169 45.2676 54.849 45.5866C54.9811 45.9055 55.0157 46.2565 54.9483 46.5951C54.881 46.9337 54.7147 47.2447 54.4706 47.4888C54.2265 47.7329 53.9155 47.8991 53.5769 47.9665C53.2383 48.0338 52.8874 47.9993 52.5684 47.8671C52.2495 47.735 51.9769 47.5113 51.7851 47.2243C51.5933 46.9372 51.4909 46.5998 51.4909 46.2546C51.4909 45.7916 51.6748 45.3477 52.0022 45.0203C52.3295 44.693 52.7735 44.5091 53.2364 44.5091ZM48 44.5091C48.3452 44.5091 48.6827 44.6115 48.9697 44.8033C49.2568 44.995 49.4805 45.2676 49.6126 45.5866C49.7447 45.9055 49.7793 46.2565 49.7119 46.5951C49.6446 46.9337 49.4783 47.2447 49.2342 47.4888C48.9901 47.7329 48.6791 47.8991 48.3405 47.9665C48.0019 48.0338 47.651 47.9993 47.332 47.8671C47.0131 47.735 46.7405 47.5113 46.5487 47.2243C46.3569 46.9372 46.2545 46.5998 46.2545 46.2546C46.2545 45.7916 46.4384 45.3477 46.7658 45.0203C47.0931 44.693 47.5371 44.5091 48 44.5091ZM42.7636 44.5091C43.1088 44.5091 43.4463 44.6115 43.7333 44.8033C44.0204 44.995 44.2441 45.2676 44.3762 45.5866C44.5083 45.9055 44.5429 46.2565 44.4755 46.5951C44.4082 46.9337 44.2419 47.2447 43.9978 47.4888C43.7537 47.7329 43.4427 47.8991 43.1041 47.9665C42.7655 48.0338 42.4146 47.9993 42.0956 47.8671C41.7767 47.735 41.5041 47.5113 41.3123 47.2243C41.1205 46.9372 41.0181 46.5998 41.0181 46.2546C41.0181 45.7916 41.202 45.3477 41.5294 45.0203C41.8567 44.693 42.3007 44.5091 42.7636 44.5091Z" fill="white"/>
</g>
<defs>
<clipPath id="clip0_1957_6179">
<rect width="48" height="48" fill="white" transform="translate(24 24)"/>
</clipPath>
</defs>
</svg>
