<svg width="394" height="106" viewBox="0 0 394 106" fill="none" xmlns="http://www.w3.org/2000/svg">
<rect x="290.5" y="2.5" width="101" height="101" rx="50.5" fill="#8EA4FF"/>
<rect x="290.5" y="2.5" width="101" height="101" rx="50.5" stroke="white" stroke-width="5"/>
<g clip-path="url(#clip0_1968_55)">
<path d="M317 73.25V75.5938C317 76.3704 317.63 77 318.406 77H340.906C341.683 77 342.312 76.3704 342.312 75.5938V73.25C342.312 71.6967 341.053 70.4375 339.5 70.4375H319.812C318.259 70.4375 317 71.6967 317 73.25Z" fill="white"/>
<path d="M339.5 65.75C339.5 64.1967 338.241 62.9375 336.688 62.9375H322.625C321.072 62.9375 319.812 64.1967 319.812 65.75V67.625H339.5V65.75Z" fill="white"/>
<path d="M326.11 44.0276C324.838 44.9185 324.529 46.6723 325.42 47.9446L332.41 57.9281C333.301 59.2005 335.055 59.5097 336.327 58.6187C337.6 57.7278 337.909 55.9741 337.018 54.7017L330.027 44.7182C329.136 43.4459 327.383 43.1366 326.11 44.0276Z" fill="white"/>
<path d="M346.845 29.5089C345.573 30.3998 345.263 32.1536 346.154 33.4259L353.145 43.4094C354.036 44.6817 355.79 44.991 357.062 44.1C358.334 43.2091 358.644 41.4553 357.753 40.183L350.762 30.1995C349.871 28.9271 348.117 28.618 346.845 29.5089Z" fill="white"/>
<path d="M331.954 42.5666L339.699 53.627C342.076 52.9483 344.232 51.9347 346.155 50.5885C348.077 49.2422 349.767 47.5633 351.218 45.561L343.473 34.5006C338.718 35.8583 334.856 38.5621 331.954 42.5666Z" fill="white"/>
<path d="M354.617 67.542L359.224 64.3132L360.838 66.6167L356.232 69.8454L354.617 67.542Z" fill="white"/>
<path d="M364.491 71.8721L362.441 68.9449L357.834 72.1714L359.883 75.0985C360.774 76.3709 362.528 76.6802 363.8 75.7892C365.073 74.8983 365.382 73.1445 364.491 71.8721Z" fill="white"/>
<path d="M349.973 51.1375C349.269 51.7694 348.534 52.3558 347.768 52.8923C347.002 53.4287 346.199 53.919 345.365 54.3638L352.994 65.2598L357.602 62.0334L349.973 51.1375Z" fill="white"/>
</g>
<rect x="2.5" y="2.5" width="101" height="101" rx="50.5" fill="#8EA4FF"/>
<rect x="2.5" y="2.5" width="101" height="101" rx="50.5" stroke="white" stroke-width="5"/>
<g clip-path="url(#clip1_1968_55)">
<path d="M33.3125 48.875H34.25C34.25 44.998 37.4042 41.8438 41.2812 41.8438C45.1583 41.8438 48.3125 44.998 48.3125 48.875H57.6875C57.6875 44.998 60.8417 41.8438 64.7188 41.8438C68.5958 41.8438 71.75 44.998 71.75 48.875H72.6875C73.4641 48.875 74.0938 48.2454 74.0938 47.4688V45.875C74.0938 41.998 70.9395 38.8438 67.0625 38.8438H36.125C33.7988 38.8438 31.9062 40.7363 31.9062 43.0625V47.4688C31.9062 48.2454 32.5359 48.875 33.3125 48.875Z" fill="white"/>
<path d="M62.3992 32.6166C61.1597 30.3858 58.8045 29 56.2527 29H51.5938V36.0312H64.2962L62.3992 32.6166Z" fill="white"/>
<path d="M48.7812 29H42.1311C40.1386 29 38.4451 30.3584 38.0127 32.3036L37.1844 36.0312H48.7812V29Z" fill="white"/>
<path d="M51.212 66.6222C48.6941 68.5107 45.1316 68.0584 43.1654 65.6007C41.1355 63.0633 41.5732 59.3558 44.1382 57.3608L48.4189 54.0312H30.4062C29.6296 54.0312 29 54.6609 29 55.4375V68.0938C29 68.8704 29.6296 69.5 30.4062 69.5H40.23L45.1646 74.4344C46.8072 76.0771 49.0351 77 51.3582 77C53.3472 77 55.277 76.3231 56.8301 75.0806L62.0488 70.9055L55.4297 63.4589L51.212 66.6222Z" fill="white"/>
<path d="M37.0625 48.875C37.0625 49.7424 37.3245 50.5483 37.7734 51.2188H44.7891C45.2379 50.5483 45.5 49.7424 45.5 48.875C45.5 46.545 43.6112 44.6562 41.2812 44.6562C38.9513 44.6562 37.0625 46.545 37.0625 48.875Z" fill="white"/>
<path d="M60.5 48.875C60.5 49.7424 60.762 50.5483 61.2109 51.2188H68.2266C68.6754 50.5483 68.9375 49.7424 68.9375 48.875C68.9375 46.545 67.0487 44.6562 64.7188 44.6562C62.3888 44.6562 60.5 46.545 60.5 48.875Z" fill="white"/>
<path d="M75.5937 54.0312H53.4825C53.1698 54.0312 52.866 54.1355 52.6192 54.3275L45.8649 59.5809C44.5378 60.613 44.3114 62.5311 45.3616 63.8438C46.3788 65.1153 48.2218 65.3492 49.5245 64.3722L54.7773 60.4326C55.3624 59.9938 56.1862 60.0767 56.6721 60.6234L64.5625 69.5H75.5937C76.3704 69.5 77 68.8704 77 68.0938V55.4375C77 54.6609 76.3704 54.0312 75.5937 54.0312Z" fill="white"/>
</g>
<rect x="74.5" y="2.5" width="101" height="101" rx="50.5" fill="#6886FF"/>
<rect x="74.5" y="2.5" width="101" height="101" rx="50.5" stroke="white" stroke-width="5"/>
<path d="M111.908 55.5423V62.3155C111.908 62.3155 117.652 68.6659 125.733 68.6659C135.897 68.6659 139.557 62.3155 139.557 62.3155V54.9673L127.622 61.9423C126.77 62.4405 125.718 62.4751 124.834 62.0311L111.908 55.5423Z" fill="white"/>
<path d="M126.031 47.479C124.539 47.479 123.054 47.1674 122.252 46.5202L107.903 51.4903L124.931 60.0141C125.811 60.4551 126.859 60.422 127.706 59.9238L147.549 48.3565C148.475 47.8177 149.03 46.8137 148.998 45.742C148.967 44.6703 148.344 43.704 147.388 43.2254L126.838 32.942C125.957 32.501 124.913 32.5341 124.062 33.0308L104.22 44.5966C103.294 45.1354 102.738 46.1394 102.772 47.2111C102.806 48.2813 103.425 49.2476 104.384 49.7277L104.34 60.2293C103.313 60.5891 102.579 61.5719 102.579 62.7174C102.579 63.5678 102.979 64.3234 103.605 64.8111C103.407 66.2606 102.731 67.3036 101.93 68.0502C101.289 68.6463 100.95 69.4997 101.006 70.3757C101.062 71.2487 101.507 72.054 102.221 72.5627L102.585 72.8246C103.261 73.3063 104.11 73.4809 104.921 73.2942C105.732 73.1076 106.426 72.5943 106.831 71.8719C108.228 69.3763 107.55 66.1356 107.088 64.5808C107.566 64.1052 107.862 63.4444 107.862 62.7174C107.862 61.5765 107.137 60.6026 106.121 60.2354L106.163 50.2079L121.74 44.8133C121.875 44.1526 122.542 43.5445 122.542 43.5445C122.491 43.7236 122.592 45.8986 125.887 45.8986C127.78 45.8986 129.311 45.295 129.311 44.0608C129.311 43.835 129.258 43.5896 129.16 43.3368C129.693 43.993 130.011 44.7336 130.011 45.3401C130.014 46.7761 128.23 47.479 126.031 47.479Z" fill="white"/>
<rect x="218.5" y="2.5" width="101" height="101" rx="50.5" fill="#6886FF"/>
<rect x="218.5" y="2.5" width="101" height="101" rx="50.5" stroke="white" stroke-width="5"/>
<g clip-path="url(#clip2_1968_55)">
<path d="M267.594 33.2188C267.594 30.8926 265.701 29 263.375 29C261.049 29 259.156 30.8926 259.156 33.2188V51.5938H267.594V33.2188Z" fill="white"/>
<path d="M276.031 61.4375C276.031 59.1113 274.139 57.2188 271.812 57.2188C269.981 57.2188 268.435 56.0396 267.853 54.4062H258.897C258.315 56.0396 256.769 57.2188 254.938 57.2188C252.611 57.2188 250.719 59.1113 250.719 61.4375V62.8438H276.031V61.4375Z" fill="white"/>
<path d="M291.594 74.1875H278.319C277.035 71.5577 276.3 68.5771 276.114 65.6562H250.802C250.966 68.5559 251.634 71.512 252.757 74.1875H246.406C245.629 74.1875 245 74.8167 245 75.5938C245 76.3708 245.629 77 246.406 77H291.594C292.371 77 293 76.3708 293 75.5938C293 74.8167 292.371 74.1875 291.594 74.1875ZM259.792 74.1875C259.256 72.9248 258.787 71.5398 258.463 70.2075C258.279 69.452 258.743 68.691 259.497 68.5087C260.249 68.319 261.011 68.7874 261.196 69.5425C261.577 71.1146 262.139 72.7355 262.851 74.1875H259.792ZM268.235 74.1875C267.696 72.9255 267.224 71.5405 266.9 70.2075C266.716 69.452 267.18 68.691 267.934 68.5087C268.683 68.319 269.449 68.7874 269.633 69.5425C270.014 71.1146 270.577 72.7355 271.288 74.1875H268.235Z" fill="white"/>
<path d="M291.594 54.4062C289.268 54.4062 287.375 52.5137 287.375 50.1875C287.375 49.4104 286.746 48.7812 285.969 48.7812C285.192 48.7812 284.562 49.4104 284.562 50.1875C284.562 52.5137 282.67 54.4062 280.344 54.4062C279.567 54.4062 278.938 55.0354 278.938 55.8125C278.938 56.5896 279.567 57.2188 280.344 57.2188C282.67 57.2188 284.562 59.1113 284.562 61.4375C284.562 62.2146 285.192 62.8438 285.969 62.8438C286.746 62.8438 287.375 62.2146 287.375 61.4375C287.375 59.1113 289.268 57.2188 291.594 57.2188C292.371 57.2188 293 56.5896 293 55.8125C293 55.0354 292.371 54.4062 291.594 54.4062Z" fill="white"/>
<path d="M271.812 45.9688C274.139 45.9688 276.031 47.8613 276.031 50.1875C276.031 50.9646 276.66 51.5938 277.438 51.5938C278.215 51.5938 278.844 50.9646 278.844 50.1875C278.844 47.8613 280.736 45.9688 283.062 45.9688C283.84 45.9688 284.469 45.3396 284.469 44.5625C284.469 43.7854 283.84 43.1562 283.062 43.1562C280.736 43.1562 278.844 41.2637 278.844 38.9375C278.844 38.1604 278.215 37.5312 277.438 37.5312C276.66 37.5312 276.031 38.1604 276.031 38.9375C276.031 41.2637 274.139 43.1562 271.812 43.1562C271.035 43.1562 270.406 43.7854 270.406 44.5625C270.406 45.3396 271.035 45.9688 271.812 45.9688Z" fill="white"/>
</g>
<rect x="146.5" y="2.5" width="101" height="101" rx="50.5" fill="#4268FF"/>
<rect x="146.5" y="2.5" width="101" height="101" rx="50.5" stroke="white" stroke-width="5"/>
<g clip-path="url(#clip3_1968_55)">
<path d="M219.432 30.5681C217.341 28.4771 213.938 28.4774 211.848 30.5681L204.022 38.3937L186.618 33.9701C184.317 33.3851 181.844 34.0647 180.165 35.7437L178.601 37.3075C178.291 37.6181 178.142 38.0551 178.197 38.4909C178.253 38.9267 178.507 39.3123 178.885 39.5352L193.989 48.4265L189.448 52.9681L180.921 52.4C179.345 52.2947 177.8 52.8755 176.682 53.9928L173.416 57.2591C173.064 57.611 172.922 58.1215 173.042 58.6046C173.161 59.0876 173.525 59.4729 174.001 59.6199L186.512 63.488L190.38 75.9994C190.527 76.4748 190.912 76.8387 191.396 76.9583C191.509 76.9863 191.623 76.9999 191.737 76.9999C192.109 76.9999 192.471 76.8535 192.741 76.5839L196.007 73.3178C197.125 72.2004 197.705 70.6552 197.6 69.0785L197.031 60.5525L201.556 56.0281L210.466 71.1165C210.689 71.4945 211.074 71.748 211.51 71.8032C211.945 71.8584 212.382 71.709 212.692 71.3985L214.249 69.8416C215.934 68.1572 216.611 65.6778 216.018 63.3708L211.559 46.0246L219.432 38.152C221.523 36.0612 221.523 32.659 219.432 30.5681Z" fill="white"/>
</g>
<defs>
<clipPath id="clip0_1968_55">
<rect width="48" height="48" fill="white" transform="translate(317 29)"/>
</clipPath>
<clipPath id="clip1_1968_55">
<rect width="48" height="48" fill="white" transform="translate(29 29)"/>
</clipPath>
<clipPath id="clip2_1968_55">
<rect width="48" height="48" fill="white" transform="translate(245 29)"/>
</clipPath>
<clipPath id="clip3_1968_55">
<rect width="48" height="48" fill="white" transform="translate(173 29)"/>
</clipPath>
</defs>
</svg>
