<svg width="96" height="96" viewBox="0 0 96 96" fill="none" xmlns="http://www.w3.org/2000/svg">
<rect width="96" height="96" rx="48" fill="#4268FF"/>
<g clip-path="url(#clip0_1957_6520)">
<path d="M62.5312 32.5065C62.5312 30.2344 61.6464 28.0982 60.0398 26.4915C58.4331 24.8848 56.2969 24 54.0247 24C51.7526 24 49.6165 24.8848 48.0098 26.4915L48 26.5013L47.9902 26.4915C46.3836 24.8848 44.2475 24 41.9752 24C39.703 24 37.5669 24.8848 35.9602 26.4915C34.3536 28.0982 33.4688 30.2344 33.4688 32.5065C33.4688 34.7786 34.3536 36.9148 35.9602 38.5215L47.0056 49.5669C47.2692 49.8307 47.627 49.9789 47.9999 49.9789C48.3728 49.9789 48.7306 49.8307 48.9942 49.5669L60.0396 38.5216C61.6464 36.9148 62.5312 34.7786 62.5312 32.5065ZM50.8125 38.0624H49.4062V39.4688C49.4062 40.2454 48.7766 40.875 48 40.875C47.2234 40.875 46.5938 40.2454 46.5938 39.4688V38.0624H45.1875C44.4109 38.0624 43.7812 37.4328 43.7812 36.6562C43.7812 35.8795 44.4109 35.2499 45.1875 35.2499H46.5938V33.8438C46.5938 33.0671 47.2234 32.4375 48 32.4375C48.7766 32.4375 49.4062 33.0671 49.4062 33.8438V35.2499H50.8125C51.5891 35.2499 52.2188 35.8795 52.2188 36.6562C52.2188 37.4328 51.5891 38.0624 50.8125 38.0624Z" fill="white"/>
<path d="M69.6562 33.5625C67.0674 33.5625 64.9688 35.6612 64.9688 38.25V45.2353C66.0275 45.8794 66.9291 46.7836 67.5669 47.8884C68.9885 50.3509 68.1419 53.5105 65.6797 54.9321L61.2357 57.4977C60.582 57.8752 59.747 57.6692 59.3438 57.031C58.9171 56.3558 59.1378 55.4613 59.8295 55.062L64.2734 52.4963C65.3944 51.8491 65.7785 50.4158 65.1313 49.2947C63.8369 47.0527 60.9701 46.2846 58.7281 47.579L53.9531 50.3359C51.2063 51.9218 49.5 54.8772 49.5 58.0489V70.5938C49.5 71.3704 50.1296 72 50.9062 72H62.1562C62.9329 72 63.5625 71.3704 63.5625 70.5938V66.7618C63.5625 64.8677 64.4199 63.1146 65.9151 61.9517L67.2383 60.9224C70.2644 58.5689 72 55.0204 72 51.1867V35.9062C72 34.6118 70.9507 33.5625 69.6562 33.5625Z" fill="white"/>
<path d="M42.0468 50.3359L37.272 47.5791C35.0299 46.2847 32.1632 47.0528 30.8687 49.2948C30.2215 50.4158 30.6056 51.8492 31.7267 52.4964L36.1706 55.0621C36.8623 55.4615 37.0829 56.3559 36.6563 57.0311C36.2531 57.6692 35.4181 57.8752 34.7643 57.4978L30.3204 54.9322C27.8582 53.5106 27.0116 50.3509 28.4331 47.8885C29.071 46.7837 29.9726 45.8795 31.0313 45.2354V38.25C31.0313 35.6612 28.9326 33.5625 26.3438 33.5625C25.0494 33.5625 24.0001 34.6118 24.0001 35.9062V51.1867C24.0001 55.0204 25.7357 58.5689 28.7617 60.9225L30.085 61.9518C31.58 63.1146 32.4375 64.8678 32.4375 66.7618V70.5938C32.4375 71.3704 33.0671 72 33.8437 72H45.0937C45.8703 72 46.5 71.3704 46.5 70.5938V58.0489C46.5 54.8772 44.7936 51.9217 42.0468 50.3359Z" fill="white"/>
</g>
<defs>
<clipPath id="clip0_1957_6520">
<rect width="48" height="48" fill="white" transform="translate(24 24)"/>
</clipPath>
</defs>
</svg>
