<svg width="96" height="96" viewBox="0 0 96 96" fill="none" xmlns="http://www.w3.org/2000/svg">
<rect width="96" height="96" rx="48" fill="#4268FF"/>
<path d="M69 39.675V40.785H27V39.675C27 35.76 30.18 32.58 34.095 32.58H61.905C65.82 32.58 69 35.76 69 39.675Z" fill="white"/>
<path d="M27 43.0349V56.3249C27 60.2399 30.18 63.4199 34.095 63.4199H61.905C65.82 63.4199 69 60.2399 69 56.3249V43.0349H27ZM33.546 49.0184H37.5645C38.31 49.0184 38.9145 49.6229 38.9145 50.3684C38.9145 51.1139 38.31 51.7184 37.5645 51.7184H33.546C32.8005 51.7184 32.196 51.1139 32.196 50.3684C32.196 49.6229 32.8005 49.0184 33.546 49.0184ZM41.778 57.4229H33.546C32.8005 57.4229 32.196 56.8184 32.196 56.0729C32.196 55.3274 32.8005 54.7229 33.546 54.7229H41.7765C42.522 54.7229 43.1265 55.3274 43.1265 56.0729C43.1265 56.8184 42.5235 57.4229 41.778 57.4229Z" fill="white"/>
</svg>
