<svg width="96" height="96" viewBox="0 0 96 96" fill="none" xmlns="http://www.w3.org/2000/svg">
<rect width="96" height="96" rx="48" fill="#4268FF"/>
<g clip-path="url(#clip0_1957_6556)">
<path fill-rule="evenodd" clip-rule="evenodd" d="M28.6039 69.2452H26.6364C25.1843 69.2452 24 68.0608 24 66.6087V36.1938C24 35.4189 24.2971 34.7519 24.8733 34.2337L34.1815 25.8606C35.3763 24.7859 36.6077 23.9999 38.2146 23.9999C39.7322 23.9999 40.9149 24.7013 42.0481 25.6844C41.0408 26.0809 40.1443 26.7246 39.2823 27.5L29.974 35.8731C29.0817 36.6757 28.604 37.7483 28.604 38.9485L28.6039 69.2452ZM42.2753 56.0448L43.7648 54.9627V68.4853C43.7648 70.4184 45.3464 72.0001 47.2794 72.0001H51.7807V60.315C51.7807 59.4057 52.5247 58.6617 53.4339 58.6617H56.941C57.8503 58.6617 58.5943 59.4057 58.5943 60.315V72.0001H63.0955C65.0286 72.0001 66.6102 70.4184 66.6102 68.4853V54.9628L68.0996 56.0449C69.1988 56.8415 70.7357 56.5961 71.5323 55.4969C72.3288 54.3977 72.0834 52.8608 70.9842 52.0642L56.6723 41.666C55.8325 41.0291 54.6429 40.9846 53.7452 41.6351L39.3907 52.0642C38.2915 52.8607 38.0462 54.3977 38.8427 55.4969C39.6393 56.5961 41.1761 56.8414 42.2753 56.0448ZM58.5329 38.9484C58.5329 38.1735 58.2357 37.5064 57.6596 36.9883L48.3513 28.6152C47.1566 27.5407 45.9252 26.7544 44.3183 26.7544C42.7115 26.7544 41.4801 27.5404 40.2853 28.6152L30.9771 36.9883C30.401 37.5064 30.1038 38.1735 30.1038 38.9484V69.3633C30.1038 70.8154 31.2881 71.9999 32.7402 71.9999H43.7092C42.8168 71.0936 42.2647 69.8517 42.2647 68.4853V57.746C40.6285 58.3822 38.7061 57.8647 37.628 56.3769C36.3458 54.6076 36.7418 52.1345 38.509 50.8506L52.8635 40.4215C54.2703 39.3993 56.1796 39.4191 57.5649 40.4604L58.5329 41.1636V38.9484ZM42.1872 32.4255C42.1872 31.2485 43.1415 30.2943 44.3184 30.2943C45.4953 30.2943 46.4497 31.2485 46.4497 32.4255C46.4497 33.6024 45.4954 34.5567 44.3184 34.5567C43.1415 34.5567 42.1872 33.6023 42.1872 32.4255Z" fill="white"/>
</g>
<defs>
<clipPath id="clip0_1957_6556">
<rect width="48" height="48" fill="white" transform="translate(24 24)"/>
</clipPath>
</defs>
</svg>
