<svg width="96" height="96" viewBox="0 0 96 96" fill="none" xmlns="http://www.w3.org/2000/svg">
<rect width="96" height="96" rx="48" fill="#4268FF"/>
<path d="M66.6334 29.795C63.3055 29.795 60.2542 27.8411 58.8595 24.8172C58.6298 24.319 58.1312 24 57.5826 24H38.4175C37.8688 24 37.3704 24.319 37.1406 24.8173C35.7459 27.8411 32.6944 29.795 29.3666 29.795C28.59 29.795 27.9604 30.4246 27.9604 31.2012V46.7741C27.9604 52.6076 33.0263 59.0748 37.276 63.4728C39.9882 66.2797 42.505 68.3904 43.7637 69.3988C47.011 72 47.6061 72 47.9998 72H48.0043C48.3983 72 49.0014 71.9902 52.2362 69.3989C53.495 68.3906 56.0117 66.2798 58.724 63.473C62.9738 59.0749 68.0396 52.6077 68.0396 46.7742V31.2012C68.0396 30.4246 67.41 29.795 66.6334 29.795ZM44.828 62.026C43.96 61.3307 42.2245 59.8753 40.3549 57.9403C37.3951 54.8773 33.867 50.3585 33.867 46.2252V35.5888C33.867 34.8122 34.4966 34.1826 35.2733 34.1826C37.3729 34.1826 39.2981 32.9497 40.1781 31.0417C40.4079 30.5436 40.9064 30.2244 41.455 30.2244H54.545C55.0937 30.2244 55.5922 30.5435 55.822 31.0417C56.7019 32.9497 58.6271 34.1826 60.7268 34.1826C61.5034 34.1826 62.133 34.8122 62.133 35.5888V46.2252C62.133 50.3585 58.6048 54.8773 55.6451 57.9404C53.7755 59.8754 52.0401 61.3308 51.172 62.0261C48.8441 63.8908 48.3944 63.9005 48.0058 63.9005C48.0039 63.9005 48.0018 63.9005 47.9998 63.9005C47.61 63.9005 47.168 63.9005 44.828 62.026Z" fill="white"/>
<path d="M54.0095 55.5805C57.4344 51.9405 59.3206 48.618 59.3206 46.2253V36.8729C56.9963 36.4658 54.9348 35.0663 53.7027 33.037H42.2973C41.0652 35.0663 39.0038 36.4658 36.6795 36.8729V46.2253C36.6795 48.618 38.5657 51.9405 41.9906 55.5805C44.4558 58.2004 46.9468 60.1712 48 60.8935C49.0531 60.1712 51.5443 58.2005 54.0095 55.5805ZM46.4477 53.4185V53.0325C45.6181 52.9215 44.9085 52.6489 43.9647 52.0314C43.3148 51.6062 43.1326 50.7346 43.5578 50.0847C43.9829 49.4347 44.8544 49.2525 45.5045 49.6777C46.3698 50.2439 46.6999 50.2963 47.8446 50.2879C48.9339 50.2807 49.5661 49.4688 49.6924 48.7175C49.7678 48.2696 49.7365 47.4624 48.6813 47.0895C47.3149 46.6066 45.9154 46.0537 44.9369 45.2863C43.9425 44.5064 43.4865 43.1623 43.7473 41.7786C44.0276 40.2913 45.0613 39.1058 46.4479 38.6768V38.2447C46.4479 37.4681 47.0775 36.8385 47.8541 36.8385C48.6308 36.8385 49.2604 37.4681 49.2604 38.2447V38.5899C50.1339 38.8115 50.7443 39.2122 50.996 39.4004C51.6179 39.8655 51.745 40.7467 51.2799 41.3687C50.8148 41.9906 49.9335 42.1178 49.3116 41.6527C49.0529 41.4593 48.3378 41.0437 47.2863 41.3604C46.6979 41.5377 46.5443 42.124 46.5112 42.2994C46.4485 42.6314 46.515 42.9496 46.6727 43.0733C47.3338 43.5918 48.5329 44.054 49.6187 44.4378C51.6767 45.1653 52.821 47.0726 52.4661 49.1839C52.2038 50.7437 51.0556 52.3243 49.2604 52.886V53.4186C49.2604 54.1952 48.6308 54.8249 47.8541 54.8249C47.0775 54.8249 46.4477 54.1951 46.4477 53.4185Z" fill="white"/>
</svg>
