<svg width="290" height="225" viewBox="0 0 290 225" fill="none" xmlns="http://www.w3.org/2000/svg">
<g clip-path="url(#clip0_1960_7249)">
<rect x="290" y="81" width="1.00001" height="290" transform="rotate(90 290 81)" fill="#535662" fill-opacity="0.08"/>
<rect x="290" y="112" width="1.00001" height="290" transform="rotate(90 290 112)" fill="#535662" fill-opacity="0.08"/>
<rect x="290" y="143" width="1.00001" height="290" transform="rotate(90 290 143)" fill="#535662" fill-opacity="0.08"/>
<path d="M1.24222 71V62.5143H0.232013L0.501401 61.5714H2.18507V71H1.24222ZM7.2785 71.1751C6.71279 71.1751 6.20769 71.0494 5.7632 70.798C5.31871 70.542 4.93932 70.1896 4.62503 69.7406C4.31075 69.2916 4.07054 68.7731 3.90442 68.1849C3.74279 67.5922 3.66197 66.9592 3.66197 66.2857C3.66197 65.6122 3.74279 64.9792 3.90442 64.3865C4.07054 63.7939 4.31075 63.2753 4.62503 62.8308C4.93932 62.3818 5.31871 62.0316 5.7632 61.7802C6.20769 61.5243 6.71279 61.3963 7.2785 61.3963C7.83973 61.3963 8.34258 61.5243 8.78707 61.7802C9.23156 62.0316 9.60871 62.3818 9.9185 62.8308C10.2283 63.2753 10.464 63.7939 10.6256 64.3865C10.7918 64.9792 10.8748 65.6122 10.8748 66.2857C10.8748 66.9592 10.7918 67.5922 10.6256 68.1849C10.464 68.7731 10.2283 69.2916 9.9185 69.7406C9.60871 70.1896 9.23156 70.542 8.78707 70.798C8.34258 71.0494 7.83973 71.1751 7.2785 71.1751ZM7.2785 70.2322C7.87116 70.2322 8.36728 70.0504 8.76687 69.6867C9.17095 69.3231 9.47401 68.8427 9.67605 68.2455C9.87809 67.6439 9.97912 66.9906 9.97912 66.2857C9.97912 65.5404 9.87361 64.8714 9.66258 64.2788C9.45605 63.6816 9.15075 63.2102 8.74667 62.8645C8.34707 62.5143 7.85769 62.3392 7.2785 62.3392C6.82054 62.3392 6.42095 62.4447 6.07973 62.6557C5.7385 62.8667 5.45565 63.1563 5.23116 63.5245C5.00667 63.8927 4.8383 64.3147 4.72605 64.7906C4.61381 65.262 4.55769 65.7604 4.55769 66.2857C4.55769 66.9951 4.66095 67.6506 4.86748 68.2522C5.07401 68.8494 5.37932 69.3298 5.7834 69.6935C6.18748 70.0527 6.68585 70.2322 7.2785 70.2322ZM12.3525 65.3429C12.2043 65.3429 12.0786 65.2912 11.9753 65.188C11.8721 65.0802 11.8204 64.95 11.8204 64.7973C11.8204 64.6537 11.8721 64.5302 11.9753 64.4269C12.0786 64.3192 12.2043 64.2653 12.3525 64.2653C12.5051 64.2653 12.6331 64.3192 12.7363 64.4269C12.8441 64.5302 12.898 64.6537 12.898 64.7973C12.898 64.95 12.8441 65.0802 12.7363 65.188C12.6331 65.2912 12.5051 65.3429 12.3525 65.3429ZM12.3525 71.1751C12.2043 71.1751 12.0786 71.1212 11.9753 71.0135C11.8721 70.9102 11.8204 70.7822 11.8204 70.6296C11.8204 70.4859 11.8721 70.3624 11.9753 70.2592C12.0786 70.1514 12.2043 70.0976 12.3525 70.0976C12.5051 70.0976 12.6331 70.1514 12.7363 70.2592C12.8441 70.3624 12.898 70.4859 12.898 70.6296C12.898 70.7822 12.8441 70.9102 12.7363 71.0135C12.6331 71.1212 12.5051 71.1751 12.3525 71.1751ZM17.7225 71.1751C17.1568 71.1751 16.6517 71.0494 16.2072 70.798C15.7627 70.542 15.3834 70.1896 15.0691 69.7406C14.7548 69.2916 14.5146 68.7731 14.3485 68.1849C14.1868 67.5922 14.106 66.9592 14.106 66.2857C14.106 65.6122 14.1868 64.9792 14.3485 64.3865C14.5146 63.7939 14.7548 63.2753 15.0691 62.8308C15.3834 62.3818 15.7627 62.0316 16.2072 61.7802C16.6517 61.5243 17.1568 61.3963 17.7225 61.3963C18.2838 61.3963 18.7866 61.5243 19.2311 61.7802C19.6756 62.0316 20.0527 62.3818 20.3625 62.8308C20.6723 63.2753 20.9081 63.7939 21.0697 64.3865C21.2358 64.9792 21.3189 65.6122 21.3189 66.2857C21.3189 66.9592 21.2358 67.5922 21.0697 68.1849C20.9081 68.7731 20.6723 69.2916 20.3625 69.7406C20.0527 70.1896 19.6756 70.542 19.2311 70.798C18.7866 71.0494 18.2838 71.1751 17.7225 71.1751ZM17.7225 70.2322C18.3152 70.2322 18.8113 70.0504 19.2109 69.6867C19.615 69.3231 19.9181 68.8427 20.1201 68.2455C20.3221 67.6439 20.4232 66.9906 20.4232 66.2857C20.4232 65.5404 20.3176 64.8714 20.1066 64.2788C19.9001 63.6816 19.5948 63.2102 19.1907 62.8645C18.7911 62.5143 18.3017 62.3392 17.7225 62.3392C17.2646 62.3392 16.865 62.4447 16.5238 62.6557C16.1825 62.8667 15.8997 63.1563 15.6752 63.5245C15.4507 63.8927 15.2823 64.3147 15.1701 64.7906C15.0578 65.262 15.0017 65.7604 15.0017 66.2857C15.0017 66.9951 15.105 67.6506 15.3115 68.2522C15.5181 68.8494 15.8234 69.3298 16.2274 69.6935C16.6315 70.0527 17.1299 70.2322 17.7225 70.2322ZM23.2747 71V62.5143H22.2645L22.5338 61.5714H24.2175V71H23.2747Z" fill="#0C1021" fill-opacity="0.5"/>
<path d="M45.8082 71V61.5714H46.751V70.0571H51.0814V71H45.8082ZM54.8353 71.1751C54.2157 71.1751 53.65 71.0157 53.1381 70.6969C52.6308 70.3782 52.2245 69.9516 51.9192 69.4173C51.6183 68.8786 51.4679 68.2837 51.4679 67.6327C51.4679 67.1388 51.5555 66.6786 51.7306 66.252C51.9057 65.821 52.1459 65.4439 52.4512 65.1206C52.761 64.7929 53.1202 64.5369 53.5288 64.3529C53.9373 64.1688 54.3728 64.0767 54.8353 64.0767C55.3337 64.0767 55.7916 64.1755 56.2092 64.3731C56.6312 64.5706 56.9926 64.8467 57.2934 65.2014C57.5988 65.5561 57.8277 65.9714 57.9804 66.4473C58.1375 66.9233 58.2026 67.4373 58.1757 67.9896H52.4647C52.5185 68.4161 52.6532 68.7978 52.8688 69.1345C53.0888 69.4712 53.3671 69.7384 53.7039 69.9359C54.0451 70.129 54.4222 70.2278 54.8353 70.2322C55.2843 70.2322 55.6883 70.1155 56.0475 69.882C56.4112 69.6486 56.703 69.3276 56.923 68.919L57.8794 69.1412C57.61 69.7384 57.2037 70.2278 56.6604 70.6094C56.1171 70.9865 55.5088 71.1751 54.8353 71.1751ZM52.4377 67.2286H57.2261C57.1947 66.811 57.0667 66.4294 56.8422 66.0837C56.6222 65.7335 56.3371 65.4551 55.9869 65.2486C55.6367 65.0376 55.2528 64.932 54.8353 64.932C54.4177 64.932 54.0361 65.0353 53.6904 65.2418C53.3447 65.4439 53.0618 65.72 52.8418 66.0702C52.6218 66.4159 52.4871 66.802 52.4377 67.2286ZM64.8003 64.2653H65.7432V71H64.8003L64.7666 69.7473C64.5466 70.1739 64.2391 70.5196 63.844 70.7845C63.4489 71.0449 62.9775 71.1751 62.4297 71.1751C61.9358 71.1751 61.4734 71.0831 61.0424 70.899C60.6113 70.7104 60.2319 70.4522 59.9042 70.1245C59.5764 69.7967 59.3205 69.4173 59.1364 68.9863C58.9524 68.5553 58.8603 68.0929 58.8603 67.599C58.8603 67.1141 58.9501 66.6584 59.1297 66.2318C59.3138 65.8053 59.5652 65.4304 59.884 65.1071C60.2073 64.7839 60.5799 64.5324 61.0019 64.3529C61.4285 64.1688 61.8842 64.0767 62.3691 64.0767C62.9303 64.0767 63.4197 64.2114 63.8373 64.4808C64.2548 64.7457 64.5871 65.0937 64.834 65.5247L64.8003 64.2653ZM62.4095 70.2592C62.8899 70.2592 63.303 70.1424 63.6487 69.909C63.9944 69.671 64.2593 69.3522 64.4434 68.9527C64.632 68.5531 64.7262 68.1131 64.7262 67.6327C64.7262 67.1388 64.632 66.6943 64.4434 66.2992C64.2548 65.8996 63.9877 65.5831 63.6419 65.3496C63.2962 65.1161 62.8854 64.9994 62.4095 64.9994C61.9336 64.9994 61.4981 65.1184 61.103 65.3563C60.7124 65.5898 60.4003 65.9063 60.1668 66.3059C59.9379 66.7055 59.8234 67.1478 59.8234 67.6327C59.8234 68.122 59.9424 68.5665 60.1803 68.9661C60.4183 69.3612 60.7326 69.6755 61.1232 69.909C61.5183 70.1424 61.9471 70.2592 62.4095 70.2592ZM72.502 60.898H73.4448V71H72.502V69.7406C72.2685 70.1716 71.9475 70.5196 71.5389 70.7845C71.1348 71.0449 70.6544 71.1751 70.0977 71.1751C69.6083 71.1751 69.1503 71.0831 68.7238 70.899C68.2973 70.7149 67.9201 70.4612 67.5924 70.138C67.2691 69.8102 67.0154 69.4331 66.8314 69.0065C66.6473 68.58 66.5552 68.122 66.5552 67.6327C66.5552 67.1433 66.6473 66.6853 66.8314 66.2588C67.0154 65.8278 67.2691 65.4506 67.5924 65.1273C67.9201 64.7996 68.2973 64.5437 68.7238 64.3596C69.1503 64.1755 69.6083 64.0835 70.0977 64.0835C70.6544 64.0835 71.1348 64.2159 71.5389 64.4808C71.9475 64.7412 72.2685 65.0847 72.502 65.5112V60.898ZM70.1044 70.2592C70.5848 70.2592 70.9979 70.1424 71.3436 69.909C71.6893 69.671 71.9542 69.3522 72.1383 68.9527C72.3269 68.5531 72.4212 68.1131 72.4212 67.6327C72.4212 67.1388 72.3269 66.6943 72.1383 66.2992C71.9497 65.8996 71.6826 65.5831 71.3369 65.3496C70.9912 65.1161 70.5803 64.9994 70.1044 64.9994C69.6285 64.9994 69.1952 65.1184 68.8046 65.3563C68.414 65.5898 68.102 65.9063 67.8685 66.3059C67.635 66.7055 67.5183 67.1478 67.5183 67.6327C67.5183 68.122 67.6373 68.5665 67.8752 68.9661C68.1132 69.3612 68.4275 69.6755 68.8181 69.909C69.2132 70.1424 69.642 70.2592 70.1044 70.2592ZM83.1064 69.3096L83.9482 69.7676C83.6429 70.1941 83.2545 70.5353 82.7831 70.7912C82.3162 71.0471 81.8088 71.1751 81.2611 71.1751C80.6415 71.1751 80.0758 71.0157 79.5639 70.6969C79.0566 70.3782 78.6503 69.9516 78.3449 69.4173C78.0441 68.8786 77.8937 68.2837 77.8937 67.6327C77.8937 67.1388 77.9813 66.6786 78.1564 66.252C78.3315 65.821 78.5717 65.4439 78.877 65.1206C79.1868 64.7929 79.546 64.5369 79.9545 64.3529C80.3631 64.1688 80.7986 64.0767 81.2611 64.0767C81.8088 64.0767 82.3162 64.2047 82.7831 64.4606C83.2545 64.7165 83.6429 65.06 83.9482 65.491L83.1064 65.9422C82.8729 65.6459 82.5923 65.4192 82.2645 65.262C81.9368 65.1004 81.6023 65.0196 81.2611 65.0196C80.8076 65.0196 80.3968 65.1408 80.0286 65.3833C79.6605 65.6212 79.3686 65.9378 79.1531 66.3329C78.9421 66.728 78.8366 67.1612 78.8366 67.6327C78.8366 68.1041 78.9443 68.5373 79.1598 68.9324C79.3798 69.3276 79.6739 69.6441 80.0421 69.882C80.4103 70.1155 80.8166 70.2322 81.2611 70.2322C81.6292 70.2322 81.9749 70.1469 82.2982 69.9763C82.6215 69.8057 82.8909 69.5835 83.1064 69.3096ZM90.6079 64.2653H91.5507V71H90.6079L90.5742 69.7473C90.3542 70.1739 90.0467 70.5196 89.6515 70.7845C89.2564 71.0449 88.785 71.1751 88.2373 71.1751C87.7434 71.1751 87.2809 71.0831 86.8499 70.899C86.4189 70.7104 86.0395 70.4522 85.7118 70.1245C85.384 69.7967 85.1281 69.4173 84.944 68.9863C84.7599 68.5553 84.6679 68.0929 84.6679 67.599C84.6679 67.1141 84.7577 66.6584 84.9373 66.2318C85.1213 65.8053 85.3728 65.4304 85.6915 65.1071C86.0148 64.7839 86.3875 64.5324 86.8095 64.3529C87.236 64.1688 87.6918 64.0767 88.1767 64.0767C88.7379 64.0767 89.2273 64.2114 89.6448 64.4808C90.0624 64.7457 90.3946 65.0937 90.6415 65.5247L90.6079 64.2653ZM88.2171 70.2592C88.6975 70.2592 89.1105 70.1424 89.4562 69.909C89.802 69.671 90.0669 69.3522 90.2509 68.9527C90.4395 68.5531 90.5338 68.1131 90.5338 67.6327C90.5338 67.1388 90.4395 66.6943 90.2509 66.2992C90.0624 65.8996 89.7952 65.5831 89.4495 65.3496C89.1038 65.1161 88.693 64.9994 88.2171 64.9994C87.7411 64.9994 87.3056 65.1184 86.9105 65.3563C86.5199 65.5898 86.2079 65.9063 85.9744 66.3059C85.7454 66.7055 85.6309 67.1478 85.6309 67.6327C85.6309 68.122 85.7499 68.5665 85.9879 68.9661C86.2258 69.3612 86.5401 69.6755 86.9307 69.909C87.3258 70.1424 87.7546 70.2592 88.2171 70.2592ZM93.8413 74.3673H92.8984V64.2653H93.8413V65.5247C94.0747 65.0982 94.3935 64.7524 94.7976 64.4875C95.2017 64.2227 95.6821 64.0902 96.2388 64.0902C96.7282 64.0902 97.1862 64.1822 97.6127 64.3663C98.0437 64.5504 98.4209 64.8063 98.7441 65.1341C99.0674 65.4573 99.3211 65.8322 99.5051 66.2588C99.6892 66.6853 99.7813 67.1433 99.7813 67.6327C99.7813 68.122 99.6892 68.5822 99.5051 69.0133C99.3211 69.4443 99.0674 69.8237 98.7441 70.1514C98.4209 70.4747 98.0437 70.7284 97.6127 70.9124C97.1862 71.0965 96.7282 71.1886 96.2388 71.1886C95.6821 71.1886 95.2017 71.0561 94.7976 70.7912C94.3935 70.5263 94.0747 70.1806 93.8413 69.7541V74.3673ZM96.2321 65.0061C95.7607 65.0061 95.3498 65.1251 94.9996 65.3631C94.6539 65.5965 94.3868 65.9108 94.1982 66.3059C94.0096 66.701 93.9154 67.1433 93.9154 67.6327C93.9154 68.1131 94.0074 68.5531 94.1915 68.9527C94.38 69.3522 94.6472 69.671 94.9929 69.909C95.3431 70.1469 95.7562 70.2659 96.2321 70.2659C96.699 70.2659 97.1278 70.1492 97.5184 69.9157C97.9135 69.6822 98.23 69.368 98.468 68.9729C98.706 68.5733 98.8249 68.1265 98.8249 67.6327C98.8249 67.1522 98.7082 66.7145 98.4747 66.3194C98.2413 65.9198 97.9292 65.601 97.5386 65.3631C97.148 65.1251 96.7125 65.0061 96.2321 65.0061ZM104.245 65.2082H102.636L102.629 71H101.686L101.693 65.2082H100.474V64.2653H101.693L101.686 62.1506H102.629L102.636 64.2653H104.245V65.2082ZM105.178 68.4206V64.2653H106.121V68.232C106.121 68.6002 106.21 68.9347 106.39 69.2355C106.569 69.5363 106.81 69.7765 107.111 69.9561C107.416 70.1357 107.75 70.2255 108.114 70.2255C108.482 70.2255 108.814 70.1357 109.111 69.9561C109.412 69.7765 109.652 69.5363 109.831 69.2355C110.011 68.9347 110.101 68.6002 110.101 68.232V64.2653H111.044L111.05 71H110.107L110.101 70.0571C109.863 70.3984 109.553 70.67 109.171 70.872C108.794 71.0741 108.381 71.1751 107.932 71.1751C107.425 71.1751 106.962 71.0516 106.545 70.8047C106.127 70.5578 105.795 70.2255 105.548 69.808C105.301 69.3904 105.178 68.928 105.178 68.4206ZM112.392 71V64.2653H113.335V65.1947C113.573 64.8535 113.883 64.5818 114.264 64.3798C114.646 64.1778 115.061 64.0767 115.51 64.0767C115.771 64.0767 116.022 64.1104 116.265 64.1778L115.881 65.1139C115.692 65.0555 115.508 65.0263 115.329 65.0263C114.965 65.0263 114.63 65.1161 114.325 65.2957C114.024 65.4753 113.784 65.7155 113.604 66.0163C113.425 66.3171 113.335 66.6516 113.335 67.0198V71H112.392ZM119.722 71.1751C119.103 71.1751 118.537 71.0157 118.025 70.6969C117.518 70.3782 117.112 69.9516 116.806 69.4173C116.506 68.8786 116.355 68.2837 116.355 67.6327C116.355 67.1388 116.443 66.6786 116.618 66.252C116.793 65.821 117.033 65.4439 117.338 65.1206C117.648 64.7929 118.007 64.5369 118.416 64.3529C118.825 64.1688 119.26 64.0767 119.722 64.0767C120.221 64.0767 120.679 64.1755 121.096 64.3731C121.518 64.5706 121.88 64.8467 122.181 65.2014C122.486 65.5561 122.715 65.9714 122.868 66.4473C123.025 66.9233 123.09 67.4373 123.063 67.9896H117.352C117.406 68.4161 117.54 68.7978 117.756 69.1345C117.976 69.4712 118.254 69.7384 118.591 69.9359C118.932 70.129 119.309 70.2278 119.722 70.2322C120.171 70.2322 120.576 70.1155 120.935 69.882C121.298 69.6486 121.59 69.3276 121.81 68.919L122.767 69.1412C122.497 69.7384 122.091 70.2278 121.548 70.6094C121.004 70.9865 120.396 71.1751 119.722 71.1751ZM117.325 67.2286H122.113C122.082 66.811 121.954 66.4294 121.729 66.0837C121.509 65.7335 121.224 65.4551 120.874 65.2486C120.524 65.0376 120.14 64.932 119.722 64.932C119.305 64.932 118.923 65.0353 118.578 65.2418C118.232 65.4439 117.949 65.72 117.729 66.0702C117.509 66.4159 117.374 66.802 117.325 67.2286ZM129.694 60.898H130.637V71H129.694V69.7406C129.461 70.1716 129.14 70.5196 128.731 70.7845C128.327 71.0449 127.847 71.1751 127.29 71.1751C126.801 71.1751 126.343 71.0831 125.916 70.899C125.49 70.7149 125.112 70.4612 124.785 70.138C124.461 69.8102 124.208 69.4331 124.024 69.0065C123.84 68.58 123.748 68.122 123.748 67.6327C123.748 67.1433 123.84 66.6853 124.024 66.2588C124.208 65.8278 124.461 65.4506 124.785 65.1273C125.112 64.7996 125.49 64.5437 125.916 64.3596C126.343 64.1755 126.801 64.0835 127.29 64.0835C127.847 64.0835 128.327 64.2159 128.731 64.4808C129.14 64.7412 129.461 65.0847 129.694 65.5112V60.898ZM127.297 70.2592C127.777 70.2592 128.19 70.1424 128.536 69.909C128.882 69.671 129.146 69.3522 129.331 68.9527C129.519 68.5531 129.613 68.1131 129.613 67.6327C129.613 67.1388 129.519 66.6943 129.331 66.2992C129.142 65.8996 128.875 65.5831 128.529 65.3496C128.183 65.1161 127.773 64.9994 127.297 64.9994C126.821 64.9994 126.388 65.1184 125.997 65.3563C125.606 65.5898 125.294 65.9063 125.061 66.3059C124.827 66.7055 124.711 67.1478 124.711 67.6327C124.711 68.122 124.83 68.5665 125.068 68.9661C125.305 69.3612 125.62 69.6755 126.01 69.909C126.405 70.1424 126.834 70.2592 127.297 70.2592Z" fill="#0C1021"/>
<path d="M1.24222 102V93.5143H0.232013L0.501401 92.5714H2.18507V102H1.24222ZM7.2785 102.175C6.71279 102.175 6.20769 102.049 5.7632 101.798C5.31871 101.542 4.93932 101.19 4.62503 100.741C4.31075 100.292 4.07054 99.7731 3.90442 99.1849C3.74279 98.5922 3.66197 97.9592 3.66197 97.2857C3.66197 96.6122 3.74279 95.9792 3.90442 95.3865C4.07054 94.7939 4.31075 94.2753 4.62503 93.8308C4.93932 93.3818 5.31871 93.0316 5.7632 92.7802C6.20769 92.5243 6.71279 92.3963 7.2785 92.3963C7.83973 92.3963 8.34258 92.5243 8.78707 92.7802C9.23156 93.0316 9.60871 93.3818 9.9185 93.8308C10.2283 94.2753 10.464 94.7939 10.6256 95.3865C10.7918 95.9792 10.8748 96.6122 10.8748 97.2857C10.8748 97.9592 10.7918 98.5922 10.6256 99.1849C10.464 99.7731 10.2283 100.292 9.9185 100.741C9.60871 101.19 9.23156 101.542 8.78707 101.798C8.34258 102.049 7.83973 102.175 7.2785 102.175ZM7.2785 101.232C7.87116 101.232 8.36728 101.05 8.76687 100.687C9.17095 100.323 9.47401 99.8427 9.67605 99.2455C9.87809 98.6439 9.97912 97.9906 9.97912 97.2857C9.97912 96.5404 9.87361 95.8714 9.66258 95.2788C9.45605 94.6816 9.15075 94.2102 8.74667 93.8645C8.34707 93.5143 7.85769 93.3392 7.2785 93.3392C6.82054 93.3392 6.42095 93.4447 6.07973 93.6557C5.7385 93.8667 5.45565 94.1563 5.23116 94.5245C5.00667 94.8927 4.8383 95.3147 4.72605 95.7906C4.61381 96.262 4.55769 96.7604 4.55769 97.2857C4.55769 97.9951 4.66095 98.6506 4.86748 99.2522C5.07401 99.8494 5.37932 100.33 5.7834 100.693C6.18748 101.053 6.68585 101.232 7.2785 101.232ZM12.3525 96.3429C12.2043 96.3429 12.0786 96.2912 11.9753 96.188C11.8721 96.0802 11.8204 95.95 11.8204 95.7973C11.8204 95.6537 11.8721 95.5302 11.9753 95.4269C12.0786 95.3192 12.2043 95.2653 12.3525 95.2653C12.5051 95.2653 12.6331 95.3192 12.7363 95.4269C12.8441 95.5302 12.898 95.6537 12.898 95.7973C12.898 95.95 12.8441 96.0802 12.7363 96.188C12.6331 96.2912 12.5051 96.3429 12.3525 96.3429ZM12.3525 102.175C12.2043 102.175 12.0786 102.121 11.9753 102.013C11.8721 101.91 11.8204 101.782 11.8204 101.63C11.8204 101.486 11.8721 101.362 11.9753 101.259C12.0786 101.151 12.2043 101.098 12.3525 101.098C12.5051 101.098 12.6331 101.151 12.7363 101.259C12.8441 101.362 12.898 101.486 12.898 101.63C12.898 101.782 12.8441 101.91 12.7363 102.013C12.6331 102.121 12.5051 102.175 12.3525 102.175ZM17.7225 102.175C17.1568 102.175 16.6517 102.049 16.2072 101.798C15.7627 101.542 15.3834 101.19 15.0691 100.741C14.7548 100.292 14.5146 99.7731 14.3485 99.1849C14.1868 98.5922 14.106 97.9592 14.106 97.2857C14.106 96.6122 14.1868 95.9792 14.3485 95.3865C14.5146 94.7939 14.7548 94.2753 15.0691 93.8308C15.3834 93.3818 15.7627 93.0316 16.2072 92.7802C16.6517 92.5243 17.1568 92.3963 17.7225 92.3963C18.2838 92.3963 18.7866 92.5243 19.2311 92.7802C19.6756 93.0316 20.0527 93.3818 20.3625 93.8308C20.6723 94.2753 20.9081 94.7939 21.0697 95.3865C21.2358 95.9792 21.3189 96.6122 21.3189 97.2857C21.3189 97.9592 21.2358 98.5922 21.0697 99.1849C20.9081 99.7731 20.6723 100.292 20.3625 100.741C20.0527 101.19 19.6756 101.542 19.2311 101.798C18.7866 102.049 18.2838 102.175 17.7225 102.175ZM17.7225 101.232C18.3152 101.232 18.8113 101.05 19.2109 100.687C19.615 100.323 19.9181 99.8427 20.1201 99.2455C20.3221 98.6439 20.4232 97.9906 20.4232 97.2857C20.4232 96.5404 20.3176 95.8714 20.1066 95.2788C19.9001 94.6816 19.5948 94.2102 19.1907 93.8645C18.7911 93.5143 18.3017 93.3392 17.7225 93.3392C17.2646 93.3392 16.865 93.4447 16.5238 93.6557C16.1825 93.8667 15.8997 94.1563 15.6752 94.5245C15.4507 94.8927 15.2823 95.3147 15.1701 95.7906C15.0578 96.262 15.0017 96.7604 15.0017 97.2857C15.0017 97.9951 15.105 98.6506 15.3115 99.2522C15.5181 99.8494 15.8234 100.33 16.2274 100.693C16.6315 101.053 17.1299 101.232 17.7225 101.232ZM23.2747 102V93.5143H22.2645L22.5338 92.5714H24.2175V102H23.2747Z" fill="#0C1021" fill-opacity="0.5"/>
<path d="M48.9667 92.5714H50.1386L53.5733 102H52.5698L51.8357 99.9796H47.2763L46.5422 102H45.5388L48.9667 92.5714ZM47.6198 99.0367H51.4855L49.5527 93.7298L47.6198 99.0367ZM55.0336 102V92.5714H55.9765V102H55.0336ZM66.5696 91.898H67.5125V102H66.5696V100.741C66.3362 101.172 66.0152 101.52 65.6066 101.784C65.2025 102.045 64.7221 102.175 64.1654 102.175C63.676 102.175 63.218 102.083 62.7915 101.899C62.365 101.715 61.9878 101.461 61.6601 101.138C61.3368 100.81 61.0831 100.433 60.899 100.007C60.715 99.58 60.6229 99.122 60.6229 98.6327C60.6229 98.1433 60.715 97.6853 60.899 97.2588C61.0831 96.8278 61.3368 96.4506 61.6601 96.1273C61.9878 95.7996 62.365 95.5437 62.7915 95.3596C63.218 95.1755 63.676 95.0835 64.1654 95.0835C64.7221 95.0835 65.2025 95.2159 65.6066 95.4808C66.0152 95.7412 66.3362 96.0847 66.5696 96.5112V91.898ZM64.1721 101.259C64.6525 101.259 65.0656 101.142 65.4113 100.909C65.757 100.671 66.0219 100.352 66.206 99.9527C66.3945 99.5531 66.4888 99.1131 66.4888 98.6327C66.4888 98.1388 66.3945 97.6943 66.206 97.2992C66.0174 96.8996 65.7503 96.5831 65.4045 96.3496C65.0588 96.1161 64.648 95.9994 64.1721 95.9994C63.6962 95.9994 63.2629 96.1184 62.8723 96.3563C62.4817 96.5898 62.1696 96.9063 61.9362 97.3059C61.7027 97.7055 61.586 98.1478 61.586 98.6327C61.586 99.122 61.705 99.5665 61.9429 99.9661C62.1809 100.361 62.4952 100.676 62.8858 100.909C63.2809 101.142 63.7096 101.259 64.1721 101.259ZM69.1297 95.2653H70.0725V102H69.1297V95.2653ZM69.6078 94.0867C69.4552 94.0867 69.325 94.0373 69.2172 93.9386C69.114 93.8353 69.0623 93.7073 69.0623 93.5547C69.0623 93.402 69.114 93.2763 69.2172 93.1775C69.325 93.0743 69.4552 93.0227 69.6078 93.0227C69.756 93.0227 69.8817 93.0743 69.985 93.1775C70.0927 93.2763 70.1466 93.402 70.1466 93.5547C70.1466 93.7073 70.095 93.8353 69.9917 93.9386C69.8884 94.0373 69.7605 94.0867 69.6078 94.0867ZM77.1648 95.2653H78.1077V102H77.1648L77.1311 100.747C76.9111 101.174 76.6036 101.52 76.2085 101.784C75.8134 102.045 75.3419 102.175 74.7942 102.175C74.3003 102.175 73.8379 102.083 73.4068 101.899C72.9758 101.71 72.5964 101.452 72.2687 101.124C71.9409 100.797 71.685 100.417 71.5009 99.9863C71.3168 99.5553 71.2248 99.0929 71.2248 98.599C71.2248 98.1141 71.3146 97.6584 71.4942 97.2318C71.6783 96.8053 71.9297 96.4304 72.2485 96.1071C72.5717 95.7839 72.9444 95.5324 73.3664 95.3529C73.793 95.1688 74.2487 95.0767 74.7336 95.0767C75.2948 95.0767 75.7842 95.2114 76.2017 95.4808C76.6193 95.7457 76.9515 96.0937 77.1985 96.5247L77.1648 95.2653ZM74.774 101.259C75.2544 101.259 75.6674 101.142 76.0132 100.909C76.3589 100.671 76.6238 100.352 76.8079 99.9527C76.9964 99.5531 77.0907 99.1131 77.0907 98.6327C77.0907 98.1388 76.9964 97.6943 76.8079 97.2992C76.6193 96.8996 76.3521 96.5831 76.0064 96.3496C75.6607 96.1161 75.2499 95.9994 74.774 95.9994C74.2981 95.9994 73.8626 96.1184 73.4674 96.3563C73.0768 96.5898 72.7648 96.9063 72.5313 97.3059C72.3023 97.7055 72.1879 98.1478 72.1879 98.6327C72.1879 99.122 72.3068 99.5665 72.5448 99.9661C72.7828 100.361 73.097 100.676 73.4877 100.909C73.8828 101.142 74.3115 101.259 74.774 101.259ZM79.5474 102V91.898H80.4903V102H79.5474ZM82.1124 95.2653H83.0552V102H82.1124V95.2653ZM82.5905 94.0867C82.4379 94.0867 82.3077 94.0373 82.1999 93.9386C82.0967 93.8353 82.045 93.7073 82.045 93.5547C82.045 93.402 82.0967 93.2763 82.1999 93.1775C82.3077 93.0743 82.4379 93.0227 82.5905 93.0227C82.7387 93.0227 82.8644 93.0743 82.9677 93.1775C83.0754 93.2763 83.1293 93.402 83.1293 93.5547C83.1293 93.7073 83.0777 93.8353 82.9744 93.9386C82.8712 94.0373 82.7432 94.0867 82.5905 94.0867ZM90.5237 97.8312V102H89.5808V98.0198C89.5808 97.6516 89.491 97.3171 89.3114 97.0163C89.1319 96.7155 88.8917 96.4753 88.5908 96.2957C88.29 96.1161 87.9555 96.0263 87.5874 96.0263C87.2237 96.0263 86.8892 96.1161 86.5839 96.2957C86.2831 96.4753 86.0429 96.7155 85.8633 97.0163C85.6837 97.3171 85.5939 97.6516 85.5939 98.0198V102H84.651V95.2653H85.5939V96.1947C85.8319 95.8535 86.1417 95.5818 86.5233 95.3798C86.9049 95.1778 87.3202 95.0767 87.7692 95.0767C88.2766 95.0767 88.739 95.2002 89.1566 95.4471C89.5741 95.6941 89.9063 96.0263 90.1533 96.4439C90.4002 96.8614 90.5237 97.3239 90.5237 97.8312ZM97.095 95.2653H98.0378V102.249C98.0378 102.68 97.9435 103.084 97.755 103.461C97.5709 103.839 97.3195 104.169 97.0007 104.451C96.6864 104.739 96.3272 104.963 95.9231 105.125C95.519 105.287 95.0993 105.367 94.6637 105.367C94.1968 105.367 93.7456 105.26 93.3101 105.044C92.8746 104.833 92.4952 104.55 92.1719 104.196C91.8531 103.841 91.6264 103.448 91.4917 103.017L92.3605 102.62C92.4458 102.956 92.6052 103.259 92.8386 103.529C93.0766 103.803 93.355 104.018 93.6737 104.175C93.997 104.337 94.327 104.418 94.6637 104.418C94.9735 104.418 95.2721 104.359 95.5595 104.243C95.8513 104.13 96.1117 103.976 96.3407 103.778C96.5741 103.58 96.7582 103.349 96.8929 103.084C97.0276 102.824 97.095 102.546 97.095 102.249V100.761C96.8615 101.183 96.545 101.524 96.1454 101.784C95.7503 102.045 95.2901 102.175 94.7648 102.175C94.2933 102.175 93.8488 102.083 93.4313 101.899C93.0182 101.715 92.6546 101.461 92.3403 101.138C92.026 100.81 91.779 100.433 91.5995 100.007C91.4244 99.58 91.3368 99.122 91.3368 98.6327C91.3368 98.1433 91.4244 97.6853 91.5995 97.2588C91.779 96.8278 92.026 96.4506 92.3403 96.1273C92.6546 95.7996 93.0182 95.5437 93.4313 95.3596C93.8488 95.1755 94.2933 95.0835 94.7648 95.0835C95.2901 95.0835 95.7503 95.2137 96.1454 95.4741C96.545 95.73 96.8615 96.0712 97.095 96.4978V95.2653ZM94.7715 101.259C95.2384 101.259 95.6403 101.138 95.977 100.896C96.3182 100.653 96.5809 100.332 96.765 99.9324C96.949 99.5329 97.0411 99.0996 97.0411 98.6327C97.0411 98.1522 96.9468 97.7145 96.7582 97.3194C96.5741 96.9198 96.3115 96.601 95.9703 96.3631C95.629 96.1206 95.2295 95.9994 94.7715 95.9994C94.3135 95.9994 93.896 96.1184 93.5188 96.3563C93.1462 96.5898 92.8499 96.9063 92.6299 97.3059C92.4099 97.7055 92.2999 98.1478 92.2999 98.6327C92.2999 99.1176 92.4121 99.5598 92.6366 99.9594C92.8611 100.354 93.1597 100.671 93.5323 100.909C93.9095 101.142 94.3225 101.259 94.7715 101.259Z" fill="#0C1021"/>
<path d="M1.24222 133V124.514H0.232013L0.501401 123.571H2.18507V133H1.24222ZM7.2785 133.175C6.71279 133.175 6.20769 133.049 5.7632 132.798C5.31871 132.542 4.93932 132.19 4.62503 131.741C4.31075 131.292 4.07054 130.773 3.90442 130.185C3.74279 129.592 3.66197 128.959 3.66197 128.286C3.66197 127.612 3.74279 126.979 3.90442 126.387C4.07054 125.794 4.31075 125.275 4.62503 124.831C4.93932 124.382 5.31871 124.032 5.7632 123.78C6.20769 123.524 6.71279 123.396 7.2785 123.396C7.83973 123.396 8.34258 123.524 8.78707 123.78C9.23156 124.032 9.60871 124.382 9.9185 124.831C10.2283 125.275 10.464 125.794 10.6256 126.387C10.7918 126.979 10.8748 127.612 10.8748 128.286C10.8748 128.959 10.7918 129.592 10.6256 130.185C10.464 130.773 10.2283 131.292 9.9185 131.741C9.60871 132.19 9.23156 132.542 8.78707 132.798C8.34258 133.049 7.83973 133.175 7.2785 133.175ZM7.2785 132.232C7.87116 132.232 8.36728 132.05 8.76687 131.687C9.17095 131.323 9.47401 130.843 9.67605 130.246C9.87809 129.644 9.97912 128.991 9.97912 128.286C9.97912 127.54 9.87361 126.871 9.66258 126.279C9.45605 125.682 9.15075 125.21 8.74667 124.864C8.34707 124.514 7.85769 124.339 7.2785 124.339C6.82054 124.339 6.42095 124.445 6.07973 124.656C5.7385 124.867 5.45565 125.156 5.23116 125.524C5.00667 125.893 4.8383 126.315 4.72605 126.791C4.61381 127.262 4.55769 127.76 4.55769 128.286C4.55769 128.995 4.66095 129.651 4.86748 130.252C5.07401 130.849 5.37932 131.33 5.7834 131.693C6.18748 132.053 6.68585 132.232 7.2785 132.232ZM12.3525 127.343C12.2043 127.343 12.0786 127.291 11.9753 127.188C11.8721 127.08 11.8204 126.95 11.8204 126.797C11.8204 126.654 11.8721 126.53 11.9753 126.427C12.0786 126.319 12.2043 126.265 12.3525 126.265C12.5051 126.265 12.6331 126.319 12.7363 126.427C12.8441 126.53 12.898 126.654 12.898 126.797C12.898 126.95 12.8441 127.08 12.7363 127.188C12.6331 127.291 12.5051 127.343 12.3525 127.343ZM12.3525 133.175C12.2043 133.175 12.0786 133.121 11.9753 133.013C11.8721 132.91 11.8204 132.782 11.8204 132.63C11.8204 132.486 11.8721 132.362 11.9753 132.259C12.0786 132.151 12.2043 132.098 12.3525 132.098C12.5051 132.098 12.6331 132.151 12.7363 132.259C12.8441 132.362 12.898 132.486 12.898 132.63C12.898 132.782 12.8441 132.91 12.7363 133.013C12.6331 133.121 12.5051 133.175 12.3525 133.175ZM17.7225 133.175C17.1568 133.175 16.6517 133.049 16.2072 132.798C15.7627 132.542 15.3834 132.19 15.0691 131.741C14.7548 131.292 14.5146 130.773 14.3485 130.185C14.1868 129.592 14.106 128.959 14.106 128.286C14.106 127.612 14.1868 126.979 14.3485 126.387C14.5146 125.794 14.7548 125.275 15.0691 124.831C15.3834 124.382 15.7627 124.032 16.2072 123.78C16.6517 123.524 17.1568 123.396 17.7225 123.396C18.2838 123.396 18.7866 123.524 19.2311 123.78C19.6756 124.032 20.0527 124.382 20.3625 124.831C20.6723 125.275 20.9081 125.794 21.0697 126.387C21.2358 126.979 21.3189 127.612 21.3189 128.286C21.3189 128.959 21.2358 129.592 21.0697 130.185C20.9081 130.773 20.6723 131.292 20.3625 131.741C20.0527 132.19 19.6756 132.542 19.2311 132.798C18.7866 133.049 18.2838 133.175 17.7225 133.175ZM17.7225 132.232C18.3152 132.232 18.8113 132.05 19.2109 131.687C19.615 131.323 19.9181 130.843 20.1201 130.246C20.3221 129.644 20.4232 128.991 20.4232 128.286C20.4232 127.54 20.3176 126.871 20.1066 126.279C19.9001 125.682 19.5948 125.21 19.1907 124.864C18.7911 124.514 18.3017 124.339 17.7225 124.339C17.2646 124.339 16.865 124.445 16.5238 124.656C16.1825 124.867 15.8997 125.156 15.6752 125.524C15.4507 125.893 15.2823 126.315 15.1701 126.791C15.0578 127.262 15.0017 127.76 15.0017 128.286C15.0017 128.995 15.105 129.651 15.3115 130.252C15.5181 130.849 15.8234 131.33 16.2274 131.693C16.6315 132.053 17.1299 132.232 17.7225 132.232ZM22.2645 133V132.165C22.6326 131.824 23.0367 131.451 23.4767 131.047C23.9167 130.638 24.3522 130.219 24.7832 129.788C25.2187 129.352 25.6161 128.923 25.9753 128.501C26.3345 128.075 26.6218 127.673 26.8373 127.296C27.0573 126.914 27.1673 126.577 27.1673 126.286C27.1673 125.931 27.0798 125.608 26.9047 125.316C26.7341 125.019 26.5028 124.784 26.211 124.609C25.9236 124.429 25.6026 124.339 25.2479 124.339C24.8932 124.339 24.5677 124.429 24.2714 124.609C23.9796 124.784 23.7461 125.019 23.571 125.316C23.3959 125.608 23.3083 125.931 23.3083 126.286H22.3655C22.3655 125.747 22.4957 125.26 22.7561 124.824C23.021 124.389 23.3712 124.043 23.8067 123.787C24.2422 123.527 24.7226 123.396 25.2479 123.396C25.7732 123.396 26.2514 123.527 26.6824 123.787C27.1179 124.047 27.4636 124.395 27.7196 124.831C27.98 125.266 28.1102 125.751 28.1102 126.286C28.1102 126.604 28.0249 126.954 27.8543 127.336C27.6881 127.713 27.4614 128.106 27.1741 128.515C26.8867 128.919 26.5634 129.327 26.2043 129.74C25.8451 130.153 25.4702 130.558 25.0796 130.953C24.689 131.343 24.3096 131.711 23.9414 132.057H28.2516V133H22.2645Z" fill="#0C1021" fill-opacity="0.5"/>
<path d="M50.1722 133.175C49.5347 133.175 48.9353 133.049 48.3741 132.798C47.8129 132.542 47.319 132.192 46.8924 131.747C46.4704 131.298 46.1382 130.778 45.8957 130.185C45.6578 129.592 45.5388 128.959 45.5388 128.286C45.5388 127.612 45.6578 126.979 45.8957 126.387C46.1382 125.794 46.4704 125.275 46.8924 124.831C47.319 124.382 47.8129 124.032 48.3741 123.78C48.9353 123.524 49.5347 123.396 50.1722 123.396C50.9355 123.396 51.6382 123.574 52.2802 123.928C52.9222 124.283 53.4543 124.754 53.8763 125.343L53.0412 125.794C52.709 125.349 52.2869 124.997 51.7751 124.737C51.2678 124.472 50.7335 124.339 50.1722 124.339C49.6559 124.339 49.1733 124.445 48.7243 124.656C48.2798 124.862 47.8892 125.147 47.5524 125.511C47.2157 125.875 46.9531 126.294 46.7645 126.77C46.5759 127.246 46.4816 127.751 46.4816 128.286C46.4816 128.829 46.5759 129.339 46.7645 129.814C46.9576 130.29 47.2224 130.71 47.5592 131.074C47.9004 131.438 48.2933 131.723 48.7378 131.929C49.1867 132.131 49.6649 132.232 50.1722 132.232C50.7559 132.232 51.2969 132.1 51.7953 131.835C52.2982 131.566 52.7135 131.215 53.0412 130.784L53.8763 131.236C53.4543 131.824 52.9222 132.295 52.2802 132.65C51.6382 133 50.9355 133.175 50.1722 133.175ZM60.4201 126.265H61.363V133H60.4201L60.3865 131.747C60.1665 132.174 59.8589 132.52 59.4638 132.784C59.0687 133.045 58.5973 133.175 58.0495 133.175C57.5556 133.175 57.0932 133.083 56.6622 132.899C56.2312 132.71 55.8518 132.452 55.524 132.124C55.1963 131.797 54.9403 131.417 54.7563 130.986C54.5722 130.555 54.4801 130.093 54.4801 129.599C54.4801 129.114 54.5699 128.658 54.7495 128.232C54.9336 127.805 55.185 127.43 55.5038 127.107C55.8271 126.784 56.1997 126.532 56.6218 126.353C57.0483 126.169 57.504 126.077 57.9889 126.077C58.5501 126.077 59.0395 126.211 59.4571 126.481C59.8746 126.746 60.2069 127.094 60.4538 127.525L60.4201 126.265ZM58.0293 132.259C58.5097 132.259 58.9228 132.142 59.2685 131.909C59.6142 131.671 59.8791 131.352 60.0632 130.953C60.2518 130.553 60.3461 130.113 60.3461 129.633C60.3461 129.139 60.2518 128.694 60.0632 128.299C59.8746 127.9 59.6075 127.583 59.2618 127.35C58.9161 127.116 58.5052 126.999 58.0293 126.999C57.5534 126.999 57.1179 127.118 56.7228 127.356C56.3322 127.59 56.0201 127.906 55.7867 128.306C55.5577 128.706 55.4432 129.148 55.4432 129.633C55.4432 130.122 55.5622 130.567 55.8001 130.966C56.0381 131.361 56.3524 131.676 56.743 131.909C57.1381 132.142 57.5669 132.259 58.0293 132.259ZM62.8027 133V122.898H63.7456V133H62.8027ZM65.3677 133V122.898H66.3106V133H65.3677ZM75.9771 131.31L76.8189 131.768C76.5136 132.194 76.1252 132.535 75.6538 132.791C75.1869 133.047 74.6795 133.175 74.1318 133.175C73.5122 133.175 72.9465 133.016 72.4346 132.697C71.9273 132.378 71.5209 131.952 71.2156 131.417C70.9148 130.879 70.7644 130.284 70.7644 129.633C70.7644 129.139 70.852 128.679 71.0271 128.252C71.2022 127.821 71.4424 127.444 71.7477 127.121C72.0575 126.793 72.4167 126.537 72.8252 126.353C73.2338 126.169 73.6693 126.077 74.1318 126.077C74.6795 126.077 75.1869 126.205 75.6538 126.461C76.1252 126.717 76.5136 127.06 76.8189 127.491L75.9771 127.942C75.7436 127.646 75.463 127.419 75.1352 127.262C74.8075 127.1 74.473 127.02 74.1318 127.02C73.6783 127.02 73.2675 127.141 72.8993 127.383C72.5311 127.621 72.2393 127.938 72.0238 128.333C71.8128 128.728 71.7073 129.161 71.7073 129.633C71.7073 130.104 71.815 130.537 72.0305 130.932C72.2505 131.328 72.5446 131.644 72.9128 131.882C73.2809 132.116 73.6873 132.232 74.1318 132.232C74.4999 132.232 74.8456 132.147 75.1689 131.976C75.4922 131.806 75.7616 131.583 75.9771 131.31ZM80.9059 133.175C80.2863 133.175 79.7206 133.016 79.2088 132.697C78.7014 132.378 78.2951 131.952 77.9898 131.417C77.689 130.879 77.5386 130.284 77.5386 129.633C77.5386 129.139 77.6261 128.679 77.8012 128.252C77.9763 127.821 78.2165 127.444 78.5218 127.121C78.8316 126.793 79.1908 126.537 79.5994 126.353C80.008 126.169 80.4435 126.077 80.9059 126.077C81.5255 126.077 82.089 126.236 82.5963 126.555C83.1082 126.874 83.5145 127.302 83.8153 127.841C84.1206 128.38 84.2733 128.977 84.2733 129.633C84.2733 130.122 84.1857 130.58 84.0106 131.007C83.8355 131.433 83.5931 131.81 83.2833 132.138C82.978 132.461 82.621 132.715 82.2125 132.899C81.8084 133.083 81.3729 133.175 80.9059 133.175ZM80.9059 132.232C81.3639 132.232 81.7747 132.113 82.1384 131.875C82.5065 131.633 82.7961 131.314 83.0071 130.919C83.2227 130.524 83.3304 130.095 83.3304 129.633C83.3304 129.161 83.2227 128.728 83.0071 128.333C82.7916 127.933 82.4998 127.614 82.1316 127.377C81.768 127.139 81.3594 127.02 80.9059 127.02C80.448 127.02 80.0349 127.141 79.6667 127.383C79.3031 127.621 79.0135 127.938 78.798 128.333C78.5869 128.728 78.4814 129.161 78.4814 129.633C78.4814 130.118 78.5914 130.558 78.8114 130.953C79.0314 131.343 79.3255 131.655 79.6937 131.889C80.0618 132.118 80.4659 132.232 80.9059 132.232ZM91.2866 128.831V133H90.3437V129.02C90.3437 128.652 90.254 128.317 90.0744 128.016C89.8948 127.716 89.6546 127.475 89.3537 127.296C89.0529 127.116 88.7184 127.026 88.3503 127.026C87.9866 127.026 87.6521 127.116 87.3468 127.296C87.046 127.475 86.8058 127.716 86.6262 128.016C86.4466 128.317 86.3568 128.652 86.3568 129.02V133H85.414V126.265H86.3568V127.195C86.5948 126.853 86.9046 126.582 87.2862 126.38C87.6678 126.178 88.0831 126.077 88.5321 126.077C89.0395 126.077 89.5019 126.2 89.9195 126.447C90.337 126.694 90.6693 127.026 90.9162 127.444C91.1631 127.861 91.2866 128.324 91.2866 128.831ZM98.508 128.831V133H97.5651V129.02C97.5651 128.652 97.4753 128.317 97.2957 128.016C97.1162 127.716 96.8759 127.475 96.5751 127.296C96.2743 127.116 95.9398 127.026 95.5717 127.026C95.208 127.026 94.8735 127.116 94.5682 127.296C94.2674 127.475 94.0272 127.716 93.8476 128.016C93.668 128.317 93.5782 128.652 93.5782 129.02V133H92.6353V126.265H93.5782V127.195C93.8162 126.853 94.1259 126.582 94.5076 126.38C94.8892 126.178 95.3045 126.077 95.7535 126.077C96.2608 126.077 96.7233 126.2 97.1408 126.447C97.5584 126.694 97.8906 127.026 98.1376 127.444C98.3845 127.861 98.508 128.324 98.508 128.831ZM102.688 133.175C102.069 133.175 101.503 133.016 100.991 132.697C100.484 132.378 100.078 131.952 99.7723 131.417C99.4715 130.879 99.3211 130.284 99.3211 129.633C99.3211 129.139 99.4086 128.679 99.5837 128.252C99.7589 127.821 99.9991 127.444 100.304 127.121C100.614 126.793 100.973 126.537 101.382 126.353C101.79 126.169 102.226 126.077 102.688 126.077C103.187 126.077 103.645 126.176 104.062 126.373C104.484 126.571 104.846 126.847 105.147 127.201C105.452 127.556 105.681 127.971 105.834 128.447C105.991 128.923 106.056 129.437 106.029 129.99H100.318C100.372 130.416 100.506 130.798 100.722 131.134C100.942 131.471 101.22 131.738 101.557 131.936C101.898 132.129 102.275 132.228 102.688 132.232C103.137 132.232 103.542 132.116 103.901 131.882C104.264 131.649 104.556 131.328 104.776 130.919L105.733 131.141C105.463 131.738 105.057 132.228 104.514 132.609C103.97 132.987 103.362 133.175 102.688 133.175ZM100.291 129.229H105.079C105.048 128.811 104.92 128.429 104.695 128.084C104.475 127.733 104.19 127.455 103.84 127.249C103.49 127.038 103.106 126.932 102.688 126.932C102.271 126.932 101.889 127.035 101.544 127.242C101.198 127.444 100.915 127.72 100.695 128.07C100.475 128.416 100.34 128.802 100.291 129.229ZM111.926 131.31L112.768 131.768C112.463 132.194 112.074 132.535 111.603 132.791C111.136 133.047 110.629 133.175 110.081 133.175C109.461 133.175 108.896 133.016 108.384 132.697C107.876 132.378 107.47 131.952 107.165 131.417C106.864 130.879 106.713 130.284 106.713 129.633C106.713 129.139 106.801 128.679 106.976 128.252C107.151 127.821 107.391 127.444 107.697 127.121C108.007 126.793 108.366 126.537 108.774 126.353C109.183 126.169 109.618 126.077 110.081 126.077C110.629 126.077 111.136 126.205 111.603 126.461C112.074 126.717 112.463 127.06 112.768 127.491L111.926 127.942C111.693 127.646 111.412 127.419 111.084 127.262C110.757 127.1 110.422 127.02 110.081 127.02C109.627 127.02 109.217 127.141 108.848 127.383C108.48 127.621 108.188 127.938 107.973 128.333C107.762 128.728 107.656 129.161 107.656 129.633C107.656 130.104 107.764 130.537 107.98 130.932C108.2 131.328 108.494 131.644 108.862 131.882C109.23 132.116 109.636 132.232 110.081 132.232C110.449 132.232 110.795 132.147 111.118 131.976C111.441 131.806 111.711 131.583 111.926 131.31ZM117.425 127.208H115.816L115.809 133H114.866L114.873 127.208H113.654V126.265H114.873L114.866 124.151H115.809L115.816 126.265H117.425V127.208ZM121.406 133.175C120.787 133.175 120.221 133.016 119.709 132.697C119.202 132.378 118.795 131.952 118.49 131.417C118.189 130.879 118.039 130.284 118.039 129.633C118.039 129.139 118.126 128.679 118.301 128.252C118.477 127.821 118.717 127.444 119.022 127.121C119.332 126.793 119.691 126.537 120.1 126.353C120.508 126.169 120.944 126.077 121.406 126.077C121.905 126.077 122.362 126.176 122.78 126.373C123.202 126.571 123.564 126.847 123.864 127.201C124.17 127.556 124.399 127.971 124.551 128.447C124.708 128.923 124.774 129.437 124.747 129.99H119.036C119.089 130.416 119.224 130.798 119.44 131.134C119.66 131.471 119.938 131.738 120.275 131.936C120.616 132.129 120.993 132.228 121.406 132.232C121.855 132.232 122.259 132.116 122.618 131.882C122.982 131.649 123.274 131.328 123.494 130.919L124.45 131.141C124.181 131.738 123.775 132.228 123.231 132.609C122.688 132.987 122.08 133.175 121.406 133.175ZM119.009 129.229H123.797C123.766 128.811 123.638 128.429 123.413 128.084C123.193 127.733 122.908 127.455 122.558 127.249C122.208 127.038 121.824 126.932 121.406 126.932C120.989 126.932 120.607 127.035 120.261 127.242C119.916 127.444 119.633 127.72 119.413 128.07C119.193 128.416 119.058 128.802 119.009 129.229ZM131.378 122.898H132.321V133H131.378V131.741C131.144 132.172 130.823 132.52 130.415 132.784C130.011 133.045 129.53 133.175 128.974 133.175C128.484 133.175 128.026 133.083 127.6 132.899C127.173 132.715 126.796 132.461 126.468 132.138C126.145 131.81 125.891 131.433 125.707 131.007C125.523 130.58 125.431 130.122 125.431 129.633C125.431 129.143 125.523 128.685 125.707 128.259C125.891 127.828 126.145 127.451 126.468 127.127C126.796 126.8 127.173 126.544 127.6 126.36C128.026 126.176 128.484 126.083 128.974 126.083C129.53 126.083 130.011 126.216 130.415 126.481C130.823 126.741 131.144 127.085 131.378 127.511V122.898ZM128.98 132.259C129.461 132.259 129.874 132.142 130.22 131.909C130.565 131.671 130.83 131.352 131.014 130.953C131.203 130.553 131.297 130.113 131.297 129.633C131.297 129.139 131.203 128.694 131.014 128.299C130.826 127.9 130.559 127.583 130.213 127.35C129.867 127.116 129.456 126.999 128.98 126.999C128.504 126.999 128.071 127.118 127.681 127.356C127.29 127.59 126.978 127.906 126.744 128.306C126.511 128.706 126.394 129.148 126.394 129.633C126.394 130.122 126.513 130.567 126.751 130.966C126.989 131.361 127.303 131.676 127.694 131.909C128.089 132.142 128.518 132.259 128.98 132.259Z" fill="#0C1021"/>
<path d="M1.24222 164V155.514H0.232013L0.501401 154.571H2.18507V164H1.24222ZM7.2785 164.175C6.71279 164.175 6.20769 164.049 5.7632 163.798C5.31871 163.542 4.93932 163.19 4.62503 162.741C4.31075 162.292 4.07054 161.773 3.90442 161.185C3.74279 160.592 3.66197 159.959 3.66197 159.286C3.66197 158.612 3.74279 157.979 3.90442 157.387C4.07054 156.794 4.31075 156.275 4.62503 155.831C4.93932 155.382 5.31871 155.032 5.7632 154.78C6.20769 154.524 6.71279 154.396 7.2785 154.396C7.83973 154.396 8.34258 154.524 8.78707 154.78C9.23156 155.032 9.60871 155.382 9.9185 155.831C10.2283 156.275 10.464 156.794 10.6256 157.387C10.7918 157.979 10.8748 158.612 10.8748 159.286C10.8748 159.959 10.7918 160.592 10.6256 161.185C10.464 161.773 10.2283 162.292 9.9185 162.741C9.60871 163.19 9.23156 163.542 8.78707 163.798C8.34258 164.049 7.83973 164.175 7.2785 164.175ZM7.2785 163.232C7.87116 163.232 8.36728 163.05 8.76687 162.687C9.17095 162.323 9.47401 161.843 9.67605 161.246C9.87809 160.644 9.97912 159.991 9.97912 159.286C9.97912 158.54 9.87361 157.871 9.66258 157.279C9.45605 156.682 9.15075 156.21 8.74667 155.864C8.34707 155.514 7.85769 155.339 7.2785 155.339C6.82054 155.339 6.42095 155.445 6.07973 155.656C5.7385 155.867 5.45565 156.156 5.23116 156.524C5.00667 156.893 4.8383 157.315 4.72605 157.791C4.61381 158.262 4.55769 158.76 4.55769 159.286C4.55769 159.995 4.66095 160.651 4.86748 161.252C5.07401 161.849 5.37932 162.33 5.7834 162.693C6.18748 163.053 6.68585 163.232 7.2785 163.232ZM12.3525 158.343C12.2043 158.343 12.0786 158.291 11.9753 158.188C11.8721 158.08 11.8204 157.95 11.8204 157.797C11.8204 157.654 11.8721 157.53 11.9753 157.427C12.0786 157.319 12.2043 157.265 12.3525 157.265C12.5051 157.265 12.6331 157.319 12.7363 157.427C12.8441 157.53 12.898 157.654 12.898 157.797C12.898 157.95 12.8441 158.08 12.7363 158.188C12.6331 158.291 12.5051 158.343 12.3525 158.343ZM12.3525 164.175C12.2043 164.175 12.0786 164.121 11.9753 164.013C11.8721 163.91 11.8204 163.782 11.8204 163.63C11.8204 163.486 11.8721 163.362 11.9753 163.259C12.0786 163.151 12.2043 163.098 12.3525 163.098C12.5051 163.098 12.6331 163.151 12.7363 163.259C12.8441 163.362 12.898 163.486 12.898 163.63C12.898 163.782 12.8441 163.91 12.7363 164.013C12.6331 164.121 12.5051 164.175 12.3525 164.175ZM17.7225 164.175C17.1568 164.175 16.6517 164.049 16.2072 163.798C15.7627 163.542 15.3834 163.19 15.0691 162.741C14.7548 162.292 14.5146 161.773 14.3485 161.185C14.1868 160.592 14.106 159.959 14.106 159.286C14.106 158.612 14.1868 157.979 14.3485 157.387C14.5146 156.794 14.7548 156.275 15.0691 155.831C15.3834 155.382 15.7627 155.032 16.2072 154.78C16.6517 154.524 17.1568 154.396 17.7225 154.396C18.2838 154.396 18.7866 154.524 19.2311 154.78C19.6756 155.032 20.0527 155.382 20.3625 155.831C20.6723 156.275 20.9081 156.794 21.0697 157.387C21.2358 157.979 21.3189 158.612 21.3189 159.286C21.3189 159.959 21.2358 160.592 21.0697 161.185C20.9081 161.773 20.6723 162.292 20.3625 162.741C20.0527 163.19 19.6756 163.542 19.2311 163.798C18.7866 164.049 18.2838 164.175 17.7225 164.175ZM17.7225 163.232C18.3152 163.232 18.8113 163.05 19.2109 162.687C19.615 162.323 19.9181 161.843 20.1201 161.246C20.3221 160.644 20.4232 159.991 20.4232 159.286C20.4232 158.54 20.3176 157.871 20.1066 157.279C19.9001 156.682 19.5948 156.21 19.1907 155.864C18.7911 155.514 18.3017 155.339 17.7225 155.339C17.2646 155.339 16.865 155.445 16.5238 155.656C16.1825 155.867 15.8997 156.156 15.6752 156.524C15.4507 156.893 15.2823 157.315 15.1701 157.791C15.0578 158.262 15.0017 158.76 15.0017 159.286C15.0017 159.995 15.105 160.651 15.3115 161.252C15.5181 161.849 15.8234 162.33 16.2274 162.693C16.6315 163.053 17.1299 163.232 17.7225 163.232ZM25.0324 164.175C24.4577 164.175 23.9526 164.049 23.5171 163.798C23.0816 163.542 22.7404 163.201 22.4934 162.774C22.251 162.348 22.1298 161.876 22.1298 161.36H23.0726C23.0726 161.701 23.1512 162.016 23.3083 162.303C23.47 162.586 23.6967 162.812 23.9885 162.983C24.2804 163.149 24.6283 163.232 25.0324 163.232C25.3736 163.232 25.6924 163.149 25.9887 162.983C26.2896 162.812 26.532 162.586 26.7161 162.303C26.9047 162.016 26.999 161.701 26.999 161.36C26.999 160.933 26.8912 160.579 26.6757 160.296C26.4602 160.009 26.1638 159.795 25.7867 159.656C25.4096 159.512 24.9785 159.441 24.4936 159.441V158.659C25.1626 158.659 25.6992 158.518 26.1032 158.235C26.5118 157.948 26.7161 157.528 26.7161 156.976C26.7161 156.675 26.633 156.401 26.4669 156.154C26.3053 155.907 26.092 155.71 25.8271 155.561C25.5667 155.409 25.2861 155.332 24.9853 155.332C24.6845 155.332 24.3949 155.409 24.1165 155.561C23.8426 155.71 23.6181 155.907 23.443 156.154C23.2724 156.401 23.1871 156.675 23.1871 156.976H22.2443C22.2443 156.621 22.3183 156.289 22.4665 155.979C22.6147 155.665 22.8167 155.389 23.0726 155.151C23.3285 154.913 23.6204 154.726 23.9481 154.592C24.2759 154.457 24.6194 154.39 24.9785 154.39C25.45 154.39 25.8877 154.506 26.2918 154.74C26.7004 154.973 27.0304 155.285 27.2818 155.676C27.5332 156.067 27.659 156.5 27.659 156.976C27.659 157.438 27.54 157.856 27.302 158.228C27.0641 158.601 26.743 158.864 26.339 159.016C26.6892 159.133 26.9832 159.31 27.2212 159.548C27.4592 159.782 27.6387 160.053 27.76 160.363C27.8812 160.673 27.9418 161.005 27.9418 161.36C27.9418 161.876 27.8071 162.348 27.5377 162.774C27.2683 163.201 26.9114 163.542 26.4669 163.798C26.0269 164.049 25.5487 164.175 25.0324 164.175Z" fill="#0C1021" fill-opacity="0.5"/>
<path d="M54.24 164.162L53.1153 163.037C52.7202 163.387 52.2712 163.661 51.7684 163.859C51.27 164.056 50.7424 164.155 50.1857 164.155C49.5437 164.155 48.942 164.029 48.3808 163.778C47.8196 163.522 47.3257 163.172 46.8992 162.727C46.4727 162.278 46.1382 161.757 45.8957 161.165C45.6578 160.572 45.5388 159.939 45.5388 159.266C45.5388 158.592 45.6578 157.961 45.8957 157.373C46.1382 156.78 46.4727 156.26 46.8992 155.811C47.3257 155.362 47.8196 155.011 48.3808 154.76C48.942 154.504 49.5437 154.376 50.1857 154.376C50.8278 154.376 51.4271 154.504 51.9839 154.76C52.5451 155.011 53.039 155.362 53.4655 155.811C53.892 156.26 54.2243 156.78 54.4622 157.373C54.7047 157.961 54.8259 158.592 54.8259 159.266C54.8259 159.858 54.7316 160.417 54.5431 160.942C54.3545 161.468 54.0941 161.941 53.7618 162.363L54.9067 163.495L54.24 164.162ZM50.1857 163.212C50.5943 163.212 50.9939 163.138 51.3845 162.99C51.7796 162.842 52.1276 162.631 52.4284 162.357L51.0343 160.963L51.701 160.289L53.0682 161.663C53.3331 161.326 53.5351 160.951 53.6743 160.538C53.8135 160.125 53.8831 159.701 53.8831 159.266C53.8831 158.722 53.7865 158.213 53.5935 157.737C53.4004 157.261 53.1333 156.841 52.792 156.477C52.4553 156.114 52.0624 155.831 51.6135 155.629C51.169 155.422 50.6931 155.319 50.1857 155.319C49.6694 155.319 49.1867 155.424 48.7378 155.636C48.2933 155.842 47.9004 156.129 47.5592 156.498C47.2224 156.861 46.9576 157.281 46.7645 157.757C46.5759 158.228 46.4816 158.731 46.4816 159.266C46.4816 159.809 46.5782 160.318 46.7712 160.794C46.9643 161.27 47.2314 161.69 47.5727 162.054C47.9139 162.417 48.3067 162.702 48.7512 162.909C49.2002 163.111 49.6784 163.212 50.1857 163.212ZM55.9039 161.421V157.265H56.8467V161.232C56.8467 161.6 56.9365 161.935 57.1161 162.236C57.2957 162.536 57.5359 162.777 57.8367 162.956C58.1421 163.136 58.4765 163.226 58.8402 163.226C59.2084 163.226 59.5406 163.136 59.837 162.956C60.1378 162.777 60.378 162.536 60.5576 162.236C60.7372 161.935 60.827 161.6 60.827 161.232V157.265H61.7698L61.7765 164H60.8337L60.827 163.057C60.589 163.398 60.2792 163.67 59.8976 163.872C59.5204 164.074 59.1074 164.175 58.6584 164.175C58.151 164.175 57.6886 164.052 57.271 163.805C56.8535 163.558 56.5212 163.226 56.2743 162.808C56.0274 162.39 55.9039 161.928 55.9039 161.421ZM68.6017 157.265H69.5446V164H68.6017L68.5681 162.747C68.3481 163.174 68.0405 163.52 67.6454 163.784C67.2503 164.045 66.7789 164.175 66.2311 164.175C65.7372 164.175 65.2748 164.083 64.8438 163.899C64.4128 163.71 64.0334 163.452 63.7056 163.124C63.3779 162.797 63.1219 162.417 62.9379 161.986C62.7538 161.555 62.6617 161.093 62.6617 160.599C62.6617 160.114 62.7515 159.658 62.9311 159.232C63.1152 158.805 63.3666 158.43 63.6854 158.107C64.0087 157.784 64.3813 157.532 64.8034 157.353C65.2299 157.169 65.6856 157.077 66.1705 157.077C66.7317 157.077 67.2211 157.211 67.6387 157.481C68.0562 157.746 68.3885 158.094 68.6354 158.525L68.6017 157.265ZM66.2109 163.259C66.6913 163.259 67.1044 163.142 67.4501 162.909C67.7958 162.671 68.0607 162.352 68.2448 161.953C68.4334 161.553 68.5277 161.113 68.5277 160.633C68.5277 160.139 68.4334 159.694 68.2448 159.299C68.0562 158.9 67.7891 158.583 67.4434 158.35C67.0977 158.116 66.6868 157.999 66.2109 157.999C65.735 157.999 65.2995 158.118 64.9044 158.356C64.5138 158.59 64.2017 158.906 63.9683 159.306C63.7393 159.706 63.6248 160.148 63.6248 160.633C63.6248 161.122 63.7438 161.567 63.9817 161.966C64.2197 162.361 64.534 162.676 64.9246 162.909C65.3197 163.142 65.7485 163.259 66.2109 163.259ZM70.9843 164V153.898H71.9272V164H70.9843ZM73.5493 157.265H74.4922V164H73.5493V157.265ZM74.0275 156.087C73.8748 156.087 73.7446 156.037 73.6369 155.939C73.5336 155.835 73.482 155.707 73.482 155.555C73.482 155.402 73.5336 155.276 73.6369 155.178C73.7446 155.074 73.8748 155.023 74.0275 155.023C74.1756 155.023 74.3014 155.074 74.4046 155.178C74.5124 155.276 74.5663 155.402 74.5663 155.555C74.5663 155.707 74.5146 155.835 74.4114 155.939C74.3081 156.037 74.1801 156.087 74.0275 156.087ZM77.5084 155.508V157.265H79.5288V158.208H77.5084V164H76.5655V158.208H75.6429V157.265H76.5655V155.508C76.5655 155.18 76.6441 154.883 76.8012 154.619C76.9629 154.349 77.1784 154.136 77.4478 153.979C77.7171 153.817 78.0157 153.736 78.3435 153.736C78.5814 153.736 78.8104 153.783 79.0304 153.878C79.2549 153.972 79.4547 154.111 79.6298 154.295L78.9563 154.962C78.8845 154.872 78.7925 154.803 78.6802 154.753C78.5725 154.704 78.4602 154.679 78.3435 154.679C78.1145 154.679 77.9169 154.76 77.7508 154.922C77.5892 155.083 77.5084 155.279 77.5084 155.508ZM80.5602 157.265H81.5031V164H80.5602V157.265ZM81.0384 156.087C80.8857 156.087 80.7555 156.037 80.6478 155.939C80.5445 155.835 80.4929 155.707 80.4929 155.555C80.4929 155.402 80.5445 155.276 80.6478 155.178C80.7555 155.074 80.8857 155.023 81.0384 155.023C81.1866 155.023 81.3123 155.074 81.4155 155.178C81.5233 155.276 81.5772 155.402 81.5772 155.555C81.5772 155.707 81.5255 155.835 81.4223 155.939C81.319 156.037 81.1911 156.087 81.0384 156.087ZM86.0227 164.175C85.4031 164.175 84.8374 164.016 84.3256 163.697C83.8182 163.378 83.4119 162.952 83.1066 162.417C82.8058 161.879 82.6554 161.284 82.6554 160.633C82.6554 160.139 82.7429 159.679 82.918 159.252C83.0931 158.821 83.3333 158.444 83.6386 158.121C83.9484 157.793 84.3076 157.537 84.7162 157.353C85.1247 157.169 85.5603 157.077 86.0227 157.077C86.5211 157.077 86.979 157.176 87.3966 157.373C87.8186 157.571 88.1801 157.847 88.4809 158.201C88.7862 158.556 89.0152 158.971 89.1678 159.447C89.325 159.923 89.3901 160.437 89.3631 160.99H83.6521C83.706 161.416 83.8407 161.798 84.0562 162.134C84.2762 162.471 84.5545 162.738 84.8913 162.936C85.2325 163.129 85.6096 163.228 86.0227 163.232C86.4717 163.232 86.8758 163.116 87.235 162.882C87.5986 162.649 87.8905 162.328 88.1105 161.919L89.0668 162.141C88.7974 162.738 88.3911 163.228 87.8478 163.609C87.3045 163.987 86.6962 164.175 86.0227 164.175ZM83.6252 160.229H88.4135C88.3821 159.811 88.2541 159.429 88.0296 159.084C87.8096 158.733 87.5245 158.455 87.1743 158.249C86.8241 158.038 86.4403 157.932 86.0227 157.932C85.6052 157.932 85.2235 158.035 84.8778 158.242C84.5321 158.444 84.2492 158.72 84.0292 159.07C83.8092 159.416 83.6745 159.802 83.6252 160.229ZM95.9945 153.898H96.9373V164H95.9945V162.741C95.761 163.172 95.44 163.52 95.0314 163.784C94.6273 164.045 94.1469 164.175 93.5902 164.175C93.1008 164.175 92.6428 164.083 92.2163 163.899C91.7898 163.715 91.4126 163.461 91.0849 163.138C90.7616 162.81 90.5079 162.433 90.3239 162.007C90.1398 161.58 90.0477 161.122 90.0477 160.633C90.0477 160.143 90.1398 159.685 90.3239 159.259C90.5079 158.828 90.7616 158.451 91.0849 158.127C91.4126 157.8 91.7898 157.544 92.2163 157.36C92.6428 157.176 93.1008 157.083 93.5902 157.083C94.1469 157.083 94.6273 157.216 95.0314 157.481C95.44 157.741 95.761 158.085 95.9945 158.511V153.898ZM93.5969 163.259C94.0773 163.259 94.4904 163.142 94.8361 162.909C95.1818 162.671 95.4467 162.352 95.6308 161.953C95.8194 161.553 95.9137 161.113 95.9137 160.633C95.9137 160.139 95.8194 159.694 95.6308 159.299C95.4422 158.9 95.1751 158.583 94.8294 158.35C94.4837 158.116 94.0728 157.999 93.5969 157.999C93.121 157.999 92.6877 158.118 92.2971 158.356C91.9065 158.59 91.5945 158.906 91.361 159.306C91.1275 159.706 91.0108 160.148 91.0108 160.633C91.0108 161.122 91.1298 161.567 91.3677 161.966C91.6057 162.361 91.92 162.676 92.3106 162.909C92.7057 163.142 93.1345 163.259 93.5969 163.259Z" fill="#0C1021"/>
<g filter="url(#filter0_d_1960_7249)">
<rect x="188" width="102" height="51" rx="16" fill="white" shape-rendering="crispEdges"/>
<rect x="188.5" y="0.5" width="101" height="50" rx="15.5" stroke="#0C1021" stroke-opacity="0.1" shape-rendering="crispEdges"/>
<circle cx="203.5" cy="25.5" r="3.5" fill="#35E493"/>
<path d="M218.967 11.5714H220.139L223.573 21H222.57L221.836 18.9796H217.276L216.542 21H215.539L218.967 11.5714ZM217.62 18.0367H221.486L219.553 12.7298L217.62 18.0367ZM227.164 21H225.965L223.507 14.2451H224.51L226.564 19.8955L228.618 14.2451H229.622L227.164 21ZM235.829 14.2653H236.771V21.2492C236.771 21.6802 236.677 22.0843 236.489 22.4614C236.305 22.8386 236.053 23.1686 235.734 23.4514C235.42 23.7388 235.061 23.9633 234.657 24.1249C234.253 24.2865 233.833 24.3673 233.397 24.3673C232.93 24.3673 232.479 24.2596 232.044 24.0441C231.608 23.8331 231.229 23.5502 230.906 23.1955C230.587 22.8408 230.36 22.448 230.225 22.0169L231.094 21.6196C231.179 21.9563 231.339 22.2594 231.572 22.5288C231.81 22.8027 232.089 23.0182 232.407 23.1753C232.731 23.3369 233.061 23.4178 233.397 23.4178C233.707 23.4178 234.006 23.3594 234.293 23.2427C234.585 23.1304 234.845 22.9755 235.074 22.778C235.308 22.5804 235.492 22.3492 235.627 22.0843C235.761 21.8239 235.829 21.5455 235.829 21.2492V19.7608C235.595 20.1829 235.279 20.5241 234.879 20.7845C234.484 21.0449 234.024 21.1751 233.498 21.1751C233.027 21.1751 232.582 21.0831 232.165 20.899C231.752 20.7149 231.388 20.4612 231.074 20.138C230.76 19.8102 230.513 19.4331 230.333 19.0065C230.158 18.58 230.07 18.122 230.07 17.6327C230.07 17.1433 230.158 16.6853 230.333 16.2588C230.513 15.8278 230.76 15.4506 231.074 15.1273C231.388 14.7996 231.752 14.5437 232.165 14.3596C232.582 14.1755 233.027 14.0835 233.498 14.0835C234.024 14.0835 234.484 14.2137 234.879 14.4741C235.279 14.73 235.595 15.0712 235.829 15.4978V14.2653ZM233.505 20.2592C233.972 20.2592 234.374 20.138 234.711 19.8955C235.052 19.6531 235.315 19.332 235.499 18.9324C235.683 18.5329 235.775 18.0996 235.775 17.6327C235.775 17.1522 235.68 16.7145 235.492 16.3194C235.308 15.9198 235.045 15.601 234.704 15.3631C234.363 15.1206 233.963 14.9994 233.505 14.9994C233.047 14.9994 232.63 15.1184 232.252 15.3563C231.88 15.5898 231.584 15.9063 231.364 16.3059C231.144 16.7055 231.034 17.1478 231.034 17.6327C231.034 18.1176 231.146 18.5598 231.37 18.9594C231.595 19.3545 231.893 19.671 232.266 19.909C232.643 20.1424 233.056 20.2592 233.505 20.2592ZM243.71 21.128C243.342 21.119 242.983 21.0516 242.632 20.9259C242.282 20.8002 241.977 20.6296 241.716 20.4141C241.456 20.1986 241.27 19.9539 241.157 19.68L241.972 19.3298C242.044 19.5049 242.177 19.6665 242.37 19.8147C242.567 19.9584 242.792 20.0751 243.043 20.1649C243.295 20.2502 243.544 20.2929 243.791 20.2929C244.065 20.2929 244.321 20.248 244.558 20.1582C244.796 20.0684 244.989 19.9404 245.138 19.7743C245.29 19.6037 245.367 19.4039 245.367 19.1749C245.367 18.928 245.286 18.7349 245.124 18.5957C244.963 18.452 244.758 18.3398 244.511 18.259C244.264 18.1737 244.011 18.0929 243.75 18.0165C243.274 17.8863 242.855 17.7427 242.491 17.5855C242.127 17.4284 241.842 17.2286 241.636 16.9861C241.434 16.7392 241.333 16.4227 241.333 16.0365C241.333 15.628 241.447 15.2755 241.676 14.9792C241.909 14.6784 242.213 14.4471 242.585 14.2855C242.962 14.1194 243.364 14.0363 243.791 14.0363C244.338 14.0363 244.837 14.1553 245.286 14.3933C245.739 14.6312 246.067 14.9478 246.269 15.3429L245.508 15.7941C245.427 15.61 245.299 15.4506 245.124 15.3159C244.949 15.1812 244.749 15.0757 244.525 14.9994C244.305 14.9231 244.08 14.8827 243.851 14.8782C243.564 14.8737 243.297 14.9163 243.05 15.0061C242.803 15.0914 242.603 15.2194 242.451 15.39C242.302 15.5606 242.228 15.7694 242.228 16.0163C242.228 16.2633 242.302 16.4518 242.451 16.582C242.599 16.7078 242.798 16.811 243.05 16.8918C243.306 16.9682 243.593 17.058 243.912 17.1612C244.321 17.2914 244.704 17.4396 245.064 17.6057C245.423 17.7718 245.712 17.9784 245.932 18.2253C246.152 18.4722 246.26 18.7843 246.256 19.1614C246.256 19.5655 246.134 19.918 245.892 20.2188C245.649 20.5196 245.335 20.7508 244.949 20.9124C244.563 21.0696 244.15 21.1414 243.71 21.128ZM248.359 24.3673H247.417V14.2653H248.359V15.5247C248.593 15.0982 248.912 14.7524 249.316 14.4875C249.72 14.2227 250.2 14.0902 250.757 14.0902C251.246 14.0902 251.704 14.1822 252.131 14.3663C252.562 14.5504 252.939 14.8063 253.262 15.1341C253.585 15.4573 253.839 15.8322 254.023 16.2588C254.207 16.6853 254.299 17.1433 254.299 17.6327C254.299 18.122 254.207 18.5822 254.023 19.0133C253.839 19.4443 253.585 19.8237 253.262 20.1514C252.939 20.4747 252.562 20.7284 252.131 20.9124C251.704 21.0965 251.246 21.1886 250.757 21.1886C250.2 21.1886 249.72 21.0561 249.316 20.7912C248.912 20.5263 248.593 20.1806 248.359 19.7541V24.3673ZM250.75 15.0061C250.279 15.0061 249.868 15.1251 249.518 15.3631C249.172 15.5965 248.905 15.9108 248.716 16.3059C248.528 16.701 248.433 17.1433 248.433 17.6327C248.433 18.1131 248.525 18.5531 248.71 18.9527C248.898 19.3522 249.165 19.671 249.511 19.909C249.861 20.1469 250.274 20.2659 250.75 20.2659C251.217 20.2659 251.646 20.1492 252.037 19.9157C252.432 19.6822 252.748 19.368 252.986 18.9729C253.224 18.5733 253.343 18.1265 253.343 17.6327C253.343 17.1522 253.226 16.7145 252.993 16.3194C252.759 15.9198 252.447 15.601 252.057 15.3631C251.666 15.1251 251.231 15.0061 250.75 15.0061ZM258.338 21.1751C257.718 21.1751 257.152 21.0157 256.641 20.6969C256.133 20.3782 255.727 19.9516 255.422 19.4173C255.121 18.8786 254.97 18.2837 254.97 17.6327C254.97 17.1388 255.058 16.6786 255.233 16.252C255.408 15.821 255.648 15.4439 255.954 15.1206C256.263 14.7929 256.623 14.5369 257.031 14.3529C257.44 14.1688 257.875 14.0767 258.338 14.0767C258.836 14.0767 259.294 14.1755 259.712 14.3731C260.134 14.5706 260.495 14.8467 260.796 15.2014C261.101 15.5561 261.33 15.9714 261.483 16.4473C261.64 16.9233 261.705 17.4373 261.678 17.9896H255.967C256.021 18.4161 256.156 18.7978 256.371 19.1345C256.591 19.4712 256.87 19.7384 257.206 19.9359C257.548 20.129 257.925 20.2278 258.338 20.2322C258.787 20.2322 259.191 20.1155 259.55 19.882C259.914 19.6486 260.206 19.3276 260.426 18.919L261.382 19.1412C261.112 19.7384 260.706 20.2278 260.163 20.6094C259.62 20.9865 259.011 21.1751 258.338 21.1751ZM255.94 17.2286H260.729C260.697 16.811 260.569 16.4294 260.345 16.0837C260.125 15.7335 259.84 15.4551 259.489 15.2486C259.139 15.0376 258.755 14.932 258.338 14.932C257.92 14.932 257.539 15.0353 257.193 15.2418C256.847 15.4439 256.564 15.72 256.344 16.0702C256.124 16.4159 255.99 16.802 255.94 17.2286ZM265.73 21.1751C265.111 21.1751 264.545 21.0157 264.033 20.6969C263.526 20.3782 263.119 19.9516 262.814 19.4173C262.513 18.8786 262.363 18.2837 262.363 17.6327C262.363 17.1388 262.45 16.6786 262.625 16.252C262.801 15.821 263.041 15.4439 263.346 15.1206C263.656 14.7929 264.015 14.5369 264.424 14.3529C264.832 14.1688 265.268 14.0767 265.73 14.0767C266.229 14.0767 266.686 14.1755 267.104 14.3731C267.526 14.5706 267.887 14.8467 268.188 15.2014C268.494 15.5561 268.723 15.9714 268.875 16.4473C269.032 16.9233 269.097 17.4373 269.071 17.9896H263.36C263.413 18.4161 263.548 18.7978 263.764 19.1345C263.984 19.4712 264.262 19.7384 264.599 19.9359C264.94 20.129 265.317 20.2278 265.73 20.2322C266.179 20.2322 266.583 20.1155 266.942 19.882C267.306 19.6486 267.598 19.3276 267.818 18.919L268.774 19.1412C268.505 19.7384 268.099 20.2278 267.555 20.6094C267.012 20.9865 266.404 21.1751 265.73 21.1751ZM263.333 17.2286H268.121C268.09 16.811 267.962 16.4294 267.737 16.0837C267.517 15.7335 267.232 15.4551 266.882 15.2486C266.532 15.0376 266.148 14.932 265.73 14.932C265.313 14.932 264.931 15.0353 264.585 15.2418C264.24 15.4439 263.957 15.72 263.737 16.0702C263.517 16.4159 263.382 16.802 263.333 17.2286ZM275.702 10.898H276.645V21H275.702V19.7406C275.468 20.1716 275.147 20.5196 274.739 20.7845C274.335 21.0449 273.854 21.1751 273.298 21.1751C272.808 21.1751 272.35 21.0831 271.924 20.899C271.497 20.7149 271.12 20.4612 270.792 20.138C270.469 19.8102 270.215 19.4331 270.031 19.0065C269.847 18.58 269.755 18.122 269.755 17.6327C269.755 17.1433 269.847 16.6853 270.031 16.2588C270.215 15.8278 270.469 15.4506 270.792 15.1273C271.12 14.7996 271.497 14.5437 271.924 14.3596C272.35 14.1755 272.808 14.0835 273.298 14.0835C273.854 14.0835 274.335 14.2159 274.739 14.4808C275.147 14.7412 275.468 15.0847 275.702 15.5112V10.898ZM273.304 20.2592C273.785 20.2592 274.198 20.1424 274.544 19.909C274.889 19.671 275.154 19.3522 275.338 18.9527C275.527 18.5531 275.621 18.1131 275.621 17.6327C275.621 17.1388 275.527 16.6943 275.338 16.2992C275.15 15.8996 274.883 15.5831 274.537 15.3496C274.191 15.1161 273.78 14.9994 273.304 14.9994C272.828 14.9994 272.395 15.1184 272.005 15.3563C271.614 15.5898 271.302 15.9063 271.068 16.3059C270.835 16.7055 270.718 17.1478 270.718 17.6327C270.718 18.122 270.837 18.5665 271.075 18.9661C271.313 19.3612 271.627 19.6755 272.018 19.909C272.413 20.1424 272.842 20.2592 273.304 20.2592Z" fill="#0C1021" fill-opacity="0.5"/>
<path d="M219.147 39.2027C218.461 39.2027 217.832 39.0338 217.261 38.696C216.694 38.353 216.239 37.8956 215.896 37.324C215.559 36.7523 215.39 36.1209 215.39 35.4297C215.39 35.0295 215.437 34.6891 215.53 34.4085C215.624 34.1226 215.761 33.8056 215.943 33.4574L219.038 28.0863H220.309L218.04 32.0153C218.498 31.8386 218.958 31.7606 219.42 31.7814C219.883 31.797 220.324 31.8983 220.745 32.0854C221.166 32.2725 221.54 32.5298 221.868 32.8572C222.195 33.1794 222.452 33.5588 222.64 33.9953C222.832 34.4319 222.928 34.91 222.928 35.4297C222.928 35.9494 222.829 36.4379 222.632 36.8952C222.434 37.3474 222.161 37.7475 221.813 38.0957C221.47 38.4387 221.07 38.709 220.613 38.9065C220.155 39.1039 219.667 39.2027 219.147 39.2027ZM219.147 38.1113C219.667 38.1113 220.129 37.9866 220.535 37.7371C220.94 37.4825 221.257 37.1499 221.486 36.7393C221.72 36.3288 221.837 35.8896 221.837 35.4219C221.837 34.9334 221.717 34.489 221.478 34.0889C221.239 33.6835 220.917 33.3613 220.511 33.1222C220.106 32.878 219.656 32.7558 219.163 32.7558C218.653 32.7558 218.196 32.8806 217.791 33.13C217.385 33.3795 217.066 33.7069 216.832 34.1122C216.598 34.5124 216.481 34.949 216.481 35.4219C216.481 35.9312 216.603 36.3885 216.848 36.7939C217.097 37.1992 217.424 37.5215 217.83 37.7605C218.235 37.9944 218.674 38.1113 219.147 38.1113ZM230.479 39.1481C230.053 39.1377 229.637 39.0598 229.232 38.9142C228.826 38.7687 228.473 38.5712 228.172 38.3218C227.87 38.0723 227.654 37.7891 227.525 37.4721L228.468 37.0667C228.551 37.2694 228.704 37.4565 228.928 37.628C229.156 37.7943 229.416 37.9294 229.707 38.0334C229.998 38.1321 230.287 38.1815 230.573 38.1815C230.89 38.1815 231.186 38.1295 231.461 38.0256C231.737 37.9216 231.96 37.7735 232.132 37.5812C232.308 37.3837 232.397 37.1525 232.397 36.8874C232.397 36.6016 232.303 36.3781 232.116 36.217C231.929 36.0507 231.692 35.9208 231.407 35.8272C231.121 35.7285 230.827 35.635 230.526 35.5466C229.975 35.3959 229.489 35.2296 229.068 35.0477C228.647 34.8658 228.317 34.6345 228.078 34.3539C227.844 34.0681 227.727 33.7017 227.727 33.2547C227.727 32.7818 227.86 32.3738 228.125 32.0308C228.395 31.6827 228.746 31.415 229.177 31.2279C229.614 31.0356 230.079 30.9395 230.573 30.9395C231.207 30.9395 231.783 31.0772 232.303 31.3526C232.828 31.6281 233.207 31.9945 233.441 32.4518L232.56 32.9741C232.467 32.761 232.319 32.5765 232.116 32.4206C231.913 32.2647 231.682 32.1426 231.422 32.0542C231.168 31.9659 230.908 31.9191 230.643 31.9139C230.31 31.9087 230.001 31.9581 229.715 32.062C229.429 32.1608 229.198 32.3089 229.021 32.5064C228.85 32.7039 228.764 32.9455 228.764 33.2314C228.764 33.5172 228.85 33.7355 229.021 33.8862C229.193 34.0317 229.424 34.1512 229.715 34.2448C230.011 34.3331 230.344 34.4371 230.713 34.5566C231.186 34.7073 231.63 34.8788 232.046 35.0711C232.462 35.2634 232.797 35.5024 233.052 35.7883C233.306 36.0741 233.431 36.4353 233.426 36.8718C233.426 37.3396 233.285 37.7475 233.005 38.0957C232.724 38.4439 232.36 38.7116 231.913 38.8987C231.466 39.0806 230.988 39.1637 230.479 39.1481ZM238.139 39.2027C237.421 39.2027 236.767 39.0182 236.174 38.6492C235.587 38.2802 235.116 37.7865 234.763 37.1681C234.415 36.5444 234.241 35.8558 234.241 35.1023C234.241 34.5306 234.342 33.9979 234.545 33.5042C234.748 33.0053 235.026 32.5687 235.379 32.1946C235.738 31.8152 236.153 31.5189 236.626 31.3059C237.099 31.0928 237.603 30.9863 238.139 30.9863C238.715 30.9863 239.245 31.1006 239.729 31.3293C240.217 31.5579 240.636 31.8775 240.984 32.2881C241.337 32.6987 241.602 33.1794 241.779 33.7303C241.961 34.2811 242.036 34.8762 242.005 35.5154H235.395C235.457 36.0091 235.613 36.4509 235.862 36.8407C236.117 37.2304 236.439 37.5396 236.829 37.7683C237.224 37.9918 237.66 38.1061 238.139 38.1113C238.658 38.1113 239.126 37.9762 239.542 37.706C239.963 37.4357 240.3 37.0641 240.555 36.5912L241.662 36.8485C241.35 37.5396 240.88 38.1061 240.251 38.5479C239.622 38.9844 238.918 39.2027 238.139 39.2027ZM235.363 34.6345H240.906C240.87 34.1512 240.721 33.7095 240.462 33.3093C240.207 32.9039 239.877 32.5817 239.472 32.3427C239.066 32.0984 238.622 31.9763 238.139 31.9763C237.655 31.9763 237.213 32.0958 236.813 32.3349C236.413 32.5687 236.086 32.8884 235.831 33.2937C235.576 33.6939 235.421 34.1408 235.363 34.6345ZM248.831 37.0433L249.806 37.5734C249.452 38.0671 249.003 38.4621 248.457 38.7583C247.917 39.0546 247.329 39.2027 246.695 39.2027C245.978 39.2027 245.323 39.0182 244.731 38.6492C244.144 38.2802 243.673 37.7865 243.32 37.1681C242.972 36.5444 242.798 35.8558 242.798 35.1023C242.798 34.5306 242.899 33.9979 243.102 33.5042C243.304 33.0053 243.582 32.5687 243.936 32.1946C244.294 31.8152 244.71 31.5189 245.183 31.3059C245.656 31.0928 246.16 30.9863 246.695 30.9863C247.329 30.9863 247.917 31.1344 248.457 31.4306C249.003 31.7268 249.452 32.1244 249.806 32.6233L248.831 33.1456C248.561 32.8026 248.236 32.5402 247.857 32.3583C247.477 32.1712 247.09 32.0776 246.695 32.0776C246.17 32.0776 245.695 32.2179 245.269 32.4986C244.843 32.774 244.505 33.1404 244.255 33.5977C244.011 34.0551 243.889 34.5566 243.889 35.1023C243.889 35.6479 244.014 36.1495 244.263 36.6068C244.518 37.0641 244.858 37.4305 245.284 37.706C245.71 37.9762 246.181 38.1113 246.695 38.1113C247.121 38.1113 247.522 38.0126 247.896 37.8151C248.27 37.6176 248.582 37.3604 248.831 37.0433Z" fill="#0C1021"/>
</g>
<g filter="url(#filter1_d_1960_7249)">
<rect x="127" y="167" width="115" height="51" rx="16" fill="white" shape-rendering="crispEdges"/>
<rect x="127.5" y="167.5" width="114" height="50" rx="15.5" stroke="#0C1021" stroke-opacity="0.1" shape-rendering="crispEdges"/>
<circle cx="142.5" cy="192.5" r="3.5" fill="#4268FF"/>
<path d="M158.101 188.175C157.599 188.175 157.111 188.097 156.64 187.939C156.173 187.782 155.764 187.558 155.414 187.266C155.064 186.974 154.817 186.626 154.673 186.222L155.556 185.892C155.654 186.17 155.834 186.411 156.094 186.613C156.359 186.81 156.667 186.963 157.017 187.071C157.372 187.178 157.733 187.232 158.101 187.232C158.532 187.232 158.934 187.16 159.307 187.017C159.68 186.873 159.98 186.673 160.209 186.417C160.438 186.157 160.553 185.852 160.553 185.501C160.553 185.147 160.434 184.855 160.196 184.626C159.958 184.397 159.65 184.217 159.273 184.087C158.901 183.952 158.51 183.849 158.101 183.777C157.459 183.665 156.882 183.512 156.371 183.319C155.863 183.126 155.461 182.855 155.165 182.504C154.869 182.15 154.721 181.683 154.721 181.104C154.721 180.56 154.878 180.089 155.192 179.689C155.506 179.29 155.919 178.98 156.431 178.76C156.948 178.54 157.504 178.43 158.101 178.43C158.591 178.43 159.069 178.506 159.536 178.659C160.003 178.812 160.414 179.034 160.768 179.326C161.128 179.618 161.386 179.974 161.543 180.397L160.647 180.72C160.548 180.437 160.367 180.197 160.102 179.999C159.841 179.797 159.536 179.644 159.186 179.541C158.836 179.433 158.474 179.38 158.101 179.38C157.675 179.375 157.275 179.447 156.903 179.595C156.534 179.739 156.236 179.941 156.007 180.201C155.778 180.457 155.663 180.758 155.663 181.104C155.663 181.508 155.769 181.82 155.98 182.04C156.196 182.255 156.487 182.417 156.856 182.525C157.224 182.632 157.639 182.729 158.101 182.814C158.703 182.918 159.262 183.079 159.778 183.299C160.295 183.515 160.71 183.804 161.024 184.168C161.339 184.527 161.496 184.972 161.496 185.501C161.496 186.04 161.339 186.512 161.024 186.916C160.71 187.315 160.295 187.625 159.778 187.845C159.267 188.065 158.708 188.175 158.101 188.175ZM162.694 185.421V181.265H163.637V185.232C163.637 185.6 163.727 185.935 163.906 186.236C164.086 186.536 164.326 186.777 164.627 186.956C164.932 187.136 165.267 187.226 165.63 187.226C165.999 187.226 166.331 187.136 166.627 186.956C166.928 186.777 167.168 186.536 167.348 186.236C167.527 185.935 167.617 185.6 167.617 185.232V181.265H168.56L168.567 188H167.624L167.617 187.057C167.379 187.398 167.069 187.67 166.688 187.872C166.311 188.074 165.898 188.175 165.449 188.175C164.941 188.175 164.479 188.052 164.061 187.805C163.644 187.558 163.311 187.226 163.064 186.808C162.818 186.39 162.694 185.928 162.694 185.421ZM174.665 186.31L175.506 186.768C175.201 187.194 174.813 187.535 174.341 187.791C173.874 188.047 173.367 188.175 172.819 188.175C172.2 188.175 171.634 188.016 171.122 187.697C170.615 187.378 170.208 186.952 169.903 186.417C169.602 185.879 169.452 185.284 169.452 184.633C169.452 184.139 169.539 183.679 169.715 183.252C169.89 182.821 170.13 182.444 170.435 182.121C170.745 181.793 171.104 181.537 171.513 181.353C171.921 181.169 172.357 181.077 172.819 181.077C173.367 181.077 173.874 181.205 174.341 181.461C174.813 181.717 175.201 182.06 175.506 182.491L174.665 182.942C174.431 182.646 174.15 182.419 173.823 182.262C173.495 182.1 173.16 182.02 172.819 182.02C172.366 182.02 171.955 182.141 171.587 182.383C171.219 182.621 170.927 182.938 170.711 183.333C170.5 183.728 170.395 184.161 170.395 184.633C170.395 185.104 170.503 185.537 170.718 185.932C170.938 186.328 171.232 186.644 171.6 186.882C171.968 187.116 172.375 187.232 172.819 187.232C173.187 187.232 173.533 187.147 173.856 186.976C174.18 186.806 174.449 186.583 174.665 186.31ZM181.439 186.31L182.281 186.768C181.975 187.194 181.587 187.535 181.115 187.791C180.649 188.047 180.141 188.175 179.593 188.175C178.974 188.175 178.408 188.016 177.896 187.697C177.389 187.378 176.983 186.952 176.677 186.417C176.376 185.879 176.226 185.284 176.226 184.633C176.226 184.139 176.314 183.679 176.489 183.252C176.664 182.821 176.904 182.444 177.209 182.121C177.519 181.793 177.878 181.537 178.287 181.353C178.695 181.169 179.131 181.077 179.593 181.077C180.141 181.077 180.649 181.205 181.115 181.461C181.587 181.717 181.975 182.06 182.281 182.491L181.439 182.942C181.205 182.646 180.925 182.419 180.597 182.262C180.269 182.1 179.935 182.02 179.593 182.02C179.14 182.02 178.729 182.141 178.361 182.383C177.993 182.621 177.701 182.938 177.485 183.333C177.274 183.728 177.169 184.161 177.169 184.633C177.169 185.104 177.277 185.537 177.492 185.932C177.712 186.328 178.006 186.644 178.374 186.882C178.743 187.116 179.149 187.232 179.593 187.232C179.962 187.232 180.307 187.147 180.631 186.976C180.954 186.806 181.223 186.583 181.439 186.31ZM186.368 188.175C185.748 188.175 185.182 188.016 184.67 187.697C184.163 187.378 183.757 186.952 183.451 186.417C183.151 185.879 183 185.284 183 184.633C183 184.139 183.088 183.679 183.263 183.252C183.438 182.821 183.678 182.444 183.983 182.121C184.293 181.793 184.652 181.537 185.061 181.353C185.47 181.169 185.905 181.077 186.368 181.077C186.866 181.077 187.324 181.176 187.741 181.373C188.163 181.571 188.525 181.847 188.826 182.201C189.131 182.556 189.36 182.971 189.513 183.447C189.67 183.923 189.735 184.437 189.708 184.99H183.997C184.051 185.416 184.186 185.798 184.401 186.134C184.621 186.471 184.899 186.738 185.236 186.936C185.577 187.129 185.955 187.228 186.368 187.232C186.817 187.232 187.221 187.116 187.58 186.882C187.943 186.649 188.235 186.328 188.455 185.919L189.412 186.141C189.142 186.738 188.736 187.228 188.193 187.609C187.649 187.987 187.041 188.175 186.368 188.175ZM183.97 184.229H188.758C188.727 183.811 188.599 183.429 188.375 183.084C188.155 182.733 187.869 182.455 187.519 182.249C187.169 182.038 186.785 181.932 186.368 181.932C185.95 181.932 185.568 182.035 185.223 182.242C184.877 182.444 184.594 182.72 184.374 183.07C184.154 183.416 184.019 183.802 183.97 184.229ZM192.957 188.128C192.588 188.119 192.229 188.052 191.879 187.926C191.529 187.8 191.224 187.63 190.963 187.414C190.703 187.199 190.516 186.954 190.404 186.68L191.219 186.33C191.291 186.505 191.423 186.667 191.616 186.815C191.814 186.958 192.038 187.075 192.29 187.165C192.541 187.25 192.791 187.293 193.037 187.293C193.311 187.293 193.567 187.248 193.805 187.158C194.043 187.068 194.236 186.94 194.384 186.774C194.537 186.604 194.613 186.404 194.613 186.175C194.613 185.928 194.533 185.735 194.371 185.596C194.209 185.452 194.005 185.34 193.758 185.259C193.511 185.174 193.257 185.093 192.997 185.017C192.521 184.886 192.101 184.743 191.738 184.586C191.374 184.428 191.089 184.229 190.882 183.986C190.68 183.739 190.579 183.423 190.579 183.037C190.579 182.628 190.694 182.276 190.923 181.979C191.156 181.678 191.459 181.447 191.832 181.286C192.209 181.119 192.611 181.036 193.037 181.036C193.585 181.036 194.084 181.155 194.533 181.393C194.986 181.631 195.314 181.948 195.516 182.343L194.755 182.794C194.674 182.61 194.546 182.451 194.371 182.316C194.196 182.181 193.996 182.076 193.772 181.999C193.552 181.923 193.327 181.883 193.098 181.878C192.811 181.874 192.544 181.916 192.297 182.006C192.05 182.091 191.85 182.219 191.697 182.39C191.549 182.561 191.475 182.769 191.475 183.016C191.475 183.263 191.549 183.452 191.697 183.582C191.845 183.708 192.045 183.811 192.297 183.892C192.553 183.968 192.84 184.058 193.159 184.161C193.567 184.291 193.951 184.44 194.31 184.606C194.669 184.772 194.959 184.978 195.179 185.225C195.399 185.472 195.507 185.784 195.502 186.161C195.502 186.566 195.381 186.918 195.139 187.219C194.896 187.52 194.582 187.751 194.196 187.912C193.81 188.07 193.397 188.141 192.957 188.128ZM198.744 188.128C198.376 188.119 198.017 188.052 197.667 187.926C197.317 187.8 197.011 187.63 196.751 187.414C196.49 187.199 196.304 186.954 196.192 186.68L197.007 186.33C197.079 186.505 197.211 186.667 197.404 186.815C197.602 186.958 197.826 187.075 198.078 187.165C198.329 187.25 198.578 187.293 198.825 187.293C199.099 187.293 199.355 187.248 199.593 187.158C199.831 187.068 200.024 186.94 200.172 186.774C200.325 186.604 200.401 186.404 200.401 186.175C200.401 185.928 200.32 185.735 200.159 185.596C199.997 185.452 199.793 185.34 199.546 185.259C199.299 185.174 199.045 185.093 198.785 185.017C198.309 184.886 197.889 184.743 197.525 184.586C197.162 184.428 196.877 184.229 196.67 183.986C196.468 183.739 196.367 183.423 196.367 183.037C196.367 182.628 196.481 182.276 196.71 181.979C196.944 181.678 197.247 181.447 197.62 181.286C197.997 181.119 198.399 181.036 198.825 181.036C199.373 181.036 199.871 181.155 200.32 181.393C200.774 181.631 201.101 181.948 201.303 182.343L200.542 182.794C200.462 182.61 200.334 182.451 200.159 182.316C199.983 182.181 199.784 182.076 199.559 181.999C199.339 181.923 199.115 181.883 198.886 181.878C198.598 181.874 198.331 181.916 198.084 182.006C197.837 182.091 197.638 182.219 197.485 182.39C197.337 182.561 197.263 182.769 197.263 183.016C197.263 183.263 197.337 183.452 197.485 183.582C197.633 183.708 197.833 183.811 198.084 183.892C198.34 183.968 198.628 184.058 198.946 184.161C199.355 184.291 199.739 184.44 200.098 184.606C200.457 184.772 200.747 184.978 200.967 185.225C201.187 185.472 201.294 185.784 201.29 186.161C201.29 186.566 201.169 186.918 200.926 187.219C200.684 187.52 200.37 187.751 199.983 187.912C199.597 188.07 199.184 188.141 198.744 188.128ZM205.687 188V181.265H206.63V182.195C206.867 181.853 207.177 181.582 207.559 181.38C207.941 181.178 208.356 181.077 208.805 181.077C209.065 181.077 209.317 181.11 209.559 181.178L209.175 182.114C208.987 182.056 208.803 182.026 208.623 182.026C208.259 182.026 207.925 182.116 207.62 182.296C207.319 182.475 207.079 182.716 206.899 183.016C206.719 183.317 206.63 183.652 206.63 184.02V188H205.687ZM215.59 181.265H216.532V188H215.59L215.556 186.747C215.336 187.174 215.028 187.52 214.633 187.784C214.238 188.045 213.767 188.175 213.219 188.175C212.725 188.175 212.263 188.083 211.832 187.899C211.401 187.71 211.021 187.452 210.693 187.124C210.366 186.797 210.11 186.417 209.926 185.986C209.742 185.555 209.65 185.093 209.65 184.599C209.65 184.114 209.739 183.658 209.919 183.232C210.103 182.805 210.355 182.43 210.673 182.107C210.997 181.784 211.369 181.532 211.791 181.353C212.218 181.169 212.674 181.077 213.158 181.077C213.72 181.077 214.209 181.211 214.627 181.481C215.044 181.746 215.376 182.094 215.623 182.525L215.59 181.265ZM213.199 187.259C213.679 187.259 214.092 187.142 214.438 186.909C214.784 186.671 215.049 186.352 215.233 185.953C215.421 185.553 215.516 185.113 215.516 184.633C215.516 184.139 215.421 183.694 215.233 183.299C215.044 182.9 214.777 182.583 214.431 182.35C214.086 182.116 213.675 181.999 213.199 181.999C212.723 181.999 212.287 182.118 211.892 182.356C211.502 182.59 211.19 182.906 210.956 183.306C210.727 183.706 210.613 184.148 210.613 184.633C210.613 185.122 210.732 185.567 210.97 185.966C211.208 186.361 211.522 186.676 211.912 186.909C212.308 187.142 212.736 187.259 213.199 187.259ZM221.322 182.208H219.712L219.705 188H218.762L218.769 182.208H217.55V181.265H218.769L218.762 179.151H219.705L219.712 181.265H221.322V182.208ZM225.303 188.175C224.683 188.175 224.117 188.016 223.605 187.697C223.098 187.378 222.692 186.952 222.386 186.417C222.086 185.879 221.935 185.284 221.935 184.633C221.935 184.139 222.023 183.679 222.198 183.252C222.373 182.821 222.613 182.444 222.918 182.121C223.228 181.793 223.587 181.537 223.996 181.353C224.405 181.169 224.84 181.077 225.303 181.077C225.801 181.077 226.259 181.176 226.676 181.373C227.098 181.571 227.46 181.847 227.761 182.201C228.066 182.556 228.295 182.971 228.448 183.447C228.605 183.923 228.67 184.437 228.643 184.99H222.932C222.986 185.416 223.12 185.798 223.336 186.134C223.556 186.471 223.834 186.738 224.171 186.936C224.512 187.129 224.889 187.228 225.303 187.232C225.752 187.232 226.156 187.116 226.515 186.882C226.878 186.649 227.17 186.328 227.39 185.919L228.347 186.141C228.077 186.738 227.671 187.228 227.128 187.609C226.584 187.987 225.976 188.175 225.303 188.175ZM222.905 184.229H227.693C227.662 183.811 227.534 183.429 227.309 183.084C227.089 182.733 226.804 182.455 226.454 182.249C226.104 182.038 225.72 181.932 225.303 181.932C224.885 181.932 224.503 182.035 224.158 182.242C223.812 182.444 223.529 182.72 223.309 183.07C223.089 183.416 222.954 183.802 222.905 184.229Z" fill="#0C1021" fill-opacity="0.5"/>
<path d="M156.744 206L159.153 201.829C158.602 202.037 158.051 202.102 157.5 202.024C156.949 201.941 156.445 201.744 155.988 201.432C155.531 201.115 155.162 200.709 154.881 200.216C154.605 199.717 154.468 199.156 154.468 198.532C154.468 198.033 154.561 197.563 154.748 197.121C154.941 196.679 155.203 196.292 155.536 195.959C155.868 195.622 156.253 195.359 156.689 195.172C157.131 194.98 157.604 194.884 158.108 194.884C158.773 194.884 159.379 195.05 159.925 195.383C160.475 195.71 160.915 196.149 161.242 196.7C161.575 197.251 161.741 197.862 161.741 198.532C161.741 198.911 161.694 199.239 161.601 199.514C161.512 199.784 161.377 200.088 161.195 200.426L157.999 206H156.744ZM158.093 201.089C158.586 201.089 159.025 200.972 159.41 200.738C159.8 200.499 160.106 200.185 160.33 199.795C160.553 199.405 160.665 198.987 160.665 198.54C160.665 198.051 160.546 197.615 160.307 197.23C160.073 196.84 159.761 196.534 159.371 196.31C158.981 196.082 158.56 195.967 158.108 195.967C157.609 195.967 157.165 196.087 156.775 196.326C156.391 196.565 156.087 196.882 155.863 197.277C155.645 197.667 155.536 198.088 155.536 198.54C155.536 199.007 155.65 199.436 155.879 199.826C156.107 200.211 156.414 200.517 156.799 200.746C157.188 200.975 157.62 201.089 158.093 201.089ZM164 206V196.178H162.83L163.142 195.086H165.091V206H164ZM167.541 206L173.84 195.086H175.103L168.804 206H167.541ZM168.819 199.35C168.476 199.35 168.165 199.267 167.884 199.101C167.603 198.935 167.377 198.711 167.206 198.431C167.039 198.145 166.956 197.83 166.956 197.487C166.956 197.134 167.039 196.817 167.206 196.536C167.377 196.256 167.603 196.032 167.884 195.866C168.17 195.7 168.482 195.616 168.819 195.616C169.162 195.616 169.474 195.702 169.755 195.874C170.036 196.04 170.259 196.263 170.425 196.544C170.597 196.825 170.683 197.139 170.683 197.487C170.683 197.836 170.597 198.15 170.425 198.431C170.259 198.711 170.033 198.935 169.747 199.101C169.466 199.267 169.157 199.35 168.819 199.35ZM168.819 198.516C169.11 198.516 169.355 198.418 169.552 198.22C169.75 198.017 169.848 197.773 169.848 197.487C169.848 197.196 169.75 196.952 169.552 196.755C169.355 196.552 169.11 196.451 168.819 196.451C168.534 196.451 168.289 196.552 168.087 196.755C167.889 196.952 167.79 197.196 167.79 197.487C167.79 197.773 167.889 198.017 168.087 198.22C168.289 198.418 168.534 198.516 168.819 198.516ZM173.84 205.478C173.497 205.478 173.182 205.392 172.896 205.22C172.616 205.044 172.39 204.815 172.218 204.534C172.052 204.249 171.969 203.939 171.969 203.607C171.969 203.259 172.055 202.944 172.226 202.664C172.398 202.378 172.624 202.152 172.904 201.985C173.19 201.819 173.502 201.736 173.84 201.736C174.188 201.736 174.502 201.822 174.783 201.993C175.064 202.165 175.287 202.393 175.453 202.679C175.62 202.96 175.703 203.269 175.703 203.607C175.703 203.95 175.62 204.264 175.453 204.55C175.287 204.831 175.061 205.057 174.775 205.228C174.495 205.395 174.183 205.478 173.84 205.478ZM173.84 204.644C174.12 204.644 174.362 204.542 174.565 204.34C174.767 204.137 174.869 203.893 174.869 203.607C174.869 203.321 174.767 203.077 174.565 202.874C174.362 202.671 174.12 202.57 173.84 202.57C173.554 202.57 173.307 202.671 173.099 202.874C172.896 203.077 172.795 203.321 172.795 203.607C172.795 203.893 172.896 204.137 173.099 204.34C173.307 204.542 173.554 204.644 173.84 204.644Z" fill="#0C1021"/>
</g>
</g>
<defs>
<filter id="filter0_d_1960_7249" x="178" y="-6" width="122" height="71" filterUnits="userSpaceOnUse" color-interpolation-filters="sRGB">
<feFlood flood-opacity="0" result="BackgroundImageFix"/>
<feColorMatrix in="SourceAlpha" type="matrix" values="0 0 0 0 0 0 0 0 0 0 0 0 0 0 0 0 0 0 127 0" result="hardAlpha"/>
<feOffset dy="4"/>
<feGaussianBlur stdDeviation="5"/>
<feComposite in2="hardAlpha" operator="out"/>
<feColorMatrix type="matrix" values="0 0 0 0 0 0 0 0 0 0 0 0 0 0 0 0 0 0 0.05 0"/>
<feBlend mode="normal" in2="BackgroundImageFix" result="effect1_dropShadow_1960_7249"/>
<feBlend mode="normal" in="SourceGraphic" in2="effect1_dropShadow_1960_7249" result="shape"/>
</filter>
<filter id="filter1_d_1960_7249" x="117" y="161" width="135" height="71" filterUnits="userSpaceOnUse" color-interpolation-filters="sRGB">
<feFlood flood-opacity="0" result="BackgroundImageFix"/>
<feColorMatrix in="SourceAlpha" type="matrix" values="0 0 0 0 0 0 0 0 0 0 0 0 0 0 0 0 0 0 127 0" result="hardAlpha"/>
<feOffset dy="4"/>
<feGaussianBlur stdDeviation="5"/>
<feComposite in2="hardAlpha" operator="out"/>
<feColorMatrix type="matrix" values="0 0 0 0 0 0 0 0 0 0 0 0 0 0 0 0 0 0 0.05 0"/>
<feBlend mode="normal" in2="BackgroundImageFix" result="effect1_dropShadow_1960_7249"/>
<feBlend mode="normal" in="SourceGraphic" in2="effect1_dropShadow_1960_7249" result="shape"/>
</filter>
<clipPath id="clip0_1960_7249">
<rect width="290" height="225" fill="white"/>
</clipPath>
</defs>
</svg>
