<svg width="290" height="225" viewBox="0 0 290 225" fill="none" xmlns="http://www.w3.org/2000/svg">
<g clip-path="url(#clip0_1960_7339)">
<path d="M59 78.5H255.5C262.127 78.5 267.5 83.8726 267.5 90.5V100C267.5 106.627 262.127 112 255.5 112H138.5H19.5C12.8726 112 7.5 117.373 7.5 124V134C7.5 140.627 12.8726 146 19.5 146H233.5" stroke="#0C1021" stroke-opacity="0.1"/>
<g filter="url(#filter0_d_1960_7339)">
<rect x="7" y="53.4761" width="112.245" height="50.5909" rx="15.7143" fill="white" shape-rendering="crispEdges"/>
<rect x="7.48722" y="53.9633" width="111.27" height="49.6165" rx="15.2271" stroke="#0C1021" stroke-opacity="0.1" stroke-width="0.974434" shape-rendering="crispEdges"/>
<path d="M19.5014 74.2716V64.843H20.4443V73.3287H24.7747V74.2716H19.5014ZM28.5285 74.4467C27.9089 74.4467 27.3432 74.2873 26.8314 73.9685C26.324 73.6498 25.9177 73.2232 25.6124 72.689C25.3116 72.1502 25.1612 71.5553 25.1612 70.9043C25.1612 70.4104 25.2487 69.9502 25.4238 69.5236C25.5989 69.0926 25.8391 68.7155 26.1444 68.3922C26.4542 68.0645 26.8134 67.8085 27.222 67.6245C27.6306 67.4404 28.0661 67.3483 28.5285 67.3483C29.0269 67.3483 29.4848 67.4471 29.9024 67.6447C30.3244 67.8422 30.6859 68.1183 30.9867 68.473C31.292 68.8277 31.521 69.243 31.6736 69.719C31.8308 70.1949 31.8959 70.709 31.8689 71.2612H26.1579C26.2118 71.6877 26.3465 72.0694 26.562 72.4061C26.782 72.7428 27.0604 73.01 27.3971 73.2075C27.7383 73.4006 28.1155 73.4994 28.5285 73.5039C28.9775 73.5039 29.3816 73.3871 29.7408 73.1536C30.1044 72.9202 30.3963 72.5992 30.6163 72.1906L31.5726 72.4128C31.3032 73.01 30.8969 73.4994 30.3536 73.881C29.8104 74.2581 29.202 74.4467 28.5285 74.4467ZM26.131 70.5002H30.9193C30.8879 70.0826 30.76 69.701 30.5355 69.3553C30.3155 69.0051 30.0304 68.7267 29.6802 68.5202C29.33 68.3092 28.9461 68.2036 28.5285 68.2036C28.111 68.2036 27.7293 68.3069 27.3836 68.5134C27.0379 68.7155 26.7551 68.9916 26.5351 69.3418C26.3151 69.6875 26.1804 70.0736 26.131 70.5002ZM38.4936 67.5369H39.4364V74.2716H38.4936L38.4599 73.019C38.2399 73.4455 37.9323 73.7912 37.5372 74.0561C37.1421 74.3165 36.6707 74.4467 36.1229 74.4467C35.6291 74.4467 35.1666 74.3547 34.7356 74.1706C34.3046 73.982 33.9252 73.7239 33.5974 73.3961C33.2697 73.0683 33.0138 72.689 32.8297 72.2579C32.6456 71.8269 32.5536 71.3645 32.5536 70.8706C32.5536 70.3857 32.6433 69.93 32.8229 69.5034C33.007 69.0769 33.2585 68.702 33.5772 68.3787C33.9005 68.0555 34.2731 67.8041 34.6952 67.6245C35.1217 67.4404 35.5774 67.3483 36.0623 67.3483C36.6236 67.3483 37.1129 67.483 37.5305 67.7524C37.948 68.0173 38.2803 68.3653 38.5272 68.7963L38.4936 67.5369ZM36.1027 73.5308C36.5831 73.5308 36.9962 73.4141 37.3419 73.1806C37.6876 72.9426 37.9525 72.6239 38.1366 72.2243C38.3252 71.8247 38.4195 71.3847 38.4195 70.9043C38.4195 70.4104 38.3252 69.9659 38.1366 69.5708C37.948 69.1712 37.6809 68.8547 37.3352 68.6212C36.9895 68.3877 36.5787 68.271 36.1027 68.271C35.6268 68.271 35.1913 68.39 34.7962 68.6279C34.4056 68.8614 34.0936 69.1779 33.8601 69.5775C33.6311 69.9771 33.5166 70.4194 33.5166 70.9043C33.5166 71.3936 33.6356 71.8381 33.8736 72.2377C34.1115 72.6328 34.4258 72.9471 34.8164 73.1806C35.2115 73.4141 35.6403 73.5308 36.1027 73.5308ZM46.1952 64.1696H47.1381V74.2716H46.1952V73.0122C45.9617 73.4432 45.6407 73.7912 45.2321 74.0561C44.8281 74.3165 44.3477 74.4467 43.7909 74.4467C43.3015 74.4467 42.8436 74.3547 42.417 74.1706C41.9905 73.9865 41.6134 73.7328 41.2856 73.4096C40.9623 73.0818 40.7087 72.7047 40.5246 72.2781C40.3405 71.8516 40.2485 71.3936 40.2485 70.9043C40.2485 70.4149 40.3405 69.9569 40.5246 69.5304C40.7087 69.0994 40.9623 68.7222 41.2856 68.399C41.6134 68.0712 41.9905 67.8153 42.417 67.6312C42.8436 67.4471 43.3015 67.3551 43.7909 67.3551C44.3477 67.3551 44.8281 67.4875 45.2321 67.7524C45.6407 68.0128 45.9617 68.3563 46.1952 68.7828V64.1696ZM43.7977 73.5308C44.2781 73.5308 44.6911 73.4141 45.0368 73.1806C45.3826 72.9426 45.6474 72.6239 45.8315 72.2243C46.0201 71.8247 46.1144 71.3847 46.1144 70.9043C46.1144 70.4104 46.0201 69.9659 45.8315 69.5708C45.643 69.1712 45.3758 68.8547 45.0301 68.6212C44.6844 68.3877 44.2736 68.271 43.7977 68.271C43.3217 68.271 42.8885 68.39 42.4979 68.6279C42.1072 68.8614 41.7952 69.1779 41.5617 69.5775C41.3283 69.9771 41.2115 70.4194 41.2115 70.9043C41.2115 71.3936 41.3305 71.8381 41.5685 72.2377C41.8064 72.6328 42.1207 72.9471 42.5113 73.1806C42.9064 73.4141 43.3352 73.5308 43.7977 73.5308ZM50.8363 74.3996C50.4681 74.3906 50.1089 74.3232 49.7587 74.1975C49.4085 74.0718 49.1032 73.9012 48.8428 73.6857C48.5824 73.4702 48.396 73.2255 48.2838 72.9516L49.0987 72.6014C49.1705 72.7765 49.303 72.9381 49.496 73.0863C49.6936 73.23 49.9181 73.3467 50.1695 73.4365C50.4209 73.5218 50.6701 73.5645 50.9171 73.5645C51.1909 73.5645 51.4469 73.5196 51.6848 73.4298C51.9228 73.34 52.1158 73.212 52.264 73.0459C52.4167 72.8753 52.493 72.6755 52.493 72.4465C52.493 72.1996 52.4122 72.0065 52.2505 71.8673C52.0889 71.7236 51.8846 71.6114 51.6377 71.5306C51.3907 71.4453 51.1371 71.3645 50.8767 71.2881C50.4007 71.1579 49.9809 71.0143 49.6173 70.8571C49.2536 70.7 48.9685 70.5002 48.762 70.2577C48.5599 70.0108 48.4589 69.6943 48.4589 69.3081C48.4589 68.8996 48.5734 68.5471 48.8024 68.2508C49.0358 67.95 49.3389 67.7187 49.7116 67.5571C50.0887 67.391 50.4905 67.3079 50.9171 67.3079C51.4648 67.3079 51.9632 67.4269 52.4122 67.6649C52.8656 67.9028 53.1934 68.2194 53.3954 68.6145L52.6344 69.0657C52.5536 68.8816 52.4256 68.7222 52.2505 68.5875C52.0754 68.4528 51.8756 68.3473 51.6511 68.271C51.4311 68.1947 51.2067 68.1543 50.9777 68.1498C50.6903 68.1453 50.4232 68.1879 50.1763 68.2777C49.9293 68.363 49.7295 68.491 49.5769 68.6616C49.4287 68.8322 49.3546 69.041 49.3546 69.2879C49.3546 69.5349 49.4287 69.7234 49.5769 69.8536C49.725 69.9794 49.9248 70.0826 50.1763 70.1634C50.4322 70.2398 50.7195 70.3296 51.0383 70.4328C51.4469 70.563 51.8307 70.7112 52.1899 70.8773C52.5491 71.0434 52.8387 71.25 53.0587 71.4969C53.2787 71.7439 53.3865 72.0559 53.382 72.433C53.382 72.8371 53.2607 73.1896 53.0183 73.4904C52.7758 73.7912 52.4616 74.0224 52.0754 74.1841C51.6893 74.3412 51.2763 74.413 50.8363 74.3996Z" fill="#0C1021" fill-opacity="0.5"/>
<path d="M22.817 92.4743C22.1518 92.4743 21.5464 92.3132 21.0007 91.991C20.4602 91.6688 20.0315 91.2374 19.7144 90.6969C19.3974 90.1512 19.2389 89.5536 19.2389 88.904H20.3303C20.3303 89.3561 20.442 89.7719 20.6655 90.1512C20.889 90.5254 21.1878 90.8242 21.562 91.0477C21.9414 91.2712 22.3597 91.3829 22.817 91.3829C23.2692 91.3829 23.6823 91.2712 24.0565 91.0477C24.4307 90.8242 24.7295 90.5254 24.953 90.1512C25.1817 89.7719 25.296 89.3561 25.296 88.904C25.296 88.4466 25.1869 88.0309 24.9686 87.6567C24.7555 87.2773 24.4515 86.9759 24.0565 86.7524C23.6667 86.5237 23.2016 86.4094 22.6611 86.4094H20.0107L21.0397 81.3579H26.1457V82.4493H21.9206L21.3515 85.318L22.6222 85.3258C23.3653 85.3362 24.0175 85.4947 24.5788 85.8014C25.1453 86.108 25.587 86.5289 25.904 87.0642C26.2263 87.5943 26.3874 88.2076 26.3874 88.904C26.3874 89.3925 26.2938 89.8524 26.1067 90.2838C25.9248 90.7151 25.6676 91.0971 25.335 91.4297C25.0076 91.7571 24.6282 92.0144 24.1968 92.2014C23.7707 92.3833 23.3108 92.4743 22.817 92.4743ZM27.9497 93.1447L28.4331 90.5098H29.5244L28.6747 93.1447H27.9497ZM35.1165 92.4743C34.4616 92.4743 33.877 92.3288 33.3625 92.0377C32.848 91.7415 32.4088 91.3336 32.0451 90.8139C31.6813 90.2942 31.4032 89.6939 31.2109 89.0131C31.0238 88.3271 30.9303 87.5943 30.9303 86.8148C30.9303 86.0352 31.0238 85.3025 31.2109 84.6165C31.4032 83.9305 31.6813 83.3302 32.0451 82.8157C32.4088 82.296 32.848 81.8906 33.3625 81.5996C33.877 81.3034 34.4616 81.1553 35.1165 81.1553C35.7661 81.1553 36.3482 81.3034 36.8627 81.5996C37.3772 81.8906 37.8137 82.296 38.1723 82.8157C38.5309 83.3302 38.8037 83.9305 38.9908 84.6165C39.1831 85.3025 39.2792 86.0352 39.2792 86.8148C39.2792 87.5943 39.1831 88.3271 38.9908 89.0131C38.8037 89.6939 38.5309 90.2942 38.1723 90.8139C37.8137 91.3336 37.3772 91.7415 36.8627 92.0377C36.3482 92.3288 35.7661 92.4743 35.1165 92.4743ZM35.1165 91.3829C35.8025 91.3829 36.3767 91.1724 36.8393 90.7515C37.307 90.3305 37.6578 89.7745 37.8917 89.0833C38.1255 88.3869 38.2424 87.6307 38.2424 86.8148C38.2424 85.9521 38.1203 85.1777 37.8761 84.4917C37.637 83.8005 37.2836 83.2548 36.8159 82.8547C36.3533 82.4493 35.7869 82.2466 35.1165 82.2466C34.5864 82.2466 34.1238 82.3688 33.7289 82.613C33.3339 82.8573 33.0065 83.1925 32.7466 83.6186C32.4868 84.0448 32.2919 84.5333 32.162 85.0842C32.0321 85.6299 31.9671 86.2067 31.9671 86.8148C31.9671 87.6359 32.0866 88.3947 32.3257 89.0911C32.5647 89.7823 32.9181 90.3383 33.3859 90.7593C33.8536 91.175 34.4305 91.3829 35.1165 91.3829ZM44.2518 92.4743C43.597 92.4743 43.0123 92.3288 42.4978 92.0377C41.9833 91.7415 41.5442 91.3336 41.1804 90.8139C40.8166 90.2942 40.5385 89.6939 40.3463 89.0131C40.1592 88.3271 40.0656 87.5943 40.0656 86.8148C40.0656 86.0352 40.1592 85.3025 40.3463 84.6165C40.5385 83.9305 40.8166 83.3302 41.1804 82.8157C41.5442 82.296 41.9833 81.8906 42.4978 81.5996C43.0123 81.3034 43.597 81.1553 44.2518 81.1553C44.9014 81.1553 45.4835 81.3034 45.998 81.5996C46.5125 81.8906 46.949 82.296 47.3076 82.8157C47.6662 83.3302 47.939 83.9305 48.1261 84.6165C48.3184 85.3025 48.4146 86.0352 48.4146 86.8148C48.4146 87.5943 48.3184 88.3271 48.1261 89.0131C47.939 89.6939 47.6662 90.2942 47.3076 90.8139C46.949 91.3336 46.5125 91.7415 45.998 92.0377C45.4835 92.3288 44.9014 92.4743 44.2518 92.4743ZM44.2518 91.3829C44.9378 91.3829 45.5121 91.1724 45.9746 90.7515C46.4423 90.3305 46.7931 89.7745 47.027 89.0833C47.2608 88.3869 47.3778 87.6307 47.3778 86.8148C47.3778 85.9521 47.2556 85.1777 47.0114 84.4917C46.7723 83.8005 46.4189 83.2548 45.9512 82.8547C45.4887 82.4493 44.9222 82.2466 44.2518 82.2466C43.7217 82.2466 43.2592 82.3688 42.8642 82.613C42.4692 82.8573 42.1418 83.1925 41.882 83.6186C41.6221 84.0448 41.4272 84.5333 41.2973 85.0842C41.1674 85.6299 41.1024 86.2067 41.1024 86.8148C41.1024 87.6359 41.2219 88.3947 41.461 89.0911C41.7001 89.7823 42.0535 90.3383 42.5212 90.7593C42.9889 91.175 43.5658 91.3829 44.2518 91.3829ZM53.3871 92.4743C52.7323 92.4743 52.1476 92.3288 51.6331 92.0377C51.1186 91.7415 50.6795 91.3336 50.3157 90.8139C49.9519 90.2942 49.6739 89.6939 49.4816 89.0131C49.2945 88.3271 49.2009 87.5943 49.2009 86.8148C49.2009 86.0352 49.2945 85.3025 49.4816 84.6165C49.6739 83.9305 49.9519 83.3302 50.3157 82.8157C50.6795 82.296 51.1186 81.8906 51.6331 81.5996C52.1476 81.3034 52.7323 81.1553 53.3871 81.1553C54.0367 81.1553 54.6188 81.3034 55.1333 81.5996C55.6478 81.8906 56.0843 82.296 56.4429 82.8157C56.8015 83.3302 57.0744 83.9305 57.2614 84.6165C57.4537 85.3025 57.5499 86.0352 57.5499 86.8148C57.5499 87.5943 57.4537 88.3271 57.2614 89.0131C57.0744 89.6939 56.8015 90.2942 56.4429 90.8139C56.0843 91.3336 55.6478 91.7415 55.1333 92.0377C54.6188 92.3288 54.0367 92.4743 53.3871 92.4743ZM53.3871 91.3829C54.0731 91.3829 54.6474 91.1724 55.1099 90.7515C55.5776 90.3305 55.9284 89.7745 56.1623 89.0833C56.3962 88.3869 56.5131 87.6307 56.5131 86.8148C56.5131 85.9521 56.391 85.1777 56.1467 84.4917C55.9076 83.8005 55.5542 83.2548 55.0865 82.8547C54.624 82.4493 54.0575 82.2466 53.3871 82.2466C52.857 82.2466 52.3945 82.3688 51.9995 82.613C51.6045 82.8573 51.2771 83.1925 51.0173 83.6186C50.7574 84.0448 50.5625 84.5333 50.4326 85.0842C50.3027 85.6299 50.2377 86.2067 50.2377 86.8148C50.2377 87.6359 50.3573 88.3947 50.5963 89.0911C50.8354 89.7823 51.1888 90.3383 51.6565 90.7593C52.1242 91.175 52.7011 91.3829 53.3871 91.3829Z" fill="#0C1021"/>
</g>
<g filter="url(#filter1_d_1960_7339)">
<rect x="136.082" y="53.4761" width="112.245" height="50.5909" rx="15.7143" fill="white" shape-rendering="crispEdges"/>
<rect x="136.569" y="53.9633" width="111.27" height="49.6165" rx="15.2271" stroke="#0C1021" stroke-opacity="0.1" stroke-width="0.974434" shape-rendering="crispEdges"/>
<path d="M152.947 74.4467C152.31 74.4467 151.71 74.321 151.149 74.0696C150.588 73.8136 150.094 73.4634 149.667 73.019C149.245 72.57 148.913 72.0492 148.671 71.4565C148.433 70.8639 148.314 70.2308 148.314 69.5573C148.314 68.8839 148.433 68.2508 148.671 67.6581C148.913 67.0655 149.245 66.5469 149.667 66.1024C150.094 65.6534 150.588 65.3032 151.149 65.0518C151.71 64.7959 152.31 64.6679 152.947 64.6679C153.71 64.6679 154.413 64.8453 155.055 65.2C155.697 65.5547 156.229 66.0261 156.651 66.6143L155.816 67.0655C155.484 66.621 155.062 66.2685 154.55 66.0081C154.043 65.7432 153.508 65.6108 152.947 65.6108C152.431 65.6108 151.948 65.7163 151.499 65.9273C151.055 66.1339 150.664 66.419 150.327 66.7826C149.991 67.1463 149.728 67.5661 149.539 68.042C149.351 68.5179 149.257 69.023 149.257 69.5573C149.257 70.1006 149.351 70.6102 149.539 71.0861C149.732 71.562 149.997 71.9818 150.334 72.3455C150.675 72.7092 151.068 72.9943 151.513 73.2008C151.962 73.4028 152.44 73.5039 152.947 73.5039C153.531 73.5039 154.072 73.3714 154.57 73.1065C155.073 72.8371 155.488 72.4869 155.816 72.0559L156.651 72.5071C156.229 73.0953 155.697 73.5667 155.055 73.9214C154.413 74.2716 153.71 74.4467 152.947 74.4467ZM160.622 74.4467C160.003 74.4467 159.437 74.2873 158.925 73.9685C158.418 73.6498 158.012 73.2232 157.706 72.689C157.405 72.1502 157.255 71.5553 157.255 70.9043C157.255 70.4104 157.343 69.9502 157.518 69.5236C157.693 69.0926 157.933 68.7155 158.238 68.3922C158.548 68.0645 158.907 67.8085 159.316 67.6245C159.724 67.4404 160.16 67.3483 160.622 67.3483C161.242 67.3483 161.805 67.5077 162.313 67.8265C162.825 68.1453 163.231 68.5741 163.532 69.1128C163.837 69.6516 163.99 70.2487 163.99 70.9043C163.99 71.3936 163.902 71.8516 163.727 72.2781C163.552 72.7047 163.31 73.0818 163 73.4096C162.694 73.7328 162.337 73.9865 161.929 74.1706C161.525 74.3547 161.089 74.4467 160.622 74.4467ZM160.622 73.5039C161.08 73.5039 161.491 73.3849 161.855 73.1469C162.223 72.9045 162.513 72.5857 162.724 72.1906C162.939 71.7955 163.047 71.3667 163.047 70.9043C163.047 70.4328 162.939 69.9996 162.724 69.6045C162.508 69.2049 162.216 68.8861 161.848 68.6481C161.484 68.4102 161.076 68.2912 160.622 68.2912C160.164 68.2912 159.751 68.4124 159.383 68.6549C159.02 68.8928 158.73 69.2094 158.514 69.6045C158.303 69.9996 158.198 70.4328 158.198 70.9043C158.198 71.3892 158.308 71.8292 158.528 72.2243C158.748 72.6149 159.042 72.9269 159.41 73.1604C159.778 73.3894 160.182 73.5039 160.622 73.5039ZM171.003 70.1028V74.2716H170.06V70.2914C170.06 69.9232 169.97 69.5887 169.791 69.2879C169.611 68.9871 169.371 68.7469 169.07 68.5673C168.769 68.3877 168.435 68.2979 168.067 68.2979C167.703 68.2979 167.369 68.3877 167.063 68.5673C166.762 68.7469 166.522 68.9871 166.343 69.2879C166.163 69.5887 166.073 69.9232 166.073 70.2914V74.2716H165.13V67.5369H166.073V68.4663C166.311 68.1251 166.621 67.8534 167.003 67.6514C167.384 67.4494 167.8 67.3483 168.249 67.3483C168.756 67.3483 169.218 67.4718 169.636 67.7187C170.053 67.9657 170.386 68.2979 170.633 68.7155C170.88 69.133 171.003 69.5955 171.003 70.1028ZM178.224 70.1028V74.2716H177.282V70.2914C177.282 69.9232 177.192 69.5887 177.012 69.2879C176.833 68.9871 176.592 68.7469 176.292 68.5673C175.991 68.3877 175.656 68.2979 175.288 68.2979C174.924 68.2979 174.59 68.3877 174.285 68.5673C173.984 68.7469 173.744 68.9871 173.564 69.2879C173.384 69.5887 173.295 69.9232 173.295 70.2914V74.2716H172.352V67.5369H173.295V68.4663C173.533 68.1251 173.842 67.8534 174.224 67.6514C174.606 67.4494 175.021 67.3483 175.47 67.3483C175.977 67.3483 176.44 67.4718 176.857 67.7187C177.275 67.9657 177.607 68.2979 177.854 68.7155C178.101 69.133 178.224 69.5955 178.224 70.1028ZM182.405 74.4467C181.785 74.4467 181.22 74.2873 180.708 73.9685C180.2 73.6498 179.794 73.2232 179.489 72.689C179.188 72.1502 179.038 71.5553 179.038 70.9043C179.038 70.4104 179.125 69.9502 179.3 69.5236C179.475 69.0926 179.716 68.7155 180.021 68.3922C180.331 68.0645 180.69 67.8085 181.098 67.6245C181.507 67.4404 181.942 67.3483 182.405 67.3483C182.903 67.3483 183.361 67.4471 183.779 67.6447C184.201 67.8422 184.562 68.1183 184.863 68.473C185.168 68.8277 185.397 69.243 185.55 69.719C185.707 70.1949 185.772 70.709 185.745 71.2612H180.034C180.088 71.6877 180.223 72.0694 180.438 72.4061C180.658 72.7428 180.937 73.01 181.273 73.2075C181.615 73.4006 181.992 73.4994 182.405 73.5039C182.854 73.5039 183.258 73.3871 183.617 73.1536C183.981 72.9202 184.273 72.5992 184.493 72.1906L185.449 72.4128C185.18 73.01 184.773 73.4994 184.23 73.881C183.687 74.2581 183.078 74.4467 182.405 74.4467ZM180.007 70.5002H184.796C184.764 70.0826 184.636 69.701 184.412 69.3553C184.192 69.0051 183.907 68.7267 183.557 68.5202C183.206 68.3092 182.822 68.2036 182.405 68.2036C181.987 68.2036 181.606 68.3069 181.26 68.5134C180.914 68.7155 180.631 68.9916 180.411 69.3418C180.191 69.6875 180.057 70.0736 180.007 70.5002ZM191.643 72.5812L192.484 73.0392C192.179 73.4657 191.791 73.8069 191.319 74.0628C190.852 74.3187 190.345 74.4467 189.797 74.4467C189.178 74.4467 188.612 74.2873 188.1 73.9685C187.593 73.6498 187.186 73.2232 186.881 72.689C186.58 72.1502 186.43 71.5553 186.43 70.9043C186.43 70.4104 186.517 69.9502 186.693 69.5236C186.868 69.0926 187.108 68.7155 187.413 68.3922C187.723 68.0645 188.082 67.8085 188.491 67.6245C188.899 67.4404 189.335 67.3483 189.797 67.3483C190.345 67.3483 190.852 67.4763 191.319 67.7322C191.791 67.9881 192.179 68.3316 192.484 68.7626L191.643 69.2139C191.409 68.9175 191.129 68.6908 190.801 68.5336C190.473 68.372 190.139 68.2912 189.797 68.2912C189.344 68.2912 188.933 68.4124 188.565 68.6549C188.197 68.8928 187.905 69.2094 187.689 69.6045C187.478 69.9996 187.373 70.4328 187.373 70.9043C187.373 71.3757 187.481 71.809 187.696 72.2041C187.916 72.5992 188.21 72.9157 188.578 73.1536C188.946 73.3871 189.353 73.5039 189.797 73.5039C190.165 73.5039 190.511 73.4185 190.834 73.2479C191.158 73.0773 191.427 72.8551 191.643 72.5812ZM197.142 68.4798H195.532L195.525 74.2716H194.583L194.589 68.4798H193.37V67.5369H194.589L194.583 65.4222H195.525L195.532 67.5369H197.142V68.4798ZM201.123 74.4467C200.503 74.4467 199.937 74.2873 199.425 73.9685C198.918 73.6498 198.512 73.2232 198.207 72.689C197.906 72.1502 197.755 71.5553 197.755 70.9043C197.755 70.4104 197.843 69.9502 198.018 69.5236C198.193 69.0926 198.433 68.7155 198.739 68.3922C199.048 68.0645 199.408 67.8085 199.816 67.6245C200.225 67.4404 200.66 67.3483 201.123 67.3483C201.621 67.3483 202.079 67.4471 202.497 67.6447C202.919 67.8422 203.28 68.1183 203.581 68.473C203.886 68.8277 204.115 69.243 204.268 69.719C204.425 70.1949 204.49 70.709 204.463 71.2612H198.752C198.806 71.6877 198.941 72.0694 199.156 72.4061C199.376 72.7428 199.654 73.01 199.991 73.2075C200.332 73.4006 200.71 73.4994 201.123 73.5039C201.572 73.5039 201.976 73.3871 202.335 73.1536C202.699 72.9202 202.99 72.5992 203.21 72.1906L204.167 72.4128C203.897 73.01 203.491 73.4994 202.948 73.881C202.404 74.2581 201.796 74.4467 201.123 74.4467ZM198.725 70.5002H203.513C203.482 70.0826 203.354 69.701 203.13 69.3553C202.91 69.0051 202.624 68.7267 202.274 68.5202C201.924 68.3092 201.54 68.2036 201.123 68.2036C200.705 68.2036 200.323 68.3069 199.978 68.5134C199.632 68.7155 199.349 68.9916 199.129 69.3418C198.909 69.6875 198.774 70.0736 198.725 70.5002ZM211.094 64.1696H212.037V74.2716H211.094V73.0122C210.861 73.4432 210.54 73.7912 210.131 74.0561C209.727 74.3165 209.247 74.4467 208.69 74.4467C208.201 74.4467 207.743 74.3547 207.316 74.1706C206.89 73.9865 206.513 73.7328 206.185 73.4096C205.862 73.0818 205.608 72.7047 205.424 72.2781C205.24 71.8516 205.148 71.3936 205.148 70.9043C205.148 70.4149 205.24 69.9569 205.424 69.5304C205.608 69.0994 205.862 68.7222 206.185 68.399C206.513 68.0712 206.89 67.8153 207.316 67.6312C207.743 67.4471 208.201 67.3551 208.69 67.3551C209.247 67.3551 209.727 67.4875 210.131 67.7524C210.54 68.0128 210.861 68.3563 211.094 68.7828V64.1696ZM208.697 73.5308C209.177 73.5308 209.59 73.4141 209.936 73.1806C210.282 72.9426 210.547 72.6239 210.731 72.2243C210.919 71.8247 211.014 71.3847 211.014 70.9043C211.014 70.4104 210.919 69.9659 210.731 69.5708C210.542 69.1712 210.275 68.8547 209.929 68.6212C209.584 68.3877 209.173 68.271 208.697 68.271C208.221 68.271 207.788 68.39 207.397 68.6279C207.006 68.8614 206.694 69.1779 206.461 69.5775C206.227 69.9771 206.111 70.4194 206.111 70.9043C206.111 71.3936 206.23 71.8381 206.468 72.2377C206.706 72.6328 207.02 72.9471 207.411 73.1806C207.806 73.4141 208.234 73.5308 208.697 73.5308Z" fill="#0C1021" fill-opacity="0.5"/>
<path d="M153.107 92.2716V89.208H148.399V88.101L152.826 81.3579H154.198V88.1166H155.344V89.208H154.198V92.2716H153.107ZM149.693 88.101L153.107 88.1166L153.084 82.917L149.693 88.101ZM156.91 93.1447L157.393 90.5098H158.484L157.635 93.1447H156.91ZM160.046 92.2716V91.305C160.472 90.91 160.94 90.4786 161.449 90.0109C161.959 89.538 162.463 89.0521 162.962 88.5532C163.466 88.0491 163.926 87.5527 164.341 87.0642C164.757 86.5705 165.09 86.1054 165.339 85.6688C165.594 85.2271 165.721 84.8373 165.721 84.4995C165.721 84.089 165.62 83.7148 165.417 83.377C165.22 83.034 164.952 82.7611 164.614 82.5585C164.282 82.3506 163.91 82.2466 163.499 82.2466C163.089 82.2466 162.712 82.3506 162.369 82.5585C162.031 82.7611 161.761 83.034 161.558 83.377C161.356 83.7148 161.254 84.089 161.254 84.4995H160.163C160.163 83.8759 160.314 83.312 160.615 82.8079C160.922 82.3038 161.327 81.9036 161.831 81.6074C162.335 81.306 162.891 81.1553 163.499 81.1553C164.108 81.1553 164.661 81.306 165.16 81.6074C165.664 81.9088 166.064 82.3116 166.36 82.8157C166.662 83.3198 166.813 83.8811 166.813 84.4995C166.813 84.8685 166.714 85.2739 166.516 85.7156C166.324 86.1522 166.062 86.6069 165.729 87.0798C165.396 87.5476 165.022 88.0205 164.606 88.4986C164.191 88.9767 163.757 89.4444 163.305 89.9018C162.852 90.3539 162.413 90.7801 161.987 91.1802H166.976V92.2716H160.046ZM172.176 92.4743C171.521 92.4743 170.937 92.3288 170.422 92.0377C169.908 91.7415 169.469 91.3336 169.105 90.8139C168.741 90.2942 168.463 89.6939 168.271 89.0131C168.084 88.3271 167.99 87.5943 167.99 86.8148C167.99 86.0352 168.084 85.3025 168.271 84.6165C168.463 83.9305 168.741 83.3302 169.105 82.8157C169.469 82.296 169.908 81.8906 170.422 81.5996C170.937 81.3034 171.521 81.1553 172.176 81.1553C172.826 81.1553 173.408 81.3034 173.922 81.5996C174.437 81.8906 174.874 82.296 175.232 82.8157C175.591 83.3302 175.864 83.9305 176.051 84.6165C176.243 85.3025 176.339 86.0352 176.339 86.8148C176.339 87.5943 176.243 88.3271 176.051 89.0131C175.864 89.6939 175.591 90.2942 175.232 90.8139C174.874 91.3336 174.437 91.7415 173.922 92.0377C173.408 92.3288 172.826 92.4743 172.176 92.4743ZM172.176 91.3829C172.862 91.3829 173.437 91.1724 173.899 90.7515C174.367 90.3305 174.718 89.7745 174.951 89.0833C175.185 88.3869 175.302 87.6307 175.302 86.8148C175.302 85.9521 175.18 85.1777 174.936 84.4917C174.697 83.8005 174.343 83.2548 173.876 82.8547C173.413 82.4493 172.847 82.2466 172.176 82.2466C171.646 82.2466 171.184 82.3688 170.789 82.613C170.394 82.8573 170.066 83.1925 169.806 83.6186C169.547 84.0448 169.352 84.5333 169.222 85.0842C169.092 85.6299 169.027 86.2067 169.027 86.8148C169.027 87.6359 169.146 88.3947 169.386 89.0911C169.625 89.7823 169.978 90.3383 170.446 90.7593C170.913 91.175 171.49 91.3829 172.176 91.3829ZM181.312 92.4743C180.657 92.4743 180.072 92.3288 179.558 92.0377C179.043 91.7415 178.604 91.3336 178.24 90.8139C177.876 90.2942 177.598 89.6939 177.406 89.0131C177.219 88.3271 177.125 87.5943 177.125 86.8148C177.125 86.0352 177.219 85.3025 177.406 84.6165C177.598 83.9305 177.876 83.3302 178.24 82.8157C178.604 82.296 179.043 81.8906 179.558 81.5996C180.072 81.3034 180.657 81.1553 181.312 81.1553C181.961 81.1553 182.543 81.3034 183.058 81.5996C183.572 81.8906 184.009 82.296 184.367 82.8157C184.726 83.3302 184.999 83.9305 185.186 84.6165C185.378 85.3025 185.474 86.0352 185.474 86.8148C185.474 87.5943 185.378 88.3271 185.186 89.0131C184.999 89.6939 184.726 90.2942 184.367 90.8139C184.009 91.3336 183.572 91.7415 183.058 92.0377C182.543 92.3288 181.961 92.4743 181.312 92.4743ZM181.312 91.3829C181.998 91.3829 182.572 91.1724 183.034 90.7515C183.502 90.3305 183.853 89.7745 184.087 89.0833C184.321 88.3869 184.438 87.6307 184.438 86.8148C184.438 85.9521 184.315 85.1777 184.071 84.4917C183.832 83.8005 183.479 83.2548 183.011 82.8547C182.549 82.4493 181.982 82.2466 181.312 82.2466C180.782 82.2466 180.319 82.3688 179.924 82.613C179.529 82.8573 179.202 83.1925 178.942 83.6186C178.682 84.0448 178.487 84.5333 178.357 85.0842C178.227 85.6299 178.162 86.2067 178.162 86.8148C178.162 87.6359 178.282 88.3947 178.521 89.0911C178.76 89.7823 179.113 90.3383 179.581 90.7593C180.049 91.175 180.626 91.3829 181.312 91.3829Z" fill="#0C1021"/>
</g>
<g filter="url(#filter2_d_1960_7339)">
<rect x="35.0613" y="120.823" width="112.245" height="50.5909" rx="15.7143" fill="white" shape-rendering="crispEdges"/>
<rect x="35.5485" y="121.31" width="111.27" height="49.6165" rx="15.2271" stroke="#0C1021" stroke-opacity="0.1" stroke-width="0.974434" shape-rendering="crispEdges"/>
<path d="M55.9944 141.78L54.8697 140.655C54.4746 141.006 54.0256 141.28 53.5228 141.477C53.0244 141.675 52.4968 141.773 51.9401 141.773C51.2981 141.773 50.6964 141.648 50.1352 141.396C49.574 141.14 49.0801 140.79 48.6536 140.346C48.227 139.897 47.8926 139.376 47.6501 138.783C47.4121 138.191 47.2932 137.558 47.2932 136.884C47.2932 136.211 47.4121 135.58 47.6501 134.992C47.8926 134.399 48.227 133.878 48.6536 133.429C49.0801 132.98 49.574 132.63 50.1352 132.379C50.6964 132.123 51.2981 131.995 51.9401 131.995C52.5822 131.995 53.1815 132.123 53.7383 132.379C54.2995 132.63 54.7934 132.98 55.2199 133.429C55.6464 133.878 55.9787 134.399 56.2166 134.992C56.4591 135.58 56.5803 136.211 56.5803 136.884C56.5803 137.477 56.486 138.036 56.2975 138.561C56.1089 139.086 55.8485 139.56 55.5162 139.982L56.6611 141.113L55.9944 141.78ZM51.9401 140.831C52.3487 140.831 52.7483 140.756 53.1389 140.608C53.534 140.46 53.8819 140.249 54.1828 139.975L52.7887 138.581L53.4554 137.908L54.8226 139.282C55.0875 138.945 55.2895 138.57 55.4287 138.157C55.5679 137.744 55.6375 137.32 55.6375 136.884C55.6375 136.341 55.5409 135.831 55.3479 135.355C55.1548 134.879 54.8877 134.46 54.5464 134.096C54.2097 133.732 53.8168 133.449 53.3679 133.247C52.9234 133.041 52.4475 132.938 51.9401 132.938C51.4238 132.938 50.9411 133.043 50.4922 133.254C50.0477 133.461 49.6548 133.748 49.3136 134.116C48.9768 134.48 48.7119 134.9 48.5189 135.375C48.3303 135.847 48.236 136.35 48.236 136.884C48.236 137.427 48.3326 137.937 48.5256 138.413C48.7187 138.889 48.9858 139.309 49.327 139.672C49.6683 140.036 50.0611 140.321 50.5056 140.528C50.9546 140.73 51.4328 140.831 51.9401 140.831ZM57.6583 139.039V134.884H58.6011V138.851C58.6011 139.219 58.6909 139.553 58.8705 139.854C59.0501 140.155 59.2903 140.395 59.5911 140.575C59.8964 140.754 60.2309 140.844 60.5946 140.844C60.9628 140.844 61.295 140.754 61.5913 140.575C61.8922 140.395 62.1324 140.155 62.312 139.854C62.4916 139.553 62.5813 139.219 62.5813 138.851V134.884H63.5242L63.5309 141.619H62.5881L62.5813 140.676C62.3434 141.017 62.0336 141.289 61.652 141.491C61.2748 141.693 60.8618 141.794 60.4128 141.794C59.9054 141.794 59.443 141.67 59.0254 141.423C58.6079 141.176 58.2756 140.844 58.0287 140.426C57.7818 140.009 57.6583 139.546 57.6583 139.039ZM70.3561 134.884H71.299V141.619H70.3561L70.3225 140.366C70.1025 140.792 69.7949 141.138 69.3998 141.403C69.0047 141.663 68.5333 141.794 67.9855 141.794C67.4916 141.794 67.0292 141.702 66.5982 141.518C66.1672 141.329 65.7878 141.071 65.46 140.743C65.1323 140.415 64.8763 140.036 64.6923 139.605C64.5082 139.174 64.4161 138.711 64.4161 138.218C64.4161 137.733 64.5059 137.277 64.6855 136.85C64.8696 136.424 65.121 136.049 65.4398 135.726C65.7631 135.402 66.1357 135.151 66.5578 134.971C66.9843 134.787 67.44 134.695 67.9249 134.695C68.4861 134.695 68.9755 134.83 69.3931 135.099C69.8106 135.364 70.1429 135.712 70.3898 136.143L70.3561 134.884ZM67.9653 140.878C68.4457 140.878 68.8588 140.761 69.2045 140.528C69.5502 140.29 69.8151 139.971 69.9992 139.571C70.1878 139.172 70.2821 138.732 70.2821 138.251C70.2821 137.757 70.1878 137.313 69.9992 136.918C69.8106 136.518 69.5435 136.202 69.1978 135.968C68.8521 135.735 68.4412 135.618 67.9653 135.618C67.4894 135.618 67.0539 135.737 66.6588 135.975C66.2682 136.208 65.9561 136.525 65.7227 136.924C65.4937 137.324 65.3792 137.766 65.3792 138.251C65.3792 138.741 65.4982 139.185 65.7361 139.585C65.9741 139.98 66.2884 140.294 66.679 140.528C67.0741 140.761 67.5029 140.878 67.9653 140.878ZM72.7387 141.619V131.516H73.6816V141.619H72.7387ZM75.3037 134.884H76.2466V141.619H75.3037V134.884ZM75.7819 133.705C75.6292 133.705 75.499 133.656 75.3913 133.557C75.288 133.454 75.2364 133.326 75.2364 133.173C75.2364 133.021 75.288 132.895 75.3913 132.796C75.499 132.693 75.6292 132.641 75.7819 132.641C75.93 132.641 76.0558 132.693 76.159 132.796C76.2668 132.895 76.3207 133.021 76.3207 133.173C76.3207 133.326 76.269 133.454 76.1658 133.557C76.0625 133.656 75.9345 133.705 75.7819 133.705ZM79.2628 133.126V134.884H81.2832V135.827H79.2628V141.619H78.3199V135.827H77.3973V134.884H78.3199V133.126C78.3199 132.798 78.3985 132.502 78.5556 132.237C78.7173 131.968 78.9328 131.754 79.2022 131.597C79.4715 131.436 79.7701 131.355 80.0979 131.355C80.3358 131.355 80.5648 131.402 80.7848 131.496C81.0093 131.591 81.2091 131.73 81.3842 131.914L80.7107 132.581C80.6389 132.491 80.5468 132.421 80.4346 132.372C80.3268 132.322 80.2146 132.298 80.0979 132.298C79.8689 132.298 79.6713 132.379 79.5052 132.54C79.3436 132.702 79.2628 132.897 79.2628 133.126ZM82.3146 134.884H83.2575V141.619H82.3146V134.884ZM82.7928 133.705C82.6401 133.705 82.5099 133.656 82.4022 133.557C82.2989 133.454 82.2473 133.326 82.2473 133.173C82.2473 133.021 82.2989 132.895 82.4022 132.796C82.5099 132.693 82.6401 132.641 82.7928 132.641C82.941 132.641 83.0667 132.693 83.1699 132.796C83.2777 132.895 83.3316 133.021 83.3316 133.173C83.3316 133.326 83.2799 133.454 83.1767 133.557C83.0734 133.656 82.9454 133.705 82.7928 133.705ZM87.7771 141.794C87.1575 141.794 86.5918 141.634 86.08 141.315C85.5726 140.997 85.1663 140.57 84.861 140.036C84.5602 139.497 84.4098 138.902 84.4098 138.251C84.4098 137.757 84.4973 137.297 84.6724 136.871C84.8475 136.44 85.0877 136.062 85.393 135.739C85.7028 135.411 86.062 135.155 86.4706 134.971C86.8791 134.787 87.3147 134.695 87.7771 134.695C88.2755 134.695 88.7334 134.794 89.151 134.992C89.573 135.189 89.9344 135.465 90.2353 135.82C90.5406 136.175 90.7696 136.59 90.9222 137.066C91.0793 137.542 91.1444 138.056 91.1175 138.608H85.4065C85.4604 139.035 85.5951 139.416 85.8106 139.753C86.0306 140.09 86.3089 140.357 86.6457 140.554C86.9869 140.748 87.364 140.846 87.7771 140.851C88.2261 140.851 88.6302 140.734 88.9893 140.501C89.353 140.267 89.6449 139.946 89.8649 139.538L90.8212 139.76C90.5518 140.357 90.1455 140.846 89.6022 141.228C89.0589 141.605 88.4506 141.794 87.7771 141.794ZM85.3796 137.847H90.1679C90.1365 137.43 90.0085 137.048 89.784 136.702C89.564 136.352 89.2789 136.074 88.9287 135.867C88.5785 135.656 88.1947 135.551 87.7771 135.551C87.3596 135.551 86.9779 135.654 86.6322 135.86C86.2865 136.062 86.0036 136.339 85.7836 136.689C85.5636 137.034 85.4289 137.421 85.3796 137.847ZM97.7489 131.516H98.6917V141.619H97.7489V140.359C97.5154 140.79 97.1944 141.138 96.7858 141.403C96.3817 141.663 95.9013 141.794 95.3446 141.794C94.8552 141.794 94.3972 141.702 93.9707 141.518C93.5442 141.333 93.167 141.08 92.8393 140.756C92.516 140.429 92.2623 140.052 92.0783 139.625C91.8942 139.199 91.8021 138.741 91.8021 138.251C91.8021 137.762 91.8942 137.304 92.0783 136.877C92.2623 136.446 92.516 136.069 92.8393 135.746C93.167 135.418 93.5442 135.162 93.9707 134.978C94.3972 134.794 94.8552 134.702 95.3446 134.702C95.9013 134.702 96.3817 134.834 96.7858 135.099C97.1944 135.36 97.5154 135.703 97.7489 136.13V131.516ZM95.3513 140.878C95.8317 140.878 96.2448 140.761 96.5905 140.528C96.9362 140.29 97.2011 139.971 97.3852 139.571C97.5738 139.172 97.6681 138.732 97.6681 138.251C97.6681 137.757 97.5738 137.313 97.3852 136.918C97.1966 136.518 96.9295 136.202 96.5838 135.968C96.2381 135.735 95.8272 135.618 95.3513 135.618C94.8754 135.618 94.4421 135.737 94.0515 135.975C93.6609 136.208 93.3489 136.525 93.1154 136.924C92.8819 137.324 92.7652 137.766 92.7652 138.251C92.7652 138.741 92.8842 139.185 93.1221 139.585C93.3601 139.98 93.6744 140.294 94.065 140.528C94.4601 140.761 94.8889 140.878 95.3513 140.878Z" fill="#0C1021" fill-opacity="0.5"/>
<path d="M48.5474 159.619V149.796H47.378L47.6899 148.705H49.6387V159.619H48.5474ZM51.5042 160.492L51.9875 157.857H53.0788L52.2291 160.492H51.5042ZM56.761 159.619L59.1698 155.448C58.6189 155.656 58.068 155.721 57.5171 155.643C56.9663 155.56 56.4622 155.362 56.0048 155.05C55.5475 154.733 55.1785 154.328 54.8979 153.834C54.6224 153.335 54.4847 152.774 54.4847 152.15C54.4847 151.652 54.5782 151.181 54.7653 150.739C54.9576 150.298 55.2201 149.911 55.5527 149.578C55.8853 149.24 56.2699 148.978 56.7064 148.791C57.1482 148.598 57.6211 148.502 58.1252 148.502C58.7904 148.502 59.3958 148.668 59.9415 149.001C60.4924 149.329 60.9316 149.768 61.259 150.319C61.5916 150.869 61.7579 151.48 61.7579 152.15C61.7579 152.53 61.7111 152.857 61.6176 153.133C61.5292 153.403 61.3941 153.707 61.2122 154.045L58.016 159.619H56.761ZM58.1096 154.707C58.6033 154.707 59.0425 154.59 59.427 154.357C59.8168 154.118 60.1234 153.803 60.3469 153.413C60.5704 153.024 60.6821 152.605 60.6821 152.158C60.6821 151.67 60.5626 151.233 60.3235 150.849C60.0896 150.459 59.7778 150.152 59.3881 149.929C58.9983 149.7 58.5773 149.586 58.1252 149.586C57.6263 149.586 57.1819 149.705 56.7922 149.944C56.4076 150.183 56.1036 150.5 55.8801 150.895C55.6618 151.285 55.5527 151.706 55.5527 152.158C55.5527 152.626 55.667 153.055 55.8957 153.445C56.1243 153.829 56.431 154.136 56.8155 154.364C57.2053 154.593 57.6367 154.707 58.1096 154.707ZM66.8774 159.821C66.2226 159.821 65.6379 159.676 65.1234 159.385C64.6089 159.088 64.1698 158.68 63.806 158.161C63.4422 157.641 63.1642 157.041 62.9719 156.36C62.7848 155.674 62.6913 154.941 62.6913 154.162C62.6913 153.382 62.7848 152.649 62.9719 151.963C63.1642 151.277 63.4422 150.677 63.806 150.163C64.1698 149.643 64.6089 149.238 65.1234 148.947C65.6379 148.65 66.2226 148.502 66.8774 148.502C67.527 148.502 68.1091 148.65 68.6236 148.947C69.1381 149.238 69.5747 149.643 69.9333 150.163C70.2918 150.677 70.5647 151.277 70.7518 151.963C70.9441 152.649 71.0402 153.382 71.0402 154.162C71.0402 154.941 70.9441 155.674 70.7518 156.36C70.5647 157.041 70.2918 157.641 69.9333 158.161C69.5747 158.68 69.1381 159.088 68.6236 159.385C68.1091 159.676 67.527 159.821 66.8774 159.821ZM66.8774 158.73C67.5634 158.73 68.1377 158.519 68.6002 158.098C69.068 157.677 69.4188 157.121 69.6526 156.43C69.8865 155.734 70.0034 154.978 70.0034 154.162C70.0034 153.299 69.8813 152.525 69.637 151.839C69.398 151.147 69.0446 150.602 68.5768 150.202C68.1143 149.796 67.5478 149.594 66.8774 149.594C66.3473 149.594 65.8848 149.716 65.4898 149.96C65.0949 150.204 64.7675 150.539 64.5076 150.966C64.2478 151.392 64.0529 151.88 63.9229 152.431C63.793 152.977 63.7281 153.554 63.7281 154.162C63.7281 154.983 63.8476 155.742 64.0866 156.438C64.3257 157.129 64.6791 157.685 65.1468 158.106C65.6146 158.522 66.1914 158.73 66.8774 158.73ZM76.0127 159.821C75.3579 159.821 74.7733 159.676 74.2588 159.385C73.7443 159.088 73.3051 158.68 72.9413 158.161C72.5775 157.641 72.2995 157.041 72.1072 156.36C71.9201 155.674 71.8266 154.941 71.8266 154.162C71.8266 153.382 71.9201 152.649 72.1072 151.963C72.2995 151.277 72.5775 150.677 72.9413 150.163C73.3051 149.643 73.7443 149.238 74.2588 148.947C74.7733 148.65 75.3579 148.502 76.0127 148.502C76.6624 148.502 77.2444 148.65 77.7589 148.947C78.2734 149.238 78.71 149.643 79.0686 150.163C79.4272 150.677 79.7 151.277 79.8871 151.963C80.0794 152.649 80.1755 153.382 80.1755 154.162C80.1755 154.941 80.0794 155.674 79.8871 156.36C79.7 157.041 79.4272 157.641 79.0686 158.161C78.71 158.68 78.2734 159.088 77.7589 159.385C77.2444 159.676 76.6624 159.821 76.0127 159.821ZM76.0127 158.73C76.6987 158.73 77.273 158.519 77.7355 158.098C78.2033 157.677 78.5541 157.121 78.7879 156.43C79.0218 155.734 79.1387 154.978 79.1387 154.162C79.1387 153.299 79.0166 152.525 78.7723 151.839C78.5333 151.147 78.1799 150.602 77.7122 150.202C77.2496 149.796 76.6832 149.594 76.0127 149.594C75.4827 149.594 75.0201 149.716 74.6251 149.96C74.2302 150.204 73.9028 150.539 73.6429 150.966C73.3831 151.392 73.1882 151.88 73.0583 152.431C72.9283 152.977 72.8634 153.554 72.8634 154.162C72.8634 154.983 72.9829 155.742 73.222 156.438C73.461 157.129 73.8144 157.685 74.2821 158.106C74.7499 158.522 75.3267 158.73 76.0127 158.73Z" fill="#0C1021"/>
</g>
<g filter="url(#filter3_d_1960_7339)">
<rect x="163.755" y="120.823" width="112.245" height="50.5909" rx="15.7143" fill="white" shape-rendering="crispEdges"/>
<rect x="164.242" y="121.31" width="111.27" height="49.6165" rx="15.2271" stroke="#0C1021" stroke-opacity="0.1" stroke-width="0.974434" shape-rendering="crispEdges"/>
<path d="M185.448 137.368C183.718 137.368 182.026 137.882 180.587 138.843C179.148 139.805 178.027 141.171 177.364 142.77C176.702 144.369 176.529 146.128 176.866 147.825C177.204 149.523 178.037 151.082 179.261 152.306C180.485 153.529 182.044 154.363 183.741 154.7C185.439 155.038 187.198 154.865 188.797 154.202C190.396 153.54 191.762 152.419 192.724 150.98C193.685 149.541 194.198 147.849 194.198 146.118C194.198 143.798 193.276 141.572 191.636 139.931C189.995 138.29 187.769 137.368 185.448 137.368ZM184.198 149.612L181.073 146.487L182.067 145.493L184.198 147.625L188.83 142.993L189.827 143.985L184.198 149.612Z" fill="#4268FF"/>
<path d="M204.052 141.618V132.19H207.237C207.695 132.19 208.111 132.284 208.483 132.473C208.861 132.657 209.159 132.928 209.379 133.288C209.604 133.642 209.716 134.073 209.716 134.581C209.716 134.868 209.664 135.142 209.561 135.402C209.458 135.663 209.323 135.885 209.157 136.069C208.991 136.249 208.811 136.365 208.618 136.419C208.896 136.491 209.137 136.617 209.339 136.796C209.541 136.971 209.707 137.18 209.837 137.423C209.967 137.661 210.062 137.912 210.12 138.177C210.183 138.442 210.214 138.702 210.214 138.958C210.214 139.488 210.097 139.953 209.864 140.352C209.635 140.752 209.327 141.064 208.941 141.288C208.555 141.508 208.126 141.618 207.655 141.618H204.052ZM204.995 140.777H207.581C207.909 140.777 208.205 140.691 208.47 140.521C208.739 140.35 208.953 140.117 209.11 139.82C209.271 139.524 209.352 139.189 209.352 138.817C209.352 138.485 209.271 138.172 209.11 137.881C208.953 137.584 208.739 137.346 208.47 137.167C208.205 136.983 207.909 136.891 207.581 136.891H204.995V140.777ZM204.995 136.062H207.157C207.601 136.062 207.981 135.934 208.295 135.678C208.614 135.418 208.773 135.05 208.773 134.574C208.773 134.053 208.614 133.667 208.295 133.416C207.981 133.16 207.601 133.032 207.157 133.032H204.995V136.062ZM214.263 141.794C213.643 141.794 213.078 141.634 212.566 141.315C212.058 140.997 211.652 140.57 211.347 140.036C211.046 139.497 210.896 138.902 210.896 138.251C210.896 137.757 210.983 137.297 211.158 136.87C211.333 136.439 211.574 136.062 211.879 135.739C212.189 135.411 212.548 135.155 212.956 134.971C213.365 134.787 213.8 134.695 214.263 134.695C214.882 134.695 215.446 134.855 215.953 135.173C216.465 135.492 216.871 135.921 217.172 136.46C217.478 136.998 217.63 137.596 217.63 138.251C217.63 138.74 217.543 139.198 217.368 139.625C217.192 140.051 216.95 140.429 216.64 140.756C216.335 141.08 215.978 141.333 215.569 141.517C215.165 141.701 214.73 141.794 214.263 141.794ZM214.263 140.851C214.721 140.851 215.132 140.732 215.495 140.494C215.864 140.251 216.153 139.932 216.364 139.537C216.58 139.142 216.687 138.714 216.687 138.251C216.687 137.78 216.58 137.346 216.364 136.951C216.149 136.552 215.857 136.233 215.489 135.995C215.125 135.757 214.716 135.638 214.263 135.638C213.805 135.638 213.392 135.759 213.024 136.002C212.66 136.24 212.37 136.556 212.155 136.951C211.944 137.346 211.838 137.78 211.838 138.251C211.838 138.736 211.948 139.176 212.168 139.571C212.388 139.962 212.682 140.274 213.051 140.507C213.419 140.736 213.823 140.851 214.263 140.851ZM221.668 141.794C221.049 141.794 220.483 141.634 219.971 141.315C219.464 140.997 219.058 140.57 218.752 140.036C218.451 139.497 218.301 138.902 218.301 138.251C218.301 137.757 218.389 137.297 218.564 136.87C218.739 136.439 218.979 136.062 219.284 135.739C219.594 135.411 219.953 135.155 220.362 134.971C220.77 134.787 221.206 134.695 221.668 134.695C222.288 134.695 222.851 134.855 223.359 135.173C223.871 135.492 224.277 135.921 224.578 136.46C224.883 136.998 225.036 137.596 225.036 138.251C225.036 138.74 224.948 139.198 224.773 139.625C224.598 140.051 224.356 140.429 224.046 140.756C223.74 141.08 223.384 141.333 222.975 141.517C222.571 141.701 222.135 141.794 221.668 141.794ZM221.668 140.851C222.126 140.851 222.537 140.732 222.901 140.494C223.269 140.251 223.559 139.932 223.77 139.537C223.985 139.142 224.093 138.714 224.093 138.251C224.093 137.78 223.985 137.346 223.77 136.951C223.554 136.552 223.262 136.233 222.894 135.995C222.53 135.757 222.122 135.638 221.668 135.638C221.21 135.638 220.797 135.759 220.429 136.002C220.066 136.24 219.776 136.556 219.56 136.951C219.349 137.346 219.244 137.78 219.244 138.251C219.244 138.736 219.354 139.176 219.574 139.571C219.794 139.962 220.088 140.274 220.456 140.507C220.824 140.736 221.228 140.851 221.668 140.851ZM231.384 141.618H230.299L228.414 138.366L227.067 139.975V141.618H226.124V131.516H227.067V138.507L230.104 134.884H231.337L229.053 137.598L231.384 141.618ZM235.19 141.794C234.571 141.794 234.005 141.634 233.493 141.315C232.986 140.997 232.58 140.57 232.274 140.036C231.973 139.497 231.823 138.902 231.823 138.251C231.823 137.757 231.911 137.297 232.086 136.87C232.261 136.439 232.501 136.062 232.806 135.739C233.116 135.411 233.475 135.155 233.884 134.971C234.292 134.787 234.728 134.695 235.19 134.695C235.689 134.695 236.147 134.794 236.564 134.991C236.986 135.189 237.348 135.465 237.649 135.82C237.954 136.175 238.183 136.59 238.336 137.066C238.493 137.542 238.558 138.056 238.531 138.608H232.82C232.874 139.035 233.008 139.416 233.224 139.753C233.444 140.09 233.722 140.357 234.059 140.554C234.4 140.747 234.777 140.846 235.19 140.851C235.639 140.851 236.043 140.734 236.403 140.5C236.766 140.267 237.058 139.946 237.278 139.537L238.235 139.76C237.965 140.357 237.559 140.846 237.016 141.228C236.472 141.605 235.864 141.794 235.19 141.794ZM232.793 137.847H237.581C237.55 137.429 237.422 137.048 237.197 136.702C236.977 136.352 236.692 136.074 236.342 135.867C235.992 135.656 235.608 135.55 235.19 135.55C234.773 135.55 234.391 135.654 234.046 135.86C233.7 136.062 233.417 136.338 233.197 136.689C232.977 137.034 232.842 137.42 232.793 137.847ZM245.162 131.516H246.105V141.618H245.162V140.359C244.929 140.79 244.608 141.138 244.199 141.403C243.795 141.663 243.315 141.794 242.758 141.794C242.269 141.794 241.811 141.701 241.384 141.517C240.958 141.333 240.58 141.08 240.253 140.756C239.929 140.429 239.676 140.051 239.492 139.625C239.308 139.198 239.215 138.74 239.215 138.251C239.215 137.762 239.308 137.304 239.492 136.877C239.676 136.446 239.929 136.069 240.253 135.746C240.58 135.418 240.958 135.162 241.384 134.978C241.811 134.794 242.269 134.702 242.758 134.702C243.315 134.702 243.795 134.834 244.199 135.099C244.608 135.36 244.929 135.703 245.162 136.13V131.516ZM242.765 140.878C243.245 140.878 243.658 140.761 244.004 140.527C244.35 140.289 244.614 139.971 244.799 139.571C244.987 139.171 245.081 138.731 245.081 138.251C245.081 137.757 244.987 137.313 244.799 136.918C244.61 136.518 244.343 136.201 243.997 135.968C243.651 135.735 243.241 135.618 242.765 135.618C242.289 135.618 241.855 135.737 241.465 135.975C241.074 136.208 240.762 136.525 240.529 136.924C240.295 137.324 240.179 137.766 240.179 138.251C240.179 138.74 240.298 139.185 240.535 139.585C240.773 139.98 241.088 140.294 241.478 140.527C241.873 140.761 242.302 140.878 242.765 140.878Z" fill="#0C1021" fill-opacity="0.5"/>
<path d="M205.037 159.618V149.796H203.867L204.179 148.705H206.128V159.618H205.037ZM207.994 160.492L208.477 157.857H209.568L208.719 160.492H207.994ZM211.13 159.618V158.652C211.556 158.257 212.024 157.825 212.533 157.358C213.042 156.885 213.547 156.399 214.045 155.9C214.55 155.396 215.01 154.9 215.425 154.411C215.841 153.917 216.174 153.452 216.423 153.016C216.678 152.574 216.805 152.184 216.805 151.846C216.805 151.436 216.704 151.062 216.501 150.724C216.304 150.381 216.036 150.108 215.698 149.905C215.366 149.697 214.994 149.593 214.583 149.593C214.173 149.593 213.796 149.697 213.453 149.905C213.115 150.108 212.845 150.381 212.642 150.724C212.44 151.062 212.338 151.436 212.338 151.846H211.247C211.247 151.223 211.398 150.659 211.699 150.155C212.006 149.651 212.411 149.25 212.915 148.954C213.419 148.653 213.975 148.502 214.583 148.502C215.191 148.502 215.745 148.653 216.244 148.954C216.748 149.256 217.148 149.658 217.444 150.163C217.746 150.667 217.896 151.228 217.896 151.846C217.896 152.215 217.798 152.621 217.6 153.062C217.408 153.499 217.145 153.954 216.813 154.427C216.48 154.894 216.106 155.367 215.69 155.845C215.275 156.324 214.841 156.791 214.388 157.249C213.936 157.701 213.497 158.127 213.071 158.527H218.06V159.618H211.13ZM223.862 159.618V156.555H219.154V155.448L223.582 148.705H224.954V155.463H226.1V156.555H224.954V159.618H223.862ZM220.448 155.448L223.862 155.463L223.839 150.264L220.448 155.448ZM231.223 159.821C230.568 159.821 229.984 159.676 229.469 159.385C228.955 159.088 228.516 158.68 228.152 158.161C227.788 157.641 227.51 157.041 227.318 156.36C227.131 155.674 227.037 154.941 227.037 154.162C227.037 153.382 227.131 152.649 227.318 151.963C227.51 151.277 227.788 150.677 228.152 150.163C228.516 149.643 228.955 149.237 229.469 148.946C229.984 148.65 230.568 148.502 231.223 148.502C231.873 148.502 232.455 148.65 232.969 148.946C233.484 149.237 233.92 149.643 234.279 150.163C234.638 150.677 234.91 151.277 235.098 151.963C235.29 152.649 235.386 153.382 235.386 154.162C235.386 154.941 235.29 155.674 235.098 156.36C234.91 157.041 234.638 157.641 234.279 158.161C233.92 158.68 233.484 159.088 232.969 159.385C232.455 159.676 231.873 159.821 231.223 159.821ZM231.223 158.73C231.909 158.73 232.483 158.519 232.946 158.098C233.414 157.677 233.765 157.121 233.998 156.43C234.232 155.734 234.349 154.978 234.349 154.162C234.349 153.299 234.227 152.525 233.983 151.839C233.744 151.147 233.39 150.602 232.923 150.201C232.46 149.796 231.894 149.593 231.223 149.593C230.693 149.593 230.231 149.716 229.836 149.96C229.441 150.204 229.113 150.539 228.853 150.965C228.594 151.392 228.399 151.88 228.269 152.431C228.139 152.977 228.074 153.554 228.074 154.162C228.074 154.983 228.193 155.741 228.432 156.438C228.671 157.129 229.025 157.685 229.493 158.106C229.96 158.522 230.537 158.73 231.223 158.73Z" fill="#0C1021"/>
</g>
<g filter="url(#filter4_d_1960_7339)">
<rect width="189" height="35" rx="16" fill="white" shape-rendering="crispEdges"/>
<rect x="0.5" y="0.5" width="188" height="34" rx="15.5" stroke="#0C1021" stroke-opacity="0.1" shape-rendering="crispEdges"/>
<circle cx="15.5" cy="17.5" r="3.5" fill="#35E493"/>
<path d="M27.96 23V11.8H29.08V21.88H34.224V23H27.96ZM35.9913 15H37.1113V23H35.9913V15ZM36.5593 13.6C36.3779 13.6 36.2233 13.5413 36.0953 13.424C35.9726 13.3013 35.9113 13.1493 35.9113 12.968C35.9113 12.7867 35.9726 12.6373 36.0953 12.52C36.2233 12.3973 36.3779 12.336 36.5593 12.336C36.7353 12.336 36.8846 12.3973 37.0073 12.52C37.1353 12.6373 37.1993 12.7867 37.1993 12.968C37.1993 13.1493 37.1379 13.3013 37.0153 13.424C36.8926 13.5413 36.7406 13.6 36.5593 13.6ZM42.7928 23H41.3688L38.4488 14.976H39.6408L42.0807 21.688L44.5208 14.976H45.7128L42.7928 23ZM50.2456 23.208C49.5096 23.208 48.8376 23.0187 48.2296 22.64C47.627 22.2613 47.1443 21.7547 46.7816 21.12C46.4243 20.48 46.2456 19.7733 46.2456 19C46.2456 18.4133 46.3496 17.8667 46.5576 17.36C46.7656 16.848 47.051 16.4 47.4136 16.016C47.7816 15.6267 48.2083 15.3227 48.6936 15.104C49.179 14.8853 49.6963 14.776 50.2456 14.776C50.8376 14.776 51.3816 14.8933 51.8776 15.128C52.379 15.3627 52.8083 15.6907 53.1656 16.112C53.5283 16.5333 53.8003 17.0267 53.9816 17.592C54.1683 18.1573 54.2456 18.768 54.2136 19.424H47.4296C47.4936 19.9307 47.6536 20.384 47.9096 20.784C48.171 21.184 48.5016 21.5013 48.9016 21.736C49.307 21.9653 49.755 22.0827 50.2456 22.088C50.779 22.088 51.259 21.9493 51.6856 21.672C52.1176 21.3947 52.4643 21.0133 52.7256 20.528L53.8616 20.792C53.5416 21.5013 53.059 22.0827 52.4136 22.536C51.7683 22.984 51.0456 23.208 50.2456 23.208ZM47.3976 18.52H53.0856C53.0483 18.024 52.8963 17.5707 52.6296 17.16C52.3683 16.744 52.0296 16.4133 51.6136 16.168C51.1976 15.9173 50.7416 15.792 50.2456 15.792C49.7496 15.792 49.2963 15.9147 48.8856 16.16C48.475 16.4 48.139 16.728 47.8776 17.144C47.6163 17.5547 47.4563 18.0133 47.3976 18.52ZM63.5949 16.12H61.6829L61.6749 23H60.5549L60.5629 16.12H59.1149V15H60.5629L60.5549 12.488H61.6749L61.6829 15H63.5949V16.12ZM65.0225 23V15H66.1425V16.104C66.4252 15.6987 66.7932 15.376 67.2465 15.136C67.6998 14.896 68.1932 14.776 68.7265 14.776C69.0358 14.776 69.3345 14.816 69.6225 14.896L69.1665 16.008C68.9425 15.9387 68.7238 15.904 68.5105 15.904C68.0785 15.904 67.6812 16.0107 67.3185 16.224C66.9612 16.4373 66.6758 16.7227 66.4625 17.08C66.2492 17.4373 66.1425 17.8347 66.1425 18.272V23H65.0225ZM76.786 15H77.906V23H76.786L76.746 21.512C76.4847 22.0187 76.1193 22.4293 75.65 22.744C75.1807 23.0533 74.6207 23.208 73.97 23.208C73.3833 23.208 72.834 23.0987 72.322 22.88C71.81 22.656 71.3593 22.3493 70.97 21.96C70.5807 21.5707 70.2767 21.12 70.058 20.608C69.8393 20.096 69.73 19.5467 69.73 18.96C69.73 18.384 69.8367 17.8427 70.05 17.336C70.2687 16.8293 70.5673 16.384 70.946 16C71.33 15.616 71.7727 15.3173 72.274 15.104C72.7807 14.8853 73.322 14.776 73.898 14.776C74.5647 14.776 75.146 14.936 75.642 15.256C76.138 15.5707 76.5327 15.984 76.826 16.496L76.786 15ZM73.946 22.12C74.5167 22.12 75.0073 21.9813 75.418 21.704C75.8287 21.4213 76.1433 21.0427 76.362 20.568C76.586 20.0933 76.698 19.5707 76.698 19C76.698 18.4133 76.586 17.8853 76.362 17.416C76.138 16.9413 75.8207 16.5653 75.41 16.288C74.9993 16.0107 74.5113 15.872 73.946 15.872C73.3807 15.872 72.8633 16.0133 72.394 16.296C71.93 16.5733 71.5593 16.9493 71.282 17.424C71.01 17.8987 70.874 18.424 70.874 19C70.874 19.5813 71.0153 20.1093 71.298 20.584C71.5807 21.0533 71.954 21.4267 72.418 21.704C72.8873 21.9813 73.3967 22.12 73.946 22.12ZM85.0626 20.992L86.0626 21.536C85.7 22.0427 85.2386 22.448 84.6786 22.752C84.124 23.056 83.5213 23.208 82.8706 23.208C82.1346 23.208 81.4626 23.0187 80.8546 22.64C80.252 22.2613 79.7693 21.7547 79.4066 21.12C79.0493 20.48 78.8706 19.7733 78.8706 19C78.8706 18.4133 78.9746 17.8667 79.1826 17.36C79.3906 16.848 79.676 16.4 80.0386 16.016C80.4066 15.6267 80.8333 15.3227 81.3186 15.104C81.804 14.8853 82.3213 14.776 82.8706 14.776C83.5213 14.776 84.124 14.928 84.6786 15.232C85.2386 15.536 85.7 15.944 86.0626 16.456L85.0626 16.992C84.7853 16.64 84.452 16.3707 84.0626 16.184C83.6733 15.992 83.276 15.896 82.8706 15.896C82.332 15.896 81.844 16.04 81.4066 16.328C80.9693 16.6107 80.6226 16.9867 80.3666 17.456C80.116 17.9253 79.9906 18.44 79.9906 19C79.9906 19.56 80.1186 20.0747 80.3746 20.544C80.636 21.0133 80.9853 21.3893 81.4226 21.672C81.86 21.9493 82.3426 22.088 82.8706 22.088C83.308 22.088 83.7186 21.9867 84.1026 21.784C84.4866 21.5813 84.8066 21.3173 85.0626 20.992ZM93.6455 23H92.3575L90.1175 19.136L88.5175 21.048V23H87.3975V11H88.5175V19.304L92.1255 15H93.5895L90.8775 18.224L93.6455 23ZM95.1475 15H96.2675V23H95.1475V15ZM95.7155 13.6C95.5342 13.6 95.3795 13.5413 95.2515 13.424C95.1288 13.3013 95.0675 13.1493 95.0675 12.968C95.0675 12.7867 95.1288 12.6373 95.2515 12.52C95.3795 12.3973 95.5342 12.336 95.7155 12.336C95.8915 12.336 96.0408 12.3973 96.1635 12.52C96.2915 12.6373 96.3555 12.7867 96.3555 12.968C96.3555 13.1493 96.2942 13.3013 96.1715 13.424C96.0488 13.5413 95.8968 13.6 95.7155 13.6ZM105.139 18.048V23H104.019V18.272C104.019 17.8347 103.912 17.4373 103.699 17.08C103.486 16.7227 103.2 16.4373 102.843 16.224C102.486 16.0107 102.088 15.904 101.651 15.904C101.219 15.904 100.822 16.0107 100.459 16.224C100.102 16.4373 99.8165 16.7227 99.6031 17.08C99.3898 17.4373 99.2831 17.8347 99.2831 18.272V23H98.1631V15H99.2831V16.104C99.5658 15.6987 99.9338 15.376 100.387 15.136C100.84 14.896 101.334 14.776 101.867 14.776C102.47 14.776 103.019 14.9227 103.515 15.216C104.011 15.5093 104.406 15.904 104.699 16.4C104.992 16.896 105.139 17.4453 105.139 18.048ZM112.945 15H114.065V23.296C114.065 23.808 113.953 24.288 113.729 24.736C113.51 25.184 113.212 25.576 112.833 25.912C112.46 26.2533 112.033 26.52 111.553 26.712C111.073 26.904 110.574 27 110.057 27C109.502 27 108.966 26.872 108.449 26.616C107.932 26.3653 107.481 26.0293 107.097 25.608C106.718 25.1867 106.449 24.72 106.289 24.208L107.321 23.736C107.422 24.136 107.612 24.496 107.889 24.816C108.172 25.1413 108.502 25.3973 108.881 25.584C109.265 25.776 109.657 25.872 110.057 25.872C110.425 25.872 110.78 25.8027 111.121 25.664C111.468 25.5307 111.777 25.3467 112.049 25.112C112.326 24.8773 112.545 24.6027 112.705 24.288C112.865 23.9787 112.945 23.648 112.945 23.296V21.528C112.668 22.0293 112.292 22.4347 111.817 22.744C111.348 23.0533 110.801 23.208 110.177 23.208C109.617 23.208 109.089 23.0987 108.593 22.88C108.102 22.6613 107.67 22.36 107.297 21.976C106.924 21.5867 106.63 21.1387 106.417 20.632C106.209 20.1253 106.105 19.5813 106.105 19C106.105 18.4187 106.209 17.8747 106.417 17.368C106.63 16.856 106.924 16.408 107.297 16.024C107.67 15.6347 108.102 15.3307 108.593 15.112C109.089 14.8933 109.617 14.784 110.177 14.784C110.801 14.784 111.348 14.9387 111.817 15.248C112.292 15.552 112.668 15.9573 112.945 16.464V15ZM110.185 22.12C110.74 22.12 111.217 21.976 111.617 21.688C112.022 21.4 112.334 21.0187 112.553 20.544C112.772 20.0693 112.881 19.5547 112.881 19C112.881 18.4293 112.769 17.9093 112.545 17.44C112.326 16.9653 112.014 16.5867 111.609 16.304C111.204 16.016 110.729 15.872 110.185 15.872C109.641 15.872 109.145 16.0133 108.697 16.296C108.254 16.5733 107.902 16.9493 107.641 17.424C107.38 17.8987 107.249 18.424 107.249 19C107.249 19.576 107.382 20.1013 107.649 20.576C107.916 21.0453 108.27 21.4213 108.713 21.704C109.161 21.9813 109.652 22.12 110.185 22.12ZM123.355 23.208C122.619 23.208 121.947 23.0187 121.339 22.64C120.736 22.2613 120.254 21.7547 119.891 21.12C119.534 20.48 119.355 19.7733 119.355 19C119.355 18.4133 119.459 17.8667 119.667 17.36C119.875 16.848 120.16 16.4 120.523 16.016C120.891 15.6267 121.318 15.3227 121.803 15.104C122.288 14.8853 122.806 14.776 123.355 14.776C123.947 14.776 124.491 14.8933 124.987 15.128C125.488 15.3627 125.918 15.6907 126.275 16.112C126.638 16.5333 126.91 17.0267 127.091 17.592C127.278 18.1573 127.355 18.768 127.323 19.424H120.539C120.603 19.9307 120.763 20.384 121.019 20.784C121.28 21.184 121.611 21.5013 122.011 21.736C122.416 21.9653 122.864 22.0827 123.355 22.088C123.888 22.088 124.368 21.9493 124.795 21.672C125.227 21.3947 125.574 21.0133 125.835 20.528L126.971 20.792C126.651 21.5013 126.168 22.0827 125.523 22.536C124.878 22.984 124.155 23.208 123.355 23.208ZM120.507 18.52H126.195C126.158 18.024 126.006 17.5707 125.739 17.16C125.478 16.744 125.139 16.4133 124.723 16.168C124.307 15.9173 123.851 15.792 123.355 15.792C122.859 15.792 122.406 15.9147 121.995 16.16C121.584 16.4 121.248 16.728 120.987 17.144C120.726 17.5547 120.566 18.0133 120.507 18.52ZM135.67 18.048V23H134.55V18.272C134.55 17.8347 134.444 17.4373 134.23 17.08C134.017 16.7227 133.732 16.4373 133.374 16.224C133.017 16.0107 132.62 15.904 132.182 15.904C131.75 15.904 131.353 16.0107 130.99 16.224C130.633 16.4373 130.348 16.7227 130.134 17.08C129.921 17.4373 129.814 17.8347 129.814 18.272V23H128.694V15H129.814V16.104C130.097 15.6987 130.465 15.376 130.918 15.136C131.372 14.896 131.865 14.776 132.398 14.776C133.001 14.776 133.55 14.9227 134.046 15.216C134.542 15.5093 134.937 15.904 135.23 16.4C135.524 16.896 135.67 17.4453 135.67 18.048ZM143.692 15H144.812V23H143.692L143.652 21.512C143.391 22.0187 143.026 22.4293 142.556 22.744C142.087 23.0533 141.527 23.208 140.876 23.208C140.29 23.208 139.74 23.0987 139.228 22.88C138.716 22.656 138.266 22.3493 137.876 21.96C137.487 21.5707 137.183 21.12 136.964 20.608C136.746 20.096 136.636 19.5467 136.636 18.96C136.636 18.384 136.743 17.8427 136.956 17.336C137.175 16.8293 137.474 16.384 137.852 16C138.236 15.616 138.679 15.3173 139.18 15.104C139.687 14.8853 140.228 14.776 140.804 14.776C141.471 14.776 142.052 14.936 142.548 15.256C143.044 15.5707 143.439 15.984 143.732 16.496L143.692 15ZM140.852 22.12C141.423 22.12 141.914 21.9813 142.324 21.704C142.735 21.4213 143.05 21.0427 143.268 20.568C143.492 20.0933 143.604 19.5707 143.604 19C143.604 18.4133 143.492 17.8853 143.268 17.416C143.044 16.9413 142.727 16.5653 142.316 16.288C141.906 16.0107 141.418 15.872 140.852 15.872C140.287 15.872 139.77 16.0133 139.3 16.296C138.836 16.5733 138.466 16.9493 138.188 17.424C137.916 17.8987 137.78 18.424 137.78 19C137.78 19.5813 137.922 20.1093 138.204 20.584C138.487 21.0533 138.86 21.4267 139.324 21.704C139.794 21.9813 140.303 22.12 140.852 22.12ZM150.491 14.776C151.269 14.776 151.976 14.9653 152.611 15.344C153.251 15.7227 153.76 16.232 154.139 16.872C154.517 17.5067 154.707 18.2133 154.707 18.992C154.707 19.5733 154.597 20.12 154.378 20.632C154.16 21.1387 153.856 21.5867 153.467 21.976C153.083 22.36 152.635 22.6613 152.123 22.88C151.616 23.0987 151.072 23.208 150.491 23.208C149.829 23.208 149.259 23.0507 148.779 22.736C148.299 22.4213 147.92 22.0107 147.643 21.504V23H146.523V11H147.643V16.48C147.92 15.9733 148.299 15.5627 148.779 15.248C149.259 14.9333 149.829 14.776 150.491 14.776ZM150.483 22.112C151.053 22.112 151.571 21.9733 152.035 21.696C152.499 21.4133 152.869 21.0347 153.147 20.56C153.424 20.0853 153.562 19.5627 153.562 18.992C153.562 18.4053 153.421 17.8773 153.139 17.408C152.856 16.9333 152.48 16.5573 152.011 16.28C151.547 16.0027 151.037 15.864 150.483 15.864C149.917 15.864 149.427 16.0053 149.011 16.288C148.6 16.5707 148.283 16.9493 148.059 17.424C147.84 17.8987 147.731 18.4213 147.731 18.992C147.731 19.5733 147.843 20.1013 148.067 20.576C148.291 21.0453 148.608 21.4187 149.019 21.696C149.435 21.9733 149.923 22.112 150.483 22.112ZM156.007 23V11H157.127V23H156.007ZM162.511 23.208C161.775 23.208 161.103 23.0187 160.495 22.64C159.893 22.2613 159.41 21.7547 159.047 21.12C158.69 20.48 158.511 19.7733 158.511 19C158.511 18.4133 158.615 17.8667 158.823 17.36C159.031 16.848 159.317 16.4 159.679 16.016C160.047 15.6267 160.474 15.3227 160.959 15.104C161.445 14.8853 161.962 14.776 162.511 14.776C163.103 14.776 163.647 14.8933 164.143 15.128C164.645 15.3627 165.074 15.6907 165.431 16.112C165.794 16.5333 166.066 17.0267 166.247 17.592C166.434 18.1573 166.511 18.768 166.479 19.424H159.695C159.759 19.9307 159.919 20.384 160.175 20.784C160.437 21.184 160.767 21.5013 161.167 21.736C161.573 21.9653 162.021 22.0827 162.511 22.088C163.045 22.088 163.525 21.9493 163.951 21.672C164.383 21.3947 164.73 21.0133 164.991 20.528L166.127 20.792C165.807 21.5013 165.325 22.0827 164.679 22.536C164.034 22.984 163.311 23.208 162.511 23.208ZM159.663 18.52H165.351C165.314 18.024 165.162 17.5707 164.895 17.16C164.634 16.744 164.295 16.4133 163.879 16.168C163.463 15.9173 163.007 15.792 162.511 15.792C162.015 15.792 161.562 15.9147 161.151 16.16C160.741 16.4 160.405 16.728 160.143 17.144C159.882 17.5547 159.722 18.0133 159.663 18.52ZM174.357 11H175.477V23H174.357V21.504C174.079 22.016 173.698 22.4293 173.213 22.744C172.733 23.0533 172.162 23.208 171.501 23.208C170.919 23.208 170.375 23.0987 169.869 22.88C169.362 22.6613 168.914 22.36 168.525 21.976C168.141 21.5867 167.839 21.1387 167.621 20.632C167.402 20.1253 167.293 19.5813 167.293 19C167.293 18.4187 167.402 17.8747 167.621 17.368C167.839 16.856 168.141 16.408 168.525 16.024C168.914 15.6347 169.362 15.3307 169.869 15.112C170.375 14.8933 170.919 14.784 171.501 14.784C172.162 14.784 172.733 14.9413 173.213 15.256C173.698 15.5653 174.079 15.9733 174.357 16.48V11ZM171.509 22.12C172.079 22.12 172.57 21.9813 172.981 21.704C173.391 21.4213 173.706 21.0427 173.925 20.568C174.149 20.0933 174.261 19.5707 174.261 19C174.261 18.4133 174.149 17.8853 173.925 17.416C173.701 16.9413 173.383 16.5653 172.973 16.288C172.562 16.0107 172.074 15.872 171.509 15.872C170.943 15.872 170.429 16.0133 169.965 16.296C169.501 16.5733 169.13 16.9493 168.853 17.424C168.575 17.8987 168.437 18.424 168.437 19C168.437 19.5813 168.578 20.1093 168.861 20.584C169.143 21.0533 169.517 21.4267 169.981 21.704C170.45 21.9813 170.959 22.12 171.509 22.12Z" fill="#0C1021"/>
</g>
</g>
<defs>
<filter id="filter0_d_1960_7339" x="-4.22449" y="46.7414" width="134.694" height="73.0399" filterUnits="userSpaceOnUse" color-interpolation-filters="sRGB">
<feFlood flood-opacity="0" result="BackgroundImageFix"/>
<feColorMatrix in="SourceAlpha" type="matrix" values="0 0 0 0 0 0 0 0 0 0 0 0 0 0 0 0 0 0 127 0" result="hardAlpha"/>
<feOffset dy="4.4898"/>
<feGaussianBlur stdDeviation="5.61225"/>
<feComposite in2="hardAlpha" operator="out"/>
<feColorMatrix type="matrix" values="0 0 0 0 0 0 0 0 0 0 0 0 0 0 0 0 0 0 0.05 0"/>
<feBlend mode="normal" in2="BackgroundImageFix" result="effect1_dropShadow_1960_7339"/>
<feBlend mode="normal" in="SourceGraphic" in2="effect1_dropShadow_1960_7339" result="shape"/>
</filter>
<filter id="filter1_d_1960_7339" x="124.857" y="46.7414" width="134.694" height="73.0399" filterUnits="userSpaceOnUse" color-interpolation-filters="sRGB">
<feFlood flood-opacity="0" result="BackgroundImageFix"/>
<feColorMatrix in="SourceAlpha" type="matrix" values="0 0 0 0 0 0 0 0 0 0 0 0 0 0 0 0 0 0 127 0" result="hardAlpha"/>
<feOffset dy="4.4898"/>
<feGaussianBlur stdDeviation="5.61225"/>
<feComposite in2="hardAlpha" operator="out"/>
<feColorMatrix type="matrix" values="0 0 0 0 0 0 0 0 0 0 0 0 0 0 0 0 0 0 0.05 0"/>
<feBlend mode="normal" in2="BackgroundImageFix" result="effect1_dropShadow_1960_7339"/>
<feBlend mode="normal" in="SourceGraphic" in2="effect1_dropShadow_1960_7339" result="shape"/>
</filter>
<filter id="filter2_d_1960_7339" x="23.8368" y="114.088" width="134.694" height="73.0399" filterUnits="userSpaceOnUse" color-interpolation-filters="sRGB">
<feFlood flood-opacity="0" result="BackgroundImageFix"/>
<feColorMatrix in="SourceAlpha" type="matrix" values="0 0 0 0 0 0 0 0 0 0 0 0 0 0 0 0 0 0 127 0" result="hardAlpha"/>
<feOffset dy="4.4898"/>
<feGaussianBlur stdDeviation="5.61225"/>
<feComposite in2="hardAlpha" operator="out"/>
<feColorMatrix type="matrix" values="0 0 0 0 0 0 0 0 0 0 0 0 0 0 0 0 0 0 0.05 0"/>
<feBlend mode="normal" in2="BackgroundImageFix" result="effect1_dropShadow_1960_7339"/>
<feBlend mode="normal" in="SourceGraphic" in2="effect1_dropShadow_1960_7339" result="shape"/>
</filter>
<filter id="filter3_d_1960_7339" x="152.531" y="114.088" width="134.694" height="73.0399" filterUnits="userSpaceOnUse" color-interpolation-filters="sRGB">
<feFlood flood-opacity="0" result="BackgroundImageFix"/>
<feColorMatrix in="SourceAlpha" type="matrix" values="0 0 0 0 0 0 0 0 0 0 0 0 0 0 0 0 0 0 127 0" result="hardAlpha"/>
<feOffset dy="4.4898"/>
<feGaussianBlur stdDeviation="5.61225"/>
<feComposite in2="hardAlpha" operator="out"/>
<feColorMatrix type="matrix" values="0 0 0 0 0 0 0 0 0 0 0 0 0 0 0 0 0 0 0.05 0"/>
<feBlend mode="normal" in2="BackgroundImageFix" result="effect1_dropShadow_1960_7339"/>
<feBlend mode="normal" in="SourceGraphic" in2="effect1_dropShadow_1960_7339" result="shape"/>
</filter>
<filter id="filter4_d_1960_7339" x="-10" y="-6" width="209" height="55" filterUnits="userSpaceOnUse" color-interpolation-filters="sRGB">
<feFlood flood-opacity="0" result="BackgroundImageFix"/>
<feColorMatrix in="SourceAlpha" type="matrix" values="0 0 0 0 0 0 0 0 0 0 0 0 0 0 0 0 0 0 127 0" result="hardAlpha"/>
<feOffset dy="4"/>
<feGaussianBlur stdDeviation="5"/>
<feComposite in2="hardAlpha" operator="out"/>
<feColorMatrix type="matrix" values="0 0 0 0 0 0 0 0 0 0 0 0 0 0 0 0 0 0 0.05 0"/>
<feBlend mode="normal" in2="BackgroundImageFix" result="effect1_dropShadow_1960_7339"/>
<feBlend mode="normal" in="SourceGraphic" in2="effect1_dropShadow_1960_7339" result="shape"/>
</filter>
<clipPath id="clip0_1960_7339">
<rect width="290" height="225" fill="white"/>
</clipPath>
</defs>
</svg>
