<svg width="290" height="225" viewBox="0 0 290 225" fill="none" xmlns="http://www.w3.org/2000/svg">
<g clip-path="url(#clip0_1960_7343)">
<rect y="53" width="99" height="35" rx="17.5" fill="#0C1021" fill-opacity="0.04"/>
<g clip-path="url(#clip1_1960_7343)">
<path d="M31 70.5C31 75.7452 26.7491 79.9976 21.5044 80H21.4018C20.9413 79.9952 20.4818 79.9572 20.0267 79.8864C19.6541 79.8288 19.2853 79.7487 18.9223 79.6465C16.9296 79.0842 15.1751 77.8865 13.9255 76.2355C12.676 74.5845 11.9999 72.5705 12 70.5C12 65.254 16.252 61 21.5 61H21.5044C22.7968 60.9988 24.0758 61.2622 25.2626 61.774C26.4494 62.2857 27.5189 63.0349 28.4053 63.9755C30.0724 65.7387 31.0009 68.0735 31 70.5Z" fill="white"/>
<path d="M19.1025 67.6746V68.1021H17.7214L13.8422 64.8764C14.082 64.5503 14.3425 64.2398 14.622 63.947L19.1025 67.6746Z" fill="#C8102E"/>
<path d="M29.1701 64.8939L25.3135 68.1001H23.8976V67.7035L28.3935 63.9633L28.4053 63.9755C28.6645 64.2487 28.9069 64.5373 29.1313 64.8396L29.1701 64.8939Z" fill="#C8102E"/>
<path d="M19.1024 72.8972V73.3247L14.622 77.0531C14.5824 77.0135 14.5428 76.9707 14.5056 76.9292C14.2699 76.6731 14.0486 76.4042 13.8426 76.1237L17.7218 72.8972H19.1024Z" fill="#C8102E"/>
<path d="M29.1705 76.1058C28.9317 76.4323 28.6723 76.7431 28.3939 77.0364L23.8976 73.2958V72.8972H25.3135L29.1705 76.1058Z" fill="#C8102E"/>
<path d="M15.7941 68.102H12.3052C12.5034 67.3419 12.7959 66.6096 13.176 65.9221L15.7941 68.102Z" fill="#012169"/>
<path d="M15.7153 72.8971L13.1479 75.0322C12.781 74.3575 12.498 73.6405 12.3052 72.8971H15.7153Z" fill="#012169"/>
<path d="M19.1024 74.9048V79.6944C19.0423 79.6789 18.9837 79.6627 18.9223 79.6457C17.6775 79.2951 16.5177 78.6932 15.5146 77.8771L19.1024 74.9048Z" fill="#012169"/>
<path d="M19.1025 61.3052V66.0196L15.5681 63.0793C16.6081 62.2457 17.8126 61.6411 19.1025 61.3052Z" fill="#012169"/>
<path d="M27.4861 63.1236L23.8975 66.0983V61.3055L23.9518 61.3194C25.2442 61.6642 26.4488 62.2791 27.4861 63.1236Z" fill="#012169"/>
<path d="M30.6948 68.102H27.2906L29.8521 65.9708C30.2186 66.6443 30.5016 67.36 30.6948 68.102Z" fill="#012169"/>
<path d="M27.5167 77.8537C26.4582 78.7216 25.2241 79.3497 23.8995 79.6948V74.8446L27.5167 77.8537Z" fill="#012169"/>
<path d="M30.6948 72.8971C30.5061 73.6225 30.2317 74.323 29.8774 74.9835L27.3698 72.8971H30.6948Z" fill="#012169"/>
<path d="M31 70.4006V70.5903C30.9959 71.0332 30.9611 71.4754 30.8959 71.9135H22.9135V79.8955C22.4781 79.9605 22.0388 79.9954 21.5986 80H21.4006C20.9603 79.9955 20.5208 79.9604 20.0853 79.8951V71.9135H12.1045C12.0395 71.4776 12.0046 71.0377 12 70.597C12 70.5348 12 70.4723 12 70.4097C12.0041 69.9667 12.0389 69.5244 12.1041 69.0861H20.0865V61.1045C20.501 61.0425 20.9191 61.0076 21.3381 61H21.6445C22.0444 61.0057 22.4435 61.0367 22.8395 61.0926L22.9135 61.1037V69.0861H30.8955C30.9604 69.5214 30.9954 69.9606 31 70.4006Z" fill="#C8102E"/>
</g>
<path d="M39.96 76V64.8H46.776V65.92H41.08V69.44H45.792V70.56H41.08V74.88H46.776V76H39.96ZM55.5141 71.048V76H54.3941V71.272C54.3941 70.8347 54.2875 70.4373 54.0741 70.08C53.8608 69.7227 53.5755 69.4373 53.2181 69.224C52.8608 69.0107 52.4635 68.904 52.0261 68.904C51.5941 68.904 51.1968 69.0107 50.8341 69.224C50.4768 69.4373 50.1915 69.7227 49.9781 70.08C49.7648 70.4373 49.6581 70.8347 49.6581 71.272V76H48.5381V68H49.6581V69.104C49.9408 68.6987 50.3088 68.376 50.7621 68.136C51.2155 67.896 51.7088 67.776 52.2421 67.776C52.8448 67.776 53.3941 67.9227 53.8901 68.216C54.3861 68.5093 54.7808 68.904 55.0741 69.4C55.3675 69.896 55.5141 70.4453 55.5141 71.048ZM63.32 68H64.44V76.296C64.44 76.808 64.328 77.288 64.104 77.736C63.8853 78.184 63.5867 78.576 63.208 78.912C62.8347 79.2533 62.408 79.52 61.928 79.712C61.448 79.904 60.9493 80 60.432 80C59.8773 80 59.3413 79.872 58.824 79.616C58.3067 79.3653 57.856 79.0293 57.472 78.608C57.0933 78.1867 56.824 77.72 56.664 77.208L57.696 76.736C57.7973 77.136 57.9867 77.496 58.264 77.816C58.5467 78.1413 58.8773 78.3973 59.256 78.584C59.64 78.776 60.032 78.872 60.432 78.872C60.8 78.872 61.1547 78.8027 61.496 78.664C61.8427 78.5307 62.152 78.3467 62.424 78.112C62.7013 77.8773 62.92 77.6027 63.08 77.288C63.24 76.9787 63.32 76.648 63.32 76.296V74.528C63.0427 75.0293 62.6667 75.4347 62.192 75.744C61.7227 76.0533 61.176 76.208 60.552 76.208C59.992 76.208 59.464 76.0987 58.968 75.88C58.4773 75.6613 58.0453 75.36 57.672 74.976C57.2987 74.5867 57.0053 74.1387 56.792 73.632C56.584 73.1253 56.48 72.5813 56.48 72C56.48 71.4187 56.584 70.8747 56.792 70.368C57.0053 69.856 57.2987 69.408 57.672 69.024C58.0453 68.6347 58.4773 68.3307 58.968 68.112C59.464 67.8933 59.992 67.784 60.552 67.784C61.176 67.784 61.7227 67.9387 62.192 68.248C62.6667 68.552 63.0427 68.9573 63.32 69.464V68ZM60.56 75.12C61.1147 75.12 61.592 74.976 61.992 74.688C62.3973 74.4 62.7093 74.0187 62.928 73.544C63.1467 73.0693 63.256 72.5547 63.256 72C63.256 71.4293 63.144 70.9093 62.92 70.44C62.7013 69.9653 62.3893 69.5867 61.984 69.304C61.5787 69.016 61.104 68.872 60.56 68.872C60.016 68.872 59.52 69.0133 59.072 69.296C58.6293 69.5733 58.2773 69.9493 58.016 70.424C57.7547 70.8987 57.624 71.424 57.624 72C57.624 72.576 57.7573 73.1013 58.024 73.576C58.2907 74.0453 58.6453 74.4213 59.088 74.704C59.536 74.9813 60.0267 75.12 60.56 75.12ZM66.3663 76V64H67.4863V76H66.3663ZM69.4131 68H70.5331V76H69.4131V68ZM69.9811 66.6C69.7998 66.6 69.6451 66.5413 69.5171 66.424C69.3945 66.3013 69.3331 66.1493 69.3331 65.968C69.3331 65.7867 69.3945 65.6373 69.5171 65.52C69.6451 65.3973 69.7998 65.336 69.9811 65.336C70.1571 65.336 70.3065 65.3973 70.4291 65.52C70.5571 65.6373 70.6211 65.7867 70.6211 65.968C70.6211 66.1493 70.5598 66.3013 70.4371 66.424C70.3145 66.5413 70.1625 66.6 69.9811 66.6ZM74.8695 76.152C74.4322 76.1413 74.0055 76.0613 73.5895 75.912C73.1735 75.7627 72.8108 75.56 72.5015 75.304C72.1922 75.048 71.9708 74.7573 71.8375 74.432L72.8055 74.016C72.8908 74.224 73.0482 74.416 73.2775 74.592C73.5122 74.7627 73.7788 74.9013 74.0775 75.008C74.3762 75.1093 74.6722 75.16 74.9655 75.16C75.2908 75.16 75.5948 75.1067 75.8775 75C76.1602 74.8933 76.3895 74.7413 76.5655 74.544C76.7468 74.3413 76.8375 74.104 76.8375 73.832C76.8375 73.5387 76.7415 73.3093 76.5495 73.144C76.3575 72.9733 76.1148 72.84 75.8215 72.744C75.5282 72.6427 75.2268 72.5467 74.9175 72.456C74.3522 72.3013 73.8535 72.1307 73.4215 71.944C72.9895 71.7573 72.6508 71.52 72.4055 71.232C72.1655 70.9387 72.0455 70.5627 72.0455 70.104C72.0455 69.6187 72.1815 69.2 72.4535 68.848C72.7308 68.4907 73.0908 68.216 73.5335 68.024C73.9815 67.8267 74.4588 67.728 74.9655 67.728C75.6162 67.728 76.2082 67.8693 76.7415 68.152C77.2802 68.4347 77.6695 68.8107 77.9095 69.28L77.0055 69.816C76.9095 69.5973 76.7575 69.408 76.5495 69.248C76.3415 69.088 76.1042 68.9627 75.8375 68.872C75.5762 68.7813 75.3095 68.7333 75.0375 68.728C74.6962 68.7227 74.3788 68.7733 74.0855 68.88C73.7922 68.9813 73.5548 69.1333 73.3735 69.336C73.1975 69.5387 73.1095 69.7867 73.1095 70.08C73.1095 70.3733 73.1975 70.5973 73.3735 70.752C73.5495 70.9013 73.7868 71.024 74.0855 71.12C74.3895 71.2107 74.7308 71.3173 75.1095 71.44C75.5948 71.5947 76.0508 71.7707 76.4775 71.968C76.9042 72.1653 77.2482 72.4107 77.5095 72.704C77.7708 72.9973 77.8988 73.368 77.8935 73.816C77.8935 74.296 77.7495 74.7147 77.4615 75.072C77.1735 75.4293 76.8002 75.704 76.3415 75.896C75.8828 76.0827 75.3922 76.168 74.8695 76.152ZM86.2485 71.048V76H85.1285V71.272C85.1285 70.8347 85.0218 70.4373 84.8085 70.08C84.5952 69.7227 84.3098 69.4373 83.9525 69.224C83.5952 69.0107 83.1978 68.904 82.7605 68.904C82.3285 68.904 81.9312 69.0107 81.5685 69.224C81.2112 69.4373 80.9258 69.7227 80.7125 70.08C80.4992 70.4373 80.3925 70.8347 80.3925 71.272V76H79.2725V64H80.3925V69.104C80.6752 68.6987 81.0432 68.376 81.4965 68.136C81.9498 67.896 82.4432 67.776 82.9765 67.776C83.5792 67.776 84.1285 67.9227 84.6245 68.216C85.1205 68.5093 85.5152 68.904 85.8085 69.4C86.1018 69.896 86.2485 70.4453 86.2485 71.048Z" fill="#0C1021"/>
<rect x="10" y="144" width="110" height="35" rx="17.5" fill="#0C1021" fill-opacity="0.04"/>
<g clip-path="url(#clip2_1960_7343)">
<path d="M40.3368 158.008H22.6632C24.0506 154.488 27.4849 152 31.5 152C35.5151 152 38.9494 154.488 40.3368 158.008Z" fill="#020202"/>
<path d="M40.3368 164.992C38.9494 168.512 35.5151 171 31.5 171C27.4849 171 24.0506 168.512 22.6632 164.992H40.3368Z" fill="#FFDD00"/>
<path d="M41 161.5C41 162.733 40.767 163.913 40.3368 164.992H22.6632C22.233 163.913 22 162.733 22 161.5C22 160.267 22.233 159.087 22.6632 158.008H40.3368C40.767 159.087 41 160.267 41 161.5Z" fill="#F30040"/>
</g>
<path d="M55.152 167.208C54.384 167.208 53.664 167.059 52.992 166.76C52.3253 166.456 51.7413 166.037 51.24 165.504C50.7387 164.965 50.3467 164.347 50.064 163.648C49.7813 162.944 49.64 162.192 49.64 161.392C49.64 160.576 49.7867 159.816 50.08 159.112C50.3733 158.408 50.776 157.795 51.288 157.272C51.8 156.744 52.3867 156.333 53.048 156.04C53.7147 155.747 54.4213 155.6 55.168 155.6C56.0267 155.6 56.8373 155.8 57.6 156.2C58.368 156.6 59.0187 157.168 59.552 157.904L58.552 158.448C58.1253 157.888 57.6107 157.459 57.008 157.16C56.4107 156.861 55.7947 156.712 55.16 156.712C54.5573 156.712 53.9893 156.835 53.456 157.08C52.928 157.32 52.4613 157.656 52.056 158.088C51.6507 158.52 51.3333 159.019 51.104 159.584C50.8747 160.149 50.76 160.757 50.76 161.408C50.76 162.053 50.8747 162.659 51.104 163.224C51.3333 163.789 51.648 164.288 52.048 164.72C52.4533 165.147 52.9227 165.483 53.456 165.728C53.9893 165.968 54.56 166.088 55.168 166.088C55.6693 166.088 56.144 166.003 56.592 165.832C57.0453 165.656 57.4587 165.411 57.832 165.096C58.2053 164.781 58.52 164.413 58.776 163.992C59.0373 163.571 59.2267 163.112 59.344 162.616H56.32V161.6H60.648C60.632 162.373 60.4773 163.099 60.184 163.776C59.8907 164.453 59.4907 165.051 58.984 165.568C58.4827 166.08 57.904 166.483 57.248 166.776C56.5973 167.064 55.8987 167.208 55.152 167.208ZM65.6519 167.208C64.9159 167.208 64.2439 167.019 63.6359 166.64C63.0332 166.261 62.5505 165.755 62.1879 165.12C61.8305 164.48 61.6519 163.773 61.6519 163C61.6519 162.413 61.7559 161.867 61.9639 161.36C62.1719 160.848 62.4572 160.4 62.8199 160.016C63.1879 159.627 63.6145 159.323 64.0999 159.104C64.5852 158.885 65.1025 158.776 65.6519 158.776C66.2439 158.776 66.7879 158.893 67.2839 159.128C67.7852 159.363 68.2145 159.691 68.5719 160.112C68.9345 160.533 69.2065 161.027 69.3879 161.592C69.5745 162.157 69.6519 162.768 69.6199 163.424H62.8359C62.8999 163.931 63.0599 164.384 63.3159 164.784C63.5772 165.184 63.9079 165.501 64.3079 165.736C64.7132 165.965 65.1612 166.083 65.6519 166.088C66.1852 166.088 66.6652 165.949 67.0919 165.672C67.5239 165.395 67.8705 165.013 68.1319 164.528L69.2679 164.792C68.9479 165.501 68.4652 166.083 67.8199 166.536C67.1745 166.984 66.4519 167.208 65.6519 167.208ZM62.8039 162.52H68.4919C68.4545 162.024 68.3025 161.571 68.0359 161.16C67.7745 160.744 67.4359 160.413 67.0199 160.168C66.6039 159.917 66.1479 159.792 65.6519 159.792C65.1559 159.792 64.7025 159.915 64.2919 160.16C63.8812 160.4 63.5452 160.728 63.2839 161.144C63.0225 161.555 62.8625 162.013 62.8039 162.52ZM70.9913 167V159H72.1113V160.104C72.3939 159.699 72.7619 159.376 73.2153 159.136C73.6686 158.896 74.1619 158.776 74.6953 158.776C75.0046 158.776 75.3033 158.816 75.5913 158.896L75.1353 160.008C74.9113 159.939 74.6926 159.904 74.4793 159.904C74.0473 159.904 73.6499 160.011 73.2873 160.224C72.9299 160.437 72.6446 160.723 72.4313 161.08C72.2179 161.437 72.1113 161.835 72.1113 162.272V167H70.9913ZM76.6319 167V159H77.7519V160.104C78.0399 159.699 78.4079 159.376 78.8559 159.136C79.3039 158.896 79.7945 158.776 80.3279 158.776C80.9305 158.776 81.4825 158.925 81.9839 159.224C82.4852 159.517 82.8772 159.909 83.1599 160.4C83.4425 159.909 83.8319 159.517 84.3279 159.224C84.8239 158.925 85.3732 158.776 85.9759 158.776C86.5785 158.776 87.1279 158.923 87.6239 159.216C88.1199 159.509 88.5145 159.904 88.8079 160.4C89.1012 160.896 89.2479 161.445 89.2479 162.048V167H88.1279V162.296C88.1279 161.869 88.0239 161.475 87.8159 161.112C87.6079 160.749 87.3279 160.459 86.9759 160.24C86.6292 160.016 86.2425 159.904 85.8159 159.904C85.3892 159.904 84.9999 160.008 84.6479 160.216C84.3012 160.419 84.0239 160.701 83.8159 161.064C83.6079 161.421 83.5039 161.832 83.5039 162.296V167H82.3839V162.296C82.3839 161.832 82.2799 161.421 82.0719 161.064C81.8639 160.701 81.5839 160.419 81.2319 160.216C80.8799 160.008 80.4905 159.904 80.0639 159.904C79.6425 159.904 79.2559 160.016 78.9039 160.24C78.5519 160.459 78.2719 160.749 78.0639 161.112C77.8559 161.475 77.7519 161.869 77.7519 162.296V167H76.6319ZM97.2704 159H98.3904V167H97.2704L97.2304 165.512C96.969 166.019 96.6037 166.429 96.1344 166.744C95.665 167.053 95.105 167.208 94.4544 167.208C93.8677 167.208 93.3184 167.099 92.8064 166.88C92.2944 166.656 91.8437 166.349 91.4544 165.96C91.065 165.571 90.761 165.12 90.5424 164.608C90.3237 164.096 90.2144 163.547 90.2144 162.96C90.2144 162.384 90.321 161.843 90.5344 161.336C90.753 160.829 91.0517 160.384 91.4304 160C91.8144 159.616 92.257 159.317 92.7584 159.104C93.265 158.885 93.8064 158.776 94.3824 158.776C95.049 158.776 95.6304 158.936 96.1264 159.256C96.6224 159.571 97.017 159.984 97.3104 160.496L97.2704 159ZM94.4304 166.12C95.001 166.12 95.4917 165.981 95.9024 165.704C96.313 165.421 96.6277 165.043 96.8464 164.568C97.0704 164.093 97.1824 163.571 97.1824 163C97.1824 162.413 97.0704 161.885 96.8464 161.416C96.6224 160.941 96.305 160.565 95.8944 160.288C95.4837 160.011 94.9957 159.872 94.4304 159.872C93.865 159.872 93.3477 160.013 92.8784 160.296C92.4144 160.573 92.0437 160.949 91.7664 161.424C91.4944 161.899 91.3584 162.424 91.3584 163C91.3584 163.581 91.4997 164.109 91.7824 164.584C92.065 165.053 92.4384 165.427 92.9024 165.704C93.3717 165.981 93.881 166.12 94.4304 166.12ZM106.967 162.048V167H105.847V162.272C105.847 161.835 105.741 161.437 105.527 161.08C105.314 160.723 105.029 160.437 104.671 160.224C104.314 160.011 103.917 159.904 103.479 159.904C103.047 159.904 102.65 160.011 102.287 160.224C101.93 160.437 101.645 160.723 101.431 161.08C101.218 161.437 101.111 161.835 101.111 162.272V167H99.9913V159H101.111V160.104C101.394 159.699 101.762 159.376 102.215 159.136C102.669 158.896 103.162 158.776 103.695 158.776C104.298 158.776 104.847 158.923 105.343 159.216C105.839 159.509 106.234 159.904 106.527 160.4C106.821 160.896 106.967 161.445 106.967 162.048Z" fill="#0C1021"/>
<rect x="183" y="53" width="107" height="35" rx="17.5" fill="#0C1021" fill-opacity="0.04"/>
<g clip-path="url(#clip3_1960_7343)">
<path fill-rule="evenodd" clip-rule="evenodd" d="M195.625 73.8934H213.375C212.009 77.4641 208.551 80 204.5 80C200.449 80 196.991 77.4641 195.625 73.8934Z" fill="#D80027"/>
<path fill-rule="evenodd" clip-rule="evenodd" d="M213.375 67.1066H195.625C196.991 63.5359 200.449 61 204.5 61C208.551 61 212.009 63.5359 213.375 67.1066Z" fill="#D80027"/>
<path fill-rule="evenodd" clip-rule="evenodd" d="M195.625 67.1067H213.375C214.208 69.2923 214.208 71.7079 213.375 73.8934H195.625C194.792 71.7079 194.792 69.2923 195.625 67.1067Z" fill="#FFDA44"/>
</g>
<path d="M226.872 76.208C226.275 76.208 225.696 76.1147 225.136 75.928C224.581 75.7413 224.096 75.4747 223.68 75.128C223.264 74.7813 222.971 74.368 222.8 73.888L223.848 73.496C223.965 73.8267 224.179 74.112 224.488 74.352C224.803 74.5867 225.168 74.768 225.584 74.896C226.005 75.024 226.435 75.088 226.872 75.088C227.384 75.088 227.861 75.0027 228.304 74.832C228.747 74.6613 229.104 74.424 229.376 74.12C229.648 73.8107 229.784 73.448 229.784 73.032C229.784 72.6107 229.643 72.264 229.36 71.992C229.077 71.72 228.712 71.5067 228.264 71.352C227.821 71.192 227.357 71.0693 226.872 70.984C226.109 70.8507 225.424 70.6693 224.816 70.44C224.213 70.2107 223.736 69.888 223.384 69.472C223.032 69.0507 222.856 68.496 222.856 67.808C222.856 67.1627 223.043 66.6027 223.416 66.128C223.789 65.6533 224.28 65.2853 224.888 65.024C225.501 64.7627 226.163 64.632 226.872 64.632C227.453 64.632 228.021 64.7227 228.576 64.904C229.131 65.0853 229.619 65.3493 230.04 65.696C230.467 66.0427 230.773 66.4667 230.96 66.968L229.896 67.352C229.779 67.016 229.563 66.7307 229.248 66.496C228.939 66.256 228.576 66.0747 228.16 65.952C227.744 65.824 227.315 65.76 226.872 65.76C226.365 65.7547 225.891 65.84 225.448 66.016C225.011 66.1867 224.656 66.4267 224.384 66.736C224.112 67.04 223.976 67.3973 223.976 67.808C223.976 68.288 224.101 68.6587 224.352 68.92C224.608 69.176 224.955 69.368 225.392 69.496C225.829 69.624 226.323 69.7387 226.872 69.84C227.587 69.9627 228.251 70.1547 228.864 70.416C229.477 70.672 229.971 71.016 230.344 71.448C230.717 71.8747 230.904 72.4027 230.904 73.032C230.904 73.672 230.717 74.232 230.344 74.712C229.971 75.1867 229.477 75.5547 228.864 75.816C228.256 76.0773 227.592 76.208 226.872 76.208ZM233.768 80H232.648V68H233.768V69.496C234.045 68.9893 234.424 68.5787 234.904 68.264C235.384 67.9493 235.954 67.792 236.616 67.792C237.197 67.792 237.741 67.9013 238.248 68.12C238.76 68.3387 239.208 68.6427 239.592 69.032C239.976 69.416 240.277 69.8613 240.496 70.368C240.714 70.8747 240.824 71.4187 240.824 72C240.824 72.5813 240.714 73.128 240.496 73.64C240.277 74.152 239.976 74.6027 239.592 74.992C239.208 75.376 238.76 75.6773 238.248 75.896C237.741 76.1147 237.197 76.224 236.616 76.224C235.954 76.224 235.384 76.0667 234.904 75.752C234.424 75.4373 234.045 75.0267 233.768 74.52V80ZM236.608 68.88C236.048 68.88 235.56 69.0213 235.144 69.304C234.733 69.5813 234.416 69.9547 234.192 70.424C233.968 70.8933 233.856 71.4187 233.856 72C233.856 72.5707 233.965 73.0933 234.184 73.568C234.408 74.0427 234.725 74.4213 235.136 74.704C235.552 74.9867 236.042 75.128 236.608 75.128C237.162 75.128 237.672 74.9893 238.136 74.712C238.605 74.4347 238.981 74.0613 239.264 73.592C239.546 73.1173 239.688 72.5867 239.688 72C239.688 71.4293 239.549 70.9093 239.272 70.44C238.994 69.9653 238.624 69.5867 238.16 69.304C237.696 69.0213 237.178 68.88 236.608 68.88ZM248.677 68H249.797V76H248.677L248.637 74.512C248.375 75.0187 248.01 75.4293 247.541 75.744C247.071 76.0533 246.511 76.208 245.861 76.208C245.274 76.208 244.725 76.0987 244.213 75.88C243.701 75.656 243.25 75.3493 242.861 74.96C242.471 74.5707 242.167 74.12 241.949 73.608C241.73 73.096 241.621 72.5467 241.621 71.96C241.621 71.384 241.727 70.8427 241.941 70.336C242.159 69.8293 242.458 69.384 242.837 69C243.221 68.616 243.663 68.3173 244.165 68.104C244.671 67.8853 245.213 67.776 245.789 67.776C246.455 67.776 247.037 67.936 247.533 68.256C248.029 68.5707 248.423 68.984 248.717 69.496L248.677 68ZM245.837 75.12C246.407 75.12 246.898 74.9813 247.309 74.704C247.719 74.4213 248.034 74.0427 248.253 73.568C248.477 73.0933 248.589 72.5707 248.589 72C248.589 71.4133 248.477 70.8853 248.253 70.416C248.029 69.9413 247.711 69.5653 247.301 69.288C246.89 69.0107 246.402 68.872 245.837 68.872C245.271 68.872 244.754 69.0133 244.285 69.296C243.821 69.5733 243.45 69.9493 243.173 70.424C242.901 70.8987 242.765 71.424 242.765 72C242.765 72.5813 242.906 73.1093 243.189 73.584C243.471 74.0533 243.845 74.4267 244.309 74.704C244.778 74.9813 245.287 75.12 245.837 75.12ZM258.374 71.048V76H257.254V71.272C257.254 70.8347 257.147 70.4373 256.934 70.08C256.72 69.7227 256.435 69.4373 256.078 69.224C255.72 69.0107 255.323 68.904 254.886 68.904C254.454 68.904 254.056 69.0107 253.694 69.224C253.336 69.4373 253.051 69.7227 252.838 70.08C252.624 70.4373 252.518 70.8347 252.518 71.272V76H251.398V68H252.518V69.104C252.8 68.6987 253.168 68.376 253.622 68.136C254.075 67.896 254.568 67.776 255.102 67.776C255.704 67.776 256.254 67.9227 256.75 68.216C257.246 68.5093 257.64 68.904 257.934 69.4C258.227 69.896 258.374 70.4453 258.374 71.048ZM259.976 68H261.096V76H259.976V68ZM260.544 66.6C260.362 66.6 260.208 66.5413 260.08 66.424C259.957 66.3013 259.896 66.1493 259.896 65.968C259.896 65.7867 259.957 65.6373 260.08 65.52C260.208 65.3973 260.362 65.336 260.544 65.336C260.72 65.336 260.869 65.3973 260.992 65.52C261.12 65.6373 261.184 65.7867 261.184 65.968C261.184 66.1493 261.122 66.3013 261 66.424C260.877 66.5413 260.725 66.6 260.544 66.6ZM265.432 76.152C264.995 76.1413 264.568 76.0613 264.152 75.912C263.736 75.7627 263.373 75.56 263.064 75.304C262.755 75.048 262.533 74.7573 262.4 74.432L263.368 74.016C263.453 74.224 263.611 74.416 263.84 74.592C264.075 74.7627 264.341 74.9013 264.64 75.008C264.939 75.1093 265.235 75.16 265.528 75.16C265.853 75.16 266.157 75.1067 266.44 75C266.723 74.8933 266.952 74.7413 267.128 74.544C267.309 74.3413 267.4 74.104 267.4 73.832C267.4 73.5387 267.304 73.3093 267.112 73.144C266.92 72.9733 266.677 72.84 266.384 72.744C266.091 72.6427 265.789 72.5467 265.48 72.456C264.915 72.3013 264.416 72.1307 263.984 71.944C263.552 71.7573 263.213 71.52 262.968 71.232C262.728 70.9387 262.608 70.5627 262.608 70.104C262.608 69.6187 262.744 69.2 263.016 68.848C263.293 68.4907 263.653 68.216 264.096 68.024C264.544 67.8267 265.021 67.728 265.528 67.728C266.179 67.728 266.771 67.8693 267.304 68.152C267.843 68.4347 268.232 68.8107 268.472 69.28L267.568 69.816C267.472 69.5973 267.32 69.408 267.112 69.248C266.904 69.088 266.667 68.9627 266.4 68.872C266.139 68.7813 265.872 68.7333 265.6 68.728C265.259 68.7227 264.941 68.7733 264.648 68.88C264.355 68.9813 264.117 69.1333 263.936 69.336C263.76 69.5387 263.672 69.7867 263.672 70.08C263.672 70.3733 263.76 70.5973 263.936 70.752C264.112 70.9013 264.349 71.024 264.648 71.12C264.952 71.2107 265.293 71.3173 265.672 71.44C266.157 71.5947 266.613 71.7707 267.04 71.968C267.467 72.1653 267.811 72.4107 268.072 72.704C268.333 72.9973 268.461 73.368 268.456 73.816C268.456 74.296 268.312 74.7147 268.024 75.072C267.736 75.4293 267.363 75.704 266.904 75.896C266.445 76.0827 265.955 76.168 265.432 76.152ZM276.811 71.048V76H275.691V71.272C275.691 70.8347 275.584 70.4373 275.371 70.08C275.158 69.7227 274.872 69.4373 274.515 69.224C274.158 69.0107 273.76 68.904 273.323 68.904C272.891 68.904 272.494 69.0107 272.131 69.224C271.774 69.4373 271.488 69.7227 271.275 70.08C271.062 70.4373 270.955 70.8347 270.955 71.272V76H269.835V64H270.955V69.104C271.238 68.6987 271.606 68.376 272.059 68.136C272.512 67.896 273.006 67.776 273.539 67.776C274.142 67.776 274.691 67.9227 275.187 68.216C275.683 68.5093 276.078 68.904 276.371 69.4C276.664 69.896 276.811 70.4453 276.811 71.048Z" fill="#0C1021"/>
<rect x="173" y="137" width="107" height="35" rx="17.5" fill="#0C1021" fill-opacity="0.04"/>
<g clip-path="url(#clip4_1960_7343)">
<path d="M194.5 164C199.747 164 204 159.747 204 154.5C204 149.253 199.747 145 194.5 145C189.253 145 185 149.253 185 154.5C185 159.747 189.253 164 194.5 164Z" fill="#EE1C25"/>
<path d="M199.574 156L198.641 155.985L198.337 155.103L198.035 155.985L197.102 156L197.847 156.56L197.574 157.451L198.338 156.916L199.102 157.451L198.828 156.56L199.574 156Z" fill="#FFFF00"/>
<path d="M196.152 151.794L196.168 150.861L197.049 150.558L196.168 150.254L196.152 149.321L195.592 150.067L194.7 149.794L195.236 150.558L194.7 151.322L195.592 151.048L196.152 151.794Z" fill="#FFFF00"/>
<path d="M196.152 159.679L196.168 158.746L197.049 158.443L196.168 158.139L196.152 157.206L195.592 157.952L194.7 157.679L195.236 158.443L194.7 159.207L195.592 158.933L196.152 159.679Z" fill="#FFFF00"/>
<path d="M198.714 152.94L199.123 152.102L198.285 152.511L197.614 151.863L197.745 152.786L196.922 153.223L197.841 153.385L198.002 154.304L198.439 153.48L199.362 153.61L198.714 152.94Z" fill="#FFFF00"/>
<path d="M193.557 153.369L191.042 153.327L190.224 150.951L189.407 153.328L186.893 153.37L188.903 154.881L188.167 157.284L190.226 155.841L192.285 157.283L191.548 154.88L193.557 153.369Z" fill="#FFFF00"/>
</g>
<path d="M218.144 160.208C217.387 160.208 216.675 160.059 216.008 159.76C215.341 159.456 214.755 159.04 214.248 158.512C213.747 157.979 213.352 157.36 213.064 156.656C212.781 155.952 212.64 155.2 212.64 154.4C212.64 153.6 212.781 152.848 213.064 152.144C213.352 151.44 213.747 150.824 214.248 150.296C214.755 149.763 215.341 149.347 216.008 149.048C216.675 148.744 217.387 148.592 218.144 148.592C219.051 148.592 219.885 148.803 220.648 149.224C221.411 149.645 222.043 150.205 222.544 150.904L221.552 151.44C221.157 150.912 220.656 150.493 220.048 150.184C219.445 149.869 218.811 149.712 218.144 149.712C217.531 149.712 216.957 149.837 216.424 150.088C215.896 150.333 215.432 150.672 215.032 151.104C214.632 151.536 214.32 152.035 214.096 152.6C213.872 153.165 213.76 153.765 213.76 154.4C213.76 155.045 213.872 155.651 214.096 156.216C214.325 156.781 214.64 157.28 215.04 157.712C215.445 158.144 215.912 158.483 216.44 158.728C216.973 158.968 217.541 159.088 218.144 159.088C218.837 159.088 219.48 158.931 220.072 158.616C220.669 158.296 221.163 157.88 221.552 157.368L222.544 157.904C222.043 158.603 221.411 159.163 220.648 159.584C219.885 160 219.051 160.208 218.144 160.208ZM231.17 155.048V160H230.05V155.272C230.05 154.835 229.944 154.437 229.73 154.08C229.517 153.723 229.232 153.437 228.874 153.224C228.517 153.011 228.12 152.904 227.682 152.904C227.25 152.904 226.853 153.011 226.49 153.224C226.133 153.437 225.848 153.723 225.634 154.08C225.421 154.437 225.314 154.835 225.314 155.272V160H224.194V148H225.314V153.104C225.597 152.699 225.965 152.376 226.418 152.136C226.872 151.896 227.365 151.776 227.898 151.776C228.501 151.776 229.05 151.923 229.546 152.216C230.042 152.509 230.437 152.904 230.73 153.4C231.024 153.896 231.17 154.445 231.17 155.048ZM232.773 152H233.893V160H232.773V152ZM233.341 150.6C233.159 150.6 233.005 150.541 232.877 150.424C232.754 150.301 232.693 150.149 232.693 149.968C232.693 149.787 232.754 149.637 232.877 149.52C233.005 149.397 233.159 149.336 233.341 149.336C233.517 149.336 233.666 149.397 233.789 149.52C233.917 149.637 233.981 149.787 233.981 149.968C233.981 150.149 233.919 150.301 233.797 150.424C233.674 150.541 233.522 150.6 233.341 150.6ZM242.764 155.048V160H241.644V155.272C241.644 154.835 241.537 154.437 241.324 154.08C241.111 153.723 240.825 153.437 240.468 153.224C240.111 153.011 239.713 152.904 239.276 152.904C238.844 152.904 238.447 153.011 238.084 153.224C237.727 153.437 237.441 153.723 237.228 154.08C237.015 154.437 236.908 154.835 236.908 155.272V160H235.788V152H236.908V153.104C237.191 152.699 237.559 152.376 238.012 152.136C238.465 151.896 238.959 151.776 239.492 151.776C240.095 151.776 240.644 151.923 241.14 152.216C241.636 152.509 242.031 152.904 242.324 153.4C242.617 153.896 242.764 154.445 242.764 155.048ZM247.73 160.208C246.994 160.208 246.322 160.019 245.714 159.64C245.111 159.261 244.629 158.755 244.266 158.12C243.909 157.48 243.73 156.773 243.73 156C243.73 155.413 243.834 154.867 244.042 154.36C244.25 153.848 244.535 153.4 244.898 153.016C245.266 152.627 245.693 152.323 246.178 152.104C246.663 151.885 247.181 151.776 247.73 151.776C248.322 151.776 248.866 151.893 249.362 152.128C249.863 152.363 250.293 152.691 250.65 153.112C251.013 153.533 251.285 154.027 251.466 154.592C251.653 155.157 251.73 155.768 251.698 156.424H244.914C244.978 156.931 245.138 157.384 245.394 157.784C245.655 158.184 245.986 158.501 246.386 158.736C246.791 158.965 247.239 159.083 247.73 159.088C248.263 159.088 248.743 158.949 249.17 158.672C249.602 158.395 249.949 158.013 250.21 157.528L251.346 157.792C251.026 158.501 250.543 159.083 249.898 159.536C249.253 159.984 248.53 160.208 247.73 160.208ZM244.882 155.52H250.57C250.533 155.024 250.381 154.571 250.114 154.16C249.853 153.744 249.514 153.413 249.098 153.168C248.682 152.917 248.226 152.792 247.73 152.792C247.234 152.792 246.781 152.915 246.37 153.16C245.959 153.4 245.623 153.728 245.362 154.144C245.101 154.555 244.941 155.013 244.882 155.52ZM255.557 160.152C255.12 160.141 254.693 160.061 254.277 159.912C253.861 159.763 253.498 159.56 253.189 159.304C252.88 159.048 252.658 158.757 252.525 158.432L253.493 158.016C253.578 158.224 253.736 158.416 253.965 158.592C254.2 158.763 254.466 158.901 254.765 159.008C255.064 159.109 255.36 159.16 255.653 159.16C255.978 159.16 256.282 159.107 256.565 159C256.848 158.893 257.077 158.741 257.253 158.544C257.434 158.341 257.525 158.104 257.525 157.832C257.525 157.539 257.429 157.309 257.237 157.144C257.045 156.973 256.802 156.84 256.509 156.744C256.216 156.643 255.914 156.547 255.605 156.456C255.04 156.301 254.541 156.131 254.109 155.944C253.677 155.757 253.338 155.52 253.093 155.232C252.853 154.939 252.733 154.563 252.733 154.104C252.733 153.619 252.869 153.2 253.141 152.848C253.418 152.491 253.778 152.216 254.221 152.024C254.669 151.827 255.146 151.728 255.653 151.728C256.304 151.728 256.896 151.869 257.429 152.152C257.968 152.435 258.357 152.811 258.597 153.28L257.693 153.816C257.597 153.597 257.445 153.408 257.237 153.248C257.029 153.088 256.792 152.963 256.525 152.872C256.264 152.781 255.997 152.733 255.725 152.728C255.384 152.723 255.066 152.773 254.773 152.88C254.48 152.981 254.242 153.133 254.061 153.336C253.885 153.539 253.797 153.787 253.797 154.08C253.797 154.373 253.885 154.597 254.061 154.752C254.237 154.901 254.474 155.024 254.773 155.12C255.077 155.211 255.418 155.317 255.797 155.44C256.282 155.595 256.738 155.771 257.165 155.968C257.592 156.165 257.936 156.411 258.197 156.704C258.458 156.997 258.586 157.368 258.581 157.816C258.581 158.296 258.437 158.715 258.149 159.072C257.861 159.429 257.488 159.704 257.029 159.896C256.57 160.083 256.08 160.168 255.557 160.152ZM263.418 160.208C262.682 160.208 262.01 160.019 261.402 159.64C260.799 159.261 260.316 158.755 259.954 158.12C259.596 157.48 259.418 156.773 259.418 156C259.418 155.413 259.522 154.867 259.73 154.36C259.938 153.848 260.223 153.4 260.586 153.016C260.954 152.627 261.38 152.323 261.866 152.104C262.351 151.885 262.868 151.776 263.418 151.776C264.01 151.776 264.554 151.893 265.05 152.128C265.551 152.363 265.98 152.691 266.338 153.112C266.7 153.533 266.972 154.027 267.154 154.592C267.34 155.157 267.418 155.768 267.385 156.424H260.602C260.666 156.931 260.826 157.384 261.082 157.784C261.343 158.184 261.674 158.501 262.074 158.736C262.479 158.965 262.927 159.083 263.418 159.088C263.951 159.088 264.431 158.949 264.858 158.672C265.29 158.395 265.636 158.013 265.898 157.528L267.034 157.792C266.714 158.501 266.231 159.083 265.586 159.536C264.94 159.984 264.218 160.208 263.418 160.208ZM260.57 155.52H266.258C266.22 155.024 266.068 154.571 265.802 154.16C265.54 153.744 265.202 153.413 264.786 153.168C264.37 152.917 263.914 152.792 263.418 152.792C262.922 152.792 262.468 152.915 262.058 153.16C261.647 153.4 261.311 153.728 261.049 154.144C260.788 154.555 260.628 155.013 260.57 155.52Z" fill="#0C1021"/>
<rect x="110" width="98" height="35" rx="17.5" fill="#0C1021" fill-opacity="0.04"/>
<g clip-path="url(#clip5_1960_7343)">
<path d="M134.992 26.3368V8.66321C138.512 10.0506 141 13.4849 141 17.5C141 21.5151 138.512 24.9494 134.992 26.3368Z" fill="#F30040"/>
<path d="M128.008 26.3368C124.488 24.9494 122 21.5151 122 17.5C122 13.4849 124.488 10.0506 128.008 8.66321V26.3368Z" fill="#14439E"/>
<path d="M131.5 27C130.267 27 129.087 26.767 128.008 26.3368V8.66321C129.087 8.23302 130.267 8 131.5 8C132.733 8 133.913 8.23302 134.992 8.66321V26.3368C133.913 26.767 132.733 27 131.5 27Z" fill="white"/>
</g>
<path d="M149.96 23V11.8H156.512V12.92H151.08V16.44H155.744V17.56H151.08V23H149.96ZM157.335 23V15H158.455V16.104C158.738 15.6987 159.106 15.376 159.559 15.136C160.012 14.896 160.506 14.776 161.039 14.776C161.348 14.776 161.647 14.816 161.935 14.896L161.479 16.008C161.255 15.9387 161.036 15.904 160.823 15.904C160.391 15.904 159.994 16.0107 159.631 16.224C159.274 16.4373 158.988 16.7227 158.775 17.08C158.562 17.4373 158.455 17.8347 158.455 18.272V23H157.335ZM166.043 23.208C165.307 23.208 164.635 23.0187 164.027 22.64C163.424 22.2613 162.941 21.7547 162.579 21.12C162.221 20.48 162.043 19.7733 162.043 19C162.043 18.4133 162.147 17.8667 162.355 17.36C162.563 16.848 162.848 16.4 163.211 16.016C163.579 15.6267 164.005 15.3227 164.491 15.104C164.976 14.8853 165.493 14.776 166.043 14.776C166.635 14.776 167.179 14.8933 167.675 15.128C168.176 15.3627 168.605 15.6907 168.963 16.112C169.325 16.5333 169.597 17.0267 169.779 17.592C169.965 18.1573 170.043 18.768 170.01 19.424H163.227C163.291 19.9307 163.451 20.384 163.707 20.784C163.968 21.184 164.299 21.5013 164.699 21.736C165.104 21.9653 165.552 22.0827 166.043 22.088C166.576 22.088 167.056 21.9493 167.483 21.672C167.915 21.3947 168.261 21.0133 168.523 20.528L169.659 20.792C169.339 21.5013 168.856 22.0827 168.211 22.536C167.565 22.984 166.843 23.208 166.043 23.208ZM163.195 18.52H168.883C168.845 18.024 168.693 17.5707 168.427 17.16C168.165 16.744 167.827 16.4133 167.411 16.168C166.995 15.9173 166.539 15.792 166.043 15.792C165.547 15.792 165.093 15.9147 164.683 16.16C164.272 16.4 163.936 16.728 163.674 17.144C163.413 17.5547 163.253 18.0133 163.195 18.52ZM178.358 18.048V23H177.238V18.272C177.238 17.8347 177.131 17.4373 176.918 17.08C176.705 16.7227 176.419 16.4373 176.062 16.224C175.705 16.0107 175.307 15.904 174.87 15.904C174.438 15.904 174.041 16.0107 173.678 16.224C173.321 16.4373 173.035 16.7227 172.822 17.08C172.609 17.4373 172.502 17.8347 172.502 18.272V23H171.382V15H172.502V16.104C172.785 15.6987 173.153 15.376 173.606 15.136C174.059 14.896 174.553 14.776 175.086 14.776C175.689 14.776 176.238 14.9227 176.734 15.216C177.23 15.5093 177.625 15.904 177.918 16.4C178.211 16.896 178.358 17.4453 178.358 18.048ZM185.516 20.992L186.516 21.536C186.153 22.0427 185.692 22.448 185.132 22.752C184.577 23.056 183.974 23.208 183.324 23.208C182.588 23.208 181.916 23.0187 181.308 22.64C180.705 22.2613 180.222 21.7547 179.86 21.12C179.502 20.48 179.324 19.7733 179.324 19C179.324 18.4133 179.428 17.8667 179.636 17.36C179.844 16.848 180.129 16.4 180.492 16.016C180.86 15.6267 181.286 15.3227 181.772 15.104C182.257 14.8853 182.774 14.776 183.324 14.776C183.974 14.776 184.577 14.928 185.132 15.232C185.692 15.536 186.153 15.944 186.516 16.456L185.516 16.992C185.238 16.64 184.905 16.3707 184.516 16.184C184.126 15.992 183.729 15.896 183.324 15.896C182.785 15.896 182.297 16.04 181.86 16.328C181.422 16.6107 181.076 16.9867 180.82 17.456C180.569 17.9253 180.444 18.44 180.444 19C180.444 19.56 180.572 20.0747 180.828 20.544C181.089 21.0133 181.438 21.3893 181.876 21.672C182.313 21.9493 182.796 22.088 183.324 22.088C183.761 22.088 184.172 21.9867 184.556 21.784C184.94 21.5813 185.26 21.3173 185.516 20.992ZM194.827 18.048V23H193.707V18.272C193.707 17.8347 193.6 17.4373 193.387 17.08C193.173 16.7227 192.888 16.4373 192.531 16.224C192.173 16.0107 191.776 15.904 191.339 15.904C190.907 15.904 190.509 16.0107 190.147 16.224C189.789 16.4373 189.504 16.7227 189.291 17.08C189.077 17.4373 188.971 17.8347 188.971 18.272V23H187.851V11H188.971V16.104C189.253 15.6987 189.621 15.376 190.075 15.136C190.528 14.896 191.021 14.776 191.555 14.776C192.157 14.776 192.707 14.9227 193.203 15.216C193.699 15.5093 194.093 15.904 194.387 16.4C194.68 16.896 194.827 17.4453 194.827 18.048Z" fill="#0C1021"/>
<rect x="78" y="95" width="119" height="35" rx="17.5" fill="#0C1021" fill-opacity="0.04"/>
<rect x="90" y="103" width="19" height="19" rx="9.5" fill="white"/>
<path fill-rule="evenodd" clip-rule="evenodd" d="M99.5027 117C101.706 117 103.5 115.205 103.5 113C103.5 110.795 101.706 109 99.5027 109C97.2993 109 95.5 110.795 95.5 113C95.5 115.205 97.2993 117 99.5027 117Z" fill="#DB1F26"/>
<path d="M119.32 118.208C118.957 118.208 118.603 118.147 118.256 118.024C117.915 117.907 117.603 117.725 117.32 117.48L118.032 116.616C118.203 116.76 118.397 116.875 118.616 116.96C118.835 117.045 119.069 117.088 119.32 117.088C119.693 117.088 120.032 116.989 120.336 116.792C120.64 116.589 120.883 116.328 121.064 116.008C121.251 115.683 121.344 115.336 121.344 114.968V106.8H122.464V114.968C122.464 115.544 122.323 116.077 122.04 116.568C121.757 117.059 121.379 117.456 120.904 117.76C120.429 118.059 119.901 118.208 119.32 118.208ZM130.958 110H132.078V118H130.958L130.918 116.512C130.657 117.019 130.291 117.429 129.822 117.744C129.353 118.053 128.793 118.208 128.142 118.208C127.555 118.208 127.006 118.099 126.494 117.88C125.982 117.656 125.531 117.349 125.142 116.96C124.753 116.571 124.449 116.12 124.23 115.608C124.011 115.096 123.902 114.547 123.902 113.96C123.902 113.384 124.009 112.843 124.222 112.336C124.441 111.829 124.739 111.384 125.118 111C125.502 110.616 125.945 110.317 126.446 110.104C126.953 109.885 127.494 109.776 128.07 109.776C128.737 109.776 129.318 109.936 129.814 110.256C130.31 110.571 130.705 110.984 130.998 111.496L130.958 110ZM128.118 117.12C128.689 117.12 129.179 116.981 129.59 116.704C130.001 116.421 130.315 116.043 130.534 115.568C130.758 115.093 130.87 114.571 130.87 114C130.87 113.413 130.758 112.885 130.534 112.416C130.31 111.941 129.993 111.565 129.582 111.288C129.171 111.011 128.683 110.872 128.118 110.872C127.553 110.872 127.035 111.013 126.566 111.296C126.102 111.573 125.731 111.949 125.454 112.424C125.182 112.899 125.046 113.424 125.046 114C125.046 114.581 125.187 115.109 125.47 115.584C125.753 116.053 126.126 116.427 126.59 116.704C127.059 116.981 127.569 117.12 128.118 117.12ZM134.799 122H133.679V110H134.799V111.496C135.076 110.989 135.455 110.579 135.935 110.264C136.415 109.949 136.985 109.792 137.647 109.792C138.228 109.792 138.772 109.901 139.279 110.12C139.791 110.339 140.239 110.643 140.623 111.032C141.007 111.416 141.308 111.861 141.527 112.368C141.745 112.875 141.855 113.419 141.855 114C141.855 114.581 141.745 115.128 141.527 115.64C141.308 116.152 141.007 116.603 140.623 116.992C140.239 117.376 139.791 117.677 139.279 117.896C138.772 118.115 138.228 118.224 137.647 118.224C136.985 118.224 136.415 118.067 135.935 117.752C135.455 117.437 135.076 117.027 134.799 116.52V122ZM137.639 110.88C137.079 110.88 136.591 111.021 136.175 111.304C135.764 111.581 135.447 111.955 135.223 112.424C134.999 112.893 134.887 113.419 134.887 114C134.887 114.571 134.996 115.093 135.215 115.568C135.439 116.043 135.756 116.421 136.167 116.704C136.583 116.987 137.073 117.128 137.639 117.128C138.193 117.128 138.703 116.989 139.167 116.712C139.636 116.435 140.012 116.061 140.295 115.592C140.577 115.117 140.719 114.587 140.719 114C140.719 113.429 140.58 112.909 140.303 112.44C140.025 111.965 139.655 111.587 139.191 111.304C138.727 111.021 138.209 110.88 137.639 110.88ZM149.708 110H150.828V118H149.708L149.668 116.512C149.407 117.019 149.041 117.429 148.572 117.744C148.103 118.053 147.543 118.208 146.892 118.208C146.305 118.208 145.756 118.099 145.244 117.88C144.732 117.656 144.281 117.349 143.892 116.96C143.503 116.571 143.199 116.12 142.98 115.608C142.761 115.096 142.652 114.547 142.652 113.96C142.652 113.384 142.759 112.843 142.972 112.336C143.191 111.829 143.489 111.384 143.868 111C144.252 110.616 144.695 110.317 145.196 110.104C145.703 109.885 146.244 109.776 146.82 109.776C147.487 109.776 148.068 109.936 148.564 110.256C149.06 110.571 149.455 110.984 149.748 111.496L149.708 110ZM146.868 117.12C147.439 117.12 147.929 116.981 148.34 116.704C148.751 116.421 149.065 116.043 149.284 115.568C149.508 115.093 149.62 114.571 149.62 114C149.62 113.413 149.508 112.885 149.284 112.416C149.06 111.941 148.743 111.565 148.332 111.288C147.921 111.011 147.433 110.872 146.868 110.872C146.303 110.872 145.785 111.013 145.316 111.296C144.852 111.573 144.481 111.949 144.204 112.424C143.932 112.899 143.796 113.424 143.796 114C143.796 114.581 143.937 115.109 144.22 115.584C144.503 116.053 144.876 116.427 145.34 116.704C145.809 116.981 146.319 117.12 146.868 117.12ZM159.405 113.048V118H158.285V113.272C158.285 112.835 158.178 112.437 157.965 112.08C157.751 111.723 157.466 111.437 157.109 111.224C156.751 111.011 156.354 110.904 155.917 110.904C155.485 110.904 155.087 111.011 154.725 111.224C154.367 111.437 154.082 111.723 153.869 112.08C153.655 112.437 153.549 112.835 153.549 113.272V118H152.429V110H153.549V111.104C153.831 110.699 154.199 110.376 154.653 110.136C155.106 109.896 155.599 109.776 156.133 109.776C156.735 109.776 157.285 109.923 157.781 110.216C158.277 110.509 158.671 110.904 158.965 111.4C159.258 111.896 159.405 112.445 159.405 113.048ZM164.371 118.208C163.635 118.208 162.963 118.019 162.355 117.64C161.752 117.261 161.269 116.755 160.907 116.12C160.549 115.48 160.371 114.773 160.371 114C160.371 113.413 160.475 112.867 160.683 112.36C160.891 111.848 161.176 111.4 161.539 111.016C161.907 110.627 162.333 110.323 162.819 110.104C163.304 109.885 163.821 109.776 164.371 109.776C164.963 109.776 165.507 109.893 166.003 110.128C166.504 110.363 166.933 110.691 167.291 111.112C167.653 111.533 167.925 112.027 168.107 112.592C168.293 113.157 168.371 113.768 168.339 114.424H161.555C161.619 114.931 161.779 115.384 162.035 115.784C162.296 116.184 162.627 116.501 163.027 116.736C163.432 116.965 163.88 117.083 164.371 117.088C164.904 117.088 165.384 116.949 165.811 116.672C166.243 116.395 166.589 116.013 166.851 115.528L167.987 115.792C167.667 116.501 167.184 117.083 166.539 117.536C165.893 117.984 165.171 118.208 164.371 118.208ZM161.523 113.52H167.211C167.173 113.024 167.021 112.571 166.755 112.16C166.493 111.744 166.155 111.413 165.739 111.168C165.323 110.917 164.867 110.792 164.371 110.792C163.875 110.792 163.421 110.915 163.011 111.16C162.6 111.4 162.264 111.728 162.003 112.144C161.741 112.555 161.581 113.013 161.523 113.52ZM172.198 118.152C171.76 118.141 171.334 118.061 170.918 117.912C170.502 117.763 170.139 117.56 169.83 117.304C169.52 117.048 169.299 116.757 169.166 116.432L170.134 116.016C170.219 116.224 170.376 116.416 170.606 116.592C170.84 116.763 171.107 116.901 171.406 117.008C171.704 117.109 172 117.16 172.294 117.16C172.619 117.16 172.923 117.107 173.206 117C173.488 116.893 173.718 116.741 173.894 116.544C174.075 116.341 174.166 116.104 174.166 115.832C174.166 115.539 174.07 115.309 173.878 115.144C173.686 114.973 173.443 114.84 173.15 114.744C172.856 114.643 172.555 114.547 172.246 114.456C171.68 114.301 171.182 114.131 170.75 113.944C170.318 113.757 169.979 113.52 169.734 113.232C169.494 112.939 169.374 112.563 169.374 112.104C169.374 111.619 169.51 111.2 169.782 110.848C170.059 110.491 170.419 110.216 170.862 110.024C171.31 109.827 171.787 109.728 172.294 109.728C172.944 109.728 173.536 109.869 174.07 110.152C174.608 110.435 174.998 110.811 175.238 111.28L174.334 111.816C174.238 111.597 174.086 111.408 173.878 111.248C173.67 111.088 173.432 110.963 173.166 110.872C172.904 110.781 172.638 110.733 172.366 110.728C172.024 110.723 171.707 110.773 171.414 110.88C171.12 110.981 170.883 111.133 170.702 111.336C170.526 111.539 170.438 111.787 170.438 112.08C170.438 112.373 170.526 112.597 170.702 112.752C170.878 112.901 171.115 113.024 171.414 113.12C171.718 113.211 172.059 113.317 172.438 113.44C172.923 113.595 173.379 113.771 173.806 113.968C174.232 114.165 174.576 114.411 174.838 114.704C175.099 114.997 175.227 115.368 175.222 115.816C175.222 116.296 175.078 116.715 174.79 117.072C174.502 117.429 174.128 117.704 173.67 117.896C173.211 118.083 172.72 118.168 172.198 118.152ZM180.058 118.208C179.322 118.208 178.65 118.019 178.042 117.64C177.439 117.261 176.957 116.755 176.594 116.12C176.237 115.48 176.058 114.773 176.058 114C176.058 113.413 176.162 112.867 176.37 112.36C176.578 111.848 176.863 111.4 177.226 111.016C177.594 110.627 178.021 110.323 178.506 110.104C178.991 109.885 179.509 109.776 180.058 109.776C180.65 109.776 181.194 109.893 181.69 110.128C182.191 110.363 182.621 110.691 182.978 111.112C183.341 111.533 183.613 112.027 183.794 112.592C183.981 113.157 184.058 113.768 184.026 114.424H177.242C177.306 114.931 177.466 115.384 177.722 115.784C177.983 116.184 178.314 116.501 178.714 116.736C179.119 116.965 179.567 117.083 180.058 117.088C180.591 117.088 181.071 116.949 181.498 116.672C181.93 116.395 182.277 116.013 182.538 115.528L183.674 115.792C183.354 116.501 182.871 117.083 182.226 117.536C181.581 117.984 180.858 118.208 180.058 118.208ZM177.21 113.52H182.898C182.861 113.024 182.709 112.571 182.442 112.16C182.181 111.744 181.842 111.413 181.426 111.168C181.01 110.917 180.554 110.792 180.058 110.792C179.562 110.792 179.109 110.915 178.698 111.16C178.287 111.4 177.951 111.728 177.69 112.144C177.429 112.555 177.269 113.013 177.21 113.52Z" fill="#0C1021"/>
<rect x="94" y="190" width="130" height="35" rx="17.5" fill="#0C1021" fill-opacity="0.04"/>
<g clip-path="url(#clip6_1960_7343)">
<path d="M106 207.5C106 211.585 108.578 215.067 112.196 216.409L113.022 207.5L112.196 198.591C108.578 199.933 106 203.415 106 207.5Z" fill="#6DA544"/>
<path d="M125 207.5C125 202.253 120.747 198 115.5 198C114.338 198 113.225 198.209 112.196 198.591V216.409C113.225 216.791 114.338 217 115.5 217C120.747 217 125 212.747 125 207.5Z" fill="#D80027"/>
<path d="M112.196 210.804C114.021 210.804 115.5 209.325 115.5 207.5C115.5 205.675 114.021 204.196 112.196 204.196C110.371 204.196 108.891 205.675 108.891 207.5C108.891 209.325 110.371 210.804 112.196 210.804Z" fill="#FFDA44"/>
<path d="M110.337 205.848V207.913C110.337 208.94 111.169 209.772 112.196 209.772C113.222 209.772 114.054 208.94 114.054 207.913V205.848H110.337Z" fill="#D80027"/>
<path d="M112.196 208.533C111.854 208.533 111.576 208.255 111.576 207.913V207.087H112.815V207.913C112.815 208.255 112.537 208.533 112.196 208.533Z" fill="#F0F0F0"/>
</g>
<path d="M133.96 213V201.8H137.544C138.141 201.8 138.68 201.947 139.16 202.24C139.64 202.528 140.021 202.92 140.304 203.416C140.592 203.907 140.736 204.459 140.736 205.072C140.736 205.691 140.589 206.248 140.296 206.744C140.008 207.24 139.621 207.632 139.136 207.92C138.656 208.208 138.125 208.352 137.544 208.352H135.08V213H133.96ZM135.08 207.232H137.456C137.851 207.232 138.211 207.136 138.536 206.944C138.867 206.747 139.128 206.483 139.32 206.152C139.517 205.816 139.616 205.437 139.616 205.016C139.616 204.595 139.517 204.219 139.32 203.888C139.128 203.552 138.867 203.288 138.536 203.096C138.211 202.899 137.851 202.8 137.456 202.8H135.08V207.232ZM145.199 213.208C144.463 213.208 143.791 213.019 143.183 212.64C142.58 212.261 142.097 211.755 141.735 211.12C141.377 210.48 141.199 209.773 141.199 209C141.199 208.413 141.303 207.867 141.511 207.36C141.719 206.848 142.004 206.4 142.367 206.016C142.735 205.627 143.161 205.323 143.647 205.104C144.132 204.885 144.649 204.776 145.199 204.776C145.935 204.776 146.604 204.965 147.207 205.344C147.815 205.723 148.297 206.232 148.655 206.872C149.017 207.512 149.199 208.221 149.199 209C149.199 209.581 149.095 210.125 148.887 210.632C148.679 211.139 148.391 211.587 148.023 211.976C147.66 212.36 147.236 212.661 146.751 212.88C146.271 213.099 145.753 213.208 145.199 213.208ZM145.199 212.088C145.743 212.088 146.231 211.947 146.663 211.664C147.1 211.376 147.444 210.997 147.695 210.528C147.951 210.059 148.079 209.549 148.079 209C148.079 208.44 147.951 207.925 147.695 207.456C147.439 206.981 147.092 206.603 146.655 206.32C146.223 206.037 145.737 205.896 145.199 205.896C144.655 205.896 144.164 206.04 143.727 206.328C143.295 206.611 142.951 206.987 142.695 207.456C142.444 207.925 142.319 208.44 142.319 209C142.319 209.576 142.449 210.099 142.711 210.568C142.972 211.032 143.321 211.403 143.759 211.68C144.196 211.952 144.676 212.088 145.199 212.088ZM150.554 213V205H151.674V206.104C151.956 205.699 152.324 205.376 152.778 205.136C153.231 204.896 153.724 204.776 154.258 204.776C154.567 204.776 154.866 204.816 155.154 204.896L154.698 206.008C154.474 205.939 154.255 205.904 154.042 205.904C153.61 205.904 153.212 206.011 152.85 206.224C152.492 206.437 152.207 206.723 151.994 207.08C151.78 207.437 151.674 207.835 151.674 208.272V213H150.554ZM160.361 206.12H158.449L158.441 213H157.321L157.329 206.12H155.881V205H157.329L157.321 202.488H158.441L158.449 205H160.361V206.12ZM161.468 209.936V205H162.588V209.712C162.588 210.149 162.695 210.547 162.908 210.904C163.121 211.261 163.407 211.547 163.764 211.76C164.127 211.973 164.524 212.08 164.956 212.08C165.393 212.08 165.788 211.973 166.14 211.76C166.497 211.547 166.783 211.261 166.996 210.904C167.209 210.547 167.316 210.149 167.316 209.712V205H168.436L168.444 213H167.324L167.316 211.88C167.033 212.285 166.665 212.608 166.212 212.848C165.764 213.088 165.273 213.208 164.74 213.208C164.137 213.208 163.588 213.061 163.092 212.768C162.596 212.475 162.201 212.08 161.908 211.584C161.615 211.088 161.468 210.539 161.468 209.936ZM176.336 205H177.456V213.296C177.456 213.808 177.344 214.288 177.12 214.736C176.901 215.184 176.602 215.576 176.224 215.912C175.85 216.253 175.424 216.52 174.944 216.712C174.464 216.904 173.965 217 173.448 217C172.893 217 172.357 216.872 171.84 216.616C171.322 216.365 170.872 216.029 170.488 215.608C170.109 215.187 169.84 214.72 169.68 214.208L170.712 213.736C170.813 214.136 171.002 214.496 171.28 214.816C171.562 215.141 171.893 215.397 172.272 215.584C172.656 215.776 173.048 215.872 173.448 215.872C173.816 215.872 174.17 215.803 174.512 215.664C174.858 215.531 175.168 215.347 175.44 215.112C175.717 214.877 175.936 214.603 176.096 214.288C176.256 213.979 176.336 213.648 176.336 213.296V211.528C176.058 212.029 175.682 212.435 175.208 212.744C174.738 213.053 174.192 213.208 173.568 213.208C173.008 213.208 172.48 213.099 171.984 212.88C171.493 212.661 171.061 212.36 170.688 211.976C170.314 211.587 170.021 211.139 169.808 210.632C169.6 210.125 169.496 209.581 169.496 209C169.496 208.419 169.6 207.875 169.808 207.368C170.021 206.856 170.314 206.408 170.688 206.024C171.061 205.635 171.493 205.331 171.984 205.112C172.48 204.893 173.008 204.784 173.568 204.784C174.192 204.784 174.738 204.939 175.208 205.248C175.682 205.552 176.058 205.957 176.336 206.464V205ZM173.576 212.12C174.13 212.12 174.608 211.976 175.008 211.688C175.413 211.4 175.725 211.019 175.944 210.544C176.162 210.069 176.272 209.555 176.272 209C176.272 208.429 176.16 207.909 175.936 207.44C175.717 206.965 175.405 206.587 175 206.304C174.594 206.016 174.12 205.872 173.576 205.872C173.032 205.872 172.536 206.013 172.088 206.296C171.645 206.573 171.293 206.949 171.032 207.424C170.77 207.899 170.64 208.424 170.64 209C170.64 209.576 170.773 210.101 171.04 210.576C171.306 211.045 171.661 211.421 172.104 211.704C172.552 211.981 173.042 212.12 173.576 212.12ZM178.953 209.936V205H180.073V209.712C180.073 210.149 180.179 210.547 180.393 210.904C180.606 211.261 180.891 211.547 181.249 211.76C181.611 211.973 182.009 212.08 182.441 212.08C182.878 212.08 183.273 211.973 183.625 211.76C183.982 211.547 184.267 211.261 184.481 210.904C184.694 210.547 184.801 210.149 184.801 209.712V205H185.921L185.929 213H184.809L184.801 211.88C184.518 212.285 184.15 212.608 183.697 212.848C183.249 213.088 182.758 213.208 182.225 213.208C181.622 213.208 181.073 213.061 180.577 212.768C180.081 212.475 179.686 212.08 179.393 211.584C179.099 211.088 178.953 210.539 178.953 209.936ZM190.98 213.208C190.244 213.208 189.572 213.019 188.964 212.64C188.361 212.261 187.879 211.755 187.516 211.12C187.159 210.48 186.98 209.773 186.98 209C186.98 208.413 187.084 207.867 187.292 207.36C187.5 206.848 187.785 206.4 188.148 206.016C188.516 205.627 188.943 205.323 189.428 205.104C189.913 204.885 190.431 204.776 190.98 204.776C191.572 204.776 192.116 204.893 192.612 205.128C193.113 205.363 193.543 205.691 193.9 206.112C194.263 206.533 194.535 207.027 194.716 207.592C194.903 208.157 194.98 208.768 194.948 209.424H188.164C188.228 209.931 188.388 210.384 188.644 210.784C188.905 211.184 189.236 211.501 189.636 211.736C190.041 211.965 190.489 212.083 190.98 212.088C191.513 212.088 191.993 211.949 192.42 211.672C192.852 211.395 193.199 211.013 193.46 210.528L194.596 210.792C194.276 211.501 193.793 212.083 193.148 212.536C192.503 212.984 191.78 213.208 190.98 213.208ZM188.132 208.52H193.82C193.783 208.024 193.631 207.571 193.364 207.16C193.103 206.744 192.764 206.413 192.348 206.168C191.932 205.917 191.476 205.792 190.98 205.792C190.484 205.792 190.031 205.915 189.62 206.16C189.209 206.4 188.873 206.728 188.612 207.144C188.351 207.555 188.191 208.013 188.132 208.52ZM198.807 213.152C198.37 213.141 197.943 213.061 197.527 212.912C197.111 212.763 196.748 212.56 196.439 212.304C196.13 212.048 195.908 211.757 195.775 211.432L196.743 211.016C196.828 211.224 196.986 211.416 197.215 211.592C197.45 211.763 197.716 211.901 198.015 212.008C198.314 212.109 198.61 212.16 198.903 212.16C199.228 212.16 199.532 212.107 199.815 212C200.098 211.893 200.327 211.741 200.503 211.544C200.684 211.341 200.775 211.104 200.775 210.832C200.775 210.539 200.679 210.309 200.487 210.144C200.295 209.973 200.052 209.84 199.759 209.744C199.466 209.643 199.164 209.547 198.855 209.456C198.29 209.301 197.791 209.131 197.359 208.944C196.927 208.757 196.588 208.52 196.343 208.232C196.103 207.939 195.983 207.563 195.983 207.104C195.983 206.619 196.119 206.2 196.391 205.848C196.668 205.491 197.028 205.216 197.471 205.024C197.919 204.827 198.396 204.728 198.903 204.728C199.554 204.728 200.146 204.869 200.679 205.152C201.218 205.435 201.607 205.811 201.847 206.28L200.943 206.816C200.847 206.597 200.695 206.408 200.487 206.248C200.279 206.088 200.042 205.963 199.775 205.872C199.514 205.781 199.247 205.733 198.975 205.728C198.634 205.723 198.316 205.773 198.023 205.88C197.73 205.981 197.492 206.133 197.311 206.336C197.135 206.539 197.047 206.787 197.047 207.08C197.047 207.373 197.135 207.597 197.311 207.752C197.487 207.901 197.724 208.024 198.023 208.12C198.327 208.211 198.668 208.317 199.047 208.44C199.532 208.595 199.988 208.771 200.415 208.968C200.842 209.165 201.186 209.411 201.447 209.704C201.708 209.997 201.836 210.368 201.831 210.816C201.831 211.296 201.687 211.715 201.399 212.072C201.111 212.429 200.738 212.704 200.279 212.896C199.82 213.083 199.33 213.168 198.807 213.152ZM206.668 213.208C205.932 213.208 205.26 213.019 204.652 212.64C204.049 212.261 203.566 211.755 203.204 211.12C202.846 210.48 202.668 209.773 202.668 209C202.668 208.413 202.772 207.867 202.98 207.36C203.188 206.848 203.473 206.4 203.836 206.016C204.204 205.627 204.63 205.323 205.116 205.104C205.601 204.885 206.118 204.776 206.668 204.776C207.26 204.776 207.804 204.893 208.3 205.128C208.801 205.363 209.23 205.691 209.588 206.112C209.95 206.533 210.222 207.027 210.404 207.592C210.59 208.157 210.668 208.768 210.635 209.424H203.852C203.916 209.931 204.076 210.384 204.332 210.784C204.593 211.184 204.924 211.501 205.324 211.736C205.729 211.965 206.177 212.083 206.668 212.088C207.201 212.088 207.681 211.949 208.108 211.672C208.54 211.395 208.886 211.013 209.148 210.528L210.284 210.792C209.964 211.501 209.481 212.083 208.836 212.536C208.19 212.984 207.468 213.208 206.668 213.208ZM203.82 208.52H209.508C209.47 208.024 209.318 207.571 209.052 207.16C208.79 206.744 208.452 206.413 208.036 206.168C207.62 205.917 207.164 205.792 206.668 205.792C206.172 205.792 205.718 205.915 205.308 206.16C204.897 206.4 204.561 206.728 204.299 207.144C204.038 207.555 203.878 208.013 203.82 208.52Z" fill="#0C1021"/>
</g>
<defs>
<clipPath id="clip0_1960_7343">
<rect width="290" height="225" fill="white"/>
</clipPath>
<clipPath id="clip1_1960_7343">
<rect width="19" height="19" fill="white" transform="translate(12 61)"/>
</clipPath>
<clipPath id="clip2_1960_7343">
<rect width="19" height="19" fill="white" transform="translate(22 152)"/>
</clipPath>
<clipPath id="clip3_1960_7343">
<rect width="19" height="19" fill="white" transform="translate(195 61)"/>
</clipPath>
<clipPath id="clip4_1960_7343">
<rect width="19" height="19" fill="white" transform="translate(185 145)"/>
</clipPath>
<clipPath id="clip5_1960_7343">
<rect width="19" height="19" fill="white" transform="translate(122 8)"/>
</clipPath>
<clipPath id="clip6_1960_7343">
<rect width="19" height="19" fill="white" transform="translate(106 198)"/>
</clipPath>
</defs>
</svg>
