<svg preserveAspectRatio="none" width="100%" height="100%" overflow="visible" style="display: block;" viewBox="0 0 50 50" fill="none" xmlns="http://www.w3.org/2000/svg">
<g id="United Kingdom">
<path id="Vector" d="M50 25C50 38.8031 38.8135 49.9938 25.0115 50H24.7417C23.5298 49.9874 22.3204 49.8875 21.1229 49.7011C20.1423 49.5495 19.1718 49.3387 18.2167 49.0698C12.9727 47.59 8.35543 44.4381 5.0672 40.0933C1.77898 35.7486 -0.000293574 30.4488 3.63322e-08 25C3.63322e-08 11.1948 11.1896 9.97364e-06 25 9.97364e-06H25.0115C28.4126 -0.00303262 31.7784 0.690095 34.9016 2.03672C38.0248 3.38335 40.8393 5.35497 43.1719 7.83022C47.559 12.4703 50.0024 18.6143 50 25Z" fill="var(--fill-0, white)"/>
<path id="Vector_2" d="M18.6908 17.5646V18.6896H15.0564L4.8481 10.201C5.47909 9.34267 6.16453 8.52572 6.90018 7.75518L18.6908 17.5646Z" fill="var(--fill-0, #C8102E)"/>
<path id="Vector_3" d="M45.1845 10.2469L35.0355 18.6844H31.3095V17.6406L43.1408 7.79791L43.172 7.8302C43.8539 8.5491 44.4919 9.30847 45.0824 10.1042L45.1845 10.2469Z" fill="var(--fill-0, #C8102E)"/>
<path id="Vector_4" d="M18.6905 31.3084V32.4334L6.8999 42.2448C6.79574 42.1407 6.69157 42.0282 6.59365 41.9188C5.97342 41.2449 5.39094 40.5372 4.84886 39.799L15.0572 31.3084H18.6905Z" fill="var(--fill-0, #C8102E)"/>
<path id="Vector_5" d="M45.1856 39.7521C44.5571 40.6111 43.8745 41.4291 43.1418 42.2011L31.3095 32.3573V31.3084H35.0355L45.1856 39.7521Z" fill="var(--fill-0, #C8102E)"/>
<g id="Group">
<path id="Vector_6" d="M9.98426 18.6895H0.803009C1.3246 16.6893 2.09447 14.7621 3.09468 12.9531L9.98426 18.6895Z" fill="var(--fill-0, #012169)"/>
<path id="Vector_7" d="M9.77697 31.3083L3.02072 36.927C2.05522 35.1515 1.31046 33.2646 0.803009 31.3083H9.77697Z" fill="var(--fill-0, #012169)"/>
<path id="Vector_8" d="M18.6904 36.5916V49.1958C18.5321 49.1552 18.3779 49.1124 18.2165 49.0677C14.9407 48.1452 11.8886 46.5612 9.24875 44.4135L18.6904 36.5916Z" fill="var(--fill-0, #012169)"/>
<path id="Vector_9" d="M18.6906 0.803078V13.2093L9.38951 5.47183C12.1266 3.27814 15.2961 1.68718 18.6906 0.803078Z" fill="var(--fill-0, #012169)"/>
<path id="Vector_10" d="M40.7529 5.5885L31.3091 13.4166V0.804127L31.4519 0.840585C34.853 1.74788 38.0231 3.36611 40.7529 5.5885Z" fill="var(--fill-0, #012169)"/>
<path id="Vector_11" d="M49.1969 18.6895H40.2386L46.9792 13.0812C47.9438 14.8535 48.6885 16.7368 49.1969 18.6895Z" fill="var(--fill-0, #012169)"/>
<path id="Vector_12" d="M40.8332 44.3521C38.0477 46.6359 34.8002 48.2888 31.3145 49.1968V36.4333L40.8332 44.3521Z" fill="var(--fill-0, #012169)"/>
<path id="Vector_13" d="M49.1969 31.3083C48.7003 33.2173 47.9782 35.0605 47.0458 36.7989L40.4469 31.3083H49.1969Z" fill="var(--fill-0, #012169)"/>
</g>
<path id="Vector_14" d="M50 24.7385V25.2375C49.9892 26.4032 49.8977 27.5667 49.726 28.7198H28.7198V49.725C27.574 49.8959 26.4178 49.9878 25.2594 50H24.7385C23.5797 49.9881 22.4231 49.8958 21.2771 49.724V28.7198H0.275C0.104065 27.5726 0.0121819 26.415 0 25.2552C0 25.0917 0 24.9271 0 24.7625C0.0107763 23.5965 0.102315 22.4326 0.273958 21.2792H21.2802V0.275C22.371 0.111921 23.4712 0.0200597 24.574 0L25.3802 0C26.4326 0.0150458 27.4829 0.0964575 28.525 0.24375L28.7198 0.272917V21.2792H49.725C49.8959 22.4246 49.9878 23.5805 50 24.7385Z" fill="var(--fill-0, #C8102E)"/>
</g>
</svg>
