<svg preserveAspectRatio="none" width="100%" height="100%" overflow="visible" style="display: block;" viewBox="0 0 32 32" fill="none" xmlns="http://www.w3.org/2000/svg">
<g id="Layer_1" clip-path="url(#clip0_0_4)">
<path id="Vector" d="M0 16C0 22.8794 4.342 28.7441 10.4347 31.0047L11.8261 15.9999L10.4347 0.995188C4.342 3.25594 0 9.12056 0 16Z" fill="var(--fill-0, #6DA544)"/>
<path id="Vector_2" d="M32 16C32 7.1635 24.8365 0 16 0C14.0429 0 12.1681 0.352063 10.4347 0.995188V31.0048C12.1681 31.648 14.0429 32 16 32C24.8365 32 32 24.8365 32 16Z" fill="var(--fill-0, #D80027)"/>
<path id="Vector_3" d="M10.4348 21.5652C13.5084 21.5652 16 19.0736 16 16C16 12.9264 13.5084 10.4348 10.4348 10.4348C7.36124 10.4348 4.86963 12.9264 4.86963 16C4.86963 19.0736 7.36124 21.5652 10.4348 21.5652Z" fill="var(--fill-0, #FFDA44)"/>
<path id="Vector_4" d="M7.30438 13.2174V16.6956C7.30438 18.4245 8.70588 19.8261 10.4348 19.8261C12.1638 19.8261 13.5653 18.4246 13.5653 16.6956V13.2174H7.30438Z" fill="var(--fill-0, #D80027)"/>
<path id="Vector_5" d="M10.4348 17.7391C9.85944 17.7391 9.39131 17.271 9.39131 16.6956V15.3044H11.4782V16.6957C11.4782 17.271 11.0101 17.7391 10.4348 17.7391Z" fill="var(--fill-0, #F0F0F0)"/>
</g>
<defs>
<clipPath id="clip0_0_4">
<rect width="32" height="32" fill="white"/>
</clipPath>
</defs>
</svg>
