<svg preserveAspectRatio="none" width="100%" height="100%" overflow="visible" style="display: block;" viewBox="0 0 26.0001 26" fill="none" xmlns="http://www.w3.org/2000/svg">
<g id="Group">
<path id="Vector" d="M17.7782 25.0925V0.907566C22.5956 2.80606 26.0001 7.50568 26.0001 13C26.0001 18.4944 22.5956 23.194 17.7782 25.0925Z" fill="var(--fill-0, #F30040)"/>
<path id="Vector_2" d="M8.22189 25.0925C3.40453 23.194 0 18.4944 0 13C0 7.50568 3.40453 2.80606 8.22189 0.907566V25.0925Z" fill="var(--fill-0, #14439E)"/>
<path id="Vector_3" d="M12.9999 26C11.3124 26 9.69841 25.6811 8.2218 25.0925V0.907547C9.69841 0.318868 11.3124 0 12.9999 0C14.6875 0 16.3014 0.318868 17.778 0.907547V25.0925C16.3014 25.6811 14.6875 26 12.9999 26Z" fill="var(--fill-0, white)"/>
</g>
</svg>
