<svg preserveAspectRatio="none" width="100%" height="100%" overflow="visible" style="display: block;" viewBox="0 0 25 25" fill="none" xmlns="http://www.w3.org/2000/svg">
<g id="China">
<path id="Vector" d="M12.5 25C19.4036 25 25 19.4036 25 12.5C25 5.59644 19.4036 0 12.5 0C5.59644 0 0 5.59644 0 12.5C0 19.4036 5.59644 25 12.5 25Z" fill="var(--fill-0, #EE1C25)"/>
<g id="Group">
<path id="Vector_2" d="M19.1759 14.4734L17.9484 14.4534L17.5492 13.2934L17.1509 14.4534L15.9234 14.4742L16.9042 15.2109L16.5451 16.3834L17.5501 15.6792L18.5551 16.3834L18.1951 15.2109L19.1759 14.4734Z" fill="var(--fill-0, #FFFF00)"/>
<path id="Vector_3" d="M14.6741 8.93919L14.6941 7.71169L15.8541 7.31252L14.6941 6.91336L14.6733 5.68586L13.9366 6.66669L12.7633 6.30836L13.4683 7.31336L12.7633 8.31836L13.9366 7.95752L14.6741 8.93919Z" fill="var(--fill-0, #FFFF00)"/>
<path id="Vector_4" d="M14.6741 19.3142L14.6941 18.0867L15.8541 17.6875L14.6941 17.2884L14.6733 16.0609L13.9366 17.0417L12.7633 16.6834L13.4683 17.6884L12.7633 18.6934L13.9366 18.3325L14.6741 19.3142Z" fill="var(--fill-0, #FFFF00)"/>
<path id="Vector_5" d="M18.0442 10.4475L18.5825 9.34501L17.48 9.88334L16.5975 9.03001L16.77 10.2442L15.6867 10.82L16.8959 11.0325L17.1084 12.2417L17.6825 11.1575L18.8975 11.3292L18.0442 10.4475Z" fill="var(--fill-0, #FFFF00)"/>
<path id="Vector_6" d="M11.2592 11.0117L7.95006 10.9567L6.87422 7.83L5.79922 10.9575L2.49089 11.0133L5.13506 13.0008L4.16672 16.1633L6.87589 14.2642L9.58589 16.1617L8.61589 13L11.2592 11.0117Z" fill="var(--fill-0, #FFFF00)"/>
</g>
</g>
</svg>
