<svg preserveAspectRatio="none" width="100%" height="100%" overflow="visible" style="display: block;" viewBox="0 0 24 24" fill="none" xmlns="http://www.w3.org/2000/svg">
<g id="mage:stars-c-fill">
<path id="Vector" d="M21.738 16.13C21.7431 16.3486 21.6763 16.5629 21.548 16.74C21.4213 16.9205 21.2385 17.0541 21.028 17.12L19.318 17.69C18.7913 17.8649 18.3121 18.1592 17.918 18.55C17.5243 18.9418 17.2295 19.4217 17.058 19.95L16.458 21.65C16.3955 21.8541 16.2693 22.0328 16.098 22.16C15.9151 22.2842 15.6991 22.3504 15.478 22.35C15.2561 22.3595 15.0374 22.2948 14.8564 22.1663C14.6753 22.0377 14.5422 21.8526 14.478 21.64L13.908 19.93C13.7365 19.4017 13.4417 18.9218 13.048 18.53C12.6506 18.1411 12.1727 17.8441 11.648 17.66L9.938 17.1C9.73556 17.029 9.55829 16.9004 9.428 16.73C9.2967 16.5494 9.22346 16.3332 9.218 16.11C9.20852 15.8881 9.27315 15.6694 9.4017 15.4884C9.53026 15.3073 9.71542 15.1742 9.928 15.11L11.648 14.54C12.1814 14.3676 12.6663 14.071 13.0627 13.6747C13.459 13.2783 13.7556 12.7934 13.928 12.26L14.498 10.57C14.5563 10.3621 14.6803 10.1786 14.8516 10.047C15.0228 9.9154 15.2321 9.84278 15.448 9.84C15.663 9.84 15.874 9.899 16.058 10.01C16.24 10.135 16.38 10.313 16.458 10.52L17.038 12.26C17.2104 12.7934 17.507 13.2783 17.9033 13.6747C18.2997 14.071 18.7846 14.3676 19.318 14.54L21.018 15.14C21.2248 15.2078 21.4039 15.3412 21.528 15.52C21.6635 15.6946 21.7373 15.909 21.738 16.13ZM11.739 9.77C11.7375 9.96603 11.6784 10.1573 11.569 10.32C11.4508 10.481 11.2871 10.6029 11.099 10.67L9.839 11.09C9.486 11.212 9.166 11.41 8.899 11.67C8.638 11.9362 8.43983 12.2573 8.319 12.61L7.889 13.85C7.82803 14.0413 7.70483 14.2068 7.539 14.32C7.3746 14.4348 7.17949 14.4975 6.979 14.5C6.77402 14.4966 6.57503 14.4303 6.409 14.31C6.25172 14.1904 6.13341 14.0268 6.069 13.84L5.659 12.59C5.53869 12.24 5.34036 11.922 5.079 11.66C4.82289 11.3913 4.50297 11.1918 4.149 11.08L2.899 10.66C2.70504 10.5989 2.53643 10.476 2.419 10.31C2.3394 10.1853 2.28845 10.0446 2.26982 9.89783C2.25118 9.75109 2.26533 9.60205 2.31124 9.46145C2.35715 9.32084 2.43369 9.19217 2.53532 9.08471C2.63696 8.97725 2.76117 8.89367 2.899 8.84L4.149 8.43C4.5027 8.3065 4.82397 8.10478 5.08888 7.83988C5.35378 7.57497 5.5555 7.2537 5.679 6.9L6.089 5.67C6.14794 5.48567 6.2591 5.3224 6.409 5.2C6.56829 5.07998 6.75982 5.01033 6.959 5C7.16079 4.99458 7.3595 5.05036 7.529 5.16C7.69581 5.27261 7.82477 5.43293 7.899 5.62L8.319 6.9C8.4425 7.2537 8.64422 7.57497 8.90912 7.83988C9.17403 8.10478 9.4953 8.3065 9.849 8.43L11.099 8.86C11.286 8.92422 11.4473 9.04694 11.559 9.21C11.6774 9.3726 11.7405 9.56888 11.739 9.77ZM17.528 4.41C17.5189 4.59233 17.4602 4.7687 17.358 4.92C17.2539 5.0626 17.1066 5.16782 16.938 5.22L16.318 5.43C16.1976 5.47156 16.0882 5.53998 15.9981 5.63007C15.908 5.72016 15.8396 5.82956 15.798 5.95L15.578 6.58C15.5176 6.73341 15.4175 6.868 15.288 6.97C15.1406 7.0881 14.9569 7.15169 14.768 7.15C14.5951 7.13927 14.4272 7.08788 14.278 7C14.1285 6.88986 14.0167 6.73617 13.958 6.56L13.748 5.94C13.7119 5.81704 13.6427 5.70635 13.548 5.62C13.4598 5.52749 13.3498 5.4587 13.228 5.42L12.608 5.22C12.443 5.15567 12.2981 5.0487 12.188 4.91C12.0843 4.76013 12.0285 4.58228 12.028 4.4C12.0338 4.21708 12.0929 4.03983 12.198 3.89C12.3057 3.75114 12.4517 3.64685 12.618 3.59L13.228 3.39C13.3512 3.34798 13.4638 3.27974 13.558 3.19C13.6477 3.09575 13.716 2.98317 13.758 2.86L13.968 2.24C14.028 2.085 14.123 1.948 14.248 1.84C14.3915 1.73411 14.5606 1.66851 14.738 1.65C14.9267 1.64892 15.1114 1.70467 15.268 1.81C15.409 1.91605 15.5194 2.0575 15.588 2.22L15.798 2.86C15.84 2.98317 15.9083 3.09575 15.998 3.19C16.091 3.27637 16.1996 3.34425 16.318 3.39L16.948 3.6C17.1082 3.66304 17.2494 3.76637 17.358 3.9C17.4671 4.04779 17.5266 4.22632 17.528 4.41Z" fill="var(--fill-0, #9D42FF)"/>
</g>
</svg>
