<svg preserveAspectRatio="none" width="100%" height="100%" overflow="visible" style="display: block;" viewBox="0 0 24 24" fill="none" xmlns="http://www.w3.org/2000/svg">
<g id="streamline-plump:input-box-remix">
<path id="Vector" fill-rule="evenodd" clip-rule="evenodd" d="M11.01 3.938C11.567 3.904 11.978 3.505 11.994 2.947C12.0023 2.64906 12.0023 2.35094 11.994 2.053C11.978 1.495 11.567 1.096 11.0095 1.062C10.48 1.029 9.678 1 8.5 1C7.322 1 6.52 1.029 5.99 1.062C5.433 1.096 5.022 1.495 5.006 2.053C4.99767 2.35094 4.99767 2.64906 5.006 2.947C5.022 3.505 5.433 3.904 5.9905 3.938L7.0905 3.9835C7.0905 3.9835 7 7.887 7 12C7 16.113 7.09 20.0165 7.09 20.0165L5.99 20.0615C5.433 20.0965 5.022 20.495 5.006 21.053C4.99767 21.3509 4.99767 21.6491 5.006 21.947C5.022 22.505 5.433 22.9035 5.9905 22.938C6.52 22.971 7.323 23 8.5 23C9.677 23 10.48 22.971 11.01 22.938C11.567 22.9035 11.978 22.505 11.994 21.947C12.0023 21.6491 12.0023 21.3509 11.994 21.053C11.978 20.495 11.567 20.0965 11.0095 20.062L9.9095 20.0165C9.9095 20.0165 10 16.113 10 12C10 7.887 9.91 3.9835 9.91 3.9835L11.01 3.938ZM12.487 8.1145C12.3557 8.1143 12.2257 8.08824 12.1044 8.03781C11.9832 7.98737 11.8731 7.91354 11.7803 7.82055C11.6876 7.72755 11.6141 7.6172 11.564 7.4958C11.514 7.3744 11.4883 7.24432 11.4885 7.113C11.4887 6.98168 11.5148 6.85168 11.5652 6.73043C11.6156 6.60918 11.6895 6.49905 11.7825 6.40633C11.8755 6.31361 11.9858 6.24012 12.1072 6.19005C12.2286 6.13997 12.3587 6.1143 12.49 6.1145C16.472 6.1205 19.138 6.1985 20.6755 6.263C22.064 6.321 23.3495 7.264 23.556 8.7855C23.663 9.5725 23.75 10.634 23.75 12.0005C23.75 13.367 23.663 14.428 23.556 15.215C23.3495 16.737 22.064 17.6795 20.676 17.7375C19.138 17.8025 16.472 17.8805 12.49 17.886C12.3587 17.8862 12.2286 17.8605 12.1072 17.8105C11.9858 17.7604 11.8755 17.6869 11.7825 17.5942C11.6895 17.5014 11.6156 17.3913 11.5652 17.2701C11.5148 17.1488 11.4887 17.0188 11.4885 16.8875C11.4883 16.7562 11.514 16.6261 11.564 16.5047C11.6141 16.3833 11.6876 16.273 11.7803 16.18C11.8731 16.087 11.9832 16.0131 12.1044 15.9627C12.2257 15.9123 12.3557 15.8862 12.487 15.886C16.4445 15.8805 19.083 15.803 20.592 15.7395C21.162 15.7155 21.517 15.3665 21.574 14.9465C21.668 14.253 21.75 13.2815 21.75 12C21.75 10.7185 21.668 9.7475 21.574 9.054C21.517 8.634 21.1615 8.285 20.5915 8.261C19.083 8.1975 16.4445 8.1205 12.487 8.1145ZM4.639 6.214C4.77029 6.20986 4.90111 6.23163 5.02399 6.27805C5.14686 6.32447 5.2594 6.39464 5.35516 6.48455C5.45092 6.57446 5.52803 6.68235 5.58209 6.80206C5.63616 6.92177 5.66611 7.05096 5.67025 7.18225C5.67439 7.31354 5.65262 7.44436 5.6062 7.56724C5.55978 7.69011 5.48961 7.80265 5.3997 7.89841C5.30979 7.99417 5.2019 8.07128 5.08219 8.12534C4.96248 8.17941 4.83329 8.20936 4.702 8.2135C4.20467 8.22917 3.77417 8.24483 3.4105 8.2605C2.839 8.2845 2.4825 8.6345 2.4255 9.054C2.3325 9.7475 2.25 10.7195 2.25 12C2.25 13.2815 2.332 14.253 2.426 14.946C2.4825 15.3655 2.839 15.716 3.4105 15.7395C3.77383 15.7548 4.20433 15.7705 4.702 15.7865C4.8335 15.7903 4.96296 15.82 5.08296 15.8739C5.20296 15.9278 5.31115 16.0048 5.40133 16.1006C5.49151 16.1964 5.5619 16.309 5.60847 16.4321C5.65504 16.5551 5.67688 16.6861 5.67274 16.8176C5.6686 16.9491 5.63855 17.0784 5.58432 17.1983C5.53009 17.3182 5.45275 17.4261 5.35672 17.5161C5.26069 17.606 5.14787 17.676 5.02471 17.7223C4.90155 17.7685 4.77048 17.79 4.639 17.7855C4.13467 17.7695 3.69717 17.7537 3.3265 17.738C1.9395 17.6795 0.6505 16.738 0.444 15.215C0.3375 14.428 0.25 13.3665 0.25 12C0.25 10.6335 0.3375 9.5725 0.444 8.7855C0.6505 7.2625 1.9395 6.3205 3.3265 6.2625C3.69717 6.24717 4.13467 6.23133 4.639 6.215" fill="var(--fill-0, #4268FF)"/>
</g>
</svg>
