<svg preserveAspectRatio="none" width="100%" height="100%" overflow="visible" style="display: block;" viewBox="0 0 16 16" fill="none" xmlns="http://www.w3.org/2000/svg">
<g id="jam:linkedin">
<path id="Vector" d="M14.6393 9.146V14.0653H11.7873V9.47533C11.7873 8.322 11.3747 7.53533 10.3427 7.53533C9.55467 7.53533 9.08533 8.066 8.87933 8.57867C8.804 8.762 8.78467 9.01733 8.78467 9.274V14.0653H5.93133C5.93133 14.0653 5.97 6.292 5.93133 5.486H8.78467V6.702L8.766 6.73H8.78467V6.702C9.16333 6.11867 9.84 5.28467 11.3553 5.28467C13.232 5.28467 14.6393 6.51133 14.6393 9.146ZM2.94733 1.35067C1.972 1.35067 1.33333 1.99067 1.33333 2.83267C1.33333 3.656 1.95333 4.31533 2.91 4.31533H2.92867C3.924 4.31533 4.542 3.656 4.542 2.83267C4.52467 1.99067 3.924 1.35067 2.94733 1.35067ZM1.50267 14.0653H4.35467V5.486H1.50267V14.0653Z" fill="var(--fill-0, #4268FF)"/>
</g>
</svg>
