<svg preserveAspectRatio="none" width="100%" height="100%" overflow="visible" style="display: block;" viewBox="0 0 48 48" fill="none" xmlns="http://www.w3.org/2000/svg">
<g id="gridicons:quote">
<path id="Vector" d="M22.384 31.514C22.384 29.754 21.924 28.276 21.004 27.08C20.352 26.256 19.4673 25.7147 18.35 25.456C17.25 25.2 16.21 25.182 15.27 25.4C14.95 23.5 15.47 21.488 16.79 19.356C18.1127 17.2253 19.818 15.6233 21.906 14.55L18.744 10C17.144 10.792 15.624 11.796 14.224 13.01C12.804 14.224 11.544 15.62 10.424 17.198C9.304 18.776 8.464 20.558 7.924 22.578C7.384 24.598 7.234 26.658 7.492 28.778C7.828 31.578 8.732 33.818 10.204 35.478C11.6747 37.1593 13.5067 38 15.7 38C17.63 38 19.232 37.42 20.5 36.244C21.7547 35.092 22.3813 33.5133 22.38 31.508L22.384 31.514ZM40.632 31.514C40.632 29.754 40.172 28.276 39.252 27.08C38.5987 26.24 37.714 25.6953 36.598 25.446C35.478 25.1993 34.4513 25.1847 33.518 25.402C33.198 23.522 33.698 21.502 35.022 19.362C36.342 17.242 38.046 15.642 40.134 14.562L36.98 10C35.3787 10.792 33.872 11.7953 32.46 13.01C31.0272 14.2421 29.7546 15.6491 28.672 17.198C27.56 18.778 26.732 20.558 26.192 22.578C25.6435 24.5964 25.496 26.7028 25.758 28.778C26.09 31.578 26.99 33.818 28.458 35.478C29.9247 37.1473 31.7533 37.982 33.944 37.982C35.8773 37.9847 37.4787 37.4 38.748 36.228C40.0027 35.076 40.6307 33.4973 40.632 31.492V31.514Z" fill="var(--fill-0, #4268FF)"/>
</g>
</svg>
