<svg preserveAspectRatio="none" width="100%" height="100%" overflow="visible" style="display: block;" viewBox="0 0 48 48" fill="none" xmlns="http://www.w3.org/2000/svg">
<g id="mdi:circular-arrows">
<path id="Vector" d="M24 12V18L32 10L24 2V8C19.7565 8 15.6869 9.68571 12.6863 12.6863C9.68571 15.6869 8 19.7565 8 24C8 27.14 8.92 30.06 10.48 32.52L13.4 29.6C12.4769 27.878 11.9959 25.9538 12 24C12 20.8174 13.2643 17.7652 15.5147 15.5147C17.7652 13.2643 20.8174 12 24 12ZM37.52 15.48L34.6 18.4C35.48 20.08 36 22 36 24C36 27.1826 34.7357 30.2348 32.4853 32.4853C30.2348 34.7357 27.1826 36 24 36V30L16 38L24 46V40C28.2435 40 32.3131 38.3143 35.3137 35.3137C38.3143 32.3131 40 28.2435 40 24C40 20.86 39.08 17.94 37.52 15.48Z" fill="var(--fill-0, white)"/>
</g>
</svg>
