<svg preserveAspectRatio="none" width="100%" height="100%" overflow="visible" style="display: block;" viewBox="0 0 44 44" fill="none" xmlns="http://www.w3.org/2000/svg">
<g id="Group">
<path id="Vector" d="M24.829 35.172L35.172 24.829M19.172 24.829L8.829 35.172M24.829 19.172L35.172 8.829M8.829 19.172L19.172 8.829" stroke="var(--stroke-0, white)" stroke-width="4" stroke-linecap="round" stroke-linejoin="round"/>
<path id="Vector_2" d="M10 6C10 7.06087 9.57857 8.07828 8.82843 8.82843C8.07828 9.57857 7.06087 10 6 10C4.93913 10 3.92172 9.57857 3.17157 8.82843C2.42143 8.07828 2 7.06087 2 6C2 4.93913 2.42143 3.92172 3.17157 3.17157C3.92172 2.42143 4.93913 2 6 2C7.06087 2 8.07828 2.42143 8.82843 3.17157C9.57857 3.92172 10 4.93913 10 6ZM26 6C26 7.06087 25.5786 8.07828 24.8284 8.82843C24.0783 9.57857 23.0609 10 22 10C20.9391 10 19.9217 9.57857 19.1716 8.82843C18.4214 8.07828 18 7.06087 18 6C18 4.93913 18.4214 3.92172 19.1716 3.17157C19.9217 2.42143 20.9391 2 22 2C23.0609 2 24.0783 2.42143 24.8284 3.17157C25.5786 3.92172 26 4.93913 26 6ZM42 6C42 7.06087 41.5786 8.07828 40.8284 8.82843C40.0783 9.57857 39.0609 10 38 10C36.9391 10 35.9217 9.57857 35.1716 8.82843C34.4214 8.07828 34 7.06087 34 6C34 4.93913 34.4214 3.92172 35.1716 3.17157C35.9217 2.42143 36.9391 2 38 2C39.0609 2 40.0783 2.42143 40.8284 3.17157C41.5786 3.92172 42 4.93913 42 6ZM42 22C42 23.0609 41.5786 24.0783 40.8284 24.8284C40.0783 25.5786 39.0609 26 38 26C36.9391 26 35.9217 25.5786 35.1716 24.8284C34.4214 24.0783 34 23.0609 34 22C34 20.9391 34.4214 19.9217 35.1716 19.1716C35.9217 18.4214 36.9391 18 38 18C39.0609 18 40.0783 18.4214 40.8284 19.1716C41.5786 19.9217 42 20.9391 42 22ZM42 38C42 39.0609 41.5786 40.0783 40.8284 40.8284C40.0783 41.5786 39.0609 42 38 42C36.9391 42 35.9217 41.5786 35.1716 40.8284C34.4214 40.0783 34 39.0609 34 38C34 36.9391 34.4214 35.9217 35.1716 35.1716C35.9217 34.4214 36.9391 34 38 34C39.0609 34 40.0783 34.4214 40.8284 35.1716C41.5786 35.9217 42 36.9391 42 38ZM26 38C26 39.0609 25.5786 40.0783 24.8284 40.8284C24.0783 41.5786 23.0609 42 22 42C20.9391 42 19.9217 41.5786 19.1716 40.8284C18.4214 40.0783 18 39.0609 18 38C18 36.9391 18.4214 35.9217 19.1716 35.1716C19.9217 34.4214 20.9391 34 22 34C23.0609 34 24.0783 34.4214 24.8284 35.1716C25.5786 35.9217 26 36.9391 26 38ZM10 38C10 39.0609 9.57857 40.0783 8.82843 40.8284C8.07828 41.5786 7.06087 42 6 42C4.93913 42 3.92172 41.5786 3.17157 40.8284C2.42143 40.0783 2 39.0609 2 38C2 36.9391 2.42143 35.9217 3.17157 35.1716C3.92172 34.4214 4.93913 34 6 34C7.06087 34 8.07828 34.4214 8.82843 35.1716C9.57857 35.9217 10 36.9391 10 38ZM10 22C10 23.0609 9.57857 24.0783 8.82843 24.8284C8.07828 25.5786 7.06087 26 6 26C4.93913 26 3.92172 25.5786 3.17157 24.8284C2.42143 24.0783 2 23.0609 2 22C2 20.9391 2.42143 19.9217 3.17157 19.1716C3.92172 18.4214 4.93913 18 6 18C7.06087 18 8.07828 18.4214 8.82843 19.1716C9.57857 19.9217 10 20.9391 10 22ZM26 22C26 23.0609 25.5786 24.0783 24.8284 24.8284C24.0783 25.5786 23.0609 26 22 26C20.9391 26 19.9217 25.5786 19.1716 24.8284C18.4214 24.0783 18 23.0609 18 22C18 20.9391 18.4214 19.9217 19.1716 19.1716C19.9217 18.4214 20.9391 18 22 18C23.0609 18 24.0783 18.4214 24.8284 19.1716C25.5786 19.9217 26 20.9391 26 22Z" fill="var(--fill-0, white)" stroke="var(--stroke-0, white)" stroke-width="4" stroke-linecap="round" stroke-linejoin="round"/>
</g>
</svg>
