<svg preserveAspectRatio="none" width="100%" height="100%" overflow="visible" style="display: block;" viewBox="0 0 44 44" fill="none" xmlns="http://www.w3.org/2000/svg">
<g id="Mask group">
<mask id="mask0_0_9" style="mask-type:luminance" maskUnits="userSpaceOnUse" x="0" y="0" width="44" height="44">
<g id="Group">
<g id="Group_2">
<path id="Vector" d="M22 42C24.6269 42.0033 27.2286 41.4874 29.6555 40.4821C32.0825 39.4768 34.2868 38.0019 36.142 36.142C38.0019 34.2868 39.4768 32.0825 40.4821 29.6555C41.4874 27.2286 42.0033 24.6269 42 22C42.0033 19.3731 41.4874 16.7714 40.4821 14.3445C39.4768 11.9176 38.0019 9.71319 36.142 7.85802C34.2868 5.99818 32.0825 4.52323 29.6555 3.51793C27.2286 2.51263 24.6269 1.99678 22 2.00002C19.3731 1.99678 16.7714 2.51263 14.3445 3.51793C11.9176 4.52323 9.71319 5.99818 7.85802 7.85802C5.99818 9.71319 4.52323 11.9176 3.51793 14.3445C2.51263 16.7714 1.99678 19.3731 2.00002 22C1.99678 24.6269 2.51263 27.2286 3.51793 29.6555C4.52323 32.0825 5.99818 34.2868 7.85802 36.142C9.71319 38.0019 11.9176 39.4768 14.3445 40.4821C16.7714 41.4874 19.3731 42.0033 22 42Z" fill="var(--fill-0, white)" stroke="var(--stroke-0, white)" stroke-width="4" stroke-linejoin="round"/>
<path id="Vector_2" d="M14 22L20 28L32 16" stroke="var(--stroke-0, black)" stroke-width="4" stroke-linecap="round" stroke-linejoin="round"/>
</g>
</g>
</mask>
<g mask="url(#mask0_0_9)">
<path id="Vector_3" d="M-1.99998 -1.99998H46V46H-1.99998V-1.99998Z" fill="var(--fill-0, white)"/>
</g>
</g>
</svg>
