<svg width="48" height="48" viewBox="0 0 48 48" fill="none" xmlns="http://www.w3.org/2000/svg">
<path d="M25.404 4.39L39.404 9.64C40.1666 9.92586 40.8238 10.4377 41.2877 11.1071C41.7516 11.7765 42.0001 12.5716 42 13.386V24.112C42.0001 27.4548 41.0693 30.7317 39.3119 33.5753C37.5545 36.4189 35.0399 38.717 32.05 40.212L25.342 43.564C24.9253 43.7724 24.4659 43.8809 24 43.8809C23.5341 43.8809 23.0747 43.7724 22.658 43.564L15.95 40.21C12.9601 38.715 10.4455 36.4169 8.68814 33.5733C6.93074 30.7297 5.99993 27.4528 6 24.11V13.388C5.99949 12.5732 6.24781 11.7777 6.71174 11.1079C7.17566 10.4381 7.83307 9.92598 8.596 9.64L22.596 4.39C23.5012 4.05067 24.4988 4.05067 25.404 4.39ZM24 16C23.5101 16.0001 23.0373 16.1799 22.6713 16.5054C22.3052 16.8309 22.0713 17.2795 22.014 17.766L22 18V22H18C17.4902 22.0006 16.9999 22.1958 16.6293 22.5457C16.2586 22.8956 16.0355 23.3739 16.0057 23.8828C15.9758 24.3917 16.1413 24.8928 16.4685 25.2837C16.7957 25.6746 17.2598 25.9258 17.766 25.986L18 26H22V30C22.0006 30.5098 22.1958 31.0001 22.5457 31.3707C22.8956 31.7414 23.3739 31.9645 23.8828 31.9943C24.3917 32.0242 24.8928 31.8586 25.2837 31.5315C25.6746 31.2043 25.9258 30.7402 25.986 30.234L26 30V26H30C30.5098 25.9994 31.0001 25.8042 31.3707 25.4543C31.7414 25.1044 31.9645 24.6261 31.9943 24.1172C32.0242 23.6083 31.8587 23.1072 31.5315 22.7163C31.2043 22.3254 30.7402 22.0742 30.234 22.014L30 22H26V18C26 17.4696 25.7893 16.9609 25.4142 16.5858C25.0391 16.2107 24.5304 16 24 16Z" fill="white"/>
</svg>
