<svg width="80" height="80" viewBox="0 0 80 80" fill="none" xmlns="http://www.w3.org/2000/svg">
<rect width="80" height="80" rx="40" fill="#4268FF"/>
<path d="M51.0001 40.27C51.0051 40.09 51.0051 39.91 51.0001 39.73L52.8651 37.4C52.9628 37.2777 53.0305 37.1341 53.0627 36.9808C53.0948 36.8275 53.0905 36.6688 53.0501 36.5175C52.7438 35.3684 52.2865 34.2651 51.6901 33.2362C51.6119 33.1016 51.5034 32.9871 51.3732 32.9019C51.243 32.8166 51.0947 32.7629 50.9401 32.745L47.9751 32.415C47.8517 32.285 47.7267 32.16 47.6001 32.04L47.2501 29.0675C47.2321 28.9128 47.1782 28.7644 47.0926 28.6342C47.0071 28.5039 46.8924 28.3955 46.7576 28.3175C45.7288 27.7216 44.6254 27.2651 43.4763 26.96C43.325 26.9196 43.1663 26.9153 43.013 26.9474C42.8597 26.9795 42.7161 27.0472 42.5938 27.145L40.2701 29H39.7301L37.4001 27.1387C37.2777 27.041 37.1341 26.9733 36.9808 26.9411C36.8276 26.909 36.6689 26.9133 36.5176 26.9537C35.3685 27.26 34.2651 27.7173 33.2363 28.3137C33.1017 28.3919 32.9872 28.5004 32.9019 28.6306C32.8166 28.7608 32.7629 28.9091 32.7451 29.0637L32.4151 32.0337C32.2851 32.1579 32.1601 32.2829 32.0401 32.4087L29.0676 32.75C28.9128 32.768 28.7644 32.8219 28.6342 32.9074C28.504 32.9929 28.3956 33.1077 28.3176 33.2425C27.7217 34.2714 27.2648 35.3748 26.9588 36.5237C26.9186 36.6752 26.9144 36.8339 26.9468 36.9872C26.9791 37.1405 27.0471 37.284 27.1451 37.4062L29.0001 39.73V40.27L27.1388 42.6C27.041 42.7223 26.9733 42.8659 26.9412 43.0192C26.9091 43.1725 26.9134 43.3312 26.9538 43.4825C27.2601 44.6316 27.7174 45.7349 28.3138 46.7637C28.392 46.8983 28.5005 47.0128 28.6307 47.0981C28.7609 47.1834 28.9092 47.2371 29.0638 47.255L32.0288 47.585C32.153 47.715 32.278 47.84 32.4038 47.96L32.7501 50.9325C32.7681 51.0872 32.822 51.2356 32.9075 51.3658C32.993 51.496 33.1077 51.6045 33.2426 51.6825C34.2715 52.2783 35.3749 52.7352 36.5238 53.0412C36.6752 53.0815 36.834 53.0856 36.9872 53.0533C37.1405 53.0209 37.2841 52.953 37.4063 52.855L39.7301 51C39.9101 51.005 40.0901 51.005 40.2701 51L42.6001 52.865C42.7224 52.9628 42.866 53.0305 43.0193 53.0626C43.1726 53.0947 43.3312 53.0904 43.4826 53.05C44.6318 52.7443 45.7353 52.2869 46.7638 51.69C46.8984 51.6118 47.0129 51.5033 47.0982 51.3731C47.1835 51.2429 47.2372 51.0946 47.2551 50.94L47.5851 47.975C47.7151 47.8517 47.8401 47.7267 47.9601 47.6L50.9326 47.25C51.0873 47.232 51.2357 47.1781 51.3659 47.0926C51.4961 47.0071 51.6045 46.8923 51.6826 46.7575C52.2784 45.7285 52.7353 44.6252 53.0413 43.4762C53.0816 43.3248 53.0857 43.1661 53.0533 43.0128C53.021 42.8595 52.9531 42.716 52.8551 42.5937L51.0001 40.27ZM40.0001 45C39.0112 45 38.0445 44.7068 37.2222 44.1573C36.4 43.6079 35.7591 42.827 35.3807 41.9134C35.0022 40.9998 34.9032 39.9944 35.0961 39.0245C35.2891 38.0546 35.7653 37.1637 36.4645 36.4645C37.1638 35.7652 38.0547 35.289 39.0246 35.0961C39.9945 34.9031 40.9998 35.0022 41.9135 35.3806C42.8271 35.759 43.608 36.3999 44.1574 37.2221C44.7068 38.0444 45.0001 39.0111 45.0001 40C45.0001 41.3261 44.4733 42.5978 43.5356 43.5355C42.5979 44.4732 41.3261 45 40.0001 45Z" fill="white"/>
</svg>
