<svg width="80" height="80" viewBox="0 0 80 80" fill="none" xmlns="http://www.w3.org/2000/svg">
<rect width="80" height="80" rx="40" fill="#4268FF"/>
<g clip-path="url(#clip0_2079_37776)">
<path d="M29.8625 31.1625C29.5688 31.2312 29.7562 31.2188 29.5125 31.25C28.4688 31.475 29.2438 31.675 29.8625 31.1625ZM48.2188 31.5813C48.2938 31.5312 48.5562 31.275 47.7375 31.025C47.7875 31.2812 47.5688 31.2562 47.5688 31.4C48.175 31.95 48.425 32.9062 49.2 33.1062C49.35 32.4187 48.5125 32.0813 48.2188 31.5813ZM29.3063 30.9625C29.4 31.5188 29.8187 30.375 29.825 29.9688C29.6625 30.0625 29.5 30.1562 29.3313 30.2312C29.725 30.4312 29.3813 30.6438 28.9563 30.9625C28.0938 32.0375 29.7625 30.125 29.3063 30.9625ZM40 24C31.1625 24 24 31.1625 24 40C24 48.8312 31.1625 56 40 56C48.8375 56 56 48.8312 56 40C56 31.1625 48.8375 24 40 24ZM40.425 29.3625L40.5 29.3875C40.2 29.775 42.0625 30.9062 40.725 31C39.475 31.3562 41.25 30.675 40.2812 30.7937C40.7938 30.0812 39.875 30.0688 40.425 29.3625ZM32.8375 30.3875C32.3875 30.0125 30.975 30.9 31.4688 30.6875C32.6938 30.2063 31.55 30.7375 31.8375 31.3125C31.575 31.8562 31.75 30.775 31.1 31.4187C30.6312 31.525 29.4812 32.5875 29.625 32.2625C29.5875 32.7688 28.2562 33.3687 28.075 34.2125C27.6375 35.3812 27.9688 34.1687 27.8875 33.7125C27.2625 32.9187 26.125 35.0562 26.4625 35.9C27.0312 34.9 26.9875 35.7937 26.575 36.2375C26.9938 37.0063 26.1937 38.0062 26.9875 38.575C27.3375 38.6562 28.0375 37.4 27.7313 38.7063C27.9438 37.575 28.3188 38.975 28.925 38.6625C28.9625 39.2563 29.3312 38.9812 29.4125 39.7C30.425 39.625 31.35 41.3375 30.1438 41.6625C30.325 41.6125 30.6813 41.9312 31.0938 41.6875C31.7937 42.2437 33.6375 42.3125 33.6875 43.6875C32.4187 44.2938 33.375 45.9562 32.275 46.55C31.0125 46.3625 31.8438 48.1063 31.3125 47.9062C31.525 49.1625 30.0375 47.7437 30.6125 48.4375C31.6688 49.0875 30.15 48.9562 30.625 49.4312C30.0938 49.3188 30.9562 50.4188 31.1 50.825C31.8625 52.0625 30.4437 50.55 30.025 50.1375C29.625 49.3375 28.6812 47.8062 28.4187 46.55C28.2687 44.725 26.8563 43.5 26.5312 41.7188C26.2062 40.725 27.425 39.1312 26.7687 38.575C26.2 38.1312 26.4313 36.6125 26.0938 35.8125C26.9375 32.1562 29.6187 29.075 32.8375 27.25C32.5062 27.4938 34.7313 26.6187 34.475 26.8312C34.4062 26.9875 35.775 26.2375 36.6 26.125C36.5125 26.1375 34.4562 26.875 35.025 26.775C34.1437 27.2063 34.9375 26.9625 35.375 26.7438C34.5 27.3875 33.825 27.2063 32.8313 27.775C31.8313 28.0375 32.0375 29.075 31.325 29.5938C31.7437 29.6687 32.7937 28.5125 33.4062 28.1062C34.8125 27.425 32.6938 29.3438 34.0312 28.5188C33.5813 28.9375 33.675 29.6062 33.4 29.7937C33.2625 29.7562 33.9437 30.1187 32.8375 30.3875ZM35.025 27.5125C34.8812 27.7062 34.6812 28.125 34.5625 27.8688C34.4 27.95 34.3375 28.3 34.0312 28.0188C34.2125 27.8875 34.4 27.575 34.0437 27.7687C34.2063 27.5938 35.6562 27.1 35.575 26.9125C35.8313 26.75 35.8062 26.6688 35.5125 26.7687C35.3625 26.7188 35.8687 26.2938 36.5437 26.2375C36.6375 26.2375 36.675 26.3 36.5063 26.2812C35.4875 26.5938 35.925 26.5062 36.6125 26.2812C36.35 26.4313 36.1687 26.475 36.125 26.5438C36.8125 26.2938 36.0875 26.725 36.2437 26.6937C36.05 26.7937 36.275 26.825 35.9 26.9688C35.9688 26.9125 35.2875 27.375 35.6938 27.2375C35.3 27.6125 35.125 27.6188 35.025 27.5125ZM35.625 28.4062C35.6375 27.8063 36.5 27.425 36.3938 27.3937C37.4563 26.8937 36.025 27.4125 36.8625 26.9625C37.175 26.9313 37.8375 25.9312 38.7563 25.8687C39.7688 25.5625 39.3 25.8875 40.05 25.6L39.9 25.725C39.7687 25.7437 39.9313 25.975 39.4563 26.325C39.4062 26.8688 38.55 26.6188 38.975 27.2C38.7 26.8063 38.2875 27.1875 38.8062 27.225C38.25 27.65 36.9562 27.725 36.3375 28.4313C35.9375 29.0062 35.5688 28.825 35.625 28.4062ZM40.0688 30.4062C39.6438 31.4313 39.2312 30.2562 39.9812 30.0687C40.1688 30.1687 40.2437 30.2 40.0688 30.4062ZM38.4688 28.3562C38.3438 27.8937 38.4438 28.1375 39.1875 27.9188C39.7 28.2875 38.7312 28.5312 38.4688 28.3562ZM50.1063 46.7C49.5188 45.6875 50.8188 44.75 51.2563 43.9C51.2 44.8937 51.075 45.875 50.1063 46.7ZM52.3188 35.1313C51.6812 35.1813 51.1063 35.3313 50.5312 34.9688C49.2062 33.5188 50.775 36.6062 51.2125 35.3438C52.7875 35.9438 51.1875 38.5312 50.1938 38.2625C49.6375 37.0625 48.95 35.7437 47.7375 35.1562C48.6687 36.1875 49.1313 37.4563 50.1313 38.3875C50.2 39.6875 51.5187 37.9125 51.4375 38.9187C51.5625 40.65 49.4813 41.6875 49.8438 43.425C50.6187 45.0062 48.35 45.2937 48.6063 46.7125C47.6938 47.7312 46.7188 49.1063 45.0812 48.8875C45.0812 48.025 44.6438 47.2938 44.5438 46.4062C43.6562 45.2812 45.4813 44.075 44.35 42.9C43.0438 42.6062 44.6187 40.8062 43.275 40.975C42.4688 40.1688 41.2875 40.95 40.1313 40.9562C38.6813 41.0938 37.1875 39.175 37.8313 37.8188C37.3188 36.4062 39.4563 35.9937 39.5125 34.75C40.5375 33.8938 41.9937 34 43.3813 33.8C43.2812 34.7937 44.3312 34.8 45.125 35.1313C45.5688 34.0563 46.95 35.3062 47.8937 34.625C48.2188 33.0375 46.975 33.9938 46.2625 33.4875C45.4 32.225 48.1063 32.8375 47.825 32.175C46.775 32.1687 47.3687 30.8812 46.625 31.6C47.2938 31.7188 46.5063 32.2438 46.525 31.6438C45.5125 31.35 46.4875 32.7937 45.975 32.9312C45.1938 32.6062 45.5625 33.3 45.6437 33.4062C45.3062 34.1375 44.8937 32.3313 43.9375 32.3813C42.9875 31.5125 43.5625 32.775 44.3875 32.9812C44.2125 33.0312 44.4875 33.75 44.2687 33.4438C43.5875 32.5063 42.2937 31.8812 41.525 33.0312C41.4438 34.1062 39.2562 34.4125 39.6062 33.1562C39.0938 31.8562 41.1938 33.1188 41 32.0813C39.65 31.1875 41.3688 31.475 41.825 30.6375C42.8625 30.6687 41.8688 29.7875 42.3563 29.5312C42.3063 30.4875 43.15 30.3063 43.8188 30.125C43.6562 29.575 44.2188 29.5938 43.875 29.1375C45.425 28.5187 42.6938 29.425 43.2437 28.0687C42.575 27.6062 42.9625 29.0875 43.2437 29.2438C43.2625 29.7 42.875 30.2625 42.3438 29.3063C41.5688 29.8125 41.65 28.7938 41.6 28.9C41.5125 28.5062 42.1875 28.4875 42.1938 27.8C42.1375 27.3625 42.15 27.1313 42.4625 27.1063C42.4875 27.1688 43.7437 27.1875 44.1875 27.7062C42.975 27.4625 44.0062 27.9062 44.55 28.1562C43.9688 27.7 44.7812 28.1562 44.3062 27.6375C44.4937 27.675 43.7875 26.925 44.5125 27.5812C44.1188 27.1125 45.2812 27.25 44.5938 26.9C45.6 27.1813 45.0063 26.925 44.4125 26.6688C42.775 25.6938 47.3062 27.9875 45.4562 26.9688C46.6375 27.225 42.9312 26.0562 44.6187 26.5687C43.975 26.2875 44.6 26.4437 45.1812 26.625C44.1375 26.3 42.575 25.6938 42.6375 25.6688C43 25.6938 43.3563 25.775 43.7 25.875C44.7688 26.1937 43.3937 25.8 43.6875 25.8062C47.3625 26.75 50.5813 29.2125 52.5375 32.4312C52.9937 32.9125 54.2375 36.0938 53.5875 34.6812C53.8813 35.8062 53.925 37.0188 54.0812 38.1687C53.7562 37.8062 53.3937 36.4688 53.0812 35.725C52.95 36.0125 52.8 35.3188 52.3188 35.1313Z" fill="white"/>
</g>
<defs>
<clipPath id="clip0_2079_37776">
<rect width="32" height="32" fill="white" transform="translate(24 24)"/>
</clipPath>
</defs>
</svg>
