<svg width="80" height="80" viewBox="0 0 80 80" fill="none" xmlns="http://www.w3.org/2000/svg">
<rect width="80" height="80" rx="40" fill="#4268FF"/>
<path d="M37.905 44.3451L37.8981 44.3291C37.7602 44.2965 37.623 44.2607 37.4867 44.2217L37.4764 44.2183C36.1728 43.8435 34.9688 43.1834 33.9519 42.2857C32.8334 41.2991 31.9734 40.0539 31.4466 38.6586C30.9199 37.2633 30.7424 35.7604 30.9298 34.2808C31.1171 32.8012 31.6636 31.3899 32.5215 30.17C33.3794 28.9501 34.5227 27.9585 35.8518 27.2818C37.1808 26.6051 38.6552 26.2638 40.1464 26.2877C41.6376 26.3115 43.1003 26.6998 44.407 27.4186C45.7138 28.1375 46.8248 29.1651 47.6433 30.4118C48.4617 31.6586 48.9628 33.0866 49.1027 34.5714C49.1473 35.0434 48.7599 35.4286 48.2856 35.4286C47.8124 35.4286 47.4341 35.0434 47.3793 34.5726C47.2282 33.2735 46.7368 32.0373 45.9548 30.989C45.1728 29.9407 44.1279 29.1174 42.9257 28.6024C41.7236 28.0873 40.4067 27.8988 39.1083 28.0559C37.81 28.213 36.576 28.71 35.5313 29.4968C34.4866 30.2837 33.6682 31.3323 33.1587 32.5369C32.6492 33.7414 32.4668 35.0591 32.6298 36.3568C32.7929 37.6544 33.2956 38.886 34.0872 39.9271C34.8788 40.9681 35.9313 41.7818 37.1381 42.2857L37.1839 42.3051C37.4124 42.3988 37.6471 42.4815 37.8879 42.5531C38.0901 42.0643 38.4557 41.6608 38.9222 41.4114C39.3887 41.162 39.9273 41.0822 40.4461 41.1854C40.9649 41.2887 41.4319 41.5687 41.7673 41.9778C42.1027 42.3868 42.2859 42.8996 42.2856 43.4286C42.2861 43.9539 42.1056 44.4633 41.7746 44.8712C41.4436 45.279 40.9821 45.5604 40.468 45.668C39.9538 45.7756 39.4183 45.7028 38.9515 45.4619C38.4847 45.2209 38.1151 44.8266 37.905 44.3451ZM36.7781 45.7988C34.7479 45.1674 32.9477 43.9538 31.601 42.3086C30.7664 42.4063 29.9967 42.8072 29.4382 43.435C28.8797 44.0629 28.5712 44.8739 28.5713 45.7143V46.5314C28.5713 50.7806 33.3827 53.7143 39.9999 53.7143C46.617 53.7143 51.4284 50.6194 51.4284 46.5314V45.7143C51.4284 44.805 51.0672 43.9329 50.4242 43.2899C49.7812 42.6469 48.9092 42.2857 47.9999 42.2857H43.8341C44.1037 43.1886 44.0459 44.1577 43.6709 45.0221C43.2958 45.8865 42.6277 46.5908 41.7842 47.0108C40.9407 47.4308 39.976 47.5395 39.0601 47.3178C38.1443 47.096 37.3362 46.5581 36.7781 45.7988ZM45.7141 35.4286C45.7141 33.7006 44.9484 32.152 43.7359 31.104C43.1275 30.5791 42.4152 30.1885 41.6456 29.9576C40.876 29.7267 40.0664 29.6606 39.2695 29.7638C38.4727 29.867 37.7065 30.1371 37.0211 30.5564C36.3357 30.9757 35.7465 31.5349 35.2918 32.1974C34.8372 32.8599 34.5273 33.6108 34.3826 34.4012C34.2378 35.1915 34.2613 36.0035 34.4516 36.7842C34.6419 37.5648 34.9947 38.2965 35.487 38.9316C35.9792 39.5667 36.5999 40.0908 37.3084 40.4697C38.0448 39.7998 39.0044 39.4286 39.9999 39.4286C40.9957 39.4283 41.9558 39.7996 42.6924 40.4697C43.6055 39.9819 44.3689 39.2553 44.9011 38.3674C45.4333 37.4795 45.7143 36.4637 45.7141 35.4286Z" fill="white"/>
</svg>
