<svg width="80" height="80" viewBox="0 0 80 80" fill="none" xmlns="http://www.w3.org/2000/svg">
<rect width="80" height="80" rx="40" fill="#4268FF"/>
<path d="M40.0002 26.6667C37.9668 26.6667 36.0168 27.4744 34.579 28.9122C33.1412 30.35 32.3335 32.3 32.3335 34.3333V38.3333C32.3306 40.2819 33.0697 42.1585 34.4007 43.5817C35.7317 45.0048 37.5547 45.8678 39.4991 45.9951C41.4436 46.1225 43.3635 45.5046 44.8688 44.2672C46.374 43.0298 47.3516 41.2656 47.6028 39.3333H41.3335C41.0683 39.3333 40.8139 39.228 40.6264 39.0404C40.4389 38.8529 40.3335 38.5985 40.3335 38.3333C40.3335 38.0681 40.4389 37.8138 40.6264 37.6262C40.8139 37.4387 41.0683 37.3333 41.3335 37.3333H47.6668V35.3333H41.3335C41.0683 35.3333 40.8139 35.228 40.6264 35.0404C40.4389 34.8529 40.3335 34.5985 40.3335 34.3333C40.3335 34.0681 40.4389 33.8138 40.6264 33.6262C40.8139 33.4387 41.0683 33.3333 41.3335 33.3333H47.6015C47.3589 31.4891 46.454 29.7959 45.0555 28.5694C43.657 27.3429 41.8603 26.6666 40.0002 26.6667Z" fill="white"/>
<path fill-rule="evenodd" clip-rule="evenodd" d="M29.3335 36C29.5987 36 29.8531 36.1054 30.0406 36.2929C30.2281 36.4804 30.3335 36.7348 30.3335 37V38.3333C30.3335 39.6028 30.5835 40.8598 31.0693 42.0326C31.5551 43.2054 32.2672 44.2711 33.1648 45.1687C34.0624 46.0663 35.1281 46.7784 36.3009 47.2642C37.4737 47.75 38.7307 48 40.0002 48C41.2696 48 42.5266 47.75 43.6994 47.2642C44.8723 46.7784 45.9379 46.0663 46.8355 45.1687C47.7332 44.2711 48.4452 43.2054 48.931 42.0326C49.4168 40.8598 49.6668 39.6028 49.6668 38.3333V37C49.6668 36.7348 49.7722 36.4804 49.9597 36.2929C50.1473 36.1054 50.4016 36 50.6668 36C50.932 36 51.1864 36.1054 51.3739 36.2929C51.5615 36.4804 51.6668 36.7348 51.6668 37V38.3333C51.6669 41.2545 50.5711 44.0693 48.5961 46.2216C46.6211 48.3739 43.9105 49.707 41.0002 49.9573V53C41.0002 53.2652 40.8948 53.5196 40.7073 53.7071C40.5197 53.8946 40.2654 54 40.0002 54C39.7349 54 39.4806 53.8946 39.2931 53.7071C39.1055 53.5196 39.0002 53.2652 39.0002 53V49.9573C36.0898 49.707 33.3792 48.3739 31.4042 46.2216C29.4292 44.0693 28.3334 41.2545 28.3335 38.3333V37C28.3335 36.7348 28.4389 36.4804 28.6264 36.2929C28.8139 36.1054 29.0683 36 29.3335 36Z" fill="white"/>
</svg>
