<svg width="80" height="80" viewBox="0 0 80 80" fill="none" xmlns="http://www.w3.org/2000/svg">
<rect width="80" height="80" rx="40" fill="#4268FF"/>
<g clip-path="url(#clip0_2079_37761)">
<path d="M47.5601 36.4587C47.4113 36.3741 47.2472 36.3196 47.0773 36.2983C46.9074 36.277 46.735 36.2894 46.5699 36.3348C46.4048 36.3802 46.2502 36.4577 46.1151 36.5628C45.9799 36.6679 45.8668 36.7986 45.7821 36.9474C45.6974 37.0962 45.6429 37.2603 45.6217 37.4302C45.6004 37.6001 45.6128 37.7725 45.6582 37.9376C45.7036 38.1027 45.781 38.2572 45.8861 38.3924C45.9912 38.5276 46.1219 38.6407 46.2708 38.7254C47.0254 39.1414 47.1948 39.4921 47.1948 39.5841C47.1948 41.3414 45.2548 41.6534 40.6081 41.7441C36.7014 41.8227 31.8081 41.9134 31.8081 46.2107C31.7948 46.9254 31.9841 47.6294 32.3548 48.2414C32.5894 48.6281 33.0081 48.8641 33.4614 48.8654C33.7001 48.8622 33.9336 48.795 34.1374 48.6707C34.4324 48.4926 34.6446 48.2047 34.7276 47.8702C34.8106 47.5358 34.7575 47.1821 34.5801 46.8867C34.4578 46.6827 34.3988 46.447 34.4108 46.2094C34.4108 45.1294 35.4401 44.6867 37.6401 44.4921C37.6813 44.4863 37.7232 44.4891 37.7633 44.5001C37.8035 44.5111 37.8409 44.5301 37.8734 44.5561C37.9378 44.6189 37.9792 44.7015 37.9908 44.7907L38.0828 45.9627C38.0836 46.008 38.0944 46.0525 38.1145 46.0931C38.1345 46.1336 38.1633 46.1693 38.1988 46.1974C38.2748 46.2507 38.3681 46.2734 38.4601 46.2627C38.973 46.1801 39.4894 46.1409 40.0094 46.1454H41.6494C41.7261 46.137 41.7977 46.1027 41.8522 46.0482C41.9068 45.9936 41.9411 45.9221 41.9494 45.8454L42.0401 44.6614C42.0459 44.5804 42.0806 44.5043 42.1379 44.4468C42.1952 44.3893 42.2712 44.3542 42.3521 44.3481C46.0108 44.2054 49.7988 43.6067 49.7988 39.6361C49.7655 38.9485 49.5371 38.2845 49.1405 37.7219C48.7438 37.1593 48.1965 36.7211 47.5601 36.4587ZM40.0734 55.5441C40.1765 55.5434 40.276 55.5066 40.3547 55.4401C40.4334 55.3736 40.4863 55.2816 40.5041 55.1801L41.3108 50.9881C41.3108 50.8134 41.4481 50.6681 41.6228 50.6627C43.9668 50.5454 46.2574 50.1027 47.4294 48.5667C47.5448 48.4328 47.6317 48.2767 47.6847 48.1081C47.7378 47.9395 47.756 47.7618 47.7381 47.586C47.7203 47.4101 47.6668 47.2397 47.5809 47.0852C47.495 46.9307 47.3785 46.7953 47.2386 46.6873C47.0986 46.5793 46.9382 46.5009 46.7669 46.457C46.5957 46.413 46.4173 46.4044 46.2427 46.4317C46.068 46.459 45.9008 46.5215 45.7511 46.6156C45.6014 46.7096 45.4725 46.8332 45.3721 46.9787C44.7988 47.7201 42.9894 48.0987 40.0094 48.0987C39.2637 48.0351 38.5131 48.1387 37.8126 48.4021C37.112 48.6656 36.4791 49.0821 35.9601 49.6214C35.6023 50.0713 35.3527 50.5976 35.2309 51.1594C35.1091 51.7213 35.1181 52.3036 35.2574 52.8614C35.3774 53.4841 35.9268 53.9281 36.5588 53.9174H36.7934C36.9621 53.8862 37.123 53.8219 37.2667 53.7283C37.4105 53.6347 37.5343 53.5136 37.6311 53.372C37.7278 53.2303 37.7957 53.071 37.8306 52.903C37.8656 52.7351 37.867 52.5619 37.8348 52.3934C37.7774 52.2118 37.7605 52.0198 37.7851 51.8309C37.8098 51.6421 37.8754 51.4609 37.9774 51.3001C38.0489 51.2131 38.138 51.1422 38.2388 51.0921C38.288 51.063 38.3442 51.0476 38.4014 51.0476C38.4587 51.0476 38.5148 51.063 38.5641 51.0921C38.615 51.1208 38.6574 51.1624 38.6871 51.2127C38.7168 51.2631 38.7328 51.3203 38.7334 51.3787L39.4614 55.2841C39.4789 55.3823 39.5302 55.4712 39.6064 55.5355C39.6827 55.5999 39.779 55.6354 39.8788 55.6361L40.0734 55.5441ZM32.8481 40.0907C32.6268 39.4147 33.3814 38.8801 34.0721 38.5414C34.3556 38.3752 34.5658 38.1079 34.6603 37.7931C34.7548 37.4783 34.7268 37.1395 34.5818 36.8445C34.4367 36.5496 34.1855 36.3205 33.8785 36.2032C33.5715 36.0858 33.2315 36.089 32.9268 36.2121C29.5934 37.8254 30.1401 40.2214 30.3881 40.9241C30.4753 41.1802 30.64 41.4029 30.8592 41.5615C31.0784 41.7201 31.3415 41.8067 31.6121 41.8094C31.7517 41.8298 31.8903 41.8298 32.0281 41.8094C32.1985 41.7558 32.356 41.6676 32.4909 41.5505C32.6258 41.4333 32.7351 41.2897 32.812 41.1284C32.8889 40.9672 32.9318 40.7919 32.938 40.6133C32.9442 40.4348 32.9136 40.2569 32.8481 40.0907ZM34.9574 34.7147C35.0294 34.738 35.1068 34.738 35.1788 34.7147C35.2291 34.6468 35.2567 34.5646 35.2574 34.4801C34.8001 28.2054 34.8001 27.7627 34.8001 27.5414C34.8008 27.1636 34.8487 26.7873 34.9428 26.4214C34.9618 26.3807 34.9717 26.3363 34.9717 26.2914C34.9717 26.2465 34.9618 26.2021 34.9428 26.1614C34.917 26.1216 34.8827 26.088 34.8423 26.0631C34.802 26.0382 34.7566 26.0226 34.7094 26.0174C32.5481 25.7841 30.2428 26.9947 28.2001 28.0361C27.2894 28.5521 26.3348 28.9867 25.3481 29.3374C25.1254 29.3863 24.9194 29.4927 24.7505 29.6459C24.5816 29.7991 24.4557 29.9938 24.3854 30.2107C24.3121 30.4334 24.3 30.6717 24.3504 30.9007C24.4009 31.1296 24.512 31.3408 24.6721 31.5121C26.3774 33.2827 30.2054 34.7921 34.3961 34.7921L34.9574 34.7147ZM55.6308 30.2107C55.5663 30.0017 55.4503 29.8122 55.2935 29.6596C55.1367 29.507 54.9442 29.3962 54.7334 29.3374C53.7468 28.9867 52.7921 28.5507 51.8814 28.0361C49.8774 26.9947 47.5721 25.7827 45.3721 26.0174C45.325 26.0226 45.2796 26.0382 45.2392 26.0631C45.1989 26.088 45.1646 26.1216 45.1388 26.1614C45.1197 26.2021 45.1099 26.2465 45.1099 26.2914C45.1099 26.3363 45.1197 26.3807 45.1388 26.4214C45.2321 26.7894 45.2797 27.1627 45.2814 27.5414C45.2814 27.7361 45.2814 28.1787 44.8254 34.4147C44.8223 34.4571 44.8277 34.4997 44.8412 34.54C44.8547 34.5803 44.8761 34.6175 44.9041 34.6494C44.9614 34.7134 45.0401 34.7561 45.1254 34.7667H45.6854C49.8774 34.7667 53.7041 33.2561 55.3574 31.4201C55.4998 31.2567 55.5993 31.0606 55.647 30.8492C55.6947 30.6379 55.6891 30.4194 55.6308 30.2107Z" fill="white"/>
<path d="M37.9519 39.9214C38.8188 39.8638 39.6871 39.8291 40.5559 39.8174H42.1052C42.1857 39.8174 42.2631 39.7864 42.3212 39.7307C42.3794 39.6751 42.4138 39.5991 42.4172 39.5187C42.9639 32.124 43.2505 28.1147 43.2505 27.62C43.2452 25.1134 40.5305 23.5534 38.3625 24.8107C37.8704 25.0961 37.4616 25.5056 37.1771 25.9983C36.8926 26.491 36.7423 27.0497 36.7412 27.6187C36.7412 27.8147 36.7412 28.388 37.5879 39.6747C37.6064 39.754 37.6542 39.8235 37.7216 39.8692C37.7891 39.9149 37.8713 39.9336 37.9519 39.9214Z" fill="white"/>
</g>
<defs>
<clipPath id="clip0_2079_37761">
<rect width="32" height="32" fill="white" transform="translate(24 24)"/>
</clipPath>
</defs>
</svg>
