<svg width="80" height="80" viewBox="0 0 80 80" fill="none" xmlns="http://www.w3.org/2000/svg">
<rect width="80" height="80" rx="40" fill="#4268FF"/>
<path d="M32.8267 38.3867C34.7558 42.1688 37.8312 45.2442 41.6133 47.1733L44.5467 44.24C44.7177 44.0686 44.9322 43.947 45.1671 43.8883C45.402 43.8296 45.6484 43.8359 45.88 43.9067C47.4246 44.4144 49.0407 44.671 50.6667 44.6667C51.0203 44.6667 51.3594 44.8071 51.6095 45.0572C51.8595 45.3072 52 45.6464 52 46V50.6667C52 51.0203 51.8595 51.3594 51.6095 51.6095C51.3594 51.8595 51.0203 52 50.6667 52C44.6551 52 38.8897 49.6119 34.6389 45.3611C30.3881 41.1103 28 35.3449 28 29.3333C28 28.9797 28.1405 28.6406 28.3905 28.3905C28.6406 28.1405 28.9797 28 29.3333 28H34C34.3536 28 34.6928 28.1405 34.9428 28.3905C35.1929 28.6406 35.3333 28.9797 35.3333 29.3333C35.3319 30.9503 35.5884 32.5572 36.0933 34.0933C36.1641 34.3249 36.1704 34.5714 36.1117 34.8063C36.053 35.0412 35.9314 35.2556 35.76 35.4267M52.9467 30.28L51.0533 28.3867L44 35.4533L40.9467 32.3867L39.0533 34.28L44 39.2133L52.9467 30.28Z" fill="white"/>
</svg>
