<svg width="488" height="495" viewBox="0 0 488 495" fill="none" xmlns="http://www.w3.org/2000/svg">
<g filter="url(#filter0_d_4002_101)">
<rect x="18.3857" y="14.7085" width="225" height="118" rx="22.0629" fill="white" shape-rendering="crispEdges"/>
<rect x="18.8454" y="15.1681" width="224.081" height="117.081" rx="21.6033" stroke="#0C1021" stroke-opacity="0.05" stroke-width="0.919289" shape-rendering="crispEdges"/>
<path d="M51.6017 62.0205C50.4657 62.0205 49.3977 61.7965 48.3977 61.3485C47.3977 60.8925 46.5177 60.2685 45.7577 59.4765C45.0057 58.6765 44.4137 57.7485 43.9817 56.6925C43.5577 55.6365 43.3457 54.5085 43.3457 53.3085C43.3457 52.1085 43.5577 50.9805 43.9817 49.9245C44.4137 48.8685 45.0057 47.9445 45.7577 47.1525C46.5177 46.3525 47.3977 45.7285 48.3977 45.2805C49.3977 44.8245 50.4657 44.5965 51.6017 44.5965C52.9617 44.5965 54.2137 44.9125 55.3577 45.5445C56.5017 46.1765 57.4497 47.0165 58.2017 48.0645L55.9817 49.2525C55.4617 48.5965 54.8177 48.0725 54.0497 47.6805C53.2817 47.2885 52.4657 47.0925 51.6017 47.0925C50.8017 47.0925 50.0537 47.2565 49.3577 47.5845C48.6617 47.9125 48.0497 48.3605 47.5217 48.9285C46.9937 49.4965 46.5817 50.1565 46.2857 50.9085C45.9897 51.6605 45.8417 52.4605 45.8417 53.3085C45.8417 54.1645 45.9897 54.9685 46.2857 55.7205C46.5817 56.4645 46.9937 57.1245 47.5217 57.7005C48.0577 58.2685 48.6737 58.7165 49.3697 59.0445C50.0657 59.3645 50.8097 59.5245 51.6017 59.5245C52.4817 59.5245 53.3017 59.3285 54.0617 58.9365C54.8297 58.5365 55.4697 58.0085 55.9817 57.3525L58.2017 58.5645C57.4497 59.6125 56.5017 60.4525 55.3577 61.0845C54.2137 61.7085 52.9617 62.0205 51.6017 62.0205ZM60.5601 61.7085V44.9085H66.7401C67.6521 44.9085 68.4721 45.1325 69.2001 45.5805C69.9281 46.0285 70.5041 46.6325 70.9281 47.3925C71.3601 48.1445 71.5761 48.9845 71.5761 49.9125C71.5761 50.6965 71.4281 51.4125 71.1321 52.0605C70.8441 52.7085 70.4361 53.2605 69.9081 53.7165C69.3881 54.1725 68.7921 54.5005 68.1201 54.7005L72.1761 61.7085H69.2841L65.3481 54.9285H63.0561V61.7085H60.5601ZM63.0561 52.4325H66.4761C66.9561 52.4325 67.3921 52.3125 67.7841 52.0725C68.1841 51.8325 68.5001 51.5125 68.7321 51.1125C68.9641 50.7125 69.0801 50.2605 69.0801 49.7565C69.0801 49.2525 68.9641 48.8005 68.7321 48.4005C68.5001 47.9925 68.1841 47.6725 67.7841 47.4405C67.3921 47.2005 66.9561 47.0805 66.4761 47.0805H63.0561V52.4325ZM74.7164 61.7085L77.9684 44.9085H79.9844L84.2924 56.2245L88.5764 44.9085H90.5924L93.8564 61.7085H91.3124L89.1404 50.4645L85.1204 61.0725H83.4404L79.4324 50.4645L77.2604 61.7085H74.7164ZM102.873 61.7085V44.9085H105.369V61.7085H102.873ZM119.407 54.1845V61.7085H116.911V54.7965C116.911 54.2605 116.779 53.7725 116.515 53.3325C116.259 52.8925 115.911 52.5445 115.471 52.2885C115.039 52.0245 114.551 51.8925 114.007 51.8925C113.479 51.8925 112.995 52.0245 112.555 52.2885C112.115 52.5445 111.763 52.8925 111.499 53.3325C111.235 53.7725 111.103 54.2605 111.103 54.7965V61.7085H108.607V49.7085H111.103V50.9805C111.519 50.4845 112.031 50.0925 112.639 49.8045C113.247 49.5165 113.903 49.3725 114.607 49.3725C115.495 49.3725 116.303 49.5885 117.031 50.0205C117.759 50.4525 118.335 51.0325 118.759 51.7605C119.191 52.4885 119.407 53.2965 119.407 54.1845ZM128.138 52.2045H125.618L125.606 61.7085H123.11L123.122 52.2045H121.214V49.7085H123.122L123.11 45.9405H125.606L125.618 49.7085H128.138V52.2045ZM135.285 62.0205C134.181 62.0205 133.173 61.7365 132.261 61.1685C131.357 60.6005 130.633 59.8405 130.089 58.8885C129.553 57.9285 129.285 56.8685 129.285 55.7085C129.285 54.8285 129.441 54.0085 129.753 53.2485C130.065 52.4805 130.493 51.8085 131.037 51.2325C131.589 50.6485 132.229 50.1925 132.957 49.8645C133.685 49.5365 134.461 49.3725 135.285 49.3725C136.205 49.3725 137.049 49.5645 137.817 49.9485C138.585 50.3245 139.241 50.8485 139.785 51.5205C140.329 52.1845 140.729 52.9525 140.985 53.8245C141.241 54.6885 141.317 55.6085 141.213 56.5845H131.961C132.065 57.1365 132.265 57.6365 132.561 58.0845C132.865 58.5245 133.249 58.8725 133.713 59.1285C134.185 59.3845 134.709 59.5165 135.285 59.5245C135.893 59.5245 136.445 59.3725 136.941 59.0685C137.445 58.7645 137.857 58.3445 138.177 57.8085L140.709 58.3965C140.229 59.4605 139.505 60.3325 138.537 61.0125C137.569 61.6845 136.485 62.0205 135.285 62.0205ZM131.877 54.6765H138.693C138.613 54.1005 138.409 53.5805 138.081 53.1165C137.761 52.6445 137.357 52.2725 136.869 52.0005C136.389 51.7205 135.861 51.5805 135.285 51.5805C134.717 51.5805 134.189 51.7165 133.701 51.9885C133.221 52.2605 132.821 52.6325 132.501 53.1045C132.189 53.5685 131.981 54.0925 131.877 54.6765ZM152.309 49.7085H154.805V62.0205C154.805 62.8445 154.629 63.6045 154.277 64.3005C153.933 64.9965 153.465 65.5965 152.873 66.1005C152.281 66.6125 151.601 67.0085 150.833 67.2885C150.073 67.5685 149.277 67.7085 148.445 67.7085C147.605 67.7085 146.797 67.5285 146.021 67.1685C145.245 66.8165 144.561 66.3365 143.969 65.7285C143.385 65.1205 142.949 64.4325 142.661 63.6645L144.953 62.6325C145.113 63.1285 145.369 63.5685 145.721 63.9525C146.081 64.3365 146.497 64.6405 146.969 64.8645C147.449 65.0885 147.941 65.2005 148.445 65.2005C148.941 65.2005 149.417 65.1205 149.873 64.9605C150.337 64.8085 150.749 64.5925 151.109 64.3125C151.477 64.0325 151.769 63.6965 151.985 63.3045C152.201 62.9125 152.309 62.4845 152.309 62.0205V59.9925C151.917 60.6005 151.413 61.0925 150.797 61.4685C150.181 61.8365 149.465 62.0205 148.649 62.0205C147.801 62.0205 147.001 61.8565 146.249 61.5285C145.497 61.2005 144.837 60.7485 144.269 60.1725C143.701 59.5885 143.257 58.9165 142.937 58.1565C142.617 57.3965 142.457 56.5805 142.457 55.7085C142.457 54.8365 142.617 54.0205 142.937 53.2605C143.257 52.4925 143.701 51.8205 144.269 51.2445C144.837 50.6605 145.497 50.2045 146.249 49.8765C147.001 49.5485 147.801 49.3845 148.649 49.3845C149.465 49.3845 150.181 49.5725 150.797 49.9485C151.413 50.3165 151.917 50.8085 152.309 51.4245V49.7085ZM148.673 59.6085C149.369 59.6085 149.977 59.4325 150.497 59.0805C151.017 58.7205 151.421 58.2445 151.709 57.6525C151.997 57.0605 152.141 56.4125 152.141 55.7085C152.141 54.9885 151.993 54.3365 151.697 53.7525C151.409 53.1605 151.005 52.6885 150.485 52.3365C149.965 51.9765 149.361 51.7965 148.673 51.7965C148.001 51.7965 147.385 51.9725 146.825 52.3245C146.273 52.6765 145.833 53.1485 145.505 53.7405C145.177 54.3325 145.013 54.9885 145.013 55.7085C145.013 56.4285 145.177 57.0845 145.505 57.6765C145.841 58.2685 146.285 58.7405 146.837 59.0925C147.397 59.4365 148.009 59.6085 148.673 59.6085ZM157.685 61.7085V49.7085H160.181V50.9805C160.597 50.4845 161.109 50.0925 161.717 49.8045C162.325 49.5165 162.981 49.3725 163.685 49.3725C164.133 49.3725 164.577 49.4325 165.017 49.5525L164.021 52.0725C163.709 51.9525 163.397 51.8925 163.085 51.8925C162.557 51.8925 162.073 52.0245 161.633 52.2885C161.193 52.5445 160.841 52.8925 160.577 53.3325C160.313 53.7725 160.181 54.2605 160.181 54.7965V61.7085H157.685ZM175.177 49.7085H177.673V61.7085H175.165L175.069 59.9685C174.717 60.5845 174.241 61.0805 173.641 61.4565C173.041 61.8325 172.333 62.0205 171.517 62.0205C170.637 62.0205 169.809 61.8565 169.033 61.5285C168.257 61.1925 167.573 60.7285 166.981 60.1365C166.397 59.5445 165.941 58.8645 165.613 58.0965C165.285 57.3205 165.121 56.4885 165.121 55.6005C165.121 54.7445 165.281 53.9405 165.601 53.1885C165.921 52.4285 166.365 51.7645 166.933 51.1965C167.501 50.6285 168.157 50.1845 168.901 49.8645C169.653 49.5365 170.457 49.3725 171.313 49.3725C172.185 49.3725 172.953 49.5725 173.617 49.9725C174.289 50.3645 174.845 50.8685 175.285 51.4845L175.177 49.7085ZM171.457 59.6085C172.161 59.6085 172.777 59.4365 173.305 59.0925C173.833 58.7405 174.241 58.2685 174.529 57.6765C174.825 57.0845 174.973 56.4285 174.973 55.7085C174.973 54.9805 174.825 54.3205 174.529 53.7285C174.233 53.1365 173.821 52.6685 173.293 52.3245C172.773 51.9725 172.161 51.7965 171.457 51.7965C170.761 51.7965 170.125 51.9725 169.549 52.3245C168.973 52.6765 168.517 53.1485 168.181 53.7405C167.845 54.3325 167.677 54.9885 167.677 55.7085C167.677 56.4365 167.849 57.0965 168.193 57.6885C168.545 58.2725 169.005 58.7405 169.573 59.0925C170.149 59.4365 170.777 59.6085 171.457 59.6085ZM186.404 52.2045H183.884L183.872 61.7085H181.376L181.388 52.2045H179.48V49.7085H181.388L181.376 45.9405H183.872L183.884 49.7085H186.404V52.2045ZM188.388 49.7085H190.884V61.7085H188.388V49.7085ZM189.66 47.9685C189.276 47.9685 188.956 47.8445 188.7 47.5965C188.444 47.3485 188.316 47.0365 188.316 46.6605C188.316 46.2925 188.444 45.9845 188.7 45.7365C188.956 45.4805 189.272 45.3525 189.648 45.3525C190.016 45.3525 190.328 45.4805 190.584 45.7365C190.84 45.9845 190.968 46.2925 190.968 46.6605C190.968 47.0365 190.84 47.3485 190.584 47.5965C190.336 47.8445 190.028 47.9685 189.66 47.9685ZM198.824 62.0205C197.72 62.0205 196.712 61.7365 195.8 61.1685C194.896 60.6005 194.172 59.8405 193.628 58.8885C193.092 57.9285 192.824 56.8685 192.824 55.7085C192.824 54.8285 192.98 54.0085 193.292 53.2485C193.604 52.4805 194.032 51.8085 194.576 51.2325C195.128 50.6485 195.768 50.1925 196.496 49.8645C197.224 49.5365 198 49.3725 198.824 49.3725C199.928 49.3725 200.932 49.6565 201.836 50.2245C202.748 50.7925 203.472 51.5565 204.008 52.5165C204.552 53.4765 204.824 54.5405 204.824 55.7085C204.824 56.5805 204.668 57.3965 204.356 58.1565C204.044 58.9165 203.612 59.5885 203.06 60.1725C202.516 60.7485 201.88 61.2005 201.152 61.5285C200.432 61.8565 199.656 62.0205 198.824 62.0205ZM198.824 59.5245C199.488 59.5245 200.084 59.3485 200.612 58.9965C201.14 58.6445 201.556 58.1805 201.86 57.6045C202.172 57.0205 202.328 56.3885 202.328 55.7085C202.328 55.0125 202.168 54.3725 201.848 53.7885C201.536 53.2045 201.116 52.7405 200.588 52.3965C200.06 52.0445 199.472 51.8685 198.824 51.8685C198.168 51.8685 197.572 52.0445 197.036 52.3965C196.508 52.7485 196.088 53.2165 195.776 53.8005C195.472 54.3845 195.32 55.0205 195.32 55.7085C195.32 56.4205 195.48 57.0645 195.8 57.6405C196.12 58.2165 196.544 58.6765 197.072 59.0205C197.608 59.3565 198.192 59.5245 198.824 59.5245ZM217.563 54.1845V61.7085H215.067V54.7965C215.067 54.2605 214.935 53.7725 214.671 53.3325C214.415 52.8925 214.067 52.5445 213.627 52.2885C213.195 52.0245 212.707 51.8925 212.163 51.8925C211.635 51.8925 211.151 52.0245 210.711 52.2885C210.271 52.5445 209.919 52.8925 209.655 53.3325C209.391 53.7725 209.259 54.2605 209.259 54.7965V61.7085H206.763V49.7085H209.259V50.9805C209.675 50.4845 210.187 50.0925 210.795 49.8045C211.403 49.5165 212.059 49.3725 212.763 49.3725C213.651 49.3725 214.459 49.5885 215.187 50.0205C215.915 50.4525 216.491 51.0325 216.915 51.7605C217.347 52.4885 217.563 53.2965 217.563 54.1845Z" fill="#0C1021"/>
<g filter="url(#filter1_d_4002_101)">
<rect x="42.3857" y="73.7085" width="117" height="35" rx="16" fill="white" shape-rendering="crispEdges"/>
<rect x="42.8857" y="74.2085" width="116" height="34" rx="15.5" stroke="#0C1021" stroke-opacity="0.1" shape-rendering="crispEdges"/>
<circle cx="57.8857" cy="91.2085" r="3.5" fill="#35E493"/>
<path d="M75.5297 96.9165C74.7724 96.9165 74.0604 96.7672 73.3937 96.4685C72.7271 96.1645 72.1404 95.7485 71.6337 95.2205C71.1324 94.6872 70.7377 94.0685 70.4497 93.3645C70.1671 92.6605 70.0257 91.9085 70.0257 91.1085C70.0257 90.3085 70.1671 89.5565 70.4497 88.8525C70.7377 88.1485 71.1324 87.5325 71.6337 87.0045C72.1404 86.4712 72.7271 86.0552 73.3937 85.7565C74.0604 85.4525 74.7724 85.3005 75.5297 85.3005C76.4364 85.3005 77.2711 85.5112 78.0337 85.9325C78.7964 86.3538 79.4284 86.9138 79.9297 87.6125L78.9377 88.1485C78.5431 87.6205 78.0417 87.2018 77.4337 86.8925C76.8311 86.5778 76.1964 86.4205 75.5297 86.4205C74.9164 86.4205 74.3431 86.5458 73.8097 86.7965C73.2817 87.0418 72.8177 87.3805 72.4177 87.8125C72.0177 88.2445 71.7057 88.7432 71.4817 89.3085C71.2577 89.8738 71.1457 90.4738 71.1457 91.1085C71.1457 91.7538 71.2577 92.3592 71.4817 92.9245C71.7111 93.4898 72.0257 93.9885 72.4257 94.4205C72.8311 94.8525 73.2977 95.1912 73.8257 95.4365C74.3591 95.6765 74.9271 95.7965 75.5297 95.7965C76.2231 95.7965 76.8657 95.6392 77.4577 95.3245C78.0551 95.0045 78.5484 94.5885 78.9377 94.0765L79.9297 94.6125C79.4284 95.3112 78.7964 95.8712 78.0337 96.2925C77.2711 96.7085 76.4364 96.9165 75.5297 96.9165ZM84.647 96.9165C83.911 96.9165 83.239 96.7272 82.631 96.3485C82.0283 95.9698 81.5457 95.4632 81.183 94.8285C80.8257 94.1885 80.647 93.4818 80.647 92.7085C80.647 92.1218 80.751 91.5752 80.959 91.0685C81.167 90.5565 81.4523 90.1085 81.815 89.7245C82.183 89.3352 82.6097 89.0312 83.095 88.8125C83.5803 88.5938 84.0977 88.4845 84.647 88.4845C85.383 88.4845 86.0523 88.6738 86.655 89.0525C87.263 89.4312 87.7457 89.9405 88.103 90.5805C88.4657 91.2205 88.647 91.9298 88.647 92.7085C88.647 93.2898 88.543 93.8338 88.335 94.3405C88.127 94.8472 87.839 95.2952 87.471 95.6845C87.1083 96.0685 86.6843 96.3698 86.199 96.5885C85.719 96.8072 85.2017 96.9165 84.647 96.9165ZM84.647 95.7965C85.191 95.7965 85.679 95.6552 86.111 95.3725C86.5483 95.0845 86.8923 94.7058 87.143 94.2365C87.399 93.7672 87.527 93.2578 87.527 92.7085C87.527 92.1485 87.399 91.6338 87.143 91.1645C86.887 90.6898 86.5403 90.3112 86.103 90.0285C85.671 89.7458 85.1857 89.6045 84.647 89.6045C84.103 89.6045 83.6123 89.7485 83.175 90.0365C82.743 90.3192 82.399 90.6952 82.143 91.1645C81.8923 91.6338 81.767 92.1485 81.767 92.7085C81.767 93.2845 81.8977 93.8072 82.159 94.2765C82.4203 94.7405 82.7697 95.1112 83.207 95.3885C83.6443 95.6605 84.1243 95.7965 84.647 95.7965ZM96.978 91.7565V96.7085H95.858V91.9805C95.858 91.5432 95.7513 91.1458 95.538 90.7885C95.3247 90.4312 95.0393 90.1458 94.682 89.9325C94.3247 89.7192 93.9273 89.6125 93.49 89.6125C93.058 89.6125 92.6607 89.7192 92.298 89.9325C91.9407 90.1458 91.6553 90.4312 91.442 90.7885C91.2287 91.1458 91.122 91.5432 91.122 91.9805V96.7085H90.002V88.7085H91.122V89.8125C91.4047 89.4072 91.7727 89.0845 92.226 88.8445C92.6793 88.6045 93.1727 88.4845 93.706 88.4845C94.3087 88.4845 94.858 88.6312 95.354 88.9245C95.85 89.2178 96.2447 89.6125 96.538 90.1085C96.8313 90.6045 96.978 91.1538 96.978 91.7565ZM105.556 91.7565V96.7085H104.436V91.9805C104.436 91.5432 104.329 91.1458 104.116 90.7885C103.903 90.4312 103.617 90.1458 103.26 89.9325C102.903 89.7192 102.505 89.6125 102.068 89.6125C101.636 89.6125 101.239 89.7192 100.876 89.9325C100.519 90.1458 100.233 90.4312 100.02 90.7885C99.8068 91.1458 99.7001 91.5432 99.7001 91.9805V96.7085H98.5801V88.7085H99.7001V89.8125C99.9828 89.4072 100.351 89.0845 100.804 88.8445C101.257 88.6045 101.751 88.4845 102.284 88.4845C102.887 88.4845 103.436 88.6312 103.932 88.9245C104.428 89.2178 104.823 89.6125 105.116 90.1085C105.409 90.6045 105.556 91.1538 105.556 91.7565ZM110.522 96.9165C109.786 96.9165 109.114 96.7272 108.506 96.3485C107.903 95.9698 107.421 95.4632 107.058 94.8285C106.701 94.1885 106.522 93.4818 106.522 92.7085C106.522 92.1218 106.626 91.5752 106.834 91.0685C107.042 90.5565 107.327 90.1085 107.69 89.7245C108.058 89.3352 108.485 89.0312 108.97 88.8125C109.455 88.5938 109.973 88.4845 110.522 88.4845C111.114 88.4845 111.658 88.6018 112.154 88.8365C112.655 89.0712 113.085 89.3992 113.442 89.8205C113.805 90.2418 114.077 90.7352 114.258 91.3005C114.445 91.8658 114.522 92.4765 114.49 93.1325H107.706C107.77 93.6392 107.93 94.0925 108.186 94.4925C108.447 94.8925 108.778 95.2098 109.178 95.4445C109.583 95.6738 110.031 95.7912 110.522 95.7965C111.055 95.7965 111.535 95.6578 111.962 95.3805C112.394 95.1032 112.741 94.7218 113.002 94.2365L114.138 94.5005C113.818 95.2098 113.335 95.7912 112.69 96.2445C112.045 96.6925 111.322 96.9165 110.522 96.9165ZM107.674 92.2285H113.362C113.325 91.7325 113.173 91.2792 112.906 90.8685C112.645 90.4525 112.306 90.1218 111.89 89.8765C111.474 89.6258 111.018 89.5005 110.522 89.5005C110.026 89.5005 109.573 89.6232 109.162 89.8685C108.751 90.1085 108.415 90.4365 108.154 90.8525C107.893 91.2632 107.733 91.7218 107.674 92.2285ZM121.495 94.7005L122.495 95.2445C122.133 95.7512 121.671 96.1565 121.111 96.4605C120.557 96.7645 119.954 96.9165 119.303 96.9165C118.567 96.9165 117.895 96.7272 117.287 96.3485C116.685 95.9698 116.202 95.4632 115.839 94.8285C115.482 94.1885 115.303 93.4818 115.303 92.7085C115.303 92.1218 115.407 91.5752 115.615 91.0685C115.823 90.5565 116.109 90.1085 116.471 89.7245C116.839 89.3352 117.266 89.0312 117.751 88.8125C118.237 88.5938 118.754 88.4845 119.303 88.4845C119.954 88.4845 120.557 88.6365 121.111 88.9405C121.671 89.2445 122.133 89.6525 122.495 90.1645L121.495 90.7005C121.218 90.3485 120.885 90.0792 120.495 89.8925C120.106 89.7005 119.709 89.6045 119.303 89.6045C118.765 89.6045 118.277 89.7485 117.839 90.0365C117.402 90.3192 117.055 90.6952 116.799 91.1645C116.549 91.6338 116.423 92.1485 116.423 92.7085C116.423 93.2685 116.551 93.7832 116.807 94.2525C117.069 94.7218 117.418 95.0978 117.855 95.3805C118.293 95.6578 118.775 95.7965 119.303 95.7965C119.741 95.7965 120.151 95.6952 120.535 95.4925C120.919 95.2898 121.239 95.0258 121.495 94.7005ZM128.027 89.8285H126.115L126.107 96.7085H124.987L124.995 89.8285H123.547V88.7085H124.995L124.987 86.1965H126.107L126.115 88.7085H128.027V89.8285ZM132.756 96.9165C132.02 96.9165 131.348 96.7272 130.74 96.3485C130.138 95.9698 129.655 95.4632 129.292 94.8285C128.935 94.1885 128.756 93.4818 128.756 92.7085C128.756 92.1218 128.86 91.5752 129.068 91.0685C129.276 90.5565 129.562 90.1085 129.924 89.7245C130.292 89.3352 130.719 89.0312 131.204 88.8125C131.69 88.5938 132.207 88.4845 132.756 88.4845C133.348 88.4845 133.892 88.6018 134.388 88.8365C134.89 89.0712 135.319 89.3992 135.676 89.8205C136.039 90.2418 136.311 90.7352 136.492 91.3005C136.679 91.8658 136.756 92.4765 136.724 93.1325H129.94C130.004 93.6392 130.164 94.0925 130.42 94.4925C130.682 94.8925 131.012 95.2098 131.412 95.4445C131.818 95.6738 132.266 95.7912 132.756 95.7965C133.29 95.7965 133.77 95.6578 134.196 95.3805C134.628 95.1032 134.975 94.7218 135.236 94.2365L136.372 94.5005C136.052 95.2098 135.57 95.7912 134.924 96.2445C134.279 96.6925 133.556 96.9165 132.756 96.9165ZM129.908 92.2285H135.596C135.559 91.7325 135.407 91.2792 135.14 90.8685C134.879 90.4525 134.54 90.1218 134.124 89.8765C133.708 89.6258 133.252 89.5005 132.756 89.5005C132.26 89.5005 131.807 89.6232 131.396 89.8685C130.986 90.1085 130.65 90.4365 130.388 90.8525C130.127 91.2632 129.967 91.7218 129.908 92.2285ZM144.602 84.7085H145.722V96.7085H144.602V95.2125C144.324 95.7245 143.943 96.1378 143.458 96.4525C142.978 96.7618 142.407 96.9165 141.746 96.9165C141.164 96.9165 140.62 96.8072 140.114 96.5885C139.607 96.3698 139.159 96.0685 138.77 95.6845C138.386 95.2952 138.084 94.8472 137.866 94.3405C137.647 93.8338 137.538 93.2898 137.538 92.7085C137.538 92.1272 137.647 91.5832 137.866 91.0765C138.084 90.5645 138.386 90.1165 138.77 89.7325C139.159 89.3432 139.607 89.0392 140.114 88.8205C140.62 88.6018 141.164 88.4925 141.746 88.4925C142.407 88.4925 142.978 88.6498 143.458 88.9645C143.943 89.2738 144.324 89.6818 144.602 90.1885V84.7085ZM141.754 95.8285C142.324 95.8285 142.815 95.6898 143.226 95.4125C143.636 95.1298 143.951 94.7512 144.17 94.2765C144.394 93.8018 144.506 93.2792 144.506 92.7085C144.506 92.1218 144.394 91.5938 144.17 91.1245C143.946 90.6498 143.628 90.2738 143.218 89.9965C142.807 89.7192 142.319 89.5805 141.754 89.5805C141.188 89.5805 140.674 89.7218 140.21 90.0045C139.746 90.2818 139.375 90.6578 139.098 91.1325C138.82 91.6072 138.682 92.1325 138.682 92.7085C138.682 93.2898 138.823 93.8178 139.106 94.2925C139.388 94.7618 139.762 95.1352 140.226 95.4125C140.695 95.6898 141.204 95.8285 141.754 95.8285Z" fill="#0C1021"/>
</g>
</g>
<g filter="url(#filter2_d_4002_101)">
<rect x="263.386" y="132.708" width="206" height="118" rx="22.0629" fill="white" shape-rendering="crispEdges"/>
<rect x="263.845" y="133.168" width="205.081" height="117.081" rx="21.6033" stroke="#0C1021" stroke-opacity="0.05" stroke-width="0.919289" shape-rendering="crispEdges"/>
<path d="M296.602 180.02C295.466 180.02 294.398 179.796 293.398 179.348C292.398 178.892 291.518 178.268 290.758 177.476C290.006 176.676 289.414 175.748 288.982 174.692C288.558 173.636 288.346 172.508 288.346 171.308C288.346 170.108 288.558 168.98 288.982 167.924C289.414 166.868 290.006 165.944 290.758 165.152C291.518 164.352 292.398 163.728 293.398 163.28C294.398 162.824 295.466 162.596 296.602 162.596C297.962 162.596 299.214 162.912 300.358 163.544C301.502 164.176 302.45 165.016 303.202 166.064L300.982 167.252C300.462 166.596 299.818 166.072 299.05 165.68C298.282 165.288 297.466 165.092 296.602 165.092C295.802 165.092 295.054 165.256 294.358 165.584C293.662 165.912 293.05 166.36 292.522 166.928C291.994 167.496 291.582 168.156 291.286 168.908C290.99 169.66 290.842 170.46 290.842 171.308C290.842 172.164 290.99 172.968 291.286 173.72C291.582 174.464 291.994 175.124 292.522 175.7C293.058 176.268 293.674 176.716 294.37 177.044C295.066 177.364 295.81 177.524 296.602 177.524C297.482 177.524 298.302 177.328 299.062 176.936C299.83 176.536 300.47 176.008 300.982 175.352L303.202 176.564C302.45 177.612 301.502 178.452 300.358 179.084C299.214 179.708 297.962 180.02 296.602 180.02ZM314.24 167.708H316.736V179.708H314.228L314.132 177.968C313.78 178.584 313.304 179.08 312.704 179.456C312.104 179.832 311.396 180.02 310.58 180.02C309.7 180.02 308.872 179.856 308.096 179.528C307.32 179.192 306.636 178.728 306.044 178.136C305.46 177.544 305.004 176.864 304.676 176.096C304.348 175.32 304.184 174.488 304.184 173.6C304.184 172.744 304.344 171.94 304.664 171.188C304.984 170.428 305.428 169.764 305.996 169.196C306.564 168.628 307.22 168.184 307.964 167.864C308.716 167.536 309.52 167.372 310.376 167.372C311.248 167.372 312.016 167.572 312.68 167.972C313.352 168.364 313.908 168.868 314.348 169.484L314.24 167.708ZM310.52 177.608C311.224 177.608 311.84 177.436 312.368 177.092C312.896 176.74 313.304 176.268 313.592 175.676C313.888 175.084 314.036 174.428 314.036 173.708C314.036 172.98 313.888 172.32 313.592 171.728C313.296 171.136 312.884 170.668 312.356 170.324C311.836 169.972 311.224 169.796 310.52 169.796C309.824 169.796 309.188 169.972 308.612 170.324C308.036 170.676 307.58 171.148 307.244 171.74C306.908 172.332 306.74 172.988 306.74 173.708C306.74 174.436 306.912 175.096 307.256 175.688C307.608 176.272 308.068 176.74 308.636 177.092C309.212 177.436 309.84 177.608 310.52 177.608ZM319.224 179.708V161.708H321.72V179.708H319.224ZM329.707 180.02C328.603 180.02 327.595 179.736 326.683 179.168C325.779 178.6 325.055 177.84 324.511 176.888C323.975 175.928 323.707 174.868 323.707 173.708C323.707 172.828 323.863 172.008 324.175 171.248C324.487 170.48 324.915 169.808 325.459 169.232C326.011 168.648 326.651 168.192 327.379 167.864C328.107 167.536 328.883 167.372 329.707 167.372C330.627 167.372 331.471 167.564 332.239 167.948C333.007 168.324 333.663 168.848 334.207 169.52C334.751 170.184 335.151 170.952 335.407 171.824C335.663 172.688 335.739 173.608 335.635 174.584H326.383C326.487 175.136 326.687 175.636 326.983 176.084C327.287 176.524 327.671 176.872 328.135 177.128C328.607 177.384 329.131 177.516 329.707 177.524C330.315 177.524 330.867 177.372 331.363 177.068C331.867 176.764 332.279 176.344 332.599 175.808L335.131 176.396C334.651 177.46 333.927 178.332 332.959 179.012C331.991 179.684 330.907 180.02 329.707 180.02ZM326.299 172.676H333.115C333.035 172.1 332.831 171.58 332.503 171.116C332.183 170.644 331.779 170.272 331.291 170C330.811 169.72 330.283 169.58 329.707 169.58C329.139 169.58 328.611 169.716 328.123 169.988C327.643 170.26 327.243 170.632 326.923 171.104C326.611 171.568 326.403 172.092 326.299 172.676ZM348.423 172.184V179.708H345.927V172.796C345.927 172.26 345.795 171.772 345.531 171.332C345.275 170.892 344.927 170.544 344.487 170.288C344.055 170.024 343.567 169.892 343.023 169.892C342.495 169.892 342.011 170.024 341.571 170.288C341.131 170.544 340.779 170.892 340.515 171.332C340.251 171.772 340.119 172.26 340.119 172.796V179.708H337.623V167.708H340.119V168.98C340.535 168.484 341.047 168.092 341.655 167.804C342.263 167.516 342.919 167.372 343.623 167.372C344.511 167.372 345.319 167.588 346.047 168.02C346.775 168.452 347.351 169.032 347.775 169.76C348.207 170.488 348.423 171.296 348.423 172.184ZM359.932 161.708H362.428V179.708H359.932V177.944C359.54 178.568 359.028 179.072 358.396 179.456C357.764 179.832 357.024 180.02 356.176 180.02C355.304 180.02 354.488 179.856 353.728 179.528C352.968 179.2 352.296 178.748 351.712 178.172C351.136 177.588 350.684 176.916 350.356 176.156C350.028 175.396 349.864 174.58 349.864 173.708C349.864 172.836 350.028 172.02 350.356 171.26C350.684 170.492 351.136 169.82 351.712 169.244C352.296 168.66 352.968 168.204 353.728 167.876C354.488 167.548 355.304 167.384 356.176 167.384C357.024 167.384 357.764 167.576 358.396 167.96C359.028 168.336 359.54 168.832 359.932 169.448V161.708ZM356.2 177.608C356.904 177.608 357.52 177.436 358.048 177.092C358.576 176.74 358.984 176.268 359.272 175.676C359.568 175.084 359.716 174.428 359.716 173.708C359.716 172.98 359.568 172.32 359.272 171.728C358.976 171.136 358.564 170.668 358.036 170.324C357.516 169.972 356.904 169.796 356.2 169.796C355.504 169.796 354.868 169.972 354.292 170.324C353.724 170.676 353.268 171.148 352.924 171.74C352.588 172.332 352.42 172.988 352.42 173.708C352.42 174.436 352.592 175.096 352.936 175.688C353.288 176.272 353.748 176.74 354.316 177.092C354.892 177.436 355.52 177.608 356.2 177.608ZM374.474 167.708H376.97V179.708H374.462L374.366 177.968C374.014 178.584 373.538 179.08 372.938 179.456C372.338 179.832 371.63 180.02 370.814 180.02C369.934 180.02 369.106 179.856 368.33 179.528C367.554 179.192 366.87 178.728 366.278 178.136C365.694 177.544 365.238 176.864 364.91 176.096C364.582 175.32 364.418 174.488 364.418 173.6C364.418 172.744 364.578 171.94 364.898 171.188C365.218 170.428 365.662 169.764 366.23 169.196C366.798 168.628 367.454 168.184 368.198 167.864C368.95 167.536 369.754 167.372 370.61 167.372C371.482 167.372 372.25 167.572 372.914 167.972C373.586 168.364 374.142 168.868 374.582 169.484L374.474 167.708ZM370.754 177.608C371.458 177.608 372.074 177.436 372.602 177.092C373.13 176.74 373.538 176.268 373.826 175.676C374.122 175.084 374.27 174.428 374.27 173.708C374.27 172.98 374.122 172.32 373.826 171.728C373.53 171.136 373.118 170.668 372.59 170.324C372.07 169.972 371.458 169.796 370.754 169.796C370.058 169.796 369.422 169.972 368.846 170.324C368.27 170.676 367.814 171.148 367.478 171.74C367.142 172.332 366.974 172.988 366.974 173.708C366.974 174.436 367.146 175.096 367.49 175.688C367.842 176.272 368.302 176.74 368.87 177.092C369.446 177.436 370.074 177.608 370.754 177.608ZM379.365 179.708V167.708H381.861V168.98C382.277 168.484 382.789 168.092 383.397 167.804C384.005 167.516 384.661 167.372 385.365 167.372C385.813 167.372 386.257 167.432 386.697 167.552L385.701 170.072C385.389 169.952 385.077 169.892 384.765 169.892C384.237 169.892 383.753 170.024 383.313 170.288C382.873 170.544 382.521 170.892 382.257 171.332C381.993 171.772 381.861 172.26 381.861 172.796V179.708H379.365ZM400.142 180.02C399.222 180.02 398.338 179.876 397.49 179.588C396.642 179.3 395.902 178.888 395.27 178.352C394.638 177.808 394.186 177.164 393.914 176.42L396.254 175.544C396.39 175.928 396.65 176.272 397.034 176.576C397.426 176.872 397.89 177.104 398.426 177.272C398.97 177.44 399.542 177.524 400.142 177.524C400.782 177.524 401.382 177.42 401.942 177.212C402.51 177.004 402.966 176.716 403.31 176.348C403.662 175.98 403.838 175.548 403.838 175.052C403.838 174.54 403.654 174.12 403.286 173.792C402.926 173.464 402.462 173.204 401.894 173.012C401.334 172.82 400.75 172.676 400.142 172.58C398.966 172.388 397.91 172.108 396.974 171.74C396.046 171.372 395.31 170.856 394.766 170.192C394.23 169.528 393.962 168.664 393.962 167.6C393.962 166.6 394.246 165.728 394.814 164.984C395.39 164.24 396.146 163.664 397.082 163.256C398.026 162.84 399.046 162.632 400.142 162.632C401.046 162.632 401.918 162.776 402.758 163.064C403.606 163.344 404.35 163.756 404.99 164.3C405.638 164.836 406.102 165.488 406.382 166.256L404.018 167.108C403.882 166.716 403.622 166.376 403.238 166.088C402.854 165.792 402.39 165.56 401.846 165.392C401.31 165.224 400.742 165.14 400.142 165.14C399.502 165.132 398.902 165.236 398.342 165.452C397.79 165.66 397.338 165.948 396.986 166.316C396.634 166.684 396.458 167.112 396.458 167.6C396.458 168.2 396.622 168.656 396.95 168.968C397.278 169.28 397.718 169.512 398.27 169.664C398.83 169.808 399.454 169.94 400.142 170.06C401.246 170.236 402.266 170.528 403.202 170.936C404.146 171.344 404.902 171.888 405.47 172.568C406.046 173.24 406.334 174.068 406.334 175.052C406.334 176.044 406.046 176.916 405.47 177.668C404.902 178.412 404.146 178.992 403.202 179.408C402.266 179.816 401.246 180.02 400.142 180.02ZM416.436 167.708H419.1L412.524 185.708H409.872L412.044 179.708L407.736 167.708H410.46L413.292 176.288L416.436 167.708ZM431.93 172.184V179.708H429.434V172.796C429.434 172.26 429.302 171.772 429.038 171.332C428.782 170.892 428.434 170.544 427.994 170.288C427.562 170.024 427.074 169.892 426.53 169.892C426.002 169.892 425.518 170.024 425.078 170.288C424.638 170.544 424.286 170.892 424.022 171.332C423.758 171.772 423.626 172.26 423.626 172.796V179.708H421.13V167.708H423.626V168.98C424.042 168.484 424.554 168.092 425.162 167.804C425.77 167.516 426.426 167.372 427.13 167.372C428.018 167.372 428.826 167.588 429.554 168.02C430.282 168.452 430.858 169.032 431.282 169.76C431.714 170.488 431.93 171.296 431.93 172.184ZM441.927 176.3L444.159 177.512C443.615 178.272 442.923 178.88 442.083 179.336C441.251 179.792 440.347 180.02 439.371 180.02C438.267 180.02 437.259 179.736 436.347 179.168C435.443 178.6 434.719 177.84 434.175 176.888C433.639 175.928 433.371 174.868 433.371 173.708C433.371 172.828 433.527 172.008 433.839 171.248C434.151 170.48 434.579 169.808 435.123 169.232C435.675 168.648 436.315 168.192 437.043 167.864C437.771 167.536 438.547 167.372 439.371 167.372C440.347 167.372 441.251 167.6 442.083 168.056C442.923 168.512 443.615 169.124 444.159 169.892L441.927 171.104C441.591 170.704 441.199 170.4 440.751 170.192C440.303 169.976 439.843 169.868 439.371 169.868C438.715 169.868 438.119 170.048 437.583 170.408C437.055 170.76 436.635 171.228 436.323 171.812C436.019 172.388 435.867 173.02 435.867 173.708C435.867 174.388 436.023 175.02 436.335 175.604C436.647 176.18 437.067 176.644 437.595 176.996C438.131 177.348 438.723 177.524 439.371 177.524C439.867 177.524 440.339 177.412 440.787 177.188C441.235 176.964 441.615 176.668 441.927 176.3Z" fill="#0C1021"/>
<g filter="url(#filter3_d_4002_101)">
<rect x="287.386" y="191.708" width="83" height="35" rx="16" fill="white" shape-rendering="crispEdges"/>
<rect x="287.886" y="192.208" width="82" height="34" rx="15.5" stroke="#0C1021" stroke-opacity="0.1" shape-rendering="crispEdges"/>
<circle cx="302.886" cy="209.208" r="3.5" fill="#35E493"/>
<path d="M319.098 203.508H320.49L324.57 214.708H323.378L322.506 212.308H317.09L316.218 214.708H315.026L319.098 203.508ZM317.498 211.188H322.09L319.794 204.884L317.498 211.188ZM331.089 212.7L332.089 213.244C331.726 213.751 331.265 214.156 330.705 214.46C330.15 214.764 329.548 214.916 328.897 214.916C328.161 214.916 327.489 214.727 326.881 214.348C326.278 213.97 325.796 213.463 325.433 212.828C325.076 212.188 324.897 211.482 324.897 210.708C324.897 210.122 325.001 209.575 325.209 209.068C325.417 208.556 325.702 208.108 326.065 207.724C326.433 207.335 326.86 207.031 327.345 206.812C327.83 206.594 328.348 206.484 328.897 206.484C329.548 206.484 330.15 206.636 330.705 206.94C331.265 207.244 331.726 207.652 332.089 208.164L331.089 208.7C330.812 208.348 330.478 208.079 330.089 207.892C329.7 207.7 329.302 207.604 328.897 207.604C328.358 207.604 327.87 207.748 327.433 208.036C326.996 208.319 326.649 208.695 326.393 209.164C326.142 209.634 326.017 210.148 326.017 210.708C326.017 211.268 326.145 211.783 326.401 212.252C326.662 212.722 327.012 213.098 327.449 213.38C327.886 213.658 328.369 213.796 328.897 213.796C329.334 213.796 329.745 213.695 330.129 213.492C330.513 213.29 330.833 213.026 331.089 212.7ZM337.621 207.828H335.709L335.701 214.708H334.581L334.589 207.828H333.141V206.708H334.589L334.581 204.196H335.701L335.709 206.708H337.621V207.828ZM338.986 206.708H340.106V214.708H338.986V206.708ZM339.554 205.308C339.373 205.308 339.218 205.25 339.09 205.132C338.968 205.01 338.906 204.858 338.906 204.676C338.906 204.495 338.968 204.346 339.09 204.228C339.218 204.106 339.373 204.044 339.554 204.044C339.73 204.044 339.88 204.106 340.002 204.228C340.13 204.346 340.194 204.495 340.194 204.676C340.194 204.858 340.133 205.01 340.01 205.132C339.888 205.25 339.736 205.308 339.554 205.308ZM345.788 214.708H344.364L341.444 206.684H342.636L345.076 213.396L347.516 206.684H348.708L345.788 214.708ZM353.241 214.916C352.505 214.916 351.833 214.727 351.225 214.348C350.622 213.97 350.139 213.463 349.777 212.828C349.419 212.188 349.241 211.482 349.241 210.708C349.241 210.122 349.345 209.575 349.553 209.068C349.761 208.556 350.046 208.108 350.409 207.724C350.777 207.335 351.203 207.031 351.689 206.812C352.174 206.594 352.691 206.484 353.241 206.484C353.833 206.484 354.377 206.602 354.873 206.836C355.374 207.071 355.803 207.399 356.161 207.82C356.523 208.242 356.795 208.735 356.977 209.3C357.163 209.866 357.241 210.476 357.209 211.132H350.425C350.489 211.639 350.649 212.092 350.905 212.492C351.166 212.892 351.497 213.21 351.897 213.444C352.302 213.674 352.75 213.791 353.241 213.796C353.774 213.796 354.254 213.658 354.681 213.38C355.113 213.103 355.459 212.722 355.721 212.236L356.857 212.5C356.537 213.21 356.054 213.791 355.409 214.244C354.763 214.692 354.041 214.916 353.241 214.916ZM350.393 210.228H356.081C356.043 209.732 355.891 209.279 355.625 208.868C355.363 208.452 355.025 208.122 354.609 207.876C354.193 207.626 353.737 207.5 353.241 207.5C352.745 207.5 352.291 207.623 351.881 207.868C351.47 208.108 351.134 208.436 350.873 208.852C350.611 209.263 350.451 209.722 350.393 210.228Z" fill="#0C1021"/>
</g>
</g>
<g filter="url(#filter4_d_4002_101)">
<rect x="54.3857" y="226.708" width="165" height="118" rx="22.0629" fill="white" shape-rendering="crispEdges"/>
<rect x="54.8454" y="227.168" width="164.081" height="117.081" rx="21.6033" stroke="#0C1021" stroke-opacity="0.05" stroke-width="0.919289" shape-rendering="crispEdges"/>
<path d="M87.6017 274.02C86.4657 274.02 85.3977 273.796 84.3977 273.348C83.3977 272.892 82.5177 272.268 81.7577 271.476C81.0057 270.676 80.4137 269.748 79.9817 268.692C79.5577 267.636 79.3457 266.508 79.3457 265.308C79.3457 264.108 79.5577 262.98 79.9817 261.924C80.4137 260.868 81.0057 259.944 81.7577 259.152C82.5177 258.352 83.3977 257.728 84.3977 257.28C85.3977 256.824 86.4657 256.596 87.6017 256.596C88.9617 256.596 90.2137 256.912 91.3577 257.544C92.5017 258.176 93.4497 259.016 94.2017 260.064L91.9817 261.252C91.4617 260.596 90.8177 260.072 90.0497 259.68C89.2817 259.288 88.4657 259.092 87.6017 259.092C86.8017 259.092 86.0537 259.256 85.3577 259.584C84.6617 259.912 84.0497 260.36 83.5217 260.928C82.9937 261.496 82.5817 262.156 82.2857 262.908C81.9897 263.66 81.8417 264.46 81.8417 265.308C81.8417 266.164 81.9897 266.968 82.2857 267.72C82.5817 268.464 82.9937 269.124 83.5217 269.7C84.0577 270.268 84.6737 270.716 85.3697 271.044C86.0657 271.364 86.8097 271.524 87.6017 271.524C88.4817 271.524 89.3017 271.328 90.0617 270.936C90.8297 270.536 91.4697 270.008 91.9817 269.352L94.2017 270.564C93.4497 271.612 92.5017 272.452 91.3577 273.084C90.2137 273.708 88.9617 274.02 87.6017 274.02ZM105.24 261.708H107.736V273.708H105.228L105.132 271.968C104.78 272.584 104.304 273.08 103.704 273.456C103.104 273.832 102.396 274.02 101.58 274.02C100.7 274.02 99.8719 273.856 99.0959 273.528C98.3199 273.192 97.6359 272.728 97.0439 272.136C96.4599 271.544 96.0039 270.864 95.6759 270.096C95.3479 269.32 95.1839 268.488 95.1839 267.6C95.1839 266.744 95.3439 265.94 95.6639 265.188C95.9839 264.428 96.4279 263.764 96.9959 263.196C97.5639 262.628 98.2199 262.184 98.9639 261.864C99.7159 261.536 100.52 261.372 101.376 261.372C102.248 261.372 103.016 261.572 103.68 261.972C104.352 262.364 104.908 262.868 105.348 263.484L105.24 261.708ZM101.52 271.608C102.224 271.608 102.84 271.436 103.368 271.092C103.896 270.74 104.304 270.268 104.592 269.676C104.888 269.084 105.036 268.428 105.036 267.708C105.036 266.98 104.888 266.32 104.592 265.728C104.296 265.136 103.884 264.668 103.356 264.324C102.836 263.972 102.224 263.796 101.52 263.796C100.824 263.796 100.188 263.972 99.6119 264.324C99.0359 264.676 98.5799 265.148 98.2439 265.74C97.9079 266.332 97.7399 266.988 97.7399 267.708C97.7399 268.436 97.9119 269.096 98.2559 269.688C98.6079 270.272 99.0679 270.74 99.6359 271.092C100.212 271.436 100.84 271.608 101.52 271.608ZM110.224 273.708V255.708H112.72V273.708H110.224ZM115.591 273.708V255.708H118.087V273.708H115.591ZM126.724 273.708V256.908H136.624V259.404H129.22V263.46H135.472V265.956H129.22V273.708H126.724ZM138.396 273.708V255.708H140.892V273.708H138.396ZM148.879 274.02C147.775 274.02 146.767 273.736 145.855 273.168C144.951 272.6 144.227 271.84 143.683 270.888C143.147 269.928 142.879 268.868 142.879 267.708C142.879 266.828 143.035 266.008 143.347 265.248C143.659 264.48 144.087 263.808 144.631 263.232C145.183 262.648 145.823 262.192 146.551 261.864C147.279 261.536 148.055 261.372 148.879 261.372C149.983 261.372 150.987 261.656 151.891 262.224C152.803 262.792 153.527 263.556 154.063 264.516C154.607 265.476 154.879 266.54 154.879 267.708C154.879 268.58 154.723 269.396 154.411 270.156C154.099 270.916 153.667 271.588 153.115 272.172C152.571 272.748 151.935 273.2 151.207 273.528C150.487 273.856 149.711 274.02 148.879 274.02ZM148.879 271.524C149.543 271.524 150.139 271.348 150.667 270.996C151.195 270.644 151.611 270.18 151.915 269.604C152.227 269.02 152.383 268.388 152.383 267.708C152.383 267.012 152.223 266.372 151.903 265.788C151.591 265.204 151.171 264.74 150.643 264.396C150.115 264.044 149.527 263.868 148.879 263.868C148.223 263.868 147.627 264.044 147.091 264.396C146.563 264.748 146.143 265.216 145.831 265.8C145.527 266.384 145.375 267.02 145.375 267.708C145.375 268.42 145.535 269.064 145.855 269.64C146.175 270.216 146.599 270.676 147.127 271.02C147.663 271.356 148.247 271.524 148.879 271.524ZM162.039 273.708H159.555L155.535 261.708H157.983L160.815 270.132L163.623 261.708H166.143L168.951 270.132L171.771 261.708H174.219L170.211 273.708H167.703L164.871 265.224L162.039 273.708Z" fill="#0C1021"/>
<g filter="url(#filter5_d_4002_101)">
<rect x="78.3857" y="285.708" width="117" height="35" rx="16" fill="white" shape-rendering="crispEdges"/>
<rect x="78.8857" y="286.208" width="116" height="34" rx="15.5" stroke="#0C1021" stroke-opacity="0.1" shape-rendering="crispEdges"/>
<circle cx="93.8857" cy="303.208" r="3.5" fill="#35E493"/>
<path d="M111.53 308.916C110.772 308.916 110.06 308.767 109.394 308.468C108.727 308.164 108.14 307.748 107.634 307.22C107.132 306.687 106.738 306.068 106.45 305.364C106.167 304.66 106.026 303.908 106.026 303.108C106.026 302.308 106.167 301.556 106.45 300.852C106.738 300.148 107.132 299.532 107.634 299.004C108.14 298.471 108.727 298.055 109.394 297.756C110.06 297.452 110.772 297.3 111.53 297.3C112.436 297.3 113.271 297.511 114.034 297.932C114.796 298.354 115.428 298.914 115.93 299.612L114.938 300.148C114.543 299.62 114.042 299.202 113.434 298.892C112.831 298.578 112.196 298.42 111.53 298.42C110.916 298.42 110.343 298.546 109.81 298.796C109.282 299.042 108.818 299.38 108.418 299.812C108.018 300.244 107.706 300.743 107.482 301.308C107.258 301.874 107.146 302.474 107.146 303.108C107.146 303.754 107.258 304.359 107.482 304.924C107.711 305.49 108.026 305.988 108.426 306.42C108.831 306.852 109.298 307.191 109.826 307.436C110.359 307.676 110.927 307.796 111.53 307.796C112.223 307.796 112.866 307.639 113.458 307.324C114.055 307.004 114.548 306.588 114.938 306.076L115.93 306.612C115.428 307.311 114.796 307.871 114.034 308.292C113.271 308.708 112.436 308.916 111.53 308.916ZM120.647 308.916C119.911 308.916 119.239 308.727 118.631 308.348C118.028 307.97 117.546 307.463 117.183 306.828C116.826 306.188 116.647 305.482 116.647 304.708C116.647 304.122 116.751 303.575 116.959 303.068C117.167 302.556 117.452 302.108 117.815 301.724C118.183 301.335 118.61 301.031 119.095 300.812C119.58 300.594 120.098 300.484 120.647 300.484C121.383 300.484 122.052 300.674 122.655 301.052C123.263 301.431 123.746 301.94 124.103 302.58C124.466 303.22 124.647 303.93 124.647 304.708C124.647 305.29 124.543 305.834 124.335 306.34C124.127 306.847 123.839 307.295 123.471 307.684C123.108 308.068 122.684 308.37 122.199 308.588C121.719 308.807 121.202 308.916 120.647 308.916ZM120.647 307.796C121.191 307.796 121.679 307.655 122.111 307.372C122.548 307.084 122.892 306.706 123.143 306.236C123.399 305.767 123.527 305.258 123.527 304.708C123.527 304.148 123.399 303.634 123.143 303.164C122.887 302.69 122.54 302.311 122.103 302.028C121.671 301.746 121.186 301.604 120.647 301.604C120.103 301.604 119.612 301.748 119.175 302.036C118.743 302.319 118.399 302.695 118.143 303.164C117.892 303.634 117.767 304.148 117.767 304.708C117.767 305.284 117.898 305.807 118.159 306.276C118.42 306.74 118.77 307.111 119.207 307.388C119.644 307.66 120.124 307.796 120.647 307.796ZM132.978 303.756V308.708H131.858V303.98C131.858 303.543 131.751 303.146 131.538 302.788C131.325 302.431 131.039 302.146 130.682 301.932C130.325 301.719 129.927 301.612 129.49 301.612C129.058 301.612 128.661 301.719 128.298 301.932C127.941 302.146 127.655 302.431 127.442 302.788C127.229 303.146 127.122 303.543 127.122 303.98V308.708H126.002V300.708H127.122V301.812C127.405 301.407 127.773 301.084 128.226 300.844C128.679 300.604 129.173 300.484 129.706 300.484C130.309 300.484 130.858 300.631 131.354 300.924C131.85 301.218 132.245 301.612 132.538 302.108C132.831 302.604 132.978 303.154 132.978 303.756ZM136.236 298.62V300.708H138.636V301.828H136.236V308.708H135.116V301.828H134.02V300.708H135.116V298.62C135.116 298.231 135.209 297.879 135.396 297.564C135.588 297.244 135.844 296.991 136.164 296.804C136.484 296.612 136.839 296.516 137.228 296.516C137.511 296.516 137.783 296.572 138.044 296.684C138.311 296.796 138.548 296.962 138.756 297.18L137.956 297.972C137.871 297.866 137.761 297.783 137.628 297.724C137.5 297.666 137.367 297.636 137.228 297.636C136.956 297.636 136.721 297.732 136.524 297.924C136.332 298.116 136.236 298.348 136.236 298.62ZM139.861 300.708H140.981V308.708H139.861V300.708ZM140.429 299.308C140.248 299.308 140.093 299.25 139.965 299.132C139.843 299.01 139.781 298.858 139.781 298.676C139.781 298.495 139.843 298.346 139.965 298.228C140.093 298.106 140.248 298.044 140.429 298.044C140.605 298.044 140.755 298.106 140.877 298.228C141.005 298.346 141.069 298.495 141.069 298.676C141.069 298.858 141.008 299.01 140.885 299.132C140.763 299.25 140.611 299.308 140.429 299.308ZM149.19 300.708H150.31V309.004C150.31 309.516 150.198 309.996 149.974 310.444C149.755 310.892 149.457 311.284 149.078 311.62C148.705 311.962 148.278 312.228 147.798 312.42C147.318 312.612 146.819 312.708 146.302 312.708C145.747 312.708 145.211 312.58 144.694 312.324C144.177 312.074 143.726 311.738 143.342 311.316C142.963 310.895 142.694 310.428 142.534 309.916L143.566 309.444C143.667 309.844 143.857 310.204 144.134 310.524C144.417 310.85 144.747 311.106 145.126 311.292C145.51 311.484 145.902 311.58 146.302 311.58C146.67 311.58 147.025 311.511 147.366 311.372C147.713 311.239 148.022 311.055 148.294 310.82C148.571 310.586 148.79 310.311 148.95 309.996C149.11 309.687 149.19 309.356 149.19 309.004V307.236C148.913 307.738 148.537 308.143 148.062 308.452C147.593 308.762 147.046 308.916 146.422 308.916C145.862 308.916 145.334 308.807 144.838 308.588C144.347 308.37 143.915 308.068 143.542 307.684C143.169 307.295 142.875 306.847 142.662 306.34C142.454 305.834 142.35 305.29 142.35 304.708C142.35 304.127 142.454 303.583 142.662 303.076C142.875 302.564 143.169 302.116 143.542 301.732C143.915 301.343 144.347 301.039 144.838 300.82C145.334 300.602 145.862 300.492 146.422 300.492C147.046 300.492 147.593 300.647 148.062 300.956C148.537 301.26 148.913 301.666 149.19 302.172V300.708ZM146.43 307.828C146.985 307.828 147.462 307.684 147.862 307.396C148.267 307.108 148.579 306.727 148.798 306.252C149.017 305.778 149.126 305.263 149.126 304.708C149.126 304.138 149.014 303.618 148.79 303.148C148.571 302.674 148.259 302.295 147.854 302.012C147.449 301.724 146.974 301.58 146.43 301.58C145.886 301.58 145.39 301.722 144.942 302.004C144.499 302.282 144.147 302.658 143.886 303.132C143.625 303.607 143.494 304.132 143.494 304.708C143.494 305.284 143.627 305.81 143.894 306.284C144.161 306.754 144.515 307.13 144.958 307.412C145.406 307.69 145.897 307.828 146.43 307.828ZM151.807 305.644V300.708H152.927V305.42C152.927 305.858 153.034 306.255 153.247 306.612C153.46 306.97 153.746 307.255 154.103 307.468C154.466 307.682 154.863 307.788 155.295 307.788C155.732 307.788 156.127 307.682 156.479 307.468C156.836 307.255 157.122 306.97 157.335 306.612C157.548 306.255 157.655 305.858 157.655 305.42V300.708H158.775L158.783 308.708H157.663L157.655 307.588C157.372 307.994 157.004 308.316 156.551 308.556C156.103 308.796 155.612 308.916 155.079 308.916C154.476 308.916 153.927 308.77 153.431 308.476C152.935 308.183 152.54 307.788 152.247 307.292C151.954 306.796 151.807 306.247 151.807 305.644ZM160.377 308.708V300.708H161.497V301.812C161.78 301.407 162.148 301.084 162.601 300.844C163.054 300.604 163.548 300.484 164.081 300.484C164.39 300.484 164.689 300.524 164.977 300.604L164.521 301.716C164.297 301.647 164.078 301.612 163.865 301.612C163.433 301.612 163.036 301.719 162.673 301.932C162.316 302.146 162.03 302.431 161.817 302.788C161.604 303.146 161.497 303.543 161.497 303.98V308.708H160.377ZM169.084 308.916C168.348 308.916 167.676 308.727 167.068 308.348C166.466 307.97 165.983 307.463 165.62 306.828C165.263 306.188 165.084 305.482 165.084 304.708C165.084 304.122 165.188 303.575 165.396 303.068C165.604 302.556 165.89 302.108 166.252 301.724C166.62 301.335 167.047 301.031 167.532 300.812C168.018 300.594 168.535 300.484 169.084 300.484C169.676 300.484 170.22 300.602 170.716 300.836C171.218 301.071 171.647 301.399 172.004 301.82C172.367 302.242 172.639 302.735 172.82 303.3C173.007 303.866 173.084 304.476 173.052 305.132H166.268C166.332 305.639 166.492 306.092 166.748 306.492C167.01 306.892 167.34 307.21 167.74 307.444C168.146 307.674 168.594 307.791 169.084 307.796C169.618 307.796 170.098 307.658 170.524 307.38C170.956 307.103 171.303 306.722 171.564 306.236L172.7 306.5C172.38 307.21 171.898 307.791 171.252 308.244C170.607 308.692 169.884 308.916 169.084 308.916ZM166.236 304.228H171.924C171.887 303.732 171.735 303.279 171.468 302.868C171.207 302.452 170.868 302.122 170.452 301.876C170.036 301.626 169.58 301.5 169.084 301.5C168.588 301.5 168.135 301.623 167.724 301.868C167.314 302.108 166.978 302.436 166.716 302.852C166.455 303.263 166.295 303.722 166.236 304.228ZM180.93 296.708H182.05V308.708H180.93V307.212C180.652 307.724 180.271 308.138 179.786 308.452C179.306 308.762 178.735 308.916 178.074 308.916C177.492 308.916 176.948 308.807 176.442 308.588C175.935 308.37 175.487 308.068 175.098 307.684C174.714 307.295 174.412 306.847 174.194 306.34C173.975 305.834 173.866 305.29 173.866 304.708C173.866 304.127 173.975 303.583 174.194 303.076C174.412 302.564 174.714 302.116 175.098 301.732C175.487 301.343 175.935 301.039 176.442 300.82C176.948 300.602 177.492 300.492 178.074 300.492C178.735 300.492 179.306 300.65 179.786 300.964C180.271 301.274 180.652 301.682 180.93 302.188V296.708ZM178.082 307.828C178.652 307.828 179.143 307.69 179.554 307.412C179.964 307.13 180.279 306.751 180.498 306.276C180.722 305.802 180.834 305.279 180.834 304.708C180.834 304.122 180.722 303.594 180.498 303.124C180.274 302.65 179.956 302.274 179.546 301.996C179.135 301.719 178.647 301.58 178.082 301.58C177.516 301.58 177.002 301.722 176.538 302.004C176.074 302.282 175.703 302.658 175.426 303.132C175.148 303.607 175.01 304.132 175.01 304.708C175.01 305.29 175.151 305.818 175.434 306.292C175.716 306.762 176.09 307.135 176.554 307.412C177.023 307.69 177.532 307.828 178.082 307.828Z" fill="#0C1021"/>
</g>
</g>
<g filter="url(#filter6_d_4002_101)">
<rect x="257.386" y="354.708" width="188" height="118" rx="22.0629" fill="white" shape-rendering="crispEdges"/>
<rect x="257.845" y="355.168" width="187.081" height="117.081" rx="21.6033" stroke="#0C1021" stroke-opacity="0.05" stroke-width="0.919289" shape-rendering="crispEdges"/>
<path d="M290.626 402.02C289.49 402.02 288.422 401.796 287.422 401.348C286.422 400.892 285.542 400.264 284.782 399.464C284.022 398.664 283.426 397.74 282.994 396.692C282.562 395.636 282.346 394.508 282.346 393.308C282.346 392.108 282.562 390.984 282.994 389.936C283.426 388.88 284.022 387.952 284.782 387.152C285.542 386.352 286.422 385.728 287.422 385.28C288.422 384.824 289.49 384.596 290.626 384.596C291.77 384.596 292.842 384.824 293.842 385.28C294.842 385.728 295.722 386.352 296.482 387.152C297.242 387.952 297.834 388.88 298.258 389.936C298.69 390.984 298.906 392.108 298.906 393.308C298.906 394.508 298.69 395.636 298.258 396.692C297.834 397.74 297.242 398.664 296.482 399.464C295.722 400.264 294.842 400.892 293.842 401.348C292.842 401.796 291.77 402.02 290.626 402.02ZM290.626 399.524C291.426 399.524 292.174 399.36 292.87 399.032C293.566 398.704 294.178 398.256 294.706 397.688C295.242 397.112 295.658 396.452 295.954 395.708C296.258 394.956 296.41 394.156 296.41 393.308C296.41 392.46 296.258 391.66 295.954 390.908C295.658 390.156 295.242 389.496 294.706 388.928C294.178 388.352 293.566 387.904 292.87 387.584C292.174 387.256 291.426 387.092 290.626 387.092C289.826 387.092 289.078 387.256 288.382 387.584C287.686 387.912 287.07 388.364 286.534 388.94C286.006 389.508 285.59 390.168 285.286 390.92C284.99 391.664 284.842 392.46 284.842 393.308C284.842 394.164 284.99 394.968 285.286 395.72C285.59 396.464 286.006 397.124 286.534 397.7C287.07 398.268 287.686 398.716 288.382 399.044C289.078 399.364 289.826 399.524 290.626 399.524ZM303.79 407.708H301.294V389.708H303.79V391.472C304.19 390.856 304.702 390.356 305.326 389.972C305.95 389.588 306.686 389.396 307.534 389.396C308.406 389.396 309.222 389.56 309.982 389.888C310.75 390.216 311.422 390.672 311.998 391.256C312.574 391.832 313.026 392.5 313.354 393.26C313.682 394.02 313.846 394.836 313.846 395.708C313.846 396.58 313.682 397.4 313.354 398.168C313.026 398.936 312.574 399.612 311.998 400.196C311.422 400.772 310.75 401.224 309.982 401.552C309.222 401.88 308.406 402.044 307.534 402.044C306.686 402.044 305.95 401.852 305.326 401.468C304.702 401.076 304.19 400.576 303.79 399.968V407.708ZM307.51 391.808C306.814 391.808 306.202 391.984 305.674 392.336C305.146 392.688 304.734 393.16 304.438 393.752C304.142 394.336 303.994 394.988 303.994 395.708C303.994 396.428 304.142 397.084 304.438 397.676C304.734 398.268 305.146 398.74 305.674 399.092C306.202 399.444 306.814 399.62 307.51 399.62C308.198 399.62 308.83 399.448 309.406 399.104C309.982 398.752 310.442 398.28 310.786 397.688C311.13 397.096 311.302 396.436 311.302 395.708C311.302 394.996 311.13 394.344 310.786 393.752C310.45 393.16 309.994 392.688 309.418 392.336C308.842 391.984 308.206 391.808 307.51 391.808ZM322.068 392.204H319.548L319.536 401.708H317.04L317.052 392.204H315.144V389.708H317.052L317.04 385.94H319.536L319.548 389.708H322.068V392.204ZM324.052 389.708H326.548V401.708H324.052V389.708ZM325.324 387.968C324.94 387.968 324.62 387.844 324.364 387.596C324.108 387.348 323.98 387.036 323.98 386.66C323.98 386.292 324.108 385.984 324.364 385.736C324.62 385.48 324.936 385.352 325.312 385.352C325.68 385.352 325.992 385.48 326.248 385.736C326.504 385.984 326.632 386.292 326.632 386.66C326.632 387.036 326.504 387.348 326.248 387.596C326 387.844 325.692 387.968 325.324 387.968ZM329.349 401.708V389.708H331.845V390.98C332.261 390.484 332.769 390.092 333.369 389.804C333.977 389.516 334.633 389.372 335.337 389.372C336.193 389.372 336.981 389.58 337.701 389.996C338.421 390.404 338.993 390.948 339.417 391.628C339.841 390.948 340.405 390.404 341.109 389.996C341.821 389.58 342.605 389.372 343.461 389.372C344.349 389.372 345.157 389.588 345.885 390.02C346.613 390.452 347.193 391.032 347.625 391.76C348.057 392.488 348.273 393.296 348.273 394.184V401.708H345.777V394.82C345.777 394.292 345.649 393.808 345.393 393.368C345.137 392.928 344.793 392.572 344.361 392.3C343.929 392.028 343.449 391.892 342.921 391.892C342.393 391.892 341.913 392.02 341.481 392.276C341.049 392.532 340.705 392.88 340.449 393.32C340.193 393.76 340.065 394.26 340.065 394.82V401.708H337.569V394.82C337.569 394.26 337.441 393.76 337.185 393.32C336.929 392.88 336.581 392.532 336.141 392.276C335.709 392.02 335.229 391.892 334.701 391.892C334.181 391.892 333.701 392.028 333.261 392.3C332.829 392.572 332.485 392.928 332.229 393.368C331.973 393.808 331.845 394.292 331.845 394.82V401.708H329.349ZM350.677 389.708H353.173V401.708H350.677V389.708ZM351.949 387.968C351.565 387.968 351.245 387.844 350.989 387.596C350.733 387.348 350.605 387.036 350.605 386.66C350.605 386.292 350.733 385.984 350.989 385.736C351.245 385.48 351.561 385.352 351.937 385.352C352.305 385.352 352.617 385.48 352.873 385.736C353.129 385.984 353.257 386.292 353.257 386.66C353.257 387.036 353.129 387.348 352.873 387.596C352.625 387.844 352.317 387.968 351.949 387.968ZM365.812 392.204L359.14 399.212H365.812V401.708H355.564V399.212L362.236 392.204H355.564V389.708H365.812V392.204ZM377.334 389.708H379.83V401.708H377.322L377.226 399.968C376.874 400.584 376.398 401.08 375.798 401.456C375.198 401.832 374.49 402.02 373.674 402.02C372.794 402.02 371.966 401.856 371.19 401.528C370.414 401.192 369.73 400.728 369.138 400.136C368.554 399.544 368.098 398.864 367.77 398.096C367.442 397.32 367.278 396.488 367.278 395.6C367.278 394.744 367.438 393.94 367.758 393.188C368.078 392.428 368.522 391.764 369.09 391.196C369.658 390.628 370.314 390.184 371.058 389.864C371.81 389.536 372.614 389.372 373.47 389.372C374.342 389.372 375.11 389.572 375.774 389.972C376.446 390.364 377.002 390.868 377.442 391.484L377.334 389.708ZM373.614 399.608C374.318 399.608 374.934 399.436 375.462 399.092C375.99 398.74 376.398 398.268 376.686 397.676C376.982 397.084 377.13 396.428 377.13 395.708C377.13 394.98 376.982 394.32 376.686 393.728C376.39 393.136 375.978 392.668 375.45 392.324C374.93 391.972 374.318 391.796 373.614 391.796C372.918 391.796 372.282 391.972 371.706 392.324C371.13 392.676 370.674 393.148 370.338 393.74C370.002 394.332 369.834 394.988 369.834 395.708C369.834 396.436 370.006 397.096 370.35 397.688C370.702 398.272 371.162 398.74 371.73 399.092C372.306 399.436 372.934 399.608 373.614 399.608ZM388.56 392.204H386.04L386.028 401.708H383.532L383.544 392.204H381.636V389.708H383.544L383.532 385.94H386.028L386.04 389.708H388.56V392.204ZM390.544 389.708H393.04V401.708H390.544V389.708ZM391.816 387.968C391.432 387.968 391.112 387.844 390.856 387.596C390.6 387.348 390.472 387.036 390.472 386.66C390.472 386.292 390.6 385.984 390.856 385.736C391.112 385.48 391.428 385.352 391.804 385.352C392.172 385.352 392.484 385.48 392.74 385.736C392.996 385.984 393.124 386.292 393.124 386.66C393.124 387.036 392.996 387.348 392.74 387.596C392.492 387.844 392.184 387.968 391.816 387.968ZM400.981 402.02C399.877 402.02 398.869 401.736 397.957 401.168C397.053 400.6 396.329 399.84 395.785 398.888C395.249 397.928 394.981 396.868 394.981 395.708C394.981 394.828 395.137 394.008 395.449 393.248C395.761 392.48 396.189 391.808 396.733 391.232C397.285 390.648 397.925 390.192 398.653 389.864C399.381 389.536 400.157 389.372 400.981 389.372C402.085 389.372 403.089 389.656 403.993 390.224C404.905 390.792 405.629 391.556 406.165 392.516C406.709 393.476 406.981 394.54 406.981 395.708C406.981 396.58 406.825 397.396 406.513 398.156C406.201 398.916 405.769 399.588 405.217 400.172C404.673 400.748 404.037 401.2 403.309 401.528C402.589 401.856 401.813 402.02 400.981 402.02ZM400.981 399.524C401.645 399.524 402.241 399.348 402.769 398.996C403.297 398.644 403.713 398.18 404.017 397.604C404.329 397.02 404.485 396.388 404.485 395.708C404.485 395.012 404.325 394.372 404.005 393.788C403.693 393.204 403.273 392.74 402.745 392.396C402.217 392.044 401.629 391.868 400.981 391.868C400.325 391.868 399.729 392.044 399.193 392.396C398.665 392.748 398.245 393.216 397.933 393.8C397.629 394.384 397.477 395.02 397.477 395.708C397.477 396.42 397.637 397.064 397.957 397.64C398.277 398.216 398.701 398.676 399.229 399.02C399.765 399.356 400.349 399.524 400.981 399.524ZM419.719 394.184V401.708H417.223V394.796C417.223 394.26 417.091 393.772 416.827 393.332C416.571 392.892 416.223 392.544 415.783 392.288C415.351 392.024 414.863 391.892 414.319 391.892C413.791 391.892 413.307 392.024 412.867 392.288C412.427 392.544 412.075 392.892 411.811 393.332C411.547 393.772 411.415 394.26 411.415 394.796V401.708H408.919V389.708H411.415V390.98C411.831 390.484 412.343 390.092 412.951 389.804C413.559 389.516 414.215 389.372 414.919 389.372C415.807 389.372 416.615 389.588 417.343 390.02C418.071 390.452 418.647 391.032 419.071 391.76C419.503 392.488 419.719 393.296 419.719 394.184Z" fill="#0C1021"/>
<g filter="url(#filter7_d_4002_101)">
<rect x="281.386" y="413.708" width="135" height="35" rx="16" fill="white" shape-rendering="crispEdges"/>
<rect x="281.886" y="414.208" width="134" height="34" rx="15.5" stroke="#0C1021" stroke-opacity="0.1" shape-rendering="crispEdges"/>
<circle cx="296.886" cy="431.208" r="3.5" fill="#4268FF"/>
<path d="M313.098 425.508H314.49L318.57 436.708H317.378L316.506 434.308H311.09L310.218 436.708H309.026L313.098 425.508ZM311.498 433.188H316.09L313.794 426.884L311.498 433.188ZM319.323 433.644V428.708H320.443V433.42C320.443 433.858 320.549 434.255 320.763 434.612C320.976 434.97 321.261 435.255 321.619 435.468C321.981 435.682 322.379 435.788 322.811 435.788C323.248 435.788 323.643 435.682 323.995 435.468C324.352 435.255 324.637 434.97 324.851 434.612C325.064 434.255 325.171 433.858 325.171 433.42V428.708H326.291L326.299 436.708H325.179L325.171 435.588C324.888 435.994 324.52 436.316 324.067 436.556C323.619 436.796 323.128 436.916 322.595 436.916C321.992 436.916 321.443 436.77 320.947 436.476C320.451 436.183 320.056 435.788 319.763 435.292C319.469 434.796 319.323 434.247 319.323 433.644ZM331.981 429.828H330.069L330.061 436.708H328.941L328.949 429.828H327.501V428.708H328.949L328.941 426.196H330.061L330.069 428.708H331.981V429.828ZM336.709 436.916C335.973 436.916 335.301 436.727 334.693 436.348C334.091 435.97 333.608 435.463 333.245 434.828C332.888 434.188 332.709 433.482 332.709 432.708C332.709 432.122 332.813 431.575 333.021 431.068C333.229 430.556 333.515 430.108 333.877 429.724C334.245 429.335 334.672 429.031 335.157 428.812C335.643 428.594 336.16 428.484 336.709 428.484C337.445 428.484 338.115 428.674 338.717 429.052C339.325 429.431 339.808 429.94 340.165 430.58C340.528 431.22 340.709 431.93 340.709 432.708C340.709 433.29 340.605 433.834 340.397 434.34C340.189 434.847 339.901 435.295 339.533 435.684C339.171 436.068 338.747 436.37 338.261 436.588C337.781 436.807 337.264 436.916 336.709 436.916ZM336.709 435.796C337.253 435.796 337.741 435.655 338.173 435.372C338.611 435.084 338.955 434.706 339.205 434.236C339.461 433.767 339.589 433.258 339.589 432.708C339.589 432.148 339.461 431.634 339.205 431.164C338.949 430.69 338.603 430.311 338.165 430.028C337.733 429.746 337.248 429.604 336.709 429.604C336.165 429.604 335.675 429.748 335.237 430.036C334.805 430.319 334.461 430.695 334.205 431.164C333.955 431.634 333.829 432.148 333.829 432.708C333.829 433.284 333.96 433.807 334.221 434.276C334.483 434.74 334.832 435.111 335.269 435.388C335.707 435.66 336.187 435.796 336.709 435.796ZM342.143 431.348H347.263V432.468H342.143V431.348ZM349.189 436.708V424.708H350.309V436.708H349.189ZM355.694 436.916C354.958 436.916 354.286 436.727 353.678 436.348C353.075 435.97 352.593 435.463 352.23 434.828C351.873 434.188 351.694 433.482 351.694 432.708C351.694 432.122 351.798 431.575 352.006 431.068C352.214 430.556 352.499 430.108 352.862 429.724C353.23 429.335 353.657 429.031 354.142 428.812C354.627 428.594 355.145 428.484 355.694 428.484C356.286 428.484 356.83 428.602 357.326 428.836C357.827 429.071 358.257 429.399 358.614 429.82C358.977 430.242 359.249 430.735 359.43 431.3C359.617 431.866 359.694 432.476 359.662 433.132H352.878C352.942 433.639 353.102 434.092 353.358 434.492C353.619 434.892 353.95 435.21 354.35 435.444C354.755 435.674 355.203 435.791 355.694 435.796C356.227 435.796 356.707 435.658 357.134 435.38C357.566 435.103 357.913 434.722 358.174 434.236L359.31 434.5C358.99 435.21 358.507 435.791 357.862 436.244C357.217 436.692 356.494 436.916 355.694 436.916ZM352.846 432.228H358.534C358.497 431.732 358.345 431.279 358.078 430.868C357.817 430.452 357.478 430.122 357.062 429.876C356.646 429.626 356.19 429.5 355.694 429.5C355.198 429.5 354.745 429.623 354.334 429.868C353.923 430.108 353.587 430.436 353.326 430.852C353.065 431.263 352.905 431.722 352.846 432.228ZM367.531 428.708H368.651V436.708H367.531L367.491 435.22C367.23 435.727 366.864 436.138 366.395 436.452C365.926 436.762 365.366 436.916 364.715 436.916C364.128 436.916 363.579 436.807 363.067 436.588C362.555 436.364 362.104 436.058 361.715 435.668C361.326 435.279 361.022 434.828 360.803 434.316C360.584 433.804 360.475 433.255 360.475 432.668C360.475 432.092 360.582 431.551 360.795 431.044C361.014 430.538 361.312 430.092 361.691 429.708C362.075 429.324 362.518 429.026 363.019 428.812C363.526 428.594 364.067 428.484 364.643 428.484C365.31 428.484 365.891 428.644 366.387 428.964C366.883 429.279 367.278 429.692 367.571 430.204L367.531 428.708ZM364.691 435.828C365.262 435.828 365.752 435.69 366.163 435.412C366.574 435.13 366.888 434.751 367.107 434.276C367.331 433.802 367.443 433.279 367.443 432.708C367.443 432.122 367.331 431.594 367.107 431.124C366.883 430.65 366.566 430.274 366.155 429.996C365.744 429.719 365.256 429.58 364.691 429.58C364.126 429.58 363.608 429.722 363.139 430.004C362.675 430.282 362.304 430.658 362.027 431.132C361.755 431.607 361.619 432.132 361.619 432.708C361.619 433.29 361.76 433.818 362.043 434.292C362.326 434.762 362.699 435.135 363.163 435.412C363.632 435.69 364.142 435.828 364.691 435.828ZM370.252 436.708V428.708H371.372V429.812C371.655 429.407 372.023 429.084 372.476 428.844C372.929 428.604 373.423 428.484 373.956 428.484C374.265 428.484 374.564 428.524 374.852 428.604L374.396 429.716C374.172 429.647 373.953 429.612 373.74 429.612C373.308 429.612 372.911 429.719 372.548 429.932C372.191 430.146 371.905 430.431 371.692 430.788C371.479 431.146 371.372 431.543 371.372 431.98V436.708H370.252ZM382.869 431.756V436.708H381.749V431.98C381.749 431.543 381.642 431.146 381.429 430.788C381.215 430.431 380.93 430.146 380.573 429.932C380.215 429.719 379.818 429.612 379.381 429.612C378.949 429.612 378.551 429.719 378.189 429.932C377.831 430.146 377.546 430.431 377.333 430.788C377.119 431.146 377.013 431.543 377.013 431.98V436.708H375.893V428.708H377.013V429.812C377.295 429.407 377.663 429.084 378.117 428.844C378.57 428.604 379.063 428.484 379.597 428.484C380.199 428.484 380.749 428.631 381.245 428.924C381.741 429.218 382.135 429.612 382.429 430.108C382.722 430.604 382.869 431.154 382.869 431.756ZM384.471 428.708H385.591V436.708H384.471V428.708ZM385.039 427.308C384.857 427.308 384.703 427.25 384.575 427.132C384.452 427.01 384.391 426.858 384.391 426.676C384.391 426.495 384.452 426.346 384.575 426.228C384.703 426.106 384.857 426.044 385.039 426.044C385.215 426.044 385.364 426.106 385.487 426.228C385.615 426.346 385.679 426.495 385.679 426.676C385.679 426.858 385.617 427.01 385.495 427.132C385.372 427.25 385.22 427.308 385.039 427.308ZM394.462 431.756V436.708H393.342V431.98C393.342 431.543 393.236 431.146 393.022 430.788C392.809 430.431 392.524 430.146 392.166 429.932C391.809 429.719 391.412 429.612 390.974 429.612C390.542 429.612 390.145 429.719 389.782 429.932C389.425 430.146 389.14 430.431 388.926 430.788C388.713 431.146 388.606 431.543 388.606 431.98V436.708H387.486V428.708H388.606V429.812C388.889 429.407 389.257 429.084 389.71 428.844C390.164 428.604 390.657 428.484 391.19 428.484C391.793 428.484 392.342 428.631 392.838 428.924C393.334 429.218 393.729 429.612 394.022 430.108C394.316 430.604 394.462 431.154 394.462 431.756ZM402.268 428.708H403.388V437.004C403.388 437.516 403.276 437.996 403.052 438.444C402.834 438.892 402.535 439.284 402.156 439.62C401.783 439.962 401.356 440.228 400.876 440.42C400.396 440.612 399.898 440.708 399.38 440.708C398.826 440.708 398.29 440.58 397.772 440.324C397.255 440.074 396.804 439.738 396.42 439.316C396.042 438.895 395.772 438.428 395.612 437.916L396.644 437.444C396.746 437.844 396.935 438.204 397.212 438.524C397.495 438.85 397.826 439.106 398.204 439.292C398.588 439.484 398.98 439.58 399.38 439.58C399.748 439.58 400.103 439.511 400.444 439.372C400.791 439.239 401.1 439.055 401.372 438.82C401.65 438.586 401.868 438.311 402.028 437.996C402.188 437.687 402.268 437.356 402.268 437.004V435.236C401.991 435.738 401.615 436.143 401.14 436.452C400.671 436.762 400.124 436.916 399.5 436.916C398.94 436.916 398.412 436.807 397.916 436.588C397.426 436.37 396.994 436.068 396.62 435.684C396.247 435.295 395.954 434.847 395.74 434.34C395.532 433.834 395.428 433.29 395.428 432.708C395.428 432.127 395.532 431.583 395.74 431.076C395.954 430.564 396.247 430.116 396.62 429.732C396.994 429.343 397.426 429.039 397.916 428.82C398.412 428.602 398.94 428.492 399.5 428.492C400.124 428.492 400.671 428.647 401.14 428.956C401.615 429.26 401.991 429.666 402.268 430.172V428.708ZM399.508 435.828C400.063 435.828 400.54 435.684 400.94 435.396C401.346 435.108 401.658 434.727 401.876 434.252C402.095 433.778 402.204 433.263 402.204 432.708C402.204 432.138 402.092 431.618 401.868 431.148C401.65 430.674 401.338 430.295 400.932 430.012C400.527 429.724 400.052 429.58 399.508 429.58C398.964 429.58 398.468 429.722 398.02 430.004C397.578 430.282 397.226 430.658 396.964 431.132C396.703 431.607 396.572 432.132 396.572 432.708C396.572 433.284 396.706 433.81 396.972 434.284C397.239 434.754 397.594 435.13 398.036 435.412C398.484 435.69 398.975 435.828 399.508 435.828Z" fill="#0C1021"/>
</g>
</g>
<defs>
<filter id="filter0_d_4002_101" x="-3.05176e-05" y="-0.00012207" width="261.772" height="154.772" filterUnits="userSpaceOnUse" color-interpolation-filters="sRGB">
<feFlood flood-opacity="0" result="BackgroundImageFix"/>
<feColorMatrix in="SourceAlpha" type="matrix" values="0 0 0 0 0 0 0 0 0 0 0 0 0 0 0 0 0 0 127 0" result="hardAlpha"/>
<feOffset dy="3.67715"/>
<feGaussianBlur stdDeviation="9.19289"/>
<feComposite in2="hardAlpha" operator="out"/>
<feColorMatrix type="matrix" values="0 0 0 0 0.0468057 0 0 0 0 0.0634939 0 0 0 0 0.129808 0 0 0 0.05 0"/>
<feBlend mode="normal" in2="BackgroundImageFix" result="effect1_dropShadow_4002_101"/>
<feBlend mode="normal" in="SourceGraphic" in2="effect1_dropShadow_4002_101" result="shape"/>
</filter>
<filter id="filter1_d_4002_101" x="32.3857" y="67.7085" width="137" height="55" filterUnits="userSpaceOnUse" color-interpolation-filters="sRGB">
<feFlood flood-opacity="0" result="BackgroundImageFix"/>
<feColorMatrix in="SourceAlpha" type="matrix" values="0 0 0 0 0 0 0 0 0 0 0 0 0 0 0 0 0 0 127 0" result="hardAlpha"/>
<feOffset dy="4"/>
<feGaussianBlur stdDeviation="5"/>
<feComposite in2="hardAlpha" operator="out"/>
<feColorMatrix type="matrix" values="0 0 0 0 0 0 0 0 0 0 0 0 0 0 0 0 0 0 0.05 0"/>
<feBlend mode="normal" in2="BackgroundImageFix" result="effect1_dropShadow_4002_101"/>
<feBlend mode="normal" in="SourceGraphic" in2="effect1_dropShadow_4002_101" result="shape"/>
</filter>
<filter id="filter2_d_4002_101" x="245" y="118" width="242.772" height="154.772" filterUnits="userSpaceOnUse" color-interpolation-filters="sRGB">
<feFlood flood-opacity="0" result="BackgroundImageFix"/>
<feColorMatrix in="SourceAlpha" type="matrix" values="0 0 0 0 0 0 0 0 0 0 0 0 0 0 0 0 0 0 127 0" result="hardAlpha"/>
<feOffset dy="3.67715"/>
<feGaussianBlur stdDeviation="9.19289"/>
<feComposite in2="hardAlpha" operator="out"/>
<feColorMatrix type="matrix" values="0 0 0 0 0.0468057 0 0 0 0 0.0634939 0 0 0 0 0.129808 0 0 0 0.05 0"/>
<feBlend mode="normal" in2="BackgroundImageFix" result="effect1_dropShadow_4002_101"/>
<feBlend mode="normal" in="SourceGraphic" in2="effect1_dropShadow_4002_101" result="shape"/>
</filter>
<filter id="filter3_d_4002_101" x="277.386" y="185.708" width="103" height="55" filterUnits="userSpaceOnUse" color-interpolation-filters="sRGB">
<feFlood flood-opacity="0" result="BackgroundImageFix"/>
<feColorMatrix in="SourceAlpha" type="matrix" values="0 0 0 0 0 0 0 0 0 0 0 0 0 0 0 0 0 0 127 0" result="hardAlpha"/>
<feOffset dy="4"/>
<feGaussianBlur stdDeviation="5"/>
<feComposite in2="hardAlpha" operator="out"/>
<feColorMatrix type="matrix" values="0 0 0 0 0 0 0 0 0 0 0 0 0 0 0 0 0 0 0.05 0"/>
<feBlend mode="normal" in2="BackgroundImageFix" result="effect1_dropShadow_4002_101"/>
<feBlend mode="normal" in="SourceGraphic" in2="effect1_dropShadow_4002_101" result="shape"/>
</filter>
<filter id="filter4_d_4002_101" x="36" y="212" width="201.772" height="154.772" filterUnits="userSpaceOnUse" color-interpolation-filters="sRGB">
<feFlood flood-opacity="0" result="BackgroundImageFix"/>
<feColorMatrix in="SourceAlpha" type="matrix" values="0 0 0 0 0 0 0 0 0 0 0 0 0 0 0 0 0 0 127 0" result="hardAlpha"/>
<feOffset dy="3.67715"/>
<feGaussianBlur stdDeviation="9.19289"/>
<feComposite in2="hardAlpha" operator="out"/>
<feColorMatrix type="matrix" values="0 0 0 0 0.0468057 0 0 0 0 0.0634939 0 0 0 0 0.129808 0 0 0 0.05 0"/>
<feBlend mode="normal" in2="BackgroundImageFix" result="effect1_dropShadow_4002_101"/>
<feBlend mode="normal" in="SourceGraphic" in2="effect1_dropShadow_4002_101" result="shape"/>
</filter>
<filter id="filter5_d_4002_101" x="68.3857" y="279.708" width="137" height="55" filterUnits="userSpaceOnUse" color-interpolation-filters="sRGB">
<feFlood flood-opacity="0" result="BackgroundImageFix"/>
<feColorMatrix in="SourceAlpha" type="matrix" values="0 0 0 0 0 0 0 0 0 0 0 0 0 0 0 0 0 0 127 0" result="hardAlpha"/>
<feOffset dy="4"/>
<feGaussianBlur stdDeviation="5"/>
<feComposite in2="hardAlpha" operator="out"/>
<feColorMatrix type="matrix" values="0 0 0 0 0 0 0 0 0 0 0 0 0 0 0 0 0 0 0.05 0"/>
<feBlend mode="normal" in2="BackgroundImageFix" result="effect1_dropShadow_4002_101"/>
<feBlend mode="normal" in="SourceGraphic" in2="effect1_dropShadow_4002_101" result="shape"/>
</filter>
<filter id="filter6_d_4002_101" x="239" y="340" width="224.772" height="154.772" filterUnits="userSpaceOnUse" color-interpolation-filters="sRGB">
<feFlood flood-opacity="0" result="BackgroundImageFix"/>
<feColorMatrix in="SourceAlpha" type="matrix" values="0 0 0 0 0 0 0 0 0 0 0 0 0 0 0 0 0 0 127 0" result="hardAlpha"/>
<feOffset dy="3.67715"/>
<feGaussianBlur stdDeviation="9.19289"/>
<feComposite in2="hardAlpha" operator="out"/>
<feColorMatrix type="matrix" values="0 0 0 0 0.0468057 0 0 0 0 0.0634939 0 0 0 0 0.129808 0 0 0 0.05 0"/>
<feBlend mode="normal" in2="BackgroundImageFix" result="effect1_dropShadow_4002_101"/>
<feBlend mode="normal" in="SourceGraphic" in2="effect1_dropShadow_4002_101" result="shape"/>
</filter>
<filter id="filter7_d_4002_101" x="271.386" y="407.708" width="155" height="55" filterUnits="userSpaceOnUse" color-interpolation-filters="sRGB">
<feFlood flood-opacity="0" result="BackgroundImageFix"/>
<feColorMatrix in="SourceAlpha" type="matrix" values="0 0 0 0 0 0 0 0 0 0 0 0 0 0 0 0 0 0 127 0" result="hardAlpha"/>
<feOffset dy="4"/>
<feGaussianBlur stdDeviation="5"/>
<feComposite in2="hardAlpha" operator="out"/>
<feColorMatrix type="matrix" values="0 0 0 0 0 0 0 0 0 0 0 0 0 0 0 0 0 0 0.05 0"/>
<feBlend mode="normal" in2="BackgroundImageFix" result="effect1_dropShadow_4002_101"/>
<feBlend mode="normal" in="SourceGraphic" in2="effect1_dropShadow_4002_101" result="shape"/>
</filter>
</defs>
</svg>
