<svg width="464" height="278" viewBox="0 0 464 278" fill="none" xmlns="http://www.w3.org/2000/svg">
<g filter="url(#filter0_d_2076_29583)">
<rect x="18.3857" y="14.7085" width="427" height="241" rx="22.0629" fill="white" shape-rendering="crispEdges"/>
<rect x="18.8454" y="15.1681" width="426.081" height="240.081" rx="21.6033" stroke="#0C1021" stroke-opacity="0.05" stroke-width="0.919289" shape-rendering="crispEdges"/>
<path d="M43.8257 61.7085V44.9085H46.3217V59.2125H53.5577V61.7085H43.8257ZM64.4586 49.7085H66.9546V61.7085H64.4466L64.3506 59.9685C63.9986 60.5845 63.5226 61.0805 62.9226 61.4565C62.3226 61.8325 61.6146 62.0205 60.7986 62.0205C59.9186 62.0205 59.0906 61.8565 58.3146 61.5285C57.5386 61.1925 56.8546 60.7285 56.2626 60.1365C55.6786 59.5445 55.2226 58.8645 54.8946 58.0965C54.5666 57.3205 54.4026 56.4885 54.4026 55.6005C54.4026 54.7445 54.5626 53.9405 54.8826 53.1885C55.2026 52.4285 55.6466 51.7645 56.2146 51.1965C56.7826 50.6285 57.4386 50.1845 58.1826 49.8645C58.9346 49.5365 59.7386 49.3725 60.5946 49.3725C61.4666 49.3725 62.2346 49.5725 62.8986 49.9725C63.5706 50.3645 64.1266 50.8685 64.5666 51.4845L64.4586 49.7085ZM60.7386 59.6085C61.4426 59.6085 62.0586 59.4365 62.5866 59.0925C63.1146 58.7405 63.5226 58.2685 63.8106 57.6765C64.1066 57.0845 64.2546 56.4285 64.2546 55.7085C64.2546 54.9805 64.1066 54.3205 63.8106 53.7285C63.5146 53.1365 63.1026 52.6685 62.5746 52.3245C62.0546 51.9725 61.4426 51.7965 60.7386 51.7965C60.0426 51.7965 59.4066 51.9725 58.8306 52.3245C58.2546 52.6765 57.7986 53.1485 57.4626 53.7405C57.1266 54.3325 56.9586 54.9885 56.9586 55.7085C56.9586 56.4365 57.1306 57.0965 57.4746 57.6885C57.8266 58.2725 58.2866 58.7405 58.8546 59.0925C59.4306 59.4365 60.0586 59.6085 60.7386 59.6085ZM80.1492 54.1845V61.7085H77.6532V54.7965C77.6532 54.2605 77.5212 53.7725 77.2572 53.3325C77.0012 52.8925 76.6532 52.5445 76.2132 52.2885C75.7812 52.0245 75.2932 51.8925 74.7492 51.8925C74.2212 51.8925 73.7372 52.0245 73.2972 52.2885C72.8572 52.5445 72.5052 52.8925 72.2412 53.3325C71.9772 53.7725 71.8452 54.2605 71.8452 54.7965V61.7085H69.3492V49.7085H71.8452V50.9805C72.2612 50.4845 72.7732 50.0925 73.3812 49.8045C73.9892 49.5165 74.6452 49.3725 75.3492 49.3725C76.2372 49.3725 77.0452 49.5885 77.7732 50.0205C78.5012 50.4525 79.0772 51.0325 79.5012 51.7605C79.9332 52.4885 80.1492 53.2965 80.1492 54.1845ZM91.4421 49.7085H93.9381V62.0205C93.9381 62.8445 93.7621 63.6045 93.4101 64.3005C93.0661 64.9965 92.5981 65.5965 92.0061 66.1005C91.4141 66.6125 90.7341 67.0085 89.9661 67.2885C89.2061 67.5685 88.4101 67.7085 87.5781 67.7085C86.7381 67.7085 85.9301 67.5285 85.1541 67.1685C84.3781 66.8165 83.6941 66.3365 83.1021 65.7285C82.5181 65.1205 82.0821 64.4325 81.7941 63.6645L84.0861 62.6325C84.2461 63.1285 84.5021 63.5685 84.8541 63.9525C85.2141 64.3365 85.6301 64.6405 86.1021 64.8645C86.5821 65.0885 87.0741 65.2005 87.5781 65.2005C88.0741 65.2005 88.5501 65.1205 89.0061 64.9605C89.4701 64.8085 89.8821 64.5925 90.2421 64.3125C90.6101 64.0325 90.9021 63.6965 91.1181 63.3045C91.3341 62.9125 91.4421 62.4845 91.4421 62.0205V59.9925C91.0501 60.6005 90.5461 61.0925 89.9301 61.4685C89.3141 61.8365 88.5981 62.0205 87.7821 62.0205C86.9341 62.0205 86.1341 61.8565 85.3821 61.5285C84.6301 61.2005 83.9701 60.7485 83.4021 60.1725C82.8341 59.5885 82.3901 58.9165 82.0701 58.1565C81.7501 57.3965 81.5901 56.5805 81.5901 55.7085C81.5901 54.8365 81.7501 54.0205 82.0701 53.2605C82.3901 52.4925 82.8341 51.8205 83.4021 51.2445C83.9701 50.6605 84.6301 50.2045 85.3821 49.8765C86.1341 49.5485 86.9341 49.3845 87.7821 49.3845C88.5981 49.3845 89.3141 49.5725 89.9301 49.9485C90.5461 50.3165 91.0501 50.8085 91.4421 51.4245V49.7085ZM87.8061 59.6085C88.5021 59.6085 89.1101 59.4325 89.6301 59.0805C90.1501 58.7205 90.5541 58.2445 90.8421 57.6525C91.1301 57.0605 91.2741 56.4125 91.2741 55.7085C91.2741 54.9885 91.1261 54.3365 90.8301 53.7525C90.5421 53.1605 90.1381 52.6885 89.6181 52.3365C89.0981 51.9765 88.4941 51.7965 87.8061 51.7965C87.1341 51.7965 86.5181 51.9725 85.9581 52.3245C85.4061 52.6765 84.9661 53.1485 84.6381 53.7405C84.3101 54.3325 84.1461 54.9885 84.1461 55.7085C84.1461 56.4285 84.3101 57.0845 84.6381 57.6765C84.9741 58.2685 85.4181 58.7405 85.9701 59.0925C86.5301 59.4365 87.1421 59.6085 87.8061 59.6085ZM96.0567 57.2085V49.7085H98.5527V56.5965C98.5527 57.1325 98.6847 57.6205 98.9487 58.0605C99.2127 58.5005 99.5647 58.8525 100.005 59.1165C100.445 59.3725 100.929 59.5005 101.457 59.5005C101.993 59.5005 102.477 59.3725 102.909 59.1165C103.349 58.8525 103.697 58.5005 103.953 58.0605C104.217 57.6205 104.349 57.1325 104.349 56.5965V49.7085H106.845L106.857 61.7085H104.361L104.349 60.4125C103.941 60.9085 103.433 61.3005 102.825 61.5885C102.217 61.8765 101.565 62.0205 100.869 62.0205C99.9807 62.0205 99.1727 61.8045 98.4447 61.3725C97.7167 60.9405 97.1367 60.3605 96.7047 59.6325C96.2727 58.9045 96.0567 58.0965 96.0567 57.2085ZM118.435 49.7085H120.931V61.7085H118.423L118.327 59.9685C117.975 60.5845 117.499 61.0805 116.899 61.4565C116.299 61.8325 115.591 62.0205 114.775 62.0205C113.895 62.0205 113.067 61.8565 112.291 61.5285C111.515 61.1925 110.831 60.7285 110.239 60.1365C109.655 59.5445 109.199 58.8645 108.871 58.0965C108.543 57.3205 108.379 56.4885 108.379 55.6005C108.379 54.7445 108.539 53.9405 108.859 53.1885C109.179 52.4285 109.623 51.7645 110.191 51.1965C110.759 50.6285 111.415 50.1845 112.159 49.8645C112.911 49.5365 113.715 49.3725 114.571 49.3725C115.443 49.3725 116.211 49.5725 116.875 49.9725C117.547 50.3645 118.103 50.8685 118.543 51.4845L118.435 49.7085ZM114.715 59.6085C115.419 59.6085 116.035 59.4365 116.563 59.0925C117.091 58.7405 117.499 58.2685 117.787 57.6765C118.083 57.0845 118.231 56.4285 118.231 55.7085C118.231 54.9805 118.083 54.3205 117.787 53.7285C117.491 53.1365 117.079 52.6685 116.551 52.3245C116.031 51.9725 115.419 51.7965 114.715 51.7965C114.019 51.7965 113.383 51.9725 112.807 52.3245C112.231 52.6765 111.775 53.1485 111.439 53.7405C111.103 54.3325 110.935 54.9885 110.935 55.7085C110.935 56.4365 111.107 57.0965 111.451 57.6885C111.803 58.2725 112.263 58.7405 112.831 59.0925C113.407 59.4365 114.035 59.6085 114.715 59.6085ZM132.223 49.7085H134.719V62.0205C134.719 62.8445 134.543 63.6045 134.191 64.3005C133.847 64.9965 133.379 65.5965 132.787 66.1005C132.195 66.6125 131.515 67.0085 130.747 67.2885C129.987 67.5685 129.191 67.7085 128.359 67.7085C127.519 67.7085 126.711 67.5285 125.935 67.1685C125.159 66.8165 124.475 66.3365 123.883 65.7285C123.299 65.1205 122.863 64.4325 122.575 63.6645L124.867 62.6325C125.027 63.1285 125.283 63.5685 125.635 63.9525C125.995 64.3365 126.411 64.6405 126.883 64.8645C127.363 65.0885 127.855 65.2005 128.359 65.2005C128.855 65.2005 129.331 65.1205 129.787 64.9605C130.251 64.8085 130.663 64.5925 131.023 64.3125C131.391 64.0325 131.683 63.6965 131.899 63.3045C132.115 62.9125 132.223 62.4845 132.223 62.0205V59.9925C131.831 60.6005 131.327 61.0925 130.711 61.4685C130.095 61.8365 129.379 62.0205 128.563 62.0205C127.715 62.0205 126.915 61.8565 126.163 61.5285C125.411 61.2005 124.751 60.7485 124.183 60.1725C123.615 59.5885 123.171 58.9165 122.851 58.1565C122.531 57.3965 122.371 56.5805 122.371 55.7085C122.371 54.8365 122.531 54.0205 122.851 53.2605C123.171 52.4925 123.615 51.8205 124.183 51.2445C124.751 50.6605 125.411 50.2045 126.163 49.8765C126.915 49.5485 127.715 49.3845 128.563 49.3845C129.379 49.3845 130.095 49.5725 130.711 49.9485C131.327 50.3165 131.831 50.8085 132.223 51.4245V49.7085ZM128.587 59.6085C129.283 59.6085 129.891 59.4325 130.411 59.0805C130.931 58.7205 131.335 58.2445 131.623 57.6525C131.911 57.0605 132.055 56.4125 132.055 55.7085C132.055 54.9885 131.907 54.3365 131.611 53.7525C131.323 53.1605 130.919 52.6885 130.399 52.3365C129.879 51.9765 129.275 51.7965 128.587 51.7965C127.915 51.7965 127.299 51.9725 126.739 52.3245C126.187 52.6765 125.747 53.1485 125.419 53.7405C125.091 54.3325 124.927 54.9885 124.927 55.7085C124.927 56.4285 125.091 57.0845 125.419 57.6765C125.755 58.2685 126.199 58.7405 126.751 59.0925C127.311 59.4365 127.923 59.6085 128.587 59.6085ZM142.668 62.0205C141.564 62.0205 140.556 61.7365 139.644 61.1685C138.74 60.6005 138.016 59.8405 137.472 58.8885C136.936 57.9285 136.668 56.8685 136.668 55.7085C136.668 54.8285 136.824 54.0085 137.136 53.2485C137.448 52.4805 137.876 51.8085 138.42 51.2325C138.972 50.6485 139.612 50.1925 140.34 49.8645C141.068 49.5365 141.844 49.3725 142.668 49.3725C143.588 49.3725 144.432 49.5645 145.2 49.9485C145.968 50.3245 146.624 50.8485 147.168 51.5205C147.712 52.1845 148.112 52.9525 148.368 53.8245C148.624 54.6885 148.7 55.6085 148.596 56.5845H139.344C139.448 57.1365 139.648 57.6365 139.944 58.0845C140.248 58.5245 140.632 58.8725 141.096 59.1285C141.568 59.3845 142.092 59.5165 142.668 59.5245C143.276 59.5245 143.828 59.3725 144.324 59.0685C144.828 58.7645 145.24 58.3445 145.56 57.8085L148.092 58.3965C147.612 59.4605 146.888 60.3325 145.92 61.0125C144.952 61.6845 143.868 62.0205 142.668 62.0205ZM139.26 54.6765H146.076C145.996 54.1005 145.792 53.5805 145.464 53.1165C145.144 52.6445 144.74 52.2725 144.252 52.0005C143.772 51.7205 143.244 51.5805 142.668 51.5805C142.1 51.5805 141.572 51.7165 141.084 51.9885C140.604 52.2605 140.204 52.6325 139.884 53.1045C139.572 53.5685 139.364 54.0925 139.26 54.6765ZM156.56 61.7085V44.9085H162.116C163.276 44.9085 164.364 45.1285 165.38 45.5685C166.396 46.0005 167.288 46.6045 168.056 47.3805C168.824 48.1485 169.424 49.0405 169.856 50.0565C170.296 51.0645 170.516 52.1485 170.516 53.3085C170.516 54.4685 170.296 55.5565 169.856 56.5725C169.424 57.5805 168.824 58.4725 168.056 59.2485C167.288 60.0165 166.396 60.6205 165.38 61.0605C164.364 61.4925 163.276 61.7085 162.116 61.7085H156.56ZM159.056 59.2125H162.116C162.932 59.2125 163.692 59.0605 164.396 58.7565C165.108 58.4525 165.736 58.0285 166.28 57.4845C166.832 56.9405 167.26 56.3125 167.564 55.6005C167.868 54.8885 168.02 54.1245 168.02 53.3085C168.02 52.4925 167.868 51.7285 167.564 51.0165C167.26 50.3045 166.832 49.6765 166.28 49.1325C165.736 48.5885 165.108 48.1645 164.396 47.8605C163.692 47.5565 162.932 47.4045 162.116 47.4045H159.056V59.2125ZM177.684 62.0205C176.58 62.0205 175.572 61.7365 174.66 61.1685C173.756 60.6005 173.032 59.8405 172.488 58.8885C171.952 57.9285 171.684 56.8685 171.684 55.7085C171.684 54.8285 171.84 54.0085 172.152 53.2485C172.464 52.4805 172.892 51.8085 173.436 51.2325C173.988 50.6485 174.628 50.1925 175.356 49.8645C176.084 49.5365 176.86 49.3725 177.684 49.3725C178.604 49.3725 179.448 49.5645 180.216 49.9485C180.984 50.3245 181.64 50.8485 182.184 51.5205C182.728 52.1845 183.128 52.9525 183.384 53.8245C183.64 54.6885 183.716 55.6085 183.612 56.5845H174.36C174.464 57.1365 174.664 57.6365 174.96 58.0845C175.264 58.5245 175.648 58.8725 176.112 59.1285C176.584 59.3845 177.108 59.5165 177.684 59.5245C178.292 59.5245 178.844 59.3725 179.34 59.0685C179.844 58.7645 180.256 58.3445 180.576 57.8085L183.108 58.3965C182.628 59.4605 181.904 60.3325 180.936 61.0125C179.968 61.6845 178.884 62.0205 177.684 62.0205ZM174.276 54.6765H181.092C181.012 54.1005 180.808 53.5805 180.48 53.1165C180.16 52.6445 179.756 52.2725 179.268 52.0005C178.788 51.7205 178.26 51.5805 177.684 51.5805C177.116 51.5805 176.588 51.7165 176.1 51.9885C175.62 52.2605 175.22 52.6325 174.9 53.1045C174.588 53.5685 174.38 54.0925 174.276 54.6765ZM191.865 52.2045H189.345L189.333 61.7085H186.837L186.849 52.2045H184.941V49.7085H186.849L186.837 45.9405H189.333L189.345 49.7085H191.865V52.2045ZM199.012 62.0205C197.908 62.0205 196.9 61.7365 195.988 61.1685C195.084 60.6005 194.36 59.8405 193.816 58.8885C193.28 57.9285 193.012 56.8685 193.012 55.7085C193.012 54.8285 193.168 54.0085 193.48 53.2485C193.792 52.4805 194.22 51.8085 194.764 51.2325C195.316 50.6485 195.956 50.1925 196.684 49.8645C197.412 49.5365 198.188 49.3725 199.012 49.3725C199.932 49.3725 200.776 49.5645 201.544 49.9485C202.312 50.3245 202.968 50.8485 203.512 51.5205C204.056 52.1845 204.456 52.9525 204.712 53.8245C204.968 54.6885 205.044 55.6085 204.94 56.5845H195.688C195.792 57.1365 195.992 57.6365 196.288 58.0845C196.592 58.5245 196.976 58.8725 197.44 59.1285C197.912 59.3845 198.436 59.5165 199.012 59.5245C199.62 59.5245 200.172 59.3725 200.668 59.0685C201.172 58.7645 201.584 58.3445 201.904 57.8085L204.436 58.3965C203.956 59.4605 203.232 60.3325 202.264 61.0125C201.296 61.6845 200.212 62.0205 199.012 62.0205ZM195.604 54.6765H202.42C202.34 54.1005 202.136 53.5805 201.808 53.1165C201.488 52.6445 201.084 52.2725 200.596 52.0005C200.116 51.7205 199.588 51.5805 199.012 51.5805C198.444 51.5805 197.916 51.7165 197.428 51.9885C196.948 52.2605 196.548 52.6325 196.228 53.1045C195.916 53.5685 195.708 54.0925 195.604 54.6765ZM214.74 58.3005L216.972 59.5125C216.428 60.2725 215.736 60.8805 214.896 61.3365C214.064 61.7925 213.16 62.0205 212.184 62.0205C211.08 62.0205 210.072 61.7365 209.16 61.1685C208.256 60.6005 207.532 59.8405 206.988 58.8885C206.452 57.9285 206.184 56.8685 206.184 55.7085C206.184 54.8285 206.34 54.0085 206.652 53.2485C206.964 52.4805 207.392 51.8085 207.936 51.2325C208.488 50.6485 209.128 50.1925 209.856 49.8645C210.584 49.5365 211.36 49.3725 212.184 49.3725C213.16 49.3725 214.064 49.6005 214.896 50.0565C215.736 50.5125 216.428 51.1245 216.972 51.8925L214.74 53.1045C214.404 52.7045 214.012 52.4005 213.564 52.1925C213.116 51.9765 212.656 51.8685 212.184 51.8685C211.528 51.8685 210.932 52.0485 210.396 52.4085C209.868 52.7605 209.448 53.2285 209.136 53.8125C208.832 54.3885 208.68 55.0205 208.68 55.7085C208.68 56.3885 208.836 57.0205 209.148 57.6045C209.46 58.1805 209.88 58.6445 210.408 58.9965C210.944 59.3485 211.536 59.5245 212.184 59.5245C212.68 59.5245 213.152 59.4125 213.6 59.1885C214.048 58.9645 214.428 58.6685 214.74 58.3005ZM225.474 52.2045H222.954L222.942 61.7085H220.446L220.458 52.2045H218.55V49.7085H220.458L220.446 45.9405H222.942L222.954 49.7085H225.474V52.2045ZM227.459 49.7085H229.955V61.7085H227.459V49.7085ZM228.731 47.9685C228.347 47.9685 228.027 47.8445 227.771 47.5965C227.515 47.3485 227.387 47.0365 227.387 46.6605C227.387 46.2925 227.515 45.9845 227.771 45.7365C228.027 45.4805 228.343 45.3525 228.719 45.3525C229.087 45.3525 229.399 45.4805 229.655 45.7365C229.911 45.9845 230.039 46.2925 230.039 46.6605C230.039 47.0365 229.911 47.3485 229.655 47.5965C229.407 47.8445 229.099 47.9685 228.731 47.9685ZM237.895 62.0205C236.791 62.0205 235.783 61.7365 234.871 61.1685C233.967 60.6005 233.243 59.8405 232.699 58.8885C232.163 57.9285 231.895 56.8685 231.895 55.7085C231.895 54.8285 232.051 54.0085 232.363 53.2485C232.675 52.4805 233.103 51.8085 233.647 51.2325C234.199 50.6485 234.839 50.1925 235.567 49.8645C236.295 49.5365 237.071 49.3725 237.895 49.3725C238.999 49.3725 240.003 49.6565 240.907 50.2245C241.819 50.7925 242.543 51.5565 243.079 52.5165C243.623 53.4765 243.895 54.5405 243.895 55.7085C243.895 56.5805 243.739 57.3965 243.427 58.1565C243.115 58.9165 242.683 59.5885 242.131 60.1725C241.587 60.7485 240.951 61.2005 240.223 61.5285C239.503 61.8565 238.727 62.0205 237.895 62.0205ZM237.895 59.5245C238.559 59.5245 239.155 59.3485 239.683 58.9965C240.211 58.6445 240.627 58.1805 240.931 57.6045C241.243 57.0205 241.399 56.3885 241.399 55.7085C241.399 55.0125 241.239 54.3725 240.919 53.7885C240.607 53.2045 240.187 52.7405 239.659 52.3965C239.131 52.0445 238.543 51.8685 237.895 51.8685C237.239 51.8685 236.643 52.0445 236.107 52.3965C235.579 52.7485 235.159 53.2165 234.847 53.8005C234.543 54.3845 234.391 55.0205 234.391 55.7085C234.391 56.4205 234.551 57.0645 234.871 57.6405C235.191 58.2165 235.615 58.6765 236.143 59.0205C236.679 59.3565 237.263 59.5245 237.895 59.5245ZM256.634 54.1845V61.7085H254.138V54.7965C254.138 54.2605 254.006 53.7725 253.742 53.3325C253.486 52.8925 253.138 52.5445 252.698 52.2885C252.266 52.0245 251.778 51.8925 251.234 51.8925C250.706 51.8925 250.222 52.0245 249.782 52.2885C249.342 52.5445 248.99 52.8925 248.726 53.3325C248.462 53.7725 248.33 54.2605 248.33 54.7965V61.7085H245.834V49.7085H248.33V50.9805C248.746 50.4845 249.258 50.0925 249.866 49.8045C250.474 49.5165 251.13 49.3725 251.834 49.3725C252.722 49.3725 253.53 49.5885 254.258 50.0205C254.986 50.4525 255.562 51.0325 255.986 51.7605C256.418 52.4885 256.634 53.2965 256.634 54.1845Z" fill="#0C1021"/>
<path d="M47.7617 86.8905C47.0991 86.8905 46.4761 86.7598 45.8927 86.4985C45.3094 86.2325 44.7961 85.8685 44.3527 85.4065C43.9141 84.9398 43.5687 84.3985 43.3167 83.7825C43.0694 83.1665 42.9457 82.5085 42.9457 81.8085C42.9457 81.1085 43.0694 80.4505 43.3167 79.8345C43.5687 79.2185 43.9141 78.6795 44.3527 78.2175C44.7961 77.7508 45.3094 77.3868 45.8927 77.1255C46.4761 76.8595 47.0991 76.7265 47.7617 76.7265C48.5551 76.7265 49.2854 76.9108 49.9527 77.2795C50.6201 77.6482 51.1731 78.1382 51.6117 78.7495L50.7437 79.2185C50.3984 78.7565 49.9597 78.3902 49.4277 78.1195C48.9004 77.8442 48.3451 77.7065 47.7617 77.7065C47.2251 77.7065 46.7234 77.8162 46.2567 78.0355C45.7947 78.2502 45.3887 78.5465 45.0387 78.9245C44.6887 79.3025 44.4157 79.7388 44.2197 80.2335C44.0237 80.7282 43.9257 81.2532 43.9257 81.8085C43.9257 82.3732 44.0237 82.9028 44.2197 83.3975C44.4204 83.8922 44.6957 84.3285 45.0457 84.7065C45.4004 85.0845 45.8087 85.3808 46.2707 85.5955C46.7374 85.8055 47.2344 85.9105 47.7617 85.9105C48.3684 85.9105 48.9307 85.7728 49.4487 85.4975C49.9714 85.2175 50.4031 84.8535 50.7437 84.4055L51.6117 84.8745C51.1731 85.4858 50.6201 85.9758 49.9527 86.3445C49.2854 86.7085 48.5551 86.8905 47.7617 86.8905ZM58.4133 79.7085H59.3933V86.7085H58.4133L58.3783 85.4065C58.1497 85.8498 57.83 86.2092 57.4193 86.4845C57.0087 86.7552 56.5187 86.8905 55.9493 86.8905C55.436 86.8905 54.9553 86.7948 54.5073 86.6035C54.0593 86.4075 53.665 86.1392 53.3243 85.7985C52.9837 85.4578 52.7177 85.0635 52.5263 84.6155C52.335 84.1675 52.2393 83.6868 52.2393 83.1735C52.2393 82.6695 52.3327 82.1958 52.5193 81.7525C52.7107 81.3092 52.972 80.9195 53.3033 80.5835C53.6393 80.2475 54.0267 79.9862 54.4653 79.7995C54.9087 79.6082 55.3823 79.5125 55.8863 79.5125C56.4697 79.5125 56.9783 79.6525 57.4123 79.9325C57.8463 80.2078 58.1917 80.5695 58.4483 81.0175L58.4133 79.7085ZM55.9283 85.9385C56.4277 85.9385 56.857 85.8172 57.2163 85.5745C57.5757 85.3272 57.851 84.9958 58.0423 84.5805C58.2383 84.1652 58.3363 83.7078 58.3363 83.2085C58.3363 82.6952 58.2383 82.2332 58.0423 81.8225C57.8463 81.4072 57.5687 81.0782 57.2093 80.8355C56.85 80.5928 56.423 80.4715 55.9283 80.4715C55.4337 80.4715 54.981 80.5952 54.5703 80.8425C54.1643 81.0852 53.84 81.4142 53.5973 81.8295C53.3593 82.2448 53.2403 82.7045 53.2403 83.2085C53.2403 83.7172 53.364 84.1792 53.6113 84.5945C53.8587 85.0052 54.1853 85.3318 54.5913 85.5745C55.002 85.8172 55.4477 85.9385 55.9283 85.9385ZM60.8898 86.7085V76.2085H61.8698V86.7085H60.8898ZM63.5558 86.7085V76.2085H64.5358V86.7085H63.5558ZM74.5831 84.9515L75.4581 85.4275C75.1408 85.8708 74.7371 86.2255 74.2471 86.4915C73.7618 86.7575 73.2345 86.8905 72.6651 86.8905C72.0211 86.8905 71.4331 86.7248 70.9011 86.3935C70.3738 86.0622 69.9515 85.6188 69.6341 85.0635C69.3215 84.5035 69.1651 83.8852 69.1651 83.2085C69.1651 82.6952 69.2561 82.2168 69.4381 81.7735C69.6201 81.3255 69.8698 80.9335 70.1871 80.5975C70.5091 80.2568 70.8825 79.9908 71.3071 79.7995C71.7318 79.6082 72.1845 79.5125 72.6651 79.5125C73.2345 79.5125 73.7618 79.6455 74.2471 79.9115C74.7371 80.1775 75.1408 80.5345 75.4581 80.9825L74.5831 81.4515C74.3405 81.1435 74.0488 80.9078 73.7081 80.7445C73.3675 80.5765 73.0198 80.4925 72.6651 80.4925C72.1938 80.4925 71.7668 80.6185 71.3841 80.8705C71.0015 81.1178 70.6981 81.4468 70.4741 81.8575C70.2548 82.2682 70.1451 82.7185 70.1451 83.2085C70.1451 83.6985 70.2571 84.1488 70.4811 84.5595C70.7098 84.9702 71.0155 85.2992 71.3981 85.5465C71.7808 85.7892 72.2031 85.9105 72.6651 85.9105C73.0478 85.9105 73.4071 85.8218 73.7431 85.6445C74.0791 85.4672 74.3591 85.2362 74.5831 84.9515ZM79.7061 86.8905C79.0621 86.8905 78.4741 86.7248 77.9421 86.3935C77.4148 86.0622 76.9925 85.6188 76.6751 85.0635C76.3625 84.5035 76.2061 83.8852 76.2061 83.2085C76.2061 82.6952 76.2971 82.2168 76.4791 81.7735C76.6611 81.3255 76.9108 80.9335 77.2281 80.5975C77.5501 80.2568 77.9235 79.9908 78.3481 79.7995C78.7728 79.6082 79.2255 79.5125 79.7061 79.5125C80.3501 79.5125 80.9358 79.6782 81.4631 80.0095C81.9951 80.3408 82.4175 80.7865 82.7301 81.3465C83.0475 81.9065 83.2061 82.5272 83.2061 83.2085C83.2061 83.7172 83.1151 84.1932 82.9331 84.6365C82.7511 85.0798 82.4991 85.4718 82.1771 85.8125C81.8598 86.1485 81.4888 86.4122 81.0641 86.6035C80.6441 86.7948 80.1915 86.8905 79.7061 86.8905ZM79.7061 85.9105C80.1821 85.9105 80.6091 85.7868 80.9871 85.5395C81.3698 85.2875 81.6708 84.9562 81.8901 84.5455C82.1141 84.1348 82.2261 83.6892 82.2261 83.2085C82.2261 82.7185 82.1141 82.2682 81.8901 81.8575C81.6661 81.4422 81.3628 81.1108 80.9801 80.8635C80.6021 80.6162 80.1775 80.4925 79.7061 80.4925C79.2301 80.4925 78.8008 80.6185 78.4181 80.8705C78.0401 81.1178 77.7391 81.4468 77.5151 81.8575C77.2958 82.2682 77.1861 82.7185 77.1861 83.2085C77.1861 83.7125 77.3005 84.1698 77.5291 84.5805C77.7578 84.9865 78.0635 85.3108 78.4461 85.5535C78.8288 85.7915 79.2488 85.9105 79.7061 85.9105ZM90.4958 82.3755V86.7085H89.5158V82.5715C89.5158 82.1888 89.4224 81.8412 89.2358 81.5285C89.0491 81.2158 88.7994 80.9662 88.4868 80.7795C88.1741 80.5928 87.8264 80.4995 87.4438 80.4995C87.0658 80.4995 86.7181 80.5928 86.4008 80.7795C86.0881 80.9662 85.8384 81.2158 85.6518 81.5285C85.4651 81.8412 85.3718 82.1888 85.3718 82.5715V86.7085H84.3918V79.7085H85.3718V80.6745C85.6191 80.3198 85.9411 80.0375 86.3378 79.8275C86.7344 79.6175 87.1661 79.5125 87.6328 79.5125C88.1601 79.5125 88.6408 79.6408 89.0748 79.8975C89.5088 80.1542 89.8541 80.4995 90.1108 80.9335C90.3674 81.3675 90.4958 81.8482 90.4958 82.3755ZM95.4746 80.6885H93.8016L93.7946 86.7085H92.8146L92.8216 80.6885H91.5546V79.7085H92.8216L92.8146 77.5105H93.7946L93.8016 79.7085H95.4746V80.6885ZM96.6691 79.7085H97.6491V86.7085H96.6691V79.7085ZM97.1661 78.4835C97.0074 78.4835 96.8721 78.4322 96.7601 78.3295C96.6528 78.2222 96.5991 78.0892 96.5991 77.9305C96.5991 77.7718 96.6528 77.6412 96.7601 77.5385C96.8721 77.4312 97.0074 77.3775 97.1661 77.3775C97.3201 77.3775 97.4508 77.4312 97.5581 77.5385C97.6701 77.6412 97.7261 77.7718 97.7261 77.9305C97.7261 78.0892 97.6724 78.2222 97.5651 78.3295C97.4578 78.4322 97.3248 78.4835 97.1661 78.4835ZM105.412 82.3755V86.7085H104.432V82.5715C104.432 82.1888 104.338 81.8412 104.152 81.5285C103.965 81.2158 103.715 80.9662 103.403 80.7795C103.09 80.5928 102.742 80.4995 102.36 80.4995C101.982 80.4995 101.634 80.5928 101.317 80.7795C101.004 80.9662 100.754 81.2158 100.568 81.5285C100.381 81.8412 100.288 82.1888 100.288 82.5715V86.7085H99.3078V79.7085H100.288V80.6745C100.535 80.3198 100.857 80.0375 101.254 79.8275C101.65 79.6175 102.082 79.5125 102.549 79.5125C103.076 79.5125 103.557 79.6408 103.991 79.8975C104.425 80.1542 104.77 80.4995 105.027 80.9335C105.283 81.3675 105.412 81.8482 105.412 82.3755ZM106.534 84.0275V79.7085H107.514V83.8315C107.514 84.2142 107.607 84.5618 107.794 84.8745C107.98 85.1872 108.23 85.4368 108.543 85.6235C108.86 85.8102 109.208 85.9035 109.586 85.9035C109.968 85.9035 110.314 85.8102 110.622 85.6235C110.934 85.4368 111.184 85.1872 111.371 84.8745C111.557 84.5618 111.651 84.2142 111.651 83.8315V79.7085H112.631L112.638 86.7085H111.658L111.651 85.7285C111.403 86.0832 111.081 86.3655 110.685 86.5755C110.293 86.7855 109.863 86.8905 109.397 86.8905C108.869 86.8905 108.389 86.7622 107.955 86.5055C107.521 86.2488 107.175 85.9035 106.919 85.4695C106.662 85.0355 106.534 84.5548 106.534 84.0275ZM117.058 86.8905C116.414 86.8905 115.826 86.7248 115.294 86.3935C114.766 86.0622 114.344 85.6188 114.027 85.0635C113.714 84.5035 113.558 83.8852 113.558 83.2085C113.558 82.6952 113.649 82.2168 113.831 81.7735C114.013 81.3255 114.262 80.9335 114.58 80.5975C114.902 80.2568 115.275 79.9908 115.7 79.7995C116.124 79.6082 116.577 79.5125 117.058 79.5125C117.576 79.5125 118.052 79.6152 118.486 79.8205C118.924 80.0258 119.3 80.3128 119.613 80.6815C119.93 81.0502 120.168 81.4818 120.327 81.9765C120.49 82.4712 120.558 83.0055 120.53 83.5795H114.594C114.65 84.0228 114.79 84.4195 115.014 84.7695C115.242 85.1195 115.532 85.3972 115.882 85.6025C116.236 85.8032 116.628 85.9058 117.058 85.9105C117.524 85.9105 117.944 85.7892 118.318 85.5465C118.696 85.3038 118.999 84.9702 119.228 84.5455L120.222 84.7765C119.942 85.3972 119.519 85.9058 118.955 86.3025C118.39 86.6945 117.758 86.8905 117.058 86.8905ZM114.566 82.7885H119.543C119.51 82.3545 119.377 81.9578 119.144 81.5985C118.915 81.2345 118.619 80.9452 118.255 80.7305C117.891 80.5112 117.492 80.4015 117.058 80.4015C116.624 80.4015 116.227 80.5088 115.868 80.7235C115.508 80.9335 115.214 81.2205 114.986 81.5845C114.757 81.9438 114.617 82.3452 114.566 82.7885ZM123.906 86.8415C123.524 86.8322 123.15 86.7622 122.786 86.6315C122.422 86.5008 122.105 86.3235 121.834 86.0995C121.564 85.8755 121.37 85.6212 121.253 85.3365L122.1 84.9725C122.175 85.1545 122.313 85.3225 122.513 85.4765C122.719 85.6258 122.952 85.7472 123.213 85.8405C123.475 85.9292 123.734 85.9735 123.99 85.9735C124.275 85.9735 124.541 85.9268 124.788 85.8335C125.036 85.7402 125.236 85.6072 125.39 85.4345C125.549 85.2572 125.628 85.0495 125.628 84.8115C125.628 84.5548 125.544 84.3542 125.376 84.2095C125.208 84.0602 124.996 83.9435 124.739 83.8595C124.483 83.7708 124.219 83.6868 123.948 83.6075C123.454 83.4722 123.017 83.3228 122.639 83.1595C122.261 82.9962 121.965 82.7885 121.75 82.5365C121.54 82.2798 121.435 81.9508 121.435 81.5495C121.435 81.1248 121.554 80.7585 121.792 80.4505C122.035 80.1378 122.35 79.8975 122.737 79.7295C123.129 79.5568 123.547 79.4705 123.99 79.4705C124.56 79.4705 125.078 79.5942 125.544 79.8415C126.016 80.0888 126.356 80.4178 126.566 80.8285L125.775 81.2975C125.691 81.1062 125.558 80.9405 125.376 80.8005C125.194 80.6605 124.987 80.5508 124.753 80.4715C124.525 80.3922 124.291 80.3502 124.053 80.3455C123.755 80.3408 123.477 80.3852 123.22 80.4785C122.964 80.5672 122.756 80.7002 122.597 80.8775C122.443 81.0548 122.366 81.2718 122.366 81.5285C122.366 81.7852 122.443 81.9812 122.597 82.1165C122.751 82.2472 122.959 82.3545 123.22 82.4385C123.486 82.5178 123.785 82.6112 124.116 82.7185C124.541 82.8538 124.94 83.0078 125.313 83.1805C125.687 83.3532 125.988 83.5678 126.216 83.8245C126.445 84.0812 126.557 84.4055 126.552 84.7975C126.552 85.2175 126.426 85.5838 126.174 85.8965C125.922 86.2092 125.596 86.4495 125.194 86.6175C124.793 86.7808 124.364 86.8555 123.906 86.8415ZM133.285 86.8415C132.903 86.8322 132.529 86.7622 132.165 86.6315C131.801 86.5008 131.484 86.3235 131.213 86.0995C130.943 85.8755 130.749 85.6212 130.632 85.3365L131.479 84.9725C131.554 85.1545 131.692 85.3225 131.892 85.4765C132.098 85.6258 132.331 85.7472 132.592 85.8405C132.854 85.9292 133.113 85.9735 133.369 85.9735C133.654 85.9735 133.92 85.9268 134.167 85.8335C134.415 85.7402 134.615 85.6072 134.769 85.4345C134.928 85.2572 135.007 85.0495 135.007 84.8115C135.007 84.5548 134.923 84.3542 134.755 84.2095C134.587 84.0602 134.375 83.9435 134.118 83.8595C133.862 83.7708 133.598 83.6868 133.327 83.6075C132.833 83.4722 132.396 83.3228 132.018 83.1595C131.64 82.9962 131.344 82.7885 131.129 82.5365C130.919 82.2798 130.814 81.9508 130.814 81.5495C130.814 81.1248 130.933 80.7585 131.171 80.4505C131.414 80.1378 131.729 79.8975 132.116 79.7295C132.508 79.5568 132.926 79.4705 133.369 79.4705C133.939 79.4705 134.457 79.5942 134.923 79.8415C135.395 80.0888 135.735 80.4178 135.945 80.8285L135.154 81.2975C135.07 81.1062 134.937 80.9405 134.755 80.8005C134.573 80.6605 134.366 80.5508 134.132 80.4715C133.904 80.3922 133.67 80.3502 133.432 80.3455C133.134 80.3408 132.856 80.3852 132.599 80.4785C132.343 80.5672 132.135 80.7002 131.976 80.8775C131.822 81.0548 131.745 81.2718 131.745 81.5285C131.745 81.7852 131.822 81.9812 131.976 82.1165C132.13 82.2472 132.338 82.3545 132.599 82.4385C132.865 82.5178 133.164 82.6112 133.495 82.7185C133.92 82.8538 134.319 83.0078 134.692 83.1805C135.066 83.3532 135.367 83.5678 135.595 83.8245C135.824 84.0812 135.936 84.4055 135.931 84.7975C135.931 85.2175 135.805 85.5838 135.553 85.8965C135.301 86.2092 134.975 86.4495 134.573 86.6175C134.172 86.7808 133.743 86.8555 133.285 86.8415ZM140.163 86.8905C139.519 86.8905 138.931 86.7248 138.399 86.3935C137.872 86.0622 137.449 85.6188 137.132 85.0635C136.819 84.5035 136.663 83.8852 136.663 83.2085C136.663 82.6952 136.754 82.2168 136.936 81.7735C137.118 81.3255 137.368 80.9335 137.685 80.5975C138.007 80.2568 138.38 79.9908 138.805 79.7995C139.23 79.6082 139.682 79.5125 140.163 79.5125C140.681 79.5125 141.157 79.6152 141.591 79.8205C142.03 80.0258 142.405 80.3128 142.718 80.6815C143.035 81.0502 143.273 81.4818 143.432 81.9765C143.595 82.4712 143.663 83.0055 143.635 83.5795H137.699C137.755 84.0228 137.895 84.4195 138.119 84.7695C138.348 85.1195 138.637 85.3972 138.987 85.6025C139.342 85.8032 139.734 85.9058 140.163 85.9105C140.63 85.9105 141.05 85.7892 141.423 85.5465C141.801 85.3038 142.104 84.9702 142.333 84.5455L143.327 84.7765C143.047 85.3972 142.625 85.9058 142.06 86.3025C141.495 86.6945 140.863 86.8905 140.163 86.8905ZM137.671 82.7885H142.648C142.615 82.3545 142.482 81.9578 142.249 81.5985C142.02 81.2345 141.724 80.9452 141.36 80.7305C140.996 80.5112 140.597 80.4015 140.163 80.4015C139.729 80.4015 139.332 80.5088 138.973 80.7235C138.614 80.9335 138.32 81.2205 138.091 81.5845C137.862 81.9438 137.722 82.3452 137.671 82.7885ZM150.521 79.7085H151.501V86.7085H150.521L150.486 85.4065C150.257 85.8498 149.937 86.2092 149.527 86.4845C149.116 86.7552 148.626 86.8905 148.057 86.8905C147.543 86.8905 147.063 86.7948 146.615 86.6035C146.167 86.4075 145.772 86.1392 145.432 85.7985C145.091 85.4578 144.825 85.0635 144.634 84.6155C144.442 84.1675 144.347 83.6868 144.347 83.1735C144.347 82.6695 144.44 82.1958 144.627 81.7525C144.818 81.3092 145.079 80.9195 145.411 80.5835C145.747 80.2475 146.134 79.9862 146.573 79.7995C147.016 79.6082 147.49 79.5125 147.994 79.5125C148.577 79.5125 149.086 79.6525 149.52 79.9325C149.954 80.2078 150.299 80.5695 150.556 81.0175L150.521 79.7085ZM148.036 85.9385C148.535 85.9385 148.964 85.8172 149.324 85.5745C149.683 85.3272 149.958 84.9958 150.15 84.5805C150.346 84.1652 150.444 83.7078 150.444 83.2085C150.444 82.6952 150.346 82.2332 150.15 81.8225C149.954 81.4072 149.676 81.0782 149.317 80.8355C148.957 80.5928 148.53 80.4715 148.036 80.4715C147.541 80.4715 147.088 80.5952 146.678 80.8425C146.272 81.0852 145.947 81.4142 145.705 81.8295C145.467 82.2448 145.348 82.7045 145.348 83.2085C145.348 83.7172 145.471 84.1792 145.719 84.5945C145.966 85.0052 146.293 85.3318 146.699 85.5745C147.109 85.8172 147.555 85.9385 148.036 85.9385ZM152.902 86.7085V79.7085H153.882V80.6745C154.134 80.3198 154.456 80.0375 154.848 79.8275C155.24 79.6175 155.669 79.5125 156.136 79.5125C156.663 79.5125 157.146 79.6432 157.585 79.9045C158.023 80.1612 158.366 80.5042 158.614 80.9335C158.861 80.5042 159.202 80.1612 159.636 79.9045C160.07 79.6432 160.55 79.5125 161.078 79.5125C161.605 79.5125 162.086 79.6408 162.52 79.8975C162.954 80.1542 163.299 80.4995 163.556 80.9335C163.812 81.3675 163.941 81.8482 163.941 82.3755V86.7085H162.961V82.5925C162.961 82.2192 162.87 81.8738 162.688 81.5565C162.506 81.2392 162.261 80.9848 161.953 80.7935C161.649 80.5975 161.311 80.4995 160.938 80.4995C160.564 80.4995 160.224 80.5905 159.916 80.7725C159.612 80.9498 159.37 81.1972 159.188 81.5145C159.006 81.8272 158.915 82.1865 158.915 82.5925V86.7085H157.935V82.5925C157.935 82.1865 157.844 81.8272 157.662 81.5145C157.48 81.1972 157.235 80.9498 156.927 80.7725C156.619 80.5905 156.278 80.4995 155.905 80.4995C155.536 80.4995 155.198 80.5975 154.89 80.7935C154.582 80.9848 154.337 81.2392 154.155 81.5565C153.973 81.8738 153.882 82.2192 153.882 82.5925V86.7085H152.902ZM165.439 86.7085V76.2085H166.419V86.7085H165.439ZM171.13 86.8905C170.486 86.8905 169.898 86.7248 169.366 86.3935C168.839 86.0622 168.416 85.6188 168.099 85.0635C167.786 84.5035 167.63 83.8852 167.63 83.2085C167.63 82.6952 167.721 82.2168 167.903 81.7735C168.085 81.3255 168.335 80.9335 168.652 80.5975C168.974 80.2568 169.347 79.9908 169.772 79.7995C170.197 79.6082 170.649 79.5125 171.13 79.5125C171.648 79.5125 172.124 79.6152 172.558 79.8205C172.997 80.0258 173.372 80.3128 173.685 80.6815C174.002 81.0502 174.24 81.4818 174.399 81.9765C174.562 82.4712 174.63 83.0055 174.602 83.5795H168.666C168.722 84.0228 168.862 84.4195 169.086 84.7695C169.315 85.1195 169.604 85.3972 169.954 85.6025C170.309 85.8032 170.701 85.9058 171.13 85.9105C171.597 85.9105 172.017 85.7892 172.39 85.5465C172.768 85.3038 173.071 84.9702 173.3 84.5455L174.294 84.7765C174.014 85.3972 173.592 85.9058 173.027 86.3025C172.462 86.6945 171.83 86.8905 171.13 86.8905ZM168.638 82.7885H173.615C173.582 82.3545 173.449 81.9578 173.216 81.5985C172.987 81.2345 172.691 80.9452 172.327 80.7305C171.963 80.5112 171.564 80.4015 171.13 80.4015C170.696 80.4015 170.299 80.5088 169.94 80.7235C169.581 80.9335 169.287 81.2205 169.058 81.5845C168.829 81.9438 168.689 82.3452 168.638 82.7885ZM177.979 86.8415C177.596 86.8322 177.223 86.7622 176.859 86.6315C176.495 86.5008 176.177 86.3235 175.907 86.0995C175.636 85.8755 175.442 85.6212 175.326 85.3365L176.173 84.9725C176.247 85.1545 176.385 85.3225 176.586 85.4765C176.791 85.6258 177.024 85.7472 177.286 85.8405C177.547 85.9292 177.806 85.9735 178.063 85.9735C178.347 85.9735 178.613 85.9268 178.861 85.8335C179.108 85.7402 179.309 85.6072 179.463 85.4345C179.621 85.2572 179.701 85.0495 179.701 84.8115C179.701 84.5548 179.617 84.3542 179.449 84.2095C179.281 84.0602 179.068 83.9435 178.812 83.8595C178.555 83.7708 178.291 83.6868 178.021 83.6075C177.526 83.4722 177.09 83.3228 176.712 83.1595C176.334 82.9962 176.037 82.7885 175.823 82.5365C175.613 82.2798 175.508 81.9508 175.508 81.5495C175.508 81.1248 175.627 80.7585 175.865 80.4505C176.107 80.1378 176.422 79.8975 176.81 79.7295C177.202 79.5568 177.619 79.4705 178.063 79.4705C178.632 79.4705 179.15 79.5942 179.617 79.8415C180.088 80.0888 180.429 80.4178 180.639 80.8285L179.848 81.2975C179.764 81.1062 179.631 80.9405 179.449 80.8005C179.267 80.6605 179.059 80.5508 178.826 80.4715C178.597 80.3922 178.364 80.3502 178.126 80.3455C177.827 80.3408 177.549 80.3852 177.293 80.4785C177.036 80.5672 176.828 80.7002 176.67 80.8775C176.516 81.0548 176.439 81.2718 176.439 81.5285C176.439 81.7852 176.516 81.9812 176.67 82.1165C176.824 82.2472 177.031 82.3545 177.293 82.4385C177.559 82.5178 177.857 82.6112 178.189 82.7185C178.613 82.8538 179.012 83.0078 179.386 83.1805C179.759 83.3532 180.06 83.5678 180.289 83.8245C180.517 84.0812 180.629 84.4055 180.625 84.7975C180.625 85.2175 180.499 85.5838 180.247 85.8965C179.995 86.2092 179.668 86.4495 179.267 86.6175C178.865 86.7808 178.436 86.8555 177.979 86.8415ZM183.994 86.8415C183.612 86.8322 183.238 86.7622 182.874 86.6315C182.51 86.5008 182.193 86.3235 181.922 86.0995C181.652 85.8755 181.458 85.6212 181.341 85.3365L182.188 84.9725C182.263 85.1545 182.401 85.3225 182.601 85.4765C182.807 85.6258 183.04 85.7472 183.301 85.8405C183.563 85.9292 183.822 85.9735 184.078 85.9735C184.363 85.9735 184.629 85.9268 184.876 85.8335C185.124 85.7402 185.324 85.6072 185.478 85.4345C185.637 85.2572 185.716 85.0495 185.716 84.8115C185.716 84.5548 185.632 84.3542 185.464 84.2095C185.296 84.0602 185.084 83.9435 184.827 83.8595C184.571 83.7708 184.307 83.6868 184.036 83.6075C183.542 83.4722 183.105 83.3228 182.727 83.1595C182.349 82.9962 182.053 82.7885 181.838 82.5365C181.628 82.2798 181.523 81.9508 181.523 81.5495C181.523 81.1248 181.642 80.7585 181.88 80.4505C182.123 80.1378 182.438 79.8975 182.825 79.7295C183.217 79.5568 183.635 79.4705 184.078 79.4705C184.648 79.4705 185.166 79.5942 185.632 79.8415C186.104 80.0888 186.444 80.4178 186.654 80.8285L185.863 81.2975C185.779 81.1062 185.646 80.9405 185.464 80.8005C185.282 80.6605 185.075 80.5508 184.841 80.4715C184.613 80.3922 184.379 80.3502 184.141 80.3455C183.843 80.3408 183.565 80.3852 183.308 80.4785C183.052 80.5672 182.844 80.7002 182.685 80.8775C182.531 81.0548 182.454 81.2718 182.454 81.5285C182.454 81.7852 182.531 81.9812 182.685 82.1165C182.839 82.2472 183.047 82.3545 183.308 82.4385C183.574 82.5178 183.873 82.6112 184.204 82.7185C184.629 82.8538 185.028 83.0078 185.401 83.1805C185.775 83.3532 186.076 83.5678 186.304 83.8245C186.533 84.0812 186.645 84.4055 186.64 84.7975C186.64 85.2175 186.514 85.5838 186.262 85.8965C186.01 86.2092 185.684 86.4495 185.282 86.6175C184.881 86.7808 184.452 86.8555 183.994 86.8415ZM187.847 86.7085V76.2085H188.827V86.7085H187.847ZM195.103 79.7085H196.139L192.31 90.2085H191.267L192.541 86.7085L190.028 79.7085H191.099L193.031 85.3575L195.103 79.7085Z" fill="#535662"/>
<g filter="url(#filter1_d_2076_29583)">
<rect x="42.3857" y="114.708" width="107" height="35" rx="17.5" fill="white" fill-opacity="0.04" shape-rendering="crispEdges"/>
<rect x="42.8857" y="115.208" width="106" height="34" rx="17" stroke="#4268FF" shape-rendering="crispEdges"/>
<g clip-path="url(#clip0_2076_29583)">
<path fill-rule="evenodd" clip-rule="evenodd" d="M55.0103 135.602H72.7608C71.3947 139.173 67.9365 141.708 63.8855 141.708C59.8345 141.708 56.3763 139.173 55.0103 135.602Z" fill="#D80027"/>
<path fill-rule="evenodd" clip-rule="evenodd" d="M72.7608 128.815H55.0103C56.3763 125.244 59.8345 122.708 63.8855 122.708C67.9366 122.708 71.3947 125.244 72.7608 128.815Z" fill="#D80027"/>
<path fill-rule="evenodd" clip-rule="evenodd" d="M55.0105 128.815H72.761C73.594 131.001 73.594 133.416 72.761 135.602H55.0105C54.1775 133.416 54.1775 131.001 55.0105 128.815Z" fill="#FFDA44"/>
</g>
<path d="M86.2577 137.916C85.6604 137.916 85.0817 137.823 84.5217 137.636C83.9671 137.45 83.4817 137.183 83.0657 136.836C82.6497 136.49 82.3564 136.076 82.1857 135.596L83.2337 135.204C83.3511 135.535 83.5644 135.82 83.8737 136.06C84.1884 136.295 84.5537 136.476 84.9697 136.604C85.3911 136.732 85.8204 136.796 86.2577 136.796C86.7697 136.796 87.2471 136.711 87.6897 136.54C88.1324 136.37 88.4897 136.132 88.7617 135.828C89.0337 135.519 89.1697 135.156 89.1697 134.74C89.1697 134.319 89.0284 133.972 88.7457 133.7C88.4631 133.428 88.0977 133.215 87.6497 133.06C87.2071 132.9 86.7431 132.778 86.2577 132.692C85.4951 132.559 84.8097 132.378 84.2017 132.148C83.5991 131.919 83.1217 131.596 82.7697 131.18C82.4177 130.759 82.2417 130.204 82.2417 129.516C82.2417 128.871 82.4284 128.311 82.8017 127.836C83.1751 127.362 83.6657 126.994 84.2737 126.732C84.8871 126.471 85.5484 126.34 86.2577 126.34C86.8391 126.34 87.4071 126.431 87.9617 126.612C88.5164 126.794 89.0044 127.058 89.4257 127.404C89.8524 127.751 90.1591 128.175 90.3457 128.676L89.2817 129.06C89.1644 128.724 88.9484 128.439 88.6337 128.204C88.3244 127.964 87.9617 127.783 87.5457 127.66C87.1297 127.532 86.7004 127.468 86.2577 127.468C85.7511 127.463 85.2764 127.548 84.8337 127.724C84.3964 127.895 84.0417 128.135 83.7697 128.444C83.4977 128.748 83.3617 129.106 83.3617 129.516C83.3617 129.996 83.4871 130.367 83.7377 130.628C83.9937 130.884 84.3404 131.076 84.7777 131.204C85.2151 131.332 85.7084 131.447 86.2577 131.548C86.9724 131.671 87.6364 131.863 88.2497 132.124C88.8631 132.38 89.3564 132.724 89.7297 133.156C90.1031 133.583 90.2897 134.111 90.2897 134.74C90.2897 135.38 90.1031 135.94 89.7297 136.42C89.3564 136.895 88.8631 137.263 88.2497 137.524C87.6417 137.786 86.9777 137.916 86.2577 137.916ZM93.1532 141.708H92.0332V129.708H93.1532V131.204C93.4306 130.698 93.8092 130.287 94.2892 129.972C94.7692 129.658 95.3399 129.5 96.0012 129.5C96.5826 129.5 97.1266 129.61 97.6332 129.828C98.1452 130.047 98.5932 130.351 98.9772 130.74C99.3612 131.124 99.6626 131.57 99.8812 132.076C100.1 132.583 100.209 133.127 100.209 133.708C100.209 134.29 100.1 134.836 99.8812 135.348C99.6626 135.86 99.3612 136.311 98.9772 136.7C98.5932 137.084 98.1452 137.386 97.6332 137.604C97.1266 137.823 96.5826 137.932 96.0012 137.932C95.3399 137.932 94.7692 137.775 94.2892 137.46C93.8092 137.146 93.4306 136.735 93.1532 136.228V141.708ZM95.9932 130.588C95.4332 130.588 94.9452 130.73 94.5292 131.012C94.1186 131.29 93.8012 131.663 93.5772 132.132C93.3532 132.602 93.2412 133.127 93.2412 133.708C93.2412 134.279 93.3506 134.802 93.5692 135.276C93.7932 135.751 94.1106 136.13 94.5212 136.412C94.9372 136.695 95.4279 136.836 95.9932 136.836C96.5479 136.836 97.0572 136.698 97.5212 136.42C97.9906 136.143 98.3666 135.77 98.6492 135.3C98.9319 134.826 99.0732 134.295 99.0732 133.708C99.0732 133.138 98.9346 132.618 98.6572 132.148C98.3799 131.674 98.0092 131.295 97.5452 131.012C97.0812 130.73 96.5639 130.588 95.9932 130.588ZM108.062 129.708H109.182V137.708H108.062L108.022 136.22C107.761 136.727 107.396 137.138 106.926 137.452C106.457 137.762 105.897 137.916 105.246 137.916C104.66 137.916 104.11 137.807 103.598 137.588C103.086 137.364 102.636 137.058 102.246 136.668C101.857 136.279 101.553 135.828 101.334 135.316C101.116 134.804 101.006 134.255 101.006 133.668C101.006 133.092 101.113 132.551 101.326 132.044C101.545 131.538 101.844 131.092 102.222 130.708C102.606 130.324 103.049 130.026 103.55 129.812C104.057 129.594 104.598 129.484 105.174 129.484C105.841 129.484 106.422 129.644 106.918 129.964C107.414 130.279 107.809 130.692 108.102 131.204L108.062 129.708ZM105.222 136.828C105.793 136.828 106.284 136.69 106.694 136.412C107.105 136.13 107.42 135.751 107.638 135.276C107.862 134.802 107.974 134.279 107.974 133.708C107.974 133.122 107.862 132.594 107.638 132.124C107.414 131.65 107.097 131.274 106.686 130.996C106.276 130.719 105.788 130.58 105.222 130.58C104.657 130.58 104.14 130.722 103.67 131.004C103.206 131.282 102.836 131.658 102.558 132.132C102.286 132.607 102.15 133.132 102.15 133.708C102.15 134.29 102.292 134.818 102.574 135.292C102.857 135.762 103.23 136.135 103.694 136.412C104.164 136.69 104.673 136.828 105.222 136.828ZM117.759 132.756V137.708H116.639V132.98C116.639 132.543 116.533 132.146 116.319 131.788C116.106 131.431 115.821 131.146 115.463 130.932C115.106 130.719 114.709 130.612 114.271 130.612C113.839 130.612 113.442 130.719 113.079 130.932C112.722 131.146 112.437 131.431 112.223 131.788C112.01 132.146 111.903 132.543 111.903 132.98V137.708H110.783V129.708H111.903V130.812C112.186 130.407 112.554 130.084 113.007 129.844C113.461 129.604 113.954 129.484 114.487 129.484C115.09 129.484 115.639 129.631 116.135 129.924C116.631 130.218 117.026 130.612 117.319 131.108C117.613 131.604 117.759 132.154 117.759 132.756ZM119.361 129.708H120.481V137.708H119.361V129.708ZM119.929 128.308C119.748 128.308 119.593 128.25 119.465 128.132C119.343 128.01 119.281 127.858 119.281 127.676C119.281 127.495 119.343 127.346 119.465 127.228C119.593 127.106 119.748 127.044 119.929 127.044C120.105 127.044 120.255 127.106 120.377 127.228C120.505 127.346 120.569 127.495 120.569 127.676C120.569 127.858 120.508 128.01 120.385 128.132C120.263 128.25 120.111 128.308 119.929 128.308ZM124.818 137.86C124.38 137.85 123.954 137.77 123.538 137.62C123.122 137.471 122.759 137.268 122.45 137.012C122.14 136.756 121.919 136.466 121.786 136.14L122.754 135.724C122.839 135.932 122.996 136.124 123.226 136.3C123.46 136.471 123.727 136.61 124.026 136.716C124.324 136.818 124.62 136.868 124.914 136.868C125.239 136.868 125.543 136.815 125.826 136.708C126.108 136.602 126.338 136.45 126.514 136.252C126.695 136.05 126.786 135.812 126.786 135.54C126.786 135.247 126.69 135.018 126.498 134.852C126.306 134.682 126.063 134.548 125.77 134.452C125.476 134.351 125.175 134.255 124.866 134.164C124.3 134.01 123.802 133.839 123.37 133.652C122.938 133.466 122.599 133.228 122.354 132.94C122.114 132.647 121.994 132.271 121.994 131.812C121.994 131.327 122.13 130.908 122.402 130.556C122.679 130.199 123.039 129.924 123.482 129.732C123.93 129.535 124.407 129.436 124.914 129.436C125.564 129.436 126.156 129.578 126.69 129.86C127.228 130.143 127.618 130.519 127.858 130.988L126.954 131.524C126.858 131.306 126.706 131.116 126.498 130.956C126.29 130.796 126.052 130.671 125.786 130.58C125.524 130.49 125.258 130.442 124.986 130.436C124.644 130.431 124.327 130.482 124.034 130.588C123.74 130.69 123.503 130.842 123.322 131.044C123.146 131.247 123.058 131.495 123.058 131.788C123.058 132.082 123.146 132.306 123.322 132.46C123.498 132.61 123.735 132.732 124.034 132.828C124.338 132.919 124.679 133.026 125.058 133.148C125.543 133.303 125.999 133.479 126.426 133.676C126.852 133.874 127.196 134.119 127.458 134.412C127.719 134.706 127.847 135.076 127.842 135.524C127.842 136.004 127.698 136.423 127.41 136.78C127.122 137.138 126.748 137.412 126.29 137.604C125.831 137.791 125.34 137.876 124.818 137.86ZM136.197 132.756V137.708H135.077V132.98C135.077 132.543 134.97 132.146 134.757 131.788C134.543 131.431 134.258 131.146 133.901 130.932C133.543 130.719 133.146 130.612 132.709 130.612C132.277 130.612 131.879 130.719 131.517 130.932C131.159 131.146 130.874 131.431 130.661 131.788C130.447 132.146 130.341 132.543 130.341 132.98V137.708H129.221V125.708H130.341V130.812C130.623 130.407 130.991 130.084 131.445 129.844C131.898 129.604 132.391 129.484 132.925 129.484C133.527 129.484 134.077 129.631 134.573 129.924C135.069 130.218 135.463 130.612 135.757 131.108C136.05 131.604 136.197 132.154 136.197 132.756Z" fill="#0C1021"/>
</g>
<g opacity="0.6">
<rect x="155.386" y="114.708" width="99" height="35" rx="17.5" fill="#0C1021" fill-opacity="0.04"/>
<g clip-path="url(#clip1_2076_29583)">
<path d="M186.386 132.208C186.386 137.454 182.135 141.706 176.89 141.708H176.788C176.327 141.704 175.868 141.666 175.412 141.595C175.04 141.537 174.671 141.457 174.308 141.355C172.315 140.793 170.561 139.595 169.311 137.944C168.062 136.293 167.386 134.279 167.386 132.208C167.386 126.963 171.638 122.708 176.886 122.708H176.89C178.183 122.707 179.462 122.971 180.648 123.482C181.835 123.994 182.905 124.743 183.791 125.684C185.458 127.447 186.387 129.782 186.386 132.208Z" fill="white"/>
<path d="M174.488 129.383V129.811H173.107L169.228 126.585C169.468 126.259 169.728 125.948 170.008 125.656L174.488 129.383Z" fill="#C8102E"/>
<path d="M184.556 126.602L180.699 129.808H179.283V129.412L183.779 125.672L183.791 125.684C184.05 125.957 184.293 126.246 184.517 126.548L184.556 126.602Z" fill="#C8102E"/>
<path d="M174.488 134.606V135.033L170.008 138.762C169.968 138.722 169.929 138.679 169.892 138.638C169.656 138.382 169.435 138.113 169.229 137.832L173.108 134.606H174.488Z" fill="#C8102E"/>
<path d="M184.556 137.814C184.317 138.141 184.058 138.452 183.779 138.745L179.283 135.004V134.606H180.699L184.556 137.814Z" fill="#C8102E"/>
<path d="M171.18 129.81H167.691C167.889 129.05 168.182 128.318 168.562 127.631L171.18 129.81Z" fill="#012169"/>
<path d="M171.101 134.606L168.534 136.741C168.167 136.066 167.884 135.349 167.691 134.606H171.101Z" fill="#012169"/>
<path d="M174.488 136.613V141.403C174.428 141.387 174.369 141.371 174.308 141.354C173.063 141.004 171.904 140.402 170.9 139.586L174.488 136.613Z" fill="#012169"/>
<path d="M174.488 123.014V127.728L170.954 124.788C171.994 123.954 173.198 123.35 174.488 123.014Z" fill="#012169"/>
<path d="M182.872 124.832L179.283 127.807V123.014L179.337 123.028C180.63 123.373 181.834 123.988 182.872 124.832Z" fill="#012169"/>
<path d="M186.08 129.811H182.676L185.238 127.679C185.604 128.353 185.887 129.069 186.08 129.811Z" fill="#012169"/>
<path d="M182.902 139.562C181.844 140.43 180.61 141.058 179.285 141.403V136.553L182.902 139.562Z" fill="#012169"/>
<path d="M186.08 134.606C185.892 135.331 185.617 136.032 185.263 136.692L182.755 134.606H186.08Z" fill="#012169"/>
<path d="M186.386 132.109V132.299C186.382 132.742 186.347 133.184 186.282 133.622H178.299V141.604C177.864 141.669 177.425 141.704 176.984 141.708H176.786C176.346 141.704 175.907 141.669 175.471 141.604V133.622H167.49C167.425 133.186 167.39 132.746 167.386 132.305C167.386 132.243 167.386 132.181 167.386 132.118C167.39 131.675 167.425 131.233 167.49 130.795H175.472V122.813C175.887 122.751 176.305 122.716 176.724 122.708H177.03C177.43 122.714 177.829 122.745 178.225 122.801L178.299 122.812V130.795H186.281C186.346 131.23 186.381 131.669 186.386 132.109Z" fill="#C8102E"/>
</g>
<path d="M195.346 137.708V126.508H202.162V127.628H196.466V131.148H201.178V132.268H196.466V136.588H202.162V137.708H195.346ZM210.9 132.756V137.708H209.78V132.98C209.78 132.543 209.673 132.146 209.46 131.788C209.247 131.431 208.961 131.146 208.604 130.932C208.247 130.719 207.849 130.612 207.412 130.612C206.98 130.612 206.583 130.719 206.22 130.932C205.863 131.146 205.577 131.431 205.364 131.788C205.151 132.146 205.044 132.543 205.044 132.98V137.708H203.924V129.708H205.044V130.812C205.327 130.407 205.695 130.084 206.148 129.844C206.601 129.604 207.095 129.484 207.628 129.484C208.231 129.484 208.78 129.631 209.276 129.924C209.772 130.218 210.167 130.612 210.46 131.108C210.753 131.604 210.9 132.154 210.9 132.756ZM218.706 129.708H219.826V138.004C219.826 138.516 219.714 138.996 219.49 139.444C219.271 139.892 218.972 140.284 218.594 140.62C218.22 140.962 217.794 141.228 217.314 141.42C216.834 141.612 216.335 141.708 215.818 141.708C215.263 141.708 214.727 141.58 214.21 141.324C213.692 141.074 213.242 140.738 212.858 140.316C212.479 139.895 212.21 139.428 212.05 138.916L213.082 138.444C213.183 138.844 213.372 139.204 213.65 139.524C213.932 139.85 214.263 140.106 214.642 140.292C215.026 140.484 215.418 140.58 215.818 140.58C216.186 140.58 216.54 140.511 216.882 140.372C217.228 140.239 217.538 140.055 217.81 139.82C218.087 139.586 218.306 139.311 218.466 138.996C218.626 138.687 218.706 138.356 218.706 138.004V136.236C218.428 136.738 218.052 137.143 217.578 137.452C217.108 137.762 216.562 137.916 215.938 137.916C215.378 137.916 214.85 137.807 214.354 137.588C213.863 137.37 213.431 137.068 213.058 136.684C212.684 136.295 212.391 135.847 212.178 135.34C211.97 134.834 211.866 134.29 211.866 133.708C211.866 133.127 211.97 132.583 212.178 132.076C212.391 131.564 212.684 131.116 213.058 130.732C213.431 130.343 213.863 130.039 214.354 129.82C214.85 129.602 215.378 129.492 215.938 129.492C216.562 129.492 217.108 129.647 217.578 129.956C218.052 130.26 218.428 130.666 218.706 131.172V129.708ZM215.946 136.828C216.5 136.828 216.978 136.684 217.378 136.396C217.783 136.108 218.095 135.727 218.314 135.252C218.532 134.778 218.642 134.263 218.642 133.708C218.642 133.138 218.53 132.618 218.306 132.148C218.087 131.674 217.775 131.295 217.37 131.012C216.964 130.724 216.49 130.58 215.946 130.58C215.402 130.58 214.906 130.722 214.458 131.004C214.015 131.282 213.663 131.658 213.402 132.132C213.14 132.607 213.01 133.132 213.01 133.708C213.01 134.284 213.143 134.81 213.41 135.284C213.676 135.754 214.031 136.13 214.474 136.412C214.922 136.69 215.412 136.828 215.946 136.828ZM221.752 137.708V125.708H222.872V137.708H221.752ZM224.799 129.708H225.919V137.708H224.799V129.708ZM225.367 128.308C225.186 128.308 225.031 128.25 224.903 128.132C224.78 128.01 224.719 127.858 224.719 127.676C224.719 127.495 224.78 127.346 224.903 127.228C225.031 127.106 225.186 127.044 225.367 127.044C225.543 127.044 225.692 127.106 225.815 127.228C225.943 127.346 226.007 127.495 226.007 127.676C226.007 127.858 225.946 128.01 225.823 128.132C225.7 128.25 225.548 128.308 225.367 128.308ZM230.255 137.86C229.818 137.85 229.391 137.77 228.975 137.62C228.559 137.471 228.197 137.268 227.887 137.012C227.578 136.756 227.357 136.466 227.223 136.14L228.191 135.724C228.277 135.932 228.434 136.124 228.663 136.3C228.898 136.471 229.165 136.61 229.463 136.716C229.762 136.818 230.058 136.868 230.351 136.868C230.677 136.868 230.981 136.815 231.263 136.708C231.546 136.602 231.775 136.45 231.951 136.252C232.133 136.05 232.223 135.812 232.223 135.54C232.223 135.247 232.127 135.018 231.935 134.852C231.743 134.682 231.501 134.548 231.207 134.452C230.914 134.351 230.613 134.255 230.303 134.164C229.738 134.01 229.239 133.839 228.807 133.652C228.375 133.466 228.037 133.228 227.791 132.94C227.551 132.647 227.431 132.271 227.431 131.812C227.431 131.327 227.567 130.908 227.839 130.556C228.117 130.199 228.477 129.924 228.919 129.732C229.367 129.535 229.845 129.436 230.351 129.436C231.002 129.436 231.594 129.578 232.127 129.86C232.666 130.143 233.055 130.519 233.295 130.988L232.391 131.524C232.295 131.306 232.143 131.116 231.935 130.956C231.727 130.796 231.49 130.671 231.223 130.58C230.962 130.49 230.695 130.442 230.423 130.436C230.082 130.431 229.765 130.482 229.471 130.588C229.178 130.69 228.941 130.842 228.759 131.044C228.583 131.247 228.495 131.495 228.495 131.788C228.495 132.082 228.583 132.306 228.759 132.46C228.935 132.61 229.173 132.732 229.471 132.828C229.775 132.919 230.117 133.026 230.495 133.148C230.981 133.303 231.437 133.479 231.863 133.676C232.29 133.874 232.634 134.119 232.895 134.412C233.157 134.706 233.285 135.076 233.279 135.524C233.279 136.004 233.135 136.423 232.847 136.78C232.559 137.138 232.186 137.412 231.727 137.604C231.269 137.791 230.778 137.876 230.255 137.86ZM241.634 132.756V137.708H240.514V132.98C240.514 132.543 240.408 132.146 240.194 131.788C239.981 131.431 239.696 131.146 239.338 130.932C238.981 130.719 238.584 130.612 238.146 130.612C237.714 130.612 237.317 130.719 236.954 130.932C236.597 131.146 236.312 131.431 236.098 131.788C235.885 132.146 235.778 132.543 235.778 132.98V137.708H234.658V125.708H235.778V130.812C236.061 130.407 236.429 130.084 236.882 129.844C237.336 129.604 237.829 129.484 238.362 129.484C238.965 129.484 239.514 129.631 240.01 129.924C240.506 130.218 240.901 130.612 241.194 131.108C241.488 131.604 241.634 132.154 241.634 132.756Z" fill="#0C1021"/>
</g>
<g opacity="0.6">
<rect x="260.386" y="114.708" width="110" height="35" rx="17.5" fill="#0C1021" fill-opacity="0.04"/>
<g clip-path="url(#clip2_2076_29583)">
<path d="M290.722 128.717H273.049C274.436 125.196 277.871 122.708 281.886 122.708C285.901 122.708 289.335 125.196 290.722 128.717Z" fill="#020202"/>
<path d="M290.722 135.7C289.335 139.221 285.901 141.708 281.886 141.708C277.871 141.708 274.436 139.221 273.049 135.7H290.722Z" fill="#FFDD00"/>
<path d="M291.386 132.208C291.386 133.442 291.153 134.621 290.723 135.7H273.049C272.619 134.621 272.386 133.442 272.386 132.208C272.386 130.975 272.619 129.796 273.049 128.717H290.723C291.153 129.796 291.386 130.975 291.386 132.208Z" fill="#F30040"/>
</g>
<path d="M305.538 137.916C304.77 137.916 304.05 137.767 303.378 137.468C302.711 137.164 302.127 136.746 301.626 136.212C301.124 135.674 300.732 135.055 300.45 134.356C300.167 133.652 300.026 132.9 300.026 132.1C300.026 131.284 300.172 130.524 300.466 129.82C300.759 129.116 301.162 128.503 301.674 127.98C302.186 127.452 302.772 127.042 303.434 126.748C304.1 126.455 304.807 126.308 305.554 126.308C306.412 126.308 307.223 126.508 307.986 126.908C308.754 127.308 309.404 127.876 309.938 128.612L308.938 129.156C308.511 128.596 307.996 128.167 307.394 127.868C306.796 127.57 306.18 127.42 305.546 127.42C304.943 127.42 304.375 127.543 303.842 127.788C303.314 128.028 302.847 128.364 302.442 128.796C302.036 129.228 301.719 129.727 301.49 130.292C301.26 130.858 301.146 131.466 301.146 132.116C301.146 132.762 301.26 133.367 301.49 133.932C301.719 134.498 302.034 134.996 302.434 135.428C302.839 135.855 303.308 136.191 303.842 136.436C304.375 136.676 304.946 136.796 305.554 136.796C306.055 136.796 306.53 136.711 306.978 136.54C307.431 136.364 307.844 136.119 308.218 135.804C308.591 135.49 308.906 135.122 309.162 134.7C309.423 134.279 309.612 133.82 309.73 133.324H306.706V132.308H311.034C311.018 133.082 310.863 133.807 310.57 134.484C310.276 135.162 309.876 135.759 309.37 136.276C308.868 136.788 308.29 137.191 307.634 137.484C306.983 137.772 306.284 137.916 305.538 137.916ZM316.038 137.916C315.302 137.916 314.63 137.727 314.022 137.348C313.419 136.97 312.936 136.463 312.574 135.828C312.216 135.188 312.038 134.482 312.038 133.708C312.038 133.122 312.142 132.575 312.35 132.068C312.558 131.556 312.843 131.108 313.206 130.724C313.574 130.335 314 130.031 314.486 129.812C314.971 129.594 315.488 129.484 316.038 129.484C316.63 129.484 317.174 129.602 317.67 129.836C318.171 130.071 318.6 130.399 318.958 130.82C319.32 131.242 319.592 131.735 319.774 132.3C319.96 132.866 320.038 133.476 320.006 134.132H313.222C313.286 134.639 313.446 135.092 313.702 135.492C313.963 135.892 314.294 136.21 314.694 136.444C315.099 136.674 315.547 136.791 316.038 136.796C316.571 136.796 317.051 136.658 317.478 136.38C317.91 136.103 318.256 135.722 318.518 135.236L319.654 135.5C319.334 136.21 318.851 136.791 318.206 137.244C317.56 137.692 316.838 137.916 316.038 137.916ZM313.19 133.228H318.878C318.84 132.732 318.688 132.279 318.422 131.868C318.16 131.452 317.822 131.122 317.406 130.876C316.99 130.626 316.534 130.5 316.038 130.5C315.542 130.5 315.088 130.623 314.678 130.868C314.267 131.108 313.931 131.436 313.67 131.852C313.408 132.263 313.248 132.722 313.19 133.228ZM321.377 137.708V129.708H322.497V130.812C322.78 130.407 323.148 130.084 323.601 129.844C324.054 129.604 324.548 129.484 325.081 129.484C325.39 129.484 325.689 129.524 325.977 129.604L325.521 130.716C325.297 130.647 325.078 130.612 324.865 130.612C324.433 130.612 324.036 130.719 323.673 130.932C323.316 131.146 323.03 131.431 322.817 131.788C322.604 132.146 322.497 132.543 322.497 132.98V137.708H321.377ZM327.018 137.708V129.708H328.138V130.812C328.426 130.407 328.794 130.084 329.242 129.844C329.69 129.604 330.18 129.484 330.714 129.484C331.316 129.484 331.868 129.634 332.37 129.932C332.871 130.226 333.263 130.618 333.546 131.108C333.828 130.618 334.218 130.226 334.714 129.932C335.21 129.634 335.759 129.484 336.362 129.484C336.964 129.484 337.514 129.631 338.01 129.924C338.506 130.218 338.9 130.612 339.194 131.108C339.487 131.604 339.634 132.154 339.634 132.756V137.708H338.514V133.004C338.514 132.578 338.41 132.183 338.202 131.82C337.994 131.458 337.714 131.167 337.362 130.948C337.015 130.724 336.628 130.612 336.202 130.612C335.775 130.612 335.386 130.716 335.034 130.924C334.687 131.127 334.41 131.41 334.202 131.772C333.994 132.13 333.89 132.54 333.89 133.004V137.708H332.77V133.004C332.77 132.54 332.666 132.13 332.458 131.772C332.25 131.41 331.97 131.127 331.618 130.924C331.266 130.716 330.876 130.612 330.45 130.612C330.028 130.612 329.642 130.724 329.29 130.948C328.938 131.167 328.658 131.458 328.45 131.82C328.242 132.183 328.138 132.578 328.138 133.004V137.708H327.018ZM347.656 129.708H348.776V137.708H347.656L347.616 136.22C347.355 136.727 346.989 137.138 346.52 137.452C346.051 137.762 345.491 137.916 344.84 137.916C344.253 137.916 343.704 137.807 343.192 137.588C342.68 137.364 342.229 137.058 341.84 136.668C341.451 136.279 341.147 135.828 340.928 135.316C340.709 134.804 340.6 134.255 340.6 133.668C340.6 133.092 340.707 132.551 340.92 132.044C341.139 131.538 341.437 131.092 341.816 130.708C342.2 130.324 342.643 130.026 343.144 129.812C343.651 129.594 344.192 129.484 344.768 129.484C345.435 129.484 346.016 129.644 346.512 129.964C347.008 130.279 347.403 130.692 347.696 131.204L347.656 129.708ZM344.816 136.828C345.387 136.828 345.877 136.69 346.288 136.412C346.699 136.13 347.013 135.751 347.232 135.276C347.456 134.802 347.568 134.279 347.568 133.708C347.568 133.122 347.456 132.594 347.232 132.124C347.008 131.65 346.691 131.274 346.28 130.996C345.869 130.719 345.381 130.58 344.816 130.58C344.251 130.58 343.733 130.722 343.264 131.004C342.8 131.282 342.429 131.658 342.152 132.132C341.88 132.607 341.744 133.132 341.744 133.708C341.744 134.29 341.885 134.818 342.168 135.292C342.451 135.762 342.824 136.135 343.288 136.412C343.757 136.69 344.267 136.828 344.816 136.828ZM357.353 132.756V137.708H356.233V132.98C356.233 132.543 356.126 132.146 355.913 131.788C355.7 131.431 355.414 131.146 355.057 130.932C354.7 130.719 354.302 130.612 353.865 130.612C353.433 130.612 353.036 130.719 352.673 130.932C352.316 131.146 352.03 131.431 351.817 131.788C351.604 132.146 351.497 132.543 351.497 132.98V137.708H350.377V129.708H351.497V130.812C351.78 130.407 352.148 130.084 352.601 129.844C353.054 129.604 353.548 129.484 354.081 129.484C354.684 129.484 355.233 129.631 355.729 129.924C356.225 130.218 356.62 130.612 356.913 131.108C357.206 131.604 357.353 132.154 357.353 132.756Z" fill="#0C1021"/>
</g>
<g opacity="0.6">
<rect x="42.3857" y="155.708" width="107" height="35" rx="17.5" fill="#0C1021" fill-opacity="0.04"/>
<g clip-path="url(#clip3_2076_29583)">
<path d="M63.8857 182.708C69.1324 182.708 73.3857 178.455 73.3857 173.208C73.3857 167.962 69.1324 163.708 63.8857 163.708C58.639 163.708 54.3857 167.962 54.3857 173.208C54.3857 178.455 58.639 182.708 63.8857 182.708Z" fill="#EE1C25"/>
<path d="M68.9592 174.708L68.0263 174.693L67.7229 173.812L67.4202 174.693L66.4873 174.709L67.2327 175.269L66.9598 176.16L67.7236 175.625L68.4874 176.16L68.2138 175.269L68.9592 174.708Z" fill="#FFFF00"/>
<path d="M65.5382 170.502L65.5534 169.569L66.435 169.266L65.5534 168.963L65.5375 168.03L64.9777 168.775L64.0859 168.503L64.6217 169.267L64.0859 170.03L64.9777 169.756L65.5382 170.502Z" fill="#FFFF00"/>
<path d="M65.5382 178.387L65.5534 177.454L66.435 177.151L65.5534 176.848L65.5375 175.915L64.9777 176.66L64.0859 176.388L64.6217 177.152L64.0859 177.915L64.9777 177.641L65.5382 178.387Z" fill="#FFFF00"/>
<path d="M68.0993 171.649L68.5085 170.811L67.6706 171.22L66.9999 170.571L67.131 171.494L66.3076 171.932L67.2266 172.093L67.3881 173.012L67.8245 172.188L68.7479 172.319L68.0993 171.649Z" fill="#FFFF00"/>
<path d="M62.9427 172.077L60.4278 172.036L59.6101 169.659L58.7931 172.036L56.2788 172.079L58.2884 173.589L57.5524 175.993L59.6114 174.549L61.671 175.991L60.9338 173.589L62.9427 172.077Z" fill="#FFFF00"/>
</g>
<path d="M87.5297 178.916C86.7724 178.916 86.0604 178.767 85.3937 178.468C84.7271 178.164 84.1404 177.748 83.6337 177.22C83.1324 176.687 82.7377 176.068 82.4497 175.364C82.1671 174.66 82.0257 173.908 82.0257 173.108C82.0257 172.308 82.1671 171.556 82.4497 170.852C82.7377 170.148 83.1324 169.532 83.6337 169.004C84.1404 168.471 84.7271 168.055 85.3937 167.756C86.0604 167.452 86.7724 167.3 87.5297 167.3C88.4364 167.3 89.2711 167.511 90.0337 167.932C90.7964 168.354 91.4284 168.914 91.9297 169.612L90.9377 170.148C90.5431 169.62 90.0417 169.202 89.4337 168.892C88.8311 168.578 88.1964 168.42 87.5297 168.42C86.9164 168.42 86.3431 168.546 85.8097 168.796C85.2817 169.042 84.8177 169.38 84.4177 169.812C84.0177 170.244 83.7057 170.743 83.4817 171.308C83.2577 171.874 83.1457 172.474 83.1457 173.108C83.1457 173.754 83.2577 174.359 83.4817 174.924C83.7111 175.49 84.0257 175.988 84.4257 176.42C84.8311 176.852 85.2977 177.191 85.8257 177.436C86.3591 177.676 86.9271 177.796 87.5297 177.796C88.2231 177.796 88.8657 177.639 89.4577 177.324C90.0551 177.004 90.5484 176.588 90.9377 176.076L91.9297 176.612C91.4284 177.311 90.7964 177.871 90.0337 178.292C89.2711 178.708 88.4364 178.916 87.5297 178.916ZM100.556 173.756V178.708H99.4361V173.98C99.4361 173.543 99.3295 173.146 99.1161 172.788C98.9028 172.431 98.6175 172.146 98.2601 171.932C97.9028 171.719 97.5055 171.612 97.0681 171.612C96.6361 171.612 96.2388 171.719 95.8761 171.932C95.5188 172.146 95.2335 172.431 95.0201 172.788C94.8068 173.146 94.7001 173.543 94.7001 173.98V178.708H93.5801V166.708H94.7001V171.812C94.9828 171.407 95.3508 171.084 95.8041 170.844C96.2575 170.604 96.7508 170.484 97.2841 170.484C97.8868 170.484 98.4361 170.631 98.9321 170.924C99.4281 171.218 99.8228 171.612 100.116 172.108C100.409 172.604 100.556 173.154 100.556 173.756ZM102.158 170.708H103.278V178.708H102.158V170.708ZM102.726 169.308C102.545 169.308 102.39 169.25 102.262 169.132C102.14 169.01 102.078 168.858 102.078 168.676C102.078 168.495 102.14 168.346 102.262 168.228C102.39 168.106 102.545 168.044 102.726 168.044C102.902 168.044 103.052 168.106 103.174 168.228C103.302 168.346 103.366 168.495 103.366 168.676C103.366 168.858 103.305 169.01 103.182 169.132C103.06 169.25 102.908 169.308 102.726 169.308ZM112.15 173.756V178.708H111.03V173.98C111.03 173.543 110.923 173.146 110.71 172.788C110.497 172.431 110.211 172.146 109.854 171.932C109.497 171.719 109.099 171.612 108.662 171.612C108.23 171.612 107.833 171.719 107.47 171.932C107.113 172.146 106.827 172.431 106.614 172.788C106.401 173.146 106.294 173.543 106.294 173.98V178.708H105.174V170.708H106.294V171.812C106.577 171.407 106.945 171.084 107.398 170.844C107.851 170.604 108.345 170.484 108.878 170.484C109.481 170.484 110.03 170.631 110.526 170.924C111.022 171.218 111.417 171.612 111.71 172.108C112.003 172.604 112.15 173.154 112.15 173.756ZM117.116 178.916C116.38 178.916 115.708 178.727 115.1 178.348C114.497 177.97 114.014 177.463 113.652 176.828C113.294 176.188 113.116 175.482 113.116 174.708C113.116 174.122 113.22 173.575 113.428 173.068C113.636 172.556 113.921 172.108 114.284 171.724C114.652 171.335 115.078 171.031 115.564 170.812C116.049 170.594 116.566 170.484 117.116 170.484C117.708 170.484 118.252 170.602 118.748 170.836C119.249 171.071 119.678 171.399 120.036 171.82C120.398 172.242 120.67 172.735 120.852 173.3C121.038 173.866 121.116 174.476 121.084 175.132H114.3C114.364 175.639 114.524 176.092 114.78 176.492C115.041 176.892 115.372 177.21 115.772 177.444C116.177 177.674 116.625 177.791 117.116 177.796C117.649 177.796 118.129 177.658 118.556 177.38C118.988 177.103 119.334 176.722 119.596 176.236L120.732 176.5C120.412 177.21 119.929 177.791 119.284 178.244C118.638 178.692 117.916 178.916 117.116 178.916ZM114.268 174.228H119.956C119.918 173.732 119.766 173.279 119.5 172.868C119.238 172.452 118.9 172.122 118.484 171.876C118.068 171.626 117.612 171.5 117.116 171.5C116.62 171.5 116.166 171.623 115.756 171.868C115.345 172.108 115.009 172.436 114.748 172.852C114.486 173.263 114.326 173.722 114.268 174.228ZM124.943 178.86C124.505 178.85 124.079 178.77 123.663 178.62C123.247 178.471 122.884 178.268 122.575 178.012C122.265 177.756 122.044 177.466 121.911 177.14L122.879 176.724C122.964 176.932 123.121 177.124 123.351 177.3C123.585 177.471 123.852 177.61 124.151 177.716C124.449 177.818 124.745 177.868 125.039 177.868C125.364 177.868 125.668 177.815 125.951 177.708C126.233 177.602 126.463 177.45 126.639 177.252C126.82 177.05 126.911 176.812 126.911 176.54C126.911 176.247 126.815 176.018 126.623 175.852C126.431 175.682 126.188 175.548 125.895 175.452C125.601 175.351 125.3 175.255 124.991 175.164C124.425 175.01 123.927 174.839 123.495 174.652C123.063 174.466 122.724 174.228 122.479 173.94C122.239 173.647 122.119 173.271 122.119 172.812C122.119 172.327 122.255 171.908 122.527 171.556C122.804 171.199 123.164 170.924 123.607 170.732C124.055 170.535 124.532 170.436 125.039 170.436C125.689 170.436 126.281 170.578 126.815 170.86C127.353 171.143 127.743 171.519 127.983 171.988L127.079 172.524C126.983 172.306 126.831 172.116 126.623 171.956C126.415 171.796 126.177 171.671 125.911 171.58C125.649 171.49 125.383 171.442 125.111 171.436C124.769 171.431 124.452 171.482 124.159 171.588C123.865 171.69 123.628 171.842 123.447 172.044C123.271 172.247 123.183 172.495 123.183 172.788C123.183 173.082 123.271 173.306 123.447 173.46C123.623 173.61 123.86 173.732 124.159 173.828C124.463 173.919 124.804 174.026 125.183 174.148C125.668 174.303 126.124 174.479 126.551 174.676C126.977 174.874 127.321 175.119 127.583 175.412C127.844 175.706 127.972 176.076 127.967 176.524C127.967 177.004 127.823 177.423 127.535 177.78C127.247 178.138 126.873 178.412 126.415 178.604C125.956 178.791 125.465 178.876 124.943 178.86ZM132.803 178.916C132.067 178.916 131.395 178.727 130.787 178.348C130.185 177.97 129.702 177.463 129.339 176.828C128.982 176.188 128.803 175.482 128.803 174.708C128.803 174.122 128.907 173.575 129.115 173.068C129.323 172.556 129.609 172.108 129.971 171.724C130.339 171.335 130.766 171.031 131.251 170.812C131.737 170.594 132.254 170.484 132.803 170.484C133.395 170.484 133.939 170.602 134.435 170.836C134.937 171.071 135.366 171.399 135.723 171.82C136.086 172.242 136.358 172.735 136.539 173.3C136.726 173.866 136.803 174.476 136.771 175.132H129.987C130.051 175.639 130.211 176.092 130.467 176.492C130.729 176.892 131.059 177.21 131.459 177.444C131.865 177.674 132.313 177.791 132.803 177.796C133.337 177.796 133.817 177.658 134.243 177.38C134.675 177.103 135.022 176.722 135.283 176.236L136.419 176.5C136.099 177.21 135.617 177.791 134.971 178.244C134.326 178.692 133.603 178.916 132.803 178.916ZM129.955 174.228H135.643C135.606 173.732 135.454 173.279 135.187 172.868C134.926 172.452 134.587 172.122 134.171 171.876C133.755 171.626 133.299 171.5 132.803 171.5C132.307 171.5 131.854 171.623 131.443 171.868C131.033 172.108 130.697 172.436 130.435 172.852C130.174 173.263 130.014 173.722 129.955 174.228Z" fill="#0C1021"/>
</g>
<g opacity="0.6">
<rect x="155.386" y="155.708" width="98" height="35" rx="17.5" fill="#0C1021" fill-opacity="0.04"/>
<g clip-path="url(#clip4_2076_29583)">
<path d="M180.377 182.045V164.372C183.898 165.759 186.386 169.193 186.386 173.208C186.386 177.223 183.898 180.658 180.377 182.045Z" fill="#F30040"/>
<path d="M173.394 182.045C169.874 180.658 167.386 177.223 167.386 173.208C167.386 169.193 169.874 165.759 173.394 164.372V182.045Z" fill="#14439E"/>
<path d="M176.886 182.708C175.653 182.708 174.473 182.475 173.394 182.045V164.372C174.473 163.942 175.653 163.708 176.886 163.708C178.119 163.708 179.298 163.942 180.377 164.372V182.045C179.298 182.475 178.119 182.708 176.886 182.708Z" fill="white"/>
</g>
<path d="M195.346 178.708V167.508H201.898V168.628H196.466V172.148H201.13V173.268H196.466V178.708H195.346ZM202.721 178.708V170.708H203.841V171.812C204.123 171.407 204.491 171.084 204.945 170.844C205.398 170.604 205.891 170.484 206.425 170.484C206.734 170.484 207.033 170.524 207.321 170.604L206.865 171.716C206.641 171.647 206.422 171.612 206.209 171.612C205.777 171.612 205.379 171.719 205.017 171.932C204.659 172.146 204.374 172.431 204.161 172.788C203.947 173.146 203.841 173.543 203.841 173.98V178.708H202.721ZM211.428 178.916C210.692 178.916 210.02 178.727 209.412 178.348C208.81 177.97 208.327 177.463 207.964 176.828C207.607 176.188 207.428 175.482 207.428 174.708C207.428 174.122 207.532 173.575 207.74 173.068C207.948 172.556 208.234 172.108 208.596 171.724C208.964 171.335 209.391 171.031 209.876 170.812C210.362 170.594 210.879 170.484 211.428 170.484C212.02 170.484 212.564 170.602 213.06 170.836C213.562 171.071 213.991 171.399 214.348 171.82C214.711 172.242 214.983 172.735 215.164 173.3C215.351 173.866 215.428 174.476 215.396 175.132H208.612C208.676 175.639 208.836 176.092 209.092 176.492C209.354 176.892 209.684 177.21 210.084 177.444C210.49 177.674 210.938 177.791 211.428 177.796C211.962 177.796 212.442 177.658 212.868 177.38C213.3 177.103 213.647 176.722 213.908 176.236L215.044 176.5C214.724 177.21 214.242 177.791 213.596 178.244C212.951 178.692 212.228 178.916 211.428 178.916ZM208.58 174.228H214.268C214.231 173.732 214.079 173.279 213.812 172.868C213.551 172.452 213.212 172.122 212.796 171.876C212.38 171.626 211.924 171.5 211.428 171.5C210.932 171.5 210.479 171.623 210.068 171.868C209.658 172.108 209.322 172.436 209.06 172.852C208.799 173.263 208.639 173.722 208.58 174.228ZM223.744 173.756V178.708H222.624V173.98C222.624 173.543 222.517 173.146 222.304 172.788C222.09 172.431 221.805 172.146 221.448 171.932C221.09 171.719 220.693 171.612 220.256 171.612C219.824 171.612 219.426 171.719 219.064 171.932C218.706 172.146 218.421 172.431 218.208 172.788C217.994 173.146 217.888 173.543 217.888 173.98V178.708H216.768V170.708H217.888V171.812C218.17 171.407 218.538 171.084 218.992 170.844C219.445 170.604 219.938 170.484 220.472 170.484C221.074 170.484 221.624 170.631 222.12 170.924C222.616 171.218 223.01 171.612 223.304 172.108C223.597 172.604 223.744 173.154 223.744 173.756ZM230.901 176.7L231.901 177.244C231.539 177.751 231.077 178.156 230.517 178.46C229.963 178.764 229.36 178.916 228.709 178.916C227.973 178.916 227.301 178.727 226.693 178.348C226.091 177.97 225.608 177.463 225.245 176.828C224.888 176.188 224.709 175.482 224.709 174.708C224.709 174.122 224.813 173.575 225.021 173.068C225.229 172.556 225.515 172.108 225.877 171.724C226.245 171.335 226.672 171.031 227.157 170.812C227.643 170.594 228.16 170.484 228.709 170.484C229.36 170.484 229.963 170.636 230.517 170.94C231.077 171.244 231.539 171.652 231.901 172.164L230.901 172.7C230.624 172.348 230.291 172.079 229.901 171.892C229.512 171.7 229.115 171.604 228.709 171.604C228.171 171.604 227.683 171.748 227.245 172.036C226.808 172.319 226.461 172.695 226.205 173.164C225.955 173.634 225.829 174.148 225.829 174.708C225.829 175.268 225.957 175.783 226.213 176.252C226.475 176.722 226.824 177.098 227.261 177.38C227.699 177.658 228.181 177.796 228.709 177.796C229.147 177.796 229.557 177.695 229.941 177.492C230.325 177.29 230.645 177.026 230.901 176.7ZM240.212 173.756V178.708H239.092V173.98C239.092 173.543 238.986 173.146 238.772 172.788C238.559 172.431 238.274 172.146 237.916 171.932C237.559 171.719 237.162 171.612 236.724 171.612C236.292 171.612 235.895 171.719 235.532 171.932C235.175 172.146 234.89 172.431 234.676 172.788C234.463 173.146 234.356 173.543 234.356 173.98V178.708H233.236V166.708H234.356V171.812C234.639 171.407 235.007 171.084 235.46 170.844C235.914 170.604 236.407 170.484 236.94 170.484C237.543 170.484 238.092 170.631 238.588 170.924C239.084 171.218 239.479 171.612 239.772 172.108C240.066 172.604 240.212 173.154 240.212 173.756Z" fill="#0C1021"/>
</g>
<g opacity="0.6">
<rect x="259.386" y="155.708" width="119" height="35" rx="17.5" fill="#0C1021" fill-opacity="0.04"/>
<rect x="271.386" y="163.708" width="19" height="19" rx="9.5" fill="white"/>
<path fill-rule="evenodd" clip-rule="evenodd" d="M280.888 177.708C283.092 177.708 284.886 175.914 284.886 173.708C284.886 171.503 283.092 169.708 280.888 169.708C278.685 169.708 276.886 171.503 276.886 173.708C276.886 175.914 278.685 177.708 280.888 177.708Z" fill="#DB1F26"/>
<path d="M300.706 178.916C300.343 178.916 299.988 178.855 299.642 178.732C299.3 178.615 298.988 178.434 298.706 178.188L299.418 177.324C299.588 177.468 299.783 177.583 300.002 177.668C300.22 177.754 300.455 177.796 300.706 177.796C301.079 177.796 301.418 177.698 301.722 177.5C302.026 177.298 302.268 177.036 302.45 176.716C302.636 176.391 302.73 176.044 302.73 175.676V167.508H303.85V175.676C303.85 176.252 303.708 176.786 303.426 177.276C303.143 177.767 302.764 178.164 302.29 178.468C301.815 178.767 301.287 178.916 300.706 178.916ZM312.344 170.708H313.464V178.708H312.344L312.304 177.22C312.042 177.727 311.677 178.138 311.208 178.452C310.738 178.762 310.178 178.916 309.528 178.916C308.941 178.916 308.392 178.807 307.88 178.588C307.368 178.364 306.917 178.058 306.528 177.668C306.138 177.279 305.834 176.828 305.616 176.316C305.397 175.804 305.288 175.255 305.288 174.668C305.288 174.092 305.394 173.551 305.608 173.044C305.826 172.538 306.125 172.092 306.504 171.708C306.888 171.324 307.33 171.026 307.832 170.812C308.338 170.594 308.88 170.484 309.456 170.484C310.122 170.484 310.704 170.644 311.2 170.964C311.696 171.279 312.09 171.692 312.384 172.204L312.344 170.708ZM309.504 177.828C310.074 177.828 310.565 177.69 310.976 177.412C311.386 177.13 311.701 176.751 311.92 176.276C312.144 175.802 312.256 175.279 312.256 174.708C312.256 174.122 312.144 173.594 311.92 173.124C311.696 172.65 311.378 172.274 310.968 171.996C310.557 171.719 310.069 171.58 309.504 171.58C308.938 171.58 308.421 171.722 307.952 172.004C307.488 172.282 307.117 172.658 306.84 173.132C306.568 173.607 306.432 174.132 306.432 174.708C306.432 175.29 306.573 175.818 306.856 176.292C307.138 176.762 307.512 177.135 307.976 177.412C308.445 177.69 308.954 177.828 309.504 177.828ZM316.184 182.708H315.064V170.708H316.184V172.204C316.462 171.698 316.84 171.287 317.32 170.972C317.8 170.658 318.371 170.5 319.032 170.5C319.614 170.5 320.158 170.61 320.664 170.828C321.176 171.047 321.624 171.351 322.008 171.74C322.392 172.124 322.694 172.57 322.912 173.076C323.131 173.583 323.24 174.127 323.24 174.708C323.24 175.29 323.131 175.836 322.912 176.348C322.694 176.86 322.392 177.311 322.008 177.7C321.624 178.084 321.176 178.386 320.664 178.604C320.158 178.823 319.614 178.932 319.032 178.932C318.371 178.932 317.8 178.775 317.32 178.46C316.84 178.146 316.462 177.735 316.184 177.228V182.708ZM319.024 171.588C318.464 171.588 317.976 171.73 317.56 172.012C317.15 172.29 316.832 172.663 316.608 173.132C316.384 173.602 316.272 174.127 316.272 174.708C316.272 175.279 316.382 175.802 316.6 176.276C316.824 176.751 317.142 177.13 317.552 177.412C317.968 177.695 318.459 177.836 319.024 177.836C319.579 177.836 320.088 177.698 320.552 177.42C321.022 177.143 321.398 176.77 321.68 176.3C321.963 175.826 322.104 175.295 322.104 174.708C322.104 174.138 321.966 173.618 321.688 173.148C321.411 172.674 321.04 172.295 320.576 172.012C320.112 171.73 319.595 171.588 319.024 171.588ZM331.094 170.708H332.214V178.708H331.094L331.054 177.22C330.792 177.727 330.427 178.138 329.958 178.452C329.488 178.762 328.928 178.916 328.278 178.916C327.691 178.916 327.142 178.807 326.63 178.588C326.118 178.364 325.667 178.058 325.278 177.668C324.888 177.279 324.584 176.828 324.366 176.316C324.147 175.804 324.038 175.255 324.038 174.668C324.038 174.092 324.144 173.551 324.358 173.044C324.576 172.538 324.875 172.092 325.254 171.708C325.638 171.324 326.08 171.026 326.582 170.812C327.088 170.594 327.63 170.484 328.206 170.484C328.872 170.484 329.454 170.644 329.95 170.964C330.446 171.279 330.84 171.692 331.134 172.204L331.094 170.708ZM328.254 177.828C328.824 177.828 329.315 177.69 329.726 177.412C330.136 177.13 330.451 176.751 330.67 176.276C330.894 175.802 331.006 175.279 331.006 174.708C331.006 174.122 330.894 173.594 330.67 173.124C330.446 172.65 330.128 172.274 329.718 171.996C329.307 171.719 328.819 171.58 328.254 171.58C327.688 171.58 327.171 171.722 326.702 172.004C326.238 172.282 325.867 172.658 325.59 173.132C325.318 173.607 325.182 174.132 325.182 174.708C325.182 175.29 325.323 175.818 325.606 176.292C325.888 176.762 326.262 177.135 326.726 177.412C327.195 177.69 327.704 177.828 328.254 177.828ZM340.79 173.756V178.708H339.67V173.98C339.67 173.543 339.564 173.146 339.35 172.788C339.137 172.431 338.852 172.146 338.494 171.932C338.137 171.719 337.74 171.612 337.302 171.612C336.87 171.612 336.473 171.719 336.11 171.932C335.753 172.146 335.468 172.431 335.254 172.788C335.041 173.146 334.934 173.543 334.934 173.98V178.708H333.814V170.708H334.934V171.812C335.217 171.407 335.585 171.084 336.038 170.844C336.492 170.604 336.985 170.484 337.518 170.484C338.121 170.484 338.67 170.631 339.166 170.924C339.662 171.218 340.057 171.612 340.35 172.108C340.644 172.604 340.79 173.154 340.79 173.756ZM345.756 178.916C345.02 178.916 344.348 178.727 343.74 178.348C343.138 177.97 342.655 177.463 342.292 176.828C341.935 176.188 341.756 175.482 341.756 174.708C341.756 174.122 341.86 173.575 342.068 173.068C342.276 172.556 342.562 172.108 342.924 171.724C343.292 171.335 343.719 171.031 344.204 170.812C344.69 170.594 345.207 170.484 345.756 170.484C346.348 170.484 346.892 170.602 347.388 170.836C347.89 171.071 348.319 171.399 348.676 171.82C349.039 172.242 349.311 172.735 349.492 173.3C349.679 173.866 349.756 174.476 349.724 175.132H342.94C343.004 175.639 343.164 176.092 343.42 176.492C343.682 176.892 344.012 177.21 344.412 177.444C344.818 177.674 345.266 177.791 345.756 177.796C346.29 177.796 346.77 177.658 347.196 177.38C347.628 177.103 347.975 176.722 348.236 176.236L349.372 176.5C349.052 177.21 348.57 177.791 347.924 178.244C347.279 178.692 346.556 178.916 345.756 178.916ZM342.908 174.228H348.596C348.559 173.732 348.407 173.279 348.14 172.868C347.879 172.452 347.54 172.122 347.124 171.876C346.708 171.626 346.252 171.5 345.756 171.5C345.26 171.5 344.807 171.623 344.396 171.868C343.986 172.108 343.65 172.436 343.388 172.852C343.127 173.263 342.967 173.722 342.908 174.228ZM353.583 178.86C353.146 178.85 352.719 178.77 352.303 178.62C351.887 178.471 351.525 178.268 351.215 178.012C350.906 177.756 350.685 177.466 350.551 177.14L351.519 176.724C351.605 176.932 351.762 177.124 351.991 177.3C352.226 177.471 352.493 177.61 352.791 177.716C353.09 177.818 353.386 177.868 353.679 177.868C354.005 177.868 354.309 177.815 354.591 177.708C354.874 177.602 355.103 177.45 355.279 177.252C355.461 177.05 355.551 176.812 355.551 176.54C355.551 176.247 355.455 176.018 355.263 175.852C355.071 175.682 354.829 175.548 354.535 175.452C354.242 175.351 353.941 175.255 353.631 175.164C353.066 175.01 352.567 174.839 352.135 174.652C351.703 174.466 351.365 174.228 351.119 173.94C350.879 173.647 350.759 173.271 350.759 172.812C350.759 172.327 350.895 171.908 351.167 171.556C351.445 171.199 351.805 170.924 352.247 170.732C352.695 170.535 353.173 170.436 353.679 170.436C354.33 170.436 354.922 170.578 355.455 170.86C355.994 171.143 356.383 171.519 356.623 171.988L355.719 172.524C355.623 172.306 355.471 172.116 355.263 171.956C355.055 171.796 354.818 171.671 354.551 171.58C354.29 171.49 354.023 171.442 353.751 171.436C353.41 171.431 353.093 171.482 352.799 171.588C352.506 171.69 352.269 171.842 352.087 172.044C351.911 172.247 351.823 172.495 351.823 172.788C351.823 173.082 351.911 173.306 352.087 173.46C352.263 173.61 352.501 173.732 352.799 173.828C353.103 173.919 353.445 174.026 353.823 174.148C354.309 174.303 354.765 174.479 355.191 174.676C355.618 174.874 355.962 175.119 356.223 175.412C356.485 175.706 356.613 176.076 356.607 176.524C356.607 177.004 356.463 177.423 356.175 177.78C355.887 178.138 355.514 178.412 355.055 178.604C354.597 178.791 354.106 178.876 353.583 178.86ZM361.444 178.916C360.708 178.916 360.036 178.727 359.428 178.348C358.825 177.97 358.343 177.463 357.98 176.828C357.623 176.188 357.444 175.482 357.444 174.708C357.444 174.122 357.548 173.575 357.756 173.068C357.964 172.556 358.249 172.108 358.612 171.724C358.98 171.335 359.407 171.031 359.892 170.812C360.377 170.594 360.895 170.484 361.444 170.484C362.036 170.484 362.58 170.602 363.076 170.836C363.577 171.071 364.007 171.399 364.364 171.82C364.727 172.242 364.999 172.735 365.18 173.3C365.367 173.866 365.444 174.476 365.412 175.132H358.628C358.692 175.639 358.852 176.092 359.108 176.492C359.369 176.892 359.7 177.21 360.1 177.444C360.505 177.674 360.953 177.791 361.444 177.796C361.977 177.796 362.457 177.658 362.884 177.38C363.316 177.103 363.663 176.722 363.924 176.236L365.06 176.5C364.74 177.21 364.257 177.791 363.612 178.244C362.967 178.692 362.244 178.916 361.444 178.916ZM358.596 174.228H364.284C364.247 173.732 364.095 173.279 363.828 172.868C363.567 172.452 363.228 172.122 362.812 171.876C362.396 171.626 361.94 171.5 361.444 171.5C360.948 171.5 360.495 171.623 360.084 171.868C359.673 172.108 359.337 172.436 359.076 172.852C358.815 173.263 358.655 173.722 358.596 174.228Z" fill="#0C1021"/>
</g>
<g opacity="0.6">
<rect x="42.3857" y="196.708" width="130" height="35" rx="17.5" fill="#0C1021" fill-opacity="0.04"/>
<g clip-path="url(#clip5_2076_29583)">
<path d="M54.3857 214.208C54.3857 218.293 56.9638 221.775 60.5813 223.117L61.4075 214.208L60.5813 205.299C56.9638 206.642 54.3857 210.124 54.3857 214.208Z" fill="#6DA544"/>
<path d="M73.3859 214.208C73.3859 208.962 69.1326 204.708 63.8859 204.708C62.7239 204.708 61.6107 204.918 60.5815 205.299V223.118C61.6107 223.499 62.7239 223.708 63.8859 223.708C69.1326 223.708 73.3859 219.455 73.3859 214.208Z" fill="#D80027"/>
<path d="M60.5812 217.513C62.4061 217.513 63.8855 216.033 63.8855 214.208C63.8855 212.383 62.4061 210.904 60.5812 210.904C58.7563 210.904 57.2769 212.383 57.2769 214.208C57.2769 216.033 58.7563 217.513 60.5812 217.513Z" fill="#FFDA44"/>
<path d="M58.7227 212.556V214.622C58.7227 215.648 59.5548 216.48 60.5814 216.48C61.6079 216.48 62.4401 215.648 62.4401 214.622V212.556H58.7227Z" fill="#D80027"/>
<path d="M60.5815 215.241C60.2399 215.241 59.9619 214.963 59.9619 214.621V213.795H61.201V214.622C61.201 214.963 60.9231 215.241 60.5815 215.241Z" fill="#F0F0F0"/>
</g>
<path d="M82.3457 219.708V208.508H85.9297C86.5271 208.508 87.0657 208.655 87.5457 208.948C88.0257 209.236 88.4071 209.628 88.6897 210.124C88.9777 210.615 89.1217 211.167 89.1217 211.78C89.1217 212.399 88.9751 212.956 88.6817 213.452C88.3937 213.948 88.0071 214.34 87.5217 214.628C87.0417 214.916 86.5111 215.06 85.9297 215.06H83.4657V219.708H82.3457ZM83.4657 213.94H85.8417C86.2364 213.94 86.5964 213.844 86.9217 213.652C87.2524 213.455 87.5137 213.191 87.7057 212.86C87.9031 212.524 88.0017 212.146 88.0017 211.724C88.0017 211.303 87.9031 210.927 87.7057 210.596C87.5137 210.26 87.2524 209.996 86.9217 209.804C86.5964 209.607 86.2364 209.508 85.8417 209.508H83.4657V213.94ZM93.5845 219.916C92.8485 219.916 92.1765 219.727 91.5685 219.348C90.9658 218.97 90.4832 218.463 90.1205 217.828C89.7632 217.188 89.5845 216.482 89.5845 215.708C89.5845 215.122 89.6885 214.575 89.8965 214.068C90.1045 213.556 90.3898 213.108 90.7525 212.724C91.1205 212.335 91.5472 212.031 92.0325 211.812C92.5178 211.594 93.0352 211.484 93.5845 211.484C94.3205 211.484 94.9898 211.674 95.5925 212.052C96.2005 212.431 96.6832 212.94 97.0405 213.58C97.4032 214.22 97.5845 214.93 97.5845 215.708C97.5845 216.29 97.4805 216.834 97.2725 217.34C97.0645 217.847 96.7765 218.295 96.4085 218.684C96.0458 219.068 95.6218 219.37 95.1365 219.588C94.6565 219.807 94.1392 219.916 93.5845 219.916ZM93.5845 218.796C94.1285 218.796 94.6165 218.655 95.0485 218.372C95.4858 218.084 95.8298 217.706 96.0805 217.236C96.3365 216.767 96.4645 216.258 96.4645 215.708C96.4645 215.148 96.3365 214.634 96.0805 214.164C95.8245 213.69 95.4778 213.311 95.0405 213.028C94.6085 212.746 94.1232 212.604 93.5845 212.604C93.0405 212.604 92.5498 212.748 92.1125 213.036C91.6805 213.319 91.3365 213.695 91.0805 214.164C90.8298 214.634 90.7045 215.148 90.7045 215.708C90.7045 216.284 90.8352 216.807 91.0965 217.276C91.3578 217.74 91.7072 218.111 92.1445 218.388C92.5818 218.66 93.0618 218.796 93.5845 218.796ZM98.9395 219.708V211.708H100.059V212.812C100.342 212.407 100.71 212.084 101.163 211.844C101.617 211.604 102.11 211.484 102.643 211.484C102.953 211.484 103.251 211.524 103.539 211.604L103.083 212.716C102.859 212.647 102.641 212.612 102.427 212.612C101.995 212.612 101.598 212.719 101.235 212.932C100.878 213.146 100.593 213.431 100.379 213.788C100.166 214.146 100.059 214.543 100.059 214.98V219.708H98.9395ZM108.746 212.828H106.834L106.826 219.708H105.706L105.714 212.828H104.266V211.708H105.714L105.706 209.196H106.826L106.834 211.708H108.746V212.828ZM109.854 216.644V211.708H110.974V216.42C110.974 216.858 111.081 217.255 111.294 217.612C111.507 217.97 111.793 218.255 112.15 218.468C112.513 218.682 112.91 218.788 113.342 218.788C113.779 218.788 114.174 218.682 114.526 218.468C114.883 218.255 115.169 217.97 115.382 217.612C115.595 217.255 115.702 216.858 115.702 216.42V211.708H116.822L116.83 219.708H115.71L115.702 218.588C115.419 218.994 115.051 219.316 114.598 219.556C114.15 219.796 113.659 219.916 113.126 219.916C112.523 219.916 111.974 219.77 111.478 219.476C110.982 219.183 110.587 218.788 110.294 218.292C110.001 217.796 109.854 217.247 109.854 216.644ZM124.721 211.708H125.841V220.004C125.841 220.516 125.729 220.996 125.505 221.444C125.287 221.892 124.988 222.284 124.609 222.62C124.236 222.962 123.809 223.228 123.329 223.42C122.849 223.612 122.351 223.708 121.833 223.708C121.279 223.708 120.743 223.58 120.225 223.324C119.708 223.074 119.257 222.738 118.873 222.316C118.495 221.895 118.225 221.428 118.065 220.916L119.097 220.444C119.199 220.844 119.388 221.204 119.665 221.524C119.948 221.85 120.279 222.106 120.657 222.292C121.041 222.484 121.433 222.58 121.833 222.58C122.201 222.58 122.556 222.511 122.897 222.372C123.244 222.239 123.553 222.055 123.825 221.82C124.103 221.586 124.321 221.311 124.481 220.996C124.641 220.687 124.721 220.356 124.721 220.004V218.236C124.444 218.738 124.068 219.143 123.593 219.452C123.124 219.762 122.577 219.916 121.953 219.916C121.393 219.916 120.865 219.807 120.369 219.588C119.879 219.37 119.447 219.068 119.073 218.684C118.7 218.295 118.407 217.847 118.193 217.34C117.985 216.834 117.881 216.29 117.881 215.708C117.881 215.127 117.985 214.583 118.193 214.076C118.407 213.564 118.7 213.116 119.073 212.732C119.447 212.343 119.879 212.039 120.369 211.82C120.865 211.602 121.393 211.492 121.953 211.492C122.577 211.492 123.124 211.647 123.593 211.956C124.068 212.26 124.444 212.666 124.721 213.172V211.708ZM121.961 218.828C122.516 218.828 122.993 218.684 123.393 218.396C123.799 218.108 124.111 217.727 124.329 217.252C124.548 216.778 124.657 216.263 124.657 215.708C124.657 215.138 124.545 214.618 124.321 214.148C124.103 213.674 123.791 213.295 123.385 213.012C122.98 212.724 122.505 212.58 121.961 212.58C121.417 212.58 120.921 212.722 120.473 213.004C120.031 213.282 119.679 213.658 119.417 214.132C119.156 214.607 119.025 215.132 119.025 215.708C119.025 216.284 119.159 216.81 119.425 217.284C119.692 217.754 120.047 218.13 120.489 218.412C120.937 218.69 121.428 218.828 121.961 218.828ZM127.338 216.644V211.708H128.458V216.42C128.458 216.858 128.565 217.255 128.778 217.612C128.992 217.97 129.277 218.255 129.634 218.468C129.997 218.682 130.394 218.788 130.826 218.788C131.264 218.788 131.658 218.682 132.01 218.468C132.368 218.255 132.653 217.97 132.866 217.612C133.08 217.255 133.186 216.858 133.186 216.42V211.708H134.306L134.314 219.708H133.194L133.186 218.588C132.904 218.994 132.536 219.316 132.082 219.556C131.634 219.796 131.144 219.916 130.61 219.916C130.008 219.916 129.458 219.77 128.962 219.476C128.466 219.183 128.072 218.788 127.778 218.292C127.485 217.796 127.338 217.247 127.338 216.644ZM139.366 219.916C138.63 219.916 137.958 219.727 137.35 219.348C136.747 218.97 136.264 218.463 135.902 217.828C135.544 217.188 135.366 216.482 135.366 215.708C135.366 215.122 135.47 214.575 135.678 214.068C135.886 213.556 136.171 213.108 136.534 212.724C136.902 212.335 137.328 212.031 137.814 211.812C138.299 211.594 138.816 211.484 139.366 211.484C139.958 211.484 140.502 211.602 140.998 211.836C141.499 212.071 141.928 212.399 142.286 212.82C142.648 213.242 142.92 213.735 143.102 214.3C143.288 214.866 143.366 215.476 143.334 216.132H136.55C136.614 216.639 136.774 217.092 137.03 217.492C137.291 217.892 137.622 218.21 138.022 218.444C138.427 218.674 138.875 218.791 139.366 218.796C139.899 218.796 140.379 218.658 140.806 218.38C141.238 218.103 141.584 217.722 141.846 217.236L142.982 217.5C142.662 218.21 142.179 218.791 141.534 219.244C140.888 219.692 140.166 219.916 139.366 219.916ZM136.518 215.228H142.206C142.168 214.732 142.016 214.279 141.75 213.868C141.488 213.452 141.15 213.122 140.734 212.876C140.318 212.626 139.862 212.5 139.366 212.5C138.87 212.5 138.416 212.623 138.006 212.868C137.595 213.108 137.259 213.436 136.998 213.852C136.736 214.263 136.576 214.722 136.518 215.228ZM147.193 219.86C146.755 219.85 146.329 219.77 145.913 219.62C145.497 219.471 145.134 219.268 144.825 219.012C144.515 218.756 144.294 218.466 144.161 218.14L145.129 217.724C145.214 217.932 145.371 218.124 145.601 218.3C145.835 218.471 146.102 218.61 146.401 218.716C146.699 218.818 146.995 218.868 147.289 218.868C147.614 218.868 147.918 218.815 148.201 218.708C148.483 218.602 148.713 218.45 148.889 218.252C149.07 218.05 149.161 217.812 149.161 217.54C149.161 217.247 149.065 217.018 148.873 216.852C148.681 216.682 148.438 216.548 148.145 216.452C147.851 216.351 147.55 216.255 147.241 216.164C146.675 216.01 146.177 215.839 145.745 215.652C145.313 215.466 144.974 215.228 144.729 214.94C144.489 214.647 144.369 214.271 144.369 213.812C144.369 213.327 144.505 212.908 144.777 212.556C145.054 212.199 145.414 211.924 145.857 211.732C146.305 211.535 146.782 211.436 147.289 211.436C147.939 211.436 148.531 211.578 149.065 211.86C149.603 212.143 149.993 212.519 150.233 212.988L149.329 213.524C149.233 213.306 149.081 213.116 148.873 212.956C148.665 212.796 148.427 212.671 148.161 212.58C147.899 212.49 147.633 212.442 147.361 212.436C147.019 212.431 146.702 212.482 146.409 212.588C146.115 212.69 145.878 212.842 145.697 213.044C145.521 213.247 145.433 213.495 145.433 213.788C145.433 214.082 145.521 214.306 145.697 214.46C145.873 214.61 146.11 214.732 146.409 214.828C146.713 214.919 147.054 215.026 147.433 215.148C147.918 215.303 148.374 215.479 148.801 215.676C149.227 215.874 149.571 216.119 149.833 216.412C150.094 216.706 150.222 217.076 150.217 217.524C150.217 218.004 150.073 218.423 149.785 218.78C149.497 219.138 149.123 219.412 148.665 219.604C148.206 219.791 147.715 219.876 147.193 219.86ZM155.053 219.916C154.317 219.916 153.645 219.727 153.037 219.348C152.435 218.97 151.952 218.463 151.589 217.828C151.232 217.188 151.053 216.482 151.053 215.708C151.053 215.122 151.157 214.575 151.365 214.068C151.573 213.556 151.859 213.108 152.221 212.724C152.589 212.335 153.016 212.031 153.501 211.812C153.987 211.594 154.504 211.484 155.053 211.484C155.645 211.484 156.189 211.602 156.685 211.836C157.187 212.071 157.616 212.399 157.973 212.82C158.336 213.242 158.608 213.735 158.789 214.3C158.976 214.866 159.053 215.476 159.021 216.132H152.237C152.301 216.639 152.461 217.092 152.717 217.492C152.979 217.892 153.309 218.21 153.709 218.444C154.115 218.674 154.563 218.791 155.053 218.796C155.587 218.796 156.067 218.658 156.493 218.38C156.925 218.103 157.272 217.722 157.533 217.236L158.669 217.5C158.349 218.21 157.867 218.791 157.221 219.244C156.576 219.692 155.853 219.916 155.053 219.916ZM152.205 215.228H157.893C157.856 214.732 157.704 214.279 157.437 213.868C157.176 213.452 156.837 213.122 156.421 212.876C156.005 212.626 155.549 212.5 155.053 212.5C154.557 212.5 154.104 212.623 153.693 212.868C153.283 213.108 152.947 213.436 152.685 213.852C152.424 214.263 152.264 214.722 152.205 215.228Z" fill="#0C1021"/>
</g>
</g>
<defs>
<filter id="filter0_d_2076_29583" x="-3.05176e-05" y="-0.00012207" width="463.772" height="277.772" filterUnits="userSpaceOnUse" color-interpolation-filters="sRGB">
<feFlood flood-opacity="0" result="BackgroundImageFix"/>
<feColorMatrix in="SourceAlpha" type="matrix" values="0 0 0 0 0 0 0 0 0 0 0 0 0 0 0 0 0 0 127 0" result="hardAlpha"/>
<feOffset dy="3.67715"/>
<feGaussianBlur stdDeviation="9.19289"/>
<feComposite in2="hardAlpha" operator="out"/>
<feColorMatrix type="matrix" values="0 0 0 0 0.0468057 0 0 0 0 0.0634939 0 0 0 0 0.129808 0 0 0 0.1 0"/>
<feBlend mode="normal" in2="BackgroundImageFix" result="effect1_dropShadow_2076_29583"/>
<feBlend mode="normal" in="SourceGraphic" in2="effect1_dropShadow_2076_29583" result="shape"/>
</filter>
<filter id="filter1_d_2076_29583" x="32.3857" y="104.708" width="127" height="55" filterUnits="userSpaceOnUse" color-interpolation-filters="sRGB">
<feFlood flood-opacity="0" result="BackgroundImageFix"/>
<feColorMatrix in="SourceAlpha" type="matrix" values="0 0 0 0 0 0 0 0 0 0 0 0 0 0 0 0 0 0 127 0" result="hardAlpha"/>
<feOffset/>
<feGaussianBlur stdDeviation="5"/>
<feComposite in2="hardAlpha" operator="out"/>
<feColorMatrix type="matrix" values="0 0 0 0 0.32549 0 0 0 0 0.337255 0 0 0 0 0.384314 0 0 0 0.15 0"/>
<feBlend mode="normal" in2="BackgroundImageFix" result="effect1_dropShadow_2076_29583"/>
<feBlend mode="normal" in="SourceGraphic" in2="effect1_dropShadow_2076_29583" result="shape"/>
</filter>
<clipPath id="clip0_2076_29583">
<rect width="19" height="19" fill="white" transform="translate(54.3857 122.708)"/>
</clipPath>
<clipPath id="clip1_2076_29583">
<rect width="19" height="19" fill="white" transform="translate(167.386 122.708)"/>
</clipPath>
<clipPath id="clip2_2076_29583">
<rect width="19" height="19" fill="white" transform="translate(272.386 122.708)"/>
</clipPath>
<clipPath id="clip3_2076_29583">
<rect width="19" height="19" fill="white" transform="translate(54.3857 163.708)"/>
</clipPath>
<clipPath id="clip4_2076_29583">
<rect width="19" height="19" fill="white" transform="translate(167.386 163.708)"/>
</clipPath>
<clipPath id="clip5_2076_29583">
<rect width="19" height="19" fill="white" transform="translate(54.3857 204.708)"/>
</clipPath>
</defs>
</svg>
