<svg width="464" height="274" viewBox="0 0 464 274" fill="none" xmlns="http://www.w3.org/2000/svg">
<g filter="url(#filter0_dn_2076_29541)">
<rect x="18.3857" y="14.7085" width="427" height="237" rx="22.0629" fill="white" shape-rendering="crispEdges"/>
<rect x="18.8454" y="15.1681" width="426.081" height="236.081" rx="21.6033" stroke="#0C1021" stroke-opacity="0.05" stroke-width="0.919289" shape-rendering="crispEdges"/>
<g filter="url(#filter1_i_2076_29541)">
<path d="M90.3278 151.708L107.323 122.283C103.436 123.75 99.5494 124.208 95.6628 123.658C91.7761 123.072 88.2194 121.678 84.9928 119.478C81.7661 117.242 79.1628 114.382 77.1828 110.898C75.2394 107.378 74.2678 103.418 74.2678 99.0185C74.2678 95.4985 74.9278 92.1802 76.2478 89.0635C77.6044 85.9468 79.4561 83.2152 81.8028 80.8685C84.1494 78.4852 86.8628 76.6335 89.9428 75.3135C93.0594 73.9568 96.3961 73.2785 99.9528 73.2785C104.646 73.2785 108.918 74.4518 112.768 76.7985C116.654 79.1085 119.753 82.2068 122.063 86.0935C124.409 89.9802 125.583 94.2885 125.583 99.0185C125.583 101.695 125.253 104.005 124.593 105.948C123.969 107.855 123.016 110 121.733 112.383L99.1828 151.708H90.3278ZM99.8428 117.058C103.326 117.058 106.424 116.233 109.138 114.583C111.888 112.897 114.051 110.678 115.628 107.928C117.204 105.178 117.993 102.227 117.993 99.0735C117.993 95.6268 117.149 92.5468 115.463 89.8335C113.813 87.0835 111.613 84.9202 108.863 83.3435C106.113 81.7302 103.143 80.9235 99.9528 80.9235C96.4328 80.9235 93.2978 81.7668 90.5478 83.4535C87.8344 85.1402 85.6894 87.3768 84.1128 90.1635C82.5728 92.9135 81.8028 95.8835 81.8028 99.0735C81.8028 102.373 82.6094 105.398 84.2228 108.148C85.8361 110.862 87.9994 113.025 90.7128 114.638C93.4628 116.252 96.5061 117.058 99.8428 117.058ZM148.228 151.708L165.223 122.283C161.336 123.75 157.45 124.208 153.563 123.658C149.676 123.072 146.12 121.678 142.893 119.478C139.666 117.242 137.063 114.382 135.083 110.898C133.14 107.378 132.168 103.418 132.168 99.0185C132.168 95.4985 132.828 92.1802 134.148 89.0635C135.505 85.9468 137.356 83.2152 139.703 80.8685C142.05 78.4852 144.763 76.6335 147.843 75.3135C150.96 73.9568 154.296 73.2785 157.853 73.2785C162.546 73.2785 166.818 74.4518 170.668 76.7985C174.555 79.1085 177.653 82.2068 179.963 86.0935C182.31 89.9802 183.483 94.2885 183.483 99.0185C183.483 101.695 183.153 104.005 182.493 105.948C181.87 107.855 180.917 110 179.633 112.383L157.083 151.708H148.228ZM157.743 117.058C161.226 117.058 164.325 116.233 167.038 114.583C169.788 112.897 171.952 110.678 173.528 107.928C175.105 105.178 175.893 102.227 175.893 99.0735C175.893 95.6268 175.05 92.5468 173.363 89.8335C171.713 87.0835 169.513 84.9202 166.763 83.3435C164.013 81.7302 161.043 80.9235 157.853 80.9235C154.333 80.9235 151.198 81.7668 148.448 83.4535C145.735 85.1402 143.59 87.3768 142.013 90.1635C140.473 92.9135 139.703 95.8835 139.703 99.0735C139.703 102.373 140.51 105.398 142.123 108.148C143.736 110.862 145.9 113.025 148.613 114.638C151.363 116.252 154.406 117.058 157.743 117.058ZM195.514 153.138C194.304 153.138 193.277 152.698 192.434 151.818C191.59 150.975 191.169 149.93 191.169 148.683C191.169 147.51 191.59 146.502 192.434 145.658C193.277 144.778 194.304 144.338 195.514 144.338C196.76 144.338 197.805 144.778 198.649 145.658C199.529 146.502 199.969 147.51 199.969 148.683C199.969 149.93 199.529 150.975 198.649 151.818C197.805 152.698 196.76 153.138 195.514 153.138ZM225.894 151.708L242.889 122.283C239.003 123.75 235.116 124.208 231.229 123.658C227.343 123.072 223.786 121.678 220.559 119.478C217.333 117.242 214.729 114.382 212.749 110.898C210.806 107.378 209.834 103.418 209.834 99.0185C209.834 95.4985 210.494 92.1802 211.814 89.0635C213.171 85.9468 215.023 83.2152 217.369 80.8685C219.716 78.4852 222.429 76.6335 225.509 75.3135C228.626 73.9568 231.963 73.2785 235.519 73.2785C240.213 73.2785 244.484 74.4518 248.334 76.7985C252.221 79.1085 255.319 82.2068 257.629 86.0935C259.976 89.9802 261.149 94.2885 261.149 99.0185C261.149 101.695 260.819 104.005 260.159 105.948C259.536 107.855 258.583 110 257.299 112.383L234.749 151.708H225.894ZM235.409 117.058C238.893 117.058 241.991 116.233 244.704 114.583C247.454 112.897 249.618 110.678 251.194 107.928C252.771 105.178 253.559 102.227 253.559 99.0735C253.559 95.6268 252.716 92.5468 251.029 89.8335C249.379 87.0835 247.179 84.9202 244.429 83.3435C241.679 81.7302 238.709 80.9235 235.519 80.9235C231.999 80.9235 228.864 81.7668 226.114 83.4535C223.401 85.1402 221.256 87.3768 219.679 90.1635C218.139 92.9135 217.369 95.8835 217.369 99.0735C217.369 102.373 218.176 105.398 219.789 108.148C221.403 110.862 223.566 113.025 226.279 114.638C229.029 116.252 232.073 117.058 235.409 117.058ZM293.365 153.138C288.855 153.138 284.73 152.112 280.99 150.058C277.286 148.005 274.335 145.255 272.135 141.808C269.935 138.362 268.835 134.53 268.835 130.313C268.835 126.207 269.971 122.467 272.245 119.093C274.518 115.683 277.47 113.043 281.1 111.173C278.093 109.45 275.618 107.103 273.675 104.133C271.731 101.127 270.76 97.8268 270.76 94.2335C270.76 90.3835 271.768 86.8818 273.785 83.7285C275.838 80.5385 278.57 78.0085 281.98 76.1385C285.426 74.2318 289.221 73.2785 293.365 73.2785C297.508 73.2785 301.285 74.2318 304.695 76.1385C308.141 78.0085 310.873 80.5385 312.89 83.7285C314.943 86.8818 315.97 90.3835 315.97 94.2335C315.97 97.8268 314.998 101.127 313.055 104.133C311.148 107.103 308.673 109.45 305.63 111.173C309.333 113.043 312.303 115.683 314.54 119.093C316.813 122.467 317.95 126.207 317.95 130.313C317.95 134.493 316.831 138.325 314.595 141.808C312.395 145.255 309.443 148.005 305.74 150.058C302.036 152.112 297.911 153.138 293.365 153.138ZM293.365 145.438C296.408 145.438 299.158 144.76 301.615 143.403C304.071 142.047 306.033 140.232 307.5 137.958C308.966 135.648 309.7 133.1 309.7 130.313C309.7 127.527 308.966 124.997 307.5 122.723C306.033 120.45 304.071 118.635 301.615 117.278C299.158 115.922 296.408 115.243 293.365 115.243C290.395 115.243 287.663 115.922 285.17 117.278C282.713 118.635 280.733 120.45 279.23 122.723C277.763 124.997 277.03 127.527 277.03 130.313C277.03 133.1 277.763 135.648 279.23 137.958C280.733 140.232 282.713 142.047 285.17 143.403C287.663 144.76 290.395 145.438 293.365 145.438ZM293.365 107.543C296.041 107.543 298.461 106.957 300.625 105.783C302.788 104.573 304.511 102.96 305.795 100.943C307.115 98.9268 307.775 96.6902 307.775 94.2335C307.775 91.7768 307.115 89.5585 305.795 87.5785C304.511 85.5618 302.788 83.9668 300.625 82.7935C298.461 81.5835 296.041 80.9785 293.365 80.9785C290.725 80.9785 288.305 81.5835 286.105 82.7935C283.941 83.9668 282.2 85.5618 280.88 87.5785C279.596 89.5585 278.955 91.7768 278.955 94.2335C278.955 96.6902 279.596 98.9268 280.88 100.943C282.2 102.96 283.941 104.573 286.105 105.783C288.305 106.957 290.725 107.543 293.365 107.543ZM330.86 151.708L375.3 74.7085H384.21L339.77 151.708H330.86ZM339.88 104.793C337.46 104.793 335.26 104.207 333.28 103.033C331.3 101.86 329.705 100.283 328.495 98.3035C327.322 96.2868 326.735 94.0685 326.735 91.6485C326.735 89.1552 327.322 86.9185 328.495 84.9385C329.705 82.9585 331.3 81.3818 333.28 80.2085C335.297 79.0352 337.497 78.4485 339.88 78.4485C342.3 78.4485 344.5 79.0535 346.48 80.2635C348.46 81.4368 350.037 83.0135 351.21 84.9935C352.42 86.9735 353.025 89.1918 353.025 91.6485C353.025 94.1052 352.42 96.3235 351.21 98.3035C350.037 100.283 348.442 101.86 346.425 103.033C344.445 104.207 342.263 104.793 339.88 104.793ZM339.88 98.9085C341.933 98.9085 343.657 98.2118 345.05 96.8185C346.443 95.3885 347.14 93.6652 347.14 91.6485C347.14 89.5952 346.443 87.8718 345.05 86.4785C343.657 85.0485 341.933 84.3335 339.88 84.3335C337.863 84.3335 336.14 85.0485 334.71 86.4785C333.317 87.8718 332.62 89.5952 332.62 91.6485C332.62 93.6652 333.317 95.3885 334.71 96.8185C336.14 98.2118 337.863 98.9085 339.88 98.9085ZM375.3 148.023C372.88 148.023 370.662 147.418 368.645 146.208C366.665 144.962 365.07 143.348 363.86 141.368C362.687 139.352 362.1 137.17 362.1 134.823C362.1 132.367 362.705 130.148 363.915 128.168C365.125 126.152 366.72 124.557 368.7 123.383C370.717 122.21 372.917 121.623 375.3 121.623C377.757 121.623 379.975 122.228 381.955 123.438C383.935 124.648 385.512 126.262 386.685 128.278C387.858 130.258 388.445 132.44 388.445 134.823C388.445 137.243 387.858 139.462 386.685 141.478C385.512 143.458 383.917 145.053 381.9 146.263C379.92 147.437 377.72 148.023 375.3 148.023ZM375.3 142.138C377.28 142.138 378.985 141.423 380.415 139.993C381.845 138.563 382.56 136.84 382.56 134.823C382.56 132.807 381.845 131.083 380.415 129.653C378.985 128.223 377.28 127.508 375.3 127.508C373.283 127.508 371.542 128.223 370.075 129.653C368.645 131.083 367.93 132.807 367.93 134.823C367.93 136.84 368.645 138.563 370.075 139.993C371.542 141.423 373.283 142.138 375.3 142.138Z" fill="url(#paint0_linear_2076_29541)"/>
</g>
<path d="M144.814 214.02C143.894 214.02 143.01 213.876 142.162 213.588C141.314 213.3 140.574 212.888 139.942 212.352C139.31 211.808 138.858 211.164 138.586 210.42L140.926 209.544C141.062 209.928 141.322 210.272 141.706 210.576C142.098 210.872 142.562 211.104 143.098 211.272C143.642 211.44 144.214 211.524 144.814 211.524C145.454 211.524 146.054 211.42 146.614 211.212C147.182 211.004 147.638 210.716 147.982 210.348C148.334 209.98 148.51 209.548 148.51 209.052C148.51 208.54 148.326 208.12 147.958 207.792C147.598 207.464 147.134 207.204 146.566 207.012C146.006 206.82 145.422 206.676 144.814 206.58C143.638 206.388 142.582 206.108 141.646 205.74C140.718 205.372 139.982 204.856 139.438 204.192C138.902 203.528 138.634 202.664 138.634 201.6C138.634 200.6 138.918 199.728 139.486 198.984C140.062 198.24 140.818 197.664 141.754 197.256C142.698 196.84 143.718 196.632 144.814 196.632C145.718 196.632 146.59 196.776 147.43 197.064C148.278 197.344 149.022 197.756 149.662 198.3C150.31 198.836 150.774 199.488 151.054 200.256L148.69 201.108C148.554 200.716 148.294 200.376 147.91 200.088C147.526 199.792 147.062 199.56 146.518 199.392C145.982 199.224 145.414 199.14 144.814 199.14C144.174 199.132 143.574 199.236 143.014 199.452C142.462 199.66 142.01 199.948 141.658 200.316C141.306 200.684 141.13 201.112 141.13 201.6C141.13 202.2 141.294 202.656 141.622 202.968C141.95 203.28 142.39 203.512 142.942 203.664C143.502 203.808 144.126 203.94 144.814 204.06C145.918 204.236 146.938 204.528 147.874 204.936C148.818 205.344 149.574 205.888 150.142 206.568C150.718 207.24 151.006 208.068 151.006 209.052C151.006 210.044 150.718 210.916 150.142 211.668C149.574 212.412 148.818 212.992 147.874 213.408C146.938 213.816 145.918 214.02 144.814 214.02ZM161.108 201.708H163.772L157.196 219.708H154.544L156.716 213.708L152.408 201.708H155.132L157.964 210.288L161.108 201.708ZM176.602 206.184V213.708H174.106V206.796C174.106 206.26 173.974 205.772 173.71 205.332C173.454 204.892 173.106 204.544 172.666 204.288C172.234 204.024 171.746 203.892 171.202 203.892C170.674 203.892 170.19 204.024 169.75 204.288C169.31 204.544 168.958 204.892 168.694 205.332C168.43 205.772 168.298 206.26 168.298 206.796V213.708H165.802V201.708H168.298V202.98C168.714 202.484 169.226 202.092 169.834 201.804C170.442 201.516 171.098 201.372 171.802 201.372C172.69 201.372 173.498 201.588 174.226 202.02C174.954 202.452 175.53 203.032 175.954 203.76C176.386 204.488 176.602 205.296 176.602 206.184ZM186.599 210.3L188.831 211.512C188.287 212.272 187.595 212.88 186.755 213.336C185.923 213.792 185.019 214.02 184.043 214.02C182.939 214.02 181.931 213.736 181.019 213.168C180.115 212.6 179.391 211.84 178.847 210.888C178.311 209.928 178.043 208.868 178.043 207.708C178.043 206.828 178.199 206.008 178.511 205.248C178.823 204.48 179.251 203.808 179.795 203.232C180.347 202.648 180.987 202.192 181.715 201.864C182.443 201.536 183.219 201.372 184.043 201.372C185.019 201.372 185.923 201.6 186.755 202.056C187.595 202.512 188.287 203.124 188.831 203.892L186.599 205.104C186.263 204.704 185.871 204.4 185.423 204.192C184.975 203.976 184.515 203.868 184.043 203.868C183.387 203.868 182.791 204.048 182.255 204.408C181.727 204.76 181.307 205.228 180.995 205.812C180.691 206.388 180.539 207.02 180.539 207.708C180.539 208.388 180.695 209.02 181.007 209.604C181.319 210.18 181.739 210.644 182.267 210.996C182.803 211.348 183.395 211.524 184.043 211.524C184.539 211.524 185.011 211.412 185.459 211.188C185.907 210.964 186.287 210.668 186.599 210.3ZM200.363 213.936C199.731 213.896 199.115 213.768 198.515 213.552C197.915 213.336 197.387 213.044 196.931 212.676C196.483 212.3 196.147 211.86 195.923 211.356L198.047 210.444C198.151 210.66 198.331 210.872 198.587 211.08C198.851 211.288 199.159 211.46 199.511 211.596C199.863 211.724 200.231 211.788 200.615 211.788C200.991 211.788 201.339 211.736 201.659 211.632C201.987 211.52 202.255 211.352 202.463 211.128C202.671 210.904 202.775 210.636 202.775 210.324C202.775 209.972 202.655 209.7 202.415 209.508C202.183 209.308 201.891 209.156 201.539 209.052C201.187 208.948 200.835 208.848 200.483 208.752C199.699 208.576 198.979 208.336 198.323 208.032C197.675 207.72 197.159 207.324 196.775 206.844C196.391 206.356 196.199 205.76 196.199 205.056C196.199 204.288 196.407 203.624 196.823 203.064C197.239 202.496 197.783 202.06 198.455 201.756C199.135 201.452 199.859 201.3 200.627 201.3C201.587 201.3 202.467 201.504 203.267 201.912C204.067 202.32 204.679 202.88 205.103 203.592L203.123 204.768C203.003 204.528 202.823 204.312 202.583 204.12C202.343 203.928 202.071 203.776 201.767 203.664C201.463 203.544 201.147 203.476 200.819 203.46C200.411 203.444 200.031 203.492 199.679 203.604C199.335 203.708 199.059 203.876 198.851 204.108C198.643 204.34 198.539 204.636 198.539 204.996C198.539 205.348 198.663 205.612 198.911 205.788C199.159 205.956 199.471 206.092 199.847 206.196C200.231 206.3 200.623 206.416 201.023 206.544C201.735 206.768 202.403 207.044 203.027 207.372C203.651 207.692 204.155 208.088 204.539 208.56C204.923 209.032 205.107 209.608 205.091 210.288C205.091 211.04 204.863 211.7 204.407 212.268C203.959 212.836 203.375 213.268 202.655 213.564C201.935 213.86 201.171 213.984 200.363 213.936ZM206.666 209.208V201.708H209.162V208.596C209.162 209.132 209.294 209.62 209.558 210.06C209.822 210.5 210.174 210.852 210.614 211.116C211.054 211.372 211.538 211.5 212.066 211.5C212.602 211.5 213.086 211.372 213.518 211.116C213.958 210.852 214.306 210.5 214.562 210.06C214.826 209.62 214.958 209.132 214.958 208.596V201.708H217.454L217.466 213.708H214.97L214.958 212.412C214.55 212.908 214.042 213.3 213.434 213.588C212.826 213.876 212.174 214.02 211.478 214.02C210.59 214.02 209.782 213.804 209.054 213.372C208.326 212.94 207.746 212.36 207.314 211.632C206.882 210.904 206.666 210.096 206.666 209.208ZM227.545 210.3L229.777 211.512C229.233 212.272 228.541 212.88 227.701 213.336C226.869 213.792 225.965 214.02 224.989 214.02C223.885 214.02 222.877 213.736 221.965 213.168C221.061 212.6 220.337 211.84 219.793 210.888C219.257 209.928 218.989 208.868 218.989 207.708C218.989 206.828 219.145 206.008 219.457 205.248C219.769 204.48 220.197 203.808 220.741 203.232C221.293 202.648 221.933 202.192 222.661 201.864C223.389 201.536 224.165 201.372 224.989 201.372C225.965 201.372 226.869 201.6 227.701 202.056C228.541 202.512 229.233 203.124 229.777 203.892L227.545 205.104C227.209 204.704 226.817 204.4 226.369 204.192C225.921 203.976 225.461 203.868 224.989 203.868C224.333 203.868 223.737 204.048 223.201 204.408C222.673 204.76 222.253 205.228 221.941 205.812C221.637 206.388 221.485 207.02 221.485 207.708C221.485 208.388 221.641 209.02 221.953 209.604C222.265 210.18 222.685 210.644 223.213 210.996C223.749 211.348 224.341 211.524 224.989 211.524C225.485 211.524 225.957 211.412 226.405 211.188C226.853 210.964 227.233 210.668 227.545 210.3ZM239.498 210.3L241.73 211.512C241.186 212.272 240.494 212.88 239.654 213.336C238.822 213.792 237.918 214.02 236.942 214.02C235.838 214.02 234.83 213.736 233.918 213.168C233.014 212.6 232.29 211.84 231.746 210.888C231.21 209.928 230.942 208.868 230.942 207.708C230.942 206.828 231.098 206.008 231.41 205.248C231.722 204.48 232.15 203.808 232.694 203.232C233.246 202.648 233.886 202.192 234.614 201.864C235.342 201.536 236.118 201.372 236.942 201.372C237.918 201.372 238.822 201.6 239.654 202.056C240.494 202.512 241.186 203.124 241.73 203.892L239.498 205.104C239.162 204.704 238.77 204.4 238.322 204.192C237.874 203.976 237.414 203.868 236.942 203.868C236.286 203.868 235.69 204.048 235.154 204.408C234.626 204.76 234.206 205.228 233.894 205.812C233.59 206.388 233.438 207.02 233.438 207.708C233.438 208.388 233.594 209.02 233.906 209.604C234.218 210.18 234.638 210.644 235.166 210.996C235.702 211.348 236.294 211.524 236.942 211.524C237.438 211.524 237.91 211.412 238.358 211.188C238.806 210.964 239.186 210.668 239.498 210.3ZM248.895 214.02C247.791 214.02 246.783 213.736 245.871 213.168C244.967 212.6 244.243 211.84 243.699 210.888C243.163 209.928 242.895 208.868 242.895 207.708C242.895 206.828 243.051 206.008 243.363 205.248C243.675 204.48 244.103 203.808 244.647 203.232C245.199 202.648 245.839 202.192 246.567 201.864C247.295 201.536 248.071 201.372 248.895 201.372C249.815 201.372 250.659 201.564 251.427 201.948C252.195 202.324 252.851 202.848 253.395 203.52C253.939 204.184 254.339 204.952 254.595 205.824C254.851 206.688 254.927 207.608 254.823 208.584H245.571C245.675 209.136 245.875 209.636 246.171 210.084C246.475 210.524 246.859 210.872 247.323 211.128C247.795 211.384 248.319 211.516 248.895 211.524C249.503 211.524 250.055 211.372 250.551 211.068C251.055 210.764 251.467 210.344 251.787 209.808L254.319 210.396C253.839 211.46 253.115 212.332 252.147 213.012C251.179 213.684 250.095 214.02 248.895 214.02ZM245.487 206.676H252.303C252.223 206.1 252.019 205.58 251.691 205.116C251.371 204.644 250.967 204.272 250.479 204C249.999 203.72 249.471 203.58 248.895 203.58C248.327 203.58 247.799 203.716 247.311 203.988C246.831 204.26 246.431 204.632 246.111 205.104C245.799 205.568 245.591 206.092 245.487 206.676ZM260.457 213.936C259.825 213.896 259.209 213.768 258.609 213.552C258.009 213.336 257.481 213.044 257.025 212.676C256.577 212.3 256.241 211.86 256.017 211.356L258.141 210.444C258.245 210.66 258.425 210.872 258.681 211.08C258.945 211.288 259.253 211.46 259.605 211.596C259.957 211.724 260.325 211.788 260.709 211.788C261.085 211.788 261.433 211.736 261.753 211.632C262.081 211.52 262.349 211.352 262.557 211.128C262.765 210.904 262.869 210.636 262.869 210.324C262.869 209.972 262.749 209.7 262.509 209.508C262.277 209.308 261.985 209.156 261.633 209.052C261.281 208.948 260.929 208.848 260.577 208.752C259.793 208.576 259.073 208.336 258.417 208.032C257.769 207.72 257.253 207.324 256.869 206.844C256.485 206.356 256.293 205.76 256.293 205.056C256.293 204.288 256.501 203.624 256.917 203.064C257.333 202.496 257.877 202.06 258.549 201.756C259.229 201.452 259.953 201.3 260.721 201.3C261.681 201.3 262.561 201.504 263.361 201.912C264.161 202.32 264.773 202.88 265.197 203.592L263.217 204.768C263.097 204.528 262.917 204.312 262.677 204.12C262.437 203.928 262.165 203.776 261.861 203.664C261.557 203.544 261.241 203.476 260.913 203.46C260.505 203.444 260.125 203.492 259.773 203.604C259.429 203.708 259.153 203.876 258.945 204.108C258.737 204.34 258.633 204.636 258.633 204.996C258.633 205.348 258.757 205.612 259.005 205.788C259.253 205.956 259.565 206.092 259.941 206.196C260.325 206.3 260.717 206.416 261.117 206.544C261.829 206.768 262.497 207.044 263.121 207.372C263.745 207.692 264.249 208.088 264.633 208.56C265.017 209.032 265.201 209.608 265.185 210.288C265.185 211.04 264.957 211.7 264.501 212.268C264.053 212.836 263.469 213.268 262.749 213.564C262.029 213.86 261.265 213.984 260.457 213.936ZM270.84 213.936C270.208 213.896 269.592 213.768 268.992 213.552C268.392 213.336 267.864 213.044 267.408 212.676C266.96 212.3 266.624 211.86 266.4 211.356L268.524 210.444C268.628 210.66 268.808 210.872 269.064 211.08C269.328 211.288 269.636 211.46 269.988 211.596C270.34 211.724 270.708 211.788 271.092 211.788C271.468 211.788 271.816 211.736 272.136 211.632C272.464 211.52 272.732 211.352 272.94 211.128C273.148 210.904 273.252 210.636 273.252 210.324C273.252 209.972 273.132 209.7 272.892 209.508C272.66 209.308 272.368 209.156 272.016 209.052C271.664 208.948 271.312 208.848 270.96 208.752C270.176 208.576 269.456 208.336 268.8 208.032C268.152 207.72 267.636 207.324 267.252 206.844C266.868 206.356 266.676 205.76 266.676 205.056C266.676 204.288 266.884 203.624 267.3 203.064C267.716 202.496 268.26 202.06 268.932 201.756C269.612 201.452 270.336 201.3 271.104 201.3C272.064 201.3 272.944 201.504 273.744 201.912C274.544 202.32 275.156 202.88 275.58 203.592L273.6 204.768C273.48 204.528 273.3 204.312 273.06 204.12C272.82 203.928 272.548 203.776 272.244 203.664C271.94 203.544 271.624 203.476 271.296 203.46C270.888 203.444 270.508 203.492 270.156 203.604C269.812 203.708 269.536 203.876 269.328 204.108C269.12 204.34 269.016 204.636 269.016 204.996C269.016 205.348 269.14 205.612 269.388 205.788C269.636 205.956 269.948 206.092 270.324 206.196C270.708 206.3 271.1 206.416 271.5 206.544C272.212 206.768 272.88 207.044 273.504 207.372C274.128 207.692 274.632 208.088 275.016 208.56C275.4 209.032 275.584 209.608 275.568 210.288C275.568 211.04 275.34 211.7 274.884 212.268C274.436 212.836 273.852 213.268 273.132 213.564C272.412 213.86 271.648 213.984 270.84 213.936ZM283.388 213.708V201.708H285.884V202.98C286.3 202.484 286.812 202.092 287.42 201.804C288.028 201.516 288.684 201.372 289.388 201.372C289.836 201.372 290.28 201.432 290.72 201.552L289.724 204.072C289.412 203.952 289.1 203.892 288.788 203.892C288.26 203.892 287.776 204.024 287.336 204.288C286.896 204.544 286.544 204.892 286.28 205.332C286.016 205.772 285.884 206.26 285.884 206.796V213.708H283.388ZM300.88 201.708H303.376V213.708H300.868L300.772 211.968C300.42 212.584 299.944 213.08 299.344 213.456C298.744 213.832 298.036 214.02 297.22 214.02C296.34 214.02 295.512 213.856 294.736 213.528C293.96 213.192 293.276 212.728 292.684 212.136C292.1 211.544 291.644 210.864 291.316 210.096C290.988 209.32 290.824 208.488 290.824 207.6C290.824 206.744 290.984 205.94 291.304 205.188C291.624 204.428 292.068 203.764 292.636 203.196C293.204 202.628 293.86 202.184 294.604 201.864C295.356 201.536 296.16 201.372 297.016 201.372C297.888 201.372 298.656 201.572 299.32 201.972C299.992 202.364 300.548 202.868 300.988 203.484L300.88 201.708ZM297.16 211.608C297.864 211.608 298.48 211.436 299.008 211.092C299.536 210.74 299.944 210.268 300.232 209.676C300.528 209.084 300.676 208.428 300.676 207.708C300.676 206.98 300.528 206.32 300.232 205.728C299.936 205.136 299.524 204.668 298.996 204.324C298.476 203.972 297.864 203.796 297.16 203.796C296.464 203.796 295.828 203.972 295.252 204.324C294.676 204.676 294.22 205.148 293.884 205.74C293.548 206.332 293.38 206.988 293.38 207.708C293.38 208.436 293.552 209.096 293.896 209.688C294.248 210.272 294.708 210.74 295.276 211.092C295.852 211.436 296.48 211.608 297.16 211.608ZM312.107 204.204H309.587L309.575 213.708H307.079L307.091 204.204H305.183V201.708H307.091L307.079 197.94H309.575L309.587 201.708H312.107V204.204ZM319.254 214.02C318.15 214.02 317.142 213.736 316.23 213.168C315.326 212.6 314.602 211.84 314.058 210.888C313.522 209.928 313.254 208.868 313.254 207.708C313.254 206.828 313.41 206.008 313.722 205.248C314.034 204.48 314.462 203.808 315.006 203.232C315.558 202.648 316.198 202.192 316.926 201.864C317.654 201.536 318.43 201.372 319.254 201.372C320.174 201.372 321.018 201.564 321.786 201.948C322.554 202.324 323.21 202.848 323.754 203.52C324.298 204.184 324.698 204.952 324.954 205.824C325.21 206.688 325.286 207.608 325.182 208.584H315.93C316.034 209.136 316.234 209.636 316.53 210.084C316.834 210.524 317.218 210.872 317.682 211.128C318.154 211.384 318.678 211.516 319.254 211.524C319.862 211.524 320.414 211.372 320.91 211.068C321.414 210.764 321.826 210.344 322.146 209.808L324.678 210.396C324.198 211.46 323.474 212.332 322.506 213.012C321.538 213.684 320.454 214.02 319.254 214.02ZM315.846 206.676H322.662C322.582 206.1 322.378 205.58 322.05 205.116C321.73 204.644 321.326 204.272 320.838 204C320.358 203.72 319.83 203.58 319.254 203.58C318.686 203.58 318.158 203.716 317.67 203.988C317.19 204.26 316.79 204.632 316.47 205.104C316.158 205.568 315.95 206.092 315.846 206.676Z" fill="#0C1021"/>
</g>
<defs>
<filter id="filter0_dn_2076_29541" x="-3.05176e-05" y="-0.00012207" width="463.772" height="273.772" filterUnits="userSpaceOnUse" color-interpolation-filters="sRGB">
<feFlood flood-opacity="0" result="BackgroundImageFix"/>
<feColorMatrix in="SourceAlpha" type="matrix" values="0 0 0 0 0 0 0 0 0 0 0 0 0 0 0 0 0 0 127 0" result="hardAlpha"/>
<feOffset dy="3.67715"/>
<feGaussianBlur stdDeviation="9.19289"/>
<feComposite in2="hardAlpha" operator="out"/>
<feColorMatrix type="matrix" values="0 0 0 0 0.0468057 0 0 0 0 0.0634939 0 0 0 0 0.129808 0 0 0 0.1 0"/>
<feBlend mode="normal" in2="BackgroundImageFix" result="effect1_dropShadow_2076_29541"/>
<feBlend mode="normal" in="SourceGraphic" in2="BackgroundImageFix" result="shape"/>
<feTurbulence type="fractalNoise" baseFrequency="1 1" stitchTiles="stitch" numOctaves="3" result="noise" seed="8993" />
<feColorMatrix in="noise" type="luminanceToAlpha" result="alphaNoise" />
<feComponentTransfer in="alphaNoise" result="coloredNoise1">
<feFuncA type="discrete" tableValues="1 1 1 1 1 1 1 1 1 1 1 1 1 1 1 1 1 1 1 1 1 1 1 1 1 1 1 1 1 1 1 1 1 1 1 1 1 1 1 1 1 1 1 1 1 1 1 1 1 1 1 0 0 0 0 0 0 0 0 0 0 0 0 0 0 0 0 0 0 0 0 0 0 0 0 0 0 0 0 0 0 0 0 0 0 0 0 0 0 0 0 0 0 0 0 0 0 0 0 0 "/>
</feComponentTransfer>
<feComposite operator="in" in2="shape" in="coloredNoise1" result="noise1Clipped" />
<feFlood flood-color="rgba(255, 255, 255, 0.15)" result="color1Flood" />
<feComposite operator="in" in2="noise1Clipped" in="color1Flood" result="color1" />
<feMerge result="effect2_noise_2076_29541">
<feMergeNode in="shape" />
<feMergeNode in="color1" />
</feMerge>
<feBlend mode="normal" in="effect2_noise_2076_29541" in2="effect1_dropShadow_2076_29541" result="effect2_noise_2076_29541"/>
</filter>
<filter id="filter1_i_2076_29541" x="74.2676" y="73.2786" width="314.177" height="83.8599" filterUnits="userSpaceOnUse" color-interpolation-filters="sRGB">
<feFlood flood-opacity="0" result="BackgroundImageFix"/>
<feBlend mode="normal" in="SourceGraphic" in2="BackgroundImageFix" result="shape"/>
<feColorMatrix in="SourceAlpha" type="matrix" values="0 0 0 0 0 0 0 0 0 0 0 0 0 0 0 0 0 0 127 0" result="hardAlpha"/>
<feOffset dy="4"/>
<feGaussianBlur stdDeviation="2"/>
<feComposite in2="hardAlpha" operator="arithmetic" k2="-1" k3="1"/>
<feColorMatrix type="matrix" values="0 0 0 0 0 0 0 0 0 0 0 0 0 0 0 0 0 0 0.25 0"/>
<feBlend mode="normal" in2="shape" result="effect1_innerShadow_2076_29541"/>
</filter>
<linearGradient id="paint0_linear_2076_29541" x1="231.886" y1="46.7085" x2="231.886" y2="178.708" gradientUnits="userSpaceOnUse">
<stop stop-color="#7490FF"/>
<stop offset="1" stop-color="#4268FF"/>
</linearGradient>
</defs>
</svg>
