<svg width="464" height="377" viewBox="0 0 464 377" fill="none" xmlns="http://www.w3.org/2000/svg">
<g filter="url(#filter0_d_2076_29517)">
<rect x="18.3857" y="14.7085" width="427" height="340" rx="22.0629" fill="white" shape-rendering="crispEdges"/>
<rect x="18.8454" y="15.1681" width="426.081" height="339.081" rx="21.6033" stroke="#0C1021" stroke-opacity="0.05" stroke-width="0.919289" shape-rendering="crispEdges"/>
<path d="M44.1857 64.7085V47.9085H46.6817V64.7085H44.1857ZM60.7195 57.1845V64.7085H58.2235V57.7965C58.2235 57.2605 58.0915 56.7725 57.8275 56.3325C57.5715 55.8925 57.2235 55.5445 56.7835 55.2885C56.3515 55.0245 55.8635 54.8925 55.3195 54.8925C54.7915 54.8925 54.3075 55.0245 53.8675 55.2885C53.4275 55.5445 53.0755 55.8925 52.8115 56.3325C52.5475 56.7725 52.4155 57.2605 52.4155 57.7965V64.7085H49.9195V52.7085H52.4155V53.9805C52.8315 53.4845 53.3435 53.0925 53.9515 52.8045C54.5595 52.5165 55.2155 52.3725 55.9195 52.3725C56.8075 52.3725 57.6155 52.5885 58.3435 53.0205C59.0715 53.4525 59.6475 54.0325 60.0715 54.7605C60.5035 55.4885 60.7195 56.2965 60.7195 57.1845ZM70.7164 61.3005L72.9484 62.5125C72.4044 63.2725 71.7124 63.8805 70.8724 64.3365C70.0404 64.7925 69.1364 65.0205 68.1604 65.0205C67.0564 65.0205 66.0484 64.7365 65.1364 64.1685C64.2324 63.6005 63.5084 62.8405 62.9644 61.8885C62.4284 60.9285 62.1604 59.8685 62.1604 58.7085C62.1604 57.8285 62.3164 57.0085 62.6284 56.2485C62.9404 55.4805 63.3684 54.8085 63.9124 54.2325C64.4644 53.6485 65.1044 53.1925 65.8324 52.8645C66.5604 52.5365 67.3364 52.3725 68.1604 52.3725C69.1364 52.3725 70.0404 52.6005 70.8724 53.0565C71.7124 53.5125 72.4044 54.1245 72.9484 54.8925L70.7164 56.1045C70.3804 55.7045 69.9884 55.4005 69.5404 55.1925C69.0924 54.9765 68.6324 54.8685 68.1604 54.8685C67.5044 54.8685 66.9084 55.0485 66.3724 55.4085C65.8444 55.7605 65.4244 56.2285 65.1124 56.8125C64.8084 57.3885 64.6564 58.0205 64.6564 58.7085C64.6564 59.3885 64.8124 60.0205 65.1244 60.6045C65.4364 61.1805 65.8564 61.6445 66.3844 61.9965C66.9204 62.3485 67.5124 62.5245 68.1604 62.5245C68.6564 62.5245 69.1284 62.4125 69.5764 62.1885C70.0244 61.9645 70.4044 61.6685 70.7164 61.3005ZM80.1136 65.0205C79.0096 65.0205 78.0016 64.7365 77.0896 64.1685C76.1856 63.6005 75.4616 62.8405 74.9176 61.8885C74.3816 60.9285 74.1136 59.8685 74.1136 58.7085C74.1136 57.8285 74.2696 57.0085 74.5816 56.2485C74.8936 55.4805 75.3216 54.8085 75.8656 54.2325C76.4176 53.6485 77.0576 53.1925 77.7856 52.8645C78.5136 52.5365 79.2896 52.3725 80.1136 52.3725C81.2176 52.3725 82.2216 52.6565 83.1256 53.2245C84.0376 53.7925 84.7616 54.5565 85.2976 55.5165C85.8416 56.4765 86.1136 57.5405 86.1136 58.7085C86.1136 59.5805 85.9576 60.3965 85.6456 61.1565C85.3336 61.9165 84.9016 62.5885 84.3496 63.1725C83.8056 63.7485 83.1696 64.2005 82.4416 64.5285C81.7216 64.8565 80.9456 65.0205 80.1136 65.0205ZM80.1136 62.5245C80.7776 62.5245 81.3736 62.3485 81.9016 61.9965C82.4296 61.6445 82.8456 61.1805 83.1496 60.6045C83.4616 60.0205 83.6176 59.3885 83.6176 58.7085C83.6176 58.0125 83.4576 57.3725 83.1376 56.7885C82.8256 56.2045 82.4056 55.7405 81.8776 55.3965C81.3496 55.0445 80.7616 54.8685 80.1136 54.8685C79.4576 54.8685 78.8616 55.0445 78.3256 55.3965C77.7976 55.7485 77.3776 56.2165 77.0656 56.8005C76.7616 57.3845 76.6096 58.0205 76.6096 58.7085C76.6096 59.4205 76.7696 60.0645 77.0896 60.6405C77.4096 61.2165 77.8336 61.6765 78.3616 62.0205C78.8976 62.3565 79.4816 62.5245 80.1136 62.5245ZM88.0523 64.7085V52.7085H90.5483V53.9805C90.9643 53.4845 91.4723 53.0925 92.0723 52.8045C92.6803 52.5165 93.3363 52.3725 94.0403 52.3725C94.8963 52.3725 95.6843 52.5805 96.4043 52.9965C97.1243 53.4045 97.6963 53.9485 98.1203 54.6285C98.5443 53.9485 99.1083 53.4045 99.8123 52.9965C100.524 52.5805 101.308 52.3725 102.164 52.3725C103.052 52.3725 103.86 52.5885 104.588 53.0205C105.316 53.4525 105.896 54.0325 106.328 54.7605C106.76 55.4885 106.976 56.2965 106.976 57.1845V64.7085H104.48V57.8205C104.48 57.2925 104.352 56.8085 104.096 56.3685C103.84 55.9285 103.496 55.5725 103.064 55.3005C102.632 55.0285 102.152 54.8925 101.624 54.8925C101.096 54.8925 100.616 55.0205 100.184 55.2765C99.7523 55.5325 99.4083 55.8805 99.1523 56.3205C98.8963 56.7605 98.7683 57.2605 98.7683 57.8205V64.7085H96.2723V57.8205C96.2723 57.2605 96.1443 56.7605 95.8883 56.3205C95.6323 55.8805 95.2843 55.5325 94.8443 55.2765C94.4123 55.0205 93.9323 54.8925 93.4043 54.8925C92.8843 54.8925 92.4043 55.0285 91.9643 55.3005C91.5323 55.5725 91.1883 55.9285 90.9323 56.3685C90.6763 56.8085 90.5483 57.2925 90.5483 57.8205V64.7085H88.0523ZM109.38 52.7085H111.876V64.7085H109.38V52.7085ZM110.652 50.9685C110.268 50.9685 109.948 50.8445 109.692 50.5965C109.436 50.3485 109.308 50.0365 109.308 49.6605C109.308 49.2925 109.436 48.9845 109.692 48.7365C109.948 48.4805 110.264 48.3525 110.64 48.3525C111.008 48.3525 111.32 48.4805 111.576 48.7365C111.832 48.9845 111.96 49.2925 111.96 49.6605C111.96 50.0365 111.832 50.3485 111.576 50.5965C111.328 50.8445 111.02 50.9685 110.652 50.9685ZM125.477 57.1845V64.7085H122.981V57.7965C122.981 57.2605 122.849 56.7725 122.585 56.3325C122.329 55.8925 121.981 55.5445 121.541 55.2885C121.109 55.0245 120.621 54.8925 120.077 54.8925C119.549 54.8925 119.065 55.0245 118.625 55.2885C118.185 55.5445 117.833 55.8925 117.569 56.3325C117.305 56.7725 117.173 57.2605 117.173 57.7965V64.7085H114.677V52.7085H117.173V53.9805C117.589 53.4845 118.101 53.0925 118.709 52.8045C119.317 52.5165 119.973 52.3725 120.677 52.3725C121.565 52.3725 122.373 52.5885 123.101 53.0205C123.829 53.4525 124.405 54.0325 124.829 54.7605C125.261 55.4885 125.477 56.2965 125.477 57.1845ZM136.77 52.7085H139.266V65.0205C139.266 65.8445 139.09 66.6045 138.738 67.3005C138.394 67.9965 137.926 68.5965 137.334 69.1005C136.742 69.6125 136.062 70.0085 135.294 70.2885C134.534 70.5685 133.738 70.7085 132.906 70.7085C132.066 70.7085 131.258 70.5285 130.482 70.1685C129.706 69.8165 129.022 69.3365 128.43 68.7285C127.846 68.1205 127.41 67.4325 127.122 66.6645L129.414 65.6325C129.574 66.1285 129.83 66.5685 130.182 66.9525C130.542 67.3365 130.958 67.6405 131.43 67.8645C131.91 68.0885 132.402 68.2005 132.906 68.2005C133.402 68.2005 133.878 68.1205 134.334 67.9605C134.798 67.8085 135.21 67.5925 135.57 67.3125C135.938 67.0325 136.23 66.6965 136.446 66.3045C136.662 65.9125 136.77 65.4845 136.77 65.0205V62.9925C136.378 63.6005 135.874 64.0925 135.258 64.4685C134.642 64.8365 133.926 65.0205 133.11 65.0205C132.262 65.0205 131.462 64.8565 130.71 64.5285C129.958 64.2005 129.298 63.7485 128.73 63.1725C128.162 62.5885 127.718 61.9165 127.398 61.1565C127.078 60.3965 126.918 59.5805 126.918 58.7085C126.918 57.8365 127.078 57.0205 127.398 56.2605C127.718 55.4925 128.162 54.8205 128.73 54.2445C129.298 53.6605 129.958 53.2045 130.71 52.8765C131.462 52.5485 132.262 52.3845 133.11 52.3845C133.926 52.3845 134.642 52.5725 135.258 52.9485C135.874 53.3165 136.378 53.8085 136.77 54.4245V52.7085ZM133.134 62.6085C133.83 62.6085 134.438 62.4325 134.958 62.0805C135.478 61.7205 135.882 61.2445 136.17 60.6525C136.458 60.0605 136.602 59.4125 136.602 58.7085C136.602 57.9885 136.454 57.3365 136.158 56.7525C135.87 56.1605 135.466 55.6885 134.946 55.3365C134.426 54.9765 133.822 54.7965 133.134 54.7965C132.462 54.7965 131.846 54.9725 131.286 55.3245C130.734 55.6765 130.294 56.1485 129.966 56.7405C129.638 57.3325 129.474 57.9885 129.474 58.7085C129.474 59.4285 129.638 60.0845 129.966 60.6765C130.302 61.2685 130.746 61.7405 131.298 62.0925C131.858 62.4365 132.47 62.6085 133.134 62.6085ZM155.688 65.0205C154.552 65.0205 153.484 64.7965 152.484 64.3485C151.484 63.8925 150.604 63.2685 149.844 62.4765C149.092 61.6765 148.5 60.7485 148.068 59.6925C147.644 58.6365 147.432 57.5085 147.432 56.3085C147.432 55.1085 147.644 53.9805 148.068 52.9245C148.5 51.8685 149.092 50.9445 149.844 50.1525C150.604 49.3525 151.484 48.7285 152.484 48.2805C153.484 47.8245 154.552 47.5965 155.688 47.5965C157.048 47.5965 158.3 47.9125 159.444 48.5445C160.588 49.1765 161.536 50.0165 162.288 51.0645L160.068 52.2525C159.548 51.5965 158.904 51.0725 158.136 50.6805C157.368 50.2885 156.552 50.0925 155.688 50.0925C154.888 50.0925 154.14 50.2565 153.444 50.5845C152.748 50.9125 152.136 51.3605 151.608 51.9285C151.08 52.4965 150.668 53.1565 150.372 53.9085C150.076 54.6605 149.928 55.4605 149.928 56.3085C149.928 57.1645 150.076 57.9685 150.372 58.7205C150.668 59.4645 151.08 60.1245 151.608 60.7005C152.144 61.2685 152.76 61.7165 153.456 62.0445C154.152 62.3645 154.896 62.5245 155.688 62.5245C156.568 62.5245 157.388 62.3285 158.148 61.9365C158.916 61.5365 159.556 61.0085 160.068 60.3525L162.288 61.5645C161.536 62.6125 160.588 63.4525 159.444 64.0845C158.3 64.7085 157.048 65.0205 155.688 65.0205ZM173.326 52.7085H175.822V64.7085H173.314L173.218 62.9685C172.866 63.5845 172.39 64.0805 171.79 64.4565C171.19 64.8325 170.482 65.0205 169.666 65.0205C168.786 65.0205 167.958 64.8565 167.182 64.5285C166.406 64.1925 165.722 63.7285 165.13 63.1365C164.546 62.5445 164.09 61.8645 163.762 61.0965C163.434 60.3205 163.27 59.4885 163.27 58.6005C163.27 57.7445 163.43 56.9405 163.75 56.1885C164.07 55.4285 164.514 54.7645 165.082 54.1965C165.65 53.6285 166.306 53.1845 167.05 52.8645C167.802 52.5365 168.606 52.3725 169.462 52.3725C170.334 52.3725 171.102 52.5725 171.766 52.9725C172.438 53.3645 172.994 53.8685 173.434 54.4845L173.326 52.7085ZM169.606 62.6085C170.31 62.6085 170.926 62.4365 171.454 62.0925C171.982 61.7405 172.39 61.2685 172.678 60.6765C172.974 60.0845 173.122 59.4285 173.122 58.7085C173.122 57.9805 172.974 57.3205 172.678 56.7285C172.382 56.1365 171.97 55.6685 171.442 55.3245C170.922 54.9725 170.31 54.7965 169.606 54.7965C168.91 54.7965 168.274 54.9725 167.698 55.3245C167.122 55.6765 166.666 56.1485 166.33 56.7405C165.994 57.3325 165.826 57.9885 165.826 58.7085C165.826 59.4365 165.998 60.0965 166.342 60.6885C166.694 61.2725 167.154 61.7405 167.722 62.0925C168.298 62.4365 168.926 62.6085 169.606 62.6085ZM178.31 64.7085V46.7085H180.806V64.7085H178.31ZM183.677 64.7085V46.7085H186.173V64.7085H183.677Z" fill="#0C1021"/>
<rect x="296.386" y="38.7085" width="125" height="35" rx="16" fill="white"/>
<rect x="296.886" y="39.2085" width="124" height="34" rx="15.5" stroke="#0C1021" stroke-opacity="0.1"/>
<circle cx="311.886" cy="56.2085" r="3.5" fill="#F30040"/>
<path d="M324.346 61.7085V50.5085H327.93C328.527 50.5085 329.066 50.6552 329.546 50.9485C330.026 51.2365 330.407 51.6285 330.69 52.1245C330.978 52.6152 331.122 53.1672 331.122 53.7805C331.122 54.3992 330.975 54.9565 330.682 55.4525C330.394 55.9485 330.007 56.3405 329.522 56.6285C329.042 56.9165 328.511 57.0605 327.93 57.0605H325.466V61.7085H324.346ZM325.466 55.9405H327.842C328.236 55.9405 328.596 55.8445 328.922 55.6525C329.252 55.4552 329.514 55.1912 329.706 54.8605C329.903 54.5245 330.002 54.1458 330.002 53.7245C330.002 53.3032 329.903 52.9272 329.706 52.5965C329.514 52.2605 329.252 51.9965 328.922 51.8045C328.596 51.6072 328.236 51.5085 327.842 51.5085H325.466V55.9405ZM332.564 61.7085V53.7085H333.684V54.8125C333.967 54.4072 334.335 54.0845 334.788 53.8445C335.242 53.6045 335.735 53.4845 336.268 53.4845C336.578 53.4845 336.876 53.5245 337.164 53.6045L336.708 54.7165C336.484 54.6472 336.266 54.6125 336.052 54.6125C335.62 54.6125 335.223 54.7192 334.86 54.9325C334.503 55.1458 334.218 55.4312 334.004 55.7885C333.791 56.1458 333.684 56.5432 333.684 56.9805V61.7085H332.564ZM338.174 53.7085H339.294V61.7085H338.174V53.7085ZM338.742 52.3085C338.561 52.3085 338.406 52.2498 338.278 52.1325C338.155 52.0098 338.094 51.8578 338.094 51.6765C338.094 51.4952 338.155 51.3458 338.278 51.2285C338.406 51.1058 338.561 51.0445 338.742 51.0445C338.918 51.0445 339.067 51.1058 339.19 51.2285C339.318 51.3458 339.382 51.4952 339.382 51.6765C339.382 51.8578 339.321 52.0098 339.198 52.1325C339.075 52.2498 338.923 52.3085 338.742 52.3085ZM344.663 61.9165C343.927 61.9165 343.255 61.7272 342.647 61.3485C342.044 60.9698 341.561 60.4632 341.199 59.8285C340.841 59.1885 340.663 58.4818 340.663 57.7085C340.663 57.1218 340.767 56.5752 340.975 56.0685C341.183 55.5565 341.468 55.1085 341.831 54.7245C342.199 54.3352 342.625 54.0312 343.111 53.8125C343.596 53.5938 344.113 53.4845 344.663 53.4845C345.399 53.4845 346.068 53.6738 346.671 54.0525C347.279 54.4312 347.761 54.9405 348.119 55.5805C348.481 56.2205 348.663 56.9298 348.663 57.7085C348.663 58.2898 348.559 58.8338 348.351 59.3405C348.143 59.8472 347.855 60.2952 347.487 60.6845C347.124 61.0685 346.7 61.3698 346.215 61.5885C345.735 61.8072 345.217 61.9165 344.663 61.9165ZM344.663 60.7965C345.207 60.7965 345.695 60.6552 346.127 60.3725C346.564 60.0845 346.908 59.7058 347.159 59.2365C347.415 58.7672 347.543 58.2578 347.543 57.7085C347.543 57.1485 347.415 56.6338 347.159 56.1645C346.903 55.6898 346.556 55.3112 346.119 55.0285C345.687 54.7458 345.201 54.6045 344.663 54.6045C344.119 54.6045 343.628 54.7485 343.191 55.0365C342.759 55.3192 342.415 55.6952 342.159 56.1645C341.908 56.6338 341.783 57.1485 341.783 57.7085C341.783 58.2845 341.913 58.8072 342.175 59.2765C342.436 59.7405 342.785 60.1112 343.223 60.3885C343.66 60.6605 344.14 60.7965 344.663 60.7965ZM350.018 61.7085V53.7085H351.138V54.8125C351.42 54.4072 351.788 54.0845 352.242 53.8445C352.695 53.6045 353.188 53.4845 353.722 53.4845C354.031 53.4845 354.33 53.5245 354.618 53.6045L354.162 54.7165C353.938 54.6472 353.719 54.6125 353.506 54.6125C353.074 54.6125 352.676 54.7192 352.314 54.9325C351.956 55.1458 351.671 55.4312 351.458 55.7885C351.244 56.1458 351.138 56.5432 351.138 56.9805V61.7085H350.018ZM355.627 53.7085H356.747V61.7085H355.627V53.7085ZM356.195 52.3085C356.014 52.3085 355.859 52.2498 355.731 52.1325C355.608 52.0098 355.547 51.8578 355.547 51.6765C355.547 51.4952 355.608 51.3458 355.731 51.2285C355.859 51.1058 356.014 51.0445 356.195 51.0445C356.371 51.0445 356.52 51.1058 356.643 51.2285C356.771 51.3458 356.835 51.4952 356.835 51.6765C356.835 51.8578 356.774 52.0098 356.651 52.1325C356.528 52.2498 356.376 52.3085 356.195 52.3085ZM362.762 54.8285H360.85L360.842 61.7085H359.722L359.73 54.8285H358.282V53.7085H359.73L359.722 51.1965H360.842L360.85 53.7085H362.762V54.8285ZM369.529 53.7085H370.713L366.337 65.7085H365.145L366.601 61.7085L363.729 53.7085H364.953L367.161 60.1645L369.529 53.7085ZM372.626 54.9885C372.45 54.9885 372.301 54.9272 372.178 54.8045C372.056 54.6765 371.994 54.5218 371.994 54.3405C371.994 54.1698 372.056 54.0232 372.178 53.9005C372.301 53.7725 372.45 53.7085 372.626 53.7085C372.808 53.7085 372.96 53.7725 373.082 53.9005C373.21 54.0232 373.274 54.1698 373.274 54.3405C373.274 54.5218 373.21 54.6765 373.082 54.8045C372.96 54.9272 372.808 54.9885 372.626 54.9885ZM372.626 61.9165C372.45 61.9165 372.301 61.8525 372.178 61.7245C372.056 61.6018 371.994 61.4498 371.994 61.2685C371.994 61.0978 372.056 60.9512 372.178 60.8285C372.301 60.7005 372.45 60.6365 372.626 60.6365C372.808 60.6365 372.96 60.7005 373.082 60.8285C373.21 60.9512 373.274 61.0978 373.274 61.2685C373.274 61.4498 373.21 61.6018 373.082 61.7245C372.96 61.8525 372.808 61.9165 372.626 61.9165ZM386.033 50.5085H387.153V61.7085H386.033V56.2685H380.153V61.7085H379.033V50.5085H380.153V55.1485H386.033V50.5085ZM389.08 53.7085H390.2V61.7085H389.08V53.7085ZM389.648 52.3085C389.467 52.3085 389.312 52.2498 389.184 52.1325C389.061 52.0098 389 51.8578 389 51.6765C389 51.4952 389.061 51.3458 389.184 51.2285C389.312 51.1058 389.467 51.0445 389.648 51.0445C389.824 51.0445 389.973 51.1058 390.096 51.2285C390.224 51.3458 390.288 51.4952 390.288 51.6765C390.288 51.8578 390.227 52.0098 390.104 52.1325C389.981 52.2498 389.829 52.3085 389.648 52.3085ZM398.409 53.7085H399.529V62.0045C399.529 62.5165 399.417 62.9965 399.193 63.4445C398.974 63.8925 398.676 64.2845 398.297 64.6205C397.924 64.9618 397.497 65.2285 397.017 65.4205C396.537 65.6125 396.038 65.7085 395.521 65.7085C394.966 65.7085 394.43 65.5805 393.913 65.3245C393.396 65.0738 392.945 64.7378 392.561 64.3165C392.182 63.8952 391.913 63.4285 391.753 62.9165L392.785 62.4445C392.886 62.8445 393.076 63.2045 393.353 63.5245C393.636 63.8498 393.966 64.1058 394.345 64.2925C394.729 64.4845 395.121 64.5805 395.521 64.5805C395.889 64.5805 396.244 64.5112 396.585 64.3725C396.932 64.2392 397.241 64.0552 397.513 63.8205C397.79 63.5858 398.009 63.3112 398.169 62.9965C398.329 62.6872 398.409 62.3565 398.409 62.0045V60.2365C398.132 60.7378 397.756 61.1432 397.281 61.4525C396.812 61.7618 396.265 61.9165 395.641 61.9165C395.081 61.9165 394.553 61.8072 394.057 61.5885C393.566 61.3698 393.134 61.0685 392.761 60.6845C392.388 60.2952 392.094 59.8472 391.881 59.3405C391.673 58.8338 391.569 58.2898 391.569 57.7085C391.569 57.1272 391.673 56.5832 391.881 56.0765C392.094 55.5645 392.388 55.1165 392.761 54.7325C393.134 54.3432 393.566 54.0392 394.057 53.8205C394.553 53.6018 395.081 53.4925 395.641 53.4925C396.265 53.4925 396.812 53.6472 397.281 53.9565C397.756 54.2605 398.132 54.6658 398.409 55.1725V53.7085ZM395.649 60.8285C396.204 60.8285 396.681 60.6845 397.081 60.3965C397.486 60.1085 397.798 59.7272 398.017 59.2525C398.236 58.7778 398.345 58.2632 398.345 57.7085C398.345 57.1378 398.233 56.6178 398.009 56.1485C397.79 55.6738 397.478 55.2952 397.073 55.0125C396.668 54.7245 396.193 54.5805 395.649 54.5805C395.105 54.5805 394.609 54.7218 394.161 55.0045C393.718 55.2818 393.366 55.6578 393.105 56.1325C392.844 56.6072 392.713 57.1325 392.713 57.7085C392.713 58.2845 392.846 58.8098 393.113 59.2845C393.38 59.7538 393.734 60.1298 394.177 60.4125C394.625 60.6898 395.116 60.8285 395.649 60.8285ZM408.431 56.7565V61.7085H407.311V56.9805C407.311 56.5432 407.204 56.1458 406.991 55.7885C406.778 55.4312 406.492 55.1458 406.135 54.9325C405.778 54.7192 405.38 54.6125 404.943 54.6125C404.511 54.6125 404.114 54.7192 403.751 54.9325C403.394 55.1458 403.108 55.4312 402.895 55.7885C402.682 56.1458 402.575 56.5432 402.575 56.9805V61.7085H401.455V49.7085H402.575V54.8125C402.858 54.4072 403.226 54.0845 403.679 53.8445C404.132 53.6045 404.626 53.4845 405.159 53.4845C405.762 53.4845 406.311 53.6312 406.807 53.9245C407.303 54.2178 407.698 54.6125 407.991 55.1085C408.284 55.6045 408.431 56.1538 408.431 56.7565Z" fill="#0C1021"/>
<rect x="54.3857" y="103.708" width="151" height="35" rx="16" fill="white"/>
<rect x="54.8857" y="104.208" width="150" height="34" rx="15.5" stroke="#0C1021" stroke-opacity="0.1"/>
<path d="M71.6897 126.916C70.7937 126.916 70.0204 126.698 69.3697 126.26C68.7191 125.823 68.2177 125.236 67.8657 124.5C67.5191 123.759 67.3457 122.938 67.3457 122.036V115.508H68.4657V122.036C68.4657 122.719 68.5911 123.346 68.8417 123.916C69.0924 124.487 69.4577 124.943 69.9377 125.284C70.4177 125.626 71.0017 125.796 71.6897 125.796C72.3937 125.796 72.9831 125.626 73.4577 125.284C73.9377 124.938 74.3004 124.479 74.5457 123.908C74.7911 123.338 74.9137 122.714 74.9137 122.036V115.508H76.0337V122.036C76.0337 122.714 75.9324 123.348 75.7297 123.94C75.5324 124.527 75.2444 125.044 74.8657 125.492C74.4924 125.94 74.0364 126.29 73.4977 126.54C72.9644 126.791 72.3617 126.916 71.6897 126.916ZM77.8457 126.708V118.708H78.9657V119.812C79.2484 119.407 79.6164 119.084 80.0697 118.844C80.5231 118.604 81.0164 118.484 81.5497 118.484C81.8591 118.484 82.1577 118.524 82.4457 118.604L81.9897 119.716C81.7657 119.647 81.5471 119.612 81.3337 119.612C80.9017 119.612 80.5044 119.719 80.1417 119.932C79.7844 120.146 79.4991 120.431 79.2857 120.788C79.0724 121.146 78.9657 121.543 78.9657 121.98V126.708H77.8457ZM89.3932 118.708H90.5132V127.004C90.5132 127.516 90.4012 127.996 90.1772 128.444C89.9586 128.892 89.6599 129.284 89.2812 129.62C88.9079 129.962 88.4812 130.228 88.0012 130.42C87.5212 130.612 87.0226 130.708 86.5052 130.708C85.9506 130.708 85.4146 130.58 84.8972 130.324C84.3799 130.074 83.9292 129.738 83.5452 129.316C83.1666 128.895 82.8972 128.428 82.7372 127.916L83.7692 127.444C83.8706 127.844 84.0599 128.204 84.3372 128.524C84.6199 128.85 84.9506 129.106 85.3292 129.292C85.7132 129.484 86.1052 129.58 86.5052 129.58C86.8732 129.58 87.2279 129.511 87.5692 129.372C87.9159 129.239 88.2252 129.055 88.4972 128.82C88.7746 128.586 88.9932 128.311 89.1532 127.996C89.3132 127.687 89.3932 127.356 89.3932 127.004V125.236C89.1159 125.738 88.7399 126.143 88.2652 126.452C87.7959 126.762 87.2492 126.916 86.6252 126.916C86.0652 126.916 85.5372 126.807 85.0412 126.588C84.5506 126.37 84.1186 126.068 83.7452 125.684C83.3719 125.295 83.0786 124.847 82.8652 124.34C82.6572 123.834 82.5532 123.29 82.5532 122.708C82.5532 122.127 82.6572 121.583 82.8652 121.076C83.0786 120.564 83.3719 120.116 83.7452 119.732C84.1186 119.343 84.5506 119.039 85.0412 118.82C85.5372 118.602 86.0652 118.492 86.6252 118.492C87.2492 118.492 87.7959 118.647 88.2652 118.956C88.7399 119.26 89.1159 119.666 89.3932 120.172V118.708ZM86.6332 125.828C87.1879 125.828 87.6652 125.684 88.0652 125.396C88.4706 125.108 88.7826 124.727 89.0012 124.252C89.2199 123.778 89.3292 123.263 89.3292 122.708C89.3292 122.138 89.2172 121.618 88.9932 121.148C88.7746 120.674 88.4626 120.295 88.0572 120.012C87.6519 119.724 87.1772 119.58 86.6332 119.58C86.0892 119.58 85.5932 119.722 85.1452 120.004C84.7026 120.282 84.3506 120.658 84.0892 121.132C83.8279 121.607 83.6972 122.132 83.6972 122.708C83.6972 123.284 83.8306 123.81 84.0972 124.284C84.3639 124.754 84.7186 125.13 85.1612 125.412C85.6092 125.69 86.0999 125.828 86.6332 125.828ZM95.8814 126.916C95.1454 126.916 94.4734 126.727 93.8654 126.348C93.2627 125.97 92.78 125.463 92.4174 124.828C92.06 124.188 91.8814 123.482 91.8814 122.708C91.8814 122.122 91.9854 121.575 92.1934 121.068C92.4014 120.556 92.6867 120.108 93.0494 119.724C93.4174 119.335 93.844 119.031 94.3294 118.812C94.8147 118.594 95.332 118.484 95.8814 118.484C96.4734 118.484 97.0174 118.602 97.5134 118.836C98.0147 119.071 98.444 119.399 98.8014 119.82C99.164 120.242 99.436 120.735 99.6174 121.3C99.804 121.866 99.8814 122.476 99.8494 123.132H93.0654C93.1294 123.639 93.2894 124.092 93.5454 124.492C93.8067 124.892 94.1374 125.21 94.5374 125.444C94.9427 125.674 95.3907 125.791 95.8814 125.796C96.4147 125.796 96.8947 125.658 97.3214 125.38C97.7534 125.103 98.1 124.722 98.3614 124.236L99.4974 124.5C99.1774 125.21 98.6947 125.791 98.0494 126.244C97.404 126.692 96.6814 126.916 95.8814 126.916ZM93.0334 122.228H98.7214C98.684 121.732 98.532 121.279 98.2654 120.868C98.004 120.452 97.6654 120.122 97.2494 119.876C96.8334 119.626 96.3774 119.5 95.8814 119.5C95.3854 119.5 94.932 119.623 94.5214 119.868C94.1107 120.108 93.7747 120.436 93.5134 120.852C93.252 121.263 93.092 121.722 93.0334 122.228ZM108.197 121.756V126.708H107.077V121.98C107.077 121.543 106.97 121.146 106.757 120.788C106.543 120.431 106.258 120.146 105.901 119.932C105.543 119.719 105.146 119.612 104.709 119.612C104.277 119.612 103.879 119.719 103.517 119.932C103.159 120.146 102.874 120.431 102.661 120.788C102.447 121.146 102.341 121.543 102.341 121.98V126.708H101.221V118.708H102.341V119.812C102.623 119.407 102.991 119.084 103.445 118.844C103.898 118.604 104.391 118.484 104.925 118.484C105.527 118.484 106.077 118.631 106.573 118.924C107.069 119.218 107.463 119.612 107.757 120.108C108.05 120.604 108.197 121.154 108.197 121.756ZM115.355 124.7L116.355 125.244C115.992 125.751 115.531 126.156 114.971 126.46C114.416 126.764 113.813 126.916 113.163 126.916C112.427 126.916 111.755 126.727 111.147 126.348C110.544 125.97 110.061 125.463 109.699 124.828C109.341 124.188 109.163 123.482 109.163 122.708C109.163 122.122 109.267 121.575 109.475 121.068C109.683 120.556 109.968 120.108 110.331 119.724C110.699 119.335 111.125 119.031 111.611 118.812C112.096 118.594 112.613 118.484 113.163 118.484C113.813 118.484 114.416 118.636 114.971 118.94C115.531 119.244 115.992 119.652 116.355 120.164L115.355 120.7C115.077 120.348 114.744 120.079 114.355 119.892C113.965 119.7 113.568 119.604 113.163 119.604C112.624 119.604 112.136 119.748 111.699 120.036C111.261 120.319 110.915 120.695 110.659 121.164C110.408 121.634 110.283 122.148 110.283 122.708C110.283 123.268 110.411 123.783 110.667 124.252C110.928 124.722 111.277 125.098 111.715 125.38C112.152 125.658 112.635 125.796 113.163 125.796C113.6 125.796 114.011 125.695 114.395 125.492C114.779 125.29 115.099 125.026 115.355 124.7ZM123.013 118.708H124.197L119.821 130.708H118.629L120.085 126.708L117.213 118.708H118.437L120.645 125.164L123.013 118.708ZM136.227 114.708H137.347V126.708H136.227V125.212C135.949 125.724 135.568 126.138 135.083 126.452C134.603 126.762 134.032 126.916 133.371 126.916C132.789 126.916 132.245 126.807 131.739 126.588C131.232 126.37 130.784 126.068 130.395 125.684C130.011 125.295 129.709 124.847 129.491 124.34C129.272 123.834 129.163 123.29 129.163 122.708C129.163 122.127 129.272 121.583 129.491 121.076C129.709 120.564 130.011 120.116 130.395 119.732C130.784 119.343 131.232 119.039 131.739 118.82C132.245 118.602 132.789 118.492 133.371 118.492C134.032 118.492 134.603 118.65 135.083 118.964C135.568 119.274 135.949 119.682 136.227 120.188V114.708ZM133.379 125.828C133.949 125.828 134.44 125.69 134.851 125.412C135.261 125.13 135.576 124.751 135.795 124.276C136.019 123.802 136.131 123.279 136.131 122.708C136.131 122.122 136.019 121.594 135.795 121.124C135.571 120.65 135.253 120.274 134.843 119.996C134.432 119.719 133.944 119.58 133.379 119.58C132.813 119.58 132.299 119.722 131.835 120.004C131.371 120.282 131 120.658 130.723 121.132C130.445 121.607 130.307 122.132 130.307 122.708C130.307 123.29 130.448 123.818 130.731 124.292C131.013 124.762 131.387 125.135 131.851 125.412C132.32 125.69 132.829 125.828 133.379 125.828ZM142.725 126.916C141.989 126.916 141.317 126.727 140.709 126.348C140.106 125.97 139.624 125.463 139.261 124.828C138.904 124.188 138.725 123.482 138.725 122.708C138.725 122.122 138.829 121.575 139.037 121.068C139.245 120.556 139.53 120.108 139.893 119.724C140.261 119.335 140.688 119.031 141.173 118.812C141.658 118.594 142.176 118.484 142.725 118.484C143.317 118.484 143.861 118.602 144.357 118.836C144.858 119.071 145.288 119.399 145.645 119.82C146.008 120.242 146.28 120.735 146.461 121.3C146.648 121.866 146.725 122.476 146.693 123.132H139.909C139.973 123.639 140.133 124.092 140.389 124.492C140.65 124.892 140.981 125.21 141.381 125.444C141.786 125.674 142.234 125.791 142.725 125.796C143.258 125.796 143.738 125.658 144.165 125.38C144.597 125.103 144.944 124.722 145.205 124.236L146.341 124.5C146.021 125.21 145.538 125.791 144.893 126.244C144.248 126.692 143.525 126.916 142.725 126.916ZM139.877 122.228H145.565C145.528 121.732 145.376 121.279 145.109 120.868C144.848 120.452 144.509 120.122 144.093 119.876C143.677 119.626 143.221 119.5 142.725 119.5C142.229 119.5 141.776 119.623 141.365 119.868C140.954 120.108 140.618 120.436 140.357 120.852C140.096 121.263 139.936 121.722 139.877 122.228ZM152.012 119.828H150.1L150.092 126.708H148.972L148.98 119.828H147.532V118.708H148.98L148.972 116.196H150.092L150.1 118.708H152.012V119.828ZM156.741 126.916C156.005 126.916 155.333 126.727 154.725 126.348C154.122 125.97 153.639 125.463 153.277 124.828C152.919 124.188 152.741 123.482 152.741 122.708C152.741 122.122 152.845 121.575 153.053 121.068C153.261 120.556 153.546 120.108 153.909 119.724C154.277 119.335 154.703 119.031 155.189 118.812C155.674 118.594 156.191 118.484 156.741 118.484C157.333 118.484 157.877 118.602 158.373 118.836C158.874 119.071 159.303 119.399 159.661 119.82C160.023 120.242 160.295 120.735 160.477 121.3C160.663 121.866 160.741 122.476 160.709 123.132H153.925C153.989 123.639 154.149 124.092 154.405 124.492C154.666 124.892 154.997 125.21 155.397 125.444C155.802 125.674 156.25 125.791 156.741 125.796C157.274 125.796 157.754 125.658 158.181 125.38C158.613 125.103 158.959 124.722 159.221 124.236L160.357 124.5C160.037 125.21 159.554 125.791 158.909 126.244C158.263 126.692 157.541 126.916 156.741 126.916ZM153.893 122.228H159.581C159.543 121.732 159.391 121.279 159.125 120.868C158.863 120.452 158.525 120.122 158.109 119.876C157.693 119.626 157.237 119.5 156.741 119.5C156.245 119.5 155.791 119.623 155.381 119.868C154.97 120.108 154.634 120.436 154.373 120.852C154.111 121.263 153.951 121.722 153.893 122.228ZM167.714 124.7L168.714 125.244C168.351 125.751 167.89 126.156 167.33 126.46C166.775 126.764 166.173 126.916 165.522 126.916C164.786 126.916 164.114 126.727 163.506 126.348C162.903 125.97 162.421 125.463 162.058 124.828C161.701 124.188 161.522 123.482 161.522 122.708C161.522 122.122 161.626 121.575 161.834 121.068C162.042 120.556 162.327 120.108 162.69 119.724C163.058 119.335 163.485 119.031 163.97 118.812C164.455 118.594 164.973 118.484 165.522 118.484C166.173 118.484 166.775 118.636 167.33 118.94C167.89 119.244 168.351 119.652 168.714 120.164L167.714 120.7C167.437 120.348 167.103 120.079 166.714 119.892C166.325 119.7 165.927 119.604 165.522 119.604C164.983 119.604 164.495 119.748 164.058 120.036C163.621 120.319 163.274 120.695 163.018 121.164C162.767 121.634 162.642 122.148 162.642 122.708C162.642 123.268 162.77 123.783 163.026 124.252C163.287 124.722 163.637 125.098 164.074 125.38C164.511 125.658 164.994 125.796 165.522 125.796C165.959 125.796 166.37 125.695 166.754 125.492C167.138 125.29 167.458 125.026 167.714 124.7ZM174.246 119.828H172.334L172.326 126.708H171.206L171.214 119.828H169.766V118.708H171.214L171.206 116.196H172.326L172.334 118.708H174.246V119.828ZM178.975 126.916C178.239 126.916 177.567 126.727 176.959 126.348C176.356 125.97 175.874 125.463 175.511 124.828C175.154 124.188 174.975 123.482 174.975 122.708C174.975 122.122 175.079 121.575 175.287 121.068C175.495 120.556 175.78 120.108 176.143 119.724C176.511 119.335 176.938 119.031 177.423 118.812C177.908 118.594 178.426 118.484 178.975 118.484C179.567 118.484 180.111 118.602 180.607 118.836C181.108 119.071 181.538 119.399 181.895 119.82C182.258 120.242 182.53 120.735 182.711 121.3C182.898 121.866 182.975 122.476 182.943 123.132H176.159C176.223 123.639 176.383 124.092 176.639 124.492C176.9 124.892 177.231 125.21 177.631 125.444C178.036 125.674 178.484 125.791 178.975 125.796C179.508 125.796 179.988 125.658 180.415 125.38C180.847 125.103 181.194 124.722 181.455 124.236L182.591 124.5C182.271 125.21 181.788 125.791 181.143 126.244C180.498 126.692 179.775 126.916 178.975 126.916ZM176.127 122.228H181.815C181.778 121.732 181.626 121.279 181.359 120.868C181.098 120.452 180.759 120.122 180.343 119.876C179.927 119.626 179.471 119.5 178.975 119.5C178.479 119.5 178.026 119.623 177.615 119.868C177.204 120.108 176.868 120.436 176.607 120.852C176.346 121.263 176.186 121.722 176.127 122.228ZM190.82 114.708H191.94V126.708H190.82V125.212C190.543 125.724 190.162 126.138 189.676 126.452C189.196 126.762 188.626 126.916 187.964 126.916C187.383 126.916 186.839 126.807 186.332 126.588C185.826 126.37 185.378 126.068 184.988 125.684C184.604 125.295 184.303 124.847 184.084 124.34C183.866 123.834 183.756 123.29 183.756 122.708C183.756 122.127 183.866 121.583 184.084 121.076C184.303 120.564 184.604 120.116 184.988 119.732C185.378 119.343 185.826 119.039 186.332 118.82C186.839 118.602 187.383 118.492 187.964 118.492C188.626 118.492 189.196 118.65 189.676 118.964C190.162 119.274 190.543 119.682 190.82 120.188V114.708ZM187.972 125.828C188.543 125.828 189.034 125.69 189.444 125.412C189.855 125.13 190.17 124.751 190.388 124.276C190.612 123.802 190.724 123.279 190.724 122.708C190.724 122.122 190.612 121.594 190.388 121.124C190.164 120.65 189.847 120.274 189.436 119.996C189.026 119.719 188.538 119.58 187.972 119.58C187.407 119.58 186.892 119.722 186.428 120.004C185.964 120.282 185.594 120.658 185.316 121.132C185.039 121.607 184.9 122.132 184.9 122.708C184.9 123.29 185.042 123.818 185.324 124.292C185.607 124.762 185.98 125.135 186.444 125.412C186.914 125.69 187.423 125.828 187.972 125.828Z" fill="#0C1021"/>
<rect x="235.386" y="184.708" width="162" height="35" rx="16" fill="white"/>
<rect x="235.886" y="185.208" width="161" height="34" rx="15.5" stroke="#0C1021" stroke-opacity="0.1"/>
<path d="M248.346 207.708V196.508H249.466V206.588H254.61V207.708H248.346ZM262.125 199.708H263.245V207.708H262.125L262.085 206.22C261.824 206.727 261.458 207.138 260.989 207.452C260.52 207.762 259.96 207.916 259.309 207.916C258.722 207.916 258.173 207.807 257.661 207.588C257.149 207.364 256.698 207.058 256.309 206.668C255.92 206.279 255.616 205.828 255.397 205.316C255.178 204.804 255.069 204.255 255.069 203.668C255.069 203.092 255.176 202.551 255.389 202.044C255.608 201.538 255.906 201.092 256.285 200.708C256.669 200.324 257.112 200.026 257.613 199.812C258.12 199.594 258.661 199.484 259.237 199.484C259.904 199.484 260.485 199.644 260.981 199.964C261.477 200.279 261.872 200.692 262.165 201.204L262.125 199.708ZM259.285 206.828C259.856 206.828 260.346 206.69 260.757 206.412C261.168 206.13 261.482 205.751 261.701 205.276C261.925 204.802 262.037 204.279 262.037 203.708C262.037 203.122 261.925 202.594 261.701 202.124C261.477 201.65 261.16 201.274 260.749 200.996C260.338 200.719 259.85 200.58 259.285 200.58C258.72 200.58 258.202 200.722 257.733 201.004C257.269 201.282 256.898 201.658 256.621 202.132C256.349 202.607 256.213 203.132 256.213 203.708C256.213 204.29 256.354 204.818 256.637 205.292C256.92 205.762 257.293 206.135 257.757 206.412C258.226 206.69 258.736 206.828 259.285 206.828ZM271.822 202.756V207.708H270.702V202.98C270.702 202.543 270.595 202.146 270.382 201.788C270.168 201.431 269.883 201.146 269.526 200.932C269.168 200.719 268.771 200.612 268.334 200.612C267.902 200.612 267.504 200.719 267.142 200.932C266.784 201.146 266.499 201.431 266.286 201.788C266.072 202.146 265.966 202.543 265.966 202.98V207.708H264.846V199.708H265.966V200.812C266.248 200.407 266.616 200.084 267.07 199.844C267.523 199.604 268.016 199.484 268.55 199.484C269.152 199.484 269.702 199.631 270.198 199.924C270.694 200.218 271.088 200.612 271.382 201.108C271.675 201.604 271.822 202.154 271.822 202.756ZM279.628 199.708H280.748V208.004C280.748 208.516 280.636 208.996 280.412 209.444C280.193 209.892 279.894 210.284 279.516 210.62C279.142 210.962 278.716 211.228 278.236 211.42C277.756 211.612 277.257 211.708 276.74 211.708C276.185 211.708 275.649 211.58 275.132 211.324C274.614 211.074 274.164 210.738 273.78 210.316C273.401 209.895 273.132 209.428 272.972 208.916L274.004 208.444C274.105 208.844 274.294 209.204 274.572 209.524C274.854 209.85 275.185 210.106 275.564 210.292C275.948 210.484 276.34 210.58 276.74 210.58C277.108 210.58 277.462 210.511 277.804 210.372C278.15 210.239 278.46 210.055 278.732 209.82C279.009 209.586 279.228 209.311 279.388 208.996C279.548 208.687 279.628 208.356 279.628 208.004V206.236C279.35 206.738 278.974 207.143 278.5 207.452C278.03 207.762 277.484 207.916 276.86 207.916C276.3 207.916 275.772 207.807 275.276 207.588C274.785 207.37 274.353 207.068 273.98 206.684C273.606 206.295 273.313 205.847 273.1 205.34C272.892 204.834 272.788 204.29 272.788 203.708C272.788 203.127 272.892 202.583 273.1 202.076C273.313 201.564 273.606 201.116 273.98 200.732C274.353 200.343 274.785 200.039 275.276 199.82C275.772 199.602 276.3 199.492 276.86 199.492C277.484 199.492 278.03 199.647 278.5 199.956C278.974 200.26 279.35 200.666 279.628 201.172V199.708ZM276.868 206.828C277.422 206.828 277.9 206.684 278.3 206.396C278.705 206.108 279.017 205.727 279.236 205.252C279.454 204.778 279.564 204.263 279.564 203.708C279.564 203.138 279.452 202.618 279.228 202.148C279.009 201.674 278.697 201.295 278.292 201.012C277.886 200.724 277.412 200.58 276.868 200.58C276.324 200.58 275.828 200.722 275.38 201.004C274.937 201.282 274.585 201.658 274.324 202.132C274.062 202.607 273.932 203.132 273.932 203.708C273.932 204.284 274.065 204.81 274.332 205.284C274.598 205.754 274.953 206.13 275.396 206.412C275.844 206.69 276.334 206.828 276.868 206.828ZM282.244 204.644V199.708H283.364V204.42C283.364 204.858 283.471 205.255 283.684 205.612C283.898 205.97 284.183 206.255 284.54 206.468C284.903 206.682 285.3 206.788 285.732 206.788C286.17 206.788 286.564 206.682 286.916 206.468C287.274 206.255 287.559 205.97 287.772 205.612C287.986 205.255 288.092 204.858 288.092 204.42V199.708H289.212L289.22 207.708H288.1L288.092 206.588C287.81 206.994 287.442 207.316 286.988 207.556C286.54 207.796 286.05 207.916 285.516 207.916C284.914 207.916 284.364 207.77 283.868 207.476C283.372 207.183 282.978 206.788 282.684 206.292C282.391 205.796 282.244 205.247 282.244 204.644ZM297.328 199.708H298.448V207.708H297.328L297.288 206.22C297.027 206.727 296.661 207.138 296.192 207.452C295.723 207.762 295.163 207.916 294.512 207.916C293.925 207.916 293.376 207.807 292.864 207.588C292.352 207.364 291.901 207.058 291.512 206.668C291.123 206.279 290.819 205.828 290.6 205.316C290.381 204.804 290.272 204.255 290.272 203.668C290.272 203.092 290.379 202.551 290.592 202.044C290.811 201.538 291.109 201.092 291.488 200.708C291.872 200.324 292.315 200.026 292.816 199.812C293.323 199.594 293.864 199.484 294.44 199.484C295.107 199.484 295.688 199.644 296.184 199.964C296.68 200.279 297.075 200.692 297.368 201.204L297.328 199.708ZM294.488 206.828C295.059 206.828 295.549 206.69 295.96 206.412C296.371 206.13 296.685 205.751 296.904 205.276C297.128 204.802 297.24 204.279 297.24 203.708C297.24 203.122 297.128 202.594 296.904 202.124C296.68 201.65 296.363 201.274 295.952 200.996C295.541 200.719 295.053 200.58 294.488 200.58C293.923 200.58 293.405 200.722 292.936 201.004C292.472 201.282 292.101 201.658 291.824 202.132C291.552 202.607 291.416 203.132 291.416 203.708C291.416 204.29 291.557 204.818 291.84 205.292C292.123 205.762 292.496 206.135 292.96 206.412C293.429 206.69 293.939 206.828 294.488 206.828ZM306.253 199.708H307.373V208.004C307.373 208.516 307.261 208.996 307.037 209.444C306.818 209.892 306.519 210.284 306.141 210.62C305.767 210.962 305.341 211.228 304.861 211.42C304.381 211.612 303.882 211.708 303.365 211.708C302.81 211.708 302.274 211.58 301.757 211.324C301.239 211.074 300.789 210.738 300.405 210.316C300.026 209.895 299.757 209.428 299.597 208.916L300.629 208.444C300.73 208.844 300.919 209.204 301.197 209.524C301.479 209.85 301.81 210.106 302.189 210.292C302.573 210.484 302.965 210.58 303.365 210.58C303.733 210.58 304.087 210.511 304.429 210.372C304.775 210.239 305.085 210.055 305.357 209.82C305.634 209.586 305.853 209.311 306.013 208.996C306.173 208.687 306.253 208.356 306.253 208.004V206.236C305.975 206.738 305.599 207.143 305.125 207.452C304.655 207.762 304.109 207.916 303.485 207.916C302.925 207.916 302.397 207.807 301.901 207.588C301.41 207.37 300.978 207.068 300.605 206.684C300.231 206.295 299.938 205.847 299.725 205.34C299.517 204.834 299.413 204.29 299.413 203.708C299.413 203.127 299.517 202.583 299.725 202.076C299.938 201.564 300.231 201.116 300.605 200.732C300.978 200.343 301.41 200.039 301.901 199.82C302.397 199.602 302.925 199.492 303.485 199.492C304.109 199.492 304.655 199.647 305.125 199.956C305.599 200.26 305.975 200.666 306.253 201.172V199.708ZM303.493 206.828C304.047 206.828 304.525 206.684 304.925 206.396C305.33 206.108 305.642 205.727 305.861 205.252C306.079 204.778 306.189 204.263 306.189 203.708C306.189 203.138 306.077 202.618 305.853 202.148C305.634 201.674 305.322 201.295 304.917 201.012C304.511 200.724 304.037 200.58 303.493 200.58C302.949 200.58 302.453 200.722 302.005 201.004C301.562 201.282 301.21 201.658 300.949 202.132C300.687 202.607 300.557 203.132 300.557 203.708C300.557 204.284 300.69 204.81 300.957 205.284C301.223 205.754 301.578 206.13 302.021 206.412C302.469 206.69 302.959 206.828 303.493 206.828ZM312.741 207.916C312.005 207.916 311.333 207.727 310.725 207.348C310.122 206.97 309.639 206.463 309.277 205.828C308.919 205.188 308.741 204.482 308.741 203.708C308.741 203.122 308.845 202.575 309.053 202.068C309.261 201.556 309.546 201.108 309.909 200.724C310.277 200.335 310.703 200.031 311.189 199.812C311.674 199.594 312.191 199.484 312.741 199.484C313.333 199.484 313.877 199.602 314.373 199.836C314.874 200.071 315.303 200.399 315.661 200.82C316.023 201.242 316.295 201.735 316.477 202.3C316.663 202.866 316.741 203.476 316.709 204.132H309.925C309.989 204.639 310.149 205.092 310.405 205.492C310.666 205.892 310.997 206.21 311.397 206.444C311.802 206.674 312.25 206.791 312.741 206.796C313.274 206.796 313.754 206.658 314.181 206.38C314.613 206.103 314.959 205.722 315.221 205.236L316.357 205.5C316.037 206.21 315.554 206.791 314.909 207.244C314.263 207.692 313.541 207.916 312.741 207.916ZM309.893 203.228H315.581C315.543 202.732 315.391 202.279 315.125 201.868C314.863 201.452 314.525 201.122 314.109 200.876C313.693 200.626 313.237 200.5 312.741 200.5C312.245 200.5 311.791 200.623 311.381 200.868C310.97 201.108 310.634 201.436 310.373 201.852C310.111 202.263 309.951 202.722 309.893 203.228ZM328.586 195.708H329.706V207.708H328.586V206.212C328.309 206.724 327.927 207.138 327.442 207.452C326.962 207.762 326.391 207.916 325.73 207.916C325.149 207.916 324.605 207.807 324.098 207.588C323.591 207.37 323.143 207.068 322.754 206.684C322.37 206.295 322.069 205.847 321.85 205.34C321.631 204.834 321.522 204.29 321.522 203.708C321.522 203.127 321.631 202.583 321.85 202.076C322.069 201.564 322.37 201.116 322.754 200.732C323.143 200.343 323.591 200.039 324.098 199.82C324.605 199.602 325.149 199.492 325.73 199.492C326.391 199.492 326.962 199.65 327.442 199.964C327.927 200.274 328.309 200.682 328.586 201.188V195.708ZM325.738 206.828C326.309 206.828 326.799 206.69 327.21 206.412C327.621 206.13 327.935 205.751 328.154 205.276C328.378 204.802 328.49 204.279 328.49 203.708C328.49 203.122 328.378 202.594 328.154 202.124C327.93 201.65 327.613 201.274 327.202 200.996C326.791 200.719 326.303 200.58 325.738 200.58C325.173 200.58 324.658 200.722 324.194 201.004C323.73 201.282 323.359 201.658 323.082 202.132C322.805 202.607 322.666 203.132 322.666 203.708C322.666 204.29 322.807 204.818 323.09 205.292C323.373 205.762 323.746 206.135 324.21 206.412C324.679 206.69 325.189 206.828 325.738 206.828ZM335.084 207.916C334.348 207.916 333.676 207.727 333.068 207.348C332.466 206.97 331.983 206.463 331.62 205.828C331.263 205.188 331.084 204.482 331.084 203.708C331.084 203.122 331.188 202.575 331.396 202.068C331.604 201.556 331.89 201.108 332.252 200.724C332.62 200.335 333.047 200.031 333.532 199.812C334.018 199.594 334.535 199.484 335.084 199.484C335.676 199.484 336.22 199.602 336.716 199.836C337.218 200.071 337.647 200.399 338.004 200.82C338.367 201.242 338.639 201.735 338.82 202.3C339.007 202.866 339.084 203.476 339.052 204.132H332.268C332.332 204.639 332.492 205.092 332.748 205.492C333.01 205.892 333.34 206.21 333.74 206.444C334.146 206.674 334.594 206.791 335.084 206.796C335.618 206.796 336.098 206.658 336.524 206.38C336.956 206.103 337.303 205.722 337.564 205.236L338.7 205.5C338.38 206.21 337.898 206.791 337.252 207.244C336.607 207.692 335.884 207.916 335.084 207.916ZM332.236 203.228H337.924C337.887 202.732 337.735 202.279 337.468 201.868C337.207 201.452 336.868 201.122 336.452 200.876C336.036 200.626 335.58 200.5 335.084 200.5C334.588 200.5 334.135 200.623 333.724 200.868C333.314 201.108 332.978 201.436 332.716 201.852C332.455 202.263 332.295 202.722 332.236 203.228ZM344.371 200.828H342.459L342.451 207.708H341.331L341.339 200.828H339.891V199.708H341.339L341.331 197.196H342.451L342.459 199.708H344.371V200.828ZM349.1 207.916C348.364 207.916 347.692 207.727 347.084 207.348C346.481 206.97 345.999 206.463 345.636 205.828C345.279 205.188 345.1 204.482 345.1 203.708C345.1 203.122 345.204 202.575 345.412 202.068C345.62 201.556 345.905 201.108 346.268 200.724C346.636 200.335 347.063 200.031 347.548 199.812C348.033 199.594 348.551 199.484 349.1 199.484C349.692 199.484 350.236 199.602 350.732 199.836C351.233 200.071 351.663 200.399 352.02 200.82C352.383 201.242 352.655 201.735 352.836 202.3C353.023 202.866 353.1 203.476 353.068 204.132H346.284C346.348 204.639 346.508 205.092 346.764 205.492C347.025 205.892 347.356 206.21 347.756 206.444C348.161 206.674 348.609 206.791 349.1 206.796C349.633 206.796 350.113 206.658 350.54 206.38C350.972 206.103 351.319 205.722 351.58 205.236L352.716 205.5C352.396 206.21 351.913 206.791 351.268 207.244C350.623 207.692 349.9 207.916 349.1 207.916ZM346.252 203.228H351.94C351.903 202.732 351.751 202.279 351.484 201.868C351.223 201.452 350.884 201.122 350.468 200.876C350.052 200.626 349.596 200.5 349.1 200.5C348.604 200.5 348.151 200.623 347.74 200.868C347.329 201.108 346.993 201.436 346.732 201.852C346.471 202.263 346.311 202.722 346.252 203.228ZM360.073 205.7L361.073 206.244C360.711 206.751 360.249 207.156 359.689 207.46C359.135 207.764 358.532 207.916 357.881 207.916C357.145 207.916 356.473 207.727 355.865 207.348C355.263 206.97 354.78 206.463 354.417 205.828C354.06 205.188 353.881 204.482 353.881 203.708C353.881 203.122 353.985 202.575 354.193 202.068C354.401 201.556 354.687 201.108 355.049 200.724C355.417 200.335 355.844 200.031 356.329 199.812C356.815 199.594 357.332 199.484 357.881 199.484C358.532 199.484 359.135 199.636 359.689 199.94C360.249 200.244 360.711 200.652 361.073 201.164L360.073 201.7C359.796 201.348 359.463 201.079 359.073 200.892C358.684 200.7 358.287 200.604 357.881 200.604C357.343 200.604 356.855 200.748 356.417 201.036C355.98 201.319 355.633 201.695 355.377 202.164C355.127 202.634 355.001 203.148 355.001 203.708C355.001 204.268 355.129 204.783 355.385 205.252C355.647 205.722 355.996 206.098 356.433 206.38C356.871 206.658 357.353 206.796 357.881 206.796C358.319 206.796 358.729 206.695 359.113 206.492C359.497 206.29 359.817 206.026 360.073 205.7ZM366.606 200.828H364.694L364.686 207.708H363.566L363.574 200.828H362.126V199.708H363.574L363.566 197.196H364.686L364.694 199.708H366.606V200.828ZM371.334 207.916C370.598 207.916 369.926 207.727 369.318 207.348C368.716 206.97 368.233 206.463 367.87 205.828C367.513 205.188 367.334 204.482 367.334 203.708C367.334 203.122 367.438 202.575 367.646 202.068C367.854 201.556 368.14 201.108 368.502 200.724C368.87 200.335 369.297 200.031 369.782 199.812C370.268 199.594 370.785 199.484 371.334 199.484C371.926 199.484 372.47 199.602 372.966 199.836C373.468 200.071 373.897 200.399 374.254 200.82C374.617 201.242 374.889 201.735 375.07 202.3C375.257 202.866 375.334 203.476 375.302 204.132H368.518C368.582 204.639 368.742 205.092 368.998 205.492C369.26 205.892 369.59 206.21 369.99 206.444C370.396 206.674 370.844 206.791 371.334 206.796C371.868 206.796 372.348 206.658 372.774 206.38C373.206 206.103 373.553 205.722 373.814 205.236L374.95 205.5C374.63 206.21 374.148 206.791 373.502 207.244C372.857 207.692 372.134 207.916 371.334 207.916ZM368.486 203.228H374.174C374.137 202.732 373.985 202.279 373.718 201.868C373.457 201.452 373.118 201.122 372.702 200.876C372.286 200.626 371.83 200.5 371.334 200.5C370.838 200.5 370.385 200.623 369.974 200.868C369.564 201.108 369.228 201.436 368.966 201.852C368.705 202.263 368.545 202.722 368.486 203.228ZM383.18 195.708H384.3V207.708H383.18V206.212C382.902 206.724 382.521 207.138 382.036 207.452C381.556 207.762 380.985 207.916 380.324 207.916C379.742 207.916 379.198 207.807 378.692 207.588C378.185 207.37 377.737 207.068 377.348 206.684C376.964 206.295 376.662 205.847 376.444 205.34C376.225 204.834 376.116 204.29 376.116 203.708C376.116 203.127 376.225 202.583 376.444 202.076C376.662 201.564 376.964 201.116 377.348 200.732C377.737 200.343 378.185 200.039 378.692 199.82C379.198 199.602 379.742 199.492 380.324 199.492C380.985 199.492 381.556 199.65 382.036 199.964C382.521 200.274 382.902 200.682 383.18 201.188V195.708ZM380.332 206.828C380.902 206.828 381.393 206.69 381.804 206.412C382.214 206.13 382.529 205.751 382.748 205.276C382.972 204.802 383.084 204.279 383.084 203.708C383.084 203.122 382.972 202.594 382.748 202.124C382.524 201.65 382.206 201.274 381.796 200.996C381.385 200.719 380.897 200.58 380.332 200.58C379.766 200.58 379.252 200.722 378.788 201.004C378.324 201.282 377.953 201.658 377.676 202.132C377.398 202.607 377.26 203.132 377.26 203.708C377.26 204.29 377.401 204.818 377.684 205.292C377.966 205.762 378.34 206.135 378.804 206.412C379.273 206.69 379.782 206.828 380.332 206.828Z" fill="#0C1021"/>
<rect x="81.3857" y="264.708" width="177" height="35" rx="16" fill="#35E493"/>
<rect x="81.8857" y="265.208" width="176" height="34" rx="15.5" stroke="#0C1021" stroke-opacity="0.1"/>
<path d="M94.3457 287.708V276.508H98.0497C98.8231 276.508 99.5484 276.655 100.226 276.948C100.903 277.236 101.498 277.639 102.01 278.156C102.522 278.668 102.922 279.263 103.21 279.94C103.503 280.612 103.65 281.335 103.65 282.108C103.65 282.882 103.503 283.607 103.21 284.284C102.922 284.956 102.522 285.551 102.01 286.068C101.498 286.58 100.903 286.983 100.226 287.276C99.5484 287.564 98.8231 287.708 98.0497 287.708H94.3457ZM95.4657 286.588H98.0497C98.6684 286.588 99.2471 286.474 99.7857 286.244C100.33 286.01 100.807 285.687 101.218 285.276C101.628 284.866 101.948 284.391 102.178 283.852C102.412 283.308 102.53 282.727 102.53 282.108C102.53 281.49 102.412 280.911 102.178 280.372C101.948 279.828 101.626 279.351 101.21 278.94C100.799 278.53 100.324 278.21 99.7857 277.98C99.2471 277.746 98.6684 277.628 98.0497 277.628H95.4657V286.588ZM108.506 287.916C107.77 287.916 107.098 287.727 106.49 287.348C105.888 286.97 105.405 286.463 105.042 285.828C104.685 285.188 104.506 284.482 104.506 283.708C104.506 283.122 104.61 282.575 104.818 282.068C105.026 281.556 105.312 281.108 105.674 280.724C106.042 280.335 106.469 280.031 106.954 279.812C107.44 279.594 107.957 279.484 108.506 279.484C109.098 279.484 109.642 279.602 110.138 279.836C110.64 280.071 111.069 280.399 111.426 280.82C111.789 281.242 112.061 281.735 112.242 282.3C112.429 282.866 112.506 283.476 112.474 284.132H105.69C105.754 284.639 105.914 285.092 106.17 285.492C106.432 285.892 106.762 286.21 107.162 286.444C107.568 286.674 108.016 286.791 108.506 286.796C109.04 286.796 109.52 286.658 109.946 286.38C110.378 286.103 110.725 285.722 110.986 285.236L112.122 285.5C111.802 286.21 111.32 286.791 110.674 287.244C110.029 287.692 109.306 287.916 108.506 287.916ZM105.658 283.228H111.346C111.309 282.732 111.157 282.279 110.89 281.868C110.629 281.452 110.29 281.122 109.874 280.876C109.458 280.626 109.002 280.5 108.506 280.5C108.01 280.5 107.557 280.623 107.146 280.868C106.736 281.108 106.4 281.436 106.138 281.852C105.877 282.263 105.717 282.722 105.658 283.228ZM114.966 291.708H113.846V279.708H114.966V281.204C115.243 280.698 115.622 280.287 116.102 279.972C116.582 279.658 117.152 279.5 117.814 279.5C118.395 279.5 118.939 279.61 119.446 279.828C119.958 280.047 120.406 280.351 120.79 280.74C121.174 281.124 121.475 281.57 121.694 282.076C121.912 282.583 122.022 283.127 122.022 283.708C122.022 284.29 121.912 284.836 121.694 285.348C121.475 285.86 121.174 286.311 120.79 286.7C120.406 287.084 119.958 287.386 119.446 287.604C118.939 287.823 118.395 287.932 117.814 287.932C117.152 287.932 116.582 287.775 116.102 287.46C115.622 287.146 115.243 286.735 114.966 286.228V291.708ZM117.806 280.588C117.246 280.588 116.758 280.73 116.342 281.012C115.931 281.29 115.614 281.663 115.39 282.132C115.166 282.602 115.054 283.127 115.054 283.708C115.054 284.279 115.163 284.802 115.382 285.276C115.606 285.751 115.923 286.13 116.334 286.412C116.75 286.695 117.24 286.836 117.806 286.836C118.36 286.836 118.87 286.698 119.334 286.42C119.803 286.143 120.179 285.77 120.462 285.3C120.744 284.826 120.886 284.295 120.886 283.708C120.886 283.138 120.747 282.618 120.47 282.148C120.192 281.674 119.822 281.295 119.358 281.012C118.894 280.73 118.376 280.588 117.806 280.588ZM129.875 279.708H130.995V287.708H129.875L129.835 286.22C129.574 286.727 129.208 287.138 128.739 287.452C128.27 287.762 127.71 287.916 127.059 287.916C126.472 287.916 125.923 287.807 125.411 287.588C124.899 287.364 124.448 287.058 124.059 286.668C123.67 286.279 123.366 285.828 123.147 285.316C122.928 284.804 122.819 284.255 122.819 283.668C122.819 283.092 122.926 282.551 123.139 282.044C123.358 281.538 123.656 281.092 124.035 280.708C124.419 280.324 124.862 280.026 125.363 279.812C125.87 279.594 126.411 279.484 126.987 279.484C127.654 279.484 128.235 279.644 128.731 279.964C129.227 280.279 129.622 280.692 129.915 281.204L129.875 279.708ZM127.035 286.828C127.606 286.828 128.096 286.69 128.507 286.412C128.918 286.13 129.232 285.751 129.451 285.276C129.675 284.802 129.787 284.279 129.787 283.708C129.787 283.122 129.675 282.594 129.451 282.124C129.227 281.65 128.91 281.274 128.499 280.996C128.088 280.719 127.6 280.58 127.035 280.58C126.47 280.58 125.952 280.722 125.483 281.004C125.019 281.282 124.648 281.658 124.371 282.132C124.099 282.607 123.963 283.132 123.963 283.708C123.963 284.29 124.104 284.818 124.387 285.292C124.67 285.762 125.043 286.135 125.507 286.412C125.976 286.69 126.486 286.828 127.035 286.828ZM132.596 287.708V279.708H133.716V280.812C133.998 280.407 134.366 280.084 134.82 279.844C135.273 279.604 135.766 279.484 136.3 279.484C136.609 279.484 136.908 279.524 137.196 279.604L136.74 280.716C136.516 280.647 136.297 280.612 136.084 280.612C135.652 280.612 135.254 280.719 134.892 280.932C134.534 281.146 134.249 281.431 134.036 281.788C133.822 282.146 133.716 282.543 133.716 282.98V287.708H132.596ZM142.402 280.828H140.49L140.482 287.708H139.362L139.37 280.828H137.922V279.708H139.37L139.362 277.196H140.482L140.49 279.708H142.402V280.828ZM143.83 287.708V279.708H144.95V280.812C145.238 280.407 145.606 280.084 146.054 279.844C146.502 279.604 146.993 279.484 147.526 279.484C148.129 279.484 148.681 279.634 149.182 279.932C149.683 280.226 150.075 280.618 150.358 281.108C150.641 280.618 151.03 280.226 151.526 279.932C152.022 279.634 152.571 279.484 153.174 279.484C153.777 279.484 154.326 279.631 154.822 279.924C155.318 280.218 155.713 280.612 156.006 281.108C156.299 281.604 156.446 282.154 156.446 282.756V287.708H155.326V283.004C155.326 282.578 155.222 282.183 155.014 281.82C154.806 281.458 154.526 281.167 154.174 280.948C153.827 280.724 153.441 280.612 153.014 280.612C152.587 280.612 152.198 280.716 151.846 280.924C151.499 281.127 151.222 281.41 151.014 281.772C150.806 282.13 150.702 282.54 150.702 283.004V287.708H149.582V283.004C149.582 282.54 149.478 282.13 149.27 281.772C149.062 281.41 148.782 281.127 148.43 280.924C148.078 280.716 147.689 280.612 147.262 280.612C146.841 280.612 146.454 280.724 146.102 280.948C145.75 281.167 145.47 281.458 145.262 281.82C145.054 282.183 144.95 282.578 144.95 283.004V287.708H143.83ZM161.413 287.916C160.677 287.916 160.005 287.727 159.397 287.348C158.794 286.97 158.311 286.463 157.949 285.828C157.591 285.188 157.413 284.482 157.413 283.708C157.413 283.122 157.517 282.575 157.725 282.068C157.933 281.556 158.218 281.108 158.581 280.724C158.949 280.335 159.375 280.031 159.861 279.812C160.346 279.594 160.863 279.484 161.413 279.484C162.005 279.484 162.549 279.602 163.045 279.836C163.546 280.071 163.975 280.399 164.333 280.82C164.695 281.242 164.967 281.735 165.149 282.3C165.335 282.866 165.413 283.476 165.381 284.132H158.597C158.661 284.639 158.821 285.092 159.077 285.492C159.338 285.892 159.669 286.21 160.069 286.444C160.474 286.674 160.922 286.791 161.413 286.796C161.946 286.796 162.426 286.658 162.853 286.38C163.285 286.103 163.631 285.722 163.893 285.236L165.029 285.5C164.709 286.21 164.226 286.791 163.581 287.244C162.935 287.692 162.213 287.916 161.413 287.916ZM158.565 283.228H164.253C164.215 282.732 164.063 282.279 163.797 281.868C163.535 281.452 163.197 281.122 162.781 280.876C162.365 280.626 161.909 280.5 161.413 280.5C160.917 280.5 160.463 280.623 160.053 280.868C159.642 281.108 159.306 281.436 159.045 281.852C158.783 282.263 158.623 282.722 158.565 283.228ZM173.728 282.756V287.708H172.608V282.98C172.608 282.543 172.501 282.146 172.288 281.788C172.075 281.431 171.789 281.146 171.432 280.932C171.075 280.719 170.677 280.612 170.24 280.612C169.808 280.612 169.411 280.719 169.048 280.932C168.691 281.146 168.405 281.431 168.192 281.788C167.979 282.146 167.872 282.543 167.872 282.98V287.708H166.752V279.708H167.872V280.812C168.155 280.407 168.523 280.084 168.976 279.844C169.429 279.604 169.923 279.484 170.456 279.484C171.059 279.484 171.608 279.631 172.104 279.924C172.6 280.218 172.995 280.612 173.288 281.108C173.581 281.604 173.728 282.154 173.728 282.756ZM179.418 280.828H177.506L177.498 287.708H176.378L176.386 280.828H174.938V279.708H176.386L176.378 277.196H177.498L177.506 279.708H179.418V280.828ZM191.265 279.708H192.385V287.708H191.265L191.225 286.22C190.964 286.727 190.599 287.138 190.129 287.452C189.66 287.762 189.1 287.916 188.449 287.916C187.863 287.916 187.313 287.807 186.801 287.588C186.289 287.364 185.839 287.058 185.449 286.668C185.06 286.279 184.756 285.828 184.537 285.316C184.319 284.804 184.209 284.255 184.209 283.668C184.209 283.092 184.316 282.551 184.529 282.044C184.748 281.538 185.047 281.092 185.425 280.708C185.809 280.324 186.252 280.026 186.753 279.812C187.26 279.594 187.801 279.484 188.377 279.484C189.044 279.484 189.625 279.644 190.121 279.964C190.617 280.279 191.012 280.692 191.305 281.204L191.265 279.708ZM188.425 286.828C188.996 286.828 189.487 286.69 189.897 286.412C190.308 286.13 190.623 285.751 190.841 285.276C191.065 284.802 191.177 284.279 191.177 283.708C191.177 283.122 191.065 282.594 190.841 282.124C190.617 281.65 190.3 281.274 189.889 280.996C189.479 280.719 188.991 280.58 188.425 280.58C187.86 280.58 187.343 280.722 186.873 281.004C186.409 281.282 186.039 281.658 185.761 282.132C185.489 282.607 185.353 283.132 185.353 283.708C185.353 284.29 185.495 284.818 185.777 285.292C186.06 285.762 186.433 286.135 186.897 286.412C187.367 286.69 187.876 286.828 188.425 286.828ZM196.458 287.86C196.021 287.85 195.594 287.77 195.178 287.62C194.762 287.471 194.4 287.268 194.09 287.012C193.781 286.756 193.56 286.466 193.426 286.14L194.394 285.724C194.48 285.932 194.637 286.124 194.866 286.3C195.101 286.471 195.368 286.61 195.666 286.716C195.965 286.818 196.261 286.868 196.554 286.868C196.88 286.868 197.184 286.815 197.466 286.708C197.749 286.602 197.978 286.45 198.154 286.252C198.336 286.05 198.426 285.812 198.426 285.54C198.426 285.247 198.33 285.018 198.138 284.852C197.946 284.682 197.704 284.548 197.41 284.452C197.117 284.351 196.816 284.255 196.506 284.164C195.941 284.01 195.442 283.839 195.01 283.652C194.578 283.466 194.24 283.228 193.994 282.94C193.754 282.647 193.634 282.271 193.634 281.812C193.634 281.327 193.77 280.908 194.042 280.556C194.32 280.199 194.68 279.924 195.122 279.732C195.57 279.535 196.048 279.436 196.554 279.436C197.205 279.436 197.797 279.578 198.33 279.86C198.869 280.143 199.258 280.519 199.498 280.988L198.594 281.524C198.498 281.306 198.346 281.116 198.138 280.956C197.93 280.796 197.693 280.671 197.426 280.58C197.165 280.49 196.898 280.442 196.626 280.436C196.285 280.431 195.968 280.482 195.674 280.588C195.381 280.69 195.144 280.842 194.962 281.044C194.786 281.247 194.698 281.495 194.698 281.788C194.698 282.082 194.786 282.306 194.962 282.46C195.138 282.61 195.376 282.732 195.674 282.828C195.978 282.919 196.32 283.026 196.698 283.148C197.184 283.303 197.64 283.479 198.066 283.676C198.493 283.874 198.837 284.119 199.098 284.412C199.36 284.706 199.488 285.076 199.482 285.524C199.482 286.004 199.338 286.423 199.05 286.78C198.762 287.138 198.389 287.412 197.93 287.604C197.472 287.791 196.981 287.876 196.458 287.86ZM203.333 287.86C202.896 287.85 202.469 287.77 202.053 287.62C201.637 287.471 201.275 287.268 200.965 287.012C200.656 286.756 200.435 286.466 200.301 286.14L201.269 285.724C201.355 285.932 201.512 286.124 201.741 286.3C201.976 286.471 202.243 286.61 202.541 286.716C202.84 286.818 203.136 286.868 203.429 286.868C203.755 286.868 204.059 286.815 204.341 286.708C204.624 286.602 204.853 286.45 205.029 286.252C205.211 286.05 205.301 285.812 205.301 285.54C205.301 285.247 205.205 285.018 205.013 284.852C204.821 284.682 204.579 284.548 204.285 284.452C203.992 284.351 203.691 284.255 203.381 284.164C202.816 284.01 202.317 283.839 201.885 283.652C201.453 283.466 201.115 283.228 200.869 282.94C200.629 282.647 200.509 282.271 200.509 281.812C200.509 281.327 200.645 280.908 200.917 280.556C201.195 280.199 201.555 279.924 201.997 279.732C202.445 279.535 202.923 279.436 203.429 279.436C204.08 279.436 204.672 279.578 205.205 279.86C205.744 280.143 206.133 280.519 206.373 280.988L205.469 281.524C205.373 281.306 205.221 281.116 205.013 280.956C204.805 280.796 204.568 280.671 204.301 280.58C204.04 280.49 203.773 280.442 203.501 280.436C203.16 280.431 202.843 280.482 202.549 280.588C202.256 280.69 202.019 280.842 201.837 281.044C201.661 281.247 201.573 281.495 201.573 281.788C201.573 282.082 201.661 282.306 201.837 282.46C202.013 282.61 202.251 282.732 202.549 282.828C202.853 282.919 203.195 283.026 203.573 283.148C204.059 283.303 204.515 283.479 204.941 283.676C205.368 283.874 205.712 284.119 205.973 284.412C206.235 284.706 206.363 285.076 206.357 285.524C206.357 286.004 206.213 286.423 205.925 286.78C205.637 287.138 205.264 287.412 204.805 287.604C204.347 287.791 203.856 287.876 203.333 287.86ZM207.658 279.708H208.778V287.708H207.658V279.708ZM208.226 278.308C208.045 278.308 207.89 278.25 207.762 278.132C207.64 278.01 207.578 277.858 207.578 277.676C207.578 277.495 207.64 277.346 207.762 277.228C207.89 277.106 208.045 277.044 208.226 277.044C208.402 277.044 208.552 277.106 208.674 277.228C208.802 277.346 208.866 277.495 208.866 277.676C208.866 277.858 208.805 278.01 208.682 278.132C208.56 278.25 208.408 278.308 208.226 278.308ZM216.987 279.708H218.107V288.004C218.107 288.516 217.995 288.996 217.771 289.444C217.552 289.892 217.254 290.284 216.875 290.62C216.502 290.962 216.075 291.228 215.595 291.42C215.115 291.612 214.616 291.708 214.099 291.708C213.544 291.708 213.008 291.58 212.491 291.324C211.974 291.074 211.523 290.738 211.139 290.316C210.76 289.895 210.491 289.428 210.331 288.916L211.363 288.444C211.464 288.844 211.654 289.204 211.931 289.524C212.214 289.85 212.544 290.106 212.923 290.292C213.307 290.484 213.699 290.58 214.099 290.58C214.467 290.58 214.822 290.511 215.163 290.372C215.51 290.239 215.819 290.055 216.091 289.82C216.368 289.586 216.587 289.311 216.747 288.996C216.907 288.687 216.987 288.356 216.987 288.004V286.236C216.71 286.738 216.334 287.143 215.859 287.452C215.39 287.762 214.843 287.916 214.219 287.916C213.659 287.916 213.131 287.807 212.635 287.588C212.144 287.37 211.712 287.068 211.339 286.684C210.966 286.295 210.672 285.847 210.459 285.34C210.251 284.834 210.147 284.29 210.147 283.708C210.147 283.127 210.251 282.583 210.459 282.076C210.672 281.564 210.966 281.116 211.339 280.732C211.712 280.343 212.144 280.039 212.635 279.82C213.131 279.602 213.659 279.492 214.219 279.492C214.843 279.492 215.39 279.647 215.859 279.956C216.334 280.26 216.71 280.666 216.987 281.172V279.708ZM214.227 286.828C214.782 286.828 215.259 286.684 215.659 286.396C216.064 286.108 216.376 285.727 216.595 285.252C216.814 284.778 216.923 284.263 216.923 283.708C216.923 283.138 216.811 282.618 216.587 282.148C216.368 281.674 216.056 281.295 215.651 281.012C215.246 280.724 214.771 280.58 214.227 280.58C213.683 280.58 213.187 280.722 212.739 281.004C212.296 281.282 211.944 281.658 211.683 282.132C211.422 282.607 211.291 283.132 211.291 283.708C211.291 284.284 211.424 284.81 211.691 285.284C211.958 285.754 212.312 286.13 212.755 286.412C213.203 286.69 213.694 286.828 214.227 286.828ZM227.009 282.756V287.708H225.889V282.98C225.889 282.543 225.783 282.146 225.569 281.788C225.356 281.431 225.071 281.146 224.713 280.932C224.356 280.719 223.959 280.612 223.521 280.612C223.089 280.612 222.692 280.719 222.329 280.932C221.972 281.146 221.687 281.431 221.473 281.788C221.26 282.146 221.153 282.543 221.153 282.98V287.708H220.033V279.708H221.153V280.812C221.436 280.407 221.804 280.084 222.257 279.844C222.711 279.604 223.204 279.484 223.737 279.484C224.34 279.484 224.889 279.631 225.385 279.924C225.881 280.218 226.276 280.612 226.569 281.108C226.863 281.604 227.009 282.154 227.009 282.756ZM231.975 287.916C231.239 287.916 230.567 287.727 229.959 287.348C229.356 286.97 228.874 286.463 228.511 285.828C228.154 285.188 227.975 284.482 227.975 283.708C227.975 283.122 228.079 282.575 228.287 282.068C228.495 281.556 228.78 281.108 229.143 280.724C229.511 280.335 229.938 280.031 230.423 279.812C230.908 279.594 231.426 279.484 231.975 279.484C232.567 279.484 233.111 279.602 233.607 279.836C234.108 280.071 234.538 280.399 234.895 280.82C235.258 281.242 235.53 281.735 235.711 282.3C235.898 282.866 235.975 283.476 235.943 284.132H229.159C229.223 284.639 229.383 285.092 229.639 285.492C229.9 285.892 230.231 286.21 230.631 286.444C231.036 286.674 231.484 286.791 231.975 286.796C232.508 286.796 232.988 286.658 233.415 286.38C233.847 286.103 234.194 285.722 234.455 285.236L235.591 285.5C235.271 286.21 234.788 286.791 234.143 287.244C233.498 287.692 232.775 287.916 231.975 287.916ZM229.127 283.228H234.815C234.778 282.732 234.626 282.279 234.359 281.868C234.098 281.452 233.759 281.122 233.343 280.876C232.927 280.626 232.471 280.5 231.975 280.5C231.479 280.5 231.026 280.623 230.615 280.868C230.204 281.108 229.868 281.436 229.607 281.852C229.346 282.263 229.186 282.722 229.127 283.228ZM243.82 275.708H244.94V287.708H243.82V286.212C243.543 286.724 243.162 287.138 242.676 287.452C242.196 287.762 241.626 287.916 240.964 287.916C240.383 287.916 239.839 287.807 239.332 287.588C238.826 287.37 238.378 287.068 237.988 286.684C237.604 286.295 237.303 285.847 237.084 285.34C236.866 284.834 236.756 284.29 236.756 283.708C236.756 283.127 236.866 282.583 237.084 282.076C237.303 281.564 237.604 281.116 237.988 280.732C238.378 280.343 238.826 280.039 239.332 279.82C239.839 279.602 240.383 279.492 240.964 279.492C241.626 279.492 242.196 279.65 242.676 279.964C243.162 280.274 243.543 280.682 243.82 281.188V275.708ZM240.972 286.828C241.543 286.828 242.034 286.69 242.444 286.412C242.855 286.13 243.17 285.751 243.388 285.276C243.612 284.802 243.724 284.279 243.724 283.708C243.724 283.122 243.612 282.594 243.388 282.124C243.164 281.65 242.847 281.274 242.436 280.996C242.026 280.719 241.538 280.58 240.972 280.58C240.407 280.58 239.892 280.722 239.428 281.004C238.964 281.282 238.594 281.658 238.316 282.132C238.039 282.607 237.9 283.132 237.9 283.708C237.9 284.29 238.042 284.818 238.324 285.292C238.607 285.762 238.98 286.135 239.444 286.412C239.914 286.69 240.423 286.828 240.972 286.828Z" fill="#0C1021"/>
<path d="M202.719 121.208C202.719 122.681 203.913 123.875 205.386 123.875C206.859 123.875 208.052 122.681 208.052 121.208C208.052 119.736 206.859 118.542 205.386 118.542C203.913 118.542 202.719 119.736 202.719 121.208ZM315.886 181.708C315.886 181.985 316.11 182.208 316.386 182.208C316.662 182.208 316.886 181.985 316.886 181.708H316.386H315.886ZM218.77 121.708C219.046 121.708 219.27 121.485 219.27 121.208C219.27 120.932 219.046 120.708 218.77 120.708V121.208V121.708ZM232.155 120.708C231.879 120.708 231.655 120.932 231.655 121.208C231.655 121.485 231.879 121.708 232.155 121.708V121.208V120.708ZM245.54 121.708C245.816 121.708 246.04 121.485 246.04 121.208C246.04 120.932 245.816 120.708 245.54 120.708V121.208V121.708ZM258.924 120.708C258.648 120.708 258.424 120.932 258.424 121.208C258.424 121.485 258.648 121.708 258.924 121.708V121.208V120.708ZM272.309 121.708C272.585 121.708 272.809 121.485 272.809 121.208C272.809 120.932 272.585 120.708 272.309 120.708V121.208V121.708ZM285.693 120.708C285.417 120.708 285.193 120.932 285.193 121.208C285.193 121.485 285.417 121.708 285.693 121.708V121.208V120.708ZM301.381 123.491C301.636 123.597 301.929 123.476 302.035 123.221C302.14 122.966 302.019 122.674 301.764 122.568L301.573 123.03L301.381 123.491ZM315.026 135.83C314.921 135.575 314.628 135.454 314.373 135.56C314.118 135.666 313.997 135.958 314.103 136.213L314.565 136.022L315.026 135.83ZM315.886 152.508C315.886 152.785 316.11 153.008 316.386 153.008C316.662 153.008 316.886 152.785 316.886 152.508H316.386H315.886ZM316.886 167.108C316.886 166.832 316.662 166.608 316.386 166.608C316.11 166.608 315.886 166.832 315.886 167.108H316.386H316.886ZM205.386 121.208V121.708H218.77V121.208V120.708H205.386V121.208ZM232.155 121.208V121.708H245.54V121.208V120.708H232.155V121.208ZM258.924 121.208V121.708H272.309V121.208V120.708H258.924V121.208ZM285.693 121.208V121.708H292.386V121.208V120.708H285.693V121.208ZM292.386 121.208V121.708C295.573 121.708 298.611 122.343 301.381 123.491L301.573 123.03L301.764 122.568C298.875 121.37 295.707 120.708 292.386 120.708V121.208ZM314.565 136.022L314.103 136.213C315.251 138.983 315.886 142.021 315.886 145.208H316.386H316.886C316.886 141.887 316.225 138.719 315.026 135.83L314.565 136.022ZM316.386 145.208H315.886V152.508H316.386H316.886V145.208H316.386ZM316.386 167.108H315.886V181.708H316.386H316.886V167.108H316.386Z" fill="#4268FF"/>
<path d="M169.386 261.708C169.386 261.985 169.61 262.208 169.886 262.208C170.162 262.208 170.386 261.985 170.386 261.708H169.886H169.386ZM232.719 202.208C232.719 203.681 233.913 204.875 235.386 204.875C236.859 204.875 238.052 203.681 238.052 202.208C238.052 200.736 236.859 199.542 235.386 199.542C233.913 199.542 232.719 200.736 232.719 202.208ZM170.386 247.508C170.386 247.232 170.162 247.008 169.886 247.008C169.61 247.008 169.386 247.232 169.386 247.508H169.886H170.386ZM169.386 233.308C169.386 233.585 169.61 233.808 169.886 233.808C170.162 233.808 170.386 233.585 170.386 233.308H169.886H169.386ZM172.169 217.213C172.275 216.958 172.153 216.666 171.898 216.56C171.643 216.454 171.351 216.575 171.245 216.83L171.707 217.022L172.169 217.213ZM184.507 203.568C184.252 203.674 184.131 203.966 184.237 204.221C184.343 204.476 184.635 204.597 184.89 204.491L184.699 204.03L184.507 203.568ZM202.186 202.708C202.462 202.708 202.686 202.485 202.686 202.208C202.686 201.932 202.462 201.708 202.186 201.708V202.208V202.708ZM218.786 201.708C218.51 201.708 218.286 201.932 218.286 202.208C218.286 202.485 218.51 202.708 218.786 202.708V202.208V201.708ZM169.886 261.708H170.386V247.508H169.886H169.386V261.708H169.886ZM169.886 233.308H170.386V226.208H169.886H169.386V233.308H169.886ZM169.886 226.208H170.386C170.386 223.021 171.02 219.983 172.169 217.213L171.707 217.022L171.245 216.83C170.047 219.719 169.386 222.887 169.386 226.208H169.886ZM184.699 204.03L184.89 204.491C187.661 203.343 190.698 202.708 193.886 202.708V202.208V201.708C190.565 201.708 187.397 202.37 184.507 203.568L184.699 204.03ZM193.886 202.208V202.708H202.186V202.208V201.708H193.886V202.208ZM218.786 202.208V202.708H235.386V202.208V201.708H218.786V202.208Z" fill="#4268FF"/>
</g>
<defs>
<filter id="filter0_d_2076_29517" x="-3.05176e-05" y="-0.00012207" width="463.772" height="376.772" filterUnits="userSpaceOnUse" color-interpolation-filters="sRGB">
<feFlood flood-opacity="0" result="BackgroundImageFix"/>
<feColorMatrix in="SourceAlpha" type="matrix" values="0 0 0 0 0 0 0 0 0 0 0 0 0 0 0 0 0 0 127 0" result="hardAlpha"/>
<feOffset dy="3.67715"/>
<feGaussianBlur stdDeviation="9.19289"/>
<feComposite in2="hardAlpha" operator="out"/>
<feColorMatrix type="matrix" values="0 0 0 0 0.0468057 0 0 0 0 0.0634939 0 0 0 0 0.129808 0 0 0 0.1 0"/>
<feBlend mode="normal" in2="BackgroundImageFix" result="effect1_dropShadow_2076_29517"/>
<feBlend mode="normal" in="SourceGraphic" in2="effect1_dropShadow_2076_29517" result="shape"/>
</filter>
</defs>
</svg>
