<svg preserveAspectRatio="none" width="100%" height="100%" overflow="visible" style="display: block;" viewBox="0 0 40.0793 48" fill="none" xmlns="http://www.w3.org/2000/svg">
<g id="Group">
<path id="Vector" d="M38.673 5.79497C35.3452 5.79497 32.2938 3.84113 30.8992 0.817219C30.6694 0.319031 30.1708 0 29.6222 0H10.4572C9.90844 0 9.40997 0.319031 9.18019 0.817313C7.78547 3.84113 4.734 5.79497 1.40625 5.79497C0.629625 5.79497 0 6.42459 0 7.20122V22.7741C0 28.6076 5.06587 35.0748 9.31556 39.4728C12.0278 42.2797 14.5446 44.3904 15.8033 45.3988C19.0506 48 19.6457 48 20.0394 48H20.0439C20.4379 48 21.041 47.9902 24.2758 45.3989C25.5346 44.3906 28.0513 42.2798 30.7636 39.473C35.0134 35.0749 40.0793 28.6077 40.0793 22.7742V7.20122C40.0793 6.42459 39.4496 5.79497 38.673 5.79497ZM16.8676 38.026C15.9996 37.3307 14.2641 35.8753 12.3945 33.9403C9.43472 30.8773 5.90663 26.3585 5.90663 22.2252V11.5888C5.90663 10.8122 6.53625 10.1826 7.31288 10.1826C9.4125 10.1826 11.3378 8.94975 12.2177 7.04175C12.4475 6.54356 12.946 6.22444 13.4947 6.22444H26.5846C27.1333 6.22444 27.6318 6.54347 27.8616 7.04175C28.7415 8.94975 30.6668 10.1826 32.7664 10.1826C33.543 10.1826 34.1726 10.8122 34.1726 11.5888V22.2252C34.1726 26.3585 30.6444 30.8773 27.6848 33.9404C25.8151 35.8754 24.0797 37.3308 23.2116 38.0261C20.8838 39.8908 20.434 39.9005 20.0454 39.9005C20.0435 39.9005 20.0414 39.9005 20.0394 39.9005C19.6496 39.9005 19.2076 39.9005 16.8676 38.026Z" fill="var(--fill-0, white)"/>
<path id="Vector_2" d="M26.0491 31.5804C29.4741 27.9404 31.3602 24.6179 31.3602 22.2252V12.8728C29.0359 12.4658 26.9744 11.0663 25.7423 9.03694H14.3369C13.1048 11.0663 11.0434 12.4658 8.71912 12.8728V22.2252C8.71912 24.6179 10.6053 27.9404 14.0302 31.5804C16.4954 34.2004 18.9864 36.1712 20.0396 36.8934C21.0927 36.1712 23.5839 34.2005 26.0491 31.5804ZM18.4873 29.4185V29.0325C17.6577 28.9215 16.9481 28.6489 16.0043 28.0313C15.3544 27.6062 15.1722 26.7346 15.5974 26.0846C16.0225 25.4347 16.894 25.2524 17.5441 25.6777C18.4094 26.2438 18.7395 26.2962 19.8842 26.2879C20.9736 26.2807 21.6057 25.4688 21.732 24.7175C21.8074 24.2695 21.7762 23.4623 20.7209 23.0894C19.3545 22.6065 17.955 22.0537 16.9765 21.2862C15.9821 20.5063 15.5261 19.1622 15.7869 17.7786C16.0672 16.2912 17.1009 15.1058 18.4875 14.6768V14.2447C18.4875 13.468 19.1171 12.8384 19.8937 12.8384C20.6704 12.8384 21.3 13.468 21.3 14.2447V14.5898C22.1736 14.8115 22.784 15.2122 23.0356 15.4003C23.6575 15.8654 23.7847 16.7467 23.3196 17.3687C22.8545 17.9905 21.9731 18.1178 21.3512 17.6527C21.0925 17.4593 20.3774 17.0437 19.3259 17.3603C18.7375 17.5376 18.5839 18.1239 18.5508 18.2993C18.4882 18.6313 18.5546 18.9496 18.7123 19.0733C19.3734 19.5918 20.5725 20.054 21.6583 20.4378C23.7163 21.1653 24.8606 23.0725 24.5057 25.1839C24.2435 26.7437 23.0952 28.3242 21.3 28.886V29.4186C21.3 30.1952 20.6704 30.8248 19.8937 30.8248C19.1171 30.8248 18.4873 30.1951 18.4873 29.4185Z" fill="var(--fill-0, white)"/>
</g>
</svg>
