<svg preserveAspectRatio="none" width="100%" height="100%" overflow="visible" style="display: block;" viewBox="0 0 48.0001 41.0185" fill="none" xmlns="http://www.w3.org/2000/svg">
<g id="Layer 2">
<path id="Vector" d="M42.3274 12.9683C42.17 12.9782 42.0132 12.9966 41.8578 13.0235C40.6439 9.24135 38.2606 5.94227 35.0512 3.60171C31.8418 1.26116 27.9722 7.56979e-06 24.0001 7.56979e-06C20.0279 7.56979e-06 16.1583 1.26116 12.9489 3.60171C9.73956 5.94227 7.35618 9.24135 6.14229 13.0235C5.9869 12.9966 5.83016 12.9782 5.67276 12.9683C2.49205 12.9683 0 16.2803 0 20.5093C0 24.7374 2.49205 28.0494 5.67276 28.0494C6.88452 28.0363 8.04479 27.5574 8.91313 26.7121C9.10848 26.5265 9.24179 26.2852 9.29487 26.021C9.34795 25.7568 9.31821 25.4827 9.20971 25.236C8.06097 22.6333 7.63084 19.7704 7.9641 16.945C7.98286 16.7786 8.01568 16.6169 8.03954 16.452C8.106 15.9969 8.18399 15.5447 8.28968 15.1011C9.11315 11.5517 11.1143 8.38564 13.9672 6.11888C16.82 3.85212 20.3564 2.61823 24.0001 2.61823C27.6439 2.61823 31.1802 3.85212 34.0331 6.11888C36.8859 8.38564 38.8871 11.5517 39.7106 15.1011C39.8163 15.5447 39.8943 15.9969 39.9607 16.452C39.9846 16.6169 40.0174 16.7786 40.0362 16.945C40.1069 17.5487 40.1434 18.156 40.1455 18.7638C40.1454 19.3169 40.1171 19.8696 40.0607 20.4198C40.0403 20.6192 39.9985 20.8118 39.9708 21.0091C39.9227 21.3539 39.8805 21.6999 39.8102 22.0399C39.7706 22.2304 39.7118 22.4133 39.6658 22.6012C39.5814 22.9429 39.5021 23.286 39.3956 23.6223C39.3406 23.7966 39.2686 23.9628 39.2081 24.1345C39.0871 24.4746 38.9678 24.8155 38.8233 25.1491C37.5738 28.0445 35.5047 30.5113 32.8709 32.2455C30.2371 33.9797 27.1535 34.9057 24 34.9093H23.1273C22.3171 34.9093 21.5402 35.2312 20.9674 35.804C20.3945 36.3768 20.0727 37.1538 20.0727 37.9639C20.0727 38.774 20.3945 39.551 20.9674 40.1238C21.5402 40.6966 22.3171 41.0185 23.1273 41.0185H26.6182C27.1274 41.0202 27.6288 40.8942 28.0767 40.6519C28.5246 40.4097 28.9045 40.059 29.1818 39.6319C29.4591 39.2049 29.6248 38.7151 29.6638 38.2074C29.7028 37.6997 29.6139 37.1904 29.4051 36.726C34.1596 35.2856 38.153 32.0263 40.5168 27.6569C41.0866 27.9116 41.7032 28.0452 42.3274 28.0494C45.5081 28.0494 48.0001 24.7374 48.0001 20.5093C48.0001 16.2803 45.5081 12.9683 42.3274 12.9683Z" fill="var(--fill-0, white)"/>
<path id="Vector_2" d="M12.8727 31.8548H23.6241C27.0077 31.8912 30.2786 30.6406 32.7747 28.356C35.2707 26.0715 36.8054 22.9238 37.068 19.5503C37.2048 17.3336 36.7755 15.1186 35.8205 13.1136C34.8655 11.1086 33.4161 9.37947 31.6088 8.08888C29.8014 6.79829 27.6955 5.98866 25.489 5.73615C23.2826 5.48364 21.0482 5.79655 18.996 6.64545C16.9438 7.49435 15.1412 8.85133 13.7579 10.5887C12.3746 12.3262 11.456 14.3869 11.0885 16.5771C10.721 18.7674 10.9167 21.0151 11.6572 23.1088C12.3976 25.2026 13.6585 27.0736 15.3212 28.5458L12.4798 30.6766C12.3699 30.7591 12.2888 30.874 12.2479 31.0052C12.2071 31.1363 12.2084 31.2769 12.2519 31.4072C12.2953 31.5375 12.3787 31.6508 12.4901 31.7312C12.6015 31.8115 12.7353 31.8547 12.8727 31.8548ZM29.2364 17.0184C29.5816 17.0184 29.9191 17.1207 30.2061 17.3125C30.4932 17.5043 30.7169 17.7769 30.849 18.0959C30.9811 18.4148 31.0157 18.7658 30.9483 19.1044C30.881 19.4429 30.7147 19.754 30.4706 19.9981C30.2265 20.2422 29.9155 20.4084 29.5769 20.4758C29.2383 20.5431 28.8874 20.5085 28.5684 20.3764C28.2495 20.2443 27.9769 20.0206 27.7851 19.7336C27.5933 19.4465 27.4909 19.1091 27.4909 18.7638C27.4909 18.3009 27.6748 17.8569 28.0022 17.5296C28.3295 17.2023 28.7735 17.0184 29.2364 17.0184ZM24 17.0184C24.3452 17.0184 24.6827 17.1207 24.9697 17.3125C25.2568 17.5043 25.4805 17.7769 25.6126 18.0959C25.7447 18.4148 25.7793 18.7658 25.7119 19.1044C25.6446 19.4429 25.4783 19.754 25.2342 19.9981C24.9901 20.2422 24.6791 20.4084 24.3405 20.4758C24.0019 20.5431 23.651 20.5085 23.332 20.3764C23.0131 20.2443 22.7405 20.0206 22.5487 19.7336C22.3569 19.4465 22.2545 19.1091 22.2545 18.7638C22.2545 18.3009 22.4384 17.8569 22.7658 17.5296C23.0931 17.2023 23.5371 17.0184 24 17.0184ZM18.7636 17.0184C19.1088 17.0184 19.4463 17.1207 19.7333 17.3125C20.0204 17.5043 20.2441 17.7769 20.3762 18.0959C20.5083 18.4148 20.5429 18.7658 20.4755 19.1044C20.4082 19.4429 20.2419 19.754 19.9978 19.9981C19.7537 20.2422 19.4427 20.4084 19.1041 20.4758C18.7655 20.5431 18.4146 20.5085 18.0956 20.3764C17.7767 20.2443 17.5041 20.0206 17.3123 19.7336C17.1205 19.4465 17.0181 19.1091 17.0181 18.7638C17.0181 18.3009 17.202 17.8569 17.5294 17.5296C17.8567 17.2023 18.3007 17.0184 18.7636 17.0184Z" fill="var(--fill-0, white)"/>
</g>
</svg>
