<svg preserveAspectRatio="none" width="100%" height="100%" overflow="visible" style="display: block;" viewBox="0 0 48 48" fill="none" xmlns="http://www.w3.org/2000/svg">
<g id="Layer_1" clip-path="url(#clip0_0_80)">
<path id="Vector" fill-rule="evenodd" clip-rule="evenodd" d="M4.60388 45.2452H2.63644C1.18434 45.2452 0 44.0608 0 42.6087V12.1938C0 11.4189 0.297094 10.7519 0.873281 10.2337L10.1815 1.86062C11.3763 0.785875 12.6077 -0.000125 14.2146 -0.000125C15.7322 -0.000125 16.9149 0.701312 18.0481 1.68437C17.0408 2.08094 16.1443 2.72462 15.2823 3.50003L5.97403 11.8731C5.08172 12.6757 4.60397 13.7483 4.60397 14.9485L4.60388 45.2452ZM18.2753 32.0448L19.7648 30.9627V44.4853C19.7648 46.4184 21.3464 48.0001 23.2794 48.0001H27.7807V36.315C27.7807 35.4057 28.5247 34.6617 29.4339 34.6617H32.941C33.8503 34.6617 34.5943 35.4057 34.5943 36.315V48.0001H39.0955C41.0286 48.0001 42.6102 46.4184 42.6102 44.4853V30.9628L44.0996 32.0449C45.1988 32.8415 46.7357 32.5961 47.5323 31.4969C48.3288 30.3977 48.0834 28.8608 46.9842 28.0642L32.6723 17.666C31.8325 17.0291 30.6429 16.9846 29.7452 17.6351L15.3907 28.0642C14.2915 28.8607 14.0462 30.3977 14.8427 31.4969C15.6393 32.5961 17.1761 32.8414 18.2753 32.0448ZM34.5329 14.9484C34.5329 14.1735 34.2357 13.5064 33.6596 12.9883L24.3513 4.61519C23.1566 3.54072 21.9252 2.75444 20.3183 2.75444C18.7115 2.75444 17.4801 3.54044 16.2853 4.61519L6.97706 12.9883C6.40097 13.5064 6.10378 14.1735 6.10378 14.9484V45.3633C6.10378 46.8154 7.28812 47.9999 8.74022 47.9999H19.7092C18.8168 47.0936 18.2647 45.8517 18.2647 44.4853V33.746C16.6285 34.3822 14.7061 33.8647 13.628 32.3769C12.3458 30.6076 12.7418 28.1345 14.509 26.8506L28.8635 16.4215C30.2703 15.3993 32.1796 15.4191 33.5649 16.4604L34.5329 17.1636V14.9484ZM18.1872 8.42547C18.1872 7.24853 19.1415 6.29425 20.3184 6.29425C21.4953 6.29425 22.4497 7.24853 22.4497 8.42547C22.4497 9.60241 21.4954 10.5567 20.3184 10.5567C19.1415 10.5567 18.1872 9.60231 18.1872 8.42547Z" fill="var(--fill-0, white)"/>
</g>
<defs>
<clipPath id="clip0_0_80">
<rect width="48" height="48" fill="white"/>
</clipPath>
</defs>
</svg>
