<svg preserveAspectRatio="none" width="100%" height="100%" overflow="visible" style="display: block;" viewBox="0 0 42 30.84" fill="none" xmlns="http://www.w3.org/2000/svg">
<g id="Layer_11">
<path id="Vector" d="M42 7.095V8.205H0V7.095C0 3.18 3.18 0 7.095 0H34.905C38.82 0 42 3.18 42 7.095Z" fill="var(--fill-0, white)"/>
<path id="Vector_2" d="M0 10.455V23.745C0 27.66 3.18 30.84 7.095 30.84H34.905C38.82 30.84 42 27.66 42 23.745V10.455H0ZM6.546 16.4385H10.5645C11.31 16.4385 11.9145 17.043 11.9145 17.7885C11.9145 18.534 11.31 19.1385 10.5645 19.1385H6.546C5.8005 19.1385 5.196 18.534 5.196 17.7885C5.196 17.043 5.8005 16.4385 6.546 16.4385ZM14.778 24.843H6.546C5.8005 24.843 5.196 24.2385 5.196 23.493C5.196 22.7475 5.8005 22.143 6.546 22.143H14.7765C15.522 22.143 16.1265 22.7475 16.1265 23.493C16.1265 24.2385 15.5235 24.843 14.778 24.843Z" fill="var(--fill-0, white)"/>
</g>
</svg>
