<svg preserveAspectRatio="none" width="100%" height="100%" overflow="visible" style="display: block;" viewBox="0 0 48 48" fill="none" xmlns="http://www.w3.org/2000/svg">
<g id="Layer_1">
<path id="Vector" d="M41.1602 15.8H41.1499C40.7686 15.7981 40.3973 15.6778 40.0873 15.4556C39.7774 15.2335 39.5442 14.9205 39.4199 14.56C39.2739 14.1517 39.1071 13.7511 38.9199 13.36C38.7563 13.0145 38.7022 12.6273 38.7648 12.2502C38.8273 11.8731 39.0036 11.5241 39.27 11.25C39.4412 11.0796 39.5771 10.877 39.6697 10.6539C39.7624 10.4308 39.8101 10.1916 39.81 9.95C39.8103 9.4591 39.6162 8.98807 39.27 8.64L37.3599 6.73C37.0136 6.38423 36.5443 6.19002 36.0549 6.19002C35.5656 6.19002 35.0963 6.38423 34.75 6.73C34.4033 7.07086 33.9362 7.26129 33.45 7.26C33.1701 7.26004 32.8937 7.19859 32.6402 7.08C32.249 6.89283 31.8484 6.72594 31.44 6.58C31.0795 6.45574 30.7665 6.22251 30.5443 5.91257C30.3222 5.60264 30.2019 5.23132 30.2 4.85V4.84C30.1979 4.35262 30.0034 3.8858 29.6587 3.54118C29.3141 3.19656 28.8472 3.00205 28.3599 3H25.6401C25.1528 3.00206 24.6859 3.19658 24.3413 3.5412C23.9967 3.88582 23.8021 4.35263 23.8001 4.84V4.85C23.7982 5.23132 23.6778 5.60264 23.4557 5.91257C23.2335 6.22251 22.9206 6.45574 22.56 6.58C22.1517 6.72594 21.7511 6.89283 21.3598 7.08C21.0144 7.24362 20.6272 7.29778 20.2501 7.23523C19.8731 7.17268 19.5241 6.9964 19.25 6.73C19.0796 6.55875 18.877 6.42288 18.6539 6.3302C18.4308 6.23753 18.1916 6.18988 17.95 6.19C17.4591 6.18961 16.9881 6.38379 16.6402 6.73L14.73 8.64C14.3842 8.98628 14.19 9.45564 14.19 9.945C14.19 10.4344 14.3842 10.9037 14.73 11.25C15.0709 11.5967 15.2613 12.0638 15.26 12.55C15.26 12.8299 15.1986 13.1064 15.0801 13.36C14.8929 13.7511 14.726 14.1517 14.5801 14.56C14.4558 14.9205 14.2226 15.2335 13.9126 15.4556C13.6027 15.6778 13.2314 15.7981 12.8501 15.8H12.8401C12.3527 15.8021 11.8859 15.9966 11.5413 16.3412C11.1967 16.6859 11.0021 17.1526 11 17.64V20.36C11.0021 20.8474 11.1967 21.3141 11.5413 21.6588C11.8859 22.0034 12.3527 22.1979 12.8401 22.2H12.8501C13.2314 22.2019 13.6027 22.3222 13.9126 22.5444C14.2226 22.7665 14.4558 23.0795 14.5801 23.44C14.726 23.8483 14.8929 24.2488 15.0801 24.64C15.2337 24.9654 15.2899 25.3283 15.242 25.6849C15.1941 26.0415 15.0441 26.3767 14.8101 26.65L15.98 25.87C16.8812 25.2628 17.9433 24.9389 19.03 24.94H20.9258C19.6967 23.6852 18.8866 22.0805 18.6066 20.3465C18.3267 18.6125 18.5908 16.8344 19.3625 15.2566C20.1342 13.6788 21.3757 12.3787 22.9163 11.5352C24.4569 10.6917 26.221 10.346 27.966 10.5458C29.7111 10.7456 31.3513 11.4811 32.6614 12.651C33.9715 13.8209 34.887 15.368 35.2821 17.0794C35.6772 18.7908 35.5325 20.5826 34.8679 22.2084C34.2033 23.8342 33.0514 25.2143 31.5705 26.1588C32.0015 26.6584 32.2767 27.2733 32.3619 27.9276C32.4471 28.5818 32.3387 29.2467 32.05 29.84L38.8701 24.77C38.8805 24.7245 38.8972 24.6808 38.9199 24.64C39.1071 24.2488 39.274 23.8483 39.4199 23.44C39.5442 23.0795 39.7774 22.7665 40.0874 22.5444C40.3973 22.3222 40.7686 22.2019 41.1499 22.2H41.1602C41.6475 22.1978 42.1142 22.0033 42.4588 21.6587C42.8034 21.3141 42.9979 20.8473 43 20.36V17.64C42.9979 17.1527 42.8034 16.6859 42.4588 16.3413C42.1142 15.9967 41.6475 15.8021 41.1602 15.8Z" fill="var(--fill-0, white)"/>
<path id="Vector_2" d="M18.0846 41.7323L14.6661 44.4671C14.4804 44.6157 14.2477 44.6932 14.0099 44.6857C13.7721 44.6782 13.5448 44.5862 13.3688 44.4262L3.86738 35.7885C3.76035 35.6912 3.6757 35.5719 3.61928 35.4387C3.56286 35.3055 3.536 35.1616 3.54057 35.017C3.54513 34.8725 3.581 34.7306 3.64571 34.6012C3.71042 34.4719 3.80243 34.3581 3.91538 34.2677L7.33388 31.5329C7.51965 31.3843 7.75232 31.3068 7.99011 31.3143C8.22789 31.3218 8.45522 31.4138 8.63125 31.5738L18.1326 40.2115C18.2397 40.3088 18.3243 40.4281 18.3807 40.5613C18.4372 40.6945 18.464 40.8384 18.4595 40.983C18.4549 41.1275 18.419 41.2694 18.3543 41.3988C18.2896 41.5281 18.1976 41.6419 18.0846 41.7323Z" fill="var(--fill-0, white)"/>
<path id="Vector_3" d="M45.3729 27.026C45.3097 26.5709 45.1356 26.1382 44.8659 25.7661C44.5961 25.3941 44.239 25.0941 43.826 24.8925C43.4012 24.6797 42.9301 24.576 42.4552 24.5908C41.9803 24.6056 41.5165 24.7385 41.1058 24.9774L31.6642 31.9984C31.1716 32.2773 30.6152 32.4237 30.0492 32.4234H26.0288C25.8863 32.4246 25.745 32.3975 25.613 32.3438C25.4811 32.29 25.361 32.2107 25.2599 32.1104C25.1587 32.01 25.0784 31.8906 25.0236 31.7591C24.9688 31.6276 24.9406 31.4865 24.9406 31.344C24.9406 31.2015 24.9688 31.0604 25.0236 30.9289C25.0784 30.7974 25.1587 30.678 25.2599 30.5776C25.361 30.4773 25.4811 30.398 25.613 30.3442C25.745 30.2905 25.8863 30.2634 26.0288 30.2646H29.0036C29.2514 30.2646 29.4968 30.2158 29.7258 30.1209C29.9547 30.0261 30.1628 29.8871 30.338 29.7118C30.5132 29.5366 30.6523 29.3286 30.7471 29.0996C30.8419 28.8706 30.8908 28.6252 30.8908 28.3774V28.3521C30.8907 27.8449 30.6893 27.3584 30.3306 26.9998C29.9719 26.6411 29.4855 26.4396 28.9783 26.4396H19.9386C19.2074 26.4396 18.4902 26.64 17.8649 27.0191L8 33L16.7868 39.7165H31.025C32.5081 39.7173 33.9384 39.1658 35.037 38.1694L44.2594 29.7715C44.6631 29.4463 44.9773 29.0236 45.1721 28.5432C45.3669 28.0628 45.436 27.5406 45.3729 27.026Z" fill="var(--fill-0, white)"/>
</g>
</svg>
