<svg width="163" height="70" viewBox="0 0 163 70" fill="none" xmlns="http://www.w3.org/2000/svg">
<path d="M50.4521 5.83345C51.6443 6.98954 51.9399 8.07014 52.0045 9.72234C51.5339 11.3592 51.1693 12.1992 49.7972 13.2223C47.2346 13.9975 45.3734 13.2395 42.9813 12.2744C36.6546 9.73563 30.2917 10.0437 23.9646 12.5418C17.154 15.6197 12.6587 20.4067 9.72791 27.2785C7.31263 33.7591 7.33974 41.035 10.0241 47.4343C13.4808 55.0152 19.0767 59.9962 26.7783 63.0001C33.6101 65.3927 41.4676 64.6729 47.9811 61.6665C51.8718 59.7584 54.8588 57.1747 57.826 54.0557C58.0821 54.184 58.3382 54.3123 58.6021 54.4446C53.0561 60.8559 47.3037 65.0026 38.8093 66.5001C28.7277 67.1129 20.5793 65.2448 12.7296 58.5917C6.60493 52.7541 3.0904 44.8524 2.66943 36.3886C2.46573 28.1037 5.03087 19.992 10.6481 13.8543C11.3556 13.1112 12.0777 12.3891 12.8069 11.6668C13.0901 11.379 13.3732 11.0913 13.665 10.7948C16.9643 7.63622 21.2846 5.29436 25.614 3.88901C25.9457 3.77321 26.2774 3.65741 26.6192 3.5381C33.7797 1.44813 44.0063 1.69967 50.4521 5.83345Z" fill="#0096D2"/>
<path d="M25.2266 25.2776C28.1922 25.2415 28.1922 25.2415 31.2178 25.2047C31.8343 25.194 32.4509 25.1834 33.0862 25.1725C39.5049 25.1347 39.5049 25.1347 42.1087 27.222C43.2357 28.7278 43.2267 30.2612 43.2214 32.0755C42.9936 33.6422 42.2645 34.3168 41.1385 35.3887C41.3301 35.5997 41.5217 35.8108 41.7191 36.0282C41.9677 36.3065 42.2164 36.5847 42.4725 36.8713C42.7202 37.1465 42.9678 37.4218 43.223 37.7053C44.4361 39.23 44.4351 40.9046 44.2432 42.7776C43.5369 44.7829 42.4727 45.8371 40.7504 47.0554C38.9246 47.8206 37.2607 47.9376 35.3079 47.9091C35.0509 47.9083 34.7938 47.9075 34.529 47.9067C33.5789 47.9027 32.6287 47.8918 31.6786 47.8818C28.4849 47.8577 28.4849 47.8577 25.2266 47.8331C25.2266 40.3898 25.2266 32.9465 25.2266 25.2776ZM30.6599 29.5554C30.6599 31.0954 30.6599 32.6354 30.6599 34.222C31.5981 34.2536 32.5352 34.2767 33.4736 34.2949C33.7382 34.3047 34.0029 34.3145 34.2755 34.3246C35.5468 34.3431 36.3468 34.304 37.4455 33.6341C37.6396 33.4431 37.8337 33.2521 38.0337 33.0554C37.9313 31.7206 37.9313 31.7206 37.6456 30.3331C36.2171 29.3788 35.1449 29.4667 33.4978 29.5067C33.2254 29.5103 32.953 29.5138 32.6724 29.5174C32.0015 29.5265 31.3307 29.5405 30.6599 29.5554ZM30.6599 38.1109C30.6599 39.9076 30.6599 41.7042 30.6599 43.5554C31.7274 43.5869 32.794 43.61 33.8617 43.6283C34.1634 43.6381 34.465 43.6478 34.7758 43.6579C36.1235 43.6752 37.0205 43.6778 38.2338 43.051C38.9365 42.3639 38.9365 42.3639 39.0039 41.0519C38.9158 39.6892 38.9158 39.6892 38.2338 38.8082C36.8032 37.7864 35.5713 37.9398 33.8617 38.0137C33.554 38.0207 33.2463 38.0277 32.9293 38.035C32.1727 38.0532 31.4162 38.0811 30.6599 38.1109Z" fill="black"/>
<path d="M145.923 25.2778C147.46 25.2778 148.997 25.2778 150.58 25.2778C150.58 32.7212 150.58 40.1645 150.58 47.8334C149.043 47.8334 147.506 47.8334 145.923 47.8334C145.795 47.5767 145.667 47.3201 145.535 47.0556C145.231 47.2481 144.927 47.4406 144.613 47.6389C142.54 48.4986 140.603 48.6102 138.44 47.9534C136.118 46.9158 135.109 45.459 134.183 43.0938C133.502 39.6227 133.655 36.5614 135.444 33.4445C137.106 31.7795 138.676 30.9983 141.023 30.9653C141.556 30.9488 141.556 30.9488 142.1 30.9319C143.206 31.1112 143.206 31.1112 145.535 32.6667C145.663 30.2284 145.791 27.7901 145.923 25.2778ZM139.713 35.7778C138.44 37.9052 138.349 39.602 138.937 42.0001C139.443 43.1334 139.825 43.7347 140.805 44.4792C142.023 44.8281 142.775 44.7115 143.982 44.3334C145.708 42.5574 146.059 41.0102 146.035 38.6125C145.863 37.2439 145.25 36.4211 144.371 35.3889C142.544 34.1685 141.358 34.4682 139.713 35.7778Z" fill="black"/>
<path d="M84.3857 31.7186C86.4132 32.9181 87.407 34.5823 88.2182 36.7498C88.485 38.1109 88.485 38.1109 88.485 40.8332C84.6428 40.8332 80.8007 40.8332 76.8421 40.8332C77.6634 43.451 77.6634 43.451 78.9039 44.1387C80.1855 44.3776 81.024 44.3178 82.2754 43.9443C82.4916 43.6796 82.7077 43.4149 82.9304 43.1422C84.4224 41.8895 86.2269 42.2724 88.0969 42.3887C87.7847 44.5055 86.9303 45.6289 85.3802 47.0554C82.9248 48.5509 80.2826 48.5829 77.5122 48.0534C75.4301 47.4099 74.1267 46.1557 72.9612 44.3332C71.7481 41.8438 71.8015 38.9746 72.4245 36.3078C73.2981 34.0263 74.7483 32.7061 76.8421 31.4998C79.2175 30.7064 82.0777 30.6858 84.3857 31.7186ZM77.6183 35.7776C77.3622 36.4193 77.106 37.0609 76.8421 37.7221C79.0193 37.7221 81.1965 37.7221 83.4397 37.7221C82.9459 35.4882 82.9459 35.4882 81.9359 34.854C80.1229 34.3197 79.0638 34.6722 77.6183 35.7776Z" fill="black"/>
<path d="M120.455 31.6459C122.324 32.7603 123.462 34.5374 124.19 36.5556C124.382 38.6731 124.382 38.6731 124.578 40.8334C120.736 40.8334 116.894 40.8334 112.935 40.8334C113.757 43.4512 113.757 43.4512 114.997 44.1389C116.647 44.4465 117.963 44.0799 119.533 43.5556C119.661 43.1706 119.789 42.7856 119.921 42.3889C121.33 42.3889 122.739 42.3889 124.19 42.3889C123.548 44.8475 122.465 46.4476 120.285 47.7847C117.796 48.6941 114.794 48.6865 112.378 47.5903C110.31 46.3711 109.023 44.6792 108.278 42.3889C107.965 39.3341 107.864 36.3374 109.831 33.8334C112.582 30.8952 116.716 30.1155 120.455 31.6459ZM113.712 35.7778C113.456 36.4195 113.199 37.0611 112.935 37.7222C115.113 37.7222 117.29 37.7222 119.533 37.7222C118.785 35.709 118.785 35.709 117.205 34.6111C115.523 34.6111 115.018 34.7786 113.712 35.7778Z" fill="black"/>
<path d="M54.7224 31.5C56.2593 31.5 57.7961 31.5 59.3795 31.5C59.3872 31.8355 59.3949 32.1711 59.4029 32.5168C59.4332 33.7627 59.4668 35.0085 59.5027 36.2543C59.5176 36.7933 59.5311 37.3323 59.5433 37.8714C59.561 38.6466 59.5839 39.4217 59.6069 40.1968C59.6191 40.6632 59.6313 41.1296 59.6439 41.6101C59.6839 42.8473 59.6839 42.8473 60.5438 43.9444C62.3697 44.1641 62.3697 44.1641 63.9882 43.434C64.8754 42.1005 64.8826 40.8417 64.9357 39.2854C64.9519 38.8329 64.9682 38.3805 64.9849 37.9144C65.0002 37.4419 65.0155 36.9694 65.0312 36.4826C65.0479 36.0057 65.0647 35.5287 65.082 35.0372C65.1232 33.8582 65.1623 32.6791 65.201 31.5C66.7378 31.5 68.2747 31.5 69.8581 31.5C69.8581 36.89 69.8581 42.28 69.8581 47.8333C68.3213 47.8333 66.7844 47.8333 65.201 47.8333C65.0729 47.4483 64.9448 47.0633 64.8129 46.6667C64.5167 46.9233 64.2206 47.18 63.9154 47.4444C62.1664 48.617 60.2381 48.4822 58.2153 48.2222C56.9398 47.6631 56.0022 46.9611 55.1105 45.8889C54.6406 44.4763 54.6741 43.1856 54.6845 41.7159C54.6851 41.4241 54.6856 41.1323 54.6862 40.8316C54.6883 39.9004 54.6932 38.9693 54.6981 38.0382C54.7001 37.4065 54.7019 36.7748 54.7035 36.1431C54.7077 34.5954 54.7144 33.0477 54.7224 31.5Z" fill="black"/>
<path d="M97.4597 25.2291C97.8048 25.2281 98.15 25.2271 98.5057 25.2261C99.3516 25.2777 99.3516 25.2777 99.7397 25.6666C99.7676 26.2574 99.7723 26.8495 99.764 27.4409C99.7605 27.7623 99.757 28.0836 99.7534 28.4147C99.7489 28.6628 99.7444 28.9109 99.7397 29.1666C98.8432 29.2949 97.9467 29.4233 97.023 29.5555C96.7669 30.1972 96.5108 30.8388 96.2469 31.4999C97.2714 31.4999 98.296 31.4999 99.3516 31.4999C99.3516 32.5266 99.3516 33.5533 99.3516 34.6111C98.327 34.6111 97.3025 34.6111 96.2469 34.6111C96.2469 38.9744 96.2469 43.3377 96.2469 47.8333C94.71 47.8333 93.1731 47.8333 91.5897 47.8333C91.5897 43.4699 91.5897 39.1066 91.5897 34.6111C90.6932 34.6111 89.7967 34.6111 88.873 34.6111C88.873 33.5844 88.873 32.5577 88.873 31.4999C89.7695 31.4999 90.666 31.4999 91.5897 31.4999C91.5537 30.8864 91.5537 30.8864 91.5169 30.2604C91.5944 28.6818 91.8001 28.0622 92.754 26.8333C94.2523 25.5195 95.4969 25.2234 97.4597 25.2291Z" fill="black"/>
<path d="M46.5723 25.2778C48.2372 25.2778 49.9021 25.2778 51.6175 25.2778C51.6175 32.7212 51.6175 40.1645 51.6175 47.8334C49.9526 47.8334 48.2876 47.8334 46.5723 47.8334C46.5723 40.3901 46.5723 32.9467 46.5723 25.2778Z" fill="black"/>
<path d="M126.906 25.2778C128.443 25.2778 129.98 25.2778 131.563 25.2778C131.563 32.7212 131.563 40.1645 131.563 47.8334C130.027 47.8334 128.49 47.8334 126.906 47.8334C126.906 40.3901 126.906 32.9467 126.906 25.2778Z" fill="black"/>
<path d="M100.904 31.5C102.569 31.5 104.234 31.5 105.95 31.5C105.95 36.89 105.95 42.28 105.95 47.8333C104.285 47.8333 102.62 47.8333 100.904 47.8333C100.904 42.4433 100.904 37.0533 100.904 31.5Z" fill="black"/>
<path d="M100.904 25.2778C102.569 25.2778 104.234 25.2778 105.95 25.2778C105.95 26.5612 105.95 27.8445 105.95 29.1667C104.285 29.1667 102.62 29.1667 100.904 29.1667C100.904 27.8834 100.904 26.6001 100.904 25.2778Z" fill="black"/>
</svg>
