<svg width="176" height="53" viewBox="0 0 176 53" fill="none" xmlns="http://www.w3.org/2000/svg">
<path d="M104.925 21.2281C107.435 21.2281 109.811 22.7668 110.324 26.087H99.1483C99.5802 23.1717 101.767 21.2281 104.925 21.2281ZM109.946 30.9999C109.082 32.3226 107.435 33.3484 105.168 33.3484C102.064 33.3484 99.6612 31.6477 99.0943 28.6244H113.131C113.212 28.1925 113.239 27.7606 113.239 27.3287C113.239 22.6318 109.973 18.4747 104.898 18.4747C99.6612 18.4747 96.125 22.3349 96.125 27.2747C96.125 32.2956 99.7152 36.0747 105.114 36.0747C108.461 36.0747 110.999 34.5631 112.483 32.2956L109.946 30.9999ZM91.833 11.2134H94.7483V35.6698H91.833V11.2134ZM129.462 25.3852V35.6698H126.547V25.5471C126.547 22.7937 124.981 21.2551 122.39 21.2551C119.718 21.2551 117.531 22.8207 117.531 26.7888V35.6698H114.616V18.9336H117.531V21.3361C118.773 19.3655 120.608 18.5017 122.957 18.5017C126.898 18.4747 129.462 21.0931 129.462 25.3852ZM145.524 27.2747C145.524 23.8465 142.932 21.2821 139.558 21.2821C136.211 21.2821 133.619 23.8735 133.619 27.2747C133.619 30.703 136.211 33.2674 139.558 33.2674C142.959 33.2944 145.524 30.703 145.524 27.2747ZM148.439 11.2134V35.6698H145.524V32.7815C144.174 34.833 142.042 36.1017 139.18 36.1017C134.537 36.1017 130.704 32.2416 130.704 27.3017C130.704 22.3618 134.51 18.5017 139.18 18.5017C142.015 18.5017 144.174 19.7704 145.524 21.822V11.2404H148.439V11.2134ZM150.788 11.2134H153.703V35.6698H150.788V11.2134ZM86.6502 27.2747C86.6502 23.8465 84.0587 21.2821 80.6845 21.2821C77.3373 21.2821 74.7459 23.8735 74.7459 27.2747C74.7459 30.703 77.3373 33.2674 80.6845 33.2674C84.0587 33.2944 86.6502 30.703 86.6502 27.2747ZM89.5655 18.9066V35.6428H86.6502V32.7545C85.3005 34.806 83.1679 36.0747 80.3336 36.0747C75.6906 36.0747 71.8575 32.2146 71.8575 27.2747C71.8575 22.3349 75.6637 18.4747 80.3336 18.4747C83.1679 18.4747 85.3275 19.7434 86.6502 21.795V18.9066H89.5655ZM67.5115 32.4306C62.8146 34.1582 57.6048 31.7557 55.8502 27.0588C54.1225 22.3618 56.525 17.152 61.2219 15.3974C64.2452 14.2907 67.6465 14.8576 70.1299 16.9091C70.6428 17.341 71.1017 17.7999 71.5066 18.3398L74.017 16.5042C69.914 11.1594 62.2477 10.1336 56.9029 14.2367C51.5581 18.3398 50.5324 26.006 54.6354 31.3508C58.7385 36.6956 66.4048 37.7214 71.7495 33.6183C71.7765 33.5913 71.7765 33.5913 71.8035 33.5643L70.1299 30.9189C69.3741 31.5668 68.4833 32.0796 67.5115 32.4306ZM167.767 18.9066V28.4085C167.767 31.4858 165.985 33.4293 163.259 33.4293C160.532 33.4293 158.562 31.4858 158.562 28.4085V18.9066H155.619V28.1385C155.619 32.9704 158.643 36.1017 163.286 36.1017C167.308 36.1017 167.929 33.5643 167.929 33.5103V36.9385C167.929 40.3398 166.444 42.2293 163.367 42.2293C161.099 42.2293 159.156 40.5557 158.859 38.3152L156.213 39.233C156.996 42.5533 159.965 44.9017 163.367 44.9017C168.145 44.9017 170.736 41.7704 170.736 36.9385V18.9336H167.767V18.9066Z" fill="#006BFF"/>
<path d="M32.5013 28.6782C31.3946 29.677 29.9909 30.9187 27.4535 30.9187H25.9148C24.0792 30.9187 22.4056 30.2438 21.2179 29.0561C20.0572 27.8684 19.4093 26.2487 19.4093 24.4941V22.4156C19.4093 20.661 20.0572 19.0414 21.2179 17.8537C22.4056 16.6389 24.0792 15.9911 25.9148 15.9911H27.4265C29.9639 15.9911 31.3676 17.2328 32.4743 18.2316C33.6351 19.2573 34.6339 20.1481 37.3062 20.1481C37.7111 20.1481 38.1161 20.1211 38.521 20.0402V20.0132C38.359 19.6083 38.17 19.2303 37.9541 18.8524L36.1725 15.7481C34.5259 12.9138 31.5026 11.1592 28.2093 11.1592H24.6731C21.3799 11.1592 18.3566 12.9138 16.7099 15.7481L14.9283 18.8524C13.2817 21.6868 13.2817 25.196 14.9283 28.0303L16.7099 31.1346C18.3566 33.969 21.3799 35.7236 24.6731 35.7236H28.2363C31.5296 35.7236 34.5529 33.969 36.1995 31.1346L37.9811 28.0303C38.197 27.6524 38.386 27.2745 38.548 26.8696V26.8426C38.1431 26.7886 37.7381 26.7346 37.3332 26.7346C34.6608 26.7616 33.6621 27.6524 32.5013 28.6782Z" fill="#006BFF"/>
<path d="M27.4534 17.8545H25.9148C23.1344 17.8545 21.2988 19.852 21.2988 22.3895V24.468C21.2988 27.0324 23.1344 29.003 25.9148 29.003H27.4264C31.5025 29.003 31.1786 24.8459 37.3332 24.8459C37.927 24.8459 38.4939 24.8999 39.0608 25.0079C39.2497 23.9551 39.2497 22.8754 39.0608 21.8226C38.4939 21.9306 37.9001 21.9845 37.3332 21.9845C31.1786 22.0115 31.5025 17.8545 27.4534 17.8545Z" fill="#006BFF"/>
<path d="M42.5961 26.5456C41.5433 25.7898 40.3556 25.2499 39.0599 25.0339V25.0609C38.9519 25.6818 38.79 26.2756 38.547 26.8425C39.5998 27.0045 40.5986 27.4094 41.4624 28.0572V28.0842C38.8979 36.3983 30.0979 41.0413 21.7838 38.4769C13.4697 35.9125 8.82678 27.1125 11.3912 18.7983C13.9556 10.4842 22.7556 5.84129 31.0697 8.4057C36.0366 9.94435 39.9237 13.8315 41.4624 18.7983V18.8253C40.5986 19.4462 39.5998 19.8511 38.547 20.0131C38.79 20.5799 38.9519 21.2008 39.0599 21.7947V21.8217C40.3286 21.5787 41.5433 21.0658 42.5961 20.31C43.5949 19.5542 43.4059 18.7174 43.244 18.2315C40.3826 8.91859 30.5029 3.70877 21.19 6.57012C11.8771 9.43147 6.66727 19.3112 9.52862 28.6241C12.39 37.937 22.2697 43.1468 31.5826 40.2855C37.1433 38.5579 41.5163 34.2118 43.244 28.6241C43.4059 28.1382 43.6219 27.3014 42.5961 26.5456Z" fill="#006BFF"/>
<path d="M38.5469 20.0134C38.1419 20.0674 37.737 20.1214 37.3321 20.1214C34.6597 20.1214 33.661 19.2306 32.5002 18.2048C31.3665 17.2061 29.9898 15.9644 27.4524 15.9644H25.9137C24.0781 15.9644 22.4045 16.6392 21.2168 17.8269C20.0561 19.0147 19.4082 20.6343 19.4082 22.3889V24.4674C19.4082 26.222 20.0561 27.8417 21.2168 29.0294C22.4045 30.2441 24.0781 30.892 25.9137 30.892H27.4254C29.9628 30.892 31.3665 29.6502 32.4732 28.6515C33.634 27.6257 34.6327 26.7349 37.3051 26.7349C37.71 26.7349 38.1149 26.7619 38.5199 26.8429C38.7628 26.276 38.9248 25.6552 39.0327 25.0613V25.0343C38.4659 24.9263 37.872 24.8723 37.3051 24.8723C31.1505 24.8723 31.4745 29.0294 27.3984 29.0294H25.9137C23.1334 29.0294 21.2978 27.0318 21.2978 24.4674V22.3889C21.2978 19.8245 23.1334 17.8539 25.9137 17.8539H27.4254C31.5015 17.8539 31.1775 22.011 37.3321 22.011C37.926 22.011 38.4929 21.957 39.0597 21.849V21.822C38.9518 21.2012 38.7898 20.6073 38.5469 20.0134Z" fill="#0AE8F0"/>
<path d="M38.5469 20.0134C38.1419 20.0674 37.737 20.1214 37.3321 20.1214C34.6597 20.1214 33.661 19.2306 32.5002 18.2048C31.3665 17.2061 29.9898 15.9644 27.4524 15.9644H25.9137C24.0781 15.9644 22.4045 16.6392 21.2168 17.8269C20.0561 19.0147 19.4082 20.6343 19.4082 22.3889V24.4674C19.4082 26.222 20.0561 27.8417 21.2168 29.0294C22.4045 30.2441 24.0781 30.892 25.9137 30.892H27.4254C29.9628 30.892 31.3665 29.6502 32.4732 28.6515C33.634 27.6257 34.6327 26.7349 37.3051 26.7349C37.71 26.7349 38.1149 26.7619 38.5199 26.8429C38.7628 26.276 38.9248 25.6552 39.0327 25.0613V25.0343C38.4659 24.9263 37.872 24.8723 37.3051 24.8723C31.1505 24.8723 31.4745 29.0294 27.3984 29.0294H25.9137C23.1334 29.0294 21.2978 27.0318 21.2978 24.4674V22.3889C21.2978 19.8245 23.1334 17.8539 25.9137 17.8539H27.4254C31.5015 17.8539 31.1775 22.011 37.3321 22.011C37.926 22.011 38.4929 21.957 39.0597 21.849V21.822C38.9518 21.2012 38.7898 20.6073 38.5469 20.0134Z" fill="#0AE8F0"/>
</svg>
