<svg width="218" height="71" viewBox="0 0 218 71" fill="none" xmlns="http://www.w3.org/2000/svg">
<path d="M71.1787 39.95L73.284 42.0363C73.284 42.0363 70.8631 45.1767 66.2072 45.1767C60.894 45.1767 56.8691 41.0863 56.8691 35.621C56.8691 30.1557 60.894 26.0654 66.2072 26.0654C70.6253 26.0654 73.0204 28.9672 73.0204 28.9672L70.8891 31.0535C70.8891 31.0535 69.2334 29.0192 66.2072 29.0192C62.5757 29.0192 60.077 32.0555 60.077 35.6166C60.077 39.1779 62.5757 42.2142 66.2072 42.2142C69.4452 42.2142 71.1787 39.9456 71.1787 39.9456V39.95Z" fill="#1A1A1A"/>
<path d="M81.0722 26.3822H84.2799L91.4347 44.8603H88.253L86.5713 40.4793H78.7852L77.1035 44.8603H73.9218L81.0764 26.3822H81.0722ZM79.9179 37.5731H85.4429L82.6803 30.3684L79.9179 37.5731Z" fill="#1A1A1A"/>
<path d="M96.6997 26.3822V41.85H104.538V44.8603H93.5396V26.3822H96.6997Z" fill="#1A1A1A"/>
<path d="M109.86 26.3822V41.85H117.698V44.8603H106.7V26.3822H109.86Z" fill="#1A1A1A"/>
<path d="M123.012 33.8775H130.379V36.8878H123.012V41.85H131.17V44.8603H119.856V26.3822H131.01V29.3925H123.012V33.8819V33.8775Z" fill="#1A1A1A"/>
<path d="M139.589 26.3822H142.796L149.951 44.8603H146.769L145.088 40.4793H137.302L135.62 44.8603H132.438L139.593 26.3822H139.589ZM138.43 37.5731H143.955L141.193 30.3684L138.43 37.5731Z" fill="#1A1A1A"/>
<path d="M164.192 41.3249V37.4167H160.008V34.4586H167.296V42.8518C167.296 42.8518 164.953 45.1767 160.483 45.1767C155.088 45.1767 150.804 41.0863 150.804 35.621C150.804 30.1557 154.958 26.0654 160.353 26.0654C164.88 26.0654 167.167 28.8371 167.167 28.8371L165.009 30.9495C165.009 30.9495 163.483 29.0236 160.353 29.0236C156.644 29.0236 154.011 32.0599 154.011 35.621C154.011 39.1823 156.774 42.2184 160.483 42.2184C163.116 42.2184 164.192 41.3205 164.192 41.3205V41.3249Z" fill="#1A1A1A"/>
<path d="M181.659 26.3822H184.815V38.1544C184.815 42.2188 182.053 45.1769 177.713 45.1769C173.371 45.1769 170.61 42.2188 170.61 38.1544V26.3822H173.766V37.7596C173.766 40.4013 175.079 42.1666 177.713 42.1666C180.346 42.1666 181.659 40.3969 181.659 37.7596V26.3822Z" fill="#1A1A1A"/>
<path d="M191.869 33.8775H199.235V36.8878H191.869V41.85H200.026V44.8603H188.713V26.3822H199.866V29.3925H191.869V33.8819V33.8775Z" fill="#1A1A1A"/>
<path d="M42.6522 37.1881V51.6368H22.6079L0 61.6087L12.3781 40.3466C13.5184 38.3893 15.5903 37.1881 17.8283 37.1881H42.6522ZM42.6522 22.7421H23.6582C18.4432 22.7422 14.2157 27.0382 14.2157 32.3377C14.2154 32.7604 13.9408 33.1299 13.5411 33.247L2.64874 36.419C1.32177 36.8057 0.000292747 35.7927 0 34.3899V32.3309C0.000302185 19.0543 10.5892 8.29348 23.6529 8.29346H42.6522V22.7421Z" fill="url(#paint0_linear_2775_6762)"/>
<defs>
<linearGradient id="paint0_linear_2775_6762" x1="3.0352" y1="9.83564" x2="41" y2="52.191" gradientUnits="userSpaceOnUse">
<stop stop-color="#007BFF"/>
<stop offset="1" stop-color="#00FFEA"/>
</linearGradient>
</defs>
</svg>
