<svg width="256" height="44" viewBox="0 0 256 44" fill="none" xmlns="http://www.w3.org/2000/svg">
<g clip-path="url(#clip0_1406_3108)">
<path d="M31.7619 41.5438C31.7614 42.2033 31.4992 42.8356 31.0328 43.302C30.5664 43.7683 29.934 44.0305 29.2744 44.0311H2.73174C2.07215 44.0311 1.43953 43.7694 0.972761 43.3034C0.505993 42.8374 0.243239 42.2053 0.242188 41.5458V2.70068C0.241928 2.37372 0.306143 2.04991 0.431163 1.74778C0.556182 1.44565 0.739551 1.17113 0.970779 0.939932C1.20201 0.708731 1.47656 0.525382 1.77872 0.400378C2.08088 0.275373 2.40473 0.211166 2.73174 0.211427H19.7661L31.7619 12.4437V41.5438Z" fill="#23A566"/>
<path d="M21.0859 12.1242L31.7617 22.327V12.372H22.3049C21.8921 12.3767 21.4851 12.2742 21.1236 12.0747L21.0859 12.1242Z" fill="#1C8F5A"/>
<path d="M31.7611 12.4238H22.2786C21.619 12.4233 20.9866 12.1611 20.5202 11.6948C20.0538 11.2284 19.7915 10.5961 19.791 9.93658V0.144043L31.7611 12.4238Z" fill="#8ED1B1"/>
<path fill-rule="evenodd" clip-rule="evenodd" d="M24.1716 35.9525H7.76953V21.7324H24.1716V35.9525ZM16.9904 23.7837V26.2729H22.1558V23.7876L16.9904 23.7837ZM16.9904 27.8406V30.2189H22.1558V27.8287L16.9904 27.8406ZM16.9904 31.735V33.9369H22.1558V31.7231L16.9904 31.735ZM14.9627 33.925V31.7231H9.79923V33.925H14.9627ZM14.9627 30.1931V27.8287H9.79923V30.205L14.9627 30.1931ZM14.9627 26.2987V23.7837H9.79923V26.2729L14.9627 26.2987Z" fill="white"/>
<path d="M87.8837 22.1332C87.8837 19.0137 85.5329 16.8812 82.8035 16.8812C80.0741 16.8812 77.7214 19.0137 77.7214 22.1332C77.7214 25.221 80.0741 27.3852 82.8035 27.3852C85.5329 27.3852 87.8837 25.2171 87.8837 22.1332ZM91.84 22.1332C91.84 27.1236 87.7826 30.802 82.8015 30.802C77.8224 30.802 73.765 27.1236 73.765 22.1332C73.765 17.1072 77.8224 13.4644 82.8035 13.4644C87.7826 13.4644 91.84 17.1072 91.84 22.1332ZM107.378 22.1332C107.378 19.0137 105.027 16.8812 102.298 16.8812C99.5683 16.8812 97.2175 19.0137 97.2175 22.1332C97.2175 25.221 99.5683 27.3852 102.298 27.3852C105.027 27.3852 107.378 25.2171 107.378 22.1332ZM111.334 22.1332C111.334 27.1236 107.277 30.802 102.298 30.802C97.3186 30.802 93.2592 27.1236 93.2592 22.1332C93.2592 17.1111 97.3186 13.4644 102.298 13.4644C107.277 13.4644 111.334 17.1072 111.334 22.1332ZM126.543 22.163C126.543 19.1108 124.426 16.8792 121.734 16.8792C119.003 16.8792 116.718 19.1108 116.718 22.163C116.718 25.1853 119.003 27.3852 121.732 27.3852C124.426 27.3852 126.543 25.1834 126.543 22.163ZM130.02 13.9877V29.5515C130.02 35.953 126.095 38.5691 121.457 38.5691C119.771 38.5966 118.115 38.1266 116.695 37.2178C115.275 36.3091 114.154 35.0019 113.473 33.4597L116.916 32.0803C117.53 33.4915 119.033 35.1562 121.455 35.1562C124.422 35.1562 126.262 33.3924 126.262 30.0747V28.8261H126.123C125.239 29.8785 123.532 30.7981 121.38 30.7981C116.876 30.7981 112.749 27.0226 112.749 22.1649C112.749 17.2697 116.876 13.4644 121.38 13.4644C123.528 13.4644 125.235 14.382 126.125 15.4027H126.264V13.9916H130.02V13.9877ZM136.214 4.86104H132.355V30.2689H136.212L136.214 4.86104ZM141.798 21.8637L149.849 18.6471C149.407 17.563 148.073 16.8099 146.507 16.8099C144.495 16.8099 141.696 18.5183 141.798 21.8637ZM151.25 24.9812L154.321 26.9512C153.476 28.1532 152.351 29.1314 151.043 29.8009C149.735 30.4705 148.284 30.8114 146.814 30.7941C141.696 30.7941 137.875 26.9889 137.875 22.1253C137.875 16.9704 141.73 13.4565 146.372 13.4565C151.046 13.4565 153.333 17.0358 154.083 18.9701L154.491 19.9551L142.448 24.7553C143.369 26.4954 144.804 27.3813 146.814 27.3813C148.83 27.3813 150.226 26.428 151.25 24.9812ZM59.1588 19.8739V16.1955H72.0386C72.1635 16.8356 72.2289 17.5947 72.2289 18.4152C72.2289 21.174 71.4459 24.5868 68.9187 27.0166C66.4609 29.4801 63.3212 30.7941 59.1627 30.7941C51.4523 30.7941 44.9707 24.7493 44.9707 17.3331C44.9707 9.91684 51.4523 3.87207 59.1627 3.87207C63.4283 3.87207 66.4649 5.48136 68.7483 7.58019L66.0526 10.1765C64.4154 8.69798 62.1974 7.55046 59.1588 7.55046C53.5295 7.55046 49.1272 11.9146 49.1272 17.3331C49.1272 22.7516 53.5295 27.1157 59.1588 27.1157C62.8098 27.1157 64.8891 25.7046 66.2211 24.4223C67.3033 23.3818 68.0129 21.8974 68.2944 19.8699L59.1588 19.8739ZM177.646 24.9317C177.646 26.9393 176.909 28.5526 175.436 29.7695C173.94 30.9665 172.126 31.5651 169.989 31.5651C168.086 31.5651 166.412 31.0101 164.959 29.8983C163.506 28.7884 162.501 27.2703 161.946 25.3479L164.766 24.1964C164.959 24.8782 165.224 25.4985 165.567 26.0534C165.908 26.6083 166.305 27.0899 166.752 27.4962C167.222 27.8807 167.736 28.1899 168.291 28.4238C168.846 28.6378 169.432 28.7448 170.053 28.7448C171.399 28.7448 172.499 28.4039 173.353 27.7202C174.207 27.0146 174.635 26.0851 174.635 24.9317C174.635 23.9704 174.283 23.148 173.577 22.4662C172.915 21.8042 171.676 21.1621 169.86 20.5438C168.023 19.8818 166.881 19.4339 166.431 19.1961C163.997 17.9594 162.778 16.1321 162.778 13.7181C162.778 12.0315 163.452 10.5907 164.798 9.39362C166.166 8.19854 167.843 7.60001 169.829 7.60001C171.581 7.60001 173.097 8.04792 174.378 8.94572C175.66 9.82172 176.514 10.9217 176.943 12.2456L174.187 13.399C173.928 12.5404 173.385 11.795 172.647 11.2843C171.9 10.7076 170.982 10.4183 169.892 10.4183C168.739 10.4183 167.767 10.7393 166.978 11.3795C166.186 11.978 165.789 12.7569 165.789 13.7181C165.789 14.5109 166.1 15.1926 166.721 15.7694C167.405 16.3441 168.889 17.0299 171.175 17.8206C173.502 18.6094 175.159 19.5825 176.14 20.734C177.145 21.8677 177.646 23.2669 177.646 24.9317ZM180.683 8.11134H183.63V15.3532L183.501 17.5333H183.63C184.078 16.7623 184.762 16.1222 185.682 15.6108C186.572 15.1105 187.576 14.8451 188.597 14.8399C190.518 14.8399 191.993 15.3948 193.018 16.5047C194.064 17.5947 194.587 19.1544 194.587 21.1819V31.0518H191.64V21.7606C191.64 18.9404 190.391 17.5313 187.892 17.5313C186.695 17.5313 185.682 18.0327 184.847 19.0375C184.04 20.0079 183.608 21.2359 183.63 22.4979V31.0518H180.683V8.11134ZM205.099 31.5651C202.791 31.5651 200.891 30.7723 199.394 29.1927C197.9 27.6132 197.152 25.6154 197.152 23.2015C197.152 20.8093 197.878 18.8235 199.331 17.2439C200.784 15.6405 202.641 14.8399 204.906 14.8399C207.233 14.8399 209.083 15.5989 210.448 17.1151C211.838 18.6094 212.532 20.7142 212.532 23.4254L212.5 23.7465H200.163C200.207 25.2844 200.718 26.5231 201.701 27.4625C202.684 28.402 203.86 28.8736 205.226 28.8736C207.107 28.8736 208.579 27.9342 209.648 26.0534L212.276 27.3357C211.602 28.6259 210.581 29.7023 209.329 30.4433C208.088 31.1905 206.678 31.5651 205.099 31.5651ZM200.387 21.3127H209.392C209.361 20.7965 209.226 20.2919 208.994 19.8294C208.763 19.3668 208.44 18.9559 208.046 18.6213C207.255 17.894 206.187 17.5313 204.841 17.5313C203.731 17.5313 202.77 17.8722 201.957 18.5559C201.168 19.2397 200.645 20.1612 200.387 21.3127ZM222.434 31.5651C220.127 31.5651 218.224 30.7723 216.73 29.1927C215.235 27.6132 214.486 25.6154 214.486 23.2015C214.486 20.8093 215.213 18.8235 216.666 17.2439C218.119 15.6405 219.977 14.8399 222.242 14.8399C224.569 14.8399 226.416 15.5989 227.784 17.1151C229.174 18.6094 229.867 20.7142 229.867 23.4254L229.836 23.7465H217.499C217.542 25.2844 218.054 26.5231 219.037 27.4625C220.02 28.402 221.194 28.8736 222.561 28.8736C224.442 28.8736 225.915 27.9342 226.983 26.0534L229.612 27.3357C228.938 28.6264 227.916 29.7029 226.662 30.4433C225.423 31.1905 224.014 31.5651 222.434 31.5651ZM217.723 21.3127H226.728C226.697 20.7965 226.561 20.2919 226.33 19.8294C226.099 19.3668 225.776 18.9559 225.382 18.6213C224.591 17.894 223.523 17.5313 222.177 17.5313C221.067 17.5313 220.105 17.8722 219.293 18.5559C218.504 19.2397 217.979 20.1612 217.723 21.3127ZM238.309 31.3074C237.029 31.3074 235.96 30.911 235.106 30.1222C234.272 29.3315 233.845 28.2315 233.824 26.8224V18.0426H231.068V15.3532H233.824V10.5471H236.771V15.3532H240.616V18.0446H236.771V25.8612C236.771 26.9076 236.975 27.6251 237.382 28.0076C237.786 28.3702 238.246 28.5526 238.759 28.5526C238.993 28.5526 239.217 28.5328 239.431 28.4892C239.667 28.4238 239.879 28.3504 240.071 28.2652L241.001 30.8912C240.232 31.1687 239.336 31.3074 238.309 31.3074ZM255.75 26.6936C255.75 28.0611 255.151 29.2145 253.956 30.1539C252.759 31.0934 251.252 31.5651 249.437 31.5651C247.857 31.5651 246.468 31.1588 245.272 30.3462C244.102 29.5469 243.207 28.4055 242.71 27.0781L245.336 25.9583C245.72 26.8977 246.275 27.635 247.003 28.1681C247.75 28.6814 248.561 28.9371 249.437 28.9371C250.378 28.9371 251.157 28.7349 251.776 28.3286C252.418 27.9223 252.737 27.4427 252.737 26.8858C252.737 25.883 251.968 25.1457 250.43 24.676L247.74 24.0022C244.684 23.2352 243.157 21.7606 243.157 19.5825C243.157 18.1516 243.734 17.0081 244.888 16.1539C246.063 15.2779 247.558 14.8399 249.373 14.8399C250.761 14.8399 252.012 15.1708 253.122 15.8328C254.255 16.4947 255.044 17.3826 255.494 18.4925L252.866 19.5825C252.564 18.9171 252.043 18.3746 251.391 18.0446C250.709 17.6548 249.935 17.4556 249.149 17.4679C248.38 17.4679 247.687 17.6601 247.066 18.0426C246.468 18.4291 246.168 18.8988 246.168 19.4537C246.168 20.3515 247.013 20.9917 248.701 21.3762L251.072 21.9846C254.19 22.7536 255.75 24.3232 255.75 26.6936Z" fill="#787879"/>
</g>
<defs>
<clipPath id="clip0_1406_3108">
<rect width="255.75" height="43.957" fill="white"/>
</clipPath>
</defs>
</svg>
