<svg width="240" height="37" viewBox="0 0 240 37" fill="none" xmlns="http://www.w3.org/2000/svg">
<g clip-path="url(#clip0_1406_3061)">
<path d="M0 7.42988V28.9666L10.5411 34.6203V1.26172L0 7.42988ZM34.1565 16.5798H45.6799V4.86028H49.7105V31.4857H45.6799V20.383H34.1565V31.5362H30.1258V4.86028H34.1565V16.5798Z" fill="#2196F3"/>
<path fill-rule="evenodd" clip-rule="evenodd" d="M53.2241 23.0044C53.2241 20.589 54.1023 18.5324 55.8586 16.8362C57.615 15.14 59.7345 14.2666 62.2142 14.2666C64.7475 14.2666 66.8655 15.14 68.6219 16.8362C70.3797 18.5324 71.2058 20.6394 71.2058 23.1586C71.2058 25.6777 70.3276 27.7847 68.5712 29.4809C66.8135 31.1772 64.6433 31.9987 62.1115 31.9987C59.5783 31.9987 57.4602 31.1253 55.7559 29.4291C54.0502 27.7328 53.2241 25.574 53.2241 23.0044ZM57.2026 23.1067C57.2026 24.8029 57.6671 26.0884 58.5453 27.0641C59.4755 28.0412 60.6647 28.5557 62.2142 28.5557C63.7651 28.5557 64.9529 28.0412 65.8832 27.0641C66.8135 26.0884 67.2272 24.8029 67.2272 23.1586C67.2272 21.5142 66.7628 20.2287 65.8832 19.2516C64.9543 18.2759 63.7651 17.7614 62.2142 17.7614C60.7154 17.7614 59.5276 18.2759 58.5973 19.2516C57.6685 20.2287 57.2026 21.5142 57.2026 23.1067Z" fill="#2196F3"/>
<path d="M78.5984 14.7292V24.3403C78.5984 27.116 79.6821 28.5038 81.9057 28.5038C84.1265 28.5038 85.213 27.116 85.213 24.3403V14.7292H89.0874V24.4441C89.0874 25.78 88.9326 26.9618 88.5709 27.9389C88.2613 28.8122 87.6927 29.5833 86.8652 30.3024C85.5746 31.4337 83.8675 31.9987 81.8536 31.9987C79.8383 31.9987 78.1846 31.4337 76.8406 30.3024C76.0145 29.5833 75.4459 28.8122 75.1363 27.9389C74.8267 27.1679 74.6719 25.9861 74.6719 24.4441V14.7292H78.5984ZM103.504 17.6072L100.301 19.3034C99.7847 18.2759 99.164 17.7614 98.3886 17.7614C98.2172 17.7546 98.0463 17.7831 97.8864 17.8451C97.7266 17.9071 97.5814 18.0012 97.4597 18.1217C97.2008 18.3782 97.0966 18.6348 97.0966 19.0469C97.0966 19.7142 97.8721 20.331 99.3709 20.9478C101.438 21.8226 102.833 22.6441 103.556 23.4151C104.28 24.1861 104.641 25.1632 104.641 26.4473C104.641 28.0931 104.022 29.4291 102.833 30.5085C101.645 31.536 100.249 32.0505 98.5969 32.0505C95.754 32.0505 93.7387 30.6627 92.6015 27.9389L95.9088 26.3968C96.3733 27.2197 96.7349 27.7328 96.9418 27.9389C97.4063 28.3496 97.9748 28.6076 98.6475 28.6076C99.9395 28.6076 100.611 27.9907 100.611 26.8076C100.611 26.1389 100.094 25.4716 99.0613 24.8548C98.8642 24.7576 98.6658 24.6632 98.466 24.5716C98.2732 24.4819 98.079 24.3922 97.8721 24.2898C97.6652 24.1861 97.4724 24.0964 97.2782 24.0067C97.0789 23.915 96.8809 23.8206 96.6843 23.7235C95.5471 23.1586 94.7717 22.6441 94.3059 22.0791C93.7387 21.36 93.4291 20.4852 93.4291 19.3553C93.4291 17.9156 93.9456 16.682 94.9265 15.7568C95.9609 14.7797 97.2008 14.317 98.6475 14.317C100.87 14.2666 102.471 15.3965 103.504 17.6072Z" fill="#2196F3"/>
<path fill-rule="evenodd" clip-rule="evenodd" d="M124.224 24.0318H112.132C112.235 25.4196 112.701 26.499 113.476 27.3219C114.25 28.1448 115.285 28.5037 116.525 28.5037C117.507 28.5037 118.281 28.299 118.954 27.8364C119.573 27.3738 120.296 26.5509 121.072 25.2654L124.379 27.1158C123.925 27.907 123.388 28.6481 122.777 29.3266C122.209 29.9434 121.588 30.4565 120.969 30.8686C120.296 31.2793 119.625 31.5359 118.85 31.742C118.075 31.948 117.3 31.9985 116.422 31.9985C113.889 31.9985 111.873 31.177 110.376 29.5831C108.825 27.9387 108.102 25.8303 108.102 23.1584C108.102 20.4851 108.825 18.3781 110.324 16.7337C111.823 15.0879 113.786 14.3169 116.266 14.3169C118.747 14.3169 120.71 15.0879 122.157 16.6818C123.604 18.2239 124.327 20.4346 124.327 23.1584L124.224 24.0318ZM120.246 20.8972C119.677 18.8407 118.385 17.8131 116.319 17.8131C115.853 17.8131 115.387 17.8636 114.974 18.0178C114.561 18.172 114.2 18.3781 113.838 18.6346C113.476 18.8926 113.219 19.2514 112.958 19.6117C112.701 19.972 112.546 20.4346 112.391 20.8958H120.244L120.246 20.8972ZM157.864 14.729H161.791V31.5373H157.864V29.7892C156.261 31.2793 154.557 32.0504 152.696 32.0504C150.371 32.0504 148.459 31.2275 146.909 29.5326C145.41 27.8364 144.635 25.6775 144.635 23.1065C144.635 20.5888 145.41 18.4804 146.909 16.836C148.407 15.1398 150.319 14.3169 152.592 14.3169C154.557 14.3169 156.313 15.1398 157.864 16.7337V14.729ZM148.614 23.1065C148.614 24.7004 149.027 26.0364 149.906 27.0135C150.784 28.0411 151.921 28.5555 153.265 28.5555C154.712 28.5555 155.899 28.0411 156.779 27.064C157.657 26.0364 158.122 24.7509 158.122 23.1584C158.122 21.5645 157.657 20.2804 156.779 19.2514C155.899 18.2757 154.712 17.7613 153.317 17.7613C151.973 17.7613 150.836 18.2757 149.958 19.3033C149.027 20.3309 148.614 21.5645 148.614 23.1065Z" fill="#2196F3"/>
<path d="M170.11 4.91211V31.5361H166.234V4.91211H170.11ZM178.481 4.91211V31.5361H174.605V4.91211H178.481Z" fill="#2196F3"/>
<path fill-rule="evenodd" clip-rule="evenodd" d="M194.398 20.7432V31.5375H190.367V4.91064H194.965C197.187 4.91064 198.893 5.06485 200.03 5.37326C201.183 5.67721 202.235 6.27987 203.078 7.11997C204.629 8.61154 205.403 10.5125 205.403 12.7737C205.403 15.1905 204.577 17.1432 202.924 18.5829C201.27 20.0212 199.048 20.7418 196.309 20.7418H194.398V20.7432ZM194.398 16.9904H195.895C199.616 16.9904 201.477 15.5507 201.477 12.7246C201.477 10.0008 199.564 8.61294 195.74 8.61294H194.398V16.9904Z" fill="#2196F3"/>
<path d="M212.69 14.7292V16.2194C213.414 15.4484 214.034 14.9858 214.603 14.6773C215.171 14.3689 215.843 14.2666 216.618 14.2666C217.651 14.2666 218.736 14.575 219.821 15.2423L218.013 18.789C217.289 18.2759 216.566 18.018 215.843 18.018C213.725 18.018 212.64 19.6119 212.64 22.7983V31.4856H208.764V14.7292H212.69Z" fill="#2196F3"/>
<path fill-rule="evenodd" clip-rule="evenodd" d="M220.955 23.0044C220.955 20.589 221.833 18.5324 223.591 16.8362C225.347 15.14 227.467 14.2666 229.947 14.2666C232.478 14.2666 234.597 15.14 236.354 16.8362C238.111 18.5324 238.938 20.6394 238.938 23.1586C238.938 25.6777 238.06 27.7847 236.302 29.4809C234.546 31.1772 232.376 31.9987 229.843 31.9987C227.311 31.9987 225.193 31.1253 223.487 29.4291C221.833 27.7328 220.955 25.574 220.955 23.0044ZM224.934 23.1067C224.934 24.8029 225.399 26.0884 226.278 27.0641C227.208 28.0412 228.396 28.5557 229.947 28.5557C231.496 28.5557 232.685 28.0412 233.616 27.0641C234.546 26.0884 234.958 24.8029 234.958 23.1586C234.958 21.5142 234.494 20.2287 233.616 19.2516C232.685 18.2759 231.496 17.7614 229.947 17.7614C228.448 17.7614 227.26 18.2759 226.33 19.2516C225.399 20.2287 224.934 21.5142 224.934 23.1067Z" fill="#2196F3"/>
<path d="M136.834 17.7616H136.936C136.936 17.7616 136.989 17.8135 136.989 17.7616C137.143 17.7616 137.35 17.7616 137.505 17.8135C138.946 17.9034 140.353 18.288 141.638 18.9434V15.4486C140.141 14.6775 138.59 14.2668 136.938 14.2668C134.353 14.2668 132.182 15.1402 130.374 16.8364C128.565 18.5326 127.686 20.6915 127.686 23.1588C127.686 25.6779 128.565 27.7849 130.322 29.4293C132.08 31.1255 134.248 31.9484 136.884 31.9484C138.487 31.9484 140.037 31.5363 141.638 30.7148V27.2185C140.358 27.894 138.95 28.2969 137.505 28.4017C137.247 28.4536 136.989 28.4536 136.731 28.4536C135.283 28.4536 134.043 27.9391 133.114 26.9115C132.182 25.8826 131.718 24.5985 131.718 23.0564C131.718 21.5144 132.182 20.2289 133.165 19.2013C134.146 18.1724 135.335 17.7616 136.834 17.7616ZM13.5918 31.4858H18.0348L18.139 4.86035H13.5918V7.37949H15.6071L15.5551 29.0185H13.5918V31.4858Z" fill="#2196F3"/>
</g>
<defs>
<clipPath id="clip0_1406_3061">
<rect width="239.25" height="36.5912" fill="white"/>
</clipPath>
</defs>
</svg>
