<svg width="176" height="88" viewBox="0 0 176 88" fill="none" xmlns="http://www.w3.org/2000/svg">
<path d="M5.32812 28.9609H11.0931V41.7799H23.2533V28.9609H29.0254V60.4714H23.2533V47.3301H11.1003V60.3997H5.32812V28.9609ZM47.2943 50.1589C47.2886 51.424 46.7836 52.6357 45.889 53.5302C44.9944 54.4248 43.7827 54.9299 42.5176 54.9355C41.2525 54.9299 40.0408 54.4248 39.1462 53.5302C38.2516 52.6357 37.7465 51.424 37.7409 50.1589V36.5521H32.2767V50.1589C32.2767 52.8749 33.3556 55.4797 35.2762 57.4003C37.1967 59.3208 39.8015 60.3997 42.5176 60.3997C45.2336 60.3997 47.8384 59.3208 49.759 57.4003C51.6795 55.4797 52.7585 52.8749 52.7585 50.1589V36.5521H47.2943V50.1589ZM68.0267 36.7812C66.8329 36.7275 65.6414 36.9298 64.5322 37.3745C63.423 37.8191 62.4218 38.4959 61.5957 39.3594V28.9609H56.11V48.2396C56.11 55.4583 61.3379 60.3997 67.1888 60.3997C73.6341 60.3997 79.4134 55.3652 79.4134 48.5833C79.4134 41.8874 74.1497 36.7669 67.9551 36.7669L68.0267 36.7812ZM68.1699 55.401C64.446 55.401 61.61 52.3001 61.61 48.6693C61.61 45.0384 64.4531 41.9375 68.1699 41.9375C71.321 41.9375 74.1641 45.0456 74.1641 48.6693C74.1641 52.293 71.321 55.401 68.1699 55.401ZM88.6374 38.235C88.6374 35.4779 90.4779 34.6042 92.4831 34.6042C94.1016 34.6042 96.2428 35.8216 97.6393 37.3255L101.22 33.1289C99.4297 30.7227 95.7988 29.0612 92.8268 29.0612C86.8828 29.0612 82.5859 32.5202 82.5859 38.2493C82.5859 48.877 95.6628 45.5111 95.6628 51.4622C95.6628 53.2956 93.8724 54.9141 91.8171 54.9141C88.5801 54.9141 87.5202 53.3385 86.0449 51.6771L82.0631 55.7878C84.5983 58.8958 87.7494 60.4714 91.5163 60.4714C97.1595 60.4714 101.707 56.9622 101.707 51.5052C101.707 39.6888 88.6302 43.3698 88.6302 38.2565M116.152 36.5664C110.279 36.5664 105.073 41.5794 105.073 48.7266V68.0625H110.559V57.6068C112.385 59.3971 114.283 60.1849 116.99 60.1849C123.113 60.1849 128.448 55.0645 128.448 48.3685C128.448 41.5866 122.733 36.5521 116.216 36.5521L116.152 36.5664ZM117.126 55.1862C113.402 55.1862 110.566 52.0781 110.566 48.4544C110.566 44.8307 113.409 41.7227 117.126 41.7227C120.277 41.7227 123.12 44.8307 123.12 48.4544C123.12 52.0781 120.277 55.1862 117.126 55.1862ZM168.76 55.4941C165.523 55.4941 164.606 54.0977 164.606 51.9492V42.3027H169.633V37.4831H164.606V31.138L159.056 33.6302V52.9661C159.056 57.9792 162.465 60.3997 167.148 60.3997C167.883 60.4142 168.617 60.3566 169.34 60.2279L170.701 55.2435L168.767 55.3294" fill="#45535E"/>
<path d="M154.279 42.582C153.227 40.7702 151.751 39.3236 149.896 38.2279C148.537 37.4242 147.029 36.9029 145.464 36.6953V30.9447C146.248 30.6212 146.917 30.0691 147.383 29.3602C147.849 28.6513 148.091 27.8184 148.077 26.9701C148.077 24.5566 146.144 22.6732 143.73 22.6732C143.156 22.6713 142.586 22.7829 142.054 23.0016C141.523 23.2203 141.039 23.5418 140.632 23.9476C140.225 24.3534 139.902 24.8357 139.682 25.3666C139.461 25.8975 139.348 26.4668 139.348 27.0417C139.348 28.8105 140.293 30.3359 141.904 31.0163V36.7669C140.615 36.9531 139.276 37.3542 138.051 37.9844L122.568 26.2253C122.683 25.8171 122.769 25.3945 122.769 24.9505C122.769 22.2793 120.606 20.1094 117.928 20.1094C115.249 20.1094 113.094 22.2793 113.094 24.9505C113.094 27.6217 115.257 29.7917 117.935 29.7917C118.812 29.7892 119.671 29.5465 120.42 29.0898L121.423 29.8561L135.316 39.8678C134.578 40.541 133.898 41.3001 133.346 42.1738C132.206 43.893 131.584 45.9044 131.556 47.9674V48.3971C131.556 49.8724 131.842 51.2617 132.315 52.5866C132.745 53.7324 133.354 54.7708 134.105 55.7161L129.493 60.3424C128.929 60.1328 128.322 60.0632 127.725 60.1397C127.127 60.2161 126.557 60.4363 126.064 60.7813C125.57 61.1263 125.168 61.5859 124.891 62.1207C124.614 62.6554 124.47 63.2493 124.473 63.8516C124.471 64.343 124.567 64.83 124.754 65.2844C124.941 65.7388 125.216 66.1516 125.564 66.4991C125.912 66.8467 126.324 67.1219 126.779 67.3091C127.233 67.4963 127.72 67.5917 128.212 67.5898C128.703 67.5917 129.19 67.4963 129.644 67.3091C130.099 67.1219 130.512 66.8467 130.859 66.4991C131.207 66.1516 131.482 65.7388 131.669 65.2844C131.856 64.83 131.952 64.343 131.95 63.8516C131.95 63.4648 131.893 63.0853 131.778 62.7272L136.548 57.9577C137.214 58.4133 137.924 58.802 138.667 59.1178C140.23 59.8014 141.917 60.155 143.623 60.1562H143.952C145.929 60.1655 147.876 59.6727 149.61 58.724C151.472 57.707 152.94 56.3177 154.05 54.5488C155.174 52.7861 155.771 50.7385 155.769 48.6478V48.5404C155.769 46.4134 155.268 44.4583 154.243 42.668L154.279 42.582ZM148.457 52.5938C147.168 54.026 145.678 54.9212 143.995 54.9212H143.709C142.749 54.9212 141.811 54.6562 140.887 54.1764C139.882 53.6543 139.031 52.8792 138.417 51.9277C137.751 50.9824 137.385 49.9583 137.385 48.8626V48.5117C137.385 47.4375 137.6 46.4206 138.102 45.4609C138.634 44.436 139.427 43.5692 140.4 42.9473C141.382 42.2311 142.42 41.9876 143.587 41.9876H143.695C144.733 41.9722 145.76 42.2081 146.688 42.6751C147.648 43.1908 148.436 43.8926 149.051 44.8236C149.636 45.7287 149.996 46.7596 150.104 47.8314L150.133 48.5117C150.113 50.0365 149.508 51.4954 148.443 52.5866L148.457 52.5938Z" fill="#F8761F"/>
</svg>
