<svg width="148" height="25" viewBox="0 0 148 25" fill="none" xmlns="http://www.w3.org/2000/svg">
<g clip-path="url(#clip0_434_5870)">
<path d="M75.332 12.3056C75.332 5.50961 80.9081 0 87.7861 0H135.213C142.09 0 147.667 5.50961 147.667 12.3056C147.667 19.1015 142.09 24.6111 135.213 24.6111H87.7861C80.9081 24.6111 75.332 19.1015 75.332 12.3056Z" fill="#D5F29F"/>
<path d="M26.8015 12.3056C26.8015 5.50961 32.3776 0 39.2555 0H62.8789C69.7569 0 75.3322 5.50961 75.3322 12.3056C75.3322 19.1015 69.7569 24.6111 62.8789 24.6111H39.2547C32.3767 24.6111 26.8015 19.1015 26.8015 12.3056ZM0 12.322C0 5.5334 5.56785 0.0328148 12.4368 0.0328148H14.3647C21.2328 0.0328148 26.8015 5.53422 26.8015 12.322C26.8015 19.1081 21.2328 24.6095 14.3647 24.6095H12.4368C5.56785 24.6095 0 19.1081 0 12.322Z" fill="#D5F29F"/>
<path d="M34.1237 6.27994H31.7487C30.872 7.31141 30.2146 8.36231 29.7766 9.43262C29.3387 10.5003 29.1157 11.6438 29.1203 12.7978C29.1203 13.9704 29.339 15.0921 29.7766 16.1629C30.2141 17.2338 30.8715 18.2844 31.7487 19.3148H34.1237C33.4964 18.1428 33.0307 17.0235 32.7266 15.957C32.4231 14.8905 32.2713 13.8372 32.2713 12.797C32.2713 11.7551 32.4231 10.6722 32.7266 9.60572C33.0307 8.53978 33.4964 7.43091 34.1237 6.27911V6.27994ZM44.5449 6.98463C43.544 6.51429 42.381 6.27939 41.0558 6.27994H35.4691V17.6486H41.0558C42.3799 17.6486 43.5429 17.4137 44.5449 16.9439C45.5457 16.4741 46.3226 15.8124 46.8755 14.9586C47.4279 14.1049 47.7044 13.1068 47.7049 11.9643C47.7049 10.8229 47.4287 9.8253 46.8764 8.97157C46.3234 8.11729 45.5463 7.45553 44.5449 6.98627V6.98463ZM44.179 13.4951C43.9093 13.9299 43.5281 14.266 43.0354 14.5033C42.5426 14.7407 41.9626 14.8594 41.2954 14.8594H38.5463V9.0692H41.2945C41.9629 9.0692 42.5432 9.18815 43.0354 9.42606C43.5281 9.66342 43.9093 9.99703 44.179 10.4269C44.4481 10.8557 44.5823 11.3684 44.5818 11.9651C44.5818 12.5607 44.4481 13.0603 44.179 13.4951ZM52.395 6.27994H49.3022V17.6486H52.395V6.27994ZM63.5627 6.98463C62.5618 6.51429 61.3991 6.27939 60.0745 6.27994H54.4877V17.6486H60.0745C61.3991 17.6486 62.5618 17.4137 63.5627 16.9439C64.5635 16.4741 65.3404 15.8124 65.8934 14.9586C66.4463 14.1049 66.7228 13.1068 66.7228 11.9643C66.7228 10.8218 66.4466 9.82421 65.8942 8.97157C65.3407 8.11729 64.5635 7.45553 63.5627 6.98627V6.98463ZM63.1968 13.4951C62.9272 13.9299 62.546 14.266 62.0532 14.5033C61.5599 14.7407 60.9799 14.8594 60.3132 14.8594H57.5641V9.0692H60.3124C60.9807 9.0692 61.561 9.18815 62.0532 9.42606C62.5465 9.66342 62.9277 9.99703 63.1968 10.4269C63.4659 10.8557 63.6001 11.3684 63.5996 11.9651C63.5996 12.5607 63.4659 13.0603 63.1968 13.4951ZM69.4267 6.27994H67.0517C67.6889 7.43228 68.157 8.54142 68.4562 9.60736C68.7548 10.6738 68.9041 11.7373 68.9041 12.7978C68.9041 13.8585 68.7548 14.8922 68.4562 15.9587C68.1576 17.0251 67.6894 18.1444 67.0517 19.3164H69.4267C70.3132 18.285 70.9731 17.2341 71.4062 16.1638C71.8399 15.0929 72.0568 13.9712 72.0568 12.7986C72.0568 11.626 71.8399 10.5043 71.4062 9.43344C70.9725 8.36258 70.3127 7.31087 69.4267 6.27994ZM78.3392 11.13H73.3866V13.5706H78.3392V11.13ZM114.121 11.13H109.168V13.5706H114.121V11.13ZM88.1516 10.4023C87.9413 10.1686 87.7113 9.95346 87.4642 9.75913C87.0621 9.44415 86.6135 9.19368 86.1344 9.01669C85.6078 8.82551 85.0513 8.73047 84.4911 8.73612C83.6845 8.73612 82.9675 8.90293 82.3401 9.23655C81.7261 9.55627 81.2118 10.0388 80.8536 10.6312C80.4899 11.2273 80.3081 11.9296 80.3081 12.7379C80.3081 13.546 80.4886 14.2359 80.8536 14.838C81.2109 15.4329 81.7252 15.9177 82.3401 16.2392C82.9675 16.5728 83.6845 16.7397 84.4911 16.7397C85.2382 16.7397 85.9082 16.6059 86.5011 16.3385C87.127 16.0638 87.6888 15.6618 88.1508 15.158V15.4664C88.1508 16.4071 87.8943 17.0894 87.3813 17.5133C86.8683 17.9371 86.124 18.1493 85.1483 18.1499C84.4523 18.1484 83.7603 18.0439 83.0949 17.8398C82.3901 17.6218 81.7296 17.2804 81.144 16.8315V19.1655C81.8113 19.5702 82.4812 19.8759 83.1539 20.0827C83.8638 20.2953 84.6017 20.3998 85.3427 20.3928C86.5279 20.3928 87.5563 20.1959 88.4281 19.8021C89.2993 19.4078 89.9792 18.8313 90.4676 18.0728C90.9548 17.3153 91.1988 16.406 91.1993 15.345V8.99372H88.1508V10.4031L88.1516 10.4023ZM87.0917 14.1629C86.6299 14.4777 86.082 14.6419 85.5232 14.6329C85.0747 14.6329 84.6913 14.5545 84.373 14.3975C84.0681 14.2534 83.8132 14.0214 83.6413 13.7314C83.4674 13.4299 83.3792 13.0867 83.3861 12.7387C83.3861 12.3646 83.4706 12.0184 83.6413 11.7305C83.8102 11.4428 84.0566 11.2229 84.3804 11.0709C84.7042 10.92 85.0854 10.8442 85.524 10.8437C86.1015 10.8437 86.6195 10.9979 87.0778 11.3063C87.5361 11.6148 87.9293 12.0923 88.2575 12.7387C87.9381 13.3753 87.5498 13.8503 87.0926 14.1637L87.0917 14.1629ZM95.9058 5.97722H92.8425V17.6486H95.9058V5.97722ZM105.52 9.3112C104.697 8.92782 103.744 8.73585 102.659 8.7353C101.574 8.7353 100.607 8.92727 99.7902 9.31202C98.9737 9.69486 98.336 10.2303 97.8771 10.9183C97.4188 11.6052 97.1897 12.4086 97.1897 13.3286C97.1897 14.2474 97.4194 15.0243 97.8771 15.7158C98.3354 16.4077 98.9732 16.9428 99.7902 17.3213C100.606 17.7009 101.563 17.8904 102.659 17.8898C103.755 17.8898 104.698 17.7011 105.52 17.3213C106.341 16.9423 106.981 16.4069 107.439 15.715C107.897 15.0232 108.126 14.2274 108.127 13.3277C108.127 12.4294 107.897 11.605 107.439 10.9183C106.981 10.2314 106.341 9.69514 105.52 9.3112ZM104.75 14.5419C104.56 14.8864 104.289 15.1492 103.936 15.3303C103.582 15.5124 103.156 15.6034 102.659 15.6034C102.161 15.6034 101.732 15.5124 101.374 15.3303C101.025 15.1586 100.738 14.8836 100.552 14.5427C100.363 14.1987 100.268 13.7891 100.268 13.3138C100.268 12.8385 100.362 12.4319 100.552 12.0939C100.741 11.7548 101.015 11.4945 101.374 11.3129C101.732 11.1308 102.16 11.0397 102.659 11.0397C103.157 11.0397 103.583 11.1308 103.936 11.3129C104.29 11.495 104.562 11.7554 104.75 12.0939C104.939 12.433 105.034 12.8448 105.034 13.3294C105.034 13.8134 104.939 14.1982 104.75 14.5419ZM124.67 9.3112C124.037 8.92782 123.303 8.73585 122.466 8.7353C121.629 8.7353 120.95 8.92399 120.307 9.30382C119.743 9.63878 119.261 10.0947 118.895 10.6386V5.97722H115.833V17.6486H118.895V15.9825C119.258 16.5273 119.738 16.9849 120.3 17.3221C120.937 17.7017 121.659 17.8912 122.466 17.8906C123.273 17.8906 124.037 17.702 124.67 17.3221C125.302 16.9431 125.795 16.4077 126.149 15.7158C126.503 15.0245 126.68 14.2288 126.68 13.3286C126.68 12.4303 126.502 11.6058 126.149 10.9191C125.817 10.255 125.304 9.69813 124.67 9.31284V9.3112ZM123.34 14.4648C123.176 14.7877 122.925 15.0583 122.615 15.2458C122.306 15.4334 121.948 15.5269 121.54 15.5263C121.131 15.5263 120.743 15.4328 120.375 15.2458C120.001 15.0554 119.67 14.7895 119.404 14.4648C119.122 14.1279 118.905 13.7426 118.762 13.3277C118.903 12.9077 119.121 12.5172 119.404 12.1759C119.683 11.8429 120.007 11.5801 120.375 11.3876C120.734 11.1982 121.134 11.0994 121.54 11.0996C121.948 11.0996 122.306 11.1956 122.615 11.3876C122.924 11.579 123.165 11.8418 123.34 12.1759C123.515 12.5096 123.602 12.8938 123.601 13.3286C123.601 13.7625 123.515 14.1325 123.34 14.4648ZM135.704 8.99372L135.489 10.7272C135.113 10.149 134.612 9.66279 134.023 9.30464C133.389 8.92563 132.67 8.73612 131.863 8.73612C131.056 8.73612 130.292 8.92809 129.659 9.31284C129.027 9.69568 128.531 10.2311 128.173 10.9191C127.814 11.6061 127.635 12.4095 127.635 13.3294C127.635 14.2482 127.815 15.0251 128.173 15.7167C128.531 16.4085 129.027 16.9437 129.659 17.3221C130.292 17.7017 131.027 17.8912 131.863 17.8906C132.699 17.8906 133.389 17.702 134.023 17.3221C134.613 16.9632 135.113 16.4734 135.485 15.8906L135.704 17.6486H138.871L138.333 13.313L138.871 8.99372H135.704ZM133.955 15.2458C133.591 15.433 133.186 15.5293 132.776 15.5263C132.357 15.5263 132.023 15.432 131.715 15.2458C131.406 15.0571 131.155 14.7868 130.99 14.4648C130.811 14.1127 130.722 13.7224 130.729 13.3277C130.729 12.9036 130.816 12.5098 130.99 12.1759C131.164 11.8429 131.406 11.5801 131.715 11.3876C132.034 11.1928 132.402 11.093 132.776 11.0996C133.194 11.0996 133.587 11.1956 133.955 11.3876C134.323 11.579 134.647 11.8418 134.927 12.1759C135.206 12.5096 135.415 12.8938 135.554 13.3286C135.415 13.753 135.206 14.1317 134.927 14.4648C134.66 14.7895 134.33 15.0554 133.955 15.2458ZM143.398 5.97722H140.335V17.6486H143.398V5.97722ZM14.1854 7.73527H11.9737V10.8576H8.89648V13.1005H11.9737V16.2228H14.1854V13.1013H17.2634V10.8584H14.1846L14.1854 7.73527Z" fill="#272727"/>
</g>
<defs>
<clipPath id="clip0_434_5870">
<rect width="147.667" height="24.6111" fill="white"/>
</clipPath>
</defs>
</svg>
