<svg width="220" height="88" viewBox="0 0 220 88" fill="none" xmlns="http://www.w3.org/2000/svg">
<path fill-rule="evenodd" clip-rule="evenodd" d="M105.16 36.5199C100.24 36.5199 96.1052 33.1543 94.933 28.5999H82.8295C80.2485 28.5999 78.0458 30.4659 77.6217 33.0118L77.1874 35.6161C76.7756 38.0885 75.5246 40.2401 73.7558 41.7999C75.5246 43.3597 76.7756 45.5113 77.1874 47.9837L77.6217 50.588C78.0458 53.1339 80.2485 54.9999 82.8295 54.9999H84.373C85.5452 50.4455 89.6799 47.0799 94.6004 47.0799C100.433 47.0799 105.16 51.8077 105.16 57.6399C105.16 63.4721 100.433 68.1999 94.6004 68.1999C89.6799 68.1999 85.5452 64.8343 84.373 60.2799H82.8295C77.6674 60.2799 73.2621 56.5478 72.4134 51.4561L71.9791 48.8518C71.555 46.3059 69.3523 44.4399 66.7713 44.4399H62.5878C61.4156 48.9943 57.2809 52.3599 52.3604 52.3599C47.4399 52.3599 43.3052 48.9943 42.133 44.4399H36.1878C35.0156 48.9943 30.8809 52.3599 25.9604 52.3599C20.1283 52.3599 15.4004 47.6321 15.4004 41.7999C15.4004 35.9677 20.1283 31.2399 25.9604 31.2399C30.8809 31.2399 35.0156 34.6055 36.1878 39.1599H42.133C43.3052 34.6055 47.4399 31.2399 52.3604 31.2399C57.2809 31.2399 61.4156 34.6055 62.5878 39.1599H66.7713C69.3523 39.1599 71.555 37.2939 71.9791 34.748L72.4134 32.1437C73.2621 27.052 77.6674 23.3199 82.8295 23.3199H94.933C96.1052 18.7655 100.24 15.3999 105.16 15.3999C110.993 15.3999 115.72 20.1277 115.72 25.9599C115.72 31.7921 110.993 36.5199 105.16 36.5199ZM105.16 31.2399C108.076 31.2399 110.44 28.8758 110.44 25.9599C110.44 23.044 108.076 20.6799 105.16 20.6799C102.245 20.6799 99.8804 23.044 99.8804 25.9599C99.8804 28.8758 102.245 31.2399 105.16 31.2399ZM25.9604 47.0799C28.8763 47.0799 31.2404 44.7158 31.2404 41.7999C31.2404 38.884 28.8763 36.5199 25.9604 36.5199C23.0443 36.5199 20.6804 38.884 20.6804 41.7999C20.6804 44.7158 23.0443 47.0799 25.9604 47.0799ZM57.6404 41.7999C57.6404 44.7158 55.2763 47.0799 52.3604 47.0799C49.4445 47.0799 47.0804 44.7158 47.0804 41.7999C47.0804 38.884 49.4445 36.5199 52.3604 36.5199C55.2763 36.5199 57.6404 38.884 57.6404 41.7999ZM99.8804 57.6399C99.8804 60.5558 97.5163 62.9199 94.6004 62.9199C91.6845 62.9199 89.3204 60.5558 89.3204 57.6399C89.3204 54.724 91.6845 52.3599 94.6004 52.3599C97.5163 52.3599 99.8804 54.724 99.8804 57.6399Z" fill="#EA4B71"/>
<path fill-rule="evenodd" clip-rule="evenodd" d="M179.088 38.2299V37.9787C180.93 37.056 182.772 35.4623 182.772 32.3172C182.772 27.7878 179.046 25.062 173.896 25.062C168.621 25.062 164.853 27.9555 164.853 32.4008C164.853 35.4205 166.611 37.056 168.537 37.9787V38.2299C166.402 38.9849 163.848 41.2496 163.848 45.0239C163.848 49.5947 167.616 52.782 173.855 52.782C180.093 52.782 183.736 49.5947 183.736 45.0239C183.736 41.2496 181.223 39.0267 179.088 38.2299ZM173.855 28.9204C175.948 28.9204 177.497 30.2619 177.497 32.5266C177.497 34.7913 175.906 36.1333 173.855 36.1333C171.803 36.1333 170.086 34.7913 170.086 32.5266C170.086 30.2201 171.719 28.9204 173.855 28.9204ZM173.855 48.756C171.426 48.756 169.458 47.2046 169.458 44.5624C169.458 42.1723 171.091 40.3687 173.812 40.3687C176.492 40.3687 178.125 42.1301 178.125 44.6464C178.125 47.2046 176.241 48.756 173.855 48.756Z" fill="#101330"/>
<path d="M190.193 52.3631H195.553V40.9983C195.553 37.2658 197.814 35.6303 200.367 35.6303C202.88 35.6303 204.848 37.3081 204.848 40.7467V52.3631H210.207V39.6563C210.207 34.1625 207.025 30.9756 202.043 30.9756C198.902 30.9756 197.144 32.2335 195.887 33.869H195.553L195.092 31.3949H190.193V52.3631Z" fill="#101330"/>
<path d="M142.754 52.3631H137.395V31.3949H142.293L142.754 33.869H143.089C144.345 32.2335 146.103 30.9756 149.244 30.9756C154.226 30.9756 157.408 34.1625 157.408 39.6563V52.3631H152.049V40.7467C152.049 37.3081 150.081 35.6303 147.569 35.6303C145.015 35.6303 142.754 37.2658 142.754 40.9983V52.3631Z" fill="#101330"/>
</svg>
