<svg width="220" height="39" viewBox="0 0 220 39" fill="none" xmlns="http://www.w3.org/2000/svg">
<g clip-path="url(#clip0_1445_2626)">
<path d="M76.1045 24.6184C77.0193 22.5705 78.9361 21.1766 81.4644 21.1766C83.9918 21.1766 85.8657 22.3527 86.6503 24.6184H76.1045ZM92.6637 27.2335C92.6637 20.9579 88.0876 15.9469 81.4206 15.9469C79.9318 15.9439 78.4571 16.2349 77.0811 16.8033C75.7051 17.3716 74.4549 18.2061 73.4022 19.2588C72.3495 20.3116 71.5151 21.5618 70.9468 22.9378C70.3785 24.3139 70.0875 25.7886 70.0906 27.2773C70.0906 33.552 74.7974 38.6068 81.5954 38.6068C86.3031 38.6068 89.6894 36.3359 91.5947 33.0802L86.8595 30.2567C85.8549 32.1843 83.9265 33.378 81.6388 33.378C78.5013 33.378 76.5402 31.8088 75.8428 29.412H92.6637V27.2335ZM214.205 27.2335C214.205 24.0087 211.851 21.394 208.627 21.394C205.315 21.394 202.788 23.8776 202.788 27.2335C202.788 30.5885 205.315 33.1163 208.627 33.1163C211.851 33.1163 214.204 30.4583 214.204 27.2335M196.948 27.2773C196.948 19.5644 202.613 15.9469 207.537 15.9469C210.369 15.9469 212.592 16.9928 214.03 18.5177V6.36018H220V38.1711H214.03V35.731C212.592 37.4308 210.283 38.6068 207.451 38.6068C202.831 38.6068 196.948 34.9463 196.948 27.2773ZM192.562 13.0667C193.031 13.0667 193.496 12.9743 193.929 12.7948C194.362 12.6153 194.756 12.3522 195.087 12.0206C195.419 11.6889 195.682 11.2952 195.861 10.8619C196.041 10.4286 196.133 9.96415 196.133 9.49517C196.14 9.0216 196.053 8.5513 195.877 8.11164C195.701 7.67199 195.439 7.27177 195.107 6.93427C194.775 6.59678 194.379 6.32876 193.942 6.14581C193.505 5.96287 193.036 5.86865 192.562 5.86865C192.089 5.86865 191.62 5.96287 191.183 6.14581C190.746 6.32876 190.35 6.59678 190.018 6.93427C189.685 7.27177 189.424 7.67199 189.247 8.11164C189.071 8.5513 188.984 9.0216 188.992 9.49517C188.992 9.96415 189.084 10.4286 189.263 10.8619C189.443 11.2952 189.706 11.6889 190.037 12.0206C190.369 12.3522 190.762 12.6153 191.196 12.7948C191.629 12.9743 192.093 13.0667 192.562 13.0667ZM189.577 16.383H195.547V38.1711H189.577V22.1786H187.411L189.577 16.383ZM173.674 16.383H179.6V19.9563C180.69 17.6901 182.651 16.383 185.614 16.383H188.011L185.846 22.1782H184.219C181.038 22.1782 179.644 23.8347 179.644 27.887V38.1711H173.674V16.383ZM140.088 22.2654C140.088 13.2016 146.93 5.92448 156.342 5.92448C161.05 5.92448 165.01 7.61959 167.876 10.321C169.038 11.4164 170.027 12.6814 170.81 14.073L165.494 17.2978C163.533 13.6807 160.526 11.8069 156.386 11.8069C150.59 11.8069 146.102 16.5571 146.102 22.2654C146.102 28.1049 150.503 32.724 156.604 32.724C161.223 32.724 164.491 30.1094 165.624 26.0566H155.645V20.2614H172.16V22.7016C172.16 31.2424 166.06 38.6068 156.604 38.6068C146.668 38.6068 140.088 31.068 140.088 22.2654ZM132.892 27.2335C132.892 24.0087 130.539 21.394 127.315 21.394C124.003 21.394 121.475 23.8776 121.475 27.2335C121.475 30.5885 124.003 33.1163 127.315 33.1163C130.539 33.1163 132.892 30.4583 132.892 27.2335ZM115.636 27.2773C115.636 19.5644 121.301 15.9469 126.225 15.9469C129.057 15.9469 131.28 16.9928 132.718 18.5177V6.36018H138.688V38.1711H132.718V35.731C131.28 37.4308 128.97 38.6068 126.138 38.6068C121.519 38.6068 115.636 34.9463 115.636 27.2773ZM94.0593 16.383H99.986V18.8232C101.38 17.0362 103.516 15.9469 105.999 15.9469C111.142 15.9469 114.236 19.2589 114.236 24.8801V38.1711H108.178V25.6647C108.178 22.745 106.827 21.0456 104.169 21.0456C101.903 21.0456 100.029 22.6139 100.029 26.2744V38.1711H94.0593V16.383ZM45.3145 32.8985L50.8488 28.5406C52.4176 31.2424 54.9016 32.8112 57.7337 32.8112C60.8283 32.8112 62.4843 30.8067 62.4843 28.6278C62.4843 26.0132 59.3025 25.186 55.9036 24.1393C51.6334 22.8322 46.8832 21.1762 46.8832 15.0751C46.8832 9.97685 51.3288 5.92405 57.4724 5.92405C62.6587 5.92405 65.6214 7.88514 68.1931 10.5436L63.1812 14.3347C61.8741 12.3741 60.0003 11.3278 57.5158 11.3278C54.6838 11.3278 53.1588 12.8532 53.1588 14.8577C53.1588 17.2978 56.2091 18.1263 59.608 19.2589C63.922 20.6533 68.8028 22.5705 68.8028 28.6716C68.8028 33.7265 64.7934 38.6068 57.7775 38.6068C52.0257 38.6068 48.1912 36.1671 45.3145 32.8985Z" fill="#212F38"/>
<path d="M38.1716 0V25.4477H25.4477V38.1707H0.000429686L0 12.7239H12.7239V0H38.1716Z" fill="#9DD6E3"/>
<path d="M0 38.1711H12.7239V25.4473H0V38.1711Z" fill="#3F72AB"/>
<path d="M25.4485 25.4477H38.1723V12.7234H25.4485V25.4477ZM12.7246 12.7239L25.4485 12.7234V0H12.7246V12.7239Z" fill="#00A9D1"/>
<path d="M12.7246 25.4475H25.4485V12.7236H12.7246V25.4475Z" fill="#2191C4"/>
<path d="M25.4473 12.7239H38.1711V0H25.4473V12.7239Z" fill="#3F72AB"/>
</g>
<defs>
<clipPath id="clip0_1445_2626">
<rect width="220" height="38.6718" fill="white"/>
</clipPath>
</defs>
</svg>
