<svg width="176" height="88" viewBox="0 0 176 88" fill="none" xmlns="http://www.w3.org/2000/svg">
<path fill-rule="evenodd" clip-rule="evenodd" d="M68.4777 45.0253C68.4777 40.8465 71.576 37.9296 77.2129 37.9296C80.6472 37.9296 83.4619 39.0083 84.9868 40.0651C85.3913 40.322 85.5488 40.8277 85.3602 41.263L84.1188 43.8148C83.8893 44.2313 83.3051 44.1779 83.0065 44.0274C81.9201 43.4862 80.1414 42.5728 78.5269 42.4038C78.1254 42.3616 77.7055 42.3397 77.2802 42.3488C75.8392 42.3801 74.6373 42.8718 74.2116 43.9522C74.1258 44.1669 74.0796 44.3812 74.0752 44.5941C74.038 46.0177 76.0501 46.5312 78.4899 46.9408C83.0292 47.7055 86.4598 49.0135 86.4598 53.6031C86.4598 57.5012 83.2868 61.0252 77.1274 60.9171C73.0544 60.8364 70.1654 59.4862 68.6163 58.1709C68.5641 58.1269 67.9742 57.5362 68.2895 56.8282C68.6518 55.9145 69.2602 54.8655 69.7401 54.3149C70.007 53.957 70.7106 53.9004 71.0747 54.1243C72.3515 54.9039 74.4344 56.1531 76.8722 56.2339L77.4376 56.2374C79.6159 56.1861 80.9337 55.3755 80.9055 54.0069C80.8814 52.8016 79.1549 52.0988 76.4259 51.589C72.0396 50.7764 68.512 49.3567 68.512 45.022M108.351 50.9708C105.258 51.0111 102.423 51.842 102.341 54.2177C102.341 56.1015 103.895 57.0278 106.081 56.9068C108.175 56.7088 109.772 55.8156 110.476 54.632C110.738 54.1917 110.775 52.5501 110.76 51.8475C110.756 51.7006 110.456 51.4149 110.323 51.3613C109.666 51.09 109.179 51.0055 108.35 50.9727M98.0601 41.4027C99.5066 40.1314 102.353 38.1521 106.945 38.2567C112.974 38.3796 116.16 41.1588 116.456 47.79C116.577 50.5308 116.376 58.1762 116.324 60.0804C116.348 60.2105 116.306 60.3439 116.211 60.4375C116.164 60.4838 116.107 60.5181 116.043 60.5377C115.98 60.5573 115.913 60.5615 115.848 60.55L111.507 60.5592C110.975 60.5336 110.913 60.275 110.906 60.0019L110.874 58.8682C110.868 58.6408 110.65 58.6482 110.594 58.6848C109.179 60.1525 106.861 60.8863 104.397 60.8863C100.653 60.8863 96.9202 58.7218 96.9312 54.4347C96.9425 50.045 100.11 47.8787 103.589 47.3686C105.818 47.0422 108.33 47.332 110.23 48.075C110.351 48.1225 110.6 48.053 110.603 47.884C110.611 47.3248 110.585 46.259 110.473 45.7525C110.193 44.4648 109.101 43.4283 106.805 43.1477C106.333 43.0898 105.856 43.0773 105.381 43.111C103.555 43.2521 101.36 44.6518 100.45 45.1746C100.235 45.2974 99.901 45.2076 99.7925 45.0701C99.2625 44.3954 97.9262 42.4246 97.8234 42.1093C97.7205 41.794 97.8663 41.5314 98.053 41.3663L98.0601 41.4027ZM118.409 49.5544C118.371 43.4311 122.713 38.2655 129.763 38.2178C134.16 38.1905 137.355 40.1494 137.919 41.074C138.031 41.2905 137.975 41.472 137.895 41.6904C137.325 42.7826 136.662 43.8236 135.913 44.8017C135.627 45.161 135.315 44.853 134.957 44.618C133.958 43.9632 132.058 43.1631 130.19 43.1631C126.801 43.1631 124.273 45.4488 124.303 49.6516C124.329 53.6873 126.73 55.9014 130.201 55.9803C132.006 56.0243 133.757 55.0045 134.681 54.1699C134.975 53.9169 135.282 54.0414 135.62 54.3019C136.282 54.9677 137.232 55.9951 137.76 56.6864C138.106 57.0791 137.848 57.4644 137.723 57.6186C136.293 59.3976 133.531 60.8928 129.876 60.913C122.224 60.9679 118.428 55.6776 118.392 49.5324M154.919 60.6417C155.278 60.6159 159.111 60.0946 160.289 59.8306C160.58 59.7646 160.685 59.5244 160.524 59.2841L156.33 53.1021L152.345 48.0814C152.207 47.8978 152.214 47.7145 152.363 47.5678L159.654 40.3841C160.311 39.687 159.915 39.3845 159.359 39.221C158.28 38.9057 156.537 38.5111 155.546 38.3038C155.128 38.2175 154.624 38.2488 154.239 38.6156L145.821 46.8248C145.541 47.0998 145.381 47.0389 145.379 46.6448L145.198 29.0255C145.191 28.7502 144.855 28.5429 144.666 28.5341L140.271 28.5249C139.993 28.574 139.773 28.7845 139.716 29.0569C139.492 32.3715 139.81 56.7047 139.944 60.1096C139.947 60.3476 140.135 60.5437 140.377 60.5609C141.342 60.6157 143.729 60.6122 144.845 60.592C145.394 60.592 145.461 60.2124 145.461 60.2124L145.544 53.6816C145.544 53.6816 145.6 53.3919 145.693 53.3149L147.638 51.3115C147.75 51.2051 147.925 51.2126 148.037 51.3628C148.588 52.0929 150.16 54.4667 151.616 56.5871L154.29 60.3857C154.492 60.6682 154.727 60.6794 154.906 60.6738L154.919 60.6417Z" fill="black"/>
<path fill-rule="evenodd" clip-rule="evenodd" d="M89.7467 60.6396L93.7746 60.6469C93.9242 60.656 94.0714 60.6054 94.1838 60.5062C94.2389 60.4576 94.2836 60.3983 94.3152 60.3321C94.3469 60.2658 94.3649 60.1938 94.3681 60.1204C94.6107 55.3474 94.506 32.623 94.353 29.0367C94.3401 28.7247 94.2039 28.6092 93.9893 28.5817C93.0187 28.4533 90.2525 28.4845 89.3659 28.7102C89.2024 28.7439 89.0851 28.8853 89.0843 29.0495C88.8677 38.2983 89.0133 59.6215 89.0601 60.0252C89.1069 60.4288 89.3212 60.625 89.7451 60.6397L89.7467 60.6396Z" fill="black"/>
<path fill-rule="evenodd" clip-rule="evenodd" d="M24.1992 53.7904C24.1992 51.2406 26.1616 49.188 28.5992 49.188C31.0368 49.188 32.9992 51.2406 32.9992 53.7904V65.1189C32.9992 67.6686 31.0368 69.7213 28.5992 69.7213C26.1616 69.7213 24.1992 67.6686 24.1992 65.1189V53.7904Z" fill="#E01E5A"/>
<path fill-rule="evenodd" clip-rule="evenodd" d="M40.536 57.988C37.9863 57.988 35.9336 56.0256 35.9336 53.588C35.9336 51.1504 37.9862 49.188 40.536 49.188H51.8648C54.4145 49.188 56.4672 51.1504 56.4672 53.588C56.4672 56.0256 54.4146 57.988 51.8648 57.988H40.536Z" fill="#ECB22D"/>
<path fill-rule="evenodd" clip-rule="evenodd" d="M35.9336 30.3231C35.9336 27.7733 37.896 25.7207 40.3336 25.7207C42.7712 25.7207 44.7336 27.7733 44.7336 30.3231V41.6516C44.7336 44.2014 42.7712 46.254 40.3336 46.254C37.896 46.254 35.9336 44.2014 35.9336 41.6516V30.3231Z" fill="#2FB67C"/>
<path fill-rule="evenodd" clip-rule="evenodd" d="M17.0692 46.2541C14.5194 46.2541 12.4668 44.2917 12.4668 41.8541C12.4668 39.4165 14.5194 37.4541 17.0692 37.4541H28.3977C30.9475 37.4541 33.0001 39.4165 33.0001 41.8541C33.0001 44.2917 30.9475 46.2541 28.3977 46.2541H17.0692Z" fill="#36C5F1"/>
<path fill-rule="evenodd" clip-rule="evenodd" d="M35.9336 65.3209C35.9336 67.7585 37.896 69.7209 40.3336 69.7209C42.7712 69.7209 44.7336 67.7585 44.7336 65.3209C44.7336 62.8833 42.7712 60.9209 40.3336 60.9209H35.9336V65.3209Z" fill="#ECB22D"/>
<path fill-rule="evenodd" clip-rule="evenodd" d="M52.068 46.2541H47.668V41.8541C47.668 39.4165 49.6304 37.4541 52.068 37.4541C54.5056 37.4541 56.468 39.4165 56.468 41.8541C56.468 44.2917 54.5056 46.2541 52.068 46.2541Z" fill="#2FB67C"/>
<path fill-rule="evenodd" clip-rule="evenodd" d="M16.8668 49.188H21.2668V53.588C21.2668 56.0256 19.3044 57.988 16.8668 57.988C14.4292 57.988 12.4668 56.0256 12.4668 53.588C12.4668 51.1504 14.4292 49.188 16.8668 49.188Z" fill="#E01E5A"/>
<path fill-rule="evenodd" clip-rule="evenodd" d="M32.9992 30.1207V34.5207H28.5992C26.1616 34.5207 24.1992 32.5583 24.1992 30.1207C24.1992 27.6831 26.1616 25.7207 28.5992 25.7207C31.0368 25.7207 32.9992 27.6831 32.9992 30.1207Z" fill="#36C5F1"/>
</svg>
