<svg width="176" height="88" viewBox="0 0 176 88" fill="none" xmlns="http://www.w3.org/2000/svg">
<path d="M121.178 29.2298H112.545C112.434 29.2381 112.33 29.2858 112.251 29.3644C112.173 29.443 112.125 29.5472 112.117 29.658V34.6527C112.125 34.7635 112.173 34.8677 112.251 34.9463C112.33 35.0248 112.434 35.0726 112.545 35.0808H121.178C121.289 35.0726 121.393 35.0248 121.472 34.9463C121.551 34.8677 121.598 34.7635 121.607 34.6527V29.658C121.607 29.3726 121.464 29.2298 121.178 29.2298ZM121.036 36.6506H104.482C104.268 36.6506 103.982 36.8647 103.911 37.0787L101.77 45.2131L101.628 45.6412L99.1302 36.936C99.0588 36.722 98.8447 36.5079 98.5593 36.5079H92.1375C91.9234 36.5079 91.638 36.722 91.5667 36.936L89.1407 45.0703L88.9979 45.4985L88.8552 45.0703L86.8573 37.0787C86.786 36.8647 86.5719 36.6506 86.2865 36.6506H73.3715V29.658C73.3715 29.4439 73.0861 29.1585 72.8007 29.3012L64.595 31.7986C64.3809 31.8699 64.1669 32.0126 64.1669 32.2267V36.6506H62.0263C61.9155 36.6589 61.8113 36.7066 61.7327 36.7852C61.6541 36.8638 61.6064 36.9679 61.5982 37.0787V43.2865C61.6064 43.3973 61.6541 43.5015 61.7327 43.5801C61.8113 43.6586 61.9155 43.7064 62.0263 43.7146H64.1669V51.2781C64.1669 56.6296 67.0924 59.127 72.5153 59.127C74.7272 59.127 76.9392 58.6275 78.3663 57.8426V51.4208C78.3663 51.0641 78.0808 50.9927 77.9381 51.0641C77.0819 51.4208 76.3684 51.5635 75.5835 51.5635C74.1564 51.5635 73.3715 50.9927 73.3715 49.2802V43.7146H78.0095C78.1203 43.7064 78.2245 43.6586 78.303 43.5801C78.3816 43.5015 78.4294 43.3973 78.4376 43.2865V38.0777L84.574 58.4848C84.6454 58.6989 84.8594 58.913 85.1449 58.913H91.9234C92.1375 58.913 92.4229 58.6989 92.4943 58.4848L95.4198 49.4229L98.2739 58.4135C98.3453 58.6275 98.6307 58.8416 98.8447 58.8416H105.623C105.837 58.8416 106.123 58.6275 106.194 58.4135L112.402 37.935V58.4135C112.41 58.5243 112.458 58.6285 112.536 58.707C112.615 58.7856 112.719 58.8334 112.83 58.8416H121.107C121.218 58.8334 121.322 58.7856 121.401 58.707C121.479 58.6285 121.527 58.5243 121.535 58.4135V37.0787C121.464 36.7933 121.25 36.6506 121.036 36.6506ZM131.953 29.2298H123.676C123.565 29.2381 123.461 29.2858 123.382 29.3644C123.304 29.443 123.256 29.5472 123.248 29.658V58.4135C123.256 58.5243 123.304 58.6285 123.382 58.707C123.461 58.7856 123.565 58.8334 123.676 58.8416H131.953C132.064 58.8334 132.168 58.7856 132.246 58.707C132.325 58.6285 132.373 58.5243 132.381 58.4135V29.658C132.381 29.3726 132.167 29.2298 131.953 29.2298ZM143.013 29.2298H134.379C134.268 29.2381 134.164 29.2858 134.085 29.3644C134.007 29.443 133.959 29.5472 133.951 29.658V34.6527C133.959 34.7635 134.007 34.8677 134.085 34.9463C134.164 35.0248 134.268 35.0726 134.379 35.0808H143.013C143.123 35.0726 143.228 35.0248 143.306 34.9463C143.385 34.8677 143.433 34.7635 143.441 34.6527V29.658C143.441 29.3726 143.298 29.2298 143.013 29.2298ZM142.87 36.6506H134.593C134.482 36.6589 134.378 36.7066 134.299 36.7852C134.221 36.8638 134.173 36.9679 134.165 37.0787V58.4135C134.173 58.5243 134.221 58.6285 134.299 58.707C134.378 58.7856 134.482 58.8334 134.593 58.8416H142.87C142.981 58.8334 143.085 58.7856 143.163 58.707C143.242 58.6285 143.29 58.5243 143.298 58.4135V37.0787C143.298 36.7933 143.084 36.6506 142.87 36.6506ZM156.57 36.0798C149.292 36.0798 144.154 41.4313 144.154 47.6391V47.7104C144.154 53.9182 149.292 59.1984 156.498 59.1984C163.777 59.1984 168.914 53.8468 168.914 47.6391V47.5677C168.985 41.36 163.848 36.0798 156.57 36.0798ZM160.138 47.7104C160.138 49.7797 158.639 51.5635 156.57 51.5635C154.572 51.5635 152.931 49.851 152.931 47.6391V47.5677C152.931 45.4985 154.429 43.7146 156.498 43.7146C158.496 43.7146 160.138 45.4271 160.138 47.6391V47.7104ZM31.4156 19.6685C18.0011 19.6685 7.08398 30.5856 7.08398 44C7.08398 57.4145 18.0011 68.3316 31.4156 68.3316C44.9014 68.403 55.8185 57.4859 55.8185 44C55.8185 30.5142 44.9014 19.6685 31.4156 19.6685ZM31.4156 61.9812C21.5688 61.9812 13.5058 53.9182 13.5058 44C13.5058 34.1532 21.5688 26.0903 31.4156 26.0903C41.3337 26.0903 49.3967 34.1532 49.3967 44C49.3967 53.9182 41.3337 61.9812 31.4156 61.9812Z" fill="#E31E26"/>
<path d="M37.4802 43.0014C40.2781 43.0014 42.5463 40.7332 42.5463 37.9352C42.5463 35.1373 40.2781 32.8691 37.4802 32.8691C34.6822 32.8691 32.4141 35.1373 32.4141 37.9352C32.4141 40.7332 34.6822 43.0014 37.4802 43.0014Z" fill="#E31E26"/>
<path d="M37.4802 55.1312C40.2781 55.1312 42.5463 52.8631 42.5463 50.0651C42.5463 47.2672 40.2781 44.999 37.4802 44.999C34.6822 44.999 32.4141 47.2672 32.4141 50.0651C32.4141 52.8631 34.6822 55.1312 37.4802 55.1312Z" fill="#E31E26"/>
<path d="M25.3513 55.1312C28.1492 55.1312 30.4174 52.8631 30.4174 50.0651C30.4174 47.2672 28.1492 44.999 25.3513 44.999C22.5533 44.999 20.2852 47.2672 20.2852 50.0651C20.2852 52.8631 22.5533 55.1312 25.3513 55.1312Z" fill="#E31E26"/>
<path d="M25.3513 43.0014C28.1492 43.0014 30.4174 40.7332 30.4174 37.9352C30.4174 35.1373 28.1492 32.8691 25.3513 32.8691C22.5533 32.8691 20.2852 35.1373 20.2852 37.9352C20.2852 40.7332 22.5533 43.0014 25.3513 43.0014Z" fill="#E31E26"/>
</svg>
