<svg width="176" height="48" viewBox="0 0 176 48" fill="none" xmlns="http://www.w3.org/2000/svg">
<g clip-path="url(#clip0_1406_3104)">
<path d="M41.3264 32.4451L41.3017 32.3673L56.95 18.1446V11.2918H31.8445V18.1446H46.8401L46.8649 18.2101L31.3691 32.4451V39.298H57.2023V32.4451H41.3264ZM72.6148 10.6389C69.7191 10.6389 67.3591 11.0725 65.5347 11.9398C63.8354 12.6956 62.4041 13.9408 61.4263 15.514C60.4906 17.0974 59.9032 18.8595 59.7027 20.6844L67.3201 21.7475C67.596 20.1362 68.1472 18.994 68.9735 18.321C69.8172 17.6895 70.8391 17.3365 71.8954 17.3115L72.247 17.3156C73.7932 17.3156 74.9146 17.726 75.6113 18.5466C76.3022 19.3674 76.6535 20.5038 76.6535 22.0017V22.7488H69.3286C65.6006 22.7488 62.9222 23.5694 61.2936 25.2107C59.6649 26.852 58.8521 29.0187 58.855 31.7107C58.855 34.4682 59.6679 36.5201 61.2936 37.8663C62.9195 39.2121 64.9641 39.881 67.4274 39.873C70.4835 39.873 72.8339 38.8293 74.4786 36.7418C75.4501 35.4591 76.1439 33.9908 76.5163 32.4291H76.7934L77.8432 39.2819H84.7456V21.928C84.7456 18.3412 83.7937 15.5631 81.8898 13.5937C79.9854 11.6238 76.8937 10.6389 72.6145 10.6389M75.0286 32.0308C73.9331 32.9379 72.4987 33.3891 70.7132 33.3891C69.242 33.3891 68.2198 33.1334 67.6467 32.6219C67.3674 32.3798 67.1452 32.0797 66.9959 31.7428C66.8465 31.4059 66.7737 31.0405 66.7825 30.6725C66.7662 30.3255 66.8211 29.9789 66.944 29.6537C67.067 29.3285 67.2553 29.0315 67.4975 28.7808C67.9591 28.3511 68.56 28.099 69.1922 28.07L76.6652 28.071V28.543C76.6797 29.2099 76.5397 29.8713 76.256 30.4761C75.9722 31.0808 75.5523 31.6127 75.0286 32.0308ZM126.484 11.2914H118.329V39.3024H126.484V11.2914ZM174.632 11.2914C172.328 11.2914 170.512 12.0984 169.184 13.7124C168.231 14.8725 167.506 16.5866 167.01 18.8545H166.77L165.704 11.2918H158.739V39.2983H166.895V24.9357C166.895 23.1248 167.322 21.7365 168.176 20.7707C169.03 19.8049 170.606 19.322 172.904 19.322H176V11.2918L174.632 11.2914ZM150.646 12.2067C148.742 11.0823 146.341 10.5215 143.442 10.5242C138.879 10.5242 135.308 11.814 132.729 14.3936C130.15 16.9737 128.86 20.5301 128.86 25.063C128.794 27.8036 129.397 30.5195 130.617 32.9789C131.733 35.1704 133.472 36.9893 135.618 38.2107C137.778 39.4502 140.347 40.0713 143.327 40.074C145.903 40.074 148.055 39.6801 149.782 38.8922C151.407 38.1845 152.821 37.0753 153.891 35.6705C154.909 34.2915 155.665 32.7397 156.123 31.0913L149.097 29.1378C148.8 30.2097 148.231 31.1878 147.443 31.9776C146.649 32.7655 145.32 33.1594 143.455 33.1594C141.236 33.1594 139.583 32.5288 138.494 31.2677C137.705 30.3565 137.209 29.0559 136.99 27.3693H156.23C156.309 26.5813 156.351 25.9206 156.351 25.3872V23.6432C156.397 21.3004 155.909 18.9774 154.925 16.8477C154.003 14.9077 152.511 13.2898 150.646 12.2064M143.207 17.2003C146.514 17.2003 148.388 18.8157 148.832 22.0464H137.135C137.321 20.9685 137.771 19.9525 138.445 19.0879C139.517 17.8267 141.105 17.1975 143.207 17.2003ZM122.495 0.00265195C121.882 -0.0181619 121.27 0.0837137 120.697 0.302221C120.124 0.520728 119.601 0.851406 119.159 1.27459C118.37 2.05002 117.903 3.092 117.851 4.19353L117.849 4.55733C117.827 5.16876 117.932 5.77815 118.158 6.34743C118.384 6.91672 118.725 7.43368 119.161 7.86601C119.952 8.65067 121.009 9.11368 122.126 9.16423L122.495 9.16594C123.107 9.18892 123.717 9.08511 124.286 8.86113C124.856 8.63715 125.372 8.2979 125.802 7.86499C126.576 7.07243 127.03 6.0252 127.078 4.92216L127.079 4.55733C127.107 3.95268 127.008 3.34884 126.788 2.7844C126.568 2.22001 126.231 1.70726 125.801 1.27869C125.37 0.850634 124.853 0.516462 124.285 0.297468C123.717 0.0784749 123.108 -0.0205357 122.499 0.00674727L122.495 0.00265195ZM105.648 10.5242C102.871 10.5242 100.639 11.3899 98.9523 13.1213C97.7038 14.4045 96.7876 16.3197 96.2037 18.8667H95.9435L94.8768 11.304H87.9126V47.3497H96.0669V32.5028H96.3646C96.6132 33.4927 96.9622 34.4552 97.4061 35.3753C98.0963 36.8742 99.2276 38.1303 100.651 38.9782C102.127 39.7784 103.79 40.1764 105.47 40.1317C108.884 40.1317 111.484 38.8116 113.269 36.1715C115.055 33.5314 115.948 29.8478 115.948 25.1206C115.948 20.5546 115.084 16.9803 113.357 14.3977C111.629 11.8154 109.059 10.5242 105.648 10.5242ZM106.475 30.8203C105.587 32.0971 104.232 32.778 102.408 32.8628L102.011 32.8721C101.176 32.9105 100.343 32.7507 99.583 32.4061C98.8226 32.0614 98.1559 31.5418 97.6382 30.8903C96.5824 29.5743 96.056 27.7728 96.059 25.4858V24.9524C96.059 22.6294 96.5853 20.8511 97.6378 19.6175C98.6904 18.3837 100.148 17.7736 102.01 17.7873C104.072 17.7873 105.57 18.4371 106.504 19.7367C107.438 21.0362 107.905 22.8486 107.905 25.1739C107.911 27.5785 107.437 29.4607 106.483 30.8203H106.475Z" fill="#201515"/>
<path d="M28.2156 32.4453H0.00195312V39.3063H28.2156V32.4453Z" fill="#FF4F00"/>
</g>
<defs>
<clipPath id="clip0_1406_3104">
<rect width="176" height="47.7806" fill="white"/>
</clipPath>
</defs>
</svg>
