<svg preserveAspectRatio="none" width="100%" height="100%" overflow="visible" style="display: block;" viewBox="0 0 282.286 284.143" fill="none" xmlns="http://www.w3.org/2000/svg">
<g id="Wrap">
<path id="Element" d="M209.439 37.122C210.744 34.6315 213.825 33.6617 216.266 35.0562C218.28 36.2067 220.265 37.4072 222.219 38.6568C224.588 40.1715 225.16 43.3509 223.559 45.6625L198.656 81.6376C197.056 83.9492 193.892 84.5118 191.489 83.0522C191.398 82.9966 191.306 82.9412 191.214 82.8859C188.806 81.4354 187.835 78.3722 189.14 75.8817L209.439 37.122Z" fill="var(--fill-0, #4268FF)" fill-opacity="0.5" stroke="var(--stroke-0, white)" stroke-width="3.71429" stroke-linejoin="round"/>
<path id="Element_2" d="M256.61 72.764C259.029 71.3314 262.161 72.1274 263.504 74.5972C278.21 101.636 283.568 132.836 278.652 163.317C273.467 195.476 257.174 224.8 232.606 246.19C208.039 267.581 176.752 279.684 144.185 280.395C111.619 281.107 79.8328 270.382 54.3548 250.085C28.8769 229.788 11.3186 201.203 4.73333 169.301C-1.85198 137.399 2.95222 104.199 18.3105 75.472C33.6688 46.7454 58.6097 24.3104 88.796 12.0681C117.407 0.464636 149.016 -1.28631 178.657 7.00406C181.365 7.7613 182.84 10.6356 181.985 13.3136L166.431 61.9941C165.576 64.6721 162.714 66.1322 159.986 65.453C144.02 61.4779 127.156 62.6448 111.829 68.861C94.9244 75.7167 80.9575 88.2803 72.3568 104.367C63.7562 120.454 61.0658 139.047 64.7536 156.912C68.4414 174.777 78.274 190.784 92.5417 202.15C106.809 213.517 124.609 219.523 142.847 219.124C161.084 218.726 178.605 211.948 192.363 199.969C206.12 187.991 215.244 171.569 218.148 153.56C220.782 137.231 218.15 120.533 210.707 105.86C209.435 103.352 210.219 100.237 212.638 98.8043L256.61 72.764Z" fill="var(--fill-0, #4268FF)" stroke="var(--stroke-0, white)" stroke-width="3.71429" stroke-linejoin="round"/>
</g>
</svg>
