<svg xmlns="http://www.w3.org/2000/svg" viewBox="0 0 564 564" fill="none">
  <defs>
    <linearGradient id="content-1-bar" x1="0" y1="0" x2="0" y2="1">
      <stop stop-color="#7994FD" />
      <stop offset="1" stop-color="#7994FD" stop-opacity="0" />
    </linearGradient>
  </defs>
  <rect width="564" height="564" rx="24" fill="#FAFAFA" />
  <rect x="68" y="68" width="428" height="428" rx="24" fill="white" stroke="rgba(12,16,33,.05)" />
  <text x="282" y="122" fill="#0C1021" font-family="Urbanist, Arial, sans-serif" font-size="24" font-weight="600" text-anchor="middle">AI-driven outcomes</text>

  <line x1="94" y1="210" x2="470" y2="210" stroke="rgba(83,86,98,.08)" />
  <line x1="94" y1="262" x2="470" y2="262" stroke="rgba(83,86,98,.08)" />
  <line x1="94" y1="314" x2="470" y2="314" stroke="rgba(83,86,98,.08)" />
  <line x1="94" y1="366" x2="470" y2="366" stroke="rgba(83,86,98,.08)" />

  <rect x="125" y="236" width="86" height="154" rx="7" fill="url(#content-1-bar)" stroke="rgba(12,16,33,.2)" />
  <rect x="239" y="282" width="86" height="108" rx="7" fill="url(#content-1-bar)" stroke="rgba(12,16,33,.2)" />
  <rect x="353" y="235" width="98" height="155" rx="7" fill="url(#content-1-bar)" stroke="#4268FF" />

  <g>
    <rect x="126" y="224" width="48" height="28" rx="14" fill="#0C1021" />
    <text x="150" y="243" fill="white" font-family="Urbanist, Arial, sans-serif" font-size="14" font-weight="400" text-anchor="middle">68%</text>
  </g>
  <g>
    <rect x="261" y="269" width="48" height="28" rx="14" fill="#0C1021" />
    <text x="285" y="288" fill="white" font-family="Urbanist, Arial, sans-serif" font-size="14" font-weight="400" text-anchor="middle">42%</text>
  </g>
  <g>
    <rect x="366" y="224" width="72" height="28" rx="14" fill="#0C1021" />
    <text x="402" y="243" fill="white" font-family="Urbanist, Arial, sans-serif" font-size="14" font-weight="400" text-anchor="middle">1.9K/day</text>
  </g>

  <text x="167" y="436" fill="#535662" font-family="Urbanist, Arial, sans-serif" font-size="12" font-weight="400" text-anchor="middle">Automation Rate</text>
  <text x="282" y="436" fill="#535662" font-family="Urbanist, Arial, sans-serif" font-size="12" font-weight="400" text-anchor="middle">Time Saved</text>
  <text x="402" y="436" fill="#535662" font-family="Urbanist, Arial, sans-serif" font-size="12" font-weight="400" text-anchor="middle">Tasks Completed</text>
</svg>
