<svg xmlns="http://www.w3.org/2000/svg" viewBox="0 0 564 564" fill="none">
  <defs>
    <linearGradient id="content-3-text" x1="0" y1="0" x2="0" y2="1">
      <stop stop-color="#7490FF" />
      <stop offset="1" stop-color="#4268FF" />
    </linearGradient>
  </defs>
  <rect width="564" height="564" rx="24" fill="#FAFAFA" />
  <rect x="68" y="68" width="428" height="428" rx="24" fill="white" stroke="rgba(12,16,33,.05)" />
  <text x="282" y="122" fill="#0C1021" font-family="Urbanist, Arial, sans-serif" font-size="24" font-weight="600" text-anchor="middle">Built for every team</text>

  <path d="M196 240V254C196 276 214 294 236 294H320C338 294 352 308 352 326V340" stroke="#4268FF" stroke-width="2" stroke-linecap="round" stroke-dasharray="8 8" />
  <path d="M352 372V386C352 404 334 418 316 418H234" stroke="#4268FF" stroke-width="2" stroke-linecap="round" stroke-dasharray="8 8" />
  <circle cx="196" cy="240" r="3" fill="#4268FF" />
  <circle cx="352" cy="340" r="3" fill="#4268FF" />

  <g>
    <rect x="108" y="184" width="180" height="56" rx="28" fill="white" stroke="rgba(12,16,33,.15)" />
    <image href="/images/voip-phone-service/icon-check-filled.svg" x="126" y="200" width="24" height="24" />
    <text x="170" y="220" fill="url(#content-3-text)" font-family="Urbanist, Arial, sans-serif" font-size="18" font-weight="600">Sales Team</text>
  </g>

  <g>
    <rect x="250" y="308" width="206" height="56" rx="28" fill="white" stroke="rgba(12,16,33,.15)" />
    <image href="/images/voip-phone-service/icon-check-filled.svg" x="268" y="324" width="24" height="24" />
    <text x="312" y="344" fill="url(#content-3-text)" font-family="Urbanist, Arial, sans-serif" font-size="18" font-weight="600">Support Team</text>
  </g>

  <g>
    <rect x="130" y="420" width="178" height="56" rx="28" fill="white" stroke="rgba(12,16,33,.15)" />
    <image href="/images/voip-phone-service/icon-check-filled.svg" x="148" y="436" width="24" height="24" />
    <text x="192" y="456" fill="url(#content-3-text)" font-family="Urbanist, Arial, sans-serif" font-size="18" font-weight="600">Operations</text>
  </g>
</svg>
