<svg preserveAspectRatio="none" width="100%" height="100%" overflow="visible" style="display: block;" viewBox="0 0 16 16" fill="none" xmlns="http://www.w3.org/2000/svg">
<g id="fluent:checkmark-12-regular">
<path id="Vector" d="M13.1387 4.19467C13.2008 4.25659 13.25 4.33016 13.2836 4.41115C13.3172 4.49215 13.3345 4.57898 13.3345 4.66667C13.3345 4.75436 13.3172 4.84118 13.2836 4.92218C13.25 5.00317 13.2008 5.07674 13.1387 5.13867L7.13867 11.1387C7.07674 11.2008 7.00317 11.25 6.92218 11.2836C6.84118 11.3172 6.75436 11.3345 6.66667 11.3345C6.57898 11.3345 6.49215 11.3172 6.41116 11.2836C6.33016 11.25 6.25659 11.2008 6.19467 11.1387L3.528 8.472C3.40282 8.34682 3.33249 8.17703 3.33249 8C3.33249 7.82297 3.40282 7.65318 3.528 7.528C3.65318 7.40282 3.82297 7.33249 4 7.33249C4.17703 7.33249 4.34682 7.40282 4.472 7.528L6.66667 9.724L12.1947 4.19467C12.2566 4.13258 12.3302 4.08333 12.4112 4.04972C12.4921 4.01611 12.579 3.99881 12.6667 3.99881C12.7544 3.99881 12.8412 4.01611 12.9222 4.04972C13.0032 4.08333 13.0767 4.13258 13.1387 4.19467Z" fill="var(--fill-0, white)"/>
</g>
</svg>
