<svg preserveAspectRatio="none" width="100%" height="100%" overflow="visible" style="display: block;" viewBox="0 0 48 48" fill="none" xmlns="http://www.w3.org/2000/svg">
<g id="fluent-mdl2:offline-storage-solid">
<path id="Vector" d="M22.5 18C21.4219 18 20.3516 17.9531 19.2891 17.8594C18.2266 17.7656 17.1562 17.6172 16.0781 17.4141C15.5469 17.3047 14.9297 17.1641 14.2266 16.9922C13.5234 16.8203 12.7969 16.5859 12.0469 16.2891C11.2969 15.9922 10.5625 15.6641 9.84375 15.3047C9.125 14.9453 8.47656 14.5234 7.89844 14.0391C7.32031 13.5547 6.86719 13.0234 6.53906 12.4453C6.21094 11.8672 6.03125 11.2187 6 10.5C6 9.79688 6.17187 9.15625 6.51562 8.57812C6.85938 8 7.32031 7.46875 7.89844 6.98438C8.47656 6.5 9.11719 6.07031 9.82031 5.69531C10.5234 5.32031 11.2578 4.99219 12.0234 4.71094C12.7891 4.42969 13.5156 4.20313 14.2031 4.03125C14.8906 3.85937 15.5156 3.71094 16.0781 3.58594C17.1406 3.38281 18.2031 3.23438 19.2656 3.14062C20.3281 3.04688 21.4062 3 22.5 3C23.5781 3 24.6484 3.04688 25.7109 3.14062C26.7734 3.23438 27.8438 3.38281 28.9219 3.58594C29.4531 3.69531 30.0703 3.83594 30.7734 4.00781C31.4766 4.17969 32.2031 4.41406 32.9531 4.71094C33.7031 5.00781 34.4375 5.33594 35.1562 5.69531C35.875 6.05469 36.5234 6.47656 37.1016 6.96094C37.6797 7.44531 38.1328 7.97656 38.4609 8.55469C38.7891 9.13281 38.9687 9.78125 39 10.5C39 11.2031 38.8281 11.8438 38.4844 12.4219C38.1406 13 37.6797 13.5313 37.1016 14.0156C36.5234 14.5 35.8828 14.9297 35.1797 15.3047C34.4766 15.6797 33.7422 16.0078 32.9766 16.2891C32.2109 16.5703 31.4844 16.8047 30.7969 16.9922C30.1094 17.1797 29.4844 17.3203 28.9219 17.4141C27.8594 17.6172 26.7969 17.7656 25.7344 17.8594C24.6719 17.9531 23.5938 18 22.5 18ZM22.5 21C23.2031 21 23.9844 20.9766 24.8438 20.9297C25.7031 20.8828 26.6016 20.8047 27.5391 20.6953C28.4766 20.5859 29.4141 20.4453 30.3516 20.2734C31.2891 20.1016 32.2031 19.875 33.0938 19.5938C33.9844 19.3125 34.8125 19 35.5781 18.6562C36.3438 18.3125 37.0156 17.8984 37.5938 17.4141C37.7969 17.2422 37.9609 17.0781 38.0859 16.9219C38.2109 16.7656 38.3672 16.5859 38.5547 16.3828C38.5859 16.3516 38.6563 16.3047 38.7656 16.2422C38.875 16.1797 38.9531 16.125 39 16.0781V19.5C39 20.2187 38.8203 20.8672 38.4609 21.4453C38.1016 22.0234 37.6328 22.5625 37.0547 23.0625C36.4766 23.5625 35.8125 23.9922 35.0625 24.3516C34.3125 24.7109 33.5625 25.0391 32.8125 25.3359C32.0625 25.6328 31.3203 25.8672 30.5859 26.0391C29.8516 26.2109 29.2187 26.3516 28.6875 26.4609C27.6562 26.6484 26.625 26.7813 25.5938 26.8594C24.5625 26.9375 23.5312 26.9844 22.5 27C21.4688 27 20.4375 26.9609 19.4062 26.8828C18.375 26.8047 17.3438 26.6641 16.3125 26.4609C15.7813 26.3672 15.1562 26.2266 14.4375 26.0391C13.7188 25.8516 12.9766 25.6172 12.2109 25.3359C11.4453 25.0547 10.6953 24.7266 9.96094 24.3516C9.22656 23.9766 8.5625 23.5469 7.96875 23.0625C7.375 22.5781 6.89844 22.0469 6.53906 21.4688C6.17969 20.8906 6 20.2344 6 19.5V16.0781C6.04688 16.1094 6.125 16.1562 6.23438 16.2188C6.34375 16.2813 6.41406 16.3359 6.44531 16.3828C6.61719 16.5703 6.76562 16.7422 6.89062 16.8984C7.01563 17.0547 7.1875 17.2266 7.40625 17.4141C7.96875 17.8828 8.63281 18.2969 9.39844 18.6562C10.1641 19.0156 10.9922 19.3281 11.8828 19.5938C12.7734 19.8594 13.6875 20.0781 14.625 20.25C15.5625 20.4219 16.5 20.5703 17.4375 20.6953C18.375 20.8203 19.2734 20.8984 20.1328 20.9297C20.9922 20.9609 21.7813 20.9844 22.5 21ZM22.5 30C23.2031 30 23.9844 29.9766 24.8438 29.9297C25.7031 29.8828 26.6016 29.8047 27.5391 29.6953C28.4766 29.5859 29.4141 29.4453 30.3516 29.2734C31.2891 29.1016 32.2031 28.875 33.0938 28.5938C33.9844 28.3125 34.8125 28 35.5781 27.6562C36.3438 27.3125 37.0156 26.8984 37.5938 26.4141C37.7969 26.2422 37.9609 26.0781 38.0859 25.9219C38.2109 25.7656 38.3672 25.5859 38.5547 25.3828C38.5859 25.3516 38.6563 25.3047 38.7656 25.2422C38.875 25.1797 38.9531 25.125 39 25.0781V28.5C39 29.2187 38.8203 29.8672 38.4609 30.4453C38.1016 31.0234 37.6328 31.5625 37.0547 32.0625C36.4766 32.5625 35.8125 32.9922 35.0625 33.3516C34.3125 33.7109 33.5625 34.0391 32.8125 34.3359C32.0625 34.6328 31.3203 34.8672 30.5859 35.0391C29.8516 35.2109 29.2187 35.3516 28.6875 35.4609C27.6562 35.6484 26.625 35.7813 25.5938 35.8594C24.5625 35.9375 23.5312 35.9844 22.5 36C21.4688 36 20.4375 35.9609 19.4062 35.8828C18.375 35.8047 17.3438 35.6641 16.3125 35.4609C15.7813 35.3516 15.1562 35.2109 14.4375 35.0391C13.7188 34.8672 12.9766 34.6328 12.2109 34.3359C11.4453 34.0391 10.6953 33.7109 9.96094 33.3516C9.22656 32.9922 8.5625 32.5625 7.96875 32.0625C7.375 31.5625 6.89844 31.0312 6.53906 30.4688C6.17969 29.9062 6 29.25 6 28.5V25.0781C6.04688 25.1094 6.125 25.1562 6.23438 25.2188C6.34375 25.2813 6.41406 25.3359 6.44531 25.3828C6.61719 25.5703 6.76562 25.7422 6.89062 25.8984C7.01563 26.0547 7.1875 26.2266 7.40625 26.4141C7.96875 26.8828 8.63281 27.2969 9.39844 27.6562C10.1641 28.0156 10.9922 28.3281 11.8828 28.5938C12.7734 28.8594 13.6875 29.0781 14.625 29.25C15.5625 29.4219 16.5 29.5703 17.4375 29.6953C18.375 29.8203 19.2734 29.8984 20.1328 29.9297C20.9922 29.9609 21.7813 29.9844 22.5 30ZM22.5 39C23.2031 39 23.9844 38.9766 24.8438 38.9297C25.7031 38.8828 26.6016 38.8047 27.5391 38.6953C28.4766 38.5859 29.4141 38.4453 30.3516 38.2734C31.2891 38.1016 32.2031 37.875 33.0938 37.5938C33.9844 37.3125 34.8125 37 35.5781 36.6562C36.3438 36.3125 37.0156 35.8984 37.5938 35.4141C37.7969 35.2422 37.9609 35.0781 38.0859 34.9219C38.2109 34.7656 38.3672 34.5859 38.5547 34.3828C38.5859 34.3516 38.6563 34.3047 38.7656 34.2422C38.875 34.1797 38.9531 34.125 39 34.0781V37.5C39 38.2187 38.8203 38.8672 38.4609 39.4453C38.1016 40.0234 37.6328 40.5625 37.0547 41.0625C36.4766 41.5625 35.8125 41.9922 35.0625 42.3516C34.3125 42.7109 33.5625 43.0391 32.8125 43.3359C32.0625 43.6328 31.3203 43.8672 30.5859 44.0391C29.8516 44.2109 29.2187 44.3516 28.6875 44.4609C27.6562 44.6484 26.625 44.7813 25.5938 44.8594C24.5625 44.9375 23.5312 44.9844 22.5 45C21.4688 45 20.4375 44.9609 19.4062 44.8828C18.375 44.8047 17.3438 44.6641 16.3125 44.4609C15.7813 44.3672 15.1562 44.2266 14.4375 44.0391C13.7188 43.8516 12.9766 43.6172 12.2109 43.3359C11.4453 43.0547 10.6953 42.7266 9.96094 42.3516C9.22656 41.9766 8.5625 41.5469 7.96875 41.0625C7.375 40.5781 6.89844 40.0469 6.53906 39.4688C6.17969 38.8906 6 38.2344 6 37.5V34.0781C6.04688 34.1094 6.125 34.1562 6.23438 34.2188C6.34375 34.2813 6.41406 34.3359 6.44531 34.3828C6.61719 34.5703 6.76562 34.7422 6.89062 34.8984C7.01563 35.0547 7.1875 35.2266 7.40625 35.4141C7.96875 35.8828 8.63281 36.2969 9.39844 36.6562C10.1641 37.0156 10.9922 37.3281 11.8828 37.5938C12.7734 37.8594 13.6875 38.0781 14.625 38.25C15.5625 38.4219 16.5 38.5703 17.4375 38.6953C18.375 38.8203 19.2734 38.8984 20.1328 38.9297C20.9922 38.9609 21.7813 38.9844 22.5 39Z" fill="var(--fill-0, white)"/>
</g>
</svg>
