<svg preserveAspectRatio="none" width="100%" height="100%" overflow="visible" style="display: block;" viewBox="0 0 48 48" fill="none" xmlns="http://www.w3.org/2000/svg">
<g id="fluent:desktop-16-filled">
<path id="Vector" d="M10.503 6C9.30953 6 8.16493 6.47411 7.32102 7.31802C6.47711 8.16193 6.003 9.30653 6.003 10.5V31.491C6.003 32.6845 6.47711 33.8291 7.32102 34.673C8.16493 35.5169 9.30953 35.991 10.503 35.991H18.003V39H13.485C13.0872 39 12.7056 39.158 12.4243 39.4393C12.143 39.7206 11.985 40.1022 11.985 40.5C11.985 40.8978 12.143 41.2794 12.4243 41.5607C12.7056 41.842 13.0872 42 13.485 42H34.5C34.8978 42 35.2794 41.842 35.5607 41.5607C35.842 41.2794 36 40.8978 36 40.5C36 40.1022 35.842 39.7206 35.5607 39.4393C35.2794 39.158 34.8978 39 34.5 39H30V35.991H37.503C38.6965 35.991 39.8411 35.5169 40.685 34.673C41.5289 33.8291 42.003 32.6845 42.003 31.491V10.5C42.003 9.30653 41.5289 8.16193 40.685 7.31802C39.8411 6.47411 38.6965 6 37.503 6H10.503ZM27.003 35.991V39H21V35.991H27.003Z" fill="var(--fill-0, white)"/>
</g>
</svg>
