<svg preserveAspectRatio="none" width="100%" height="100%" overflow="visible" style="display: block;" viewBox="0 0 48 48" fill="none" xmlns="http://www.w3.org/2000/svg">
<g id="mynaui:mobile-solid">
<path id="Vector" d="M10.5 9.6C10.5 6.854 12.64 4.5 15.428 4.5H32.572C35.362 4.5 37.5 6.854 37.5 9.6V38.4C37.5 41.146 35.36 43.5 32.572 43.5H15.428C12.638 43.5 10.5 41.146 10.5 38.4V9.6ZM21 10.5C20.6022 10.5 20.2206 10.658 19.9393 10.9393C19.658 11.2206 19.5 11.6022 19.5 12C19.5 12.3978 19.658 12.7794 19.9393 13.0607C20.2206 13.342 20.6022 13.5 21 13.5H27C27.3978 13.5 27.7794 13.342 28.0607 13.0607C28.342 12.7794 28.5 12.3978 28.5 12C28.5 11.6022 28.342 11.2206 28.0607 10.9393C27.7794 10.658 27.3978 10.5 27 10.5H21Z" fill="var(--fill-0, white)"/>
</g>
</svg>
