<svg preserveAspectRatio="none" width="100%" height="100%" overflow="visible" style="display: block;" viewBox="0 0 48 48" fill="none" xmlns="http://www.w3.org/2000/svg">
<g id="material-symbols-light:cloud">
<path id="Vector" d="M13 38C10.5053 38 8.382 37.1293 6.63 35.388C4.87667 33.6493 4 31.5313 4 29.034C4 26.742 4.78333 24.708 6.35 22.932C7.91667 21.156 9.864 20.202 12.192 20.07C12.6413 17.1567 13.9813 14.75 16.212 12.85C18.4427 10.95 21.0387 10 24 10C27.336 10 30.17 11.166 32.502 13.498C34.834 15.83 36 18.664 36 22V24H37.232C39.1467 24.0613 40.7533 24.7647 42.052 26.11C43.3507 27.4553 44 29.0853 44 31C44 32.9613 43.324 34.6187 41.972 35.972C40.6173 37.324 38.96 38 37 38H13Z" fill="var(--fill-0, white)"/>
</g>
</svg>
