<svg xmlns="http://www.w3.org/2000/svg" viewBox="0 0 564 564" fill="none">
  <rect width="564" height="564" rx="24" fill="#FAFAFA" />
  <rect x="68" y="68" width="428" height="428" rx="24" fill="white" stroke="rgba(12,16,33,.05)" />
  <text x="282" y="122" fill="#0C1021" font-family="Urbanist, Arial, sans-serif" font-size="24" font-weight="600" text-anchor="middle">Smart Routing</text>

  <circle cx="103" cy="179" r="12" fill="#4268FF" />
  <image href="/images/voip-phone-service/icon-check-outline.svg" x="95" y="171" width="16" height="16" />
  <rect x="102" y="191" width="2" height="34" fill="#4268FF" />
  <text x="125" y="187" fill="#0C1021" font-family="Urbanist, Arial, sans-serif" font-size="17" font-weight="600">Incoming Call</text>

  <circle cx="103" cy="247" r="12" fill="white" stroke="#4268FF" stroke-width="2" />
  <image href="/images/voip-phone-service/icon-check-outline.svg" x="95" y="239" width="16" height="16" opacity=".75" />
  <rect x="102" y="259" width="2" height="34" fill="#D9D9D9" />
  <text x="125" y="255" fill="#535662" font-family="Urbanist, Arial, sans-serif" font-size="17" font-weight="400">AI Processing</text>

  <circle cx="103" cy="315" r="12" fill="white" stroke="rgba(83,86,98,.15)" stroke-width="2" />
  <text x="125" y="323" fill="#535662" font-family="Urbanist, Arial, sans-serif" font-size="17" font-weight="400">Routed</text>

  <line x1="94" y1="358" x2="470" y2="358" stroke="rgba(12,16,33,.1)" />

  <rect x="94" y="384" width="182" height="66" rx="24" stroke="rgba(12,16,33,.1)" fill="white" />
  <text x="185" y="414" fill="#0C1021" font-family="Urbanist, Arial, sans-serif" font-size="18" font-weight="600" text-anchor="middle">74%</text>
  <text x="185" y="438" fill="#535662" font-family="Urbanist, Arial, sans-serif" font-size="14" font-weight="400" text-anchor="middle">Auto-Handled</text>

  <rect x="288" y="384" width="182" height="66" rx="24" stroke="rgba(12,16,33,.1)" fill="white" />
  <text x="379" y="414" fill="#0C1021" font-family="Urbanist, Arial, sans-serif" font-size="18" font-weight="600" text-anchor="middle">0.9s</text>
  <text x="379" y="438" fill="#535662" font-family="Urbanist, Arial, sans-serif" font-size="14" font-weight="400" text-anchor="middle">Avg Response</text>
</svg>
