<svg preserveAspectRatio="none" width="100%" height="100%" overflow="visible" style="display: block;" viewBox="0 0 15.5589 20.3504" fill="none" xmlns="http://www.w3.org/2000/svg">
<g id="Group">
<g id="Vector">
</g>
<path id="Vector_2" fill-rule="evenodd" clip-rule="evenodd" d="M0.396 1.29638C0.423007 1.06932 0.50261 0.851695 0.628482 0.660798C0.754355 0.469901 0.923025 0.311001 1.12108 0.196728C1.31914 0.0824561 1.54113 0.0159634 1.76939 0.00253664C1.99766 -0.0108901 2.22591 0.0291191 2.436 0.119384C3.498 0.573384 5.878 1.65238 8.898 3.39538C11.919 5.13938 14.044 6.66238 14.967 7.35338C15.755 7.94438 15.757 9.11638 14.968 9.70938C14.054 10.3964 11.955 11.8994 8.898 13.6654C5.838 15.4314 3.486 16.4974 2.434 16.9454C1.528 17.3324 0.514 16.7454 0.396 15.7684C0.258 14.6264 0 12.0334 0 8.53138C0 5.03138 0.257 2.43938 0.396 1.29638Z" fill="var(--fill-0, white)"/>
</g>
</svg>
